<?xml version="1.0" encoding="utf-8"?>
<!-- Generator: Adobe Illustrator 24.0.0, SVG Export Plug-In . SVG Version: 6.00 Build 0)  -->
<svg version="1.1" id="layer" xmlns="http://www.w3.org/2000/svg" xmlns:xlink="http://www.w3.org/1999/xlink" x="0px" y="0px"
	 viewBox="0 0 652 332.8" style="enable-background:new 0 0 652 332.8;" xml:space="preserve">
<style type="text/css">
	.st0{fill:#3399FF;}
</style>
<path class="st0" d="M313,134.4c-3.2-0.1-5.8,2.4-5.9,5.5c0,0.1,0,0.3,0,0.4v28.4c-13.7-11-33.8-8.8-44.8,4.9c-4.5,5.7-7,12.7-7,20
	c-0.3,17.6,13.7,32.1,31.3,32.4s32.1-13.7,32.4-31.3c0-0.4,0-0.7,0-1.1v-53.3c0-1.6-0.6-3.1-1.7-4.2
	C316.1,135,314.6,134.4,313,134.4 M305.5,201.3c-2,4.8-5.8,8.6-10.6,10.7c-5,2.1-10.6,2.1-15.6,0c-4.8-2-8.5-5.9-10.5-10.6
	c-2.1-4.9-2.1-10.5,0-15.5c2-4.8,5.8-8.6,10.5-10.6c5-2.1,10.6-2.1,15.6,0c4.8,2.1,8.6,5.9,10.6,10.7
	C307.6,190.8,307.6,196.4,305.5,201.3"/>
<path class="st0" d="M379.5,171.1c-12.4-12.4-32.6-12.4-45,0c-6,6-9.3,14.1-9.3,22.5c-0.3,17.6,13.7,32.1,31.3,32.4
	c17.6,0.3,32.1-13.7,32.4-31.3c0-0.4,0-0.7,0-1.1c0-4.2-0.8-8.3-2.4-12.2S382.5,174,379.5,171.1 M375.4,201.2
	c-1,2.4-2.5,4.5-4.3,6.3s-4,3.3-6.3,4.3c-5,2.1-10.6,2.1-15.6,0c-4.8-2-8.6-5.9-10.6-10.6c-2.1-4.9-2.1-10.5,0-15.5
	c2-4.8,5.8-8.5,10.6-10.6c5-2.1,10.6-2.1,15.6,0c2.4,1,4.5,2.5,6.3,4.3s3.3,4,4.3,6.3C377.5,190.8,377.5,196.4,375.4,201.2"/>
<path class="st0" d="M511.2,167.6c0-0.8-0.2-1.6-0.5-2.3s-0.8-1.3-1.3-1.9c-0.5-0.5-1.2-1-1.9-1.3c-0.7-0.3-1.5-0.5-2.3-0.5
	c-1.1,0-2.2,0.3-3.2,0.9l-34,22.1v-44.2c0-1.6-0.6-3.1-1.7-4.2s-2.6-1.8-4.2-1.8c-3.3,0-5.9,2.6-6,5.9c0,0,0,0,0,0.1v79
	c0,1.6,0.6,3.1,1.7,4.2c1.1,1.2,2.6,1.8,4.2,1.8s3.1-0.6,4.2-1.8c1.1-1.1,1.8-2.6,1.7-4.2v-20.5l6.9-4.5l26.3,29.5
	c1.1,1,2.5,1.6,4,1.5c0.8,0,1.6-0.1,2.3-0.5c0.7-0.3,1.3-0.7,1.9-1.3c0.5-0.6,1-1.2,1.3-1.9s0.5-1.5,0.5-2.3c0-1.5-0.6-3-1.6-4.1
	l-24.4-27.5l23.8-15.5C510.5,171.3,511.3,169.5,511.2,167.6"/>
<path class="st0" d="M412.5,179.4c1.8-1.8,4-3.3,6.4-4.3c2.5-1,5.1-1.6,7.8-1.6c2.4,0,4.7,0.4,6.9,1.2c2.2,0.9,4.3,2.1,6.1,3.7
	c1.1,0.9,2.5,1.3,3.9,1.3c1.6,0.1,3.2-0.5,4.3-1.7c1.1-1.1,1.7-2.7,1.7-4.3c0-1.7-0.7-3.4-2.1-4.5c-5.7-5.1-13.1-7.9-20.8-7.7
	c-17.6,0-31.9,14.3-31.9,31.9s14.2,31.8,31.7,31.9c7.7,0,15.1-2.7,20.9-7.7c1.2-1.1,1.9-2.7,1.9-4.4c0.1-3.2-2.4-5.8-5.5-5.9
	c-0.1,0-0.3,0-0.4,0c-1.4,0-2.7,0.4-3.8,1.2c-1.8,1.6-3.8,2.8-6,3.7c-2.2,0.8-4.6,1.2-6.9,1.2c-2.7,0-5.3-0.5-7.8-1.6
	c-2.4-1-4.5-2.5-6.4-4.3C404.7,199.7,404.7,187.1,412.5,179.4C412.5,179.5,412.5,179.5,412.5,179.4"/>
<path class="st0" d="M629.3,165.7c-1.2-1.1-2.5-1.9-4-2.4c-1.7-0.6-3.5-1-5.3-1.2s-3.6-0.3-5.4-0.3c-3.6,0-7.3,0.6-10.7,1.9
	c-3.4,1.2-6.5,3-9.3,5.2v-1.2c-0.1-3.3-2.9-5.8-6.2-5.7c-3.1,0.1-5.6,2.6-5.7,5.7v51.9c0.1,3.3,2.9,5.8,6.2,5.7
	c3.1-0.1,5.6-2.6,5.7-5.7v-25.9c0-2.7,0.5-5.3,1.6-7.8c1-2.4,2.4-4.5,4.3-6.3c1.8-1.8,4-3.3,6.3-4.3c2.5-1,5.1-1.6,7.8-1.6
	s5.3,0.5,7.8,1.4c0.8,0.4,1.6,0.6,2.5,0.6c0.8,0,1.6-0.1,2.3-0.5c0.7-0.3,1.3-0.7,1.9-1.3c0.5-0.5,1-1.2,1.3-1.9s0.5-1.5,0.5-2.3
	C631,168.2,630.4,166.8,629.3,165.7"/>
<path class="st0" d="M574.1,181.4c-5.1-11.8-16.7-19.5-29.5-19.6c-17.6,0-31.8,14.2-31.9,31.8l0,0c0,17.6,14.3,31.9,31.9,31.9
	c7.6,0,15-2.7,20.8-7.7c0.1-0.1,0.2-0.2,0.2-0.2c0.5-0.4,1-0.9,1.3-1.5c1.9-2.8,1.2-6.5-1.5-8.4c-2.3-1.5-5.3-1.2-7.3,0.7
	c-0.2,0.2-0.8,0.7-0.8,0.8l-0.1,0.1c-1.7,1.4-3.6,2.6-5.7,3.3c-2.2,0.8-4.5,1.2-6.9,1.1c-2.2,0-4.3-0.3-6.4-1
	c-2-0.7-3.9-1.6-5.6-2.9c-1.7-1.2-3.2-2.7-4.4-4.4c-1.3-1.7-2.2-3.7-2.8-5.7h45c1.6,0,3.1-0.6,4.2-1.7c1.2-1.1,1.8-2.6,1.7-4.2
	C576.4,189.5,575.6,185.3,574.1,181.4 M525.4,187.8c0.6-2.1,1.5-4,2.8-5.7c1.2-1.7,2.7-3.2,4.4-4.4s3.6-2.2,5.6-2.9s4.2-1,6.3-1
	s4.3,0.3,6.3,1c4,1.3,7.5,3.9,10,7.3c1.3,1.7,2.2,3.7,2.9,5.7L525.4,187.8L525.4,187.8z"/>
<path class="st0" d="M609,216.8c-2.3,0-4.1,1.9-4.1,4.2s1.9,4.1,4.2,4.1s4.1-1.9,4.1-4.1C613.2,218.6,611.3,216.8,609,216.8
	L609,216.8 M609,224.2c-1.8,0.1-3.3-1.3-3.4-3.1c-0.1-1.8,1.3-3.3,3.1-3.4s3.3,1.3,3.4,3.1c0,0.1,0,0.1,0,0.2
	C612.2,222.7,610.8,224.2,609,224.2C609.1,224.2,609.1,224.2,609,224.2"/>
<path class="st0" d="M610,221L610,221c0.5-0.1,0.8-0.5,0.8-1c0-0.4-0.1-0.7-0.4-0.9c-0.4-0.2-0.9-0.3-1.4-0.3s-1.1,0-1.6,0.1v4.1
	h0.9v-1.6h0.4c0.5,0,0.8,0.2,0.9,0.6c0.1,0.3,0.2,0.7,0.3,1h1c-0.2-0.3-0.3-0.7-0.3-1C610.7,221.6,610.4,221.2,610,221 M608.8,220.7
	h-0.5v-1.2c0.2,0,0.4,0,0.5,0c0.6,0,0.9,0.3,0.9,0.6C609.8,220.5,609.3,220.8,608.8,220.7"/>
<path class="st0" d="M244.4,147.8c-0.6-0.5-6-4.6-17.6-4.6c-3,0-6.1,0.3-9.1,0.8c-2.2-15.3-14.9-22.7-15.4-23.1l-3.1-1.8l-2,2.9
	c-2.5,3.9-4.4,8.3-5.5,12.8c-2.1,8.7-0.8,16.9,3.6,23.9c-5.3,3-13.9,3.7-15.7,3.8h-142c-3.7,0-6.7,3-6.7,6.7
	c-0.2,12.4,1.9,24.8,6.2,36.5c4.9,12.8,12.2,22.3,21.6,28.1c10.6,6.5,27.9,10.2,47.4,10.2c8.8,0,17.6-0.8,26.3-2.4
	c12.1-2.2,23.7-6.4,34.4-12.5c8.8-5.1,16.7-11.6,23.4-19.2c11.3-12.7,18-26.9,22.9-39.5c0.7,0,1.3,0,2,0c12.3,0,19.9-4.9,24.1-9.1
	c2.8-2.6,4.9-5.8,6.4-9.4l0.9-2.6L244.4,147.8z"/>
<path class="st0" d="M50.8,158.4h19c0.9,0,1.7-0.7,1.7-1.7l0,0v-17c0-0.9-0.7-1.7-1.7-1.7l0,0h-19c-0.9,0-1.7,0.7-1.7,1.7l0,0v17
	C49.2,157.7,49.9,158.4,50.8,158.4L50.8,158.4"/>
<path class="st0" d="M77,158.4h19c0.9,0,1.7-0.7,1.7-1.7l0,0v-17c0-0.9-0.7-1.7-1.7-1.7l0,0H77c-0.9,0-1.7,0.7-1.7,1.7v17
	C75.4,157.7,76.1,158.4,77,158.4"/>
<path class="st0" d="M103.7,158.4h19c0.9,0,1.7-0.7,1.7-1.7l0,0v-17c0-0.9-0.7-1.7-1.7-1.7l0,0h-19c-0.9,0-1.7,0.7-1.7,1.7l0,0v17
	C102,157.7,102.7,158.4,103.7,158.4L103.7,158.4"/>
<path class="st0" d="M130,158.4h19c0.9,0,1.7-0.7,1.7-1.7v-17c0-0.9-0.7-1.7-1.7-1.7l0,0h-19c-0.9,0-1.7,0.7-1.7,1.7l0,0v17
	C128.3,157.7,129.1,158.4,130,158.4L130,158.4"/>
<path class="st0" d="M77,134.1h19c0.9,0,1.7-0.8,1.7-1.7v-17c0-0.9-0.7-1.7-1.7-1.7l0,0H77c-0.9,0-1.7,0.7-1.7,1.7v17
	C75.4,133.3,76.1,134.1,77,134.1"/>
<path class="st0" d="M103.7,134.1h19c0.9,0,1.7-0.8,1.7-1.7v-17c0-0.9-0.7-1.7-1.7-1.7l0,0h-19c-0.9,0-1.7,0.7-1.7,1.7l0,0v17
	C102,133.3,102.7,134.1,103.7,134.1"/>
<path class="st0" d="M130,134.1h19c0.9,0,1.7-0.8,1.7-1.7v-17c0-0.9-0.8-1.7-1.7-1.7h-19c-0.9,0-1.7,0.7-1.7,1.7l0,0v17
	C128.3,133.3,129.1,134.1,130,134.1"/>
<path class="st0" d="M130,109.7h19c0.9,0,1.7-0.7,1.7-1.7V91c0-0.9-0.8-1.7-1.7-1.7h-19c-0.9,0-1.7,0.7-1.7,1.7l0,0v17
	C128.3,108.9,129.1,109.7,130,109.7"/>
<path class="st0" d="M156.5,158.4h19c0.9,0,1.7-0.7,1.7-1.7v-17c0-0.9-0.7-1.7-1.7-1.7l0,0h-19c-0.9,0-1.7,0.7-1.7,1.7l0,0v17
	C154.9,157.7,155.6,158.4,156.5,158.4"/>
</svg>
