<?xml version="1.0" encoding="utf-8"?>
<!-- Generator: Adobe Illustrator 24.0.1, SVG Export Plug-In . SVG Version: 6.00 Build 0)  -->
<svg version="1.1" id="Ebene_1" xmlns="http://www.w3.org/2000/svg" xmlns:xlink="http://www.w3.org/1999/xlink" x="0px" y="0px"
	 viewBox="0 0 1001 45" style="enable-background:new 0 0 1001 45;" xml:space="preserve">
<style type="text/css">
	.st0{fill:none;}
	.st1{fill:#33CC99;}
	.st2{fill:#E6E6E6;}
	.st3{fill:#00A979;}
	.st4{fill:none;stroke:#33CC99;stroke-width:5;stroke-miterlimit:10;}
	.st5{fill:none;stroke:#FFFFFF;stroke-width:3;stroke-miterlimit:10;}
	.st6{fill:url(#Neues_Musterfeld_2);}
</style>
<pattern  y="45" width="31.3" height="20.9" patternUnits="userSpaceOnUse" id="Neues_Musterfeld_2" viewBox="0 -44.7 31.3 20.9" style="overflow:visible;">
	<g>
		<rect y="-44.7" class="st0" width="31.3" height="20.9"/>
		<g>
			<rect x="7.8" y="-68.6" class="st1" width="4.1" height="26.8"/>
			<rect x="15.7" y="-68.6" class="st1" width="4.1" height="26.8"/>
		</g>
		<g>
			<rect x="23.5" y="-58.2" class="st1" width="4.1" height="26.8"/>
		</g>
		<g>
			<rect x="7.8" y="-47.7" class="st1" width="4.1" height="26.8"/>
			<rect x="15.7" y="-47.7" class="st1" width="4.1" height="26.8"/>
		</g>
		<g>
			<rect x="0" y="-58.2" class="st1" width="4.1" height="26.8"/>
		</g>
		<g>
			<rect x="23.5" y="-37.3" class="st1" width="4.1" height="26.8"/>
		</g>
		<g>
			<rect x="7.8" y="-26.8" class="st1" width="4.1" height="26.8"/>
			<rect x="15.7" y="-26.8" class="st1" width="4.1" height="26.8"/>
		</g>
		<g>
			<rect x="0" y="-37.3" class="st1" width="4.1" height="26.8"/>
		</g>
	</g>
</pattern>
<title>progress2</title>
<path class="st2" d="M5.5,35h992c2.2,0,4,1.8,4,4v2c0,2.2-1.8,4-4,4H5.5c-2.2,0-4-1.8-4-4v-2C1.5,36.8,3.3,35,5.5,35z"/>
<path class="st1" d="M4,35h196l0,0v10l0,0H4c-2.2,0-4-1.8-4-4v-2C0,36.8,1.8,35,4,35z"/>
<path class="st3" d="M4,45h196v-4H0C0,43.2,1.8,45,4,45z"/>
<polyline class="st4" points="420.4,2.4 399.5,23.3 391.8,15.5 "/>
<rect x="200" y="35" class="st1" width="200" height="6"/>
<rect x="200" y="41" class="st3" width="200" height="4"/>
<line class="st5" x1="800" y1="35" x2="800" y2="45"/>
<line class="st5" x1="600" y1="35" x2="600" y2="45"/>
<line class="st5" x1="400" y1="35" x2="400" y2="45"/>
<line class="st5" x1="200" y1="35" x2="200" y2="45"/>
<rect x="401.5" y="35" class="st6" width="196.9" height="10"/>
</svg>
