<svg id="Ebene_1" data-name="Ebene 1" xmlns="http://www.w3.org/2000/svg" viewBox="0 0 1002 68"><defs><style>.cls-1{fill:#3c9;}.cls-2{fill:#00a979;}.cls-3{fill:none;stroke:#fc0;stroke-miterlimit:10;stroke-width:3px;}.cls-4{fill:#fc0;}</style></defs><title>progress5_1</title><path class="cls-1" d="M4,56H200a0,0,0,0,1,0,0V66a0,0,0,0,1,0,0H4a4,4,0,0,1-4-4V60a4,4,0,0,1,4-4Z"/><path class="cls-2" d="M4,66H200V62H0A4,4,0,0,0,4,66Z"/><path class="cls-1" d="M804,56h196a0,0,0,0,1,0,0V66a0,0,0,0,1,0,0H804a4,4,0,0,1-4-4V60A4,4,0,0,1,804,56Z" transform="translate(1800 122) rotate(-180)"/><path class="cls-2" d="M996,66H800V62h200A4,4,0,0,1,996,66Z"/><rect class="cls-1" x="200" y="56" width="200" height="6"/><rect class="cls-2" x="200" y="62" width="200" height="4"/><rect class="cls-1" x="400" y="56" width="200" height="6"/><rect class="cls-2" x="400" y="62" width="200" height="4"/><rect class="cls-1" x="600" y="56" width="200" height="6"/><rect class="cls-2" x="600" y="62" width="200" height="4"/><rect class="cls-3" x="488.79" y="38.5" width="22.71" height="5" rx="2.04"/><path class="cls-4" d="M512.51,5.22H487.78a.84.84,0,0,0-.84.93l1.78,16.29c.35,3.83,3.56,9.41,7.54,10.13l-2.94,5.14H507L504,32.57c4-.72,7.19-6.3,7.54-10.13l1.78-16.29A.84.84,0,0,0,512.51,5.22Z"/><path class="cls-3" d="M509.84,22.44a10.93,10.93,0,0,1-.33,1.77h1c4.08,0,7.49-3.29,7.85-5.5L520,9.94c0-.27-.32-.5-.79-.5h-8"/><path class="cls-3" d="M490.22,22.44a11,11,0,0,0,.34,1.77h-1c-4.09,0-7.5-3.29-7.85-5.5l-1.66-8.77c0-.27.32-.5.78-.5h8"/><path class="cls-4" d="M996,56a4,4,0,0,1,4,4v2a4,4,0,0,1-4,4H5.5a4,4,0,0,1-4-4V60a4,4,0,0,1,4-4H996m0-2H5.5a6,6,0,0,0-6,6v2a6,6,0,0,0,6,6H996a6,6,0,0,0,6-6V60a6,6,0,0,0-6-6Z"/></svg>