<?xml version="1.0" encoding="utf-8"?>
<!-- Generator: Adobe Illustrator 24.0.1, SVG Export Plug-In . SVG Version: 6.00 Build 0)  -->
<svg version="1.1" id="Ebene_1" xmlns="http://www.w3.org/2000/svg" xmlns:xlink="http://www.w3.org/1999/xlink" x="0px" y="0px"
	 viewBox="0 0 1001 46" style="enable-background:new 0 0 1001 46;" xml:space="preserve">
<style type="text/css">
	.st0{fill:none;}
	.st1{fill:#33CC99;}
	.st2{fill:#E6E6E6;}
	.st3{fill:#00A979;}
	.st4{fill:none;stroke:#33CC99;stroke-width:5;stroke-miterlimit:10;}
	.st5{fill:url(#Neues_Musterfeld_2);}
	.st6{fill:none;stroke:#FFFFFF;stroke-width:3;stroke-miterlimit:10;}
</style>
<pattern  y="46" width="31.3" height="20.9" patternUnits="userSpaceOnUse" id="Neues_Musterfeld_2" viewBox="0 -44.7 31.3 20.9" style="overflow:visible;">
	<g>
		<rect y="-44.7" class="st0" width="31.3" height="20.9"/>
		<g>
			<rect x="7.8" y="-68.6" class="st1" width="4.1" height="26.8"/>
			<rect x="15.7" y="-68.6" class="st1" width="4.1" height="26.8"/>
		</g>
		<g>
			<rect x="23.5" y="-58.2" class="st1" width="4.1" height="26.8"/>
		</g>
		<g>
			<rect x="7.8" y="-47.7" class="st1" width="4.1" height="26.8"/>
			<rect x="15.7" y="-47.7" class="st1" width="4.1" height="26.8"/>
		</g>
		<g>
			<rect x="0" y="-58.2" class="st1" width="4.1" height="26.8"/>
		</g>
		<g>
			<rect x="23.5" y="-37.3" class="st1" width="4.1" height="26.8"/>
		</g>
		<g>
			<rect x="7.8" y="-26.8" class="st1" width="4.1" height="26.8"/>
			<rect x="15.7" y="-26.8" class="st1" width="4.1" height="26.8"/>
		</g>
		<g>
			<rect x="0" y="-37.3" class="st1" width="4.1" height="26.8"/>
		</g>
	</g>
</pattern>
<title>progress3</title>
<path class="st2" d="M5.5,36h992c2.2,0,4,1.8,4,4v2c0,2.2-1.8,4-4,4H5.5c-2.2,0-4-1.8-4-4v-2C1.5,37.8,3.3,36,5.5,36z"/>
<path class="st1" d="M4,36h196l0,0v10l0,0H4c-2.2,0-4-1.8-4-4v-2C0,37.8,1.8,36,4,36z"/>
<path class="st3" d="M4,46h196v-4H0C0,44.2,1.8,46,4,46z"/>
<polyline class="st4" points="620.4,3.4 599.5,24.3 591.8,16.5 "/>
<rect x="200" y="36" class="st1" width="200" height="6"/>
<rect x="200" y="42" class="st3" width="200" height="4"/>
<rect x="400" y="36" class="st1" width="200" height="6"/>
<rect x="600" y="36" class="st5" width="200" height="10"/>
<rect x="400" y="42" class="st3" width="200" height="4"/>
<line class="st6" x1="800" y1="36" x2="800" y2="46"/>
<line class="st6" x1="600" y1="36" x2="600" y2="46"/>
<line class="st6" x1="400" y1="36" x2="400" y2="46"/>
<line class="st6" x1="200" y1="36" x2="200" y2="46"/>
</svg>
