<svg id="Ebene_1" data-name="Ebene 1" xmlns="http://www.w3.org/2000/svg" viewBox="0 0 289 62"><defs><style>.cls-1{fill:#ffd138;}.cls-2{fill:#fff;}</style></defs><title>scone-logo-quickstart</title><path class="cls-1" d="M38.09,19.41h-5.2a2,2,0,0,0-2,2v5.3a2,2,0,0,0,2,2h5.2a2,2,0,0,0,2-2v-5.3A2,2,0,0,0,38.09,19.41ZM20,28.71h5.2a2,2,0,0,0,2-2v-5.3a2,2,0,0,0-2-2H20a2,2,0,0,0-2,2v5.3A2,2,0,0,0,20,28.71Zm-5.6-2v-5.3a2,2,0,0,0-2-2H7.19a2,2,0,0,0-2,2v5.3a2,2,0,0,0,2,2h5.2A2,2,0,0,0,14.39,26.71Zm24.1,5.7a1.54,1.54,0,0,0-1.5,1.5v6.2a1.5,1.5,0,0,0,3,0v-6.2A1.42,1.42,0,0,0,38.49,32.41Zm-14.3,2v5.3a2,2,0,0,0,2,2h5.2a2,2,0,0,0,2-2v-5.3a2,2,0,0,0-2-2h-5.2A2,2,0,0,0,24.19,34.41Zm-3.7,5.3v-5.3a2,2,0,0,0-2-2h-5.2a2,2,0,0,0-2,2v5.3a2,2,0,0,0,2,2h5.2A2,2,0,0,0,20.49,39.71Zm17.6,5.7h-5.2a2,2,0,0,0-2,2v5.3a2,2,0,0,0,2,2h5.2a2,2,0,0,0,2-2v-5.3A2,2,0,0,0,38.09,45.41Zm-13.5,0h-5.2a2,2,0,0,0-2,2v5.3a2,2,0,0,0,2,2h5.2a2,2,0,0,0,2-2v-5.3A2,2,0,0,0,24.59,45.41Z"/><path class="cls-1" d="M44.39,17.31c.7.6,3.1,2.5,8.1,2.5.2,0,.1.2.1.4v14.3c0,5.5-6.7,8.9-8.3,9.8-.2.1-.2-.1-.2-.1l.1-26.8C44.09,17.41,44.29,17.21,44.39,17.31Z"/><path class="cls-1" d="M28.69,16.61c11-.4,12.8-4.2,12.8-4.2a.55.55,0,0,1,.5-.3h0c.2,0,.4,0,.5.2,0,0,1.7,4.1,12.7,4.1.3,0,.4.2.4.5v18.8c0,6-11.4,12.8-11.6,12.9s-.4.3-.4.4v4.7c0,.2.7.3,1,.2,4.2-2.3,16-8.8,16-16.8v-24c0-.4-.7-.7-1.1-.7-14,0-16.6-5.1-16.6-5.1-.1-.3-.6-.2-.9-.2h0c-.3,0-.5-.1-.6.1s-2.3,5.3-16.2,5.3c-.5,0-.6.2-.6.6v3s-.1.7.4.7S28.69,16.61,28.69,16.61Z"/><path class="cls-2" d="M71,47.31l5.6-2.1c1.2,2.6,3.9,4.2,7.3,4.2a8.06,8.06,0,0,0,4.3-1,3.41,3.41,0,0,0,1.8-3c0-3-4.1-4.8-7.1-6l-.2-.1a26.07,26.07,0,0,1-6.5-3.6,8.13,8.13,0,0,1-3.2-6.6,8.82,8.82,0,0,1,3.3-6.9,12.8,12.8,0,0,1,8.3-2.8c4.9,0,9,2.2,11,6l-5.8,2.2a4.51,4.51,0,0,0-2-2.1,7.93,7.93,0,0,0-3.2-.7c-3.2,0-5.4,1.7-5.4,4a4.5,4.5,0,0,0,2.2,3.6,29.28,29.28,0,0,0,5,2.6l.7.3c4.3,1.8,9.6,4.1,9.6,9.9a8.32,8.32,0,0,1-3.8,7.1,15.31,15.31,0,0,1-9.1,2.6C77.79,54.81,72.89,52,71,47.31Z"/><path class="cls-2" d="M120.59,54.81a18.1,18.1,0,0,1-6.9-1.4,16.37,16.37,0,0,1-5.6-3.8,16.37,16.37,0,0,1-3.8-5.6,17.7,17.7,0,0,1,0-13.8,16.37,16.37,0,0,1,3.8-5.6,16.37,16.37,0,0,1,5.6-3.8,18.1,18.1,0,0,1,6.9-1.4,17.14,17.14,0,0,1,8,1.9,17.73,17.73,0,0,1,6.1,5.1l-4.7,3.5a12.25,12.25,0,0,0-4.1-3.4,12.63,12.63,0,0,0-5.4-1.3,12,12,0,0,0-11.9,11.9,11.64,11.64,0,0,0,3.5,8.4,11.67,11.67,0,0,0,14.4,1.8,12.09,12.09,0,0,0,4.3-4.4l5.1,2.9a17.35,17.35,0,0,1-6.4,6.5A16.17,16.17,0,0,1,120.59,54.81Z"/><path class="cls-2" d="M159.29,54.91a18.1,18.1,0,0,1-6.9-1.4,16.37,16.37,0,0,1-5.6-3.8,17.91,17.91,0,0,1-3.8-5.6,18.1,18.1,0,0,1-1.4-6.9,16.39,16.39,0,0,1,1.4-6.9,17.91,17.91,0,0,1,3.8-5.6,18.53,18.53,0,0,1,5.6-3.8,17.7,17.7,0,0,1,13.8,0,16.37,16.37,0,0,1,5.6,3.8,17.91,17.91,0,0,1,3.8,5.6,17.7,17.7,0,0,1,0,13.8,17.91,17.91,0,0,1-3.8,5.6,18.53,18.53,0,0,1-5.6,3.8A18.1,18.1,0,0,1,159.29,54.91Zm0-29.7a11.48,11.48,0,0,0-8.4,3.5,11.88,11.88,0,0,0-3.5,8.4,11.48,11.48,0,0,0,3.5,8.4,11.83,11.83,0,0,0,16.8,0,11.88,11.88,0,0,0,3.5-8.4,12.06,12.06,0,0,0-3.5-8.4A11.88,11.88,0,0,0,159.29,25.21Z"/><path class="cls-2" d="M217.19,19.71v36l-24.8-22.8v21.4h-6.3V18.41l24.8,22.9V19.71Z"/><path class="cls-2" d="M234.09,25v9.2h17.3v5.4h-17.3v9.3h19.4v5.4h-25.7V19.71h25.7v5.4l-19.4-.1Z"/></svg>