<svg id="Ebene_1" data-name="Ebene 1" xmlns="http://www.w3.org/2000/svg" viewBox="0 0 89 85"><defs><style>.cls-1{fill:#fc0;}</style></defs><title>waving-hand</title><path class="cls-1" d="M42.51,25.54a3.6,3.6,0,0,1,3,2Q50.77,36.22,56,44.92c.31.52.62.82,1,.82a1.69,1.69,0,0,0,.91-.37c-.28-.47-.54-.94-.81-1.39q-3.59-5.88-7.18-11.75a3.3,3.3,0,0,1-.28-3.37,2.86,2.86,0,0,1,2.6-1.68,3.49,3.49,0,0,1,2.91,1.76c1.85,3,3.62,6,5.43,9l7.28,12c0,.07.14.11.39.31.08-.75.17-1.39.21-2,.11-1.68.19-3.36.31-5a4,4,0,0,1,3.62-3.94h.08c1.81,0,3.21,1.54,3.34,3.88.07,1.3-.12,2.63-.17,3.94-.25,5.85-.52,11.71-.71,17.56-.17,5.23-2.3,9.31-6.93,11.86a26.13,26.13,0,0,1-6.75,3.08,11.79,11.79,0,0,1-2.49.27A12.81,12.81,0,0,1,48,73.3c-2.73-4.45-5.41-8.94-8.12-13.41L32,46.81l-.42-.7c-1.1-1.89-.81-3.71.75-4.67A2.87,2.87,0,0,1,33.84,41a3.72,3.72,0,0,1,3.06,2c1.49,2.44,3,4.89,4.46,7.34q1.13,1.84,2.29,3.73c1.11-.56.86-1.21.38-2q-4.47-7.34-8.89-14.71A5.73,5.73,0,0,1,34.47,36,3.05,3.05,0,0,1,36,32.3,3.1,3.1,0,0,1,37.34,32a3.25,3.25,0,0,1,2.75,1.65c2.42,3.91,4.78,7.84,7.17,11.76l2.46,4.06,1.33-.7c-1.18-2-2.3-3.89-3.44-5.78-2.46-4.08-5-8.15-7.41-12.24-1.12-1.85-.81-3.72.72-4.69a2.93,2.93,0,0,1,1.59-.49m0-3h0a6,6,0,0,0-3.2.95A5.89,5.89,0,0,0,36.55,29a6.17,6.17,0,0,0-1.89.58,6,6,0,0,0-3.06,7.29,7.6,7.6,0,0,0,.58,1.34,5.8,5.8,0,0,0-1.46.66c-3,1.83-3.68,5.42-1.77,8.73l.32.52.13.22,2.48,4.11,5.42,9,2.3,3.82c1.9,3.16,3.87,6.41,5.82,9.61a15.83,15.83,0,0,0,13.36,7.95,14.36,14.36,0,0,0,3.13-.34,25,25,0,0,0,6.73-2.91l.83-.47c5.42-3,8.27-7.83,8.48-14.39.13-4.24.32-8.55.5-12.72l.21-4.81c0-.42,0-.83.08-1.25a24.21,24.21,0,0,0,.09-3c-.21-3.89-2.88-6.71-6.34-6.71h-.15a6.89,6.89,0,0,0-6.22,5c-1-1.62-2-3.24-3-4.87-.59-1-1.17-1.95-1.76-2.93-1.2-2-2.43-4.06-3.69-6.09a6.49,6.49,0,0,0-5.46-3.17A5.84,5.84,0,0,0,48.06,26h0a6.53,6.53,0,0,0-5.55-3.43Z"/><path class="cls-1" d="M6.82,46.18A23.13,23.13,0,0,0,16,64.51c.36.28.74.53,1.1.8a1.67,1.67,0,0,1,.69,2.25,2,2,0,0,1-2.43,1,3.77,3.77,0,0,1-1.18-.64Q2.51,59.3,3,44.8a3.1,3.1,0,0,1,.93-2,2.14,2.14,0,0,1,1.85-.26,2.23,2.23,0,0,1,1,1.45A9.22,9.22,0,0,1,6.82,46.18Z"/><path class="cls-1" d="M86.87,23.46c0,1.71-.65,2.63-1.68,2.78s-1.76-.43-2-1.85A23.19,23.19,0,0,0,68.9,6.73c-1.49-.65-2-1.47-1.53-2.55a2.22,2.22,0,0,1,3-.95A26,26,0,0,1,86,20C86.41,21.27,86.66,22.61,86.87,23.46Z"/><path class="cls-1" d="M12.31,44.49a5.88,5.88,0,0,1,.19-1.2,1.88,1.88,0,0,1,2.17-1.45,1.7,1.7,0,0,1,1.49,1.95,16.92,16.92,0,0,0,7,14.34,1.77,1.77,0,0,1,.58,2.6,2.09,2.09,0,0,1-3,.33,19.62,19.62,0,0,1-6.49-7.73A20.75,20.75,0,0,1,12.31,44.49Z"/><path class="cls-1" d="M77.85,26.44a2.13,2.13,0,0,1-1.78,2.39c-1.15.06-1.7-.62-1.94-1.69a16.81,16.81,0,0,0-9.85-12.22c-1.06-.49-1.78-1.16-1.33-2.43a2.08,2.08,0,0,1,2.86-1.06,18.84,18.84,0,0,1,7.55,5.43A19.89,19.89,0,0,1,77.85,26.44Z"/></svg>