<?xml version="1.0" encoding="utf-8"?>
<!-- Generator: Adobe Illustrator 23.1.0, SVG Export Plug-In . SVG Version: 6.00 Build 0)  -->
<svg version="1.1" id="Ebene_1" xmlns="http://www.w3.org/2000/svg" xmlns:xlink="http://www.w3.org/1999/xlink" x="0px" y="0px"
	 viewBox="0 0 300 300" style="enable-background:new 0 0 300 300;" xml:space="preserve">
<style type="text/css">
	.st0{fill:#A9B9CB;}
	.st1{fill:#7F8B99;}
	.st2{fill:#FFFFFF;}
</style>
<path class="st0" d="M244,105.4c0-3.6-0.7-6.7-2.3-9.4c-1.5-2.7-3.8-4.9-6.8-6.6c-25-14.4-50.1-28.8-75.1-43.3
	c-6.7-3.9-13.3-3.7-20,0.2c-10,5.9-59.8,34.4-74.7,43.1c-6.1,3.6-9.1,9-9.1,16c0,29,0,58.1,0,87.1c0,3.5,0.7,6.6,2.2,9.2
	c1.5,2.8,3.8,5,6.9,6.8c14.8,8.6,64.7,37.2,74.7,43.1c6.7,4,13.2,4.1,20,0.2c25-14.4,50.1-28.8,75.1-43.3c3.1-1.8,5.4-4.1,6.9-6.8
	c1.5-2.7,2.2-5.8,2.2-9.2C244,192.6,244,134.5,244,105.4"/>
<path class="st1" d="M159.6,46.3c-6.7-3.9-13.3-3.7-19.9,0.2c-10,5.8-59.7,34.4-74.6,42.9c-6.2,3.6-9.2,9-9.2,16
	c0,28.9,0,57.9,0,86.9c0,3.5,0.7,6.6,2.2,9.2c1.5,2.8,3.8,5,6.9,6.8c4.9,2.8,9.9,5.7,14.8,8.5L217.3,79.6
	C198.1,68.4,178.8,57.4,159.6,46.3"/>
<path class="st2" d="M169.4,135.8l29.3,0.2c0-12.2-12.3-42.1-47.7-42.1c-22.5-0.1-52.8,14.3-52.8,55.5c0,41.2,29.7,54.6,52.8,54.6
	c37.4,0,46.4-25.9,46.4-40.6l-27.9-1.6c0,0,0.7,16.9-18.6,16.9c-17.9,0-20.9-22-20.9-29.4c0-11.3,4.1-29.6,20.9-29.6
	C167.7,119.9,169.4,135.8,169.4,135.8"/>
</svg>
