<?xml version="1.0" encoding="utf-8"?>
<!-- Generator: Adobe Illustrator 23.1.0, SVG Export Plug-In . SVG Version: 6.00 Build 0)  -->
<svg version="1.1" id="Layer_1" xmlns="http://www.w3.org/2000/svg" xmlns:xlink="http://www.w3.org/1999/xlink" x="0px" y="0px"
	 viewBox="0 0 300 300" style="enable-background:new 0 0 300 300;" xml:space="preserve">
<style type="text/css">
	.st0{fill:#00599C;}
	.st1{fill:#004482;}
	.st2{fill:#659AD2;}
	.st3{fill:#FFFFFF;}
</style>
<path class="st0" d="M240.4,201.4c1.5-2.5,2.4-5.4,2.4-8v-89.5c0-2.6-0.9-5.4-2.4-8L149,148.6L240.4,201.4z"/>
<path class="st1" d="M157.1,252.2l77.5-44.7c2.2-1.3,4.3-3.5,5.7-6.1L149,148.7l-91.4,52.7c1.5,2.5,3.5,4.8,5.7,6.1l77.5,44.7
	C145.4,254.8,152.6,254.8,157.1,252.2z"/>
<path class="st2" d="M240.4,96c-1.5-2.5-3.5-4.8-5.7-6.1l-77.5-44.7c-4.5-2.6-11.8-2.6-16.2,0L63.4,89.9c-4.5,2.6-8.1,8.9-8.1,14.1
	v89.5c0,2.6,0.9,5.4,2.4,8l91.4-52.7L240.4,96z"/>
<g>
	<path class="st3" d="M149,211.2c-34.5,0-62.5-28-62.5-62.5s28-62.5,62.5-62.5c22.2,0,43,12,54.2,31.3l-27.1,15.7
		c-5.6-9.6-16-15.7-27.1-15.7c-17.2,0-31.2,14-31.2,31.3s14,31.2,31.2,31.2c11.1,0,21.5-6,27.1-15.7l27.1,15.7
		C192,199.2,171.3,211.2,149,211.2z"/>
</g>
<g>
	<polygon class="st3" points="211.5,145.2 204.6,145.2 204.6,138.2 197.6,138.2 197.6,145.2 190.6,145.2 190.6,152.2 197.6,152.2 
		197.6,159.1 204.6,159.1 204.6,152.2 211.5,152.2 	"/>
</g>
<g>
	<polygon class="st3" points="237.6,145.2 230.6,145.2 230.6,138.2 223.6,138.2 223.6,145.2 216.7,145.2 216.7,152.2 223.6,152.2 
		223.6,159.1 230.6,159.1 230.6,152.2 237.6,152.2 	"/>
</g>
</svg>
