<?xml version="1.0" encoding="utf-8"?>
<!-- Generator: Adobe Illustrator 23.1.0, SVG Export Plug-In . SVG Version: 6.00 Build 0)  -->
<svg version="1.1" id="Layer_1" xmlns="http://www.w3.org/2000/svg" xmlns:xlink="http://www.w3.org/1999/xlink" x="0px" y="0px"
	 viewBox="0 0 300 300" style="enable-background:new 0 0 300 300;" xml:space="preserve">
<style type="text/css">
	.st0{fill:#00ACD7;}
</style>
<g>
	<g>
		<g>
			<g>
				<path class="st0" d="M24.6,130.4c-0.6,0-0.7-0.3-0.4-0.7l3-3.9c0.3-0.4,1-0.7,1.6-0.7H80c0.6,0,0.7,0.4,0.4,0.9l-2.4,3.7
					c-0.3,0.4-1,0.9-1.4,0.9L24.6,130.4z"/>
			</g>
		</g>
	</g>
	<g>
		<g>
			<g>
				<path class="st0" d="M2.9,143.6c-0.6,0-0.7-0.3-0.4-0.7l3-3.9c0.3-0.4,1-0.7,1.6-0.7h65.5c0.6,0,0.9,0.4,0.7,0.9l-1.1,3.4
					c-0.1,0.6-0.7,0.9-1.3,0.9L2.9,143.6z"/>
			</g>
		</g>
	</g>
	<g>
		<g>
			<g>
				<path class="st0" d="M37.6,156.8c-0.6,0-0.7-0.4-0.4-0.9l2-3.6c0.3-0.4,0.9-0.9,1.4-0.9h28.7c0.6,0,0.9,0.4,0.9,1L70,156
					c0,0.6-0.6,1-1,1L37.6,156.8z"/>
			</g>
		</g>
	</g>
	<g>
		<g id="CXHf1q_3_">
			<g>
				<g>
					<path class="st0" d="M186.8,127.8c-9.1,2.3-15.2,4-24.1,6.3c-2.2,0.6-2.3,0.7-4.2-1.4c-2.2-2.4-3.7-4-6.8-5.5
						c-9.1-4.5-17.8-3.2-26,2.2c-9.8,6.3-14.8,15.7-14.7,27.3c0.1,11.5,8,21,19.4,22.6c9.8,1.3,18-2.2,24.4-9.5
						c1.3-1.6,2.4-3.3,3.9-5.3c-5.2,0-11.6,0-27.7,0c-3,0-3.7-1.9-2.7-4.3c1.9-4.5,5.3-11.9,7.3-15.7c0.4-0.9,1.4-2.3,3.6-2.3
						c7.3,0,34.3,0,52.3,0c-0.3,3.9-0.3,7.8-0.9,11.6c-1.6,10.3-5.5,19.8-11.8,28.2c-10.3,13.7-23.9,22.1-41,24.4
						c-14.1,1.9-27.2-0.9-38.7-9.5c-10.6-8-16.7-18.7-18.2-31.9c-1.9-15.7,2.7-29.7,12.2-42.1c10.2-13.4,23.7-21.8,40.2-24.9
						c13.5-2.4,26.4-0.9,38.1,7c7.6,5,13.1,11.9,16.7,20.3C189.1,126.6,188.5,127.4,186.8,127.8z"/>
				</g>
				<g>
					<path class="st0" d="M234.3,207.3c-13.1-0.3-25-4-35.1-12.6c-8.5-7.3-13.8-16.7-15.5-27.7c-2.6-16.2,1.9-30.6,11.6-43.4
						c10.5-13.8,23.1-21,40.2-24c14.7-2.6,28.5-1.1,41,7.3c11.4,7.8,18.4,18.2,20.3,32c2.4,19.4-3.2,35.2-16.5,48.7
						c-9.5,9.6-21.1,15.7-34.5,18.4C242,206.7,238.1,206.8,234.3,207.3z M268.5,149.2c-0.1-1.9-0.1-3.3-0.4-4.7
						c-2.6-14.2-15.7-22.3-29.3-19.1c-13.4,3-22,11.5-25.1,25c-2.6,11.2,2.9,22.6,13.2,27.2c7.9,3.4,15.8,3,23.4-0.9
						C261.6,170.8,267.8,161.6,268.5,149.2z"/>
				</g>
			</g>
		</g>
	</g>
</g>
</svg>
