<?xml version="1.0" encoding="utf-8"?>
<!-- Generator: Adobe Illustrator 23.1.0, SVG Export Plug-In . SVG Version: 6.00 Build 0)  -->
<svg version="1.1"
	 id="svg1968" xmlns:cc="http://web.resource.org/cc/" xmlns:dc="http://purl.org/dc/elements/1.1/" xmlns:inkscape="http://www.inkscape.org/namespaces/inkscape" xmlns:rdf="http://www.w3.org/1999/02/22-rdf-syntax-ns#" xmlns:sodipodi="http://sodipodi.sourceforge.net/DTD/sodipodi-0.dtd" xmlns:svg="http://www.w3.org/2000/svg"
	 xmlns="http://www.w3.org/2000/svg" xmlns:xlink="http://www.w3.org/1999/xlink" x="0px" y="0px" viewBox="0 0 300 300"
	 style="enable-background:new 0 0 300 300;" xml:space="preserve">
<style type="text/css">
	.st0{fill:#4E7896;}
	.st1{fill:#F58219;}
</style>
<sodipodi:namedview  bordercolor="#666666" borderopacity="1.0" height="129.89mm" id="base" inkscape:current-layer="layer1" inkscape:cx="350" inkscape:cy="205.14359" inkscape:document-units="px" inkscape:pageopacity="0.0" inkscape:pageshadow="2" inkscape:window-height="574" inkscape:window-width="904" inkscape:window-x="56" inkscape:window-y="28" inkscape:zoom="0.35" pagecolor="#ffffff" units="mm" width="68.51mm">
	</sodipodi:namedview>
<g id="layer1" transform="translate(3824.556,782.8939)" inkscape:groupmode="layer" inkscape:label="Ebene 1">
	<g id="Ebene_x0020_1" transform="translate(-3826.724,-785.8793)">
		<g id="_198302696">
			<path id="_227268128" class="st0" d="M123,162.2c0,0-7.8,4.7,5.4,6.1c15.9,2,24.3,1.7,41.8-1.7c0,0,4.7,3,11.1,5.4
				C141.9,188.8,92,170.9,123,162.2L123,162.2z M117.9,140.2c0,0-8.4,6.4,4.7,7.8c17.2,1.7,30.7,2,54-2.7c0,0,3,3.4,8.1,5.1
				C137.1,164.5,83.9,151.7,117.9,140.2L117.9,140.2z M211,178.7c0,0,5.7,4.7-6.4,8.4c-22.6,6.7-94.8,8.8-115,0
				c-7.1-3,6.4-7.4,10.8-8.1c4.4-1,6.7-1,6.7-1c-7.8-5.4-51.6,11.1-22.3,15.9C165.5,207,231.9,188.1,211,178.7L211,178.7z
				 M126.7,117.3c0,0-36.8,8.8-13.2,11.8c10.1,1.3,30,1,48.6-0.3c15.2-1.3,30.4-4,30.4-4s-5.4,2.4-9.1,4.7
				c-37.4,9.8-109.3,5.4-88.7-4.7C112.2,116.3,126.7,117.3,126.7,117.3L126.7,117.3z M192.5,154.1c37.8-19.6,20.2-38.5,8.1-36.1
				c-3,0.7-4.4,1.3-4.4,1.3s1-2,3.4-2.7c23.9-8.4,42.8,25.3-7.8,38.5C191.8,155.1,192.1,154.7,192.5,154.1L192.5,154.1z
				 M130.4,207.3c36.4,2.4,92.1-1.3,93.4-18.6c0,0-2.7,6.7-30,11.8c-31,5.7-69.5,5.1-92.1,1.3C101.7,202,106.5,206,130.4,207.3
				L130.4,207.3z"/>
			<path id="_230367536" class="st1" d="M169.5,6c0,0,20.9,21.2-19.9,53.3c-32.7,26-7.4,40.8,0,57.7c-19.2-17.2-33.1-32.4-23.6-46.5
				C139.8,49.5,178,39.4,169.5,6L169.5,6z M158.7,102.8c9.8,11.1-2.7,21.2-2.7,21.2s25-12.8,13.5-28.7
				c-10.5-15.2-18.6-22.6,25.3-47.9C194.8,47.5,125.7,64.7,158.7,102.8L158.7,102.8z M133.8,283.9v-33.1c0-8.4-4.7-14.2-16.5-14.2
				c-6.7,0-12.5,1.7-17.5,3.7l1.7,6.1c3.7-1.3,8.4-2.7,13.5-2.7c6.4,0,9.4,2.7,9.4,8.1v4.4H121c-16.2,0-23.6,6.1-23.6,15.9
				c0,8.1,5.1,12.8,14.2,12.8c5.7,0,10.1-2.7,14.2-6.1l0.7,5.1H133.8L133.8,283.9z M124.3,273.1c-3.4,3-7.1,4.7-10.5,4.7
				c-4.4,0-7.1-2.7-7.1-7.4c0-4.7,2.7-8.1,13.5-8.1h4L124.3,273.1L124.3,273.1z M165.5,283.9h-11.8l-14.2-46.2h10.1l8.8,28.3l2,8.4
				c4.4-12.1,7.8-24.6,9.1-36.8h10.1C176.9,252.9,172.2,269.4,165.5,283.9L165.5,283.9z M220.1,283.9v-33.1
				c0-8.4-4.7-14.2-16.5-14.2c-6.7,0-12.5,1.7-17.5,3.7l1.3,6.1c4-1.3,8.8-2.7,13.8-2.7c6.4,0,9.4,2.7,9.4,8.1v4.4h-3.4
				c-16.2,0-23.6,6.1-23.6,15.9c0,8.1,4.7,12.8,13.8,12.8c6.1,0,10.5-2.7,14.5-6.1l0.7,5.1H220.1L220.1,283.9z M210.7,273.1
				c-3.4,3-7.1,4.7-10.5,4.7c-4.4,0-7.1-2.7-7.1-7.4c0-4.7,2.7-8.1,13.5-8.1h4L210.7,273.1L210.7,273.1z M86.9,291.7
				c-2.7,4-6.7,7.1-11.8,8.8l-4.4-5.4c3.4-2,6.7-5.1,8.1-7.8c1.3-2.4,1.7-5.7,1.7-13.5v-52.6h10.1v51.9
				C90.6,283.6,89.6,287.6,86.9,291.7L86.9,291.7z"/>
		</g>
	</g>
</g>
</svg>
