<?xml version="1.0" encoding="utf-8"?>
<!-- Generator: Adobe Illustrator 23.1.0, SVG Export Plug-In . SVG Version: 6.00 Build 0)  -->
<svg version="1.1"
	 id="Ebene_1" xmlns:cc="http://creativecommons.org/ns#" xmlns:dc="http://purl.org/dc/elements/1.1/" xmlns:rdf="http://www.w3.org/1999/02/22-rdf-syntax-ns#"
	 xmlns="http://www.w3.org/2000/svg" xmlns:xlink="http://www.w3.org/1999/xlink" x="0px" y="0px" viewBox="0 0 937 937"
	 style="enable-background:new 0 0 937 937;" xml:space="preserve">
<style type="text/css">
	.st0{fill:#808080;}
	.st1{fill:#000080;}
	.st2{fill:#FFFFFF;}
</style>
<title>Lua programming language logo</title>
<g>
	<path class="st0" d="M485.2,804.1l-0.3-7.6c9.4-0.3,18.8-1.1,28.1-2.2l0.9,7.5C504.5,803,494.8,803.8,485.2,804.1z M456.4,803.9
		c-9.6-0.5-19.2-1.4-28.7-2.8l1.1-7.5c9.3,1.3,18.7,2.2,28.1,2.7L456.4,803.9z M542.5,797.1l-1.6-7.4c9.1-2,18.3-4.3,27.3-7.1
		l2.2,7.3C561.2,792.6,551.8,795.1,542.5,797.1z M399.3,795.8c-9.3-2.2-18.7-4.7-27.8-7.7l2.3-7.2c8.9,2.9,18,5.4,27.2,7.5
		L399.3,795.8z M597.6,780.1l-2.9-7c8.6-3.5,17.2-7.4,25.5-11.7l0.1-0.1l3.4,6.8l-0.1,0.1C615.2,772.6,606.4,776.6,597.6,780.1z
		 M344.5,778.1c-8.8-3.7-17.6-7.9-26.1-12.4l3.6-6.7c8.3,4.4,16.8,8.5,25.5,12.1L344.5,778.1z M648.9,754l-4-6.4
		c8-5,15.8-10.3,23.2-15.9l4.6,6.1C665.1,743.4,657.1,748.9,648.9,754z M293.5,751.1c-8-5.2-16-10.8-23.5-16.7l4.7-6
		c7.4,5.7,15.1,11.2,23,16.3L293.5,751.1z M695,719.3l-5.1-5.6c6.9-6.3,13.7-12.9,20.1-19.7l5.6,5.2
		C709,706.1,702.1,712.9,695,719.3z M248.1,715.7c-7-6.5-13.8-13.4-20.2-20.6l5.6-5.1c6.3,6.9,12.9,13.7,19.8,20.1L248.1,715.7z
		 M734.3,677.1l-6-4.7c5.8-7.4,11.2-15.1,16.3-23l6.4,4.1C745.8,661.7,740.1,669.6,734.3,677.1z M209.5,672.9
		c-5.8-7.6-11.3-15.6-16.3-23.8l6.4-4c5,8,10.3,15.8,16,23.2L209.5,672.9z M765.6,628.8l-6.7-3.6c4.4-8.3,8.5-16.8,12.1-25.5l7,3
		C774.2,611.5,770.1,620.3,765.6,628.8z M179,624l-0.1-0.3c-4.3-8.5-8.3-17.2-11.9-26l7-2.9c3.5,8.6,7.4,17.1,11.6,25.4l0.1,0.3
		L179,624z M788.1,575.7l-7.2-2.3c2.9-8.9,5.4-18,7.5-27.2l7.4,1.7C793.6,557.2,791,566.6,788.1,575.7z M157.3,570.6
		c-2.8-9.2-5.3-18.6-7.3-27.9l7.4-1.6c2,9.1,4.4,18.3,7.1,27.3L157.3,570.6z M801.1,519.5l-7.5-1.1c1.3-9.3,2.2-18.7,2.7-28.1
		l7.6,0.4C803.3,500.4,802.4,510,801.1,519.5z M145.2,514.2c-1.2-9.5-1.9-19.2-2.3-28.8l7.6-0.3c0.3,9.4,1.1,18.8,2.2,28.1
		L145.2,514.2z M796.5,462.2c-0.3-9.4-1.1-18.8-2.2-28.1l7.5-0.9c1.2,9.5,1.9,19.2,2.3,28.8L796.5,462.2z M150.7,457l-7.6-0.4
		c0.5-9.6,1.4-19.2,2.8-28.7l7.5,1.1C152.1,438.2,151.2,447.6,150.7,457z M789.7,406.3c-2-9.1-4.3-18.3-7.1-27.3l7.3-2.2
		c2.8,9.2,5.3,18.6,7.3,27.9L789.7,406.3z M158.5,401.2l-7.4-1.7c2.1-9.3,4.7-18.7,7.7-27.8l7.2,2.3
		C163.2,382.9,160.6,392,158.5,401.2z M773.2,352.5c-3.5-8.7-7.4-17.3-11.7-25.7l6.8-3.4c4.4,8.6,8.4,17.4,12,26.2L773.2,352.5z
		 M175.9,347.6l-7-3c3.7-8.8,7.9-17.6,12.4-26.1l6.7,3.5C183.6,330.4,179.5,339,175.9,347.6z M202.2,297.8l-6.4-4.1
		c5.2-8,10.8-16,16.7-23.5l6,4.7C212.8,282.2,207.3,289.9,202.2,297.8z M236.8,253.4l-5.6-5.2c6.5-7,13.4-13.8,20.5-20.2l5.1,5.6
		C249.9,239.9,243.2,246.5,236.8,253.4z M278.6,215.7l-4.6-6.1c7.6-5.8,15.6-11.3,23.8-16.3l4,6.4
		C293.9,204.7,286.1,210.1,278.6,215.7z M649.5,202.5l-0.4-0.3l4.1-6.4l0.4,0.3L649.5,202.5z M624.8,188
		c-8.3-4.4-16.8-8.5-25.5-12.1l3-7c8.8,3.7,17.6,7.9,26.1,12.4L624.8,188z M326.4,185.8l-3.5-6.8l0.4-0.2
		c8.4-4.3,17.1-8.3,25.8-11.8l2.9,7c-8.5,3.5-17,7.3-25.2,11.5L326.4,185.8z M572.9,166c-8.9-2.9-18.1-5.4-27.2-7.5l1.7-7.4
		c9.3,2.1,18.7,4.7,27.8,7.7L572.9,166z M378.6,164.6l-2.2-7.3c9.2-2.8,18.6-5.3,27.9-7.3l1.6,7.4
		C396.7,159.5,387.5,161.9,378.6,164.6z M518,153.4c-9.3-1.3-18.7-2.2-28.1-2.7l0.4-7.6c9.6,0.5,19.2,1.4,28.7,2.7L518,153.4z
		 M433.7,152.8l-0.9-7.5c9.5-1.2,19.2-2,28.8-2.3l0.3,7.6C452.4,150.9,442.9,151.7,433.7,152.8z"/>
</g>
<g>
	<circle class="st1" cx="473.5" cy="473.5" r="252.9"/>
</g>
<g>
	<circle class="st2" cx="578.3" cy="368.8" r="74.1"/>
</g>
<g>
	<circle class="st1" cx="726.4" cy="220.6" r="74.1"/>
</g>
<g>
	<g>
		<path class="st2" d="M405,600v-18.7h-81.9V434h-21.2V600L405,600"/>
	</g>
	<g>
		<path class="st2" d="M518.8,600V480.7h-18.9v65.8c0,24.4-12.7,40.3-32.5,40.3c-15,0-24.6-9.1-24.6-23.4v-82.6h-18.9v90.1
			c0,19.8,14.8,32.5,38,32.5c17.5,0,28.7-6.1,39.8-21.8V600L518.8,600"/>
	</g>
	<g>
		<path class="st2" d="M657.5,599.5v-14.3c-2,0.5-3,0.5-4.1,0.5c-6.6,0-10.2-3.4-10.2-9.3v-66.5c0-21.2-15.5-32.5-44.8-32.5
			c-28.9,0-46.7,11.2-47.8,38.7h19.1c1.6-14.6,10.2-21.2,28-21.2c17.1,0,26.6,6.4,26.6,17.8v5c0,8-4.8,11.4-19.8,13.2
			c-26.9,3.4-31,4.3-38.2,7.3c-13.9,5.7-20.9,16.4-20.9,31c0,21.6,15,34.4,39.1,34.4c15.2,0,30-6.4,40.5-17.5
			c2,9.1,10.2,15.7,19.6,15.7C648.4,601.6,651.4,601.1,657.5,599.5 M624.3,558.8c0,17.1-17.3,28-35.7,28c-14.8,0-23.4-5.2-23.4-18.2
			c0-12.5,8.4-18,28.7-20.9c20-2.7,24.1-3.6,30.5-6.6L624.3,558.8"/>
	</g>
</g>
</svg>
