<?xml version="1.0" encoding="utf-8"?>
<!-- Generator: Adobe Illustrator 23.1.0, SVG Export Plug-In . SVG Version: 6.00 Build 0)  -->
<svg version="1.1"
	 id="svg2" inkscape:export-filename="/mnt/files/documents/monty-program-ab/logos-dbart/mariadb-seal-flat-browntext.png" inkscape:export-xdpi="89.714859" inkscape:export-ydpi="89.714859" inkscape:version="0.47 r22583" sodipodi:docname="mariadb-seal-flat-browntext.svg" xmlns:cc="http://creativecommons.org/ns#" xmlns:dc="http://purl.org/dc/elements/1.1/" xmlns:inkscape="http://www.inkscape.org/namespaces/inkscape" xmlns:rdf="http://www.w3.org/1999/02/22-rdf-syntax-ns#" xmlns:sodipodi="http://sodipodi.sourceforge.net/DTD/sodipodi-0.dtd" xmlns:svg="http://www.w3.org/2000/svg"
	 xmlns="http://www.w3.org/2000/svg" xmlns:xlink="http://www.w3.org/1999/xlink" x="0px" y="0px" viewBox="0 0 300 300"
	 style="enable-background:new 0 0 300 300;" xml:space="preserve">
<style type="text/css">
	.st0{fill:#A57242;}
	.st1{fill-rule:evenodd;clip-rule:evenodd;fill:#002B64;}
	.st2{fill:#C49A6C;}
	.st3{fill-rule:evenodd;clip-rule:evenodd;fill:#C49A6C;}
	.st4{fill:#002B64;}
</style>
<g id="layer1" transform="translate(-103.40271,-468.37257)" inkscape:groupmode="layer" inkscape:label="Layer 1">
	<g id="g3154">
		<g id="g4389" transform="translate(1582.2202,194.89325)">
			<g id="g4391" transform="translate(1.2626907,0)">
				<path id="path4393" class="st0" d="M-1239.7,416v22.9h-2.9V435c-2.6,3.1-5.6,4.7-9,4.7s-6.2-1.2-8.5-3.6s-3.5-5.3-3.5-8.6
					c0-3.3,1.2-6.2,3.5-8.5c2.3-2.4,5.1-3.6,8.4-3.6c3.7,0,6.8,1.6,9.1,4.8V416H-1239.7 M-1242.4,427.6c0-2.6-0.9-4.8-2.6-6.6
					c-1.8-1.8-3.9-2.7-6.5-2.7c-2.5,0-4.7,0.9-6.4,2.8c-1.8,1.8-2.6,4-2.6,6.6c0,2.5,0.9,4.7,2.7,6.6c1.8,1.8,3.9,2.8,6.4,2.8
					s4.6-0.9,6.4-2.7C-1243.3,432.5-1242.4,430.3-1242.4,427.6"/>
			</g>
			<g id="g4395" transform="translate(0.50507628,0)">
				<path id="path4397" class="st0" d="M-1232.3,438.9v-31h6.4c4.4,0,7.6,0.3,9.7,1c2.1,0.6,3.9,1.7,5.4,3.1s2.6,3.1,3.5,5.1
					c0.8,2,1.2,4.4,1.2,7.1s-0.6,5.2-1.9,7.6c-1.2,2.4-2.9,4.1-5.1,5.4c-2.1,1.2-5.2,1.8-9.2,1.8h-10 M-1229.4,436h3.6
					c3.7,0,6.4-0.2,8.1-0.6s3.2-1.1,4.4-2.2c1.3-1.1,2.2-2.5,2.9-4.1c0.7-1.6,1-3.4,1-5.4s-0.4-3.9-1.2-5.7
					c-0.7-1.7-1.8-3.2-3.2-4.3c-1.4-1.1-3.1-1.9-5-2.2c-1.9-0.4-4.7-0.6-8.4-0.6h-2.2L-1229.4,436"/>
			</g>
			<g id="g4399" transform="translate(0.50507628,0)">
				<path id="path4401" class="st0" d="M-1272.3,409.6c0-0.7,0.2-1.2,0.7-1.7s1.1-0.7,1.7-0.7c0.7,0,1.3,0.2,1.7,0.7
					c0.5,0.5,0.7,1,0.7,1.7s-0.2,1.2-0.7,1.7s-1,0.7-1.7,0.7s-1.2-0.2-1.7-0.7C-1272.1,410.8-1272.3,410.2-1272.3,409.6
					 M-1271.4,416h3v22.9h-3V416"/>
			</g>
			<g id="g4403">
				<path id="path4405" class="st0" d="M-1353.9,438.9l4.4-31h0.5l12.6,25.4l12.5-25.4h0.5l4.4,31h-3.1l-3-22.2l-11,22.2h-0.8
					l-11.1-22.4l-3,22.4H-1353.9"/>
			</g>
			<g id="g4407" transform="translate(-0.25253814,0)">
				<path id="path4409" class="st0" d="M-1290.4,416v22.9h-2.9V435c-2.6,3.1-5.6,4.7-9,4.7s-6.2-1.2-8.5-3.6s-3.5-5.3-3.5-8.6
					c0-3.3,1.2-6.2,3.5-8.5c2.3-2.4,5.1-3.6,8.4-3.6c3.7,0,6.8,1.6,9.1,4.8V416H-1290.4 M-1293.1,427.6c0-2.6-0.9-4.8-2.6-6.6
					c-1.8-1.8-3.9-2.7-6.5-2.7c-2.5,0-4.7,0.9-6.4,2.8c-1.8,1.8-2.6,4-2.6,6.6c0,2.5,0.9,4.7,2.7,6.6c1.8,1.8,3.9,2.8,6.4,2.8
					s4.6-0.9,6.4-2.7C-1294,432.5-1293.1,430.3-1293.1,427.6"/>
			</g>
			<g id="g4411" transform="translate(-1.0101526,0)">
				<path id="path4413" class="st0" d="M-1284.6,416h3v3.3c0.8-1.4,1.6-2.3,2.3-3c0.8-0.6,1.6-0.9,2.5-0.9c1,0,1.9,0.3,2.8,0.8
					l-1.6,2.5c-0.4-0.3-0.9-0.4-1.3-0.4c-0.9,0-1.7,0.5-2.5,1.4s-1.4,2.1-1.7,3.6c-0.4,1.4-0.6,4.1-0.6,7.9v7.8h-3L-1284.6,416"/>
			</g>
			<g id="g4415" transform="translate(1.0101526,0)">
				<path id="path4417" class="st0" d="M-1200.3,407.9h6.1c3.3,0,5.7,0.7,7.4,2c1.7,1.3,2.5,3.2,2.5,5.6c0,1.4-0.3,2.6-1,3.8
					c-0.7,1.1-1.6,2-2.9,2.7c2.1,0.7,3.7,1.7,4.8,3.1c1.1,1.4,1.7,3,1.7,4.9c0,2.6-0.9,4.7-2.8,6.4c-1.9,1.7-4.3,2.5-7.3,2.5h-8.5
					L-1200.3,407.9 M-1197.2,410.9v9.9h1.8c2.7,0,4.7-0.4,6-1.3s2-2.2,2-4.1c0-3.1-2.1-4.6-6.2-4.6L-1197.2,410.9 M-1197.2,424v11.9
					h3.8c2.2,0,3.8-0.2,4.9-0.6c1.1-0.5,1.9-1.2,2.6-2.1s1-1.9,1-2.9s-0.2-1.8-0.6-2.6c-0.4-0.7-0.9-1.4-1.7-2
					c-0.7-0.6-1.6-1-2.6-1.3s-2.9-0.4-5.7-0.4H-1197.2"/>
			</g>
		</g>
		<g id="layer1-8" transform="translate(-144.5456,180.71539)" inkscape:label="Layer 1">
			
				<g id="g3392" inkscape:export-filename="/mnt/files/documents/monty-program-ab/logos-dbart/MariaDB-seal-flat.png" inkscape:export-xdpi="90" inkscape:export-ydpi="90">
				
					<path id="path9" inkscape:export-filename="/mnt/files/documents/monty-program-ab/logos/seal-flat.png" inkscape:export-xdpi="90" inkscape:export-ydpi="90" sodipodi:nodetypes="czssccsccssccccsccsssssz" class="st1" d="
					M378.1,384.4c-2,0.1-1.4,0.7-5.8,1.7c-4.5,1.1-9.9,0.8-14.7,2.8c-14.3,6-17.2,26.5-30.2,33.9c-9.7,5.5-19.5,5.9-28.4,8.7
					c-5.8,1.8-12.1,5.5-17.4,10.1c-4.1,3.5-4.2,6.6-8.4,11c-4.6,4.7-18.1,0.1-24.3,7.3c2,2,2.8,2.6,6.7,2c-0.8,1.5-5.6,2.8-4.6,5.1
					c1,2.4,12.5,4,23-2.3c4.9-2.9,8.8-7.2,16.3-8.2c9.8-1.3,21.1,0.8,32.5,2.5c-1.7,5-5.1,8.4-7.8,12.4c-0.8,0.9,1.7,1,4.6,0.5
					c5.2-1.3,8.9-2.3,12.8-4.6c4.8-2.8,5.5-10,11.4-11.5c3.3,5,12.2,6.2,17.8,2.2c-4.9-1.4-6.2-11.7-4.6-16.3
					c1.6-4.3,3.1-11.2,4.7-16.9c1.7-6.1,2.3-13.9,4.3-17c3.1-4.7,6.4-6.3,9.4-9c2.9-2.7,5.6-5.2,5.5-11.3
					C381,385.4,380,384.3,378.1,384.4L378.1,384.4z"/>
				
					<path id="path3352" inkscape:export-filename="/mnt/files/documents/monty-program-ab/logos/seal-flat.png" inkscape:export-xdpi="90" inkscape:export-ydpi="90" class="st2" d="
					M253.2,466.5c7.5,1.1,12,0,18-2.6c5.1-2.2,10-6.8,16-8.7c8.8-2.8,18.5,0,27.9,0.6c2.3,0.1,4.6,0.1,6.8-0.1
					c3.5-2.2,3.4-10.2,6.9-11c-0.1,11.3-4.7,18.1-9.6,24.7c10.2-1.8,16.4-7.7,20.5-15.7c1.3-2.4,2.3-5,3.3-7.7
					c1.5,1.1,0.6,4.6,1.4,6.4c7.1-3.9,11.1-12.9,13.8-22c3.1-10.5,4.4-21.1,6.4-24.2c1.9-3,5-4.9,7.8-6.8c3.1-2.2,6-4.5,6.4-8.7
					c-3.3-0.3-4.1-1.1-4.6-2.7c-1.7,0.9-3.2,1.1-4.9,1.2c-1.5,0-3.1,0-5.2,0.2c-16.6,1.7-18.7,20-29.4,30.4
					c-0.8,0.8-1.6,1.5-2.5,2.1c-3.7,2.8-8.3,4.8-12.5,6.4c-6.8,2.6-13.3,2.8-19.7,5c-4.7,1.6-9.5,4-13.3,6.7c-1,0.7-1.9,1.3-2.7,2
					c-2.3,1.9-3.7,3.9-5.2,6c-1.5,2.2-2.9,4.4-5.1,6.6c-3.5,3.5-16.7,1-21.4,4.2c-0.5,0.4-0.9,0.8-1.2,1.3c2.5,1.2,4.2,0.4,7.1,0.8
					C258.6,463.6,252.2,465.3,253.2,466.5L253.2,466.5z"/>
				
					<path id="path3873" inkscape:export-filename="/mnt/files/documents/monty-program-ab/logos/seal-flat.png" inkscape:export-xdpi="90" inkscape:export-ydpi="90" class="st3" d="
					M353.9,446.6c0.2,3.2,2,9.5,3.7,11c-3.2,0.8-8.7-0.5-10.1-2.8C348.2,451.6,351.9,448.7,353.9,446.6z"/>
				
					<path id="path3880" inkscape:export-filename="/mnt/files/documents/monty-program-ab/logos/seal-flat.png" inkscape:export-xdpi="90" inkscape:export-ydpi="90" class="st1" d="
					M358.5,396.2c2.4,2,7.3,0.4,6.4-3.7C361.3,392.3,359.2,393.5,358.5,396.2z"/>
				
					<path id="path3882" inkscape:export-filename="/mnt/files/documents/monty-program-ab/logos/seal-flat.png" inkscape:export-xdpi="90" inkscape:export-ydpi="90" class="st4" d="
					M374.9,391.5c-0.6,1.3-1.8,3-1.8,6.3c0,0.6-0.4,1-0.4,0.1c0-3.3,0.9-4.7,1.8-6.5C374.9,390.6,375.2,390.9,374.9,391.5z"/>
				
					<path id="path3884" inkscape:export-filename="/mnt/files/documents/monty-program-ab/logos/seal-flat.png" inkscape:export-xdpi="90" inkscape:export-ydpi="90" class="st4" d="
					M374.3,391c-0.7,1.3-2.5,3.5-2.8,6.9c-0.1,0.6-0.5,0.9-0.4,0c0.3-3.2,1.7-5.3,2.8-7.1C374.3,390.1,374.6,390.5,374.3,391z"/>
				
					<path id="path3886" inkscape:export-filename="/mnt/files/documents/monty-program-ab/logos/seal-flat.png" inkscape:export-xdpi="90" inkscape:export-ydpi="90" class="st4" d="
					M373.7,390.3c-0.8,1.2-3.6,3.9-4.1,7.2c-0.1,0.6-0.6,0.9-0.5,0c0.6-3.2,3-5.7,4.2-7.4C373.8,389.5,374,389.8,373.7,390.3z"/>
				
					<path id="path3888" inkscape:export-filename="/mnt/files/documents/monty-program-ab/logos/seal-flat.png" inkscape:export-xdpi="90" inkscape:export-ydpi="90" class="st4" d="
					M373.2,389.6c-1,1.1-4.3,4.6-5.3,7.7c-0.2,0.5-0.7,0.8-0.4-0.1c1-3.1,3.9-6.4,5.3-7.9C373.5,388.8,373.6,389.2,373.2,389.6
					L373.2,389.6z"/>
			</g>
		</g>
	</g>
</g>
</svg>
