<?xml version="1.0" encoding="utf-8"?>
<!-- Generator: Adobe Illustrator 23.1.0, SVG Export Plug-In . SVG Version: 6.00 Build 0)  -->
<svg version="1.1" id="Ebene_1" xmlns="http://www.w3.org/2000/svg" xmlns:xlink="http://www.w3.org/1999/xlink" x="0px" y="0px"
	 viewBox="0 0 300 300" style="enable-background:new 0 0 300 300;" xml:space="preserve">
<style type="text/css">
	.st0{fill:url(#SVGID_1_);}
	.st1{fill:url(#SVGID_2_);}
	.st2{fill:url(#SVGID_3_);}
	.st3{fill:url(#SVGID_4_);}
	.st4{opacity:0.1;enable-background:new    ;}
	.st5{opacity:0.3;fill:#FFFFFF;enable-background:new    ;}
</style>
<linearGradient id="SVGID_1_" gradientUnits="userSpaceOnUse" x1="289.9438" y1="1790.1808" x2="289.9438" y2="1790.2683" gradientTransform="matrix(2493.7009 0 0 -2493.7009 -722883.25 4464434.5)">
	<stop  offset="0" style="stop-color:#574C4A"/>
	<stop  offset="1" style="stop-color:#80716D"/>
</linearGradient>
<path class="st0" d="M40.8,188.4v-76.7c0-62,8.8-70.8,70.7-70.8h76.9c61.9,0,70.7,8.9,70.7,70.8v76.7c0,62-8.8,70.8-70.7,70.8h-76.9
	C49.7,259.2,40.8,250.3,40.8,188.4z"/>
<linearGradient id="SVGID_2_" gradientUnits="userSpaceOnUse" x1="289.6398" y1="1790.6387" x2="289.5885" y2="1790.7323" gradientTransform="matrix(1567.7467 0 0 -1504.1832 -453893.5625 2693668)">
	<stop  offset="0" style="stop-color:#268D83"/>
	<stop  offset="1" style="stop-color:#2EA19E"/>
</linearGradient>
<path class="st1" d="M88,82c-10.7,68-5.1,131.7-5.1,131.7h33.5c-3.2-17-14.6-94.6-5.1-94.8c5.1,0.8,28.4,65.8,28.4,65.8
	s5.1-0.6,10.3-0.6c5.2,0,10.3,0.6,10.3,0.6s23.3-65,28.4-65.8c9.5,0.3-1.9,77.8-5.1,94.8h33.5c0,0,5.6-63.7-5.1-131.7H181
	c-5.9,0.1-28.4,39.5-31,39.5c-2.6,0-25.1-39.4-31-39.5H88L88,82z"/>
<radialGradient id="SVGID_3_" cx="283.6822" cy="1802.6718" r="4.377721e-02" gradientTransform="matrix(181.3681 0 0 -181.3681 -51316.8281 327151.7813)" gradientUnits="userSpaceOnUse">
	<stop  offset="0" style="stop-color:#DB7C7C"/>
	<stop  offset="1" style="stop-color:#C83737"/>
</radialGradient>
<path class="st2" d="M143.4,205.7c0,4.4-3.6,7.9-7.9,7.9s-7.9-3.6-7.9-7.9c0-4.4,3.6-7.9,7.9-7.9S143.4,201.4,143.4,205.7z"/>
<radialGradient id="SVGID_4_" cx="282.0115" cy="1802.6725" r="4.377721e-02" gradientTransform="matrix(181.3583 0 0 -181.3582 -50981.4727 327134.0313)" gradientUnits="userSpaceOnUse">
	<stop  offset="0" style="stop-color:#DB7C7C"/>
	<stop  offset="1" style="stop-color:#C83737"/>
</radialGradient>
<path class="st3" d="M172.5,205.7c0,4.4-3.6,7.9-7.9,7.9c-4.4,0-7.9-3.6-7.9-7.9c0-4.4,3.6-7.9,7.9-7.9
	C168.9,197.8,172.5,201.4,172.5,205.7z"/>
<path class="st4" d="M210.5,84.2c4.8,32.8,6,64.2,5.9,87.6c-0.1,24-1.5,39.5-1.5,39.5h-28.2l-3,2.3h33.5c0,0,5.6-63.7-5.1-131.7
	L210.5,84.2L210.5,84.2z M121.6,83.4c8.8,9.8,24.1,35.8,26.2,35.8C142.1,112.1,128.4,89.3,121.6,83.4z M109,116.6
	c-9.5,0.3,1.9,77.8,5.1,94.8H84.8l-2,2.3h33.5c-3.2-16.9-14.5-93.8-5.3-94.8C110.3,117.6,109.5,116.7,109,116.6L109,116.6z
	 M186.5,116.6c-5.1,0.8-28.4,65.8-28.4,65.8s-5.1-0.6-10.3-0.6c-3.1,0-5.7,0.2-7.5,0.4l-0.6,2.6c0,0,5.1-0.6,10.3-0.6
	c5.2,0,10.3,0.6,10.3,0.6s23.1-64.6,28.4-65.8C188.1,117.4,187.4,116.6,186.5,116.6L186.5,116.6z"/>
<path class="st5" d="M88,82c-10.7,68-5.1,131.7-5.1,131.7l2-2.2c-1-15-3.7-69.4,5.4-127.2h31.1c0.7,0,1.5,0.5,2.6,1.4
	c-2-2.3-3.7-3.7-4.8-3.7L88,82L88,82z M181,82c-5.9,0.1-28.4,39.5-31,39.5c1.1,1.3,1.9,2.3,2.3,2.3c2.6,0,25.1-39.4,31-39.5h27.4
	L212,82L181,82L181,82z M113.4,121.1c7.5,11.3,26.3,63.5,26.3,63.5l0.5-2.5c-4.6-12.7-22.3-60.3-26.7-61
	C113.5,121.1,113.4,121.1,113.4,121.1L113.4,121.1z M191,121.1c5.1,12.9-4.5,77.3-7.4,92.5l3-2.4C190.5,188.5,199.9,121.4,191,121.1
	z"/>
</svg>
