<?xml version="1.0" encoding="utf-8"?>
<!-- Generator: Adobe Illustrator 23.1.0, SVG Export Plug-In . SVG Version: 6.00 Build 0)  -->
<svg version="1.1"
	 id="svg2" xmlns:cc="http://creativecommons.org/ns#" xmlns:dc="http://purl.org/dc/elements/1.1/" xmlns:inkscape="http://www.inkscape.org/namespaces/inkscape" xmlns:rdf="http://www.w3.org/1999/02/22-rdf-syntax-ns#" xmlns:sodipodi="http://sodipodi.sourceforge.net/DTD/sodipodi-0.dtd" xmlns:svg="http://www.w3.org/2000/svg"
	 xmlns="http://www.w3.org/2000/svg" xmlns:xlink="http://www.w3.org/1999/xlink" x="0px" y="0px" viewBox="0 0 300 300"
	 style="enable-background:new 0 0 300 300;" xml:space="preserve">
<style type="text/css">
	.st0{clip-path:url(#SVGID_2_);}
	.st1{fill:url(#path30_1_);}
	.st2{clip-path:url(#SVGID_4_);}
	.st3{fill:url(#path46_1_);}
	.st4{clip-path:url(#SVGID_6_);}
	.st5{fill:url(#path62_1_);}
	.st6{fill:#C0BDBA;}
	.st7{fill:#414044;}
</style>
<sodipodi:namedview  bordercolor="#666666" borderopacity="1" gridtolerance="10" guidetolerance="10" id="namedview4" inkscape:current-layer="g10" inkscape:cx="210.82244" inkscape:cy="57.558266" inkscape:pageopacity="0" inkscape:pageshadow="2" inkscape:window-height="1145" inkscape:window-maximized="1" inkscape:window-width="1920" inkscape:window-x="0" inkscape:window-y="0" inkscape:zoom="2.0079853" objecttolerance="10" pagecolor="#ffffff" showgrid="false">
	</sodipodi:namedview>
<g id="g10" transform="matrix(1.25,0,0,-1.25,0,143.2125)" inkscape:groupmode="layer" inkscape:label="ink_ext_XXXXXX">
	<g id="g12" transform="scale(0.1,0.1)">
		<g id="g14">
			<g>
				<defs>
					<path id="SVGID_1_" d="M164.1-259.7l-17,5.6c0,0,2.2,85.8-28.8,91.8c-20.4,23.6,3.1,1009.8,77.3,3.4c0,0-25.4-12.7-30.2-34.4
						C160.7-214.9,164.1-259.7,164.1-259.7z"/>
				</defs>
				<clipPath id="SVGID_2_">
					<use xlink:href="#SVGID_1_"  style="overflow:visible;"/>
				</clipPath>
				<g id="g16" class="st0">
					
						<linearGradient id="path30_1_" gradientUnits="userSpaceOnUse" x1="-5422.3481" y1="-3702.7373" x2="-5421.7822" y2="-3702.7373" gradientTransform="matrix(43.0493 -14.5243 -13.1019 -38.6334 184967.2188 -221754.8438)">
						<stop  offset="0" style="stop-color:#929669"/>
						<stop  offset="0.2308" style="stop-color:#929669"/>
						<stop  offset="1" style="stop-color:#FDFCF1"/>
					</linearGradient>
					<path id="path30" inkscape:connector-curvature="0" class="st1" d="M164.1-259.7l-17,5.6c0,0,2.2,85.8-28.8,91.8
						c-20.4,23.6,3.1,1009.8,77.3,3.4c0,0-25.4-12.7-30.2-34.4C160.7-214.9,164.1-259.7,164.1-259.7"/>
				</g>
			</g>
		</g>
		<g id="g32">
			<g>
				<defs>
					<path id="SVGID_3_" d="M173.3-176.9c0,0,147.3,97,112.8,298.5C252.8,268,174.3,316.1,165.9,334.5c-9.3,13-18.6,36-18.6,36
						l6.3-407.8C153.6-37.3,140.6-161.9,173.3-176.9L173.3-176.9z"/>
				</defs>
				<clipPath id="SVGID_4_">
					<use xlink:href="#SVGID_3_"  style="overflow:visible;"/>
				</clipPath>
				<g id="g34" class="st2">
					
						<linearGradient id="path46_1_" gradientUnits="userSpaceOnUse" x1="-5523.8101" y1="-3791.3005" x2="-5523.2441" y2="-3791.3005" gradientTransform="matrix(30.1458 -117.0264 -125.9163 -20.1877 -310743.5938 -722602.625)">
						<stop  offset="0" style="stop-color:#45AA3A"/>
						<stop  offset="1" style="stop-color:#3D9439"/>
					</linearGradient>
					<path id="path46" inkscape:connector-curvature="0" class="st3" d="M173.3-176.9c0,0,147.3,97,112.8,298.5
						C252.8,268,174.3,316.1,165.9,334.5c-9.3,13-18.6,36-18.6,36l6.3-407.8C153.6-37.3,140.6-161.9,173.3-176.9"/>
				</g>
			</g>
		</g>
		<g id="g48">
			<g>
				<defs>
					<path id="SVGID_5_" d="M138.5-182.3c0,0-138.2,94.3-130.2,260.6c8,166.3,105.5,248.1,124.5,262.9
						c12.3,13.1,12.8,18.1,13.7,31.1c8.6-18.5,7.2-276.3,8.1-306.5C158.2-51.5,148.2-160.1,138.5-182.3z"/>
				</defs>
				<clipPath id="SVGID_6_">
					<use xlink:href="#SVGID_5_"  style="overflow:visible;"/>
				</clipPath>
				<g id="g50" class="st4">
					
						<linearGradient id="path62_1_" gradientUnits="userSpaceOnUse" x1="-5494.769" y1="-3653.7896" x2="-5494.2031" y2="-3653.7896" gradientTransform="matrix(52.7619 11.988 16.4871 -49.2637 350148.5938 -114066.7734)">
						<stop  offset="0" style="stop-color:#41A83B"/>
						<stop  offset="1" style="stop-color:#5EBC44"/>
					</linearGradient>
					<path id="path62" inkscape:connector-curvature="0" class="st5" d="M138.5-182.3c0,0-138.2,94.3-130.2,260.6
						c8,166.3,105.5,248.1,124.5,262.9c12.3,13.1,12.8,18.1,13.7,31.1c8.6-18.5,7.2-276.3,8.1-306.5
						C158.2-51.5,148.2-160.1,138.5-182.3"/>
				</g>
			</g>
		</g>
		<path id="path64" inkscape:connector-curvature="0" class="st6" d="M1808-128.6c9.8-7.8,29.3-11,46.5-11
			c22.3,0,44.2,4.1,65.6,23.4c21.9,19.8,36.8,50.1,36.8,98.4c0,46.4-17.7,84.1-54,106.2c-20.5,12.9-47,17.9-77.2,17.9
			c-8.8,0-17.7-0.5-22.8-2.8c-1.4-0.9-4.2-4.6-4.2-6.4c-0.9-8.3-0.9-71.2-0.9-108.5c0-38.1,0-91.5,0.9-97.9
			C1799.2-114.8,1801.9-124.5,1808-128.6z M1715.1,126.9c7.9,0,38-1.4,51.9-1.4c26.1,0,44.2,1.4,93.1,1.4c41,0,75.4-11,100.1-32.2
			c29.8-25.7,45.6-61.6,45.6-105.2c0-62-28.4-97.9-56.8-118.1c-28.4-21.1-65.2-33.1-117.7-33.1c-27.9,0-75.9,0.9-115.9,1.4h-0.5
			c-1.9,3.7,3.4,18,6.7,18.4c10.8,1.2,13.7,1.6,18.8,3.7c8.4,3.5,10.4,7.8,11.4,23c1.4,28.5,0.9,62.5,0.9,101.1
			c0,27.6,0.5,81.3-0.5,98.4c-1.4,14.2-7.4,17.9-19.5,20.7c-6.1,1.4-14.4,2.8-26.1,4.1C1705.6,111.7,1712.8,124.2,1715.1,126.9"/>
		<path id="path66" inkscape:connector-curvature="0" class="st6" d="M2129,104.4c-1.9-0.5-4.2-5.1-4.2-7.4
			c-0.5-16.5-0.9-59.7-0.9-89.6c0-0.9,1.4-2.3,2.3-2.3c6-0.5,20.9-0.9,33.5-0.9c17.7,0,27.9,2.3,33.5,5.1
			c14.9,7.3,21.9,23.4,21.9,40.9c0,40-27.9,55.2-69.3,55.2C2143,105.3,2135.1,105.3,2129,104.4L2129,104.4z M2234.6-79.4
			c0,40.4-29.8,63.4-84.2,63.4c-2.3,0-19.5,0.5-23.7-0.5c-1.4-0.5-2.8-1.4-2.8-2.3c0-29-0.5-75.4,0.9-93.8
			c0.9-7.8,6.5-18.8,13.5-22.1c7.5-4.1,24.2-5.1,35.8-5.1C2206.3-139.6,2234.6-121.7,2234.6-79.4L2234.6-79.4z M2045,126.9
			c4.2,0,16.6-1.4,48.2-1.4c29.8,0,54,0.9,82.8,0.9c35.8,0,85.2-12.9,85.2-66.2c0-26.2-18.6-47.3-42.8-57.4c-1.4-0.5-1.4-1.4,0-1.8
			c34.4-8.7,64.7-29.9,64.7-70.3c0-39.5-24.7-64.3-60.5-80c-21.9-9.6-48.9-12.9-76.3-12.9c-20.9,0-77,2.3-108.2,1.8
			c-3.3,1.4,3,16.1,5.8,18.4c7.5,0.5,13.2,1,21.1,3.3c11.2,2.8,12.5,6.4,13.9,22.9c0.9,14.2,0.9,65.3,0.9,101.6
			c0,49.6,0.5,83.2,0,99.7c-0.5,12.9-5.1,17-14,19.3c-7,1.4-18.6,2.8-27.9,4.1C2035.5,111.3,2042.6,125.1,2045,126.9"/>
		<path id="path68" inkscape:connector-curvature="0" class="st7" d="M380.2-161.5c-0.8,1.2-1.6,4.9-1.4,9.3
			c0.1,3.3,0.8,5.5,1.4,6.2c8.8,1.4,12.9,2.3,17.9,3.6c8.2,2,11.3,6.5,11.8,17c1.3,24.8,1.4,71.3,0.9,104l0,1
			c0,3.5,0.1,8.3-4.3,11.7C400-4.5,392-1,381.8,2.1c-3.9,1.2-6.1,3.2-5.9,5.6c0.1,2.3,2.6,5.2,7.6,6.2c13.5,1.4,48.8,9.8,62.7,16.2
			c0.8-1,2.1-3.2,1.9-6.6c-0.1-1.4-0.2-3-0.4-4.5c-0.4-4.6-0.8-9.9-0.8-15.1c0-1.5,1.7-3,3.4-3c0.9,0,1.7,0.4,2.4,1
			c26.4,20.7,50.1,28.1,62.2,28.1c20,0,35.5-9.5,47.6-29.2c0.7-1,1.7-1.6,2.7-1.6c1,0,2,0.5,2.5,1.4c24.3,18.4,48.4,29.4,64.5,29.4
			c38.1,0,60.9-28.5,60.9-76.2c0-13.7-0.1-31.1-0.3-47.3c-0.1-14.2-0.2-27.6-0.2-36.8c0-2.2,3-8.4,7.5-9.7
			c5.6-2.7,13.6-4.1,23.8-5.8l0.4-0.1c0.8-2.7-0.8-13.4-2.4-15.5c-2.5,0-6,0.2-10.4,0.4c-7.9,0.4-18.7,1-31.4,1
			c-25.3,0-38.5-0.5-51.2-1.3c-1,3.2-1.3,13.3-0.1,15.5c7.4,1.4,11,2.3,15.4,3.6c8.1,2.7,10.4,6.3,10.8,17
			c0.2,7.6,1.6,74.5-0.9,90.4c-2.4,16.5-14.8,35.7-42,35.7c-10.1,0-26.4-4.2-41.9-15.9c-1-0.9-1.5-2.8-1.5-3.9l0-0.3
			c1.8-8.6,1.8-18.6,1.8-33.7c0-8.6-0.1-17.8-0.1-26.9c-0.1-18.4-0.2-35.9,0.1-49c0-9,5.4-11.1,9.8-12.8c2.4-0.5,4.3-1,6.1-1.4
			c3.7-0.9,7.4-1.8,13-2.7c0.8-1.8,0.8-7-0.2-11.6c-0.6-2.5-1.3-3.6-1.6-4c-14.1,0.5-28.5,0.9-49.4,0.9c-6.3,0-16.6-0.3-25.7-0.5
			c-7.4-0.2-14.4-0.4-18.3-0.4c-0.6,0.9-1.4,3.8-1.4,8c0,3.9,0.7,6.6,1.5,7.5c2,0.4,3.8,0.7,5.6,1c4.9,0.9,9.1,1.6,13.2,2.6
			c6.9,2.1,9.5,5.9,10,14.7c1.3,20.5,2.4,79.4-0.5,94.1c-4.9,23.7-18.4,35.7-40.1,35.7c-12.7,0-28.7-6.1-41.9-15.9
			c-2.2-1.6-3.9-5.7-3.9-9.5c0-7,0-15.4-0.1-24.3c-0.1-29.6-0.2-66.4,0.5-82.4c0.4-4.9,2.1-10.7,11.4-12.9c2-0.6,5.5-1.1,9.6-1.8
			c2.3-0.4,4.9-0.8,7.5-1.3c0.9-2.5,0.4-12.5-1.2-15.6c-4,0-9,0.3-14.7,0.5c-8.7,0.4-19.6,0.9-31.9,0.9c-14.5,0-24.7-0.5-32.8-0.9
			C389.6-161.2,384.9-161.5,380.2-161.5L380.2-161.5"/>
		<path id="path70" inkscape:connector-curvature="0" class="st7" d="M841.8,10.4c-8.5,0-16.4-2.2-22.3-6.2
			c-16.2-9.8-24.4-29.4-24.4-58.2c0-53.9,27-91.6,65.7-91.6c11.4,0,20.7,3.3,28.5,10c11.9,9.7,18.2,29.5,18.2,57.2
			C907.6-25.3,881.1,10.4,841.8,10.4L841.8,10.4L841.8,10.4z M849.3-165.6c-69.9,0-94.8,51.2-94.8,99.2c0,33.5,13.7,59.7,40.8,77.8
			c19.2,11.8,42.2,18.6,62.9,18.6c53.4,0,90.6-38.3,90.6-93.2c0-37.3-14.9-66.7-43.1-85.2C892.2-156.7,868.7-165.6,849.3-165.6
			L849.3-165.6"/>
		<path id="path72" inkscape:connector-curvature="0" class="st7" d="M1565.8,10.4c-8.5,0-16.4-2.2-22.3-6.2
			c-16.2-9.8-24.4-29.4-24.4-58.2c0-53.9,27-91.6,65.7-91.6c11.4,0,20.7,3.3,28.5,10c11.9,9.7,18.2,29.5,18.2,57.2
			C1631.6-25.3,1605.1,10.4,1565.8,10.4L1565.8,10.4L1565.8,10.4z M1573.3-165.6c-69.9,0-94.8,51.2-94.8,99.2
			c0,33.5,13.7,59.7,40.8,77.8c19.2,11.8,42.2,18.6,62.9,18.6c53.4,0,90.6-38.3,90.6-93.2c0-37.3-14.9-66.8-43.1-85.2
			C1616.2-156.7,1592.7-165.6,1573.3-165.6L1573.3-165.6"/>
		<path id="path74" inkscape:connector-curvature="0" class="st7" d="M1331.9,12.2c-21.5,0-35.5-17-35.5-43.3
			c0-26.6,12-57.6,45.7-57.6c5.8,0,16.3,2.6,21.5,8.3c7.8,7.2,13,22.1,13,37.8C1376.6-8.3,1359.9,12.2,1331.9,12.2L1331.9,12.2z
			 M1329.1-169.3c-8.1,0-14-2.4-17.5-4.3c-17.1-10.9-25-21.8-25-34.4c0-11.8,4.6-21.3,14.5-29.6c12-10.1,28.1-15.1,49.4-15.1
			c41.8,0,60.5,22.4,60.5,44.7c0,15.5-7.8,25.9-23.8,31.7C1374.9-171.8,1354.3-169.3,1329.1-169.3L1329.1-169.3L1329.1-169.3z
			 M1331.9-275.9c-25.1,0-43.2,5.3-58.6,17.2c-15,11.6-21.8,28.8-21.8,40.6c0,3.4,0.8,12.2,8.2,20.7c4.4,5,14.5,14.3,37.9,30.3
			c0.7,0.3,1.2,1,1.2,1.8c0,1-0.6,1.7-1.5,1.9c-19.3,7.4-25.1,19.5-26.9,26c0,0.2-0.1,0.6-0.2,1c-0.6,2.6-1.1,5,2.4,7.5
			c2.7,1.9,7,4.5,11.6,7.2c6.8,4,14.5,8.5,18.7,12.2c0.7,0.7,0.9,1.6,0.8,2.6c-0.2,1-0.7,1.8-1.6,2.2c-28.5,9.6-42.9,30.8-42.9,63
			c0,20.8,9.6,39.6,26.4,51.6c11.5,9.1,40.3,20,59,20l1.1,0c19.2-0.5,30-4.5,45-10c8.1-3,15.8-4.2,26.6-4.2c15.9,0,22.8,5,28.8,10.8
			c0.3-0.7,1.2-3,1.5-8.2c0.4-5.3-1.1-13.2-5.2-18.9c-3.3-4.5-10.8-7.8-17.9-7.8c-0.7,0-1.4,0-2.1,0.1c-7.3,0.7-10.8,1.8-10.8,1.8
			l-1.8-0.6c-0.6-0.8-0.2-1.7,0.3-2.9c0.1-0.3,0.2-0.5,0.3-0.7c0.9-3.7,2.6-14.6,2.6-17.6c0-33.8-13.4-48.6-27.8-59.5
			c-13.8-10.4-29.9-16.6-48-18.5h0c-0.4,0-2.1-0.2-5.6-0.5c-2.2-0.2-5-0.5-5.4-0.5l-0.4-0.1c-3.2-0.9-11.3-4.8-11.3-12
			c0-6,3.7-13.5,21.4-14.8c3.6-0.3,7.4-0.5,11.5-0.8c23.4-1.6,52.5-3.6,66.3-8.3c18.9-6.9,30.6-23.8,30.6-44.1
			c0-30.4-21.6-58.9-57.8-76.3C1369-271.9,1351.1-275.9,1331.9-275.9L1331.9-275.9"/>
		<path id="path76" inkscape:connector-curvature="0" class="st7" d="M1217.1-145.3c-10.2,1.4-17.7,2.8-26.5,6.9
			c-1.4,0.9-3.3,5.1-3.3,6.4c-0.9,14.2-0.9,55.6-0.9,82.7c0,22.1-3.7,41.4-13,55.2c-11.2,15.6-27,24.8-47.5,24.8
			c-18.1,0-42.3-12.4-62.4-29.4c-0.5-0.5-3.5-3.4-3.5,1.2c0.1,4.5,0.8,13.7,1.2,19.5c0.4,5.8-3,8.5-3,8.5
			c-13-6.4-49.7-15.1-63.3-16.5C985,12,982.5,2.5,993.1-0.8v0c0,0,0.1,0,0.2-0.1c11-3.3,18.5-6.9,24-10.5c4.2-3.2,3.7-7.8,3.7-11.5
			c0.5-30.8,0.5-78.1-0.9-103.9c-0.5-10.1-3.3-13.8-10.7-15.6l0.7,0.2c-5.6-1.4-10.2-2.3-17.2-3.2c-2.3-2.3-2.3-15.6,0-18.4
			c4.7,0,28.4,1.4,47.9,1.4c27,0,40.9-1.4,47.9-1.4c2.8,3.2,3.7,15.6,1.9,18.4c-7.9,0.5-13.5,1.4-19.1,2.8
			c-7.4,1.8-9.3,5.5-9.8,13.8c-0.9,21.6-0.9,67.6-0.9,98.8c0,8.7,2.3,12.9,5.1,15.2C1075.1-6.5,1090.5-1,1104-1
			c13,0,21.9-4.1,28.4-9.6c8.8-7.4,12.1-17.9,13-25.7c1.9-17.5,1.4-52.4,1.4-82.7c0-16.5-1.4-20.7-7.4-22.5
			c-2.8-1.4-10.2-2.8-19.1-3.7c-2.8-2.8-1.9-15.6,0-18.4c12.1,0,26.1,1.4,46.5,1.4c25.6,0,41.9-1.4,48.4-1.4
			C1218-160.5,1218.9-148.5,1217.1-145.3"/>
		<path id="path78" inkscape:connector-curvature="0" class="st6" d="M2348.5-122.6h7.9c6.4,0,8.8,2.2,8.8,8c0,5.9-2.3,7.8-9.5,7.8
			h-7.2V-122.6z M2365.3-147.4l-9.3,20h-7.5v-20h-5.5v45.4h13.4c10,0,14.1-4.4,14.1-12.7c0-6.7-3.1-10.9-9-12.1l9.6-20.6
			L2365.3-147.4L2365.3-147.4z M2356.5-91.9c-18.3,0-32.8-14.4-32.8-32.8c0-18.1,14.5-32.6,32.7-32.6c18.1,0,32.6,14.5,32.6,32.6
			C2389-106.3,2374.9-91.9,2356.5-91.9z M2356.4-160.6c-20.2,0-35.9,15.8-35.9,35.9c0,20.3,15.8,35.9,36,35.9
			c19.8,0,35.8-15.9,35.8-35.4C2392.3-144.6,2376.6-160.6,2356.4-160.6"/>
	</g>
</g>
</svg>
