<?xml version="1.0" encoding="utf-8"?>
<!-- Generator: Adobe Illustrator 23.1.0, SVG Export Plug-In . SVG Version: 6.00 Build 0)  -->
<svg version="1.1" id="Ebene_1" xmlns="http://www.w3.org/2000/svg" xmlns:xlink="http://www.w3.org/1999/xlink" x="0px" y="0px"
	 viewBox="0 0 300 300" style="enable-background:new 0 0 300 300;" xml:space="preserve">
<style type="text/css">
	.st0{fill:#009900;}
</style>
<g>
	<path class="st0" d="M58.1,111.5c-3.5,0-6.4,2.9-6.4,6.4v33.3l-37.8-37.8c-1.8-1.8-4.6-2.4-7-1.4c-2.4,1-3.9,3.3-3.9,5.9v48.7
		c0,3.5,2.9,6.4,6.4,6.4s6.4-2.9,6.4-6.4v-33.3l37.8,37.8c1.2,1.2,2.9,1.9,4.5,1.9c0.8,0,1.7-0.2,2.4-0.5c2.4-1,3.9-3.3,3.9-5.9
		v-48.7C64.5,114.4,61.6,111.5,58.1,111.5z"/>
	<path class="st0" d="M103.5,139.7c-3.4,0-6.5,3-6.5,6.4c0,3.4,3.1,6.4,6.5,6.4l15.6-0.1l-3.8,7.7H95.2l-10-17.6l10.1-18.2h21.4
		l5,10.2h12.9l-8.1-19.4l-1.8-3.6h-4H91.5h-3.8l-1.8,3.3l-13.6,24.7l-1.8,3.1l1.8,3.1l13.6,23.9l1.8,3.3h3.8h27.8h4l1.8-3.6
		l10.1-20.4l4.6-9.3h-10.3L103.5,139.7z"/>
	<path class="st0" d="M152.4,111.5c-3.3,0-6.3,3.1-6.3,6.5v16.6h12.8V118C158.9,114.6,155.8,111.5,152.4,111.5z"/>
	<path class="st0" d="M224,112.1c-2.4-1-5.1-0.4-7,1.4l-37.8,37.8V118c0-3.5-2.9-6.4-6.4-6.4s-6.4,2.9-6.4,6.4v48.7
		c0,2.6,1.6,4.9,3.9,5.9c0.8,0.3,1.6,0.5,2.4,0.5c1.7,0,3.3-0.6,4.5-1.9l37.8-37.8v33.3c0,3.5,2.9,6.4,6.4,6.4s6.4-2.9,6.4-6.4V118
		C227.9,115.5,226.4,113.1,224,112.1z"/>
	<path class="st0" d="M275.3,142.3l19.9-19.8c2.5-2.5,2.5-6.5,0-9c-2.5-2.5-6.5-2.5-9,0l-19.9,19.8l-19.9-19.8c-2.5-2.5-6.5-2.5-9,0
		c-2.5,2.5-2.5,6.5,0,9l19.9,19.8l-19.8,19.7c-2.5,2.5-2.5,6.5,0,9c1.2,1.3,2.9,1.9,4.5,1.9c1.6,0,3.3-0.6,4.5-1.9l19.8-19.8
		l19.8,19.8c1.2,1.2,2.9,1.9,4.5,1.9c1.6,0,3.3-0.6,4.5-1.9c2.5-2.5,2.5-6.5,0-9L275.3,142.3z"/>
	<path class="st0" d="M146.1,166.5c0,3.3,3,6.4,6.3,6.5c3.4,0,6.5-3.1,6.5-6.5v-26.7h-12.8V166.5z"/>
</g>
</svg>
