<?xml version="1.0" encoding="utf-8"?>
<!-- Generator: Adobe Illustrator 23.1.0, SVG Export Plug-In . SVG Version: 6.00 Build 0)  -->
<svg version="1.1"
	 id="svg2" xmlns:cc="http://web.resource.org/cc/" xmlns:dc="http://purl.org/dc/elements/1.1/" xmlns:inkscape="http://www.inkscape.org/namespaces/inkscape" xmlns:rdf="http://www.w3.org/1999/02/22-rdf-syntax-ns#" xmlns:sodipodi="http://inkscape.sourceforge.net/DTD/sodipodi-0.dtd" xmlns:svg="http://www.w3.org/2000/svg"
	 xmlns="http://www.w3.org/2000/svg" xmlns:xlink="http://www.w3.org/1999/xlink" x="0px" y="0px" viewBox="0 0 300 300"
	 style="enable-background:new 0 0 300 300;" xml:space="preserve">
<style type="text/css">
	.st0{fill:#646464;}
	.st1{fill:url(#path1948_1_);}
	.st2{fill:url(#path1950_1_);}
	.st3{opacity:0.4438;fill:url(#path1894_1_);enable-background:new    ;}
</style>
<sodipodi:namedview  bordercolor="#666666" borderopacity="1.0" id="base" inkscape:current-layer="svg2" inkscape:cx="243.02499" inkscape:cy="71.887497" inkscape:pageopacity="0.0" inkscape:pageshadow="2" inkscape:window-height="543" inkscape:window-width="791" inkscape:window-x="0" inkscape:window-y="0" inkscape:zoom="1.4340089" pagecolor="#ffffff">
	</sodipodi:namedview>
<g id="g2303">
	<path id="path46" class="st0" d="M113.8,149.4c0-9-2.6-13.7-7.8-13.9c-2.1-0.1-4.1,0.2-6.1,1c-1.6,0.6-2.6,1.1-3.2,1.7v21.6
		c3.3,2.1,6.3,3,8.9,2.9C111,162.2,113.8,157.8,113.8,149.4z M120.2,149.8c0,4.6-1.1,8.4-3.3,11.4c-2.4,3.4-5.8,5.2-10.1,5.3
		c-3.3,0.1-6.6-0.9-10.1-3v19.6l-5.6-2v-43.5c0.9-1.1,2.1-2.1,3.5-2.9c3.3-1.9,7.4-2.9,12.1-2.9l0.1,0.1c4.3-0.1,7.7,1.7,10,5.3
		C119.1,140.5,120.2,144.7,120.2,149.8z"/>
	<path id="path48" class="st0" d="M154.3,162.7c0,6.2-0.6,10.4-1.9,12.8c-1.3,2.4-3.6,4.3-7.1,5.7c-2.9,1.1-5.9,1.7-9.2,1.8
		l-0.9-3.5c3.4-0.5,5.7-0.9,7.1-1.4c2.7-0.9,4.6-2.3,5.6-4.2c0.8-1.5,1.2-4.4,1.2-8.7v-1.4c-3.8,1.7-7.8,2.6-12,2.6
		c-2.7,0-5.2-0.9-7.3-2.6c-2.3-1.9-3.5-4.2-3.5-7.1v-23l5.6-1.9v23.1c0,2.5,0.8,4.4,2.4,5.7s3.7,2,6.3,1.9c2.6-0.1,5.3-1,8.2-2.9
		v-27h5.6V162.7z"/>
	<path id="path50" class="st0" d="M176.1,166.2c-0.7,0.1-1.3,0.1-1.8,0.1c-3.2,0-5.6-0.7-7.4-2.2c-1.8-1.5-2.6-3.6-2.6-6.2v-21.8
		h-3.8v-3.5h3.8v-9.2l5.6-2v11.2h6.3v3.5h-6.3v21.6c0,2.1,0.6,3.5,1.7,4.4c1,0.7,2.5,1.1,4.6,1.2V166.2z"/>
	<path id="path52" class="st0" d="M209.8,165.8h-5.6v-21.3c0-2.2-0.5-4-1.5-5.6c-1.2-1.8-2.8-2.6-4.9-2.6c-2.6,0-5.8,1.3-9.6,4v25.6
		h-5.6v-51l5.6-1.7v23.2c3.6-2.6,7.5-3.9,11.7-3.9c3,0,5.3,1,7.2,2.9c1.8,2,2.8,4.4,2.8,7.3V165.8L209.8,165.8z"/>
	<path id="path54" class="st0" d="M239.5,148.6c0-3.5-0.7-6.3-2-8.6c-1.6-2.8-4-4.2-7.3-4.4c-6.1,0.4-9.2,4.7-9.2,13
		c0,3.8,0.6,7,1.9,9.6c1.6,3.3,4.1,4.9,7.4,4.8C236.4,162.9,239.5,158.1,239.5,148.6z M245.6,148.6c0,4.9-1.3,9-3.8,12.3
		c-2.8,3.7-6.7,5.5-11.6,5.5c-4.9,0-8.7-1.8-11.5-5.5c-2.5-3.3-3.7-7.4-3.7-12.3c0-4.6,1.3-8.5,4-11.7c2.9-3.4,6.6-5.1,11.2-5.1
		c4.6,0,8.4,1.7,11.3,5.1C244.3,140,245.6,144,245.6,148.6z"/>
	<path id="path56" class="st0" d="M277.6,165.8H272v-22.5c0-2.5-0.8-4.4-2.3-5.8c-1.5-1.4-3.5-2.1-6-2c-2.6,0-5.2,0.9-7.6,2.6v27.8
		h-5.6v-28.4c3.2-2.3,6.2-3.8,8.9-4.5c2.5-0.7,4.8-1,6.7-1c1.3,0,2.6,0.1,3.7,0.4c2.2,0.5,4,1.4,5.3,2.8c1.5,1.5,2.3,3.3,2.3,5.4
		V165.8z"/>
	
		<linearGradient id="path1948_1_" gradientUnits="userSpaceOnUse" x1="611.6013" y1="-462.8079" x2="679.7718" y2="-521.4594" gradientTransform="matrix(0.5625 0 0 -0.568 -344.0559 -146.0901)">
		<stop  offset="0" style="stop-color:#5A9FD4"/>
		<stop  offset="1" style="stop-color:#306998"/>
	</linearGradient>
	<path id="path1948" class="st1" d="M36.1,115c-2.9,0-5.6,0.3-8,0.7c-7.1,1.2-8.4,3.8-8.4,8.6v6.3h16.8v2.1H19.6h-6.3
		c-4.9,0-9.2,2.9-10.5,8.4c-1.5,6.3-1.6,10.3,0,16.9c1.2,4.9,4,8.4,8.9,8.4h5.8v-7.6c0-5.5,4.8-10.3,10.5-10.3h16.8
		c4.7,0,8.4-3.8,8.4-8.4v-15.8c0-4.5-3.8-7.9-8.4-8.6C41.9,115.2,38.9,115,36.1,115z M27,120.1c1.7,0,3.2,1.4,3.2,3.2
		c0,1.7-1.4,3.2-3.2,3.2c-1.7,0-3.2-1.4-3.2-3.2C23.8,121.5,25.2,120.1,27,120.1z"/>
	
		<linearGradient id="path1950_1_" gradientUnits="userSpaceOnUse" x1="706.0373" y1="-556.5334" x2="681.8037" y2="-522.2469" gradientTransform="matrix(0.5625 0 0 -0.568 -344.0559 -146.0901)">
		<stop  offset="0" style="stop-color:#FFD43B"/>
		<stop  offset="1" style="stop-color:#FFE873"/>
	</linearGradient>
	<path id="path1950" class="st2" d="M55.3,132.8v7.4c0,5.7-4.9,10.5-10.5,10.5H28c-4.6,0-8.4,3.9-8.4,8.4V175c0,4.5,4,7.2,8.4,8.4
		c5.3,1.5,10.4,1.8,16.8,0c4.2-1.2,8.4-3.7,8.4-8.4v-6.3H36.4v-2.1h16.8h8.4c4.9,0,6.7-3.4,8.4-8.4c1.8-5.2,1.7-10.2,0-16.9
		c-1.2-4.8-3.5-8.4-8.4-8.4H55.3z M45.9,172.9c1.7,0,3.2,1.4,3.2,3.2c0,1.8-1.4,3.2-3.2,3.2c-1.7,0-3.2-1.4-3.2-3.2
		C42.7,174.3,44.1,172.9,45.9,172.9z"/>
	<path id="text3004" class="st0" d="M288.5,127.7h1v-6.1h2.3v-0.7h-5.6v0.7h2.3V127.7 M292.6,127.7h0.8v-5.5l1.8,5.5h0.9l1.9-5.5
		v5.5h0.9v-6.8h-1.2l-2.1,5.8l-1.8-5.8h-1.3V127.7"/>
	
		<radialGradient id="path1894_1_" cx="-2958.4717" cy="-237.5864" r="18.0049" gradientTransform="matrix(1.766474e-08 -0.2399 -1.0652 -3.791546e-07 -216.4556 -515.7001)" gradientUnits="userSpaceOnUse">
		<stop  offset="0" style="stop-color:#B8B8B8;stop-opacity:0.498"/>
		<stop  offset="1" style="stop-color:#7F7F7F;stop-opacity:0"/>
	</radialGradient>
	<path id="path1894" class="st3" d="M59.1,194.2c0,2.4-10.1,4.3-22.5,4.3s-22.5-1.9-22.5-4.3c0-2.4,10.1-4.3,22.5-4.3
		S59.1,191.8,59.1,194.2z"/>
</g>
</svg>
