<?xml version="1.0" encoding="utf-8"?>
<!-- Generator: Adobe Illustrator 23.1.0, SVG Export Plug-In . SVG Version: 6.00 Build 0)  -->
<svg version="1.1"
	 id="Ebene_1" xmlns:cc="http://creativecommons.org/ns#" xmlns:dc="http://purl.org/dc/elements/1.1/" xmlns:rdf="http://www.w3.org/1999/02/22-rdf-syntax-ns#"
	 xmlns="http://www.w3.org/2000/svg" xmlns:xlink="http://www.w3.org/1999/xlink" x="0px" y="0px" viewBox="0 0 500 500"
	 style="enable-background:new 0 0 500 500;" xml:space="preserve">
<style type="text/css">
	.st0{fill:#636466;}
	.st1{fill:#A41E11;}
	.st2{fill:#D82C20;}
	.st3{fill:#FFFFFF;}
	.st4{fill:#7A0C00;}
	.st5{fill:#AD2115;}
</style>
<g transform="translate(-166.32586,-222.11295)">
	<path class="st0" d="M439.6,440.3c0,3.6-3,6.8-6.9,6.8c-3,0-5.6,0.8-7.8,2.5c-2.5,1.6-4.4,3.7-5.9,6.2c-3.1,4.1-4.7,9-5.3,10.9
		v24.6c0,3.7-3.2,6.9-7.1,6.9c-3.7,0-6.8-3.1-6.8-6.9v-50.9c0-3.7,3.1-6.7,6.8-6.7c3.9,0,7.1,3,7.1,6.7v0.9c0.8-0.9,1.8-1.9,2.7-2.6
		c4.3-2.8,9.8-5.2,16.3-5C436.7,433.6,439.6,436.5,439.6,440.3L439.6,440.3z"/>
	<path class="st0" d="M435.9,465.7c0.1-17.6,13.8-32.3,31.5-32.3c16.8,0,30.1,12.5,31.1,30v0.6c0,0.3,0,0.9-0.1,1.2
		c-0.4,3.1-3.1,5.2-6.7,5.2h-41.1c0.6,3,2.1,6.3,4.4,8.5c2.7,3.1,7.9,5.4,12.4,5.8c4.7,0.4,10.2-0.8,13.4-3.2c2.7-2.8,8-2.5,9.7-0.4
		c1.7,1.8,3,5.7,0,8.4c-6.3,5.8-14,8.5-23.1,8.5C449.7,497.9,436,483.3,435.9,465.7L435.9,465.7z M449.9,459.4h36.6
		c-1.3-5.2-7.9-12.8-19.1-13.7C456.4,446.2,451,454.1,449.9,459.4z"/>
	<path class="st0" d="M564.4,491.1c0,3.7-3.1,7-7,7c-3.5,0-6.2-2.5-6.8-5.6c-4.9,3.4-11.1,5.6-17.6,5.6c-17.4,0-31.4-14.7-31.4-32.2
		c0-17.7,14-32.4,31.4-32.4c6.3,0,12.5,2.1,17.3,5.4v-24.3c0-3.7,3.1-7,7.1-7c3.9,0,7,3.2,7,7v51.2v0.1L564.4,491.1L564.4,491.1z
		 M533,447.5c-4.7,0-8.9,1.9-12.1,5.3c-3.2,3.2-5.2,7.9-5.2,13.1c0,4.9,1.9,9.6,5.2,12.8c3.2,3.4,7.5,5.3,12.1,5.3
		c4.8,0,8.9-1.9,12.1-5.3c3.2-3.2,5.2-7.9,5.2-12.8c0-5.2-1.9-9.8-5.2-13.1C541.9,449.4,537.7,447.5,533,447.5z"/>
	<path class="st0" d="M589,417.3c0,3.9-3,7.1-7,7.1c-3.9,0-7-3.2-7-7.1v-2.7c0-3.9,3.1-7,7-7c4,0,7,3.1,7,7V417.3L589,417.3z
		 M589,440.7v50.4c0,3.9-3,7-7,7c-3.9,0-7-3.1-7-7v-50.4c0-4.1,3.1-7.1,7-7.1C586,433.6,589,436.5,589,440.7z"/>
	<path class="st0" d="M597.8,479.6c2.3-3.1,6.9-3.5,9.7-1c3.4,2.8,9.2,5.8,14.2,5.7c3.5,0,6.7-1.2,8.8-2.5c1.8-1.6,2.3-2.8,2.3-3.9
		c0-0.6-0.1-0.9-0.4-1.3c-0.1-0.4-0.6-0.9-1.7-1.5c-1.8-1.3-5.7-2.7-10.3-3.6h-0.1c-4-0.8-7.9-1.8-11.2-3.4c-3.5-1.7-6.6-4-8.9-7.5
		c-1.4-2.3-2.2-5.2-2.2-8.1c0-5.9,3.4-11,7.6-14.2c4.5-3.1,10-4.8,15.9-4.8c8.9,0,15.2,4.3,19.4,7.1c3.1,2.1,4,6.3,2.1,9.6
		c-2.1,3.1-6.3,4-9.6,1.8c-4.1-2.7-7.8-4.8-11.9-4.8c-3.2,0-6.1,1-7.8,2.3c-1.7,1.2-2.1,2.3-2.1,3c0,0.5,0,0.6,0.3,1
		c0.1,0.3,0.5,0.8,1.4,1.3c1.7,1.2,5,2.3,9.4,3.1l0.1,0.1h0.1c4.3,0.8,8.3,1.9,12,3.7c3.5,1.6,7,4,9.2,7.6c1.6,2.6,2.5,5.6,2.5,8.5
		c0,6.3-3.5,11.6-8.1,15c-4.7,3.2-10.5,5.2-16.8,5.2c-10.1-0.1-17.8-4.8-23-8.9C595.9,486.8,595.5,482.4,597.8,479.6L597.8,479.6z"
		/>
	<path class="st1" d="M352.8,507.5c-9.1,4.7-56.1,24.1-66.1,29.3c-10,5.2-15.6,5.2-23.5,1.4c-7.9-3.8-58-24-67-28.3
		c-4.5-2.2-6.9-4-6.9-5.7V487c0,0,65.2-14.2,75.7-18c10.5-3.8,14.2-3.9,23.1-0.6c9,3.3,62.5,12.9,71.3,16.2c0,0,0,15.4,0,17
		C359.4,503.3,357.4,505.1,352.8,507.5L352.8,507.5z"/>
	<path class="st2" d="M352.8,490.3c-9.1,4.7-56.1,24.1-66.1,29.3c-10,5.2-15.6,5.2-23.5,1.4c-7.9-3.8-58-24-67-28.3
		c-9-4.3-9.2-7.3-0.3-10.7c8.9-3.5,58.6-23,69.1-26.8c10.5-3.8,14.2-3.9,23.1-0.6c9,3.3,55.7,21.9,64.5,25.1
		C361.5,482.9,361.8,485.6,352.8,490.3L352.8,490.3z"/>
	<path class="st1" d="M352.8,479.5c-9.1,4.7-56.1,24.1-66.1,29.3c-10,5.2-15.6,5.2-23.5,1.4c-7.9-3.8-58-24-67-28.3
		c-4.5-2.2-6.9-4-6.9-5.7V459c0,0,65.2-14.2,75.7-18c10.5-3.8,14.2-3.9,23.1-0.6c9,3.3,62.5,12.9,71.3,16.2c0,0,0,15.4,0,17
		C359.4,475.2,357.4,477.1,352.8,479.5z"/>
	<path class="st2" d="M352.8,462.3c-9.1,4.7-56.1,24.1-66.1,29.3c-10,5.2-15.6,5.2-23.5,1.4c-7.9-3.8-58-24-67-28.3
		c-9-4.3-9.2-7.3-0.3-10.7c8.9-3.5,58.6-23,69.1-26.8c10.5-3.8,14.2-3.9,23.1-0.6c9,3.3,55.7,21.9,64.5,25.1
		C361.5,454.9,361.8,457.6,352.8,462.3L352.8,462.3z"/>
	<path class="st1" d="M352.8,450.4c-9.1,4.7-56.1,24.1-66.1,29.3c-10,5.2-15.6,5.2-23.5,1.4c-7.9-3.8-58-24-67-28.3
		c-4.5-2.2-6.9-4-6.9-5.7v-17.2c0,0,65.2-14.2,75.7-18c10.5-3.8,14.2-3.9,23.1-0.6c9,3.3,62.5,12.9,71.3,16.2c0,0,0,15.4,0,17
		C359.4,446.1,357.4,448,352.8,450.4L352.8,450.4z"/>
	<path class="st2" d="M352.8,433.2c-9.1,4.7-56.1,24.1-66.1,29.3c-10,5.2-15.6,5.2-23.5,1.4c-7.9-3.8-58-24-67-28.3
		c-9-4.3-9.2-7.3-0.3-10.7c8.9-3.5,58.6-23,69.1-26.8c10.5-3.8,14.2-3.9,23.1-0.6c9,3.3,55.7,21.9,64.5,25.1
		C361.5,425.8,361.8,428.5,352.8,433.2L352.8,433.2z"/>
	<polygon class="st3" points="296.7,416.7 281.9,418.2 278.6,426.1 273.3,417.3 256.3,415.7 269,411.2 265.2,404.1 277.1,408.8 
		288.3,405.1 285.2,412.4 	"/>
	<polygon class="st3" points="277.8,455.2 250.2,443.8 289.7,437.7 	"/>
	<ellipse class="st3" cx="239.6" cy="429.2" rx="21.1" ry="8.2"/>
	<polygon class="st4" points="314.1,418.8 337.4,428.1 314.1,437.3 	"/>
	<polygon class="st5" points="288.3,429 314.1,418.8 314.1,437.3 311.6,438.3 	"/>
</g>
</svg>
