<?xml version="1.0" encoding="utf-8"?>
<!-- Generator: Adobe Illustrator 23.1.0, SVG Export Plug-In . SVG Version: 6.00 Build 0)  -->
<svg version="1.1"
	 id="Layer_1" xmlns:cc="http://creativecommons.org/ns#" xmlns:dc="http://purl.org/dc/elements/1.1/" xmlns:rdf="http://www.w3.org/1999/02/22-rdf-syntax-ns#" xmlns:svg="http://www.w3.org/2000/svg"
	 xmlns="http://www.w3.org/2000/svg" xmlns:xlink="http://www.w3.org/1999/xlink" x="0px" y="0px" viewBox="0 0 300 300"
	 style="enable-background:new 0 0 300 300;" xml:space="preserve">
<path id="path3" d="M258.5,148.3l-9.2-5.7c-0.1-0.9-0.2-1.8-0.2-2.7l7.9-7.3c0.8-0.7,1.1-1.9,1-2.9c-0.2-1.1-1-2-2-2.4l-10.1-3.7
	c-0.2-0.9-0.5-1.7-0.8-2.6l6.3-8.7c0.7-0.9,0.7-2,0.3-3c-0.4-1-1.3-1.7-2.4-1.9l-10.6-1.7c-0.4-0.8-0.8-1.6-1.3-2.4l4.5-9.8
	c0.5-1,0.3-2.1-0.2-3.1c-0.6-0.9-1.6-1.5-2.8-1.4l-10.7,0.4c-0.6-0.7-1.1-1.4-1.7-2l2.4-10.5c0.2-1.1-0.1-2.2-0.8-2.9
	c-0.7-0.7-1.9-1.1-2.9-0.8l-10.5,2.4c-0.7-0.6-1.4-1.1-2-1.7l0.4-10.7c0.1-1.1-0.5-2.1-1.4-2.8c-0.9-0.6-2-0.7-3.1-0.2l-9.8,4.5
	c-0.8-0.4-1.5-0.9-2.4-1.3l-1.7-10.6c-0.2-1.1-0.9-2-1.9-2.4c-1-0.4-2.2-0.2-3,0.3l-8.7,6.3c-0.9-0.2-1.7-0.6-2.6-0.8l-3.9-10.1
	c-0.4-1.1-1.3-1.8-2.4-2c-1.1-0.2-2.2,0.2-2.9,1L162,53c-0.9-0.1-1.8-0.2-2.7-0.2l-5.7-9.2c-0.6-0.9-1.6-1.5-2.7-1.5
	s-2.1,0.6-2.7,1.5l-5.7,9.2c-0.9,0.1-1.8,0.2-2.7,0.2l-7.3-7.9c-0.7-0.8-1.9-1.1-2.9-1c-1.1,0.2-2,1-2.4,2l-3.7,10.1
	c-0.9,0.2-1.7,0.5-2.6,0.8l-8.7-6.3c-0.9-0.7-2-0.8-3-0.3c-1,0.4-1.7,1.3-1.9,2.4l-1.7,10.6c-0.8,0.4-1.6,0.8-2.4,1.3l-9.8-4.5
	c-1-0.5-2.1-0.3-3.1,0.2c-0.9,0.6-1.5,1.6-1.4,2.8L89.4,74c-0.7,0.6-1.4,1.1-2,1.7l-10.5-2.4c-1.1-0.2-2.2,0.1-2.9,0.8
	c-0.8,0.8-1.1,1.9-0.8,2.9l2.4,10.5c-0.6,0.7-1.1,1.4-1.7,2l-10.7-0.4c-1.1,0-2.1,0.5-2.8,1.4c-0.6,0.9-0.7,2-0.2,3.1l4.5,9.8
	c-0.4,0.8-0.9,1.5-1.3,2.4l-10.6,1.7c-1.1,0.2-2,0.9-2.4,1.9c-0.4,1-0.2,2.2,0.3,3l6.3,8.7c-0.2,0.9-0.6,1.7-0.8,2.6L46,127.4
	c-1.1,0.4-1.8,1.3-2,2.4c-0.2,1.1,0.2,2.2,1,2.9l7.9,7.3c-0.1,0.9-0.2,1.8-0.2,2.7l-9.2,5.7c-0.9,0.6-1.5,1.5-1.5,2.7
	c0,1.1,0.6,2.1,1.5,2.7l9.2,5.7c0.1,0.9,0.2,1.8,0.2,2.7l-7.9,7.3c-0.8,0.7-1.1,1.9-1,2.9c0.2,1.1,1,2,2,2.4l10.1,3.7
	c0.2,0.9,0.5,1.7,0.8,2.6l-6.3,8.7c-0.7,0.9-0.8,2-0.3,3c0.4,1,1.3,1.7,2.4,1.9l10.6,1.7c0.4,0.8,0.8,1.6,1.3,2.4l-4.5,9.8
	c-0.5,1-0.3,2.1,0.2,3.1c0.6,0.9,1.6,1.5,2.8,1.4l10.7-0.4c0.6,0.7,1.1,1.4,1.7,2l-2.4,10.5c-0.2,1.1,0.1,2.2,0.8,2.9
	c0.7,0.8,1.9,1.1,2.9,0.8l10.5-2.4c0.7,0.6,1.4,1.1,2,1.7L89,238.9c-0.1,1.1,0.5,2.1,1.4,2.8c0.9,0.6,2,0.7,3.1,0.2l9.8-4.5
	c0.8,0.4,1.5,0.9,2.4,1.3l1.7,10.6c0.2,1.1,0.9,2,1.9,2.4c1,0.4,2.2,0.2,3-0.3l8.7-6.3c0.9,0.2,1.7,0.6,2.6,0.8l3.7,10.1
	c0.4,1.1,1.3,1.8,2.4,2c1.1,0.2,2.2-0.2,2.9-1l7.3-7.9c0.9,0.1,1.8,0.2,2.7,0.2l5.7,9.2c0.6,0.9,1.5,1.5,2.7,1.5
	c1.1,0,2.1-0.6,2.7-1.5l5.7-9.2c0.9-0.1,1.8-0.2,2.7-0.2l7.3,7.9c0.7,0.8,1.9,1.1,2.9,1c1.1-0.2,2-1,2.4-2l3.7-10.1
	c0.9-0.2,1.7-0.5,2.6-0.8l8.7,6.3c0.9,0.7,2,0.7,3,0.3c1-0.4,1.7-1.3,1.9-2.4l1.7-10.6c0.8-0.4,1.6-0.8,2.4-1.3l9.8,4.5
	c1,0.5,2.1,0.3,3.1-0.2c0.9-0.6,1.5-1.6,1.4-2.8l-0.4-10.7c0.7-0.6,1.4-1.1,2-1.7l10.5,2.4c1.1,0.2,2.2-0.1,2.9-0.8
	c0.8-0.8,1.1-1.9,0.8-2.9l-2.4-10.5c0.6-0.7,1.1-1.4,1.7-2l10.7,0.4c1.1,0.1,2.1-0.5,2.8-1.4c0.6-0.9,0.7-2,0.2-3.1l-4.5-9.8
	c0.4-0.8,0.9-1.5,1.3-2.4l10.6-1.7c1.1-0.2,2-0.9,2.4-1.9c0.4-1,0.3-2.2-0.3-3l-6.3-8.7c0.2-0.9,0.6-1.7,0.8-2.6l10.2-3.9
	c1.1-0.4,1.8-1.3,2-2.4c0.2-1.1-0.2-2.2-1-2.9L249,162c0.1-0.9,0.2-1.8,0.2-2.7l9.2-5.7c0.9-0.6,1.5-1.5,1.5-2.7
	C260,150,259.4,148.9,258.5,148.3L258.5,148.3z M197.2,224.3c-3.5-0.7-5.7-4.2-5-7.7s4.2-5.7,7.6-5c3.5,0.7,5.7,4.2,5,7.7
	S200.7,225,197.2,224.3z M194.1,203.2c-3.2-0.7-6.3,1.4-7,4.6l-3.3,15.1c-10,4.6-21.1,7.1-32.9,7.1c-12,0-23.3-2.7-33.6-7.4
	l-3.3-15.1c-0.7-3.2-3.8-5.2-7-4.6l-13.4,2.8c-2.5-2.5-4.8-5.3-6.9-8.1H152c0.7,0,1.2-0.2,1.2-0.8v-23c0-0.7-0.5-0.8-1.2-0.8h-19
	v-14.6h20.6c1.9,0,10.1,0.6,12.7,11c0.8,3.3,2.6,13.7,3.8,17c1.2,3.7,6.2,11.2,11.5,11.2H214c0.4,0,0.7-0.1,1.1-0.1
	c-2.3,3.1-4.7,5.9-7.4,8.7L194.1,203.2L194.1,203.2z M104,224c-3.5,0.7-6.9-1.5-7.7-5c-0.7-3.5,1.5-6.9,5-7.7c3.5-0.7,6.9,1.5,7.7,5
	C109.8,219.7,107.5,223.2,104,224z M79.3,123.8c1.5,3.3,0,7.1-3.3,8.5c-3.3,1.5-7.1,0-8.5-3.3c-1.5-3.3,0-7.1,3.3-8.5
	C74,119,77.9,120.4,79.3,123.8z M71.7,141.7l13.9-6.2c3-1.3,4.3-4.8,3-7.8l-2.8-6.5h11.3v50.9H74.3c-2-6.9-3-14.3-3-21.9
	C71.2,147.4,71.4,144.6,71.7,141.7z M132.9,136.8v-15h26.9c1.4,0,9.8,1.6,9.8,7.9c0,5.2-6.4,7.1-11.8,7.1L132.9,136.8L132.9,136.8z
	 M230.7,150.3c0,2-0.1,4-0.2,5.9h-8.2c-0.8,0-1.1,0.6-1.1,1.3v3.7c0,8.9-5,10.7-9.4,11.2c-4.1,0.5-8.8-1.7-9.4-4.3
	c-2.4-13.8-6.5-16.8-13-21.9c8.1-5.1,16.3-12.6,16.3-22.6c0-10.8-7.4-17.6-12.5-21.1c-7.1-4.7-15-5.6-17.1-5.6H91.5
	C103,84.3,118.6,75.3,136.2,72l9.9,10.5c2.3,2.4,6,2.4,8.4,0.2L165.6,72c23.3,4.4,43.2,18.9,54.6,38.9l-7.6,17.2c-1.3,3,0,6.5,3,7.8
	l14.7,6.5C230.5,145,230.7,147.7,230.7,150.3L230.7,150.3z M146.1,63.1c2.6-2.4,6.7-2.4,9.2,0.2c2.4,2.6,2.4,6.7-0.2,9.2
	c-2.6,2.4-6.7,2.4-9.2-0.2C143.4,69.7,143.6,65.5,146.1,63.1z M221.9,124.1c1.5-3.3,5.3-4.7,8.5-3.3c3.3,1.5,4.7,5.3,3.3,8.5
	c-1.5,3.3-5.3,4.7-8.5,3.3C222,131.2,220.5,127.3,221.9,124.1z"/>
</svg>
