<?xml version="1.0" encoding="UTF-8"?>
<svg id="Layer_1" data-name="Layer 1" xmlns="http://www.w3.org/2000/svg" xmlns:svg="http://www.w3.org/2000/svg" xmlns:rdf="http://www.w3.org/1999/02/22-rdf-syntax-ns#" xmlns:dc="http://purl.org/dc/elements/1.1/" xmlns:cc="http://creativecommons.org/ns#" version="1.1" viewBox="0 0 300 300">
  <defs>
    <style>
      .cls-1 {
        fill: #fff;
        stroke-width: 0px;
      }
    </style>
  </defs>
  <path id="path3" class="cls-1" d="M258.5,148.3l-9.2-5.7c-.1-.9-.2-1.8-.2-2.7l7.9-7.3c.8-.7,1.1-1.9,1-2.9-.2-1.1-1-2-2-2.4l-10.1-3.7c-.2-.9-.5-1.7-.8-2.6l6.3-8.7c.7-.9.7-2,.3-3s-1.3-1.7-2.4-1.9l-10.6-1.7c-.4-.8-.8-1.6-1.3-2.4l4.5-9.8c.5-1,.3-2.1-.2-3.1-.6-.9-1.6-1.5-2.8-1.4l-10.7.4c-.6-.7-1.1-1.4-1.7-2l2.4-10.5c.2-1.1-.1-2.2-.8-2.9-.7-.7-1.9-1.1-2.9-.8l-10.5,2.4c-.7-.6-1.4-1.1-2-1.7l.4-10.7c.1-1.1-.5-2.1-1.4-2.8-.9-.6-2-.7-3.1-.2l-9.8,4.5c-.8-.4-1.5-.9-2.4-1.3l-1.7-10.6c-.2-1.1-.9-2-1.9-2.4s-2.2-.2-3,.3l-8.7,6.3c-.9-.2-1.7-.6-2.6-.8l-3.9-10.1c-.4-1.1-1.3-1.8-2.4-2-1.1-.2-2.2.2-2.9,1l-7.3,7.9c-.9,0-1.8-.2-2.7-.2l-5.7-9.2c-.6-.9-1.6-1.5-2.7-1.5s-2.1.6-2.7,1.5l-5.7,9.2c-.9,0-1.8.2-2.7.2l-7.3-7.9c-.7-.8-1.9-1.1-2.9-1-1.1.2-2,1-2.4,2l-3.7,10.1c-.9.2-1.7.5-2.6.8l-8.7-6.3c-.9-.7-2-.8-3-.3-1,.4-1.7,1.3-1.9,2.4l-1.7,10.6c-.8.4-1.6.8-2.4,1.3l-9.8-4.5c-1-.5-2.1-.3-3.1.2-.9.6-1.5,1.6-1.4,2.8l.5,10.8c-.7.6-1.4,1.1-2,1.7l-10.5-2.4c-1.1-.2-2.2,0-2.9.8s-1.1,1.9-.8,2.9l2.4,10.5c-.6.7-1.1,1.4-1.7,2l-10.7-.4c-1.1,0-2.1.5-2.8,1.4-.6.9-.7,2-.2,3.1l4.5,9.8c-.4.8-.9,1.5-1.3,2.4l-10.6,1.7c-1.1.2-2,.9-2.4,1.9s-.2,2.2.3,3l6.3,8.7c-.2.9-.6,1.7-.8,2.6l-10.2,3.7c-1.1.4-1.8,1.3-2,2.4s.2,2.2,1,2.9l7.9,7.3c0,.9-.2,1.8-.2,2.7l-9.2,5.7c-.9.6-1.5,1.5-1.5,2.7s.6,2.1,1.5,2.7l9.2,5.7c0,.9.2,1.8.2,2.7l-7.9,7.3c-.8.7-1.1,1.9-1,2.9.2,1.1,1,2,2,2.4l10.1,3.7c.2.9.5,1.7.8,2.6l-6.3,8.7c-.7.9-.8,2-.3,3,.4,1,1.3,1.7,2.4,1.9l10.6,1.7c.4.8.8,1.6,1.3,2.4l-4.5,9.8c-.5,1-.3,2.1.2,3.1.6.9,1.6,1.5,2.8,1.4l10.7-.4c.6.7,1.1,1.4,1.7,2l-2.4,10.5c-.2,1.1,0,2.2.8,2.9.7.8,1.9,1.1,2.9.8l10.5-2.4c.7.6,1.4,1.1,2,1.7l-.3,10.7c0,1.1.5,2.1,1.4,2.8.9.6,2,.7,3.1.2l9.8-4.5c.8.4,1.5.9,2.4,1.3l1.7,10.6c.2,1.1.9,2,1.9,2.4s2.2.2,3-.3l8.7-6.3c.9.2,1.7.6,2.6.8l3.7,10.1c.4,1.1,1.3,1.8,2.4,2s2.2-.2,2.9-1l7.3-7.9c.9.1,1.8.2,2.7.2l5.7,9.2c.6.9,1.5,1.5,2.7,1.5s2.1-.6,2.7-1.5l5.7-9.2c.9-.1,1.8-.2,2.7-.2l7.3,7.9c.7.8,1.9,1.1,2.9,1,1.1-.2,2-1,2.4-2l3.7-10.1c.9-.2,1.7-.5,2.6-.8l8.7,6.3c.9.7,2,.7,3,.3s1.7-1.3,1.9-2.4l1.7-10.6c.8-.4,1.6-.8,2.4-1.3l9.8,4.5c1,.5,2.1.3,3.1-.2.9-.6,1.5-1.6,1.4-2.8l-.4-10.7c.7-.6,1.4-1.1,2-1.7l10.5,2.4c1.1.2,2.2-.1,2.9-.8s1.1-1.9.8-2.9l-2.4-10.5c.6-.7,1.1-1.4,1.7-2l10.7.4c1.1.1,2.1-.5,2.8-1.4.6-.9.7-2,.2-3.1l-4.5-9.8c.4-.8.9-1.5,1.3-2.4l10.6-1.7c1.1-.2,2-.9,2.4-1.9s.3-2.2-.3-3l-6.3-8.7c.2-.9.6-1.7.8-2.6l10.2-3.9c1.1-.4,1.8-1.3,2-2.4.2-1.1-.2-2.2-1-2.9l-8-7.3c.1-.9.2-1.8.2-2.7l9.2-5.7c.9-.6,1.5-1.5,1.5-2.7.1-.9-.5-2-1.4-2.6h0ZM197.2,224.3c-3.5-.7-5.7-4.2-5-7.7s4.2-5.7,7.6-5c3.5.7,5.7,4.2,5,7.7s-4.1,5.7-7.6,5ZM194.1,203.2c-3.2-.7-6.3,1.4-7,4.6l-3.3,15.1c-10,4.6-21.1,7.1-32.9,7.1s-23.3-2.7-33.6-7.4l-3.3-15.1c-.7-3.2-3.8-5.2-7-4.6l-13.4,2.8c-2.5-2.5-4.8-5.3-6.9-8.1h65.3c.7,0,1.2-.2,1.2-.8v-23c0-.7-.5-.8-1.2-.8h-19v-14.6h20.6c1.9,0,10.1.6,12.7,11,.8,3.3,2.6,13.7,3.8,17,1.2,3.7,6.2,11.2,11.5,11.2h32.4c.4,0,.7-.1,1.1-.1-2.3,3.1-4.7,5.9-7.4,8.7l-13.6-3h0ZM104,224c-3.5.7-6.9-1.5-7.7-5-.7-3.5,1.5-6.9,5-7.7,3.5-.7,6.9,1.5,7.7,5,.8,3.4-1.5,6.9-5,7.7ZM79.3,123.8c1.5,3.3,0,7.1-3.3,8.5-3.3,1.5-7.1,0-8.5-3.3-1.5-3.3,0-7.1,3.3-8.5,3.2-1.5,7.1,0,8.5,3.3ZM71.7,141.7l13.9-6.2c3-1.3,4.3-4.8,3-7.8l-2.8-6.5h11.3v50.9h-22.8c-2-6.9-3-14.3-3-21.9-.1-2.8,0-5.6.4-8.5ZM132.9,136.8v-15h26.9c1.4,0,9.8,1.6,9.8,7.9s-6.4,7.1-11.8,7.1h-24.9ZM230.7,150.3c0,2-.1,4-.2,5.9h-8.2c-.8,0-1.1.6-1.1,1.3v3.7c0,8.9-5,10.7-9.4,11.2-4.1.5-8.8-1.7-9.4-4.3-2.4-13.8-6.5-16.8-13-21.9,8.1-5.1,16.3-12.6,16.3-22.6s-7.4-17.6-12.5-21.1c-7.1-4.7-15-5.6-17.1-5.6h-84.6c11.5-12.6,27.1-21.6,44.7-24.9l9.9,10.5c2.3,2.4,6,2.4,8.4.2l11.1-10.7c23.3,4.4,43.2,18.9,54.6,38.9l-7.6,17.2c-1.3,3,0,6.5,3,7.8l14.7,6.5c.2,2.6.4,5.3.4,7.9h0ZM146.1,63.1c2.6-2.4,6.7-2.4,9.2.2,2.4,2.6,2.4,6.7-.2,9.2-2.6,2.4-6.7,2.4-9.2-.2-2.5-2.6-2.3-6.8.2-9.2ZM221.9,124.1c1.5-3.3,5.3-4.7,8.5-3.3,3.3,1.5,4.7,5.3,3.3,8.5-1.5,3.3-5.3,4.7-8.5,3.3s-4.7-5.3-3.3-8.5Z"/>
</svg>