<?xml version="1.0" encoding="utf-8"?>
<!-- Generator: Adobe Illustrator 23.1.0, SVG Export Plug-In . SVG Version: 6.00 Build 0)  -->
<svg version="1.1"
	 id="svg2985" xmlns:cc="http://creativecommons.org/ns#" xmlns:dc="http://purl.org/dc/elements/1.1/" xmlns:rdf="http://www.w3.org/1999/02/22-rdf-syntax-ns#" xmlns:svg="http://www.w3.org/2000/svg"
	 xmlns="http://www.w3.org/2000/svg" xmlns:xlink="http://www.w3.org/1999/xlink" x="0px" y="0px" viewBox="0 0 300 300"
	 style="enable-background:new 0 0 300 300;" xml:space="preserve">
<style type="text/css">
	.st0{fill:#003B57;}
	.st1{fill:#0F80CC;}
	.st2{fill:url(#gradient-background_1_);}
</style>
<title  id="title2998">SQLite</title>
<path id="SQLite" class="st0" d="M115.5,133.6c-3.9,0-7,1.1-9.4,3.4c-2.4,2.3-3.6,5.3-3.6,9c0,1.9,0.3,3.7,0.9,5.2
	c0.6,1.6,1.5,3.1,2.8,4.4c1.3,1.3,3.8,3.2,7.5,5.5c4.6,2.8,7.6,5.1,9,6.9c1.4,1.8,2.2,3.6,2.2,5.6c0,2.6-0.9,4.7-2.6,6.2
	c-1.8,1.6-4.1,2.3-7,2.3c-3.1,0-5.8-1.1-8.1-3.2c-2.3-2.2-3.5-5-3.5-8.6h-1.4v13h1.4c0.4-1.2,1-1.9,1.8-1.9c0.4,0,1.3,0.3,2.7,0.8
	c3.4,1.2,6.2,1.8,8.3,1.8c3.8,0,7-1.3,9.6-4c2.7-2.7,4-5.9,4-9.7c0-2.9-0.9-5.5-2.6-7.8c-1.7-2.3-5.1-4.9-10.2-7.9
	c-4.4-2.6-7.2-4.8-8.5-6.4c-1.3-1.7-2-3.5-2-5.5c0-2.2,0.8-3.9,2.4-5.2c1.6-1.3,3.7-2,6.3-2c2.9,0,5.4,0.9,7.3,2.6
	c1.9,1.7,3,4.2,3.4,7.3h1.4v-11.2h-1.3c-0.2,0.6-0.3,0.9-0.5,1.1c-0.1,0.2-0.4,0.3-0.8,0.3c-0.5,0-1.3-0.2-2.5-0.6
	C119.9,134.1,117.6,133.6,115.5,133.6z M162.2,133.6c-4.7,0-9,1.1-12.9,3.3c-3.9,2.2-6.9,5.3-9.2,9.2c-2.3,3.9-3.4,8.1-3.4,12.6
	c0,6,2,11.3,5.9,16c3.9,4.7,8.7,7.6,14.2,8.7c1.3,0.7,3,2.3,5.4,5.1c2.6,3.1,4.9,5.3,6.7,6.6c1.8,1.3,3.8,2.3,5.9,2.9
	c2.1,0.6,4.4,1,6.8,1c3,0,5.6-0.5,8-1.6l-0.5-1.3c-1.4,0.5-2.8,0.7-4.3,0.7c-2.1,0-4.2-0.7-6.3-2.1c-2.1-1.4-4.7-4-7.9-7.9
	c-1.5-1.9-2.5-3-3.1-3.5c6-1.2,10.9-4.1,14.8-8.7c3.8-4.7,5.8-10,5.8-15.9c0-7.1-2.5-13-7.5-17.8
	C175.7,136.1,169.5,133.6,162.2,133.6z M191.4,133.6l0.1,1.5c3.1,0,4.9,0.9,5.3,2.8c0.1,0.7,0.2,1.9,0.2,3.7l0,33.9
	c0,2.5-0.4,4.1-1.1,4.8c-0.7,0.7-1.9,1.1-3.6,1.3l-0.1,1.5h31.3l0.8-7.7H223c-0.4,2.1-1.3,3.6-2.8,4.4c-1.5,0.9-4.1,1.3-8,1.3h-3
	c-3.4,0-5.4-1.2-5.9-3.7c-0.1-0.5-0.1-1-0.2-1.6l0.1-34.2c0-2.5,0.3-4.2,1-5c0.7-0.8,1.9-1.3,3.6-1.4l-0.1-1.5L191.4,133.6
	L191.4,133.6z M162.7,135.5c5.3,0,9.7,2.1,13,6.3c3.4,4.2,5,10,5,17.4c0,7-1.7,12.5-5.1,16.7c-3.4,4.2-7.9,6.3-13.5,6.3
	c-5.4,0-9.7-2.2-13.1-6.5c-3.3-4.3-5-9.9-5-16.8c0-7.1,1.7-12.8,5-17C152.6,137.6,157.1,135.5,162.7,135.5z M234.8,142.8
	c-0.8,0-1.3,0.3-1.8,0.8c-0.4,0.5-0.6,1.1-0.4,1.9c0.2,0.7,0.6,1.4,1.2,1.9c0.7,0.5,1.4,0.8,2.1,0.8c0.7,0,1.3-0.3,1.7-0.8
	c0.4-0.5,0.5-1.2,0.4-1.9c-0.2-0.8-0.6-1.4-1.2-1.9C236.2,143,235.5,142.8,234.8,142.8z M255.4,148c-1.3,5-4.1,7.7-8.4,8.1l0.1,1.4
	h5l-0.1,16.9c0,2.9,0.1,4.8,0.3,5.8c0.5,2.3,2,3.5,4.6,3.5c3.7,0,7.6-2.3,11.7-6.8l-1.2-1.1c-2.9,3-5.5,4.5-7.8,4.5
	c-1.4,0-2.3-0.8-2.6-2.4c-0.1-0.4-0.1-0.8-0.1-1.4l0.1-19.2h7.7l-0.1-2.3h-7.6V148H255.4L255.4,148z M285.2,154.3
	c-4.3,0-7.8,2.1-10.5,6.3c-2.7,4.2-3.6,8.8-2.5,13.9c0.6,3,1.9,5.3,3.8,6.9c1.9,1.6,4.3,2.4,7.2,2.4c2.7,0,6.5-0.7,8-2.1
	c1.6-1.4,3-3.6,4.4-6.7l-1.1-1.1c-2.2,4-6.5,5.9-9.8,5.9c-4.5,0-7.3-2.5-8.3-7.4c-0.1-0.6-0.2-1.3-0.3-2c5.4-0.8,9.4-2.3,12.1-4.5
	c2.7-2.2,5.5-4.5,5-6.9c-0.3-1.4-1.1-2.6-2.2-3.4C290,154.8,286.9,154.3,285.2,154.3z M238.1,154.5l-9.3,2.1v1.7l3.2-0.4
	c1.6,0,2.5,0.7,2.8,2.1c0.1,0.5,0.2,1.1,0.2,2l-0.1,15.2c0,2.1-0.3,3.3-0.7,3.7c-0.5,0.4-1.7,0.6-3.7,0.6l-0.1,1.4h14.7l0-1.4
	c-2,0-3.4-0.2-4-0.5c-0.6-0.3-1-0.9-1.2-1.8c-0.1-0.6-0.2-1.7-0.2-3.2l0.1-21.4H238.1L238.1,154.5z M282.9,157.3
	c0.9,0,1.8,0.3,2.6,1c0.9,0.7,1.4,1.4,1.6,2.3c0.8,4-2.7,6.8-10.8,8.4c-0.2-2.9,0.3-5.6,1.6-8C279.2,158.6,280.8,157.3,282.9,157.3z
	"/>
<path id="solid-background" class="st1" d="M94.7,75.7H14.7C9.4,75.7,5,80,5,85.4v88.1c0,5.4,4.4,9.7,9.7,9.7h52.6
	C66.8,157.1,75.7,106.3,94.7,75.7z"/>
<linearGradient id="gradient-background_1_" gradientUnits="userSpaceOnUse" x1="-739.5209" y1="704.8829" x2="-732.393" y2="704.8829" gradientTransform="matrix(-5.025000e-07 11.4863 11.4863 5.025000e-07 -8046.7183 8574.6934)">
	<stop  offset="0" style="stop-color:#97D9F6"/>
	<stop  offset="0.9202" style="stop-color:#0F80CC"/>
	<stop  offset="1" style="stop-color:#0F80CC"/>
</linearGradient>
<path id="gradient-background" class="st2" d="M91.8,78.5h-77c-3.8,0-6.9,3.1-6.9,6.9v81.7c17.4-6.7,43.6-12.5,61.7-12.2
	C73.2,135.9,83.9,98.6,91.8,78.5z"/>
<path id="feather" class="st0" d="M113.3,72.8c-5.5-4.9-12.1-2.9-18.6,2.9c-1,0.9-1.9,1.8-2.9,2.8C80.6,90.4,70.2,112.4,67,129.1
	c1.3,2.5,2.2,5.8,2.9,8.3c0.2,0.6,0.3,1.2,0.4,1.7c0.3,1.2,0.4,2,0.4,2s-0.1-0.4-0.5-1.6c-0.1-0.2-0.2-0.5-0.3-0.8
	c0-0.1-0.1-0.3-0.2-0.4c-0.7-1.7-2.7-5.3-3.6-6.8c-0.8,2.2-1.4,4.3-2,6.2c2.6,4.7,4.1,12.7,4.1,12.7s-0.1-0.5-0.8-2.3
	c-0.6-1.6-3.4-6.6-4.1-7.8c-1.2,4.3-1.6,7.1-1.2,7.8c0.8,1.4,1.6,3.7,2.2,6.3c1.5,5.8,2.6,12.9,2.6,12.9s0,0.5,0.1,1.2
	c-0.2,4.9-0.1,10,0.3,14.6c0.5,6.1,1.4,11.3,2.7,14.1l0.8-0.4c-1.8-5.5-2.5-12.7-2.2-21.1c0.5-12.7,3.4-28.1,8.8-44.1
	c9.1-24.2,21.8-43.5,33.4-52.8C100.4,88.6,86,119.5,81.7,131c-4.8,12.8-8.2,24.9-10.3,36.4c3.5-10.8,15-15.5,15-15.5
	s5.6-6.9,12.2-16.8c-3.9,0.9-10.4,2.4-12.5,3.3c-3.2,1.3-4,1.8-4,1.8s10.3-6.3,19.2-9.1C113.4,111.9,126.7,84.7,113.3,72.8"/>
</svg>
