<svg xmlns="http://www.w3.org/2000/svg" xmlns:xlink="http://www.w3.org/1999/xlink" viewBox="0 0 305.36 262.47"><defs><style>.cls-1{fill:#fc0;}.cls-2,.cls-6,.cls-7{fill:none;}.cls-2,.cls-6{stroke-miterlimit:10;}.cls-2{stroke-width:14px;stroke:url(#Unbenannter_Verlauf_12);}.cls-3,.cls-4,.cls-5{isolation:isolate;}.cls-3{fill:url(#Unbenannter_Verlauf_5);}.cls-4{fill:url(#Unbenannter_Verlauf_5-2);}.cls-5{fill:url(#Unbenannter_Verlauf_5-3);}.cls-6{stroke:#fc0;stroke-width:3px;}.cls-8{fill:#fff;}</style><linearGradient id="Unbenannter_Verlauf_12" x1="64.23" y1="138.48" x2="250.81" y2="138.48" gradientUnits="userSpaceOnUse"><stop offset="0" stop-color="#981869"/><stop offset="0.19" stop-color="#771c65"/><stop offset="0.4" stop-color="#591f62"/><stop offset="0.61" stop-color="#432260"/><stop offset="0.81" stop-color="#36235e"/><stop offset="1" stop-color="#32245e"/></linearGradient><linearGradient id="Unbenannter_Verlauf_5" x1="179.5" y1="62.91" x2="302.05" y2="62.91" xlink:href="#Unbenannter_Verlauf_12"/><linearGradient id="Unbenannter_Verlauf_5-2" x1="12.01" y1="62.91" x2="134.57" y2="62.91" xlink:href="#Unbenannter_Verlauf_12"/><linearGradient id="Unbenannter_Verlauf_5-3" x1="95.75" y1="200.1" x2="218.31" y2="200.1" xlink:href="#Unbenannter_Verlauf_12"/></defs><g id="Lock"><path class="cls-1" d="M158,221,63.36,57.19h189.2ZM89.34,72.19,158,191,226.58,72.19Z"/><polygon class="cls-2" points="157.52 205.28 238.69 64.69 76.35 64.69 157.52 205.28"/><circle class="cls-3" cx="240.77" cy="62.91" r="61.28"/><path class="cls-1" d="M234.24,71.94a2.54,2.54,0,0,1-1.31-.37,2.48,2.48,0,0,1-1-3l7.12-18h-9.21l-1.17-.08-3.94,4.1a2.47,2.47,0,0,1-2.9.54,2.53,2.53,0,0,1-1.45-2.59l.72-6c-.15-.17-.3-.35-.44-.54a1.29,1.29,0,0,1-.22-.71V45a1.26,1.26,0,0,1,.22-.7c.15-.21.31-.42.48-.62l-.74-6.19a2.52,2.52,0,0,1,4.31-2.05l4.19,4.33c.35,0,.7-.05,1.05-.05h9.76L231.92,20a2.48,2.48,0,0,1,4.1-2.62s14.9,16.11,20.62,22.31H261c3.33,0,8.95,1.15,8.95,5.47s-5.62,5.47-8.94,5.47h-6l-19,20.5A2.39,2.39,0,0,1,234.24,71.94ZM230,48.05h10.87a1.23,1.23,0,0,1,1.23,1.24,1.33,1.33,0,0,1-.08.45l-7.78,19.75,19.35-21a1.23,1.23,0,0,1,.91-.39H261s6.45-.15,6.45-3S261,42.17,261,42.17H256.1a1.2,1.2,0,0,1-.91-.39c-5.41-5.87-21-22.67-21-22.67l8.44,21.42a1.27,1.27,0,0,1-.12,1.15,1.24,1.24,0,0,1-1,.54l-11.58,0a10.11,10.11,0,0,0-1.45.11h0a1.23,1.23,0,0,1-1.36-.81l-4.2-4.34a.07.07,0,0,0-.09,0l.8,6.81a1.27,1.27,0,0,1-.34,1l-.13.13.11.12h0a1.21,1.21,0,0,1,.28,1.19l-.76,6.31c0,.06.07.07.08.07l4.41-4.55a1.22,1.22,0,0,1,1-.37Z"/><circle class="cls-4" cx="73.29" cy="62.91" r="61.28"/><path class="cls-1" d="M69.28,61.78H60.6a1.23,1.23,0,0,1-.85-2.13l6.44-6.14H61A1.24,1.24,0,0,1,61,51h8.28a1.25,1.25,0,0,1,1.24,1.24,1.23,1.23,0,0,1-.39.9l-6.44,6.14h5.57a1.24,1.24,0,1,1,0,2.47Z"/><path class="cls-1" d="M88.49,43.8h-16a1.23,1.23,0,0,1-.85-2.13L85.39,28.56H73.25a1.24,1.24,0,1,1,0-2.47H88.49a1.24,1.24,0,0,1,.85,2.13L75.58,41.33H88.49a1.24,1.24,0,1,1,0,2.47Z"/><circle class="cls-5" cx="157.03" cy="200.1" r="61.28"/><path class="cls-1" d="M157.46,191.79A8.12,8.12,0,1,1,165,180.64h0a8.21,8.21,0,0,1,0,6.2,8.1,8.1,0,0,1-7.49,4.95Zm-.1-13.75a5.61,5.61,0,0,0-5.18,7.77,5.78,5.78,0,0,0,7.44,3.1,5.39,5.39,0,0,0,3-3,5.68,5.68,0,0,0-3.07-7.43,5.58,5.58,0,0,0-2.21-.43Z"/><path class="cls-1" d="M153.6,199.29a.54.54,0,0,1-.18,0h-.13a1.92,1.92,0,0,1-.78-.14l-.62-.24a13.39,13.39,0,0,1-2-.92l-.07,0a2.56,2.56,0,0,1-.91-2.36,7.31,7.31,0,0,1,.39-1.2,5.7,5.7,0,0,0,.25-.8,4.62,4.62,0,0,0-.52-.46,5.21,5.21,0,0,1-1.1-1.1c-.25-.37-.26-.39-1.12-.11l-.28.09c-2.17.72-2.94.62-3.85-1.67l-.2-.48c-.09-.21-.18-.4-.25-.57a2.53,2.53,0,0,1-.3-2.06,3.51,3.51,0,0,1,2.13-1.69c.95-.41.91-.62.76-1.19a3.39,3.39,0,0,1,0-1.76l0-.18a2.91,2.91,0,0,0-.42-.25l-.4-.21c-2.21-1.14-2.66-1.78-1.65-4.13l.27-.62c.86-2.07,1.53-2.61,3.83-1.76,1.24.45,1.32.29,1.59-.26a2,2,0,0,1,1-.94c.38-.2.58-.33.22-1.24A4.47,4.47,0,0,1,149,172a2.11,2.11,0,0,1,1.28-2.7l.13,0,2.07-.86a2.06,2.06,0,0,1,2.77.93l0,.06a10,10,0,0,1,.46.93,4.28,4.28,0,0,0,.47.9c.2,0,.41,0,.62,0a5.38,5.38,0,0,1,1.5,0c.54.11.62.12.95-.62,1.24-2.58,2.07-2.68,4.48-1.68l.56.22c2.23.88,2.32,1.86,1.45,4.11-.29.8-.2.85.24,1.15a6.28,6.28,0,0,1,1.45,1.46c.34-.12.67-.21,1-.31s.5-.14.76-.23a2.21,2.21,0,0,1,2.9,1.16l.06.18v.08c.15.4.32.81.51,1.24.1.23.21.47.31.71a2.25,2.25,0,0,1,0,1.9,2.08,2.08,0,0,1-1.32,1.07,1.91,1.91,0,0,0-1.49,2.36c.1,1.37.24,1.35.77,1.51l.1,0a4.19,4.19,0,0,1,.47.24l.22.12a.15.15,0,0,1,.09,0,2.12,2.12,0,0,1,1.22,2.75,2.31,2.31,0,0,1-.18.35,11.42,11.42,0,0,0-.71,1.73,2.19,2.19,0,0,1-2.68,1.56l-.25-.08c-.62-.2-1.19-.39-1.78-.53a26.37,26.37,0,0,0-1.9,1.91,7.43,7.43,0,0,0,.5,1.6v.08a2.07,2.07,0,0,1-1.07,2.74l-.17.07-2.11.88a2.12,2.12,0,0,1-2.83-1l-.05-.09a12.17,12.17,0,0,0-.88-1.63h-2.67c-.31.62-.62,1.14-1,1.73a4.52,4.52,0,0,1-.55.75l-.1.11A1.23,1.23,0,0,1,153.6,199.29ZM151.37,196a13.92,13.92,0,0,0,1.43.62l.28.12v0c.38-.62.67-1.15,1-1.75a1.91,1.91,0,0,1,2-1.2h.07c.55.05,1.09,0,1.66,0H159a2.51,2.51,0,0,1,1.75.83l.08.1a13.13,13.13,0,0,1,1.06,1.86l1.75-.72a9.6,9.6,0,0,1-.58-2v-.1a2.5,2.5,0,0,1,.67-1.86c.81-.87,1.48-1.54,2.14-2.15a2.41,2.41,0,0,1,1.86-.56h.1a19.29,19.29,0,0,1,2,.62,14.19,14.19,0,0,1,.73-1.76l-.26-.13-.18-.1A3.57,3.57,0,0,1,167.7,184a4.27,4.27,0,0,1,2.88-4.75l-.19-.45c-.18-.41-.36-.83-.52-1.27l-.78.24a10.17,10.17,0,0,0-1,.31l-.11,0a2,2,0,0,1-2.42-.76l-.07-.1a5.18,5.18,0,0,0-.9-1,3.09,3.09,0,0,1-1.21-4.07q.21-.53.3-.81l-.33-.13-.62-.24c-.31-.14-.65-.28-.89-.36-.13.23-.3.58-.41.81a3,3,0,0,1-3.66,2,3.88,3.88,0,0,0-.76,0,3.26,3.26,0,0,1-2.19-.29l-.06,0a4.54,4.54,0,0,1-1.37-2,6,6,0,0,0-.26-.56l-1.76.77a1.71,1.71,0,0,0,.13.38,1.09,1.09,0,0,1,.08.15c1.1,2.65-.34,3.92-1.34,4.45-1.38,2.48-3.72,1.66-4.59,1.33l-.45-.16-.23.53c-.11.26-.2.48-.29.68l-.23.56.73.37.37.2a2.63,2.63,0,0,1,1.66,3.28.94.94,0,0,0,0,.47c.35,1.35.22,3.1-2.18,4.12a4.8,4.8,0,0,0-.62.29.27.27,0,0,0,.07.14c.08.19.19.41.29.66l.2.5c.06.15.13.3.18.44l.62-.19.29-.1a3.06,3.06,0,0,1,3.95,1.08,3.31,3.31,0,0,0,.62.56,3.56,3.56,0,0,1,1.36,1.7,3.74,3.74,0,0,1-.33,2.37,1.86,1.86,0,0,0-.29.7Zm14.13-2.4,0,0"/><path class="cls-1" d="M132.81,184.77a1.24,1.24,0,0,1-1.24-1.24,26,26,0,0,1,22.05-25.83,1.24,1.24,0,1,1,.46,2.43H154a23.55,23.55,0,0,0-20,23.39A1.25,1.25,0,0,1,132.81,184.77Z"/><polygon class="cls-1" points="152.79 154.53 153.61 163.53 157.69 158.62 152.79 154.53"/><path class="cls-1" d="M161.59,209.37a1.24,1.24,0,1,1-.19-2.48,23.52,23.52,0,0,0,20-23.38,1.24,1.24,0,0,1,2.48,0,26,26,0,0,1-22.05,25.83A.69.69,0,0,1,161.59,209.37Z"/><polygon class="cls-1" points="162.6 212.52 161.78 203.53 157.69 208.44 162.6 212.52"/><path class="cls-6" d="M240.77,1.64a61.27,61.27,0,0,0-61,55.55H134.29a61.28,61.28,0,1,0-35.46,61.42l19.58,33.92a61.29,61.29,0,1,0,78.5,1.06l19.81-34.31A61.28,61.28,0,1,0,240.77,1.64ZM184.39,145.27a61.28,61.28,0,0,0-53.26-.71l-19.54-33.83a61.22,61.22,0,0,0,22.28-38.54H180.2a61.24,61.24,0,0,0,23.55,39.55Z"/><rect class="cls-7" width="305.36" height="262.47"/><path class="cls-8" d="M136.65,219.13v1.28l-1.14.22v9.16h-2.13l-4.31-7.18h0v5.67l1.14.22v1.28h-4.42v-1.28l1.14-.22v-7.66l-1.14-.22v-1.28H129l4.31,7.17h0v-5.67l-1.14-.22v-1.28h4.41Z"/><path class="cls-8" d="M142.94,228.79a2.72,2.72,0,0,1-.94.85,2.69,2.69,0,0,1-1.28.3,2.45,2.45,0,0,1-2-.8,3.63,3.63,0,0,1-.71-2.49v-3.28l-.88-.22v-1.29h3v4.8a2.07,2.07,0,0,0,.29,1.24,1,1,0,0,0,.86.38,2.16,2.16,0,0,0,.88-.16,1.43,1.43,0,0,0,.6-.48v-4.27l-.93-.22v-1.29H145v6.43l1,.22v1.28h-2.83Z"/><path class="cls-8" d="M149.91,219.92v1.94h1.39v1.51h-1.39v4a.91.91,0,0,0,.19.66.69.69,0,0,0,.51.2l.39,0,.37-.06.18,1.54a4.41,4.41,0,0,1-1.47.22,2.27,2.27,0,0,1-1.7-.6,2.67,2.67,0,0,1-.6-1.93v-4h-1.17v-1.51h1.17v-1.94Z"/><path class="cls-8" d="M155.18,228.15h2.22l.08-1.06h1.64v2.7h-6.59v-1.26l3.77-5h-1.94l-.08,1h-1.64v-2.71H159v1.23Z"/><path class="cls-8" d="M165.73,228.79a2.63,2.63,0,0,1-.94.85,2.66,2.66,0,0,1-1.28.3,2.46,2.46,0,0,1-2-.8,3.68,3.68,0,0,1-.71-2.49v-3.28l-.87-.22v-1.29h3v4.8a2,2,0,0,0,.29,1.24,1,1,0,0,0,.86.38,2.14,2.14,0,0,0,.87-.16,1.52,1.52,0,0,0,.61-.48v-4.27l-.94-.22v-1.29h3.08v6.43l.95.22v1.28h-2.83Z"/><path class="cls-8" d="M169.43,228.51l1-.22v-4.92l-1.14-.22v-1.29h3.13l.09,1.14a3.06,3.06,0,0,1,1-.95,2.53,2.53,0,0,1,1.29-.33,2.4,2.4,0,0,1,1.88.75,3.49,3.49,0,0,1,.67,2.37v3.45l1,.22v1.28H174.3v-1.28l.92-.22v-3.44a1.6,1.6,0,0,0-.33-1.14,1.29,1.29,0,0,0-1-.33,1.7,1.7,0,0,0-.76.17,1.68,1.68,0,0,0-.57.49v4.25l.87.22v1.28h-4Z"/><path class="cls-8" d="M179.13,225.89a5.14,5.14,0,0,1,.81-3,2.65,2.65,0,0,1,2.29-1.15,2.31,2.31,0,0,1,1.17.29,2.61,2.61,0,0,1,.87.85l.15-1h1.86v7.69a3.33,3.33,0,0,1-1,2.51,3.79,3.79,0,0,1-2.71.93,5.88,5.88,0,0,1-1.27-.16,6.58,6.58,0,0,1-1.25-.45l.4-1.51a5.87,5.87,0,0,0,1,.35,4.28,4.28,0,0,0,1.09.13,1.42,1.42,0,0,0,1.17-.48,2,2,0,0,0,.39-1.32V229a2.44,2.44,0,0,1-.83.68,2.53,2.53,0,0,1-1.09.23,2.7,2.7,0,0,1-2.28-1.07,4.58,4.58,0,0,1-.81-2.82Zm2.14.16a3.13,3.13,0,0,0,.35,1.63,1.21,1.21,0,0,0,1.14.6,1.76,1.76,0,0,0,.83-.18,1.37,1.37,0,0,0,.55-.52v-3.44a1.48,1.48,0,0,0-.55-.56,1.63,1.63,0,0,0-.82-.2,1.19,1.19,0,0,0-1.14.7,3.94,3.94,0,0,0-.36,1.81Z"/><path class="cls-8" d="M37.21,83.53h-1.6l-.28-1.46a2.88,2.88,0,0,0-.82-.31,4.55,4.55,0,0,0-1.13-.13A2.16,2.16,0,0,0,32,82a1.14,1.14,0,0,0-.48,1,1.05,1.05,0,0,0,.5.89,7.11,7.11,0,0,0,1.73.74,6.76,6.76,0,0,1,2.68,1.3A2.66,2.66,0,0,1,37.36,88a2.53,2.53,0,0,1-1.08,2.16,4.73,4.73,0,0,1-2.86.79,6.22,6.22,0,0,1-2.29-.4,4.83,4.83,0,0,1-1.7-1.11V87.2h1.66l.22,1.52a2.67,2.67,0,0,0,.88.43,4,4,0,0,0,1.23.17A2.14,2.14,0,0,0,34.76,89a1.18,1.18,0,0,0,.46-1,1.25,1.25,0,0,0-.44-1,4.37,4.37,0,0,0-1.53-.71A8.68,8.68,0,0,1,30.38,85a2.46,2.46,0,0,1-1-2.06,2.56,2.56,0,0,1,1.1-2.13A4.59,4.59,0,0,1,33.27,80a6.38,6.38,0,0,1,2.24.37,5.17,5.17,0,0,1,1.7,1Z"/><path class="cls-8" d="M38.1,84.15V82.86h3.1l.1.93a2.55,2.55,0,0,1,.85-.79,2.19,2.19,0,0,1,1.14-.28,2.62,2.62,0,0,1,2.28,1.15,5.07,5.07,0,0,1,.82,3v.16a4.48,4.48,0,0,1-.82,2.82,2.67,2.67,0,0,1-2.27,1.07,2.43,2.43,0,0,1-1.1-.23,2.24,2.24,0,0,1-.83-.67v2.29l1,.22v1.29H38.21V92.55l1-.22v-8Zm6.15,2.74a3.8,3.8,0,0,0-.38-1.81,1.19,1.19,0,0,0-1.14-.7,1.63,1.63,0,0,0-.82.2,1.39,1.39,0,0,0-.54.56v3.47a1.29,1.29,0,0,0,.54.52,1.9,1.9,0,0,0,.84.17,1.24,1.24,0,0,0,1.14-.61,3.19,3.19,0,0,0,.36-1.64Z"/><path class="cls-8" d="M51.13,90.94a3.56,3.56,0,0,1-2.74-1.1,3.93,3.93,0,0,1-1-2.79v-.29a4.33,4.33,0,0,1,1-2.91,3.63,3.63,0,0,1,5.09-.17,3.75,3.75,0,0,1,.89,2.62v1.16H49.59l0,.05a2.1,2.1,0,0,0,.53,1.29,1.65,1.65,0,0,0,1.26.5,4,4,0,0,0,1.18-.14,6.15,6.15,0,0,0,1-.45L54.14,90a4.19,4.19,0,0,1-1.27.65A5.3,5.3,0,0,1,51.13,90.94Zm-.19-6.57a1.13,1.13,0,0,0-.94.45A2.4,2.4,0,0,0,49.58,86l0,0h2.62v-.19a1.74,1.74,0,0,0-.31-1.09A1.17,1.17,0,0,0,50.94,84.37Z"/><path class="cls-8" d="M55.26,89.51l1-.22V84.37l-1.15-.22V82.86h3.28v6.43l1,.22v1.28h-4.2ZM58.43,81H56.3V79.36h2.13Z"/><path class="cls-8" d="M63.88,89.3A1.28,1.28,0,0,0,64.8,89a1.18,1.18,0,0,0,.34-.89h1.94l0,0a2.47,2.47,0,0,1-.9,2,3.81,3.81,0,0,1-5.05-.31,4.25,4.25,0,0,1-1-2.88v-.22a4.19,4.19,0,0,1,1-2.87A3.49,3.49,0,0,1,64,82.72a4.89,4.89,0,0,1,1.72.28,3.38,3.38,0,0,1,1.27.81l0,2.12H65.27l-.35-1.24a1.4,1.4,0,0,0-.4-.23,1.44,1.44,0,0,0-.53-.09,1.33,1.33,0,0,0-1.28.66,3.38,3.38,0,0,0-.38,1.69v.22a3.63,3.63,0,0,0,.35,1.71A1.23,1.23,0,0,0,63.88,89.3Z"/><path class="cls-8" d="M68,89.51l1-.22V80.87l-1.14-.22V79.36h3.27v4.52A2.69,2.69,0,0,1,72,83a2.66,2.66,0,0,1,3.15.52,3.86,3.86,0,0,1,.71,2.55v3.2l1,.22v1.28H72.83V89.51l.92-.22V86.07a2,2,0,0,0-.33-1.31,1.21,1.21,0,0,0-1-.38,1.78,1.78,0,0,0-.78.16,1.56,1.56,0,0,0-.56.46v4.29l.93.22v1.28H68Z"/><path class="cls-8" d="M81.32,90.94a3.56,3.56,0,0,1-2.74-1.1,3.93,3.93,0,0,1-1-2.79v-.29a4.33,4.33,0,0,1,1-2.91,3.63,3.63,0,0,1,5.09-.17,3.75,3.75,0,0,1,.89,2.62v1.16H79.78l0,.05a2.1,2.1,0,0,0,.53,1.29,1.65,1.65,0,0,0,1.26.5,4,4,0,0,0,1.18-.14,6.15,6.15,0,0,0,1-.45L84.33,90a4.19,4.19,0,0,1-1.27.65A5.3,5.3,0,0,1,81.32,90.94Zm-.19-6.57a1.1,1.1,0,0,0-.93.45A2.32,2.32,0,0,0,79.77,86l0,0h2.62v-.19a1.74,1.74,0,0,0-.31-1.09A1.17,1.17,0,0,0,81.13,84.37Z"/><path class="cls-8" d="M85.68,89.51l1-.22V84.37l-1.14-.22V82.86H88.7L88.79,84a2.58,2.58,0,0,1,.72-1,1.59,1.59,0,0,1,1-.34l.35,0a1.94,1.94,0,0,1,.32.07L91,84.75l-.88,0a1.46,1.46,0,0,0-.78.19,1.19,1.19,0,0,0-.47.52v3.85l1,.22v1.28H85.68Z"/><path class="cls-8" d="M97.38,89.79a2.72,2.72,0,0,1-.94.85,2.69,2.69,0,0,1-1.28.3,2.45,2.45,0,0,1-2-.8,3.63,3.63,0,0,1-.71-2.49V84.37l-.88-.22V82.86h3v4.8a2.07,2.07,0,0,0,.29,1.24,1,1,0,0,0,.86.38,2.16,2.16,0,0,0,.88-.16,1.43,1.43,0,0,0,.6-.48V84.37l-.93-.22V82.86h3.07v6.43l1,.22v1.28H97.52Z"/><path class="cls-8" d="M101.08,89.51l1-.22V84.37L101,84.15V82.86h3.12l.1,1.14a3,3,0,0,1,1-1,2.59,2.59,0,0,1,1.3-.33,2.37,2.37,0,0,1,1.87.75,3.49,3.49,0,0,1,.68,2.37v3.45l1,.22v1.28H106V89.51l.91-.22V85.85a1.65,1.65,0,0,0-.32-1.14,1.29,1.29,0,0,0-1-.33,1.74,1.74,0,0,0-.77.17,1.64,1.64,0,0,0-.56.49v4.25l.86.22v1.28h-4Z"/><path class="cls-8" d="M110.77,86.89a5.14,5.14,0,0,1,.82-3,2.64,2.64,0,0,1,2.29-1.15,2.36,2.36,0,0,1,1.17.29,2.49,2.49,0,0,1,.86.85l.16-1h1.86v7.69a3.3,3.3,0,0,1-1,2.51,3.75,3.75,0,0,1-2.7.93,6,6,0,0,1-1.28-.16,6.48,6.48,0,0,1-1.24-.45l.39-1.51a6.26,6.26,0,0,0,1,.35,4.21,4.21,0,0,0,1.08.13,1.43,1.43,0,0,0,1.18-.48,2.07,2.07,0,0,0,.38-1.32V90a2.41,2.41,0,0,1-.82.68,2.57,2.57,0,0,1-1.1.23,2.67,2.67,0,0,1-2.27-1.07,4.58,4.58,0,0,1-.82-2.82Zm2.14.16a3.23,3.23,0,0,0,.35,1.63,1.24,1.24,0,0,0,1.15.6,1.78,1.78,0,0,0,.83-.18,1.35,1.35,0,0,0,.54-.52V85.14a1.46,1.46,0,0,0-.54-.56,1.63,1.63,0,0,0-.82-.2,1.19,1.19,0,0,0-1.14.7,3.81,3.81,0,0,0-.37,1.81Z"/><path class="cls-8" d="M200.22,80.13v1.28l-1.14.22V87.2a2,2,0,0,0,.57,1.58,2.17,2.17,0,0,0,1.55.52,2.25,2.25,0,0,0,1.58-.52,2,2,0,0,0,.57-1.58V81.63l-1.14-.22V80.13h4.42v1.28l-1.14.22V87.2A3.38,3.38,0,0,1,204.3,90a5.41,5.41,0,0,1-6.18,0,3.38,3.38,0,0,1-1.18-2.77V81.63l-1.14-.22V80.13h4.42Zm0-1.07h-1.95V77.57h1.95Zm3.67,0h-2V77.57h2Z"/><path class="cls-8" d="M215,87.05a4.61,4.61,0,0,1-.79,2.83,2.67,2.67,0,0,1-2.28,1.06,2.33,2.33,0,0,1-1.21-.29,2.49,2.49,0,0,1-.87-.84l-.15,1h-1.85V80.87l-1.13-.22V79.36H210v4.35a2.41,2.41,0,0,1,.82-.74,2.32,2.32,0,0,1,1.1-.25,2.62,2.62,0,0,1,2.3,1.14,5.2,5.2,0,0,1,.79,3Zm-2.13-.16a4.06,4.06,0,0,0-.34-1.83,1.2,1.2,0,0,0-1.16-.68,1.59,1.59,0,0,0-.84.21,1.43,1.43,0,0,0-.54.6v3.34a1.33,1.33,0,0,0,.54.56,1.72,1.72,0,0,0,.85.19,1.21,1.21,0,0,0,1.16-.58,3.39,3.39,0,0,0,.33-1.65Z"/><path class="cls-8" d="M219.75,90.94a3.52,3.52,0,0,1-2.73-1.1,3.9,3.9,0,0,1-1-2.79v-.29a4.33,4.33,0,0,1,1-2.91,3.63,3.63,0,0,1,5.09-.17,3.7,3.7,0,0,1,.89,2.62v1.16h-4.73l0,.05a2.1,2.1,0,0,0,.53,1.29,1.65,1.65,0,0,0,1.26.5,3.93,3.93,0,0,0,1.18-.14,6.22,6.22,0,0,0,1-.45l.57,1.32a4.24,4.24,0,0,1-1.26.65A5.4,5.4,0,0,1,219.75,90.94Zm-.19-6.57a1.11,1.11,0,0,0-.93.45A2.41,2.41,0,0,0,218.2,86l0,0h2.63v-.19a1.74,1.74,0,0,0-.32-1.09A1.16,1.16,0,0,0,219.56,84.37Z"/><path class="cls-8" d="M224.11,89.51l1-.22V84.37L224,84.15V82.86h3.13l.1,1.16a2.46,2.46,0,0,1,.71-1,1.63,1.63,0,0,1,1-.34l.36,0,.31.07-.23,1.94-.88,0a1.4,1.4,0,0,0-.77.19,1.08,1.08,0,0,0-.47.52v3.85l1,.22v1.28h-4.19Z"/><path class="cls-8" d="M233.6,80.92v1.94H235v1.51H233.6v4a.91.91,0,0,0,.19.66.68.68,0,0,0,.51.2l.39,0,.37-.06.18,1.54a4.86,4.86,0,0,1-.71.17,4.62,4.62,0,0,1-.76,0,2.31,2.31,0,0,1-1.71-.6,2.67,2.67,0,0,1-.59-1.93v-4H230.3V82.86h1.17V80.92Z"/><path class="cls-8" d="M236.2,89.51l1-.22V84.37l-1.13-.22V82.86h3.13l.09,1.16a2.58,2.58,0,0,1,.72-1,1.59,1.59,0,0,1,1-.34l.35,0a1.61,1.61,0,0,1,.31.07l-.22,1.94-.88,0a1.43,1.43,0,0,0-.78.19,1.19,1.19,0,0,0-.47.52v3.85l1,.22v1.28H236.2Z"/><path class="cls-8" d="M247.25,90.79a2.86,2.86,0,0,1-.15-.41A3.25,3.25,0,0,1,247,90a3,3,0,0,1-.92.71,2.8,2.8,0,0,1-1.25.27,2.61,2.61,0,0,1-1.85-.63,2.23,2.23,0,0,1-.69-1.73,2,2,0,0,1,.9-1.72,4.7,4.7,0,0,1,2.62-.6h1.09v-.78a1.18,1.18,0,0,0-.33-.89,1.35,1.35,0,0,0-1-.31,2.51,2.51,0,0,0-.65.08,2.36,2.36,0,0,0-.47.2l-.14.85h-1.61V83.66a5.67,5.67,0,0,1,1.35-.67,4.84,4.84,0,0,1,1.65-.27,3.78,3.78,0,0,1,2.39.72,2.47,2.47,0,0,1,.92,2v3.62a1.55,1.55,0,0,0,0,.31l.65.09v1.28Zm-1.85-1.43a1.87,1.87,0,0,0,.88-.21,1.66,1.66,0,0,0,.61-.52V87.42H245.8a1.49,1.49,0,0,0-1,.32,1,1,0,0,0-.36.76.77.77,0,0,0,.27.63A1,1,0,0,0,245.4,89.36Z"/><path class="cls-8" d="M250.58,86.89a5.14,5.14,0,0,1,.81-3,2.65,2.65,0,0,1,2.29-1.15,2.33,2.33,0,0,1,1.17.29,2.61,2.61,0,0,1,.87.85l.15-1h1.86v7.69a3.33,3.33,0,0,1-1,2.51A3.79,3.79,0,0,1,254,94a6,6,0,0,1-1.28-.16,6.74,6.74,0,0,1-1.24-.45l.39-1.51a6.26,6.26,0,0,0,1,.35,4.21,4.21,0,0,0,1.08.13,1.43,1.43,0,0,0,1.18-.48,2,2,0,0,0,.38-1.32V90a2.32,2.32,0,0,1-.82.68,2.53,2.53,0,0,1-1.09.23,2.69,2.69,0,0,1-2.28-1.07,4.58,4.58,0,0,1-.81-2.82Zm2.13.16a3.13,3.13,0,0,0,.36,1.63,1.21,1.21,0,0,0,1.14.6,1.76,1.76,0,0,0,.83-.18,1.29,1.29,0,0,0,.54-.52V85.14a1.39,1.39,0,0,0-.54-.56,1.63,1.63,0,0,0-.82-.2,1.19,1.19,0,0,0-1.14.7,3.81,3.81,0,0,0-.37,1.81Z"/><path class="cls-8" d="M264.56,89.79a2.72,2.72,0,0,1-.94.85,2.69,2.69,0,0,1-1.28.3,2.48,2.48,0,0,1-2-.8,3.68,3.68,0,0,1-.71-2.49V84.37l-.87-.22V82.86h3v4.8a2.07,2.07,0,0,0,.29,1.24,1,1,0,0,0,.86.38,2.16,2.16,0,0,0,.88-.16,1.43,1.43,0,0,0,.6-.48V84.37l-.93-.22V82.86h3.07v6.43l1,.22v1.28H264.7Z"/><path class="cls-8" d="M268.26,89.51l1-.22V84.37l-1.13-.22V82.86h3.12l.1,1.14a3,3,0,0,1,1-1,2.59,2.59,0,0,1,1.3-.33,2.37,2.37,0,0,1,1.87.75,3.49,3.49,0,0,1,.68,2.37v3.45l1,.22v1.28h-4.08V89.51l.91-.22V85.85a1.65,1.65,0,0,0-.32-1.14,1.31,1.31,0,0,0-1-.33,1.74,1.74,0,0,0-.77.17,1.64,1.64,0,0,0-.56.49v4.25l.86.22v1.28h-4Z"/><path class="cls-8" d="M278,86.89a5.14,5.14,0,0,1,.82-3,2.64,2.64,0,0,1,2.29-1.15,2.36,2.36,0,0,1,1.17.29,2.49,2.49,0,0,1,.86.85l.16-1h1.86v7.69a3.3,3.3,0,0,1-1,2.51,3.75,3.75,0,0,1-2.7.93,6,6,0,0,1-1.28-.16,6.48,6.48,0,0,1-1.24-.45l.39-1.51a6.26,6.26,0,0,0,1,.35,4.21,4.21,0,0,0,1.08.13,1.44,1.44,0,0,0,1.18-.48,2.07,2.07,0,0,0,.38-1.32V90a2.41,2.41,0,0,1-.82.68,2.57,2.57,0,0,1-1.1.23,2.67,2.67,0,0,1-2.27-1.07,4.58,4.58,0,0,1-.82-2.82Zm2.14.16a3.23,3.23,0,0,0,.35,1.63,1.24,1.24,0,0,0,1.15.6,1.78,1.78,0,0,0,.83-.18,1.35,1.35,0,0,0,.54-.52V85.14a1.46,1.46,0,0,0-.54-.56,1.63,1.63,0,0,0-.82-.2,1.22,1.22,0,0,0-1.15.7,3.94,3.94,0,0,0-.36,1.81Z"/></g></svg>