<?xml version="1.0" encoding="utf-8"?>
<!-- Generator: Adobe Illustrator 26.0.1, SVG Export Plug-In . SVG Version: 6.00 Build 0)  -->
<svg version="1.1" id="Ebene_1" xmlns="http://www.w3.org/2000/svg" xmlns:xlink="http://www.w3.org/1999/xlink" x="0px" y="0px"
	 viewBox="0 0 305.4 262.5" style="enable-background:new 0 0 305.4 262.5;" xml:space="preserve">
<style type="text/css">
	.st0{fill:#FFCC00;}
	.st1{fill:none;stroke:url(#SVGID_1_);stroke-width:12;stroke-miterlimit:10;}
	.st2{fill:url(#SVGID_00000118370589759810782330000005365775879286688931_);}
	.st3{fill:#FFFFFF;}
	.st4{fill:url(#SVGID_00000115497220284001216600000000891474475289473712_);}
	.st5{fill:url(#SVGID_00000150101659918797474710000008347280024372011962_);}
	.st6{fill:none;stroke:#FFCC00;stroke-width:2;stroke-miterlimit:10;}
</style>
<path class="st0" d="M158,222.1L63.6,58.7h188.7L158,222.1z M89.5,73.7L158,192.2l68.4-118.5H89.5z"/>
<linearGradient id="SVGID_1_" gradientUnits="userSpaceOnUse" x1="66.1982" y1="126.0343" x2="248.8478" y2="126.0343" gradientTransform="matrix(1 0 0 -1 0 264)">
	<stop  offset="0" style="stop-color:#981869"/>
	<stop  offset="0.19" style="stop-color:#771C65"/>
	<stop  offset="0.4" style="stop-color:#591F62"/>
	<stop  offset="0.61" style="stop-color:#432260"/>
	<stop  offset="0.81" style="stop-color:#36235E"/>
	<stop  offset="1" style="stop-color:#32245E"/>
</linearGradient>
<polygon class="st1" points="157.5,205.1 238.5,64.9 76.6,64.9 "/>
<linearGradient id="SVGID_00000026151554482758116890000004048836169838917303_" gradientUnits="userSpaceOnUse" x1="179.4234" y1="200.8918" x2="301.6398" y2="200.8918" gradientTransform="matrix(1 0 0 -1 0 264)">
	<stop  offset="0" style="stop-color:#981869"/>
	<stop  offset="0.19" style="stop-color:#771C65"/>
	<stop  offset="0.4" style="stop-color:#591F62"/>
	<stop  offset="0.61" style="stop-color:#432260"/>
	<stop  offset="0.81" style="stop-color:#36235E"/>
	<stop  offset="1" style="stop-color:#32245E"/>
</linearGradient>
<circle style="fill:url(#SVGID_00000026151554482758116890000004048836169838917303_);" cx="240.5" cy="63.1" r="61.1"/>
<path class="st3" d="M212.1,85.6v-1.4h4.7v1.4l-1.3,0.2V94l1.3,0.2v1.4h-4.7v-1.4l1.2-0.2v-8.1L212.1,85.6z"/>
<path class="st3" d="M217.7,94.2l1.1-0.2v-5.2l-1.3-0.2v-1.5h3.3l0.1,1.3c0.3-0.4,0.6-0.8,1.1-1c0.4-0.2,0.9-0.4,1.4-0.4
	c0.8,0,1.5,0.2,2,0.8c0.6,0.7,0.8,1.7,0.7,2.6v3.7l1.1,0.2v1.4h-4.4v-1.4l1-0.2v-3.8c0.1-0.5-0.1-0.9-0.4-1.3
	c-0.3-0.3-0.7-0.4-1-0.4c-0.3,0-0.6,0.1-0.8,0.2c-0.2,0.1-0.5,0.3-0.6,0.5v4.6l0.9,0.2v1.4h-4.3L217.7,94.2z"/>
<path class="st3" d="M238,85c-0.3,0-0.6,0-0.9,0c-0.5,0-0.9,0.1-1.3,0.4c-0.3,0.4-0.5,0.8-0.4,1.3v0.4h1.9v1.6h-1.9V94l1.1,0.2v1.4
	h-4.6v-1.4L233,94v-5.3h-1.1v-1.6h1.1v-0.4c0-1,0.3-1.9,1-2.6c0.8-0.7,1.9-1,2.9-0.9c0.4,0,0.9,0,1.3,0.1c0.4,0.1,1,0.2,1.5,0.3h1.3
	v10.4l1.1,0.2v1.4h-4.5v-1.4l1.1-0.2v-8.8C238.5,85.2,238.2,85.1,238,85z"/>
<path class="st3" d="M243,94.2l1.1-0.2v-5.2l-1.3-0.2v-1.5h3.5V94l1.1,0.2v1.4h-4.5L243,94.2z M246.4,85.1h-2.3v-1.7h2.3V85.1z"/>
<path class="st3" d="M248.4,91.4c-0.1-1.1,0.2-2.3,0.9-3.2c0.6-0.8,1.5-1.3,2.5-1.2c0.5,0,0.9,0.1,1.3,0.3c0.4,0.2,0.7,0.5,0.9,0.9
	l0.2-1.1h2v8.2c0,1-0.3,2-1.1,2.7c-0.8,0.7-1.8,1.1-2.9,1c-0.4,0-0.9-0.1-1.3-0.2c-0.4-0.1-0.9-0.3-1.3-0.5l0.4-1.6
	c0.4,0.2,0.7,0.3,1.1,0.4c0.4,0.1,0.8,0.1,1.2,0.1c0.5,0.1,1-0.1,1.3-0.5c0.3-0.4,0.4-0.9,0.4-1.4v-0.6c-0.5,0.7-1.4,1.1-2.3,1
	c-1,0-1.9-0.4-2.4-1.1c-0.6-0.9-0.9-1.9-0.9-3L248.4,91.4z M250.7,91.6c0,0.6,0.1,1.2,0.4,1.8c0.3,0.4,0.7,0.7,1.2,0.6
	c0.3,0,0.6-0.1,0.9-0.2c0.2-0.1,0.4-0.3,0.6-0.6v-3.7c-0.1-0.3-0.3-0.5-0.6-0.6c-0.3-0.1-0.6-0.2-0.9-0.2c-0.5,0-1,0.3-1.2,0.7
	c-0.3,0.6-0.4,1.3-0.4,1.9V91.6z"/>
<path class="st3" d="M257.3,94.2l1.1-0.2v-9.1l-1.3-0.2v-1.3h3.5v4.8c0.8-1.3,2.5-1.7,3.8-0.8c0.2,0.1,0.4,0.3,0.6,0.5
	c0.6,0.8,0.8,1.8,0.8,2.7V94l1.1,0.2v1.4h-4.4v-1.4l1-0.2v-3.4c0-0.5-0.1-1-0.4-1.4c-0.3-0.3-0.6-0.4-1-0.4c-0.3,0-0.6,0.1-0.8,0.2
	c-0.2,0.1-0.5,0.3-0.6,0.5v4.6l1,0.2v1.4h-4.4L257.3,94.2z"/>
<path class="st3" d="M271,85v2.1h1.5v1.6H271v4.3c0,0.3,0.1,0.5,0.2,0.7c0.1,0.1,0.3,0.2,0.5,0.2h0.4c0.1,0,0.3,0,0.4,0l0.2,1.7
	c-0.2,0.1-0.5,0.1-0.8,0.2c-0.3,0-0.5,0.1-0.8,0.1c-0.7,0-1.3-0.2-1.8-0.6c-0.5-0.6-0.7-1.3-0.6-2.1v-4.4h-1.2v-1.6h1.2V85H271z"/>
<path class="st0" d="M234,72.1c-0.5,0-0.9-0.1-1.3-0.4c-1-0.6-1.4-1.9-1-3l7.1-18h-9.1l-1.2-0.1l-3.9,4.1c-0.7,0.8-1.9,1-2.9,0.5
	c-1-0.5-1.6-1.5-1.5-2.6l0.7-6c-0.2-0.2-0.3-0.4-0.4-0.5c-0.1-0.2-0.2-0.5-0.2-0.7v-0.2c0-0.2,0.1-0.5,0.2-0.7
	c0.1-0.2,0.3-0.4,0.5-0.6l-0.7-6.2c-0.1-1.4,1-2.6,2.3-2.7c0.7,0,1.3,0.2,1.8,0.6l4.2,4.3c0.4,0,0.7,0,1.1,0h9.7l-7.8-19.7
	c-0.5-1.3,0.1-2.7,1.4-3.2c0,0,0,0,0,0c0.9-0.4,2-0.1,2.7,0.6l20.6,22.2h4.3c3.3,0,8.9,1.2,8.9,5.5c0,4.3-5.6,5.5-8.9,5.5h-5.9
	l-18.9,20.4C235.3,71.8,234.7,72.1,234,72.1z M229.8,48.3h10.8c0.7,0,1.3,0.6,1.3,1.3c0,0.2,0,0.3-0.1,0.4L234,69.7l19.3-20.9
	c0.2-0.3,0.6-0.4,0.9-0.4h6.5c0,0,6.5-0.1,6.5-3c0-2.8-6.4-2.9-6.5-2.9h-4.9c-0.3,0-0.7-0.1-0.9-0.4l-21-22.7l8.4,21.4
	c0.1,0.4,0.1,0.8-0.1,1.1c-0.2,0.3-0.6,0.5-1,0.5h-11.5c-0.5,0-1,0-1.5,0.1l0,0c-0.6,0.1-1.1-0.3-1.3-0.8l-4.2-4.3h-0.1l0.8,6.8
	c0,0.4-0.1,0.7-0.3,1l-0.1,0.1l0.1,0.1l0,0c0.3,0.3,0.4,0.8,0.3,1.2l-0.8,6.3c0,0,0.1,0.1,0.1,0.1l4.4-4.5c0.3-0.3,0.6-0.4,1-0.4
	L229.8,48.3z"/>
<linearGradient id="SVGID_00000160881485143040470370000006365756943276017070_" gradientUnits="userSpaceOnUse" x1="12.4202" y1="200.8918" x2="134.6366" y2="200.8918" gradientTransform="matrix(1 0 0 -1 0 264)">
	<stop  offset="0" style="stop-color:#981869"/>
	<stop  offset="0.19" style="stop-color:#771C65"/>
	<stop  offset="0.4" style="stop-color:#591F62"/>
	<stop  offset="0.61" style="stop-color:#432260"/>
	<stop  offset="0.81" style="stop-color:#36235E"/>
	<stop  offset="1" style="stop-color:#32245E"/>
</linearGradient>
<circle style="fill:url(#SVGID_00000160881485143040470370000006365756943276017070_);" cx="73.5" cy="63.1" r="61.1"/>
<path class="st3" d="M48.9,92.3l0.8-0.1l3.5-9.9h2.3l3.5,9.9l0.8,0.1v1.4h-3.9v-1.4l0.8-0.1l-0.5-1.5h-3.7L52,92.2l0.8,0.1v1.4h-3.9
	L48.9,92.3z M53,88.9h2.6l-1.3-4l0,0L53,88.9z"/>
<path class="st3" d="M63.1,83.1v2.1h1.5v1.6h-1.5v4.3c0,0.3,0.1,0.5,0.2,0.7c0.1,0.1,0.4,0.2,0.6,0.2h0.4h0.4l0.2,1.7
	c-0.3,0.1-0.5,0.1-0.8,0.2c-0.3,0-0.5,0-0.8,0c-0.7,0.1-1.4-0.2-1.9-0.7c-0.5-0.6-0.7-1.3-0.6-2.1v-4.3h-1.3v-1.6h1.3v-2.1H63.1z"/>
<path class="st3" d="M69.8,92.3l1.1-0.2v-5.3l-1.2-0.2v-1.3H73l0.1,1.3c0.2-0.4,0.4-0.8,0.8-1c0.3-0.2,0.7-0.4,1.1-0.4
	c0.1,0,0.3,0,0.4,0h0.3l-0.2,2.1h-0.9c-0.3,0-0.6,0.1-0.8,0.2c-0.2,0.1-0.4,0.3-0.5,0.6V92l1.1,0.2v1.4h-4.5V92.3z"/>
<path class="st3" d="M80.3,93.8c-1.1,0.1-2.2-0.4-2.9-1.2c-0.7-0.8-1.1-1.9-1.1-3v-0.3c0-1.1,0.3-2.2,1-3.1c1.5-1.5,3.9-1.6,5.5-0.2
	c0.7,0.8,1,1.8,0.9,2.8v1.2h-5.1l0,0c0,0.5,0.2,1,0.6,1.4c0.3,0.4,0.8,0.5,1.3,0.5c0.4,0,0.9,0,1.3-0.1c0.4-0.1,0.7-0.3,1.1-0.5
	l0.6,1.4c-0.4,0.3-0.8,0.5-1.3,0.7C81.6,93.7,81,93.8,80.3,93.8z M80.1,86.7c-0.4,0-0.8,0.2-1,0.5c-0.3,0.4-0.4,0.8-0.5,1.3l0,0h2.8
	v-0.2c0-0.4-0.1-0.8-0.3-1.2C80.9,86.9,80.5,86.7,80.1,86.7z"/>
<path class="st3" d="M91.7,88h-1.5L89.9,87c-0.2-0.1-0.4-0.2-0.6-0.3c-0.3-0.1-0.5-0.1-0.8-0.1c-0.3,0-0.7,0.1-1,0.3
	c-0.2,0.2-0.4,0.4-0.4,0.7c0,0.3,0.1,0.5,0.3,0.6c0.4,0.2,0.8,0.4,1.3,0.5c0.8,0.1,1.6,0.4,2.3,0.9c0.5,0.4,0.8,1,0.8,1.7
	c0,0.7-0.4,1.4-1,1.9c-0.8,0.5-1.7,0.8-2.6,0.7c-0.6,0-1.2-0.1-1.8-0.3c-0.5-0.2-1-0.5-1.5-0.8v-1.9h1.6l0.3,1.1
	c0.2,0.1,0.3,0.2,0.5,0.3c0.2,0.1,0.5,0.1,0.7,0.1c0.4,0,0.8-0.1,1.1-0.3c0.2-0.2,0.4-0.4,0.4-0.7c0-0.3-0.2-0.5-0.4-0.7
	c-0.4-0.2-0.8-0.4-1.3-0.5c-0.8-0.1-1.6-0.4-2.3-0.9c-0.5-0.4-0.8-1-0.8-1.6c0-0.7,0.3-1.4,0.9-1.9c0.7-0.6,1.6-0.8,2.5-0.8
	c0.6,0,1.3,0.1,1.9,0.3c0.5,0.1,1,0.4,1.4,0.7L91.7,88z"/>
<path class="st3" d="M96.5,83.1v2.1h1.5v1.6h-1.5v4.3c0,0.3,0,0.5,0.2,0.7c0.1,0.1,0.4,0.2,0.6,0.2h0.4H98l0.2,1.7
	c-0.2,0.1-0.5,0.1-0.8,0.2c-0.3,0-0.6,0-0.8,0c-0.7,0.1-1.4-0.1-1.9-0.6c-0.5-0.6-0.7-1.3-0.6-2.1v-4.4h-1.2v-1.6h1.2v-2.1H96.5z"/>
<path class="st0" d="M69.5,62h-8.6c-0.7-0.1-1.2-0.7-1.2-1.4c0-0.3,0.1-0.5,0.3-0.7l6.4-6.1h-5.2c-0.7-0.2-1.1-1-0.8-1.6
	c0.1-0.4,0.4-0.7,0.8-0.8h8.2c0.7,0,1.2,0.5,1.2,1.2c0,0.3-0.1,0.7-0.4,0.9L64,59.5h5.6c0.7-0.2,1.4,0.1,1.6,0.8
	c0.2,0.7-0.1,1.4-0.8,1.6C70.1,62,69.8,62,69.5,62L69.5,62z"/>
<path class="st0" d="M88.7,44h-16c-0.7-0.1-1.2-0.7-1.2-1.4c0-0.3,0.1-0.5,0.3-0.7l13.8-13.1H73.5c-0.7,0.2-1.4-0.2-1.6-0.9
	c-0.2-0.7,0.2-1.4,0.9-1.6c0.3-0.1,0.5-0.1,0.8,0h15.2c0.7,0.1,1.2,0.7,1.2,1.4c0,0.3-0.1,0.5-0.3,0.7L75.8,41.6h12.9
	c0.7-0.2,1.4,0.1,1.6,0.8c0.2,0.7-0.1,1.4-0.8,1.6C89.2,44.1,88.9,44.1,88.7,44z"/>
<linearGradient id="SVGID_00000104665248248489138120000007603338732377292418_" gradientUnits="userSpaceOnUse" x1="95.9218" y1="64.1054" x2="218.1382" y2="64.1054" gradientTransform="matrix(1 0 0 -1 0 264)">
	<stop  offset="0" style="stop-color:#981869"/>
	<stop  offset="0.19" style="stop-color:#771C65"/>
	<stop  offset="0.4" style="stop-color:#591F62"/>
	<stop  offset="0.61" style="stop-color:#432260"/>
	<stop  offset="0.81" style="stop-color:#36235E"/>
	<stop  offset="1" style="stop-color:#32245E"/>
</linearGradient>
<circle style="fill:url(#SVGID_00000104665248248489138120000007603338732377292418_);" cx="157" cy="199.9" r="61.1"/>
<path class="st3" d="M134.8,223.4V222h4.7v1.4l-1.3,0.2v8.2l1.3,0.2v1.4h-4.7V232l1.2-0.2v-8.2L134.8,223.4z"/>
<path class="st3" d="M140.4,232l1.1-0.2v-5.3l-1.3-0.2v-1.4h3.3l0.1,1.2c0.3-0.4,0.6-0.8,1.1-1c0.4-0.2,0.9-0.4,1.4-0.4
	c0.8,0,1.5,0.3,2,0.8c0.6,0.7,0.8,1.7,0.7,2.6v3.7l1.1,0.2v1.4h-4.4V232l1-0.2v-3.7c0.1-0.5-0.1-0.9-0.4-1.3c-0.3-0.2-0.7-0.4-1-0.4
	c-0.3,0-0.6,0.1-0.8,0.2c-0.2,0.1-0.5,0.3-0.6,0.5v4.6l0.9,0.2v1.4h-4.3L140.4,232z"/>
<path class="st3" d="M160.6,232.3c-0.2,0.4-0.6,0.7-1,0.9c-0.4,0.2-0.9,0.3-1.4,0.3c-0.8,0-1.6-0.3-2.1-0.9
	c-0.6-0.7-0.8-1.7-0.8-2.6v-3.5l-0.9-0.2V225h3.2v5.2c0,0.5,0.1,0.9,0.3,1.3c0.2,0.3,0.6,0.4,0.9,0.4c0.3,0,0.6,0,0.9-0.2
	c0.2-0.1,0.5-0.3,0.6-0.5v-4.6l-1-0.2V225h3.3v6.9l1,0.2v1.4h-3L160.6,232.3z"/>
<path class="st3" d="M171.6,227.8h-1.5l-0.2-1.1c-0.2-0.1-0.4-0.3-0.6-0.3c-0.2-0.1-0.5-0.1-0.8-0.1c-0.3,0-0.7,0.1-1,0.3
	c-0.2,0.2-0.3,0.4-0.4,0.7c0,0.3,0.1,0.5,0.3,0.6c0.4,0.2,0.8,0.4,1.3,0.5c0.8,0.1,1.6,0.4,2.3,0.9c0.5,0.4,0.8,1,0.8,1.7
	c0,0.7-0.4,1.4-1,1.9c-0.8,0.5-1.7,0.8-2.6,0.7c-0.6,0-1.2-0.1-1.8-0.3c-0.5-0.2-1-0.5-1.5-0.8v-1.9h1.6l0.3,1.1
	c0.2,0.1,0.3,0.2,0.5,0.3c0.2,0.1,0.5,0.1,0.8,0.1c0.4,0,0.7-0.1,1.1-0.2c0.4-0.2,0.5-0.7,0.3-1.1c0,0,0,0,0,0
	c-0.1-0.1-0.1-0.2-0.2-0.2c-0.4-0.2-0.8-0.4-1.3-0.5c-0.8-0.1-1.6-0.4-2.3-0.9c-0.5-0.4-0.8-1-0.8-1.6c0-0.7,0.3-1.4,0.9-1.9
	c0.7-0.6,1.6-0.8,2.5-0.8c0.6,0,1.3,0.1,1.9,0.3c0.5,0.1,1,0.4,1.4,0.7L171.6,227.8z"/>
<path class="st3" d="M177.6,233.3c-1.1,0-2.2-0.4-2.9-1.2c-0.7-0.8-1.1-1.9-1.1-3v-0.3c0-1.1,0.3-2.2,1-3.1c1.5-1.5,3.9-1.6,5.5-0.2
	c0.7,0.8,1,1.8,0.9,2.8v1.3h-5.1l0,0c0,0.5,0.2,1,0.6,1.4c0.3,0.4,0.8,0.6,1.3,0.5c0.4,0,0.9,0,1.3-0.2c0.4-0.1,0.8-0.3,1.1-0.5
	l0.6,1.4c-0.4,0.3-0.8,0.5-1.3,0.7C178.9,233.3,178.2,233.4,177.6,233.3z M177.4,226.3c-0.4,0-0.8,0.2-1,0.5
	c-0.3,0.4-0.4,0.8-0.5,1.3l0,0h2.8v-0.2c0-0.4-0.1-0.8-0.4-1.2C178.1,226.4,177.8,226.3,177.4,226.3L177.4,226.3z"/>
<path class="st0" d="M157.5,191.6c-4.5,0-8.1-3.6-8.1-8c0-4.5,3.6-8.1,8-8.1c3.3,0,6.3,2,7.6,5.1l0,0c0.8,2,0.8,4.2,0,6.2
	c-0.8,2-2.4,3.5-4.4,4.3C159.6,191.4,158.5,191.6,157.5,191.6z M157.4,177.9c-3.1,0-5.6,2.5-5.6,5.6c0,0.8,0.1,1.5,0.4,2.2
	c1.2,2.9,4.5,4.2,7.4,3.1c1.4-0.5,2.4-1.6,3-3c1.2-2.9-0.2-6.2-3.1-7.4C158.8,178.1,158.1,178,157.4,177.9L157.4,177.9z"/>
<path class="st0" d="M153.6,199.1c-0.1,0-0.1,0-0.2,0h-0.1c-0.3,0-0.5,0-0.8-0.1l-0.6-0.2c-0.7-0.2-1.4-0.6-2-0.9l0,0
	c-0.7-0.6-1-1.5-0.9-2.3c0.1-0.4,0.2-0.8,0.4-1.2c0.1-0.3,0.2-0.5,0.2-0.8c-0.2-0.2-0.3-0.3-0.5-0.5c-0.5-0.3-0.9-0.7-1.2-1.2
	c-0.3-0.4-0.3-0.4-1.1-0.1l-0.2,0.1c-2.2,0.7-2.9,0.6-3.9-1.7l-0.2-0.5c-0.1-0.2-0.2-0.4-0.3-0.6c-0.4-0.6-0.5-1.4-0.3-2.1
	c0.3-0.8,1.2-1.3,2.1-1.7c0.9-0.4,0.9-0.6,0.8-1.2c-0.1-0.6-0.1-1.2,0-1.8c0-0.1,0-0.1,0-0.2c-0.1-0.1-0.3-0.2-0.4-0.2l-0.4-0.2
	c-2.2-1.1-2.6-1.8-1.6-4.1l0.3-0.6c0.9-2.1,1.5-2.6,3.8-1.8c1.3,0.4,1.3,0.3,1.6-0.3c0.2-0.4,0.6-0.7,1-0.9c0.4-0.2,0.6-0.3,0.2-1.3
	c-0.2-0.3-0.3-0.7-0.4-1.1c-0.4-1.1,0.2-2.3,1.3-2.7h0.1l2.1-0.9c1-0.5,2.3-0.1,2.8,0.9v0.1c0.2,0.3,0.3,0.6,0.5,0.9
	c0.1,0.3,0.3,0.6,0.5,0.9c0.2,0,0.4,0,0.6,0c0.5-0.1,1-0.1,1.5,0c0.5,0.1,0.6,0.1,0.9-0.6c1.2-2.6,2.1-2.6,4.5-1.7l0.5,0.2
	c2.2,0.9,2.3,1.9,1.5,4.1c-0.3,0.8-0.2,0.9,0.2,1.1c0.6,0.4,1,0.9,1.4,1.5c0.3-0.1,0.7-0.2,1-0.3l0.8-0.2c1.1-0.5,2.4,0,2.9,1.2
	c0,0,0,0,0,0c0,0.1,0,0.1,0.1,0.2v0.1c0.1,0.4,0.3,0.8,0.5,1.3l0.3,0.7c0.3,0.6,0.3,1.3,0,1.9c-0.3,0.5-0.7,0.9-1.3,1.1
	c-1,0.2-1.7,1.2-1.5,2.2c0,0.1,0,0.1,0,0.2c0.1,1.3,0.2,1.3,0.8,1.5h0.1l0.5,0.2l0.2,0.1h0.1c1.1,0.4,1.6,1.6,1.2,2.7
	c0,0.1-0.1,0.2-0.2,0.4c-0.3,0.6-0.5,1.1-0.7,1.7c-0.3,1.2-1.5,1.9-2.7,1.6l-0.3-0.1c-0.6-0.2-1.2-0.4-1.8-0.5
	c-0.6,0.5-1.2,1.1-1.9,1.9c0.1,0.6,0.3,1.1,0.5,1.6v0.1c0.5,1,0,2.3-1,2.7c0,0,0,0,0,0l-0.2,0.1l-2.1,0.9c-1,0.5-2.3,0.1-2.8-1
	c0,0,0,0,0,0v-0.1c-0.3-0.6-0.5-1.1-0.9-1.6h-2.6c-0.3,0.6-0.6,1.1-1,1.7c-0.2,0.3-0.3,0.5-0.5,0.8l-0.1,0.1
	C154.4,198.9,154,199.1,153.6,199.1z M151.4,195.8c0.5,0.2,0.9,0.4,1.4,0.6l0.3,0.1l0,0c0.4-0.6,0.7-1.2,1-1.8
	c0.3-0.8,1.1-1.3,2-1.2h0.1c0.6,0,1.1,0,1.7,0h1.2c0.7,0,1.3,0.3,1.7,0.8c0,0,0.1,0.1,0.1,0.1c0.4,0.6,0.8,1.2,1.1,1.9l1.8-0.7
	c-0.3-0.7-0.5-1.3-0.6-2v-0.1c0-0.7,0.2-1.3,0.7-1.9c0.8-0.9,1.5-1.5,2.1-2.1c0.5-0.4,1.2-0.6,1.9-0.6h0.1c0.7,0.2,1.4,0.4,2,0.6
	c0.2-0.6,0.4-1.2,0.7-1.8l-0.3-0.1l-0.2-0.1c-1.6-0.5-2.6-2-2.4-3.7c-0.3-2.1,0.9-4.1,2.9-4.7l-0.2-0.5c-0.2-0.4-0.4-0.8-0.5-1.3
	l-0.8,0.2c-0.3,0.1-0.7,0.2-1,0.3H168c-0.9,0.4-1.9,0.1-2.4-0.8l-0.1-0.1c-0.3-0.4-0.6-0.7-0.9-1c-1.4-0.8-1.9-2.6-1.2-4.1
	c0.1-0.4,0.2-0.6,0.3-0.8l-0.3-0.1l-0.6-0.2c-0.3-0.1-0.7-0.3-0.9-0.4c-0.1,0.2-0.3,0.6-0.4,0.8c-0.5,1.5-2.1,2.4-3.6,2
	c-0.3,0-0.5,0-0.8,0c-0.7,0.2-1.5,0.1-2.2-0.3l0,0c-0.6-0.5-1.1-1.2-1.4-2c-0.1-0.2-0.2-0.4-0.3-0.6l-1.8,0.8c0,0.1,0.1,0.3,0.1,0.4
	l0.1,0.2c1.1,2.6-0.4,3.9-1.3,4.4c-0.9,1.6-2.9,2.2-4.5,1.3c0,0,0,0,0,0l-0.5-0.2l-0.2,0.5c-0.1,0.3-0.2,0.5-0.3,0.7l-0.2,0.6
	l0.7,0.4l0.4,0.2c1.4,0.5,2.1,1.9,1.6,3.3c0,0.2,0,0.3,0,0.5c0.6,1.7-0.4,3.5-2.1,4.1c0,0-0.1,0-0.1,0c-0.2,0.1-0.4,0.2-0.6,0.3
	c0,0.1,0,0.1,0.1,0.1c0.1,0.2,0.2,0.4,0.3,0.7l0.2,0.5c0.1,0.1,0.1,0.3,0.2,0.4l0.6-0.2l0.3-0.1c1.4-0.7,3.1-0.2,3.9,1.1
	c0.2,0.2,0.4,0.4,0.6,0.6c0.6,0.4,1,1,1.3,1.7c0.2,0.8,0,1.6-0.3,2.4c-0.1,0.2-0.2,0.4-0.3,0.7L151.4,195.8z M165.5,193.4
	L165.5,193.4"/>
<path class="st0" d="M132.9,184.6c-0.7,0-1.2-0.6-1.2-1.2c-0.1-12.8,9.3-23.8,22-25.8c0.7-0.1,1.3,0.3,1.4,1c0,0,0,0,0,0
	c0.1,0.7-0.3,1.3-1,1.4l0,0c-11.5,1.8-20,11.7-19.9,23.4C134.1,184.1,133.6,184.6,132.9,184.6z"/>
<polygon class="st0" points="152.8,154.5 153.6,163.4 157.7,158.5 "/>
<path class="st0" d="M161.6,209.1c-0.7,0.3-1.4-0.1-1.7-0.7c-0.3-0.7,0.1-1.4,0.7-1.7c0.3-0.1,0.5-0.1,0.8-0.1
	c11.5-1.8,20-11.7,19.9-23.4c-0.2-0.7,0.2-1.4,0.9-1.6c0.7-0.2,1.4,0.2,1.6,0.9c0.1,0.3,0.1,0.5,0,0.8c0.1,12.8-9.3,23.8-22,25.8
	L161.6,209.1z"/>
<polygon class="st0" points="162.6,212.3 161.8,203.3 157.7,208.2 "/>
<path class="st6" d="M240.5,2c-31.5,0-57.9,24-60.8,55.4h-45.4c-3.2-33.6-33-58.2-66.6-55s-58.2,33-55,66.6s33,58.2,66.6,55
	c6.8-0.6,13.5-2.4,19.7-5.3l19.5,33.8c-26.2,21.3-30.2,59.8-8.9,86s59.8,30.2,86,8.9s30.2-59.8,8.9-86c-2.3-2.9-4.9-5.5-7.7-7.9
	l19.7-34.2c31,13.2,66.9-1.2,80.2-32.2s-1.2-66.9-32.2-80.2C256.9,3.7,248.7,2,240.5,2L240.5,2z M184.3,145.2
	c-16.7-8.3-36.2-8.6-53.1-0.7l-19.5-33.7c12-9.6,19.9-23.3,22.2-38.4h46.2c2.4,15.7,10.8,29.8,23.5,39.4L184.3,145.2z"/>
</svg>
