<svg xmlns="http://www.w3.org/2000/svg" xmlns:xlink="http://www.w3.org/1999/xlink" viewBox="0 0 305.36 262.47"><defs><style>.cls-1{fill:#fc0;}.cls-2,.cls-6,.cls-7{fill:none;}.cls-2,.cls-6{stroke-miterlimit:10;}.cls-2{stroke-width:14px;stroke:url(#Unbenannter_Verlauf_12);}.cls-3,.cls-4,.cls-5{isolation:isolate;}.cls-3{fill:url(#Unbenannter_Verlauf_5);}.cls-4{fill:url(#Unbenannter_Verlauf_5-2);}.cls-5{fill:url(#Unbenannter_Verlauf_5-3);}.cls-6{stroke:#fc0;stroke-width:3px;}.cls-8{fill:#fff;}</style><linearGradient id="Unbenannter_Verlauf_12" x1="64.23" y1="138.48" x2="250.81" y2="138.48" gradientUnits="userSpaceOnUse"><stop offset="0" stop-color="#981869"/><stop offset="0.19" stop-color="#771c65"/><stop offset="0.4" stop-color="#591f62"/><stop offset="0.61" stop-color="#432260"/><stop offset="0.81" stop-color="#36235e"/><stop offset="1" stop-color="#32245e"/></linearGradient><linearGradient id="Unbenannter_Verlauf_5" x1="179.5" y1="62.91" x2="302.05" y2="62.91" xlink:href="#Unbenannter_Verlauf_12"/><linearGradient id="Unbenannter_Verlauf_5-2" x1="12.01" y1="62.91" x2="134.57" y2="62.91" xlink:href="#Unbenannter_Verlauf_12"/><linearGradient id="Unbenannter_Verlauf_5-3" x1="95.75" y1="200.1" x2="218.31" y2="200.1" xlink:href="#Unbenannter_Verlauf_12"/></defs><g id="Lock"><path class="cls-1" d="M158,221,63.36,57.19h189.2ZM89.34,72.19,158,191,226.58,72.19Z"/><polygon class="cls-2" points="157.52 205.28 238.69 64.69 76.35 64.69 157.52 205.28"/><circle class="cls-3" cx="240.77" cy="62.91" r="61.28"/><path class="cls-1" d="M234.24,71.94a2.54,2.54,0,0,1-1.31-.37,2.48,2.48,0,0,1-1-3l7.12-18h-9.21l-1.17-.08-3.94,4.1a2.47,2.47,0,0,1-2.9.54,2.53,2.53,0,0,1-1.45-2.59l.72-6c-.15-.17-.3-.35-.44-.54a1.29,1.29,0,0,1-.22-.71V45a1.26,1.26,0,0,1,.22-.7c.15-.21.31-.42.48-.62l-.74-6.19a2.52,2.52,0,0,1,4.31-2.05l4.19,4.33c.35,0,.7-.05,1.05-.05h9.76L231.92,20a2.48,2.48,0,0,1,4.1-2.62s14.9,16.11,20.62,22.31H261c3.33,0,8.95,1.15,8.95,5.47s-5.62,5.47-8.94,5.47h-6l-19,20.5A2.39,2.39,0,0,1,234.24,71.94ZM230,48.05h10.87a1.23,1.23,0,0,1,1.23,1.24,1.33,1.33,0,0,1-.08.45l-7.78,19.75,19.35-21a1.23,1.23,0,0,1,.91-.39H261s6.45-.15,6.45-3S261,42.17,261,42.17H256.1a1.2,1.2,0,0,1-.91-.39c-5.41-5.87-21-22.67-21-22.67l8.44,21.42a1.27,1.27,0,0,1-.12,1.15,1.24,1.24,0,0,1-1,.54l-11.58,0a10.11,10.11,0,0,0-1.45.11h0a1.23,1.23,0,0,1-1.36-.81l-4.2-4.34a.07.07,0,0,0-.09,0l.8,6.81a1.27,1.27,0,0,1-.34,1l-.13.13.11.12h0a1.21,1.21,0,0,1,.28,1.19l-.76,6.31c0,.06.07.07.08.07l4.41-4.55a1.22,1.22,0,0,1,1-.37Z"/><circle class="cls-4" cx="73.29" cy="62.91" r="61.28"/><path class="cls-1" d="M69.28,61.78H60.6a1.23,1.23,0,0,1-.85-2.13l6.44-6.14H61A1.24,1.24,0,0,1,61,51h8.28a1.25,1.25,0,0,1,1.24,1.24,1.23,1.23,0,0,1-.39.9l-6.44,6.14h5.57a1.24,1.24,0,1,1,0,2.47Z"/><path class="cls-1" d="M88.49,43.8h-16a1.23,1.23,0,0,1-.85-2.13L85.39,28.56H73.25a1.24,1.24,0,1,1,0-2.47H88.49a1.24,1.24,0,0,1,.85,2.13L75.58,41.33H88.49a1.24,1.24,0,1,1,0,2.47Z"/><circle class="cls-5" cx="157.03" cy="200.1" r="61.28"/><path class="cls-1" d="M157.46,191.79A8.12,8.12,0,1,1,165,180.64h0a8.21,8.21,0,0,1,0,6.2,8.1,8.1,0,0,1-7.49,4.95Zm-.1-13.75a5.61,5.61,0,0,0-5.18,7.77,5.78,5.78,0,0,0,7.44,3.1,5.39,5.39,0,0,0,3-3,5.68,5.68,0,0,0-3.07-7.43,5.58,5.58,0,0,0-2.21-.43Z"/><path class="cls-1" d="M153.6,199.29a.54.54,0,0,1-.18,0h-.13a1.92,1.92,0,0,1-.78-.14l-.62-.24a13.39,13.39,0,0,1-2-.92l-.07,0a2.56,2.56,0,0,1-.91-2.36,7.31,7.31,0,0,1,.39-1.2,5.7,5.7,0,0,0,.25-.8,4.62,4.62,0,0,0-.52-.46,5.21,5.21,0,0,1-1.1-1.1c-.25-.37-.26-.39-1.12-.11l-.28.09c-2.17.72-2.94.62-3.85-1.67l-.2-.48c-.09-.21-.18-.4-.25-.57a2.53,2.53,0,0,1-.3-2.06,3.51,3.51,0,0,1,2.13-1.69c.95-.41.91-.62.76-1.19a3.39,3.39,0,0,1,0-1.76l0-.18a2.91,2.91,0,0,0-.42-.25l-.4-.21c-2.21-1.14-2.66-1.78-1.65-4.13l.27-.62c.86-2.07,1.53-2.61,3.83-1.76,1.24.45,1.32.29,1.59-.26a2,2,0,0,1,1-.94c.38-.2.58-.33.22-1.24A4.47,4.47,0,0,1,149,172a2.11,2.11,0,0,1,1.28-2.7l.13,0,2.07-.86a2.06,2.06,0,0,1,2.77.93l0,.06a10,10,0,0,1,.46.93,4.28,4.28,0,0,0,.47.9c.2,0,.41,0,.62,0a5.38,5.38,0,0,1,1.5,0c.54.11.62.12.95-.62,1.24-2.58,2.07-2.68,4.48-1.68l.56.22c2.23.88,2.32,1.86,1.45,4.11-.29.8-.2.85.24,1.15a6.28,6.28,0,0,1,1.45,1.46c.34-.12.67-.21,1-.31s.5-.14.76-.23a2.21,2.21,0,0,1,2.9,1.16l.06.18v.08c.15.4.32.81.51,1.24.1.23.21.47.31.71a2.25,2.25,0,0,1,0,1.9,2.08,2.08,0,0,1-1.32,1.07,1.91,1.91,0,0,0-1.49,2.36c.1,1.37.24,1.35.77,1.51l.1,0a4.19,4.19,0,0,1,.47.24l.22.12a.15.15,0,0,1,.09,0,2.12,2.12,0,0,1,1.22,2.75,2.31,2.31,0,0,1-.18.35,11.42,11.42,0,0,0-.71,1.73,2.19,2.19,0,0,1-2.68,1.56l-.25-.08c-.62-.2-1.19-.39-1.78-.53a26.37,26.37,0,0,0-1.9,1.91,7.43,7.43,0,0,0,.5,1.6v.08a2.07,2.07,0,0,1-1.07,2.74l-.17.07-2.11.88a2.12,2.12,0,0,1-2.83-1l-.05-.09a12.17,12.17,0,0,0-.88-1.63h-2.67c-.31.62-.62,1.14-1,1.73a4.52,4.52,0,0,1-.55.75l-.1.11A1.23,1.23,0,0,1,153.6,199.29ZM151.37,196a13.92,13.92,0,0,0,1.43.62l.28.12v0c.38-.62.67-1.15,1-1.75a1.91,1.91,0,0,1,2-1.2h.07c.55.05,1.09,0,1.66,0H159a2.51,2.51,0,0,1,1.75.83l.08.1a13.13,13.13,0,0,1,1.06,1.86l1.75-.72a9.6,9.6,0,0,1-.58-2v-.1a2.5,2.5,0,0,1,.67-1.86c.81-.87,1.48-1.54,2.14-2.15a2.41,2.41,0,0,1,1.86-.56h.1a19.29,19.29,0,0,1,2,.62,14.19,14.19,0,0,1,.73-1.76l-.26-.13-.18-.1A3.57,3.57,0,0,1,167.7,184a4.27,4.27,0,0,1,2.88-4.75l-.19-.45c-.18-.41-.36-.83-.52-1.27l-.78.24a10.17,10.17,0,0,0-1,.31l-.11,0a2,2,0,0,1-2.42-.76l-.07-.1a5.18,5.18,0,0,0-.9-1,3.09,3.09,0,0,1-1.21-4.07q.21-.53.3-.81l-.33-.13-.62-.24c-.31-.14-.65-.28-.89-.36-.13.23-.3.58-.41.81a3,3,0,0,1-3.66,2,3.88,3.88,0,0,0-.76,0,3.26,3.26,0,0,1-2.19-.29l-.06,0a4.54,4.54,0,0,1-1.37-2,6,6,0,0,0-.26-.56l-1.76.77a1.71,1.71,0,0,0,.13.38,1.09,1.09,0,0,1,.08.15c1.1,2.65-.34,3.92-1.34,4.45-1.38,2.48-3.72,1.66-4.59,1.33l-.45-.16-.23.53c-.11.26-.2.48-.29.68l-.23.56.73.37.37.2a2.63,2.63,0,0,1,1.66,3.28.94.94,0,0,0,0,.47c.35,1.35.22,3.1-2.18,4.12a4.8,4.8,0,0,0-.62.29.27.27,0,0,0,.07.14c.08.19.19.41.29.66l.2.5c.06.15.13.3.18.44l.62-.19.29-.1a3.06,3.06,0,0,1,3.95,1.08,3.31,3.31,0,0,0,.62.56,3.56,3.56,0,0,1,1.36,1.7,3.74,3.74,0,0,1-.33,2.37,1.86,1.86,0,0,0-.29.7Zm14.13-2.4,0,0"/><path class="cls-1" d="M132.81,184.77a1.24,1.24,0,0,1-1.24-1.24,26,26,0,0,1,22.05-25.83,1.24,1.24,0,1,1,.46,2.43H154a23.55,23.55,0,0,0-20,23.39A1.25,1.25,0,0,1,132.81,184.77Z"/><polygon class="cls-1" points="152.79 154.53 153.61 163.53 157.69 158.62 152.79 154.53"/><path class="cls-1" d="M161.59,209.37a1.24,1.24,0,1,1-.19-2.48,23.52,23.52,0,0,0,20-23.38,1.24,1.24,0,0,1,2.48,0,26,26,0,0,1-22.05,25.83A.69.69,0,0,1,161.59,209.37Z"/><polygon class="cls-1" points="162.6 212.52 161.78 203.53 157.69 208.44 162.6 212.52"/><path class="cls-6" d="M240.77,1.64a61.27,61.27,0,0,0-61,55.55H134.29a61.28,61.28,0,1,0-35.46,61.42l19.58,33.92a61.29,61.29,0,1,0,78.5,1.06l19.81-34.31A61.28,61.28,0,1,0,240.77,1.64ZM184.39,145.27a61.28,61.28,0,0,0-53.26-.71l-19.54-33.83a61.22,61.22,0,0,0,22.28-38.54H180.2a61.24,61.24,0,0,0,23.55,39.55Z"/><rect class="cls-7" width="305.36" height="262.47"/><path class="cls-8" d="M137.17,225.1h-3.61v3.05H137l.1-1.28h1.62v2.92h-8.43v-1.28l1.13-.22v-7.66l-1.13-.22v-1.28h8.42v2.92h-1.64l-.1-1.28h-3.41v2.68h3.61Z"/><path class="cls-8" d="M139.67,223.15v-1.29h3.13l.08,1a2.78,2.78,0,0,1,1-.88,2.7,2.7,0,0,1,1.33-.31,2.44,2.44,0,0,1,1.3.33,2.1,2.1,0,0,1,.82,1,2.76,2.76,0,0,1,1-1,2.54,2.54,0,0,1,1.37-.36,2.28,2.28,0,0,1,1.85.81,3.78,3.78,0,0,1,.68,2.46v3.3l1,.22v1.28h-4.09v-1.28l.92-.22V225a2,2,0,0,0-.29-1.25,1.1,1.1,0,0,0-.88-.35,1.51,1.51,0,0,0-.78.2,1.43,1.43,0,0,0-.53.56v.24a1.34,1.34,0,0,1,0,.2v3.71l.87.22v1.28h-3.86v-1.28l.86-.22V225a2.05,2.05,0,0,0-.29-1.24,1.08,1.08,0,0,0-.88-.36,1.67,1.67,0,0,0-.76.17,1.42,1.42,0,0,0-.54.46v4.28l.92.22v1.28h-4.08v-1.28l1-.22v-4.92Z"/><path class="cls-8" d="M163.09,228.79a2.63,2.63,0,0,1-.94.85,2.66,2.66,0,0,1-1.28.3,2.46,2.46,0,0,1-2-.8,3.63,3.63,0,0,1-.71-2.49v-3.28l-.87-.22v-1.29h3v4.8a2,2,0,0,0,.29,1.24,1,1,0,0,0,.86.38,2.11,2.11,0,0,0,.87-.16,1.52,1.52,0,0,0,.61-.48v-4.27l-.94-.22v-1.29h3.07v6.43l1,.22v1.28h-2.83Z"/><path class="cls-8" d="M173.37,224.59h-1.43l-.23-1a1.78,1.78,0,0,0-.55-.29,2.17,2.17,0,0,0-.74-.12,1.42,1.42,0,0,0-.89.25.77.77,0,0,0-.33.64.7.7,0,0,0,.31.59,3.32,3.32,0,0,0,1.26.42A5.24,5.24,0,0,1,173,226a1.88,1.88,0,0,1,.71,1.56,2.11,2.11,0,0,1-.92,1.75,4,4,0,0,1-2.42.67,5.28,5.28,0,0,1-1.68-.26,4.33,4.33,0,0,1-1.36-.77l0-1.78h1.49l.29,1a1.2,1.2,0,0,0,.52.24,3.1,3.1,0,0,0,.69.08,1.68,1.68,0,0,0,1-.24.71.71,0,0,0,.34-.63.73.73,0,0,0-.34-.61,3.5,3.5,0,0,0-1.27-.45,5.28,5.28,0,0,1-2.11-.85,1.82,1.82,0,0,1-.71-1.53,2.21,2.21,0,0,1,.82-1.72,3.4,3.4,0,0,1,2.33-.72,6.22,6.22,0,0,1,1.75.25,3.7,3.7,0,0,1,1.29.64Z"/><path class="cls-8" d="M174.63,225.75a4.23,4.23,0,0,1,1-2.9,3.9,3.9,0,0,1,5.49,0,4.23,4.23,0,0,1,1,2.9v.16a4.24,4.24,0,0,1-1,2.91,3.44,3.44,0,0,1-2.73,1.12,3.48,3.48,0,0,1-2.76-1.12,4.24,4.24,0,0,1-1-2.91Zm2.13.16a3.4,3.4,0,0,0,.39,1.74,1.46,1.46,0,0,0,2.44,0,3.47,3.47,0,0,0,.38-1.73v-.16a3.39,3.39,0,0,0-.39-1.72,1.45,1.45,0,0,0-2.43,0,3.39,3.39,0,0,0-.39,1.72Z"/><path class="cls-8" d="M38.84,86.1H35.23v3.05h3.44l.1-1.28H40.4v2.92H32V89.51l1.13-.22V81.63L32,81.41V80.13h8.42v2.92H38.74l-.1-1.28H35.23v2.68h3.61Z"/><path class="cls-8" d="M41.34,84.15V82.86h3.13l.09,1a2.66,2.66,0,0,1,.95-.88,2.72,2.72,0,0,1,1.33-.31,2.44,2.44,0,0,1,1.3.33,2.1,2.1,0,0,1,.82,1,2.85,2.85,0,0,1,1-1,2.57,2.57,0,0,1,1.37-.36,2.27,2.27,0,0,1,1.85.81A3.78,3.78,0,0,1,53.82,86v3.3l1,.22v1.28H50.76V89.51l.92-.22V86a2,2,0,0,0-.29-1.25,1.09,1.09,0,0,0-.87-.35,1.52,1.52,0,0,0-.79.2,1.5,1.5,0,0,0-.53.56,1.7,1.7,0,0,0,0,.24v3.91l.87.22v1.28H46.22V89.51l.86-.22V86a2.05,2.05,0,0,0-.29-1.24,1.08,1.08,0,0,0-.88-.36,1.67,1.67,0,0,0-.76.17,1.42,1.42,0,0,0-.54.46v4.28l.93.22v1.28H41.45V89.51l1-.22V84.37Z"/><path class="cls-8" d="M59.38,89.51l1-.22V84.37l-1.14-.22V82.86H62.4L62.49,84a2.58,2.58,0,0,1,.72-1,1.59,1.59,0,0,1,1-.34l.35,0a1.61,1.61,0,0,1,.31.07l-.22,1.94-.88,0a1.46,1.46,0,0,0-.78.19,1.19,1.19,0,0,0-.47.52v3.85l1,.22v1.28H59.38Z"/><path class="cls-8" d="M69.19,90.94a3.53,3.53,0,0,1-2.74-1.1,3.9,3.9,0,0,1-1-2.79v-.29a4.39,4.39,0,0,1,1-2.91,3.64,3.64,0,0,1,5.1-.17,3.74,3.74,0,0,1,.88,2.62v1.16H67.64v.05a2,2,0,0,0,.52,1.29,1.65,1.65,0,0,0,1.26.5,3.93,3.93,0,0,0,1.18-.14,5.87,5.87,0,0,0,1-.45L72.2,90a4.31,4.31,0,0,1-1.27.65A5.3,5.3,0,0,1,69.19,90.94ZM69,84.37a1.12,1.12,0,0,0-.94.45A2.41,2.41,0,0,0,67.63,86l0,0h2.62v-.19A1.74,1.74,0,0,0,70,84.77,1.14,1.14,0,0,0,69,84.37Z"/><path class="cls-8" d="M73.22,84.15V82.86h3.11l.1.93a2.52,2.52,0,0,1,.84-.79,2.24,2.24,0,0,1,1.14-.28,2.63,2.63,0,0,1,2.29,1.15,5.14,5.14,0,0,1,.81,3v.16a4.54,4.54,0,0,1-.81,2.82,2.67,2.67,0,0,1-2.27,1.07,2.48,2.48,0,0,1-1.11-.23A2.29,2.29,0,0,1,76.5,90v2.29l1,.22v1.29h-4.2V92.55l1-.22v-8Zm6.15,2.74A3.81,3.81,0,0,0,79,85.08a1.21,1.21,0,0,0-1.14-.7,1.67,1.67,0,0,0-.83.2,1.43,1.43,0,0,0-.53.56v3.47a1.32,1.32,0,0,0,.53.52,1.93,1.93,0,0,0,.84.17A1.22,1.22,0,0,0,79,88.69a3.19,3.19,0,0,0,.36-1.64Z"/><path class="cls-8" d="M82.47,86.75a4.23,4.23,0,0,1,1-2.9,3.9,3.9,0,0,1,5.49,0,4.23,4.23,0,0,1,1,2.9v.16a4.24,4.24,0,0,1-1,2.91,3.44,3.44,0,0,1-2.73,1.12,3.48,3.48,0,0,1-2.76-1.12,4.24,4.24,0,0,1-1-2.91Zm2.13.16A3.4,3.4,0,0,0,85,88.65a1.46,1.46,0,0,0,2.44,0,3.47,3.47,0,0,0,.38-1.73v-.16A3.39,3.39,0,0,0,87.42,85a1.31,1.31,0,0,0-1.22-.66A1.28,1.28,0,0,0,85,85a3.39,3.39,0,0,0-.39,1.72Z"/><path class="cls-8" d="M96.42,89.79a2.72,2.72,0,0,1-.94.85,2.69,2.69,0,0,1-1.28.3,2.45,2.45,0,0,1-2-.8,3.63,3.63,0,0,1-.71-2.49V84.37l-.88-.22V82.86h3v4.8A2.07,2.07,0,0,0,94,88.9a1,1,0,0,0,.86.38,2.16,2.16,0,0,0,.88-.16,1.43,1.43,0,0,0,.6-.48V84.37l-.93-.22V82.86h3.07v6.43l1,.22v1.28H96.56Z"/><path class="cls-8" d="M106.7,85.59h-1.43l-.23-1a1.9,1.9,0,0,0-.55-.29,2.21,2.21,0,0,0-.74-.12,1.41,1.41,0,0,0-.89.25.77.77,0,0,0-.33.64.7.7,0,0,0,.31.59,3.32,3.32,0,0,0,1.26.42,5.14,5.14,0,0,1,2.18.87,1.85,1.85,0,0,1,.71,1.56,2.1,2.1,0,0,1-.91,1.75,4,4,0,0,1-2.43.67,5.28,5.28,0,0,1-1.68-.26,4.44,4.44,0,0,1-1.36-.77l0-1.78h1.5l.29,1a1.2,1.2,0,0,0,.52.24,3.1,3.1,0,0,0,.69.08,1.72,1.72,0,0,0,1-.24.71.71,0,0,0,.34-.63.73.73,0,0,0-.34-.61,3.57,3.57,0,0,0-1.27-.45,5.22,5.22,0,0,1-2.11-.85,1.82,1.82,0,0,1-.72-1.53,2.25,2.25,0,0,1,.82-1.72,3.45,3.45,0,0,1,2.34-.72,6.27,6.27,0,0,1,1.75.25,3.7,3.7,0,0,1,1.29.64Z"/><path class="cls-8" d="M108,86.75a4.19,4.19,0,0,1,1-2.9,3.9,3.9,0,0,1,5.49,0,4.23,4.23,0,0,1,1,2.9v.16a4.24,4.24,0,0,1-1,2.91,3.92,3.92,0,0,1-5.49,0,4.2,4.2,0,0,1-1-2.91Zm2.14.16a3.51,3.51,0,0,0,.38,1.74,1.34,1.34,0,0,0,1.23.65,1.32,1.32,0,0,0,1.22-.66,3.47,3.47,0,0,0,.38-1.73v-.16a3.39,3.39,0,0,0-.39-1.72,1.46,1.46,0,0,0-2.44,0,3.5,3.5,0,0,0-.38,1.72Z"/><path class="cls-8" d="M206.48,86.1h-3.61v3.05h3.45l.09-1.28H208v2.92H199.6V89.51l1.13-.22V81.63l-1.13-.22V80.13H208v2.92h-1.64l-.09-1.28h-3.42v2.68h3.61Z"/><path class="cls-8" d="M209,84.15V82.86h3.13l.09,1a2.66,2.66,0,0,1,1-.88,2.75,2.75,0,0,1,1.33-.31,2.5,2.5,0,0,1,1.31.33,2.16,2.16,0,0,1,.82,1,2.74,2.74,0,0,1,.95-1,2.57,2.57,0,0,1,1.37-.36,2.27,2.27,0,0,1,1.85.81,3.72,3.72,0,0,1,.68,2.46v3.3l1,.22v1.28H218.4V89.51l.92-.22V86a2,2,0,0,0-.29-1.25,1.09,1.09,0,0,0-.87-.35,1.54,1.54,0,0,0-.79.2,1.5,1.5,0,0,0-.53.56,1.7,1.7,0,0,0,0,.24v3.91l.87.22v1.28h-3.86V89.51l.86-.22V86a2,2,0,0,0-.29-1.24,1.06,1.06,0,0,0-.88-.36,1.67,1.67,0,0,0-.76.17,1.58,1.58,0,0,0-.54.46v4.28l.93.22v1.28h-4.09V89.51l1-.22V84.37Z"/><path class="cls-8" d="M230,80.92v1.94h1.39v1.51H230v4a.91.91,0,0,0,.19.66.66.66,0,0,0,.51.2l.38,0,.37-.06.19,1.54a4.86,4.86,0,0,1-.71.17,4.67,4.67,0,0,1-.77,0,2.3,2.3,0,0,1-1.7-.6,2.67,2.67,0,0,1-.6-1.93v-4h-1.16V82.86h1.16V80.92Z"/><path class="cls-8" d="M232.62,89.51l1-.22V84.37l-1.13-.22V82.86h3.12l.1,1.16a2.39,2.39,0,0,1,.72-1,1.58,1.58,0,0,1,1-.34l.36,0a1.8,1.8,0,0,1,.31.07l-.23,1.94-.87,0a1.41,1.41,0,0,0-.78.19,1.13,1.13,0,0,0-.47.52v3.85l1,.22v1.28h-4.19Z"/><path class="cls-8" d="M243.67,90.79c-.06-.13-.11-.27-.16-.41s-.07-.28-.1-.42a3,3,0,0,1-.92.71,2.8,2.8,0,0,1-1.25.27,2.61,2.61,0,0,1-1.85-.63,2.23,2.23,0,0,1-.69-1.73,2,2,0,0,1,.9-1.72,4.7,4.7,0,0,1,2.62-.6h1.09v-.78a1.18,1.18,0,0,0-.33-.89,1.35,1.35,0,0,0-1-.31,2.59,2.59,0,0,0-.66.08,2.25,2.25,0,0,0-.46.2l-.14.85h-1.61V83.66a5.79,5.79,0,0,1,1.34-.67,4.94,4.94,0,0,1,1.66-.27,3.78,3.78,0,0,1,2.39.72,2.47,2.47,0,0,1,.92,2v3.62a1.55,1.55,0,0,0,0,.31l.65.09v1.28Zm1.41-9.38v.17h-1.59l-1.13-1.07-1.13,1.07h-1.55v-.19l2.06-1.75H243Zm-3.26,8a1.81,1.81,0,0,0,.87-.21,1.69,1.69,0,0,0,.62-.52V87.42h-1.09a1.48,1.48,0,0,0-1,.32,1,1,0,0,0-.36.76.8.8,0,0,0,.26.63A1,1,0,0,0,241.82,89.36Z"/><path class="cls-8" d="M246.75,89.51l1-.22V84.37l-1.14-.22V82.86h3.13l.1,1.14a3,3,0,0,1,1-1,2.59,2.59,0,0,1,1.3-.33,2.38,2.38,0,0,1,1.87.75,3.49,3.49,0,0,1,.68,2.37v3.45l1,.22v1.28h-4.08V89.51l.91-.22V85.85a1.65,1.65,0,0,0-.32-1.14,1.32,1.32,0,0,0-1-.33,1.73,1.73,0,0,0-.76.17,1.64,1.64,0,0,0-.56.49v4.25l.86.22v1.28h-4Z"/><path class="cls-8" d="M262.85,85.59h-1.44l-.22-1a1.84,1.84,0,0,0-.56-.29,2.11,2.11,0,0,0-.73-.12,1.46,1.46,0,0,0-.9.25.79.79,0,0,0-.32.64.7.7,0,0,0,.31.59,3.32,3.32,0,0,0,1.26.42,5.14,5.14,0,0,1,2.18.87,1.85,1.85,0,0,1,.71,1.56,2.08,2.08,0,0,1-.92,1.75,4,4,0,0,1-2.42.67,5.28,5.28,0,0,1-1.68-.26,4.44,4.44,0,0,1-1.36-.77l0-1.78h1.5l.29,1a1.2,1.2,0,0,0,.52.24,3.1,3.1,0,0,0,.69.08,1.72,1.72,0,0,0,1-.24.71.71,0,0,0,.34-.63.73.73,0,0,0-.34-.61,3.5,3.5,0,0,0-1.27-.45,5.22,5.22,0,0,1-2.11-.85,1.82,1.82,0,0,1-.72-1.53,2.25,2.25,0,0,1,.82-1.72,3.45,3.45,0,0,1,2.34-.72,6.27,6.27,0,0,1,1.75.25,3.79,3.79,0,0,1,1.29.64Z"/><path class="cls-8" d="M264,89.51l1-.22V84.37l-1.14-.22V82.86h3.28v6.43l1,.22v1.28H264ZM267.21,81h-2.14V79.36h2.14Z"/><path class="cls-8" d="M272.09,80.92v1.94h1.4v1.51h-1.4v4a1,1,0,0,0,.19.66.7.7,0,0,0,.52.2l.38,0,.37-.06.18,1.54a4.32,4.32,0,0,1-.71.17,4.47,4.47,0,0,1-.76,0,2.29,2.29,0,0,1-1.7-.6,2.67,2.67,0,0,1-.6-1.93v-4H268.8V82.86H270V80.92Z"/><path class="cls-8" d="M274.31,86.75a4.19,4.19,0,0,1,1-2.9,3.9,3.9,0,0,1,5.49,0,4.23,4.23,0,0,1,1,2.9v.16a4.24,4.24,0,0,1-1,2.91,3.92,3.92,0,0,1-5.49,0,4.2,4.2,0,0,1-1-2.91Zm2.14.16a3.51,3.51,0,0,0,.38,1.74,1.34,1.34,0,0,0,1.23.65,1.32,1.32,0,0,0,1.22-.66,3.47,3.47,0,0,0,.38-1.73v-.16a3.39,3.39,0,0,0-.39-1.72,1.46,1.46,0,0,0-2.44,0,3.5,3.5,0,0,0-.38,1.72Z"/></g></svg>