<svg xmlns="http://www.w3.org/2000/svg" xmlns:xlink="http://www.w3.org/1999/xlink" viewBox="0 0 305.36 262.47"><defs><style>.cls-1{fill:#fc0;}.cls-2,.cls-6,.cls-7{fill:none;}.cls-2,.cls-6{stroke-miterlimit:10;}.cls-2{stroke-width:14px;stroke:url(#Unbenannter_Verlauf_12);}.cls-3,.cls-4,.cls-5{isolation:isolate;}.cls-3{fill:url(#Unbenannter_Verlauf_5);}.cls-4{fill:url(#Unbenannter_Verlauf_5-2);}.cls-5{fill:url(#Unbenannter_Verlauf_5-3);}.cls-6{stroke:#fc0;stroke-width:3px;}.cls-8{fill:#fff;}</style><linearGradient id="Unbenannter_Verlauf_12" x1="64.23" y1="138.48" x2="250.81" y2="138.48" gradientUnits="userSpaceOnUse"><stop offset="0" stop-color="#981869"/><stop offset="0.19" stop-color="#771c65"/><stop offset="0.4" stop-color="#591f62"/><stop offset="0.61" stop-color="#432260"/><stop offset="0.81" stop-color="#36235e"/><stop offset="1" stop-color="#32245e"/></linearGradient><linearGradient id="Unbenannter_Verlauf_5" x1="179.5" y1="62.91" x2="302.05" y2="62.91" xlink:href="#Unbenannter_Verlauf_12"/><linearGradient id="Unbenannter_Verlauf_5-2" x1="12.01" y1="62.91" x2="134.57" y2="62.91" xlink:href="#Unbenannter_Verlauf_12"/><linearGradient id="Unbenannter_Verlauf_5-3" x1="95.75" y1="200.1" x2="218.31" y2="200.1" xlink:href="#Unbenannter_Verlauf_12"/></defs><g id="Lock"><path class="cls-1" d="M158,221,63.36,57.19h189.2ZM89.34,72.19,158,191,226.58,72.19Z"/><polygon class="cls-2" points="157.52 205.28 238.69 64.69 76.35 64.69 157.52 205.28"/><circle class="cls-3" cx="240.77" cy="62.91" r="61.28"/><path class="cls-1" d="M234.24,65.94a2.54,2.54,0,0,1-1.31-.37,2.48,2.48,0,0,1-1-3l7.12-18h-9.21l-1.17-.08-3.94,4.1a2.47,2.47,0,0,1-2.9.54,2.53,2.53,0,0,1-1.45-2.59l.72-6c-.15-.17-.3-.35-.44-.54a1.29,1.29,0,0,1-.22-.71V39a1.26,1.26,0,0,1,.22-.7c.15-.21.31-.42.48-.62l-.74-6.19a2.52,2.52,0,0,1,4.31-2.05l4.19,4.33c.35,0,.7-.05,1.05-.05h9.76L231.92,14a2.48,2.48,0,0,1,4.1-2.62s14.9,16.11,20.62,22.31H261c3.33,0,8.95,1.15,8.95,5.47s-5.62,5.47-8.94,5.47h-6l-19,20.5A2.39,2.39,0,0,1,234.24,65.94ZM230,42.05h10.87a1.23,1.23,0,0,1,1.23,1.24,1.33,1.33,0,0,1-.08.45l-7.78,19.75,19.35-21a1.23,1.23,0,0,1,.91-.39H261s6.45-.15,6.45-3S261,36.17,261,36.17H256.1a1.2,1.2,0,0,1-.91-.39c-5.41-5.87-21-22.67-21-22.67l8.44,21.42a1.27,1.27,0,0,1-.12,1.15,1.24,1.24,0,0,1-1,.54l-11.58,0a10.11,10.11,0,0,0-1.45.11h0a1.23,1.23,0,0,1-1.36-.81l-4.2-4.34a.07.07,0,0,0-.09,0l.8,6.81a1.27,1.27,0,0,1-.34,1l-.13.13.11.12h0a1.21,1.21,0,0,1,.28,1.19l-.76,6.31c0,.06.07.07.08.07l4.41-4.55a1.22,1.22,0,0,1,1-.37Z"/><circle class="cls-4" cx="73.29" cy="62.91" r="61.28"/><path class="cls-1" d="M69.28,61.78H60.6a1.23,1.23,0,0,1-.85-2.13l6.44-6.14H61A1.24,1.24,0,0,1,61,51h8.28a1.25,1.25,0,0,1,1.24,1.24,1.23,1.23,0,0,1-.39.9l-6.44,6.14h5.57a1.24,1.24,0,1,1,0,2.47Z"/><path class="cls-1" d="M88.49,43.8h-16a1.23,1.23,0,0,1-.85-2.13L85.39,28.56H73.25a1.24,1.24,0,1,1,0-2.47H88.49a1.24,1.24,0,0,1,.85,2.13L75.58,41.33H88.49a1.24,1.24,0,1,1,0,2.47Z"/><circle class="cls-5" cx="157.03" cy="200.1" r="61.28"/><path class="cls-1" d="M157.46,185.79A8.12,8.12,0,1,1,165,174.64h0a8.21,8.21,0,0,1,0,6.2,8.1,8.1,0,0,1-7.49,4.95Zm-.1-13.75a5.61,5.61,0,0,0-5.18,7.77,5.78,5.78,0,0,0,7.44,3.1,5.39,5.39,0,0,0,3-3,5.68,5.68,0,0,0-3.07-7.43,5.58,5.58,0,0,0-2.21-.43Z"/><polygon class="cls-1" points="152.79 148.53 153.61 157.53 157.69 152.62 152.79 148.53"/><path class="cls-1" d="M153.6,193.29a.54.54,0,0,1-.18,0h-.13a1.92,1.92,0,0,1-.78-.14l-.62-.24a13.39,13.39,0,0,1-2-.92l-.07,0a2.56,2.56,0,0,1-.91-2.36,7.31,7.31,0,0,1,.39-1.2,5.7,5.7,0,0,0,.25-.8,4.62,4.62,0,0,0-.52-.46,5.21,5.21,0,0,1-1.1-1.1c-.25-.37-.26-.39-1.12-.11l-.28.09c-2.17.72-2.94.62-3.85-1.67l-.2-.48c-.09-.21-.18-.4-.25-.57a2.53,2.53,0,0,1-.3-2.06,3.51,3.51,0,0,1,2.13-1.69c.95-.41.91-.62.76-1.19a3.39,3.39,0,0,1,0-1.76l0-.18a2.91,2.91,0,0,0-.42-.25l-.4-.21c-2.21-1.14-2.66-1.78-1.65-4.13l.27-.62c.86-2.07,1.53-2.61,3.83-1.76,1.24.45,1.32.29,1.59-.26a2,2,0,0,1,1-.94c.38-.2.58-.33.22-1.24A4.47,4.47,0,0,1,149,166a2.11,2.11,0,0,1,1.28-2.7l.13,0,2.07-.86a2.06,2.06,0,0,1,2.77.93l0,.06a10,10,0,0,1,.46.93,4.28,4.28,0,0,0,.47.9c.2,0,.41,0,.62,0a5.38,5.38,0,0,1,1.5,0c.54.11.62.12.95-.62,1.24-2.58,2.07-2.68,4.48-1.68l.56.22c2.23.88,2.32,1.86,1.45,4.11-.29.8-.2.85.24,1.15a6.28,6.28,0,0,1,1.45,1.46c.34-.12.67-.21,1-.31s.5-.14.76-.23a2.21,2.21,0,0,1,2.9,1.16l.06.18v.08c.15.4.32.81.51,1.24.1.23.21.47.31.71a2.25,2.25,0,0,1,0,1.9,2.08,2.08,0,0,1-1.32,1.07,1.91,1.91,0,0,0-1.49,2.36c.1,1.37.24,1.35.77,1.51l.1,0a4.19,4.19,0,0,1,.47.24l.22.12a.15.15,0,0,1,.09,0,2.12,2.12,0,0,1,1.22,2.75,2.31,2.31,0,0,1-.18.35,11.42,11.42,0,0,0-.71,1.73,2.19,2.19,0,0,1-2.68,1.56l-.25-.08c-.62-.2-1.19-.39-1.78-.53a26.37,26.37,0,0,0-1.9,1.91,7.43,7.43,0,0,0,.5,1.6v.08a2.07,2.07,0,0,1-1.07,2.74l-.17.07-2.11.88a2.12,2.12,0,0,1-2.83-1l-.05-.09a12.17,12.17,0,0,0-.88-1.63h-2.67c-.31.62-.62,1.14-1,1.73a4.52,4.52,0,0,1-.55.75l-.1.11A1.23,1.23,0,0,1,153.6,193.29ZM151.37,190a13.92,13.92,0,0,0,1.43.62l.28.12v0c.38-.62.67-1.15,1-1.75a1.91,1.91,0,0,1,2-1.2h.07c.55.05,1.09,0,1.66,0H159a2.51,2.51,0,0,1,1.75.83l.08.1a13.13,13.13,0,0,1,1.06,1.86l1.75-.72a9.6,9.6,0,0,1-.58-2v-.1a2.5,2.5,0,0,1,.67-1.86c.81-.87,1.48-1.54,2.14-2.15a2.41,2.41,0,0,1,1.86-.56h.1a19.29,19.29,0,0,1,2,.62,14.19,14.19,0,0,1,.73-1.76l-.26-.13-.18-.1A3.57,3.57,0,0,1,167.7,178a4.27,4.27,0,0,1,2.88-4.75l-.19-.45c-.18-.41-.36-.83-.52-1.27l-.78.24a10.17,10.17,0,0,0-1,.31l-.11,0a2,2,0,0,1-2.42-.76l-.07-.1a5.18,5.18,0,0,0-.9-1,3.09,3.09,0,0,1-1.21-4.07q.21-.53.3-.81l-.33-.13-.62-.24c-.31-.14-.65-.28-.89-.36-.13.23-.3.58-.41.81a3,3,0,0,1-3.66,2,3.88,3.88,0,0,0-.76,0,3.26,3.26,0,0,1-2.19-.29l-.06,0a4.54,4.54,0,0,1-1.37-2,6,6,0,0,0-.26-.56l-1.76.77a1.71,1.71,0,0,0,.13.38,1.09,1.09,0,0,1,.08.15c1.1,2.65-.34,3.92-1.34,4.45-1.38,2.48-3.72,1.66-4.59,1.33l-.45-.16-.23.53c-.11.26-.2.48-.29.68l-.23.56.73.37.37.2a2.63,2.63,0,0,1,1.66,3.28.94.94,0,0,0,0,.47c.35,1.35.22,3.1-2.18,4.12a4.8,4.8,0,0,0-.62.29.27.27,0,0,0,.07.14c.08.19.19.41.29.66l.2.5c.06.15.13.3.18.44l.62-.19.29-.1a3.06,3.06,0,0,1,3.95,1.08,3.31,3.31,0,0,0,.62.56,3.56,3.56,0,0,1,1.36,1.7,3.74,3.74,0,0,1-.33,2.37,1.86,1.86,0,0,0-.29.7Zm14.13-2.4,0,0"/><path class="cls-1" d="M132.81,178.77a1.24,1.24,0,0,1-1.24-1.24,26,26,0,0,1,22.05-25.83,1.24,1.24,0,1,1,.46,2.43H154a23.55,23.55,0,0,0-20,23.39A1.25,1.25,0,0,1,132.81,178.77Z"/><path class="cls-1" d="M161.59,203.37a1.24,1.24,0,1,1-.19-2.48,23.52,23.52,0,0,0,20-23.38,1.24,1.24,0,0,1,2.48,0,26,26,0,0,1-22.05,25.83A.69.69,0,0,1,161.59,203.37Z"/><polygon class="cls-1" points="162.6 206.52 161.78 197.53 157.69 202.44 162.6 206.52"/><path class="cls-6" d="M240.77,1.64a61.27,61.27,0,0,0-61,55.55H134.29a61.28,61.28,0,1,0-35.46,61.42l19.58,33.92a61.29,61.29,0,1,0,78.5,1.06l19.81-34.31A61.28,61.28,0,1,0,240.77,1.64ZM184.39,145.27a61.28,61.28,0,0,0-53.26-.71l-19.54-33.83a61.22,61.22,0,0,0,22.28-38.54H180.2a61.24,61.24,0,0,0,23.55,39.55Z"/><rect class="cls-7" width="305.36" height="262.47"/><path class="cls-8" d="M125.13,213.24a5.19,5.19,0,0,1,3,.74,2.53,2.53,0,0,1,1.07,2.23,2.37,2.37,0,0,1-.39,1.34,2.39,2.39,0,0,1-1.16.89,2.31,2.31,0,0,1,1.46.89,2.65,2.65,0,0,1,.49,1.59,2.79,2.79,0,0,1-1,2.35,4.64,4.64,0,0,1-2.91.8h-5.32v-1.3l1.15-.22v-7.78l-1.15-.22v-1.31h4.81Zm-1.49,4.54h1.57a2.13,2.13,0,0,0,1.33-.36,1.21,1.21,0,0,0,.47-1,1.32,1.32,0,0,0-.47-1.11,2.31,2.31,0,0,0-1.41-.35h-1.49Zm0,1.5v3.13h2A2,2,0,0,0,127,222a1.36,1.36,0,0,0,.45-1.11,1.73,1.73,0,0,0-.38-1.22,1.6,1.6,0,0,0-1.22-.42Z"/><path class="cls-8" d="M138.71,216v1.31l-1,.23v3.35h.05l2.61-4.9h3.33v1.31l-1.15.23v5l1.15.22v1.3h-4.37v-1.3l1-.22v-3.37h0l-2.62,4.9h-3.33v-1.3l1.16-.22v-5l-1.16-.23V216h4.37Z"/><path class="cls-8" d="M148.5,222.56a1.25,1.25,0,0,0,.92-.34,1.15,1.15,0,0,0,.35-.9h2l0,0a2.52,2.52,0,0,1-.92,2,3.86,3.86,0,0,1-5.12-.32,4.33,4.33,0,0,1-1-2.92v-.23a4.26,4.26,0,0,1,1-2.92,3.58,3.58,0,0,1,2.85-1.15,5.06,5.06,0,0,1,1.75.29,3.57,3.57,0,0,1,1.28.82l0,2.15H149.9l-.36-1.25a1.22,1.22,0,0,0-.4-.24,1.53,1.53,0,0,0-.54-.09,1.35,1.35,0,0,0-1.3.67,3.37,3.37,0,0,0-.38,1.72v.23a3.59,3.59,0,0,0,.35,1.73A1.27,1.27,0,0,0,148.5,222.56Z"/><path class="cls-8" d="M152.91,222.77l1.16-.22v-5l-1.16-.23V216h9.32v1.31l-1.16.23v5l1.16.22v1.3H158v-1.3l.94-.22V217.7h-2.67v4.85l.94.22v1.3h-4.26Z"/><path class="cls-8" d="M163.28,220a4.33,4.33,0,0,1,1-2.95,4,4,0,0,1,5.58,0,4.31,4.31,0,0,1,1,2.95v.16a4.34,4.34,0,0,1-1,3,4,4,0,0,1-5.58,0,4.34,4.34,0,0,1-1-3Zm2.17.16a3.52,3.52,0,0,0,.39,1.77,1.34,1.34,0,0,0,1.25.66,1.31,1.31,0,0,0,1.23-.67,3.45,3.45,0,0,0,.39-1.76V220a3.51,3.51,0,0,0-.39-1.75,1.34,1.34,0,0,0-1.24-.67,1.32,1.32,0,0,0-1.24.67,3.51,3.51,0,0,0-.39,1.75Z"/><path class="cls-8" d="M176.15,222.77l1.16-.22V217.7h-1.93v1.75a6.49,6.49,0,0,1-.74,3.5,2.73,2.73,0,0,1-2.49,1.12h-.34l0-1.71H172a.92.92,0,0,0,1-.61,7.71,7.71,0,0,0,.22-2.29v-1.89l-1.16-.23V216h8.6v1.31l-1.17.23v5l1.17.22v1.3h-4.49Z"/><path class="cls-8" d="M185.16,216v2.6h1.51a4,4,0,0,1,2.57.73,2.38,2.38,0,0,1,.92,2,2.45,2.45,0,0,1-.93,2,3.91,3.91,0,0,1-2.56.76h-4.84v-1.3l1.16-.22v-5l-1.16-.23V216h3.33Zm1.17,0v1.31l-1.17.23V216Zm-1.17,4.17v2.22h1.51a1.44,1.44,0,0,0,1-.3,1,1,0,0,0,.33-.79,1.11,1.11,0,0,0-.32-.82,1.4,1.4,0,0,0-1-.31Z"/><path class="cls-8" d="M195.65,220.28h-4.19V218.6h4.19Z"/><path class="cls-8" d="M129.2,237.55a1.24,1.24,0,0,0,.81-.23.87.87,0,0,0,.26-.66A.94.94,0,0,0,130,236a1.08,1.08,0,0,0-.82-.27,1.4,1.4,0,0,0-.85.24.76.76,0,0,0-.32.64h-2.11v-.05a1.93,1.93,0,0,1,.88-1.74,3.84,3.84,0,0,1,2.3-.67,4.37,4.37,0,0,1,2.45.61,2,2,0,0,1,.89,1.74,1.64,1.64,0,0,1-.33,1,2.15,2.15,0,0,1-.9.71,2.14,2.14,0,0,1,1,.71,1.84,1.84,0,0,1,.35,1.16,2,2,0,0,1-1,1.77,4.36,4.36,0,0,1-2.52.65,4.21,4.21,0,0,1-2.36-.64,2,2,0,0,1-.94-1.84V240h2.1a.86.86,0,0,0,.34.69,1.48,1.48,0,0,0,1,.28,1.26,1.26,0,0,0,.9-.29,1,1,0,0,0,.3-.72.92.92,0,0,0-.3-.76,1.43,1.43,0,0,0-.91-.24H128v-1.38Z"/><path class="cls-8" d="M133.62,238.25a4.33,4.33,0,0,1,1-2.95,4,4,0,0,1,5.58,0,4.31,4.31,0,0,1,1,2.95v.16a4.32,4.32,0,0,1-1,3,4,4,0,0,1-5.58,0,4.32,4.32,0,0,1-1-3Zm2.17.16a3.52,3.52,0,0,0,.39,1.77,1.34,1.34,0,0,0,1.25.66,1.31,1.31,0,0,0,1.23-.67,3.45,3.45,0,0,0,.39-1.76v-.16a3.45,3.45,0,0,0-.39-1.74,1.34,1.34,0,0,0-1.25-.68,1.3,1.3,0,0,0-1.23.68,3.45,3.45,0,0,0-.39,1.74Z"/><path class="cls-8" d="M146.89,234.3a4.63,4.63,0,0,1,2.5.57,1.86,1.86,0,0,1,.9,1.68,1.49,1.49,0,0,1-.38,1,2.23,2.23,0,0,1-1.06.67,2.57,2.57,0,0,1,1.39.68,1.63,1.63,0,0,1,.47,1.15,2,2,0,0,1-.85,1.72,4.33,4.33,0,0,1-2.45.58h-5v-1.3l1.16-.22v-5l-1.16-.23V234.3h4.52Zm-1.2,3.29H147a1.52,1.52,0,0,0,.84-.21.65.65,0,0,0,.27-.57.7.7,0,0,0-.31-.64,1.62,1.62,0,0,0-.92-.21h-1.2Zm0,1.41v1.7h1.72a1.4,1.4,0,0,0,.85-.21.76.76,0,0,0,.28-.63.78.78,0,0,0-.27-.64,1.32,1.32,0,0,0-.86-.22Z"/><path class="cls-8" d="M156.81,242.35a2.86,2.86,0,0,1-.15-.41,3,3,0,0,1-.11-.43,2.81,2.81,0,0,1-.94.72,2.73,2.73,0,0,1-1.27.28,2.68,2.68,0,0,1-1.87-.64,2.27,2.27,0,0,1-.7-1.76,2,2,0,0,1,.91-1.74,4.65,4.65,0,0,1,2.66-.62h1.11V237a1.19,1.19,0,0,0-.33-.9,1.42,1.42,0,0,0-1-.32,2.31,2.31,0,0,0-.67.09,1.41,1.41,0,0,0-.46.2l-.15.86h-1.63v-1.78a5.76,5.76,0,0,1,1.36-.68,5,5,0,0,1,1.68-.27,3.84,3.84,0,0,1,2.43.73,2.49,2.49,0,0,1,.93,2.08v3.68a3,3,0,0,0,0,.31l.66.09v1.3Zm-1.88-1.45a1.93,1.93,0,0,0,.9-.21,1.8,1.8,0,0,0,.62-.53v-1.23h-1.11a1.5,1.5,0,0,0-1.05.33,1,1,0,0,0-.35.77.79.79,0,0,0,.26.64A1,1,0,0,0,154.93,240.9Z"/><path class="cls-8" d="M160.22,235.61V234.3h4.26v1.31l-.93.23v1.72h2.64v-1.72l-.93-.23V234.3h4.27v1.31l-1.16.23v5l1.16.22v1.3h-4.27v-1.3l.93-.22v-1.6h-2.64v1.6l.93.22v1.3h-4.26v-1.3l1.16-.22v-5Z"/><path class="cls-8" d="M175.12,234.3v1.31l-1,.23v3.35h0l2.62-4.9h3.33v1.31l-1.16.23v5l1.16.22v1.3H175.7v-1.3l1-.22v-3.37h0l-2.62,4.9h-3.33v-1.3l1.16-.22v-5l-1.16-.23V234.3h4.37Z"/><path class="cls-8" d="M185.66,234.3v1.31l-1,.23v3.35h0l2.62-4.9h3.33v1.31l-1.16.23v5l1.16.22v1.3h-4.37v-1.3l1-.22v-3.37h0l-2.62,4.9h-3.33v-1.3l1.16-.22v-5l-1.16-.23V234.3h4.37Z"/><path class="cls-8" d="M48.23,80.18a5.42,5.42,0,0,1,3.13.78,2.66,2.66,0,0,1,1.13,2.33,2.44,2.44,0,0,1-.42,1.41,2.54,2.54,0,0,1-1.22.94,2.41,2.41,0,0,1,1.54.93,2.82,2.82,0,0,1,.51,1.67,2.93,2.93,0,0,1-1.08,2.47,4.87,4.87,0,0,1-3,.84h-5.6V90.18L44.38,90V81.79l-1.21-.24V80.18h5.06Zm-1.57,4.76h1.65a2.29,2.29,0,0,0,1.4-.37,1.3,1.3,0,0,0,.49-1.1,1.36,1.36,0,0,0-.49-1.16,2.45,2.45,0,0,0-1.48-.38H46.66Zm0,1.58V89.8h2.11a2.14,2.14,0,0,0,1.38-.39,1.45,1.45,0,0,0,.48-1.17A1.84,1.84,0,0,0,50.22,87a1.68,1.68,0,0,0-1.28-.44Z"/><path class="cls-8" d="M57.9,90.18,59.12,90V84.71l-1.22-.24V83.1h9.79v1.37l-1.21.24V90l1.21.23v1.37H63.21V90.18l1-.23V84.86H61.39V90l1,.23v1.37H57.9Z"/><path class="cls-8" d="M68.8,87.25a4.5,4.5,0,0,1,1.06-3.1,3.66,3.66,0,0,1,2.92-1.21,3.73,3.73,0,0,1,2.94,1.2,4.57,4.57,0,0,1,1,3.11v.16a4.56,4.56,0,0,1-1,3.11,4.18,4.18,0,0,1-5.86,0,4.51,4.51,0,0,1-1.06-3.11Zm2.28.16a3.61,3.61,0,0,0,.41,1.86,1.4,1.4,0,0,0,1.31.7,1.38,1.38,0,0,0,1.29-.71,3.67,3.67,0,0,0,.41-1.85v-.16a3.69,3.69,0,0,0-.41-1.84,1.41,1.41,0,0,0-1.31-.71,1.38,1.38,0,0,0-1.29.71,3.58,3.58,0,0,0-.41,1.84Z"/><path class="cls-8" d="M78,84.47V83.1h4.53v1.37l-1,.24v1.61h.78l1.26-1.88a4,4,0,0,1,1-1.1,2.5,2.5,0,0,1,2-.27,3.93,3.93,0,0,1,.62.3L86.77,85l-.3-.08h-.21a.9.9,0,0,0-.5.18,1.92,1.92,0,0,0-.45.45l-1.09,1.59,2,2.92,1.15.18v1.37H84.2l-1.85-3.16h-.87V90l1,.23v1.37H78V90.18L79.2,90V84.71Z"/><path class="cls-8" d="M87.71,87.25a4.55,4.55,0,0,1,1.06-3.1,4.16,4.16,0,0,1,5.86,0,4.53,4.53,0,0,1,1.06,3.11v.16a4.51,4.51,0,0,1-1.06,3.11,4.18,4.18,0,0,1-5.86,0,4.56,4.56,0,0,1-1.06-3.11Zm2.28.16a3.71,3.71,0,0,0,.41,1.86,1.41,1.41,0,0,0,1.31.7A1.38,1.38,0,0,0,93,89.26a3.57,3.57,0,0,0,.41-1.85v-.16A3.58,3.58,0,0,0,93,85.41a1.55,1.55,0,0,0-2.6,0A3.69,3.69,0,0,0,90,87.25Z"/><path class="cls-8" d="M100.73,91.72a3.81,3.81,0,0,1-2.92-1.18,4.18,4.18,0,0,1-1.1-3v-.32a4.65,4.65,0,0,1,1-3.1,3.86,3.86,0,0,1,5.43-.18,4,4,0,0,1,.95,2.79V88h-5l0,0a2.27,2.27,0,0,0,.56,1.38A1.74,1.74,0,0,0,101,90a4.44,4.44,0,0,0,1.26-.16,5.51,5.51,0,0,0,1.09-.48l.62,1.41a4.43,4.43,0,0,1-1.36.69A5.65,5.65,0,0,1,100.73,91.72Zm-.21-7a1.2,1.2,0,0,0-1,.48,2.63,2.63,0,0,0-.45,1.28l0,0h2.8v-.21a1.82,1.82,0,0,0-.34-1.16A1.22,1.22,0,0,0,100.52,84.7Z"/><path class="cls-8" d="M211.9,72.14a5.24,5.24,0,0,1,3,.74A2.54,2.54,0,0,1,216,75.1a2.41,2.41,0,0,1-.4,1.35,2.45,2.45,0,0,1-1.16.89,2.23,2.23,0,0,1,1.46.89,2.6,2.6,0,0,1,.49,1.58,2.83,2.83,0,0,1-1,2.36,4.68,4.68,0,0,1-2.91.8h-5.33v-1.3l1.15-.23V73.67l-1.15-.22V72.14h4.81Zm-1.49,4.53H212a2.25,2.25,0,0,0,1.34-.35,1.24,1.24,0,0,0,.47-1,1.29,1.29,0,0,0-.48-1.11,2.29,2.29,0,0,0-1.41-.36h-1.49Zm0,1.51V81.3h2a2,2,0,0,0,1.31-.37,1.36,1.36,0,0,0,.46-1.12,1.71,1.71,0,0,0-.39-1.21,1.58,1.58,0,0,0-1.22-.42Z"/><path class="cls-8" d="M217.21,78.87a4.31,4.31,0,0,1,1-3,4,4,0,0,1,5.58,0,4.29,4.29,0,0,1,1,3V79a4.32,4.32,0,0,1-1,3,4,4,0,0,1-5.58,0,4.32,4.32,0,0,1-1-3Zm2.18.15a3.47,3.47,0,0,0,.38,1.77,1.48,1.48,0,0,0,2.48,0,3.52,3.52,0,0,0,.39-1.77v-.15a3.46,3.46,0,0,0-.39-1.75,1.47,1.47,0,0,0-2.48,0,3.47,3.47,0,0,0-.38,1.75Z"/><path class="cls-8" d="M234.22,74.92a4.75,4.75,0,0,1,2.5.56,1.87,1.87,0,0,1,.9,1.69,1.5,1.5,0,0,1-.38,1,2.37,2.37,0,0,1-1.07.67,2.53,2.53,0,0,1,1.39.67,1.61,1.61,0,0,1,.47,1.16,1.94,1.94,0,0,1-.85,1.72,4.38,4.38,0,0,1-2.44.58h-5v-1.3l1.16-.23v-5l-1.16-.22V74.92h4.52ZM233,78.2h1.32a1.52,1.52,0,0,0,.84-.2.66.66,0,0,0,.27-.57.74.74,0,0,0-.31-.65,1.72,1.72,0,0,0-.92-.2H233Zm0,1.41v1.71h1.72a1.35,1.35,0,0,0,.85-.22.75.75,0,0,0,.27-.63.79.79,0,0,0-.26-.63,1.32,1.32,0,0,0-.86-.23Z"/><path class="cls-8" d="M238.85,76.23V74.92H242l.1.94a2.55,2.55,0,0,1,.86-.81,2.27,2.27,0,0,1,1.16-.28,2.68,2.68,0,0,1,2.32,1.17,5.21,5.21,0,0,1,.82,3.07v.16a4.63,4.63,0,0,1-.82,2.87,2.74,2.74,0,0,1-2.31,1.08,2.49,2.49,0,0,1-1.12-.23,2.33,2.33,0,0,1-.84-.69v2.33l1,.22v1.31H239V84.75l1-.22V76.45ZM245.1,79a3.9,3.9,0,0,0-.38-1.84,1.22,1.22,0,0,0-1.16-.71,1.68,1.68,0,0,0-.84.2,1.35,1.35,0,0,0-.54.57v3.53a1.29,1.29,0,0,0,.54.52,1.86,1.86,0,0,0,.86.18,1.24,1.24,0,0,0,1.15-.62,3.21,3.21,0,0,0,.37-1.67Z"/><path class="cls-8" d="M252.09,83.12A3.62,3.62,0,0,1,249.31,82a4,4,0,0,1-1-2.84v-.29a4.46,4.46,0,0,1,1-3,3.69,3.69,0,0,1,5.18-.17,3.79,3.79,0,0,1,.9,2.66v1.18h-4.81v0a2.1,2.1,0,0,0,.53,1.3,1.62,1.62,0,0,0,1.28.52,4.08,4.08,0,0,0,1.2-.15,4.81,4.81,0,0,0,1-.46l.59,1.34a4.11,4.11,0,0,1-1.29.67A5.77,5.77,0,0,1,252.09,83.12Zm-.19-6.68a1.14,1.14,0,0,0-1,.46,2.34,2.34,0,0,0-.43,1.22l0,0h2.66V78a1.75,1.75,0,0,0-.32-1.1A1.17,1.17,0,0,0,251.9,76.44Z"/><path class="cls-8" d="M262.46,80.44h.05l2.06-5.52h3.88v1.31l-1.15.22v5l1.15.23V83h-4.14v-1.3l.81-.23V78.18h0L263.21,83h-1.46l-1.82-4.71h0v3.17l.82.23V83h-4.15v-1.3l1.16-.23v-5l-1.16-.22V74.92h3.85Z"/><path class="cls-8" d="M273.9,81.67l1-.23V80.15h-1.31L272.07,83h-2.38v-1.3l1-.15,1-1.73a2.64,2.64,0,0,1-1.13-.9,2.24,2.24,0,0,1-.39-1.3,2.34,2.34,0,0,1,.93-1.92,3.89,3.89,0,0,1,2.51-.75h4.7v1.31l-1.15.22v5l1.15.23V83H273.9Zm-1.62-4a1,1,0,0,0,.32.72,1.28,1.28,0,0,0,.92.31h1.42v-2.1h-1.38a1.3,1.3,0,0,0-.94.32A1,1,0,0,0,272.28,77.65Z"/><path class="cls-8" d="M205.78,100l1.16-.23v-5l-1.16-.22V93.2h9.32v1.31l-1.16.22v5l1.16.23v1.3h-4.27V100l.94-.23V94.88H209.1v4.84l.94.23v1.3h-4.26Z"/><path class="cls-8" d="M220,101.4a3.66,3.66,0,0,1-2.79-1.11,4,4,0,0,1-1-2.84v-.29a4.41,4.41,0,0,1,1-3,3.68,3.68,0,0,1,5.17-.17,3.79,3.79,0,0,1,.9,2.66v1.18h-4.8l0,0a2.1,2.1,0,0,0,.53,1.3,1.66,1.66,0,0,0,1.29.52,4,4,0,0,0,1.19-.15,5.61,5.61,0,0,0,1-.45l.58,1.33a4.11,4.11,0,0,1-1.29.67A5.38,5.38,0,0,1,220,101.4Zm-.2-6.68a1.13,1.13,0,0,0-.95.47,2.36,2.36,0,0,0-.43,1.21l0,0h2.67v-.2a1.7,1.7,0,0,0-.33-1.1A1.15,1.15,0,0,0,219.81,94.72Z"/><path class="cls-8" d="M224.11,94.51V93.2h3.15l.1.94a2.64,2.64,0,0,1,.86-.81,2.4,2.4,0,0,1,1.16-.28,2.67,2.67,0,0,1,2.32,1.17,5.21,5.21,0,0,1,.83,3.07v.16a4.61,4.61,0,0,1-.83,2.87,2.74,2.74,0,0,1-2.31,1.08,2.52,2.52,0,0,1-1.12-.23,2.33,2.33,0,0,1-.84-.69v2.33l1,.22v1.31h-4.26V103l1.05-.22V94.73Zm6.24,2.78a3.78,3.78,0,0,0-.38-1.84,1.22,1.22,0,0,0-1.16-.71,1.67,1.67,0,0,0-.83.2,1.38,1.38,0,0,0-.55.57V99a1.31,1.31,0,0,0,.55.52,1.81,1.81,0,0,0,.85.18,1.27,1.27,0,0,0,1.16-.62,3.31,3.31,0,0,0,.36-1.67Z"/><path class="cls-8" d="M237.35,101.4a3.65,3.65,0,0,1-2.79-1.11,4,4,0,0,1-1-2.84v-.29a4.41,4.41,0,0,1,1-3,3.68,3.68,0,0,1,5.17-.17,3.79,3.79,0,0,1,.9,2.66v1.18h-4.8l0,0a2.1,2.1,0,0,0,.53,1.3,1.66,1.66,0,0,0,1.29.52,4,4,0,0,0,1.19-.15,5.61,5.61,0,0,0,1-.45l.58,1.33a4.11,4.11,0,0,1-1.29.67A5.42,5.42,0,0,1,237.35,101.4Zm-.2-6.68a1.13,1.13,0,0,0-1,.47,2.36,2.36,0,0,0-.43,1.21l0,0h2.66v-.2a1.69,1.69,0,0,0-.32-1.1A1.16,1.16,0,0,0,237.15,94.72Z"/><path class="cls-8" d="M242.2,99.57a4.46,4.46,0,0,0,1-1.52,7.4,7.4,0,0,0,.29-2.13V94.73l-1.14-.22V93.2h8.26v1.31l-1.16.22v4.85h1.17l-.15,4.08h-2v-2.41h-4.75v2.41h-2l-.19-4.09Zm3.47-3.65a9.7,9.7,0,0,1-.31,2.1,6,6,0,0,1-.67,1.55h2.62V94.93h-1.63Z"/><path class="cls-8" d="M256.76,101.25c-.06-.14-.11-.27-.16-.41a3.77,3.77,0,0,1-.1-.43,2.91,2.91,0,0,1-.94.72,2.86,2.86,0,0,1-1.27.27,2.66,2.66,0,0,1-1.88-.64,2.27,2.27,0,0,1-.69-1.75,2,2,0,0,1,.9-1.75,4.79,4.79,0,0,1,2.67-.62h1.11v-.78a1.19,1.19,0,0,0-.34-.9,1.34,1.34,0,0,0-1-.32,2.21,2.21,0,0,0-.66.08,1.88,1.88,0,0,0-.47.21l-.14.86h-1.64V94a6.24,6.24,0,0,1,1.37-.67,4.76,4.76,0,0,1,1.67-.28,3.86,3.86,0,0,1,2.43.73,2.52,2.52,0,0,1,.94,2.09v3.68c0,.1,0,.21,0,.31l.67.09v1.3Zm-1.88-1.45a1.89,1.89,0,0,0,.89-.21,1.77,1.77,0,0,0,.63-.54V97.83h-1.11a1.5,1.5,0,0,0-1,.32,1,1,0,0,0-.36.78.81.81,0,0,0,.27.64A1.08,1.08,0,0,0,254.88,99.8Z"/><path class="cls-8" d="M264.15,93.2v1.3l-.93.22v1a1.42,1.42,0,0,0,.35,1.1,1.85,1.85,0,0,0,1.19.31,3.27,3.27,0,0,0,.54,0,3.78,3.78,0,0,0,.56-.08V94.73l-.94-.22V93.2h4.27v1.31l-1.16.22v5l1.16.23v1.3H264.7V100l1.16-.23v-1a5.39,5.39,0,0,1-.56.08l-.54,0a4.35,4.35,0,0,1-2.75-.76,2.78,2.78,0,0,1-1-2.32v-1l-1.15-.22V93.2h4.25Z"/><path class="cls-8" d="M274.77,93.2v1.31l-1,.22v3.36h0l2.62-4.89h3.32v1.31l-1.15.22v5l1.15.23v1.3h-4.36V100l1-.23V96.35h-.05l-2.61,4.9h-3.34V100l1.16-.23v-5l-1.16-.22V93.2h4.38Z"/></g></svg>