<svg xmlns="http://www.w3.org/2000/svg" xmlns:xlink="http://www.w3.org/1999/xlink" viewBox="0 0 194.02 194.02"><defs><style>.cls-1{fill:#eee;}.cls-2{fill:#fff;}.cls-3,.cls-4{stroke-miterlimit:10;}.cls-3{isolation:isolate;fill:url(#Unbenannter_Verlauf_5);stroke:url(#Unbenannter_Verlauf_5-2);}.cls-4{fill:none;stroke:#fc0;stroke-width:5px;}.cls-5{fill:url(#Unbenannter_Verlauf_19);}.cls-6{fill:#0078d4;}.cls-7{fill:url(#Unbenannter_Verlauf_20);}.cls-8{fill:url(#Unbenannter_Verlauf_21);}</style><linearGradient id="Unbenannter_Verlauf_5" x1="0.5" y1="97.01" x2="193.52" y2="97.01" gradientUnits="userSpaceOnUse"><stop offset="0" stop-color="#981869"/><stop offset="0.19" stop-color="#771c65"/><stop offset="0.4" stop-color="#591f62"/><stop offset="0.61" stop-color="#432260"/><stop offset="0.81" stop-color="#36235e"/><stop offset="1" stop-color="#32245e"/></linearGradient><linearGradient id="Unbenannter_Verlauf_5-2" x1="0" y1="97.01" x2="194.02" y2="97.01" xlink:href="#Unbenannter_Verlauf_5"/><linearGradient id="Unbenannter_Verlauf_19" x1="-4407.06" y1="3336.38" x2="-4414.73" y2="3313.73" gradientTransform="matrix(1.56, 0, 0, -1.56, 6973, 5280.72)" gradientUnits="userSpaceOnUse"><stop offset="0" stop-color="#114a8b"/><stop offset="1" stop-color="#0669bc"/></linearGradient><linearGradient id="Unbenannter_Verlauf_20" x1="-4403.54" y1="3325.6" x2="-4405.31" y2="3325" gradientTransform="matrix(1.56, 0, 0, -1.56, 6973, 5280.72)" gradientUnits="userSpaceOnUse"><stop offset="0" stop-opacity="0.3"/><stop offset="0.07" stop-opacity="0.2"/><stop offset="0.32" stop-opacity="0.1"/><stop offset="0.62" stop-opacity="0.05"/><stop offset="1" stop-opacity="0"/></linearGradient><linearGradient id="Unbenannter_Verlauf_21" x1="-4405.73" y1="3336.16" x2="-4397.31" y2="3313.74" gradientTransform="matrix(1.56, 0, 0, -1.56, 6973, 5280.72)" gradientUnits="userSpaceOnUse"><stop offset="0" stop-color="#3ccbf4"/><stop offset="1" stop-color="#2892df"/></linearGradient></defs><g id="Lock"><rect class="cls-1" x="-1143.95" y="-692.95" width="1921.02" height="3438.64"/><rect class="cls-2" x="-137.99" y="-35.24" width="479.49" height="496.34" rx="10"/><circle class="cls-3" cx="97.01" cy="97.01" r="96.51"/><rect class="cls-4" x="43.46" y="61.76" width="109.84" height="62.68" rx="11"/><path class="cls-5" d="M93.41,74.29H105L93,109.76A1.84,1.84,0,0,1,91.22,111h-9a1.84,1.84,0,0,1-1.84-1.84,1.7,1.7,0,0,1,.1-.59l11.17-33a1.85,1.85,0,0,1,1.75-1.25Z"/><path class="cls-6" d="M110.17,98.09H91.88a.86.86,0,0,0-.84.85.87.87,0,0,0,.26.61l11.76,11a1.83,1.83,0,0,0,1.26.49h10.36Z"/><path class="cls-7" d="M93.41,74.29a1.82,1.82,0,0,0-1.75,1.28l-11.13,33a1.83,1.83,0,0,0,1.14,2.33,1.7,1.7,0,0,0,.59.1h9.23A2,2,0,0,0,93,109.72l2.22-6.55,7.94,7.41a1.85,1.85,0,0,0,1.18.42h10.32l-4.53-12.93H96.91L105,74.26Z"/><path class="cls-8" d="M108.15,75.54a1.85,1.85,0,0,0-1.74-1.25H93.55a1.83,1.83,0,0,1,1.74,1.25l11.17,33.06a1.83,1.83,0,0,1-1.74,2.43h12.86a1.83,1.83,0,0,0,1.82-1.84,2,2,0,0,0-.09-.59Z"/><rect class="cls-4" x="82.26" y="125.28" width="32.26" height="8.93"/><rect class="cls-4" x="73.57" y="134.2" width="49.62" height="5.71"/></g></svg>