<?xml version="1.0" encoding="UTF-8"?>
<svg id="Ebene_1" data-name="Ebene 1" xmlns="http://www.w3.org/2000/svg" xmlns:xlink="http://www.w3.org/1999/xlink" version="1.1" viewBox="0 0 194 194">
  <defs>
    <style>
      .cls-1 {
        fill: #eee;
      }

      .cls-1, .cls-2, .cls-3, .cls-4, .cls-5 {
        stroke-width: 0px;
      }

      .cls-2 {
        fill: #0078d4;
      }

      .cls-3 {
        fill: url(#Unbenannter_Verlauf_5);
      }

      .cls-4 {
        fill: url(#Unbenannter_Verlauf_4);
      }

      .cls-5 {
        fill: url(#Unbenannter_Verlauf_3);
      }

      .cls-6 {
        fill: url(#Unbenannter_Verlauf);
        isolation: isolate;
        stroke: url(#Unbenannter_Verlauf_2);
      }

      .cls-6, .cls-7 {
        stroke-miterlimit: 10;
      }

      .cls-7 {
        fill: none;
        stroke: #fc0;
        stroke-width: 5px;
      }
    </style>
    <linearGradient id="Unbenannter_Verlauf" data-name="Unbenannter Verlauf" x1=".5" y1="99" x2="193.5" y2="99" gradientTransform="translate(0 196) scale(1 -1)" gradientUnits="userSpaceOnUse">
      <stop offset="0" stop-color="#981869"/>
      <stop offset=".2" stop-color="#771c65"/>
      <stop offset=".4" stop-color="#591f62"/>
      <stop offset=".6" stop-color="#432260"/>
      <stop offset=".8" stop-color="#36235e"/>
      <stop offset="1" stop-color="#32245e"/>
    </linearGradient>
    <linearGradient id="Unbenannter_Verlauf_2" data-name="Unbenannter Verlauf 2" x1="0" y1="99" x2="194" y2="99" gradientTransform="translate(0 196) scale(1 -1)" gradientUnits="userSpaceOnUse">
      <stop offset="0" stop-color="#981869"/>
      <stop offset=".2" stop-color="#771c65"/>
      <stop offset=".4" stop-color="#591f62"/>
      <stop offset=".6" stop-color="#432260"/>
      <stop offset=".8" stop-color="#36235e"/>
      <stop offset="1" stop-color="#32245e"/>
    </linearGradient>
    <linearGradient id="Unbenannter_Verlauf_3" data-name="Unbenannter Verlauf 3" x1="-4716.5" y1="-2415" x2="-4724.2" y2="-2392.4" gradientTransform="translate(7455.7 3843.4) scale(1.6)" gradientUnits="userSpaceOnUse">
      <stop offset="0" stop-color="#114a8b"/>
      <stop offset="1" stop-color="#0669bc"/>
    </linearGradient>
    <linearGradient id="Unbenannter_Verlauf_4" data-name="Unbenannter Verlauf 4" x1="-4713" y1="-2404.3" x2="-4714.7" y2="-2403.7" gradientTransform="translate(7455.7 3843.4) scale(1.6)" gradientUnits="userSpaceOnUse">
      <stop offset="0" stop-color="#000" stop-opacity=".3"/>
      <stop offset="0" stop-color="#000" stop-opacity=".2"/>
      <stop offset=".3" stop-color="#000" stop-opacity=".1"/>
      <stop offset=".6" stop-color="#000" stop-opacity="0"/>
      <stop offset="1" stop-color="#000" stop-opacity="0"/>
    </linearGradient>
    <linearGradient id="Unbenannter_Verlauf_5" data-name="Unbenannter Verlauf 5" x1="-4715.2" y1="-2414.8" x2="-4706.7" y2="-2392.4" gradientTransform="translate(7455.7 3843.4) scale(1.6)" gradientUnits="userSpaceOnUse">
      <stop offset="0" stop-color="#3ccbf4"/>
      <stop offset="1" stop-color="#2892df"/>
    </linearGradient>
  </defs>
  <g id="Lock">
    <line class="cls-1" x1="777.1" y1="2745.7" x2="-1143.9" y2="2745.7"/>
    <circle class="cls-6" cx="97" cy="97" r="96.5"/>
    <rect class="cls-7" x="43.5" y="61.8" width="109.8" height="62.7" rx="11" ry="11"/>
    <path class="cls-5" d="M93.4,74.3h11.6l-12,35.5c-.3.8-1,1.3-1.8,1.2h-9c-1,0-1.8-.8-1.8-1.8,0-.2,0-.4,0-.6l11.2-33c.3-.7,1-1.2,1.8-1.2h0Z"/>
    <path class="cls-2" d="M110.2,98.1h-18.3c-.5,0-.8.4-.8.8,0,.2,0,.4.3.6l11.8,11c.3.3.8.5,1.3.5h10.4l-4.5-12.9Z"/>
    <path class="cls-4" d="M93.4,74.3c-.8,0-1.5.5-1.8,1.3l-11.1,33c-.3,1,.2,2,1.1,2.3,0,0,0,0,0,0,.2,0,.4.1.6,0h9.2c.7-.1,1.3-.6,1.5-1.3l2.2-6.6,7.9,7.4c.3.3.7.4,1.2.4h10.3l-4.5-12.9h-13.2l8.1-23.8h-11.6Z"/>
    <path class="cls-3" d="M108.2,75.5c-.3-.7-1-1.2-1.7-1.2h-12.9c.8,0,1.5.5,1.7,1.2l11.2,33.1c.3,1-.2,2-1.1,2.3-.2,0-.4.1-.6.1h12.9c1,0,1.8-.8,1.8-1.8h0c0-.2,0-.4,0-.6l-11.2-33.1Z"/>
    <rect class="cls-7" x="82.3" y="125.3" width="32.3" height="8.9"/>
    <rect class="cls-7" x="73.6" y="134.2" width="49.6" height="5.7"/>
  </g>
</svg>