<svg xmlns="http://www.w3.org/2000/svg" xmlns:xlink="http://www.w3.org/1999/xlink" viewBox="0 0 546.89 235"><defs><style>.cls-1{fill:#eee;}.cls-2{fill:url(#Unbenannter_Verlauf_12);}.cls-3,.cls-6{fill:#39f;}.cls-3{opacity:0.4;}.cls-4{fill:#fc0;}.cls-5{fill:#fff;}.cls-7{fill:#906;}.cls-11,.cls-12,.cls-8,.cls-9{fill:none;}.cls-8{stroke:#fc0;}.cls-11,.cls-8,.cls-9{stroke-miterlimit:10;stroke-width:3px;}.cls-12,.cls-9{stroke:#39f;}.cls-10{fill:#fdfeff;}.cls-11{stroke:#906;}.cls-12{stroke-linecap:round;stroke-linejoin:round;stroke-width:4px;}</style><linearGradient id="Unbenannter_Verlauf_12" y1="118.21" x2="546.89" y2="118.21" gradientUnits="userSpaceOnUse"><stop offset="0" stop-color="#981869"/><stop offset="0.19" stop-color="#771c65"/><stop offset="0.4" stop-color="#591f62"/><stop offset="0.61" stop-color="#432260"/><stop offset="0.81" stop-color="#36235e"/><stop offset="1" stop-color="#32245e"/></linearGradient></defs><g id="Lock"><rect class="cls-1" x="-707.74" y="-2154.46" width="1921.02" height="3438.64"/><rect class="cls-2" y="0.71" width="546.89" height="235" rx="7"/><path class="cls-3" d="M540.12,0H427L546.89,119.86V6.77A6.77,6.77,0,0,0,540.12,0Z"/><path class="cls-4" d="M141.34,52.65c7.66,0,13.61,6.46,13.61,12V71.1a2.33,2.33,0,0,1-.08.59,4.58,4.58,0,0,1,.08.83,4.89,4.89,0,0,1-2.57,4.25,10.91,10.91,0,0,1-3.14,6.6A9.07,9.07,0,0,1,153,85.18a6.64,6.64,0,0,1,2.68,5.31v5.35a2.33,2.33,0,0,1-2.33,2.33h-24A2.34,2.34,0,0,1,127,95.84V90.49a6.68,6.68,0,0,1,2.77-5.37,8.55,8.55,0,0,1,3.89-1.79,11.83,11.83,0,0,1-3.21-6.45,4.8,4.8,0,0,1-2.69-3.61,1.84,1.84,0,0,1,0-.33v-.83a1.84,1.84,0,0,1,0-.33,2.17,2.17,0,0,1,0-.25,2.43,2.43,0,0,1-.07-.55v-6.3c0-5.57,6-12,13.61-12m0-2.33c-9.12,0-15.93,7.58-15.93,14.36V71a5.44,5.44,0,0,0,0,.57,5.55,5.55,0,0,0,0,.56v.83a4.77,4.77,0,0,0,0,.66,7,7,0,0,0,2.91,4.74,14.32,14.32,0,0,0,1.55,3.88,10.69,10.69,0,0,0-1.58,1.07,9,9,0,0,0-3.66,7.2v5.35a4.66,4.66,0,0,0,4.65,4.65h24A4.65,4.65,0,0,0,158,95.84V90.49a9,9,0,0,0-3.57-7.14,10.46,10.46,0,0,0-1.48-1,13.49,13.49,0,0,0,1.58-4.21,7.13,7.13,0,0,0,2.74-5.61,6.79,6.79,0,0,0,0-.78,4.58,4.58,0,0,0,0-.64V64.68c0-6.78-6.81-14.36-15.93-14.36Z"/><path class="cls-5" d="M153,85.15a8.86,8.86,0,0,0-3.72-1.78,10.91,10.91,0,0,0,3.14-6.6A4.89,4.89,0,0,0,155,72.52a4.58,4.58,0,0,0-.08-.83,2.33,2.33,0,0,0,.08-.59V64.68c0-5.56-5.94-12-13.61-12s-13.61,6.47-13.61,12V71a2.43,2.43,0,0,0,.07.55,2.17,2.17,0,0,0,0,.25,1.84,1.84,0,0,0,0,.33v.83a1.84,1.84,0,0,0,0,.33,4.8,4.8,0,0,0,2.69,3.61,11.83,11.83,0,0,0,3.21,6.45,8.87,8.87,0,0,0-3.93,1.82A6.69,6.69,0,0,0,127,90.49v5.35a2.33,2.33,0,0,0,2.33,2.32h24a2.32,2.32,0,0,0,2.33-2.32V90.49A6.68,6.68,0,0,0,153,85.15ZM152,70.33a3.11,3.11,0,0,0-1.34-.65v-.42a.57.57,0,0,0-.25-.47c-4.22-3-3.59-5.48-3.56-5.58a.58.58,0,0,0-1-.48c-2.41,3.93-7,2.65-10,1.8a6.33,6.33,0,0,0-2.72-.45.58.58,0,0,0-.43.49l-.64,4.91a3.25,3.25,0,0,0-1.41.61V64.68c0-4.13,4.77-9.12,10.7-9.12s10.7,5,10.7,9.12ZM133.23,75.2c0-1,0-1.81,0-2.57s0-1.49,0-2.53v0l.63-4.83a15.1,15.1,0,0,1,1.75.43c2.81.79,7.3,2,10.28-1,.28,1.24,1.19,3,3.73,4.89v6.06a8.16,8.16,0,0,1-8.2,8.1A8.44,8.44,0,0,1,133.23,75.2Zm17.47-.67V70.88a1.91,1.91,0,0,1,0,3.65Zm-20.06-2.38A1.94,1.94,0,0,1,132,70.68v3.68a1.89,1.89,0,0,1-1.35-1.42Zm.89,15.28a6.07,6.07,0,0,1,3-1.31,4.06,4.06,0,0,1,.87-.06h1a.59.59,0,0,0,.59-.58V83.73a8.63,8.63,0,0,0,4.3,1.16,9.43,9.43,0,0,0,4.31-1v1.64a.58.58,0,0,0,.58.58h1a3.9,3.9,0,0,1,.94.08,5.9,5.9,0,0,1,3,1.31,3.77,3.77,0,0,1,1.6,3v4.77H129.91V90.49A3.8,3.8,0,0,1,131.53,87.43Z"/><path class="cls-5" d="M144.36,72.52a.9.9,0,0,0-.84-.83.83.83,0,1,0,.84.83Z"/><circle class="cls-5" cx="139.16" cy="72.52" r="0.84"/><path class="cls-5" d="M144.22,78.31a.57.57,0,0,0-.1-.81.57.57,0,0,0-.81.1,2.49,2.49,0,0,1-2,1,2.32,2.32,0,0,1-1.94-1,.58.58,0,0,0-.8-.16.59.59,0,0,0-.17.81,3.54,3.54,0,0,0,2.91,1.51A3.59,3.59,0,0,0,144.22,78.31Z"/><path class="cls-6" d="M275.88,52.68a9.87,9.87,0,0,1,9.59,7.53h.3A3.78,3.78,0,0,1,289.53,64a3.88,3.88,0,0,1-1.77,3.19,2.76,2.76,0,0,1,.83,2A2.83,2.83,0,0,1,285.84,72l-.14.17a9.88,9.88,0,0,1-6,8v3h.87a6,6,0,0,1,4.47,1.9A6.31,6.31,0,0,1,287,89.5v6.35H264.6V89.5a6,6,0,0,1,1.92-4.45,6.45,6.45,0,0,1,4.48-1.9h1.07V80.39h.2v-.16a9.88,9.88,0,0,1-6.21-8.09l-.12-.17a2.66,2.66,0,0,1-1.17-.28,2.8,2.8,0,0,1-.61-4.67l-.1-.48-.21.63a3.9,3.9,0,0,1-1.79-3.2,3.79,3.79,0,0,1,3.77-3.77H266l.37-.46a9.88,9.88,0,0,1,9.47-7.06h0m0-4.64a14.62,14.62,0,0,0-13,8.06,8.35,8.35,0,0,0-4.29,12.1,7.57,7.57,0,0,0-.06,1,7.43,7.43,0,0,0,3.52,6.33,14.45,14.45,0,0,0,2.78,5,10.89,10.89,0,0,0-1.5,1.23A10.6,10.6,0,0,0,260,89.5v6.35a4.63,4.63,0,0,0,4.63,4.64H287a4.64,4.64,0,0,0,4.64-4.64V89.5a11,11,0,0,0-3.21-7.66,10.2,10.2,0,0,0-1.53-1.34,14.52,14.52,0,0,0,2.82-5,7.5,7.5,0,0,0,3.52-6.32,7.72,7.72,0,0,0-.09-1.18,8.36,8.36,0,0,0-4.21-11.78A14.48,14.48,0,0,0,275.88,48Z"/><path class="cls-5" d="M287.22,58.07a12.17,12.17,0,0,0-11.34-7.71A12.3,12.3,0,0,0,264.55,58a6.06,6.06,0,0,0-3.49,9.7,4.9,4.9,0,0,0-.21,1.43,5.15,5.15,0,0,0,2.88,4.62l.29.13A12.14,12.14,0,0,0,269,81.09a8.91,8.91,0,0,0-4,2.28,8.3,8.3,0,0,0-2.64,6.13v6.35a2.31,2.31,0,0,0,2.31,2.32H287a2.32,2.32,0,0,0,2.32-2.32V89.5a8.67,8.67,0,0,0-2.56-6,8.29,8.29,0,0,0-4-2.35,12.15,12.15,0,0,0,5-7.21,5.18,5.18,0,0,0,3.17-4.74,4.89,4.89,0,0,0-.25-1.58,6.06,6.06,0,0,0-3.44-9.5Zm-.81,37.2H265.18V89.46a5.47,5.47,0,0,1,1.75-4.07A5.85,5.85,0,0,1,271,83.64h1.07a.58.58,0,0,0,.58-.58v-2a10.13,10.13,0,0,0,2.77.4h.92a9.79,9.79,0,0,0,2.61-.36v1.91a.58.58,0,0,0,.58.58h1.07a5.45,5.45,0,0,1,4.06,1.75,5.83,5.83,0,0,1,1.75,4.07Zm-6.82-15.55h-.06a.54.54,0,0,0-.42.19,8.79,8.79,0,0,1-2.77.45h-.92a8.83,8.83,0,0,1-3.09-.57.34.34,0,0,0-.12,0,8.87,8.87,0,0,1-5.64-8.24V62.1a9.07,9.07,0,0,1,.16-1.66.48.48,0,0,0,.06-.24h0a8.86,8.86,0,0,1,8.64-6.94h.92a8.85,8.85,0,0,1,8.56,6.66.55.55,0,0,0-.09.29.54.54,0,0,0,.25.46,8.54,8.54,0,0,1,.13,1.43v9.4A8.86,8.86,0,0,1,279.59,79.72ZM265.51,60.8a9.36,9.36,0,0,0-.1,1.3v3.7a3.4,3.4,0,0,0-1.52.68A3.27,3.27,0,0,1,262.64,64,3.19,3.19,0,0,1,265.51,60.8Zm-.1,6.18v4.34a1.5,1.5,0,0,1-.38-.15,2.24,2.24,0,0,1,.38-4.19Zm20.94,4.34V67a1.5,1.5,0,0,1,.38.15,2.06,2.06,0,0,1,.52.35h0a.52.52,0,0,0,.18.18,2.2,2.2,0,0,1,.57,1.48A2.24,2.24,0,0,1,286.35,71.32Zm1.44-4.89a3.06,3.06,0,0,0-.54-.34,3,3,0,0,0-.9-.29V62.1a10.69,10.69,0,0,0-.09-1.27A3.19,3.19,0,0,1,289,64,3.31,3.31,0,0,1,287.79,66.43Z"/><path class="cls-5" d="M277.75,74.89a2.23,2.23,0,0,1-1.76.93,2.1,2.1,0,0,1-1.74-.89.58.58,0,0,0-1,.64A3.28,3.28,0,0,0,276,77a3.36,3.36,0,0,0,2.68-1.38.58.58,0,0,0-.92-.71Z"/><path class="cls-5" d="M279.89,68.8a.94.94,0,1,0,.94.94A1,1,0,0,0,279.89,68.8Z"/><path class="cls-5" d="M272.07,68.8a.95.95,0,0,0,0,1.89.95.95,0,1,0,0-1.89Z"/><path class="cls-5" d="M275,66.45a1.58,1.58,0,0,0-1.52-1.52h-2.83a1.52,1.52,0,0,0,0,3h2.83A1.59,1.59,0,0,0,275,66.45Zm-4.71,0a.45.45,0,0,1,.36-.36h2.83a.36.36,0,0,1,0,.72h-2.83A.45.45,0,0,1,270.3,66.45Z"/><path class="cls-5" d="M281.31,64.93h-2.83a1.52,1.52,0,0,0,0,3h2.83a1.52,1.52,0,0,0,0-3Zm0,1.88h-2.83a.36.36,0,1,1,0-.72h2.83a.36.36,0,0,1,0,.72Z"/><path class="cls-7" d="M406.84,51.79A14.33,14.33,0,0,1,421.15,66.1V76.92a1.83,1.83,0,0,1,0,.33,7.75,7.75,0,0,1-5.92,7,5.19,5.19,0,0,1,1.11,1,7.69,7.69,0,0,1,2.17,5.27v5.32a2.34,2.34,0,0,1-2.34,2.34H397.53a2.34,2.34,0,0,1-2.34-2.34V90.49A7.39,7.39,0,0,1,397.55,85a9,9,0,0,1,1-.81,7.68,7.68,0,0,1-6-7.48V66.1a14.33,14.33,0,0,1,14.31-14.31m0-2.34A16.67,16.67,0,0,0,390.19,66.1V76.74A10.09,10.09,0,0,0,394.53,85a9.81,9.81,0,0,0-1.68,5.51v5.32a4.69,4.69,0,0,0,4.68,4.68h18.62a4.69,4.69,0,0,0,4.68-4.68V90.49A10,10,0,0,0,419.12,85a10.06,10.06,0,0,0,4.34-7.5,5.25,5.25,0,0,0,0-.56V66.1a16.67,16.67,0,0,0-16.65-16.65Z"/><path class="cls-5" d="M406.84,51.79A14.33,14.33,0,0,0,392.53,66.1V76.74a7.68,7.68,0,0,0,6,7.48,9.89,9.89,0,0,0-1,.85,7.39,7.39,0,0,0-2.32,5.42v5.32a2.34,2.34,0,0,0,2.34,2.34h18.62a2.34,2.34,0,0,0,2.34-2.34V90.49a7.69,7.69,0,0,0-2.17-5.27,5.47,5.47,0,0,0-1.11-1,7.72,7.72,0,0,0,5.92-7,1.83,1.83,0,0,0,0-.33V66.1A14.33,14.33,0,0,0,406.84,51.79Zm11.39,17.63a3.28,3.28,0,0,0-1.49-.74v-.27a.58.58,0,0,0-.25-.48A13.75,13.75,0,0,1,411,59.8a.6.6,0,0,0-.47-.48.58.58,0,0,0-.61.27c-3.63,5.91-10.49,8-12.5,8.52a.57.57,0,0,0-.44.56,3.47,3.47,0,0,0-1.5.67V66.1a11.39,11.39,0,0,1,22.78,0Zm-6.58,11.9a8.51,8.51,0,0,1-1.9,1h0a8.9,8.9,0,0,1-5.81,0A13.76,13.76,0,0,1,402,81.4a8.56,8.56,0,0,1-1.33-1.08,8.66,8.66,0,0,1-2.57-6.15V71.56h.16v.31a4.13,4.13,0,1,0,8.26,0,2.46,2.46,0,0,0,0-.26.91.91,0,0,1,.63,0,2.35,2.35,0,0,0,0,.26,4.14,4.14,0,0,0,8.27,0v-.31h.16v2.52A8.65,8.65,0,0,1,411.65,81.32Zm3.92-12.11v1.18h-.42a4.19,4.19,0,0,0-3.87-2.66,4.12,4.12,0,0,0-3.86,2.74,2.14,2.14,0,0,0-1.15,0,4.06,4.06,0,0,0-3.86-2.73,3.68,3.68,0,0,0-.58,0,20.77,20.77,0,0,0,8.32-6.49,15.2,15.2,0,0,0,5.42,7.41Zm-7.23,2.3a.37.37,0,0,0,.05-.17,2.93,2.93,0,0,1,2.89-2.44,3,3,0,0,1,2.89,2.24v0a2.33,2.33,0,0,1,.06.71,3,3,0,0,1-5.93,0A1.38,1.38,0,0,1,408.34,71.51Zm-8.82-.4a3,3,0,0,1,2.89-2.21,2.85,2.85,0,0,1,2.87,2.4,2.83,2.83,0,0,0,.06.37,1.62,1.62,0,0,1,0,.2,3,3,0,1,1-5.92,0A2.49,2.49,0,0,1,399.52,71.11Zm-1-.72h-.4V69.12c.47-.13,1.09-.31,1.8-.57A4,4,0,0,0,398.52,70.39ZM397,73.86a2,2,0,0,1-1.5-1.55v-.84a2.09,2.09,0,0,1,1.5-1.6Zm19.79-4a2.06,2.06,0,0,1,0,4Zm-21.29,4.5a3.47,3.47,0,0,0,1.54.68,9.84,9.84,0,0,0,2.88,6.08l.34.33h0a4.75,4.75,0,0,1-4.74-4.74Zm2.67,16.1a4.46,4.46,0,0,1,1.42-3.31,7.31,7.31,0,0,1,1-.81,4.85,4.85,0,0,1,2.34-.62h.89a.58.58,0,0,0,.58-.58V83.66a10.24,10.24,0,0,0,5,0v1.51a.58.58,0,0,0,.59.58h.88a5,5,0,0,1,2.37.63,3.18,3.18,0,0,1,.94.8,4.72,4.72,0,0,1,1.43,3.31v4.74H398.12Zm15.37-9h-.11a9.87,9.87,0,0,0,3.31-6.42,3.4,3.4,0,0,0,1.54-.74v2.42A4.74,4.74,0,0,1,413.49,81.48Z"/><path class="cls-5" d="M409.77,78.06a.58.58,0,0,0-.82.1,2.65,2.65,0,0,1-2.11,1.1,2.51,2.51,0,0,1-2.08-1.07.59.59,0,0,0-1,.65,3.71,3.71,0,0,0,3.06,1.59,3.82,3.82,0,0,0,3-1.55A.59.59,0,0,0,409.77,78.06Z"/><path class="cls-5" d="M401.08,72.89a.58.58,0,0,0,.58-.58.75.75,0,1,1,1.49,0,.59.59,0,0,0,1.17,0,1.92,1.92,0,1,0-3.83,0A.58.58,0,0,0,401.08,72.89Z"/><path class="cls-5" d="M410,72.89a.58.58,0,0,0,.58-.58.75.75,0,1,1,1.49,0,.59.59,0,0,0,1.17,0,1.92,1.92,0,1,0-3.83,0A.58.58,0,0,0,410,72.89Z"/><path class="cls-8" d="M110.94,173.85l30.41,17.56,30.41-17.56V138.74l-30.41-17.55-30.41,17.55Z"/><path class="cls-4" d="M140.46,167a1.5,1.5,0,0,1-1.5-1.5v-10.7l-9.27-4.67a1.49,1.49,0,0,1-.67-2,1.51,1.51,0,0,1,2-.67l9.42,4.74,9.32-4.74a1.51,1.51,0,0,1,1.37,2.69L142,154.83v10.71A1.5,1.5,0,0,1,140.46,167Z"/><path class="cls-9" d="M254.06,169.11l22.19,12.81,22.19-12.81V143.49l-22.19-12.82-22.19,12.82Z"/><path class="cls-6" d="M275.58,164.7a1.5,1.5,0,0,1-1.5-1.51v-7.75l-6.71-3.38a1.5,1.5,0,1,1,1.35-2.68l6.86,3.45,6.79-3.45a1.5,1.5,0,1,1,1.36,2.68l-6.64,3.38v7.75A1.51,1.51,0,0,1,275.58,164.7Z"/><rect class="cls-10" x="196.99" y="155.14" width="32.71" height="4.01"/><polygon class="cls-10" points="220.39 168.63 218.48 166.58 228.62 157.15 218.48 147.72 220.39 145.67 232.75 157.15 220.39 168.63"/><rect class="cls-10" x="320.86" y="155.14" width="32.71" height="4.01"/><polygon class="cls-10" points="344.26 168.63 342.34 166.58 352.49 157.15 342.34 147.72 344.26 145.67 356.61 157.15 344.26 168.63"/><path class="cls-11" d="M377.23,173.85l30.41,17.56L438,173.85V138.74l-30.4-17.55-30.41,17.55Z"/><path class="cls-7" d="M406.75,167a1.51,1.51,0,0,1-1.51-1.5v-10.7L396,150.17a1.5,1.5,0,0,1,1.35-2.69l9.42,4.74,9.33-4.74a1.51,1.51,0,0,1,1.36,2.69l-9.18,4.66v10.71A1.5,1.5,0,0,1,406.75,167Z"/><polygon class="cls-6" points="516.06 37.2 503.14 29.74 503.14 44.65 516.06 37.2"/><circle class="cls-12" cx="508.03" cy="37.11" r="18.77"/></g></svg>