<?xml version="1.0" encoding="UTF-8"?>
<svg id="Ebene_1" data-name="Ebene 1" xmlns="http://www.w3.org/2000/svg" xmlns:xlink="http://www.w3.org/1999/xlink" version="1.1" viewBox="0 0 546.9 235">
  <defs>
    <style>
      .cls-1 {
        fill: url(#Unbenannter_Verlauf);
      }

      .cls-1, .cls-2, .cls-3, .cls-4, .cls-5, .cls-6, .cls-7, .cls-8 {
        stroke-width: 0px;
      }

      .cls-2 {
        fill: #eee;
      }

      .cls-9, .cls-10, .cls-11 {
        stroke-miterlimit: 10;
        stroke-width: 3px;
      }

      .cls-9, .cls-10, .cls-11, .cls-12 {
        fill: none;
      }

      .cls-9, .cls-12 {
        stroke: #39f;
      }

      .cls-3 {
        fill: #fc0;
      }

      .cls-4, .cls-7 {
        fill: #39f;
      }

      .cls-5 {
        fill: #906;
      }

      .cls-10 {
        stroke: #fc0;
      }

      .cls-6 {
        fill: #fdfeff;
      }

      .cls-7 {
        isolation: isolate;
        opacity: .4;
      }

      .cls-11 {
        stroke: #906;
      }

      .cls-8 {
        fill: #fff;
      }

      .cls-12 {
        stroke-linecap: round;
        stroke-linejoin: round;
        stroke-width: 4px;
      }
    </style>
    <linearGradient id="Unbenannter_Verlauf" data-name="Unbenannter Verlauf" x1="0" y1="117.8" x2="546.9" y2="117.8" gradientTransform="translate(0 236) scale(1 -1)" gradientUnits="userSpaceOnUse">
      <stop offset="0" stop-color="#981869"/>
      <stop offset=".2" stop-color="#771c65"/>
      <stop offset=".4" stop-color="#591f62"/>
      <stop offset=".6" stop-color="#432260"/>
      <stop offset=".8" stop-color="#36235e"/>
      <stop offset="1" stop-color="#32245e"/>
    </linearGradient>
  </defs>
  <g id="Lock">
    <line class="cls-2" x1="1213.3" y1="1284.2" x2="-707.7" y2="1284.2"/>
    <rect class="cls-1" y=".7" width="546.9" height="235" rx="7" ry="7"/>
    <path class="cls-7" d="M540.1,0h-113.1l119.9,119.9V6.8C546.9,3,543.9,0,540.1,0t0,0Z"/>
    <path class="cls-3" d="M141.3,52.7c7.7,0,13.6,6.5,13.6,12v6.4c0,.2,0,.4,0,.6,0,.3,0,.6,0,.8,0,1.8-1,3.4-2.6,4.2-.3,2.5-1.4,4.8-3.1,6.6,1.4.3,2.7.9,3.8,1.8,1.7,1.2,2.7,3.2,2.7,5.3v5.3c0,1.3-1,2.3-2.3,2.3h-24c-1.3,0-2.3-1-2.3-2.3h0v-5.4c0-2.1,1-4.1,2.8-5.4,1.1-.9,2.5-1.5,3.9-1.8-1.7-1.8-2.8-4-3.2-6.4-1.4-.7-2.4-2-2.7-3.6,0-.1,0-.2,0-.3v-.8c0-.1,0-.2,0-.3,0,0,0-.2,0-.2,0-.2,0-.4,0-.6v-6.3c0-5.6,6-12,13.6-12M141.3,50.3c-9.1,0-15.9,7.6-15.9,14.4v6.3c0,.2,0,.4,0,.6,0,.2,0,.4,0,.6v.8c0,.2,0,.4,0,.7.3,1.9,1.3,3.6,2.9,4.7.3,1.4.8,2.7,1.6,3.9-.6.3-1.1.7-1.6,1.1-2.3,1.7-3.6,4.4-3.7,7.2v5.3c0,2.6,2.1,4.6,4.6,4.7h24c2.6,0,4.7-2,4.8-4.5,0,0,0,0,0-.1v-5.3c0-2.8-1.3-5.4-3.6-7.1-.5-.4-1-.7-1.5-1,.8-1.3,1.3-2.7,1.6-4.2,1.7-1.3,2.7-3.4,2.7-5.6,0-.3,0-.5,0-.8,0-.2,0-.4,0-.6v-6.4c0-6.8-6.8-14.4-15.9-14.4h0Z"/>
    <path class="cls-8" d="M153,85.2c-1.1-.9-2.4-1.5-3.7-1.8,1.8-1.8,2.9-4.1,3.1-6.6,1.6-.8,2.6-2.5,2.6-4.3,0-.3,0-.6,0-.8,0-.2,0-.4,0-.6v-6.4c0-5.6-5.9-12-13.6-12s-13.6,6.5-13.6,12v6.3c0,.2,0,.4,0,.6,0,0,0,.2,0,.2,0,.1,0,.2,0,.3v.8c0,.1,0,.2,0,.3.2,1.6,1.2,2.9,2.7,3.6.4,2.4,1.5,4.7,3.2,6.4-1.4.3-2.8.9-3.9,1.8-1.7,1.2-2.8,3.2-2.8,5.3v5.3c0,1.3,1,2.3,2.3,2.3h24c1.3,0,2.3-1,2.3-2.3,0,0,0,0,0,0v-5.3c0-2.1-1-4.1-2.7-5.3ZM152,70.3c-.4-.3-.8-.5-1.3-.7v-.4c0-.2,0-.4-.2-.5-4.2-3-3.6-5.5-3.6-5.6,0-.3-.2-.6-.5-.7-.2,0-.4,0-.5.2-2.4,3.9-7,2.6-10,1.8-.9-.3-1.8-.5-2.7-.4-.2,0-.4.3-.4.5l-.6,4.9c-.5,0-1,.3-1.4.6v-5.4c0-4.1,4.8-9.1,10.7-9.1s10.7,5,10.7,9.1v5.7ZM133.2,75.2v-5.1h0l.6-4.8c.6.1,1.2.3,1.8.4,2.8.8,7.3,2,10.3-1,.3,1.2,1.2,3,3.7,4.9v6.1c0,4.5-3.7,8.1-8.2,8.1-4.6-.1-8.3-3.9-8.2-8.5ZM150.7,74.5v-3.7c1,.3,1.6,1.4,1.3,2.4-.2.6-.7,1.1-1.3,1.3ZM130.6,72.2c.1-.7.7-1.3,1.4-1.5v3.7c-.7-.2-1.2-.7-1.4-1.4v-.8ZM131.5,87.4c.9-.7,1.9-1.2,3-1.3.3,0,.6,0,.9,0h1c.3,0,.6-.3.6-.6v-1.8c1.3.8,2.8,1.2,4.3,1.2,1.5,0,3-.3,4.3-1v1.6c0,.3.3.6.6.6h1c.3,0,.6,0,.9,0,1.1.1,2.1.6,3,1.3,1,.7,1.6,1.8,1.6,3v4.8h-22.8v-4.8c0-1.2.6-2.4,1.6-3.1Z"/>
    <path class="cls-8" d="M144.4,72.5c0-.4-.4-.8-.8-.8-.5,0-.8.4-.8.8,0,.5.4.8.8.8.5,0,.8-.4.8-.8Z"/>
    <circle class="cls-8" cx="139.2" cy="72.5" r=".8"/>
    <path class="cls-8" d="M144.2,78.3c.2-.2.2-.6,0-.8,0,0,0,0,0,0-.2-.2-.6-.2-.8,0,0,0,0,0,0,0-.5.6-1.2,1-2,1-.8,0-1.5-.4-1.9-1-.2-.3-.5-.3-.8-.2-.3.2-.3.5-.2.8.7.9,1.8,1.5,2.9,1.5,1.1,0,2.2-.5,2.9-1.4Z"/>
    <path class="cls-4" d="M275.9,52.7c4.6,0,8.5,3.1,9.6,7.5h.3c2.1,0,3.8,1.7,3.8,3.8,0,1.3-.7,2.5-1.8,3.2.5.5.8,1.2.8,2,0,1.5-1.2,2.8-2.8,2.8v.2c-.5,3.6-2.8,6.6-6.1,8v3h.9c1.7,0,3.3.7,4.5,1.9,1.2,1.2,1.9,2.8,2,4.4v6.3h-22.4v-6.3c0-1.7.7-3.3,1.9-4.4,1.2-1.2,2.8-1.9,4.5-1.9h1.1v-2.8h.2v-.2c-3.4-1.3-5.8-4.5-6.2-8.1v-.2c-.5,0-.9,0-1.3-.3-1.4-.7-2-2.3-1.3-3.7.2-.4.4-.7.7-.9v-.5c-.1,0-.3.6-.3.6-1.1-.7-1.8-1.9-1.8-3.2,0-2.1,1.7-3.8,3.8-3.8h.2l.4-.5c1.2-4.2,5.1-7.1,9.5-7.1h0M275.8,48c-5.5,0-10.5,3.1-13,8.1-4.3,1.6-6.5,6.4-4.9,10.7.2.5.4.9.7,1.4,0,.3,0,.7,0,1,0,2.6,1.3,5,3.5,6.3.6,1.8,1.5,3.5,2.8,5-.5.4-1,.8-1.5,1.2-2.1,2-3.3,4.8-3.3,7.7v6.3c0,2.6,2.1,4.6,4.6,4.6,0,0,0,0,0,0h22.4c2.6,0,4.6-2.1,4.6-4.6h0v-6.4c0-2.9-1.2-5.6-3.2-7.7-.5-.5-1-.9-1.5-1.3,1.3-1.5,2.2-3.2,2.8-5,2.2-1.4,3.5-3.7,3.5-6.3,0-.4,0-.8,0-1.2,2.2-4,.7-9.1-3.3-11.4-.3-.2-.6-.3-.9-.4-2.4-5-7.5-8.2-13.1-8.2h0Z"/>
    <path class="cls-8" d="M287.2,58.1c-1.8-4.7-6.3-7.7-11.3-7.7-5,0-9.4,3-11.3,7.6-3.3.7-5.4,3.9-4.7,7.2.2.9.6,1.8,1.2,2.5-.1.5-.2.9-.2,1.4,0,2,1.1,3.8,2.9,4.6h.3c.7,3.1,2.5,5.6,5,7.3-1.5.4-2.9,1.2-4,2.3-1.7,1.6-2.7,3.8-2.6,6.1v6.3c0,1.3,1,2.3,2.3,2.3,0,0,0,0,0,0h22.3c1.3,0,2.3-1,2.3-2.3h0v-6.3c0-2.3-1-4.4-2.6-6-1.1-1.1-2.5-2-4-2.3,2.5-1.7,4.3-4.3,5-7.2,1.9-.8,3.2-2.7,3.2-4.7,0-.5,0-1.1-.2-1.6,2-2.7,1.4-6.5-1.3-8.5-.7-.5-1.4-.8-2.2-1h0ZM286.4,95.3h-21.2v-5.8c0-1.5.6-3,1.8-4.1,1.1-1.1,2.5-1.7,4.1-1.8h1.1c.3,0,.6-.3.6-.6v-2c.9.3,1.8.4,2.8.4h.9c.9,0,1.8-.1,2.6-.4v1.9c0,.3.3.6.6.6h1.1c1.5,0,3,.6,4.1,1.8,1.1,1.1,1.7,2.5,1.8,4.1v5.9ZM279.6,79.7h0c-.2,0-.3,0-.4.2-.9.3-1.8.4-2.8.4h-.9c-1.1,0-2.1-.2-3.1-.6,0,0,0,0-.1,0-3.4-1.3-5.6-4.6-5.6-8.2v-9.5c0-.6,0-1.1.2-1.7,0,0,0-.2,0-.2h0c.9-4.1,4.5-6.9,8.6-6.9h.9c4,0,7.6,2.7,8.6,6.7,0,0,0,.2,0,.3,0,.2,0,.4.2.5,0,.5.1,1,.1,1.4v9.4c0,3.6-2.2,6.9-5.6,8.2ZM265.5,60.8c0,.4,0,.9-.1,1.3v3.7c-.6,0-1.1.3-1.5.7-.8-.6-1.2-1.5-1.2-2.5,0-1.6,1.2-3,2.9-3.2ZM265.4,67v4.3c-.1,0-.3,0-.4-.2-1.1-.5-1.6-1.9-1.1-3,.3-.6.8-1,1.4-1.2ZM286.4,71.3v-4.3c.1,0,.3,0,.4.2.2,0,.4.2.5.3h0c0,0,.1.1.2.2.4.4.6.9.6,1.5,0,1-.7,1.9-1.6,2.2ZM287.8,66.4c-.2-.1-.3-.2-.5-.3-.3-.1-.6-.2-.9-.3v-3.7c0-.4,0-.8,0-1.3,1.6.2,2.7,1.6,2.7,3.2,0,.9-.5,1.8-1.2,2.4Z"/>
    <path class="cls-8" d="M277.8,74.9c-.4.6-1.1.9-1.8.9-.7,0-1.3-.3-1.7-.9-.2-.3-.5-.4-.8-.2-.3.2-.4.5-.2.8.6.9,1.7,1.4,2.8,1.4,1.1,0,2.1-.5,2.7-1.4.2-.3.1-.6-.1-.8-.3-.2-.6-.1-.8.1h0Z"/>
    <path class="cls-8" d="M279.9,68.8c-.5,0-.9.4-.9.9s.4.9.9.9c.5,0,.9-.4.9-.9,0-.5-.4-.9-.9-.9Z"/>
    <path class="cls-8" d="M272.1,68.8c-.5,0-.9.5-.8,1,0,.4.4.8.8.8.5,0,1-.3,1-.8,0-.5-.3-1-.8-1,0,0-.1,0-.2,0Z"/>
    <path class="cls-8" d="M275,66.4c0-.8-.7-1.5-1.5-1.5h-2.8c-.8.1-1.4.9-1.3,1.7.1.6.6,1.1,1.3,1.3h2.8c.8,0,1.5-.7,1.5-1.5ZM270.3,66.4c0-.2.2-.3.4-.4h2.8c.2,0,.4.2.4.4s-.2.4-.4.4h-2.8c-.2,0-.3-.2-.4-.4h0Z"/>
    <path class="cls-8" d="M281.3,64.9h-2.8c-.8.1-1.4.9-1.3,1.7.1.6.6,1.1,1.3,1.3h2.8c.8-.1,1.4-.9,1.3-1.7-.1-.6-.6-1.1-1.3-1.3ZM281.3,66.8h-2.8c-.2,0-.4-.2-.4-.4s.2-.4.4-.4h2.8c.2,0,.4.2.4.4s-.2.4-.4.4Z"/>
    <path class="cls-5" d="M406.8,51.8c7.9,0,14.3,6.4,14.3,14.3v10.8c0,.1,0,.2,0,.3-.2,3.4-2.6,6.2-5.9,7,.4.3.8.6,1.1,1,1.4,1.4,2.1,3.3,2.2,5.3v5.3c0,1.3-1,2.3-2.3,2.3h-18.6c-1.3,0-2.3-1-2.3-2.3v-5.3c0-2.1.8-4.1,2.4-5.5.3-.3.6-.6,1-.8-3.5-.8-6-3.9-6-7.5v-10.6c0-7.9,6.4-14.3,14.3-14.3M406.9,49.4c-9.2,0-16.7,7.5-16.7,16.7v10.6c0,3.3,1.6,6.4,4.3,8.3-1.1,1.6-1.7,3.5-1.7,5.5v5.3c0,2.6,2.1,4.7,4.7,4.7h18.6c2.6,0,4.7-2.1,4.7-4.7v-5.3c0-2-.6-3.9-1.7-5.5,2.5-1.7,4.1-4.5,4.3-7.5,0-.2,0-.4,0-.6v-10.8c0-9.2-7.5-16.6-16.6-16.7h0Z"/>
    <path class="cls-8" d="M406.8,51.8c-7.9,0-14.3,6.4-14.3,14.3v10.6c0,3.6,2.5,6.7,6,7.5-.4.3-.7.5-1,.8-1.5,1.4-2.3,3.4-2.3,5.4v5.3c0,1.3,1,2.3,2.3,2.3h18.6c1.3,0,2.3-1,2.3-2.3v-5.3c0-2-.8-3.9-2.2-5.3-.3-.4-.7-.7-1.1-1,3.3-.8,5.7-3.6,5.9-7,0-.1,0-.2,0-.3v-10.8c0-7.9-6.4-14.3-14.3-14.3ZM418.2,69.4c-.4-.4-.9-.6-1.5-.7v-.3c0-.2,0-.4-.2-.5-2.8-1.9-4.7-4.8-5.5-8.1,0-.2-.2-.4-.5-.5-.2,0-.5,0-.6.3-3.6,5.9-10.5,8-12.5,8.5-.3,0-.4.3-.4.6-.5.1-1.1.3-1.5.7v-3.2c0-6.3,5.1-11.4,11.4-11.4,6.3,0,11.4,5.1,11.4,11.4v3.3ZM411.7,81.3c-.6.4-1.2.7-1.9,1h0c-1.9.6-3.9.6-5.8,0-.7-.3-1.3-.6-1.9-.9-.5-.3-.9-.7-1.3-1.1-1.6-1.6-2.6-3.8-2.6-6.2v-2.6h.2v.3c0,2.3,1.8,4.1,4.1,4.1s4.1-1.8,4.1-4.1c0,0,0-.2,0-.3.2,0,.4,0,.6,0,0,0,0,.2,0,.3.1,2.3,2.1,4,4.3,3.9,2.1-.1,3.8-1.8,3.9-3.9v-.3h.2v2.5c0,2.9-1.5,5.6-3.9,7.2h0ZM415.6,69.2v1.2h-.4c-.6-1.6-2.2-2.6-3.9-2.7-1.7,0-3.3,1.1-3.9,2.7-.4-.1-.8-.1-1.1,0-.6-1.6-2.1-2.7-3.9-2.7-.2,0-.4,0-.6,0,3.3-1.4,6.2-3.6,8.3-6.5,1,3,2.9,5.6,5.4,7.4v.6ZM408.3,71.5c0,0,0-.1,0-.2.2-1.4,1.5-2.4,2.9-2.4,1.4,0,2.5.9,2.9,2.2h0c0,.2,0,.5,0,.7-.3,1.6-1.8,2.8-3.4,2.5-1.3-.2-2.3-1.2-2.5-2.5,0-.1,0-.2,0-.3h0ZM399.5,71.1c.4-1.3,1.5-2.2,2.9-2.2,1.4,0,2.6,1,2.9,2.4,0,.1,0,.2,0,.4,0,0,0,.1,0,.2.3,1.6-.8,3.2-2.5,3.4s-3.2-.8-3.4-2.5c0-.3,0-.7,0-1,0-.3,0-.5,0-.8h0ZM398.5,70.4h-.4v-1.3c.5-.1,1.1-.3,1.8-.6-.6.5-1.1,1.1-1.4,1.8h0ZM397,73.9c-.8-.2-1.3-.8-1.5-1.6v-.8c.2-.8.7-1.4,1.5-1.6v4ZM416.8,69.9c1.1.3,1.8,1.4,1.5,2.5-.2.7-.8,1.3-1.5,1.5v-4ZM395.5,74.4c.4.3,1,.6,1.5.7.2,2.3,1.2,4.5,2.9,6.1l.3.3h0c-2.6,0-4.7-2.1-4.7-4.7v-2.4ZM398.2,90.5c0-1.3.5-2.5,1.4-3.3.3-.3.6-.6,1-.8.7-.4,1.5-.6,2.3-.6h.9c.3,0,.6-.3.6-.6v-1.5c1.6.4,3.4.4,5,0v1.5c0,.3.3.6.6.6,0,0,0,0,0,0h.9c.8,0,1.6.2,2.4.6.4.2.7.5.9.8.9.9,1.4,2.1,1.4,3.3v4.7h-17.5v-4.8ZM413.5,81.5h-.1c1.9-1.6,3.1-3.9,3.3-6.4.6-.1,1.1-.4,1.5-.7v2.4c0,2.6-2.1,4.7-4.7,4.8,0,0,0,0,0,0h0Z"/>
    <path class="cls-8" d="M409.8,78.1c-.3-.2-.6-.2-.8,0,0,0,0,0,0,0-.5.7-1.3,1.1-2.1,1.1-.8,0-1.6-.4-2.1-1.1-.2-.3-.5-.4-.8-.2-.3.2-.4.5-.2.8.7,1,1.8,1.6,3.1,1.6,1.2,0,2.3-.6,3-1.6.2-.2.2-.6,0-.8Z"/>
    <path class="cls-8" d="M401.1,72.9c.3,0,.6-.3.6-.6,0-.4.2-.8.7-.8.4,0,.8.2.8.7,0,0,0,.1,0,.2,0,.3.3.6.7.5.3,0,.5-.2.5-.5,0-1.1-.7-2-1.8-2.1s-2,.7-2.1,1.8c0,0,0,.2,0,.3,0,.3.3.6.6.6,0,0,0,0,0,0Z"/>
    <path class="cls-8" d="M410,72.9c.3,0,.6-.3.6-.6,0-.4.2-.8.7-.8.4,0,.8.2.8.7,0,0,0,.1,0,.2,0,.3.3.6.7.5.3,0,.5-.2.5-.5,0-1.1-.7-2-1.8-2.1s-2,.7-2.1,1.8c0,0,0,.2,0,.3,0,.3.3.6.6.6,0,0,0,0,0,0Z"/>
    <path class="cls-10" d="M110.9,173.9l30.4,17.6,30.4-17.6v-35.1l-30.4-17.6-30.4,17.6v35.1Z"/>
    <path class="cls-3" d="M140.5,167c-.8,0-1.5-.7-1.5-1.5v-10.7l-9.3-4.7c-.7-.4-1-1.3-.7-2,0,0,0,0,0,0,.4-.7,1.3-1,2-.7l9.4,4.7,9.3-4.7c.8-.4,1.7,0,2,.7.3.7,0,1.6-.6,2l-9.1,4.7v10.7c0,.8-.7,1.5-1.5,1.5,0,0,0,0,0,0Z"/>
    <path class="cls-9" d="M254.1,169.1l22.2,12.8,22.2-12.8v-25.6l-22.2-12.8-22.2,12.8v25.6Z"/>
    <path class="cls-4" d="M275.6,164.7c-.8,0-1.5-.7-1.5-1.5,0,0,0,0,0,0v-7.8l-6.7-3.4c-.7-.4-1-1.3-.7-2,.4-.7,1.3-1,2-.7l6.9,3.4,6.8-3.4c.7-.4,1.6,0,2,.7s0,1.6-.7,2l-6.6,3.4v7.8c0,.8-.7,1.5-1.5,1.5Z"/>
    <rect class="cls-6" x="197" y="155.1" width="32.7" height="4"/>
    <polygon class="cls-6" points="220.4 168.6 218.5 166.6 228.6 157.1 218.5 147.7 220.4 145.7 232.8 157.1 220.4 168.6"/>
    <rect class="cls-6" x="320.9" y="155.1" width="32.7" height="4"/>
    <polygon class="cls-6" points="344.3 168.6 342.3 166.6 352.5 157.1 342.3 147.7 344.3 145.7 356.6 157.1 344.3 168.6"/>
    <path class="cls-11" d="M377.2,173.9l30.4,17.6,30.4-17.6v-35.1l-30.4-17.6-30.4,17.6v35.1Z"/>
    <path class="cls-5" d="M406.8,167c-.8,0-1.5-.7-1.5-1.5v-10.7l-9.2-4.6c-.7-.4-1-1.3-.7-2,.4-.7,1.3-1,2-.7l9.4,4.7,9.3-4.7c.8-.3,1.7,0,2,.8.3.7,0,1.5-.6,1.9l-9.2,4.7v10.7c0,.8-.7,1.5-1.5,1.5Z"/>
    <polygon class="cls-4" points="516.1 37.2 503.1 29.7 503.1 44.7 516.1 37.2"/>
    <circle class="cls-12" cx="508" cy="37.1" r="18.8"/>
  </g>
</svg>