<svg xmlns="http://www.w3.org/2000/svg" xmlns:xlink="http://www.w3.org/1999/xlink" viewBox="0 0 546.89 209.87"><defs><style>.cls-1{fill:#eee;}.cls-2{fill:url(#Unbenannter_Verlauf_12);}.cls-3,.cls-6{fill:#39f;}.cls-3{opacity:0.4;}.cls-4{fill:#fc0;}.cls-5{fill:#fff;}.cls-7{fill:#906;}.cls-11,.cls-12,.cls-8,.cls-9{fill:none;}.cls-8{stroke:#fc0;}.cls-11,.cls-8,.cls-9{stroke-miterlimit:10;stroke-width:3px;}.cls-12,.cls-9{stroke:#39f;}.cls-10{fill:#fdfeff;}.cls-11{stroke:#906;}.cls-12{stroke-linecap:round;stroke-linejoin:round;stroke-width:4px;}</style><linearGradient id="Unbenannter_Verlauf_12" y1="104.94" x2="546.89" y2="104.94" gradientUnits="userSpaceOnUse"><stop offset="0" stop-color="#981869"/><stop offset="0.19" stop-color="#771c65"/><stop offset="0.4" stop-color="#591f62"/><stop offset="0.61" stop-color="#432260"/><stop offset="0.81" stop-color="#36235e"/><stop offset="1" stop-color="#32245e"/></linearGradient></defs><g id="Lock"><rect class="cls-1" x="-707.74" y="-2167.74" width="1921.02" height="3438.64"/><rect class="cls-2" width="546.89" height="209.87" rx="7"/><path class="cls-3" d="M540.12,0H427L546.89,119.86V6.77A6.77,6.77,0,0,0,540.12,0Z"/><path class="cls-4" d="M124.45,30.86c8.64,0,15.33,7.29,15.33,13.56v7.24a2.44,2.44,0,0,1-.08.66,4.9,4.9,0,0,1,.08.94,5.51,5.51,0,0,1-2.89,4.79,12.26,12.26,0,0,1-3.54,7.43,10,10,0,0,1,4.24,2,7.47,7.47,0,0,1,3,6v6A2.62,2.62,0,0,1,138,82.15H110.92a2.62,2.62,0,0,1-2.62-2.62v-6a7.54,7.54,0,0,1,3.11-6.06,9.87,9.87,0,0,1,4.38-2,13.25,13.25,0,0,1-3.61-7.26,5.39,5.39,0,0,1-3-4.07c0-.12,0-.25,0-.37v-.94c0-.12,0-.25,0-.37s0-.19,0-.28a2.51,2.51,0,0,1-.07-.62v-7.1c0-6.27,6.7-13.56,15.33-13.56m0-2.62c-10.27,0-18,8.54-18,16.18v7.1a4.49,4.49,0,0,0,0,.64,4.64,4.64,0,0,0,0,.63v.94a6.3,6.3,0,0,0,0,.75,7.9,7.9,0,0,0,3.28,5.33,16,16,0,0,0,1.75,4.38,12.06,12.06,0,0,0-1.78,1.2,10.12,10.12,0,0,0-4.12,8.12v6a5.25,5.25,0,0,0,5.24,5.24H138a5.25,5.25,0,0,0,5.24-5.24v-6a10.15,10.15,0,0,0-4-8.05,11.19,11.19,0,0,0-1.67-1.14,15,15,0,0,0,1.78-4.74,8.07,8.07,0,0,0,3.1-6.32,8.49,8.49,0,0,0,0-.88,5.81,5.81,0,0,0,0-.72V44.42c0-7.64-7.68-16.18-18-16.18Z"/><path class="cls-5" d="M137.54,67.49a10,10,0,0,0-4.19-2,12.26,12.26,0,0,0,3.54-7.43,5.52,5.52,0,0,0,2.9-4.79,4.91,4.91,0,0,0-.09-.94,2.44,2.44,0,0,0,.09-.66V44.42c0-6.27-6.7-13.56-15.34-13.56s-15.33,7.29-15.33,13.56v7.1a2.51,2.51,0,0,0,.07.62c0,.09,0,.19,0,.28s0,.24,0,.37v.94c0,.12,0,.25,0,.37a5.39,5.39,0,0,0,3,4.07,13.31,13.31,0,0,0,3.61,7.27,10,10,0,0,0-4.43,2,7.53,7.53,0,0,0-3.06,6v6a2.62,2.62,0,0,0,2.62,2.62H138a2.62,2.62,0,0,0,2.62-2.62v-6A7.54,7.54,0,0,0,137.54,67.49Zm-1-16.7a3.6,3.6,0,0,0-1.52-.74v-.46a.68.68,0,0,0-.27-.54c-4.76-3.4-4.05-6.18-4-6.28a.68.68,0,0,0-.36-.8.67.67,0,0,0-.83.26c-2.72,4.42-7.86,3-11.26,2a7.21,7.21,0,0,0-3.07-.5.64.64,0,0,0-.49.55L114,49.83a3.62,3.62,0,0,0-1.59.69v-6.1c0-4.66,5.38-10.28,12.06-10.28s12.06,5.62,12.06,10.28Zm-21.2,5.48c0-1.18,0-2,0-2.89s0-1.68,0-2.85v-.06l.71-5.44c.49.07,1.27.29,2,.48,3.16.89,8.23,2.32,11.58-1.1.33,1.4,1.34,3.39,4.2,5.51v6.82a9.2,9.2,0,0,1-9.23,9.14C119.5,65.88,115.31,61.48,115.31,56.27ZM135,55.52V51.41a2.15,2.15,0,0,1,0,4.11Zm-22.6-2.68a2.15,2.15,0,0,1,1.52-1.65v4.14a2.12,2.12,0,0,1-1.52-1.6Zm1,17.22a6.8,6.8,0,0,1,3.42-1.48,4.44,4.44,0,0,1,1-.07h1.14a.65.65,0,0,0,.66-.65v-2a9.78,9.78,0,0,0,4.85,1.3A10.6,10.6,0,0,0,129.31,66v1.85a.65.65,0,0,0,.65.65h1.15a4.3,4.3,0,0,1,1,.09,6.67,6.67,0,0,1,3.37,1.48,4.26,4.26,0,0,1,1.8,3.43v5.37H111.57V73.51A4.3,4.3,0,0,1,113.4,70.06Z"/><path class="cls-5" d="M127.85,53.26a1,1,0,0,0-.94-.94.94.94,0,1,0,.94.94Z"/><circle class="cls-5" cx="122" cy="53.26" r="0.94"/><path class="cls-5" d="M127.7,59.78a.66.66,0,0,0-.12-.92.64.64,0,0,0-.91.12,2.8,2.8,0,0,1-2.22,1.16A2.62,2.62,0,0,1,122.27,59a.65.65,0,0,0-.91-.18.64.64,0,0,0-.18.9,4,4,0,0,0,3.27,1.71A4.08,4.08,0,0,0,127.7,59.78Z"/><path class="cls-6" d="M276.06,30.9a11.14,11.14,0,0,1,10.81,8.48h.33a4.26,4.26,0,0,1,4.24,4.25,4.36,4.36,0,0,1-2,3.59,3.13,3.13,0,0,1,.94,2.24,3.18,3.18,0,0,1-3.1,3.17l-.16.2a11.13,11.13,0,0,1-6.72,9v3.39h1a6.8,6.8,0,0,1,5,2.15,7.08,7.08,0,0,1,2.17,5v7.16H263.35V72.39a6.71,6.71,0,0,1,2.16-5,7.24,7.24,0,0,1,5.05-2.15h1.2v-3.1H272v-.19a11.14,11.14,0,0,1-7-9.11l-.13-.2a2.8,2.8,0,0,1-1.33-.31,3.15,3.15,0,0,1-.68-5.26l-.11-.54-.24.71a4.36,4.36,0,0,1-2-3.61,4.26,4.26,0,0,1,4.24-4.24H265l.41-.52a11.14,11.14,0,0,1,10.68-8h0m0-5.23a16.5,16.5,0,0,0-14.66,9.08,9.44,9.44,0,0,0-4.83,13.64,9.45,9.45,0,0,0-.07,1.07,8.37,8.37,0,0,0,4,7.13,16.19,16.19,0,0,0,3.12,5.61,13,13,0,0,0-1.68,1.38,12,12,0,0,0-3.8,8.81v7.16a5.23,5.23,0,0,0,5.23,5.22h25.23a5.22,5.22,0,0,0,5.22-5.22V72.39a12.37,12.37,0,0,0-3.62-8.63,11.21,11.21,0,0,0-1.72-1.51,16.32,16.32,0,0,0,3.18-5.68,8.32,8.32,0,0,0,3.86-8.44,9.4,9.4,0,0,0,1.17-4.5,9.5,9.5,0,0,0-5.91-8.78,16.32,16.32,0,0,0-14.7-9.18Z"/><path class="cls-5" d="M288.83,37a13.69,13.69,0,0,0-12.77-8.69,13.86,13.86,0,0,0-12.77,8.63,6.84,6.84,0,0,0-3.94,10.94,5.78,5.78,0,0,0,3,6.81l.32.15a13.7,13.7,0,0,0,5.57,8.1,10.12,10.12,0,0,0-4.55,2.57,9.37,9.37,0,0,0-3,6.91v7.16a2.61,2.61,0,0,0,2.61,2.61h25.23a2.61,2.61,0,0,0,2.61-2.61V72.39a9.77,9.77,0,0,0-2.89-6.82,9.14,9.14,0,0,0-4.48-2.64,13.75,13.75,0,0,0,5.6-8.13A5.84,5.84,0,0,0,293,49.46a5.63,5.63,0,0,0-.28-1.79A6.82,6.82,0,0,0,288.83,37Zm-.91,41.92H264V72.34a6.15,6.15,0,0,1,2-4.58,6.57,6.57,0,0,1,4.59-2h1.2a.66.66,0,0,0,.65-.66v-2.2a11.17,11.17,0,0,0,3.13.45h1a11.06,11.06,0,0,0,2.95-.4v2.15a.66.66,0,0,0,.65.66h1.2a6.15,6.15,0,0,1,4.58,2,6.53,6.53,0,0,1,2,4.58Zm-7.68-17.52h-.07a.65.65,0,0,0-.48.21,10,10,0,0,1-3.12.51h-1a10,10,0,0,1-3.48-.64l-.13,0a10,10,0,0,1-6.36-9.28V41.52a9.74,9.74,0,0,1,.18-1.88.58.58,0,0,0,.06-.26h0a10,10,0,0,1,9.73-7.82h1a10,10,0,0,1,9.65,7.5.64.64,0,0,0-.1.33.67.67,0,0,0,.28.53,9.45,9.45,0,0,1,.14,1.61V52.11A10,10,0,0,1,280.24,61.37ZM264.37,40.05a10.17,10.17,0,0,0-.11,1.47v4.16a3.8,3.8,0,0,0-1.72.77,3.71,3.71,0,0,1-1.4-2.83A3.59,3.59,0,0,1,264.37,40.05Zm-.11,7v4.9a2.26,2.26,0,0,1-.43-.17,2.53,2.53,0,0,1,.43-4.73Zm23.59,4.89V47a2,2,0,0,1,.44.17,2.56,2.56,0,0,1,.58.39v0a.8.8,0,0,0,.21.2,2.5,2.5,0,0,1,.65,1.67A2.53,2.53,0,0,1,287.85,51.9Zm1.62-5.51a4.07,4.07,0,0,0-.6-.38,3.48,3.48,0,0,0-1-.33V41.52a11.48,11.48,0,0,0-.1-1.44,3.6,3.6,0,0,1,3,3.55A3.72,3.72,0,0,1,289.47,46.39Z"/><path class="cls-5" d="M278.17,55.93a2.53,2.53,0,0,1-2,1,2.35,2.35,0,0,1-2-1,.66.66,0,0,0-.91-.18.65.65,0,0,0-.18.9,3.68,3.68,0,0,0,3.05,1.59,3.8,3.8,0,0,0,3-1.55.65.65,0,1,0-1-.8Z"/><path class="cls-5" d="M280.57,49.07a1.05,1.05,0,1,0,1.06,1.06A1.14,1.14,0,0,0,280.57,49.07Z"/><path class="cls-5" d="M271.77,49.07a1.06,1.06,0,0,0,0,2.12,1.06,1.06,0,1,0,0-2.12Z"/><path class="cls-5" d="M275.07,46.41a1.78,1.78,0,0,0-1.71-1.71h-3.18a1.72,1.72,0,1,0,0,3.43h3.18A1.78,1.78,0,0,0,275.07,46.41Zm-5.3,0a.49.49,0,0,1,.41-.4h3.18a.41.41,0,1,1,0,.81h-3.18A.49.49,0,0,1,269.77,46.41Z"/><path class="cls-5" d="M282.17,44.7H279a1.72,1.72,0,1,0,0,3.43h3.18a1.72,1.72,0,1,0,0-3.43Zm0,2.12H279a.41.41,0,1,1,0-.81h3.18a.41.41,0,1,1,0,.81Z"/><path class="cls-7" d="M423.63,29.89A16.15,16.15,0,0,1,439.76,46V58.21a2.43,2.43,0,0,1,0,.38,8.7,8.7,0,0,1-6.67,7.83,6,6,0,0,1,1.25,1.15,8.64,8.64,0,0,1,2.45,5.94v6a2.64,2.64,0,0,1-2.64,2.64h-21a2.64,2.64,0,0,1-2.64-2.64v-6a8.28,8.28,0,0,1,2.66-6.15,10.14,10.14,0,0,1,1.08-.92A8.66,8.66,0,0,1,407.5,58V46a16.15,16.15,0,0,1,16.13-16.13m0-2.63A18.78,18.78,0,0,0,404.87,46V58a11.34,11.34,0,0,0,4.89,9.28,11.1,11.1,0,0,0-1.9,6.22v6a5.28,5.28,0,0,0,5.28,5.27h21a5.28,5.28,0,0,0,5.28-5.27v-6a11.21,11.21,0,0,0-1.93-6.21,11.39,11.39,0,0,0,4.89-8.46c0-.21,0-.42,0-.63V46a18.79,18.79,0,0,0-18.77-18.76Z"/><path class="cls-5" d="M423.63,29.89A16.15,16.15,0,0,0,407.5,46V58a8.66,8.66,0,0,0,6.74,8.43,10,10,0,0,0-1.12,1,8.29,8.29,0,0,0-2.62,6.1v6a2.64,2.64,0,0,0,2.64,2.64h21a2.64,2.64,0,0,0,2.64-2.64v-6a8.63,8.63,0,0,0-2.45-5.93,5.76,5.76,0,0,0-1.25-1.15,8.71,8.71,0,0,0,6.67-7.84,2.22,2.22,0,0,0,0-.37V46A16.15,16.15,0,0,0,423.63,29.89Zm12.83,19.87a3.65,3.65,0,0,0-1.68-.83v-.31a.68.68,0,0,0-.27-.54,15.57,15.57,0,0,1-6.23-9.16.67.67,0,0,0-.53-.54.65.65,0,0,0-.68.3c-4.1,6.66-11.82,9-14.09,9.6a.65.65,0,0,0-.5.64,3.74,3.74,0,0,0-1.68.76V46a12.83,12.83,0,1,1,25.66,0ZM429,63.17a9,9,0,0,1-2.14,1.12h0a10,10,0,0,1-6.54,0,15,15,0,0,1-2.16-1,9.67,9.67,0,0,1-1.5-1.21,9.78,9.78,0,0,1-2.9-6.93V52.18H414v.34a4.66,4.66,0,0,0,9.31,0,1.59,1.59,0,0,0,0-.29,1.11,1.11,0,0,1,.72,0c0,.11,0,.21,0,.3a4.66,4.66,0,0,0,9.31,0v-.34h.18V55A9.73,9.73,0,0,1,429,63.17Zm4.42-13.65v1.34H433a4.71,4.71,0,0,0-4.36-3,4.63,4.63,0,0,0-4.35,3.08,2.36,2.36,0,0,0-1.29,0,4.59,4.59,0,0,0-5-3,23.53,23.53,0,0,0,9.38-7.3,17.15,17.15,0,0,0,6.1,8.35Zm-8.14,2.59a.6.6,0,0,0,.06-.19,3.3,3.3,0,0,1,3.25-2.74,3.4,3.4,0,0,1,3.26,2.53v0a2.46,2.46,0,0,1,.07.79,3.34,3.34,0,0,1-6.68,0A1.84,1.84,0,0,1,425.32,52.11Zm-9.94-.44a3.33,3.33,0,0,1,3.25-2.49,3.21,3.21,0,0,1,3.24,2.7c0,.13,0,.27.06.42a.93.93,0,0,1,0,.22,3.34,3.34,0,1,1-6.67,0A2.73,2.73,0,0,1,415.38,51.67Zm-1.13-.81h-.45V49.43c.53-.15,1.23-.36,2-.65A4.5,4.5,0,0,0,414.25,50.86Zm-1.77,3.91A2.31,2.31,0,0,1,410.8,53v-1a2.33,2.33,0,0,1,1.68-1.8Zm22.3-4.48a2.32,2.32,0,0,1,0,4.46Zm-24,5.07a3.67,3.67,0,0,0,1.73.76A11.07,11.07,0,0,0,415.77,63l.39.37h0A5.34,5.34,0,0,1,410.8,58Zm3,18.14a5,5,0,0,1,1.6-3.73,10,10,0,0,1,1.09-.9,5.41,5.41,0,0,1,2.64-.7h1a.66.66,0,0,0,.66-.66v-1.7a11.62,11.62,0,0,0,5.68,0v1.7a.66.66,0,0,0,.66.66h1a5.53,5.53,0,0,1,2.67.71,3.43,3.43,0,0,1,1.06.89,5.34,5.34,0,0,1,1.6,3.73v5.34H413.8Zm17.33-10.15H431a11.17,11.17,0,0,0,3.73-7.23,3.74,3.74,0,0,0,1.73-.84V58A5.34,5.34,0,0,1,431.13,63.35Z"/><path class="cls-5" d="M426.93,59.49a.66.66,0,0,0-.92.12,3,3,0,0,1-2.38,1.24,2.85,2.85,0,0,1-2.35-1.2.65.65,0,0,0-.91-.19.67.67,0,0,0-.19.92,4.19,4.19,0,0,0,3.45,1.79,4.29,4.29,0,0,0,3.42-1.75A.67.67,0,0,0,426.93,59.49Z"/><path class="cls-5" d="M417.13,53.68a.66.66,0,0,0,.66-.66.84.84,0,1,1,1.68,0,.66.66,0,1,0,1.32,0,2.16,2.16,0,1,0-4.31,0A.66.66,0,0,0,417.13,53.68Z"/><path class="cls-5" d="M427.13,53.68a.67.67,0,0,0,.66-.66.84.84,0,1,1,1.68,0,.66.66,0,1,0,1.32,0,2.16,2.16,0,0,0-4.32,0A.66.66,0,0,0,427.13,53.68Z"/><path class="cls-8" d="M90.2,167.44l34.26,19.79,34.27-19.79V127.88l-34.27-19.79L90.2,127.88Z"/><path class="cls-4" d="M123.46,159.77a1.7,1.7,0,0,1-1.7-1.7V146l-10.44-5.27a1.69,1.69,0,0,1,1.52-3l10.61,5.34L134,137.73a1.69,1.69,0,0,1,1.54,3L125.15,146v12.06A1.7,1.7,0,0,1,123.46,159.77Z"/><path class="cls-9" d="M251.46,162.1l25,14.43,25-14.43V133.22l-25-14.43-25,14.43Z"/><path class="cls-6" d="M275.72,157.13a1.7,1.7,0,0,1-1.69-1.7V146.7l-7.56-3.81a1.69,1.69,0,1,1,1.52-3l7.73,3.89,7.65-3.89a1.7,1.7,0,0,1,1.54,3l-7.49,3.8v8.74A1.7,1.7,0,0,1,275.72,157.13Z"/><rect class="cls-10" x="187.16" y="146.36" width="36.86" height="4.52"/><polygon class="cls-10" points="213.53 161.56 211.37 159.24 222.8 148.62 211.37 138 213.53 135.68 227.45 148.62 213.53 161.56"/><rect class="cls-10" x="326.74" y="146.36" width="36.86" height="4.52"/><polygon class="cls-10" points="353.11 161.56 350.95 159.24 362.38 148.62 350.95 138 353.11 135.68 367.03 148.62 353.11 161.56"/><path class="cls-11" d="M390.26,167.44l34.26,19.79,34.27-19.79V127.88l-34.27-19.79-34.26,19.79Z"/><path class="cls-7" d="M423.52,159.77a1.7,1.7,0,0,1-1.69-1.7V146l-10.45-5.27a1.69,1.69,0,1,1,1.53-3l10.61,5.34L434,137.73a1.69,1.69,0,1,1,1.53,3L425.22,146v12.06A1.7,1.7,0,0,1,423.52,159.77Z"/><polygon class="cls-6" points="516.06 37.2 503.14 29.74 503.14 44.65 516.06 37.2"/><circle class="cls-12" cx="508.03" cy="37.11" r="18.77"/></g></svg>