<?xml version="1.0" encoding="UTF-8"?>
<svg id="Ebene_1" data-name="Ebene 1" xmlns="http://www.w3.org/2000/svg" xmlns:xlink="http://www.w3.org/1999/xlink" version="1.1" viewBox="0 0 473.9 265.5">
  <defs>
    <style>
      .cls-1 {
        fill: url(#Unbenannter_Verlauf);
      }

      .cls-1, .cls-2, .cls-3, .cls-4, .cls-5, .cls-6, .cls-7, .cls-8, .cls-9, .cls-10, .cls-11, .cls-12 {
        stroke-width: 0px;
      }

      .cls-2 {
        fill: #eee;
      }

      .cls-3 {
        fill: #e25a1c;
      }

      .cls-3, .cls-10 {
        fill-rule: evenodd;
      }

      .cls-4, .cls-13, .cls-14 {
        fill: none;
      }

      .cls-13 {
        stroke-miterlimit: 10;
        stroke-width: 4px;
      }

      .cls-13, .cls-14, .cls-15 {
        stroke: #fc0;
      }

      .cls-5 {
        fill: #fc0;
      }

      .cls-14, .cls-15 {
        stroke-linecap: round;
        stroke-linejoin: round;
        stroke-width: 2px;
      }

      .cls-6 {
        fill: url(#Unbenannter_Verlauf_5);
      }

      .cls-7 {
        fill: url(#Unbenannter_Verlauf_4);
      }

      .cls-8 {
        fill: url(#Unbenannter_Verlauf_3);
      }

      .cls-9 {
        fill: url(#Unbenannter_Verlauf_2);
      }

      .cls-10, .cls-15, .cls-11 {
        fill: #fff;
      }

      .cls-12 {
        fill: #39f;
        isolation: isolate;
        opacity: .2;
      }
    </style>
    <linearGradient id="Unbenannter_Verlauf" data-name="Unbenannter Verlauf" x1="1.8" y1="60.1" x2="473.5" y2="60.1" gradientTransform="translate(0 268) scale(1 -1)" gradientUnits="userSpaceOnUse">
      <stop offset="0" stop-color="#981869"/>
      <stop offset=".2" stop-color="#771c65"/>
      <stop offset=".4" stop-color="#591f62"/>
      <stop offset=".6" stop-color="#432260"/>
      <stop offset=".8" stop-color="#36235e"/>
      <stop offset="1" stop-color="#32245e"/>
    </linearGradient>
    <linearGradient id="Unbenannter_Verlauf_2" data-name="Unbenannter Verlauf 2" x1="244.6" y1="213.7" x2="351.8" y2="213.7" gradientTransform="translate(0 268) scale(1 -1)" gradientUnits="userSpaceOnUse">
      <stop offset="0" stop-color="#981869"/>
      <stop offset=".2" stop-color="#771c65"/>
      <stop offset=".4" stop-color="#591f62"/>
      <stop offset=".6" stop-color="#432260"/>
      <stop offset=".8" stop-color="#36235e"/>
      <stop offset="1" stop-color="#32245e"/>
    </linearGradient>
    <linearGradient id="Unbenannter_Verlauf_3" data-name="Unbenannter Verlauf 3" x1="366.3" y1="213.7" x2="473.5" y2="213.7" gradientTransform="translate(0 268) scale(1 -1)" gradientUnits="userSpaceOnUse">
      <stop offset="0" stop-color="#981869"/>
      <stop offset=".2" stop-color="#771c65"/>
      <stop offset=".4" stop-color="#591f62"/>
      <stop offset=".6" stop-color="#432260"/>
      <stop offset=".8" stop-color="#36235e"/>
      <stop offset="1" stop-color="#32245e"/>
    </linearGradient>
    <linearGradient id="Unbenannter_Verlauf_4" data-name="Unbenannter Verlauf 4" x1=".7" y1="213.7" x2="107.9" y2="213.7" gradientTransform="translate(0 268) scale(1 -1)" gradientUnits="userSpaceOnUse">
      <stop offset="0" stop-color="#981869"/>
      <stop offset=".2" stop-color="#771c65"/>
      <stop offset=".4" stop-color="#591f62"/>
      <stop offset=".6" stop-color="#432260"/>
      <stop offset=".8" stop-color="#36235e"/>
      <stop offset="1" stop-color="#32245e"/>
    </linearGradient>
    <linearGradient id="Unbenannter_Verlauf_5" data-name="Unbenannter Verlauf 5" x1="122.4" y1="213.7" x2="229.6" y2="213.7" gradientTransform="translate(0 268) scale(1 -1)" gradientUnits="userSpaceOnUse">
      <stop offset="0" stop-color="#981869"/>
      <stop offset=".2" stop-color="#771c65"/>
      <stop offset=".4" stop-color="#591f62"/>
      <stop offset=".6" stop-color="#432260"/>
      <stop offset=".8" stop-color="#36235e"/>
      <stop offset="1" stop-color="#32245e"/>
    </linearGradient>
  </defs>
  <g id="Lock">
    <line class="cls-2" x1="912.5" y1="3101.6" x2="-1008.5" y2="3101.6"/>
    <rect class="cls-1" x="1.8" y="149.7" width="471.8" height="116.3" rx="4" ry="4"/>
    <rect class="cls-9" x="244.6" y=".7" width="107.2" height="107.2" rx="4" ry="4"/>
    <path class="cls-11" d="M290,81.4c0-.4,0-.7-.3-1-.2-.3-.5-.5-.8-.7-.3-.2-.6-.4-1-.6-.4-.2-.7-.4-1-.7-.3-.3-.6-.6-.8-.9-.2-.4-.2-.9-.2-1.4,0-.5,0-1,.3-1.5.2-.4.5-.7.9-1,.4-.2.8-.4,1.2-.5.5-.1,1-.2,1.5-.2.6,0,1.1,0,1.7.2.4,0,.8.2,1.2.4l-.6,1.1c-.3-.2-.7-.3-1-.3-.5-.1-1-.2-1.5-.2-.6,0-1.2.1-1.7.5-.4.3-.7.8-.7,1.4,0,.4,0,.7.3,1,.2.3.5.5.8.7.3.2.7.4,1,.6.4.2.7.4,1,.7.3.3.6.6.8.9.2.4.3.9.3,1.3,0,.9-.4,1.8-1.1,2.4-1,.6-2.1.9-3.2.8-.6,0-1.2,0-1.8-.2-.4,0-.8-.2-1.1-.4l.7-1.2c.8.4,1.6.6,2.5.6.3,0,.7,0,1,0,.3,0,.6-.2.9-.3.3-.1.5-.4.6-.6.2-.3.2-.6.2-.9Z"/>
    <path class="cls-11" d="M293,80.2c0-1,.1-1.9.4-2.8.2-.8.6-1.6,1.2-2.3.5-.7,1.1-1.2,1.8-1.6.7-.4,1.5-.6,2.3-.6.5,0,1,0,1.4.2.4.1.8.4,1.1.7.3.4.6.8.7,1.3.2.6.3,1.3.3,2,0,1-.1,1.9-.4,2.8-.2.8-.6,1.6-1.1,2.4-.5.7-1,1.2-1.7,1.6-.7.4-1.4.6-2.2.6-1.1,0-2.1-.3-2.9-1.1-.7-.9-1-2.1-1-3.2ZM294.4,80.2c0,.8.2,1.6.6,2.3.4.6,1.1.9,1.9.8.6,0,1.2-.2,1.6-.5.5-.4,1-.8,1.3-1.3.4-.6.7-1.3.9-2,.2-.8.3-1.6.3-2.4,0-.5,0-1-.2-1.5,0-.4-.3-.7-.5-1-.2-.2-.5-.4-.8-.5-.3,0-.6-.1-.9-.1-.6,0-1.2.2-1.7.5-.5.4-1,.8-1.3,1.4-.4.6-.7,1.3-.8,2-.2.8-.3,1.5-.3,2.3h0ZM302.1,87c-.2,0-.5.1-.8.2-.2,0-.5,0-.7,0-.5,0-1,0-1.5-.2-.5-.1-.9-.2-1.3-.4l-1.2-.4c-.4-.1-.8-.2-1.1-.2h-.4c-.1,0-.2,0-.4,0l.2-1.2c.3,0,.6,0,.9,0,.4,0,.8,0,1.2.2l1.2.4c.4.1.8.2,1.3.4.5.1,1,.2,1.5.2.5,0,.9,0,1.4-.2l-.3,1.2Z"/>
    <path class="cls-11" d="M309.3,84.3h-6.3l2.4-11.3h1.3l-2.1,10.1h5l-.2,1.2Z"/>
    <path class="cls-11" d="M256.6,26.3v-1.3h4.7v1.4l-1.2.2v8.2l1.2.2v1.4h-4.7v-1.4l1.2-.2v-8.2l-1.2-.2Z"/>
    <path class="cls-11" d="M262.1,35l1.1-.2v-5.3l-1.2-.2v-1.4h3.4v1.2c.4-.4.7-.7,1.1-1,.4-.2.9-.4,1.4-.4.8,0,1.5.3,2,.8.5.7.8,1.6.7,2.5v3.7l1.1.2v1.4h-4.4v-1.4l1-.2v-3.7c0-.4,0-.9-.4-1.2-.3-.2-.6-.4-1-.4-.6,0-1.1.2-1.4.7v4.6l.9.2v1.4h-4.3v-1.4Z"/>
    <path class="cls-11" d="M275.8,25.8v2.1h1.5v1.6h-1.5v4.3c0,.3,0,.5.2.7.1.1.3.2.5.2h.8c0,0,.2,1.6.2,1.6-.3,0-.5.1-.8.2-.3,0-.5,0-.8,0-.7,0-1.3-.2-1.8-.7-.5-.6-.7-1.3-.6-2.1v-4.4h-1.2v-1.6h1.2v-2.1h2.3Z"/>
    <path class="cls-11" d="M282.5,36.5c-1.1,0-2.2-.4-2.9-1.2-.8-.8-1.1-1.9-1.1-3v-.3c0-1.1.3-2.2,1-3.1,1.5-1.6,3.9-1.6,5.5-.2.7.8,1,1.8,1,2.8v1.2h-5.1c0,.5.2,1,.6,1.4.4.4.9.6,1.4.5.4,0,.8,0,1.3-.2.4-.1.8-.3,1.1-.5l.6,1.4c-.4.3-.9.5-1.4.7-.6.2-1.2.3-1.9.3ZM282.3,29.5c-.4,0-.8.2-1,.5-.3.4-.4.8-.5,1.3h2.8v-.2c0-.4,0-.8-.3-1.2-.2-.3-.6-.5-1-.4h0Z"/>
    <path class="cls-11" d="M287.2,35l1.1-.2v-5.3l-1.2-.2v-1.4h3.4v1.2c.3-.4.5-.7.9-1,.3-.2.7-.4,1.1-.4h.4c.1,0,.2,0,.3,0l-.2,2.1h-1c-.3,0-.6,0-.8.2-.2.1-.4.3-.5.6v4.1l1.1.2v1.4h-4.5v-1.4Z"/>
    <path class="cls-11" d="M299,36.4c0-.1-.1-.3-.2-.4,0-.1,0-.3-.1-.5-.3.3-.6.6-1,.8-.4.2-.9.3-1.3.3-.7,0-1.4-.2-2-.7-.5-.5-.7-1.2-.7-1.9,0-.7.4-1.4,1-1.8.9-.5,1.8-.7,2.8-.6h1.2v-.8c0-.4,0-.7-.4-1-.3-.2-.7-.4-1-.3-.2,0-.5,0-.7,0-.2,0-.3.1-.5.2v.9h-1.9v-1.8c.4-.3.9-.5,1.4-.7.6-.2,1.2-.3,1.8-.3.9,0,1.8.2,2.6.8.7.5,1,1.3,1,2.2v4.2h.7v1.5h-2.7ZM297,34.9c.3,0,.7,0,.9-.2.3-.1.5-.3.7-.6v-1.3h-1.2c-.4,0-.8,0-1.1.3-.2.2-.4.5-.4.8,0,.3,0,.5.3.7.2.2.5.3.8.3Z"/>
    <path class="cls-11" d="M306.4,34.8c.4,0,.7-.1,1-.4.3-.3.4-.6.4-1h2.1c0,.9-.3,1.7-1,2.2-1.6,1.3-4,1.1-5.4-.3-.7-.9-1.1-2-1-3.1v-.2c0-1.1.3-2.2,1.1-3.1.8-.8,1.9-1.3,3-1.2.6,0,1.3,0,1.9.3.5.2,1,.5,1.4.9v2.3h-1.9l-.4-1.3c-.1-.1-.3-.2-.4-.2-.7-.3-1.5,0-1.9.6-.3.6-.4,1.2-.4,1.8v.2c0,.6,0,1.3.4,1.8.3.5.8.8,1.4.7Z"/>
    <path class="cls-11" d="M314.3,25.8v2.1h1.5v1.6h-1.5v4.3c0,.3,0,.5.2.7.1.1.3.2.5.2h.8c0,0,.2,1.6.2,1.6-.3,0-.5.1-.8.2-.3,0-.5,0-.8,0-.7,0-1.3-.2-1.8-.7-.5-.6-.7-1.3-.6-2.1v-4.4h-1.2v-1.6h1.2v-2.1h2.3Z"/>
    <path class="cls-11" d="M316.9,35l1.1-.2v-5.3l-1.2-.2v-1.4h3.5v6.9l1.1.2v1.4h-4.5v-1.4ZM320.2,25.9h-2.2v-1.7h2.3v1.7Z"/>
    <path class="cls-11" d="M325.7,29.3h-.8c0,.1,1.1,4,1.1,4v.8h.2l.2-.8,1.1-3.8-.8-.2v-1.4h3.9v1.4h-.7c0,.1-2.5,7.1-2.5,7.1h-2.2l-2.5-7h-.7v-1.5h3.9v1.4Z"/>
    <path class="cls-11" d="M335.2,36.5c-1.1,0-2.2-.4-2.9-1.2-.7-.8-1.1-1.9-1.1-3v-.3c0-1.1.3-2.2,1-3.1.7-.8,1.7-1.3,2.8-1.2,1,0,2,.3,2.7,1,.7.8,1,1.8,1,2.8v1.2h-5.1c0,.5.2,1,.6,1.4.3.4.8.6,1.4.5.4,0,.9,0,1.3-.2.4-.1.8-.3,1.1-.5l.6,1.4c-.4.3-.9.5-1.4.7-.6.2-1.2.3-1.8.4ZM335,29.5c-.4,0-.8.2-1,.5-.3.4-.4.8-.5,1.3h2.8v-.2c0-.4,0-.8-.3-1.2-.3-.3-.6-.5-1-.4h0Z"/>
    <path class="cls-11" d="M279.2,46.3c0,.9-.2,1.9-.5,2.7-.3.8-.8,1.5-1.5,2l2.4,1.5-1.6,1.3-2.8-1.8h-.6c-.2.1-.4.1-.6,0-1.4,0-2.8-.6-3.7-1.6-1-1.2-1.5-2.6-1.4-4.2v-.2c0-1.5.5-3,1.4-4.1.9-1.1,2.3-1.7,3.8-1.7,1.4,0,2.8.6,3.8,1.7,1,1.2,1.5,2.6,1.4,4.2h0ZM276.9,46.1c0-1-.2-2-.7-2.9-.5-.7-1.3-1.2-2.2-1.1-.9,0-1.7.4-2.1,1.1-.5.9-.8,1.9-.7,2.9v.2c0,1,.2,2,.7,2.9.5.7,1.3,1.2,2.1,1.1.9,0,1.7-.4,2.2-1.1.5-.9.8-1.9.7-2.9v-.2Z"/>
    <path class="cls-11" d="M286.1,50.9c-.3.4-.6.7-1,.9-.4.2-.9.3-1.4.3-.8,0-1.6-.3-2.1-.9-.6-.8-.8-1.7-.8-2.7v-3.5l-.9-.2v-1.4h3.2v5.1c0,.5,0,.9.3,1.3.2.3.6.4.9.4.3,0,.6,0,.9-.2.3-.1.5-.3.6-.5v-4.6l-1-.2v-1.4h3.3v6.9l1,.2v1.4h-3l-.2-1.1Z"/>
    <path class="cls-11" d="M294.3,52.1c-1.1,0-2.2-.4-2.9-1.2-.7-.8-1.1-1.9-1.1-3v-.3c0-1.1.3-2.2,1-3.1,1.5-1.6,3.9-1.6,5.5-.2.7.8,1,1.8,1,2.8v1.2h-5.1c0,.6.2,1,.6,1.4.4.4.9.6,1.4.5.4,0,.8,0,1.3-.2.4-.1.7-.3,1.1-.5l.6,1.4c-.4.3-.9.5-1.4.7-.6.2-1.2.3-1.8.3ZM294.1,45c-.4,0-.8.2-1,.5-.3.4-.4.8-.5,1.3h2.8v-.2c0-.4-.1-.8-.4-1.2-.3-.3-.6-.4-1-.4Z"/>
    <path class="cls-11" d="M299,50.6l1.1-.2v-5.3l-1.2-.2v-1.4h3.4v1.2c.3-.4.5-.7.9-1,.3-.2.7-.4,1.1-.4h.7c0,0-.2,2.2-.2,2.2h-.9c-.3,0-.6,0-.8.2-.2.1-.4.3-.5.5v4.1l1.1.2v1.4h-4.5v-1.4Z"/>
    <path class="cls-11" d="M305.5,50.6l1.1-.2v-5.3l-1.2-.2v-1.4h3.5v6.9l1.1.2v1.4h-4.5v-1.4ZM308.9,41.4h-2.3v-1.7h2.3v1.7Z"/>
    <path class="cls-11" d="M314.8,52.1c-1.1,0-2.2-.4-2.9-1.2-.7-.8-1.1-1.9-1.1-3v-.3c0-1.1.3-2.2,1-3.1,1.5-1.6,3.9-1.6,5.5-.2.7.8,1,1.8,1,2.8v1.2h-5.1c0,.6.2,1,.6,1.4.4.4.9.6,1.4.5.4,0,.8,0,1.3-.2.4-.1.7-.3,1.1-.5l.6,1.4c-.4.3-.9.5-1.4.7-.6.2-1.2.3-1.8.3ZM314.6,45c-.4,0-.8.2-1,.5-.3.4-.4.8-.5,1.3h2.9v-.2c0-.4-.1-.8-.4-1.2-.3-.3-.7-.4-1.1-.4Z"/>
    <path class="cls-11" d="M326.2,46.4h-1.5l-.2-1.1c-.2-.1-.4-.2-.6-.3-.3,0-.5-.1-.8-.1-.3,0-.7,0-1,.3-.2.2-.4.4-.4.7,0,.3.1.5.3.6.4.2.9.4,1.4.5.8.1,1.6.4,2.3.9.5.4.8,1,.8,1.7,0,.8-.4,1.5-1,1.9-.8.5-1.7.8-2.6.7-.6,0-1.2,0-1.8-.3-.5-.2-1-.5-1.4-.8v-1.9h1.6l.3,1.1c.2.1.3.2.5.3.2,0,.5,0,.7,0,.4,0,.7,0,1.1-.2.2-.2.4-.4.4-.7,0-.3-.1-.5-.4-.7-.4-.2-.9-.4-1.4-.5-.8-.1-1.6-.4-2.3-.9-.5-.4-.8-1-.8-1.6,0-.7.3-1.4.9-1.8.7-.6,1.6-.8,2.5-.8.6,0,1.3,0,1.9.3.5.1,1,.4,1.4.7v2.1Z"/>
    <rect class="cls-8" x="366.3" y=".7" width="107.2" height="107.2" rx="4" ry="4"/>
    <path class="cls-11" d="M400.4,78.7h3l-1,5c-.8.6-1.8.9-2.8.8-.5,0-1,0-1.5-.3-.5-.2-.9-.5-1.3-.9-.4-.4-.7-.9-.9-1.4-.2-.6-.3-1.3-.3-2,0-1.1.2-2.3.6-3.3.3-.8.8-1.6,1.5-2.2.6-.5,1.3-.9,2-1.2.7-.2,1.4-.4,2.1-.4.5,0,1,0,1.5.1.3,0,.7.2,1,.3l-.6,1.2c-.3-.1-.6-.2-.9-.3-.4-.1-.8-.2-1.3-.2-1.2,0-2.4.5-3.3,1.4-.4.5-.8,1.1-1,1.8-.3.8-.4,1.6-.4,2.5,0,.5,0,.9.2,1.4.1.4.3.8.5,1.1.2.3.5.6.9.8.4.2.8.3,1.3.3.3,0,.6,0,.9-.1.3,0,.5-.2.7-.3l.7-3.1-1.8-.3v-.7Z"/>
    <path class="cls-11" d="M409.5,77.3c0,0-.2,0-.3,0h-.3c-.5,0-1,.2-1.4.5-.4.3-.7.8-.9,1.2l-1.1,5.3h-1.2l1.7-8.1h.8v1.4h0c.1-.2.3-.4.4-.6.1-.2.3-.3.5-.5.2-.1.4-.3.6-.3.2,0,.5-.1.7-.1.2,0,.5,0,.7.1l-.3,1Z"/>
    <path class="cls-11" d="M415.6,81.1c0,.4-.1.8-.2,1.2,0,.4,0,.8,0,1.1v.5c0,.1,0,.3,0,.4h-.9l-.2-1.4h0c-.1.2-.3.4-.5.6-.2.2-.4.4-.6.5-.2.1-.5.3-.7.4-.3,0-.5.1-.8.1-1.3,0-1.9-.8-1.9-2.5,0-.7,0-1.4.3-2.1.2-.7.4-1.3.8-1.9.4-.6.9-1,1.4-1.4.6-.4,1.4-.6,2.1-.6.4,0,.7,0,1.1.1.4,0,.8.2,1.2.3l-1,4.7ZM412,83.4c.3,0,.5,0,.7-.2.2-.1.5-.3.7-.4.2-.2.4-.4.6-.6.1-.2.3-.4.4-.6l.9-4.3c-.4-.2-.8-.2-1.2-.2-.5,0-.9.2-1.3.4-.4.3-.7.7-1,1.1-.3.5-.5,1-.6,1.6-.1.6-.2,1.2-.2,1.8,0,.3,0,.7.2,1,.1.3.4.5.8.4Z"/>
    <path class="cls-11" d="M419.1,76.2h.8v1.4c0,0,0,0,0,0,.2-.2.3-.4.5-.6.2-.2.4-.4.6-.5.2-.2.5-.3.7-.4.3,0,.6-.1.9-.1.2,0,.5,0,.7.1.2,0,.4.2.6.4.2.2.3.5.4.8.1.4.2.8.1,1.1,0,.9-.1,1.7-.4,2.5-.2.7-.6,1.3-1,1.9-.4.5-.9.9-1.4,1.2-.5.3-1,.4-1.5.4-.3,0-.7,0-1-.1-.2,0-.4-.1-.6-.2l-.7,3.3h-1.2l2.4-11.3ZM422.2,77.1c-.3,0-.6,0-.8.2-.3.2-.5.3-.7.6-.2.2-.4.5-.6.7-.2.2-.3.5-.4.7l-.8,3.8c.2.1.4.2.6.3.2,0,.4,0,.6,0,.4,0,.8-.1,1.2-.3.4-.3.7-.6,1-1,.3-.5.6-1,.7-1.5.2-.7.3-1.3.3-2,0-.4,0-.7-.2-1.1-.2-.3-.5-.4-.8-.4Z"/>
    <path class="cls-11" d="M430.4,84.3l1-4.6c0-.3.1-.6.2-.9,0-.2,0-.4,0-.7,0-.3,0-.6-.2-.8-.2-.2-.5-.3-.8-.2-.3,0-.6,0-.9.2-.3.2-.6.3-.8.6-.3.2-.5.5-.7.8-.2.2-.3.5-.5.8l-1,4.9h-1.2l2.3-11.3h1.2l-1,4.6h0c.2-.2.3-.4.5-.5.2-.2.4-.4.7-.5.3-.2.5-.3.8-.4.3-.1.7-.2,1-.2.4,0,.9.1,1.2.4.3.4.5.9.5,1.4,0,.5,0,1.1-.2,1.6l-1,4.9h-1.2Z"/>
    <path class="cls-11" d="M438.1,78.5l-2.1-5.5h1.4l1.4,3.8.2.9.5-.9,3.1-3.8h1.6l-4.5,5.4,2.3,5.8h-1.4l-1.5-4-.2-1-.6,1-3.3,4h-1.6l4.7-5.8Z"/>
    <path class="cls-11" d="M406.4,35.1c-.5.4-1,.8-1.6,1-.9.3-1.8.5-2.7.4-1.4,0-2.8-.5-3.8-1.5-1-1.1-1.5-2.5-1.5-4v-.4c0-1.5.4-3,1.4-4.2.9-1.1,2.3-1.7,3.8-1.6.8,0,1.7.1,2.5.4.7.3,1.3.6,1.9,1.1v2.3h-1.7l-.3-1.5c-.2-.2-.5-.3-.8-.4-.4-.1-.8-.2-1.2-.2-.9,0-1.8.4-2.3,1.1-.6.9-.9,1.9-.8,2.9v.4c0,1,.2,2,.8,2.8.6.7,1.5,1.1,2.4,1,.4,0,.8,0,1.1-.1.2,0,.5-.1.7-.3v-1.9h-1.6v-1.7h3.9v4.4Z"/>
    <path class="cls-11" d="M407.7,35l1.1-.2v-5.3l-1.2-.2v-1.4h3.4v1.2c.3-.4.5-.7.9-1,.3-.2.7-.4,1.1-.4h.4c.1,0,.2,0,.3,0l-.2,2.1h-.9c-.3,0-.6,0-.8.2-.2.1-.4.3-.5.6v4.1l1.1.2v1.4h-4.5v-1.4Z"/>
    <path class="cls-11" d="M419.6,36.4c0-.1-.1-.3-.2-.4s0-.3-.1-.5c-.3.3-.6.6-1,.8-.4.2-.9.3-1.3.3-.7,0-1.4-.2-2-.7-.5-.5-.8-1.2-.7-1.8,0-.7.4-1.4,1-1.8.9-.5,1.8-.7,2.8-.6h1.2v-.8c0-.4,0-.7-.4-1-.3-.2-.6-.3-1-.3-.2,0-.5,0-.7,0-.2,0-.3.1-.5.2v.9h-1.9v-1.8c.4-.3.9-.5,1.4-.7.6-.2,1.2-.3,1.8-.3.9,0,1.8.2,2.6.8.7.5,1,1.3,1,2.2v3.9c0,.1,0,.2,0,.3h.7v1.5h-2.7ZM417.6,34.9c.3,0,.7,0,.9-.2.3-.1.5-.3.7-.6v-1.3h-1.2c-.4,0-.8,0-1.1.3-.2.2-.4.5-.4.8,0,.3,0,.5.3.7.2.2.5.3.8.3h0Z"/>
    <path class="cls-11" d="M422.8,29.3v-1.4h3.3v1c.3-.3.6-.6,1-.9.4-.2.8-.3,1.2-.3,1,0,1.9.4,2.5,1.3.6,1,.9,2.1.9,3.2v.2c0,1.1-.3,2.1-.9,3-.6.8-1.5,1.2-2.4,1.1-.4,0-.8,0-1.2-.2-.4-.2-.7-.4-.9-.7v2.4l1.1.2v1.4h-4.5v-1.3l1.1-.2v-8.5l-1.3-.2ZM429.4,32.2c0-.7-.1-1.3-.4-2-.2-.5-.7-.8-1.2-.7-.3,0-.6,0-.9.2-.2.1-.4.3-.6.6v3.7c.1.2.3.4.6.5.3.1.6.2.9.2.5,0,1-.2,1.2-.7.3-.5.4-1.2.4-1.8v-.2Z"/>
    <path class="cls-11" d="M432.5,35l1.1-.2v-9l-1.2-.2v-1.4h3.5v4.9c.3-.4.6-.7,1-.9,1.1-.6,2.5-.4,3.4.6.6.8.8,1.8.8,2.7v3.4l1.1.2v1.4h-4.4v-1.4l1-.2v-3.4c0-.5,0-1-.4-1.4-.3-.3-.6-.4-1-.4-.3,0-.6,0-.8.2-.2.1-.4.3-.6.5v4.6l1,.2v1.4h-4.4v-1.4Z"/>
    <path class="cls-11" d="M378,44.8v-1.4h3.3v1c.3-.3.7-.6,1-.8.4-.2.8-.3,1.2-.3,1,0,1.9.4,2.4,1.2.6,1,.9,2.1.9,3.2v.2c0,1.1-.3,2.1-.9,3-.6.8-1.5,1.2-2.4,1.2-.4,0-.8,0-1.2-.2-.3-.2-.7-.4-.9-.7v2.5l1.1.2v1.4h-4.5v-1.4l1.1-.2v-8.5l-1.2-.2ZM384.6,47.8c0-.7-.1-1.3-.4-2-.2-.5-.7-.8-1.2-.8-.3,0-.6,0-.9.2-.2.2-.4.4-.6.6v3.7c.1.2.3.4.6.5.3.1.6.2.9.2.5,0,1-.2,1.2-.7.3-.5.4-1.2.4-1.8v-.2Z"/>
    <path class="cls-11" d="M388.1,50.6l1.1-.2v-5.3l-1.2-.2v-1.4h3.4v1.2c.3-.4.5-.7.9-1,.3-.2.7-.4,1.1-.4h.7c0,0-.2,2.2-.2,2.2h-.9c-.3,0-.6,0-.8.2-.2.1-.4.3-.5.5v4.1l1.1.2v1.4h-4.5v-1.4Z"/>
    <path class="cls-11" d="M394.5,47.6c0-1.1.3-2.2,1.1-3.1,1.6-1.6,4.3-1.6,5.9,0,.7.9,1.1,2,1.1,3.1v.2c0,1.1-.3,2.3-1.1,3.1-1.6,1.6-4.3,1.6-5.9,0-.7-.9-1.1-2-1.1-3.1v-.2ZM396.8,47.8c0,.6.1,1.3.4,1.9.5.7,1.5.9,2.2.4.2-.1.3-.3.4-.4.3-.6.4-1.2.4-1.9v-.2c0-.6-.1-1.3-.4-1.8-.5-.7-1.4-.9-2.1-.5-.2.1-.3.3-.5.5-.3.6-.4,1.2-.4,1.8v.2Z"/>
    <path class="cls-11" d="M407.5,50.3c.4,0,.7-.1,1-.4.3-.2.4-.6.4-1h2.1c0,.8-.3,1.6-1,2.2-.7.6-1.6.9-2.5.9-1.1,0-2.2-.4-2.9-1.2-.7-.9-1.1-2-1-3.1v-.2c0-1.1.3-2.2,1-3.1.8-.8,1.9-1.3,3-1.2.6,0,1.3,0,1.9.3.5.2,1,.5,1.4.9v2.3h-1.8l-.4-1.3c-.1-.1-.3-.2-.4-.2-.2,0-.4,0-.6,0-.6,0-1.1.2-1.4.7-.3.6-.4,1.2-.4,1.8v.2c0,.6,0,1.3.4,1.8.2.5.7.8,1.3.7Z"/>
    <path class="cls-11" d="M416,52.1c-1.1,0-2.2-.4-2.9-1.2-.7-.8-1.1-1.9-1.1-3v-.3c0-1.1.3-2.2,1-3.1,1.5-1.6,3.9-1.6,5.5-.2.7.8,1,1.8,1,2.8v1.2h-5.1c0,.6.2,1,.6,1.4.4.4.9.6,1.4.5.4,0,.8,0,1.3-.2.4-.1.7-.3,1.1-.5l.6,1.4c-.4.3-.9.5-1.4.7-.6.2-1.2.3-1.9.3ZM415.8,45c-.4,0-.8.2-1,.5-.3.4-.4.8-.5,1.3h2.8v-.2c0-.4,0-.8-.3-1.2-.3-.3-.6-.4-1-.4h0Z"/>
    <path class="cls-11" d="M427.5,46.4h-1.5l-.2-1.1c-.2-.1-.4-.2-.6-.3-.3,0-.5-.1-.8-.1-.3,0-.7,0-1,.3-.2.2-.4.4-.4.7,0,.3.1.5.3.6.4.2.9.4,1.4.5.8.1,1.6.4,2.3.9.5.4.8,1,.8,1.7,0,.8-.4,1.5-1,1.9-.8.5-1.7.8-2.6.7-.6,0-1.2,0-1.8-.3-.5-.2-1-.5-1.5-.8v-1.9h1.6l.3,1.1c.2.1.3.2.5.3.2,0,.5,0,.7,0,.4,0,.7,0,1.1-.2.2-.2.4-.4.4-.7,0-.3-.1-.5-.4-.7-.4-.2-.9-.4-1.4-.5-.8-.1-1.6-.4-2.3-.9-.5-.4-.8-1-.8-1.6,0-.7.3-1.4.9-1.8.7-.6,1.6-.8,2.5-.8.6,0,1.3,0,1.9.3.5.1,1,.4,1.4.7v2.1Z"/>
    <path class="cls-11" d="M435.8,46.4h-1.5l-.2-1.1c-.2-.1-.4-.2-.6-.3-.3,0-.5-.1-.8-.1-.4,0-.7,0-1,.3-.2.2-.3.4-.4.7,0,.3.1.5.3.6.4.2.9.4,1.4.5.8.1,1.6.4,2.3.9.5.4.8,1,.8,1.7,0,.8-.4,1.5-1,1.9-.8.5-1.7.8-2.6.7-.6,0-1.2,0-1.8-.3-.5-.2-1-.5-1.5-.8v-1.9h1.6l.3,1.1c.2.1.4.2.6.3.2,0,.5,0,.7,0,.4,0,.7,0,1.1-.2.2-.1.4-.4.4-.7,0-.3-.1-.5-.4-.7-.4-.2-.9-.4-1.4-.5-.8-.1-1.6-.4-2.3-.9-.5-.4-.8-1-.8-1.6,0-.7.3-1.4.9-1.8.7-.6,1.6-.8,2.5-.8.6,0,1.3,0,1.9.3.5.1,1,.4,1.4.7v2.1Z"/>
    <path class="cls-11" d="M437,50.6l1.1-.2v-5.3l-1.2-.2v-1.4h3.5v6.9l1.1.2v1.4h-4.5v-1.4ZM440.4,41.4h-2.3v-1.7h2.3v1.7Z"/>
    <path class="cls-11" d="M442.2,50.6l1.1-.2v-5.3l-1.2-.2v-1.4h3.4v1.2c.4-.4.7-.7,1.1-1,.4-.2.9-.4,1.4-.4.8,0,1.5.3,2,.8.5.7.8,1.6.7,2.5v3.7l1.1.2v1.4h-4.4v-1.4l1-.2v-3.7c0-.4,0-.9-.4-1.2-.3-.2-.6-.4-1-.4-.3,0-.6,0-.8.2-.2.1-.4.3-.6.5v4.5l.9.2v1.4h-4.3v-1.4Z"/>
    <path class="cls-11" d="M452.6,47.8c0-1.1.3-2.3.9-3.2.6-.8,1.5-1.3,2.5-1.2.4,0,.9.1,1.3.3.4.2.7.5.9.9l.2-1.1h2v8.2c0,1-.3,2-1.1,2.7-.8.7-1.8,1.1-2.9,1-.5,0-.9,0-1.4-.2-.5-.1-.9-.3-1.3-.5l.4-1.6c.4.2.7.3,1.1.4.4,0,.8.1,1.2.1.5,0,.9-.2,1.3-.5.3-.4.5-.9.4-1.4v-.5c-.2.3-.5.6-.9.7-.4.2-.8.3-1.2.2-.9,0-1.9-.4-2.4-1.1-.6-.9-.9-1.9-.9-3v-.2ZM454.9,47.9c0,.6,0,1.2.4,1.8.3.4.7.7,1.2.6.3,0,.6,0,.9-.2.2-.1.5-.3.6-.6v-3.7c-.3-.5-.9-.8-1.5-.8-.5,0-1,.3-1.2.8-.3.6-.4,1.3-.4,2v.2Z"/>
    <rect class="cls-7" x=".7" y=".7" width="107.2" height="107.2" rx="4" ry="4"/>
    <rect class="cls-12" x="63.4" y="223.1" width="73.5" height="31.6" rx="4" ry="4"/>
    <rect class="cls-12" x="152.4" y="223.1" width="73.4" height="31.6" rx="4" ry="4"/>
    <rect class="cls-12" x="241.9" y="223.1" width="73.5" height="31.6" rx="4" ry="4"/>
    <rect class="cls-12" x="330.4" y="223.1" width="73.5" height="31.6" rx="4" ry="4"/>
    <path class="cls-11" d="M46.3,76.7l.5-1.7h0l-.9,1.5-3.9,5.1h-.4l-1.9-5.1-.2-1.6h0v1.7c-.1,0-1.7,7.6-1.7,7.6h-1.2l2.4-11.2h.9l2.1,5.8.2,1.2h0l.7-1.3,4.4-5.7h1.2l-2.4,11.3h-1.3l1.6-7.5Z"/>
    <path class="cls-11" d="M54.9,84.3h-6.3l2.4-11.3h1.3l-2.1,10.1h5l-.2,1.2Z"/>
    <path class="cls-11" d="M58,82.4c0,.1,0,.3,0,.4,0,.2,0,.3.1.4,0,0,.2.1.3.1.2,0,.4,0,.5,0,.2,0,.3,0,.5-.2v.9c-.1,0-.2.1-.3.1-.1,0-.3,0-.4,0h-.4c0,0-.4,0-.4,0-.3,0-.6,0-.9-.3-.3-.3-.4-.6-.3-1,0-.3,0-.5,0-.8l2-9.4h1.2l-2,9.4Z"/>
    <path class="cls-11" d="M62.8,76.2h1.2l-1.7,8.1h-1.3l1.8-8.1ZM63,73.8c0-.2,0-.5.2-.6.3-.3.9-.3,1.2,0,0,0,0,0,0,0,.2.2.3.4.3.6,0,.2,0,.5-.3.6-.3.3-.9.3-1.2,0-.2-.2-.3-.4-.3-.6Z"/>
    <path class="cls-11" d="M67.3,73h1.2l-1,4.6h0c.2-.2.3-.4.5-.6.2-.2.4-.4.6-.5.2-.1.5-.3.8-.4.3,0,.6-.1.9-.1.5,0,1.1.2,1.4.7.3.5.5,1.1.4,1.7,0,.9,0,1.8-.4,2.6-.2.7-.6,1.3-1.1,1.9-.4.5-.9.8-1.5,1.1-.5.3-1.1.4-1.7.4-.5,0-1,0-1.5-.2-.4,0-.7-.2-1-.4l2.3-10.8ZM70,77c-.3,0-.6,0-.8.2-.3.1-.6.3-.8.5-.3.2-.5.5-.7.7-.2.2-.4.5-.5.8l-.8,3.8c.4.3.9.4,1.4.3.4,0,.8-.1,1.1-.3.4-.2.7-.6,1-.9.3-.4.6-.9.8-1.5.2-.6.3-1.3.3-2,0-.4,0-.8-.2-1.2-.2-.2-.4-.3-.6-.3h0Z"/>
    <path class="cls-11" d="M268.6,200.7h-1.7l-.2-1.5c-.2-.2-.5-.4-.9-.5-.4-.1-.8-.2-1.2-.2-.9,0-1.8.4-2.3,1.1-.6.8-.9,1.8-.8,2.8v.4c0,1,.2,2,.8,2.8.5.7,1.4,1.1,2.3,1.1.4,0,.8,0,1.2-.2.3-.1.6-.3.9-.5l.2-1.5h1.7v2.3c-.5.6-1.1,1-1.8,1.3-.8.3-1.6.5-2.4.5-1.4,0-2.8-.5-3.8-1.6-1-1.1-1.5-2.6-1.5-4.1v-.4c0-1.5.5-3,1.5-4.1,1-1.1,2.3-1.7,3.8-1.6.8,0,1.6.2,2.4.5.7.3,1.3.7,1.8,1.3v2.3Z"/>
    <path class="cls-11" d="M269.7,204c0-1.1.3-2.2,1.1-3.1,1.6-1.6,4.3-1.6,5.9,0,.7.9,1.1,2,1.1,3.1v.2c0,1.1-.3,2.2-1.1,3.1-1.6,1.6-4.3,1.6-5.9,0-.7-.9-1.1-2-1.1-3.1v-.2ZM272,204.2c0,.6.1,1.3.4,1.9.5.7,1.5.9,2.2.4.2-.1.3-.3.4-.4.3-.6.4-1.2.4-1.9v-.2c0-.6-.1-1.3-.4-1.8-.3-.5-.8-.8-1.3-.7-.5,0-1,.2-1.3.7-.3.6-.4,1.2-.4,1.8v.2Z"/>
    <path class="cls-11" d="M278.9,206.9l1.1-.2v-5.3l-1.2-.2v-1.4h3.4v1.2c.3-.4.5-.7.9-1,.3-.2.7-.4,1.1-.4h.4c.1,0,.2,0,.3,0l-.2,2.1h-.9c-.3,0-.6,0-.8.2-.2.1-.4.3-.5.6v4.1l1.1.2v1.4h-4.5v-1.4Z"/>
    <path class="cls-11" d="M289.4,208.4c-1.1,0-2.2-.4-2.9-1.2-.7-.8-1.1-1.9-1.1-3v-.3c0-1.1.3-2.2,1-3.1.7-.8,1.7-1.3,2.8-1.2,1,0,2,.3,2.7,1,.7.8,1,1.8,1,2.8v1.2h-5.1c0,.5.2,1,.6,1.4.3.4.8.6,1.4.5.4,0,.9,0,1.3-.1.4-.1.8-.3,1.1-.5l.6,1.4c-.4.3-.9.5-1.4.7-.6.2-1.2.3-1.8.3ZM289.2,201.4c-.4,0-.8.2-1,.5-.3.4-.4.8-.5,1.3h2.8v-.2c0-.4,0-.8-.3-1.2-.2-.3-.6-.5-1-.4Z"/>
    <path class="cls-11" d="M32,27.9h0l-3.1,8.5h-1.6l-3-8.4h0l.2,5v1.8l1.2.2v1.4h-4.8v-1.4l1.2-.2v-8.2l-1.2-.2v-1.3h4.2l2.9,8.4h0l3-8.4h4.2v1.4l-1.2.2v8.2l1.2.2v1.4h-4.7v-1.4l1.2-.2v-1.8l.3-5.1Z"/>
    <path class="cls-11" d="M41.5,36.4c0-.1-.1-.3-.2-.4,0-.1,0-.3-.1-.5-.3.3-.6.6-1,.8-.4.2-.9.3-1.3.3-.7,0-1.4-.2-2-.7-.5-.5-.8-1.2-.7-1.9,0-.7.4-1.4,1-1.8.8-.5,1.8-.7,2.8-.6h1.2v-.8c0-.4,0-.7-.4-1-.3-.2-.6-.3-1-.3-.2,0-.5,0-.7,0-.2,0-.3.1-.5.2l-.2.9h-1.8v-1.8c.5-.3.9-.6,1.5-.7.6-.2,1.2-.3,1.8-.3.9,0,1.8.2,2.6.8.7.5,1,1.3,1,2.2v4.2h.7v1.5h-2.6ZM39.5,34.9c.3,0,.7,0,.9-.2.3-.1.5-.3.7-.6v-1.3h-1.1c-.4,0-.8,0-1.1.3-.2.2-.4.5-.4.8,0,.3,0,.5.3.7.2.2.5.3.8.3h0Z"/>
    <path class="cls-11" d="M49,34.8c.4,0,.7-.1,1-.4.3-.3.4-.6.4-1h2.1c0,.9-.3,1.7-1,2.2-1.6,1.3-4,1.2-5.4-.3-.7-.9-1.1-2-1-3.1v-.3c0-1.1.3-2.2,1-3.1.8-.8,1.9-1.3,3-1.2.6,0,1.3,0,1.9.3.5.2,1,.5,1.4.9v2.3h-1.8l-.4-1.3c-.1-.1-.3-.2-.4-.2-.2,0-.4-.1-.6-.1-.6,0-1.1.2-1.4.7-.3.6-.4,1.2-.4,1.8v.2c0,.6,0,1.3.4,1.8.3.5.8.8,1.4.7Z"/>
    <path class="cls-11" d="M53.3,35l1.1-.2v-9l-1.2-.2v-1.4h3.5v4.9c.3-.4.6-.7,1-.9.4-.2.8-.4,1.3-.4.8,0,1.6.3,2.1.9.6.8.8,1.8.8,2.7v3.4l1.1.2v1.4h-4.4v-1.4l1-.2v-3.4c0-.5,0-1-.3-1.4-.3-.3-.6-.4-1-.4-.3,0-.6,0-.8.2-.2.1-.4.3-.6.5v4.6l1,.2v1.4h-4.5v-1.4Z"/>
    <path class="cls-11" d="M63.6,35l1.1-.2v-5.3l-1.2-.2v-1.4h3.5v6.9l1.1.2v1.4h-4.5v-1.4ZM67,25.9h-2.3v-1.7h2.3v1.7Z"/>
    <path class="cls-11" d="M68.7,35l1.1-.2v-5.3l-1.2-.2v-1.4h3.4v1.2c.4-.4.7-.7,1.1-1,.4-.2.9-.4,1.4-.4.8,0,1.5.3,2,.8.5.7.8,1.6.7,2.5v3.7l1.1.2v1.4h-4.4v-1.4l1-.2v-3.7c0-.4,0-.9-.3-1.2-.3-.2-.6-.4-1-.4-.6,0-1.1.2-1.4.7v4.6l.8.2v1.4h-4.3v-1.4Z"/>
    <path class="cls-11" d="M83,36.5c-1.1,0-2.2-.4-2.9-1.2-.7-.8-1.1-1.9-1.1-3v-.3c0-1.1.3-2.2,1-3.1,1.5-1.6,3.9-1.6,5.5-.2.7.8,1,1.8,1,2.8v1.2h-5.1c0,.5.2,1,.6,1.4.3.4.8.6,1.3.5.4,0,.8,0,1.3-.2.4-.1.8-.3,1.1-.5l.6,1.4c-.4.3-.9.5-1.4.7-.6.2-1.3.3-1.9.3ZM82.8,29.5c-.4,0-.8.2-1,.5-.3.4-.4.8-.5,1.3h2.8v-.2c0-.4-.1-.8-.3-1.2-.2-.3-.6-.5-1-.4h0Z"/>
    <path class="cls-11" d="M20,51.9v-1.4l1.2-.2v-8.2l-1.2-.2v-1.4h4.7v1.4l-1.2.2v8h3.2v-1.4h1.9v3.2h-8.6Z"/>
    <path class="cls-11" d="M33.6,52.1c-1.1,0-2.2-.4-2.9-1.2-.8-.8-1.1-1.9-1.1-3v-.3c0-1.1.3-2.2,1-3.1.7-.8,1.7-1.3,2.8-1.2,1,0,2,.3,2.7,1,.7.8,1,1.8,1,2.8v1.2h-5c0,.6.2,1,.6,1.4.4.4.8.6,1.4.5.4,0,.8,0,1.3-.2.4-.1.7-.3,1.1-.5l.6,1.4c-.4.3-.9.5-1.4.7-.6.2-1.2.3-1.9.3ZM33.4,45c-.4,0-.8.2-1,.5-.3.4-.4.8-.5,1.3h2.8v-.2c0-.4,0-.8-.3-1.2-.3-.3-.6-.4-1-.4Z"/>
    <path class="cls-11" d="M43.5,51.9c0-.1-.1-.3-.2-.4,0-.1,0-.3-.1-.5-.3.3-.6.6-1,.8-.4.2-.9.3-1.3.3-.7,0-1.4-.2-2-.7-.5-.5-.8-1.2-.7-1.8,0-.8.4-1.5,1-1.8.9-.5,1.8-.7,2.8-.7h1.2v-.8c0-.4,0-.7-.4-1-.3-.2-.6-.4-1-.3-.3,0-.5,0-.8.1-.2,0-.3.1-.5.2l-.2.9h-1.7v-1.9c.4-.3.9-.5,1.4-.7.6-.2,1.2-.3,1.8-.3.9,0,1.8.2,2.6.8.7.5,1,1.4,1,2.2v4.2h.7v1.5h-2.6ZM41.5,50.4c.3,0,.6,0,.9-.2.3-.1.5-.3.7-.6v-1.3h-1.1c-.4,0-.8,0-1.1.3-.2.2-.4.5-.4.8,0,.3,0,.5.3.7.2.2.5.2.7.2h0Z"/>
    <path class="cls-11" d="M47.1,50.6l1.1-.2v-5.3l-1.2-.2v-1.4h3.4v1.2c.3-.4.5-.7.9-1,.3-.2.7-.4,1.1-.4h.7c0,0-.2,2.2-.2,2.2h-.9c-.3,0-.6,0-.8.2-.2.1-.4.3-.5.5v4.1l1.1.2v1.4h-4.5v-1.4Z"/>
    <path class="cls-11" d="M53.6,50.6l1.1-.2v-5.3l-1.2-.2v-1.4h3.4v1.2c.4-.4.7-.7,1.1-1,.4-.2.9-.4,1.4-.4.8,0,1.5.3,2,.8.5.7.8,1.6.7,2.5v3.7l1.1.2v1.4h-4.3v-1.4l1-.2v-3.7c0-.4,0-.9-.3-1.2-.3-.2-.6-.4-1-.4-.6,0-1.1.3-1.4.7v4.5l.9.2v1.4h-4.4v-1.4Z"/>
    <path class="cls-11" d="M63.8,50.6l1.1-.2v-5.3l-1.2-.2v-1.4h3.5v6.9l1.1.2v1.4h-4.5v-1.4ZM67.2,41.4h-2.3v-1.7h2.3v1.7Z"/>
    <path class="cls-11" d="M69,50.6l1.1-.2v-5.3l-1.2-.2v-1.4h3.3v1.2c.4-.4.7-.7,1.1-1,.4-.2.9-.4,1.4-.4.8,0,1.5.3,2,.8.5.7.8,1.6.7,2.5v3.7l1.1.2v1.4h-4.3v-1.4l1-.2v-3.7c0-.4,0-.9-.3-1.2-.3-.2-.6-.4-1-.4-.3,0-.6,0-.8.2-.2.1-.4.3-.6.5v4.5l.9.2v1.4h-4.3v-1.4Z"/>
    <path class="cls-11" d="M79.4,47.8c0-1.1.3-2.3.9-3.2.6-.8,1.5-1.3,2.4-1.2.5,0,.9,0,1.3.3.4.2.7.5.9.9v-1.1h2.1v8.2c0,1-.3,2-1,2.7-.8.7-1.8,1.1-2.9,1-.5,0-.9,0-1.4-.2-.5-.1-.9-.3-1.3-.5l.4-1.6c.4.2.7.3,1.1.4.4,0,.8.1,1.2.1.5,0,.9-.2,1.3-.5.3-.4.4-.9.4-1.4v-.5c-.2.3-.5.6-.9.7-.4.2-.8.3-1.2.2-.9,0-1.9-.3-2.5-1.1-.6-.9-.9-1.9-.9-3v-.2ZM81.7,47.9c0,.6,0,1.2.3,1.8.3.4.7.7,1.2.6.3,0,.6,0,.9-.2.2-.1.4-.3.6-.6v-3.7c-.1-.2-.3-.5-.6-.6-.3-.1-.6-.2-.9-.2-.5,0-1,.3-1.2.8-.3.6-.4,1.3-.4,2v.2Z"/>
    <rect class="cls-6" x="122.4" y=".7" width="107.2" height="107.2" rx="4" ry="4"/>
    <path class="cls-11" d="M148.9,81.4c0-.4,0-.7-.3-1-.2-.3-.5-.5-.8-.7-.3-.2-.6-.4-1-.6-.4-.2-.7-.4-1-.7-.3-.3-.6-.6-.8-.9-.2-.4-.3-.9-.3-1.3,0-.5,0-1,.3-1.5.2-.4.5-.7.9-1,.4-.3.8-.5,1.3-.6.5-.1,1-.2,1.6-.2.6,0,1.1,0,1.7.2.4,0,.8.2,1.2.4l-.6,1.2c-.3-.2-.7-.3-1-.3-.5-.1-1-.2-1.5-.2-.6,0-1.2.1-1.7.5-.4.3-.7.8-.7,1.4,0,.4,0,.7.3,1,.2.3.5.5.8.7.3.2.7.4,1,.6.4.2.7.4,1,.7.3.3.6.6.8.9.2.4.3.9.3,1.3,0,.9-.4,1.8-1.1,2.4-1,.6-2.1.9-3.2.8-.6,0-1.2,0-1.8-.2-.4,0-.8-.2-1.1-.4l.7-1.2c.8.4,1.6.6,2.5.6.3,0,.7,0,1,0,.3,0,.6-.2.9-.3.3-.1.5-.4.6-.6.2-.3.3-.6.2-.9Z"/>
    <path class="cls-11" d="M151.9,76.2h1.2l.3-1.6,1.3-.4-.4,2h2.1l-.2,1h-2.1l-1,4.9c0,.1,0,.2,0,.3s0,.2,0,.3c0,.2,0,.4.2.5.2.1.3.2.5.2.2,0,.5,0,.7,0,.2,0,.4-.2.6-.3v1c-.3.1-.6.3-.9.3-.3,0-.7.1-1,.1-1,0-1.5-.4-1.5-1.3,0-.2,0-.4,0-.7l1.1-5.2h-1.2l.2-1.1Z"/>
    <path class="cls-11" d="M161.6,77.3c0,0-.2,0-.3,0h-.3c-.5,0-1,.2-1.4.5-.4.3-.7.8-.9,1.2l-1.1,5.3h-1.2l1.7-8.1h.8v1.4h0c.1-.2.3-.4.4-.6.1-.2.3-.3.5-.5.2-.1.4-.3.6-.3.2,0,.5-.1.7-.1.3,0,.5,0,.7.1l-.4,1Z"/>
    <path class="cls-11" d="M167.3,83.5c-.4.3-.8.6-1.3.7-.5.2-1,.2-1.5.2-.7,0-1.4-.2-1.9-.7-.5-.6-.7-1.3-.6-2.1,0-.8.1-1.6.4-2.4.2-.6.6-1.2,1-1.8.4-.5.8-.8,1.4-1.1.5-.3,1-.4,1.6-.4.3,0,.7,0,1,.2.3,0,.5.2.7.4.2.2.3.4.4.6,0,.2.1.5.1.7,0,.8-.4,1.5-1.1,1.8-1,.5-2.1.7-3.2.7h-.8c0,.2,0,.4,0,.6,0,.2,0,.3,0,.5,0,.5.1,1,.4,1.4.3.4.8.6,1.3.6.4,0,.9,0,1.3-.2.3-.1.6-.3.9-.5l.3.7ZM165.9,77.1c-.6,0-1.1.2-1.5.6-.5.5-.8,1.1-1,1.8h1.3c.4,0,.8,0,1.2-.2.3,0,.6-.2.9-.4.2-.2.4-.5.4-.8,0-.1,0-.2,0-.3,0-.1-.1-.2-.2-.3-.1,0-.2-.2-.4-.2-.2,0-.4-.1-.6-.1h0Z"/>
    <path class="cls-11" d="M175.1,81.1c0,.4-.1.8-.2,1.2v1.6c0,.1,0,.3,0,.4h-.9l-.2-1.4h0c-.1.2-.3.4-.5.6-.2.2-.4.4-.6.5-.2.1-.5.3-.7.4-.3,0-.5.1-.8.1-1.3,0-1.9-.8-1.9-2.5,0-.7,0-1.4.3-2.1.2-.7.4-1.3.8-1.9.4-.6.8-1,1.4-1.4.6-.4,1.4-.6,2.1-.5.4,0,.7,0,1.1,0,.4,0,.8.2,1.2.3l-1,4.7ZM171.5,83.5c.3,0,.5,0,.7-.2.2-.1.5-.3.7-.4.2-.2.4-.4.6-.6.1-.2.3-.4.4-.6l.9-4.3c-.4-.2-.8-.2-1.2-.2-.5,0-.9.2-1.3.4-.4.3-.7.7-.9,1.1-.3.5-.5,1-.6,1.6-.1.6-.2,1.2-.2,1.8,0,.3,0,.7.2,1,.1.3.4.5.8.5Z"/>
    <path class="cls-11" d="M181.2,84.3l1-4.6c0-.3.1-.7.2-1,0-.3,0-.5,0-.8,0-.2,0-.5-.2-.7-.1-.2-.3-.3-.6-.2-.3,0-.5,0-.8.2-.3.1-.5.3-.7.5-.2.2-.4.4-.6.7-.2.2-.3.4-.4.6l-1.1,5.2h-1.3l1.7-8.1h.9v1.4c-.1,0,0,0,0,0l.6-.5c.2-.2.4-.4.7-.5.3-.2.5-.3.8-.4.3-.1.6-.2.9-.2.4,0,.8.1,1,.4.2.4.3.8.2,1.3.2-.2.4-.4.6-.6.2-.2.5-.4.7-.5.3-.2.5-.3.8-.4.3,0,.6-.1.8-.2.7,0,1.4.4,1.5,1.2,0,.2,0,.3,0,.5,0,.6,0,1.2-.2,1.8l-1,4.8h-1.2l1-4.8c0-.3.1-.6.1-.8,0-.2,0-.4,0-.7,0-.2,0-.5-.2-.7-.2-.2-.4-.3-.6-.2-.3,0-.5,0-.7.2-.3.1-.5.3-.7.5-.2.2-.4.4-.6.7-.2.2-.3.4-.4.7l-1,5.1h-1.2Z"/>
    <path class="cls-11" d="M191.2,76.2h1.2l-1.7,8.1h-1.2l1.7-8.1ZM191.4,73.8c0-.2,0-.5.2-.6.2-.2.4-.3.6-.3.2,0,.5,0,.6.3.2.2.3.4.3.6,0,.2,0,.5-.3.6-.2.2-.4.3-.6.2-.2,0-.5,0-.6-.2-.2-.2-.3-.4-.2-.6Z"/>
    <path class="cls-11" d="M198.1,84.3l1.1-5.1c0-.2,0-.4.1-.6,0-.2,0-.3,0-.5,0-.3,0-.5-.2-.8-.2-.2-.5-.3-.8-.3-.3,0-.6,0-.8.2-.3.1-.5.3-.8.5-.2.2-.4.4-.6.7-.2.2-.3.5-.5.7l-1.1,5.2h-1.2l1.7-8.1h.8v1.4c0,0,0,0,0,0,.2-.2.3-.4.5-.5.2-.2.4-.4.6-.5.3-.2.5-.3.8-.4.3-.1.7-.2,1-.2.5,0,.9.1,1.3.4.3.4.5.9.5,1.3,0,.4,0,.8-.1,1.2l-1.1,5.3h-1.2Z"/>
    <path class="cls-11" d="M207.3,84.7c-.1.9-.5,1.7-1.2,2.3-.6.5-1.4.8-2.2.7-.6,0-1.2,0-1.7-.3-.3-.1-.7-.3-1-.5l.5-.9.3.2c.1,0,.3.1.4.2.2,0,.4.1.6.2.3,0,.6,0,.9,0,.5,0,1-.2,1.4-.6.4-.5.7-1.2.8-1.8l.3-1.3h0c-.1.2-.3.4-.5.6-.2.2-.4.3-.6.5-.2.1-.5.3-.7.3-.3,0-.5.1-.8.1-.5,0-1-.2-1.4-.6-.4-.5-.6-1.1-.5-1.8,0-.7,0-1.4.3-2.1.2-.7.5-1.3.9-1.9.4-.6.9-1,1.4-1.4.6-.4,1.3-.5,2-.5.5,0,1,0,1.5.1.3,0,.7.2,1,.4l-1.7,8.1ZM204.3,83.4c.3,0,.6,0,.8-.2.3-.1.5-.3.7-.5.2-.2.4-.5.6-.7.2-.2.3-.5.4-.7l.8-3.9c-.2-.1-.4-.2-.6-.2-.2,0-.5,0-.8,0-.4,0-.9.1-1.2.4-.4.3-.7.6-1,1-.3.5-.5,1-.6,1.5-.2.6-.2,1.2-.2,1.8,0,.4,0,.8.3,1.2.2.3.5.5.8.5h0Z"/>
    <path class="cls-11" d="M267.1,238h-1.7l-.3-1.6c-.3-.1-.6-.3-.9-.3-.4,0-.8-.1-1.3,0-.5,0-1,.1-1.5.4-.3.2-.5.6-.5,1,0,.4.2.8.5,1,.6.3,1.2.6,1.9.8,1,.2,2,.7,2.9,1.4.7.6,1,1.4,1,2.3,0,.9-.4,1.8-1.2,2.3-.9.6-2,.9-3.1.9-.8,0-1.7-.1-2.5-.4-.7-.3-1.3-.7-1.8-1.2v-2.4h1.8l.2,1.6c.3.2.6.4.9.5.4.1.9.2,1.3.2.5,0,1-.1,1.4-.4.3-.2.5-.6.5-1,0-.4-.2-.8-.5-1.1-.5-.4-1-.6-1.6-.8-1.1-.3-2.1-.7-3.1-1.4-.7-.5-1-1.4-1-2.2,0-.9.4-1.8,1.2-2.3.9-.6,1.9-.9,3-.9.8,0,1.6.1,2.4.4.7.2,1.3.6,1.8,1.1v2.2Z"/>
    <path class="cls-11" d="M272.2,244.2c.4,0,.7-.1,1-.4.3-.2.4-.6.4-.9h2.1c0,.8-.3,1.6-1,2.1-1.6,1.3-4,1.1-5.4-.3-.7-.9-1.1-2-1-3.1v-.2c0-1.1.3-2.2,1.1-3.1.8-.8,1.9-1.3,3-1.2.6,0,1.3,0,1.9.3.5.2,1,.5,1.4.9v2.3h-1.9l-.4-1.3c-.1-.1-.3-.2-.4-.2-.7-.3-1.5,0-1.9.6-.3.6-.4,1.2-.4,1.8v.2c0,.6,0,1.3.4,1.8.2.5.8.8,1.3.7Z"/>
    <path class="cls-11" d="M282.1,245.8c0-.1-.1-.3-.2-.4,0-.1,0-.3-.1-.4-.3.3-.6.6-1,.8-.4.2-.9.3-1.3.3-.7,0-1.4-.2-2-.7-.5-.5-.8-1.2-.7-1.9,0-.7.4-1.4,1-1.8.9-.5,1.8-.7,2.8-.6h1.2v-.8c0-.4,0-.7-.4-1-.3-.2-.7-.4-1-.3-.2,0-.5,0-.7,0-.2,0-.3.1-.5.2l-.2.9h-1.7v-1.9c.4-.3.9-.5,1.4-.7.6-.2,1.2-.3,1.8-.3.9,0,1.8.2,2.6.8.7.5,1,1.3,1,2.2v3.9c0,.1,0,.2,0,.3h.7v1.5h-2.6ZM280.1,244.3c.3,0,.6,0,.9-.2.3-.1.5-.3.7-.6v-1.3h-1.2c-.4,0-.8,0-1.1.4-.2.2-.4.5-.4.8,0,.3,0,.5.3.7.2.2.5.3.8.2h0Z"/>
    <path class="cls-11" d="M285.3,234.9v-1.4h3.5v10.6l1.1.2v1.4h-4.5v-1.4l1.1-.2v-9l-1.2-.3Z"/>
    <path class="cls-11" d="M296.1,245.8c0-.1-.1-.3-.2-.4,0-.1,0-.3-.1-.4-.3.3-.6.6-1,.8-.4.2-.9.3-1.3.3-.7,0-1.4-.2-2-.7-.5-.5-.8-1.2-.7-1.9,0-.7.3-1.4,1-1.8.9-.5,1.8-.7,2.8-.6h1.2v-.8c0-.4,0-.7-.4-1-.3-.2-.6-.4-1-.3-.2,0-.5,0-.7,0-.2,0-.3.1-.5.2v.9h-1.9v-1.9c.5-.3.9-.5,1.5-.7.6-.2,1.2-.3,1.8-.3.9,0,1.8.2,2.6.8.7.5,1,1.3,1,2.2v3.9c0,.1,0,.2,0,.3h.7v1.5h-2.7ZM294.1,244.3c.3,0,.7,0,1-.2.3-.1.5-.3.6-.6v-1.3h-1.2c-.4,0-.8,0-1.1.4-.2.2-.4.5-.4.8,0,.3,0,.5.3.7.2.2.5.3.8.2h0Z"/>
    <path class="cls-11" d="M358.5,234.4v1.4l-1.2.2v6.4c0,1-.3,2-1.1,2.6-.7.7-1.7,1-2.7,1-1,0-2-.3-2.8-.9-.7-.6-1.1-1.6-1-2.6h0c0,0,2.2,0,2.2,0,0,.5.1,1,.4,1.3.3.3.7.4,1.2.4.4,0,.8-.2,1.1-.5.3-.4.5-.9.4-1.4v-6.4l-1.2-.2v-1.4h4.8Z"/>
    <path class="cls-11" d="M364.6,245.8c0-.1-.1-.3-.2-.4,0-.1,0-.3-.1-.4-.3.3-.6.6-1,.8-.4.2-.9.3-1.4.3-.7,0-1.4-.2-2-.7-.5-.5-.8-1.2-.7-1.9,0-.7.4-1.4,1-1.8.9-.5,1.8-.7,2.8-.6h1.2v-.8c0-.4,0-.7-.4-1-.3-.2-.6-.4-1-.3-.2,0-.5,0-.7,0-.2,0-.3.1-.5.2v.9h-1.9v-1.9c.4-.3.9-.5,1.4-.7.6-.2,1.2-.3,1.8-.3.9,0,1.8.2,2.6.8.7.5,1,1.3,1,2.2v3.9c0,.1,0,.2,0,.3h.7v1.5h-2.6ZM362.6,244.3c.3,0,.6,0,.9-.2.3-.1.5-.3.7-.6v-1.3h-1.2c-.4,0-.8,0-1.1.4-.2.2-.4.5-.4.8,0,.3,0,.5.3.7.2.2.5.3.8.2h0Z"/>
    <path class="cls-11" d="M371.5,238.7h-.8c0,.1,1.1,3.9,1.1,3.9v.8h.2l.2-.8,1.1-3.8-.8-.2v-1.4h3.9v1.4h-.7c0,.1-2.5,7.1-2.5,7.1h-2.2l-2.5-7h-.7v-1.5h3.9v1.4Z"/>
    <path class="cls-11" d="M382.4,245.8c0-.1-.1-.3-.2-.4,0-.1,0-.3-.1-.4-.3.3-.6.6-1,.8-.4.2-.9.3-1.3.3-.7,0-1.4-.2-2-.7-.5-.5-.8-1.2-.7-1.9,0-.7.4-1.4,1-1.8.9-.5,1.8-.7,2.8-.6h1.1v-.8c0-.4,0-.7-.4-1-.3-.2-.6-.4-1-.3-.2,0-.5,0-.7,0-.2,0-.3.1-.5.2v.9h-1.9v-1.9c.4-.3.9-.5,1.4-.7.6-.2,1.2-.3,1.8-.3.9,0,1.8.2,2.6.8.7.5,1,1.3,1,2.2v3.9c0,.1,0,.2,0,.3h.7v1.5h-2.6ZM380.4,244.3c.3,0,.6,0,.9-.2.3-.1.5-.3.7-.6v-1.3h-1.2c-.4,0-.8,0-1.1.4-.2.2-.4.5-.4.8,0,.3,0,.5.3.7.2.2.5.3.8.2h0Z"/>
    <path class="cls-11" d="M100.9,234.4c1.1,0,2.2.3,3.1.9.7.6,1.2,1.5,1.1,2.5,0,.5-.2,1.1-.5,1.5-.4.5-.8.8-1.4,1,.6.1,1.1.5,1.5,1,.3.5.5,1.1.4,1.7v.6c0,.2,0,.4.2.6.1.2.3.2.5.2h.3v1.4h-1.2c-.6,0-1.2-.2-1.6-.6-.3-.5-.5-1-.5-1.6v-.6c0-.5-.1-.9-.4-1.3-.3-.3-.8-.5-1.3-.5h-1.9v3l1.2.2v1.4h-4.7v-1.4l1.2-.2v-8.2l-1.2-.2v-1.4h5.2ZM99.3,239.4h1.6c.5,0,1-.1,1.4-.4.3-.3.5-.7.5-1.2,0-.5-.1-.9-.5-1.2-.4-.3-.9-.5-1.4-.5h-1.6v3.3Z"/>
    <path class="cls-11" d="M169,234.4c1.1,0,2.2.3,3.1,1,1.5,1.4,1.5,3.7.1,5.2,0,0,0,0-.1.1-.9.7-2,1.1-3.1,1h-2v2.5l1.2.2v1.4h-4.7v-1.4l1.2-.2v-8.2l-1.2-.2v-1.4h5.5ZM167,239.9h2c.5,0,1.1-.1,1.4-.5.3-.4.5-.8.5-1.3,0-.5-.2-1-.5-1.4-.4-.4-.9-.6-1.4-.5h-2v3.8Z"/>
    <path class="cls-11" d="M182.9,238.7h-.8c0,.1-3.1,8.4-3.1,8.4-.2.6-.6,1.1-1,1.5-.5.4-1.2.7-1.9.6-.2,0-.4,0-.6,0h-.6c0-.1.3-1.8.3-1.8h.4c.3,0,.6,0,.9-.3.2-.2.4-.4.5-.7l.3-.6-2.7-7h-.8v-1.5h4.2v1.4l-.9.2,1.2,3.4v.6h.1l1.4-4-1-.2v-1.4h4.2v1.4Z"/>
    <path class="cls-11" d="M187,235.2v2.1h1.5v1.6h-1.5v4.3c0,.3,0,.5.2.7.1.1.3.2.6.2.1,0,.3,0,.4,0h.4c0,0,.2,1.6.2,1.6-.3,0-.5.1-.8.2-.3,0-.5,0-.8,0-.7,0-1.3-.2-1.8-.6-.5-.6-.7-1.3-.6-2.1v-4.3h-1.2v-1.6h1.2v-2.1h2.3Z"/>
    <path class="cls-11" d="M189.5,244.4l1.1-.2v-9l-1.2-.2v-1.4h3.5v4.8c.3-.4.6-.7,1-.9,1.1-.6,2.5-.4,3.4.6.6.8.8,1.8.8,2.7v3.4l1.1.2v1.4h-4.4v-1.4l1-.2v-3.4c0-.5,0-1-.4-1.4-.3-.3-.6-.4-1-.4-.3,0-.6,0-.8.2-.2.1-.4.3-.6.5v4.6l1,.2v1.4h-4.4v-1.4Z"/>
    <path class="cls-11" d="M199.8,241.5c0-1.1.3-2.2,1.1-3.1,1.6-1.6,4.3-1.6,5.9,0,.7.9,1.1,2,1.1,3.1v.2c0,1.1-.3,2.3-1.1,3.1-.7.8-1.8,1.3-2.9,1.2-1.1,0-2.2-.4-3-1.2-.7-.9-1.1-2-1.1-3.1v-.2ZM202,241.6c0,.6.1,1.3.4,1.9.5.7,1.5.9,2.2.4.2-.1.3-.3.4-.4.3-.6.4-1.2.4-1.9v-.2c0-.6-.1-1.3-.4-1.9-.3-.5-.8-.7-1.3-.7-.5,0-1,.2-1.3.7-.3.6-.4,1.2-.4,1.9v.2Z"/>
    <path class="cls-11" d="M208.6,244.4l1.1-.2v-5.3l-1.2-.2v-1.4h3.4v1.2c.4-.4.7-.7,1.1-1,.4-.2.9-.4,1.4-.4.8,0,1.5.3,2,.8.5.7.8,1.6.7,2.5v3.7l1.1.2v1.4h-4.4v-1.4l1-.2v-3.7c0-.4,0-.9-.3-1.2-.3-.2-.6-.4-1-.4-.3,0-.6,0-.8.2-.2.1-.5.3-.6.5v4.6l.9.2v1.4h-4.3v-1.4Z"/>
    <path class="cls-11" d="M143.7,25c1.1,0,2.2.3,3.1.9.7.6,1.1,1.5,1.1,2.5,0,.5-.1,1.1-.5,1.5-.4.4-.8.8-1.4,1,.6.1,1.1.5,1.5,1,.3.5.5,1.1.4,1.7v.6c0,.2,0,.4.1.6.1.2.3.2.5.2h.3v1.4h-1.2c-.6,0-1.2-.2-1.6-.6-.3-.5-.5-1-.4-1.6v-.7c0-.5-.1-.9-.4-1.3-.3-.3-.8-.5-1.2-.5h-1.9v3l1.2.2v1.4h-4.7v-1.4l1.2-.2v-8.2l-1.2-.2v-1.3h5.1,0ZM142.1,30h1.6c.5,0,1-.1,1.4-.4.3-.3.5-.7.5-1.2,0-.5-.2-.9-.5-1.2-.4-.3-.9-.5-1.4-.5h-1.6v3.3Z"/>
    <path class="cls-11" d="M153.8,36.5c-1.1,0-2.2-.4-2.9-1.2-.7-.8-1.1-1.9-1.1-3v-.3c0-1.1.3-2.2,1-3.1,1.5-1.6,3.9-1.6,5.5-.2.7.8,1,1.8,1,2.8v1.2h-5.1c0,.5.2,1,.6,1.4.4.4.9.6,1.4.5.4,0,.8,0,1.3-.2.4-.1.8-.3,1.1-.5l.6,1.4c-.4.3-.9.5-1.4.7-.6.2-1.2.3-1.9.3ZM153.6,29.5c-.4,0-.8.2-1,.5-.3.4-.4.8-.5,1.3h2.8v-.2c0-.4-.1-.8-.3-1.2-.3-.3-.6-.5-1-.4h0Z"/>
    <path class="cls-11" d="M163.7,36.4c0-.1-.1-.3-.2-.4,0-.1,0-.3-.1-.5-.3.3-.6.6-1,.8-.4.2-.9.3-1.3.3-.7,0-1.4-.2-2-.7-.5-.5-.8-1.2-.7-1.8,0-.7.4-1.4,1-1.8.9-.5,1.8-.7,2.8-.6h1.2v-.8c0-.4,0-.7-.4-1-.3-.2-.7-.4-1.1-.3-.2,0-.5,0-.7,0-.2,0-.3.1-.5.2v.9h-1.9v-1.8c.4-.3.9-.5,1.4-.7.6-.2,1.2-.3,1.8-.3.9,0,1.8.2,2.6.8.7.5,1,1.3,1,2.2v4.2h.7v1.5h-2.6ZM161.7,34.9c.3,0,.7,0,.9-.2.3-.1.5-.3.7-.6v-1.3h-1.2c-.4,0-.8,0-1.1.3-.2.2-.4.5-.4.8,0,.3,0,.5.3.7.2.2.5.3.8.3h0Z"/>
    <path class="cls-11" d="M166.9,25.5v-1.4h3.5v10.6l1.1.2v1.4h-4.5v-1.4l1.1-.2v-9l-1.2-.2Z"/>
    <path class="cls-11" d="M177.2,32.4h-4.4v-1.8h4.4v1.8Z"/>
    <path class="cls-11" d="M182,25.8v2.1h1.5v1.6h-1.5v4.3c0,.3,0,.5.2.7.1.1.3.2.6.2h.8c0,0,.2,1.6.2,1.6-.2,0-.5.1-.8.2-.3,0-.5,0-.8,0-.7,0-1.3-.2-1.8-.7-.5-.6-.7-1.3-.6-2.1v-4.4h-1.2v-1.6h1.2v-2.1h2.3Z"/>
    <path class="cls-11" d="M184.6,35l1.1-.2v-5.3l-1.2-.2v-1.4h3.6v6.9l1.1.2v1.4h-4.5v-1.4ZM188,25.9h-2.3v-1.7h2.3v1.7Z"/>
    <path class="cls-11" d="M189.5,29.3v-1.4h3.4v1.1c.4-.4.7-.7,1.1-.9.4-.2.9-.4,1.4-.3.5,0,1,.1,1.4.4.4.3.7.6.9,1.1.2-.4.6-.8,1-1.1.4-.3,1-.4,1.5-.4.8,0,1.5.3,2,.9.5.8.8,1.7.7,2.6v3.5l1.1.2v1.4h-4.4v-1.4l1-.2v-3.5c0-.5,0-.9-.3-1.3-.2-.3-.6-.4-.9-.4-.6,0-1.1.3-1.4.8,0,0,0,.2,0,.3v4.2l.9.2v1.4h-4.1v-1.4l.9-.2v-3.5c0-.5,0-.9-.3-1.3-.2-.3-.6-.4-.9-.4-.5,0-1.1.2-1.4.7v4.6l1,.2v1.4h-4.4v-1.4l1.1-.2v-5.3l-1.2-.2Z"/>
    <path class="cls-11" d="M208.8,36.5c-1.1,0-2.2-.4-2.9-1.2-.7-.8-1.1-1.9-1.1-3v-.3c0-1.1.3-2.2,1-3.1,1.5-1.6,3.9-1.6,5.5-.2.7.8,1,1.8,1,2.8v1.2h-5.1c0,.5.2,1,.6,1.4.3.4.8.6,1.4.5.4,0,.9,0,1.3-.2.4-.1.8-.3,1.1-.5l.6,1.4c-.4.3-.9.5-1.4.7-.6.2-1.2.3-1.9.3ZM208.6,29.5c-.4,0-.8.2-1,.5-.3.4-.4.8-.4,1.3h2.8v-.2c0-.4,0-.8-.3-1.2-.2-.3-.6-.5-1-.4h0Z"/>
    <path class="cls-11" d="M146.1,51.9c0-.1-.1-.3-.2-.4,0-.1,0-.3-.1-.5-.3.3-.6.6-1,.8-.4.2-.9.3-1.3.3-.7,0-1.4-.2-2-.7-.5-.5-.8-1.2-.7-1.8,0-.8.4-1.5,1-1.8.9-.5,1.8-.7,2.8-.7h1.2v-.8c0-.4,0-.7-.4-1-.3-.2-.6-.4-1-.3-.2,0-.5,0-.7,0-.2,0-.3.1-.5.2v.9h-1.9v-1.8c.4-.3.9-.5,1.4-.7.6-.2,1.2-.3,1.8-.3.9,0,1.8.2,2.6.8.7.5,1,1.4,1,2.2v3.9c0,.1,0,.2,0,.3h.7v1.5h-2.7ZM144.1,50.4c.3,0,.6,0,.9-.2.3-.1.5-.3.7-.6v-1.3h-1.2c-.4,0-.8,0-1.1.3-.2.2-.4.5-.4.8,0,.3,0,.5.3.7.2.2.5.3.8.2h0Z"/>
    <path class="cls-11" d="M149.4,50.6l1.1-.2v-5.3l-1.2-.2v-1.4h3.4v1.2c.4-.4.7-.7,1.1-1,.4-.2.9-.4,1.4-.4.8,0,1.5.3,2,.8.5.7.8,1.6.7,2.5v3.7l1.1.2v1.4h-4.4v-1.4l1-.2v-3.7c0-.4,0-.9-.4-1.2-.3-.2-.6-.4-1-.4-.6,0-1.1.3-1.4.7v4.5l.9.2v1.4h-4.3v-1.4Z"/>
    <path class="cls-11" d="M165.2,51.9c0-.1-.1-.3-.2-.4,0-.1,0-.3-.1-.5-.3.3-.6.6-1,.8-.4.2-.9.3-1.3.3-.7,0-1.4-.2-2-.7-.5-.5-.8-1.2-.7-1.8,0-.8.4-1.5,1-1.8.9-.5,1.8-.7,2.8-.7h1.2v-.8c0-.4,0-.7-.4-1-.3-.2-.7-.4-1.1-.3-.2,0-.5,0-.7,0-.2,0-.3.1-.5.2v.9h-1.9v-1.8c.4-.3.9-.5,1.4-.7.6-.2,1.2-.3,1.8-.3.9,0,1.8.2,2.6.8.7.5,1,1.4,1,2.2v4.2h.7v1.5h-2.6ZM163.2,50.4c.6,0,1.2-.3,1.6-.8v-1.3h-1.2c-.4,0-.8,0-1.1.3-.2.2-.4.5-.4.8,0,.3,0,.5.3.7.2.2.5.3.8.2h0Z"/>
    <path class="cls-11" d="M168.4,41.1v-1.4h3.5v10.6l1.1.2v1.4h-4.5v-1.4l1.1-.2v-9l-1.2-.3Z"/>
    <path class="cls-11" d="M182.5,44.8h-.8c0,.1-3.1,8.4-3.1,8.4-.2.6-.6,1.1-1,1.5-.5.4-1.2.7-1.9.6-.2,0-.4,0-.5,0h-.6c0-.1.3-1.8.3-1.8h.4c.3,0,.6,0,.9-.3.2-.2.4-.4.5-.7l.3-.7-2.7-7h-.8v-1.5h4.2v1.4l-.9.2,1.2,3.4v.6h.1l1.3-4-1-.2v-1.4h4.2v1.4Z"/>
    <path class="cls-11" d="M186.6,41.4v2.1h1.5v1.6h-1.5v4.3c0,.3,0,.5.2.7.1.1.3.2.6.2.1,0,.3,0,.4,0h.4c0,0,.2,1.6.2,1.6-.2,0-.5.1-.8.2-.3,0-.5,0-.8,0-.7,0-1.3-.2-1.8-.7-.5-.6-.7-1.3-.6-2.1v-4.4h-1.2v-1.6h1.2v-2.1h2.3Z"/>
    <path class="cls-11" d="M189.2,50.6l1.1-.2v-5.3l-1.2-.2v-1.4h3.5v6.9l1.1.2v1.4h-4.5v-1.4ZM192.6,41.4h-2.3v-1.7h2.3v1.7Z"/>
    <path class="cls-11" d="M198.4,50.3c.4,0,.7-.1,1-.4.3-.2.4-.6.4-1h2.1c0,.8-.3,1.6-1,2.2-1.6,1.3-4,1.1-5.4-.3-.7-.9-1.1-2-1-3.1v-.2c0-1.1.3-2.2,1.1-3.1.8-.8,1.9-1.3,3-1.2.6,0,1.3,0,1.8.3.5.2,1,.5,1.4.9v2.3h-1.8l-.4-1.3c-.1-.1-.3-.2-.4-.2-.2,0-.4,0-.6,0-.6,0-1.1.2-1.4.7-.3.6-.4,1.2-.4,1.8v.2c0,.6.1,1.3.4,1.8.2.5.8.8,1.3.7Z"/>
    <path class="cls-11" d="M209.8,46.4h-1.5l-.2-1.1c-.2-.1-.4-.2-.6-.3-.3,0-.5-.1-.8-.1-.4,0-.7,0-1,.3-.2.2-.3.4-.4.7,0,.3.1.5.3.6.4.2.9.4,1.4.5.8.1,1.6.4,2.3.9.5.4.8,1,.8,1.7,0,.8-.4,1.5-1,1.9-.8.5-1.7.8-2.6.7-.6,0-1.2,0-1.8-.3-.5-.2-1-.5-1.5-.8v-1.9h1.6l.3,1.1c.2.1.4.2.6.3.2,0,.5,0,.7,0,.4,0,.7,0,1.1-.2.2-.1.4-.4.4-.7,0-.3-.1-.5-.4-.7-.4-.2-.9-.4-1.4-.5-.8-.1-1.6-.4-2.3-.9-.5-.4-.8-1-.8-1.6,0-.7.3-1.4.9-1.8.7-.6,1.6-.8,2.5-.8.6,0,1.3,0,1.9.3.5.1,1,.4,1.4.7v2.1Z"/>
    <path class="cls-3" d="M247.4,192.7c0-.1-.1-.2-.1-.3-1-1.9-2-3.8-3-5.6-.1-.1,0-.3,0-.5,1.6-1.8,3.1-3.7,4.7-5.5,0,0,.1-.2.1-.2l-1.4.4c-1.9.5-3.8,1-5.7,1.5-.2,0-.2,0-.3-.1-1.1-1.8-2.2-3.6-3.2-5.4,0-.1-.1-.2-.2-.3,0,.5-.2,1-.3,1.4l-.9,5.1c0,.2,0,.4-.1.6s-.1.2-.3.3l-6.7,2.1c-.1,0-.2,0-.3.2l5.5,2.2h-.2c-1.1.9-2.3,1.6-3.4,2.3-.1,0-.3,0-.4,0l-4.1-1.8c-.6-.3-1.2-.7-1.6-1.2-.8-.8-.8-2.2,0-3,.1-.1.3-.3.5-.4.4-.3.9-.5,1.4-.6,2.2-.7,4.4-1.4,6.6-2.1.2,0,.3-.2.3-.4.3-1.7.6-3.4.9-5.1,0-.9.3-1.8.7-2.7.2-.3.4-.6.6-.9.7-.8,2-1,2.8-.3,0,0,.1.1.2.2.3.3.6.6.8,1,1,1.7,2,3.3,3,5,0,.2.3.3.4.2,0,0,0,0,0,0l7.4-2c.5-.1,1-.2,1.5,0,.8,0,1.5.7,1.5,1.6,0,.2,0,.5-.2.7-.2.5-.5.9-.8,1.3l-5.1,6c-.1.1-.1.3,0,.5,1,1.9,2,3.9,3.1,5.8.3.5.4,1,.4,1.5,0,1.2-.9,2.2-2.1,2.4-.7,0-1.3,0-1.9-.2-1.5-.5-3.1-1-4.6-1.4-.1,0-.2-.1-.2-.2-.2-1.1-.4-2.2-.6-3.2,0,0,0,0,0-.1l5.3,1.5"/>
    <path class="cls-10" d="M244.4,208.6h-4.2c-.2,0-.3,0-.4-.2-1.6-2.5-3.3-5-4.9-7.5l-.2-.3c-.4,2.7-.7,5.3-1.1,8h-3.6c0-.4,0-.7.1-1,.4-2.7.7-5.4,1.1-8.1s.7-5.2,1-7.8c0,0,0-.2.1-.2l3.8-2.4h.1c-.4,2.9-.8,5.8-1.1,8.6h0c2-2.2,3.9-4.4,5.9-6.6,0,.3.1.6.2.9.1.8.3,1.6.4,2.5,0,.1,0,.3-.1.4-1.3,1.3-2.5,2.7-3.8,4l-.2.2v.2c2.3,3.1,4.5,6.1,6.7,9.2h.1"/>
    <path class="cls-10" d="M201.5,200.4c0-.4-.1-.7-.2-1.1-.6-1.9-2.6-2.9-4.5-2.4-2.2.4-3.8,2.3-4,4.5-.2,1.7.8,3.3,2.4,3.8,1.3.5,2.7.3,3.8-.4,1.6-.9,2.5-2.5,2.5-4.3h0ZM191.9,207.4c-.1.8-.2,1.6-.3,2.3l-.4,3.1c0,.1,0,.2-.2.2h-3.1l.2-1.4.7-5c.3-1.9.5-3.8.8-5.7.7-3.5,3.4-6.2,6.8-7,1.9-.5,3.9-.2,5.5.9,1.6,1,2.7,2.7,2.9,4.7.3,2.7-.7,5.3-2.7,7.1-1.3,1.3-2.9,2.1-4.7,2.4-1.8.3-3.7,0-5.2-1.1h-.2"/>
    <path class="cls-10" d="M190.2,191.4l-3.3,2.4c-.2-.3-.3-.6-.5-.8-.4-.7-1.1-1.1-1.9-1.2-.7,0-1.3.2-1.8.7-.4.4-.5,1.2,0,1.6.4.6.9,1.1,1.4,1.7.8.9,1.7,1.7,2.5,2.6.8.8,1.3,1.8,1.5,2.8.2,1.3,0,2.6-.7,3.7-1.1,2.1-3.1,3.5-5.4,3.8-1,.2-2.1.1-3.1-.2-1.3-.4-2.4-1.3-2.9-2.6-.2-.4-.4-.9-.6-1.4l3.6-1.9c0,0,0,.2.1.3.2.4.4.8.6,1.2.7,1.1,2,1.5,3.1.9.3-.1.6-.3.9-.6.8-.6.9-1.7.4-2.5-.4-.5-.7-1-1.2-1.4-1-1.1-2-2.1-2.9-3.2-.7-.7-1.1-1.7-1.2-2.6-.2-1.1,0-2.2.6-3.1,1.3-2.2,3.7-3.6,6.2-3.4,1.5,0,2.9.8,3.8,2,.3.4.6.7.8,1.1"/>
    <path class="cls-10" d="M216.7,203.7c-.2,1.4-.4,2.7-.5,4,0,0,0,.1-.1.2-2.8,1.5-6.3.9-8.5-1.4-1.1-1.3-1.7-3-1.6-4.8.3-4.2,3.5-7.7,7.7-8.3,2.3-.4,4.6.5,6.1,2.2,1.1,1.2,1.6,2.8,1.5,4.5,0,1.1-.2,2.2-.4,3.3-.2,1.6-.4,3.1-.6,4.7v.2h-3.2c0-.4,0-.7.1-1.1.2-1.8.5-3.6.7-5.4.2-1.1,0-2.3-.5-3.3-.5-1-1.5-1.7-2.7-1.8-2.5-.3-4.8,1.4-5.4,3.9-.4,1.5.2,3.1,1.5,4,1.2.8,2.7.9,4,.3.7-.3,1.3-.7,1.9-1.3"/>
    <path class="cls-10" d="M230.4,193.9c-.1,1.1-.3,2.2-.4,3.4h-2c-.5,0-1,.3-1.2.9,0,.2-.1.4-.1.6-.3,2.6-.7,5.2-1,7.7,0,.6-.2,1.3-.2,2h-3.4c0-.5.1-1,.2-1.4.2-1.7.4-3.4.7-5,.2-1.4.4-2.9.6-4.3.4-2,2.1-3.5,4.2-3.7h2.8"/>
    <path class="cls-11" d="M248.4,208.6v-1.4h0l-.6,1.4h-.2l-.6-1.4h0v1.4h-.3v-1.7h.4l.5,1.3.5-1.3h.4v1.7h-.3ZM246,207.1v1.5h-.3v-1.5h-.5v-.2h1.4v.2h-.5"/>
    <path class="cls-11" d="M194.7,189h.8l-.2-1.3-.6,1.3ZM195.7,189.8h-1.4l-.4.9h-1l2.2-4.1h1l.7,4.1h-.9v-.9"/>
    <path class="cls-11" d="M200.6,187.5h-.5l-.2.9h.5c.3,0,.5-.2.5-.5,0,0,0,0,0,0,0-.2-.1-.4-.3-.4,0,0,0,0,0,0ZM199.4,186.7h1.3c.6,0,1.1.4,1.1,1,0,0,0,0,0,.1,0,.8-.6,1.4-1.4,1.5,0,0,0,0-.1,0h-.6l-.3,1.5h-.9l.7-4.1"/>
    <path class="cls-11" d="M204.8,189h.8l-.2-1.3-.6,1.3ZM205.8,189.8h-1.4l-.4.9h-1l2.2-4.1h.9l.7,4.1h-.9v-.9"/>
    <path class="cls-11" d="M211.1,190.6c-.3.1-.6.2-.9.2-.9,0-1.7-.7-1.8-1.7,0,0,0,0,0-.1,0-1.3,1.1-2.4,2.4-2.4.3,0,.6,0,.9.2v1c-.3-.2-.6-.3-.9-.3-.8,0-1.4.7-1.4,1.4,0,.6.4,1,1,1,.3,0,.7-.1.9-.3v1"/>
    <path class="cls-11" d="M216.4,189.1h-1.8l-.3,1.6h-.9l.7-4.1h.9l-.3,1.6h1.8l.3-1.6h.8l-.7,4.1h-.9l.3-1.6"/>
    <path class="cls-11" d="M219.5,190.7l.7-4.1h2.2v.8h-1.5v.8c-.1,0,1.1,0,1.1,0v.8h-1.4v.8c-.1,0,1.3,0,1.3,0v.8h-2.4"/>
    <path class="cls-15" d="M228.9,141.2c5-4.9,13-4.8,17.9.2,4.9,5,4.8,13-.2,17.9-5,4.9-13,4.8-17.9-.2-2.3-2.4-3.6-5.6-3.6-8.9,0-2.8.9-5.5,2.6-7.6"/>
    <path class="cls-14" d="M237.4,156.3h-4.6c-.6,0-.9-.2-.9-.9v-7c0-.6.2-.9.9-.9h9.1c.6,0,.8.2.8.8v7c0,.6-.2.8-.8.8-1.6,0-3.1,0-4.6,0Z"/>
    <path class="cls-14" d="M232.7,147c0-1.9,1.1-3.7,2.8-4.4,2.3-1,5,0,6,2.3.1.2.2.5.3.8.1.4.1.8.2,1.3"/>
    <path class="cls-5" d="M236.7,153.3h0v.9c0,.2,0,.2.3.2h.9c.2,0,.3,0,.3-.3v-1.7c0-.2,0-.3.2-.4.6-.3.8-.9.7-1.6-.3-.6-.9-1-1.6-1-.7,0-1.4.3-1.7.9-.2.6,0,1.3.6,1.6.2,0,.3.3.3.5,0,.2,0,.5,0,.7Z"/>
    <line class="cls-13" x1="54.3" y1="119.2" x2="54.3" y2="167.1"/>
    <polygon class="cls-5" points="42.9 157.9 44.9 155.9 54.3 166.1 63.7 155.9 65.8 157.9 54.3 170.2 42.9 157.9"/>
    <line class="cls-13" x1="175.5" y1="119.2" x2="175.5" y2="167.1"/>
    <polygon class="cls-5" points="164 157.9 166.1 155.9 175.5 166.1 184.9 155.9 186.9 157.9 175.5 170.2 164 157.9"/>
    <line class="cls-13" x1="299.3" y1="119.2" x2="299.3" y2="167.1"/>
    <polygon class="cls-5" points="287.9 157.9 289.9 155.9 299.3 166.1 308.7 155.9 310.8 157.9 299.3 170.2 287.9 157.9"/>
    <line class="cls-13" x1="419.9" y1="119.2" x2="419.9" y2="167.1"/>
    <polygon class="cls-5" points="408.5 157.9 410.5 155.9 419.9 166.1 429.3 155.9 431.4 157.9 419.9 170.2 408.5 157.9"/>
    <rect class="cls-4" x="-.5" y="-.3" width="473.9" height="265.5"/>
  </g>
</svg>