<?xml version="1.0" encoding="UTF-8"?>
<svg id="Ebene_1" data-name="Ebene 1" xmlns="http://www.w3.org/2000/svg" xmlns:xlink="http://www.w3.org/1999/xlink" version="1.1" viewBox="0 0 473.9 265.5">
  <defs>
    <style>
      .cls-1 {
        fill: url(#Unbenannter_Verlauf);
      }

      .cls-1, .cls-2, .cls-3, .cls-4, .cls-5, .cls-6, .cls-7, .cls-8, .cls-9, .cls-10 {
        stroke-width: 0px;
      }

      .cls-2 {
        fill: #e25a1c;
      }

      .cls-2, .cls-8 {
        fill-rule: evenodd;
      }

      .cls-11 {
        stroke-miterlimit: 10;
        stroke-width: 4px;
      }

      .cls-11, .cls-12 {
        fill: none;
      }

      .cls-11, .cls-12, .cls-13 {
        stroke: #fc0;
      }

      .cls-3 {
        fill: #fc0;
      }

      .cls-12, .cls-13 {
        stroke-linecap: round;
        stroke-linejoin: round;
        stroke-width: 2px;
      }

      .cls-4 {
        fill: url(#Unbenannter_Verlauf_5);
      }

      .cls-5 {
        fill: url(#Unbenannter_Verlauf_4);
      }

      .cls-6 {
        fill: url(#Unbenannter_Verlauf_3);
      }

      .cls-7 {
        fill: url(#Unbenannter_Verlauf_2);
      }

      .cls-8, .cls-13, .cls-9 {
        fill: #fff;
      }

      .cls-10 {
        fill: #39f;
        isolation: isolate;
        opacity: .2;
      }
    </style>
    <linearGradient id="Unbenannter_Verlauf" data-name="Unbenannter Verlauf" x1="1.3" y1="60.8" x2="473" y2="60.8" gradientTransform="translate(0 268) scale(1 -1)" gradientUnits="userSpaceOnUse">
      <stop offset="0" stop-color="#981869"/>
      <stop offset=".2" stop-color="#771c65"/>
      <stop offset=".4" stop-color="#591f62"/>
      <stop offset=".6" stop-color="#432260"/>
      <stop offset=".8" stop-color="#36235e"/>
      <stop offset="1" stop-color="#32245e"/>
    </linearGradient>
    <linearGradient id="Unbenannter_Verlauf_2" data-name="Unbenannter Verlauf 2" x1="244.1" y1="214.4" x2="351.3" y2="214.4" gradientTransform="translate(0 268) scale(1 -1)" gradientUnits="userSpaceOnUse">
      <stop offset="0" stop-color="#981869"/>
      <stop offset=".2" stop-color="#771c65"/>
      <stop offset=".4" stop-color="#591f62"/>
      <stop offset=".6" stop-color="#432260"/>
      <stop offset=".8" stop-color="#36235e"/>
      <stop offset="1" stop-color="#32245e"/>
    </linearGradient>
    <linearGradient id="Unbenannter_Verlauf_3" data-name="Unbenannter Verlauf 3" x1="365.8" y1="214.4" x2="473" y2="214.4" gradientTransform="translate(0 268) scale(1 -1)" gradientUnits="userSpaceOnUse">
      <stop offset="0" stop-color="#981869"/>
      <stop offset=".2" stop-color="#771c65"/>
      <stop offset=".4" stop-color="#591f62"/>
      <stop offset=".6" stop-color="#432260"/>
      <stop offset=".8" stop-color="#36235e"/>
      <stop offset="1" stop-color="#32245e"/>
    </linearGradient>
    <linearGradient id="Unbenannter_Verlauf_4" data-name="Unbenannter Verlauf 4" x1=".2" y1="214.4" x2="107.4" y2="214.4" gradientTransform="translate(0 268) scale(1 -1)" gradientUnits="userSpaceOnUse">
      <stop offset="0" stop-color="#981869"/>
      <stop offset=".2" stop-color="#771c65"/>
      <stop offset=".4" stop-color="#591f62"/>
      <stop offset=".6" stop-color="#432260"/>
      <stop offset=".8" stop-color="#36235e"/>
      <stop offset="1" stop-color="#32245e"/>
    </linearGradient>
    <linearGradient id="Unbenannter_Verlauf_5" data-name="Unbenannter Verlauf 5" x1="121.9" y1="214.4" x2="229.1" y2="214.4" gradientTransform="translate(0 268) scale(1 -1)" gradientUnits="userSpaceOnUse">
      <stop offset="0" stop-color="#981869"/>
      <stop offset=".2" stop-color="#771c65"/>
      <stop offset=".4" stop-color="#591f62"/>
      <stop offset=".6" stop-color="#432260"/>
      <stop offset=".8" stop-color="#36235e"/>
      <stop offset="1" stop-color="#32245e"/>
    </linearGradient>
  </defs>
  <g id="Lock">
    <rect class="cls-1" x="1.3" y="149" width="471.8" height="116.3" rx="4" ry="4"/>
    <rect class="cls-7" x="244.1" y="0" width="107.2" height="107.2" rx="4" ry="4"/>
    <path class="cls-9" d="M289.5,80.7c0-.4,0-.7-.3-1-.2-.3-.5-.5-.8-.7-.3-.2-.7-.4-1-.6-.4-.2-.7-.4-1-.7-.3-.3-.6-.6-.7-.9-.2-.4-.3-.9-.3-1.3,0-.5,0-1,.3-1.5.2-.4.5-.7.9-1,.4-.3.8-.5,1.3-.6.5-.1,1-.2,1.6-.2.6,0,1.1,0,1.7.2.4,0,.8.2,1.2.4l-.6,1.1c-.3-.2-.6-.3-1-.3-.5-.1-1-.2-1.5-.2-.6,0-1.2.1-1.7.5-.4.3-.7.8-.7,1.4,0,.4,0,.7.3,1,.2.3.5.5.7.7.3.2.7.4,1,.6.4.2.7.4,1,.7.3.3.6.6.8.9.2.4.3.9.3,1.3,0,.9-.4,1.8-1.1,2.4-1,.6-2.1.9-3.2.8-.6,0-1.2,0-1.8-.2-.4,0-.8-.2-1.1-.4l.7-1.2c.3.2.7.3,1,.4.5.1,1,.2,1.5.2.3,0,.7,0,1,0,.3,0,.6-.2.9-.3.3-.1.5-.4.7-.6.2-.3.2-.6.2-.9Z"/>
    <path class="cls-9" d="M292.5,79.5c0-1,.1-1.9.4-2.8.2-.8.6-1.6,1.1-2.3.5-.7,1.1-1.2,1.8-1.6.7-.4,1.5-.6,2.3-.6.5,0,1,0,1.4.2.4.1.8.4,1.1.7.3.4.6.8.7,1.3.2.6.3,1.3.3,2,0,1-.1,1.9-.4,2.8-.2.8-.6,1.6-1.1,2.4-.5.6-1,1.2-1.7,1.6-.7.4-1.4.6-2.2.6-1.1,0-2.1-.3-2.8-1.1-.7-.9-1-2.1-.9-3.2ZM293.9,79.5c0,.8.2,1.6.6,2.3.4.6,1.1.9,1.9.8.6,0,1.2-.2,1.6-.5.5-.4,1-.8,1.3-1.3.4-.6.7-1.3.8-2,.2-.8.3-1.6.3-2.4,0-.5,0-1-.2-1.5-.1-.4-.3-.7-.5-1-.2-.2-.5-.4-.8-.5-.3,0-.6-.1-.9-.1-.6,0-1.2.2-1.7.5-.5.4-1,.8-1.3,1.4-.4.6-.7,1.3-.8,2-.2.7-.3,1.5-.3,2.3h0ZM301.6,86.3c-.2,0-.5.1-.8.2h-.7c-.5,0-1,0-1.5-.2-.5-.1-.9-.2-1.3-.4l-1.2-.4c-.4-.1-.8-.2-1.1-.2h-.4c-.1,0-.2,0-.4,0l.2-1.2c.3,0,.6,0,.9,0,.4,0,.8,0,1.2.2l1.2.4c.4.1.8.2,1.3.4.5.1.9.2,1.4.2.5,0,.9,0,1.4-.2l-.3,1.2Z"/>
    <path class="cls-9" d="M308.8,83.6h-6.3l2.4-11.2h1.3l-2.2,10.1h5l-.2,1.2Z"/>
    <path class="cls-9" d="M258.2,25.5v-1.3h4.4v1.3l-1.1.2v7.7l1.1.2v1.3h-4.4v-1.3l1.1-.2v-7.7l-1.1-.2Z"/>
    <path class="cls-9" d="M263.4,33.6l1-.2v-4.9l-1.1-.2v-1.3h3.1v1.1c.4-.4.7-.7,1.1-1,.4-.2.8-.3,1.3-.3.7,0,1.4.2,1.9.8.5.7.7,1.5.7,2.4v3.5l1,.2v1.3h-4.1v-1.3l.9-.2v-3.5c0-.4,0-.8-.3-1.1-.3-.2-.6-.4-1-.3-.3,0-.5,0-.8.2-.2.1-.4.3-.6.5v4.2l.9.2v1.3h-4v-1.3Z"/>
    <path class="cls-9" d="M276.2,25v1.9h1.4v1.5h-1.4v4c0,.2,0,.5.2.7.1.1.3.2.5.2h.8c0,0,.2,1.5.2,1.5-.2,0-.5.1-.7.2-.3,0-.5,0-.8,0-.6,0-1.2-.2-1.7-.6-.4-.5-.6-1.2-.6-1.9v-4h-1.2v-1.5h1.2v-1.9h2.1Z"/>
    <path class="cls-9" d="M282.4,35c-1,0-2-.4-2.7-1.1-.7-.8-1-1.8-1-2.8v-.3c0-1.1.3-2.1,1-2.9,1.4-1.4,3.6-1.5,5.1-.2.6.7.9,1.7.9,2.6v1.2h-4.7c0,.5.2.9.5,1.3.3.3.8.5,1.3.5.4,0,.8,0,1.2-.1.3-.1.7-.3,1-.5l.6,1.3c-.4.3-.8.5-1.3.7-.6.2-1.2.3-1.8.3ZM282.2,28.4c-.4,0-.7.2-.9.5-.2.3-.4.8-.4,1.2h2.6v-.2c0-.4,0-.8-.3-1.1-.2-.3-.6-.4-.9-.4h0Z"/>
    <path class="cls-9" d="M286.8,33.6l1-.2v-4.9l-1.1-.2v-1.3h3.1v1.2c.2-.4.5-.7.8-1,.3-.2.6-.3,1-.3h.4c.1,0,.2,0,.3,0l-.2,1.9h-.9c-.3,0-.5,0-.8.2-.2.1-.4.3-.5.5v3.9l1,.2v1.3h-4.2v-1.2Z"/>
    <path class="cls-9" d="M297.8,34.9c0-.1-.1-.3-.1-.4,0-.1,0-.3-.1-.4-.3.3-.6.5-.9.7-.4.2-.8.3-1.2.3-.7,0-1.3-.2-1.9-.6-.5-.4-.7-1.1-.7-1.7,0-.7.3-1.3.9-1.7.8-.4,1.7-.7,2.6-.6h1.1v-.8c0-.3-.1-.7-.3-.9-.3-.2-.6-.3-1-.3-.2,0-.4,0-.6,0-.2,0-.3.1-.5.2v.9h-1.7v-1.8c.4-.3.9-.5,1.4-.7.5-.2,1.1-.3,1.6-.3.9,0,1.7.2,2.4.7.6.5.9,1.2.9,2v3.6c0,.1,0,.2,0,.3h.6v1.4h-2.4ZM296,33.4c.3,0,.6,0,.9-.2.2-.1.5-.3.6-.5v-1.2h-1.1c-.4,0-.7,0-1,.3-.2.2-.4.5-.4.8,0,.2,0,.5.3.6.2.2.4.2.7.2Z"/>
    <path class="cls-9" d="M300.8,24.7v-1.3h3.3v6.6h.5l1.2-1.7h-.7v-1.4h3.9v1.3l-.9.2-1.4,2,2,3,.8.2v1.3h-3.7v-1.3h.4c0,0-1.2-2.1-1.2-2.1h-.9v1.8l.9.2v1.3h-4.1v-1.2l1-.2v-8.4l-1.1-.2Z"/>
    <path class="cls-9" d="M313.3,25v1.9h1.4v1.5h-1.4v4c0,.2,0,.5.2.7.1.1.3.2.5.2h.8c0,0,.2,1.5.2,1.5-.2,0-.5.1-.7.2-.3,0-.5,0-.8,0-.6,0-1.2-.2-1.7-.6-.4-.5-.7-1.2-.6-1.9v-4h-1.2v-1.5h1.2v-1.9h2.1Z"/>
    <path class="cls-9" d="M315.7,33.6l1-.2v-4.9l-1.1-.2v-1.3h3.3v6.4l1,.2v1.3h-4.2v-1.3ZM318.9,25h-2.1v-1.6h2.1v1.6Z"/>
    <path class="cls-9" d="M324,28.2h-.7c0,.1,1,3.7,1,3.7v.7h.2v-.8c.1,0,1.1-3.5,1.1-3.5h-.8v-1.4h3.6v1.3h-.7c0,.1-2.3,6.6-2.3,6.6h-2l-2.3-6.5h-.7v-1.4h3.6v1.3Z"/>
    <path class="cls-9" d="M332.8,35c-1,0-2-.4-2.7-1.1-.7-.8-1-1.8-1-2.8v-.3c0-1.1.3-2.1,1-2.9,1.4-1.4,3.6-1.5,5.1-.2.6.7.9,1.7.9,2.6v1.2h-4.7c0,.5.2.9.5,1.3.3.3.8.5,1.3.5.4,0,.8,0,1.2-.1.3-.1.7-.3,1-.5l.6,1.3c-.4.3-.8.5-1.3.7-.6.2-1.2.3-1.8.3ZM332.6,28.4c-.4,0-.7.2-.9.5-.2.3-.4.8-.4,1.2h2.6v-.2c0-.4,0-.8-.3-1.1-.2-.3-.6-.4-.9-.4h0Z"/>
    <path class="cls-9" d="M264.8,49.1h.8c0-.1,3.2-9.4,3.2-9.4h2.2l3.2,9.3h.8v1.4h-3.6v-1.3h.7c0-.1-.5-1.6-.5-1.6h-3.5l-.4,1.5h.7v1.4h-3.6v-1.3ZM268.6,46h2.4l-1.2-3.8h0l-1.2,3.8Z"/>
    <path class="cls-9" d="M283.4,46.7c0,1-.2,2-.8,2.8-.5.7-1.4,1.1-2.3,1.1-.4,0-.8,0-1.2-.3-.4-.2-.6-.5-.9-.8l-.2,1h-1.8v-9.9l-1.1-.2v-1.3h3.3v4.3c.2-.3.5-.6.8-.7.3-.2.7-.3,1.1-.3.9,0,1.8.4,2.3,1.1.6.9.8,1.9.8,3v.2ZM281.2,46.5c0-.6,0-1.3-.3-1.8-.2-.4-.7-.7-1.2-.7-.3,0-.6,0-.8.2-.2.1-.4.3-.5.6v3.3c.1.2.3.4.5.6.3.1.6.2.9.2.5,0,.9-.2,1.2-.6.2-.5.3-1.1.3-1.7h0Z"/>
    <path class="cls-9" d="M284.5,49.1l1-.2v-4.9h-1.2v-1.5h1.2v-.9c0-.8.2-1.5.8-2,.6-.5,1.4-.8,2.2-.7.2,0,.4,0,.6,0,.2,0,.4,0,.6.1l-.2,1.6h-.3c-.1,0-.3,0-.4,0-.3,0-.6,0-.8.3-.2.2-.3.5-.3.8v.9h1.6v1.5h-1.6v4.9l1,.2v1.3h-4.2v-1.3Z"/>
    <path class="cls-9" d="M290.1,49.1l1-.2v-4.9l-1.1-.2v-1.3h3.1v1.2c.2-.4.5-.7.8-1,.3-.2.6-.4,1-.3h.7c0,0-.2,2-.2,2h-.9c-.3,0-.5,0-.8.2-.2.1-.4.3-.5.5v3.9l1,.2v1.3h-4.2v-1.2Z"/>
    <path class="cls-9" d="M301.1,50.4c0-.1-.1-.3-.2-.4s0-.3-.1-.4c-.3.3-.6.5-.9.7-.4.2-.8.3-1.2.3-.7,0-1.3-.2-1.9-.6-.5-.4-.7-1.1-.7-1.7,0-.7.3-1.3.9-1.7.8-.5,1.7-.7,2.6-.6h1.1v-.8c0-.3-.1-.7-.3-.9-.3-.2-.6-.3-1-.3-.2,0-.4,0-.7,0-.2,0-.3.1-.5.2v.8h-1.7v-1.8c.4-.3.9-.5,1.3-.7.5-.2,1.1-.3,1.7-.3.9,0,1.7.2,2.4.7.6.5.9,1.2.9,2v3.6c0,.1,0,.2,0,.3h.6v1.4h-2.4ZM299.3,49c.3,0,.6,0,.9-.2.2-.1.5-.3.6-.5v-1.3h-1.1c-.4,0-.7,0-1,.3-.2.2-.4.5-.4.8,0,.2,0,.5.2.6.2.2.4.3.7.3Z"/>
    <path class="cls-9" d="M304.5,46.5c0-1.1.2-2.1.8-3,.5-.8,1.4-1.2,2.3-1.2.4,0,.8,0,1.2.3.4.2.7.5.9.8v-1h2v7.7c0,.9-.3,1.8-1,2.5-.7.7-1.7,1-2.7.9-.4,0-.9,0-1.3-.2-.4-.1-.8-.3-1.2-.5l.4-1.5c.3.1.7.3,1,.3.4,0,.7.1,1.1.1.4,0,.9-.1,1.2-.5.3-.4.4-.9.4-1.3v-.5c-.2.3-.5.5-.8.7-.3.2-.7.2-1.1.2-.9,0-1.7-.4-2.3-1.1-.6-.8-.9-1.8-.8-2.8v-.2ZM306.6,46.7c0,.6.1,1.1.4,1.6.2.4.7.6,1.1.6.3,0,.6,0,.8-.2.2-.1.4-.3.5-.5v-3.4c-.1-.2-.3-.4-.5-.5-.2-.1-.5-.2-.8-.2-.5,0-.9.3-1.1.7-.3.6-.4,1.2-.4,1.8v.2Z"/>
    <path class="cls-9" d="M316.7,50.6c-1,0-2-.4-2.7-1.1-.7-.8-1-1.8-1-2.8v-.3c0-1.1.3-2.1,1-2.9,1.4-1.4,3.6-1.5,5.1-.2.6.7.9,1.7.9,2.6v1.2h-4.7c0,.5.2.9.5,1.3.3.3.8.5,1.3.5.4,0,.8,0,1.2-.1.3-.1.7-.3,1-.5l.6,1.3c-.4.3-.8.5-1.3.7-.6.2-1.2.3-1.8.3ZM316.5,44c-.4,0-.7.2-.9.5-.2.4-.4.8-.4,1.2h2.6v-.2c0-.4,0-.8-.3-1.1-.2-.3-.6-.4-.9-.4Z"/>
    <path class="cls-9" d="M320.8,49.1l1-.2v-4.9l-1.1-.2v-1.3h3.1v1.1c.4-.4.7-.7,1.1-1,.4-.2.8-.3,1.3-.3.7,0,1.4.2,1.9.8.5.7.7,1.5.7,2.4v3.5l1,.2v1.3h-4.1v-1.3l.9-.2v-3.5c0-.4,0-.8-.3-1.1-.3-.2-.6-.4-1-.3-.3,0-.5,0-.8.2-.2.1-.4.3-.6.5v4.2l.9.2v1.3h-4v-1.3Z"/>
    <rect class="cls-6" x="365.8" y="0" width="107.2" height="107.2" rx="4" ry="4"/>
    <path class="cls-9" d="M399.9,78h3l-1,5c-.8.6-1.8.9-2.8.9-.5,0-1,0-1.5-.3-.5-.2-.9-.5-1.3-.9-.4-.4-.7-.9-.9-1.4-.2-.6-.3-1.3-.3-2,0-1.1.2-2.3.6-3.3.3-.8.8-1.6,1.4-2.2.6-.5,1.3-.9,2-1.2.7-.2,1.4-.4,2.1-.4.5,0,1,0,1.5.1.3,0,.7.2,1,.3l-.6,1.2c-.3-.1-.6-.2-.9-.3-.4,0-.8-.1-1.2-.1-.6,0-1.2.1-1.8.4-.6.3-1.1.6-1.5,1.1-.4.5-.8,1.1-1,1.8-.3.8-.4,1.6-.4,2.5,0,.5,0,.9.2,1.4.1.4.3.8.5,1.1.2.3.5.6.9.8.4.2.8.3,1.3.3.3,0,.6,0,.9-.1.3,0,.5-.2.7-.3l.6-3.1-1.8-.3v-.7Z"/>
    <path class="cls-9" d="M409,76.6h-.3c0,0-.2,0-.3,0-.5,0-1,.2-1.4.5-.4.3-.7.8-.9,1.3l-1.1,5.2h-1.2l1.7-8h.8v1.4h0c.1-.2.3-.4.4-.6.2-.2.3-.3.5-.5.2-.1.4-.2.6-.3.2,0,.5-.1.7-.1.3,0,.5,0,.7.1l-.4,1Z"/>
    <path class="cls-9" d="M415.1,80.4c0,.4-.1.8-.2,1.2,0,.4,0,.8,0,1.1v.5c0,.1,0,.3,0,.4h-.9l-.2-1.4h0c-.1.2-.3.4-.5.6-.2.2-.4.4-.6.5-.2.1-.5.3-.7.4-.3,0-.5.1-.8.1-1.3,0-1.9-.8-1.9-2.5,0-.7,0-1.4.3-2.1.2-.7.4-1.3.8-1.9.4-.6.9-1,1.4-1.4.6-.4,1.4-.6,2.1-.6.4,0,.7,0,1.1.1.4,0,.8.2,1.2.3l-1,4.7ZM411.5,82.8c.3,0,.5,0,.7-.2.2-.1.5-.3.7-.5.4-.3.7-.7.9-1.2l.9-4.3c-.4-.2-.8-.2-1.2-.2-.5,0-.9.1-1.3.4-.4.3-.7.7-1,1.1-.3.5-.5,1-.6,1.6-.1.6-.2,1.2-.2,1.8,0,.3,0,.7.2,1,.1.3.4.5.8.5Z"/>
    <path class="cls-9" d="M418.6,75.5h.8v1.4c0,0,0,0,0,0,.2-.2.3-.4.5-.6.2-.2.4-.4.6-.5.2-.2.5-.3.7-.4.3,0,.6-.1.9-.1.2,0,.5,0,.7.1.2,0,.4.2.6.4.2.2.3.5.4.8.1.4.2.8.1,1.1,0,.9-.1,1.7-.4,2.5-.2.7-.6,1.3-1,1.9-.4.5-.9.9-1.4,1.2-.5.3-1,.4-1.5.4-.3,0-.7,0-1-.1-.2,0-.4-.1-.6-.2l-.7,3.3h-1.2l2.4-11.3ZM421.7,76.4c-.3,0-.6,0-.8.2-.3.2-.5.3-.7.6-.2.2-.4.5-.6.7-.2.2-.3.5-.4.7l-.8,3.8c.2.1.4.2.6.3.2,0,.4,0,.6,0,.4,0,.8-.1,1.2-.3.4-.3.7-.6,1-1,.3-.5.6-1,.7-1.5.2-.7.3-1.3.3-2,0-.4,0-.7-.3-1.1-.2-.3-.4-.4-.8-.4Z"/>
    <path class="cls-9" d="M429.9,83.6l1-4.6c0-.3.1-.6.2-.9,0-.2,0-.4,0-.7,0-.3,0-.6-.2-.8-.2-.2-.5-.3-.8-.2-.3,0-.6,0-.9.2-.3.2-.6.3-.8.6-.3.2-.5.5-.7.8-.2.2-.4.5-.5.8l-1,4.9h-1.3l2.4-11.2h1.2l-1,4.6h0c.2-.2.3-.4.5-.5.2-.2.4-.4.7-.5.3-.2.5-.3.8-.4.3-.1.7-.2,1-.2.4,0,.9.1,1.2.4.3.4.5.9.5,1.4,0,.5,0,1.1-.2,1.6l-1,4.8h-1.2Z"/>
    <path class="cls-9" d="M437.6,77.8l-2.1-5.5h1.4l1.4,3.8.2.9.5-.9,3.1-3.8h1.6l-4.5,5.4,2.3,5.8h-1.4l-1.5-4-.2-1-.6,1-3.3,4h-1.6l4.8-5.8Z"/>
    <path class="cls-9" d="M394.5,33.7c-.4.4-1,.7-1.5.9-.8.3-1.7.4-2.5.4-1.3,0-2.6-.5-3.5-1.4-.9-1-1.4-2.4-1.4-3.8v-.4c0-1.4.4-2.8,1.3-3.9.9-1,2.2-1.5,3.5-1.5.8,0,1.6.1,2.3.4.6.2,1.2.6,1.7,1.1v2.1h-1.6l-.3-1.4c-.2-.2-.5-.3-.8-.4-.4-.1-.7-.2-1.1-.1-.8,0-1.7.3-2.2,1-.6.8-.8,1.7-.8,2.7v.4c0,.9.2,1.8.8,2.6.5.7,1.3,1,2.2,1,.3,0,.7,0,1-.1.2,0,.4-.1.6-.2v-1.8h-1.5v-1.6h3.7v4.1Z"/>
    <path class="cls-9" d="M395.8,33.6l1-.2v-4.9l-1.1-.2v-1.3h3.1v1.2c.2-.4.5-.7.8-1,.3-.2.6-.3,1-.3h.7c0,0-.2,2-.2,2h-.9c-.3,0-.5,0-.8.2-.2.1-.4.3-.5.5v3.9l1,.2v1.3h-4.2v-1.2Z"/>
    <path class="cls-9" d="M406.9,34.9c0-.1-.1-.3-.1-.4,0-.1,0-.3-.1-.4-.3.3-.6.5-.9.7-.4.2-.8.3-1.2.3-.7,0-1.3-.2-1.9-.6-.5-.4-.7-1.1-.7-1.7,0-.7.3-1.3.9-1.7.8-.4,1.7-.7,2.6-.6h1.1v-.8c0-.3,0-.7-.3-.9-.3-.2-.6-.3-1-.3-.2,0-.4,0-.6,0-.2,0-.3.1-.5.2v.9h-1.8v-1.8c.4-.3.9-.5,1.4-.7.5-.2,1.1-.3,1.6-.3.9,0,1.7.2,2.4.7.6.5.9,1.2.9,2v3.6c0,.1,0,.2,0,.3h.6v1.4h-2.4ZM405,33.4c.3,0,.6,0,.9-.2.2-.1.5-.3.6-.5v-1.2h-1.1c-.4,0-.7,0-1,.3-.2.2-.4.5-.4.8,0,.2,0,.5.3.6.2.2.4.2.7.2Z"/>
    <path class="cls-9" d="M409.9,28.4v-1.5h1.1v-.5c0-.9.3-1.7.9-2.3.7-.6,1.6-.9,2.6-.8.4,0,.8,0,1.1.1.4,0,.8.2,1.3.3l-.3,1.7c-.3,0-.7-.2-1-.2-.3,0-.7,0-1,0-.4,0-.8,0-1.1.3-.3.3-.4.6-.4,1v.5h4.9v6.4l1.1.2v1.3h-4.3v-1.3l1-.2v-4.9h-2.7v4.9l1,.2v1.3h-4.3v-1.3l1.1-.2v-4.9h-1.2Z"/>
    <path class="cls-9" d="M426.3,29.7h-1.4l-.2-1c-.2-.1-.4-.2-.5-.3-.2,0-.5-.1-.7-.1-.3,0-.6,0-.9.2-.2.1-.3.4-.3.6,0,.2.1.5.3.6.4.2.8.4,1.3.4.8.1,1.5.4,2.2.9.5.4.7,1,.7,1.6,0,.7-.3,1.4-.9,1.8-.7.5-1.6.7-2.4.7-.6,0-1.1,0-1.7-.3-.5-.2-1-.4-1.4-.8v-1.8h1.5l.3,1c.2.1.3.2.5.2.2,0,.5,0,.7,0,.3,0,.7,0,1-.2.2-.1.3-.4.3-.6,0-.2-.1-.5-.4-.6-.4-.2-.8-.4-1.3-.5-.8-.1-1.5-.4-2.1-.8-.5-.4-.7-.9-.7-1.5,0-.7.3-1.3.8-1.7.7-.5,1.5-.8,2.3-.7.6,0,1.2,0,1.7.2.5.1.9.3,1.3.6v2Z"/>
    <path class="cls-9" d="M431.3,33.4c.3,0,.7-.1.9-.3.2-.2.4-.6.3-.9h1.9c0,.8-.3,1.5-.9,2-1.5,1.2-3.6,1-5-.3-.7-.8-1-1.8-1-2.9v-.2c0-1,.3-2.1,1-2.9.7-.8,1.8-1.2,2.8-1.1.6,0,1.2,0,1.7.3.5.2.9.4,1.3.8v2.1h-1.7l-.4-1.2c-.1-.1-.2-.2-.4-.2-.2,0-.4,0-.5,0-.5,0-1,.2-1.3.6-.3.5-.4,1.1-.4,1.7v.3c0,.6,0,1.2.3,1.7.2.5.7.7,1.3.7Z"/>
    <path class="cls-9" d="M435.4,33.6l1-.2v-8.4l-1.1-.2v-1.3h3.3v4.6c.2-.4.5-.7.9-.9,1-.5,2.3-.3,3.1.5.5.7.8,1.6.7,2.5v3.2l1,.2v1.3h-4.1v-1.3l.9-.2v-3.2c0-.5,0-.9-.3-1.3-.3-.3-.6-.4-1-.4-.3,0-.5,0-.8.2-.2.1-.4.3-.6.5v4.3l.9.2v1.3h-4.1v-1.3Z"/>
    <path class="cls-9" d="M448.8,35c-1,0-2-.4-2.7-1.1-.7-.8-1-1.8-1-2.8v-.3c0-1.1.3-2.1,1-2.9,1.4-1.4,3.6-1.5,5.1-.2.6.7.9,1.7.9,2.6v1.2h-4.8c0,.5.2.9.5,1.3.3.3.8.5,1.3.5.4,0,.8,0,1.2-.1.3-.1.7-.3,1-.5l.6,1.3c-.4.3-.8.5-1.3.7-.6.2-1.1.3-1.7.3ZM448.6,28.4c-.4,0-.7.2-.9.5-.2.3-.4.8-.4,1.2h2.6v-.2c0-.4,0-.8-.3-1.1-.2-.3-.6-.4-.9-.4h0Z"/>
    <path class="cls-9" d="M376.2,41l-.8.2,1.9,6.4v.6h.2v-.6c.1,0,2-6.4,2-6.4l-.8-.2v-1.3h3.9v1.3h-.9c0,.1-3.1,9.4-3.1,9.4h-2.2l-3.1-9.3h-.9v-1.4h3.9v1.3Z"/>
    <path class="cls-9" d="M386.8,50.6c-1,0-2-.4-2.7-1.1-.7-.8-1-1.8-1-2.8v-.3c0-1.1.3-2.1,1-2.9,1.4-1.5,3.6-1.5,5.1-.2,0,0,0,0,0,0,.6.7.9,1.7.9,2.6v1.2h-4.7c0,.5.2.9.5,1.3.3.3.8.5,1.3.5.4,0,.8,0,1.2-.1.3-.1.7-.3,1-.5l.6,1.3c-.4.3-.8.5-1.3.7-.6.2-1.2.3-1.8.3ZM386.6,44c-.4,0-.7.2-.9.5-.2.4-.4.8-.4,1.2h2.6v-.2c0-.4,0-.8-.3-1.1-.2-.3-.6-.4-.9-.4Z"/>
    <path class="cls-9" d="M391.1,49.1l1-.2v-4.9l-1.1-.2v-1.3h3.1v1.2c.2-.4.5-.7.8-1,.3-.2.6-.4,1-.3h.7c0,0-.2,2-.2,2h-.9c-.3,0-.5,0-.8.2-.2.1-.4.3-.5.5v3.9l1,.2v1.3h-4.2v-1.2Z"/>
    <path class="cls-9" d="M402.2,50.4c0-.1-.1-.3-.2-.4,0-.1,0-.3-.1-.4-.3.3-.6.5-.9.7-.4.2-.8.3-1.2.3-.7,0-1.3-.2-1.9-.6-.5-.5-.7-1.1-.7-1.7,0-.7.3-1.3.9-1.7.8-.5,1.7-.7,2.6-.6h1.1v-.8c0-.3-.1-.7-.3-.9-.3-.2-.6-.3-1-.3-.2,0-.4,0-.6,0-.2,0-.3.1-.5.2v.8h-1.8v-1.8c.4-.3.9-.5,1.4-.7.5-.2,1.1-.3,1.6-.3.9,0,1.7.2,2.4.7.6.5.9,1.2.9,2v3.6c0,.1,0,.2,0,.3h.6v1.4h-2.4ZM400.3,49c.3,0,.6,0,.9-.2.2-.1.5-.3.6-.5v-1.3h-1.1c-.4,0-.7,0-1,.3-.2.2-.4.5-.4.8,0,.2,0,.5.3.6.2.2.4.3.7.3Z"/>
    <path class="cls-9" d="M405.5,49.1l1-.2v-4.9l-1.1-.2v-1.3h3.1v1.2c.3-.4.5-.7.8-1,.3-.2.6-.4,1-.3h.7c0,0-.2,2-.2,2h-.9c-.3,0-.5,0-.8.2-.2.1-.4.3-.5.5v3.9l1,.2v1.3h-4.2v-1.2Z"/>
    <path class="cls-9" d="M419.4,46.7c0,1-.2,2-.8,2.8-.5.7-1.4,1.1-2.3,1.1-.8,0-1.6-.4-2.1-1.1v1h-2v-9.9l-1.1-.2v-1.3h3.3v4.3c.2-.3.5-.6.8-.7.3-.2.7-.3,1.1-.3.9,0,1.8.4,2.3,1.1.6.9.8,1.9.8,3v.2ZM417.2,46.5c0-.6,0-1.3-.3-1.8-.2-.4-.7-.7-1.2-.7-.3,0-.6,0-.8.2-.2.1-.4.3-.5.6v3.3c.1.2.3.4.5.6.3.1.6.2.9.2.5,0,.9-.2,1.2-.6.2-.5.4-1.1.3-1.7h0Z"/>
    <path class="cls-9" d="M424.1,50.6c-1,0-2-.4-2.7-1.1-.7-.8-1-1.8-1-2.8v-.3c0-1.1.3-2.1,1-2.9,1.4-1.5,3.6-1.5,5.1-.2,0,0,0,0,0,0,.6.7.9,1.7.9,2.6v1.2h-4.8c0,.5.2.9.5,1.3.3.3.8.5,1.3.5.4,0,.8,0,1.2-.1.3-.1.7-.3,1-.5l.6,1.3c-.4.3-.8.5-1.3.7-.6.2-1.1.3-1.7.3ZM424,44c-.4,0-.7.2-.9.5-.2.3-.4.8-.4,1.2h2.6v-.2c0-.4,0-.8-.3-1.1-.2-.3-.6-.4-.9-.4Z"/>
    <path class="cls-9" d="M428.3,49.1l1-.2v-4.9l-1.1-.2v-1.3h3.3v6.4l1,.2v1.3h-4.2v-1.3ZM431.4,40.6h-2.1v-1.6h2.1v1.6Z"/>
    <path class="cls-9" d="M436.3,40.5v1.9h1.4v1.5h-1.4v4c0,.2,0,.5.2.7.1.1.3.2.5.2h.8c0,0,.2,1.5.2,1.5-.2,0-.5.1-.7.2-.3,0-.5,0-.8,0-.6,0-1.2-.2-1.7-.6-.4-.5-.7-1.2-.6-1.9v-4h-1.2v-1.5h1.2v-2h2.2Z"/>
    <path class="cls-9" d="M444.3,49.4c-.2.4-.6.7-.9.9-.4.2-.8.3-1.3.3-.8,0-1.5-.2-2-.8-.5-.7-.8-1.6-.7-2.5v-3.3l-.9-.2v-1.3h3v4.8c0,.4,0,.9.3,1.2.2.3.5.4.9.4.3,0,.6,0,.9-.2.2-.1.5-.3.6-.5v-4.3l-.9-.2v-1.3h3.1v6.4l1,.2v1.3h-2.8v-1Z"/>
    <path class="cls-9" d="M448,49.1l1-.2v-4.9l-1.1-.2v-1.3h3.1v1.1c.3-.4.7-.7,1.1-1,.4-.2.8-.3,1.3-.3.7,0,1.4.2,1.9.8.5.7.7,1.5.7,2.4v3.5l1,.2v1.3h-4.1v-1.3l.9-.2v-3.5c0-.4,0-.8-.3-1.1-.3-.2-.6-.4-1-.3-.3,0-.5,0-.8.2-.2.1-.4.3-.6.5v4.2l.9.2v1.3h-4v-1.3Z"/>
    <path class="cls-9" d="M457.7,46.5c0-1.1.2-2.1.8-3,.5-.8,1.4-1.2,2.3-1.2.4,0,.8,0,1.2.3.3.2.6.5.9.8v-1h2v7.7c0,.9-.3,1.9-1,2.5-.7.7-1.7,1-2.7.9-.4,0-.9,0-1.3-.2-.4-.1-.9-.3-1.2-.5l.4-1.5c.3.1.7.3,1,.3.4,0,.7.1,1.1.1.4,0,.9-.1,1.2-.5.3-.4.4-.9.4-1.3v-.5c-.2.3-.5.5-.8.7-.3.2-.7.2-1.1.2-.9,0-1.7-.4-2.3-1.1-.6-.8-.9-1.8-.8-2.8v-.2ZM459.9,46.7c0,.6,0,1.1.4,1.6.2.4.7.6,1.1.6.3,0,.6,0,.8-.2.2-.1.4-.3.5-.5v-3.4c-.1-.2-.3-.4-.5-.5-.2-.1-.5-.2-.8-.2-.5,0-.9.2-1.1.7-.3.6-.4,1.2-.4,1.8v.2Z"/>
    <rect class="cls-5" x=".2" y="0" width="107.2" height="107.2" rx="4" ry="4"/>
    <rect class="cls-10" x="62.9" y="222.4" width="73.4" height="31.6" rx="4" ry="4"/>
    <rect class="cls-10" x="151.9" y="222.4" width="73.4" height="31.6" rx="4" ry="4"/>
    <rect class="cls-10" x="241.4" y="222.4" width="73.5" height="31.6" rx="4" ry="4"/>
    <rect class="cls-10" x="329.9" y="222.4" width="73.4" height="31.6" rx="4" ry="4"/>
    <path class="cls-9" d="M45.8,76l.5-1.7h0l-.9,1.6-3.9,5.1h-.4l-1.9-5.1-.2-1.6h0l-.2,1.7-1.6,7.6h-1.2l2.4-11.2h.9l2.1,5.8.2,1.3h0l.7-1.3,4.4-5.7h1.1l-2.4,11.3h-1.3l1.6-7.6Z"/>
    <path class="cls-9" d="M54.4,83.6h-6.3l2.4-11.2h1.3l-2.1,10.1h5l-.2,1.2Z"/>
    <path class="cls-9" d="M57.5,81.7c0,.1,0,.3,0,.4,0,.2,0,.3,0,.4,0,0,.2.1.3.1.2,0,.4,0,.5,0,.2,0,.4,0,.5-.2v.9c-.1,0-.2.1-.3.1h-.4c0,0-.4,0-.4,0h-.4c-.3,0-.6,0-.9-.3-.3-.3-.4-.6-.3-1,0-.3,0-.5,0-.8l2-9.4h1.2l-2,9.4Z"/>
    <path class="cls-9" d="M62.2,75.5h1.2l-1.7,8h-1.2l1.7-8ZM62.5,73.1c0-.2,0-.5.2-.6.2-.2.4-.3.6-.2.2,0,.5,0,.6.2.2.2.3.4.2.6,0,.2,0,.5-.2.6-.2.2-.4.3-.6.2-.5,0-.9-.4-.9-.8,0,0,0,0,0,0Z"/>
    <path class="cls-9" d="M66.8,72.3h1.2l-1,4.6h0c.2-.2.3-.4.5-.6.2-.2.4-.4.6-.5.2-.1.5-.3.8-.4.3,0,.6-.1.9-.1.6,0,1.1.2,1.4.7.3.5.5,1.1.4,1.7,0,.9-.1,1.7-.4,2.6-.2.7-.6,1.3-1.1,1.9-.4.5-.9.9-1.5,1.2-.5.3-1.1.4-1.7.4-.5,0-1,0-1.5-.2-.3,0-.7-.2-.9-.5l2.3-10.7ZM69.5,76.3c-.3,0-.6,0-.8.2-.3.1-.6.3-.8.5-.3.2-.5.5-.7.7-.2.2-.4.5-.5.8l-.8,3.8c.4.3.9.4,1.4.3.4,0,.7-.1,1.1-.3.4-.2.7-.5,1-.9.3-.4.6-.9.8-1.4.2-.6.3-1.3.3-2,0-.4,0-.8-.2-1.2-.1-.2-.4-.4-.7-.4h0Z"/>
    <path class="cls-9" d="M268.1,200h-1.7l-.2-1.5c-.2-.2-.5-.4-.9-.5-.4-.1-.8-.2-1.2-.2-.9,0-1.8.4-2.3,1.1-.6.8-.8,1.8-.8,2.8v.4c0,1,.2,2,.8,2.8.5.7,1.4,1.1,2.3,1.1.4,0,.8,0,1.2-.2.3-.1.6-.3.9-.5l.2-1.5h1.7v2.3c-.5.6-1.1,1-1.8,1.3-.8.3-1.6.5-2.4.5-1.4,0-2.8-.5-3.8-1.6-1-1.1-1.5-2.6-1.5-4.1v-.4c0-1.5.5-3,1.5-4.1,1-1.1,2.3-1.6,3.8-1.6.8,0,1.6.2,2.4.5.7.3,1.3.7,1.8,1.3v2.2Z"/>
    <path class="cls-9" d="M269.2,203.2c0-1.1.3-2.2,1.1-3.1.7-.8,1.8-1.3,2.9-1.2,1.1,0,2.2.4,3,1.2.7.9,1.1,2,1.1,3.1v.2c0,1.1-.3,2.3-1.1,3.1-1.6,1.6-4.3,1.6-5.9,0-.7-.9-1.1-2-1.1-3.1v-.2ZM271.5,203.4c0,.6.1,1.3.4,1.9.3.5.8.7,1.3.7.5,0,1-.2,1.3-.7.3-.6.4-1.2.4-1.9v-.2c0-.6-.1-1.3-.4-1.9-.5-.7-1.4-.9-2.2-.5-.2.1-.3.3-.5.5-.3.6-.4,1.2-.4,1.9v.2Z"/>
    <path class="cls-9" d="M278.4,206.2l1.1-.2v-5.3l-1.2-.2v-1.4h3.4v1.2c.3-.4.5-.7.9-1,.3-.2.7-.4,1.1-.4h.4c.1,0,.2,0,.3,0l-.2,2.1h-.9c-.3,0-.6,0-.8.2-.2.1-.4.3-.5.6v4.1l1.1.2v1.4h-4.5v-1.4Z"/>
    <path class="cls-9" d="M288.9,207.7c-1.1,0-2.2-.4-2.9-1.2-.7-.8-1.1-1.9-1.1-3v-.3c0-1.1.3-2.2,1-3.1,1.5-1.6,3.9-1.6,5.5-.2.7.8,1,1.8,1,2.8v1.2h-5.1c0,.6.2,1,.6,1.4.3.4.8.6,1.4.5.4,0,.8,0,1.3-.1.4-.1.8-.3,1.1-.5l.6,1.4c-.4.3-.9.5-1.4.7-.6.2-1.2.3-1.8.3ZM288.7,200.7c-.4,0-.8.2-1,.5-.3.4-.4.8-.5,1.3h2.8v-.2c0-.4-.1-.8-.3-1.2-.3-.3-.6-.4-1-.4Z"/>
    <path class="cls-9" d="M32.9,27h0l-2.9,7.9h-1.4l-2.8-7.9h0l.2,4.7v1.7l1.1.2v1.3h-4.5v-1.3l1.1-.2v-7.7l-1.1-.2v-1.3h3.9l2.7,7.8h0l2.7-7.9h4v1.3l-1.2.2v7.7l1.2.2v1.3h-4.4v-1.3l1.1-.2v-1.7l.2-4.7Z"/>
    <path class="cls-9" d="M41.9,34.9c0-.1-.1-.3-.2-.4,0-.1,0-.3,0-.4-.3.3-.6.5-.9.7-.4.2-.8.3-1.2.3-.7,0-1.3-.2-1.8-.6-.5-.4-.7-1.1-.7-1.7,0-.7.3-1.3.9-1.7.8-.4,1.7-.7,2.6-.6h1.1v-.8c0-.3,0-.6-.3-.9-.3-.2-.6-.3-1-.3-.2,0-.4,0-.7,0-.2,0-.3.1-.5.2v.9h-1.7v-1.8c.4-.3.9-.5,1.3-.7.5-.2,1.1-.3,1.7-.3.9,0,1.7.2,2.4.7.6.5.9,1.2.9,2v3.9h.7v1.4h-2.4ZM40,33.4c.3,0,.6,0,.9-.2.2-.1.5-.3.6-.5v-1.2h-1.1c-.4,0-.7,0-1,.3-.2.2-.4.5-.3.8,0,.2,0,.5.3.6.2.2.4.2.7.2Z"/>
    <path class="cls-9" d="M48.8,33.4c.3,0,.7-.1.9-.3.2-.2.4-.6.3-.9h2c0,.8-.3,1.5-.9,2-1.5,1.2-3.6,1-5-.3-.7-.8-1-1.8-1-2.9v-.2c0-1,.3-2.1,1-2.9.7-.8,1.8-1.2,2.8-1.1.6,0,1.2,0,1.7.3.5.2.9.4,1.3.8v2.1h-1.7l-.3-1.2c-.1,0-.2-.2-.4-.2-.2,0-.4,0-.5,0-.5,0-1,.2-1.3.6-.3.5-.4,1.1-.4,1.7v.3c0,.6,0,1.2.3,1.7.2.4.7.7,1.2.7Z"/>
    <path class="cls-9" d="M52.8,33.6l1-.2v-8.4l-1.2-.2v-1.3h3.3v4.6c.2-.4.5-.6.9-.9.4-.2.8-.3,1.2-.3.8,0,1.5.3,2,.8.5.7.8,1.6.7,2.5v3.2l1,.2v1.3h-4.1v-1.3l.9-.2v-3.2c0-.5,0-.9-.3-1.3-.3-.3-.6-.4-1-.4-.3,0-.5,0-.8.2-.2.1-.4.3-.6.5v4.3l.9.2v1.3h-4.1v-1.3Z"/>
    <path class="cls-9" d="M62.4,33.6l1-.2v-4.9l-1.1-.2v-1.3h3.3v6.4l1,.2v1.3h-4.2v-1.3ZM65.6,25h-2.1v-1.6h2.1v1.6Z"/>
    <path class="cls-9" d="M67.2,33.6l1-.2v-4.9l-1.1-.2v-1.3h3.1v1.1c.4-.4.7-.7,1.1-1,.4-.2.8-.3,1.3-.3.7,0,1.4.2,1.9.8.5.7.7,1.5.7,2.4v3.5l1,.2v1.3h-4.1v-1.3l.9-.2v-3.5c0-.4,0-.8-.3-1.1-.3-.2-.6-.4-1-.3-.3,0-.5,0-.8.2-.2.1-.4.3-.6.5v4.2l.9.2v1.3h-4v-1.3Z"/>
    <path class="cls-9" d="M80.6,35c-1,0-2-.4-2.7-1.1-.7-.8-1-1.8-1-2.8v-.3c0-1.1.3-2.1,1-2.9,1.4-1.4,3.6-1.5,5.1-.2.6.7.9,1.7.9,2.6v1.2h-4.8c0,.5.2.9.5,1.3.3.3.8.5,1.3.5.4,0,.8,0,1.2,0,.3-.1.7-.3,1-.5l.6,1.3c-.4.3-.8.5-1.3.7-.6.2-1.2.3-1.7.2ZM80.4,28.4c-.4,0-.7.2-.9.5-.3.4-.4.8-.4,1.2h2.6v-.2c0-.4,0-.8-.3-1.1-.2-.3-.6-.4-.9-.4h0Z"/>
    <path class="cls-9" d="M21.8,50.4v-1.3l1.2-.2v-7.7l-1.2-.2v-1.3h4.4v1.3l-1.1.2v7.5h3v-1.3h1.7v3h-8Z"/>
    <path class="cls-9" d="M34.5,50.6c-1,0-2-.4-2.7-1.1-.7-.8-1-1.8-1-2.8v-.3c0-1.1.3-2.1,1-2.9.6-.8,1.6-1.2,2.6-1.1.9,0,1.8.3,2.5,1,.6.7.9,1.7.9,2.6v1.2h-4.8c0,.5.2.9.5,1.3.3.3.8.5,1.3.5.4,0,.8,0,1.2-.1.3-.1.7-.3,1-.5l.6,1.3c-.4.3-.8.5-1.3.7-.6.2-1.1.3-1.7.3ZM34.3,44c-.4,0-.7.2-.9.5-.2.3-.4.8-.4,1.2h2.6v-.2c0-.4,0-.8-.3-1.1-.2-.3-.6-.4-.9-.4Z"/>
    <path class="cls-9" d="M43.7,50.4c0-.1-.1-.3-.2-.4,0-.1,0-.3,0-.4-.3.3-.6.5-.9.7-.4.2-.8.3-1.2.3-.7,0-1.3-.2-1.8-.6-.5-.5-.7-1.1-.7-1.7,0-.7.3-1.3.9-1.7.8-.5,1.7-.7,2.6-.6h1.1v-.8c0-.3-.1-.7-.3-.9-.3-.2-.6-.3-1-.3-.2,0-.4,0-.7,0-.2,0-.3.1-.5.2v.8h-1.7v-1.8c.4-.3.9-.5,1.3-.7.5-.2,1.1-.3,1.7-.3.9,0,1.7.2,2.4.7.6.5.9,1.2.9,2v3.6c0,.1,0,.2,0,.3h.7v1.4h-2.4ZM41.8,49c.3,0,.6,0,.9-.2.2-.1.5-.3.6-.5v-1.3h-1.1c-.4,0-.7,0-1,.3-.2.2-.4.5-.3.8,0,.2,0,.5.3.6.2.2.4.3.7.3Z"/>
    <path class="cls-9" d="M47.1,49.1l1-.2v-4.9l-1.1-.2v-1.3h3.1v1.2c.2-.4.5-.7.8-1,.3-.2.6-.4,1-.3h.7c0,0-.2,2-.2,2h-.9c-.3,0-.5,0-.8.2-.2.1-.4.3-.5.5v3.9l1,.2v1.3h-4.2v-1.2Z"/>
    <path class="cls-9" d="M53.1,49.1l1-.2v-4.9l-1.1-.2v-1.3h3.1v1.1c.3-.4.7-.7,1.1-1,.4-.2.8-.3,1.3-.3.7,0,1.4.2,1.9.8.5.7.7,1.5.6,2.4v3.5l1,.2v1.3h-4v-1.3l.9-.2v-3.5c0-.4,0-.8-.3-1.1-.3-.2-.6-.4-1-.3-.3,0-.5,0-.8.2-.2.1-.4.3-.6.5v4.2l.9.2v1.3h-4v-1.3Z"/>
    <path class="cls-9" d="M62.7,49.1l1-.2v-4.9l-1.2-.2v-1.3h3.3v6.4l1,.2v1.3h-4.2v-1.3ZM65.8,40.6h-2.1v-1.6h2.1v1.6Z"/>
    <path class="cls-9" d="M67.4,49.1l1-.2v-4.9l-1.1-.2v-1.3h3.1v1.1c.4-.4.7-.7,1.1-1,.4-.2.8-.3,1.3-.3.7,0,1.4.2,1.9.8.5.7.7,1.5.7,2.4v3.5l1,.2v1.3h-4.1v-1.3l.9-.2v-3.5c0-.4,0-.8-.3-1.1-.3-.2-.6-.4-1-.3-.3,0-.5,0-.8.2-.2.1-.4.3-.6.5v4.2l.9.2v1.3h-4v-1.3Z"/>
    <path class="cls-9" d="M77.1,46.5c0-1.1.2-2.1.8-3,.5-.8,1.4-1.2,2.3-1.2.4,0,.8,0,1.2.3.4.2.7.5.9.8l.2-1h1.9v7.7c0,.9-.3,1.8-1,2.5-.7.7-1.7,1-2.7.9-.4,0-.9,0-1.3-.2-.4-.1-.8-.3-1.2-.5l.4-1.5c.3.1.7.3,1,.3.4,0,.7.1,1.1.1.4,0,.9-.1,1.2-.5.3-.4.4-.9.4-1.3v-.5c-.2.3-.5.5-.8.7-.3.2-.7.2-1.1.2-.9,0-1.7-.4-2.2-1.1-.6-.8-.9-1.8-.8-2.8v-.2ZM79.3,46.7c0,.6,0,1.1.4,1.6.2.4.7.6,1.1.6.3,0,.6,0,.8-.2.2-.1.4-.3.5-.5v-3.4c-.1-.2-.3-.4-.5-.5-.2-.1-.5-.2-.8-.2-.5,0-.9.3-1.1.7-.3.6-.4,1.2-.4,1.8v.2Z"/>
    <rect class="cls-4" x="121.9" y="0" width="107.2" height="107.2" rx="4" ry="4"/>
    <path class="cls-9" d="M148.4,80.7c0-.4,0-.7-.3-1-.2-.3-.5-.5-.8-.7-.3-.2-.7-.4-1-.6-.4-.2-.7-.4-1-.7-.3-.3-.6-.6-.7-.9-.2-.4-.3-.9-.3-1.3,0-.5,0-1,.3-1.5.2-.4.5-.7.9-1,.4-.3.8-.5,1.3-.6.5-.1,1-.2,1.6-.2.6,0,1.1,0,1.7.2.4,0,.8.2,1.2.4l-.6,1.1c-.3-.2-.6-.3-.9-.3-.5-.1-1-.2-1.5-.2-.6,0-1.2.1-1.7.5-.4.3-.7.8-.7,1.4,0,.4,0,.7.3,1,.2.3.5.5.7.7.3.2.7.4,1,.6.4.2.7.4,1,.7.3.3.6.6.8.9.2.4.3.9.3,1.3,0,.9-.4,1.8-1.1,2.4-1,.6-2.1.9-3.2.8-.6,0-1.2,0-1.8-.2-.4,0-.8-.2-1.1-.4l.7-1.2c.3.2.7.3,1,.4.5.1,1,.2,1.5.2.3,0,.7,0,1,0,.3,0,.6-.2.9-.3.3-.1.5-.4.7-.6.2-.3.2-.6.2-.9Z"/>
    <path class="cls-9" d="M151.4,75.5h1.2l.3-1.6,1.3-.4-.4,2h2.1l-.2,1h-2.1l-1,4.9c0,.1,0,.2,0,.3,0,0,0,.2,0,.3,0,.2,0,.4.2.5.2.1.3.2.5.2.2,0,.5,0,.7,0,.2,0,.4-.2.6-.3v1c-.3.1-.6.3-.9.3-.3,0-.7.1-1,.1-1,0-1.5-.4-1.5-1.3,0-.2,0-.4,0-.7l1.1-5.2h-1.2l.2-1.1Z"/>
    <path class="cls-9" d="M161.1,76.6h-.3c0,0-.2,0-.3,0-.5,0-1,.2-1.4.5-.4.3-.7.8-.9,1.3l-1.1,5.3h-1.2l1.7-8h.8v1.4h0c.1-.2.3-.4.4-.6.2-.2.3-.3.5-.5.2-.1.4-.3.6-.3.2,0,.5-.1.7-.1.2,0,.5,0,.7.1l-.3,1Z"/>
    <path class="cls-9" d="M166.8,82.8c-.4.3-.8.6-1.3.7-.5.2-1,.2-1.5.2-.7,0-1.4-.2-1.9-.8-.5-.6-.7-1.3-.7-2.1,0-.8.1-1.6.4-2.4.2-.6.6-1.2,1-1.8.4-.5.8-.8,1.4-1.1.5-.3,1-.4,1.6-.4.3,0,.7,0,1,.2.3,0,.5.2.7.4.2.2.3.4.4.6,0,.2.1.5.1.7,0,.8-.4,1.5-1.1,1.8-1,.5-2.1.7-3.2.7h-.8c0,.2,0,.4-.1.6,0,.2,0,.3,0,.5,0,.5.1,1,.4,1.4.3.4.8.6,1.3.6.4,0,.9,0,1.3-.2.3-.1.6-.3.9-.5l.4.8ZM165.4,76.4c-.6,0-1.1.2-1.5.6-.5.5-.8,1.1-1,1.8h1.3c.4,0,.8,0,1.2-.2.3,0,.6-.2.9-.4.2-.2.4-.5.4-.8,0-.1,0-.2,0-.3,0-.1,0-.2-.2-.3-.1,0-.2-.2-.4-.2-.2,0-.4-.1-.6-.1Z"/>
    <path class="cls-9" d="M174.6,80.4c0,.4-.2.8-.2,1.2,0,.4,0,.8,0,1.1v.5c0,.1,0,.3,0,.4h-.9l-.2-1.4h0c-.1.2-.3.4-.5.6-.2.2-.4.4-.6.5-.2.1-.5.3-.7.4-.3,0-.5.1-.8.1-1.3,0-1.9-.8-1.9-2.5,0-.7,0-1.4.3-2.1.2-.7.4-1.3.8-1.9.4-.6.9-1,1.4-1.4.6-.4,1.4-.6,2.1-.6.4,0,.7,0,1.1.1.4,0,.8.2,1.2.3l-1,4.7ZM171,82.8c.3,0,.5,0,.7-.2.2-.1.5-.3.7-.5.2-.2.4-.4.6-.6.1-.2.3-.4.4-.6l.9-4.3c-.4-.2-.8-.2-1.2-.2-.5,0-.9.1-1.3.4-.4.3-.7.7-.9,1.1-.3.5-.5,1-.6,1.6-.1.6-.2,1.2-.2,1.8,0,.3,0,.7.2,1,.1.3.4.5.8.5Z"/>
    <path class="cls-9" d="M180.7,83.6l1-4.6c0-.4.1-.7.2-1,0-.2,0-.5,0-.8,0-.2,0-.5-.2-.7-.1-.2-.3-.3-.6-.2-.3,0-.5,0-.8.2-.3.1-.5.3-.7.5-.2.2-.4.4-.6.7-.2.2-.3.4-.4.6l-1.1,5.2h-1.2l1.7-8h.9v1.4c0,0,0,0,0,0l.6-.5c.2-.2.4-.4.7-.5.2-.2.5-.3.8-.4.3-.1.6-.2.9-.2.4,0,.8.1,1,.4.2.4.3.8.2,1.2.2-.2.4-.4.6-.6.2-.2.5-.4.7-.5.3-.2.5-.3.8-.4.3,0,.5-.1.8-.2.7,0,1.4.4,1.5,1.2,0,.1,0,.3,0,.4,0,.6,0,1.2-.2,1.8l-1,4.8h-1.2l1-4.8c0-.3.1-.6.2-.8,0-.2,0-.4,0-.7,0-.2,0-.5-.2-.7-.2-.2-.4-.2-.6-.2-.3,0-.5,0-.7.2-.3.2-.5.3-.7.5-.2.2-.4.5-.6.7-.2.2-.3.4-.4.7l-1.1,5.1h-1.2Z"/>
    <path class="cls-9" d="M190.7,75.5h1.2l-1.7,8h-1.2l1.7-8ZM190.9,73.1c0-.2,0-.5.2-.6.2-.2.4-.3.6-.2.5,0,.9.3.9.8,0,0,0,0,0,0,0,.2,0,.5-.2.6-.2.2-.4.3-.6.2-.5,0-.9-.4-.9-.8,0,0,0,0,0,0Z"/>
    <path class="cls-9" d="M197.6,83.6l1.1-5.1c0-.2,0-.4.1-.6,0-.2,0-.3,0-.5,0-.3,0-.5-.2-.8-.2-.2-.5-.3-.8-.3-.3,0-.6,0-.8.2-.3.1-.5.3-.8.5-.2.2-.4.4-.6.7-.2.2-.3.5-.5.7l-1.1,5.1h-1.2l1.7-8h.8v1.4c0,0,0,0,0,0,.1-.2.3-.4.5-.5.2-.2.4-.4.7-.5.3-.2.5-.3.8-.4.3-.1.7-.2,1-.2.5,0,.9.1,1.3.4.4.4.5.9.5,1.3,0,.4,0,.8-.1,1.2l-1.1,5.3h-1.2Z"/>
    <path class="cls-9" d="M206.8,84c-.1.9-.5,1.7-1.2,2.3-.6.5-1.4.8-2.2.7-.6,0-1.2,0-1.7-.3-.3-.1-.7-.3-1-.5l.5-.9.3.2c.1,0,.3.1.4.2.2,0,.4.1.6.2.3,0,.6,0,.9,0,.5,0,1-.2,1.4-.6.4-.5.7-1.1.8-1.8l.3-1.3h0c-.1.2-.3.4-.5.6-.2.2-.4.3-.6.5-.2.1-.5.3-.7.3-.3,0-.5.1-.8.1-.5,0-1.1-.2-1.4-.6-.4-.5-.6-1.1-.5-1.8,0-.7.1-1.4.3-2.1.2-.7.5-1.3.9-1.9.4-.6.9-1,1.4-1.4.6-.4,1.3-.6,2-.5.5,0,1,0,1.5.1.3,0,.7.2,1,.4l-1.7,8.1ZM203.8,82.8c.3,0,.6,0,.8-.2.3-.1.5-.3.7-.5.2-.2.4-.5.6-.7.2-.3.3-.5.4-.7l.8-3.9c-.2-.1-.4-.2-.6-.2-.2,0-.5,0-.8,0-.4,0-.9.1-1.2.4-.4.3-.7.6-1,1-.3.5-.5,1-.6,1.5-.2.6-.2,1.2-.2,1.8,0,.4,0,.8.3,1.2.2.3.5.4.8.4h0Z"/>
    <path class="cls-9" d="M266.6,237.3h-1.7l-.3-1.6c-.3-.2-.6-.3-.9-.3-.4,0-.8-.1-1.2-.1-.5,0-1,.1-1.5.4-.3.2-.5.6-.5,1,0,.4.2.8.5,1,.6.3,1.2.6,1.9.8,1,.2,2,.7,2.9,1.4.7.6,1,1.4,1,2.3,0,.9-.4,1.8-1.2,2.3-.9.6-2,.9-3.1.9-.8,0-1.7-.1-2.5-.4-.7-.3-1.3-.7-1.8-1.2v-2.4h1.8l.2,1.6c.3.2.6.4.9.5.4.1.9.2,1.3.2.5,0,1,0,1.4-.4.3-.2.5-.6.5-1,0-.4-.2-.8-.5-1.1-.5-.4-1-.6-1.6-.8-1.1-.3-2.1-.8-3.1-1.4-.7-.5-1.1-1.4-1-2.2,0-.9.4-1.8,1.2-2.3.9-.6,1.9-.9,3-.9.8,0,1.6.1,2.4.4.7.2,1.3.6,1.8,1.1v2.3Z"/>
    <path class="cls-9" d="M271.8,243.5c.4,0,.7-.1,1-.4.3-.3.4-.6.4-1h2.1c0,.9-.3,1.7-1,2.2-1.6,1.3-4,1.1-5.4-.3-.7-.9-1.1-2-1-3.1v-.2c0-1.1.3-2.2,1.1-3.1.8-.8,1.9-1.3,3-1.2.6,0,1.3,0,1.9.3.5.2,1,.5,1.4.9v2.3h-1.9l-.4-1.3c-.1-.1-.3-.2-.4-.2-.2,0-.4-.1-.6-.1-.6,0-1.1.2-1.4.7-.3.6-.4,1.2-.4,1.8v.3c0,.6,0,1.3.4,1.8.3.5.8.7,1.3.7Z"/>
    <path class="cls-9" d="M281.6,245.1c0-.1-.1-.3-.2-.4,0-.1,0-.3-.1-.4-.3.3-.6.6-1,.8-.4.2-.9.3-1.3.3-.7,0-1.4-.2-2-.7-.5-.5-.8-1.2-.7-1.9,0-.8.4-1.5,1-1.9.9-.5,1.8-.7,2.8-.6h1.2v-.8c0-.4-.1-.7-.4-.9-.3-.2-.7-.4-1-.3-.2,0-.5,0-.7,0-.2,0-.3.1-.5.2v.9h-1.9v-1.9c.4-.3.9-.5,1.4-.7.6-.2,1.2-.3,1.8-.3.9,0,1.8.2,2.6.8.7.5,1,1.4,1,2.2v4.2h.7v1.5h-2.6ZM279.6,243.6c.3,0,.6,0,.9-.2.3-.1.5-.3.7-.6v-1.3h-1.1c-.4,0-.8,0-1.1.3-.2.2-.4.5-.4.8,0,.3,0,.5.3.7.2.2.5.3.8.2h0Z"/>
    <path class="cls-9" d="M284.8,234.2v-1.4h3.5v10.6l1.1.2v1.4h-4.5v-1.4l1.1-.2v-9l-1.3-.2Z"/>
    <path class="cls-9" d="M295.6,245.1c0-.1-.1-.3-.2-.4,0-.1,0-.3-.1-.4-.3.3-.6.6-1,.8-.4.2-.9.3-1.3.3-.7,0-1.4-.2-2-.7-.5-.5-.8-1.2-.7-1.9,0-.8.4-1.5,1-1.9.9-.5,1.8-.7,2.8-.6h1.2v-.8c0-.4-.1-.7-.4-.9-.3-.2-.6-.4-1-.3-.2,0-.5,0-.7,0-.2,0-.3.1-.5.2v.9h-1.9v-1.9c.4-.3.9-.5,1.4-.7.6-.2,1.2-.3,1.8-.3.9,0,1.8.2,2.6.8.7.5,1,1.4,1,2.2v3.9c0,.1,0,.2,0,.3h.7v1.5h-2.7ZM293.6,243.6c.3,0,.6,0,.9-.2.3-.1.5-.3.7-.6v-1.3h-1.2c-.4,0-.8,0-1.1.3-.2.2-.4.5-.4.8,0,.3,0,.5.3.7.2.2.5.3.8.2h0Z"/>
    <path class="cls-9" d="M358,233.7v1.4l-1.2.2v6.4c0,1-.3,2-1.1,2.6-.7.7-1.7,1-2.7,1-1,0-2-.3-2.8-.9-.7-.7-1.1-1.6-1-2.6h0c0,0,2.2,0,2.2,0,0,.5.1,1,.4,1.3.3.3.7.4,1.2.4.4,0,.8-.2,1.1-.5.3-.4.5-.9.5-1.4v-6.4l-1.2-.2v-1.4h4.8Z"/>
    <path class="cls-9" d="M364.1,245.1c0-.1-.1-.3-.2-.4,0-.1,0-.3-.1-.4-.3.3-.6.6-1,.8-.4.2-.9.3-1.3.3-.7,0-1.4-.2-2-.7-.5-.5-.8-1.2-.7-1.9,0-.8.4-1.5,1-1.9.9-.5,1.8-.7,2.8-.6h1.2v-.8c0-.4-.1-.7-.4-.9-.3-.2-.6-.4-1-.3-.2,0-.5,0-.7,0-.2,0-.3.1-.5.2v.9h-1.9v-1.9c.4-.3.9-.5,1.4-.7.6-.2,1.2-.3,1.8-.3.9,0,1.8.2,2.6.8.7.5,1,1.4,1,2.2v4.2h.7v1.5h-2.7ZM362.1,243.6c.3,0,.6,0,.9-.2.3-.1.5-.3.7-.6v-1.3h-1.2c-.4,0-.8,0-1.1.3-.2.2-.4.5-.4.8,0,.3,0,.5.3.7.2.2.5.3.8.2h0Z"/>
    <path class="cls-9" d="M371,238h-.8c0,.1,1.1,3.9,1.1,3.9v.8h.1l.2-.8,1.1-3.8-.8-.2v-1.4h3.9v1.4h-.7c0,.1-2.5,7.1-2.5,7.1h-2.2l-2.5-7h-.7v-1.5h3.9v1.4Z"/>
    <path class="cls-9" d="M381.9,245.1c0-.1-.1-.3-.2-.4,0-.1,0-.3-.1-.4-.3.3-.6.6-1,.8-.4.2-.9.3-1.3.3-.7,0-1.4-.2-2-.7-.5-.5-.8-1.2-.7-1.9,0-.7.3-1.4,1-1.9.9-.5,1.8-.7,2.8-.6h1.2v-.8c0-.4-.1-.7-.4-.9-.3-.2-.6-.4-1-.3-.2,0-.5,0-.7,0-.2,0-.3.1-.5.2v.9h-1.9v-1.9c.5-.3.9-.5,1.5-.7.6-.2,1.2-.3,1.8-.3.9,0,1.8.2,2.6.8.7.5,1,1.4,1,2.2v3.9c0,.1,0,.2,0,.3h.7v1.5h-2.6ZM379.9,243.6c.3,0,.7,0,1-.2.3-.1.5-.3.6-.6v-1.3h-1.2c-.4,0-.8,0-1.1.3-.2.2-.4.5-.4.8,0,.3,0,.5.3.7.2.2.5.3.8.2h0Z"/>
    <path class="cls-9" d="M100.4,233.7c1.1,0,2.2.3,3.1.9.7.6,1.1,1.5,1.1,2.5,0,.5-.1,1.1-.5,1.5-.4.5-.8.8-1.4,1,.6.1,1.1.5,1.5,1,.3.5.5,1.1.4,1.7v.6c0,.2,0,.4.2.6.1.2.3.2.5.2h.3v1.4h-1.2c-.6,0-1.2-.2-1.6-.6-.3-.5-.5-1-.4-1.6v-.7c0-.4-.1-.9-.4-1.2-.3-.3-.8-.5-1.2-.5h-1.9v3l1.2.2v1.4h-4.7v-1.4l1.2-.2v-8.2l-1.2-.2v-1.4h5.1ZM98.8,238.7h1.6c.5,0,1-.1,1.4-.4.3-.3.5-.7.5-1.2,0-.5-.2-.9-.5-1.2-.4-.3-.9-.5-1.4-.5h-1.6v3.3Z"/>
    <path class="cls-9" d="M168.5,233.7c1.1,0,2.2.3,3.1,1,1.5,1.4,1.5,3.7.1,5.2,0,0,0,0-.1.1-.9.7-2,1.1-3.1,1h-1.9v2.5l1.2.2v1.4h-4.8v-1.4l1.2-.2v-8.2l-1.2-.2v-1.4h5.5ZM166.5,239.2h1.9c1,.1,1.8-.6,1.9-1.5,0-.1,0-.2,0-.3,0-.5-.2-1-.5-1.4-.4-.4-.9-.6-1.4-.5h-1.9v3.8Z"/>
    <path class="cls-9" d="M182.4,238h-.8c0,.1-3.1,8.4-3.1,8.4-.2.6-.6,1.1-1,1.5-.5.5-1.2.7-1.9.6-.2,0-.4,0-.6,0h-.6c0-.1.3-1.8.3-1.8h.4c.3,0,.6,0,.9-.3.2-.2.4-.4.5-.7l.3-.6-2.7-7h-.8v-1.5h4.2v1.4l-.9.2,1.2,3.4v.6h.1l1.3-4-.9-.2v-1.4h4.2v1.4Z"/>
    <path class="cls-9" d="M186.5,234.5v2.1h1.5v1.6h-1.5v4.3c0,.3,0,.5.2.7.1.1.3.2.6.2.1,0,.3,0,.4,0h.4c0,0,.2,1.6.2,1.6-.2,0-.5.1-.8.2-.3,0-.5,0-.8,0-.7,0-1.3-.2-1.8-.6-.5-.6-.7-1.3-.6-2.1v-4.3h-1.2v-1.6h1.2v-2.1h2.3Z"/>
    <path class="cls-9" d="M189,243.7l1.1-.2v-9l-1.2-.2v-1.4h3.5v4.8c.3-.4.6-.7,1-.9,1.1-.6,2.5-.4,3.4.6.6.8.8,1.8.8,2.7v3.4l1.1.2v1.4h-4.4v-1.4l1-.2v-3.4c0-.5,0-1-.4-1.4-.3-.3-.6-.4-1-.4-.3,0-.6,0-.8.2-.2.1-.4.3-.6.5v4.6l1,.2v1.4h-4.5v-1.4Z"/>
    <path class="cls-9" d="M199.3,240.8c0-1.1.3-2.2,1.1-3.1,1.6-1.6,4.3-1.6,5.9,0,.7.9,1.1,2,1.1,3.1v.2c0,1.1-.3,2.3-1.1,3.1-1.6,1.6-4.3,1.6-5.9,0-.7-.9-1.1-2-1.1-3.1v-.2ZM201.6,240.9c0,.6.1,1.3.4,1.9.5.7,1.5.9,2.2.4.2-.1.3-.3.4-.4.3-.6.4-1.2.4-1.9v-.2c0-.6-.1-1.3-.4-1.9-.5-.7-1.4-.9-2.1-.5-.2.1-.3.3-.5.5-.3.6-.4,1.2-.4,1.9v.2Z"/>
    <path class="cls-9" d="M208.2,243.7l1.1-.2v-5.3l-1.3-.2v-1.4h3.4v1.2c.4-.4.7-.7,1.1-1,.4-.2.9-.4,1.4-.4.8,0,1.5.3,2,.8.5.7.8,1.6.7,2.5v3.7l1.1.2v1.4h-4.4v-1.4l1-.2v-3.7c0-.4,0-.9-.4-1.2-.3-.2-.6-.4-1-.4-.3,0-.6,0-.8.2-.2.1-.4.3-.6.5v4.6l.9.2v1.4h-4.3v-1.4Z"/>
    <path class="cls-9" d="M150,30.2h-3.6v3h3.4v-1.3h1.7v2.9h-8.4v-1.2l1.1-.2v-7.7l-1.1-.2v-1.3h8.4v2.9h-1.6v-1.3h-3.5v2.7h3.6v1.6Z"/>
    <path class="cls-9" d="M156.3,33.4c.3,0,.7-.1.9-.3.2-.2.4-.6.3-.9h1.9c0,.8-.3,1.5-.9,2-1.5,1.2-3.7,1.1-5.1-.3-.7-.8-1-1.8-1-2.9v-.2c0-1,.3-2.1,1-2.9.7-.8,1.8-1.2,2.8-1.1.6,0,1.2,0,1.7.3.5.2.9.4,1.3.8v2.1h-1.7l-.4-1.2c-.1-.1-.3-.2-.4-.2-.2,0-.3,0-.5,0-.5,0-1,.2-1.3.6-.3.5-.4,1.1-.4,1.7v.3c0,.6,0,1.2.4,1.7.2.5.7.7,1.3.7Z"/>
    <path class="cls-9" d="M160.4,33.6l1-.2v-8.4l-1.1-.2v-1.3h3.3v4.6c.2-.4.5-.7.9-.9,1-.5,2.3-.3,3.1.5.5.7.8,1.6.7,2.5v3.2l1,.2v1.3h-4.1v-1.3l.9-.2v-3.2c0-.5,0-.9-.3-1.3-.3-.3-.6-.4-1-.4-.3,0-.5,0-.8.2-.2.1-.4.3-.6.5v4.3l.9.2v1.3h-4.1v-1.3Z"/>
    <path class="cls-9" d="M173.2,25v1.9h1.4v1.5h-1.4v4c0,.2,0,.5.2.7.1.1.3.2.5.2h.8c0,0,.2,1.5.2,1.5-.2,0-.5.1-.7.2-.3,0-.5,0-.8,0-.6,0-1.2-.2-1.7-.6-.4-.5-.7-1.2-.6-1.9v-4h-1.2v-1.5h1.1v-1.9h2.2Z"/>
    <path class="cls-9" d="M178.4,33.2h2.2v-1.1h1.7v2.7h-6.6v-1.3l3.8-5h-1.9v1h-1.7v-2.7h6.3v1.2l-3.8,5.1Z"/>
    <path class="cls-9" d="M187.1,35c-1,0-2-.4-2.7-1.1-.7-.8-1-1.8-1-2.8v-.3c0-1.1.3-2.1,1-2.9,1.4-1.4,3.6-1.5,5.1-.2.6.7.9,1.7.9,2.6v1.2h-4.7c0,.5.2.9.5,1.3.3.3.8.5,1.3.5.4,0,.8,0,1.2-.1.3-.1.7-.3,1-.5l.6,1.3c-.4.3-.8.5-1.3.7-.6.2-1.2.3-1.8.3ZM186.9,28.4c-.4,0-.7.2-.9.5-.2.3-.4.8-.4,1.2h2.6v-.2c0-.4,0-.8-.3-1.1-.2-.3-.6-.4-.9-.4h0Z"/>
    <path class="cls-9" d="M191.2,33.6l1-.2v-4.9l-1.1-.2v-1.3h3.3v6.4l1,.2v1.3h-4.2v-1.3ZM194.4,25h-2.1v-1.6h2.1v1.6Z"/>
    <path class="cls-9" d="M199.3,25v1.9h1.4v1.5h-1.4v4c0,.2,0,.5.2.7.1.1.3.2.5.2h.8c0,0,.2,1.5.2,1.5-.2,0-.5.1-.7.2-.3,0-.5,0-.8,0-.6,0-1.2-.2-1.7-.6-.4-.5-.7-1.2-.6-1.9v-4h-1.2v-1.5h1.2v-1.9h2.1Z"/>
    <path class="cls-9" d="M206.4,31.1h-4.1v-1.6h4.1v1.6Z"/>
    <path class="cls-9" d="M141.6,49.1h.8c0-.1,3.2-9.4,3.2-9.4h2.2l3.2,9.3h.8v1.4h-3.7v-1.3h.7c0-.1-.5-1.6-.5-1.6h-3.5l-.5,1.5h.7v1.4h-3.6v-1.3ZM145.4,46h2.4l-1.2-3.8h0l-1.2,3.8Z"/>
    <path class="cls-9" d="M152.4,49.1l1-.2v-4.9l-1.1-.2v-1.3h3.1v1.1c.3-.4.7-.7,1.1-1,.4-.2.8-.3,1.3-.3.7,0,1.4.2,1.9.8.5.7.7,1.5.7,2.4v3.5l1,.2v1.3h-4.1v-1.3l.9-.2v-3.5c0-.4,0-.8-.3-1.1-.3-.2-.6-.4-1-.3-.3,0-.5,0-.8.2-.2.1-.4.3-.6.5v4.2l.9.2v1.3h-4v-1.3Z"/>
    <path class="cls-9" d="M167.1,50.4c0-.1-.1-.3-.1-.4,0-.1,0-.3-.1-.4-.3.3-.6.5-.9.7-.4.2-.8.3-1.2.3-.7,0-1.3-.2-1.9-.6-.5-.5-.7-1.1-.7-1.7,0-.7.3-1.3.9-1.7.8-.5,1.7-.7,2.6-.6h1.1v-.8c0-.3-.1-.7-.3-.9-.3-.2-.6-.3-1-.3-.2,0-.4,0-.6,0-.2,0-.3.1-.5.2v.8h-1.8v-1.8c.4-.3.9-.5,1.4-.7.5-.2,1.1-.3,1.6-.3.9,0,1.7.2,2.4.7.6.5.9,1.2.9,2v3.6c0,.1,0,.2,0,.3h.6v1.4h-2.4ZM165.2,49c.3,0,.6,0,.9-.2.2-.1.5-.3.6-.5v-1.3h-1.1c-.4,0-.7,0-1,.3-.2.2-.4.5-.4.8,0,.2,0,.5.3.6.2.2.4.3.7.3Z"/>
    <path class="cls-9" d="M170,40.3v-1.3h3.3v9.9l1,.2v1.3h-4.2v-1.3l1-.2v-8.4l-1.1-.2Z"/>
    <path class="cls-9" d="M183.2,43.8h-.7c0,.1-2.9,7.8-2.9,7.8-.2.5-.5,1-.9,1.4-.5.4-1.1.6-1.7.6-.2,0-.3,0-.5,0h-.6c0-.1.2-1.7.2-1.7h.4c.3,0,.6,0,.8-.3.2-.2.3-.4.4-.7l.2-.6-2.5-6.5h-.7v-1.4h3.9v1.3l-.9.2,1.1,3.2v.6h.1l1.2-3.7-.9-.2v-1.3h3.9v1.3Z"/>
    <path class="cls-9" d="M190.4,45.2h-1.4l-.2-1c-.2-.1-.4-.2-.6-.3-.2,0-.5-.1-.7-.1-.3,0-.6,0-.9.2-.2.1-.3.4-.3.6,0,.2.1.5.3.6.4.2.8.4,1.3.4.8.1,1.5.4,2.2.9.5.4.7,1,.7,1.6,0,.7-.3,1.4-.9,1.7-.7.5-1.6.7-2.4.7-.6,0-1.1,0-1.7-.3-.5-.2-1-.4-1.4-.8v-1.8h1.5l.3,1c.2.1.3.2.5.2.2,0,.5,0,.7,0,.3,0,.7,0,1-.2.3-.2.4-.7.2-1,0,0-.1-.2-.2-.2-.4-.2-.8-.4-1.3-.5-.8-.1-1.5-.4-2.1-.8-.5-.4-.7-.9-.7-1.5,0-.7.3-1.3.8-1.7.7-.5,1.5-.8,2.3-.7.6,0,1.2,0,1.8.2.5.1.9.3,1.3.6v2Z"/>
    <path class="cls-9" d="M195.4,50.6c-1,0-2-.4-2.7-1.1-.7-.8-1-1.8-1-2.8v-.3c0-1.1.3-2.1,1-2.9,1.4-1.5,3.6-1.5,5.1-.2,0,0,0,0,0,0,.6.7.9,1.7.9,2.6v1.2h-4.7c0,.5.2.9.5,1.3.3.3.8.5,1.3.5.4,0,.8,0,1.2-.1.3-.1.7-.3,1-.5l.6,1.3c-.4.3-.8.5-1.3.7-.6.2-1.2.3-1.8.3ZM195.2,44c-.4,0-.7.2-.9.5-.2.3-.4.8-.4,1.2h2.6v-.2c0-.4,0-.8-.3-1.1-.2-.3-.6-.4-.9-.4Z"/>
    <path class="cls-9" d="M199.5,49.1l1-.2v-4.9l-1.1-.2v-1.3h3.1v1.1c.3-.4.7-.7,1.1-1,.4-.2.8-.3,1.3-.3.7,0,1.4.2,1.9.8.5.7.7,1.5.7,2.4v3.5l1,.2v1.3h-4.1v-1.3l.9-.2v-3.5c0-.4,0-.8-.3-1.1-.3-.2-.6-.4-1-.3-.3,0-.5,0-.8.2-.2.1-.4.3-.6.5v4.2l.9.2v1.3h-4v-1.3Z"/>
    <path class="cls-2" d="M246.9,192c0-.1-.1-.2-.1-.3-1-1.9-2-3.8-3-5.6-.1-.1,0-.3,0-.5,1.6-1.8,3.1-3.7,4.7-5.5,0,0,.1-.2.1-.2l-1.4.4c-1.9.5-3.8,1-5.7,1.5-.1,0-.3,0-.3-.1,0,0,0,0,0,0-1.1-1.8-2.2-3.6-3.2-5.4,0-.1-.1-.2-.2-.3,0,.5-.2.9-.3,1.4-.3,1.7-.6,3.4-.9,5.1,0,.2,0,.4-.1.6,0,.2-.1.2-.3.3l-6.7,2.1c-.1,0-.2,0-.3.2l5.5,2.2h-.2c0,.1-3.4,2.3-3.4,2.3-.1,0-.3,0-.4,0-1.4-.6-2.8-1.2-4.1-1.8-.6-.3-1.2-.7-1.6-1.2-.8-.8-.8-2.2,0-3,.1-.1.3-.3.5-.4.4-.3.9-.5,1.4-.6,2.2-.7,4.4-1.4,6.6-2.1.2,0,.3-.2.3-.3.3-1.7.6-3.4.9-5.1,0-.9.3-1.8.7-2.7.2-.3.4-.6.6-.9.7-.8,2-1,2.8-.3,0,0,.1.1.2.2.3.3.6.7.8,1.1,1,1.7,2,3.3,3,5,0,.2.3.3.4.2,0,0,0,0,0,0l7.4-2c.5-.1,1-.2,1.5,0,.8,0,1.5.8,1.4,1.6,0,.2,0,.4-.1.5-.2.5-.5.9-.8,1.3l-5.1,6c-.1.1-.2.3,0,.5,1,1.9,2,3.9,3.1,5.8.3.4.4,1,.4,1.5,0,1.2-.9,2.2-2.1,2.4-.7,0-1.3,0-1.9-.2l-4.6-1.4c-.1,0-.2-.1-.2-.3-.2-1.1-.4-2.2-.6-3.2h0c0-.1,5.4,1.5,5.4,1.5"/>
    <path class="cls-8" d="M243.9,207.9h-4.2c-.2,0-.3,0-.4-.2-1.6-2.5-3.3-5-4.9-7.5l-.2-.3c-.4,2.7-.7,5.3-1,8h-3.6c0-.4,0-.7.1-1,.4-2.7.7-5.4,1.1-8.1l1-7.8c0,0,0-.2.1-.2l3.8-2.4h.1c-.4,2.9-.8,5.8-1.1,8.6h0c2-2.2,3.9-4.4,5.9-6.6,0,.3.1.6.2.9.1.8.3,1.6.4,2.5,0,.1,0,.3-.1.4l-3.8,4c0,0-.1.1-.2.2v.2c.1,0,6.7,9.2,6.7,9.2,0,0,0,0,.1.1h0"/>
    <path class="cls-8" d="M201,199.7c0-.4-.1-.7-.2-1.1-.6-1.9-2.6-2.9-4.5-2.4-2.2.4-3.8,2.3-4,4.5-.2,1.7.8,3.3,2.4,3.8,1.3.5,2.7.3,3.8-.4,1.6-.9,2.5-2.5,2.5-4.3h0ZM191.4,206.7c-.1.8-.2,1.6-.3,2.3-.1,1-.3,2-.4,3,0,.1,0,.2-.2.2h-3.1c0-.5.1-.9.2-1.4l.7-5c.3-1.9.5-3.8.8-5.7.7-3.5,3.4-6.2,6.8-7,1.9-.5,3.9-.2,5.5.9,1.6,1,2.7,2.7,2.9,4.7.3,2.7-.7,5.3-2.7,7.1-1.3,1.3-2.9,2.1-4.7,2.4-1.8.3-3.7,0-5.2-1.1h-.2"/>
    <path class="cls-8" d="M189.7,190.7l-3.3,2.4c-.2-.3-.3-.6-.5-.8-.4-.7-1.1-1.1-1.9-1.2-.7,0-1.3.2-1.8.7-.4.4-.5,1.2,0,1.6.4.6.9,1.1,1.4,1.7.8.9,1.7,1.8,2.5,2.6.8.8,1.3,1.8,1.5,2.9.2,1.3,0,2.6-.7,3.7-1.7,3-5.2,4.5-8.5,3.6-1.3-.4-2.4-1.3-2.9-2.6-.2-.4-.4-.9-.6-1.4l3.6-1.9c0,0,0,.2.1.3.2.4.4.8.6,1.2.7,1.1,2,1.5,3.1.9.3-.1.6-.3.9-.6.8-.6.9-1.7.4-2.5-.4-.5-.7-1-1.2-1.4-1-1.1-2-2.1-2.9-3.2-.7-.7-1.1-1.7-1.2-2.6-.2-1.1,0-2.2.6-3.1,1.3-2.2,3.7-3.6,6.2-3.4,1.5,0,2.9.8,3.8,2,.3.4.6.7.9,1.1"/>
    <path class="cls-8" d="M216.2,203c-.2,1.4-.4,2.7-.5,4,0,0,0,.1-.1.2-2.8,1.5-6.3.9-8.5-1.4-1.1-1.3-1.7-3-1.6-4.8.3-4.2,3.5-7.7,7.7-8.3,2.3-.4,4.6.5,6.1,2.2,1.1,1.2,1.6,2.8,1.5,4.5,0,1.1-.2,2.2-.4,3.3-.2,1.6-.4,3.1-.6,4.7v.2h-3.3c0-.4,0-.7.1-1.1.2-1.8.5-3.6.7-5.4.2-1.1,0-2.3-.5-3.3-.5-1-1.5-1.7-2.7-1.8-2.5-.3-4.8,1.4-5.4,3.9-.4,1.5.2,3.1,1.5,4,1.2.8,2.7.9,4,.3.7-.3,1.3-.7,1.8-1.3"/>
    <path class="cls-8" d="M229.9,193.2c-.1,1.1-.3,2.2-.4,3.4h-2c-.5,0-1,.3-1.2.9,0,.2,0,.4-.1.6-.3,2.6-.7,5.1-1,7.7,0,.6-.2,1.3-.2,2h-3.4c0-.5.1-1,.2-1.5.2-1.7.4-3.4.7-5,.2-1.4.4-2.9.6-4.3.4-2,2.1-3.5,4.2-3.7h2.8"/>
    <path class="cls-9" d="M247.9,207.9v-1.4h0l-.6,1.4h-.2l-.6-1.4h0v1.4h-.3v-1.7h.4l.5,1.3.5-1.3h.4v1.7h-.3ZM245.5,206.4v1.5h-.3v-1.5h-.5v-.2h1.3v.2h-.5"/>
    <path class="cls-9" d="M194.2,188.3h.8l-.2-1.3-.6,1.3ZM195.2,189.2h-1.4l-.4.9h-1l2.2-4.1h1l.7,4.1h-.9v-.9"/>
    <path class="cls-9" d="M200.1,186.8h-.5l-.2.9h.5c.3,0,.5-.2.5-.5,0,0,0,0,0,0,0-.2-.1-.4-.3-.4,0,0,0,0,0,0h0ZM198.9,186h1.3c.6,0,1.1.4,1.2,1,0,0,0,0,0,.1,0,.8-.6,1.4-1.3,1.5,0,0-.1,0-.2,0h-.6l-.3,1.5h-.9l.7-4.1"/>
    <path class="cls-9" d="M204.3,188.3h.8l-.2-1.3-.6,1.3ZM205.3,189.2h-1.4l-.4.9h-1l2.2-4.1h.9l.7,4.1h-.9v-.9"/>
    <path class="cls-9" d="M210.6,189.9c-.3.1-.6.2-.9.2-.9,0-1.7-.7-1.8-1.7,0,0,0-.1,0-.2,0-1.3,1.1-2.4,2.4-2.4.3,0,.6,0,.9.2v1c-.3-.2-.6-.3-.9-.3-.8,0-1.4.7-1.4,1.4,0,.6.4,1,.9,1,0,0,0,0,0,0,.3,0,.7-.1.9-.3v1"/>
    <path class="cls-9" d="M216,188.4h-1.8l-.3,1.6h-.9l.7-4.1h.9l-.3,1.6h1.8l.3-1.6h.9l-.7,4.1h-.9l.3-1.6"/>
    <path class="cls-9" d="M219,190l.7-4.1h2.3v.8h-1.5v.8c-.1,0,1.1,0,1.1,0v.8h-1.4v.8c-.1,0,1.3,0,1.3,0v.8h-2.4"/>
    <path class="cls-13" d="M228.4,140.5c5-4.9,13-4.8,17.9.2,4.9,5,4.8,13-.2,17.9-5,4.9-13,4.8-17.9-.2-2.3-2.4-3.6-5.6-3.6-8.9,0-2.8.9-5.5,2.6-7.6"/>
    <path class="cls-12" d="M236.9,155.6h-4.6c-.6,0-.9-.2-.9-.9v-7c0-.6.2-.9.9-.9h9.1c.6,0,.8.2.8.8v7c0,.6-.2.8-.8.8-1.5.1-3,0-4.5,0Z"/>
    <path class="cls-12" d="M232.2,146.3c0-1.9,1.1-3.7,2.8-4.4,2.3-1,5,0,6,2.3.1.2.2.5.3.8.1.4.1.8.2,1.3"/>
    <path class="cls-3" d="M236.2,152.6h0v.9c0,.2,0,.2.3.2h.9c.2,0,.3,0,.3-.3v-1.7c0-.2,0-.3.2-.4.6-.3.8-.9.7-1.6-.3-.6-.9-1-1.6-1-.7,0-1.4.3-1.7.9-.3.6,0,1.3.6,1.6.2,0,.3.3.3.5,0,.2,0,.5,0,.7Z"/>
    <line class="cls-11" x1="53.8" y1="118.4" x2="53.8" y2="166.4"/>
    <polygon class="cls-3" points="42.4 157.1 44.4 155.2 53.8 165.4 63.2 155.2 65.3 157.1 53.8 169.5 42.4 157.1"/>
    <line class="cls-11" x1="175" y1="118.4" x2="175" y2="166.4"/>
    <polygon class="cls-3" points="163.5 157.1 165.6 155.2 175 165.4 184.4 155.2 186.4 157.1 175 169.5 163.5 157.1"/>
    <line class="cls-11" x1="298.8" y1="118.4" x2="298.8" y2="166.4"/>
    <polygon class="cls-3" points="287.4 157.1 289.4 155.2 298.8 165.4 308.2 155.2 310.3 157.1 298.8 169.5 287.4 157.1"/>
    <line class="cls-11" x1="419.5" y1="118.4" x2="419.5" y2="166.4"/>
    <polygon class="cls-3" points="408 157.1 410 155.2 419.5 165.4 428.9 155.2 430.9 157.1 419.5 169.5 408 157.1"/>
  </g>
</svg>