<svg xmlns="http://www.w3.org/2000/svg" xmlns:xlink="http://www.w3.org/1999/xlink" viewBox="0 0 473.87 265.53"><defs><style>.cls-1{fill:url(#Unbenannter_Verlauf_5);}.cls-2{fill:url(#Unbenannter_Verlauf_5-2);}.cls-10,.cls-3,.cls-9{fill:#fff;}.cls-4{fill:url(#Unbenannter_Verlauf_5-3);}.cls-5{fill:url(#Unbenannter_Verlauf_5-4);}.cls-6{fill:#39f;opacity:0.2;}.cls-7{fill:url(#Unbenannter_Verlauf_5-5);}.cls-8{fill:#e25a1c;}.cls-8,.cls-9{fill-rule:evenodd;}.cls-10,.cls-11,.cls-13{stroke:#fc0;}.cls-10,.cls-11{stroke-linecap:round;stroke-linejoin:round;stroke-width:2px;}.cls-11,.cls-13,.cls-14{fill:none;}.cls-12{fill:#fc0;}.cls-13{stroke-miterlimit:10;stroke-width:4px;}</style><linearGradient id="Unbenannter_Verlauf_5" x1="1.27" y1="207.17" x2="473.04" y2="207.17" gradientUnits="userSpaceOnUse"><stop offset="0" stop-color="#981869"/><stop offset="0.19" stop-color="#771c65"/><stop offset="0.4" stop-color="#591f62"/><stop offset="0.61" stop-color="#432260"/><stop offset="0.81" stop-color="#36235e"/><stop offset="1" stop-color="#32245e"/></linearGradient><linearGradient id="Unbenannter_Verlauf_5-2" x1="244.12" y1="53.58" x2="351.34" y2="53.58" xlink:href="#Unbenannter_Verlauf_5"/><linearGradient id="Unbenannter_Verlauf_5-3" x1="365.82" y1="53.58" x2="473.04" y2="53.58" xlink:href="#Unbenannter_Verlauf_5"/><linearGradient id="Unbenannter_Verlauf_5-4" x1="0.19" y1="53.58" x2="107.41" y2="53.58" xlink:href="#Unbenannter_Verlauf_5"/><linearGradient id="Unbenannter_Verlauf_5-5" x1="121.89" y1="53.58" x2="229.11" y2="53.58" xlink:href="#Unbenannter_Verlauf_5"/></defs><g id="Lock"><rect class="cls-1" x="1.27" y="149.01" width="471.77" height="116.33" rx="4"/><rect class="cls-2" x="244.12" y="-0.03" width="107.22" height="107.22" rx="4"/><path class="cls-3" d="M289.51,86.69a1.59,1.59,0,0,0-.3-1,3.48,3.48,0,0,0-.75-.73,10.18,10.18,0,0,0-1-.64,5.69,5.69,0,0,1-1-.71,3.29,3.29,0,0,1-.74-.95,2.75,2.75,0,0,1-.3-1.35,3.15,3.15,0,0,1,.31-1.46,2.75,2.75,0,0,1,.85-1,3.67,3.67,0,0,1,1.27-.56,6.54,6.54,0,0,1,1.56-.18,8.42,8.42,0,0,1,1.67.15,4.06,4.06,0,0,1,1.16.37l-.65,1.14a4.16,4.16,0,0,0-.95-.34,6,6,0,0,0-1.47-.16,2.88,2.88,0,0,0-1.73.48,1.61,1.61,0,0,0-.67,1.4,1.68,1.68,0,0,0,.3,1,3.25,3.25,0,0,0,.74.74,10.32,10.32,0,0,0,1,.63,6.85,6.85,0,0,1,1,.7,3.46,3.46,0,0,1,.75.94,2.76,2.76,0,0,1,.3,1.34,2.82,2.82,0,0,1-1.13,2.4,5.26,5.26,0,0,1-3.23.85,7.91,7.91,0,0,1-1.83-.19,4.32,4.32,0,0,1-1.13-.41L284.2,88a5.64,5.64,0,0,0,1,.41,5.21,5.21,0,0,0,1.51.2,5.52,5.52,0,0,0,1-.09,2.73,2.73,0,0,0,.9-.31,1.9,1.9,0,0,0,.66-.6A1.69,1.69,0,0,0,289.51,86.69Z"/><path class="cls-3" d="M292.53,85.47a9.66,9.66,0,0,1,.4-2.82,7.52,7.52,0,0,1,1.15-2.34,5.68,5.68,0,0,1,1.8-1.59,4.73,4.73,0,0,1,2.34-.59,4.13,4.13,0,0,1,1.43.24,2.78,2.78,0,0,1,1.14.74,3.51,3.51,0,0,1,.74,1.31,6.51,6.51,0,0,1,.26,2,9.77,9.77,0,0,1-.4,2.85,7.83,7.83,0,0,1-1.13,2.36,5.56,5.56,0,0,1-1.72,1.6,4.34,4.34,0,0,1-2.22.59,3.53,3.53,0,0,1-2.84-1.11A4.78,4.78,0,0,1,292.53,85.47Zm1.35,0a3.79,3.79,0,0,0,.63,2.34,2.18,2.18,0,0,0,1.85.83,2.94,2.94,0,0,0,1.65-.5,4.64,4.64,0,0,0,1.29-1.35,6.83,6.83,0,0,0,.84-2,9.18,9.18,0,0,0,.3-2.38,4.77,4.77,0,0,0-.21-1.54,2.45,2.45,0,0,0-.55-1,1.92,1.92,0,0,0-.79-.48,3,3,0,0,0-.89-.14,3,3,0,0,0-1.68.51A4.44,4.44,0,0,0,295,81.16a6.93,6.93,0,0,0-.84,2A8.49,8.49,0,0,0,293.88,85.45Zm7.69,6.88a4.39,4.39,0,0,1-.75.16c-.24,0-.48,0-.72,0a6.28,6.28,0,0,1-1.46-.17c-.46-.11-.9-.24-1.33-.36l-1.22-.37a4.2,4.2,0,0,0-1.15-.16h-.36a1.53,1.53,0,0,0-.36.07l.24-1.18a4.19,4.19,0,0,1,.85-.1,4.64,4.64,0,0,1,1.24.17l1.21.37c.42.12.84.25,1.28.36a5.82,5.82,0,0,0,1.42.17,6.54,6.54,0,0,0,1.36-.16Z"/><path class="cls-3" d="M308.84,89.58H302.5l2.38-11.25h1.29L304,88.39h5.05Z"/><path class="cls-3" d="M254.82,18.14v1.21l-1.06.2v4.61h0l4-4.06v-.56l-1.06-.2V18.14h4.12v1.21l-1.06.2V26.7l1.06.2v1.2h-4.12V26.9l1.06-.2V22.2l0,0-4,4.08v.44l1.06.2v1.2H250.7V26.9l1.07-.2V19.55l-1.07-.2V18.14h4.12Z"/><path class="cls-3" d="M261.78,21.9V20.7h3.92v1.2l-.86.21V23.7h2.43V22.11l-.85-.21V20.7h3.91v1.2l-1.06.21V26.7l1.06.2v1.2h-3.91V26.9l.85-.2V25.23h-2.43V26.7l.86.2v1.2h-3.92V26.9l1.07-.2V22.11Z"/><path class="cls-3" d="M279,20.7v2.52h-1.53l-.08-1H276.1V26.7l1.06.2v1.2H273V26.9l1.06-.2V22.23h-1.23l-.08,1h-1.53V20.7Z"/><path class="cls-3" d="M282.91,28.24a3.34,3.34,0,0,1-2.56-1,3.69,3.69,0,0,1-1-2.61v-.27a4,4,0,0,1,.91-2.72,3.36,3.36,0,0,1,4.75-.15,3.47,3.47,0,0,1,.83,2.44V25h-4.42V25a2,2,0,0,0,.49,1.2,1.54,1.54,0,0,0,1.18.47,4.19,4.19,0,0,0,1.1-.13,5.4,5.4,0,0,0,1-.42l.54,1.23a4.27,4.27,0,0,1-1.19.61A5.2,5.2,0,0,1,282.91,28.24Zm-.18-6.14a1,1,0,0,0-.88.43,2.22,2.22,0,0,0-.39,1.11l0,0h2.44V23.5a1.67,1.67,0,0,0-.29-1A1.09,1.09,0,0,0,282.73,22.1Z"/><path class="cls-3" d="M286.67,21.9V20.7h2.9l.1.86a2.49,2.49,0,0,1,.78-.74,2.17,2.17,0,0,1,1.07-.26,2.45,2.45,0,0,1,2.13,1.08,4.73,4.73,0,0,1,.76,2.82v.14a4.2,4.2,0,0,1-.76,2.64,2.49,2.49,0,0,1-2.12,1,2.4,2.4,0,0,1-1-.21,2.15,2.15,0,0,1-.77-.64v2.14l1,.21v1.2h-3.92v-1.2l1-.21V22.11Zm5.74,2.56a3.57,3.57,0,0,0-.34-1.69,1.14,1.14,0,0,0-1.07-.65,1.54,1.54,0,0,0-.77.18,1.28,1.28,0,0,0-.5.53v3.24a1.22,1.22,0,0,0,.5.48,1.67,1.67,0,0,0,.78.16,1.16,1.16,0,0,0,1.07-.57,3.06,3.06,0,0,0,.33-1.54Z"/><path class="cls-3" d="M300,28.1a2.92,2.92,0,0,1-.14-.38,1.86,1.86,0,0,1-.1-.39,3,3,0,0,1-.86.66,2.58,2.58,0,0,1-1.17.25,2.47,2.47,0,0,1-1.73-.59,2.1,2.1,0,0,1-.64-1.61,1.84,1.84,0,0,1,.84-1.61,4.42,4.42,0,0,1,2.45-.56h1v-.73a1.13,1.13,0,0,0-.3-.83,1.31,1.31,0,0,0-.91-.29,2.25,2.25,0,0,0-.61.08,1.32,1.32,0,0,0-.43.19l-.13.79h-1.51V21.44a5.48,5.48,0,0,1,1.26-.62,4.48,4.48,0,0,1,1.54-.26,3.51,3.51,0,0,1,2.23.68,2.31,2.31,0,0,1,.86,1.92v3.37a2.64,2.64,0,0,0,0,.29l.61.08v1.2Zm-1.73-1.34a1.74,1.74,0,0,0,.82-.19,1.46,1.46,0,0,0,.57-.49V25h-1a1.39,1.39,0,0,0-1,.3.93.93,0,0,0-.33.71.71.71,0,0,0,.25.59A1,1,0,0,0,298.28,26.76Z"/><path class="cls-3" d="M303.18,21.9V20.7h4v1.2l-.91.21v1.41h.68L308,21.88a3.65,3.65,0,0,1,.87-1,1.92,1.92,0,0,1,1.14-.33,2,2,0,0,1,.62.1,3.33,3.33,0,0,1,.54.26l-.34,1.38-.25-.07h-.19a.72.72,0,0,0-.43.16,1.35,1.35,0,0,0-.4.39l-.95,1.4,1.71,2.55,1,.16v1.2h-2.74L307,25.33h-.76V26.7l.91.2v1.2h-4V26.9l1.07-.2V22.11Z"/><path class="cls-3" d="M319.75,20.7v2.52h-1.53l-.08-1h-1.27V26.7l1.06.2v1.2h-4.12V26.9l1.06-.2V22.23h-1.24l-.07,1H312V20.7Z"/><path class="cls-3" d="M324.75,20.7v1.2l-1,.21v3.08h0l2.41-4.5h3.05v1.2l-1.06.21V26.7l1.06.2v1.2h-4V26.9l1-.2V23.6h0l-2.41,4.51h-3.06V26.9l1.07-.2V22.11l-1.07-.21V20.7h4Z"/><path class="cls-3" d="M334.61,20.7a4.26,4.26,0,0,1,2.3.52,1.72,1.72,0,0,1,.83,1.55,1.39,1.39,0,0,1-.35.92,2.14,2.14,0,0,1-1,.61,2.37,2.37,0,0,1,1.28.62,1.55,1.55,0,0,1,.43,1.07,1.77,1.77,0,0,1-.78,1.57,4,4,0,0,1-2.25.54h-4.63V26.9l1.06-.2V22.11l-1.06-.21V20.7h4.15Zm-1.1,3h1.21a1.38,1.38,0,0,0,.77-.19.6.6,0,0,0,.25-.53.67.67,0,0,0-.28-.59,1.6,1.6,0,0,0-.85-.18h-1.1Zm0,1.29v1.57h1.58a1.36,1.36,0,0,0,.78-.19.7.7,0,0,0,.25-.58.73.73,0,0,0-.24-.59,1.19,1.19,0,0,0-.79-.21Z"/><path class="cls-3" d="M343.34,24.61h-3.85V23.07h3.85Z"/><path class="cls-3" d="M250.85,37.45v-1.2h3.92v1.2l-.86.21v1.58h2.43V37.66l-.85-.21v-1.2h3.91v1.2l-1.06.21v4.58l1.06.21v1.19h-3.91V42.45l.85-.21V40.77h-2.43v1.47l.86.21v1.19h-3.92V42.45l1.07-.21V37.66Z"/><path class="cls-3" d="M263.63,36.25v2.38H265a3.69,3.69,0,0,1,2.35.68,2.15,2.15,0,0,1,.85,1.79,2.27,2.27,0,0,1-.85,1.85,3.65,3.65,0,0,1-2.35.69h-4.45V42.45l1.06-.21V37.66l-1.06-.21v-1.2h3.06Zm1.06,0v1.2l-1.06.21V36.25Zm-1.06,3.83v2H265a1.27,1.27,0,0,0,.91-.28.92.92,0,0,0,.3-.72,1,1,0,0,0-.29-.76,1.3,1.3,0,0,0-.92-.28Zm4.61-2.63v-1.2h3.06v6l1,.21v1.19h-3.91V42.45l1-.21V37.66Z"/><path class="cls-3" d="M276.39,43.79a3.32,3.32,0,0,1-2.56-1,3.68,3.68,0,0,1-.95-2.6v-.28a4.07,4.07,0,0,1,.9-2.71,3,3,0,0,1,2.43-1.06,3,3,0,0,1,2.33.9,3.5,3.5,0,0,1,.82,2.44v1.09H275l0,0a2,2,0,0,0,.49,1.21,1.55,1.55,0,0,0,1.18.47,3.73,3.73,0,0,0,1.1-.14,5.11,5.11,0,0,0,1-.42l.54,1.23a3.9,3.9,0,0,1-1.19.61A4.83,4.83,0,0,1,276.39,43.79Zm-.18-6.14a1,1,0,0,0-.87.42,2.2,2.2,0,0,0-.4,1.12l0,0h2.45V39a1.58,1.58,0,0,0-.3-1A1.09,1.09,0,0,0,276.21,37.65Z"/><path class="cls-3" d="M286.93,39.23a1.12,1.12,0,0,0,.75-.21.78.78,0,0,0,.24-.61.88.88,0,0,0-.23-.6,1,1,0,0,0-.75-.24,1.25,1.25,0,0,0-.78.22.68.68,0,0,0-.3.58h-1.94v0a1.77,1.77,0,0,1,.81-1.6,3.5,3.5,0,0,1,2.12-.61,4,4,0,0,1,2.24.56,1.81,1.81,0,0,1,.83,1.59,1.52,1.52,0,0,1-.31.91,2,2,0,0,1-.83.66,1.92,1.92,0,0,1,.94.65,1.7,1.7,0,0,1,.33,1.06,1.88,1.88,0,0,1-.89,1.64,4.12,4.12,0,0,1-2.31.59,3.89,3.89,0,0,1-2.17-.59,1.79,1.79,0,0,1-.87-1.69v0h1.93a.79.79,0,0,0,.32.63,1.37,1.37,0,0,0,.89.26,1.13,1.13,0,0,0,.82-.27.87.87,0,0,0,.28-.66.83.83,0,0,0-.28-.7,1.3,1.3,0,0,0-.84-.22h-1.06V39.23Z"/><path class="cls-3" d="M295.71,43.64a2.13,2.13,0,0,1-.14-.38,1.72,1.72,0,0,1-.1-.39,2.81,2.81,0,0,1-.86.67,2.72,2.72,0,0,1-1.17.25,2.49,2.49,0,0,1-1.73-.59,2.12,2.12,0,0,1-.64-1.61,1.83,1.83,0,0,1,.84-1.61,4.33,4.33,0,0,1,2.45-.57h1v-.72a1.11,1.11,0,0,0-.3-.83,1.26,1.26,0,0,0-.91-.29,1.92,1.92,0,0,0-.61.08,1.59,1.59,0,0,0-.43.18l-.13.8h-1.51V37a5.49,5.49,0,0,1,1.26-.63,4.74,4.74,0,0,1,1.54-.25,3.56,3.56,0,0,1,2.23.67,2.31,2.31,0,0,1,.86,1.92v3.38a2.83,2.83,0,0,0,0,.29l.61.08v1.19ZM294,42.31a1.74,1.74,0,0,0,.82-.19,1.54,1.54,0,0,0,.57-.49V40.5h-1a1.39,1.39,0,0,0-1,.3.92.92,0,0,0-.33.71.72.72,0,0,0,.25.59A1,1,0,0,0,294,42.31Z"/><path class="cls-3" d="M298.84,42.45l1.07-.21V37.66l-1.07-.21v-1.2h8.57v1.2l-1.06.21v4.58l1.06.21v1.19h-3.92V42.45l.86-.21V37.79H301.9v4.45l.86.21v1.19h-3.92Z"/><path class="cls-3" d="M308.23,37.45v-1.2h2.89l.1.86a2.31,2.31,0,0,1,.79-.74,2.13,2.13,0,0,1,1.06-.26,2.48,2.48,0,0,1,2.14,1.07A4.86,4.86,0,0,1,316,40v.14a4.28,4.28,0,0,1-.75,2.64,2.52,2.52,0,0,1-2.12,1,2.31,2.31,0,0,1-1-.22,2.1,2.1,0,0,1-.77-.63v2.14l1,.21v1.2h-3.92v-1.2l1-.21V37.66ZM314,40a3.64,3.64,0,0,0-.35-1.7,1.14,1.14,0,0,0-1.07-.65,1.47,1.47,0,0,0-.77.19,1.32,1.32,0,0,0-.5.52v3.24a1.22,1.22,0,0,0,.5.48,1.74,1.74,0,0,0,.79.17,1.15,1.15,0,0,0,1.06-.57,3,3,0,0,0,.34-1.54Z"/><path class="cls-3" d="M316.85,39.88a3.93,3.93,0,0,1,.93-2.71,3.21,3.21,0,0,1,2.56-1.06,3.26,3.26,0,0,1,2.57,1,4,4,0,0,1,.92,2.72V40a4,4,0,0,1-.92,2.72,3.66,3.66,0,0,1-5.13,0,4,4,0,0,1-.93-2.72Zm2,.14a3.31,3.31,0,0,0,.35,1.63,1.24,1.24,0,0,0,1.15.61,1.21,1.21,0,0,0,1.13-.62,3.19,3.19,0,0,0,.36-1.62v-.14a3.2,3.2,0,0,0-.36-1.61,1.36,1.36,0,0,0-2.28,0,3.31,3.31,0,0,0-.35,1.61Z"/><path class="cls-3" d="M328.17,42.26A1.22,1.22,0,0,0,329,42a1.13,1.13,0,0,0,.32-.83h1.8l0,0a2.29,2.29,0,0,1-.84,1.87,3.54,3.54,0,0,1-4.71-.29,4,4,0,0,1-.89-2.68v-.21a3.92,3.92,0,0,1,.92-2.69,3.28,3.28,0,0,1,2.62-1,4.53,4.53,0,0,1,1.61.27,3.32,3.32,0,0,1,1.18.75l0,2h-1.62L329.14,38a1.12,1.12,0,0,0-.37-.21,1.31,1.31,0,0,0-.5-.09,1.26,1.26,0,0,0-1.2.61,3.23,3.23,0,0,0-.35,1.59v.21a3.3,3.3,0,0,0,.33,1.59A1.15,1.15,0,0,0,328.17,42.26Z"/><path class="cls-3" d="M335.33,36.25v2.38h1.39a3.67,3.67,0,0,1,2.35.68,2.15,2.15,0,0,1,.85,1.79,2.27,2.27,0,0,1-.85,1.85,3.63,3.63,0,0,1-2.35.69h-4.45V42.45l1.06-.21V37.66l-1.06-.21v-1.2h3.06Zm1.07,0v1.2l-1.07.21V36.25Zm-1.07,3.83v2h1.39a1.27,1.27,0,0,0,.91-.28.92.92,0,0,0,.3-.72,1,1,0,0,0-.29-.76,1.3,1.3,0,0,0-.92-.28Zm4.61-2.63v-1.2H343v6l.95.21v1.19h-3.91V42.45l1-.21V37.66Z"/><rect class="cls-4" x="365.82" y="-0.03" width="107.22" height="107.22" rx="4"/><path class="cls-3" d="M399.85,84h3l-1,5a4.6,4.6,0,0,1-2.83.86,4,4,0,0,1-1.52-.29,3.76,3.76,0,0,1-1.27-.86,4.14,4.14,0,0,1-.86-1.43,5.5,5.5,0,0,1-.33-2,8.56,8.56,0,0,1,.58-3.33A6.32,6.32,0,0,1,397,79.7a5.74,5.74,0,0,1,2-1.2,6.82,6.82,0,0,1,2.13-.37,8.06,8.06,0,0,1,1.52.12,4.14,4.14,0,0,1,1,.3l-.56,1.17a3.73,3.73,0,0,0-.86-.29,6.43,6.43,0,0,0-1.22-.11,4.53,4.53,0,0,0-1.78.36,4.38,4.38,0,0,0-1.49,1.09,5.31,5.31,0,0,0-1,1.79,7.28,7.28,0,0,0-.38,2.49,5,5,0,0,0,.17,1.36,3.38,3.38,0,0,0,.54,1.13,2.54,2.54,0,0,0,.9.76,2.72,2.72,0,0,0,1.28.29,3.33,3.33,0,0,0,.89-.11,4.11,4.11,0,0,0,.74-.3l.65-3.13-1.8-.32Z"/><path class="cls-3" d="M409,82.6l-.3,0a1.37,1.37,0,0,0-.28,0,2.07,2.07,0,0,0-1.41.51,3.79,3.79,0,0,0-.94,1.26L405,89.58h-1.2l1.7-8h.84v1.38h.06a6,6,0,0,1,.42-.57,3.71,3.71,0,0,1,.5-.47,2.29,2.29,0,0,1,.59-.33,2.08,2.08,0,0,1,.71-.12,2.76,2.76,0,0,1,.74.11Z"/><path class="cls-3" d="M415.1,86.41a9.8,9.8,0,0,0-.18,1.21c0,.41-.05.79-.05,1.14v.46a2.35,2.35,0,0,0,0,.4H414l-.22-1.4h-.07a4.46,4.46,0,0,1-.47.55,4.31,4.31,0,0,1-.62.51,3.46,3.46,0,0,1-.72.36,2.52,2.52,0,0,1-.82.14c-1.28,0-1.92-.83-1.92-2.5a8.5,8.5,0,0,1,.27-2.09,6.15,6.15,0,0,1,.81-1.91,4.55,4.55,0,0,1,1.43-1.4,3.88,3.88,0,0,1,2.11-.55,7.13,7.13,0,0,1,1.1.11,8.27,8.27,0,0,1,1.21.28Zm-3.63,2.34a1.47,1.47,0,0,0,.73-.19,3,3,0,0,0,.67-.46,3.86,3.86,0,0,0,.94-1.17l.9-4.34a2.89,2.89,0,0,0-1.22-.23,2.06,2.06,0,0,0-1.3.44,3.53,3.53,0,0,0-.95,1.13,5.8,5.8,0,0,0-.58,1.58,8.2,8.2,0,0,0-.19,1.77,2.08,2.08,0,0,0,.24,1A.82.82,0,0,0,411.47,88.75Z"/><path class="cls-3" d="M418.61,81.54h.83l-.08,1.38h.07a6.37,6.37,0,0,1,.5-.57,5,5,0,0,1,.62-.5,3.17,3.17,0,0,1,.74-.36,2.48,2.48,0,0,1,.87-.14,2.09,2.09,0,0,1,.72.12,1.41,1.41,0,0,1,.6.4,2.06,2.06,0,0,1,.41.75,3.75,3.75,0,0,1,.15,1.14,7.91,7.91,0,0,1-.38,2.53,6.07,6.07,0,0,1-1,1.89,4.51,4.51,0,0,1-1.41,1.19,3.3,3.3,0,0,1-1.55.41,4.22,4.22,0,0,1-1-.11,1.63,1.63,0,0,1-.57-.22l-.7,3.35h-1.21Zm3.1.84a1.64,1.64,0,0,0-.83.22,3.49,3.49,0,0,0-.72.56,4.45,4.45,0,0,0-.59.71,6.16,6.16,0,0,0-.42.7l-.79,3.81a1.81,1.81,0,0,0,.57.29,2.45,2.45,0,0,0,.62.08,2.29,2.29,0,0,0,1.2-.35,3.41,3.41,0,0,0,1-1,5.35,5.35,0,0,0,.72-1.54,7,7,0,0,0,.27-2,1.92,1.92,0,0,0-.27-1.06A.87.87,0,0,0,421.71,82.38Z"/><path class="cls-3" d="M429.94,89.58l1-4.58c.06-.32.12-.61.16-.86a4.36,4.36,0,0,0,.06-.67,1.19,1.19,0,0,0-.24-.84,1,1,0,0,0-.75-.25,2,2,0,0,0-.86.21,4.32,4.32,0,0,0-.83.56,4.7,4.7,0,0,0-.72.76,3.2,3.2,0,0,0-.47.8l-1,4.87H425l2.38-11.25h1.21l-1,4.59h.06a6.13,6.13,0,0,1,.51-.53,4.42,4.42,0,0,1,.68-.5,4,4,0,0,1,.84-.39,3.1,3.1,0,0,1,1-.15,1.89,1.89,0,0,1,1.24.38,1.72,1.72,0,0,1,.45,1.37,7.81,7.81,0,0,1-.21,1.63l-1,4.85Z"/><path class="cls-3" d="M437.62,83.83l-2.1-5.5h1.4l1.39,3.81.19.91.55-.91,3.07-3.81h1.56l-4.49,5.45,2.28,5.8h-1.39l-1.55-4-.22-1-.61,1-3.29,4h-1.56Z"/><path class="cls-3" d="M389,23.61a5.68,5.68,0,0,1-1.34,3.87,4.77,4.77,0,0,1-7,0,5.72,5.72,0,0,1-1.33-3.87v-.16a5.72,5.72,0,0,1,1.33-3.87A4.37,4.37,0,0,1,384.15,18a4.44,4.44,0,0,1,3.51,1.54A5.68,5.68,0,0,1,389,23.45Zm-2.13-.18a4.77,4.77,0,0,0-.69-2.69,2.31,2.31,0,0,0-2-1,2.22,2.22,0,0,0-2,1,4.81,4.81,0,0,0-.67,2.69v.18a4.94,4.94,0,0,0,.67,2.71,2.24,2.24,0,0,0,2,1,2.27,2.27,0,0,0,2-1,4.86,4.86,0,0,0,.68-2.71Z"/><path class="cls-3" d="M394,21.37a3.39,3.39,0,0,1,2.61,1,3.81,3.81,0,0,1,.95,2.67v.15a3.86,3.86,0,0,1-1,2.74A3.62,3.62,0,0,1,393.84,29a3.58,3.58,0,0,1-2.75-1.07,3.93,3.93,0,0,1-1-2.77v-1a6.78,6.78,0,0,1,1-4,4.12,4.12,0,0,1,2.64-1.74,3.23,3.23,0,0,0,1.05-.31.67.67,0,0,0,.34-.63h1.66l0,0a2.09,2.09,0,0,1-.65,1.88,6,6,0,0,1-2.32.72,2.32,2.32,0,0,0-1.31.64,2.64,2.64,0,0,0-.63,1.41l0,0a3.48,3.48,0,0,1,.94-.59A2.93,2.93,0,0,1,394,21.37ZM393.83,23a1.35,1.35,0,0,0-1.21.57,2.64,2.64,0,0,0-.38,1.48v.1a3,3,0,0,0,.38,1.59,1.53,1.53,0,0,0,2.43,0,2.77,2.77,0,0,0,.39-1.56v-.15a2.56,2.56,0,0,0-.39-1.48A1.37,1.37,0,0,0,393.83,23Z"/><path class="cls-3" d="M398.06,22.22V20.93h3.11l.1.93a2.52,2.52,0,0,1,.84-.79,2.25,2.25,0,0,1,1.15-.28,2.62,2.62,0,0,1,2.28,1.15,5.12,5.12,0,0,1,.81,3v.16a4.54,4.54,0,0,1-.81,2.82A2.67,2.67,0,0,1,403.27,29a2.48,2.48,0,0,1-1.11-.23,2.22,2.22,0,0,1-.82-.68v2.3l1,.22v1.29h-4.2V30.62l1-.22v-8ZM404.22,25a3.8,3.8,0,0,0-.38-1.81,1.21,1.21,0,0,0-1.14-.7,1.67,1.67,0,0,0-.83.2,1.43,1.43,0,0,0-.53.56v3.47a1.32,1.32,0,0,0,.53.52,1.93,1.93,0,0,0,.84.17,1.22,1.22,0,0,0,1.14-.61,3.19,3.19,0,0,0,.37-1.64Z"/><path class="cls-3" d="M412.35,28.86a2.86,2.86,0,0,1-.15-.41,2.13,2.13,0,0,1-.1-.42,3,3,0,0,1-.93.71,2.8,2.8,0,0,1-1.25.27,2.63,2.63,0,0,1-1.85-.63,2.22,2.22,0,0,1-.68-1.72,2,2,0,0,1,.89-1.73,4.72,4.72,0,0,1,2.62-.6H412v-.78a1.18,1.18,0,0,0-.33-.89,1.35,1.35,0,0,0-1-.31,2.51,2.51,0,0,0-.65.08,2,2,0,0,0-.46.2l-.14.85h-1.61V21.73a5.67,5.67,0,0,1,1.35-.67,4.84,4.84,0,0,1,1.65-.27,3.76,3.76,0,0,1,2.39.72,2.46,2.46,0,0,1,.92,2v3.62a1.55,1.55,0,0,0,0,.31l.65.09v1.28Zm-1.85-1.43a1.87,1.87,0,0,0,.88-.21,1.66,1.66,0,0,0,.61-.52V25.49H410.9a1.49,1.49,0,0,0-1,.32,1,1,0,0,0-.35.76.77.77,0,0,0,.26.63A1,1,0,0,0,410.5,27.43Z"/><path class="cls-3" d="M419.65,21.37a3.4,3.4,0,0,1,2.62,1,3.8,3.8,0,0,1,.94,2.67v.15a3.86,3.86,0,0,1-1,2.74,4.08,4.08,0,0,1-5.49,0,3.9,3.9,0,0,1-1-2.77v-1a6.93,6.93,0,0,1,1-4,4.17,4.17,0,0,1,2.65-1.74,3.39,3.39,0,0,0,1.05-.31.68.68,0,0,0,.34-.63h1.65l0,0a2.09,2.09,0,0,1-.66,1.88,5.9,5.9,0,0,1-2.32.72,2.32,2.32,0,0,0-1.31.64,2.56,2.56,0,0,0-.62,1.41l0,0a3.33,3.33,0,0,1,.94-.59A2.88,2.88,0,0,1,419.65,21.37ZM419.46,23a1.36,1.36,0,0,0-1.21.57,2.64,2.64,0,0,0-.38,1.48v.1a3,3,0,0,0,.38,1.59,1.35,1.35,0,0,0,1.23.61,1.33,1.33,0,0,0,1.21-.59,2.77,2.77,0,0,0,.38-1.56v-.15a2.64,2.64,0,0,0-.38-1.48A1.38,1.38,0,0,0,419.46,23Z"/><path class="cls-3" d="M424.13,24.82a4.23,4.23,0,0,1,1-2.9,3.9,3.9,0,0,1,5.49,0,4.24,4.24,0,0,1,1,2.9V25a4.25,4.25,0,0,1-1,2.91A3.44,3.44,0,0,1,427.88,29a3.48,3.48,0,0,1-2.76-1.12,4.24,4.24,0,0,1-1-2.91Zm2.14.16a3.4,3.4,0,0,0,.38,1.74,1.46,1.46,0,0,0,2.44,0,3.36,3.36,0,0,0,.38-1.73v-.16a3.4,3.4,0,0,0-.38-1.72,1.32,1.32,0,0,0-1.23-.66,1.29,1.29,0,0,0-1.21.66,3.4,3.4,0,0,0-.38,1.72Z"/><path class="cls-3" d="M440.54,20.93v2.71h-1.65l-.08-1.07h-1.36v4.79l1.14.22v1.28h-4.42V27.58l1.13-.22V22.57H434l-.08,1.07h-1.64V20.93Z"/><path class="cls-3" d="M441.63,22.22V20.93h4.24v1.29l-1,.22V24h.73l1.19-1.76a3.81,3.81,0,0,1,.94-1,2,2,0,0,1,1.22-.35,2,2,0,0,1,.66.1,3.08,3.08,0,0,1,.58.28l-.36,1.48-.28-.07a.75.75,0,0,0-.2,0,.84.84,0,0,0-.46.17,1.33,1.33,0,0,0-.42.43l-1,1.49,1.84,2.73,1.08.18v1.28h-2.94l-1.73-3h-.82v1.47l1,.22v1.28h-4.24V27.58l1.14-.22V22.44Z"/><path class="cls-3" d="M456.21,28.86c-.06-.13-.11-.27-.16-.41A3.2,3.2,0,0,1,456,28a2.81,2.81,0,0,1-2.17,1,2.61,2.61,0,0,1-1.85-.63,2.22,2.22,0,0,1-.69-1.72,2,2,0,0,1,.9-1.73,4.68,4.68,0,0,1,2.62-.6h1.09v-.78a1.18,1.18,0,0,0-.33-.89,1.36,1.36,0,0,0-1-.31,2.59,2.59,0,0,0-.66.08,2.25,2.25,0,0,0-.46.2l-.14.85h-1.61V21.73a5.79,5.79,0,0,1,1.34-.67,4.92,4.92,0,0,1,1.65-.27,3.79,3.79,0,0,1,2.4.72,2.45,2.45,0,0,1,.91,2v3.28c0,.12,0,.24,0,.34a3,3,0,0,0,0,.31l.66.09v1.28Zm-1.86-1.43a1.82,1.82,0,0,0,.88-.21,1.69,1.69,0,0,0,.62-.52V25.49h-1.09a1.52,1.52,0,0,0-1,.32,1,1,0,0,0-.35.76.8.8,0,0,0,.26.63A1,1,0,0,0,454.35,27.43Z"/><path class="cls-3" d="M383.61,38l-1.13-.22V36.48h6.94v2.79h-1.34L388,38.14h-2.24v4.77l1.14.21v1.29h-4.41V43.12l1.13-.21Z"/><path class="cls-3" d="M390.31,37.77V36.48h3.1l.1.92a2.65,2.65,0,0,1,.85-.79,2.29,2.29,0,0,1,1.14-.28,2.63,2.63,0,0,1,2.28,1.16,5,5,0,0,1,.82,3v.15a4.51,4.51,0,0,1-.82,2.83,2.7,2.7,0,0,1-2.27,1.07,2.57,2.57,0,0,1-1.1-.23,2.25,2.25,0,0,1-.83-.68v2.29l1,.22v1.29h-4.19V46.16l1-.22V38Zm6.15,2.74a3.84,3.84,0,0,0-.38-1.82,1.21,1.21,0,0,0-1.14-.69,1.54,1.54,0,0,0-.82.2,1.33,1.33,0,0,0-.54.56v3.47a1.21,1.21,0,0,0,.54.51,1.77,1.77,0,0,0,.84.18,1.24,1.24,0,0,0,1.14-.61,3.21,3.21,0,0,0,.36-1.65Z"/><path class="cls-3" d="M404.6,44.41c-.06-.14-.11-.27-.16-.41a3.2,3.2,0,0,1-.1-.42,3,3,0,0,1-.93.71,2.77,2.77,0,0,1-1.25.27,2.64,2.64,0,0,1-1.85-.63,2.27,2.27,0,0,1-.68-1.73,2,2,0,0,1,.89-1.72,4.72,4.72,0,0,1,2.62-.61h1.1V39.1a1.18,1.18,0,0,0-.33-.89,1.37,1.37,0,0,0-1-.31,2.18,2.18,0,0,0-.65.08,1.81,1.81,0,0,0-.46.2l-.14.85h-1.61V37.27a6,6,0,0,1,1.34-.66,4.69,4.69,0,0,1,1.65-.28,3.76,3.76,0,0,1,2.39.73,2.43,2.43,0,0,1,.92,2v3.27c0,.13,0,.24,0,.35a3,3,0,0,0,0,.31l.65.08v1.29ZM402.74,43a1.84,1.84,0,0,0,.88-.21,1.78,1.78,0,0,0,.62-.52V41h-1.1a1.46,1.46,0,0,0-1,.32,1,1,0,0,0-.35.76.8.8,0,0,0,.26.63A1.05,1.05,0,0,0,402.74,43Z"/><path class="cls-3" d="M413.9,33v3.56a3.23,3.23,0,0,1,.47-.15,2.35,2.35,0,0,1,.54-.06,2.47,2.47,0,0,1,2.16,1.16,5.34,5.34,0,0,1,.77,3v.15a4.77,4.77,0,0,1-.77,2.83,2.5,2.5,0,0,1-2.15,1.07,3.1,3.1,0,0,1-.54-.05,3.79,3.79,0,0,1-.48-.14v1.57l1.14.22v1.29h-4.41V46.16l1.13-.22V44.38a2.23,2.23,0,0,1-.46.13,3,3,0,0,1-.52.05,2.5,2.5,0,0,1-2.15-1.07,4.76,4.76,0,0,1-.76-2.83v-.15a5.34,5.34,0,0,1,.76-3,2.47,2.47,0,0,1,2.17-1.16,2.1,2.1,0,0,1,.51.06,2.15,2.15,0,0,1,.45.14v-2l-1.13-.22V33h3.27ZM410,40.66a3.82,3.82,0,0,0,.3,1.66,1,1,0,0,0,1,.6h.22l.21,0V38l-.2,0h-.22a1.05,1.05,0,0,0-1,.7,4.47,4.47,0,0,0-.31,1.83Zm5.69-.15a4.29,4.29,0,0,0-.33-1.82,1.08,1.08,0,0,0-1-.71l-.24,0-.21,0v4.85l.22,0h.25a1.06,1.06,0,0,0,1-.61,3.58,3.58,0,0,0,.32-1.65Z"/><path class="cls-3" d="M423.18,36.48v1.29l-1,.22v3.3h0l2.58-4.82h3.27v1.29l-1.13.22v4.92l1.13.21v1.29h-4.3V43.12l1-.21V39.59h0l-2.58,4.83h-3.28V43.12l1.14-.21V38l-1.14-.22V36.48h4.3Z"/><path class="cls-3" d="M429.3,37.77V36.48h4.25v1.29l-1,.22V39.5h.74l1.18-1.76a3.87,3.87,0,0,1,.94-1,2.07,2.07,0,0,1,1.22-.34,1.91,1.91,0,0,1,.66.1,2.81,2.81,0,0,1,.58.28l-.36,1.48-.27-.08h-.2a.85.85,0,0,0-.47.17,1.68,1.68,0,0,0-.42.42l-1,1.5L437,43l1.08.17v1.29h-2.94l-1.73-3h-.82v1.47l1,.21v1.29H429.3V43.12l1.14-.21V38Z"/><path class="cls-3" d="M438.42,40.37a4.23,4.23,0,0,1,1-2.9,3.89,3.89,0,0,1,5.49,0,4.2,4.2,0,0,1,1,2.91v.15a4.21,4.21,0,0,1-1,2.92,3.44,3.44,0,0,1-2.73,1.12,3.48,3.48,0,0,1-2.76-1.12,4.25,4.25,0,0,1-1-2.92Zm2.14.15a3.35,3.35,0,0,0,.38,1.74,1.46,1.46,0,0,0,2.44,0,3.4,3.4,0,0,0,.39-1.74v-.15a3.37,3.37,0,0,0-.39-1.72,1.31,1.31,0,0,0-1.23-.67,1.28,1.28,0,0,0-1.21.67,3.37,3.37,0,0,0-.38,1.72Z"/><path class="cls-3" d="M451.48,36.48A4.63,4.63,0,0,1,454,37a1.82,1.82,0,0,1,.88,1.65,1.47,1.47,0,0,1-.37,1,2.21,2.21,0,0,1-1,.66,2.56,2.56,0,0,1,1.37.66,1.61,1.61,0,0,1,.46,1.14,1.91,1.91,0,0,1-.84,1.69,4.15,4.15,0,0,1-2.4.58h-5V43.12l1.14-.21V38L447,37.77V36.48h4.45Zm-1.17,3.23h1.29a1.41,1.41,0,0,0,.83-.2.62.62,0,0,0,.26-.56.7.7,0,0,0-.3-.63,1.59,1.59,0,0,0-.91-.21h-1.17Zm0,1.39v1.68H452a1.35,1.35,0,0,0,.83-.21.73.73,0,0,0,.27-.62.77.77,0,0,0-.26-.63,1.32,1.32,0,0,0-.84-.22Z"/><rect class="cls-5" x="0.19" y="-0.03" width="107.22" height="107.22" rx="4"/><rect class="cls-6" x="62.92" y="222.45" width="73.45" height="31.63" rx="4"/><rect class="cls-6" x="151.91" y="222.45" width="73.45" height="31.63" rx="4"/><rect class="cls-6" x="241.44" y="222.45" width="73.45" height="31.63" rx="4"/><rect class="cls-6" x="329.9" y="222.45" width="73.45" height="31.63" rx="4"/><path class="cls-3" d="M45.77,82l.5-1.69H46.2l-.9,1.55L41.44,87h-.38l-1.87-5.08L39,80.33h-.06L38.76,82l-1.61,7.57H35.94l2.4-11.25h.88l2.09,5.75.25,1.26h0l.74-1.29,4.39-5.72h1.14L45.45,89.58H44.16Z"/><path class="cls-3" d="M54.41,89.58H48.07l2.38-11.25h1.29L49.6,88.39h5Z"/><path class="cls-3" d="M57.48,87.67a2.92,2.92,0,0,0,0,.45.82.82,0,0,0,.1.44.36.36,0,0,0,.29.14,2.66,2.66,0,0,0,.53,0,4.53,4.53,0,0,0,.53-.15v.91a1.51,1.51,0,0,1-.34.14l-.39.09-.41,0-.36,0a1.48,1.48,0,0,1-.9-.26,1.15,1.15,0,0,1-.34-1,4.46,4.46,0,0,1,.1-.79l2-9.4h1.21Z"/><path class="cls-3" d="M62.25,81.54h1.21l-1.7,8H60.55Zm.26-2.46a.87.87,0,0,1,.25-.63.83.83,0,0,1,.62-.25.85.85,0,0,1,.63.25.87.87,0,0,1,.25.63.83.83,0,0,1-.25.62.85.85,0,0,1-.63.25.85.85,0,0,1-.87-.87Z"/><path class="cls-3" d="M66.82,78.33H68l-1,4.59h.06a5.37,5.37,0,0,1,.52-.57,4,4,0,0,1,.64-.5,3.45,3.45,0,0,1,.75-.36,2.48,2.48,0,0,1,.87-.14,1.52,1.52,0,0,1,1.39.67,3,3,0,0,1,.43,1.68,7.48,7.48,0,0,1-.4,2.56,5.93,5.93,0,0,1-1.06,1.89,4.47,4.47,0,0,1-1.51,1.18,4.09,4.09,0,0,1-1.73.4,5.79,5.79,0,0,1-1.52-.19,2.54,2.54,0,0,1-.95-.46Zm2.69,4a1.94,1.94,0,0,0-.82.2,3.65,3.65,0,0,0-.8.52,5.87,5.87,0,0,0-.69.72,4.59,4.59,0,0,0-.51.76l-.8,3.78a2.33,2.33,0,0,0,1.37.34,2.28,2.28,0,0,0,1.07-.31,3.41,3.41,0,0,0,1-.92A5.16,5.16,0,0,0,70.13,86a6.43,6.43,0,0,0,.29-2,2.43,2.43,0,0,0-.24-1.22A.77.77,0,0,0,69.51,82.38Z"/><path class="cls-3" d="M268.1,200h-1.71l-.23-1.52a2.34,2.34,0,0,0-.86-.54,3.38,3.38,0,0,0-1.21-.19,2.71,2.71,0,0,0-2.3,1.08,4.65,4.65,0,0,0-.8,2.83v.4a4.7,4.7,0,0,0,.8,2.83,2.63,2.63,0,0,0,2.26,1.09,3.79,3.79,0,0,0,1.24-.19,2.09,2.09,0,0,0,.87-.54l.23-1.52h1.71V206a5,5,0,0,1-1.77,1.28,5.94,5.94,0,0,1-2.4.47,4.91,4.91,0,0,1-3.77-1.59,5.81,5.81,0,0,1-1.46-4.09v-.39a5.81,5.81,0,0,1,1.46-4.09,4.85,4.85,0,0,1,3.77-1.6,5.78,5.78,0,0,1,2.4.48,5.17,5.17,0,0,1,1.77,1.28Z"/><path class="cls-3" d="M269.2,203.25a4.52,4.52,0,0,1,1.07-3.11,3.71,3.71,0,0,1,2.94-1.22,3.76,3.76,0,0,1,3,1.21,4.56,4.56,0,0,1,1.06,3.12v.16a4.57,4.57,0,0,1-1.06,3.13,4.21,4.21,0,0,1-5.89,0,4.57,4.57,0,0,1-1.07-3.13Zm2.3.16a3.73,3.73,0,0,0,.4,1.87,1.42,1.42,0,0,0,1.32.7,1.38,1.38,0,0,0,1.3-.7,3.67,3.67,0,0,0,.42-1.87v-.16a3.64,3.64,0,0,0-.42-1.85,1.56,1.56,0,0,0-2.62,0,3.76,3.76,0,0,0-.4,1.85Z"/><path class="cls-3" d="M278.39,206.2l1.1-.23V200.7l-1.22-.24v-1.38h3.36l.1,1.24a2.66,2.66,0,0,1,.77-1,1.75,1.75,0,0,1,1.09-.37l.38,0a1.87,1.87,0,0,1,.33.07l-.24,2.09-.94,0a1.59,1.59,0,0,0-.83.2,1.26,1.26,0,0,0-.51.56V206l1.1.23v1.38h-4.49Z"/><path class="cls-3" d="M288.91,207.74a3.81,3.81,0,0,1-2.94-1.18,4.21,4.21,0,0,1-1.1-3v-.31a4.68,4.68,0,0,1,1-3.12,3.87,3.87,0,0,1,5.46-.18,3.94,3.94,0,0,1,.95,2.8V204h-5.07l0,.05a2.22,2.22,0,0,0,.57,1.38,1.74,1.74,0,0,0,1.35.54,4.43,4.43,0,0,0,1.26-.15,5.33,5.33,0,0,0,1.1-.48l.62,1.41a4.44,4.44,0,0,1-1.36.7A5.76,5.76,0,0,1,288.91,207.74Zm-.21-7.05a1.17,1.17,0,0,0-1,.49,2.5,2.5,0,0,0-.46,1.28l0,0h2.82v-.21a1.86,1.86,0,0,0-.34-1.16A1.23,1.23,0,0,0,288.7,200.69Z"/><path class="cls-3" d="M22,21h-.05l-2.85,7.9H17.64L14.8,21h-.05L15,25.68v1.68l1.14.22v1.28H11.68V27.58l1.14-.22V19.7l-1.14-.22V18.2h3.93l2.72,7.85h0l2.74-7.85h3.94v1.28l-1.14.22v7.66l1.14.22v1.28H20.64V27.58l1.13-.22V25.68Z"/><path class="cls-3" d="M30.91,28.86a2.86,2.86,0,0,1-.15-.41,3.25,3.25,0,0,1-.11-.42,2.77,2.77,0,0,1-2.17,1,2.63,2.63,0,0,1-1.85-.63,2.22,2.22,0,0,1-.69-1.72,2,2,0,0,1,.9-1.73,4.7,4.7,0,0,1,2.62-.6h1.09v-.78a1.18,1.18,0,0,0-.33-.89,1.35,1.35,0,0,0-1-.31,2.51,2.51,0,0,0-.65.08,2,2,0,0,0-.46.2l-.14.85H26.38V21.73a5.67,5.67,0,0,1,1.35-.67,4.84,4.84,0,0,1,1.65-.27,3.76,3.76,0,0,1,2.39.72,2.46,2.46,0,0,1,.92,2v3.62a1.55,1.55,0,0,0,0,.31l.65.09v1.28Zm-1.85-1.43a1.87,1.87,0,0,0,.88-.21,1.74,1.74,0,0,0,.61-.52V25.49H29.46a1.49,1.49,0,0,0-1,.32,1,1,0,0,0-.35.76.77.77,0,0,0,.26.63A1,1,0,0,0,29.06,27.43Z"/><path class="cls-3" d="M34.27,22.22V20.93h4.41v1.29l-1.14.22v4.78H39.7V20.93h2.14v6.29H44V22.44l-1.14-.22V20.93h4.41v1.29l-1.14.22v4.92l1.14.22v1.28h-13V27.58l1.14-.22V22.44Z"/><path class="cls-3" d="M52.69,20.93v1.29l-1,.22v3.31h0l2.58-4.82h3.28v1.29l-1.14.22v4.92l1.14.22v1.28h-4.3V27.58l1-.22V24h0l-2.58,4.83H48.38V27.58l1.14-.22V22.44l-1.14-.22V20.93h4.31Z"/><path class="cls-3" d="M58.76,22.22V20.93H63v1.29l-.92.22v1.7h2.61v-1.7l-.92-.22V20.93h4.2v1.29l-1.14.22v4.92l1.14.22v1.28h-4.2V27.58l.92-.22V25.78H62v1.58l.92.22v1.28H58.76V27.58l1.14-.22V22.44Z"/><path class="cls-3" d="M69.12,22.22V20.93h4.2v1.29l-.93.22v1.7H75v-1.7l-.91-.22V20.93h4.19v1.29l-1.14.22v4.92l1.14.22v1.28H74.09V27.58l.91-.22V25.78H72.39v1.58l.93.22v1.28h-4.2V27.58l1.14-.22V22.44Z"/><path class="cls-3" d="M79.32,24.82a4.19,4.19,0,0,1,1-2.9,3.9,3.9,0,0,1,5.49,0,4.23,4.23,0,0,1,1,2.9V25a4.24,4.24,0,0,1-1,2.91,3.92,3.92,0,0,1-5.49,0,4.2,4.2,0,0,1-1-2.91Zm2.14.16a3.51,3.51,0,0,0,.38,1.74,1.34,1.34,0,0,0,1.23.65,1.32,1.32,0,0,0,1.22-.66A3.47,3.47,0,0,0,84.67,25v-.16a3.39,3.39,0,0,0-.39-1.72,1.46,1.46,0,0,0-2.44,0,3.5,3.5,0,0,0-.38,1.72Z"/><path class="cls-3" d="M91.53,29a3.53,3.53,0,0,1-2.74-1.1,3.9,3.9,0,0,1-1-2.79v-.29a4.32,4.32,0,0,1,1-2.91,3.63,3.63,0,0,1,5.09-.17,3.7,3.7,0,0,1,.89,2.62v1.16H90v0a2,2,0,0,0,.52,1.29,1.65,1.65,0,0,0,1.26.5,3.93,3.93,0,0,0,1.18-.14,6.22,6.22,0,0,0,1-.45l.58,1.32a4.37,4.37,0,0,1-1.28.65A5.56,5.56,0,0,1,91.53,29Zm-.2-6.57a1.11,1.11,0,0,0-.93.45A2.41,2.41,0,0,0,90,24.08l0,0h2.63v-.19a1.74,1.74,0,0,0-.32-1.09A1.16,1.16,0,0,0,91.33,22.44Z"/><path class="cls-3" d="M17.4,40.37a4.23,4.23,0,0,1,1-2.9,3.45,3.45,0,0,1,2.74-1.14,3.48,3.48,0,0,1,2.75,1.13,4.25,4.25,0,0,1,1,2.91v.15a4.26,4.26,0,0,1-1,2.92,3.44,3.44,0,0,1-2.73,1.12,3.48,3.48,0,0,1-2.76-1.12,4.25,4.25,0,0,1-1-2.92Zm2.14.15a3.35,3.35,0,0,0,.38,1.74,1.46,1.46,0,0,0,2.44,0,3.4,3.4,0,0,0,.38-1.74v-.15a3.48,3.48,0,0,0-.38-1.72A1.31,1.31,0,0,0,21.13,38a1.28,1.28,0,0,0-1.21.67,3.37,3.37,0,0,0-.38,1.72Z"/><path class="cls-3" d="M29.91,36.92a3.36,3.36,0,0,1,2.62,1,3.78,3.78,0,0,1,.94,2.66v.16a3.82,3.82,0,0,1-1,2.73,3.55,3.55,0,0,1-2.74,1.06A3.55,3.55,0,0,1,27,43.48a3.91,3.91,0,0,1-1-2.76v-1a6.9,6.9,0,0,1,1-4A4.15,4.15,0,0,1,29.66,34a3.39,3.39,0,0,0,1.05-.31.67.67,0,0,0,.34-.64h1.66l0,0a2.08,2.08,0,0,1-.66,1.88,5.9,5.9,0,0,1-2.32.72,2.23,2.23,0,0,0-1.3.64,2.5,2.5,0,0,0-.63,1.41l0,0a3.55,3.55,0,0,1,.94-.58A2.88,2.88,0,0,1,29.91,36.92Zm-.19,1.65a1.33,1.33,0,0,0-1.2.57,2.55,2.55,0,0,0-.38,1.47v.11a2.88,2.88,0,0,0,.38,1.59,1.32,1.32,0,0,0,1.22.61A1.35,1.35,0,0,0,31,42.33a2.79,2.79,0,0,0,.39-1.56v-.16A2.55,2.55,0,0,0,31,39.14,1.38,1.38,0,0,0,29.72,38.57Z"/><path class="cls-3" d="M42.59,37.77l-.74.11-2.91,7.71A4.4,4.4,0,0,1,38,47a2.36,2.36,0,0,1-1.73.58,2.76,2.76,0,0,1-.51,0l-.56-.12.25-1.56.21,0h.19a1.2,1.2,0,0,0,.82-.26,1.67,1.67,0,0,0,.44-.65l.24-.6-2.51-6.52-.74-.12V36.48H38v1.29l-.89.15,1.09,3.16.11.57h0l1.25-3.74-.89-.15V36.48h3.88Z"/><path class="cls-3" d="M47.35,36.48v1.28l-.91.22v1a1.41,1.41,0,0,0,.34,1.09,1.79,1.79,0,0,0,1.17.3,4.58,4.58,0,0,0,.53,0,5.25,5.25,0,0,0,.55-.09V38l-.92-.22V36.48h4.2v1.29L51.17,38v4.92l1.14.21v1.29H47.89V43.12L49,42.91v-1a4.85,4.85,0,0,1-.55.09A5,5,0,0,1,48,42a4.32,4.32,0,0,1-2.7-.74,2.74,2.74,0,0,1-1-2.29V38l-1.14-.22V36.48h4.19Z"/><path class="cls-3" d="M57.13,44.56a3.58,3.58,0,0,1-2.74-1.1,3.93,3.93,0,0,1-1-2.79v-.29a4.32,4.32,0,0,1,1-2.91,3.6,3.6,0,0,1,5.09-.17,3.75,3.75,0,0,1,.89,2.62v1.16H55.59l0,0a2,2,0,0,0,.52,1.29,1.64,1.64,0,0,0,1.27.51,4.38,4.38,0,0,0,1.18-.14,6.15,6.15,0,0,0,1-.45l.58,1.31a4.31,4.31,0,0,1-1.27.66A5.58,5.58,0,0,1,57.13,44.56ZM56.94,38a1.11,1.11,0,0,0-.94.46,2.31,2.31,0,0,0-.42,1.19l0,0h2.62v-.19a1.67,1.67,0,0,0-.32-1.09A1.14,1.14,0,0,0,56.94,38Z"/><path class="cls-3" d="M61.49,37.77V36.48h4.19v1.29l-.92.22v1.7h2.61V38l-.92-.22V36.48h4.2v1.29L69.51,38v4.92l1.14.21v1.29h-4.2V43.12l.92-.21V41.33H64.76v1.58l.92.21v1.29H61.49V43.12l1.14-.21V38Z"/><path class="cls-3" d="M76.16,36.48v1.29l-1,.22v3.3h.05l2.57-4.82H81v1.29L79.89,38v4.92l1.14.21v1.29h-4.3V43.12l1-.21V39.59h0l-2.58,4.83H71.85V43.12L73,42.91V38l-1.14-.22V36.48h4.31Z"/><path class="cls-3" d="M85.86,44.56a3.59,3.59,0,0,1-2.74-1.1,3.93,3.93,0,0,1-1-2.79v-.29a4.32,4.32,0,0,1,1-2.91,3.6,3.6,0,0,1,5.09-.17,3.75,3.75,0,0,1,.89,2.62v1.16H84.32l0,0a2,2,0,0,0,.53,1.29,1.62,1.62,0,0,0,1.26.51,4.33,4.33,0,0,0,1.18-.14,6.6,6.6,0,0,0,1-.45l.57,1.31a4.19,4.19,0,0,1-1.27.66A5.58,5.58,0,0,1,85.86,44.56ZM85.67,38a1.11,1.11,0,0,0-.94.46,2.4,2.4,0,0,0-.42,1.19l0,0H87v-.19a1.72,1.72,0,0,0-.31-1.09A1.18,1.18,0,0,0,85.67,38Z"/><rect class="cls-7" x="121.89" y="-0.03" width="107.22" height="107.22" rx="4"/><path class="cls-3" d="M148.38,86.69a1.59,1.59,0,0,0-.3-1,3.48,3.48,0,0,0-.75-.73,10.18,10.18,0,0,0-1-.64,5.69,5.69,0,0,1-1-.71,3.29,3.29,0,0,1-.74-.95,2.75,2.75,0,0,1-.3-1.35,3.15,3.15,0,0,1,.31-1.46,2.75,2.75,0,0,1,.85-1,3.67,3.67,0,0,1,1.27-.56,6.54,6.54,0,0,1,1.56-.18,8.42,8.42,0,0,1,1.67.15,4.06,4.06,0,0,1,1.16.37l-.65,1.14a4.16,4.16,0,0,0-.95-.34,6,6,0,0,0-1.47-.16,2.88,2.88,0,0,0-1.73.48,1.61,1.61,0,0,0-.67,1.4,1.68,1.68,0,0,0,.3,1,3.25,3.25,0,0,0,.74.74,10.32,10.32,0,0,0,1,.63,6.85,6.85,0,0,1,1,.7,3.46,3.46,0,0,1,.75.94,2.76,2.76,0,0,1,.3,1.34,2.82,2.82,0,0,1-1.13,2.4,5.26,5.26,0,0,1-3.23.85,7.91,7.91,0,0,1-1.83-.19,4.32,4.32,0,0,1-1.13-.41l.66-1.17a5.64,5.64,0,0,0,1,.41,5.21,5.21,0,0,0,1.51.2,5.52,5.52,0,0,0,1-.09,2.73,2.73,0,0,0,.9-.31,1.9,1.9,0,0,0,.66-.6A1.69,1.69,0,0,0,148.38,86.69Z"/><path class="cls-3" d="M151.4,81.54h1.19l.34-1.59,1.28-.37-.41,2h2.1l-.24,1h-2.09l-1,4.86c0,.13,0,.24-.06.35a1.57,1.57,0,0,0,0,.29.67.67,0,0,0,.17.53.82.82,0,0,0,.53.15,2.59,2.59,0,0,0,.71-.1,2.65,2.65,0,0,0,.65-.29v1a3.24,3.24,0,0,1-.87.32,4.71,4.71,0,0,1-1,.12c-1,0-1.46-.45-1.46-1.34a3.75,3.75,0,0,1,.08-.67l1.09-5.2h-1.2Z"/><path class="cls-3" d="M161.11,82.6l-.29,0a1.52,1.52,0,0,0-.29,0,2.11,2.11,0,0,0-1.41.51,3.63,3.63,0,0,0-.93,1.26l-1.11,5.27h-1.21l1.71-8h.83v1.38h.07a4.57,4.57,0,0,1,.41-.57,3.71,3.71,0,0,1,.5-.47,2.19,2.19,0,0,1,.6-.33,2,2,0,0,1,.71-.12,2.75,2.75,0,0,1,.73.11Z"/><path class="cls-3" d="M166.81,88.8a4,4,0,0,1-1.33.73,5.12,5.12,0,0,1-1.54.25A2.44,2.44,0,0,1,162,89a3,3,0,0,1-.66-2.06,7.28,7.28,0,0,1,.37-2.37,6,6,0,0,1,1-1.77,4.16,4.16,0,0,1,1.36-1.1,3.44,3.44,0,0,1,1.57-.39,2.82,2.82,0,0,1,1,.16,2.12,2.12,0,0,1,.7.43,1.66,1.66,0,0,1,.4.61,2.2,2.2,0,0,1,.13.73,2,2,0,0,1-1.11,1.79,6.42,6.42,0,0,1-3.23.65h-.41l-.43,0c0,.21-.08.4-.1.58a4.4,4.4,0,0,0,0,.48,2.38,2.38,0,0,0,.4,1.44,1.46,1.46,0,0,0,1.26.56,3.37,3.37,0,0,0,1.29-.24,3.44,3.44,0,0,0,.91-.49Zm-1.37-6.42a2.21,2.21,0,0,0-1.54.6,3.9,3.9,0,0,0-1,1.81l1.27,0a6.08,6.08,0,0,0,1.2-.17,2.36,2.36,0,0,0,.9-.43,1.05,1.05,0,0,0,.35-.83,1,1,0,0,0-.06-.33.75.75,0,0,0-.18-.31,1,1,0,0,0-.36-.22A1.66,1.66,0,0,0,165.44,82.38Z"/><path class="cls-3" d="M174.64,86.41a8.21,8.21,0,0,0-.18,1.21c0,.41-.05.79-.05,1.14v.46a1.64,1.64,0,0,0,0,.4h-.89l-.22-1.4h-.07a5.53,5.53,0,0,1-.47.55,4.31,4.31,0,0,1-.62.51,3.3,3.3,0,0,1-.73.36,2.43,2.43,0,0,1-.82.14c-1.27,0-1.91-.83-1.91-2.5a9,9,0,0,1,.26-2.09,6.42,6.42,0,0,1,.82-1.91,4.55,4.55,0,0,1,1.43-1.4,3.86,3.86,0,0,1,2.11-.55,7.13,7.13,0,0,1,1.1.11,8.27,8.27,0,0,1,1.21.28ZM171,88.75a1.48,1.48,0,0,0,.74-.19,3,3,0,0,0,.67-.46,4.38,4.38,0,0,0,.56-.58,3.84,3.84,0,0,0,.38-.59l.9-4.34a2.89,2.89,0,0,0-1.22-.23,2.06,2.06,0,0,0-1.3.44,3.53,3.53,0,0,0-.95,1.13,5.8,5.8,0,0,0-.58,1.58,8.2,8.2,0,0,0-.19,1.77,2.08,2.08,0,0,0,.24,1A.81.81,0,0,0,171,88.75Z"/><path class="cls-3" d="M180.73,89.58l1-4.55c.08-.37.15-.71.19-1a5.65,5.65,0,0,0,.07-.75,1.25,1.25,0,0,0-.16-.67.63.63,0,0,0-.55-.23,1.64,1.64,0,0,0-.79.21,3.29,3.29,0,0,0-.72.52,4.88,4.88,0,0,0-.62.67,3.89,3.89,0,0,0-.44.64l-1.07,5.16h-1.2l1.7-8H179l-.09,1.38h.06l.56-.53a4.14,4.14,0,0,1,.66-.51,4,4,0,0,1,.78-.38,2.87,2.87,0,0,1,.95-.15,1,1,0,0,1,1,.45,2.69,2.69,0,0,1,.25,1.25,7.6,7.6,0,0,1,.56-.61,5.22,5.22,0,0,1,.7-.54,4,4,0,0,1,.8-.4,2.39,2.39,0,0,1,.83-.15A1.34,1.34,0,0,1,187.52,83a8.93,8.93,0,0,1-.24,1.79l-1,4.82h-1.21l1-4.84c.07-.31.12-.59.16-.83a5.57,5.57,0,0,0,.05-.65,1.11,1.11,0,0,0-.17-.66.72.72,0,0,0-.6-.22,1.47,1.47,0,0,0-.71.21,4.65,4.65,0,0,0-.74.54,6,6,0,0,0-.63.7,3.43,3.43,0,0,0-.44.69l-1.05,5.06Z"/><path class="cls-3" d="M190.67,81.54h1.21l-1.7,8H189Zm.26-2.46a.87.87,0,0,1,.25-.63.83.83,0,0,1,.62-.25.85.85,0,0,1,.88.88.83.83,0,0,1-.25.62.87.87,0,0,1-.63.25.85.85,0,0,1-.87-.87Z"/><path class="cls-3" d="M197.59,89.58l1.08-5.08c0-.19.08-.38.11-.57a3.36,3.36,0,0,0,.05-.51,1.24,1.24,0,0,0-.22-.75.94.94,0,0,0-.81-.29,1.86,1.86,0,0,0-.82.19,3.64,3.64,0,0,0-.76.49,4.36,4.36,0,0,0-.63.66,5,5,0,0,0-.48.72l-1.06,5.14h-1.21l1.71-8h.84l-.07,1.38h.07a4.66,4.66,0,0,1,.49-.53,3.74,3.74,0,0,1,.66-.51,3.78,3.78,0,0,1,.81-.38,3.12,3.12,0,0,1,1-.15,1.91,1.91,0,0,1,1.27.39,1.62,1.62,0,0,1,.47,1.35,6,6,0,0,1-.14,1.15l-1.15,5.34Z"/><path class="cls-3" d="M206.84,90a4.21,4.21,0,0,1-1.17,2.31,3.17,3.17,0,0,1-2.19.73,4.66,4.66,0,0,1-1.71-.26,10.41,10.41,0,0,1-1-.46l.53-.9.32.17a3.3,3.3,0,0,0,.45.2,3.72,3.72,0,0,0,.64.16,5.75,5.75,0,0,0,.89.06,1.76,1.76,0,0,0,1.35-.58,3.72,3.72,0,0,0,.82-1.81l.29-1.35H206c-.15.2-.32.39-.49.58a4.65,4.65,0,0,1-.59.49,2.84,2.84,0,0,1-.7.34,2.45,2.45,0,0,1-.83.13,1.75,1.75,0,0,1-1.4-.63,2.7,2.7,0,0,1-.53-1.78,7.84,7.84,0,0,1,.3-2.14,6.42,6.42,0,0,1,.88-1.91,4.74,4.74,0,0,1,1.45-1.37,3.62,3.62,0,0,1,2-.53,6.69,6.69,0,0,1,1.46.14,6,6,0,0,1,1,.36Zm-3-1.22a1.68,1.68,0,0,0,.8-.21,3.08,3.08,0,0,0,.72-.54,5.78,5.78,0,0,0,.6-.71c.17-.26.32-.5.44-.73l.82-3.87a1.8,1.8,0,0,0-.63-.2,6.17,6.17,0,0,0-.75,0,2.2,2.2,0,0,0-1.23.38,3.61,3.61,0,0,0-1,1,5.86,5.86,0,0,0-.65,1.5,6.61,6.61,0,0,0-.24,1.79,2,2,0,0,0,.3,1.16A.91.91,0,0,0,203.81,88.73Z"/><path class="cls-3" d="M266.65,237.32h-1.72l-.3-1.57a3.11,3.11,0,0,0-.87-.33,5.3,5.3,0,0,0-1.22-.14,2.33,2.33,0,0,0-1.46.4,1.22,1.22,0,0,0-.51,1,1.13,1.13,0,0,0,.54,1,7.48,7.48,0,0,0,1.85.78,7.38,7.38,0,0,1,2.87,1.39,2.88,2.88,0,0,1,1,2.27,2.72,2.72,0,0,1-1.16,2.32,5,5,0,0,1-3.06.85,6.82,6.82,0,0,1-2.46-.43,5,5,0,0,1-1.82-1.2v-2.38h1.77l.25,1.62a2.7,2.7,0,0,0,.93.47,4.6,4.6,0,0,0,1.33.18,2.26,2.26,0,0,0,1.43-.38,1.24,1.24,0,0,0,.49-1,1.34,1.34,0,0,0-.47-1.06,4.52,4.52,0,0,0-1.63-.75,9.36,9.36,0,0,1-3.08-1.4,2.65,2.65,0,0,1-1.05-2.22,2.74,2.74,0,0,1,1.18-2.27,4.94,4.94,0,0,1,3-.91,7.12,7.12,0,0,1,2.41.4,5.8,5.8,0,0,1,1.82,1.07Z"/><path class="cls-3" d="M271.76,243.51a1.33,1.33,0,0,0,1-.36,1.24,1.24,0,0,0,.37-1h2.07l0,.05a2.64,2.64,0,0,1-1,2.15,4.08,4.08,0,0,1-5.41-.33,4.56,4.56,0,0,1-1-3.09v-.23a4.5,4.5,0,0,1,1.06-3.09,3.77,3.77,0,0,1,3-1.21,5.13,5.13,0,0,1,1.85.31,3.6,3.6,0,0,1,1.35.86l0,2.27h-1.86l-.37-1.33a1.37,1.37,0,0,0-.43-.24,1.45,1.45,0,0,0-.57-.1,1.43,1.43,0,0,0-1.37.7,3.68,3.68,0,0,0-.4,1.83V241a4,4,0,0,0,.36,1.84A1.35,1.35,0,0,0,271.76,243.51Z"/><path class="cls-3" d="M281.65,245.1c-.06-.14-.11-.28-.16-.43a3.69,3.69,0,0,1-.11-.45,3.27,3.27,0,0,1-1,.76,3,3,0,0,1-1.34.29,2.84,2.84,0,0,1-2-.68,2.42,2.42,0,0,1-.73-1.85,2.11,2.11,0,0,1,1-1.85,5,5,0,0,1,2.81-.65h1.17v-.83a1.28,1.28,0,0,0-.35-.95,1.5,1.5,0,0,0-1.05-.34,2.53,2.53,0,0,0-.7.09,1.6,1.6,0,0,0-.49.22l-.15.91H276.8v-1.89a6.44,6.44,0,0,1,1.44-.71,5.3,5.3,0,0,1,1.77-.29,4.09,4.09,0,0,1,2.57.77,2.66,2.66,0,0,1,1,2.21v3.88l0,.33.7.09v1.37Zm-2-1.53a2,2,0,0,0,.94-.22,1.93,1.93,0,0,0,.66-.56v-1.3H280.1a1.64,1.64,0,0,0-1.11.34,1.07,1.07,0,0,0-.37.82.87.87,0,0,0,.27.68A1.17,1.17,0,0,0,279.67,243.57Z"/><path class="cls-3" d="M284.84,234.24v-1.39h3.51v10.64l1.11.24v1.37H285v-1.37l1.11-.24v-9Z"/><path class="cls-3" d="M295.62,245.1a3.2,3.2,0,0,1-.17-.43c0-.15-.08-.3-.11-.45a3.27,3.27,0,0,1-1,.76,3,3,0,0,1-1.34.29,2.82,2.82,0,0,1-2-.68,2.4,2.4,0,0,1-.74-1.85,2.11,2.11,0,0,1,1-1.85,5.05,5.05,0,0,1,2.81-.65h1.17v-.83a1.24,1.24,0,0,0-.35-.95,1.48,1.48,0,0,0-1-.34,2.43,2.43,0,0,0-.7.09,1.67,1.67,0,0,0-.5.22l-.15.91h-1.73v-1.89a6.44,6.44,0,0,1,1.44-.71,5.39,5.39,0,0,1,1.77-.29,4.07,4.07,0,0,1,2.57.77,2.63,2.63,0,0,1,1,2.21v3.51c0,.13,0,.25,0,.37a1.84,1.84,0,0,0,0,.33l.69.09v1.37Zm-2-1.53a2,2,0,0,0,.94-.22,1.76,1.76,0,0,0,.66-.56v-1.3h-1.17a1.63,1.63,0,0,0-1.1.34,1,1,0,0,0-.38.82.84.84,0,0,0,.28.68A1.13,1.13,0,0,0,293.63,243.57Z"/><path class="cls-3" d="M358,233.67v1.38l-1.23.24v6.38a3.36,3.36,0,0,1-1.08,2.63,3.92,3.92,0,0,1-2.73,1,4.29,4.29,0,0,1-2.83-.87,3.07,3.07,0,0,1-1-2.57l0-.05h2.23a1.76,1.76,0,0,0,.43,1.32,1.64,1.64,0,0,0,1.16.41,1.38,1.38,0,0,0,1.08-.49,1.93,1.93,0,0,0,.45-1.35v-6.38l-1.23-.24v-1.38H358Z"/><path class="cls-3" d="M364.14,245.1a3.2,3.2,0,0,1-.17-.43,3.69,3.69,0,0,1-.11-.45,3.27,3.27,0,0,1-1,.76,3,3,0,0,1-1.34.29,2.8,2.8,0,0,1-2-.68,2.4,2.4,0,0,1-.74-1.85,2.11,2.11,0,0,1,1-1.85,5.05,5.05,0,0,1,2.81-.65h1.17v-.83a1.28,1.28,0,0,0-.35-.95,1.5,1.5,0,0,0-1-.34,2.53,2.53,0,0,0-.7.09,1.6,1.6,0,0,0-.49.22l-.15.91h-1.73v-1.89a6.44,6.44,0,0,1,1.44-.71,5.3,5.3,0,0,1,1.77-.29,4.09,4.09,0,0,1,2.57.77,2.66,2.66,0,0,1,1,2.21v3.88l0,.33.7.09v1.37Zm-2-1.53a2,2,0,0,0,.94-.22,1.93,1.93,0,0,0,.66-.56v-1.3h-1.17a1.64,1.64,0,0,0-1.11.34,1.07,1.07,0,0,0-.37.82.84.84,0,0,0,.28.68A1.13,1.13,0,0,0,362.15,243.57Z"/><path class="cls-3" d="M371.05,238l-.81.15,1.13,3.8.15.8h0l.17-.8,1.11-3.79L372,238v-1.38h3.86V238l-.74.12-2.51,7h-2.19l-2.51-7-.74-.12v-1.38h3.86Z"/><path class="cls-3" d="M381.9,245.1c-.06-.14-.12-.28-.17-.43a3.63,3.63,0,0,1-.1-.45,3.44,3.44,0,0,1-1,.76,3,3,0,0,1-1.34.29,2.82,2.82,0,0,1-2-.68,2.39,2.39,0,0,1-.73-1.85,2.1,2.1,0,0,1,.95-1.85,5.07,5.07,0,0,1,2.82-.65h1.16v-.83a1.24,1.24,0,0,0-.35-.95,1.46,1.46,0,0,0-1-.34,2.48,2.48,0,0,0-.7.09,1.67,1.67,0,0,0-.5.22l-.15.91h-1.72v-1.89a6.31,6.31,0,0,1,1.45-.71,5.3,5.3,0,0,1,1.77-.29,4.06,4.06,0,0,1,2.56.77,2.64,2.64,0,0,1,1,2.21v3.88a1.84,1.84,0,0,0,0,.33l.7.09v1.37Zm-2-1.53a2,2,0,0,0,.95-.22,1.8,1.8,0,0,0,.65-.56v-1.3h-1.16a1.64,1.64,0,0,0-1.11.34,1.08,1.08,0,0,0-.38.82.84.84,0,0,0,.28.68A1.15,1.15,0,0,0,379.91,243.57Z"/><path class="cls-3" d="M100.45,233.67a4.78,4.78,0,0,1,3.06.89,3,3,0,0,1,1.1,2.46,2.45,2.45,0,0,1-.46,1.5,3.17,3.17,0,0,1-1.36,1,2.46,2.46,0,0,1,1.46,1,3.16,3.16,0,0,1,.44,1.72v.58a1,1,0,0,0,.15.58.64.64,0,0,0,.5.25l.28,0v1.38h-1.19a1.87,1.87,0,0,1-1.58-.6,2.53,2.53,0,0,1-.45-1.56v-.66A1.8,1.8,0,0,0,102,241a1.65,1.65,0,0,0-1.25-.5H98.83v3l1.22.24v1.37H95.31v-1.37l1.22-.24v-8.2l-1.22-.24v-1.38h5.14Zm-1.62,5h1.58a2.13,2.13,0,0,0,1.44-.41,1.45,1.45,0,0,0,.48-1.18,1.6,1.6,0,0,0-.48-1.22,1.91,1.91,0,0,0-1.4-.46H98.83Z"/><path class="cls-3" d="M168.47,233.67a4.52,4.52,0,0,1,3.1,1,3.65,3.65,0,0,1,0,5.28,4.56,4.56,0,0,1-3.1,1h-1.93v2.53l1.22.24v1.37H163v-1.37l1.22-.24v-8.2l-1.22-.24v-1.38h5.45Zm-1.93,5.52h1.93a1.75,1.75,0,0,0,1.94-1.85,2,2,0,0,0-.49-1.37,1.9,1.9,0,0,0-1.45-.53h-1.93Z"/><path class="cls-3" d="M182.4,238l-.79.12-3.13,8.27a4.45,4.45,0,0,1-1,1.53,2.48,2.48,0,0,1-1.85.63,3.12,3.12,0,0,1-.55,0l-.6-.14.27-1.67.23,0,.2,0a1.24,1.24,0,0,0,.88-.28,2,2,0,0,0,.47-.69l.26-.65-2.69-7-.8-.12v-1.38h4.16V238l-.95.16,1.17,3.39.11.61h0l1.34-4-.95-.16v-1.38h4.16Z"/><path class="cls-3" d="M186.51,234.53v2.08H188v1.61h-1.49v4.32a1,1,0,0,0,.2.71.74.74,0,0,0,.55.21,2.55,2.55,0,0,0,.41,0l.4-.06.19,1.65a5.23,5.23,0,0,1-.76.18,5.13,5.13,0,0,1-.81.06,2.48,2.48,0,0,1-1.83-.65,2.87,2.87,0,0,1-.64-2.07v-4.33H183v-1.61h1.25v-2.08Z"/><path class="cls-3" d="M189,243.73l1.1-.24v-9l-1.22-.23v-1.39h3.51v4.84a2.75,2.75,0,0,1,1-.91,2.83,2.83,0,0,1,3.38.55,4.1,4.1,0,0,1,.76,2.73v3.43l1.1.24v1.37h-4.38v-1.37l1-.24v-3.44a2.19,2.19,0,0,0-.35-1.4,1.29,1.29,0,0,0-1-.42,1.86,1.86,0,0,0-.84.18,1.56,1.56,0,0,0-.6.48v4.6l1,.24v1.37H189Z"/><path class="cls-3" d="M199.27,240.78a4.56,4.56,0,0,1,1.06-3.12,4.19,4.19,0,0,1,5.89,0,4.54,4.54,0,0,1,1.06,3.12v.16a4.52,4.52,0,0,1-1.06,3.12,4.19,4.19,0,0,1-5.89,0,4.52,4.52,0,0,1-1.06-3.12Zm2.29.16a3.73,3.73,0,0,0,.41,1.87,1.57,1.57,0,0,0,2.62,0,3.71,3.71,0,0,0,.41-1.86v-.16a3.62,3.62,0,0,0-.42-1.85,1.55,1.55,0,0,0-2.61,0,3.73,3.73,0,0,0-.41,1.85Z"/><path class="cls-3" d="M208.16,243.73l1.1-.24v-5.27L208,238v-1.38h3.35l.1,1.21a3.25,3.25,0,0,1,1-1,2.72,2.72,0,0,1,1.39-.36,2.55,2.55,0,0,1,2,.81,3.74,3.74,0,0,1,.72,2.54v3.69l1.1.24v1.37h-4.38v-1.37l1-.24V239.8a1.67,1.67,0,0,0-.35-1.21,1.37,1.37,0,0,0-1-.36,1.71,1.71,0,0,0-.82.19,1.58,1.58,0,0,0-.6.52v4.55l.93.24v1.37h-4.32Z"/><path class="cls-3" d="M140.08,27.58l.76-.11,3.25-9.27h2.19l3.22,9.27.76.11v1.28h-3.63V27.58l.74-.13L146.9,26h-3.46L143,27.45l.75.13v1.28h-3.64ZM144,24.41h2.44l-1.2-3.76h0Z"/><path class="cls-3" d="M151.18,22.22V20.93h4.19v1.29l-.92.22v1.7h2.61v-1.7l-.92-.22V20.93h4.2v1.29l-1.14.22v4.92l1.14.22v1.28h-4.2V27.58l.92-.22V25.78h-2.61v1.58l.92.22v1.28h-4.19V27.58l1.14-.22V22.44Z"/><path class="cls-3" d="M166.43,28.86c-.06-.13-.11-.27-.16-.41a3.2,3.2,0,0,1-.1-.42A2.81,2.81,0,0,1,164,29a2.64,2.64,0,0,1-1.85-.63,2.25,2.25,0,0,1-.68-1.72,2,2,0,0,1,.89-1.73,4.74,4.74,0,0,1,2.63-.6h1.09v-.78a1.18,1.18,0,0,0-.33-.89,1.37,1.37,0,0,0-1-.31,2.57,2.57,0,0,0-.65.08,2.25,2.25,0,0,0-.46.2l-.14.85H161.9V21.73a5.79,5.79,0,0,1,1.34-.67,4.92,4.92,0,0,1,1.65-.27,3.76,3.76,0,0,1,2.39.72,2.43,2.43,0,0,1,.92,2v3.28c0,.12,0,.24,0,.34a3,3,0,0,0,0,.31l.65.09v1.28Zm-1.86-1.43a1.84,1.84,0,0,0,.88-.21,1.69,1.69,0,0,0,.62-.52V25.49H165a1.52,1.52,0,0,0-1,.32,1,1,0,0,0-.35.76.8.8,0,0,0,.26.63A1,1,0,0,0,164.57,27.43Z"/><path class="cls-3" d="M174,27.58l1.14-.22V22.59h-1.9v1.72a6.47,6.47,0,0,1-.72,3.45,2.72,2.72,0,0,1-2.46,1.1h-.34l0-1.69h.24a.91.91,0,0,0,.95-.6,7.56,7.56,0,0,0,.22-2.26V22.44L170,22.22V20.93h8.46v1.29l-1.15.22v4.92l1.15.22v1.28H174Z"/><path class="cls-3" d="M183.86,20.93v1.29l-1,.22v3.31h0l2.57-4.82h3.28v1.29l-1.14.22v4.92l1.14.22v1.28h-4.3V27.58l1-.22V24h0l-2.58,4.83h-3.28V27.58l1.14-.22V22.44l-1.14-.22V20.93h4.31Z"/><path class="cls-3" d="M193.19,24.13a1.19,1.19,0,0,0,.8-.23.81.81,0,0,0,.25-.64.93.93,0,0,0-.24-.65,1.08,1.08,0,0,0-.8-.26,1.42,1.42,0,0,0-.84.23.73.73,0,0,0-.32.63H190l0,0a1.92,1.92,0,0,1,.87-1.72,3.74,3.74,0,0,1,2.27-.65,4.22,4.22,0,0,1,2.4.6,1.94,1.94,0,0,1,.89,1.7,1.59,1.59,0,0,1-.33,1,2.1,2.1,0,0,1-.89.7,2.16,2.16,0,0,1,1,.7,1.86,1.86,0,0,1,.34,1.14,2,2,0,0,1-.94,1.75,4.43,4.43,0,0,1-2.48.64,4.18,4.18,0,0,1-2.33-.63,1.94,1.94,0,0,1-.93-1.82v0h2.07a.86.86,0,0,0,.34.68,1.49,1.49,0,0,0,.95.27,1.24,1.24,0,0,0,.89-.29,1,1,0,0,0,.29-.7.93.93,0,0,0-.29-.75,1.42,1.42,0,0,0-.9-.24h-1.14V24.13Z"/><path class="cls-3" d="M205.88,20.93a4.63,4.63,0,0,1,2.47.56,1.84,1.84,0,0,1,.88,1.66,1.47,1.47,0,0,1-.37,1,2.39,2.39,0,0,1-1.05.65,2.46,2.46,0,0,1,1.36.67,1.59,1.59,0,0,1,.47,1.14,1.92,1.92,0,0,1-.84,1.69,4.27,4.27,0,0,1-2.41.57h-5V27.58l1.14-.22V22.44l-1.14-.22V20.93h4.45Zm-1.18,3.23H206a1.52,1.52,0,0,0,.83-.19.68.68,0,0,0,.26-.57.7.7,0,0,0-.3-.63,1.68,1.68,0,0,0-.91-.2H204.7Zm0,1.4v1.67h1.69a1.37,1.37,0,0,0,.84-.21.71.71,0,0,0,.27-.61.77.77,0,0,0-.26-.63,1.29,1.29,0,0,0-.85-.22Z"/><path class="cls-3" d="M137.28,37.77V36.48h3.11l.1.92a2.73,2.73,0,0,1,.84-.79,2.36,2.36,0,0,1,1.15-.28,2.63,2.63,0,0,1,2.28,1.16,5.12,5.12,0,0,1,.82,3v.15a4.57,4.57,0,0,1-.82,2.83,2.7,2.7,0,0,1-2.27,1.07,2.57,2.57,0,0,1-1.1-.23,2.17,2.17,0,0,1-.83-.68v2.29l1,.22v1.29h-4.2V46.16l1-.22V38Zm6.16,2.74a3.84,3.84,0,0,0-.38-1.82,1.22,1.22,0,0,0-1.14-.69,1.51,1.51,0,0,0-.82.2,1.33,1.33,0,0,0-.54.56v3.47a1.21,1.21,0,0,0,.54.51,1.73,1.73,0,0,0,.83.18,1.22,1.22,0,0,0,1.14-.61,3.1,3.1,0,0,0,.37-1.65Z"/><path class="cls-3" d="M150.32,44.56a3.58,3.58,0,0,1-2.74-1.1,3.93,3.93,0,0,1-1-2.79v-.29a4.32,4.32,0,0,1,1-2.91,3.6,3.6,0,0,1,5.09-.17,3.75,3.75,0,0,1,.89,2.62v1.16h-4.73l0,0a2,2,0,0,0,.52,1.29,1.66,1.66,0,0,0,1.27.51,4.38,4.38,0,0,0,1.18-.14,6.15,6.15,0,0,0,1-.45l.58,1.31a4.31,4.31,0,0,1-1.27.66A5.58,5.58,0,0,1,150.32,44.56ZM150.13,38a1.11,1.11,0,0,0-.94.46,2.31,2.31,0,0,0-.42,1.19l0,0h2.62v-.19a1.67,1.67,0,0,0-.32-1.09A1.14,1.14,0,0,0,150.13,38Z"/><path class="cls-3" d="M159.56,44.41l-.15-.41a3.2,3.2,0,0,1-.1-.42,3,3,0,0,1-.93.71,2.77,2.77,0,0,1-1.25.27,2.64,2.64,0,0,1-1.85-.63,2.27,2.27,0,0,1-.68-1.73,2,2,0,0,1,.89-1.72,4.72,4.72,0,0,1,2.62-.61h1.1V39.1a1.18,1.18,0,0,0-.33-.89,1.37,1.37,0,0,0-1-.31,2.18,2.18,0,0,0-.65.08,1.81,1.81,0,0,0-.46.2l-.14.85H155V37.27a6,6,0,0,1,1.34-.66,4.65,4.65,0,0,1,1.65-.28,3.76,3.76,0,0,1,2.39.73,2.43,2.43,0,0,1,.92,2v3.27c0,.13,0,.24,0,.35a3,3,0,0,0,0,.31l.65.08v1.29ZM157.71,43a1.84,1.84,0,0,0,.88-.21,1.78,1.78,0,0,0,.62-.52V41h-1.1a1.46,1.46,0,0,0-1,.32,1,1,0,0,0-.35.76.8.8,0,0,0,.26.63A1.05,1.05,0,0,0,157.71,43Z"/><path class="cls-3" d="M167.14,43.12l1.14-.21V38.14h-1.9v1.72a6.41,6.41,0,0,1-.72,3.44,2.72,2.72,0,0,1-2.46,1.11h-.34l0-1.69h.24a.91.91,0,0,0,1-.6,7.83,7.83,0,0,0,.22-2.25V38l-1.14-.22V36.48h8.45v1.29l-1.14.22v4.92l1.14.21v1.29h-4.41Z"/><path class="cls-3" d="M176,36.48V39h1.49a4,4,0,0,1,2.53.72,2.34,2.34,0,0,1,.91,1.92,2.44,2.44,0,0,1-.92,2,3.86,3.86,0,0,1-2.52.75h-4.77V43.12l1.15-.21V38l-1.15-.22V36.48H176Zm1.15,0v1.29L176,38V36.48ZM176,40.58v2.19h1.49a1.43,1.43,0,0,0,1-.29,1,1,0,0,0,.33-.78,1.08,1.08,0,0,0-.32-.81,1.41,1.41,0,0,0-1-.31Z"/><path class="cls-3" d="M181.88,37.77V36.48h4.19v1.29l-.92.22v1.7h2.61V38l-.92-.22V36.48H191v1.29l-1.15.22v4.92l1.15.21v1.29h-4.2V43.12l.92-.21V41.33h-2.61v1.58l.92.21v1.29h-4.19V43.12l1.14-.21V38Z"/><path class="cls-3" d="M192.08,40.37a4.23,4.23,0,0,1,1-2.9,3.43,3.43,0,0,1,2.74-1.14,3.48,3.48,0,0,1,2.75,1.13,4.24,4.24,0,0,1,1,2.91v.15a4.25,4.25,0,0,1-1,2.92,3.44,3.44,0,0,1-2.73,1.12,3.48,3.48,0,0,1-2.76-1.12,4.25,4.25,0,0,1-1-2.92Zm2.14.15a3.35,3.35,0,0,0,.38,1.74,1.46,1.46,0,0,0,2.44,0,3.4,3.4,0,0,0,.38-1.74v-.15a3.48,3.48,0,0,0-.38-1.72,1.31,1.31,0,0,0-1.23-.67,1.28,1.28,0,0,0-1.21.67,3.37,3.37,0,0,0-.38,1.72Z"/><path class="cls-3" d="M206.5,41.92h0l2-5.44h3.81v1.29l-1.13.22v4.92l1.13.21v1.29h-4.08V43.12l.81-.21V39.69h0l-1.84,4.73H205.8L204,39.77h0v3.13l.82.21v1.29h-4.09V43.12l1.14-.21V38l-1.14-.22V36.48h3.79Z"/><path class="cls-3" d="M146,52a4.6,4.6,0,0,1,2.46.55,1.85,1.85,0,0,1,.89,1.66,1.52,1.52,0,0,1-.37,1,2.31,2.31,0,0,1-1,.66,2.52,2.52,0,0,1,1.36.66,1.62,1.62,0,0,1,.47,1.14,1.91,1.91,0,0,1-.84,1.69,4.27,4.27,0,0,1-2.41.57h-5V58.67l1.14-.22V53.54l-1.14-.22V52H146Zm-1.18,3.23h1.3a1.45,1.45,0,0,0,.82-.2.64.64,0,0,0,.27-.56.72.72,0,0,0-.3-.64,1.71,1.71,0,0,0-.91-.2h-1.18Zm0,1.39v1.68h1.69a1.37,1.37,0,0,0,.84-.21.74.74,0,0,0,.27-.62.8.8,0,0,0-.26-.63,1.31,1.31,0,0,0-.85-.22Z"/><path class="cls-3" d="M150.59,53.32V52h3.11l.1.92a2.53,2.53,0,0,1,.84-.79,2.35,2.35,0,0,1,1.14-.28A2.65,2.65,0,0,1,158.07,53a5.17,5.17,0,0,1,.81,3v.15a4.57,4.57,0,0,1-.81,2.83,2.7,2.7,0,0,1-2.27,1.07,2.62,2.62,0,0,1-1.11-.23,2.32,2.32,0,0,1-.82-.68v2.29l1,.22V63h-4.2V61.71l1-.22v-8Zm6.15,2.74a3.82,3.82,0,0,0-.37-1.82,1.23,1.23,0,0,0-1.14-.7,1.67,1.67,0,0,0-.83.2,1.39,1.39,0,0,0-.53.57v3.47a1.37,1.37,0,0,0,.53.51,1.8,1.8,0,0,0,.84.18,1.24,1.24,0,0,0,1.14-.61,3.26,3.26,0,0,0,.36-1.65Z"/><path class="cls-3" d="M163.63,60.11a3.58,3.58,0,0,1-2.74-1.1,3.94,3.94,0,0,1-1-2.79v-.3a4.36,4.36,0,0,1,1-2.9,3.26,3.26,0,0,1,2.61-1.14,3.19,3.19,0,0,1,2.49,1,3.72,3.72,0,0,1,.88,2.61v1.17h-4.73v0a2.09,2.09,0,0,0,.52,1.29,1.63,1.63,0,0,0,1.27.51,4,4,0,0,0,1.18-.15,4.83,4.83,0,0,0,1-.45l.58,1.32a4.08,4.08,0,0,1-1.27.65A5.29,5.29,0,0,1,163.63,60.11Zm-.19-6.58a1.12,1.12,0,0,0-.94.45,2.35,2.35,0,0,0-.42,1.2l0,0h2.62V55a1.71,1.71,0,0,0-.32-1.08A1.12,1.12,0,0,0,163.44,53.53Z"/><path class="cls-3" d="M173.84,57.46h0l2-5.43h3.81v1.29l-1.13.22v4.91l1.13.22V60h-4.08V58.67l.81-.22V55.24h0L174.58,60h-1.44l-1.79-4.63h0v3.12l.82.22V60H168V58.67l1.14-.22V53.54L168,53.32V52h3.79Z"/><path class="cls-3" d="M184.54,60.11A3.58,3.58,0,0,1,181.8,59a3.94,3.94,0,0,1-1-2.79v-.3a4.36,4.36,0,0,1,1-2.9,3.26,3.26,0,0,1,2.61-1.14,3.19,3.19,0,0,1,2.49,1,3.72,3.72,0,0,1,.88,2.61v1.17H183v0A2.09,2.09,0,0,0,183.5,58a1.63,1.63,0,0,0,1.27.51,4,4,0,0,0,1.18-.15,4.83,4.83,0,0,0,1-.45l.58,1.32a4.08,4.08,0,0,1-1.27.65A5.29,5.29,0,0,1,184.54,60.11Zm-.19-6.58a1.12,1.12,0,0,0-.94.45,2.35,2.35,0,0,0-.42,1.2l0,0h2.62V55a1.71,1.71,0,0,0-.32-1.08A1.12,1.12,0,0,0,184.35,53.53Z"/><path class="cls-3" d="M188.9,53.32V52h4.19v1.29l-.92.22v1.7h2.61v-1.7l-.92-.22V52h4.2v1.29l-1.14.22v4.91l1.14.22V60h-4.2V58.67l.92-.22V56.88h-2.61v1.57l.92.22V60H188.9V58.67l1.14-.22V53.54Z"/><path class="cls-3" d="M203.57,52v1.29l-1,.22v3.3h0L205.16,52h3.28v1.29l-1.14.22v4.91l1.14.22V60h-4.3V58.67l1-.22V55.13h0L202.54,60h-3.28V58.67l1.14-.22V53.54l-1.14-.22V52h4.31Z"/><path class="cls-8" d="M246.93,192c-.07-.15-.1-.22-.14-.29-1-1.88-2-3.76-3-5.64a.34.34,0,0,1,.05-.46c1.57-1.84,3.12-3.68,4.7-5.51a.58.58,0,0,0,.12-.25l-1.37.36c-1.9.5-3.81,1-5.69,1.51a.25.25,0,0,1-.34-.15c-1.08-1.8-2.16-3.61-3.25-5.38a.66.66,0,0,0-.24-.26c-.09.48-.17.95-.26,1.43-.3,1.7-.61,3.38-.9,5.08a5.3,5.3,0,0,0-.1.55c0,.17-.1.24-.26.29l-6.71,2.12a.68.68,0,0,0-.29.17l5.51,2.19-.17.12-3.42,2.22a.39.39,0,0,1-.4,0c-1.37-.62-2.75-1.22-4.12-1.83a4.27,4.27,0,0,1-1.59-1.17,2.12,2.12,0,0,1,.51-3.37,5.61,5.61,0,0,1,1.39-.63c2.19-.72,4.39-1.41,6.58-2.1a.37.37,0,0,0,.3-.34c.3-1.69.6-3.4.91-5.08a8.78,8.78,0,0,1,.69-2.66,4.6,4.6,0,0,1,.61-.9,2,2,0,0,1,3-.08,5.54,5.54,0,0,1,.81,1.05c1,1.66,2,3.33,3,5a.33.33,0,0,0,.45.18l7.36-2a3.49,3.49,0,0,1,1.54-.08,1.51,1.51,0,0,1,1.24,2.16,4.27,4.27,0,0,1-.81,1.32l-5.13,6a.35.35,0,0,0-.05.47c1,1.93,2,3.86,3.07,5.81a3.11,3.11,0,0,1,.44,1.48,2.37,2.37,0,0,1-2.07,2.37,4.21,4.21,0,0,1-1.93-.24l-4.62-1.4a.28.28,0,0,1-.23-.26c-.17-1.08-.37-2.16-.56-3.25,0,0,0-.06,0-.12L247,192"/><path class="cls-9" d="M243.88,207.86h-4.16a.39.39,0,0,1-.39-.21c-1.64-2.5-3.3-5-4.93-7.49l-.2-.29c-.35,2.69-.7,5.34-1,8h-3.63c0-.36.08-.7.13-1,.35-2.72.71-5.41,1.06-8.12l1-7.77a.36.36,0,0,1,.13-.22l3.76-2.43.1,0c-.37,2.89-.75,5.76-1.13,8.63l0,0c2-2.18,3.93-4.36,5.94-6.57.06.33.11.62.16.91.14.82.27,1.64.42,2.46a.38.38,0,0,1-.12.38l-3.81,4a1.49,1.49,0,0,0-.17.18l.11.19,6.56,9.22a.92.92,0,0,0,.14.14v0"/><path class="cls-9" d="M201,199.74a11.06,11.06,0,0,0-.22-1.09,3.77,3.77,0,0,0-4.52-2.44,5,5,0,0,0-4,4.47,3.62,3.62,0,0,0,2.37,3.84,4.32,4.32,0,0,0,3.81-.44,5,5,0,0,0,2.54-4.34Zm-9.6,7c-.11.81-.21,1.57-.31,2.33-.13,1-.26,2-.39,3,0,.11,0,.17-.18.17h-3l-.09,0c.06-.47.11-.95.18-1.43l.66-5c.26-1.92.46-3.83.78-5.74a9,9,0,0,1,6.81-7,7,7,0,0,1,5.51.87,6.2,6.2,0,0,1,2.89,4.67,8.29,8.29,0,0,1-2.71,7.11,8.51,8.51,0,0,1-4.7,2.35,7,7,0,0,1-5.21-1.13l-.21-.14"/><path class="cls-9" d="M189.7,190.73l-3.28,2.44c-.17-.28-.33-.55-.51-.81a2.53,2.53,0,0,0-1.9-1.21,2.16,2.16,0,0,0-1.79.71,1.25,1.25,0,0,0-.09,1.65c.44.58.93,1.13,1.42,1.66.82.89,1.68,1.75,2.49,2.64a5.58,5.58,0,0,1,1.51,2.85,5.71,5.71,0,0,1-.67,3.73,7.53,7.53,0,0,1-8.53,3.62,4.67,4.67,0,0,1-2.94-2.57c-.22-.45-.39-.92-.58-1.4l3.55-1.91a2.26,2.26,0,0,0,.11.26,9.83,9.83,0,0,0,.62,1.21,2.4,2.4,0,0,0,3.15.89,3.49,3.49,0,0,0,.87-.56,1.86,1.86,0,0,0,.35-2.54,13,13,0,0,0-1.16-1.41c-1-1.07-2-2.12-2.92-3.22a5.14,5.14,0,0,1-1.24-2.64,4.55,4.55,0,0,1,.64-3.07,6.71,6.71,0,0,1,6.25-3.43,4.91,4.91,0,0,1,3.78,2c.29.36.56.73.85,1.12"/><path class="cls-9" d="M216.2,203c-.18,1.39-.35,2.72-.53,4a.26.26,0,0,1-.12.18,7.18,7.18,0,0,1-8.48-1.44,6.57,6.57,0,0,1-1.62-4.75,9,9,0,0,1,7.72-8.28,6.59,6.59,0,0,1,6.12,2.22,6.16,6.16,0,0,1,1.54,4.47c-.05,1.11-.22,2.21-.36,3.3-.19,1.56-.41,3.12-.61,4.67,0,.06,0,.11,0,.18H216.6c0-.36.08-.71.13-1.06.23-1.8.49-3.6.7-5.4a5.78,5.78,0,0,0-.47-3.28,3.19,3.19,0,0,0-2.67-1.82,5,5,0,0,0-5.38,3.91,3.77,3.77,0,0,0,1.49,4,4.07,4.07,0,0,0,4,.3,5.21,5.21,0,0,0,1.84-1.3"/><path class="cls-9" d="M229.91,193.21c-.14,1.13-.29,2.23-.44,3.36h-2a1.27,1.27,0,0,0-1.21.86,4.23,4.23,0,0,0-.11.62c-.34,2.59-.68,5.15-1,7.72-.08.65-.17,1.3-.25,2h-3.38c.07-.5.12-1,.19-1.46.22-1.67.44-3.35.66-5,.19-1.44.36-2.89.59-4.34a4.66,4.66,0,0,1,4.16-3.73c.93,0,1.86,0,2.82,0"/><path class="cls-3" d="M247.94,207.86v-1.42h0l-.55,1.42h-.18l-.56-1.42h0v1.42h-.28v-1.7h.44l.5,1.3.5-1.3h.43v1.7Zm-2.47-1.47v1.47h-.28v-1.47h-.53v-.23H246v.23h-.53"/><path class="cls-3" d="M194.19,188.34H195l-.2-1.27Zm1,.82h-1.39l-.44.86h-1l2.17-4.06h1l.74,4.06h-.91l-.13-.86"/><path class="cls-3" d="M200.13,186.79h-.49l-.17.94H200a.52.52,0,0,0,.54-.57.34.34,0,0,0-.37-.37Zm-1.2-.82h1.3a1.06,1.06,0,0,1,1.16,1.1,1.41,1.41,0,0,1-1.5,1.47h-.57l-.26,1.49h-.85l.72-4.06"/><path class="cls-3" d="M204.27,188.34h.84l-.2-1.27Zm1,.82h-1.38l-.45.86h-1l2.17-4.06h.95l.74,4.06h-.91l-.13-.86"/><path class="cls-3" d="M210.62,189.89a2.25,2.25,0,0,1-.92.21,1.71,1.71,0,0,1-1.75-1.82,2.4,2.4,0,0,1,2.38-2.37,1.78,1.78,0,0,1,.85.21l-.12,1a1.09,1.09,0,0,0-.82-.33,1.45,1.45,0,0,0-1.4,1.44,1,1,0,0,0,1,1.05,1.52,1.52,0,0,0,.93-.33l-.11,1"/><path class="cls-3" d="M216,188.39h-1.76L213.9,190h-.85l.72-4.06h.85l-.29,1.6h1.77l.28-1.6h.85l-.71,4.06h-.85l.28-1.63"/><path class="cls-3" d="M219,190l.71-4.06H222l-.14.82h-1.4l-.15.79h1.29l-.14.81h-1.29l-.14.82h1.4l-.14.82H219"/><path class="cls-10" d="M228.41,140.46a12.64,12.64,0,1,1-3.78,9,12.4,12.4,0,0,1,2.58-7.65"/><path class="cls-11" d="M236.94,155.56h-4.57c-.63,0-.87-.24-.87-.86v-7c0-.62.24-.86.87-.86h9.1c.59,0,.83.24.83.83v7c0,.59-.24.83-.83.83C240,155.6,238.43,155.56,236.94,155.56Z"/><path class="cls-11" d="M232.25,146.27a4.83,4.83,0,0,1,2.84-4.45,4.52,4.52,0,0,1,6.22,3.07c.1.41.14.83.25,1.28"/><path class="cls-12" d="M236.18,152.59h0v.93c0,.18.07.24.27.24h.91c.24,0,.31-.06.31-.27v-1.73a.4.4,0,0,1,.24-.42,1.32,1.32,0,0,0,.66-1.56,1.67,1.67,0,0,0-1.56-1,1.76,1.76,0,0,0-1.73.94,1.29,1.29,0,0,0,.59,1.63.44.44,0,0,1,.27.52A5,5,0,0,1,236.18,152.59Z"/><line class="cls-13" x1="53.83" y1="118.45" x2="53.83" y2="166.43"/><polygon class="cls-12" points="42.38 157.15 44.43 155.24 53.82 165.35 63.22 155.24 65.28 157.15 53.82 169.47 42.38 157.15"/><line class="cls-13" x1="174.99" y1="118.45" x2="174.99" y2="166.43"/><polygon class="cls-12" points="163.53 157.15 165.59 155.24 174.98 165.35 184.38 155.24 186.44 157.15 174.98 169.47 163.53 157.15"/><line class="cls-13" x1="298.83" y1="118.45" x2="298.83" y2="166.43"/><polygon class="cls-12" points="287.38 157.15 289.43 155.24 298.82 165.35 308.23 155.24 310.28 157.15 298.82 169.47 287.38 157.15"/><line class="cls-13" x1="419.45" y1="118.45" x2="419.45" y2="166.43"/><polygon class="cls-12" points="408 157.15 410.05 155.24 419.45 165.35 428.85 155.24 430.9 157.15 419.45 169.47 408 157.15"/><rect class="cls-14" x="-1" y="-1" width="473.87" height="265.53"/></g></svg>