<?xml version="1.0" encoding="UTF-8"?>
<svg id="Ebene_1" data-name="Ebene 1" xmlns="http://www.w3.org/2000/svg" xmlns:xlink="http://www.w3.org/1999/xlink" version="1.1" viewBox="0 0 543.8 235">
  <defs>
    <style>
      .cls-1 {
        fill: url(#Unbenannter_Verlauf);
      }

      .cls-1, .cls-2, .cls-3, .cls-4, .cls-5, .cls-6, .cls-7 {
        stroke-width: 0px;
      }

      .cls-8, .cls-9, .cls-10, .cls-11, .cls-12, .cls-13, .cls-14, .cls-15, .cls-16 {
        fill: none;
      }

      .cls-8, .cls-9, .cls-17, .cls-18, .cls-11, .cls-13, .cls-14, .cls-19, .cls-20, .cls-21, .cls-15 {
        stroke-miterlimit: 10;
      }

      .cls-8, .cls-10, .cls-12, .cls-15, .cls-16 {
        stroke-linecap: round;
      }

      .cls-8, .cls-17, .cls-18, .cls-11, .cls-15 {
        stroke-width: 3px;
      }

      .cls-8, .cls-11 {
        stroke: #fff;
      }

      .cls-2 {
        fill: #eee;
      }

      .cls-9, .cls-10, .cls-12, .cls-13, .cls-14, .cls-19, .cls-20, .cls-21 {
        stroke-width: 2px;
      }

      .cls-9, .cls-17, .cls-18, .cls-12, .cls-13, .cls-14, .cls-19, .cls-20, .cls-21, .cls-15 {
        stroke: #fc0;
      }

      .cls-10 {
        stroke: #38af72;
      }

      .cls-10, .cls-12, .cls-16 {
        stroke-linejoin: round;
      }

      .cls-17 {
        fill: url(#Unbenannter_Verlauf_6);
      }

      .cls-18 {
        fill: url(#Unbenannter_Verlauf_2);
      }

      .cls-3 {
        fill: #38af72;
      }

      .cls-4 {
        fill: #fc0;
      }

      .cls-5, .cls-6 {
        fill: #39f;
      }

      .cls-13 {
        stroke-dasharray: 0 0 2 2;
      }

      .cls-14 {
        stroke-dasharray: 0 0 2 2;
      }

      .cls-19 {
        fill: url(#Unbenannter_Verlauf_5);
      }

      .cls-20 {
        fill: url(#Unbenannter_Verlauf_4);
      }

      .cls-21 {
        fill: url(#Unbenannter_Verlauf_3);
      }

      .cls-6 {
        opacity: .4;
      }

      .cls-6, .cls-22 {
        isolation: isolate;
      }

      .cls-7 {
        fill: #fff;
      }

      .cls-16 {
        stroke: #39f;
        stroke-width: 4px;
      }
    </style>
    <linearGradient id="Unbenannter_Verlauf" data-name="Unbenannter Verlauf" x1="0" y1="961.5" x2="543.8" y2="961.5" gradientTransform="translate(0 -844)" gradientUnits="userSpaceOnUse">
      <stop offset="0" stop-color="#981869"/>
      <stop offset=".2" stop-color="#771c65"/>
      <stop offset=".4" stop-color="#591f62"/>
      <stop offset=".6" stop-color="#432260"/>
      <stop offset=".8" stop-color="#36235e"/>
      <stop offset="1" stop-color="#32245e"/>
    </linearGradient>
    <linearGradient id="Unbenannter_Verlauf_2" data-name="Unbenannter Verlauf 2" x1="366.1" y1="969.6" x2="281.5" y2="969.6" gradientTransform="translate(0 -844)" gradientUnits="userSpaceOnUse">
      <stop offset="0" stop-color="#981869"/>
      <stop offset=".2" stop-color="#771c65"/>
      <stop offset=".4" stop-color="#591f62"/>
      <stop offset=".6" stop-color="#432260"/>
      <stop offset=".8" stop-color="#36235e"/>
      <stop offset="1" stop-color="#32245e"/>
    </linearGradient>
    <linearGradient id="Unbenannter_Verlauf_3" data-name="Unbenannter Verlauf 3" x1="-4986.1" y1="-16195.2" x2="-5013.2" y2="-16195.2" gradientTransform="translate(-15871.4 5078.5) rotate(90)" gradientUnits="userSpaceOnUse">
      <stop offset="0" stop-color="#981869"/>
      <stop offset=".2" stop-color="#771c65"/>
      <stop offset=".4" stop-color="#591f62"/>
      <stop offset=".6" stop-color="#432260"/>
      <stop offset=".8" stop-color="#36235e"/>
      <stop offset="1" stop-color="#32245e"/>
    </linearGradient>
    <linearGradient id="Unbenannter_Verlauf_4" data-name="Unbenannter Verlauf 4" x1="-5009" y1="-16195.2" x2="-5021.8" y2="-16195.2" gradientTransform="translate(-15871.4 5078.5) rotate(90)" gradientUnits="userSpaceOnUse">
      <stop offset="0" stop-color="#32245e"/>
      <stop offset=".2" stop-color="#36235e"/>
      <stop offset=".4" stop-color="#432260"/>
      <stop offset=".6" stop-color="#591f62"/>
      <stop offset=".8" stop-color="#771c65"/>
      <stop offset="1" stop-color="#981869"/>
    </linearGradient>
    <linearGradient id="Unbenannter_Verlauf_5" data-name="Unbenannter Verlauf 5" x1="-22217.1" y1="-10992.8" x2="-22287.1" y2="-10992.8" gradientTransform="translate(-21855.5 -10859.2) rotate(-180)" gradientUnits="userSpaceOnUse">
      <stop offset="0" stop-color="#981869"/>
      <stop offset=".2" stop-color="#771c65"/>
      <stop offset=".4" stop-color="#591f62"/>
      <stop offset=".6" stop-color="#432260"/>
      <stop offset=".8" stop-color="#36235e"/>
      <stop offset="1" stop-color="#32245e"/>
    </linearGradient>
    <linearGradient id="Unbenannter_Verlauf_6" data-name="Unbenannter Verlauf 6" x1="468.3" y1="973.2" x2="429.7" y2="973.2" gradientTransform="translate(0 -844)" gradientUnits="userSpaceOnUse">
      <stop offset="0" stop-color="#981869"/>
      <stop offset=".2" stop-color="#771c65"/>
      <stop offset=".4" stop-color="#591f62"/>
      <stop offset=".6" stop-color="#432260"/>
      <stop offset=".8" stop-color="#36235e"/>
      <stop offset="1" stop-color="#32245e"/>
    </linearGradient>
  </defs>
  <g id="Lock">
    <line class="cls-2" x1="1211.4" y1="1979.6" x2="-709.6" y2="1979.6"/>
    <path class="cls-1" d="M5,0h531.8c3.9,0,7,3.1,7,7h0v223c0,2.8-2.2,5-5,5H5c-2.8,0-5-2.2-5-5V5C0,2.2,2.2,0,5,0Z"/>
    <g class="cls-22">
      <path class="cls-7" d="M194.1,170.2h-2.3l-.4-1.6c-.2-.2-.5-.3-.9-.5s-.7-.2-1.2-.2-1.1.1-1.4.4-.5.6-.5,1,.2.7.5,1,1,.5,2,.7c1.6.3,2.7.8,3.5,1.4s1.1,1.4,1.1,2.5-.5,2.1-1.5,2.8-2.3,1.1-3.9,1.1-1.9-.1-2.7-.4-1.5-.7-2.2-1.2v-2.8h2.4l.5,1.7c.2.2.5.3.8.4s.7.1,1.1.1c.7,0,1.2-.1,1.6-.4s.5-.6.5-1-.2-.7-.6-1-1-.5-2-.7c-1.5-.3-2.6-.8-3.4-1.4s-1.1-1.4-1.1-2.4.4-2,1.3-2.7,2.1-1.2,3.7-1.2,1.9.1,2.8.4,1.6.6,2.1,1l.2,3Z"/>
      <path class="cls-7" d="M202.1,176.1c.6,0,1.1-.2,1.5-.5s.6-.8.6-1.4h3.1c0,1.4-.4,2.5-1.4,3.3s-2.2,1.3-3.7,1.3-3.3-.6-4.4-1.8-1.5-2.7-1.5-4.6v-.4c0-1.9.5-3.4,1.6-4.6s2.5-1.8,4.5-1.8,1.9.2,2.8.5,1.5.7,2,1.3v3.4h-2.8l-.6-2c-.2-.1-.4-.3-.6-.4s-.5-.1-.9-.1c-1,0-1.7.4-2.1,1.1s-.6,1.6-.6,2.7v.4c0,1.1.2,2,.6,2.7s1,.9,1.9.9Z"/>
      <path class="cls-7" d="M208.8,172c0-1.9.5-3.4,1.6-4.6s2.5-1.8,4.4-1.8,3.3.6,4.4,1.8,1.6,2.8,1.6,4.7v.2c0,1.9-.5,3.5-1.6,4.7s-2.5,1.8-4.4,1.8-3.4-.6-4.4-1.8-1.6-2.8-1.6-4.7v-.3ZM212.2,172.3c0,1.2.2,2.1.6,2.8s1.1,1,2,1,1.5-.4,1.9-1.1.6-1.6.6-2.8v-.2c0-1.1-.2-2-.6-2.8s-1.1-1.1-2-1.1-1.5.4-1.9,1.1-.6,1.6-.6,2.8v.3Z"/>
      <path class="cls-7" d="M222,176.4l1.6-.4v-7.9l-1.8-.4v-2.1h5l.2,1.8c.4-.6.9-1.2,1.6-1.5s1.3-.5,2.1-.5c1.3,0,2.3.4,3,1.2s1.1,2.1,1.1,3.8v5.5l1.6.4v2.1h-6.5v-2.1l1.5-.4v-5.5c0-.9-.2-1.5-.5-1.8s-.9-.5-1.6-.5-.9.1-1.2.3-.7.4-.9.8v6.8l1.4.4v2.1h-6.6v-2.1Z"/>
      <path class="cls-7" d="M237.4,176.4l1.7-.4v-7.9l-1.8-.4v-2.1h5.2v10.3l1.6.4v2.1h-6.7v-2ZM242.4,162.8h-3.4v-2.6h3.4v2.6Z"/>
      <path class="cls-7" d="M245.4,176.4l1.7-.4v-7.9h-1.9v-2.4h1.9v-1.4c0-1.4.4-2.5,1.2-3.3s2-1.2,3.5-1.2.6,0,.9.1.6.1,1,.2l-.3,2.5c-.2,0-.4-.1-.5-.1h-.6c-.6,0-1,.2-1.3.5s-.4.7-.4,1.3v1.4h2.5v2.4h-2.5v7.9l1.7.4v2.1h-6.7v-2.1h-.2Z"/>
      <path class="cls-7" d="M267.3,167.9l-1.2.2-4.7,12.3c-.4.9-.9,1.7-1.5,2.3s-1.5.9-2.8.9-.6,0-.8-.1-.6-.1-.9-.2l.4-2.5h.6c.6,0,1-.1,1.3-.4s.5-.6.7-1l.4-1-4-10.4-1.2-.2v-2.1h6.2v2.1l-1.4.2,1.7,5.1.2.9h.1l2-6-1.4-.2v-2.1h6.2v2.2h0Z"/>
    </g>
    <g class="cls-22">
      <path class="cls-4" d="M187.7,88.6l2.9-.4v-11.5h-2.9v-2l6.3-1.1v14.7l2.9.4v2.1h-9.2v-2.2Z"/>
      <path class="cls-4" d="M205.7,84.7h-6.6v-2.6h6.6v2.6Z"/>
      <path class="cls-4" d="M220.8,79.1h-2.6l-.4-2.3c-.3-.2-.7-.4-1.3-.5s-1.2-.2-1.8-.2c-.9,0-1.7.2-2.2.6s-.8.9-.8,1.5.3,1.1.8,1.4,1.5.8,2.8,1.2c1.9.5,3.3,1.2,4.3,2.1s1.5,2,1.5,3.4-.6,2.6-1.7,3.5-2.7,1.3-4.6,1.3-2.6-.2-3.7-.6-2-1-2.7-1.8v-3.7h2.6l.4,2.4c.3.3.8.5,1.4.7s1.2.3,2,.3,1.7-.2,2.1-.6.7-.9.7-1.5-.2-1.2-.7-1.6-1.3-.8-2.4-1.1c-2-.6-3.6-1.3-4.6-2.1s-1.6-1.9-1.6-3.3.6-2.5,1.8-3.4,2.6-1.3,4.4-1.4c1.3,0,2.5.2,3.6.6s2,.9,2.7,1.6v3.5Z"/>
      <path class="cls-4" d="M227.5,74.9v3.1h2.2v2.4h-2.2v6.5c0,.5.1.8.3,1.1s.5.3.8.3h.6c.2,0,.4,0,.6,0l.3,2.5c-.4,0-.8.2-1.1.3s-.8,0-1.2,0c-1.2,0-2.1-.3-2.7-1s-1-1.7-1-3.1v-6.5h-1.9v-2.5h1.9v-3.1h3.4Z"/>
      <path class="cls-4" d="M237.5,90.9c-1.8,0-3.3-.6-4.4-1.8s-1.6-2.7-1.6-4.5v-.5c0-1.9.5-3.4,1.6-4.7s2.4-1.8,4.2-1.8,3,.5,4,1.5,1.4,2.4,1.4,4.2v1.9h-7.7c.1.9.3,1.6.8,2.2s1.2.8,2,.8,1.4,0,1.9-.2,1-.4,1.6-.7l.9,2.1c-.5.4-1.2.8-2,1s-1.7.5-2.7.5ZM237.1,80.4c-.6,0-1.1.2-1.5.7s-.6,1.1-.7,1.9h0c0,0,4.2,0,4.2,0v-.3c0-.7-.2-1.3-.5-1.7s-.8-.7-1.5-.7Z"/>
      <path class="cls-4" d="M243.9,80.1v-2.1h5l.2,1.5c.4-.5.8-1,1.3-1.3s1.1-.4,1.8-.4c1.6,0,2.8.6,3.7,1.8s1.3,2.8,1.3,4.8v.2c0,1.9-.4,3.4-1.3,4.5s-2.1,1.7-3.6,1.7-1.3,0-1.8-.4-1-.6-1.3-1.1v3.7l1.7.4v2.1h-6.7v-2.1l1.7-.4v-12.6l-2-.3ZM253.8,84.5c0-1.2-.2-2.2-.6-2.9s-1-1.1-1.8-1.1-1,0-1.3.3-.7.5-.9.9v5.6c.2.4.5.6.9.8s.8.3,1.3.3c.8,0,1.4-.3,1.8-1s.6-1.5.6-2.6v-.3Z"/>
    </g>
    <path class="cls-18" d="M281.5,101.7v47.7c0,.4.2.7.5.9l41.3,23.9c.3.2.7.2,1,0l41.3-23.9c.3-.2.5-.5.5-.9v-47.7c0-.4-.2-.7-.5-.9l-41.3-23.8c-.3-.2-.7-.2-1,0l-41.3,23.8c-.3.2-.5.5-.5.9Z"/>
    <path class="cls-7" d="M300.7,135.8h.8c0-.1,3.4-9.8,3.4-9.8h2.3l3.4,9.7h.8v1.4h-3.8v-1.3h.8c0-.1-.5-1.6-.5-1.6h-3.6l-.5,1.5h.8v1.4h-3.8v-1.3ZM304.7,132.4h2.5l-1.2-3.9h0l-1.3,3.9Z"/>
    <path class="cls-7" d="M317.4,126c1.1,0,2.2.3,3,1,.7.7,1.1,1.6,1.1,2.6s-.4,1.9-1.1,2.6c-.8.7-1.9,1-3,1h-1.9v2.5l1.2.2v1.3h-4.6v-1.3l1.2-.2v-8l-1.2-.2v-1.5h5.3ZM315.5,131.4h1.9c.5,0,1-.1,1.4-.5.3-.4.5-.8.5-1.3s-.2-1-.5-1.3c-.4-.4-.9-.6-1.4-.5h-1.9v3.6Z"/>
    <path class="cls-7" d="M327.6,126c1.1,0,2.2.3,3,1,.7.7,1.1,1.6,1.1,2.6s-.4,1.9-1.1,2.6c-.8.7-1.9,1-3,1h-1.9v2.5l1.2.2v1.3h-4.6v-1.3l1.2-.2v-8l-1.2-.2v-1.5h5.3ZM325.7,131.4h1.9c.5,0,1-.1,1.4-.5.3-.4.5-.8.5-1.3s-.2-1-.5-1.3c-.4-.4-.9-.6-1.4-.5h-1.9v3.6Z"/>
    <path class="cls-7" d="M340.9,129.5h-1.7l-.3-1.5c-.3,0-.6-.3-.9-.3-.4,0-.8,0-1.2,0s-1,0-1.4.4c-.3.2-.5.6-.5,1s.2.7.5.9c.6.3,1.2.6,1.8.8,1,.2,2,.7,2.8,1.4.7.5,1,1.4,1,2.2s-.4,1.7-1.1,2.3c-.9.6-1.9.9-3,.8-.8,0-1.6-.1-2.4-.4-.7-.3-1.3-.7-1.8-1.2v-2.3h1.7l.2,1.6c.3.2.6.4.9.5.4.1.9.2,1.3.2s1-.1,1.4-.4c.3-.2.5-.6.5-1s-.2-.7-.5-1c-.5-.3-1-.6-1.6-.7-1.1-.3-2.1-.7-3-1.4-.7-.5-1-1.3-1-2.2s.4-1.7,1.1-2.2c.8-.6,1.9-.9,2.9-.9s1.6,0,2.3.4c.6.2,1.2.6,1.8,1l.2,2.1Z"/>
    <path class="cls-7" d="M343,138.1h-1.7l4.1-12.1h1.6l-4,12.1Z"/>
    <path class="cls-7" d="M317.3,145.2h-1.7l-.3-1.5c-.3-.2-.6-.3-.9-.3-.4-.1-.8-.1-1.2-.1s-1,.1-1.4.4c-.3.2-.5.6-.5,1s.2.7.5.9c.6.3,1.2.6,1.8.8,1,.2,2,.7,2.8,1.4.7.5,1,1.4,1,2.2s-.4,1.7-1.1,2.3c-.9.6-1.9.9-3,.8-.8,0-1.6-.1-2.4-.4-.7-.3-1.3-.6-1.8-1.2v-2.5h1.7l.2,1.6c.3.2.6.4.9.4.4.1.9.2,1.3.2s1-.1,1.4-.4c.3-.2.5-.6.5-1s-.2-.7-.5-1c-.5-.3-1-.6-1.6-.7-1.1-.3-2.1-.7-3-1.4-.7-.5-1-1.3-1-2.1s.4-1.7,1.1-2.2c.8-.6,1.9-.9,2.9-.9s1.6.1,2.3.4c.6.2,1.3.6,1.8,1l.2,2.3Z"/>
    <path class="cls-7" d="M322.2,143l-.9.2,2,6.7v.6h.1v-.6c.1,0,2.1-6.7,2.1-6.7l-.8-.2v-1.3h4.1v1.3h-.9c0,.1-3.3,9.8-3.3,9.8h-2.3l-3.3-9.7h-.9v-1.4h4.1v1.3Z"/>
    <path class="cls-7" d="M338.6,145.4h-1.6l-.2-1.5c-.2-.2-.5-.4-.8-.5-.4-.1-.8-.2-1.2-.2-.9,0-1.7.4-2.2,1.1-.6.8-.8,1.8-.8,2.8v.4c0,1,.2,2,.8,2.8.5.7,1.3,1.1,2.2,1.1s.8-.1,1.2-.2c.3-.1.6-.3.9-.5l.2-1.5h1.7v2.2c-.5.5-1.1,1-1.7,1.2-.7.3-1.5.5-2.3.5-1.4,0-2.7-.5-3.7-1.6s-1.5-2.5-1.4-4v-.5c-.1-1.5.5-2.9,1.4-4,.9-1,2.3-1.6,3.7-1.6s1.6.1,2.3.5c.7.3,1.2.7,1.7,1.2l-.2,2.3Z"/>
    <path class="cls-7" d="M94.1,125.8h.8c0,0,3.4-9.8,3.4-9.8h2.3l3.4,9.7h.8v1.4h-3.8v-1.3h.8c0,0-.5-1.6-.5-1.6h-3.6l-.5,1.5h.8v1.4h-3.8v-1.3h-.1ZM98.1,122.5h2.6l-1.3-3.9h0l-1.3,3.9Z"/>
    <path class="cls-7" d="M110.8,116c1.1,0,2.2.3,3,1,1.4,1.3,1.5,3.6,0,5,0,0,0,0,0,0-.8.7-1.9,1-3,1h-1.9v2.5l1.2.2v1.3h-4.6v-1.3l1.2-.2v-8l-1.2-.2v-1.4h5.3ZM108.9,121.4h1.9c.9,0,1.8-.6,1.9-1.5v-.3c0-.5-.2-1-.5-1.3s-.9-.6-1.4-.5h-1.9v3.6Z"/>
    <path class="cls-7" d="M120.9,116c1.1,0,2.2.3,3,1,1.4,1.3,1.5,3.6,0,5,0,0,0,0,0,0-.8.7-1.9,1-3,1h-1.9v2.5l1.2.2v1.3h-4.6v-1.3l1.2-.2v-8l-1.2-.2v-1.4h5.3ZM119,121.3h1.9c.9,0,1.8-.6,1.9-1.5v-.3c0-.5-.2-1-.5-1.3s-.9-.6-1.4-.5h-1.9v3.6Z"/>
    <path class="cls-7" d="M134.2,119.5h-1.7l-.3-1.5c-.3-.2-.6-.3-.9-.3-.4,0-.8,0-1.2,0s-1,0-1.4.4c-.3.2-.5.6-.5,1s.2.7.5.9c.6.3,1.2.6,1.8.8,1,.2,2,.7,2.8,1.3.7.6,1,1.4,1,2.2s-.4,1.7-1.1,2.2c-.9.6-1.9.9-3,.8-.8,0-1.6,0-2.4-.4-.7-.3-1.3-.7-1.8-1.2v-2.3h1.7l.2,1.6c.3.2.6.4.9.5.4,0,.9.2,1.3.2s1,0,1.4-.4c.3-.2.5-.6.5-1s-.2-.8-.5-1c-.5-.3-1-.6-1.6-.7-1.1-.3-2.1-.7-3-1.4-.7-.5-1-1.3-1-2.2s.4-1.7,1.2-2.2c.8-.6,1.9-.9,2.9-.9s1.6,0,2.3.4c.7.2,1.3.6,1.8,1v2.3Z"/>
    <path class="cls-7" d="M136.3,128.1h-1.6l4.1-12.1h1.7l-4.2,12.1Z"/>
    <path class="cls-7" d="M110.6,135.2h-1.6l-.3-1.5c-.3-.2-.6-.3-.8-.3-.4-.1-.8-.1-1.2-.1s-1,.1-1.4.4c-.3.2-.5.6-.5,1s.2.7.5.9c.6.3,1.2.6,1.8.8,1,.2,2,.7,2.8,1.4.6.5,1,1.4,1,2.2s-.4,1.7-1.1,2.3c-.9.6-1.9.9-3,.8-.8,0-1.6-.1-2.4-.4-.7-.3-1.3-.7-1.8-1.2v-2.3h1.7l.2,1.6c.3.2.6.4.9.5.4.1.9.2,1.3.2s1-.1,1.4-.4c.3-.2.5-.6.5-1s-.2-.8-.5-1c-.5-.3-1-.6-1.6-.7-1.1-.3-2.1-.7-3-1.4-.7-.5-1-1.3-1-2.2s.4-1.7,1.2-2.2c.8-.6,1.8-.9,2.9-.9s1.6.1,2.3.4c.7.2,1.3.6,1.8,1v2.1Z"/>
    <path class="cls-7" d="M115.6,133h-.8c0,.1,2,6.8,2,6.8v.6h0v-.6c0,0,2.1-6.7,2.1-6.7h-.8v-1.5h4.1v1.4h-.9c0,.1-3.3,9.8-3.3,9.8h-2.3l-3.3-9.7h-.9v-1.5h4.1v1.4Z"/>
    <path class="cls-7" d="M132,135.4h-1.7l-.2-1.5c-.2-.2-.5-.4-.8-.5-.4-.1-.8-.2-1.2-.2-.9,0-1.7.4-2.2,1.1-.6.8-.9,1.8-.9,2.7v.4c0,1,.2,2,.8,2.8.5.7,1.3,1.1,2.2,1.1s.8-.1,1.2-.2c.3-.1.6-.3.8-.5l.2-1.5h1.7v2.2c-.5.5-1.1,1-1.7,1.2-.7.3-1.5.5-2.3.5-1.4,0-2.7-.5-3.7-1.6s-1.5-2.5-1.4-4v-.4c0-1.5.4-2.9,1.4-4,.9-1,2.3-1.6,3.7-1.6s1.6.1,2.3.5c.7.3,1.2.7,1.7,1.2v2.3h0Z"/>
    <g class="cls-22">
      <path class="cls-4" d="M378.9,170.1c-1.2,0-2.1-.4-2.9-1.1-.7-.8-1.1-1.7-1.1-2.9v-.3c0-1.2.3-2.2,1-3s1.6-1.2,2.7-1.2,2,.3,2.6,1,.9,1.6.9,2.7v1.2h-4.9c0,.5.2,1,.5,1.3.3.4.8.5,1.3.5s.9,0,1.2-.1c.3-.1.7-.3,1.1-.5l.6,1.4c-.3.3-.8.5-1.3.7-.4.2-1,.3-1.7.3ZM378.7,163.2c-.4,0-.7.2-1,.5-.2.3-.4.7-.4,1.2h2.7v-.2c0-.5-.1-.9-.3-1.1-.2-.2-.6-.4-1-.4Z"/>
    </g>
    <g class="cls-22">
      <path class="cls-4" d="M383.2,168.6l1.1-.2v-5.1l-1.3-.3v-1.3h3.3v1.2c.4-.4.7-.8,1.1-1s.9-.4,1.4-.4c.8,0,1.5.3,2,.8s.7,1.3.7,2.5v3.6l1.1.2v1.3h-4.3v-1.3l1-.2v-3.6c0-.6-.1-1-.3-1.2s-.6-.3-1-.3-.6.1-.8.2-.4.3-.6.5v4.4l.9.2v1.3h-4.2v-1.3h-.1Z"/>
    </g>
    <g class="cls-22">
      <path class="cls-4" d="M397,168.4c.4,0,.7-.1,1-.3s.4-.5.4-.9h2c0,.8-.3,1.5-.9,2.1s-1.5.8-2.4.8-2.2-.4-2.9-1.2c-.7-.8-1-1.8-1-3v-.2c0-1.2.3-2.2,1-3s1.7-1.2,2.9-1.2,1.3.1,1.8.3,1,.5,1.3.8v2.2h-1.8l-.4-1.3c-.1-.1-.2-.2-.4-.2-.2-.1-.3-.1-.6-.1-.6,0-1.1.2-1.3.7-.3.5-.4,1.1-.4,1.8v.2c0,.7.1,1.3.4,1.8.3.4.7.7,1.3.7Z"/>
    </g>
    <g class="cls-22">
      <path class="cls-4" d="M401.6,168.6l1.1-.2v-5.1l-1.2-.2v-1.3h3.3v1.2c.3-.4.5-.8.9-1s.7-.4,1.1-.4h.4q.2,0,.3.1l-.2,2h-.9c-.3,0-.6.1-.8.2s-.4.3-.5.5v4l1.1.2v1.3h-4.4v-1.3h-.2Z"/>
    </g>
    <g class="cls-22">
      <path class="cls-4" d="M416.7,163h-.8c0,.1-3,8.2-3,8.2-.2.6-.6,1.1-1,1.5s-1,.6-1.8.6h-.5c-.1,0-.4-.1-.6-.1l.3-1.6h.4c.4,0,.7-.1.9-.3.2-.2.4-.4.5-.7l.3-.6-2.6-6.8h-.8v-1.4h4.1v1.3l-.9.2,1.1,3.3v.6h.1l1.3-3.9-.9-.2v-1.3h4.1v1.2h-.2Z"/>
      <path class="cls-4" d="M417.3,163v-1.3h3.2v1c.3-.4.6-.6,1-.8.3-.2.7-.3,1.2-.3,1,0,1.8.4,2.4,1.2s.8,1.9.8,3.2v.2c0,1.2-.3,2.2-.8,3s-1.4,1.1-2.4,1.1-.8-.1-1.2-.2c-.3-.2-.6-.4-.9-.7v2.4l1.1.2v1.3h-4.4v-1.3l1.1-.2v-8.3l-1.1-.5ZM423.7,165.9c0-.8-.1-1.4-.4-1.9s-.7-.7-1.2-.7-.6.1-.9.2-.4.3-.6.6v3.6c.1.2.3.4.6.5.2.1.5.2.9.2s.9-.2,1.2-.6c.3-.4.4-1,.4-1.7v-.2Z"/>
      <path class="cls-4" d="M430.2,159.6v2h1.5v1.6h-1.5v4.2c0,.3.1.6.2.7s.3.2.5.2h.4c.1,0,.2,0,.4-.1l.2,1.6c-.2.1-.5.1-.7.2s-.5.1-.8.1c-.8,0-1.4-.2-1.8-.6s-.6-1.1-.6-2v-4.2h-1.2v-1.6h1.2v-2h2.2Z"/>
      <path class="cls-4" d="M436.7,170.1c-1.2,0-2.1-.4-2.9-1.1s-1.1-1.7-1.1-2.9v-.3c0-1.2.3-2.2,1-3s1.6-1.2,2.7-1.2,2,.3,2.6,1,.9,1.6.9,2.7v1.2h-4.9c0,.5.2,1,.5,1.3.3.4.8.5,1.3.5s.9,0,1.2-.1c.3-.1.7-.3,1.1-.5l.6,1.4c-.3.3-.8.5-1.3.7-.4.2-1,.3-1.7.3ZM436.5,163.2c-.4,0-.7.2-1,.5-.2.3-.4.7-.4,1.2h2.7v-.2c0-.5-.1-.9-.3-1.1-.2-.2-.5-.4-1-.4Z"/>
      <path class="cls-4" d="M446.5,168.9c-.3.4-.6.7-.9.9-.4.2-.8.3-1.2.3-1,0-1.8-.4-2.4-1.1-.6-.7-.8-1.7-.8-3v-.2c0-1.3.3-2.4.8-3.2.6-.8,1.4-1.2,2.4-1.2s.8.1,1.1.3c.3.2.6.4.9.8v-3l-1.2-.2v-1.3h3.4v10.4l1.1.2v1.3h-3l-.2-1ZM443.4,166c0,.7.1,1.3.4,1.7.2.4.6.6,1.2.6s.6-.1.8-.2.4-.3.6-.6v-3.5c-.2-.3-.3-.5-.6-.6s-.5-.2-.8-.2c-.5,0-.9.2-1.2.7-.2.5-.4,1.1-.4,1.9v.2Z"/>
    </g>
    <g class="cls-22">
      <path class="cls-4" d="M351.8,56.1v3h-1.7v-1.2h-2.2v7.9l1.2.2v1.3h-4.6v-1.3l1.2-.2v-7.9h-2v1.2h-1.8v-3s9.9,0,9.9,0Z"/>
      <path class="cls-4" d="M352.5,67.2v-1.3l1.2-.2v-8l-1.2-.2v-1.3h4.6v1.3l-1.2.2v7.9h3.1v-1.4h1.8v3.1h-8.3Z"/>
      <path class="cls-4" d="M370.2,59.6h-1.7l-.3-1.5c-.2,0-.5-.2-.8-.3-.4,0-.8,0-1.2,0-.6,0-1.1,0-1.4.4s-.5.6-.5,1,.2.7.5.9,1,.5,1.8.8c1.2.3,2.2.8,2.8,1.4.6.6,1,1.3,1,2.2s-.4,1.7-1.1,2.3c-.8.6-1.8.8-3,.8s-1.7,0-2.4-.4c-.7-.3-1.3-.7-1.8-1.2v-2.3h1.7l.2,1.6c.2.2.5.3.9.5.4,0,.8.2,1.3.2s1.1,0,1.4-.4c.3-.2.5-.6.5-1s-.2-.8-.5-1c-.3-.3-.8-.5-1.6-.7-1.3-.4-2.3-.8-3-1.4-.7-.5-1-1.2-1-2.2s.4-1.6,1.1-2.2,1.7-.9,2.9-.9,1.6,0,2.3.4,1.3.6,1.8,1v2.1h.1Z"/>
    </g>
    <path class="cls-21" d="M329.9,86v-20.7h-12.2v20.7c-.2,3.4,2.4,6.3,5.8,6.4,3.4.2,6.3-2.4,6.4-5.8,0,0,0-.4,0-.6Z"/>
    <ellipse class="cls-20" cx="323.8" cy="63.2" rx="6.1" ry="6.4"/>
    <path class="cls-19" d="M431.5,127.3h-64.2c-3.5.3-6,3.3-5.7,6.8.2,3.1,2.7,5.5,5.7,5.7h64.2"/>
    <line class="cls-14" x1="323.8" y1="60.5" x2="323.8" y2="87.2"/>
    <polygon class="cls-4" points="320.5 63.1 321.1 63.7 323.8 60.8 326.5 63.7 327.1 63.1 323.8 59.6 320.5 63.1"/>
    <polygon class="cls-4" points="320.5 84.6 321.1 84 323.8 86.9 326.5 84 327.1 84.6 323.8 88.1 320.5 84.6"/>
    <line class="cls-15" x1="281.6" y1="102.3" x2="291.6" y2="108.1"/>
    <line class="cls-15" x1="365.7" y1="102.3" x2="355.7" y2="108.1"/>
    <line class="cls-15" x1="323.8" y1="173.6" x2="323.8" y2="163.6"/>
    <line class="cls-9" x1="422.8" y1="134.2" x2="421.8" y2="134.2"/>
    <line class="cls-13" x1="419.9" y1="134.2" x2="373.8" y2="134.2"/>
    <line class="cls-9" x1="372.8" y1="134.2" x2="371.8" y2="134.2"/>
    <polygon class="cls-4" points="420.2 130.9 419.6 131.5 422.5 134.2 419.6 136.9 420.2 137.5 423.7 134.2 420.2 130.9"/>
    <polygon class="cls-4" points="374.5 130.9 375 131.5 372.1 134.2 375 136.9 374.5 137.5 371 134.2 374.5 130.9"/>
    <rect class="cls-17" x="429.7" y="106.8" width="38.6" height="44.8"/>
    <rect class="cls-12" x="429.7" y="105.4" width="38.6" height="44.8"/>
    <polyline class="cls-12" points="438.8 129.1 435.3 131 442 137.5 443.7 134"/>
    <polyline class="cls-12" points="438.8 129.1 448.8 123.7 443.7 134"/>
    <path class="cls-12" d="M438.8,129.1c-2.9-5.6-.7-12.6,5-15.5,5.6-2.9,12.6-.7,15.5,5,2.9,5.6.7,12.6-5,15.5-1.6.8-3.4,1.3-5.3,1.3s-3.7-.4-5.3-1.3"/>
    <path class="cls-4" d="M448.7,121c1.4,0,2.5,1.1,2.5,2.5s-1.1,2.5-2.5,2.5-2.5-1.1-2.5-2.5h0c0-1.4,1.1-2.5,2.5-2.5h0M448.7,119c-2.5,0-4.5,2-4.5,4.5s2,4.5,4.5,4.5,4.5-2,4.5-4.5h0c0-2.5-2-4.5-4.5-4.5Z"/>
    <path class="cls-10" d="M323.9,116.7h-5.6c-.8,0-1.1-.3-1.1-1.1v-8.6c0-.8.3-1.1,1.1-1.1h11.2c.7,0,1,.3,1,1v8.6c0,.7-.3,1-1,1-1.9.2-3.8.2-5.6.2Z"/>
    <path class="cls-10" d="M318.1,105.2c0-2.4,1.4-4.5,3.5-5.5,2.8-1.2,6.1,0,7.3,2.8.1.3.2.6.3.9.1.5.2,1,.3,1.6"/>
    <path class="cls-3" d="M322.9,113h0v1.2c0,.2.1.3.3.3h1.1c.3,0,.4,0,.4-.3v-2.2c0-.2.1-.4.3-.5.7-.4,1.1-1.2.8-1.9-.3-.8-1.1-1.3-1.9-1.3-.9,0-1.7.4-2.1,1.2-.3.8,0,1.6.7,2,.3,0,.4.4.3.6.1.3.1.6.1.9Z"/>
    <path class="cls-10" d="M449.3,98.2h-5.6c-.8,0-1.1-.3-1.1-1.1v-8.6c0-.8.3-1.1,1.1-1.1h11.2c.7,0,1,.3,1,1v8.7c0,.7-.3,1-1,1-1.9,0-3.8,0-5.6,0Z"/>
    <path class="cls-10" d="M443.5,86.7c0-2.4,1.4-4.5,3.5-5.5,2.8-1.2,6.1,0,7.3,2.8.1.3.2.6.3,1,.1.5.2,1,.3,1.6"/>
    <path class="cls-3" d="M448.3,94.5h0v1.2c0,.2.1.3.3.3h1.1c.3,0,.4,0,.4-.3v-2.1c0-.2.1-.4.3-.5.7-.4,1-1.2.8-1.9-.3-.8-1.1-1.3-1.9-1.3-.9,0-1.7.4-2.1,1.2-.3.8,0,1.6.7,2,.3,0,.4.4.3.6.1.2.1.5.1.8Z"/>
    <path class="cls-11" d="M74.4,101.7v47.7c0,.4.2.7.5.9l41.3,23.9c.3.2.7.2,1,0l41.3-23.9c.3-.2.5-.5.5-.9v-47.7c0-.4-.2-.7-.5-.9l-41.3-23.8c-.3-.2-.7-.2-1,0l-41.3,23.8c-.3.2-.5.5-.5.9Z"/>
    <line class="cls-8" x1="74.1" y1="102.3" x2="84.1" y2="108.1"/>
    <line class="cls-8" x1="158.2" y1="102.3" x2="148.2" y2="108.1"/>
    <line class="cls-8" x1="116.3" y1="173.6" x2="116.3" y2="163.6"/>
    <path class="cls-4" d="M232.7,148.4c-3.2,0-5.7-2.6-5.7-5.8s.6-3,1.7-4l12.6-12.6-12.6-12.6c-2.3-2.2-2.4-5.8-.2-8.1,2.2-2.3,5.8-2.4,8.1-.2q.1,0,.2.2l16.7,16.7c2.2,2.2,2.2,5.9,0,8.1l-16.7,16.7c-1.1,1.1-2.6,1.7-4.1,1.6Z"/>
    <path class="cls-4" d="M245.2,131.8h-48.4c-3.2-.1-5.6-2.8-5.5-6,.1-3,2.5-5.4,5.5-5.5h48.4c3.2,0,5.9,2.3,6,5.5s-2.3,5.9-5.5,6h-.5Z"/>
    <path class="cls-6" d="M537.1,0h-113.1l119.8,119.9V6.8c0-3.8-3-6.8-6.7-6.8h0Z"/>
    <polygon class="cls-5" points="513.7 40.9 500.8 33.5 500.8 48.4 513.7 40.9"/>
    <circle class="cls-16" cx="505.6" cy="40.9" r="18.8" transform="translate(191.1 438.9) rotate(-56.3)"/>
  </g>
</svg>