<svg xmlns="http://www.w3.org/2000/svg" xmlns:xlink="http://www.w3.org/1999/xlink" viewBox="0 0 543.83 235"><defs><style>.cls-1{fill:#eee;}.cls-2{fill:url(#Unbenannter_Verlauf_12);}.cls-3,.cls-4{font-size:24px;}.cls-3,.cls-6{fill:#fff;}.cls-3,.cls-4,.cls-7{font-family:RobotoSlab-Bold, Roboto Slab;font-weight:700;}.cls-14,.cls-4,.cls-7{fill:#fc0;}.cls-10,.cls-11,.cls-12,.cls-13,.cls-15,.cls-16,.cls-17,.cls-18,.cls-19,.cls-5{stroke:#fc0;}.cls-10,.cls-11,.cls-12,.cls-13,.cls-15,.cls-16,.cls-17,.cls-18,.cls-22,.cls-23,.cls-5{stroke-miterlimit:10;}.cls-15,.cls-18,.cls-22,.cls-23,.cls-5{stroke-width:3px;}.cls-5{fill:url(#Unbenannter_Verlauf_12-2);}.cls-7{font-size:15.68px;}.cls-8{letter-spacing:0em;}.cls-9{letter-spacing:0.01em;}.cls-10,.cls-11,.cls-12,.cls-13,.cls-16,.cls-17,.cls-19,.cls-20{stroke-width:2px;}.cls-10{fill:url(#Unbenannter_Verlauf_12-3);}.cls-11{fill:url(#Unbenannter_Verlauf_2);}.cls-12{fill:url(#Unbenannter_Verlauf_12-4);}.cls-13,.cls-16,.cls-17,.cls-19,.cls-20,.cls-22,.cls-23,.cls-26{fill:none;}.cls-13{stroke-dasharray:2 2;}.cls-15,.cls-24,.cls-25{fill:#39f;}.cls-15,.cls-19,.cls-20,.cls-23,.cls-26{stroke-linecap:round;}.cls-17{stroke-dasharray:1.96 1.96;}.cls-18{fill:url(#Unbenannter_Verlauf_12-5);}.cls-19,.cls-20,.cls-26{stroke-linejoin:round;}.cls-20{stroke:#38af72;}.cls-21{fill:#38af72;}.cls-22,.cls-23{stroke:#fff;}.cls-24{opacity:0.4;}.cls-26{stroke:#39f;stroke-width:4px;}</style><linearGradient id="Unbenannter_Verlauf_12" y1="117.5" x2="543.83" y2="117.5" gradientUnits="userSpaceOnUse"><stop offset="0" stop-color="#981869"/><stop offset="0.19" stop-color="#771c65"/><stop offset="0.4" stop-color="#591f62"/><stop offset="0.61" stop-color="#432260"/><stop offset="0.81" stop-color="#36235e"/><stop offset="1" stop-color="#32245e"/></linearGradient><linearGradient id="Unbenannter_Verlauf_12-2" x1="366.12" y1="125.55" x2="281.5" y2="125.55" xlink:href="#Unbenannter_Verlauf_12"/><linearGradient id="Unbenannter_Verlauf_12-3" x1="-4456.15" y1="-14821.21" x2="-4483.23" y2="-14821.21" gradientTransform="translate(-14497.4 4548.52) rotate(90)" xlink:href="#Unbenannter_Verlauf_12"/><linearGradient id="Unbenannter_Verlauf_2" x1="-4478.95" y1="-14821.21" x2="-4491.78" y2="-14821.21" gradientTransform="translate(-14497.4 4548.52) rotate(90)" gradientUnits="userSpaceOnUse"><stop offset="0" stop-color="#32245e"/><stop offset="0.19" stop-color="#36235e"/><stop offset="0.39" stop-color="#432260"/><stop offset="0.6" stop-color="#591f62"/><stop offset="0.81" stop-color="#771c65"/><stop offset="1" stop-color="#981869"/></linearGradient><linearGradient id="Unbenannter_Verlauf_12-4" x1="-19469.06" y1="-10148.75" x2="-19539.08" y2="-10148.75" gradientTransform="translate(-19107.54 -10015.21) rotate(180)" xlink:href="#Unbenannter_Verlauf_12"/><linearGradient id="Unbenannter_Verlauf_12-5" x1="468.33" y1="129.18" x2="429.7" y2="129.18" xlink:href="#Unbenannter_Verlauf_12"/></defs><g id="Lock"><rect class="cls-1" x="-709.64" y="-1458.97" width="1921.02" height="3438.64"/><path class="cls-2" d="M5,0H536.83a7,7,0,0,1,7,7V230a5,5,0,0,1-5,5H5a5,5,0,0,1-5-5V5A5,5,0,0,1,5,0Z"/><text class="cls-3" transform="translate(183.04 178.48)">sconify</text><text class="cls-4" transform="translate(186.98 90.7)">1-Step</text><path class="cls-5" d="M281.5,101.7v47.69a1,1,0,0,0,.5.87l41.31,23.85a1,1,0,0,0,1,0l41.31-23.85a1,1,0,0,0,.5-.87V101.7a1,1,0,0,0-.5-.87L324.31,77a1,1,0,0,0-1,0L282,100.83A1,1,0,0,0,281.5,101.7Z"/><path class="cls-6" d="M300.73,135.76l.8-.12,3.39-9.69h2.29l3.37,9.69.8.12v1.34h-3.8v-1.34l.77-.14-.49-1.53h-3.61l-.49,1.53.77.14v1.34h-3.8Zm4-3.32h2.55l-1.25-3.93H306Z"/><path class="cls-6" d="M317.41,126a4.43,4.43,0,0,1,3,1,3.32,3.32,0,0,1,1.1,2.58,3.27,3.27,0,0,1-1.1,2.57,4.43,4.43,0,0,1-3,1h-1.88v2.48l1.2.23v1.34h-4.62v-1.34l1.19-.23v-8l-1.19-.23V126h5.3Zm-1.88,5.38h1.88a1.85,1.85,0,0,0,1.42-.51,1.82,1.82,0,0,0,.48-1.3,1.88,1.88,0,0,0-.48-1.32,1.83,1.83,0,0,0-1.42-.53h-1.88Z"/><path class="cls-6" d="M327.56,126a4.42,4.42,0,0,1,3,1,3.29,3.29,0,0,1,1.11,2.58,3.25,3.25,0,0,1-1.11,2.57,4.42,4.42,0,0,1-3,1h-1.88v2.48l1.19.23v1.34h-4.62v-1.34l1.19-.23v-8l-1.19-.23V126h5.31Zm-1.88,5.38h1.88a1.84,1.84,0,0,0,1.41-.51,1.82,1.82,0,0,0,.48-1.3,1.88,1.88,0,0,0-.48-1.32,1.82,1.82,0,0,0-1.41-.53h-1.88Z"/><path class="cls-6" d="M340.86,129.51h-1.67L338.9,128a3.1,3.1,0,0,0-.85-.32,5.1,5.1,0,0,0-1.19-.14,2.26,2.26,0,0,0-1.42.39,1.2,1.2,0,0,0-.5,1,1.11,1.11,0,0,0,.52.93,7.52,7.52,0,0,0,1.81.76,7.16,7.16,0,0,1,2.8,1.36,2.8,2.8,0,0,1,1,2.21,2.64,2.64,0,0,1-1.14,2.26,4.94,4.94,0,0,1-3,.83,6.53,6.53,0,0,1-2.4-.42,5.06,5.06,0,0,1-1.78-1.17v-2.32h1.73l.24,1.58a2.82,2.82,0,0,0,.92.46,4.29,4.29,0,0,0,1.29.17,2.21,2.21,0,0,0,1.39-.37,1.2,1.2,0,0,0,.48-1,1.31,1.31,0,0,0-.45-1,4.72,4.72,0,0,0-1.6-.73,9.18,9.18,0,0,1-3-1.36,2.59,2.59,0,0,1-1-2.16,2.65,2.65,0,0,1,1.15-2.22,4.77,4.77,0,0,1,2.89-.88,6.76,6.76,0,0,1,2.34.39,5.49,5.49,0,0,1,1.77,1Z"/><path class="cls-6" d="M343,138.05H341.3l4.09-12.1H347Z"/><path class="cls-6" d="M317.3,145.19h-1.67l-.29-1.53a2.8,2.8,0,0,0-.85-.32,4.57,4.57,0,0,0-1.19-.14,2.33,2.33,0,0,0-1.42.38,1.22,1.22,0,0,0-.5,1,1.08,1.08,0,0,0,.52.93,7.08,7.08,0,0,0,1.81.77,7,7,0,0,1,2.8,1.36,2.8,2.8,0,0,1,1,2.21,2.65,2.65,0,0,1-1.14,2.26,4.94,4.94,0,0,1-3,.82,6.53,6.53,0,0,1-2.4-.42,4.91,4.91,0,0,1-1.78-1.16V149h1.74l.23,1.59a2.82,2.82,0,0,0,.92.45,4.28,4.28,0,0,0,1.29.18,2.21,2.21,0,0,0,1.39-.37,1.22,1.22,0,0,0,.48-1,1.31,1.31,0,0,0-.45-1,4.72,4.72,0,0,0-1.6-.73,9.17,9.17,0,0,1-3-1.37,2.56,2.56,0,0,1-1-2.15,2.64,2.64,0,0,1,1.15-2.22,4.8,4.8,0,0,1,2.89-.89,6.53,6.53,0,0,1,2.34.4,5.21,5.21,0,0,1,1.77,1Z"/><path class="cls-6" d="M322.25,143l-.85.16,2,6.68.14.61h.05l.13-.59,2-6.7-.84-.16v-1.34h4.07V143l-.93.13-3.29,9.67h-2.29l-3.29-9.67-.92-.13v-1.34h4.07Z"/><path class="cls-6" d="M338.62,145.39H337l-.23-1.49a2.4,2.4,0,0,0-.83-.52,3.3,3.3,0,0,0-1.19-.19,2.62,2.62,0,0,0-2.24,1.06,4.5,4.5,0,0,0-.78,2.75v.39a4.57,4.57,0,0,0,.78,2.77,2.57,2.57,0,0,0,2.2,1.06,3.57,3.57,0,0,0,1.21-.19,2.09,2.09,0,0,0,.85-.52L337,149h1.66v2.21a4.88,4.88,0,0,1-1.72,1.24,5.72,5.72,0,0,1-2.34.46,4.73,4.73,0,0,1-3.67-1.55,5.64,5.64,0,0,1-1.44-4V147a5.69,5.69,0,0,1,1.43-4,4.75,4.75,0,0,1,3.68-1.56,5.48,5.48,0,0,1,2.33.47,5,5,0,0,1,1.73,1.24Z"/><path class="cls-6" d="M94.07,125.78l.8-.11,3.39-9.7h2.29l3.36,9.7.8.11v1.34h-3.8v-1.34l.78-.14-.49-1.53H97.58l-.49,1.53.78.14v1.34h-3.8Zm4-3.31h2.56l-1.26-3.93h0Z"/><path class="cls-6" d="M110.75,116a4.36,4.36,0,0,1,3,1,3.54,3.54,0,0,1,0,5.15,4.45,4.45,0,0,1-3,1h-1.88v2.47l1.19.23v1.34h-4.61v-1.34l1.18-.23v-8l-1.18-.23V116h5.3Zm-1.88,5.38h1.88a1.7,1.7,0,0,0,1.89-1.8,1.89,1.89,0,0,0-.48-1.33,1.81,1.81,0,0,0-1.41-.52h-1.88Z"/><path class="cls-6" d="M120.89,116a4.34,4.34,0,0,1,3,1,3.54,3.54,0,0,1,0,5.15,4.43,4.43,0,0,1-3,1H119v2.47l1.2.23v1.34h-4.62v-1.34l1.19-.23v-8l-1.19-.23V116h5.3ZM119,121.35h1.88a1.7,1.7,0,0,0,1.9-1.8,1.89,1.89,0,0,0-.48-1.33,1.82,1.82,0,0,0-1.42-.52H119Z"/><path class="cls-6" d="M134.2,119.53h-1.68l-.29-1.53a2.86,2.86,0,0,0-.85-.32,5,5,0,0,0-1.18-.14,2.24,2.24,0,0,0-1.42.39,1.19,1.19,0,0,0-.5,1,1.08,1.08,0,0,0,.52.93,7.28,7.28,0,0,0,1.81.77,7.1,7.1,0,0,1,2.8,1.35,2.83,2.83,0,0,1,1,2.22,2.65,2.65,0,0,1-1.13,2.25,4.9,4.9,0,0,1-3,.83,6.48,6.48,0,0,1-2.39-.42,5,5,0,0,1-1.78-1.16v-2.33h1.73L128,125a2.58,2.58,0,0,0,.91.46,4.37,4.37,0,0,0,1.29.18,2.24,2.24,0,0,0,1.4-.38,1.2,1.2,0,0,0,.48-1,1.27,1.27,0,0,0-.46-1,4.54,4.54,0,0,0-1.59-.74,8.79,8.79,0,0,1-3-1.36,2.59,2.59,0,0,1-1-2.16,2.66,2.66,0,0,1,1.15-2.22,4.81,4.81,0,0,1,2.88-.88,6.68,6.68,0,0,1,2.34.39,5.43,5.43,0,0,1,1.78,1Z"/><path class="cls-6" d="M136.29,128.08h-1.65L138.72,116h1.66Z"/><path class="cls-6" d="M110.64,135.21H109l-.29-1.53a2.86,2.86,0,0,0-.85-.32,5,5,0,0,0-1.18-.14,2.24,2.24,0,0,0-1.42.39,1.18,1.18,0,0,0-.5,1,1.11,1.11,0,0,0,.52.93,7.28,7.28,0,0,0,1.81.77,7.1,7.1,0,0,1,2.8,1.35,2.82,2.82,0,0,1,1,2.21,2.65,2.65,0,0,1-1.13,2.26,5,5,0,0,1-3,.83,6.48,6.48,0,0,1-2.39-.42,4.93,4.93,0,0,1-1.78-1.17v-2.32h1.73l.24,1.58a2.76,2.76,0,0,0,.91.46,4.37,4.37,0,0,0,1.29.18,2.24,2.24,0,0,0,1.4-.38,1.2,1.2,0,0,0,.48-1,1.3,1.3,0,0,0-.46-1,4.75,4.75,0,0,0-1.59-.73,9,9,0,0,1-3-1.36,2.59,2.59,0,0,1-1-2.16,2.66,2.66,0,0,1,1.15-2.22,4.74,4.74,0,0,1,2.88-.88,6.68,6.68,0,0,1,2.34.39,5.43,5.43,0,0,1,1.78,1Z"/><path class="cls-6" d="M115.59,133l-.85.15,2,6.69.14.61h0l.14-.6,2-6.7-.84-.15v-1.35h4.07V133l-.94.12L118,142.8h-2.3l-3.29-9.68-.92-.12v-1.35h4.08Z"/><path class="cls-6" d="M132,135.41h-1.66l-.23-1.48a2.32,2.32,0,0,0-.83-.53,3.47,3.47,0,0,0-1.18-.19,2.61,2.61,0,0,0-2.24,1.06A4.52,4.52,0,0,0,125,137v.39a4.49,4.49,0,0,0,.78,2.76,2.56,2.56,0,0,0,2.2,1.06,3.61,3.61,0,0,0,1.21-.19,2,2,0,0,0,.84-.52l.23-1.48H132v2.2a4.81,4.81,0,0,1-1.72,1.25,5.8,5.8,0,0,1-2.33.46,4.78,4.78,0,0,1-3.68-1.56,5.65,5.65,0,0,1-1.43-4V137a5.68,5.68,0,0,1,1.42-4,4.77,4.77,0,0,1,3.69-1.56,5.64,5.64,0,0,1,2.33.47,5,5,0,0,1,1.72,1.25Z"/><text class="cls-7" transform="translate(374.44 169.93)">e<tspan class="cls-8" x="8.35" y="0">n</tspan><tspan x="18.23" y="0">c</tspan><tspan class="cls-9" x="26.49" y="0">r</tspan><tspan x="33.22" y="0">ypted</tspan></text><text class="cls-7" transform="translate(341.55 67.23)">TLS </text><path class="cls-10" d="M329.91,86V65.29h-12.2V86a6.11,6.11,0,1,0,12.2,0Z"/><ellipse class="cls-11" cx="323.81" cy="63.15" rx="6.1" ry="6.41"/><path class="cls-12" d="M431.54,127.29H367.29a6.27,6.27,0,0,0,0,12.5h64.25"/><line class="cls-13" x1="323.81" y1="60.46" x2="323.81" y2="87.23"/><polygon class="cls-14" points="320.54 63.11 321.12 63.66 323.81 60.77 326.5 63.66 327.08 63.11 323.81 59.59 320.54 63.11"/><polygon class="cls-14" points="320.54 84.58 321.12 84.03 323.81 86.92 326.5 84.03 327.08 84.58 323.81 88.1 320.54 84.58"/><line class="cls-15" x1="281.62" y1="102.35" x2="291.6" y2="108.05"/><line class="cls-15" x1="365.71" y1="102.35" x2="355.73" y2="108.05"/><line class="cls-15" x1="323.81" y1="173.61" x2="323.81" y2="163.64"/><line class="cls-16" x1="422.83" y1="134.23" x2="421.83" y2="134.23"/><line class="cls-17" x1="419.87" y1="134.23" x2="373.81" y2="134.23"/><line class="cls-16" x1="372.83" y1="134.23" x2="371.83" y2="134.23"/><polygon class="cls-14" points="420.18 130.95 419.63 131.54 422.52 134.22 419.63 136.91 420.18 137.5 423.7 134.22 420.18 130.95"/><polygon class="cls-14" points="374.48 130.95 375.02 131.54 372.14 134.22 375.02 136.91 374.48 137.5 370.96 134.22 374.48 130.95"/><rect class="cls-18" x="429.7" y="106.78" width="38.63" height="44.79"/><rect class="cls-19" x="429.7" y="105.36" width="38.63" height="44.79"/><polyline class="cls-19" points="438.8 129.07 435.27 130.97 442 137.48 443.71 134.02"/><polyline class="cls-19" points="438.8 129.07 448.83 123.69 443.71 134.02"/><path class="cls-19" d="M438.8,129.07A11.48,11.48,0,1,1,449,135.31a11.53,11.53,0,0,1-5.3-1.29"/><path class="cls-14" d="M448.73,121a2.52,2.52,0,1,1-2.52,2.52,2.51,2.51,0,0,1,2.52-2.52m0-2a4.52,4.52,0,1,0,4.52,4.52,4.52,4.52,0,0,0-4.52-4.52Z"/><path class="cls-20" d="M323.85,116.69h-5.63c-.77,0-1.07-.3-1.07-1.06v-8.58c0-.77.3-1.07,1.07-1.07h11.22c.73,0,1,.3,1,1v8.62c0,.72-.3,1-1,1C327.57,116.74,325.69,116.69,323.85,116.69Z"/><path class="cls-20" d="M318.07,105.23a6,6,0,0,1,3.5-5.48,5.57,5.57,0,0,1,7.67,3.78c.13.51.18,1,.31,1.58"/><path class="cls-21" d="M322.92,113h0v1.15c0,.22.08.3.34.3h1.11c.3,0,.38-.08.38-.34V112a.49.49,0,0,1,.3-.51,1.6,1.6,0,0,0,.81-1.92,2,2,0,0,0-1.92-1.28,2.15,2.15,0,0,0-2.13,1.15,1.59,1.59,0,0,0,.72,2,.55.55,0,0,1,.34.64A6.25,6.25,0,0,1,322.92,113Z"/><path class="cls-20" d="M449.28,98.16h-5.64c-.76,0-1.06-.29-1.06-1.06V88.52c0-.77.3-1.07,1.06-1.07h11.23c.72,0,1,.3,1,1V97.1c0,.72-.3,1-1,1C453,98.21,451.11,98.16,449.28,98.16Z"/><path class="cls-20" d="M443.49,86.7A6,6,0,0,1,447,81.22,5.56,5.56,0,0,1,454.66,85c.14.52.18,1,.31,1.58"/><path class="cls-21" d="M448.34,94.49h0v1.16c0,.21.09.3.34.3h1.11c.3,0,.39-.09.39-.35V93.47a.49.49,0,0,1,.3-.51,1.63,1.63,0,0,0,.81-1.92,2,2,0,0,0-1.92-1.28,2.16,2.16,0,0,0-2.14,1.15,1.6,1.6,0,0,0,.73,2,.55.55,0,0,1,.34.64A7.63,7.63,0,0,1,448.34,94.49Z"/><path class="cls-22" d="M74.42,101.7v47.69a1,1,0,0,0,.5.87l41.31,23.85a1,1,0,0,0,1,0l41.3-23.85a1,1,0,0,0,.5-.87V101.7a1,1,0,0,0-.5-.87L117.23,77a1,1,0,0,0-1,0L74.92,100.83A1,1,0,0,0,74.42,101.7Z"/><line class="cls-23" x1="74.1" y1="102.35" x2="84.08" y2="108.05"/><line class="cls-23" x1="158.19" y1="102.35" x2="148.21" y2="108.05"/><line class="cls-23" x1="116.29" y1="173.61" x2="116.29" y2="163.64"/><path class="cls-14" d="M232.7,148.45a5.75,5.75,0,0,1-4.06-9.81l12.6-12.6-12.6-12.59a5.75,5.75,0,1,1,8.13-8.13L253.43,122a5.76,5.76,0,0,1,0,8.13l-16.66,16.66A5.75,5.75,0,0,1,232.7,148.45Z"/><path class="cls-14" d="M245.16,131.79H196.75a5.75,5.75,0,0,1,0-11.49h48.41a5.75,5.75,0,1,1,0,11.49Z"/><path class="cls-24" d="M537.06,0H424L543.83,119.86V6.77A6.77,6.77,0,0,0,537.06,0Z"/><polygon class="cls-25" points="513.66 40.93 500.75 33.47 500.75 48.39 513.66 40.93"/><circle class="cls-26" cx="505.63" cy="40.85" r="18.77"/></g></svg>