<svg xmlns="http://www.w3.org/2000/svg" xmlns:xlink="http://www.w3.org/1999/xlink" viewBox="0 0 543.83 235"><defs><style>.cls-1{fill:url(#Unbenannter_Verlauf_12);}.cls-2{fill:#fff;}.cls-3{fill:#fc0;}.cls-10,.cls-11,.cls-12,.cls-13,.cls-4,.cls-5,.cls-6,.cls-7,.cls-8,.cls-9{stroke:#fc0;}.cls-10,.cls-11,.cls-12,.cls-16,.cls-17,.cls-4,.cls-5,.cls-6,.cls-7,.cls-8,.cls-9{stroke-miterlimit:10;}.cls-12,.cls-16,.cls-17,.cls-4,.cls-9{stroke-width:3px;}.cls-4{fill:url(#Unbenannter_Verlauf_12-2);}.cls-10,.cls-11,.cls-13,.cls-14,.cls-5,.cls-6,.cls-7,.cls-8{stroke-width:2px;}.cls-5{fill:url(#Unbenannter_Verlauf_12-3);}.cls-6{fill:url(#Unbenannter_Verlauf_2);}.cls-7{fill:url(#Unbenannter_Verlauf_12-4);}.cls-10,.cls-11,.cls-13,.cls-14,.cls-16,.cls-17,.cls-20,.cls-8{fill:none;}.cls-8{stroke-dasharray:2 2;}.cls-18,.cls-19,.cls-9{fill:#39f;}.cls-13,.cls-14,.cls-17,.cls-20,.cls-9{stroke-linecap:round;}.cls-11{stroke-dasharray:1.96 1.96;}.cls-12{fill:url(#Unbenannter_Verlauf_12-5);}.cls-13,.cls-14,.cls-20{stroke-linejoin:round;}.cls-14{stroke:#38af72;}.cls-15{fill:#38af72;}.cls-16,.cls-17{stroke:#fff;}.cls-18{opacity:0.4;}.cls-20{stroke:#39f;stroke-width:4px;}</style><linearGradient id="Unbenannter_Verlauf_12" y1="117.5" x2="543.83" y2="117.5" gradientUnits="userSpaceOnUse"><stop offset="0" stop-color="#981869"/><stop offset="0.19" stop-color="#771c65"/><stop offset="0.4" stop-color="#591f62"/><stop offset="0.61" stop-color="#432260"/><stop offset="0.81" stop-color="#36235e"/><stop offset="1" stop-color="#32245e"/></linearGradient><linearGradient id="Unbenannter_Verlauf_12-2" x1="366.12" y1="125.55" x2="281.5" y2="125.55" xlink:href="#Unbenannter_Verlauf_12"/><linearGradient id="Unbenannter_Verlauf_12-3" x1="1871.85" y1="-15003.21" x2="1844.77" y2="-15003.21" gradientTransform="translate(-14679.4 -1779.48) rotate(90)" xlink:href="#Unbenannter_Verlauf_12"/><linearGradient id="Unbenannter_Verlauf_2" x1="1849.05" y1="-15003.21" x2="1836.22" y2="-15003.21" gradientTransform="translate(-14679.4 -1779.48) rotate(90)" gradientUnits="userSpaceOnUse"><stop offset="0" stop-color="#32245e"/><stop offset="0.19" stop-color="#36235e"/><stop offset="0.39" stop-color="#432260"/><stop offset="0.6" stop-color="#591f62"/><stop offset="0.81" stop-color="#771c65"/><stop offset="1" stop-color="#981869"/></linearGradient><linearGradient id="Unbenannter_Verlauf_12-4" x1="-13323.06" y1="-16658.75" x2="-13393.08" y2="-16658.75" gradientTransform="translate(-12961.54 -16525.21) rotate(180)" xlink:href="#Unbenannter_Verlauf_12"/><linearGradient id="Unbenannter_Verlauf_12-5" x1="468.33" y1="129.18" x2="429.7" y2="129.18" xlink:href="#Unbenannter_Verlauf_12"/></defs><g id="Lock"><path class="cls-1" d="M5,0H536.83a7,7,0,0,1,7,7V230a5,5,0,0,1-5,5H5a5,5,0,0,1-5-5V5A5,5,0,0,1,5,0Z"/><path class="cls-2" d="M194.13,170.16h-2.3l-.36-1.58a2.77,2.77,0,0,0-.89-.47,3.34,3.34,0,0,0-1.17-.19,2.29,2.29,0,0,0-1.43.41,1.23,1.23,0,0,0-.53,1,1.16,1.16,0,0,0,.5.95,5.39,5.39,0,0,0,2,.68,8.12,8.12,0,0,1,3.49,1.38,3,3,0,0,1,1.14,2.5,3.32,3.32,0,0,1-1.47,2.79,6.4,6.4,0,0,1-3.88,1.09,8.19,8.19,0,0,1-2.68-.43,7,7,0,0,1-2.18-1.23l0-2.84h2.39l.47,1.65a1.94,1.94,0,0,0,.83.38,4.94,4.94,0,0,0,1.1.12,2.83,2.83,0,0,0,1.59-.37,1.18,1.18,0,0,0,.54-1,1.2,1.2,0,0,0-.55-1,5.69,5.69,0,0,0-2-.72,8.16,8.16,0,0,1-3.38-1.36,2.93,2.93,0,0,1-1.14-2.44,3.57,3.57,0,0,1,1.31-2.75,5.49,5.49,0,0,1,3.74-1.15,9.48,9.48,0,0,1,2.8.4,5.66,5.66,0,0,1,2.06,1Z"/><path class="cls-2" d="M202.09,176.1a2,2,0,0,0,1.46-.53,1.89,1.89,0,0,0,.55-1.43h3.1l0,.07a4,4,0,0,1-1.44,3.22,6.07,6.07,0,0,1-8.07-.5,6.79,6.79,0,0,1-1.54-4.6V172a6.75,6.75,0,0,1,1.58-4.61,5.65,5.65,0,0,1,4.49-1.8A7.89,7.89,0,0,1,205,166a5.53,5.53,0,0,1,2,1.29l.05,3.39H204.3l-.56-2a2.14,2.14,0,0,0-.63-.37,2.31,2.31,0,0,0-.86-.15,2.15,2.15,0,0,0-2.05,1.06,5.45,5.45,0,0,0-.6,2.72v.35a5.91,5.91,0,0,0,.55,2.73A2,2,0,0,0,202.09,176.1Z"/><path class="cls-2" d="M208.78,172a6.75,6.75,0,0,1,1.59-4.64,5.5,5.5,0,0,1,4.38-1.81,5.58,5.58,0,0,1,4.41,1.8,6.81,6.81,0,0,1,1.58,4.65v.25a6.82,6.82,0,0,1-1.58,4.66,6.27,6.27,0,0,1-8.79,0,6.77,6.77,0,0,1-1.59-4.66Zm3.42.25a5.46,5.46,0,0,0,.61,2.78,2.34,2.34,0,0,0,3.91,0,5.51,5.51,0,0,0,.61-2.78V172a5.36,5.36,0,0,0-.62-2.75,2.31,2.31,0,0,0-3.9,0,5.46,5.46,0,0,0-.61,2.75Z"/><path class="cls-2" d="M222,176.43l1.64-.35v-7.87l-1.81-.35V165.8h5l.15,1.82a4.8,4.8,0,0,1,1.56-1.52,4.15,4.15,0,0,1,2.08-.53,3.83,3.83,0,0,1,3,1.2,5.59,5.59,0,0,1,1.08,3.79v5.52l1.64.35v2h-6.54v-2l1.46-.35v-5.51a2.58,2.58,0,0,0-.51-1.81,2.08,2.08,0,0,0-1.56-.53,2.67,2.67,0,0,0-1.22.27,2.41,2.41,0,0,0-.9.78v6.8l1.38.35v2H222Z"/><path class="cls-2" d="M237.36,176.43l1.65-.35v-7.87l-1.83-.35V165.8h5.25v10.28l1.65.35v2h-6.72Zm5.07-13.67H239V160.2h3.42Z"/><path class="cls-2" d="M245.39,176.43l1.65-.35V168.2h-1.89v-2.4H247v-1.41a4.28,4.28,0,0,1,1.23-3.28,4.86,4.86,0,0,1,3.46-1.16,5.3,5.3,0,0,1,.88.07q.45.06,1,.18l-.29,2.54-.55-.08a5.19,5.19,0,0,0-.61,0,1.65,1.65,0,0,0-1.26.46,1.83,1.83,0,0,0-.43,1.31v1.41H253v2.4h-2.52v7.88l1.65.35v2h-6.72Z"/><path class="cls-2" d="M267.25,167.86l-1.18.18-4.66,12.34a7,7,0,0,1-1.47,2.3,3.8,3.8,0,0,1-2.78.92,4.21,4.21,0,0,1-.81-.07c-.25-.05-.55-.11-.9-.2l.4-2.49.34,0,.31,0a1.87,1.87,0,0,0,1.31-.42,2.73,2.73,0,0,0,.7-1l.39-1-4-10.44-1.18-.19V165.8h6.21v2.06l-1.42.24,1.73,5.06.18.91.07,0,2-6-1.43-.24V165.8h6.21Z"/><path class="cls-3" d="M182.05,88.65l2.88-.35V76.74H182v-2l6.32-1.14V88.3l2.89.35v2h-9.18Z"/><path class="cls-3" d="M198.26,80.08V78h5l.16,1.48a4.17,4.17,0,0,1,1.35-1.27,3.6,3.6,0,0,1,1.83-.45,4.22,4.22,0,0,1,3.65,1.84,8.2,8.2,0,0,1,1.3,4.84v.25a7.24,7.24,0,0,1-1.3,4.52,4.28,4.28,0,0,1-3.63,1.71,4.18,4.18,0,0,1-1.77-.36,3.63,3.63,0,0,1-1.32-1.09v3.67l1.65.35v2.06h-6.72V93.51l1.66-.35V80.43Zm9.84,4.38a6.1,6.1,0,0,0-.6-2.9,1.94,1.94,0,0,0-1.82-1.12,2.58,2.58,0,0,0-1.32.32,2.2,2.2,0,0,0-.86.9v5.56a2.06,2.06,0,0,0,.86.82,2.86,2.86,0,0,0,1.34.28,2,2,0,0,0,1.82-1,5.12,5.12,0,0,0,.58-2.64Z"/><path class="cls-3" d="M221.12,90.7c-.09-.21-.17-.43-.24-.65a5.2,5.2,0,0,1-.17-.68,4.65,4.65,0,0,1-1.48,1.14,4.42,4.42,0,0,1-2,.43,4.17,4.17,0,0,1-3-1,3.56,3.56,0,0,1-1.09-2.76,3.12,3.12,0,0,1,1.43-2.75,7.43,7.43,0,0,1,4.19-1h1.75V82.2a1.89,1.89,0,0,0-.53-1.42,2.2,2.2,0,0,0-1.56-.5,3.64,3.64,0,0,0-1,.14,2.57,2.57,0,0,0-.74.32l-.22,1.36h-2.58V79.28A9.79,9.79,0,0,1,216,78.22a7.78,7.78,0,0,1,2.64-.44,6,6,0,0,1,3.83,1.16A3.93,3.93,0,0,1,224,82.23v5.23c0,.2,0,.38,0,.55a2.67,2.67,0,0,0,0,.5l1,.14v2Zm-3-2.29a3,3,0,0,0,1.4-.33,2.66,2.66,0,0,0,1-.84V85.31H218.8a2.38,2.38,0,0,0-1.65.51,1.58,1.58,0,0,0-.56,1.22,1.29,1.29,0,0,0,.41,1A1.71,1.71,0,0,0,218.16,88.41Z"/><path class="cls-3" d="M236.58,82.38h-2.3l-.36-1.58a2.88,2.88,0,0,0-.89-.47,3.34,3.34,0,0,0-1.17-.19,2.27,2.27,0,0,0-1.43.4,1.24,1.24,0,0,0-.53,1,1.16,1.16,0,0,0,.5,1,5.39,5.39,0,0,0,2,.68,8.25,8.25,0,0,1,3.49,1.37,3,3,0,0,1,1.14,2.51,3.32,3.32,0,0,1-1.47,2.79,6.39,6.39,0,0,1-3.88,1.08,8.29,8.29,0,0,1-2.69-.42,7,7,0,0,1-2.17-1.23l0-2.85h2.39l.46,1.66a2,2,0,0,0,.84.38,4.94,4.94,0,0,0,1.1.12,2.83,2.83,0,0,0,1.59-.37,1.18,1.18,0,0,0,.54-1,1.2,1.2,0,0,0-.55-1,5.69,5.69,0,0,0-2-.72,8.16,8.16,0,0,1-3.38-1.36,2.93,2.93,0,0,1-1.14-2.44A3.57,3.57,0,0,1,227.94,79a5.49,5.49,0,0,1,3.74-1.15,9.53,9.53,0,0,1,2.8.4,5.74,5.74,0,0,1,2.06,1Z"/><path class="cls-3" d="M248.93,82.38h-2.3l-.36-1.58a2.82,2.82,0,0,0-.88-.47,3.44,3.44,0,0,0-1.18-.19,2.29,2.29,0,0,0-1.43.4,1.24,1.24,0,0,0-.53,1,1.16,1.16,0,0,0,.5,1,5.39,5.39,0,0,0,2,.68,8.25,8.25,0,0,1,3.49,1.37,3,3,0,0,1,1.14,2.51,3.32,3.32,0,0,1-1.47,2.79,6.38,6.38,0,0,1-3.87,1.08,8.21,8.21,0,0,1-2.69-.42,7.08,7.08,0,0,1-2.18-1.23l0-2.85h2.39L242,88.1a1.94,1.94,0,0,0,.83.38,4.94,4.94,0,0,0,1.1.12,2.81,2.81,0,0,0,1.59-.37,1.18,1.18,0,0,0,.54-1,1.2,1.2,0,0,0-.55-1,5.69,5.69,0,0,0-2-.72,8.22,8.22,0,0,1-3.38-1.36A2.93,2.93,0,0,1,239,81.71,3.57,3.57,0,0,1,240.29,79,5.49,5.49,0,0,1,244,77.81a9.48,9.48,0,0,1,2.8.4,5.71,5.71,0,0,1,2.07,1Z"/><path class="cls-3" d="M250.93,84.24a6.75,6.75,0,0,1,1.59-4.64,6.23,6.23,0,0,1,8.79,0,6.76,6.76,0,0,1,1.59,4.65v.25a6.79,6.79,0,0,1-1.59,4.66,6.29,6.29,0,0,1-8.79,0,6.79,6.79,0,0,1-1.59-4.66Zm3.43.25a5.48,5.48,0,0,0,.61,2.78,2.09,2.09,0,0,0,2,1,2.07,2.07,0,0,0,1.94-1.06,5.44,5.44,0,0,0,.62-2.77v-.25a5.46,5.46,0,0,0-.62-2.75,2.12,2.12,0,0,0-2-1.07A2.07,2.07,0,0,0,255,81.49a5.46,5.46,0,0,0-.61,2.75Z"/><path class="cls-4" d="M281.5,101.7v47.69a1,1,0,0,0,.5.87l41.31,23.85a1,1,0,0,0,1,0l41.31-23.85a1,1,0,0,0,.5-.87V101.7a1,1,0,0,0-.5-.87L324.31,77a1,1,0,0,0-1,0L282,100.83A1,1,0,0,0,281.5,101.7Z"/><path class="cls-2" d="M300.73,135.76l.8-.12,3.39-9.69h2.29l3.37,9.69.8.12v1.34h-3.8v-1.34l.77-.14-.49-1.53h-3.61l-.49,1.53.77.14v1.34h-3.8Zm4-3.32h2.55l-1.25-3.93H306Z"/><path class="cls-2" d="M317.41,126a4.39,4.39,0,0,1,3,1,3.29,3.29,0,0,1,1.11,2.58,3.25,3.25,0,0,1-1.11,2.57,4.39,4.39,0,0,1-3,1h-1.88v2.48l1.2.23v1.34h-4.62v-1.34l1.19-.23v-8l-1.19-.23V126h5.3Zm-1.88,5.38h1.88a1.85,1.85,0,0,0,1.42-.51,1.82,1.82,0,0,0,.48-1.3,1.88,1.88,0,0,0-.48-1.32,1.83,1.83,0,0,0-1.42-.53h-1.88Z"/><path class="cls-2" d="M327.56,126a4.42,4.42,0,0,1,3,1,3.29,3.29,0,0,1,1.1,2.58,3.24,3.24,0,0,1-1.1,2.57,4.42,4.42,0,0,1-3,1h-1.89v2.48l1.2.23v1.34h-4.62v-1.34l1.19-.23v-8l-1.19-.23V126h5.31Zm-1.89,5.38h1.89a1.84,1.84,0,0,0,1.41-.51,1.82,1.82,0,0,0,.48-1.3,1.88,1.88,0,0,0-.48-1.32,1.82,1.82,0,0,0-1.41-.53h-1.89Z"/><path class="cls-2" d="M340.86,129.51h-1.67L338.9,128a3.1,3.1,0,0,0-.85-.32,5.1,5.1,0,0,0-1.19-.14,2.26,2.26,0,0,0-1.42.39,1.2,1.2,0,0,0-.5,1,1.11,1.11,0,0,0,.52.93,7.34,7.34,0,0,0,1.81.76,7.16,7.16,0,0,1,2.8,1.36,2.79,2.79,0,0,1,.95,2.21,2.63,2.63,0,0,1-1.13,2.26,4.94,4.94,0,0,1-3,.83,6.53,6.53,0,0,1-2.4-.42,4.93,4.93,0,0,1-1.78-1.17v-2.32h1.73l.24,1.58a2.72,2.72,0,0,0,.92.46,4.28,4.28,0,0,0,1.29.18,2.21,2.21,0,0,0,1.39-.38,1.2,1.2,0,0,0,.48-1,1.31,1.31,0,0,0-.45-1,4.72,4.72,0,0,0-1.6-.73,9.18,9.18,0,0,1-3-1.36,2.59,2.59,0,0,1-1-2.16,2.65,2.65,0,0,1,1.15-2.22,4.76,4.76,0,0,1,2.88-.88,6.78,6.78,0,0,1,2.35.39,5.49,5.49,0,0,1,1.77,1Z"/><path class="cls-2" d="M343,138.05H341.3l4.09-12.1H347Z"/><path class="cls-2" d="M317.3,145.19h-1.67l-.29-1.53a2.8,2.8,0,0,0-.85-.32,4.62,4.62,0,0,0-1.19-.14,2.33,2.33,0,0,0-1.42.38,1.23,1.23,0,0,0-.5,1,1.08,1.08,0,0,0,.52.93,7.08,7.08,0,0,0,1.81.77,7,7,0,0,1,2.8,1.36,2.8,2.8,0,0,1,1,2.21,2.65,2.65,0,0,1-1.14,2.26,4.94,4.94,0,0,1-3,.82,6.5,6.5,0,0,1-2.4-.42,4.91,4.91,0,0,1-1.78-1.16V149h1.74l.23,1.59a2.82,2.82,0,0,0,.92.45,4.28,4.28,0,0,0,1.29.18,2.21,2.21,0,0,0,1.39-.37,1.22,1.22,0,0,0,.48-1,1.31,1.31,0,0,0-.45-1,4.72,4.72,0,0,0-1.6-.73,9.17,9.17,0,0,1-3-1.37,2.56,2.56,0,0,1-1-2.15,2.64,2.64,0,0,1,1.15-2.22,4.8,4.8,0,0,1,2.89-.89,6.53,6.53,0,0,1,2.34.4,5.21,5.21,0,0,1,1.77,1Z"/><path class="cls-2" d="M322.25,143l-.85.15,2,6.68.14.61h.05l.13-.59,2-6.7-.84-.15v-1.35h4.07V143l-.93.12-3.29,9.67h-2.29l-3.3-9.67-.91-.12v-1.35h4.07Z"/><path class="cls-2" d="M338.62,145.39H337l-.23-1.49a2.4,2.4,0,0,0-.83-.52,3.3,3.3,0,0,0-1.19-.19,2.62,2.62,0,0,0-2.24,1.06,4.5,4.5,0,0,0-.78,2.75v.39a4.57,4.57,0,0,0,.78,2.77,2.57,2.57,0,0,0,2.2,1.06,3.61,3.61,0,0,0,1.21-.19,2.09,2.09,0,0,0,.85-.52L337,149h1.66v2.21a4.88,4.88,0,0,1-1.72,1.24,5.72,5.72,0,0,1-2.34.46,4.73,4.73,0,0,1-3.67-1.55,5.64,5.64,0,0,1-1.44-4V147a5.69,5.69,0,0,1,1.43-4,4.75,4.75,0,0,1,3.68-1.56,5.48,5.48,0,0,1,2.33.47,5,5,0,0,1,1.73,1.24Z"/><path class="cls-2" d="M94.07,125.78l.8-.11,3.39-9.7h2.29l3.36,9.7.8.11v1.34h-3.8v-1.34l.78-.14-.49-1.53H97.58l-.49,1.53.78.14v1.34h-3.8Zm4-3.31h2.56l-1.26-3.93h0Z"/><path class="cls-2" d="M110.75,116a4.36,4.36,0,0,1,3,1,3.54,3.54,0,0,1,0,5.15,4.45,4.45,0,0,1-3,1h-1.88v2.47l1.19.23v1.34h-4.61v-1.34l1.18-.23v-8l-1.18-.23V116h5.3Zm-1.88,5.38h1.88a1.7,1.7,0,0,0,1.89-1.8,1.89,1.89,0,0,0-.48-1.33,1.81,1.81,0,0,0-1.41-.52h-1.88Z"/><path class="cls-2" d="M120.89,116a4.34,4.34,0,0,1,3,1,3.54,3.54,0,0,1,0,5.15,4.43,4.43,0,0,1-3,1H119v2.47l1.2.23v1.34h-4.62v-1.34l1.19-.23v-8l-1.19-.23V116h5.3ZM119,121.35h1.88a1.7,1.7,0,0,0,1.9-1.8,1.89,1.89,0,0,0-.48-1.33,1.82,1.82,0,0,0-1.42-.52H119Z"/><path class="cls-2" d="M134.2,119.53h-1.68l-.29-1.53a3,3,0,0,0-.85-.32,5,5,0,0,0-1.18-.14,2.24,2.24,0,0,0-1.42.39,1.2,1.2,0,0,0-.51,1,1.09,1.09,0,0,0,.53.93,7.28,7.28,0,0,0,1.81.77,7.1,7.1,0,0,1,2.8,1.35,2.83,2.83,0,0,1,1,2.22,2.65,2.65,0,0,1-1.13,2.25,4.9,4.9,0,0,1-3,.83,6.48,6.48,0,0,1-2.39-.42,5,5,0,0,1-1.78-1.16v-2.33h1.73L128,125a2.58,2.58,0,0,0,.91.46,4.37,4.37,0,0,0,1.29.18,2.24,2.24,0,0,0,1.4-.38,1.2,1.2,0,0,0,.48-1,1.27,1.27,0,0,0-.46-1,4.54,4.54,0,0,0-1.59-.74,8.79,8.79,0,0,1-3-1.36,2.58,2.58,0,0,1-1-2.16,2.68,2.68,0,0,1,1.14-2.22,4.86,4.86,0,0,1,2.89-.88,6.68,6.68,0,0,1,2.34.39,5.43,5.43,0,0,1,1.78,1Z"/><path class="cls-2" d="M136.29,128.08h-1.65L138.72,116h1.66Z"/><path class="cls-2" d="M110.64,135.21H109l-.29-1.53a2.86,2.86,0,0,0-.85-.32,5,5,0,0,0-1.18-.14,2.24,2.24,0,0,0-1.42.39,1.18,1.18,0,0,0-.5,1,1.11,1.11,0,0,0,.52.93,7.28,7.28,0,0,0,1.81.77,7.1,7.1,0,0,1,2.8,1.35,2.82,2.82,0,0,1,1,2.21,2.65,2.65,0,0,1-1.13,2.26,5,5,0,0,1-3,.83,6.48,6.48,0,0,1-2.39-.42,4.93,4.93,0,0,1-1.78-1.17v-2.32h1.73l.24,1.58a2.76,2.76,0,0,0,.91.46,4.37,4.37,0,0,0,1.29.18,2.24,2.24,0,0,0,1.4-.38,1.2,1.2,0,0,0,.48-1,1.3,1.3,0,0,0-.46-1,4.75,4.75,0,0,0-1.59-.73,9.14,9.14,0,0,1-3-1.36,2.61,2.61,0,0,1-1-2.16,2.66,2.66,0,0,1,1.15-2.22,4.74,4.74,0,0,1,2.88-.88,6.68,6.68,0,0,1,2.34.39,5.43,5.43,0,0,1,1.78,1Z"/><path class="cls-2" d="M115.58,133l-.84.15,2,6.69.14.61h0l.13-.6,2-6.7-.85-.15v-1.35h4.08V133l-.94.12L118,142.8h-2.3l-3.29-9.68-.92-.12v-1.35h4.07Z"/><path class="cls-2" d="M132,135.41h-1.66l-.23-1.48a2.32,2.32,0,0,0-.83-.53,3.47,3.47,0,0,0-1.18-.19,2.63,2.63,0,0,0-2.24,1.06A4.52,4.52,0,0,0,125,137v.39a4.49,4.49,0,0,0,.79,2.76,2.56,2.56,0,0,0,2.2,1.06,3.61,3.61,0,0,0,1.21-.19,2,2,0,0,0,.84-.52l.23-1.48H132v2.2a4.81,4.81,0,0,1-1.72,1.25,5.8,5.8,0,0,1-2.33.46,4.76,4.76,0,0,1-3.68-1.56,5.65,5.65,0,0,1-1.43-4V137a5.68,5.68,0,0,1,1.42-4,4.77,4.77,0,0,1,3.69-1.56,5.64,5.64,0,0,1,2.33.47,5,5,0,0,1,1.72,1.25Z"/><path class="cls-3" d="M374.2,170.89a1.33,1.33,0,0,0,1-.34,1.27,1.27,0,0,0,.36-.94h2l0,0a2.57,2.57,0,0,1-.94,2.1,4,4,0,0,1-5.27-.32,4.47,4.47,0,0,1-1-3v-.23a4.45,4.45,0,0,1,1-3,3.69,3.69,0,0,1,2.94-1.18,5.07,5.07,0,0,1,1.8.3,3.56,3.56,0,0,1,1.32.84l0,2.21h-1.81l-.37-1.29a1.27,1.27,0,0,0-.41-.24,1.6,1.6,0,0,0-.56-.1,1.41,1.41,0,0,0-1.34.69,3.58,3.58,0,0,0-.39,1.78v.23a3.85,3.85,0,0,0,.36,1.79A1.3,1.3,0,0,0,374.2,170.89Z"/><path class="cls-3" d="M378.74,171.11l1.07-.23v-5.14l-1.18-.23v-1.35h3.27l.09,1.21a2.8,2.8,0,0,1,.75-1,1.71,1.71,0,0,1,1.07-.36l.37,0,.33.06-.24,2-.92,0a1.52,1.52,0,0,0-.81.19,1.28,1.28,0,0,0-.49.54v4l1.07.23v1.34h-4.38Z"/><path class="cls-3" d="M385.1,171.11l1.08-.23v-5.14l-1.19-.23v-1.35h3.43v6.72l1.07.23v1.34H385.1Zm3.32-8.93h-2.24v-1.67h2.24Z"/><path class="cls-3" d="M390.06,165.51v-1.35h3.24l.11,1a2.77,2.77,0,0,1,.88-.83,2.41,2.41,0,0,1,1.19-.29,2.75,2.75,0,0,1,2.39,1.2,5.34,5.34,0,0,1,.85,3.16v.17a4.72,4.72,0,0,1-.85,3,2.79,2.79,0,0,1-2.37,1.12,2.7,2.7,0,0,1-1.16-.24,2.43,2.43,0,0,1-.86-.71v2.39l1.08.23v1.35h-4.39v-1.35l1.08-.23v-8.31Zm6.43,2.86a4,4,0,0,0-.39-1.89,1.27,1.27,0,0,0-1.2-.73,1.69,1.69,0,0,0-.86.21,1.39,1.39,0,0,0-.56.59v3.62a1.32,1.32,0,0,0,.56.54,1.94,1.94,0,0,0,.88.18,1.3,1.3,0,0,0,1.19-.63,3.37,3.37,0,0,0,.38-1.72Z"/><path class="cls-3" d="M403,162.14v2h1.45v1.57H403V170a1,1,0,0,0,.2.69.69.69,0,0,0,.53.21l.4,0a3.24,3.24,0,0,0,.39-.07l.19,1.62a5.23,5.23,0,0,1-.74.17,5,5,0,0,1-.8.06,2.37,2.37,0,0,1-1.78-.64,2.8,2.8,0,0,1-.62-2v-4.23h-1.22v-1.57h1.22v-2Z"/><path class="cls-3" d="M405.34,168.23a4.44,4.44,0,0,1,1-3,3.66,3.66,0,0,1,2.87-1.18,3.6,3.6,0,0,1,2.87,1.18,4.4,4.4,0,0,1,1,3v.16a4.37,4.37,0,0,1-1,3,3.59,3.59,0,0,1-2.86,1.18,3.65,3.65,0,0,1-2.88-1.18,4.41,4.41,0,0,1-1-3Zm2.23.16a3.56,3.56,0,0,0,.4,1.82,1.53,1.53,0,0,0,2.55,0,3.52,3.52,0,0,0,.4-1.81v-.16a3.53,3.53,0,0,0-.4-1.8,1.39,1.39,0,0,0-1.28-.7,1.37,1.37,0,0,0-1.27.7,3.53,3.53,0,0,0-.4,1.8Z"/><path class="cls-3" d="M414.26,168.37a5.35,5.35,0,0,1,.86-3.16,2.75,2.75,0,0,1,2.39-1.2,2.33,2.33,0,0,1,1.22.31,2.75,2.75,0,0,1,.91.89l.16-1.05h1.94v8a3.43,3.43,0,0,1-1,2.62,4,4,0,0,1-2.83,1,5.33,5.33,0,0,1-1.33-.17,5.89,5.89,0,0,1-1.3-.47l.41-1.57a7.6,7.6,0,0,0,1.08.36,4.54,4.54,0,0,0,1.13.14,1.49,1.49,0,0,0,1.22-.5,2.13,2.13,0,0,0,.41-1.39v-.54a2.47,2.47,0,0,1-2,1,2.82,2.82,0,0,1-2.37-1.12,4.74,4.74,0,0,1-.86-3Zm2.24.17a3.45,3.45,0,0,0,.36,1.71,1.3,1.3,0,0,0,1.2.62,1.8,1.8,0,0,0,.87-.19,1.47,1.47,0,0,0,.57-.54v-3.6a1.59,1.59,0,0,0-.57-.58,1.65,1.65,0,0,0-.85-.21,1.25,1.25,0,0,0-1.2.73,4,4,0,0,0-.38,1.89Z"/><path class="cls-3" d="M423.25,171.11l1.07-.23v-5.14l-1.18-.23v-1.35h3.26l.1,1.21a2.8,2.8,0,0,1,.75-1,1.69,1.69,0,0,1,1.07-.36l.37,0,.32.06-.23,2-.92,0a1.52,1.52,0,0,0-.81.19,1.22,1.22,0,0,0-.49.54v4l1.07.23v1.34h-4.38Z"/><path class="cls-3" d="M434.8,172.45c-.06-.14-.11-.28-.16-.43a3.15,3.15,0,0,1-.11-.44,2.85,2.85,0,0,1-2.27,1,2.72,2.72,0,0,1-1.93-.66,2.34,2.34,0,0,1-.72-1.81,2,2,0,0,1,.93-1.79,4.86,4.86,0,0,1,2.75-.64h1.14v-.81a1.23,1.23,0,0,0-.35-.93,1.42,1.42,0,0,0-1-.33,2.38,2.38,0,0,0-.68.09,1.81,1.81,0,0,0-.48.21l-.15.89h-1.68V165a6.54,6.54,0,0,1,1.4-.7,5.36,5.36,0,0,1,1.73-.28,3.94,3.94,0,0,1,2.5.75,2.58,2.58,0,0,1,1,2.15v3.78a1.76,1.76,0,0,0,0,.33l.68.09v1.34Zm-1.94-1.5a2,2,0,0,0,.92-.21,1.87,1.87,0,0,0,.65-.55v-1.26h-1.14a1.55,1.55,0,0,0-1.08.33,1,1,0,0,0-.37.8.84.84,0,0,0,.27.66A1.09,1.09,0,0,0,432.86,171Z"/><path class="cls-3" d="M438.26,171.11l1.08-.23v-5.15h-1.23v-1.57h1.23v-.91a2.79,2.79,0,0,1,.81-2.15,3.15,3.15,0,0,1,2.25-.75,3.86,3.86,0,0,1,.58,0,6.54,6.54,0,0,1,.65.12l-.19,1.66-.36-.06-.4,0a1.06,1.06,0,0,0-.82.3,1.19,1.19,0,0,0-.28.86v.91h1.64v1.57h-1.64v5.15l1.08.23v1.34h-4.4Z"/><path class="cls-3" d="M449.25,172.45a3.2,3.2,0,0,1-.17-.43,3.13,3.13,0,0,1-.1-.44,3.12,3.12,0,0,1-1,.75,3,3,0,0,1-1.31.28,2.74,2.74,0,0,1-1.93-.66,2.34,2.34,0,0,1-.71-1.81,2,2,0,0,1,.93-1.79,4.82,4.82,0,0,1,2.74-.64h1.14v-.81a1.22,1.22,0,0,0-.34-.93,1.42,1.42,0,0,0-1-.33,2.33,2.33,0,0,0-.68.09,2.06,2.06,0,0,0-.49.21l-.14.89h-1.69V165a6.62,6.62,0,0,1,1.41-.7,5.3,5.3,0,0,1,1.72-.28,3.94,3.94,0,0,1,2.5.75,2.58,2.58,0,0,1,1,2.15v3.43c0,.12,0,.24,0,.35a1.76,1.76,0,0,0,0,.33l.68.09v1.34Zm-1.94-1.5a2,2,0,0,0,.92-.21,1.83,1.83,0,0,0,.64-.55v-1.26h-1.14a1.59,1.59,0,0,0-1.08.33,1.06,1.06,0,0,0-.37.8.81.81,0,0,0,.28.66A1.09,1.09,0,0,0,447.31,171Z"/><path class="cls-3" d="M458,171.44a2.71,2.71,0,0,1-.92.87,2.41,2.41,0,0,1-1.21.3,2.8,2.8,0,0,1-2.38-1.12,4.78,4.78,0,0,1-.85-3v-.17a5.42,5.42,0,0,1,.85-3.16,2.77,2.77,0,0,1,2.39-1.2,2.29,2.29,0,0,1,1.12.27,2.75,2.75,0,0,1,.87.77v-3l-1.19-.23v-1.34h3.43v10.37l1.07.23v1.34h-3Zm-3.12-2.9a3.45,3.45,0,0,0,.36,1.71,1.29,1.29,0,0,0,1.2.62,1.74,1.74,0,0,0,.84-.2,1.53,1.53,0,0,0,.59-.57v-3.52a1.7,1.7,0,0,0-.58-.61,1.55,1.55,0,0,0-.84-.22,1.24,1.24,0,0,0-1.19.73,4.09,4.09,0,0,0-.38,1.89Z"/><path class="cls-3" d="M461.86,168.23a4.45,4.45,0,0,1,1-3,4.08,4.08,0,0,1,5.74,0,4.45,4.45,0,0,1,1,3v.16a4.41,4.41,0,0,1-1,3,4.08,4.08,0,0,1-5.74,0,4.41,4.41,0,0,1-1-3Zm2.24.16a3.67,3.67,0,0,0,.39,1.82,1.54,1.54,0,0,0,2.56,0,3.52,3.52,0,0,0,.4-1.81v-.16a3.53,3.53,0,0,0-.4-1.8,1.4,1.4,0,0,0-1.28-.7,1.38,1.38,0,0,0-1.28.7,3.64,3.64,0,0,0-.39,1.8Z"/><path class="cls-3" d="M351.79,56.09v3h-1.72L350,57.81h-2.05v7.85l1.19.23v1.34H344.5V65.89l1.19-.23V57.81h-2l-.09,1.25h-1.71v-3Z"/><path class="cls-3" d="M352.51,67.23V65.89l1.19-.23v-8l-1.19-.23V56.09h4.62v1.34l-1.19.23v7.86h3.14l.11-1.4h1.71v3.11Z"/><path class="cls-3" d="M370.17,59.64h-1.68l-.29-1.53a3,3,0,0,0-.85-.32,5,5,0,0,0-1.19-.14,2.28,2.28,0,0,0-1.42.39,1.22,1.22,0,0,0-.5,1,1.09,1.09,0,0,0,.53.93,7.28,7.28,0,0,0,1.81.77,7,7,0,0,1,2.8,1.36,2.81,2.81,0,0,1,.95,2.21,2.68,2.68,0,0,1-1.13,2.26,5,5,0,0,1-3,.82,6.48,6.48,0,0,1-2.39-.42A5,5,0,0,1,362,65.81V63.48h1.73l.24,1.58a2.58,2.58,0,0,0,.91.46,4.37,4.37,0,0,0,1.29.18,2.25,2.25,0,0,0,1.4-.37,1.22,1.22,0,0,0,.48-1,1.3,1.3,0,0,0-.46-1,4.61,4.61,0,0,0-1.6-.74,9,9,0,0,1-3-1.36A2.57,2.57,0,0,1,362,59a2.66,2.66,0,0,1,1.15-2.21,4.8,4.8,0,0,1,2.89-.89,6.68,6.68,0,0,1,2.34.39,5.43,5.43,0,0,1,1.78,1Z"/><path class="cls-5" d="M329.91,86V65.29h-12.2V86a6.11,6.11,0,1,0,12.2,0Z"/><ellipse class="cls-6" cx="323.81" cy="63.15" rx="6.1" ry="6.41"/><path class="cls-7" d="M431.54,127.29H367.29a6.27,6.27,0,0,0,0,12.5h64.25"/><line class="cls-8" x1="323.81" y1="60.46" x2="323.81" y2="87.23"/><polygon class="cls-3" points="320.54 63.11 321.12 63.66 323.81 60.77 326.5 63.66 327.08 63.11 323.81 59.59 320.54 63.11"/><polygon class="cls-3" points="320.54 84.58 321.12 84.03 323.81 86.92 326.5 84.03 327.08 84.58 323.81 88.1 320.54 84.58"/><line class="cls-9" x1="281.62" y1="102.35" x2="291.6" y2="108.05"/><line class="cls-9" x1="365.71" y1="102.35" x2="355.73" y2="108.05"/><line class="cls-9" x1="323.81" y1="173.61" x2="323.81" y2="163.64"/><line class="cls-10" x1="422.83" y1="134.23" x2="421.83" y2="134.23"/><line class="cls-11" x1="419.87" y1="134.23" x2="373.81" y2="134.23"/><line class="cls-10" x1="372.83" y1="134.23" x2="371.83" y2="134.23"/><polygon class="cls-3" points="420.18 130.95 419.63 131.54 422.52 134.22 419.63 136.91 420.18 137.5 423.7 134.22 420.18 130.95"/><polygon class="cls-3" points="374.48 130.95 375.02 131.54 372.14 134.22 375.02 136.91 374.48 137.5 370.96 134.22 374.48 130.95"/><rect class="cls-12" x="429.7" y="106.78" width="38.63" height="44.79"/><rect class="cls-13" x="429.7" y="105.36" width="38.63" height="44.79"/><polyline class="cls-13" points="438.8 129.07 435.27 130.97 442 137.48 443.71 134.02"/><polyline class="cls-13" points="438.8 129.07 448.83 123.69 443.71 134.02"/><path class="cls-13" d="M438.8,129.07A11.48,11.48,0,1,1,449,135.31a11.53,11.53,0,0,1-5.3-1.29"/><path class="cls-3" d="M448.73,121a2.52,2.52,0,1,1-2.52,2.52,2.51,2.51,0,0,1,2.52-2.52m0-2a4.52,4.52,0,1,0,4.52,4.52,4.52,4.52,0,0,0-4.52-4.52Z"/><path class="cls-14" d="M323.85,116.69h-5.63c-.77,0-1.07-.3-1.07-1.06v-8.58c0-.77.3-1.07,1.07-1.07h11.22c.73,0,1,.3,1,1v8.62c0,.72-.3,1-1,1C327.57,116.74,325.69,116.69,323.85,116.69Z"/><path class="cls-14" d="M318.07,105.23a6,6,0,0,1,3.5-5.48,5.57,5.57,0,0,1,7.67,3.78c.13.51.18,1,.31,1.58"/><path class="cls-15" d="M322.92,113h0v1.15c0,.22.08.3.34.3h1.11c.3,0,.38-.08.38-.34V112a.49.49,0,0,1,.3-.51,1.6,1.6,0,0,0,.81-1.92,2,2,0,0,0-1.92-1.28,2.15,2.15,0,0,0-2.13,1.15,1.59,1.59,0,0,0,.72,2,.55.55,0,0,1,.34.64A6.25,6.25,0,0,1,322.92,113Z"/><path class="cls-14" d="M449.28,98.16h-5.64c-.76,0-1.06-.29-1.06-1.06V88.52c0-.77.3-1.07,1.06-1.07h11.23c.72,0,1,.3,1,1V97.1c0,.72-.3,1-1,1C453,98.21,451.11,98.16,449.28,98.16Z"/><path class="cls-14" d="M443.49,86.7A6,6,0,0,1,447,81.22,5.56,5.56,0,0,1,454.66,85c.14.52.18,1,.31,1.58"/><path class="cls-15" d="M448.34,94.49h0v1.16c0,.21.09.3.34.3h1.11c.3,0,.39-.09.39-.35V93.47a.49.49,0,0,1,.3-.51,1.63,1.63,0,0,0,.81-1.92,2,2,0,0,0-1.92-1.28,2.16,2.16,0,0,0-2.14,1.15,1.6,1.6,0,0,0,.73,2,.55.55,0,0,1,.34.64A7.63,7.63,0,0,1,448.34,94.49Z"/><path class="cls-16" d="M74.42,101.7v47.69a1,1,0,0,0,.5.87l41.31,23.85a1,1,0,0,0,1,0l41.3-23.85a1,1,0,0,0,.5-.87V101.7a1,1,0,0,0-.5-.87L117.23,77a1,1,0,0,0-1,0L74.92,100.83A1,1,0,0,0,74.42,101.7Z"/><line class="cls-17" x1="74.1" y1="102.35" x2="84.08" y2="108.05"/><line class="cls-17" x1="158.19" y1="102.35" x2="148.21" y2="108.05"/><line class="cls-17" x1="116.29" y1="173.61" x2="116.29" y2="163.64"/><path class="cls-3" d="M232.7,148.45a5.75,5.75,0,0,1-4.06-9.81l12.6-12.6-12.6-12.59a5.75,5.75,0,1,1,8.13-8.13L253.43,122a5.76,5.76,0,0,1,0,8.13l-16.66,16.66A5.75,5.75,0,0,1,232.7,148.45Z"/><path class="cls-3" d="M245.16,131.79H196.75a5.75,5.75,0,0,1,0-11.49h48.41a5.75,5.75,0,1,1,0,11.49Z"/><path class="cls-18" d="M537.06,0H424L543.83,119.86V6.77A6.77,6.77,0,0,0,537.06,0Z"/><polygon class="cls-19" points="513.66 40.93 500.75 33.47 500.75 48.39 513.66 40.93"/><circle class="cls-20" cx="505.63" cy="40.85" r="18.77"/></g></svg>