<?xml version="1.0" encoding="utf-8"?>
<!-- Generator: Adobe Illustrator 26.0.1, SVG Export Plug-In . SVG Version: 6.00 Build 0)  -->
<svg version="1.1" id="Ebene_1" xmlns="http://www.w3.org/2000/svg" xmlns:xlink="http://www.w3.org/1999/xlink" x="0px" y="0px"
	 viewBox="0 0 543.8 235" style="enable-background:new 0 0 543.8 235;" xml:space="preserve">
<style type="text/css">
	.st0{fill:#EEEEEE;}
	.st1{fill:url(#SVGID_1_);}
	.st2{enable-background:new    ;}
	.st3{fill:#FFFFFF;}
	.st4{fill:#FFCC00;}
	.st5{fill:url(#SVGID_00000178180188872305919370000017504976826800918699_);stroke:#FFCC00;stroke-width:3;stroke-miterlimit:10;}
	.st6{fill:url(#SVGID_00000031889983958420240120000007818057247442398353_);stroke:#FFCC00;stroke-width:2;stroke-miterlimit:10;}
	.st7{fill:url(#SVGID_00000134948720288186318570000000948955519536236447_);stroke:#FFCC00;stroke-width:2;stroke-miterlimit:10;}
	.st8{fill:url(#SVGID_00000054968668298659608910000018284897276322150533_);stroke:#FFCC00;stroke-width:2;stroke-miterlimit:10;}
	.st9{fill:none;stroke:#FFCC00;stroke-width:2;stroke-miterlimit:10;stroke-dasharray:2,2;}
	.st10{fill:none;stroke:#FFCC00;stroke-width:3;stroke-linecap:round;stroke-miterlimit:10;}
	.st11{fill:none;stroke:#FFCC00;stroke-width:2;stroke-miterlimit:10;}
	.st12{fill:none;stroke:#FFCC00;stroke-width:2;stroke-miterlimit:10;stroke-dasharray:1.96,1.96;}
	.st13{fill:url(#SVGID_00000002385035142610517960000008647558932933032886_);stroke:#FFCC00;stroke-width:3;stroke-miterlimit:10;}
	.st14{fill:none;stroke:#FFCC00;stroke-width:2;stroke-linecap:round;stroke-linejoin:round;}
	.st15{fill:none;stroke:#38AF72;stroke-width:2;stroke-linecap:round;stroke-linejoin:round;}
	.st16{fill:#38AF72;}
	.st17{fill:none;stroke:#FFFFFF;stroke-width:3;stroke-miterlimit:10;}
	.st18{fill:none;stroke:#FFFFFF;stroke-width:3;stroke-linecap:round;stroke-miterlimit:10;}
	.st19{opacity:0.4;fill:#3399FF;enable-background:new    ;}
	.st20{fill:#3399FF;}
	.st21{fill:none;stroke:#3399FF;stroke-width:4;stroke-linecap:round;stroke-linejoin:round;}
</style>
<g id="Lock">
	<rect x="-709.6" y="-1459" class="st0" width="1921" height="3438.6"/>
	
		<linearGradient id="SVGID_1_" gradientUnits="userSpaceOnUse" x1="0" y1="118.5" x2="543.83" y2="118.5" gradientTransform="matrix(1 0 0 -1 0 236)">
		<stop  offset="0" style="stop-color:#981869"/>
		<stop  offset="0.19" style="stop-color:#771C65"/>
		<stop  offset="0.4" style="stop-color:#591F62"/>
		<stop  offset="0.61" style="stop-color:#432260"/>
		<stop  offset="0.81" style="stop-color:#36235E"/>
		<stop  offset="1" style="stop-color:#32245E"/>
	</linearGradient>
	<path class="st1" d="M5,0h531.8c3.9,0,7,3.1,7,7l0,0v223c0,2.8-2.2,5-5,5H5c-2.8,0-5-2.2-5-5V5C0,2.2,2.2,0,5,0z"/>
	<g class="st2">
		<path class="st3" d="M194.1,170.2h-2.3l-0.4-1.6c-0.2-0.2-0.5-0.3-0.9-0.5s-0.7-0.2-1.2-0.2c-0.6,0-1.1,0.1-1.4,0.4
			s-0.5,0.6-0.5,1c0,0.4,0.2,0.7,0.5,1s1,0.5,2,0.7c1.6,0.3,2.7,0.8,3.5,1.4s1.1,1.4,1.1,2.5c0,1.1-0.5,2.1-1.5,2.8
			s-2.3,1.1-3.9,1.1c-1,0-1.9-0.1-2.7-0.4s-1.5-0.7-2.2-1.2l0-2.8h2.4l0.5,1.7c0.2,0.2,0.5,0.3,0.8,0.4s0.7,0.1,1.1,0.1
			c0.7,0,1.2-0.1,1.6-0.4s0.5-0.6,0.5-1c0-0.4-0.2-0.7-0.6-1s-1-0.5-2-0.7c-1.5-0.3-2.6-0.8-3.4-1.4s-1.1-1.4-1.1-2.4
			c0-1.1,0.4-2,1.3-2.7s2.1-1.2,3.7-1.2c1,0,1.9,0.1,2.8,0.4s1.6,0.6,2.1,1L194.1,170.2z"/>
		<path class="st3" d="M202.1,176.1c0.6,0,1.1-0.2,1.5-0.5s0.6-0.8,0.6-1.4h3.1l0,0.1c0,1.3-0.4,2.4-1.4,3.2s-2.2,1.3-3.7,1.3
			c-1.9,0-3.3-0.6-4.4-1.8s-1.5-2.7-1.5-4.6V172c0-1.9,0.5-3.4,1.6-4.6s2.5-1.8,4.5-1.8c1,0,1.9,0.2,2.8,0.5s1.5,0.7,2,1.3l0,3.4
			h-2.8l-0.6-2c-0.2-0.1-0.4-0.3-0.6-0.4s-0.5-0.1-0.9-0.1c-1,0-1.7,0.4-2.1,1.1s-0.6,1.6-0.6,2.7v0.4c0,1.1,0.2,2,0.6,2.7
			S201.2,176.1,202.1,176.1z"/>
		<path class="st3" d="M208.8,172c0-1.9,0.5-3.4,1.6-4.6s2.5-1.8,4.4-1.8c1.9,0,3.3,0.6,4.4,1.8s1.6,2.8,1.6,4.7v0.2
			c0,1.9-0.5,3.5-1.6,4.7s-2.5,1.8-4.4,1.8c-1.9,0-3.4-0.6-4.4-1.8s-1.6-2.8-1.6-4.7V172z M212.2,172.3c0,1.2,0.2,2.1,0.6,2.8
			s1.1,1,2,1c0.9,0,1.5-0.4,1.9-1.1s0.6-1.6,0.6-2.8V172c0-1.1-0.2-2-0.6-2.8s-1.1-1.1-2-1.1s-1.5,0.4-1.9,1.1s-0.6,1.6-0.6,2.8
			V172.3z"/>
		<path class="st3" d="M222,176.4l1.6-0.4v-7.9l-1.8-0.4v-2.1h5l0.2,1.8c0.4-0.6,0.9-1.2,1.6-1.5s1.3-0.5,2.1-0.5
			c1.3,0,2.3,0.4,3,1.2s1.1,2.1,1.1,3.8v5.5l1.6,0.4v2.1h-6.5v-2.1l1.5-0.4v-5.5c0-0.9-0.2-1.5-0.5-1.8s-0.9-0.5-1.6-0.5
			c-0.5,0-0.9,0.1-1.2,0.3s-0.7,0.4-0.9,0.8v6.8l1.4,0.4v2.1H222V176.4z"/>
		<path class="st3" d="M237.4,176.4l1.7-0.4v-7.9l-1.8-0.4v-2.1h5.2v10.3l1.6,0.4v2.1h-6.7V176.4z M242.4,162.8H239v-2.6h3.4V162.8z
			"/>
		<path class="st3" d="M245.4,176.4l1.7-0.4v-7.9h-1.9v-2.4h1.9v-1.4c0-1.4,0.4-2.5,1.2-3.3s2-1.2,3.5-1.2c0.3,0,0.6,0,0.9,0.1
			s0.6,0.1,1,0.2l-0.3,2.5c-0.2,0-0.4-0.1-0.5-0.1s-0.4,0-0.6,0c-0.6,0-1,0.2-1.3,0.5s-0.4,0.7-0.4,1.3v1.4h2.5v2.4h-2.5v7.9
			l1.7,0.4v2.1h-6.7V176.4z"/>
		<path class="st3" d="M267.3,167.9l-1.2,0.2l-4.7,12.3c-0.4,0.9-0.9,1.7-1.5,2.3s-1.5,0.9-2.8,0.9c-0.3,0-0.6,0-0.8-0.1
			s-0.6-0.1-0.9-0.2l0.4-2.5c0.1,0,0.2,0,0.3,0s0.2,0,0.3,0c0.6,0,1-0.1,1.3-0.4s0.5-0.6,0.7-1l0.4-1l-4-10.4l-1.2-0.2v-2.1h6.2v2.1
			l-1.4,0.2l1.7,5.1l0.2,0.9l0.1,0l2-6l-1.4-0.2v-2.1h6.2V167.9z"/>
	</g>
	<g class="st2">
		<path class="st4" d="M187.7,88.6l2.9-0.4V76.7h-2.9v-2l6.3-1.1v14.7l2.9,0.4v2.1h-9.2V88.6z"/>
		<path class="st4" d="M205.7,84.7h-6.6v-2.6h6.6V84.7z"/>
		<path class="st4" d="M220.8,79.1h-2.6l-0.4-2.3c-0.3-0.2-0.7-0.4-1.3-0.5s-1.2-0.2-1.8-0.2c-0.9,0-1.7,0.2-2.2,0.6
			s-0.8,0.9-0.8,1.5c0,0.6,0.3,1.1,0.8,1.4s1.5,0.8,2.8,1.2c1.9,0.5,3.3,1.2,4.3,2.1s1.5,2,1.5,3.4c0,1.5-0.6,2.6-1.7,3.5
			s-2.7,1.3-4.6,1.3c-1.4,0-2.6-0.2-3.7-0.6s-2-1-2.7-1.8V85h2.6l0.4,2.4c0.3,0.3,0.8,0.5,1.4,0.7s1.2,0.3,2,0.3
			c0.9,0,1.7-0.2,2.1-0.6s0.7-0.9,0.7-1.5c0-0.7-0.2-1.2-0.7-1.6s-1.3-0.8-2.4-1.1c-2-0.6-3.6-1.3-4.6-2.1s-1.6-1.9-1.6-3.3
			c0-1.4,0.6-2.5,1.8-3.4s2.6-1.3,4.4-1.4c1.3,0,2.5,0.2,3.6,0.6s2,0.9,2.7,1.6V79.1z"/>
		<path class="st4" d="M227.5,74.9V78h2.2v2.4h-2.2v6.5c0,0.5,0.1,0.8,0.3,1.1s0.5,0.3,0.8,0.3c0.2,0,0.4,0,0.6,0s0.4-0.1,0.6-0.1
			l0.3,2.5c-0.4,0.1-0.8,0.2-1.1,0.3s-0.8,0.1-1.2,0.1c-1.2,0-2.1-0.3-2.7-1s-1-1.7-1-3.1v-6.5h-1.9V78h1.9v-3.1H227.5z"/>
		<path class="st4" d="M237.5,90.9c-1.8,0-3.3-0.6-4.4-1.8s-1.6-2.7-1.6-4.5v-0.5c0-1.9,0.5-3.4,1.6-4.7s2.4-1.8,4.2-1.8
			c1.7,0,3,0.5,4,1.5s1.4,2.4,1.4,4.2v1.9H235l0,0.1c0.1,0.8,0.3,1.5,0.8,2.1s1.2,0.8,2,0.8c0.8,0,1.4-0.1,1.9-0.2s1-0.4,1.6-0.7
			l0.9,2.1c-0.5,0.4-1.2,0.8-2,1S238.5,90.9,237.5,90.9z M237.1,80.4c-0.6,0-1.1,0.2-1.5,0.7s-0.6,1.1-0.7,1.9l0,0.1h4.2v-0.3
			c0-0.7-0.2-1.3-0.5-1.7S237.8,80.4,237.1,80.4z"/>
		<path class="st4" d="M243.9,80.1V78h5l0.2,1.5c0.4-0.5,0.8-1,1.3-1.3s1.1-0.4,1.8-0.4c1.6,0,2.8,0.6,3.7,1.8s1.3,2.8,1.3,4.8v0.2
			c0,1.9-0.4,3.4-1.3,4.5s-2.1,1.7-3.6,1.7c-0.7,0-1.3-0.1-1.8-0.4s-1-0.6-1.3-1.1v3.7l1.7,0.4v2.1h-6.7v-2.1l1.7-0.4V80.4
			L243.9,80.1z M253.8,84.5c0-1.2-0.2-2.2-0.6-2.9s-1-1.1-1.8-1.1c-0.5,0-1,0.1-1.3,0.3s-0.7,0.5-0.9,0.9v5.6
			c0.2,0.4,0.5,0.6,0.9,0.8s0.8,0.3,1.3,0.3c0.8,0,1.4-0.3,1.8-1s0.6-1.5,0.6-2.6V84.5z"/>
	</g>
	
		<linearGradient id="SVGID_00000000906588773824614520000007925544875725933479_" gradientUnits="userSpaceOnUse" x1="366.12" y1="110.445" x2="281.5" y2="110.445" gradientTransform="matrix(1 0 0 -1 0 236)">
		<stop  offset="0" style="stop-color:#981869"/>
		<stop  offset="0.19" style="stop-color:#771C65"/>
		<stop  offset="0.4" style="stop-color:#591F62"/>
		<stop  offset="0.61" style="stop-color:#432260"/>
		<stop  offset="0.81" style="stop-color:#36235E"/>
		<stop  offset="1" style="stop-color:#32245E"/>
	</linearGradient>
	
		<path style="fill:url(#SVGID_00000000906588773824614520000007925544875725933479_);stroke:#FFCC00;stroke-width:3;stroke-miterlimit:10;" d="
		M281.5,101.7v47.7c0,0.4,0.2,0.7,0.5,0.9l41.3,23.9c0.3,0.2,0.7,0.2,1,0l41.3-23.9c0.3-0.2,0.5-0.5,0.5-0.9v-47.7
		c0-0.4-0.2-0.7-0.5-0.9L324.3,77c-0.3-0.2-0.7-0.2-1,0L282,100.8C281.7,101,281.5,101.3,281.5,101.7z"/>
	<path class="st3" d="M300.7,135.8l0.8-0.1l3.4-9.7h2.3l3.4,9.7l0.8,0.1v1.3h-3.8v-1.3l0.8-0.1l-0.5-1.5h-3.6l-0.5,1.5l0.8,0.1v1.3
		h-3.8L300.7,135.8z M304.7,132.4h2.5l-1.2-3.9h0L304.7,132.4z"/>
	<path class="st3" d="M317.4,126c1.1,0,2.2,0.3,3,1c0.7,0.7,1.1,1.6,1.1,2.6c0,1-0.4,1.9-1.1,2.6c-0.8,0.7-1.9,1-3,1h-1.9v2.5
		l1.2,0.2v1.3h-4.6v-1.3l1.2-0.2v-8l-1.2-0.2V126H317.4z M315.5,131.4h1.9c0.5,0,1-0.1,1.4-0.5c0.3-0.4,0.5-0.8,0.5-1.3
		c0-0.5-0.2-1-0.5-1.3c-0.4-0.4-0.9-0.6-1.4-0.5h-1.9V131.4z"/>
	<path class="st3" d="M327.6,126c1.1,0,2.2,0.3,3,1c0.7,0.7,1.1,1.6,1.1,2.6c0,1-0.4,1.9-1.1,2.6c-0.8,0.7-1.9,1-3,1h-1.9v2.5
		l1.2,0.2v1.3h-4.6v-1.3l1.2-0.2v-8l-1.2-0.2V126H327.6z M325.7,131.4h1.9c0.5,0,1-0.1,1.4-0.5c0.3-0.4,0.5-0.8,0.5-1.3
		c0-0.5-0.2-1-0.5-1.3c-0.4-0.4-0.9-0.6-1.4-0.5h-1.9V131.4z"/>
	<path class="st3" d="M340.9,129.5h-1.7l-0.3-1.5c-0.3-0.1-0.6-0.3-0.9-0.3c-0.4-0.1-0.8-0.1-1.2-0.1c-0.5,0-1,0.1-1.4,0.4
		c-0.3,0.2-0.5,0.6-0.5,1c0,0.4,0.2,0.7,0.5,0.9c0.6,0.3,1.2,0.6,1.8,0.8c1,0.2,2,0.7,2.8,1.4c0.7,0.5,1,1.4,1,2.2
		c0,0.9-0.4,1.7-1.1,2.3c-0.9,0.6-1.9,0.9-3,0.8c-0.8,0-1.6-0.1-2.4-0.4c-0.7-0.3-1.3-0.7-1.8-1.2v-2.3h1.7l0.2,1.6
		c0.3,0.2,0.6,0.4,0.9,0.5c0.4,0.1,0.9,0.2,1.3,0.2c0.5,0,1-0.1,1.4-0.4c0.3-0.2,0.5-0.6,0.5-1c0-0.4-0.2-0.7-0.5-1
		c-0.5-0.3-1-0.6-1.6-0.7c-1.1-0.3-2.1-0.7-3-1.4c-0.7-0.5-1-1.3-1-2.2c0-0.9,0.4-1.7,1.1-2.2c0.8-0.6,1.9-0.9,2.9-0.9
		c0.8,0,1.6,0.1,2.3,0.4c0.6,0.2,1.2,0.6,1.8,1L340.9,129.5z"/>
	<path class="st3" d="M343,138.1h-1.7l4.1-12.1h1.6L343,138.1z"/>
	<path class="st3" d="M317.3,145.2h-1.7l-0.3-1.5c-0.3-0.2-0.6-0.3-0.9-0.3c-0.4-0.1-0.8-0.1-1.2-0.1c-0.5,0-1,0.1-1.4,0.4
		c-0.3,0.2-0.5,0.6-0.5,1c0,0.4,0.2,0.7,0.5,0.9c0.6,0.3,1.2,0.6,1.8,0.8c1,0.2,2,0.7,2.8,1.4c0.7,0.5,1,1.4,1,2.2
		c0,0.9-0.4,1.7-1.1,2.3c-0.9,0.6-1.9,0.9-3,0.8c-0.8,0-1.6-0.1-2.4-0.4c-0.7-0.3-1.3-0.6-1.8-1.2V149h1.7l0.2,1.6
		c0.3,0.2,0.6,0.4,0.9,0.4c0.4,0.1,0.9,0.2,1.3,0.2c0.5,0,1-0.1,1.4-0.4c0.3-0.2,0.5-0.6,0.5-1c0-0.4-0.2-0.7-0.5-1
		c-0.5-0.3-1-0.6-1.6-0.7c-1.1-0.3-2.1-0.7-3-1.4c-0.7-0.5-1-1.3-1-2.1c0-0.9,0.4-1.7,1.1-2.2c0.8-0.6,1.9-0.9,2.9-0.9
		c0.8,0,1.6,0.1,2.3,0.4c0.6,0.2,1.3,0.6,1.8,1L317.3,145.2z"/>
	<path class="st3" d="M322.2,143l-0.9,0.2l2,6.7l0.1,0.6h0l0.1-0.6l2-6.7l-0.8-0.2v-1.3h4.1v1.3l-0.9,0.1l-3.3,9.7h-2.3l-3.3-9.7
		l-0.9-0.1v-1.3h4.1L322.2,143z"/>
	<path class="st3" d="M338.6,145.4H337l-0.2-1.5c-0.2-0.2-0.5-0.4-0.8-0.5c-0.4-0.1-0.8-0.2-1.2-0.2c-0.9,0-1.7,0.4-2.2,1.1
		c-0.6,0.8-0.8,1.8-0.8,2.8v0.4c0,1,0.2,2,0.8,2.8c0.5,0.7,1.3,1.1,2.2,1.1c0.4,0,0.8-0.1,1.2-0.2c0.3-0.1,0.6-0.3,0.9-0.5l0.2-1.5
		h1.7v2.2c-0.5,0.5-1.1,1-1.7,1.2c-0.7,0.3-1.5,0.5-2.3,0.5c-1.4,0-2.7-0.5-3.7-1.6c-1-1.1-1.5-2.5-1.4-4V147
		c-0.1-1.5,0.5-2.9,1.4-4c0.9-1,2.3-1.6,3.7-1.6c0.8,0,1.6,0.1,2.3,0.5c0.7,0.3,1.2,0.7,1.7,1.2L338.6,145.4z"/>
	<path class="st3" d="M94.1,125.8l0.8-0.1l3.4-9.7h2.3l3.4,9.7l0.8,0.1v1.3h-3.8v-1.3l0.8-0.1l-0.5-1.5h-3.6l-0.5,1.5l0.8,0.1v1.3
		h-3.8V125.8z M98.1,122.5h2.6l-1.3-3.9l0,0L98.1,122.5z"/>
	<path class="st3" d="M110.8,116c1.1-0.1,2.2,0.3,3,1c1.4,1.3,1.5,3.6,0.1,5c0,0.1-0.1,0.1-0.1,0.1c-0.8,0.7-1.9,1-3,1h-1.9v2.5
		l1.2,0.2v1.3h-4.6v-1.3l1.2-0.2v-8l-1.2-0.2V116C105.5,116,110.8,116,110.8,116z M108.9,121.4h1.9c0.9,0.1,1.8-0.6,1.9-1.5
		c0-0.1,0-0.2,0-0.3c0-0.5-0.2-1-0.5-1.3c-0.4-0.4-0.9-0.6-1.4-0.5h-1.9L108.9,121.4z"/>
	<path class="st3" d="M120.9,116c1.1-0.1,2.2,0.3,3,1c1.4,1.3,1.5,3.6,0.1,5c0,0.1-0.1,0.1-0.1,0.1c-0.8,0.7-1.9,1-3,1H119v2.5
		l1.2,0.2v1.3h-4.6v-1.3l1.2-0.2v-8l-1.2-0.2V116H120.9L120.9,116z M119,121.3h1.9c0.9,0.1,1.8-0.6,1.9-1.5c0-0.1,0-0.2,0-0.3
		c0-0.5-0.2-1-0.5-1.3c-0.4-0.4-0.9-0.6-1.4-0.5H119V121.3z"/>
	<path class="st3" d="M134.2,119.5h-1.7l-0.3-1.5c-0.3-0.2-0.6-0.3-0.9-0.3c-0.4-0.1-0.8-0.1-1.2-0.1c-0.5,0-1,0.1-1.4,0.4
		c-0.3,0.2-0.5,0.6-0.5,1c0,0.4,0.2,0.7,0.5,0.9c0.6,0.3,1.2,0.6,1.8,0.8c1,0.2,2,0.7,2.8,1.3c0.7,0.6,1,1.4,1,2.2
		c0,0.9-0.4,1.7-1.1,2.2c-0.9,0.6-1.9,0.9-3,0.8c-0.8,0-1.6-0.1-2.4-0.4c-0.7-0.3-1.3-0.7-1.8-1.2v-2.3h1.7l0.2,1.6
		c0.3,0.2,0.6,0.4,0.9,0.5c0.4,0.1,0.9,0.2,1.3,0.2c0.5,0,1-0.1,1.4-0.4c0.3-0.2,0.5-0.6,0.5-1c0-0.4-0.2-0.8-0.5-1
		c-0.5-0.3-1-0.6-1.6-0.7c-1.1-0.3-2.1-0.7-3-1.4c-0.7-0.5-1-1.3-1-2.2c0-0.9,0.4-1.7,1.2-2.2c0.8-0.6,1.9-0.9,2.9-0.9
		c0.8,0,1.6,0.1,2.3,0.4c0.7,0.2,1.3,0.6,1.8,1L134.2,119.5z"/>
	<path class="st3" d="M136.3,128.1h-1.6l4.1-12.1h1.7L136.3,128.1z"/>
	<path class="st3" d="M110.6,135.2H109l-0.3-1.5c-0.3-0.2-0.6-0.3-0.8-0.3c-0.4-0.1-0.8-0.1-1.2-0.1c-0.5,0-1,0.1-1.4,0.4
		c-0.3,0.2-0.5,0.6-0.5,1c0,0.4,0.2,0.7,0.5,0.9c0.6,0.3,1.2,0.6,1.8,0.8c1,0.2,2,0.7,2.8,1.4c0.6,0.5,1,1.4,1,2.2
		c0,0.9-0.4,1.7-1.1,2.3c-0.9,0.6-1.9,0.9-3,0.8c-0.8,0-1.6-0.1-2.4-0.4c-0.7-0.3-1.3-0.7-1.8-1.2v-2.3h1.7l0.2,1.6
		c0.3,0.2,0.6,0.4,0.9,0.5c0.4,0.1,0.9,0.2,1.3,0.2c0.5,0,1-0.1,1.4-0.4c0.3-0.2,0.5-0.6,0.5-1c0-0.4-0.2-0.8-0.5-1
		c-0.5-0.3-1-0.6-1.6-0.7c-1.1-0.3-2.1-0.7-3-1.4c-0.7-0.5-1-1.3-1-2.2c0-0.9,0.4-1.7,1.2-2.2c0.8-0.6,1.8-0.9,2.9-0.9
		c0.8,0,1.6,0.1,2.3,0.4c0.7,0.2,1.3,0.6,1.8,1L110.6,135.2z"/>
	<path class="st3" d="M115.6,133l-0.8,0.1l2,6.7l0.1,0.6l0,0l0.1-0.6l2-6.7l-0.8-0.1v-1.4h4.1v1.4l-0.9,0.1l-3.3,9.7h-2.3l-3.3-9.7
		l-0.9-0.1v-1.4h4.1L115.6,133z"/>
	<path class="st3" d="M132,135.4h-1.7l-0.2-1.5c-0.2-0.2-0.5-0.4-0.8-0.5c-0.4-0.1-0.8-0.2-1.2-0.2c-0.9,0-1.7,0.4-2.2,1.1
		c-0.6,0.8-0.9,1.8-0.9,2.7v0.4c0,1,0.2,2,0.8,2.8c0.5,0.7,1.3,1.1,2.2,1.1c0.4,0,0.8-0.1,1.2-0.2c0.3-0.1,0.6-0.3,0.8-0.5l0.2-1.5
		h1.7v2.2c-0.5,0.5-1.1,1-1.7,1.2c-0.7,0.3-1.5,0.5-2.3,0.5c-1.4,0-2.7-0.5-3.7-1.6c-1-1.1-1.5-2.5-1.4-4V137
		c-0.1-1.5,0.4-2.9,1.4-4c0.9-1,2.3-1.6,3.7-1.6c0.8,0,1.6,0.1,2.3,0.5c0.7,0.3,1.2,0.7,1.7,1.2V135.4z"/>
	<g class="st2">
		<path class="st4" d="M378.9,170.1c-1.2,0-2.1-0.4-2.9-1.1c-0.7-0.8-1.1-1.7-1.1-2.9v-0.3c0-1.2,0.3-2.2,1-3
			c0.7-0.8,1.6-1.2,2.7-1.2c1.1,0,2,0.3,2.6,1c0.6,0.7,0.9,1.6,0.9,2.7v1.2h-4.9l0,0c0,0.5,0.2,1,0.5,1.3c0.3,0.4,0.8,0.5,1.3,0.5
			c0.5,0,0.9,0,1.2-0.1c0.3-0.1,0.7-0.3,1.1-0.5l0.6,1.4c-0.3,0.3-0.8,0.5-1.3,0.7C380.2,170,379.6,170.1,378.9,170.1z M378.7,163.2
			c-0.4,0-0.7,0.2-1,0.5c-0.2,0.3-0.4,0.7-0.4,1.2l0,0h2.7v-0.2c0-0.5-0.1-0.9-0.3-1.1C379.5,163.4,379.1,163.2,378.7,163.2z"/>
	</g>
	<g class="st2">
		<path class="st4" d="M383.2,168.6l1.1-0.2v-5.1L383,163v-1.3h3.3l0.1,1.2c0.3-0.4,0.6-0.8,1-1c0.4-0.2,0.9-0.4,1.4-0.4
			c0.8,0,1.5,0.3,2,0.8s0.7,1.3,0.7,2.5v3.6l1.1,0.2v1.3h-4.3v-1.3l1-0.2v-3.6c0-0.6-0.1-1-0.3-1.2s-0.6-0.3-1-0.3
			c-0.3,0-0.6,0.1-0.8,0.2s-0.4,0.3-0.6,0.5v4.4l0.9,0.2v1.3h-4.2V168.6z"/>
	</g>
	<g class="st2">
		<path class="st4" d="M397,168.4c0.4,0,0.7-0.1,1-0.3s0.4-0.5,0.4-0.9h2l0,0c0,0.8-0.3,1.5-0.9,2.1c-0.6,0.6-1.5,0.8-2.4,0.8
			c-1.2,0-2.2-0.4-2.9-1.2c-0.7-0.8-1-1.8-1-3v-0.2c0-1.2,0.3-2.2,1-3s1.7-1.2,2.9-1.2c0.7,0,1.3,0.1,1.8,0.3s1,0.5,1.3,0.8l0,2.2
			h-1.8l-0.4-1.3c-0.1-0.1-0.2-0.2-0.4-0.2c-0.2-0.1-0.3-0.1-0.6-0.1c-0.6,0-1.1,0.2-1.3,0.7c-0.3,0.5-0.4,1.1-0.4,1.8v0.2
			c0,0.7,0.1,1.3,0.4,1.8C396,168.1,396.4,168.4,397,168.4z"/>
	</g>
	<g class="st2">
		<path class="st4" d="M401.6,168.6l1.1-0.2v-5.1l-1.2-0.2v-1.3h3.3l0.1,1.2c0.2-0.4,0.4-0.8,0.8-1s0.7-0.4,1.1-0.4
			c0.1,0,0.2,0,0.4,0s0.2,0,0.3,0.1l-0.2,2l-0.9,0c-0.3,0-0.6,0.1-0.8,0.2c-0.2,0.1-0.4,0.3-0.5,0.5v4l1.1,0.2v1.3h-4.4V168.6z"/>
	</g>
	<g class="st2">
		<path class="st4" d="M416.7,163l-0.8,0.1l-3,8.1c-0.2,0.6-0.6,1.1-1,1.5c-0.4,0.4-1,0.6-1.8,0.6c-0.2,0-0.4,0-0.5,0
			s-0.4-0.1-0.6-0.1l0.3-1.6c0.1,0,0.1,0,0.2,0c0.1,0,0.1,0,0.2,0c0.4,0,0.7-0.1,0.9-0.3c0.2-0.2,0.4-0.4,0.5-0.7l0.3-0.6l-2.6-6.8
			l-0.8-0.1v-1.3h4.1v1.3l-0.9,0.2l1.1,3.3l0.1,0.6l0,0l1.3-3.9l-0.9-0.2v-1.3h4.1V163z"/>
		<path class="st4" d="M417.3,163v-1.3h3.2l0.1,1c0.2-0.4,0.5-0.6,0.9-0.8c0.3-0.2,0.7-0.3,1.2-0.3c1,0,1.8,0.4,2.4,1.2
			c0.6,0.8,0.8,1.9,0.8,3.2v0.2c0,1.2-0.3,2.2-0.8,3s-1.4,1.1-2.4,1.1c-0.4,0-0.8-0.1-1.2-0.2c-0.3-0.2-0.6-0.4-0.9-0.7v2.4l1.1,0.2
			v1.3h-4.4v-1.3l1.1-0.2v-8.3L417.3,163z M423.7,165.9c0-0.8-0.1-1.4-0.4-1.9c-0.3-0.5-0.7-0.7-1.2-0.7c-0.3,0-0.6,0.1-0.9,0.2
			s-0.4,0.3-0.6,0.6v3.6c0.1,0.2,0.3,0.4,0.6,0.5c0.2,0.1,0.5,0.2,0.9,0.2c0.5,0,0.9-0.2,1.2-0.6c0.3-0.4,0.4-1,0.4-1.7V165.9z"/>
		<path class="st4" d="M430.2,159.6v2h1.5v1.6h-1.5v4.2c0,0.3,0.1,0.6,0.2,0.7s0.3,0.2,0.5,0.2c0.2,0,0.3,0,0.4,0
			c0.1,0,0.2,0,0.4-0.1l0.2,1.6c-0.2,0.1-0.5,0.1-0.7,0.2s-0.5,0.1-0.8,0.1c-0.8,0-1.4-0.2-1.8-0.6s-0.6-1.1-0.6-2v-4.2h-1.2v-1.6
			h1.2v-2H430.2z"/>
		<path class="st4" d="M436.7,170.1c-1.2,0-2.1-0.4-2.9-1.1s-1.1-1.7-1.1-2.9v-0.3c0-1.2,0.3-2.2,1-3c0.7-0.8,1.6-1.2,2.7-1.2
			c1.1,0,2,0.3,2.6,1s0.9,1.6,0.9,2.7v1.2h-4.9l0,0c0,0.5,0.2,1,0.5,1.3c0.3,0.4,0.8,0.5,1.3,0.5c0.5,0,0.9,0,1.2-0.1
			c0.3-0.1,0.7-0.3,1.1-0.5l0.6,1.4c-0.3,0.3-0.8,0.5-1.3,0.7C438,170,437.4,170.1,436.7,170.1z M436.5,163.2c-0.4,0-0.7,0.2-1,0.5
			c-0.2,0.3-0.4,0.7-0.4,1.2l0,0h2.7v-0.2c0-0.5-0.1-0.9-0.3-1.1C437.3,163.4,437,163.2,436.5,163.2z"/>
		<path class="st4" d="M446.5,168.9c-0.3,0.4-0.6,0.7-0.9,0.9c-0.4,0.2-0.8,0.3-1.2,0.3c-1,0-1.8-0.4-2.4-1.1
			c-0.6-0.7-0.8-1.7-0.8-3v-0.2c0-1.3,0.3-2.4,0.8-3.2c0.6-0.8,1.4-1.2,2.4-1.2c0.4,0,0.8,0.1,1.1,0.3c0.3,0.2,0.6,0.4,0.9,0.8v-3
			l-1.2-0.2V158h1.2h2.2v10.4l1.1,0.2v1.3h-3L446.5,168.9z M443.4,166c0,0.7,0.1,1.3,0.4,1.7c0.2,0.4,0.6,0.6,1.2,0.6
			c0.3,0,0.6-0.1,0.8-0.2s0.4-0.3,0.6-0.6v-3.5c-0.2-0.3-0.3-0.5-0.6-0.6s-0.5-0.2-0.8-0.2c-0.5,0-0.9,0.2-1.2,0.7
			c-0.2,0.5-0.4,1.1-0.4,1.9V166z"/>
	</g>
	<g class="st2">
		<path class="st4" d="M351.8,56.1v3h-1.7l-0.1-1.2h-2.1v7.9l1.2,0.2v1.3h-4.6v-1.3l1.2-0.2v-7.9h-2l-0.1,1.2h-1.7v-3H351.8z"/>
		<path class="st4" d="M352.5,67.2v-1.3l1.2-0.2v-8l-1.2-0.2v-1.3h1.2h2.2h1.2v1.3l-1.2,0.2v7.9h3.1l0.1-1.4h1.7v3.1H352.5z"/>
		<path class="st4" d="M370.2,59.6h-1.7l-0.3-1.5c-0.2-0.1-0.5-0.2-0.8-0.3c-0.4-0.1-0.8-0.1-1.2-0.1c-0.6,0-1.1,0.1-1.4,0.4
			s-0.5,0.6-0.5,1c0,0.4,0.2,0.7,0.5,0.9s1,0.5,1.8,0.8c1.2,0.3,2.2,0.8,2.8,1.4c0.6,0.6,1,1.3,1,2.2c0,1-0.4,1.7-1.1,2.3
			c-0.8,0.6-1.8,0.8-3,0.8c-0.9,0-1.7-0.1-2.4-0.4c-0.7-0.3-1.3-0.7-1.8-1.2v-2.3h1.7l0.2,1.6c0.2,0.2,0.5,0.3,0.9,0.5
			c0.4,0.1,0.8,0.2,1.3,0.2c0.6,0,1.1-0.1,1.4-0.4c0.3-0.2,0.5-0.6,0.5-1c0-0.4-0.2-0.8-0.5-1c-0.3-0.3-0.8-0.5-1.6-0.7
			c-1.3-0.4-2.3-0.8-3-1.4c-0.7-0.5-1-1.2-1-2.2c0-0.9,0.4-1.6,1.1-2.2s1.7-0.9,2.9-0.9c0.9,0,1.6,0.1,2.3,0.4s1.3,0.6,1.8,1V59.6z"
			/>
	</g>
	
		<linearGradient id="SVGID_00000068672499019009308610000002086642354175856808_" gradientUnits="userSpaceOnUse" x1="-4721.1499" y1="16166.21" x2="-4748.23" y2="16166.21" gradientTransform="matrix(6.123234e-17 1 1 -6.123234e-17 -15842.4004 4813.52)">
		<stop  offset="0" style="stop-color:#981869"/>
		<stop  offset="0.19" style="stop-color:#771C65"/>
		<stop  offset="0.4" style="stop-color:#591F62"/>
		<stop  offset="0.61" style="stop-color:#432260"/>
		<stop  offset="0.81" style="stop-color:#36235E"/>
		<stop  offset="1" style="stop-color:#32245E"/>
	</linearGradient>
	
		<path style="fill:url(#SVGID_00000068672499019009308610000002086642354175856808_);stroke:#FFCC00;stroke-width:2;stroke-miterlimit:10;" d="
		M329.9,86V65.3h-12.2V86c-0.2,3.4,2.4,6.3,5.8,6.4c3.4,0.2,6.3-2.4,6.4-5.8C329.9,86.5,329.9,86.2,329.9,86z"/>
	
		<linearGradient id="SVGID_00000131356380871663379730000005665969573972363409_" gradientUnits="userSpaceOnUse" x1="-4743.96" y1="16166.21" x2="-4756.7798" y2="16166.21" gradientTransform="matrix(6.123234e-17 1 1 -6.123234e-17 -15842.4004 4813.52)">
		<stop  offset="0" style="stop-color:#32245E"/>
		<stop  offset="0.19" style="stop-color:#36235E"/>
		<stop  offset="0.39" style="stop-color:#432260"/>
		<stop  offset="0.6" style="stop-color:#591F62"/>
		<stop  offset="0.81" style="stop-color:#771C65"/>
		<stop  offset="1" style="stop-color:#981869"/>
	</linearGradient>
	
		<ellipse style="fill:url(#SVGID_00000131356380871663379730000005665969573972363409_);stroke:#FFCC00;stroke-width:2;stroke-miterlimit:10;" cx="323.8" cy="63.2" rx="6.1" ry="6.4"/>
	
		<linearGradient id="SVGID_00000062904588802755827610000009056587789227550638_" gradientUnits="userSpaceOnUse" x1="-20843.0586" y1="11228.75" x2="-20913.0781" y2="11228.75" gradientTransform="matrix(-1 0 0 1 -20481.5391 -11095.21)">
		<stop  offset="0" style="stop-color:#981869"/>
		<stop  offset="0.19" style="stop-color:#771C65"/>
		<stop  offset="0.4" style="stop-color:#591F62"/>
		<stop  offset="0.61" style="stop-color:#432260"/>
		<stop  offset="0.81" style="stop-color:#36235E"/>
		<stop  offset="1" style="stop-color:#32245E"/>
	</linearGradient>
	
		<path style="fill:url(#SVGID_00000062904588802755827610000009056587789227550638_);stroke:#FFCC00;stroke-width:2;stroke-miterlimit:10;" d="
		M431.5,127.3h-64.2c-3.5,0.3-6,3.3-5.7,6.8c0.2,3.1,2.7,5.5,5.7,5.7h64.2"/>
	<line class="st9" x1="323.8" y1="60.5" x2="323.8" y2="87.2"/>
	<polygon class="st4" points="320.5,63.1 321.1,63.7 323.8,60.8 326.5,63.7 327.1,63.1 323.8,59.6 	"/>
	<polygon class="st4" points="320.5,84.6 321.1,84 323.8,86.9 326.5,84 327.1,84.6 323.8,88.1 	"/>
	<line class="st10" x1="281.6" y1="102.3" x2="291.6" y2="108.1"/>
	<line class="st10" x1="365.7" y1="102.3" x2="355.7" y2="108.1"/>
	<line class="st10" x1="323.8" y1="173.6" x2="323.8" y2="163.6"/>
	<line class="st11" x1="422.8" y1="134.2" x2="421.8" y2="134.2"/>
	<line class="st12" x1="419.9" y1="134.2" x2="373.8" y2="134.2"/>
	<line class="st11" x1="372.8" y1="134.2" x2="371.8" y2="134.2"/>
	<polygon class="st4" points="420.2,130.9 419.6,131.5 422.5,134.2 419.6,136.9 420.2,137.5 423.7,134.2 	"/>
	<polygon class="st4" points="374.5,130.9 375,131.5 372.1,134.2 375,136.9 374.5,137.5 371,134.2 	"/>
	
		<linearGradient id="SVGID_00000089539959877681947490000016263593633532355497_" gradientUnits="userSpaceOnUse" x1="468.33" y1="106.825" x2="429.7" y2="106.825" gradientTransform="matrix(1 0 0 -1 0 236)">
		<stop  offset="0" style="stop-color:#981869"/>
		<stop  offset="0.19" style="stop-color:#771C65"/>
		<stop  offset="0.4" style="stop-color:#591F62"/>
		<stop  offset="0.61" style="stop-color:#432260"/>
		<stop  offset="0.81" style="stop-color:#36235E"/>
		<stop  offset="1" style="stop-color:#32245E"/>
	</linearGradient>
	
		<rect x="429.7" y="106.8" style="fill:url(#SVGID_00000089539959877681947490000016263593633532355497_);stroke:#FFCC00;stroke-width:3;stroke-miterlimit:10;" width="38.6" height="44.8"/>
	<rect x="429.7" y="105.4" class="st14" width="38.6" height="44.8"/>
	<polyline class="st14" points="438.8,129.1 435.3,131 442,137.5 443.7,134 	"/>
	<polyline class="st14" points="438.8,129.1 448.8,123.7 443.7,134 	"/>
	<path class="st14" d="M438.8,129.1c-2.9-5.6-0.7-12.6,5-15.5c5.6-2.9,12.6-0.7,15.5,5c2.9,5.6,0.7,12.6-5,15.5
		c-1.6,0.8-3.4,1.3-5.3,1.3c-1.8,0-3.7-0.4-5.3-1.3"/>
	<path class="st4" d="M448.7,121c1.4,0,2.5,1.1,2.5,2.5s-1.1,2.5-2.5,2.5s-2.5-1.1-2.5-2.5c0,0,0,0,0,0
		C446.2,122.1,447.3,121,448.7,121C448.7,121,448.7,121,448.7,121 M448.7,119c-2.5,0-4.5,2-4.5,4.5s2,4.5,4.5,4.5
		c2.5,0,4.5-2,4.5-4.5c0,0,0,0,0,0C453.2,121,451.2,119,448.7,119z"/>
	<path class="st15" d="M323.9,116.7h-5.6c-0.8,0-1.1-0.3-1.1-1.1v-8.6c0-0.8,0.3-1.1,1.1-1.1h11.2c0.7,0,1,0.3,1,1v8.6
		c0,0.7-0.3,1-1,1C327.6,116.7,325.7,116.7,323.9,116.7z"/>
	<path class="st15" d="M318.1,105.2c0-2.4,1.4-4.5,3.5-5.5c2.8-1.2,6.1,0,7.3,2.8c0.1,0.3,0.2,0.6,0.3,0.9c0.1,0.5,0.2,1,0.3,1.6"/>
	<path class="st16" d="M322.9,113L322.9,113v1.2c0,0.2,0.1,0.3,0.3,0.3h1.1c0.3,0,0.4-0.1,0.4-0.3V112c0-0.2,0.1-0.4,0.3-0.5
		c0.7-0.4,1.1-1.2,0.8-1.9c-0.3-0.8-1.1-1.3-1.9-1.3c-0.9-0.1-1.7,0.4-2.1,1.2c-0.3,0.8,0,1.6,0.7,2c0.3,0.1,0.4,0.4,0.3,0.6
		C322.9,112.4,322.9,112.7,322.9,113z"/>
	<path class="st15" d="M449.3,98.2h-5.6c-0.8,0-1.1-0.3-1.1-1.1v-8.6c0-0.8,0.3-1.1,1.1-1.1h11.2c0.7,0,1,0.3,1,1v8.7
		c0,0.7-0.3,1-1,1C453,98.2,451.1,98.2,449.3,98.2z"/>
	<path class="st15" d="M443.5,86.7c0-2.4,1.4-4.5,3.5-5.5c2.8-1.2,6.1,0,7.3,2.8c0.1,0.3,0.2,0.6,0.3,1c0.1,0.5,0.2,1,0.3,1.6"/>
	<path class="st16" d="M448.3,94.5L448.3,94.5v1.2c0,0.2,0.1,0.3,0.3,0.3h1.1c0.3,0,0.4-0.1,0.4-0.3v-2.1c0-0.2,0.1-0.4,0.3-0.5
		c0.7-0.4,1-1.2,0.8-1.9c-0.3-0.8-1.1-1.3-1.9-1.3c-0.9-0.1-1.7,0.4-2.1,1.2c-0.3,0.8,0,1.6,0.7,2c0.3,0.1,0.4,0.4,0.3,0.6
		C448.3,93.9,448.3,94.2,448.3,94.5z"/>
	<path class="st17" d="M74.4,101.7v47.7c0,0.4,0.2,0.7,0.5,0.9l41.3,23.9c0.3,0.2,0.7,0.2,1,0l41.3-23.9c0.3-0.2,0.5-0.5,0.5-0.9
		v-47.7c0-0.4-0.2-0.7-0.5-0.9L117.2,77c-0.3-0.2-0.7-0.2-1,0l-41.3,23.8C74.6,101,74.4,101.3,74.4,101.7z"/>
	<line class="st18" x1="74.1" y1="102.3" x2="84.1" y2="108.1"/>
	<line class="st18" x1="158.2" y1="102.3" x2="148.2" y2="108.1"/>
	<line class="st18" x1="116.3" y1="173.6" x2="116.3" y2="163.6"/>
	<path class="st4" d="M232.7,148.4c-3.2,0-5.7-2.6-5.7-5.8c0-1.5,0.6-3,1.7-4l12.6-12.6l-12.6-12.6c-2.3-2.2-2.4-5.8-0.2-8.1
		c2.2-2.3,5.8-2.4,8.1-0.2c0.1,0.1,0.1,0.1,0.2,0.2l16.7,16.7c2.2,2.2,2.2,5.9,0,8.1l-16.7,16.7
		C235.7,147.9,234.2,148.5,232.7,148.4z"/>
	<path class="st4" d="M245.2,131.8h-48.4c-3.2-0.1-5.6-2.8-5.5-6c0.1-3,2.5-5.4,5.5-5.5h48.4c3.2-0.1,5.9,2.3,6,5.5
		c0.1,3.2-2.3,5.9-5.5,6C245.5,131.8,245.3,131.8,245.2,131.8z"/>
	<path class="st19" d="M537.1,0H424l119.8,119.9V6.8C543.8,3,540.8,0,537.1,0C537.1,0,537.1,0,537.1,0z"/>
	<polygon class="st20" points="513.7,40.9 500.8,33.5 500.8,48.4 	"/>
	
		<ellipse transform="matrix(0.2898 -0.9571 0.9571 0.2898 320.0092 512.9468)" class="st21" cx="505.6" cy="40.8" rx="18.8" ry="18.8"/>
</g>
</svg>
