<svg xmlns="http://www.w3.org/2000/svg" xmlns:xlink="http://www.w3.org/1999/xlink" viewBox="0 0 543.83 191.97"><defs><style>.cls-1{fill:#eee;}.cls-2{fill:url(#Unbenannter_Verlauf_12);}.cls-3,.cls-4{font-size:24px;}.cls-3,.cls-6{fill:#fff;}.cls-3,.cls-4,.cls-7{font-family:RobotoSlab-Bold, Roboto Slab;font-weight:700;}.cls-14,.cls-4,.cls-7{fill:#fc0;}.cls-10,.cls-11,.cls-12,.cls-13,.cls-15,.cls-16,.cls-17,.cls-18,.cls-19,.cls-5{stroke:#fc0;}.cls-10,.cls-11,.cls-12,.cls-13,.cls-15,.cls-16,.cls-17,.cls-18,.cls-22,.cls-23,.cls-5{stroke-miterlimit:10;}.cls-15,.cls-18,.cls-22,.cls-23,.cls-5{stroke-width:3px;}.cls-5{fill:url(#Unbenannter_Verlauf_12-2);}.cls-7{font-size:15.68px;}.cls-8{letter-spacing:0em;}.cls-9{letter-spacing:0.01em;}.cls-10,.cls-11,.cls-12,.cls-13,.cls-16,.cls-17,.cls-19,.cls-20{stroke-width:2px;}.cls-10{fill:url(#Unbenannter_Verlauf_12-3);}.cls-11{fill:url(#Unbenannter_Verlauf_2);}.cls-12{fill:url(#Unbenannter_Verlauf_12-4);}.cls-13,.cls-16,.cls-17,.cls-19,.cls-20,.cls-22,.cls-23,.cls-26{fill:none;}.cls-13{stroke-dasharray:2 2;}.cls-15,.cls-24,.cls-25{fill:#39f;}.cls-15,.cls-19,.cls-20,.cls-23,.cls-26{stroke-linecap:round;}.cls-17{stroke-dasharray:1.96 1.96;}.cls-18{fill:url(#Unbenannter_Verlauf_12-5);}.cls-19,.cls-20,.cls-26{stroke-linejoin:round;}.cls-20{stroke:#38af72;}.cls-21{fill:#38af72;}.cls-22,.cls-23{stroke:#fff;}.cls-24{opacity:0.4;}.cls-26{stroke:#39f;stroke-width:4px;}</style><linearGradient id="Unbenannter_Verlauf_12" y1="95.98" x2="543.83" y2="95.98" gradientUnits="userSpaceOnUse"><stop offset="0" stop-color="#981869"/><stop offset="0.19" stop-color="#771c65"/><stop offset="0.4" stop-color="#591f62"/><stop offset="0.61" stop-color="#432260"/><stop offset="0.81" stop-color="#36235e"/><stop offset="1" stop-color="#32245e"/></linearGradient><linearGradient id="Unbenannter_Verlauf_12-2" x1="365.12" y1="102.08" x2="280.5" y2="102.08" xlink:href="#Unbenannter_Verlauf_12"/><linearGradient id="Unbenannter_Verlauf_12-3" x1="-4457.15" y1="-14842.68" x2="-4484.23" y2="-14842.68" gradientTransform="translate(-14519.87 4526.05) rotate(90)" xlink:href="#Unbenannter_Verlauf_12"/><linearGradient id="Unbenannter_Verlauf_2" x1="-4479.95" y1="-14842.68" x2="-4492.78" y2="-14842.68" gradientTransform="translate(-14519.87 4526.05) rotate(90)" gradientUnits="userSpaceOnUse"><stop offset="0" stop-color="#32245e"/><stop offset="0.19" stop-color="#36235e"/><stop offset="0.39" stop-color="#432260"/><stop offset="0.6" stop-color="#591f62"/><stop offset="0.81" stop-color="#771c65"/><stop offset="1" stop-color="#981869"/></linearGradient><linearGradient id="Unbenannter_Verlauf_12-4" x1="-19468.06" y1="-10170.22" x2="-19538.08" y2="-10170.22" gradientTransform="translate(-19107.54 -10060.15) rotate(180)" xlink:href="#Unbenannter_Verlauf_12"/><linearGradient id="Unbenannter_Verlauf_12-5" x1="467.33" y1="105.71" x2="428.7" y2="105.71" xlink:href="#Unbenannter_Verlauf_12"/></defs><g id="Lock"><rect class="cls-1" x="-709.64" y="-1481.44" width="1921.02" height="3438.64"/><path class="cls-2" d="M5,0H536.83a7,7,0,0,1,7,7V187a5,5,0,0,1-5,5H5a5,5,0,0,1-5-5V5A5,5,0,0,1,5,0Z"/><text class="cls-3" transform="translate(182.04 155.01)">sconify</text><text class="cls-4" transform="translate(185.98 67.23)">1-Step</text><path class="cls-5" d="M280.5,78.23v47.69a1,1,0,0,0,.5.87l41.31,23.85a1,1,0,0,0,1,0l41.31-23.85a1,1,0,0,0,.5-.87V78.23a1,1,0,0,0-.5-.87L323.31,53.52a1,1,0,0,0-1,0L281,77.36A1,1,0,0,0,280.5,78.23Z"/><path class="cls-6" d="M299.73,112.29l.8-.12,3.39-9.69h2.29l3.37,9.69.8.12v1.34h-3.8v-1.34l.77-.14-.49-1.53h-3.61l-.49,1.53.77.14v1.34h-3.8Zm4-3.32h2.55l-1.25-3.92H305Z"/><path class="cls-6" d="M316.41,102.48a4.39,4.39,0,0,1,3,1,3.55,3.55,0,0,1,0,5.14,4.43,4.43,0,0,1-3,1h-1.88v2.47l1.2.23v1.34h-4.62v-1.34l1.19-.23v-8l-1.19-.23v-1.35h5.3Zm-1.88,5.38h1.88a1.85,1.85,0,0,0,1.42-.51,1.79,1.79,0,0,0,.48-1.29,1.89,1.89,0,0,0-.48-1.33,1.83,1.83,0,0,0-1.42-.53h-1.88Z"/><path class="cls-6" d="M326.56,102.48a4.38,4.38,0,0,1,3,1,3.53,3.53,0,0,1,0,5.14,4.42,4.42,0,0,1-3,1h-1.88v2.47l1.19.23v1.34h-4.62v-1.34l1.19-.23v-8l-1.19-.23v-1.35h5.31Zm-1.88,5.38h1.88a1.84,1.84,0,0,0,1.41-.51,1.79,1.79,0,0,0,.48-1.29,1.89,1.89,0,0,0-.48-1.33,1.82,1.82,0,0,0-1.41-.53h-1.88Z"/><path class="cls-6" d="M339.86,106h-1.67l-.29-1.53a3.1,3.1,0,0,0-.85-.32,5.1,5.1,0,0,0-1.19-.14,2.26,2.26,0,0,0-1.42.39,1.22,1.22,0,0,0-.5,1,1.11,1.11,0,0,0,.52.93,7.46,7.46,0,0,0,1.81.77,7,7,0,0,1,2.8,1.35,2.8,2.8,0,0,1,1,2.21,2.64,2.64,0,0,1-1.14,2.26,4.94,4.94,0,0,1-3,.83,6.53,6.53,0,0,1-2.4-.42,4.93,4.93,0,0,1-1.78-1.17v-2.32h1.73l.24,1.58a2.64,2.64,0,0,0,.92.46,4.28,4.28,0,0,0,1.29.18,2.21,2.21,0,0,0,1.39-.38,1.2,1.2,0,0,0,.48-1,1.29,1.29,0,0,0-.45-1,4.7,4.7,0,0,0-1.6-.74,9.18,9.18,0,0,1-3-1.36,2.59,2.59,0,0,1-1-2.16,2.66,2.66,0,0,1,1.15-2.22,4.77,4.77,0,0,1,2.89-.88,6.76,6.76,0,0,1,2.34.39,5.49,5.49,0,0,1,1.77,1Z"/><path class="cls-6" d="M342,114.58H340.3l4.09-12.1H346Z"/><path class="cls-6" d="M316.3,121.72h-1.67l-.29-1.53a3.1,3.1,0,0,0-.85-.32,5,5,0,0,0-1.19-.14,2.26,2.26,0,0,0-1.42.39,1.2,1.2,0,0,0-.5,1,1.08,1.08,0,0,0,.52.92,7.08,7.08,0,0,0,1.81.77,7.16,7.16,0,0,1,2.8,1.36,2.8,2.8,0,0,1,1,2.21,2.64,2.64,0,0,1-1.14,2.26,4.94,4.94,0,0,1-3,.83,6.53,6.53,0,0,1-2.4-.42,5.06,5.06,0,0,1-1.78-1.17v-2.33h1.74l.23,1.59a2.63,2.63,0,0,0,.92.45,4.28,4.28,0,0,0,1.29.18,2.21,2.21,0,0,0,1.39-.37,1.2,1.2,0,0,0,.48-1,1.31,1.31,0,0,0-.45-1,4.72,4.72,0,0,0-1.6-.73,9.18,9.18,0,0,1-3-1.36,2.59,2.59,0,0,1-1-2.16,2.64,2.64,0,0,1,1.15-2.22,4.79,4.79,0,0,1,2.89-.88,6.76,6.76,0,0,1,2.34.39,5.21,5.21,0,0,1,1.77,1Z"/><path class="cls-6" d="M321.25,119.51l-.85.15,2,6.68.14.62h.05l.13-.6,2-6.7-.84-.15v-1.35h4.07v1.35l-.93.12-3.29,9.68h-2.29l-3.29-9.68-.92-.12v-1.35h4.07Z"/><path class="cls-6" d="M337.62,121.92H336l-.23-1.49a2.4,2.4,0,0,0-.83-.52,3.53,3.53,0,0,0-1.19-.19,2.62,2.62,0,0,0-2.24,1.06,4.5,4.5,0,0,0-.78,2.75v.39a4.57,4.57,0,0,0,.78,2.77,2.57,2.57,0,0,0,2.2,1.06,3.57,3.57,0,0,0,1.21-.19,2.09,2.09,0,0,0,.85-.52l.23-1.49h1.66v2.21A4.88,4.88,0,0,1,335.9,129a5.72,5.72,0,0,1-2.34.47,4.74,4.74,0,0,1-3.67-1.56,5.62,5.62,0,0,1-1.44-4v-.37a5.69,5.69,0,0,1,1.43-4,4.75,4.75,0,0,1,3.68-1.56,5.64,5.64,0,0,1,2.33.47,5,5,0,0,1,1.73,1.24Z"/><path class="cls-6" d="M93.07,102.31l.8-.11,3.39-9.69h2.29l3.36,9.69.8.11v1.34h-3.8v-1.34l.78-.14-.49-1.53H96.58l-.49,1.53.78.14v1.34h-3.8Zm4-3.31h2.56l-1.26-3.93h0Z"/><path class="cls-6" d="M109.75,92.51a4.36,4.36,0,0,1,3,1,3.54,3.54,0,0,1,0,5.15,4.4,4.4,0,0,1-3,1h-1.88v2.47l1.19.23v1.34h-4.61v-1.34l1.18-.23v-8l-1.18-.23V92.51h5.3Zm-1.88,5.38h1.88a1.84,1.84,0,0,0,1.41-.51,1.82,1.82,0,0,0,.48-1.3,1.89,1.89,0,0,0-.48-1.33,1.81,1.81,0,0,0-1.41-.52h-1.88Z"/><path class="cls-6" d="M119.89,92.51a4.34,4.34,0,0,1,3,1,3.54,3.54,0,0,1,0,5.15,4.39,4.39,0,0,1-3,1H118v2.47l1.2.23v1.34h-4.62v-1.34l1.19-.23v-8l-1.19-.23V92.51h5.3ZM118,97.89h1.88a1.85,1.85,0,0,0,1.42-.51,1.82,1.82,0,0,0,.48-1.3,1.89,1.89,0,0,0-.48-1.33,1.82,1.82,0,0,0-1.42-.52H118Z"/><path class="cls-6" d="M133.2,96.07h-1.68l-.29-1.54a2.86,2.86,0,0,0-.85-.32,5,5,0,0,0-1.18-.13,2.25,2.25,0,0,0-1.42.38,1.19,1.19,0,0,0-.5,1,1.08,1.08,0,0,0,.52.93,7.28,7.28,0,0,0,1.81.77,7.1,7.1,0,0,1,2.8,1.35,2.84,2.84,0,0,1,1,2.22,2.68,2.68,0,0,1-1.13,2.26,5,5,0,0,1-3,.82,6.48,6.48,0,0,1-2.39-.42,5,5,0,0,1-1.78-1.16V99.9h1.73l.24,1.59a2.76,2.76,0,0,0,.91.45,4.37,4.37,0,0,0,1.29.18,2.25,2.25,0,0,0,1.4-.37,1.22,1.22,0,0,0,.48-1,1.27,1.27,0,0,0-.46-1,4.54,4.54,0,0,0-1.59-.74,8.79,8.79,0,0,1-3-1.36,2.57,2.57,0,0,1-1-2.16,2.63,2.63,0,0,1,1.15-2.21,4.75,4.75,0,0,1,2.88-.89,6.68,6.68,0,0,1,2.34.39,5.43,5.43,0,0,1,1.78,1Z"/><path class="cls-6" d="M135.29,104.61h-1.65l4.08-12.1h1.66Z"/><path class="cls-6" d="M109.64,111.74H108l-.29-1.53a2.86,2.86,0,0,0-.85-.32,5,5,0,0,0-1.18-.14,2.24,2.24,0,0,0-1.42.39,1.19,1.19,0,0,0-.5,1,1.08,1.08,0,0,0,.52.93,7.28,7.28,0,0,0,1.81.77,7.1,7.1,0,0,1,2.8,1.35,2.83,2.83,0,0,1,1,2.22,2.65,2.65,0,0,1-1.13,2.25,5,5,0,0,1-3,.83,6.48,6.48,0,0,1-2.39-.42,5,5,0,0,1-1.78-1.16v-2.33h1.73l.24,1.58a2.58,2.58,0,0,0,.91.46,4.37,4.37,0,0,0,1.29.18,2.24,2.24,0,0,0,1.4-.38,1.2,1.2,0,0,0,.48-1,1.27,1.27,0,0,0-.46-1,4.54,4.54,0,0,0-1.59-.74,8.79,8.79,0,0,1-3-1.36,2.59,2.59,0,0,1-1-2.16,2.66,2.66,0,0,1,1.15-2.22,4.81,4.81,0,0,1,2.88-.88,6.68,6.68,0,0,1,2.34.39,5.43,5.43,0,0,1,1.78,1Z"/><path class="cls-6" d="M114.59,109.53l-.85.15,2,6.69.14.61h0l.14-.6,2-6.7-.84-.15v-1.35h4.07v1.35l-.94.12L117,119.33h-2.3l-3.29-9.68-.92-.12v-1.35h4.08Z"/><path class="cls-6" d="M131,111.94h-1.66l-.23-1.48a2.18,2.18,0,0,0-.83-.52,3.25,3.25,0,0,0-1.18-.19,2.63,2.63,0,0,0-2.24,1,4.54,4.54,0,0,0-.78,2.76V114a4.49,4.49,0,0,0,.78,2.76,2.57,2.57,0,0,0,2.2,1.07,3.61,3.61,0,0,0,1.21-.2,2,2,0,0,0,.84-.52l.23-1.48H131v2.2a4.81,4.81,0,0,1-1.72,1.25,5.64,5.64,0,0,1-2.33.46,4.8,4.8,0,0,1-3.68-1.55,5.69,5.69,0,0,1-1.43-4v-.38a5.7,5.7,0,0,1,1.42-4A4.77,4.77,0,0,1,126.9,108a5.64,5.64,0,0,1,2.33.47,5,5,0,0,1,1.72,1.25Z"/><text class="cls-7" transform="translate(373.44 146.46)">e<tspan class="cls-8" x="8.35" y="0">n</tspan><tspan x="18.23" y="0">c</tspan><tspan class="cls-9" x="26.49" y="0">r</tspan><tspan x="33.22" y="0">ypted</tspan></text><text class="cls-7" transform="translate(342.05 45.26)">TLS </text><path class="cls-10" d="M328.91,62.49V41.82h-12.2V62.49a6.11,6.11,0,1,0,12.2,0Z"/><ellipse class="cls-11" cx="322.81" cy="39.69" rx="6.1" ry="6.41"/><path class="cls-12" d="M430.54,103.83H366.29a6.26,6.26,0,0,0,0,12.49h64.25"/><line class="cls-13" x1="322.81" y1="36.99" x2="322.81" y2="63.76"/><polygon class="cls-14" points="319.54 39.64 320.12 40.19 322.81 37.3 325.5 40.19 326.08 39.64 322.81 36.12 319.54 39.64"/><polygon class="cls-14" points="319.54 61.11 320.12 60.56 322.81 63.45 325.5 60.56 326.08 61.11 322.81 64.63 319.54 61.11"/><line class="cls-15" x1="280.62" y1="78.88" x2="290.6" y2="84.58"/><line class="cls-15" x1="364.71" y1="78.88" x2="354.73" y2="84.58"/><line class="cls-15" x1="322.81" y1="150.15" x2="322.81" y2="140.17"/><line class="cls-16" x1="421.83" y1="110.76" x2="420.83" y2="110.76"/><line class="cls-17" x1="418.87" y1="110.76" x2="372.81" y2="110.76"/><line class="cls-16" x1="371.83" y1="110.76" x2="370.83" y2="110.76"/><polygon class="cls-14" points="419.18 107.49 418.63 108.07 421.52 110.76 418.63 113.44 419.18 114.03 422.7 110.76 419.18 107.49"/><polygon class="cls-14" points="373.48 107.49 374.02 108.07 371.14 110.76 374.02 113.44 373.48 114.03 369.96 110.76 373.48 107.49"/><rect class="cls-18" x="428.7" y="83.32" width="38.63" height="44.79"/><rect class="cls-19" x="428.7" y="81.89" width="38.63" height="44.79"/><polyline class="cls-19" points="437.8 105.61 434.27 107.5 441 114.01 442.71 110.55"/><polyline class="cls-19" points="437.8 105.61 447.83 100.23 442.71 110.55"/><path class="cls-19" d="M437.8,105.61a11.49,11.49,0,1,1,4.91,4.94"/><path class="cls-14" d="M447.73,97.57a2.52,2.52,0,1,1-2.52,2.52,2.52,2.52,0,0,1,2.52-2.52m0-2a4.52,4.52,0,1,0,4.52,4.52,4.53,4.53,0,0,0-4.52-4.52Z"/><path class="cls-20" d="M322.85,93.22h-5.63c-.77,0-1.07-.29-1.07-1.06V83.58c0-.77.3-1.07,1.07-1.07h11.22c.73,0,1,.3,1,1v8.62c0,.72-.3,1-1,1C326.57,93.27,324.69,93.22,322.85,93.22Z"/><path class="cls-20" d="M317.07,81.77a6,6,0,0,1,3.5-5.49,5.57,5.57,0,0,1,7.67,3.78c.13.52.18,1,.31,1.58"/><path class="cls-21" d="M321.92,89.55h0v1.16c0,.21.08.3.34.3h1.11c.3,0,.38-.09.38-.35V88.53a.5.5,0,0,1,.3-.51,1.6,1.6,0,0,0,.81-1.92,2,2,0,0,0-1.92-1.28A2.15,2.15,0,0,0,320.81,86a1.6,1.6,0,0,0,.72,2,.54.54,0,0,1,.34.64A6.12,6.12,0,0,1,321.92,89.55Z"/><path class="cls-20" d="M448.28,74.7h-5.64c-.76,0-1.06-.3-1.06-1.07V65.05c0-.77.3-1.07,1.06-1.07h11.23c.72,0,1,.3,1,1v8.62c0,.72-.3,1-1,1C452,74.74,450.11,74.7,448.28,74.7Z"/><path class="cls-20" d="M442.49,63.24A6,6,0,0,1,446,57.75a5.56,5.56,0,0,1,7.66,3.79c.14.51.18,1,.31,1.57"/><path class="cls-21" d="M447.34,71h0v1.15c0,.21.09.3.34.3h1.11c.3,0,.39-.09.39-.34V70a.49.49,0,0,1,.3-.51,1.63,1.63,0,0,0,.81-1.92,2,2,0,0,0-1.92-1.28,2.19,2.19,0,0,0-2.14,1.15,1.6,1.6,0,0,0,.73,2,.55.55,0,0,1,.34.64A7.71,7.71,0,0,1,447.34,71Z"/><path class="cls-22" d="M73.42,78.23v47.69a1,1,0,0,0,.5.87l41.31,23.85a1,1,0,0,0,1,0l41.3-23.85a1,1,0,0,0,.5-.87V78.23a1,1,0,0,0-.5-.87l-41.3-23.84a1,1,0,0,0-1,0L73.92,77.36A1,1,0,0,0,73.42,78.23Z"/><line class="cls-23" x1="73.1" y1="78.88" x2="83.08" y2="84.58"/><line class="cls-23" x1="157.19" y1="78.88" x2="147.21" y2="84.58"/><line class="cls-23" x1="115.29" y1="150.15" x2="115.29" y2="140.17"/><path class="cls-14" d="M231.7,125a5.75,5.75,0,0,1-4.06-9.81l12.6-12.59L227.64,90a5.75,5.75,0,1,1,8.13-8.13l16.66,16.66a5.76,5.76,0,0,1,0,8.13L235.77,123.3A5.75,5.75,0,0,1,231.7,125Z"/><path class="cls-14" d="M244.16,108.32H195.75a5.75,5.75,0,0,1,0-11.49h48.41a5.75,5.75,0,1,1,0,11.49Z"/><path class="cls-24" d="M537.06,0H424L543.83,119.86V6.77A6.77,6.77,0,0,0,537.06,0Z"/><polygon class="cls-25" points="514.16 40.41 501.25 32.95 501.25 47.87 514.16 40.41"/><circle class="cls-26" cx="506.13" cy="40.32" r="18.77"/></g></svg>