<?xml version="1.0" encoding="utf-8"?>
<!-- Generator: Adobe Illustrator 26.0.1, SVG Export Plug-In . SVG Version: 6.00 Build 0)  -->
<svg version="1.1" id="Ebene_1" xmlns="http://www.w3.org/2000/svg" xmlns:xlink="http://www.w3.org/1999/xlink" x="0px" y="0px"
	 viewBox="0 0 546.9 235" style="enable-background:new 0 0 546.9 235;" xml:space="preserve">
<style type="text/css">
	.st0{fill:#EEEEEE;}
	.st1{fill:url(#SVGID_1_);}
	.st2{opacity:0.4;fill:#3399FF;enable-background:new    ;}
	.st3{fill:#3399FF;}
	.st4{fill:none;stroke:#3399FF;stroke-width:4;stroke-linecap:round;stroke-linejoin:round;}
	.st5{fill:#FFCC00;}
	.st6{clip-path:url(#SVGID_00000004505433968766567240000010607333730932964030_);}
	.st7{fill:#981869;}
	.st8{fill:#961869;}
	.st9{fill:#941869;}
	.st10{fill:#921968;}
	.st11{fill:#911968;}
	.st12{fill:#8F1968;}
	.st13{fill:#8D1968;}
	.st14{fill:#8B1A68;}
	.st15{fill:#891A67;}
	.st16{fill:#881A67;}
	.st17{fill:#861A67;}
	.st18{fill:#841A67;}
	.st19{fill:#831B67;}
	.st20{fill:#811B67;}
	.st21{fill:#7F1B66;}
	.st22{fill:#7E1B66;}
	.st23{fill:#7C1B66;}
	.st24{fill:#7A1B66;}
	.st25{fill:#791C66;}
	.st26{fill:#771C65;}
	.st27{fill:#761C65;}
	.st28{fill:#741C65;}
	.st29{fill:#721C65;}
	.st30{fill:#711D65;}
	.st31{fill:#6F1D65;}
	.st32{fill:#6E1D64;}
	.st33{fill:#6D1D64;}
	.st34{fill:#6B1D64;}
	.st35{fill:#6A1D64;}
	.st36{fill:#681E64;}
	.st37{fill:#671E64;}
	.st38{fill:#651E64;}
	.st39{fill:#641E63;}
	.st40{fill:#631E63;}
	.st41{fill:#611E63;}
	.st42{fill:#601F63;}
	.st43{fill:#5F1F63;}
	.st44{fill:#5E1F63;}
	.st45{fill:#5C1F63;}
	.st46{fill:#5B1F62;}
	.st47{fill:#5A1F62;}
	.st48{fill:#591F62;}
	.st49{fill:#572062;}
	.st50{fill:#562062;}
	.st51{fill:#552062;}
	.st52{fill:#542062;}
	.st53{fill:#532062;}
	.st54{fill:#522061;}
	.st55{fill:#512061;}
	.st56{fill:#502161;}
	.st57{fill:#4E2161;}
	.st58{fill:#4D2161;}
	.st59{fill:#4C2161;}
	.st60{fill:#4B2161;}
	.st61{fill:#4A2161;}
	.st62{fill:#492161;}
	.st63{fill:#492160;}
	.st64{fill:#482160;}
	.st65{fill:#472260;}
	.st66{fill:#462260;}
	.st67{fill:#452260;}
	.st68{fill:#442260;}
	.st69{fill:#432260;}
	.st70{fill:#422260;}
	.st71{fill:#412260;}
	.st72{fill:#402260;}
	.st73{fill:#3F225F;}
	.st74{fill:#3F235F;}
	.st75{fill:#3E235F;}
	.st76{fill:#3D235F;}
	.st77{fill:#3C235F;}
	.st78{fill:#3B235F;}
	.st79{fill:#3A235F;}
	.st80{fill:#39235F;}
	.st81{fill:#38235F;}
	.st82{fill:#37235F;}
	.st83{fill:#37235E;}
	.st84{fill:#36245E;}
	.st85{fill:#35245E;}
	.st86{fill:#34245E;}
	.st87{fill:#33245E;}
	.st88{fill:#32245E;}
	.st89{clip-path:url(#SVGID_00000021097295764921751810000004625744190985292468_);}
	.st90{clip-path:url(#SVGID_00000059277143782125236750000010944145633897078194_);}
	.st91{fill:#FFFFFF;}
	.st92{clip-path:url(#SVGID_00000048482019060990555060000012597861521837954701_);}
	.st93{clip-path:url(#SVGID_00000062165928526354017560000001772617633938725783_);}
	.st94{fill:#FFD138;}
	.st95{fill:#FDFEFF;}
	.st96{clip-path:url(#SVGID_00000036246431403375459810000009939722446455906442_);}
	.st97{clip-path:url(#SVGID_00000072278664228334074620000000003584991654509970_);}
	.st98{clip-path:url(#SVGID_00000103249281320876218370000015473037188342150801_);}
	.st99{clip-path:url(#SVGID_00000081630688818957235720000016685855150897486524_);}
	.st100{clip-path:url(#SVGID_00000065067245489034752710000011698706544390384787_);}
	.st101{clip-path:url(#SVGID_00000062878505454481766290000006919518601950989198_);}
</style>
<g id="Lock">
	<rect x="-706.2" y="-1797" class="st0" width="1921" height="3438.6"/>
	
		<linearGradient id="SVGID_1_" gradientUnits="userSpaceOnUse" x1="0" y1="118.3" x2="546.89" y2="118.3" gradientTransform="matrix(1 0 0 -1 0 236)">
		<stop  offset="0" style="stop-color:#981869"/>
		<stop  offset="0.19" style="stop-color:#771C65"/>
		<stop  offset="0.4" style="stop-color:#591F62"/>
		<stop  offset="0.61" style="stop-color:#432260"/>
		<stop  offset="0.81" style="stop-color:#36235E"/>
		<stop  offset="1" style="stop-color:#32245E"/>
	</linearGradient>
	<path class="st1" d="M7,0.2h532.9c3.9,0,7,3.1,7,7v221c0,3.9-3.1,7-7,7H7c-3.9,0-7-3.1-7-7V7.2C0,3.3,3.1,0.2,7,0.2z"/>
	<path class="st2" d="M540.5,0H427.4l119.9,119.9V6.8C547.3,3.1,544.3,0,540.5,0C540.5,0,540.5,0,540.5,0z"/>
	<polygon class="st3" points="517.6,38.8 504.7,31.3 504.7,46.2 	"/>
	
		<ellipse transform="matrix(0.2898 -0.9571 0.9571 0.2898 324.8773 515.167)" class="st4" cx="509.6" cy="38.7" rx="18.8" ry="18.8"/>
	<path class="st5" d="M263.7,65.4v-1h2.5l0.1,0.8c0.2-0.3,0.5-0.5,0.8-0.7c0.3-0.2,0.7-0.3,1.1-0.2c0.4,0,0.7,0.1,1,0.3
		c0.3,0.2,0.5,0.5,0.7,0.8c0.2-0.3,0.4-0.6,0.8-0.8c0.3-0.2,0.7-0.3,1.1-0.3c0.6,0,1.1,0.2,1.5,0.7c0.4,0.6,0.6,1.3,0.5,2v2.7
		l0.8,0.2v1h-3.3v-1l0.8-0.2v-2.7c0-0.4-0.1-0.7-0.2-1c-0.2-0.2-0.4-0.3-0.7-0.3c-0.2,0-0.4,0-0.6,0.2c-0.2,0.1-0.3,0.3-0.4,0.4
		c0,0.1,0,0.1,0,0.2s0,0.1,0,0.2v3l0.7,0.2v1h-3.1v-1l0.7-0.2v-2.7c0-0.4-0.1-0.7-0.2-1c-0.2-0.2-0.4-0.3-0.7-0.3
		c-0.2,0-0.4,0-0.6,0.1c-0.2,0.1-0.3,0.2-0.4,0.4v3.4l0.7,0.2v1h-3.3v-1l0.8-0.2v-4L263.7,65.4z"/>
	<path class="st5" d="M282.7,62.1v2.3h-1.3l-0.1-1h-1.6v6.1l0.9,0.2v1H277v-1l0.9-0.2v-6h-1.6l-0.1,1H275v-2.3H282.7z"/>
	<path class="st5" d="M283.2,70.7v-1l0.9-0.2v-6.2l-0.9-0.2v-1h3.6v1l-0.9,0.2v6.1h2.4l0.1-1.1h1.3v2.4H283.2z"/>
	<path class="st5" d="M296.8,64.9h-1.3l-0.2-1.2c-0.2-0.1-0.4-0.2-0.7-0.2c-0.3-0.1-0.6-0.1-0.9-0.1c-0.4,0-0.8,0.1-1.1,0.3
		c-0.2,0.2-0.4,0.5-0.4,0.8c0,0.3,0.2,0.6,0.4,0.7c0.4,0.3,0.9,0.5,1.4,0.6c0.8,0.2,1.5,0.5,2.2,1c0.5,0.4,0.8,1.1,0.7,1.7
		c0,0.7-0.3,1.3-0.9,1.7c-0.7,0.5-1.5,0.7-2.3,0.6c-0.6,0-1.3-0.1-1.8-0.3c-0.5-0.2-1-0.5-1.4-0.9v-1.8h1.3l0.2,1.2
		c0.2,0.2,0.5,0.3,0.7,0.3c0.3,0.1,0.7,0.1,1,0.1c0.4,0,0.8-0.1,1.1-0.3c0.2-0.2,0.4-0.5,0.4-0.8c0-0.3-0.1-0.6-0.4-0.8
		c-0.4-0.3-0.8-0.5-1.2-0.6c-0.8-0.2-1.6-0.5-2.3-1c-0.5-0.4-0.8-1-0.8-1.7c0-0.7,0.3-1.3,0.9-1.7c0.7-0.5,1.4-0.7,2.2-0.7
		c0.6,0,1.2,0.1,1.8,0.3c0.5,0.2,1,0.5,1.4,0.8L296.8,64.9z"/>
	<path class="st5" d="M349.7,144.6v-1h2.5l0.1,0.8c0.2-0.3,0.5-0.5,0.8-0.7c0.3-0.2,0.7-0.3,1.1-0.2c0.4,0,0.7,0.1,1,0.3
		c0.3,0.2,0.5,0.5,0.7,0.8c0.2-0.3,0.4-0.6,0.8-0.8c0.3-0.2,0.7-0.3,1.1-0.3c0.6,0,1.1,0.2,1.5,0.6c0.4,0.6,0.6,1.3,0.5,2v2.7
		l0.8,0.2v1h-3.3v-1l0.7-0.2v-2.7c0-0.3-0.1-0.7-0.2-1c-0.2-0.2-0.4-0.3-0.7-0.3c-0.2,0-0.4,0-0.6,0.2c-0.2,0.1-0.3,0.3-0.4,0.4
		c0,0.1,0,0.1,0,0.2v3.1l0.7,0.2v1h-3.1v-1l0.7-0.2v-2.7c0-0.3-0.1-0.7-0.2-1c-0.2-0.2-0.4-0.3-0.7-0.3c-0.2,0-0.4,0-0.6,0.1
		c-0.2,0.1-0.3,0.2-0.4,0.4v3.4l0.8,0.2v1h-3.3v-1l0.8-0.2v-4L349.7,144.6z"/>
	<path class="st5" d="M368.7,141.4v2.3h-1.3l-0.1-1h-1.6v6.1l0.9,0.2v1h-3.6v-1l0.9-0.2v-6h-1.6l-0.1,1H361v-2.3L368.7,141.4z"/>
	<path class="st5" d="M369.2,150v-1l0.9-0.2v-6.2l-0.9-0.2v-1h3.6v1l-0.9,0.2v6.1h2.4l0.1-1.1h1.3v2.4H369.2z"/>
	<path class="st5" d="M382.9,144.1h-1.3l-0.2-1.2c-0.2-0.1-0.4-0.2-0.6-0.2c-0.3-0.1-0.6-0.1-0.9-0.1c-0.4,0-0.8,0.1-1.1,0.3
		c-0.2,0.2-0.4,0.5-0.4,0.8c0,0.3,0.2,0.6,0.4,0.7c0.4,0.3,0.9,0.5,1.4,0.6c0.8,0.2,1.5,0.5,2.2,1c0.5,0.4,0.8,1.1,0.7,1.7
		c0,0.7-0.3,1.4-0.9,1.7c-0.7,0.5-1.5,0.7-2.3,0.6c-0.6,0-1.3-0.1-1.9-0.3c-0.5-0.2-1-0.5-1.4-0.9V147h1.3l0.2,1.2
		c0.2,0.2,0.4,0.3,0.7,0.4c0.3,0.1,0.7,0.1,1,0.1c0.4,0,0.8-0.1,1.1-0.3c0.2-0.2,0.4-0.5,0.4-0.8c0-0.3-0.1-0.6-0.4-0.8
		c-0.4-0.3-0.8-0.5-1.2-0.6c-0.8-0.2-1.6-0.6-2.3-1.1c-0.5-0.4-0.8-1-0.8-1.7c0-0.7,0.3-1.3,0.9-1.7c0.6-0.5,1.4-0.7,2.2-0.7
		c0.6,0,1.2,0.1,1.8,0.3c0.5,0.2,1,0.5,1.4,0.8L382.9,144.1z"/>
	<g>
		<defs>
			<polyline id="SVGID_00000105427815686008182180000003231535215032880270_" points="212,75.9 348.6,75.9 348.6,84.5 212,84.5 			
				"/>
		</defs>
		<clipPath id="SVGID_00000149370038616015713280000002358129376795354765_">
			<use xlink:href="#SVGID_00000105427815686008182180000003231535215032880270_"  style="overflow:visible;"/>
		</clipPath>
		<g style="clip-path:url(#SVGID_00000149370038616015713280000002358129376795354765_);">
			<rect x="212" y="75.9" class="st7" width="1.3" height="8.6"/>
			<rect x="213.3" y="75.9" class="st8" width="1.3" height="8.6"/>
			<rect x="214.6" y="75.9" class="st9" width="1.3" height="8.6"/>
			<rect x="216" y="75.9" class="st10" width="1.3" height="8.6"/>
			<rect x="217.3" y="75.9" class="st11" width="1.3" height="8.6"/>
			<rect x="218.7" y="75.9" class="st12" width="1.3" height="8.6"/>
			<rect x="220" y="75.9" class="st13" width="1.3" height="8.6"/>
			<rect x="221.3" y="75.9" class="st14" width="1.3" height="8.6"/>
			<rect x="222.7" y="75.9" class="st15" width="1.3" height="8.6"/>
			<rect x="224" y="75.9" class="st16" width="1.3" height="8.6"/>
			<rect x="225.4" y="75.9" class="st17" width="1.3" height="8.6"/>
			<rect x="226.7" y="75.9" class="st18" width="1.3" height="8.6"/>
			<rect x="228" y="75.9" class="st19" width="1.3" height="8.6"/>
			<rect x="229.4" y="75.9" class="st20" width="1.3" height="8.6"/>
			<rect x="230.7" y="75.9" class="st21" width="1.3" height="8.6"/>
			<rect x="232.1" y="75.9" class="st22" width="1.3" height="8.6"/>
			<rect x="233.4" y="75.9" class="st23" width="1.3" height="8.6"/>
			<rect x="234.7" y="75.9" class="st24" width="1.3" height="8.6"/>
			<rect x="236.1" y="75.9" class="st25" width="1.3" height="8.6"/>
			<rect x="237.4" y="75.9" class="st26" width="1.3" height="8.6"/>
			<rect x="238.8" y="75.9" class="st27" width="1.3" height="8.6"/>
			<rect x="240.1" y="75.9" class="st28" width="1.3" height="8.6"/>
			<rect x="241.4" y="75.9" class="st29" width="1.3" height="8.6"/>
			<rect x="242.8" y="75.9" class="st30" width="1.3" height="8.6"/>
			<rect x="244.1" y="75.9" class="st31" width="1.3" height="8.6"/>
			<rect x="245.4" y="75.9" class="st32" width="1.3" height="8.6"/>
			<rect x="246.8" y="75.9" class="st33" width="1.3" height="8.6"/>
			<rect x="248.1" y="75.9" class="st34" width="1.3" height="8.6"/>
			<rect x="249.5" y="75.9" class="st35" width="1.3" height="8.6"/>
			<rect x="250.8" y="75.9" class="st36" width="1.3" height="8.6"/>
			<rect x="252.1" y="75.9" class="st37" width="1.3" height="8.6"/>
			<rect x="253.5" y="75.9" class="st38" width="1.3" height="8.6"/>
			<rect x="254.8" y="75.9" class="st39" width="1.3" height="8.6"/>
			<rect x="256.2" y="75.9" class="st40" width="1.3" height="8.6"/>
			<rect x="257.5" y="75.9" class="st41" width="1.3" height="8.6"/>
			<rect x="258.9" y="75.9" class="st42" width="1.3" height="8.6"/>
			<rect x="260.2" y="75.9" class="st43" width="1.3" height="8.6"/>
			<rect x="261.5" y="75.9" class="st44" width="1.3" height="8.6"/>
			<rect x="262.9" y="75.9" class="st45" width="1.3" height="8.6"/>
			<rect x="264.2" y="75.9" class="st46" width="1.3" height="8.6"/>
			<rect x="265.5" y="75.9" class="st47" width="1.3" height="8.6"/>
			<rect x="266.9" y="75.9" class="st48" width="1.3" height="8.6"/>
			<rect x="268.2" y="75.9" class="st49" width="1.3" height="8.6"/>
			<rect x="269.6" y="75.9" class="st50" width="1.3" height="8.6"/>
			<rect x="270.9" y="75.9" class="st51" width="1.3" height="8.6"/>
			<rect x="272.2" y="75.9" class="st52" width="1.3" height="8.6"/>
			<rect x="273.6" y="75.9" class="st53" width="1.3" height="8.6"/>
			<rect x="274.9" y="75.9" class="st54" width="1.3" height="8.6"/>
			<rect x="276.3" y="75.9" class="st55" width="1.3" height="8.6"/>
			<rect x="277.6" y="75.9" class="st56" width="1.3" height="8.6"/>
			<rect x="278.9" y="75.9" class="st57" width="1.3" height="8.6"/>
			<rect x="280.3" y="75.9" class="st58" width="1.3" height="8.6"/>
			<rect x="281.6" y="75.9" class="st59" width="1.3" height="8.6"/>
			<rect x="283" y="75.9" class="st60" width="1.3" height="8.6"/>
			<rect x="284.3" y="75.9" class="st61" width="1.3" height="8.6"/>
			<rect x="285.6" y="75.9" class="st62" width="1.3" height="8.6"/>
			<rect x="287" y="75.9" class="st63" width="1.3" height="8.6"/>
			<rect x="288.3" y="75.9" class="st64" width="1.3" height="8.6"/>
			<rect x="289.7" y="75.9" class="st65" width="1.3" height="8.6"/>
			<rect x="291" y="75.9" class="st66" width="1.3" height="8.6"/>
			<rect x="292.3" y="75.9" class="st67" width="1.3" height="8.6"/>
			<rect x="293.7" y="75.9" class="st68" width="1.3" height="8.6"/>
			<rect x="295" y="75.9" class="st69" width="1.3" height="8.6"/>
			<rect x="296.4" y="75.9" class="st70" width="1.3" height="8.6"/>
			<rect x="297.7" y="75.9" class="st70" width="1.3" height="8.6"/>
			<rect x="299" y="75.9" class="st71" width="1.3" height="8.6"/>
			<rect x="300.4" y="75.9" class="st72" width="1.3" height="8.6"/>
			<rect x="301.7" y="75.9" class="st73" width="1.3" height="8.6"/>
			<rect x="303" y="75.9" class="st74" width="1.3" height="8.6"/>
			<rect x="304.4" y="75.9" class="st75" width="1.3" height="8.6"/>
			<rect x="305.7" y="75.9" class="st76" width="1.3" height="8.6"/>
			<rect x="307.1" y="75.9" class="st76" width="1.3" height="8.6"/>
			<rect x="308.4" y="75.9" class="st77" width="1.3" height="8.6"/>
			<rect x="309.8" y="75.9" class="st78" width="1.3" height="8.6"/>
			<rect x="311.1" y="75.9" class="st78" width="1.3" height="8.6"/>
			<rect x="312.4" y="75.9" class="st79" width="1.3" height="8.6"/>
			<rect x="313.8" y="75.9" class="st79" width="1.3" height="8.6"/>
			<rect x="315.1" y="75.9" class="st80" width="1.3" height="8.6"/>
			<rect x="316.5" y="75.9" class="st81" width="1.3" height="8.6"/>
			<rect x="317.8" y="75.9" class="st81" width="1.3" height="8.6"/>
			<rect x="319.1" y="75.9" class="st82" width="1.3" height="8.6"/>
			<rect x="320.5" y="75.9" class="st82" width="1.3" height="8.6"/>
			<rect x="321.8" y="75.9" class="st83" width="1.3" height="8.6"/>
			<rect x="323.1" y="75.9" class="st84" width="1.3" height="8.6"/>
			<rect x="324.5" y="75.9" class="st84" width="1.3" height="8.6"/>
			<rect x="325.8" y="75.9" class="st85" width="1.3" height="8.6"/>
			<rect x="327.2" y="75.9" class="st85" width="1.3" height="8.6"/>
			<rect x="328.5" y="75.9" class="st85" width="1.3" height="8.6"/>
			<rect x="329.8" y="75.9" class="st86" width="1.3" height="8.6"/>
			<rect x="331.2" y="75.9" class="st86" width="1.3" height="8.6"/>
			<rect x="332.5" y="75.9" class="st86" width="1.3" height="8.6"/>
			<rect x="333.9" y="75.9" class="st87" width="1.3" height="8.6"/>
			<rect x="335.2" y="75.9" class="st87" width="1.3" height="8.6"/>
			<rect x="336.5" y="75.9" class="st87" width="1.3" height="8.6"/>
			<rect x="337.9" y="75.9" class="st87" width="1.3" height="8.6"/>
			<rect x="339.2" y="75.9" class="st87" width="1.3" height="8.6"/>
			<rect x="340.6" y="75.9" class="st88" width="1.3" height="8.6"/>
			<rect x="341.9" y="75.9" class="st88" width="1.3" height="8.6"/>
			<rect x="343.2" y="75.9" class="st88" width="1.3" height="8.6"/>
			<rect x="344.6" y="75.9" class="st88" width="1.3" height="8.6"/>
			<rect x="345.9" y="75.9" class="st88" width="1.3" height="8.6"/>
			<rect x="347.3" y="75.9" class="st88" width="1.3" height="8.6"/>
		</g>
	</g>
	<polygon class="st5" points="349.4,85.2 212,85.2 212,83.7 347.8,83.7 347.8,76.7 212,76.7 212,75.2 349.4,75.2 	"/>
	<path class="st5" d="M339.6,80.4h-0.2v-1h0.2V80.4z M336.3,80.4h-3v-1h3V80.4z M330.3,80.4h-3v-1h3V80.4z M324.3,80.4h-3v-1h3V80.4
		z M318.2,80.4h-3v-1h3V80.4z M312.2,80.4h-3v-1h3V80.4z M306.2,80.4h-3v-1h3V80.4z M300.1,80.4h-3v-1h3V80.4z M294.1,80.4h-3v-1h3
		V80.4z M288.1,80.4h-3v-1h3V80.4z M282.1,80.4h-3v-1h3V80.4z M276,80.4h-3v-1h3V80.4z M270,80.4h-3v-1h3V80.4z M264,80.4h-3v-1h3
		V80.4z M258,80.4h-3v-1h3V80.4z M252,80.4h-3v-1h3V80.4z M246,80.4h-3v-1h3V80.4z M239.9,80.4h-3v-1h3V80.4z M233.9,80.4h-3v-1h3
		V80.4z M227.9,80.4h-3v-1h3V80.4z M221.9,80.4h-3v-1h3V80.4z"/>
	<polygon class="st5" points="336.9,83.2 336.4,82.7 339.3,79.9 336.4,77.2 336.9,76.6 340.5,79.9 	"/>
	<g>
		<defs>
			<polyline id="SVGID_00000137834515071717601540000005739033115862767506_" points="315.9,142.2 365.8,114.3 371.4,123.6 
				321.4,151.5 			"/>
		</defs>
		<clipPath id="SVGID_00000042733381237333447520000007206422215990999743_">
			<use xlink:href="#SVGID_00000137834515071717601540000005739033115862767506_"  style="overflow:visible;"/>
		</clipPath>
		<g style="clip-path:url(#SVGID_00000042733381237333447520000007206422215990999743_);">
			<polygon class="st7" points="315.9,142.2 321.4,151.5 315.9,151.5 			"/>
			<polygon class="st7" points="315.9,141.1 322.1,151.5 321.4,151.5 315.9,142.2 			"/>
			<polygon class="st8" points="315.9,140.7 316.2,140.6 322.8,151.5 322.1,151.5 315.9,141.1 			"/>
			<polygon class="st9" points="316.2,140.6 316.7,140.3 323.4,151.5 322.8,151.5 			"/>
			<polygon class="st10" points="316.7,140.3 317.2,140 324.1,151.5 323.4,151.5 			"/>
			<polygon class="st11" points="317.2,140 317.7,139.7 324.5,151.2 324.1,151.5 324.1,151.5 			"/>
			<polygon class="st12" points="317.7,139.7 318.2,139.5 325,151 324.5,151.2 			"/>
			<polygon class="st13" points="318.2,139.5 318.7,139.2 325.5,150.7 325,151 			"/>
			<polygon class="st14" points="318.7,139.2 319.1,138.9 326,150.4 325.5,150.7 			"/>
			<polygon class="st15" points="319.1,138.9 319.6,138.6 326.5,150.1 326,150.4 			"/>
			<polygon class="st16" points="319.6,138.6 320.1,138.4 327,149.9 326.5,150.1 			"/>
			<polygon class="st17" points="320.1,138.4 320.6,138.1 327.5,149.6 327,149.9 			"/>
			<polygon class="st18" points="320.6,138.1 321.1,137.8 328,149.3 327.5,149.6 			"/>
			<polygon class="st19" points="321.1,137.8 321.6,137.6 328.5,149.1 328,149.3 			"/>
			<polygon class="st20" points="321.6,137.6 322.1,137.3 329,148.8 328.5,149.1 			"/>
			<polygon class="st21" points="322.1,137.3 322.6,137 329.4,148.5 329,148.8 			"/>
			<polygon class="st22" points="322.6,137 323.1,136.7 329.9,148.2 329.4,148.5 			"/>
			<polygon class="st23" points="323.1,136.7 323.6,136.5 330.4,148 329.9,148.2 			"/>
			<polygon class="st24" points="323.6,136.5 324,136.2 330.9,147.7 330.4,148 			"/>
			<polygon class="st25" points="324,136.2 324.5,135.9 331.4,147.4 330.9,147.7 			"/>
			<polygon class="st26" points="324.5,135.9 325,135.6 331.9,147.1 331.4,147.4 			"/>
			<polygon class="st27" points="325,135.6 325.5,135.4 332.4,146.9 331.9,147.1 			"/>
			<polygon class="st28" points="325.5,135.4 326,135.1 332.9,146.6 332.4,146.9 			"/>
			<polygon class="st29" points="326,135.1 326.5,134.8 333.4,146.3 332.9,146.6 			"/>
			<polygon class="st30" points="326.5,134.8 327,134.5 333.8,146 333.4,146.3 			"/>
			<polygon class="st31" points="327,134.5 327.5,134.3 334.3,145.8 333.8,146 			"/>
			<polygon class="st32" points="327.5,134.3 328,134 334.8,145.5 334.3,145.8 			"/>
			<polygon class="st33" points="328,134 328.5,133.7 335.3,145.2 334.8,145.5 			"/>
			<polygon class="st34" points="328.5,133.7 328.9,133.4 335.8,144.9 335.3,145.2 			"/>
			<polygon class="st35" points="328.9,133.4 329.4,133.2 336.3,144.7 335.8,144.9 			"/>
			<polygon class="st36" points="329.4,133.2 329.9,132.9 336.8,144.4 336.3,144.7 			"/>
			<polygon class="st37" points="329.9,132.9 330.4,132.6 337.3,144.1 336.8,144.4 			"/>
			<polygon class="st38" points="330.4,132.6 330.9,132.4 337.8,143.9 337.3,144.1 			"/>
			<polygon class="st39" points="330.9,132.4 331.4,132.1 338.2,143.6 337.8,143.9 			"/>
			<polygon class="st40" points="331.4,132.1 331.9,131.8 338.7,143.3 338.2,143.6 			"/>
			<polygon class="st41" points="331.9,131.8 332.4,131.5 339.2,143 338.7,143.3 			"/>
			<polygon class="st42" points="332.4,131.5 332.9,131.3 339.7,142.8 339.2,143 			"/>
			<polygon class="st43" points="332.9,131.3 333.4,131 340.2,142.5 339.7,142.8 			"/>
			<polygon class="st44" points="333.4,131 333.8,130.7 340.7,142.2 340.2,142.5 			"/>
			<polygon class="st45" points="333.8,130.7 334.3,130.4 341.2,141.9 340.7,142.2 			"/>
			<polygon class="st46" points="334.3,130.4 334.8,130.2 341.7,141.7 341.2,141.9 			"/>
			<polygon class="st47" points="334.8,130.2 335.3,129.9 342.2,141.4 341.7,141.7 			"/>
			<polygon class="st48" points="335.3,129.9 335.8,129.6 342.6,141.1 342.2,141.4 			"/>
			<polygon class="st49" points="335.8,129.6 336.3,129.4 343.1,140.9 342.6,141.1 			"/>
			<polygon class="st50" points="336.3,129.4 336.8,129.1 343.6,140.6 343.1,140.9 			"/>
			<polygon class="st51" points="336.8,129.1 337.3,128.8 344.1,140.3 343.6,140.6 			"/>
			<polygon class="st52" points="337.3,128.8 337.8,128.5 344.6,140 344.1,140.3 			"/>
			<polygon class="st53" points="337.8,128.5 338.2,128.2 345.1,139.8 344.6,140 			"/>
			<polygon class="st54" points="338.2,128.2 338.7,128 345.6,139.5 345.1,139.8 			"/>
			<polygon class="st55" points="338.7,128 339.2,127.7 346.1,139.2 345.6,139.5 			"/>
			<polygon class="st56" points="339.2,127.7 339.7,127.4 346.6,138.9 346.1,139.2 			"/>
			<polygon class="st57" points="339.7,127.4 340.2,127.2 347.1,138.7 346.6,138.9 			"/>
			<polygon class="st58" points="340.2,127.2 340.7,126.9 347.5,138.4 347.1,138.7 			"/>
			<polygon class="st59" points="340.7,126.9 341.2,126.6 348,138.1 347.5,138.4 			"/>
			<polygon class="st60" points="341.2,126.6 341.7,126.3 348.5,137.8 348,138.1 			"/>
			<polygon class="st61" points="341.7,126.3 342.2,126.1 349,137.6 348.5,137.8 			"/>
			<polygon class="st62" points="342.2,126.1 342.6,125.8 349.5,137.3 349,137.6 			"/>
			<polygon class="st63" points="342.6,125.8 343.1,125.5 350,137 349.5,137.3 			"/>
			<polygon class="st64" points="343.1,125.5 343.6,125.2 350.5,136.7 350,137 			"/>
			<polygon class="st65" points="343.6,125.2 344.1,125 351,136.5 350.5,136.7 			"/>
			<polygon class="st66" points="344.1,125 344.6,124.7 351.5,136.2 351,136.5 			"/>
			<polygon class="st67" points="344.6,124.7 345.1,124.4 352,135.9 351.5,136.2 			"/>
			<polygon class="st68" points="345.1,124.4 345.6,124.2 352.4,135.6 352,135.9 			"/>
			<polygon class="st69" points="345.6,124.2 346.1,123.9 352.9,135.4 352.4,135.6 			"/>
			<polygon class="st70" points="346.1,123.9 346.6,123.6 353.4,135.1 352.9,135.4 			"/>
			<polygon class="st70" points="346.6,123.6 347,123.3 353.9,134.8 353.4,135.1 			"/>
			<polygon class="st71" points="347,123.3 347.5,123.1 354.4,134.6 353.9,134.8 			"/>
			<polygon class="st72" points="347.5,123.1 348,122.8 354.9,134.3 354.4,134.6 			"/>
			<polygon class="st73" points="348,122.8 348.5,122.5 355.4,134 354.9,134.3 			"/>
			<polygon class="st74" points="348.5,122.5 349,122.2 355.9,133.7 355.4,134 			"/>
			<polygon class="st75" points="349,122.2 349.5,122 356.4,133.5 355.9,133.7 			"/>
			<polygon class="st76" points="349.5,122 350,121.7 356.9,133.2 356.4,133.5 			"/>
			<polygon class="st76" points="350,121.7 350.5,121.4 357.3,132.9 356.9,133.2 			"/>
			<polygon class="st77" points="350.5,121.4 351,121.1 357.8,132.6 357.3,132.9 			"/>
			<polygon class="st78" points="351,121.1 351.5,120.9 358.3,132.4 357.8,132.6 			"/>
			<polygon class="st78" points="351.5,120.9 352,120.6 358.8,132.1 358.3,132.4 			"/>
			<polygon class="st79" points="352,120.6 352.4,120.3 359.3,131.8 358.8,132.1 			"/>
			<polygon class="st79" points="352.4,120.3 352.9,120.1 359.8,131.6 359.3,131.8 			"/>
			<polygon class="st80" points="352.9,120.1 353.4,119.8 360.3,131.3 359.8,131.6 			"/>
			<polygon class="st81" points="353.4,119.8 353.9,119.5 360.8,131 360.3,131.3 			"/>
			<polygon class="st81" points="353.9,119.5 354.4,119.2 361.2,130.7 360.8,131 			"/>
			<polygon class="st82" points="354.4,119.2 354.9,118.9 361.7,130.4 361.2,130.7 			"/>
			<polygon class="st82" points="354.9,118.9 355.4,118.7 362.2,130.2 361.7,130.4 			"/>
			<polygon class="st83" points="355.4,118.7 355.9,118.4 362.7,129.9 362.2,130.2 			"/>
			<polygon class="st84" points="355.9,118.4 356.4,118.1 363.2,129.6 362.7,129.9 			"/>
			<polygon class="st84" points="356.4,118.1 356.8,117.9 363.7,129.4 363.2,129.6 			"/>
			<polygon class="st85" points="356.8,117.9 357.3,117.6 364.2,129.1 363.7,129.4 			"/>
			<polygon class="st85" points="357.3,117.6 357.8,117.3 364.7,128.8 364.2,129.1 			"/>
			<polygon class="st85" points="357.8,117.3 358.3,117 365.2,128.5 364.7,128.8 			"/>
			<polygon class="st86" points="358.3,117 358.8,116.8 365.7,128.3 365.2,128.5 			"/>
			<polygon class="st86" points="358.8,116.8 359.3,116.5 366.1,128 365.7,128.3 			"/>
			<polygon class="st86" points="359.3,116.5 359.8,116.2 366.6,127.7 366.1,128 			"/>
			<polygon class="st87" points="359.8,116.2 360.3,115.9 367.1,127.4 366.6,127.7 			"/>
			<polygon class="st87" points="360.3,115.9 360.8,115.7 367.6,127.2 367.1,127.4 			"/>
			<polygon class="st87" points="360.8,115.7 361.2,115.4 368.1,126.9 367.6,127.2 			"/>
			<polygon class="st87" points="361.2,115.4 361.7,115.1 368.6,126.6 368.1,126.9 			"/>
			<polygon class="st87" points="361.7,115.1 362.2,114.8 369.1,126.3 368.6,126.6 			"/>
			<polygon class="st88" points="362.2,114.8 362.7,114.6 369.6,126.1 369.1,126.3 			"/>
			<polygon class="st88" points="362.7,114.6 363.2,114.3 363.2,114.3 370.1,125.8 369.6,126.1 			"/>
			<polygon class="st88" points="363.9,114.3 370.5,125.5 370.1,125.8 363.2,114.3 			"/>
			<polygon class="st88" points="364.5,114.3 371,125.2 370.5,125.5 363.9,114.3 			"/>
			<polygon class="st88" points="365.2,114.3 371.4,124.7 371.4,125.1 371,125.2 364.5,114.3 			"/>
			<polygon class="st88" points="365.8,114.3 371.4,123.6 371.4,124.7 365.2,114.3 			"/>
			<polygon class="st88" points="371.4,123.6 365.8,114.3 371.4,114.3 			"/>
		</g>
	</g>
	<polygon class="st5" points="321.9,152.3 321,150.7 370,123.3 365.5,115.6 316.4,143 315.4,141.4 366.2,113 372.7,124 	"/>
	<path class="st5" d="M269.3,175.9l-0.5-0.9l2.6-1.5l0.5,0.9L269.3,175.9z M274.5,172.9L274,172l2.6-1.5l0.5,0.9L274.5,172.9z
		 M279.7,169.9l-0.5-0.9l2.6-1.5l0.5,0.9L279.7,169.9z M285,166.9l-0.5-0.9l2.6-1.5l0.5,0.9L285,166.9z M290.2,163.9l-0.5-0.9
		l2.6-1.5l0.5,0.9L290.2,163.9z M295.4,160.9l-0.5-0.9l2.6-1.5l0.5,0.9L295.4,160.9z M300.7,157.9l-0.5-0.9l2.6-1.5l0.5,0.9
		L300.7,157.9z M305.9,154.9l-0.5-0.9l2.6-1.5l0.5,0.9L305.9,154.9z M311.1,151.9l-0.5-0.9l2.6-1.5l0.5,0.9L311.1,151.9z
		 M316.4,148.9l-0.5-0.9l2.6-1.5l0.5,0.9L316.4,148.9z M321.6,145.9l-0.5-0.9l2.6-1.5l0.5,0.9L321.6,145.9z M326.9,142.9l-0.5-0.9
		l2.6-1.5l0.5,0.9L326.9,142.9z M332.1,139.9l-0.5-0.9l2.6-1.5l0.5,0.9L332.1,139.9z M337.3,136.9l-0.5-0.9l2.6-1.5l0.5,0.9
		L337.3,136.9z M342.6,133.9l-0.5-0.9l2.6-1.5l0.5,0.9L342.6,133.9z M347.8,130.9l-0.5-0.9l2.6-1.5l0.5,0.9L347.8,130.9z M353,127.9
		l-0.5-0.9l2.6-1.5l0.5,0.9L353,127.9z M358.3,124.9l-0.5-0.9l1.4-0.8l0.5,0.9L358.3,124.9z"/>
	<polygon class="st5" points="358.8,127.5 358,127.2 359.2,123.4 355.3,122.5 355.5,121.8 360.2,122.8 	"/>
	<g>
		<defs>
			<polygon id="SVGID_00000038374868506533277220000006181517325168351925_" points="210.4,110.9 210.4,47.4 155.4,15.7 100.5,47.4 
				100.5,110.9 155.4,142.6 			"/>
		</defs>
		<clipPath id="SVGID_00000080929316247432008540000010767546227197886397_">
			<use xlink:href="#SVGID_00000038374868506533277220000006181517325168351925_"  style="overflow:visible;"/>
		</clipPath>
		<g style="clip-path:url(#SVGID_00000080929316247432008540000010767546227197886397_);">
			<rect x="100.5" y="15.7" class="st7" width="1.1" height="126.9"/>
			<rect x="101.6" y="15.7" class="st8" width="1.1" height="126.9"/>
			<rect x="102.7" y="15.7" class="st9" width="1.1" height="126.9"/>
			<rect x="103.8" y="15.7" class="st10" width="1.1" height="126.9"/>
			<rect x="104.8" y="15.7" class="st11" width="1.1" height="126.9"/>
			<rect x="105.9" y="15.7" class="st12" width="1.1" height="126.9"/>
			<rect x="107" y="15.7" class="st13" width="1.1" height="126.9"/>
			<rect x="108.1" y="15.7" class="st14" width="1.1" height="126.9"/>
			<rect x="109.1" y="15.7" class="st15" width="1.1" height="126.9"/>
			<rect x="110.2" y="15.7" class="st16" width="1.1" height="126.9"/>
			<rect x="111.3" y="15.7" class="st17" width="1.1" height="126.9"/>
			<rect x="112.4" y="15.7" class="st18" width="1.1" height="126.9"/>
			<rect x="113.4" y="15.7" class="st19" width="1.1" height="126.9"/>
			<rect x="114.5" y="15.7" class="st20" width="1.1" height="126.9"/>
			<rect x="115.6" y="15.7" class="st21" width="1.1" height="126.9"/>
			<rect x="116.7" y="15.7" class="st22" width="1.1" height="126.9"/>
			<rect x="117.8" y="15.7" class="st23" width="1.1" height="126.9"/>
			<rect x="118.8" y="15.7" class="st24" width="1.1" height="126.9"/>
			<rect x="119.9" y="15.7" class="st25" width="1.1" height="126.9"/>
			<rect x="121" y="15.7" class="st26" width="1.1" height="126.9"/>
			<rect x="122.1" y="15.7" class="st27" width="1.1" height="126.9"/>
			<rect x="123.1" y="15.7" class="st28" width="1.1" height="126.9"/>
			<rect x="124.2" y="15.7" class="st29" width="1.1" height="126.9"/>
			<rect x="125.3" y="15.7" class="st30" width="1.1" height="126.9"/>
			<rect x="126.4" y="15.7" class="st31" width="1.1" height="126.9"/>
			<rect x="127.4" y="15.7" class="st32" width="1.1" height="126.9"/>
			<rect x="128.5" y="15.7" class="st33" width="1.1" height="126.9"/>
			<rect x="129.6" y="15.7" class="st34" width="1.1" height="126.9"/>
			<rect x="130.7" y="15.7" class="st35" width="1.1" height="126.9"/>
			<rect x="131.8" y="15.7" class="st36" width="1.1" height="126.9"/>
			<rect x="132.8" y="15.7" class="st37" width="1.1" height="126.9"/>
			<rect x="133.9" y="15.7" class="st38" width="1.1" height="126.9"/>
			<rect x="135" y="15.7" class="st39" width="1.1" height="126.9"/>
			<rect x="136.1" y="15.7" class="st40" width="1.1" height="126.9"/>
			<rect x="137.1" y="15.7" class="st41" width="1.1" height="126.9"/>
			<rect x="138.2" y="15.7" class="st42" width="1.1" height="126.9"/>
			<rect x="139.3" y="15.7" class="st43" width="1.1" height="126.9"/>
			<rect x="140.4" y="15.7" class="st44" width="1.1" height="126.9"/>
			<rect x="141.4" y="15.7" class="st45" width="1.1" height="126.9"/>
			<rect x="142.5" y="15.7" class="st46" width="1.1" height="126.9"/>
			<rect x="143.6" y="15.7" class="st47" width="1.1" height="126.9"/>
			<rect x="144.7" y="15.7" class="st48" width="1.1" height="126.9"/>
			<rect x="145.8" y="15.7" class="st49" width="1.1" height="126.9"/>
			<rect x="146.8" y="15.7" class="st50" width="1.1" height="126.9"/>
			<rect x="147.9" y="15.7" class="st51" width="1.1" height="126.9"/>
			<rect x="149" y="15.7" class="st52" width="1.1" height="126.9"/>
			<rect x="150.1" y="15.7" class="st53" width="1.1" height="126.9"/>
			<rect x="151.1" y="15.7" class="st54" width="1.1" height="126.9"/>
			<rect x="152.2" y="15.7" class="st55" width="1.1" height="126.9"/>
			<rect x="153.3" y="15.7" class="st56" width="1.1" height="126.9"/>
			<rect x="154.4" y="15.7" class="st57" width="1.1" height="126.9"/>
			<rect x="155.4" y="15.7" class="st58" width="1.1" height="126.9"/>
			<rect x="156.5" y="15.7" class="st59" width="1.1" height="126.9"/>
			<rect x="157.6" y="15.7" class="st60" width="1.1" height="126.9"/>
			<rect x="158.7" y="15.7" class="st61" width="1.1" height="126.9"/>
			<rect x="159.8" y="15.7" class="st62" width="1.1" height="126.9"/>
			<rect x="160.8" y="15.7" class="st63" width="1.1" height="126.9"/>
			<rect x="161.9" y="15.7" class="st64" width="1.1" height="126.9"/>
			<rect x="163" y="15.7" class="st65" width="1.1" height="126.9"/>
			<rect x="164.1" y="15.7" class="st66" width="1.1" height="126.9"/>
			<rect x="165.1" y="15.7" class="st67" width="1.1" height="126.9"/>
			<rect x="166.2" y="15.7" class="st68" width="1.1" height="126.9"/>
			<rect x="167.3" y="15.7" class="st69" width="1.1" height="126.9"/>
			<rect x="168.4" y="15.7" class="st70" width="1.1" height="126.9"/>
			<rect x="169.4" y="15.7" class="st70" width="1.1" height="126.9"/>
			<rect x="170.5" y="15.7" class="st71" width="1.1" height="126.9"/>
			<rect x="171.6" y="15.7" class="st72" width="1.1" height="126.9"/>
			<rect x="172.7" y="15.7" class="st73" width="1.1" height="126.9"/>
			<rect x="173.8" y="15.7" class="st74" width="1.1" height="126.9"/>
			<rect x="174.8" y="15.7" class="st75" width="1.1" height="126.9"/>
			<rect x="175.9" y="15.7" class="st76" width="1.1" height="126.9"/>
			<rect x="177" y="15.7" class="st76" width="1.1" height="126.9"/>
			<rect x="178.1" y="15.7" class="st77" width="1.1" height="126.9"/>
			<rect x="179.1" y="15.7" class="st78" width="1.1" height="126.9"/>
			<rect x="180.2" y="15.7" class="st78" width="1.1" height="126.9"/>
			<rect x="181.3" y="15.7" class="st79" width="1.1" height="126.9"/>
			<rect x="182.4" y="15.7" class="st79" width="1.1" height="126.9"/>
			<rect x="183.4" y="15.7" class="st80" width="1.1" height="126.9"/>
			<rect x="184.5" y="15.7" class="st81" width="1.1" height="126.9"/>
			<rect x="185.6" y="15.7" class="st81" width="1.1" height="126.9"/>
			<rect x="186.7" y="15.7" class="st82" width="1.1" height="126.9"/>
			<rect x="187.8" y="15.7" class="st82" width="1.1" height="126.9"/>
			<rect x="188.8" y="15.7" class="st83" width="1.1" height="126.9"/>
			<rect x="189.9" y="15.7" class="st84" width="1.1" height="126.9"/>
			<rect x="191" y="15.7" class="st84" width="1.1" height="126.9"/>
			<rect x="192.1" y="15.7" class="st85" width="1.1" height="126.9"/>
			<rect x="193.1" y="15.7" class="st85" width="1.1" height="126.9"/>
			<rect x="194.2" y="15.7" class="st85" width="1.1" height="126.9"/>
			<rect x="195.3" y="15.7" class="st86" width="1.1" height="126.9"/>
			<rect x="196.4" y="15.7" class="st86" width="1.1" height="126.9"/>
			<rect x="197.4" y="15.7" class="st86" width="1.1" height="126.9"/>
			<rect x="198.5" y="15.7" class="st87" width="1.1" height="126.9"/>
			<rect x="199.6" y="15.7" class="st87" width="1.1" height="126.9"/>
			<rect x="200.7" y="15.7" class="st87" width="1.1" height="126.9"/>
			<rect x="201.8" y="15.7" class="st87" width="1.1" height="126.9"/>
			<rect x="202.8" y="15.7" class="st87" width="1.1" height="126.9"/>
			<rect x="203.9" y="15.7" class="st88" width="1.1" height="126.9"/>
			<rect x="205" y="15.7" class="st88" width="1.1" height="126.9"/>
			<rect x="206.1" y="15.7" class="st88" width="1.1" height="126.9"/>
			<rect x="207.1" y="15.7" class="st88" width="1.1" height="126.9"/>
			<rect x="208.2" y="15.7" class="st88" width="1.1" height="126.9"/>
			<rect x="209.3" y="15.7" class="st88" width="1.1" height="126.9"/>
		</g>
	</g>
	<path class="st5" d="M155.2,145.5c-0.5,0-0.9-0.1-1.3-0.4l-54.6-31.5c-0.8-0.5-1.3-1.3-1.3-2.3V48.3c0-0.9,0.5-1.8,1.3-2.3
		l54.6-31.5c0.8-0.5,1.8-0.5,2.6,0l54.6,31.5c0.8,0.5,1.3,1.3,1.3,2.3v50h-2.6v-50l-54.6-31.5l-54.6,31.5v63.1l54.6,31.5l54.6-31.5
		v-17h2.6v17c0,0.9-0.5,1.8-1.3,2.3l-54.6,31.5C156.1,145.4,155.7,145.5,155.2,145.5z"/>
	<path class="st91" d="M147.1,36.1c4.7-4.6,12.2-4.5,16.8,0.2s4.5,12.2-0.2,16.8s-12.2,4.5-16.8-0.2c-2.2-2.2-3.4-5.2-3.4-8.3
		c0-2.6,0.9-5.1,2.4-7.2"/>
	<path class="st5" d="M155.4,57.5c-7.1,0-12.9-5.8-12.9-12.9c0-2.8,0.9-5.6,2.6-7.8c0.2-0.3,0.6-0.5,1-0.4c-0.1-0.4,0-0.7,0.3-1
		c5.1-5,13.2-4.9,18.2,0.2c5,5.1,4.9,13.2-0.2,18.2C162.1,56.2,158.8,57.5,155.4,57.5L155.4,57.5z M147,37.1c0.1,0.3,0,0.7-0.2,0.9
		c-1.5,1.9-2.2,4.2-2.2,6.6c0,6,4.9,10.8,10.9,10.8s10.8-4.9,10.8-10.9s-4.9-10.8-10.9-10.8c-2.8,0-5.5,1.1-7.6,3.1
		C147.6,37,147.3,37.1,147,37.1z"/>
	<path class="st5" d="M157.3,51.3h-6.4c-0.9,0.1-1.7-0.6-1.8-1.5c0-0.1,0-0.2,0-0.3v-6.5c-0.1-0.9,0.6-1.7,1.5-1.8
		c0.1,0,0.2,0,0.3,0h8.6c0.9-0.1,1.7,0.6,1.8,1.5c0,0.1,0,0.2,0,0.3v6.6c0.1,0.9-0.6,1.7-1.5,1.8c-0.1,0-0.2,0-0.3,0
		C158.7,51.3,158,51.3,157.3,51.3z M151,49.3h5.2c1,0,2,0,3,0v-6.2H151L151,49.3z"/>
	<path class="st5" d="M150.7,42.6L150.7,42.6c-0.6,0-1-0.5-1-1.1c0,0,0,0,0,0c0-3,2.3-5.4,5.3-5.5c0.8,0,1.7,0.2,2.4,0.5
		c1.4,0.7,2.4,1.9,2.7,3.4c0.1,0.2,0.1,0.5,0.1,0.7c0,0.2,0.1,0.4,0.1,0.5c0.1,0.5-0.2,1.1-0.7,1.2c0,0,0,0,0,0
		c-0.5,0.1-1.1-0.2-1.2-0.7c0,0,0,0,0,0c-0.1-0.2-0.1-0.4-0.1-0.7c0-0.2-0.1-0.4-0.1-0.5c-0.2-0.9-0.8-1.7-1.7-2.1
		c-0.9-0.4-1.9-0.4-2.8-0.1c-1.3,0.6-2.1,1.9-2.1,3.3C151.7,42.2,151.3,42.6,150.7,42.6z"/>
	<path class="st5" d="M154.4,47.5L154.4,47.5v0.9c0,0.2,0.1,0.2,0.3,0.2h0.9c0.2,0,0.3-0.1,0.3-0.3v-1.6c0-0.2,0.1-0.3,0.2-0.4
		c0.5-0.3,0.8-0.9,0.6-1.5c-0.2-0.6-0.8-1-1.5-1c-0.7-0.1-1.3,0.3-1.6,0.9c-0.2,0.6,0,1.2,0.6,1.5c0.2,0.1,0.3,0.3,0.3,0.5
		C154.4,47,154.4,47.2,154.4,47.5z"/>
	<g id="Scone_logo_white">
		<g>
			<defs>
				<rect id="SVGID_00000078750547368313780880000010460855832897441163_" x="123" y="103.9" width="43.8" height="8.6"/>
			</defs>
			<clipPath id="SVGID_00000102503606180356357870000017649880401574309007_">
				<use xlink:href="#SVGID_00000078750547368313780880000010460855832897441163_"  style="overflow:visible;"/>
			</clipPath>
			<g style="clip-path:url(#SVGID_00000102503606180356357870000017649880401574309007_);">
				<g>
					<defs>
						<rect id="SVGID_00000168077085673825830310000002689356884943354514_" x="123" y="103.9" width="43.8" height="8.6"/>
					</defs>
					<clipPath id="SVGID_00000121265345820885089040000011379948247649434514_">
						<use xlink:href="#SVGID_00000168077085673825830310000002689356884943354514_"  style="overflow:visible;"/>
					</clipPath>
					<g style="clip-path:url(#SVGID_00000121265345820885089040000011379948247649434514_);">
						<path class="st94" d="M128.8,106.1h-0.9c-0.2,0-0.4,0.2-0.4,0.3v0.9c0,0.2,0.2,0.4,0.4,0.3h0.9c0.2,0,0.4-0.2,0.4-0.3v-0.9
							C129.2,106.2,129,106.1,128.8,106.1 M125.6,107.7h0.9c0.2,0,0.3-0.2,0.3-0.3v-0.9c0-0.2-0.2-0.3-0.3-0.3h-0.9
							c-0.2,0-0.4,0.2-0.4,0.3v0.9C125.3,107.5,125.4,107.7,125.6,107.7 M124.6,107.3v-0.9c0-0.2-0.2-0.3-0.3-0.3h-0.9
							c-0.2,0-0.4,0.2-0.4,0.3v0.9c0,0.2,0.2,0.4,0.4,0.3h0.9C124.5,107.7,124.6,107.5,124.6,107.3 M128.9,108.3
							c-0.1,0-0.3,0.1-0.3,0.3v1.1c0,0.1,0.1,0.3,0.2,0.3c0.1,0,0.3-0.1,0.3-0.2c0,0,0-0.1,0-0.1v-1.1
							C129.2,108.5,129.1,108.4,128.9,108.3C128.9,108.3,128.9,108.3,128.9,108.3 M126.4,108.7v0.9c0,0.2,0.2,0.4,0.3,0.4h0.9
							c0.2,0,0.4-0.2,0.4-0.3c0,0,0,0,0,0v-0.9c0-0.2-0.1-0.4-0.3-0.4c0,0,0,0,0,0h-0.9C126.5,108.4,126.4,108.5,126.4,108.7
							 M125.7,109.6v-0.9c0-0.2-0.2-0.4-0.4-0.4l0,0h-0.9c-0.2,0-0.4,0.2-0.3,0.4v0.9c0,0.2,0.2,0.4,0.3,0.4h0.9
							C125.6,110,125.7,109.8,125.7,109.6L125.7,109.6 M128.8,110.6h-0.9c-0.2,0-0.4,0.2-0.4,0.3v0.9c0,0.2,0.2,0.4,0.4,0.3h0.9
							c0.2,0,0.4-0.2,0.4-0.3V111C129.2,110.8,129,110.6,128.8,110.6 M126.4,110.7h-0.9c-0.2,0-0.3,0.2-0.3,0.3v0.9
							c0,0.2,0.2,0.3,0.3,0.3h0.9c0.2,0,0.3-0.2,0.3-0.3V111C126.8,110.8,126.6,110.7,126.4,110.7"/>
						<path class="st94" d="M130,105.7c0.4,0.3,0.9,0.5,1.4,0.4c0,0,0,0,0,0.1v2.5c0,1-1.2,1.6-1.5,1.7l0,0L130,105.7L130,105.7"/>
						<path class="st94" d="M127.2,105.6c2-0.1,2.3-0.7,2.3-0.7c0,0,0.1,0,0.1,0c0,0,0.1,0,0.1,0s0.3,0.7,2.2,0.7
							c0.1,0,0.1,0,0.1,0.1v3.3c0,1.1-2,2.3-2,2.3c0,0-0.1,0-0.1,0.1v0.8c0,0,0.1,0,0.2,0c0.7-0.4,2.8-1.6,2.8-3V105
							c0-0.1-0.1-0.1-0.2-0.1c-2.5,0-2.9-0.9-2.9-0.9s-0.1,0-0.2,0s-0.1,0-0.1,0s-0.4,0.9-2.9,0.9c-0.1,0-0.1,0-0.1,0.1v0.5
							c0,0,0,0.1,0.1,0.1s0.7,0,0.7,0"/>
						<path class="st95" d="M134.6,111l1-0.4c0.2,0.5,0.7,0.8,1.3,0.8c0.3,0,0.5-0.1,0.8-0.2c0.2-0.1,0.3-0.3,0.3-0.5
							c0-0.5-0.7-0.8-1.2-1.1l0,0c-0.4-0.2-0.8-0.4-1.1-0.6c-0.4-0.3-0.6-0.7-0.6-1.2c0-0.5,0.2-0.9,0.6-1.2
							c0.4-0.3,0.9-0.5,1.5-0.5c0.8,0,1.5,0.4,1.9,1.1l-1,0.4c-0.1-0.2-0.2-0.3-0.4-0.4c-0.2-0.1-0.4-0.1-0.6-0.1
							c-0.6,0-1,0.3-1,0.7c0,0.3,0.2,0.5,0.4,0.6c0.3,0.2,0.6,0.3,0.9,0.5l0.1,0.1c0.8,0.3,1.7,0.7,1.7,1.7c0,0.5-0.2,1-0.7,1.3
							c-0.5,0.3-1,0.5-1.6,0.5C136,112.4,135.1,111.9,134.6,111"/>
						<path class="st95" d="M143.4,112.3c-0.4,0-0.8-0.1-1.2-0.2c-0.4-0.1-0.7-0.4-1-0.7c-0.3-0.3-0.5-0.6-0.7-1
							c-0.2-0.4-0.2-0.8-0.2-1.2c0-0.4,0.1-0.8,0.2-1.2c0.3-0.7,0.9-1.3,1.7-1.7c0.4-0.2,0.8-0.2,1.2-0.2c0.5,0,1,0.1,1.4,0.3
							c0.4,0.2,0.8,0.5,1.1,0.9l-0.8,0.6c-0.2-0.2-0.4-0.5-0.7-0.6c-0.3-0.2-0.7-0.2-1-0.2c-0.6,0-1.1,0.2-1.5,0.6
							c-0.4,0.4-0.6,0.9-0.6,1.5c0,0.6,0.2,1.1,0.6,1.5c0.4,0.4,0.9,0.6,1.5,0.6c0.4,0,0.7-0.1,1.1-0.3c0.3-0.2,0.6-0.5,0.8-0.8
							l0.9,0.5c-0.3,0.5-0.7,0.9-1.1,1.2C144.4,112.2,143.9,112.3,143.4,112.3"/>
						<path class="st95" d="M150.2,112.3c-0.4,0-0.8-0.1-1.2-0.2c-0.4-0.2-0.7-0.4-1-0.7c-0.3-0.3-0.5-0.6-0.7-1
							c-0.2-0.4-0.2-0.8-0.2-1.2c0-0.4,0.1-0.8,0.2-1.2c0.3-0.7,0.9-1.3,1.7-1.7c0.4-0.2,0.8-0.2,1.2-0.2c0.4,0,0.8,0.1,1.2,0.2
							c0.4,0.2,0.7,0.4,1,0.7c0.3,0.3,0.5,0.6,0.7,1c0.2,0.4,0.2,0.8,0.2,1.2c0,0.4-0.1,0.8-0.2,1.2c-0.2,0.4-0.4,0.7-0.7,1
							c-0.3,0.3-0.6,0.5-1,0.7C151.1,112.3,150.6,112.3,150.2,112.3 M150.2,107.1c-0.6,0-1.1,0.2-1.5,0.6c-0.4,0.4-0.6,0.9-0.6,1.5
							c0,0.6,0.2,1.1,0.6,1.5c0.4,0.4,0.9,0.6,1.5,0.6c0.6,0,1.1-0.2,1.5-0.6c0.4-0.4,0.6-0.9,0.6-1.5c0-0.6-0.2-1.1-0.6-1.5
							C151.3,107.3,150.8,107.1,150.2,107.1"/>
						<polygon class="st95" points="160.5,106.1 160.5,112.5 156.1,108.4 156.1,112.2 155,112.2 155,105.9 159.4,109.9 159.4,106.1 
													"/>
						<polygon class="st95" points="163.4,107.1 163.4,108.7 166.5,108.7 166.5,109.6 163.4,109.6 163.4,111.3 166.9,111.3 
							166.9,112.2 162.3,112.2 162.3,106.1 166.9,106.1 166.9,107.1 163.4,107.1 						"/>
					</g>
				</g>
			</g>
		</g>
	</g>
	<path class="st91" d="M137.6,78.6h-1.4l-0.2-1c-0.2-0.1-0.4-0.2-0.6-0.3c-0.2-0.1-0.5-0.1-0.7-0.1c-0.3,0-0.6,0.1-0.9,0.3
		c-0.2,0.1-0.3,0.4-0.3,0.6c0,0.2,0.1,0.5,0.3,0.6c0.4,0.2,0.8,0.4,1.3,0.4c0.8,0.1,1.5,0.4,2.2,0.9c0.5,0.4,0.7,1,0.7,1.6
		c0,0.7-0.3,1.4-0.9,1.8c-0.7,0.5-1.6,0.7-2.4,0.7c-0.6,0-1.1-0.1-1.7-0.3c-0.5-0.2-1-0.4-1.4-0.8v-1.8h1.5l0.3,1
		c0.2,0.1,0.3,0.2,0.5,0.2c0.2,0,0.5,0.1,0.7,0.1c0.3,0,0.7-0.1,1-0.2c0.3-0.2,0.5-0.7,0.2-1c-0.1-0.1-0.1-0.2-0.2-0.2
		c-0.4-0.2-0.8-0.4-1.3-0.5c-0.8-0.1-1.5-0.4-2.1-0.8c-0.5-0.4-0.7-0.9-0.7-1.5c0-0.7,0.3-1.3,0.8-1.7c0.7-0.5,1.5-0.8,2.4-0.7
		c0.6,0,1.2,0.1,1.8,0.2c0.5,0.1,0.9,0.4,1.3,0.7L137.6,78.6z"/>
	<path class="st91" d="M142.7,84c-1,0-2-0.4-2.8-1.1c-0.7-0.8-1-1.8-1-2.8v-0.3c0-1.1,0.3-2.1,1-2.9c1.4-1.5,3.7-1.5,5.1-0.2
		c0.6,0.7,0.9,1.7,0.9,2.6v1.2h-4.8l0,0c0,0.5,0.2,0.9,0.5,1.3c0.3,0.3,0.8,0.5,1.3,0.5c0.4,0,0.8,0,1.2-0.2c0.3-0.1,0.7-0.3,1-0.4
		l0.6,1.3c-0.4,0.3-0.8,0.5-1.3,0.7C143.9,83.9,143.3,84,142.7,84z M142.5,77.4c-0.4,0-0.7,0.2-0.9,0.5c-0.2,0.4-0.4,0.8-0.4,1.2
		l0,0h2.6v-0.2c0-0.4-0.1-0.8-0.3-1.1C143.2,77.5,142.9,77.3,142.5,77.4L142.5,77.4z"/>
	<path class="st91" d="M147.1,82.5l1-0.2v-4.9l-1.1-0.2v-1.3h3.1l0.1,1.2c0.1-0.4,0.4-0.7,0.7-1c0.3-0.2,0.6-0.4,1-0.3h0.4
		c0.1,0,0.2,0,0.3,0.1l-0.2,2h-0.9c-0.3,0-0.5,0.1-0.8,0.2c-0.2,0.1-0.4,0.3-0.5,0.5v3.9l1,0.2v1.3h-4.2L147.1,82.5z"/>
	<path class="st91" d="M156.8,77.2l-0.8,0.1l1,3.6l0.1,0.8l0,0l0.1-0.8l1-3.6l-0.8-0.1v-1.3h3.6v1.3l-0.7,0.1l-2.4,6.6h-2.1
		l-2.4-6.6l-0.7-0.1v-1.3h3.6L156.8,77.2z"/>
	<path class="st91" d="M162,82.5l1-0.2v-4.9l-1.1-0.2v-1.3h3.3v6.5l1,0.2v1.3H162V82.5z M165.2,73.9H163v-1.6h2.2L165.2,73.9z"/>
	<path class="st91" d="M170.6,82.3c0.3,0,0.7-0.1,0.9-0.3c0.2-0.2,0.4-0.6,0.4-0.9h2v0.1c0,0.8-0.3,1.5-0.9,2
		c-0.6,0.6-1.5,0.9-2.3,0.8c-1,0.1-2.1-0.4-2.8-1.1c-0.7-0.8-1-1.8-1-2.9v-0.2c0-1.1,0.3-2.1,1-2.9c0.7-0.8,1.8-1.2,2.8-1.1
		c0.6,0,1.2,0.1,1.7,0.3c0.5,0.2,0.9,0.4,1.3,0.8v2.1H172l-0.4-1.2c-0.1-0.1-0.3-0.2-0.4-0.2c-0.2-0.1-0.4-0.1-0.5-0.1
		c-0.5,0-1,0.2-1.3,0.7c-0.3,0.5-0.4,1.1-0.4,1.7V80c0,0.6,0.1,1.2,0.4,1.7C169.6,82.2,170.1,82.4,170.6,82.3z"/>
	<path class="st91" d="M178.7,84c-1,0-2-0.4-2.8-1.1c-0.7-0.8-1-1.8-1-2.8v-0.3c0-1.1,0.3-2.1,1-2.9c1.4-1.5,3.7-1.5,5.1-0.2
		c0.6,0.7,0.9,1.7,0.9,2.6v1.2h-4.8l0,0c0,0.5,0.2,0.9,0.5,1.3c0.3,0.3,0.8,0.5,1.3,0.5c0.4,0,0.8,0,1.2-0.2c0.3-0.1,0.7-0.3,1-0.4
		l0.6,1.3c-0.4,0.3-0.8,0.5-1.3,0.7C179.9,83.9,179.3,84,178.7,84z M178.5,77.4c-0.4,0-0.7,0.2-0.9,0.5c-0.2,0.4-0.4,0.8-0.4,1.2
		l0,0h2.6v-0.2c0-0.4-0.1-0.8-0.3-1.1C179.2,77.5,178.9,77.3,178.5,77.4L178.5,77.4z"/>
	<path class="st3" d="M201.6,96h-90.3c-1.9,0-3.5-1.6-3.5-3.5V67.6c0-1.9,1.6-3.5,3.5-3.5h90.3c1.9,0,3.5,1.6,3.5,3.5v24.8
		C205.2,94.4,203.6,96,201.6,96C201.7,96,201.7,96,201.6,96z M111.3,67.1c-0.3,0-0.5,0.2-0.5,0.5c0,0,0,0,0,0v24.8
		c0,0.3,0.2,0.5,0.5,0.5c0,0,0,0,0,0h90.3c0.3,0,0.5-0.2,0.5-0.5V67.6c0-0.3-0.2-0.5-0.5-0.5H111.3z"/>
	<path class="st5" d="M189.8,107.3h-9c-0.6-2.2-2.8-3.6-5.1-3.1c-2.2,0.6-3.6,2.8-3.1,5.1c0.6,2.2,2.8,3.6,5.1,3.1
		c1.5-0.4,2.7-1.5,3.1-3.1h2.6l1.2,1.2l1.2-1.2h0.1l0.8,0.8l0.7-0.7l1.1,1.1l1.3-1.3l1-0.9L189.8,107.3z M175.1,109.4
		c-0.6,0-1.1-0.5-1.1-1.1s0.5-1.1,1.1-1.1c0.6,0,1.1,0.5,1.1,1.1S175.7,109.4,175.1,109.4L175.1,109.4z"/>
	<g>
		<defs>
			<polygon id="SVGID_00000145746588257272673960000003710030677049600913_" points="458.8,111.9 458.8,48.5 403.9,16.7 348.9,48.5 
				348.9,111.9 403.9,143.6 			"/>
		</defs>
		<clipPath id="SVGID_00000095308904796049610040000001375853754915925422_">
			<use xlink:href="#SVGID_00000145746588257272673960000003710030677049600913_"  style="overflow:visible;"/>
		</clipPath>
		<g style="clip-path:url(#SVGID_00000095308904796049610040000001375853754915925422_);">
			<rect x="348.9" y="16.7" class="st7" width="1.1" height="126.8"/>
			<rect x="350" y="16.7" class="st8" width="1.1" height="126.8"/>
			<rect x="351.1" y="16.7" class="st9" width="1.1" height="126.8"/>
			<rect x="352.2" y="16.7" class="st10" width="1.1" height="126.8"/>
			<rect x="353.2" y="16.7" class="st11" width="1.1" height="126.8"/>
			<rect x="354.3" y="16.7" class="st12" width="1.1" height="126.8"/>
			<rect x="355.4" y="16.7" class="st13" width="1.1" height="126.8"/>
			<rect x="356.5" y="16.7" class="st14" width="1.1" height="126.8"/>
			<rect x="357.6" y="16.7" class="st15" width="1.1" height="126.8"/>
			<rect x="358.6" y="16.7" class="st16" width="1.1" height="126.8"/>
			<rect x="359.7" y="16.7" class="st17" width="1.1" height="126.8"/>
			<rect x="360.8" y="16.7" class="st18" width="1.1" height="126.8"/>
			<rect x="361.9" y="16.7" class="st19" width="1.1" height="126.8"/>
			<rect x="362.9" y="16.7" class="st20" width="1.1" height="126.8"/>
			<rect x="364" y="16.7" class="st21" width="1.1" height="126.8"/>
			<rect x="365.1" y="16.7" class="st22" width="1.1" height="126.8"/>
			<rect x="366.2" y="16.7" class="st23" width="1.1" height="126.8"/>
			<rect x="367.2" y="16.7" class="st24" width="1.1" height="126.8"/>
			<rect x="368.3" y="16.7" class="st25" width="1.1" height="126.8"/>
			<rect x="369.4" y="16.7" class="st26" width="1.1" height="126.8"/>
			<rect x="370.5" y="16.7" class="st27" width="1.1" height="126.8"/>
			<rect x="371.6" y="16.7" class="st28" width="1.1" height="126.8"/>
			<rect x="372.6" y="16.7" class="st29" width="1.1" height="126.8"/>
			<rect x="373.7" y="16.7" class="st30" width="1.1" height="126.8"/>
			<rect x="374.8" y="16.7" class="st31" width="1.1" height="126.8"/>
			<rect x="375.9" y="16.7" class="st32" width="1.1" height="126.8"/>
			<rect x="376.9" y="16.7" class="st33" width="1.1" height="126.8"/>
			<rect x="378" y="16.7" class="st34" width="1.1" height="126.8"/>
			<rect x="379.1" y="16.7" class="st35" width="1.1" height="126.8"/>
			<rect x="380.2" y="16.7" class="st36" width="1.1" height="126.8"/>
			<rect x="381.2" y="16.7" class="st37" width="1.1" height="126.8"/>
			<rect x="382.3" y="16.7" class="st38" width="1.1" height="126.8"/>
			<rect x="383.4" y="16.7" class="st39" width="1.1" height="126.8"/>
			<rect x="384.5" y="16.7" class="st40" width="1.1" height="126.8"/>
			<rect x="385.6" y="16.7" class="st41" width="1.1" height="126.8"/>
			<rect x="386.6" y="16.7" class="st42" width="1.1" height="126.8"/>
			<rect x="387.7" y="16.7" class="st43" width="1.1" height="126.8"/>
			<rect x="388.8" y="16.7" class="st44" width="1.1" height="126.8"/>
			<rect x="389.9" y="16.7" class="st45" width="1.1" height="126.8"/>
			<rect x="390.9" y="16.7" class="st46" width="1.1" height="126.8"/>
			<rect x="392" y="16.7" class="st47" width="1.1" height="126.8"/>
			<rect x="393.1" y="16.7" class="st48" width="1.1" height="126.8"/>
			<rect x="394.2" y="16.7" class="st49" width="1.1" height="126.8"/>
			<rect x="395.2" y="16.7" class="st50" width="1.1" height="126.8"/>
			<rect x="396.3" y="16.7" class="st51" width="1.1" height="126.8"/>
			<rect x="397.4" y="16.7" class="st52" width="1.1" height="126.8"/>
			<rect x="398.5" y="16.7" class="st53" width="1.1" height="126.8"/>
			<rect x="399.6" y="16.7" class="st54" width="1.1" height="126.8"/>
			<rect x="400.6" y="16.7" class="st55" width="1.1" height="126.8"/>
			<rect x="401.7" y="16.7" class="st56" width="1.1" height="126.8"/>
			<rect x="402.8" y="16.7" class="st57" width="1.1" height="126.8"/>
			<rect x="403.9" y="16.7" class="st58" width="1.1" height="126.8"/>
			<rect x="404.9" y="16.7" class="st59" width="1.1" height="126.8"/>
			<rect x="406" y="16.7" class="st60" width="1.1" height="126.8"/>
			<rect x="407.1" y="16.7" class="st61" width="1.1" height="126.8"/>
			<rect x="408.2" y="16.7" class="st62" width="1.1" height="126.8"/>
			<rect x="409.2" y="16.7" class="st63" width="1.1" height="126.8"/>
			<rect x="410.3" y="16.7" class="st64" width="1.1" height="126.8"/>
			<rect x="411.4" y="16.7" class="st65" width="1.1" height="126.8"/>
			<rect x="412.5" y="16.7" class="st66" width="1.1" height="126.8"/>
			<rect x="413.6" y="16.7" class="st67" width="1.1" height="126.8"/>
			<rect x="414.6" y="16.7" class="st68" width="1.1" height="126.8"/>
			<rect x="415.7" y="16.7" class="st69" width="1.1" height="126.8"/>
			<rect x="416.8" y="16.7" class="st70" width="1.1" height="126.8"/>
			<rect x="417.9" y="16.7" class="st70" width="1.1" height="126.8"/>
			<rect x="418.9" y="16.7" class="st71" width="1.1" height="126.8"/>
			<rect x="420" y="16.7" class="st72" width="1.1" height="126.8"/>
			<rect x="421.1" y="16.7" class="st73" width="1.1" height="126.8"/>
			<rect x="422.2" y="16.7" class="st74" width="1.1" height="126.8"/>
			<rect x="423.2" y="16.7" class="st75" width="1.1" height="126.8"/>
			<rect x="424.3" y="16.7" class="st76" width="1.1" height="126.8"/>
			<rect x="425.4" y="16.7" class="st76" width="1.1" height="126.8"/>
			<rect x="426.5" y="16.7" class="st77" width="1.1" height="126.8"/>
			<rect x="427.6" y="16.7" class="st78" width="1.1" height="126.8"/>
			<rect x="428.6" y="16.7" class="st78" width="1.1" height="126.8"/>
			<rect x="429.7" y="16.7" class="st79" width="1.1" height="126.8"/>
			<rect x="430.8" y="16.7" class="st79" width="1.1" height="126.8"/>
			<rect x="431.9" y="16.7" class="st80" width="1.1" height="126.8"/>
			<rect x="433" y="16.7" class="st81" width="1.1" height="126.8"/>
			<rect x="434" y="16.7" class="st81" width="1.1" height="126.8"/>
			<rect x="435.1" y="16.7" class="st82" width="1.1" height="126.8"/>
			<rect x="436.2" y="16.7" class="st82" width="1.1" height="126.8"/>
			<rect x="437.2" y="16.7" class="st83" width="1.1" height="126.8"/>
			<rect x="438.3" y="16.7" class="st84" width="1.1" height="126.8"/>
			<rect x="439.4" y="16.7" class="st84" width="1.1" height="126.8"/>
			<rect x="440.5" y="16.7" class="st85" width="1.1" height="126.8"/>
			<rect x="441.6" y="16.7" class="st85" width="1.1" height="126.8"/>
			<rect x="442.6" y="16.7" class="st85" width="1.1" height="126.8"/>
			<rect x="443.7" y="16.7" class="st86" width="1.1" height="126.8"/>
			<rect x="444.8" y="16.7" class="st86" width="1.1" height="126.8"/>
			<rect x="445.9" y="16.7" class="st86" width="1.1" height="126.8"/>
			<rect x="447" y="16.7" class="st87" width="1.1" height="126.8"/>
			<rect x="448" y="16.7" class="st87" width="1.1" height="126.8"/>
			<rect x="449.1" y="16.7" class="st87" width="1.1" height="126.8"/>
			<rect x="450.2" y="16.7" class="st87" width="1.1" height="126.8"/>
			<rect x="451.2" y="16.7" class="st87" width="1.1" height="126.8"/>
			<rect x="452.3" y="16.7" class="st88" width="1.1" height="126.8"/>
			<rect x="453.4" y="16.7" class="st88" width="1.1" height="126.8"/>
			<rect x="454.5" y="16.7" class="st88" width="1.1" height="126.8"/>
			<rect x="455.6" y="16.7" class="st88" width="1.1" height="126.8"/>
			<rect x="456.6" y="16.7" class="st88" width="1.1" height="126.8"/>
			<rect x="457.7" y="16.7" class="st88" width="1.1" height="126.8"/>
		</g>
	</g>
	<path class="st5" d="M404.7,145.5c-0.5,0-0.9-0.1-1.3-0.4l-54.6-31.5c-0.8-0.5-1.3-1.3-1.3-2.3V48.3c0-0.9,0.5-1.8,1.3-2.3
		l54.6-31.5c0.8-0.5,1.8-0.5,2.6,0l54.6,31.5c0.8,0.5,1.3,1.3,1.3,2.3v50h-2.6v-50l-54.6-31.5L350,48.3v63.1l54.6,31.5l54.6-31.5
		v-17h2.6v17c0,0.9-0.5,1.8-1.3,2.3L406,145.2C405.6,145.4,405.1,145.5,404.7,145.5z"/>
	<path class="st91" d="M396.5,36.1c4.7-4.6,12.2-4.5,16.8,0.1s4.5,12.2-0.1,16.8c-4.7,4.6-12.2,4.5-16.8-0.1
		c-2.2-2.2-3.4-5.2-3.4-8.3c0-2.6,0.8-5.1,2.4-7.2"/>
	<path class="st5" d="M404.9,57.5c-7.1,0-12.8-5.8-12.9-12.9c0-2.8,0.9-5.6,2.6-7.8c0.2-0.3,0.6-0.5,1-0.4c-0.1-0.4,0-0.7,0.3-1
		c5.1-5,13.2-4.9,18.2,0.2s4.9,13.2-0.2,18.2C411.5,56.2,408.3,57.5,404.9,57.5L404.9,57.5z M396.4,37.1c0.1,0.3,0,0.7-0.2,0.9
		c-1.5,1.9-2.2,4.2-2.2,6.6c0,6,4.9,10.8,10.9,10.8c6,0,10.8-4.9,10.8-10.9s-4.9-10.8-10.9-10.8c-2.8,0-5.5,1.1-7.6,3.1
		C397,37,396.7,37.1,396.4,37.1L396.4,37.1z"/>
	<path class="st5" d="M406.7,51.3h-6.4c-0.9,0.1-1.7-0.6-1.8-1.5c0-0.1,0-0.2,0-0.3v-6.6c-0.1-0.9,0.6-1.7,1.5-1.8
		c0.1,0,0.2,0,0.3,0h8.5c0.9-0.1,1.7,0.6,1.8,1.5c0,0.1,0,0.2,0,0.3v6.6c0.1,0.9-0.6,1.7-1.5,1.8c-0.1,0-0.2,0-0.3,0
		C408.1,51.3,407.4,51.3,406.7,51.3z M400.5,49.3h5.2c1,0,2,0,3,0v-6.2h-8.1L400.5,49.3z"/>
	<path class="st5" d="M400.1,42.6L400.1,42.6c-0.6,0-1-0.5-1-1.1c0,0,0,0,0,0c0-3,2.3-5.4,5.3-5.5c0.9,0,1.7,0.2,2.5,0.5
		c1.4,0.7,2.4,1.9,2.7,3.4c0.1,0.2,0.1,0.5,0.1,0.7c0,0.2,0.1,0.4,0.1,0.5c0.1,0.5-0.2,1.1-0.7,1.2c0,0,0,0,0,0
		c-0.5,0.1-1.1-0.2-1.2-0.7c0,0,0,0,0,0c-0.1-0.2-0.1-0.4-0.1-0.7c0-0.2-0.1-0.4-0.1-0.5c-0.2-0.9-0.8-1.7-1.7-2.1
		c-0.9-0.4-1.9-0.4-2.8-0.1c-1.3,0.6-2.1,1.9-2.1,3.3C401.1,42.1,400.7,42.6,400.1,42.6z"/>
	<path class="st5" d="M403.9,47.5L403.9,47.5v0.9c0,0.2,0.1,0.2,0.3,0.2h0.9c0.2,0,0.3-0.1,0.3-0.3v-1.6c0-0.2,0.1-0.3,0.2-0.4
		c0.5-0.3,0.8-0.9,0.6-1.5c-0.2-0.6-0.8-1-1.5-1c-0.7-0.1-1.3,0.3-1.6,0.9c-0.2,0.6,0,1.2,0.6,1.5c0.2,0.1,0.3,0.3,0.3,0.5
		C403.9,47,403.9,47.2,403.9,47.5z"/>
	<g id="Scone_logo_white-2">
		<g>
			<defs>
				<rect id="SVGID_00000008143833860133148160000000620416356252077495_" x="372.5" y="103.9" width="43.9" height="8.6"/>
			</defs>
			<clipPath id="SVGID_00000072279100055785892020000013823369093248984968_">
				<use xlink:href="#SVGID_00000008143833860133148160000000620416356252077495_"  style="overflow:visible;"/>
			</clipPath>
			<g style="clip-path:url(#SVGID_00000072279100055785892020000013823369093248984968_);">
				<g>
					<defs>
						<rect id="SVGID_00000108286436435695912190000012983889470756018317_" x="372.5" y="103.9" width="43.9" height="8.6"/>
					</defs>
					<clipPath id="SVGID_00000016795025074417734160000004149768107619920309_">
						<use xlink:href="#SVGID_00000108286436435695912190000012983889470756018317_"  style="overflow:visible;"/>
					</clipPath>
					<g style="clip-path:url(#SVGID_00000016795025074417734160000004149768107619920309_);">
						<path class="st94" d="M378.3,106.1h-0.9c-0.2,0-0.4,0.2-0.4,0.3v0.9c0,0.2,0.2,0.4,0.4,0.3h0.9c0.2,0,0.4-0.2,0.4-0.3v-0.9
							C378.6,106.2,378.5,106.1,378.3,106.1 M375.1,107.7h0.9c0.2,0,0.4-0.2,0.4-0.3c0,0,0,0,0,0v-0.9c0-0.2-0.2-0.3-0.4-0.3l0,0
							h-0.9c-0.2,0-0.4,0.2-0.4,0.3v0.9C374.7,107.5,374.9,107.7,375.1,107.7 M374.1,107.3v-0.9c0-0.2-0.2-0.3-0.4-0.3l0,0h-0.9
							c-0.2,0-0.4,0.2-0.4,0.3v0.9c0,0.2,0.2,0.4,0.4,0.3h0.9C373.9,107.7,374.1,107.5,374.1,107.3
							C374.1,107.3,374.1,107.3,374.1,107.3 M378.3,108.3c-0.1,0-0.3,0.1-0.3,0.3v1.1c0,0.1,0.1,0.3,0.2,0.3c0.1,0,0.3-0.1,0.3-0.2
							c0,0,0-0.1,0-0.1v-1.1C378.6,108.5,378.5,108.4,378.3,108.3C378.3,108.3,378.3,108.3,378.3,108.3 M375.8,108.7v0.9
							c0,0.2,0.2,0.4,0.4,0.4h0.9c0.2,0,0.4-0.2,0.4-0.3c0,0,0,0,0,0v-0.9c0-0.2-0.1-0.4-0.3-0.4c0,0,0,0,0,0h-0.9
							C376,108.4,375.8,108.5,375.8,108.7 M375.2,109.6v-0.9c0-0.2-0.2-0.4-0.4-0.4h-0.9c-0.2,0-0.4,0.2-0.4,0.4v0.9
							c0,0.2,0.2,0.4,0.4,0.4h0.9C375,110,375.2,109.8,375.2,109.6 M378.3,110.6h-0.9c-0.2,0-0.4,0.2-0.4,0.3v0.9
							c0,0.2,0.2,0.4,0.4,0.3h0.9c0.2,0,0.4-0.2,0.4-0.3V111C378.6,110.8,378.5,110.6,378.3,110.6 M375.9,110.7H375
							c-0.2,0-0.4,0.2-0.4,0.3c0,0,0,0,0,0v0.9c0,0.2,0.2,0.3,0.4,0.3l0,0h0.9c0.2,0,0.4-0.2,0.4-0.3c0,0,0,0,0,0V111
							C376.3,110.8,376.1,110.7,375.9,110.7L375.9,110.7"/>
						<path class="st94" d="M379.4,105.7c0.4,0.3,0.9,0.5,1.4,0.4c0,0,0,0,0,0.1v2.5c0,1-1.2,1.6-1.5,1.7l0,0L379.4,105.7
							L379.4,105.7"/>
						<path class="st94" d="M376.6,105.6c2-0.1,2.3-0.7,2.3-0.7c0,0,0.1,0,0.1,0c0,0,0.1,0,0.1,0s0.3,0.7,2.2,0.7
							c0.1,0,0.1,0,0.1,0.1v3.3c0,1.1-2,2.3-2,2.3c0,0-0.1,0-0.1,0.1v0.8c0,0,0.1,0,0.2,0c0.7-0.4,2.8-1.6,2.8-3V105
							c0-0.1-0.1-0.1-0.2-0.1c-2.5,0-2.9-0.9-2.9-0.9s-0.1,0-0.2,0s-0.1,0-0.1,0s-0.4,0.9-2.9,0.9c-0.1,0-0.1,0-0.1,0.1v0.5
							c0,0,0,0.1,0.1,0.1s0.6,0,0.6,0"/>
						<path class="st95" d="M384.1,111l1-0.4c0.2,0.5,0.7,0.8,1.3,0.8c0.3,0,0.5-0.1,0.8-0.2c0.2-0.1,0.3-0.3,0.3-0.5
							c0-0.5-0.7-0.8-1.2-1.1l0,0c-0.4-0.2-0.8-0.4-1.1-0.6c-0.4-0.3-0.6-0.7-0.6-1.2c0-0.5,0.2-0.9,0.6-1.2
							c0.4-0.3,0.9-0.5,1.5-0.5c0.8,0,1.5,0.4,1.9,1.1l-1,0.4c-0.1-0.2-0.2-0.3-0.4-0.4c-0.2-0.1-0.4-0.1-0.6-0.1
							c-0.6,0-1,0.3-1,0.7c0,0.3,0.2,0.5,0.4,0.6c0.3,0.2,0.6,0.3,0.9,0.5l0.1,0.1c0.8,0.3,1.7,0.7,1.7,1.7c0,0.5-0.2,1-0.7,1.3
							c-0.5,0.3-1,0.5-1.6,0.5C385.4,112.4,384.5,111.9,384.1,111"/>
						<path class="st95" d="M392.8,112.3c-0.4,0-0.8-0.1-1.2-0.2c-0.4-0.1-0.7-0.4-1-0.7c-0.3-0.3-0.5-0.6-0.7-1
							c-0.2-0.4-0.2-0.8-0.2-1.2c0-0.4,0.1-0.8,0.3-1.2c0.3-0.7,0.9-1.3,1.7-1.7c0.4-0.2,0.8-0.2,1.2-0.2c0.5,0,1,0.1,1.4,0.3
							c0.4,0.2,0.8,0.5,1.1,0.9l-0.8,0.6c-0.2-0.2-0.4-0.5-0.7-0.6c-0.3-0.1-0.6-0.2-1-0.2c-0.6,0-1.1,0.2-1.5,0.6
							c-0.4,0.4-0.6,0.9-0.6,1.5c0,0.6,0.2,1.1,0.6,1.5c0.4,0.4,0.9,0.6,1.5,0.6c0.4,0,0.7-0.1,1.1-0.3c0.3-0.2,0.6-0.5,0.8-0.8
							l0.9,0.5c-0.3,0.5-0.7,0.9-1.1,1.2C394,112.2,393.4,112.4,392.8,112.3"/>
						<path class="st95" d="M399.7,112.3c-0.4,0-0.8-0.1-1.2-0.2c-0.4-0.2-0.7-0.4-1-0.7c-0.3-0.3-0.5-0.6-0.7-1
							c-0.2-0.4-0.2-0.8-0.2-1.2c0-0.4,0.1-0.8,0.2-1.2c0.3-0.7,0.9-1.3,1.7-1.7c0.4-0.2,0.8-0.2,1.2-0.2c0.4,0,0.8,0.1,1.2,0.2
							c0.4,0.2,0.7,0.4,1,0.7c0.3,0.3,0.5,0.6,0.7,1c0.2,0.4,0.2,0.8,0.2,1.2c0,0.4-0.1,0.8-0.2,1.2c-0.2,0.4-0.4,0.7-0.7,1
							c-0.3,0.3-0.6,0.5-1,0.7C400.5,112.3,400.1,112.3,399.7,112.3 M399.7,107.1c-0.6,0-1.1,0.2-1.5,0.6c-0.4,0.4-0.6,0.9-0.6,1.5
							c0,0.6,0.2,1.1,0.6,1.5c0.4,0.4,0.9,0.6,1.5,0.6c0.6,0,1.1-0.2,1.5-0.6c0.4-0.4,0.6-0.9,0.6-1.5c0-0.6-0.2-1.1-0.6-1.5
							C400.7,107.3,400.2,107.1,399.7,107.1"/>
						<polygon class="st95" points="409.9,106.1 409.9,112.5 405.5,108.4 405.5,112.2 404.4,112.2 404.4,105.9 408.8,109.9 
							408.8,106.1 						"/>
						<polygon class="st95" points="412.9,107.1 412.9,108.7 415.9,108.7 415.9,109.6 412.9,109.6 412.9,111.3 416.3,111.3 
							416.3,112.2 411.8,112.2 411.8,106.1 416.3,106.1 416.3,107.1 412.9,107.1 						"/>
					</g>
				</g>
			</g>
		</g>
	</g>
	<path class="st91" d="M387,78.6h-1.5l-0.2-1c-0.2-0.1-0.4-0.2-0.6-0.3c-0.2-0.1-0.5-0.1-0.7-0.1c-0.3,0-0.6,0.1-0.9,0.3
		c-0.2,0.1-0.3,0.4-0.3,0.6c0,0.2,0.1,0.5,0.3,0.6c0.4,0.2,0.8,0.4,1.3,0.4c0.8,0.1,1.5,0.4,2.2,0.9c0.5,0.4,0.7,1,0.7,1.6
		c0,0.7-0.3,1.4-0.9,1.8c-0.7,0.5-1.5,0.7-2.4,0.7c-0.6,0-1.1-0.1-1.7-0.3c-0.5-0.2-1-0.4-1.4-0.7v-1.8h1.5l0.3,1
		c0.2,0.1,0.3,0.2,0.5,0.2c0.2,0,0.5,0.1,0.7,0.1c0.3,0,0.7-0.1,1-0.2c0.3-0.2,0.5-0.7,0.2-1c-0.1-0.1-0.1-0.2-0.2-0.2
		c-0.4-0.2-0.8-0.4-1.3-0.5c-0.8-0.1-1.5-0.4-2.1-0.8c-0.5-0.4-0.7-0.9-0.7-1.5c0-0.7,0.3-1.3,0.8-1.7c0.7-0.5,1.5-0.8,2.4-0.7
		c0.6,0,1.2,0.1,1.8,0.2c0.5,0.1,0.9,0.4,1.3,0.7L387,78.6z"/>
	<path class="st91" d="M392.1,84c-1,0-2-0.4-2.8-1.1c-0.7-0.8-1-1.8-1-2.8v-0.3c0-1.1,0.3-2.1,1-2.9c0.7-0.8,1.6-1.2,2.6-1.1
		c0.9,0,1.9,0.3,2.5,1c0.6,0.7,1,1.7,0.9,2.6v1.2h-4.8l0,0c0,0.5,0.2,0.9,0.5,1.3c0.3,0.3,0.8,0.5,1.3,0.5c0.4,0,0.8,0,1.2-0.2
		c0.3-0.1,0.7-0.3,1-0.4l0.6,1.3c-0.4,0.3-0.8,0.5-1.3,0.7C393.3,83.9,392.7,84,392.1,84z M391.9,77.4c-0.4,0-0.7,0.2-1,0.5
		c-0.2,0.4-0.4,0.8-0.4,1.2l0,0h2.6v-0.2c0-0.4-0.1-0.8-0.3-1.1C392.6,77.5,392.3,77.3,391.9,77.4L391.9,77.4z"/>
	<path class="st91" d="M396.5,82.5l1-0.2v-4.9l-1.1-0.2v-1.3h3.1l0.1,1.2c0.1-0.4,0.4-0.7,0.7-1c0.3-0.2,0.6-0.4,1-0.3h0.4
		c0.1,0,0.2,0,0.3,0.1l-0.2,2h-0.9c-0.3,0-0.5,0.1-0.8,0.2c-0.2,0.1-0.4,0.3-0.5,0.5v3.9l1,0.2v1.3h-4.2L396.5,82.5z"/>
	<path class="st91" d="M406.2,77.2l-0.8,0.1l1,3.6l0.1,0.8h0l0.1-0.8l1-3.6l-0.8-0.1v-1.3h3.6v1.3l-0.7,0.1l-2.4,6.6h-2.1l-2.4-6.6
		l-0.7-0.1v-1.3h3.6L406.2,77.2z"/>
	<path class="st91" d="M411.4,82.5l1-0.2v-4.9l-1.1-0.2v-1.3h3.3v6.5l1,0.2v1.3h-4.2L411.4,82.5z M414.6,73.9h-2.2v-1.6h2.2V73.9z"
		/>
	<path class="st91" d="M420.1,82.3c0.3,0,0.7-0.1,0.9-0.3c0.2-0.2,0.4-0.6,0.4-0.9h2v0.1c0,0.8-0.3,1.5-0.9,2
		c-0.6,0.6-1.5,0.9-2.3,0.8c-1,0.1-2.1-0.4-2.8-1.1c-0.7-0.8-1-1.8-1-2.9v-0.2c0-1.1,0.3-2.1,1-2.9c0.7-0.8,1.8-1.2,2.8-1.1
		c0.6,0,1.2,0.1,1.7,0.3c0.5,0.2,0.9,0.4,1.3,0.8v2.1h-1.8l-0.4-1.2c-0.1-0.1-0.3-0.2-0.4-0.2c-0.2-0.1-0.4-0.1-0.5-0.1
		c-0.5,0-1,0.2-1.3,0.7c-0.3,0.5-0.4,1.1-0.4,1.7V80c0,0.6,0.1,1.2,0.4,1.7C419,82.2,419.6,82.4,420.1,82.3z"/>
	<path class="st91" d="M428.1,84c-1,0-2-0.4-2.8-1.1c-0.7-0.8-1-1.8-1-2.8v-0.3c0-1.1,0.3-2.1,1-2.9c1.4-1.5,3.7-1.5,5.1-0.2
		c0.6,0.7,0.9,1.7,0.9,2.6v1.2h-4.8l0,0c0,0.5,0.2,0.9,0.5,1.3c0.3,0.3,0.8,0.5,1.3,0.5c0.4,0,0.8,0,1.2-0.2c0.3-0.1,0.7-0.3,1-0.4
		l0.6,1.3c-0.4,0.3-0.8,0.5-1.3,0.7C429.3,83.9,428.7,84,428.1,84z M427.9,77.4c-0.4,0-0.7,0.2-1,0.5c-0.2,0.4-0.4,0.8-0.4,1.2l0,0
		h2.6v-0.2c0-0.4-0.1-0.8-0.3-1.1C428.6,77.5,428.3,77.3,427.9,77.4L427.9,77.4z"/>
	<path class="st3" d="M451.1,96h-90.3c-1.9,0-3.5-1.6-3.5-3.5V67.6c0-1.9,1.6-3.5,3.5-3.5h90.3c1.9,0,3.5,1.6,3.5,3.5v24.8
		C454.6,94.4,453.1,96,451.1,96C451.1,96,451.1,96,451.1,96z M360.8,67.1c-0.3,0-0.5,0.2-0.5,0.5c0,0,0,0,0,0v24.8
		c0,0.3,0.2,0.5,0.5,0.5l0,0h90.3c0.3,0,0.5-0.2,0.5-0.5V67.6c0-0.3-0.2-0.5-0.5-0.5H360.8z"/>
	<path class="st5" d="M439.2,107.3h-9c-0.6-2.2-2.8-3.6-5.1-3.1c-2.2,0.6-3.6,2.8-3.1,5.1c0.6,2.2,2.8,3.6,5.1,3.1
		c1.5-0.4,2.7-1.5,3.1-3.1h2.6l1.2,1.2l1.2-1.2h0.1l0.8,0.8l0.7-0.7l1.1,1.1l1.3-1.3l1-0.9L439.2,107.3z M424.5,109.4
		c-0.6,0-1.1-0.5-1.1-1.1c0-0.6,0.5-1.1,1.1-1.1c0.6,0,1.1,0.5,1.1,1.1S425.1,109.4,424.5,109.4L424.5,109.4z"/>
	<g>
		<defs>
			<polygon id="SVGID_00000041255529900894766220000002598143668536533394_" points="322.2,190.5 322.2,127.1 267.2,95.4 
				212.3,127.1 212.3,190.5 267.2,222.2 			"/>
		</defs>
		<clipPath id="SVGID_00000150780538402609916940000011956854139181536165_">
			<use xlink:href="#SVGID_00000041255529900894766220000002598143668536533394_"  style="overflow:visible;"/>
		</clipPath>
		<g style="clip-path:url(#SVGID_00000150780538402609916940000011956854139181536165_);">
			<rect x="212.3" y="95.4" class="st7" width="1.1" height="126.8"/>
			<rect x="213.4" y="95.4" class="st8" width="1.1" height="126.8"/>
			<rect x="214.5" y="95.4" class="st9" width="1.1" height="126.8"/>
			<rect x="215.5" y="95.4" class="st10" width="1.1" height="126.8"/>
			<rect x="216.6" y="95.4" class="st11" width="1.1" height="126.8"/>
			<rect x="217.7" y="95.4" class="st12" width="1.1" height="126.8"/>
			<rect x="218.8" y="95.4" class="st13" width="1.1" height="126.8"/>
			<rect x="219.9" y="95.4" class="st14" width="1.1" height="126.8"/>
			<rect x="220.9" y="95.4" class="st15" width="1.1" height="126.8"/>
			<rect x="222" y="95.4" class="st16" width="1.1" height="126.8"/>
			<rect x="223.1" y="95.4" class="st17" width="1.1" height="126.8"/>
			<rect x="224.2" y="95.4" class="st18" width="1.1" height="126.8"/>
			<rect x="225.2" y="95.4" class="st19" width="1.1" height="126.8"/>
			<rect x="226.3" y="95.4" class="st20" width="1.1" height="126.8"/>
			<rect x="227.4" y="95.4" class="st21" width="1.1" height="126.8"/>
			<rect x="228.5" y="95.4" class="st22" width="1.1" height="126.8"/>
			<rect x="229.5" y="95.4" class="st23" width="1.1" height="126.8"/>
			<rect x="230.6" y="95.4" class="st24" width="1.1" height="126.8"/>
			<rect x="231.7" y="95.4" class="st25" width="1.1" height="126.8"/>
			<rect x="232.8" y="95.4" class="st26" width="1.1" height="126.8"/>
			<rect x="233.9" y="95.4" class="st27" width="1.1" height="126.8"/>
			<rect x="234.9" y="95.4" class="st28" width="1.1" height="126.8"/>
			<rect x="236" y="95.4" class="st29" width="1.1" height="126.8"/>
			<rect x="237.1" y="95.4" class="st30" width="1.1" height="126.8"/>
			<rect x="238.2" y="95.4" class="st31" width="1.1" height="126.8"/>
			<rect x="239.2" y="95.4" class="st32" width="1.1" height="126.8"/>
			<rect x="240.3" y="95.4" class="st33" width="1.1" height="126.8"/>
			<rect x="241.4" y="95.4" class="st34" width="1.1" height="126.8"/>
			<rect x="242.5" y="95.4" class="st35" width="1.1" height="126.8"/>
			<rect x="243.6" y="95.4" class="st36" width="1.1" height="126.8"/>
			<rect x="244.6" y="95.4" class="st37" width="1.1" height="126.8"/>
			<rect x="245.7" y="95.4" class="st38" width="1.1" height="126.8"/>
			<rect x="246.8" y="95.4" class="st39" width="1.1" height="126.8"/>
			<rect x="247.9" y="95.4" class="st40" width="1.1" height="126.8"/>
			<rect x="248.9" y="95.4" class="st41" width="1.1" height="126.8"/>
			<rect x="250" y="95.4" class="st42" width="1.1" height="126.8"/>
			<rect x="251.1" y="95.4" class="st43" width="1.1" height="126.8"/>
			<rect x="252.2" y="95.4" class="st44" width="1.1" height="126.8"/>
			<rect x="253.2" y="95.4" class="st45" width="1.1" height="126.8"/>
			<rect x="254.3" y="95.4" class="st46" width="1.1" height="126.8"/>
			<rect x="255.4" y="95.4" class="st47" width="1.1" height="126.8"/>
			<rect x="256.5" y="95.4" class="st48" width="1.1" height="126.8"/>
			<rect x="257.5" y="95.4" class="st49" width="1.1" height="126.8"/>
			<rect x="258.6" y="95.4" class="st50" width="1.1" height="126.8"/>
			<rect x="259.7" y="95.4" class="st51" width="1.1" height="126.8"/>
			<rect x="260.8" y="95.4" class="st52" width="1.1" height="126.8"/>
			<rect x="261.9" y="95.4" class="st53" width="1.1" height="126.8"/>
			<rect x="262.9" y="95.4" class="st54" width="1.1" height="126.8"/>
			<rect x="264" y="95.4" class="st55" width="1.1" height="126.8"/>
			<rect x="265.1" y="95.4" class="st56" width="1.1" height="126.8"/>
			<rect x="266.2" y="95.4" class="st57" width="1.1" height="126.8"/>
			<rect x="267.2" y="95.4" class="st58" width="1.1" height="126.8"/>
			<rect x="268.3" y="95.4" class="st59" width="1.1" height="126.8"/>
			<rect x="269.4" y="95.4" class="st60" width="1.1" height="126.8"/>
			<rect x="270.5" y="95.4" class="st61" width="1.1" height="126.8"/>
			<rect x="271.5" y="95.4" class="st62" width="1.1" height="126.8"/>
			<rect x="272.6" y="95.4" class="st63" width="1.1" height="126.8"/>
			<rect x="273.7" y="95.4" class="st64" width="1.1" height="126.8"/>
			<rect x="274.8" y="95.4" class="st65" width="1.1" height="126.8"/>
			<rect x="275.9" y="95.4" class="st66" width="1.1" height="126.8"/>
			<rect x="276.9" y="95.4" class="st67" width="1.1" height="126.8"/>
			<rect x="278" y="95.4" class="st68" width="1.1" height="126.8"/>
			<rect x="279.1" y="95.4" class="st69" width="1.1" height="126.8"/>
			<rect x="280.2" y="95.4" class="st70" width="1.1" height="126.8"/>
			<rect x="281.2" y="95.4" class="st70" width="1.1" height="126.8"/>
			<rect x="282.3" y="95.4" class="st71" width="1.1" height="126.8"/>
			<rect x="283.4" y="95.4" class="st72" width="1.1" height="126.8"/>
			<rect x="284.5" y="95.4" class="st73" width="1.1" height="126.8"/>
			<rect x="285.5" y="95.4" class="st74" width="1.1" height="126.8"/>
			<rect x="286.6" y="95.4" class="st75" width="1.1" height="126.8"/>
			<rect x="287.7" y="95.4" class="st76" width="1.1" height="126.8"/>
			<rect x="288.8" y="95.4" class="st76" width="1.1" height="126.8"/>
			<rect x="289.9" y="95.4" class="st77" width="1.1" height="126.8"/>
			<rect x="290.9" y="95.4" class="st78" width="1.1" height="126.8"/>
			<rect x="292" y="95.4" class="st78" width="1.1" height="126.8"/>
			<rect x="293.1" y="95.4" class="st79" width="1.1" height="126.8"/>
			<rect x="294.2" y="95.4" class="st79" width="1.1" height="126.8"/>
			<rect x="295.2" y="95.4" class="st80" width="1.1" height="126.8"/>
			<rect x="296.3" y="95.4" class="st81" width="1.1" height="126.8"/>
			<rect x="297.4" y="95.4" class="st81" width="1.1" height="126.8"/>
			<rect x="298.5" y="95.4" class="st82" width="1.1" height="126.8"/>
			<rect x="299.5" y="95.4" class="st82" width="1.1" height="126.8"/>
			<rect x="300.6" y="95.4" class="st83" width="1.1" height="126.8"/>
			<rect x="301.7" y="95.4" class="st84" width="1.1" height="126.8"/>
			<rect x="302.8" y="95.4" class="st84" width="1.1" height="126.8"/>
			<rect x="303.9" y="95.4" class="st85" width="1.1" height="126.8"/>
			<rect x="304.9" y="95.4" class="st85" width="1.1" height="126.8"/>
			<rect x="306" y="95.4" class="st85" width="1.1" height="126.8"/>
			<rect x="307.1" y="95.4" class="st86" width="1.1" height="126.8"/>
			<rect x="308.2" y="95.4" class="st86" width="1.1" height="126.8"/>
			<rect x="309.2" y="95.4" class="st86" width="1.1" height="126.8"/>
			<rect x="310.3" y="95.4" class="st87" width="1.1" height="126.8"/>
			<rect x="311.4" y="95.4" class="st87" width="1.1" height="126.8"/>
			<rect x="312.5" y="95.4" class="st87" width="1.1" height="126.8"/>
			<rect x="313.5" y="95.4" class="st87" width="1.1" height="126.8"/>
			<rect x="314.6" y="95.4" class="st87" width="1.1" height="126.8"/>
			<rect x="315.7" y="95.4" class="st88" width="1.1" height="126.8"/>
			<rect x="316.8" y="95.4" class="st88" width="1.1" height="126.8"/>
			<rect x="317.9" y="95.4" class="st88" width="1.1" height="126.8"/>
			<rect x="318.9" y="95.4" class="st88" width="1.1" height="126.8"/>
			<rect x="320" y="95.4" class="st88" width="1.1" height="126.8"/>
			<rect x="321.1" y="95.4" class="st88" width="1.1" height="126.8"/>
		</g>
	</g>
	<path class="st5" d="M267,225.2c-0.5,0-0.9-0.1-1.3-0.4l-54.6-31.5c-0.8-0.5-1.3-1.3-1.3-2.3v-63c0-0.9,0.5-1.8,1.3-2.3l54.6-31.5
		c0.8-0.5,1.8-0.5,2.6,0l54.6,31.5c0.8,0.5,1.3,1.3,1.3,2.3v50h-2.6v-50L267,96.4L212.4,128v63l54.6,31.6l54.6-31.6v-17h2.6v17
		c0,0.9-0.5,1.8-1.3,2.3l-54.6,31.5C267.9,225,267.5,225.2,267,225.2z"/>
	<path class="st91" d="M258.9,115.8c4.7-4.6,12.2-4.5,16.8,0.1c4.6,4.7,4.5,12.2-0.1,16.8c-4.7,4.6-12.2,4.5-16.8-0.1
		c-2.2-2.2-3.4-5.2-3.4-8.3c0-2.6,0.8-5.1,2.4-7.2"/>
	<path class="st5" d="M267.2,137.1c-7.1,0-12.9-5.8-12.9-12.9c0-2.8,0.9-5.6,2.6-7.8c0.2-0.3,0.6-0.5,1-0.4c-0.1-0.4,0-0.7,0.3-1
		c5.1-5,13.2-4.9,18.2,0.2s4.9,13.2-0.2,18.2C273.9,135.8,270.6,137.1,267.2,137.1L267.2,137.1z M258.8,116.7c0.1,0.3,0,0.7-0.2,0.9
		c-1.5,1.9-2.2,4.2-2.2,6.6c0,6,4.9,10.8,10.9,10.8c6,0,10.8-4.9,10.8-10.9c0-6-4.9-10.8-10.9-10.8c-2.8,0-5.5,1.1-7.6,3.1
		C259.4,116.7,259.1,116.8,258.8,116.7z"/>
	<path class="st5" d="M269,131h-6.4c-0.9,0.1-1.7-0.6-1.8-1.5c0-0.1,0-0.2,0-0.3v-6.5c-0.1-0.9,0.6-1.7,1.5-1.8c0.1,0,0.2,0,0.3,0
		h8.6c0.9-0.1,1.7,0.6,1.8,1.5c0,0.1,0,0.2,0,0.3v6.6c0.1,0.9-0.6,1.7-1.5,1.8c-0.1,0-0.2,0-0.3,0C270.5,131,269.8,131,269,131z
		 M262.8,129h5.2c1,0,2,0,3,0v-6.1h-8.1L262.8,129z"/>
	<path class="st5" d="M262.5,122.2L262.5,122.2c-0.6,0-1-0.5-1-1.1c0,0,0,0,0,0c0-2.2,1.3-4.1,3.3-5c1.4-0.6,3.1-0.6,4.5,0.1
		c1.4,0.7,2.4,1.9,2.7,3.4c0.1,0.2,0.1,0.5,0.1,0.7s0.1,0.3,0.1,0.5c0.1,0.6-0.2,1.1-0.8,1.2c-0.6,0.1-1.1-0.2-1.2-0.8
		c0-0.2-0.1-0.4-0.1-0.7s-0.1-0.3-0.1-0.5c-0.2-0.9-0.8-1.7-1.7-2.1c-0.9-0.4-1.9-0.4-2.8-0.1c-1.3,0.6-2.1,1.9-2.1,3.3
		C263.4,121.8,263,122.2,262.5,122.2z"/>
	<path class="st5" d="M266.2,127.2L266.2,127.2v0.8c0,0.2,0.1,0.2,0.3,0.2h0.9c0.2,0,0.3-0.1,0.3-0.3v-1.6c0-0.2,0.1-0.3,0.2-0.4
		c0.5-0.3,0.8-0.9,0.6-1.5c-0.2-0.6-0.8-1-1.5-1c-0.7-0.1-1.3,0.3-1.6,0.9c-0.2,0.6,0,1.2,0.5,1.5c0.2,0.1,0.3,0.3,0.3,0.5
		C266.2,126.6,266.2,126.9,266.2,127.2z"/>
	<g id="Scone_logo_white-3">
		<g>
			<defs>
				<rect id="SVGID_00000011008460145732641460000000235747070198481029_" x="234.8" y="183.5" width="43.9" height="8.6"/>
			</defs>
			<clipPath id="SVGID_00000012465974865490349640000001824914993330863551_">
				<use xlink:href="#SVGID_00000011008460145732641460000000235747070198481029_"  style="overflow:visible;"/>
			</clipPath>
			<g style="clip-path:url(#SVGID_00000012465974865490349640000001824914993330863551_);">
				<g>
					<defs>
						<rect id="SVGID_00000137846338127727093860000013476890471846425489_" x="234.8" y="183.5" width="43.9" height="8.6"/>
					</defs>
					<clipPath id="SVGID_00000101789951365392976350000004247765808466950537_">
						<use xlink:href="#SVGID_00000137846338127727093860000013476890471846425489_"  style="overflow:visible;"/>
					</clipPath>
					<g style="clip-path:url(#SVGID_00000101789951365392976350000004247765808466950537_);">
						<path class="st94" d="M240.6,185.7h-0.9c-0.2,0-0.4,0.2-0.4,0.3v0v0.9c0,0.2,0.2,0.4,0.3,0.4h0h0.9c0.2,0,0.4-0.1,0.4-0.3
							c0,0,0,0,0,0v-0.9C241,185.9,240.8,185.7,240.6,185.7L240.6,185.7 M237.4,187.3h0.9c0.2,0,0.4-0.2,0.4-0.3v0v-0.9
							c0-0.2-0.2-0.4-0.3-0.4h0h-0.9c-0.2,0-0.4,0.2-0.4,0.3v0v0.9C237.1,187.2,237.3,187.4,237.4,187.3L237.4,187.3 M236.4,187
							v-0.9c0-0.2-0.2-0.4-0.3-0.4h0h-0.9c-0.2,0-0.4,0.2-0.4,0.3v0v0.9c0,0.2,0.2,0.4,0.3,0.4h0h0.9
							C236.3,187.4,236.4,187.2,236.4,187L236.4,187 M240.7,188c-0.1,0-0.3,0.1-0.3,0.3v1.1c0,0.1,0.1,0.3,0.3,0.3
							c0.1,0,0.3-0.1,0.3-0.3v-1.1C241,188.1,240.9,188,240.7,188C240.7,188,240.7,188,240.7,188 M238.2,188.4v0.9
							c0,0.2,0.2,0.4,0.4,0.4h0.9c0.2,0,0.4-0.2,0.4-0.3v0v-0.9c0-0.2-0.2-0.4-0.3-0.4h0h-0.9C238.3,188,238.2,188.1,238.2,188.4
							C238.2,188.3,238.2,188.3,238.2,188.4 M237.5,189.3v-0.9c0-0.2-0.2-0.4-0.3-0.4h0h-0.9c-0.2,0-0.4,0.2-0.4,0.3v0v0.9
							c0,0.2,0.2,0.4,0.3,0.4h0h0.9C237.4,189.6,237.5,189.5,237.5,189.3L237.5,189.3 M240.6,190.3h-0.9c-0.2,0-0.4,0.2-0.4,0.4v0.9
							c0,0.2,0.2,0.4,0.3,0.4h0h0.9c0.2,0,0.4-0.2,0.4-0.3v0v-0.9C241,190.5,240.8,190.3,240.6,190.3 M238.3,190.3h-0.9
							c-0.2,0-0.4,0.2-0.4,0.4l0,0v0.9c0,0.2,0.2,0.4,0.3,0.4c0,0,0,0,0,0h0.9c0.2,0,0.4-0.2,0.4-0.3v0v-0.9
							C238.6,190.5,238.5,190.3,238.3,190.3"/>
						<path class="st94" d="M241.7,185.3c0.4,0.3,0.9,0.5,1.4,0.4c0,0,0,0,0,0.1v2.5c0,1-1.2,1.6-1.5,1.7l0,0L241.7,185.3
							L241.7,185.3"/>
						<path class="st94" d="M239,185.2c1.9-0.1,2.3-0.8,2.3-0.8c0,0,0.1,0,0.1-0.1c0,0,0.1,0,0.1,0c0,0,0.3,0.7,2.2,0.7
							c0,0,0.1,0,0.1,0.1v3.3c0,1.1-2,2.3-2.1,2.3s-0.1,0-0.1,0.1v0.8c0,0,0.1,0,0.2,0c0.7-0.4,2.8-1.6,2.8-3v-4.1
							c0-0.1-0.1-0.1-0.2-0.1c-2.5,0-2.9-0.9-2.9-0.9s-0.1,0-0.2,0s-0.1,0-0.1,0s-0.4,0.9-2.9,0.9c-0.1,0-0.1,0-0.1,0.1v0.5
							c0,0,0,0.1,0.1,0.1S239,185.3,239,185.2"/>
						<path class="st95" d="M246.4,190.6l1-0.4c0.2,0.5,0.8,0.8,1.3,0.7c0.3,0,0.5,0,0.8-0.2c0.2-0.1,0.3-0.3,0.3-0.5
							c0-0.5-0.7-0.9-1.3-1.1l0,0c-0.4-0.2-0.8-0.4-1.1-0.6c-0.4-0.3-0.6-0.7-0.6-1.2c0-0.5,0.2-0.9,0.6-1.2
							c0.4-0.3,0.9-0.5,1.5-0.5c0.8,0,1.5,0.4,1.9,1.1l-1,0.4c-0.1-0.2-0.2-0.3-0.4-0.4c-0.2-0.1-0.4-0.1-0.6-0.1
							c-0.6,0-1,0.3-1,0.7c0,0.3,0.2,0.5,0.4,0.6c0.3,0.2,0.6,0.3,0.9,0.5l0.1,0.1c0.8,0.3,1.7,0.7,1.7,1.8c0,0.5-0.2,1-0.7,1.2
							c-0.5,0.3-1,0.5-1.6,0.5C247.8,192.1,246.9,191.5,246.4,190.6"/>
						<path class="st95" d="M255.2,192c-0.4,0-0.8-0.1-1.2-0.2c-0.4-0.1-0.7-0.4-1-0.7c-0.3-0.3-0.5-0.6-0.7-1
							c-0.2-0.4-0.2-0.8-0.2-1.2c0-0.4,0.1-0.8,0.2-1.2c0.3-0.7,0.9-1.3,1.7-1.6c0.4-0.2,0.8-0.2,1.2-0.2c1,0,1.9,0.5,2.5,1.2
							l-0.8,0.6c-0.2-0.2-0.4-0.4-0.7-0.6c-0.3-0.2-0.7-0.2-1-0.2c-0.6,0-1.1,0.2-1.5,0.6c-0.4,0.4-0.6,0.9-0.6,1.5
							c0,0.6,0.2,1.1,0.6,1.5c0.4,0.4,0.9,0.6,1.5,0.6c0.4,0,0.7-0.1,1.1-0.3c0.3-0.2,0.6-0.5,0.8-0.8l0.9,0.5
							c-0.3,0.5-0.7,0.9-1.1,1.1C256.3,191.9,255.7,192,255.2,192"/>
						<path class="st95" d="M262,192c-0.4,0-0.8-0.1-1.2-0.2c-0.4-0.1-0.7-0.4-1-0.7c-0.3-0.3-0.5-0.6-0.7-1
							c-0.2-0.4-0.2-0.8-0.2-1.2c0-0.8,0.3-1.6,0.9-2.2c0.3-0.3,0.6-0.5,1-0.7c0.4-0.2,0.8-0.2,1.2-0.2c0.4,0,0.8,0.1,1.2,0.2
							c0.4,0.1,0.7,0.4,1,0.7c0.6,0.6,0.9,1.4,0.9,2.2c0,0.4-0.1,0.8-0.2,1.2c-0.3,0.7-0.9,1.3-1.7,1.7
							C262.8,191.9,262.4,192,262,192 M262,186.8c-0.6,0-1.1,0.2-1.5,0.6c-0.4,0.4-0.6,0.9-0.6,1.5c0,0.6,0.2,1.1,0.6,1.5
							c0.8,0.8,2.1,0.8,3,0c0,0,0,0,0,0c0.4-0.4,0.6-0.9,0.6-1.5c0-0.6-0.2-1.1-0.6-1.5C263.1,187,262.6,186.7,262,186.8"/>
						<polygon class="st95" points="272.3,185.8 272.3,192.1 267.9,188.1 267.9,191.9 266.8,191.9 266.8,185.5 271.1,189.6 
							271.1,185.8 						"/>
						<polygon class="st95" points="275.2,186.7 275.2,188.3 278.3,188.3 278.3,189.3 275.2,189.3 275.2,190.9 278.7,190.9 
							278.7,191.9 274.1,191.9 274.1,185.8 278.7,185.8 278.7,186.7 275.2,186.7 						"/>
					</g>
				</g>
			</g>
		</g>
	</g>
	<path class="st91" d="M249.4,158.2H248l-0.2-1c-0.2-0.1-0.4-0.2-0.6-0.3c-0.2-0.1-0.5-0.1-0.7-0.1c-0.3,0-0.6,0.1-0.9,0.3
		c-0.2,0.1-0.3,0.4-0.3,0.6c0,0.2,0.1,0.5,0.3,0.6c0.4,0.2,0.8,0.4,1.3,0.4c0.8,0.1,1.5,0.4,2.2,0.9c0.5,0.4,0.7,1,0.7,1.6
		c0,0.7-0.3,1.4-0.9,1.8c-0.7,0.5-1.6,0.7-2.4,0.7c-0.6,0-1.2-0.1-1.7-0.3c-0.5-0.2-1-0.4-1.4-0.8v-1.8h1.5l0.3,1
		c0.2,0.1,0.3,0.2,0.5,0.2c0.2,0,0.5,0.1,0.7,0.1c0.3,0,0.7-0.1,1-0.2c0.2-0.1,0.3-0.4,0.3-0.6c0-0.3-0.1-0.5-0.3-0.6
		c-0.4-0.2-0.8-0.4-1.3-0.4c-0.8-0.1-1.5-0.4-2.1-0.9c-0.5-0.4-0.7-0.9-0.7-1.5c0-0.7,0.3-1.3,0.8-1.7c0.7-0.5,1.5-0.8,2.4-0.7
		c0.6,0,1.2,0.1,1.8,0.2c0.5,0.1,0.9,0.3,1.3,0.6L249.4,158.2z"/>
	<path class="st91" d="M254.5,163.6c-1,0-2-0.4-2.8-1.1c-0.7-0.8-1-1.8-1-2.8v-0.3c0-1.1,0.3-2.1,1-2.9c1.4-1.5,3.7-1.5,5.1-0.2
		c0.6,0.7,0.9,1.7,0.9,2.6v1.2H253v0.1c0,0.5,0.2,0.9,0.5,1.3c0.3,0.3,0.8,0.5,1.3,0.5c0.4,0,0.8,0,1.2-0.1c0.3-0.1,0.7-0.3,1-0.4
		l0.6,1.3c-0.4,0.3-0.8,0.5-1.3,0.6C255.7,163.6,255.1,163.7,254.5,163.6z M254.3,157c-0.4,0-0.7,0.2-0.9,0.5
		c-0.3,0.4-0.4,0.8-0.4,1.2l0,0h2.6v-0.2c0-0.4-0.1-0.8-0.3-1.1C255,157.1,254.6,157,254.3,157L254.3,157z"/>
	<path class="st91" d="M258.9,162.2l1-0.2v-5l-1.1-0.2v-1.3h3.2l0.1,1.2c0.2-0.4,0.4-0.7,0.7-1c0.3-0.2,0.6-0.4,1-0.4h0.4
		c0.1,0,0.2,0,0.3,0.1l-0.2,2h-0.9c-0.3,0-0.5,0.1-0.8,0.2c-0.2,0.1-0.4,0.3-0.5,0.5v3.9l1,0.2v1.3h-4.2L258.9,162.2z"/>
	<path class="st91" d="M268.6,156.8l-0.8,0.1l1.1,3.6l0.1,0.8l0,0l0.2-0.8l1-3.6l-0.8-0.1v-1.3h3.6v1.3l-0.7,0.1l-2.4,6.6h-2
		l-2.4-6.6l-0.7-0.1v-1.3h3.6L268.6,156.8z"/>
	<path class="st91" d="M273.8,162.2l1-0.2v-5l-1.1-0.2v-1.3h3.4v6.5l1,0.2v1.3h-4.2L273.8,162.2z M277,153.6h-2.2V152h2.2L277,153.6
		z"/>
	<path class="st91" d="M282.4,162c0.3,0,0.7-0.1,0.9-0.3c0.2-0.2,0.4-0.6,0.3-0.9h2v0.1c0,0.8-0.3,1.5-0.9,2
		c-1.5,1.2-3.7,1.1-5.1-0.3c-0.7-0.8-1-1.8-1-2.9v-0.2c0-1.1,0.3-2.1,1-2.9c0.7-0.8,1.8-1.2,2.8-1.1c0.6,0,1.2,0.1,1.7,0.3
		c0.5,0.2,0.9,0.4,1.3,0.8v2.1h-1.8l-0.4-1.2c-0.1-0.1-0.2-0.2-0.4-0.2c-0.2-0.1-0.4-0.1-0.5-0.1c-0.5,0-1,0.2-1.3,0.7
		c-0.3,0.5-0.4,1.1-0.4,1.7v0.2c0,0.6,0.1,1.2,0.4,1.7C281.4,161.8,281.9,162.1,282.4,162z"/>
	<path class="st91" d="M290.5,163.6c-1,0-2-0.4-2.8-1.1c-0.7-0.8-1-1.8-1-2.8v-0.3c0-1.1,0.3-2.1,1-2.9c1.4-1.5,3.7-1.5,5.1-0.2
		c0.6,0.7,0.9,1.7,0.9,2.6v1.2H289v0.1c0,0.5,0.2,0.9,0.5,1.3c0.3,0.3,0.8,0.5,1.3,0.5c0.4,0,0.8,0,1.2-0.1c0.3-0.1,0.7-0.3,1-0.4
		l0.6,1.3c-0.4,0.3-0.8,0.5-1.3,0.6C291.7,163.6,291.1,163.7,290.5,163.6z M290.3,157c-0.4,0-0.7,0.2-0.9,0.5
		c-0.3,0.4-0.4,0.8-0.4,1.2l0,0h2.6v-0.2c0-0.4-0.1-0.8-0.3-1.1C291,157.1,290.6,157,290.3,157L290.3,157z"/>
	<path class="st3" d="M313.4,175.6h-90.3c-1.9,0-3.5-1.6-3.5-3.5v-24.8c0-1.9,1.6-3.5,3.5-3.5h90.3c1.9,0,3.5,1.6,3.5,3.5v24.8
		C317,174,315.4,175.6,313.4,175.6z M223.1,146.8c-0.3,0-0.5,0.2-0.5,0.5v24.8c0,0.3,0.2,0.5,0.5,0.5h90.3c0.3,0,0.5-0.2,0.5-0.5
		l0,0v-24.8c0-0.3-0.2-0.5-0.5-0.5c0,0,0,0,0,0H223.1z"/>
	<path class="st5" d="M301.5,186.9h-9c-0.6-2.2-2.8-3.6-5-3c-2.2,0.6-3.6,2.8-3,5c0.6,2.2,2.8,3.6,5,3c1.5-0.4,2.7-1.5,3-3h2.6
		l1.2,1.2l1.2-1.2h0.2l0.8,0.8l0.7-0.7l1.1,1.1l1.3-1.3l1-0.9L301.5,186.9z M286.9,189c-0.6,0-1.1-0.5-1.1-1.1
		c0-0.6,0.5-1.1,1.1-1.1s1.1,0.5,1.1,1.1S287.5,189,286.9,189L286.9,189z"/>
</g>
</svg>
