<svg xmlns="http://www.w3.org/2000/svg" xmlns:xlink="http://www.w3.org/1999/xlink" viewBox="0 0 546.89 235"><defs><style>.cls-1,.cls-6{fill:none;}.cls-2{fill:#eee;}.cls-3{fill:url(#Unbenannter_Verlauf_12);}.cls-4,.cls-5{fill:#39f;}.cls-4{opacity:0.4;}.cls-6{stroke:#39f;stroke-linecap:round;stroke-linejoin:round;stroke-width:4px;}.cls-7{fill:#fc0;}.cls-8{clip-path:url(#clip-path);}.cls-9{fill:#981869;}.cls-10{fill:#961869;}.cls-11{fill:#941869;}.cls-12{fill:#921968;}.cls-13{fill:#911968;}.cls-14{fill:#8f1968;}.cls-15{fill:#8d1968;}.cls-16{fill:#8b1a68;}.cls-17{fill:#891a67;}.cls-18{fill:#881a67;}.cls-19{fill:#861a67;}.cls-20{fill:#841a67;}.cls-21{fill:#831b67;}.cls-22{fill:#811b67;}.cls-23{fill:#7f1b66;}.cls-24{fill:#7e1b66;}.cls-25{fill:#7c1b66;}.cls-26{fill:#7a1b66;}.cls-27{fill:#791c66;}.cls-28{fill:#771c65;}.cls-29{fill:#761c65;}.cls-30{fill:#741c65;}.cls-31{fill:#721c65;}.cls-32{fill:#711d65;}.cls-33{fill:#6f1d65;}.cls-34{fill:#6e1d64;}.cls-35{fill:#6d1d64;}.cls-36{fill:#6b1d64;}.cls-37{fill:#6a1d64;}.cls-38{fill:#681e64;}.cls-39{fill:#671e64;}.cls-40{fill:#651e64;}.cls-41{fill:#641e63;}.cls-42{fill:#631e63;}.cls-43{fill:#611e63;}.cls-44{fill:#601f63;}.cls-45{fill:#5f1f63;}.cls-46{fill:#5e1f63;}.cls-47{fill:#5c1f63;}.cls-48{fill:#5b1f62;}.cls-49{fill:#5a1f62;}.cls-50{fill:#591f62;}.cls-51{fill:#572062;}.cls-52{fill:#562062;}.cls-53{fill:#552062;}.cls-54{fill:#542062;}.cls-55{fill:#532062;}.cls-56{fill:#522061;}.cls-57{fill:#512061;}.cls-58{fill:#502161;}.cls-59{fill:#4e2161;}.cls-60{fill:#4d2161;}.cls-61{fill:#4c2161;}.cls-62{fill:#4b2161;}.cls-63{fill:#4a2161;}.cls-64{fill:#492161;}.cls-65{fill:#492160;}.cls-66{fill:#482160;}.cls-67{fill:#472260;}.cls-68{fill:#462260;}.cls-69{fill:#452260;}.cls-70{fill:#442260;}.cls-71{fill:#432260;}.cls-72{fill:#422260;}.cls-73{fill:#412260;}.cls-74{fill:#402260;}.cls-75{fill:#3f225f;}.cls-76{fill:#3f235f;}.cls-77{fill:#3e235f;}.cls-78{fill:#3d235f;}.cls-79{fill:#3c235f;}.cls-80{fill:#3b235f;}.cls-81{fill:#3a235f;}.cls-82{fill:#39235f;}.cls-83{fill:#38235f;}.cls-84{fill:#37235f;}.cls-85{fill:#37235e;}.cls-86{fill:#36245e;}.cls-87{fill:#35245e;}.cls-88{fill:#34245e;}.cls-89{fill:#33245e;}.cls-90{fill:#32245e;}.cls-91{clip-path:url(#clip-path-2);}.cls-92{clip-path:url(#clip-path-3);}.cls-93{fill:#fff;}.cls-94{clip-path:url(#clip-path-4);}.cls-95{fill:#ffd138;}.cls-96{fill:#fdfeff;}.cls-97{clip-path:url(#clip-path-6);}.cls-98{clip-path:url(#clip-path-7);}.cls-99{clip-path:url(#clip-path-9);}.cls-100{clip-path:url(#clip-path-10);}</style><linearGradient id="Unbenannter_Verlauf_12" y1="117.7" x2="546.89" y2="117.7" gradientUnits="userSpaceOnUse"><stop offset="0" stop-color="#981869"/><stop offset="0.19" stop-color="#771c65"/><stop offset="0.4" stop-color="#591f62"/><stop offset="0.61" stop-color="#432260"/><stop offset="0.81" stop-color="#36235e"/><stop offset="1" stop-color="#32245e"/></linearGradient><clipPath id="clip-path"><polyline class="cls-1" points="211.96 75.91 348.6 75.91 348.6 84.48 211.96 84.48"/></clipPath><clipPath id="clip-path-2"><polyline class="cls-1" points="315.89 142.2 365.82 114.31 371.37 123.61 321.44 151.51"/></clipPath><clipPath id="clip-path-3"><polygon class="cls-1" points="210.37 110.87 210.37 47.44 155.44 15.73 100.52 47.44 100.52 110.87 155.44 142.58 210.37 110.87"/></clipPath><clipPath id="clip-path-4"><rect class="cls-1" x="123.02" y="103.88" width="43.85" height="8.59"/></clipPath><clipPath id="clip-path-6"><polygon class="cls-1" points="458.79 111.87 458.79 48.45 403.87 16.74 348.94 48.45 348.94 111.87 403.87 143.59 458.79 111.87"/></clipPath><clipPath id="clip-path-7"><rect class="cls-1" x="372.45" y="103.88" width="43.85" height="8.59"/></clipPath><clipPath id="clip-path-9"><polygon class="cls-1" points="322.17 190.52 322.17 127.09 267.24 95.38 212.31 127.09 212.31 190.52 267.24 222.23 322.17 190.52"/></clipPath><clipPath id="clip-path-10"><rect class="cls-1" x="234.82" y="183.53" width="43.85" height="8.59"/></clipPath></defs><g id="Lock"><rect class="cls-2" x="-706.21" y="-1796.98" width="1921.02" height="3438.64"/><rect class="cls-3" y="0.2" width="546.89" height="235" rx="7"/><path class="cls-4" d="M540.49,0H427.4L547.26,119.89V6.81A6.77,6.77,0,0,0,540.49,0Z"/><polygon class="cls-5" points="517.59 38.77 504.68 31.31 504.68 46.22 517.59 38.77"/><circle class="cls-6" cx="509.56" cy="38.68" r="18.77"/><path class="cls-7" d="M263.68,65.39v-1h2.52l.07.84a2.17,2.17,0,0,1,.77-.71,2.2,2.2,0,0,1,1.07-.25,2,2,0,0,1,1.05.27,1.67,1.67,0,0,1,.67.82,2.17,2.17,0,0,1,.76-.8,2.14,2.14,0,0,1,1.11-.29,1.85,1.85,0,0,1,1.49.65,3,3,0,0,1,.55,2v2.66l.83.17v1h-3.3v-1l.75-.17V66.86a1.61,1.61,0,0,0-.24-1,.86.86,0,0,0-.7-.28,1.19,1.19,0,0,0-.64.16,1.24,1.24,0,0,0-.43.45c0,.08,0,.14,0,.2s0,.1,0,.16v3l.69.17v1h-3.11v-1l.7-.17V66.86a1.61,1.61,0,0,0-.24-1,.87.87,0,0,0-.71-.29,1.33,1.33,0,0,0-.61.13,1.21,1.21,0,0,0-.43.38v3.45l.74.17v1h-3.29v-1l.83-.17v-4Z"/><path class="cls-7" d="M282.66,62.14v2.29h-1.32l-.08-1h-1.58v6.06l.92.17v1H277v-1l.92-.17V63.47h-1.58l-.07,1H275V62.14Z"/><path class="cls-7" d="M283.22,70.74v-1l.91-.17V63.35l-.91-.17v-1h3.56v1l-.92.17v6.06h2.43l.08-1.08h1.32v2.41Z"/><path class="cls-7" d="M296.84,64.88h-1.3l-.22-1.18a2.44,2.44,0,0,0-.66-.24,3.34,3.34,0,0,0-.91-.11,1.78,1.78,0,0,0-1.1.3.91.91,0,0,0-.38.77.85.85,0,0,0,.4.72,6,6,0,0,0,1.4.59,5.44,5.44,0,0,1,2.16,1,2.19,2.19,0,0,1,.73,1.71,2,2,0,0,1-.87,1.74,3.81,3.81,0,0,1-2.31.64,5.11,5.11,0,0,1-1.84-.32,3.8,3.8,0,0,1-1.37-.9v-1.8h1.33l.18,1.23a2.35,2.35,0,0,0,.71.35,3.43,3.43,0,0,0,1,.14,1.72,1.72,0,0,0,1.08-.29.93.93,0,0,0,.37-.78,1,1,0,0,0-.35-.79,3.54,3.54,0,0,0-1.23-.57,7.33,7.33,0,0,1-2.32-1,2,2,0,0,1-.78-1.67,2.06,2.06,0,0,1,.88-1.71,3.72,3.72,0,0,1,2.23-.68,5.25,5.25,0,0,1,1.81.3,4.27,4.27,0,0,1,1.37.8Z"/><path class="cls-7" d="M349.71,144.62v-1h2.52l.08.84a2.09,2.09,0,0,1,.77-.71,2.17,2.17,0,0,1,1.07-.25,2,2,0,0,1,1.05.27,1.66,1.66,0,0,1,.66.82,2.19,2.19,0,0,1,.77-.8,2.08,2.08,0,0,1,1.11-.29,1.85,1.85,0,0,1,1.49.65,3.09,3.09,0,0,1,.55,2v2.66l.83.17v1h-3.3v-1l.74-.17v-2.67a1.68,1.68,0,0,0-.23-1,.88.88,0,0,0-.71-.28,1.18,1.18,0,0,0-.63.16,1.24,1.24,0,0,0-.43.45,1.21,1.21,0,0,0,0,.2v3.15l.7.17v1h-3.11v-1l.69-.17v-2.67a1.69,1.69,0,0,0-.23-1,.88.88,0,0,0-.71-.29,1.31,1.31,0,0,0-.61.13,1.24,1.24,0,0,0-.44.38v3.45l.75.17v1h-3.3v-1l.83-.17v-4Z"/><path class="cls-7" d="M368.69,141.37v2.29h-1.32l-.07-1h-1.58v6.06l.92.17v1h-3.57v-1l.92-.17V142.7h-1.57l-.08,1H361v-2.29Z"/><path class="cls-7" d="M369.25,150v-1l.92-.17v-6.18l-.92-.17v-1h3.56v1l-.92.17v6.06h2.43l.08-1.08h1.32V150Z"/><path class="cls-7" d="M382.87,144.11h-1.29l-.23-1.18a2.35,2.35,0,0,0-.65-.24,3.41,3.41,0,0,0-.92-.11,1.74,1.74,0,0,0-1.09.3.92.92,0,0,0-.39.77.86.86,0,0,0,.41.72,5.91,5.91,0,0,0,1.39.59,5.44,5.44,0,0,1,2.16,1,2.2,2.2,0,0,1,.74,1.71,2,2,0,0,1-.88,1.74,3.78,3.78,0,0,1-2.3.64,5.17,5.17,0,0,1-1.85-.32,3.89,3.89,0,0,1-1.37-.9v-1.8h1.33l.19,1.23a2.28,2.28,0,0,0,.7.35,3.45,3.45,0,0,0,1,.14,1.76,1.76,0,0,0,1.08-.29,1,1,0,0,0,.37-.78,1,1,0,0,0-.36-.79,3.36,3.36,0,0,0-1.23-.57,7.15,7.15,0,0,1-2.31-1.05,2,2,0,0,1-.79-1.67,2.06,2.06,0,0,1,.89-1.71,3.69,3.69,0,0,1,2.22-.68,5.17,5.17,0,0,1,1.81.3,4.27,4.27,0,0,1,1.37.8Z"/><g class="cls-8"><rect class="cls-9" x="211.96" y="75.91" width="1.34" height="8.57"/><rect class="cls-10" x="213.3" y="75.91" width="1.34" height="8.57"/><rect class="cls-11" x="214.64" y="75.91" width="1.34" height="8.57"/><rect class="cls-12" x="215.98" y="75.91" width="1.34" height="8.57"/><rect class="cls-13" x="217.32" y="75.91" width="1.34" height="8.57"/><rect class="cls-14" x="218.66" y="75.91" width="1.34" height="8.57"/><rect class="cls-15" x="220" y="75.91" width="1.34" height="8.57"/><rect class="cls-16" x="221.34" y="75.91" width="1.34" height="8.57"/><rect class="cls-17" x="222.68" y="75.91" width="1.34" height="8.57"/><rect class="cls-18" x="224.02" y="75.91" width="1.34" height="8.57"/><rect class="cls-19" x="225.36" y="75.91" width="1.34" height="8.57"/><rect class="cls-20" x="226.7" y="75.91" width="1.34" height="8.57"/><rect class="cls-21" x="228.04" y="75.91" width="1.34" height="8.57"/><rect class="cls-22" x="229.38" y="75.91" width="1.34" height="8.57"/><rect class="cls-23" x="230.71" y="75.91" width="1.34" height="8.57"/><rect class="cls-24" x="232.05" y="75.91" width="1.34" height="8.57"/><rect class="cls-25" x="233.39" y="75.91" width="1.34" height="8.57"/><rect class="cls-26" x="234.73" y="75.91" width="1.34" height="8.57"/><rect class="cls-27" x="236.07" y="75.91" width="1.34" height="8.57"/><rect class="cls-28" x="237.41" y="75.91" width="1.34" height="8.57"/><rect class="cls-29" x="238.75" y="75.91" width="1.34" height="8.57"/><rect class="cls-30" x="240.09" y="75.91" width="1.34" height="8.57"/><rect class="cls-31" x="241.43" y="75.91" width="1.34" height="8.57"/><rect class="cls-32" x="242.77" y="75.91" width="1.34" height="8.57"/><rect class="cls-33" x="244.11" y="75.91" width="1.34" height="8.57"/><rect class="cls-34" x="245.45" y="75.91" width="1.34" height="8.57"/><rect class="cls-35" x="246.79" y="75.91" width="1.34" height="8.57"/><rect class="cls-36" x="248.13" y="75.91" width="1.34" height="8.57"/><rect class="cls-37" x="249.47" y="75.91" width="1.34" height="8.57"/><rect class="cls-38" x="250.81" y="75.91" width="1.34" height="8.57"/><rect class="cls-39" x="252.15" y="75.91" width="1.34" height="8.57"/><rect class="cls-40" x="253.49" y="75.91" width="1.34" height="8.57"/><rect class="cls-41" x="254.83" y="75.91" width="1.34" height="8.57"/><rect class="cls-42" x="256.17" y="75.91" width="1.34" height="8.57"/><rect class="cls-43" x="257.51" y="75.91" width="1.34" height="8.57"/><rect class="cls-44" x="258.85" y="75.91" width="1.34" height="8.57"/><rect class="cls-45" x="260.19" y="75.91" width="1.34" height="8.57"/><rect class="cls-46" x="261.53" y="75.91" width="1.34" height="8.57"/><rect class="cls-47" x="262.86" y="75.91" width="1.34" height="8.57"/><rect class="cls-48" x="264.2" y="75.91" width="1.34" height="8.57"/><rect class="cls-49" x="265.54" y="75.91" width="1.34" height="8.57"/><rect class="cls-50" x="266.88" y="75.91" width="1.34" height="8.57"/><rect class="cls-51" x="268.22" y="75.91" width="1.34" height="8.57"/><rect class="cls-52" x="269.56" y="75.91" width="1.34" height="8.57"/><rect class="cls-53" x="270.9" y="75.91" width="1.34" height="8.57"/><rect class="cls-54" x="272.24" y="75.91" width="1.34" height="8.57"/><rect class="cls-55" x="273.58" y="75.91" width="1.34" height="8.57"/><rect class="cls-56" x="274.92" y="75.91" width="1.34" height="8.57"/><rect class="cls-57" x="276.26" y="75.91" width="1.34" height="8.57"/><rect class="cls-58" x="277.6" y="75.91" width="1.34" height="8.57"/><rect class="cls-59" x="278.94" y="75.91" width="1.34" height="8.57"/><rect class="cls-60" x="280.28" y="75.91" width="1.34" height="8.57"/><rect class="cls-61" x="281.62" y="75.91" width="1.34" height="8.57"/><rect class="cls-62" x="282.96" y="75.91" width="1.34" height="8.57"/><rect class="cls-63" x="284.3" y="75.91" width="1.34" height="8.57"/><rect class="cls-64" x="285.64" y="75.91" width="1.34" height="8.57"/><rect class="cls-65" x="286.98" y="75.91" width="1.34" height="8.57"/><rect class="cls-66" x="288.32" y="75.91" width="1.34" height="8.57"/><rect class="cls-67" x="289.66" y="75.91" width="1.34" height="8.57"/><rect class="cls-68" x="291" y="75.91" width="1.34" height="8.57"/><rect class="cls-69" x="292.34" y="75.91" width="1.34" height="8.57"/><rect class="cls-70" x="293.68" y="75.91" width="1.34" height="8.57"/><rect class="cls-71" x="295.01" y="75.91" width="1.34" height="8.57"/><rect class="cls-72" x="296.35" y="75.91" width="1.34" height="8.57"/><rect class="cls-72" x="297.69" y="75.91" width="1.34" height="8.57"/><rect class="cls-73" x="299.03" y="75.91" width="1.34" height="8.57"/><rect class="cls-74" x="300.37" y="75.91" width="1.34" height="8.57"/><rect class="cls-75" x="301.71" y="75.91" width="1.34" height="8.57"/><rect class="cls-76" x="303.05" y="75.91" width="1.34" height="8.57"/><rect class="cls-77" x="304.39" y="75.91" width="1.34" height="8.57"/><rect class="cls-78" x="305.73" y="75.91" width="1.34" height="8.57"/><rect class="cls-78" x="307.07" y="75.91" width="1.34" height="8.57"/><rect class="cls-79" x="308.41" y="75.91" width="1.34" height="8.57"/><rect class="cls-80" x="309.75" y="75.91" width="1.34" height="8.57"/><rect class="cls-80" x="311.09" y="75.91" width="1.34" height="8.57"/><rect class="cls-81" x="312.43" y="75.91" width="1.34" height="8.57"/><rect class="cls-81" x="313.77" y="75.91" width="1.34" height="8.57"/><rect class="cls-82" x="315.11" y="75.91" width="1.34" height="8.57"/><rect class="cls-83" x="316.45" y="75.91" width="1.34" height="8.57"/><rect class="cls-83" x="317.79" y="75.91" width="1.34" height="8.57"/><rect class="cls-84" x="319.13" y="75.91" width="1.34" height="8.57"/><rect class="cls-84" x="320.47" y="75.91" width="1.34" height="8.57"/><rect class="cls-85" x="321.81" y="75.91" width="1.34" height="8.57"/><rect class="cls-86" x="323.15" y="75.91" width="1.34" height="8.57"/><rect class="cls-86" x="324.49" y="75.91" width="1.34" height="8.57"/><rect class="cls-87" x="325.82" y="75.91" width="1.34" height="8.57"/><rect class="cls-87" x="327.16" y="75.91" width="1.34" height="8.57"/><rect class="cls-87" x="328.5" y="75.91" width="1.34" height="8.57"/><rect class="cls-88" x="329.84" y="75.91" width="1.34" height="8.57"/><rect class="cls-88" x="331.18" y="75.91" width="1.34" height="8.57"/><rect class="cls-88" x="332.52" y="75.91" width="1.34" height="8.57"/><rect class="cls-89" x="333.86" y="75.91" width="1.34" height="8.57"/><rect class="cls-89" x="335.2" y="75.91" width="1.34" height="8.57"/><rect class="cls-89" x="336.54" y="75.91" width="1.34" height="8.57"/><rect class="cls-89" x="337.88" y="75.91" width="1.34" height="8.57"/><rect class="cls-89" x="339.22" y="75.91" width="1.34" height="8.57"/><rect class="cls-90" x="340.56" y="75.91" width="1.34" height="8.57"/><rect class="cls-90" x="341.9" y="75.91" width="1.34" height="8.57"/><rect class="cls-90" x="343.24" y="75.91" width="1.34" height="8.57"/><rect class="cls-90" x="344.58" y="75.91" width="1.34" height="8.57"/><rect class="cls-90" x="345.92" y="75.91" width="1.34" height="8.57"/><rect class="cls-90" x="347.26" y="75.91" width="1.34" height="8.57"/></g><polygon class="cls-7" points="349.35 85.23 211.96 85.23 211.96 83.72 347.84 83.72 347.84 76.67 211.96 76.67 211.96 75.15 349.35 75.15 349.35 85.23"/><path class="cls-7" d="M339.58,80.44h-.25v-1h.25Zm-3.27,0h-3v-1h3Zm-6.05,0h-3v-1h3Zm-6,0h-3v-1h3Zm-6.05,0h-3v-1h3Zm-6.05,0h-3v-1h3Zm-6,0h-3v-1h3Zm-6.05,0h-3v-1h3Zm-6,0h-3v-1h3Zm-6.05,0h-3v-1h3Zm-6,0h-3v-1h3Zm-6.05,0h-3v-1h3Zm-6,0h-3v-1h3Zm-6,0h-3v-1h3Zm-6.05,0h-3v-1h3Zm-6,0h-3v-1h3Zm-6,0h-3v-1h3Zm-6.05,0h-3v-1h3Zm-6.05,0h-3v-1h3Zm-6,0h-3v-1h3Zm-6,0h-3v-1h3Z"/><polygon class="cls-7" points="336.9 83.24 336.35 82.65 339.27 79.94 336.35 77.23 336.9 76.64 340.45 79.94 336.9 83.24"/><g class="cls-91"><polygon class="cls-9" points="315.89 142.2 321.44 151.51 315.89 151.51 315.89 142.2"/><polygon class="cls-9" points="315.89 141.11 322.1 151.51 321.44 151.51 315.89 142.2 315.89 141.11"/><polygon class="cls-10" points="315.89 140.74 316.22 140.56 322.75 151.51 322.1 151.51 315.89 141.11 315.89 140.74"/><polygon class="cls-11" points="316.22 140.56 316.71 140.29 323.4 151.51 322.75 151.51 316.22 140.56"/><polygon class="cls-12" points="316.71 140.29 317.2 140.01 324.06 151.51 323.4 151.51 316.71 140.29"/><polygon class="cls-13" points="317.2 140.01 317.69 139.74 324.55 151.24 324.06 151.51 324.06 151.51 317.2 140.01"/><polygon class="cls-14" points="317.69 139.74 318.18 139.47 325.03 150.97 324.55 151.24 317.69 139.74"/><polygon class="cls-15" points="318.18 139.47 318.67 139.19 325.52 150.69 325.03 150.97 318.18 139.47"/><polygon class="cls-16" points="318.67 139.19 319.15 138.92 326.01 150.42 325.52 150.69 318.67 139.19"/><polygon class="cls-17" points="319.15 138.92 319.64 138.65 326.5 150.15 326.01 150.42 319.15 138.92"/><polygon class="cls-18" points="319.64 138.65 320.13 138.37 326.99 149.87 326.5 150.15 319.64 138.65"/><polygon class="cls-19" points="320.13 138.37 320.62 138.1 327.48 149.6 326.99 149.87 320.13 138.37"/><polygon class="cls-20" points="320.62 138.1 321.11 137.83 327.97 149.32 327.48 149.6 320.62 138.1"/><polygon class="cls-21" points="321.11 137.83 321.6 137.55 328.46 149.05 327.97 149.32 321.11 137.83"/><polygon class="cls-22" points="321.6 137.55 322.09 137.28 328.95 148.78 328.46 149.05 321.6 137.55"/><polygon class="cls-23" points="322.09 137.28 322.58 137.01 329.44 148.5 328.95 148.78 322.09 137.28"/><polygon class="cls-24" points="322.58 137.01 323.07 136.73 329.93 148.23 329.44 148.5 322.58 137.01"/><polygon class="cls-25" points="323.07 136.73 323.56 136.46 330.42 147.96 329.93 148.23 323.07 136.73"/><polygon class="cls-26" points="323.56 136.46 324.05 136.19 330.91 147.68 330.42 147.96 323.56 136.46"/><polygon class="cls-27" points="324.05 136.19 324.54 135.91 331.4 147.41 330.91 147.68 324.05 136.19"/><polygon class="cls-28" points="324.54 135.91 325.03 135.64 331.89 147.14 331.4 147.41 324.54 135.91"/><polygon class="cls-29" points="325.03 135.64 325.52 135.37 332.38 146.86 331.89 147.14 325.03 135.64"/><polygon class="cls-30" points="325.52 135.37 326.01 135.09 332.87 146.59 332.38 146.86 325.52 135.37"/><polygon class="cls-31" points="326.01 135.09 326.5 134.82 333.36 146.32 332.87 146.59 326.01 135.09"/><polygon class="cls-32" points="326.5 134.82 326.99 134.54 333.84 146.04 333.36 146.32 326.5 134.82"/><polygon class="cls-33" points="326.99 134.54 327.48 134.27 334.33 145.77 333.84 146.04 326.99 134.54"/><polygon class="cls-34" points="327.48 134.27 327.96 134 334.82 145.5 334.33 145.77 327.48 134.27"/><polygon class="cls-35" points="327.96 134 328.45 133.72 335.31 145.22 334.82 145.5 327.96 134"/><polygon class="cls-36" points="328.45 133.72 328.94 133.45 335.8 144.95 335.31 145.22 328.45 133.72"/><polygon class="cls-37" points="328.94 133.45 329.43 133.18 336.29 144.68 335.8 144.95 328.94 133.45"/><polygon class="cls-38" points="329.43 133.18 329.92 132.9 336.78 144.4 336.29 144.68 329.43 133.18"/><polygon class="cls-39" points="329.92 132.9 330.41 132.63 337.27 144.13 336.78 144.4 329.92 132.9"/><polygon class="cls-40" points="330.41 132.63 330.9 132.36 337.76 143.85 337.27 144.13 330.41 132.63"/><polygon class="cls-41" points="330.9 132.36 331.39 132.08 338.25 143.58 337.76 143.85 330.9 132.36"/><polygon class="cls-42" points="331.39 132.08 331.88 131.81 338.74 143.31 338.25 143.58 331.39 132.08"/><polygon class="cls-43" points="331.88 131.81 332.37 131.54 339.23 143.03 338.74 143.31 331.88 131.81"/><polygon class="cls-44" points="332.37 131.54 332.86 131.26 339.72 142.76 339.23 143.03 332.37 131.54"/><polygon class="cls-45" points="332.86 131.26 333.35 130.99 340.21 142.49 339.72 142.76 332.86 131.26"/><polygon class="cls-46" points="333.35 130.99 333.84 130.72 340.7 142.21 340.21 142.49 333.35 130.99"/><polygon class="cls-47" points="333.84 130.72 334.33 130.44 341.19 141.94 340.7 142.21 333.84 130.72"/><polygon class="cls-48" points="334.33 130.44 334.82 130.17 341.68 141.67 341.19 141.94 334.33 130.44"/><polygon class="cls-49" points="334.82 130.17 335.31 129.9 342.17 141.39 341.68 141.67 334.82 130.17"/><polygon class="cls-50" points="335.31 129.9 335.8 129.62 342.65 141.12 342.17 141.39 335.31 129.9"/><polygon class="cls-51" points="335.8 129.62 336.29 129.35 343.14 140.85 342.65 141.12 335.8 129.62"/><polygon class="cls-52" points="336.29 129.35 336.77 129.07 343.63 140.57 343.14 140.85 336.29 129.35"/><polygon class="cls-53" points="336.77 129.07 337.26 128.8 344.12 140.3 343.63 140.57 336.77 129.07"/><polygon class="cls-54" points="337.26 128.8 337.75 128.53 344.61 140.03 344.12 140.3 337.26 128.8"/><polygon class="cls-55" points="337.75 128.53 338.24 128.25 345.1 139.75 344.61 140.03 337.75 128.53"/><polygon class="cls-56" points="338.24 128.25 338.73 127.98 345.59 139.48 345.1 139.75 338.24 128.25"/><polygon class="cls-57" points="338.73 127.98 339.22 127.71 346.08 139.2 345.59 139.48 338.73 127.98"/><polygon class="cls-58" points="339.22 127.71 339.71 127.43 346.57 138.93 346.08 139.2 339.22 127.71"/><polygon class="cls-59" points="339.71 127.43 340.2 127.16 347.06 138.66 346.57 138.93 339.71 127.43"/><polygon class="cls-60" points="340.2 127.16 340.69 126.89 347.55 138.38 347.06 138.66 340.2 127.16"/><polygon class="cls-61" points="340.69 126.89 341.18 126.61 348.04 138.11 347.55 138.38 340.69 126.89"/><polygon class="cls-62" points="341.18 126.61 341.67 126.34 348.53 137.84 348.04 138.11 341.18 126.61"/><polygon class="cls-63" points="341.67 126.34 342.16 126.07 349.02 137.56 348.53 137.84 341.67 126.34"/><polygon class="cls-64" points="342.16 126.07 342.65 125.79 349.51 137.29 349.02 137.56 342.16 126.07"/><polygon class="cls-65" points="342.65 125.79 343.14 125.52 350 137.02 349.51 137.29 342.65 125.79"/><polygon class="cls-66" points="343.14 125.52 343.63 125.25 350.49 136.74 350 137.02 343.14 125.52"/><polygon class="cls-67" points="343.63 125.25 344.12 124.97 350.98 136.47 350.49 136.74 343.63 125.25"/><polygon class="cls-68" points="344.12 124.97 344.61 124.7 351.46 136.2 350.98 136.47 344.12 124.97"/><polygon class="cls-69" points="344.61 124.7 345.1 124.42 351.95 135.92 351.46 136.2 344.61 124.7"/><polygon class="cls-70" points="345.1 124.42 345.58 124.15 352.44 135.65 351.95 135.92 345.1 124.42"/><polygon class="cls-71" points="345.58 124.15 346.07 123.88 352.93 135.38 352.44 135.65 345.58 124.15"/><polygon class="cls-72" points="346.07 123.88 346.56 123.6 353.42 135.1 352.93 135.38 346.07 123.88"/><polygon class="cls-72" points="346.56 123.6 347.05 123.33 353.91 134.83 353.42 135.1 346.56 123.6"/><polygon class="cls-73" points="347.05 123.33 347.54 123.06 354.4 134.56 353.91 134.83 347.05 123.33"/><polygon class="cls-74" points="347.54 123.06 348.03 122.78 354.89 134.28 354.4 134.56 347.54 123.06"/><polygon class="cls-75" points="348.03 122.78 348.52 122.51 355.38 134.01 354.89 134.28 348.03 122.78"/><polygon class="cls-76" points="348.52 122.51 349.01 122.24 355.87 133.73 355.38 134.01 348.52 122.51"/><polygon class="cls-77" points="349.01 122.24 349.5 121.96 356.36 133.46 355.87 133.73 349.01 122.24"/><polygon class="cls-78" points="349.5 121.96 349.99 121.69 356.85 133.19 356.36 133.46 349.5 121.96"/><polygon class="cls-78" points="349.99 121.69 350.48 121.42 357.34 132.91 356.85 133.19 349.99 121.69"/><polygon class="cls-79" points="350.48 121.42 350.97 121.14 357.83 132.64 357.34 132.91 350.48 121.42"/><polygon class="cls-80" points="350.97 121.14 351.46 120.87 358.32 132.37 357.83 132.64 350.97 121.14"/><polygon class="cls-80" points="351.46 120.87 351.95 120.59 358.81 132.09 358.32 132.37 351.46 120.87"/><polygon class="cls-81" points="351.95 120.59 352.44 120.32 359.3 131.82 358.81 132.09 351.95 120.59"/><polygon class="cls-81" points="352.44 120.32 352.93 120.05 359.78 131.55 359.3 131.82 352.44 120.32"/><polygon class="cls-82" points="352.93 120.05 353.42 119.78 360.27 131.27 359.78 131.55 352.93 120.05"/><polygon class="cls-83" points="353.42 119.78 353.9 119.5 360.76 131 360.27 131.27 353.42 119.78"/><polygon class="cls-83" points="353.9 119.5 354.39 119.23 361.25 130.72 360.76 131 353.9 119.5"/><polygon class="cls-84" points="354.39 119.23 354.88 118.95 361.74 130.45 361.25 130.72 354.39 119.23"/><polygon class="cls-84" points="354.88 118.95 355.37 118.68 362.23 130.18 361.74 130.45 354.88 118.95"/><polygon class="cls-85" points="355.37 118.68 355.86 118.41 362.72 129.91 362.23 130.18 355.37 118.68"/><polygon class="cls-86" points="355.86 118.41 356.35 118.13 363.21 129.63 362.72 129.91 355.86 118.41"/><polygon class="cls-86" points="356.35 118.13 356.84 117.86 363.7 129.36 363.21 129.63 356.35 118.13"/><polygon class="cls-87" points="356.84 117.86 357.33 117.59 364.19 129.08 363.7 129.36 356.84 117.86"/><polygon class="cls-87" points="357.33 117.59 357.82 117.31 364.68 128.81 364.19 129.08 357.33 117.59"/><polygon class="cls-87" points="357.82 117.31 358.31 117.04 365.17 128.54 364.68 128.81 357.82 117.31"/><polygon class="cls-88" points="358.31 117.04 358.8 116.77 365.66 128.26 365.17 128.54 358.31 117.04"/><polygon class="cls-88" points="358.8 116.77 359.29 116.49 366.15 127.99 365.66 128.26 358.8 116.77"/><polygon class="cls-88" points="359.29 116.49 359.78 116.22 366.64 127.72 366.15 127.99 359.29 116.49"/><polygon class="cls-89" points="359.78 116.22 360.27 115.94 367.13 127.44 366.64 127.72 359.78 116.22"/><polygon class="cls-89" points="360.27 115.94 360.76 115.67 367.62 127.17 367.13 127.44 360.27 115.94"/><polygon class="cls-89" points="360.76 115.67 361.25 115.4 368.11 126.9 367.62 127.17 360.76 115.67"/><polygon class="cls-89" points="361.25 115.4 361.74 115.13 368.59 126.62 368.11 126.9 361.25 115.4"/><polygon class="cls-89" points="361.74 115.13 362.23 114.85 369.08 126.35 368.59 126.62 361.74 115.13"/><polygon class="cls-90" points="362.23 114.85 362.71 114.58 369.57 126.08 369.08 126.35 362.23 114.85"/><polygon class="cls-90" points="362.71 114.58 363.2 114.31 363.2 114.31 370.06 125.8 369.57 126.08 362.71 114.58"/><polygon class="cls-90" points="363.86 114.31 370.55 125.53 370.06 125.8 363.2 114.31 363.86 114.31"/><polygon class="cls-90" points="364.51 114.31 371.04 125.25 370.55 125.53 363.86 114.31 364.51 114.31"/><polygon class="cls-90" points="365.16 114.31 371.37 124.71 371.37 125.07 371.04 125.25 364.51 114.31 365.16 114.31"/><polygon class="cls-90" points="365.82 114.31 371.37 123.61 371.37 124.71 365.16 114.31 365.82 114.31"/><polygon class="cls-90" points="371.37 123.61 365.82 114.31 371.37 114.31 371.37 123.61"/></g><polygon class="cls-7" points="321.94 152.33 320.95 150.69 370.03 123.27 365.46 115.6 316.38 143.03 315.4 141.38 366.17 113.01 372.7 123.96 321.94 152.33"/><path class="cls-7" d="M269.26,175.94l-.51-.88,2.62-1.51.5.88Zm5.23-3L274,172l2.62-1.51.5.87Zm5.24-3-.5-.87,2.61-1.51.51.87Zm5.24-3-.51-.88,2.62-1.51.5.87Zm5.23-3-.5-.87,2.62-1.51.5.87Zm5.24-3-.5-.87,2.61-1.52.51.88Zm5.24-3-.51-.88,2.62-1.51.51.87Zm5.23-3-.5-.87,2.62-1.51.5.87Zm5.24-3-.5-.87,2.62-1.52.5.88Zm5.24-3-.51-.88,2.62-1.51.51.87Zm5.23-3-.5-.87,2.62-1.51.5.87Zm5.24-3-.5-.87,2.62-1.52.5.88Zm5.24-3-.51-.87,2.62-1.51.51.87Zm5.24-3-.51-.87,2.62-1.51.5.87Zm5.23-3-.5-.88,2.62-1.51.5.88Zm5.24-3-.51-.87,2.62-1.51.51.87Zm5.24-3-.51-.87,2.62-1.51.5.87Zm5.23-3-.5-.88,1.44-.83.51.87Z"/><polygon class="cls-7" points="358.81 127.46 358.04 127.22 359.21 123.42 355.33 122.53 355.51 121.75 360.23 122.83 358.81 127.46"/><g class="cls-92"><rect class="cls-9" x="100.52" y="15.73" width="1.08" height="126.85"/><rect class="cls-10" x="101.59" y="15.73" width="1.08" height="126.85"/><rect class="cls-11" x="102.67" y="15.73" width="1.08" height="126.85"/><rect class="cls-12" x="103.75" y="15.73" width="1.08" height="126.85"/><rect class="cls-13" x="104.83" y="15.73" width="1.08" height="126.85"/><rect class="cls-14" x="105.9" y="15.73" width="1.08" height="126.85"/><rect class="cls-15" x="106.98" y="15.73" width="1.08" height="126.85"/><rect class="cls-16" x="108.06" y="15.73" width="1.08" height="126.85"/><rect class="cls-17" x="109.13" y="15.73" width="1.08" height="126.85"/><rect class="cls-18" x="110.21" y="15.73" width="1.08" height="126.85"/><rect class="cls-19" x="111.29" y="15.73" width="1.08" height="126.85"/><rect class="cls-20" x="112.36" y="15.73" width="1.08" height="126.85"/><rect class="cls-21" x="113.44" y="15.73" width="1.08" height="126.85"/><rect class="cls-22" x="114.52" y="15.73" width="1.08" height="126.85"/><rect class="cls-23" x="115.6" y="15.73" width="1.08" height="126.85"/><rect class="cls-24" x="116.67" y="15.73" width="1.08" height="126.85"/><rect class="cls-25" x="117.75" y="15.73" width="1.08" height="126.85"/><rect class="cls-26" x="118.83" y="15.73" width="1.08" height="126.85"/><rect class="cls-27" x="119.9" y="15.73" width="1.08" height="126.85"/><rect class="cls-28" x="120.98" y="15.73" width="1.08" height="126.85"/><rect class="cls-29" x="122.06" y="15.73" width="1.08" height="126.85"/><rect class="cls-30" x="123.13" y="15.73" width="1.08" height="126.85"/><rect class="cls-31" x="124.21" y="15.73" width="1.08" height="126.85"/><rect class="cls-32" x="125.29" y="15.73" width="1.08" height="126.85"/><rect class="cls-33" x="126.37" y="15.73" width="1.08" height="126.85"/><rect class="cls-34" x="127.44" y="15.73" width="1.08" height="126.85"/><rect class="cls-35" x="128.52" y="15.73" width="1.08" height="126.85"/><rect class="cls-36" x="129.6" y="15.73" width="1.08" height="126.85"/><rect class="cls-37" x="130.67" y="15.73" width="1.08" height="126.85"/><rect class="cls-38" x="131.75" y="15.73" width="1.08" height="126.85"/><rect class="cls-39" x="132.83" y="15.73" width="1.08" height="126.85"/><rect class="cls-40" x="133.9" y="15.73" width="1.08" height="126.85"/><rect class="cls-41" x="134.98" y="15.73" width="1.08" height="126.85"/><rect class="cls-42" x="136.06" y="15.73" width="1.08" height="126.85"/><rect class="cls-43" x="137.14" y="15.73" width="1.08" height="126.85"/><rect class="cls-44" x="138.21" y="15.73" width="1.08" height="126.85"/><rect class="cls-45" x="139.29" y="15.73" width="1.08" height="126.85"/><rect class="cls-46" x="140.37" y="15.73" width="1.08" height="126.85"/><rect class="cls-47" x="141.44" y="15.73" width="1.08" height="126.85"/><rect class="cls-48" x="142.52" y="15.73" width="1.08" height="126.85"/><rect class="cls-49" x="143.6" y="15.73" width="1.08" height="126.85"/><rect class="cls-50" x="144.67" y="15.73" width="1.08" height="126.85"/><rect class="cls-51" x="145.75" y="15.73" width="1.08" height="126.85"/><rect class="cls-52" x="146.83" y="15.73" width="1.08" height="126.85"/><rect class="cls-53" x="147.91" y="15.73" width="1.08" height="126.85"/><rect class="cls-54" x="148.98" y="15.73" width="1.08" height="126.85"/><rect class="cls-55" x="150.06" y="15.73" width="1.08" height="126.85"/><rect class="cls-56" x="151.14" y="15.73" width="1.08" height="126.85"/><rect class="cls-57" x="152.21" y="15.73" width="1.08" height="126.85"/><rect class="cls-58" x="153.29" y="15.73" width="1.08" height="126.85"/><rect class="cls-59" x="154.37" y="15.73" width="1.08" height="126.85"/><rect class="cls-60" x="155.44" y="15.73" width="1.08" height="126.85"/><rect class="cls-61" x="156.52" y="15.73" width="1.08" height="126.85"/><rect class="cls-62" x="157.6" y="15.73" width="1.08" height="126.85"/><rect class="cls-63" x="158.68" y="15.73" width="1.08" height="126.85"/><rect class="cls-64" x="159.75" y="15.73" width="1.08" height="126.85"/><rect class="cls-65" x="160.83" y="15.73" width="1.08" height="126.85"/><rect class="cls-66" x="161.91" y="15.73" width="1.08" height="126.85"/><rect class="cls-67" x="162.98" y="15.73" width="1.08" height="126.85"/><rect class="cls-68" x="164.06" y="15.73" width="1.08" height="126.85"/><rect class="cls-69" x="165.14" y="15.73" width="1.08" height="126.85"/><rect class="cls-70" x="166.21" y="15.73" width="1.08" height="126.85"/><rect class="cls-71" x="167.29" y="15.73" width="1.08" height="126.85"/><rect class="cls-72" x="168.37" y="15.73" width="1.08" height="126.85"/><rect class="cls-72" x="169.45" y="15.73" width="1.08" height="126.85"/><rect class="cls-73" x="170.52" y="15.73" width="1.08" height="126.85"/><rect class="cls-74" x="171.6" y="15.73" width="1.08" height="126.85"/><rect class="cls-75" x="172.68" y="15.73" width="1.08" height="126.85"/><rect class="cls-76" x="173.75" y="15.73" width="1.08" height="126.85"/><rect class="cls-77" x="174.83" y="15.73" width="1.08" height="126.85"/><rect class="cls-78" x="175.91" y="15.73" width="1.08" height="126.85"/><rect class="cls-78" x="176.98" y="15.73" width="1.08" height="126.85"/><rect class="cls-79" x="178.06" y="15.73" width="1.08" height="126.85"/><rect class="cls-80" x="179.14" y="15.73" width="1.08" height="126.85"/><rect class="cls-80" x="180.22" y="15.73" width="1.08" height="126.85"/><rect class="cls-81" x="181.29" y="15.73" width="1.08" height="126.85"/><rect class="cls-81" x="182.37" y="15.73" width="1.08" height="126.85"/><rect class="cls-82" x="183.45" y="15.73" width="1.08" height="126.85"/><rect class="cls-83" x="184.52" y="15.73" width="1.08" height="126.85"/><rect class="cls-83" x="185.6" y="15.73" width="1.08" height="126.85"/><rect class="cls-84" x="186.68" y="15.73" width="1.08" height="126.85"/><rect class="cls-84" x="187.75" y="15.73" width="1.08" height="126.85"/><rect class="cls-85" x="188.83" y="15.73" width="1.08" height="126.85"/><rect class="cls-86" x="189.91" y="15.73" width="1.08" height="126.85"/><rect class="cls-86" x="190.99" y="15.73" width="1.08" height="126.85"/><rect class="cls-87" x="192.06" y="15.73" width="1.08" height="126.85"/><rect class="cls-87" x="193.14" y="15.73" width="1.08" height="126.85"/><rect class="cls-87" x="194.22" y="15.73" width="1.08" height="126.85"/><rect class="cls-88" x="195.29" y="15.73" width="1.08" height="126.85"/><rect class="cls-88" x="196.37" y="15.73" width="1.08" height="126.85"/><rect class="cls-88" x="197.45" y="15.73" width="1.08" height="126.85"/><rect class="cls-89" x="198.52" y="15.73" width="1.08" height="126.85"/><rect class="cls-89" x="199.6" y="15.73" width="1.08" height="126.85"/><rect class="cls-89" x="200.68" y="15.73" width="1.08" height="126.85"/><rect class="cls-89" x="201.76" y="15.73" width="1.08" height="126.85"/><rect class="cls-89" x="202.83" y="15.73" width="1.08" height="126.85"/><rect class="cls-90" x="203.91" y="15.73" width="1.08" height="126.85"/><rect class="cls-90" x="204.99" y="15.73" width="1.08" height="126.85"/><rect class="cls-90" x="206.06" y="15.73" width="1.08" height="126.85"/><rect class="cls-90" x="207.14" y="15.73" width="1.08" height="126.85"/><rect class="cls-90" x="208.22" y="15.73" width="1.08" height="126.85"/><rect class="cls-90" x="209.29" y="15.73" width="1.08" height="126.85"/></g><path class="cls-7" d="M155.23,145.52a2.68,2.68,0,0,1-1.31-.35l-54.6-31.53A2.6,2.6,0,0,1,98,111.38V48.32a2.62,2.62,0,0,1,1.31-2.26l54.6-31.53a2.66,2.66,0,0,1,2.62,0l54.6,31.53a2.62,2.62,0,0,1,1.31,2.26v50h-2.61v-50L155.23,16.79,100.62,48.32v63.06l54.61,31.53,54.61-31.53v-17h2.61v17a2.62,2.62,0,0,1-1.3,2.26l-54.61,31.53A2.68,2.68,0,0,1,155.23,145.52Z"/><path class="cls-93" d="M147.12,36.09a11.88,11.88,0,1,1-3.56,8.49A11.7,11.7,0,0,1,146,37.39"/><path class="cls-7" d="M155.43,57.46a12.9,12.9,0,0,1-12.88-12.88,12.62,12.62,0,0,1,2.64-7.8,1,1,0,0,1,1-.38,1,1,0,0,1,.26-1,12.88,12.88,0,1,1,9,22.09ZM147,37.09a1,1,0,0,1-.16.92,10.61,10.61,0,0,0-2.22,6.57,10.84,10.84,0,1,0,3.25-7.76A1,1,0,0,1,147,37.09Z"/><path class="cls-7" d="M157.26,51.31h-6.42A1.67,1.67,0,0,1,149,49.48V42.94a1.67,1.67,0,0,1,1.82-1.82h8.55a1.66,1.66,0,0,1,1.79,1.79v6.57a1.66,1.66,0,0,1-1.79,1.79C158.69,51.3,158,51.31,157.26,51.31Zm-6.23-2h5.16c1,0,2,0,3,0V43.13H151Z"/><path class="cls-7" d="M150.72,42.56h-.06a1,1,0,0,1-.94-1.07,5.4,5.4,0,0,1,7.76-4.93A5.15,5.15,0,0,1,160.21,40a6.28,6.28,0,0,1,.15.7,3.51,3.51,0,0,0,.1.53,1,1,0,0,1-.75,1.21,1,1,0,0,1-1.21-.75c-.06-.22-.09-.44-.13-.65a5,5,0,0,0-.11-.53,3.18,3.18,0,0,0-1.66-2.14,3.44,3.44,0,0,0-2.81-.07,3.53,3.53,0,0,0-2.06,3.32A1,1,0,0,1,150.72,42.56Z"/><path class="cls-7" d="M154.42,47.49h0v.88c0,.17.06.23.26.23h.85c.22,0,.29-.06.29-.26V46.71a.37.37,0,0,1,.23-.39,1.21,1.21,0,0,0,.61-1.46,1.55,1.55,0,0,0-1.46-1,1.67,1.67,0,0,0-1.63.88,1.21,1.21,0,0,0,.56,1.53.43.43,0,0,1,.26.49A6,6,0,0,1,154.42,47.49Z"/><g id="Scone_logo_white" data-name="Scone logo white"><g class="cls-94"><g class="cls-94"><path class="cls-95" d="M128.83,106.06h-.91a.36.36,0,0,0-.36.35v.94a.36.36,0,0,0,.36.35h.91a.36.36,0,0,0,.36-.35v-.94a.36.36,0,0,0-.36-.35m-3.19,1.64h.92a.35.35,0,0,0,.35-.35v-.94a.35.35,0,0,0-.35-.35h-.92a.36.36,0,0,0-.36.35v.94a.36.36,0,0,0,.36.35m-1-.35v-.94a.35.35,0,0,0-.35-.35h-.92a.36.36,0,0,0-.36.35v.94a.36.36,0,0,0,.36.35h.92a.35.35,0,0,0,.35-.35m4.26,1a.28.28,0,0,0-.27.27v1.09a.27.27,0,1,0,.53,0v-1.09a.25.25,0,0,0-.26-.27m-2.53.36v.93a.36.36,0,0,0,.35.36h.92a.35.35,0,0,0,.35-.36v-.93a.35.35,0,0,0-.35-.36h-.92a.36.36,0,0,0-.35.36m-.65.93v-.93a.36.36,0,0,0-.36-.36h-.92a.36.36,0,0,0-.35.36v.93a.36.36,0,0,0,.35.36h.92a.36.36,0,0,0,.36-.36m3.1,1h-.91a.36.36,0,0,0-.36.35v.94a.36.36,0,0,0,.36.35h.91a.36.36,0,0,0,.36-.35V111a.36.36,0,0,0-.36-.35m-2.38,0h-.92a.35.35,0,0,0-.35.35v.94a.35.35,0,0,0,.35.35h.92a.35.35,0,0,0,.35-.35V111a.35.35,0,0,0-.35-.35"/><path class="cls-95" d="M130,105.69a2.1,2.1,0,0,0,1.43.44s0,0,0,.07v2.53c0,1-1.19,1.57-1.47,1.73,0,0,0,0,0,0l0-4.73s0,0,0,0"/><path class="cls-95" d="M127.17,105.56c2-.07,2.26-.74,2.26-.74a.12.12,0,0,1,.09,0s.07,0,.09,0,.3.73,2.24.73c.06,0,.07,0,.07.09v3.32c0,1.06-2,2.26-2,2.28a.1.1,0,0,0-.07.07v.83s.12,0,.17,0c.74-.4,2.83-1.55,2.83-3V105c0-.07-.13-.13-.2-.13-2.47,0-2.93-.9-2.93-.9s-.1,0-.16,0-.09,0-.1,0-.41.94-2.86.94c-.09,0-.11,0-.11.11v.53s0,.12.07.12.65,0,.65,0"/><path class="cls-96" d="M134.64,111l1-.38a1.37,1.37,0,0,0,1.29.75,1.45,1.45,0,0,0,.76-.18.61.61,0,0,0,.32-.53c0-.53-.72-.85-1.25-1.06l0,0a4.81,4.81,0,0,1-1.15-.63,1.44,1.44,0,0,1-.56-1.17,1.56,1.56,0,0,1,.58-1.22,2.3,2.3,0,0,1,1.47-.49,2.11,2.11,0,0,1,1.94,1.06l-1,.39a.74.74,0,0,0-.35-.37,1.4,1.4,0,0,0-.56-.13c-.57,0-1,.3-1,.71a.79.79,0,0,0,.39.63,5.21,5.21,0,0,0,.88.46l.13.06c.76.31,1.69.72,1.69,1.74a1.47,1.47,0,0,1-.67,1.26,2.69,2.69,0,0,1-1.61.46,2.37,2.37,0,0,1-2.26-1.34"/><path class="cls-96" d="M143.4,112.31a3.12,3.12,0,0,1-1.21-.25,2.8,2.8,0,0,1-1-.67,2.76,2.76,0,0,1-.67-1,3.17,3.17,0,0,1-.25-1.22,3.12,3.12,0,0,1,.25-1.21,3.16,3.16,0,0,1,1.66-1.66,3.12,3.12,0,0,1,1.21-.25,3,3,0,0,1,1.42.33,3.22,3.22,0,0,1,1.07.9l-.83.62a2.2,2.2,0,0,0-.72-.6,2.25,2.25,0,0,0-1-.23,2,2,0,0,0-1.49.62,2.06,2.06,0,0,0-.62,1.48,2.1,2.1,0,0,0,.62,1.49,2.06,2.06,0,0,0,1.49.62,2.1,2.1,0,0,0,1.06-.3,2.27,2.27,0,0,0,.76-.78l.9.51a3.12,3.12,0,0,1-1.13,1.15,2.87,2.87,0,0,1-1.58.44"/><path class="cls-96" d="M150.24,112.33a3.17,3.17,0,0,1-1.22-.25,2.89,2.89,0,0,1-1-.67,3.21,3.21,0,0,1-.67-1,3.17,3.17,0,0,1-.25-1.22,2.87,2.87,0,0,1,.25-1.22,3.16,3.16,0,0,1,1.66-1.66,3.16,3.16,0,0,1,1.22-.24,3.2,3.2,0,0,1,1.22.24,3,3,0,0,1,1,.67,3.33,3.33,0,0,1,.67,1,3.2,3.2,0,0,1,.24,1.22,3.16,3.16,0,0,1-.24,1.22,3.21,3.21,0,0,1-.67,1,3.33,3.33,0,0,1-1,.67,3.21,3.21,0,0,1-1.22.25m0-5.25a2,2,0,0,0-1.49.62,2.13,2.13,0,0,0-.61,1.48,2.05,2.05,0,0,0,.61,1.49,2.1,2.1,0,0,0,1.49.62,2.07,2.07,0,0,0,1.48-.62,2.1,2.1,0,0,0,.62-1.49,2.13,2.13,0,0,0-.62-1.48,2.1,2.1,0,0,0-1.48-.62"/><polygon class="cls-96" points="160.46 106.11 160.46 112.47 156.08 108.44 156.08 112.22 154.97 112.22 154.97 105.88 159.35 109.93 159.35 106.11 160.46 106.11"/><polygon class="cls-96" points="163.45 107.05 163.45 108.67 166.5 108.67 166.5 109.63 163.45 109.63 163.45 111.27 166.87 111.27 166.87 112.22 162.34 112.22 162.34 106.11 166.87 106.11 166.87 107.06 163.45 107.06 163.45 107.05"/></g></g></g><path class="cls-93" d="M137.6,78.59h-1.45l-.22-1a2,2,0,0,0-.56-.3,2.21,2.21,0,0,0-.74-.12,1.44,1.44,0,0,0-.9.26.76.76,0,0,0-.34.64.73.73,0,0,0,.32.6,3.38,3.38,0,0,0,1.27.42,5.24,5.24,0,0,1,2.2.87,1.91,1.91,0,0,1,.72,1.58,2.11,2.11,0,0,1-.93,1.76,4.05,4.05,0,0,1-2.44.68,5.08,5.08,0,0,1-1.69-.27,4.38,4.38,0,0,1-1.37-.77l0-1.8H133l.3,1a1.26,1.26,0,0,0,.52.25,3.11,3.11,0,0,0,.69.07,1.8,1.8,0,0,0,1-.23.74.74,0,0,0,0-1.26,3.73,3.73,0,0,0-1.28-.46,5.05,5.05,0,0,1-2.13-.85,1.86,1.86,0,0,1-.72-1.54,2.24,2.24,0,0,1,.83-1.73,3.49,3.49,0,0,1,2.36-.73,6.34,6.34,0,0,1,1.76.25,3.85,3.85,0,0,1,1.3.65Z"/><path class="cls-93" d="M142.69,84a3.59,3.59,0,0,1-2.76-1.11,4,4,0,0,1-1-2.81v-.3a4.39,4.39,0,0,1,1-2.93,3.66,3.66,0,0,1,5.14-.17,3.78,3.78,0,0,1,.89,2.64v1.17h-4.77l0,0a2.12,2.12,0,0,0,.53,1.3,1.65,1.65,0,0,0,1.28.51,3.94,3.94,0,0,0,1.18-.15,5.54,5.54,0,0,0,1-.45l.58,1.33a4.14,4.14,0,0,1-1.28.65A5.36,5.36,0,0,1,142.69,84Zm-.19-6.63a1.12,1.12,0,0,0-.95.46,2.41,2.41,0,0,0-.43,1.2l0,0h2.65v-.19a1.75,1.75,0,0,0-.32-1.1A1.18,1.18,0,0,0,142.5,77.36Z"/><path class="cls-93" d="M147.08,82.54l1-.22V77.37L147,77.15v-1.3h3.15l.1,1.16a2.39,2.39,0,0,1,.72-1,1.59,1.59,0,0,1,1-.35l.35,0a1.94,1.94,0,0,1,.32.07l-.23,2-.89,0a1.55,1.55,0,0,0-.78.18,1.21,1.21,0,0,0-.47.53v3.88l1,.22v1.29h-4.22Z"/><path class="cls-93" d="M156.8,77.15l-.75.14,1,3.57.14.75h0l.15-.75,1-3.57-.76-.14v-1.3h3.62v1.3l-.69.11-2.36,6.57h-2.06l-2.36-6.57-.69-.11v-1.3h3.62Z"/><path class="cls-93" d="M162,82.54l1-.22V77.37l-1.15-.22v-1.3h3.31v6.47l1,.22v1.29H162Zm3.2-8.61H163V72.32h2.16Z"/><path class="cls-93" d="M170.65,82.34a1.29,1.29,0,0,0,.92-.34,1.19,1.19,0,0,0,.35-.9h2l0,.05a2.47,2.47,0,0,1-.91,2,3.38,3.38,0,0,1-2.33.82,3.42,3.42,0,0,1-2.75-1.13,4.27,4.27,0,0,1-1-2.9v-.22a4.23,4.23,0,0,1,1-2.9,3.56,3.56,0,0,1,2.83-1.14,5,5,0,0,1,1.74.29,3.38,3.38,0,0,1,1.27.81l0,2.13H172l-.35-1.25a1.4,1.4,0,0,0-.4-.23,1.53,1.53,0,0,0-.54-.09,1.36,1.36,0,0,0-1.29.66,3.5,3.5,0,0,0-.38,1.72V80a3.67,3.67,0,0,0,.35,1.72A1.26,1.26,0,0,0,170.65,82.34Z"/><path class="cls-93" d="M178.69,84a3.59,3.59,0,0,1-2.76-1.11,4,4,0,0,1-1-2.81v-.3a4.39,4.39,0,0,1,1-2.93,3.66,3.66,0,0,1,5.14-.17,3.78,3.78,0,0,1,.89,2.64v1.17h-4.77v0a2.06,2.06,0,0,0,.52,1.3,1.66,1.66,0,0,0,1.28.51,3.94,3.94,0,0,0,1.18-.15,5.54,5.54,0,0,0,1-.45l.58,1.33a4.14,4.14,0,0,1-1.28.65A5.36,5.36,0,0,1,178.69,84Zm-.19-6.63a1.12,1.12,0,0,0-.95.46,2.41,2.41,0,0,0-.43,1.2l0,0h2.65v-.19a1.75,1.75,0,0,0-.32-1.1A1.18,1.18,0,0,0,178.5,77.36Z"/><path class="cls-5" d="M201.64,96H111.33a3.53,3.53,0,0,1-3.53-3.53V67.6a3.54,3.54,0,0,1,3.53-3.53h90.31a3.53,3.53,0,0,1,3.52,3.53V92.42A3.53,3.53,0,0,1,201.64,96ZM111.33,67.1a.5.5,0,0,0-.51.5V92.42a.51.51,0,0,0,.51.51h90.31a.51.51,0,0,0,.5-.51V67.6a.5.5,0,0,0-.5-.5Z"/><path class="cls-7" d="M189.75,107.27h-9a4.18,4.18,0,1,0,0,2h2.62l1.21,1.2,1.2-1.2h.15l.76.76.71-.7,1.15,1.14,1.28-1.28,1-.88Zm-14.65,2.11a1.1,1.1,0,1,1,1.1-1.1A1.1,1.1,0,0,1,175.1,109.38Z"/><g class="cls-97"><rect class="cls-9" x="348.94" y="16.74" width="1.08" height="126.85"/><rect class="cls-10" x="350.02" y="16.74" width="1.08" height="126.85"/><rect class="cls-11" x="351.09" y="16.74" width="1.08" height="126.85"/><rect class="cls-12" x="352.17" y="16.74" width="1.08" height="126.85"/><rect class="cls-13" x="353.25" y="16.74" width="1.08" height="126.85"/><rect class="cls-14" x="354.32" y="16.74" width="1.08" height="126.85"/><rect class="cls-15" x="355.4" y="16.74" width="1.08" height="126.85"/><rect class="cls-16" x="356.48" y="16.74" width="1.08" height="126.85"/><rect class="cls-17" x="357.56" y="16.74" width="1.08" height="126.85"/><rect class="cls-18" x="358.63" y="16.74" width="1.08" height="126.85"/><rect class="cls-19" x="359.71" y="16.74" width="1.08" height="126.85"/><rect class="cls-20" x="360.79" y="16.74" width="1.08" height="126.85"/><rect class="cls-21" x="361.86" y="16.74" width="1.08" height="126.85"/><rect class="cls-22" x="362.94" y="16.74" width="1.08" height="126.85"/><rect class="cls-23" x="364.02" y="16.74" width="1.08" height="126.85"/><rect class="cls-24" x="365.09" y="16.74" width="1.08" height="126.85"/><rect class="cls-25" x="366.17" y="16.74" width="1.08" height="126.85"/><rect class="cls-26" x="367.25" y="16.74" width="1.08" height="126.85"/><rect class="cls-27" x="368.33" y="16.74" width="1.08" height="126.85"/><rect class="cls-28" x="369.4" y="16.74" width="1.08" height="126.85"/><rect class="cls-29" x="370.48" y="16.74" width="1.08" height="126.85"/><rect class="cls-30" x="371.56" y="16.74" width="1.08" height="126.85"/><rect class="cls-31" x="372.63" y="16.74" width="1.08" height="126.85"/><rect class="cls-32" x="373.71" y="16.74" width="1.08" height="126.85"/><rect class="cls-33" x="374.79" y="16.74" width="1.08" height="126.85"/><rect class="cls-34" x="375.86" y="16.74" width="1.08" height="126.85"/><rect class="cls-35" x="376.94" y="16.74" width="1.08" height="126.85"/><rect class="cls-36" x="378.02" y="16.74" width="1.08" height="126.85"/><rect class="cls-37" x="379.1" y="16.74" width="1.08" height="126.85"/><rect class="cls-38" x="380.17" y="16.74" width="1.08" height="126.85"/><rect class="cls-39" x="381.25" y="16.74" width="1.08" height="126.85"/><rect class="cls-40" x="382.33" y="16.74" width="1.08" height="126.85"/><rect class="cls-41" x="383.4" y="16.74" width="1.08" height="126.85"/><rect class="cls-42" x="384.48" y="16.74" width="1.08" height="126.85"/><rect class="cls-43" x="385.56" y="16.74" width="1.08" height="126.85"/><rect class="cls-44" x="386.63" y="16.74" width="1.08" height="126.85"/><rect class="cls-45" x="387.71" y="16.74" width="1.08" height="126.85"/><rect class="cls-46" x="388.79" y="16.74" width="1.08" height="126.85"/><rect class="cls-47" x="389.87" y="16.74" width="1.08" height="126.85"/><rect class="cls-48" x="390.94" y="16.74" width="1.08" height="126.85"/><rect class="cls-49" x="392.02" y="16.74" width="1.08" height="126.85"/><rect class="cls-50" x="393.1" y="16.74" width="1.08" height="126.85"/><rect class="cls-51" x="394.17" y="16.74" width="1.08" height="126.85"/><rect class="cls-52" x="395.25" y="16.74" width="1.08" height="126.85"/><rect class="cls-53" x="396.33" y="16.74" width="1.08" height="126.85"/><rect class="cls-54" x="397.4" y="16.74" width="1.08" height="126.85"/><rect class="cls-55" x="398.48" y="16.74" width="1.08" height="126.85"/><rect class="cls-56" x="399.56" y="16.74" width="1.08" height="126.85"/><rect class="cls-57" x="400.64" y="16.74" width="1.08" height="126.85"/><rect class="cls-58" x="401.71" y="16.74" width="1.08" height="126.85"/><rect class="cls-59" x="402.79" y="16.74" width="1.08" height="126.85"/><rect class="cls-60" x="403.87" y="16.74" width="1.08" height="126.85"/><rect class="cls-61" x="404.94" y="16.74" width="1.08" height="126.85"/><rect class="cls-62" x="406.02" y="16.74" width="1.08" height="126.85"/><rect class="cls-63" x="407.1" y="16.74" width="1.08" height="126.85"/><rect class="cls-64" x="408.17" y="16.74" width="1.08" height="126.85"/><rect class="cls-65" x="409.25" y="16.74" width="1.08" height="126.85"/><rect class="cls-66" x="410.33" y="16.74" width="1.08" height="126.85"/><rect class="cls-67" x="411.41" y="16.74" width="1.08" height="126.85"/><rect class="cls-68" x="412.48" y="16.74" width="1.08" height="126.85"/><rect class="cls-69" x="413.56" y="16.74" width="1.08" height="126.85"/><rect class="cls-70" x="414.64" y="16.74" width="1.08" height="126.85"/><rect class="cls-71" x="415.71" y="16.74" width="1.08" height="126.85"/><rect class="cls-72" x="416.79" y="16.74" width="1.08" height="126.85"/><rect class="cls-72" x="417.87" y="16.74" width="1.08" height="126.85"/><rect class="cls-73" x="418.94" y="16.74" width="1.08" height="126.85"/><rect class="cls-74" x="420.02" y="16.74" width="1.08" height="126.85"/><rect class="cls-75" x="421.1" y="16.74" width="1.08" height="126.85"/><rect class="cls-76" x="422.18" y="16.74" width="1.08" height="126.85"/><rect class="cls-77" x="423.25" y="16.74" width="1.08" height="126.85"/><rect class="cls-78" x="424.33" y="16.74" width="1.08" height="126.85"/><rect class="cls-78" x="425.41" y="16.74" width="1.08" height="126.85"/><rect class="cls-79" x="426.48" y="16.74" width="1.08" height="126.85"/><rect class="cls-80" x="427.56" y="16.74" width="1.08" height="126.85"/><rect class="cls-80" x="428.64" y="16.74" width="1.08" height="126.85"/><rect class="cls-81" x="429.71" y="16.74" width="1.08" height="126.85"/><rect class="cls-81" x="430.79" y="16.74" width="1.08" height="126.85"/><rect class="cls-82" x="431.87" y="16.74" width="1.08" height="126.85"/><rect class="cls-83" x="432.95" y="16.74" width="1.08" height="126.85"/><rect class="cls-83" x="434.02" y="16.74" width="1.08" height="126.85"/><rect class="cls-84" x="435.1" y="16.74" width="1.08" height="126.85"/><rect class="cls-84" x="436.18" y="16.74" width="1.08" height="126.85"/><rect class="cls-85" x="437.25" y="16.74" width="1.08" height="126.85"/><rect class="cls-86" x="438.33" y="16.74" width="1.08" height="126.85"/><rect class="cls-86" x="439.41" y="16.74" width="1.08" height="126.85"/><rect class="cls-87" x="440.48" y="16.74" width="1.08" height="126.85"/><rect class="cls-87" x="441.56" y="16.74" width="1.08" height="126.85"/><rect class="cls-87" x="442.64" y="16.74" width="1.08" height="126.85"/><rect class="cls-88" x="443.72" y="16.74" width="1.08" height="126.85"/><rect class="cls-88" x="444.79" y="16.74" width="1.08" height="126.85"/><rect class="cls-88" x="445.87" y="16.74" width="1.08" height="126.85"/><rect class="cls-89" x="446.95" y="16.74" width="1.08" height="126.85"/><rect class="cls-89" x="448.02" y="16.74" width="1.08" height="126.85"/><rect class="cls-89" x="449.1" y="16.74" width="1.08" height="126.85"/><rect class="cls-89" x="450.18" y="16.74" width="1.08" height="126.85"/><rect class="cls-89" x="451.25" y="16.74" width="1.08" height="126.85"/><rect class="cls-90" x="452.33" y="16.74" width="1.08" height="126.85"/><rect class="cls-90" x="453.41" y="16.74" width="1.08" height="126.85"/><rect class="cls-90" x="454.49" y="16.74" width="1.08" height="126.85"/><rect class="cls-90" x="455.56" y="16.74" width="1.08" height="126.85"/><rect class="cls-90" x="456.64" y="16.74" width="1.08" height="126.85"/><rect class="cls-90" x="457.72" y="16.74" width="1.08" height="126.85"/></g><path class="cls-7" d="M404.66,145.52a2.68,2.68,0,0,1-1.31-.35l-54.61-31.53a2.62,2.62,0,0,1-1.3-2.26V48.32a2.63,2.63,0,0,1,1.3-2.26l54.61-31.53a2.64,2.64,0,0,1,2.61,0l54.61,31.53a2.62,2.62,0,0,1,1.31,2.26v50h-2.61v-50L404.66,16.79,350.05,48.32v63.06l54.61,31.53,54.61-31.53v-17h2.61v17a2.62,2.62,0,0,1-1.3,2.26L406,145.17A2.61,2.61,0,0,1,404.66,145.52Z"/><path class="cls-93" d="M396.55,36.09A11.88,11.88,0,1,1,393,44.58a11.7,11.7,0,0,1,2.43-7.19"/><path class="cls-7" d="M404.86,57.46A12.9,12.9,0,0,1,392,44.58a12.62,12.62,0,0,1,2.64-7.8,1,1,0,0,1,1-.38,1,1,0,0,1,.26-1,12.88,12.88,0,1,1,9,22.09Zm-8.48-20.37a1,1,0,0,1-.16.92A10.55,10.55,0,0,0,394,44.58a10.84,10.84,0,1,0,3.25-7.76A1,1,0,0,1,396.38,37.09Z"/><path class="cls-7" d="M406.69,51.31h-6.42a1.67,1.67,0,0,1-1.82-1.82V42.94a1.67,1.67,0,0,1,1.82-1.82h8.55a1.66,1.66,0,0,1,1.79,1.79v6.57a1.66,1.66,0,0,1-1.79,1.79C408.12,51.3,407.4,51.31,406.69,51.31Zm-6.23-2h5.16c1,0,2,0,3,0V43.13h-8.14Z"/><path class="cls-7" d="M400.15,42.56h-.06a1,1,0,0,1-.94-1.07,5.39,5.39,0,0,1,7.76-4.93A5.17,5.17,0,0,1,409.64,40c.06.24.11.47.15.7a3.51,3.51,0,0,0,.1.53,1,1,0,0,1-.75,1.21,1,1,0,0,1-1.21-.75,5.34,5.34,0,0,1-.13-.65,5,5,0,0,0-.11-.53A3.18,3.18,0,0,0,406,38.37a3.44,3.44,0,0,0-2.81-.07,3.55,3.55,0,0,0-2.06,3.32A1,1,0,0,1,400.15,42.56Z"/><path class="cls-7" d="M403.85,47.49h0v.88c0,.17.06.23.26.23H405c.23,0,.3-.06.3-.26V46.71a.37.37,0,0,1,.23-.39,1.21,1.21,0,0,0,.61-1.46,1.55,1.55,0,0,0-1.46-1,1.67,1.67,0,0,0-1.63.88,1.21,1.21,0,0,0,.56,1.53.43.43,0,0,1,.26.49A6,6,0,0,1,403.85,47.49Z"/><g id="Scone_logo_white-2" data-name="Scone logo white"><g class="cls-98"><g class="cls-98"><path class="cls-95" d="M378.26,106.06h-.91a.36.36,0,0,0-.36.35v.94a.36.36,0,0,0,.36.35h.91a.36.36,0,0,0,.36-.35v-.94a.36.36,0,0,0-.36-.35m-3.19,1.64H376a.35.35,0,0,0,.35-.35v-.94a.35.35,0,0,0-.35-.35h-.92a.36.36,0,0,0-.36.35v.94a.36.36,0,0,0,.36.35m-1-.35v-.94a.35.35,0,0,0-.35-.35h-.92a.36.36,0,0,0-.36.35v.94a.36.36,0,0,0,.36.35h.92a.35.35,0,0,0,.35-.35m4.25,1a.27.27,0,0,0-.26.27v1.09a.27.27,0,1,0,.53,0v-1.09a.26.26,0,0,0-.27-.27m-2.52.36v.93a.36.36,0,0,0,.35.36h.92a.35.35,0,0,0,.35-.36v-.93a.35.35,0,0,0-.35-.36h-.92a.36.36,0,0,0-.35.36m-.65.93v-.93a.36.36,0,0,0-.36-.36h-.92a.36.36,0,0,0-.35.36v.93a.36.36,0,0,0,.35.36h.92a.36.36,0,0,0,.36-.36m3.1,1h-.91a.36.36,0,0,0-.36.35v.94a.36.36,0,0,0,.36.35h.91a.36.36,0,0,0,.36-.35V111a.36.36,0,0,0-.36-.35m-2.38,0H375a.35.35,0,0,0-.35.35v.94a.35.35,0,0,0,.35.35h.92a.35.35,0,0,0,.35-.35V111a.35.35,0,0,0-.35-.35"/><path class="cls-95" d="M379.38,105.69a2.1,2.1,0,0,0,1.43.44s0,0,0,.07v2.53c0,1-1.18,1.57-1.46,1.73,0,0,0,0,0,0l0-4.73s0,0,0,0"/><path class="cls-95" d="M376.6,105.56c1.95-.07,2.26-.74,2.26-.74a.12.12,0,0,1,.09,0s.07,0,.09,0,.3.73,2.24.73c.06,0,.07,0,.07.09v3.32c0,1.06-2,2.26-2,2.28a.1.1,0,0,0-.07.07v.83s.12,0,.17,0c.74-.4,2.83-1.55,2.83-3V105c0-.07-.13-.13-.2-.13-2.47,0-2.93-.9-2.93-.9s-.1,0-.16,0-.09,0-.1,0-.41.94-2.86.94c-.09,0-.11,0-.11.11v.53s0,.12.07.12.65,0,.65,0"/><path class="cls-96" d="M384.07,111l1-.38a1.37,1.37,0,0,0,1.29.75,1.45,1.45,0,0,0,.76-.18.61.61,0,0,0,.32-.53c0-.53-.72-.85-1.25-1.06l0,0a4.81,4.81,0,0,1-1.15-.63,1.44,1.44,0,0,1-.56-1.17,1.56,1.56,0,0,1,.58-1.22,2.3,2.3,0,0,1,1.47-.49,2.11,2.11,0,0,1,1.94,1.06l-1,.39a.74.74,0,0,0-.35-.37,1.4,1.4,0,0,0-.56-.13c-.57,0-1,.3-1,.71a.79.79,0,0,0,.39.63,5.21,5.21,0,0,0,.88.46l.13.06c.76.31,1.69.72,1.69,1.74a1.47,1.47,0,0,1-.67,1.26,2.69,2.69,0,0,1-1.61.46,2.37,2.37,0,0,1-2.26-1.34"/><path class="cls-96" d="M392.83,112.31a3.12,3.12,0,0,1-1.21-.25,2.8,2.8,0,0,1-1-.67,2.76,2.76,0,0,1-.67-1,3.17,3.17,0,0,1-.25-1.22A3.12,3.12,0,0,1,390,108a3.16,3.16,0,0,1,1.66-1.66,3.12,3.12,0,0,1,1.21-.25,3.05,3.05,0,0,1,1.42.33,3.22,3.22,0,0,1,1.07.9l-.83.62a2.2,2.2,0,0,0-.72-.6,2.25,2.25,0,0,0-.95-.23,2,2,0,0,0-1.49.62,2.06,2.06,0,0,0-.62,1.48,2.1,2.1,0,0,0,.62,1.49,2.06,2.06,0,0,0,1.49.62,2.1,2.1,0,0,0,1.06-.3,2.15,2.15,0,0,0,.75-.78l.91.51a3.12,3.12,0,0,1-1.13,1.15,2.87,2.87,0,0,1-1.58.44"/><path class="cls-96" d="M399.67,112.33a3.17,3.17,0,0,1-1.22-.25,2.89,2.89,0,0,1-1-.67,3.21,3.21,0,0,1-.67-1,3.17,3.17,0,0,1-.25-1.22,2.87,2.87,0,0,1,.25-1.22,3.16,3.16,0,0,1,1.66-1.66,3.16,3.16,0,0,1,1.22-.24,3.2,3.2,0,0,1,1.22.24,3,3,0,0,1,1,.67,3.33,3.33,0,0,1,.67,1,3.2,3.2,0,0,1,.24,1.22,3.16,3.16,0,0,1-.24,1.22,3.21,3.21,0,0,1-.67,1,3.33,3.33,0,0,1-1,.67,3.21,3.21,0,0,1-1.22.25m0-5.25a2,2,0,0,0-1.49.62,2.13,2.13,0,0,0-.61,1.48,2.05,2.05,0,0,0,.61,1.49,2.1,2.1,0,0,0,1.49.62,2.07,2.07,0,0,0,1.48-.62,2.1,2.1,0,0,0,.62-1.49,2.13,2.13,0,0,0-.62-1.48,2.1,2.1,0,0,0-1.48-.62"/><polygon class="cls-96" points="409.89 106.11 409.89 112.47 405.51 108.44 405.51 112.22 404.4 112.22 404.4 105.88 408.78 109.93 408.78 106.11 409.89 106.11"/><polygon class="cls-96" points="412.88 107.05 412.88 108.67 415.93 108.67 415.93 109.63 412.88 109.63 412.88 111.27 416.3 111.27 416.3 112.22 411.76 112.22 411.76 106.11 416.3 106.11 416.3 107.06 412.88 107.06 412.88 107.05"/></g></g></g><path class="cls-93" d="M387,78.59h-1.45l-.22-1a2,2,0,0,0-.56-.3,2.21,2.21,0,0,0-.74-.12,1.44,1.44,0,0,0-.9.26.76.76,0,0,0-.34.64.73.73,0,0,0,.32.6,3.38,3.38,0,0,0,1.27.42,5.24,5.24,0,0,1,2.2.87,1.91,1.91,0,0,1,.72,1.58,2.11,2.11,0,0,1-.93,1.76A4.05,4.05,0,0,1,384,84a5.08,5.08,0,0,1-1.69-.27A4.38,4.38,0,0,1,380.9,83l0-1.8h1.51l.3,1a1.26,1.26,0,0,0,.52.25,3.11,3.11,0,0,0,.69.07,1.8,1.8,0,0,0,1-.23.74.74,0,0,0,0-1.26,3.73,3.73,0,0,0-1.28-.46,5.05,5.05,0,0,1-2.13-.85,1.86,1.86,0,0,1-.72-1.54,2.24,2.24,0,0,1,.83-1.73,3.49,3.49,0,0,1,2.36-.73,6.34,6.34,0,0,1,1.76.25,3.85,3.85,0,0,1,1.3.65Z"/><path class="cls-93" d="M392.12,84a3.59,3.59,0,0,1-2.76-1.11,4,4,0,0,1-1-2.81v-.3a4.39,4.39,0,0,1,1-2.93,3.26,3.26,0,0,1,2.63-1.14,3.21,3.21,0,0,1,2.5,1,3.74,3.74,0,0,1,.9,2.64v1.17h-4.77l0,0a2.12,2.12,0,0,0,.53,1.3,1.65,1.65,0,0,0,1.28.51,3.94,3.94,0,0,0,1.18-.15,5.54,5.54,0,0,0,1-.45l.58,1.33a4.14,4.14,0,0,1-1.28.65A5.36,5.36,0,0,1,392.12,84Zm-.19-6.63a1.12,1.12,0,0,0-.95.46,2.41,2.41,0,0,0-.43,1.2l0,0h2.65v-.19a1.75,1.75,0,0,0-.32-1.1A1.18,1.18,0,0,0,391.93,77.36Z"/><path class="cls-93" d="M396.51,82.54l1-.22V77.37l-1.14-.22v-1.3h3.15l.1,1.16a2.39,2.39,0,0,1,.72-1,1.57,1.57,0,0,1,1-.35l.35,0a1.94,1.94,0,0,1,.32.07l-.23,2-.89,0a1.55,1.55,0,0,0-.78.18,1.21,1.21,0,0,0-.47.53v3.88l1,.22v1.29h-4.22Z"/><path class="cls-93" d="M406.23,77.15l-.75.14,1,3.57.14.75h.05l.15-.75,1-3.57-.76-.14v-1.3h3.62v1.3l-.69.11-2.36,6.57h-2.06l-2.36-6.57-.69-.11v-1.3h3.62Z"/><path class="cls-93" d="M411.39,82.54l1-.22V77.37l-1.15-.22v-1.3h3.31v6.47l1,.22v1.29h-4.23Zm3.2-8.61h-2.16V72.32h2.16Z"/><path class="cls-93" d="M420.08,82.34A1.29,1.29,0,0,0,421,82a1.19,1.19,0,0,0,.35-.9h1.95l0,.05a2.47,2.47,0,0,1-.91,2,3.38,3.38,0,0,1-2.33.82,3.42,3.42,0,0,1-2.75-1.13,4.27,4.27,0,0,1-1-2.9v-.22a4.23,4.23,0,0,1,1-2.9,3.56,3.56,0,0,1,2.83-1.14,5,5,0,0,1,1.74.29,3.38,3.38,0,0,1,1.27.81l0,2.13h-1.75l-.35-1.25a1.4,1.4,0,0,0-.4-.23,1.53,1.53,0,0,0-.54-.09,1.36,1.36,0,0,0-1.29.66,3.5,3.5,0,0,0-.38,1.72V80a3.67,3.67,0,0,0,.35,1.72A1.26,1.26,0,0,0,420.08,82.34Z"/><path class="cls-93" d="M428.12,84a3.59,3.59,0,0,1-2.76-1.11,4,4,0,0,1-1-2.81v-.3a4.39,4.39,0,0,1,1-2.93,3.66,3.66,0,0,1,5.14-.17,3.78,3.78,0,0,1,.89,2.64v1.17h-4.77l0,0a2.12,2.12,0,0,0,.53,1.3,1.66,1.66,0,0,0,1.28.51,3.94,3.94,0,0,0,1.18-.15,5.54,5.54,0,0,0,1-.45l.58,1.33a4.14,4.14,0,0,1-1.28.65A5.36,5.36,0,0,1,428.12,84Zm-.19-6.63a1.12,1.12,0,0,0-.95.46,2.41,2.41,0,0,0-.43,1.2l0,0h2.65v-.19a1.75,1.75,0,0,0-.32-1.1A1.18,1.18,0,0,0,427.93,77.36Z"/><path class="cls-5" d="M451.07,96H360.76a3.53,3.53,0,0,1-3.53-3.53V67.6a3.54,3.54,0,0,1,3.53-3.53h90.31a3.53,3.53,0,0,1,3.52,3.53V92.42A3.53,3.53,0,0,1,451.07,96ZM360.76,67.1a.5.5,0,0,0-.51.5V92.42a.51.51,0,0,0,.51.51h90.31a.51.51,0,0,0,.5-.51V67.6a.5.5,0,0,0-.5-.5Z"/><path class="cls-7" d="M439.18,107.27h-9a4.18,4.18,0,1,0,0,2h2.62l1.2,1.2,1.21-1.2h.15l.76.76.71-.7,1.15,1.14,1.28-1.28,1-.88Zm-14.65,2.11a1.1,1.1,0,1,1,1.1-1.1A1.1,1.1,0,0,1,424.53,109.38Z"/><g class="cls-99"><rect class="cls-9" x="212.31" y="95.38" width="1.08" height="126.85"/><rect class="cls-10" x="213.39" y="95.38" width="1.08" height="126.85"/><rect class="cls-11" x="214.47" y="95.38" width="1.08" height="126.85"/><rect class="cls-12" x="215.54" y="95.38" width="1.08" height="126.85"/><rect class="cls-13" x="216.62" y="95.38" width="1.08" height="126.85"/><rect class="cls-14" x="217.7" y="95.38" width="1.08" height="126.85"/><rect class="cls-15" x="218.77" y="95.38" width="1.08" height="126.85"/><rect class="cls-16" x="219.85" y="95.38" width="1.08" height="126.85"/><rect class="cls-17" x="220.93" y="95.38" width="1.08" height="126.85"/><rect class="cls-18" x="222.01" y="95.38" width="1.08" height="126.85"/><rect class="cls-19" x="223.08" y="95.38" width="1.08" height="126.85"/><rect class="cls-20" x="224.16" y="95.38" width="1.08" height="126.85"/><rect class="cls-21" x="225.24" y="95.38" width="1.08" height="126.85"/><rect class="cls-22" x="226.31" y="95.38" width="1.08" height="126.85"/><rect class="cls-23" x="227.39" y="95.38" width="1.08" height="126.85"/><rect class="cls-24" x="228.47" y="95.38" width="1.08" height="126.85"/><rect class="cls-25" x="229.54" y="95.38" width="1.08" height="126.85"/><rect class="cls-26" x="230.62" y="95.38" width="1.08" height="126.85"/><rect class="cls-27" x="231.7" y="95.38" width="1.08" height="126.85"/><rect class="cls-28" x="232.78" y="95.38" width="1.08" height="126.85"/><rect class="cls-29" x="233.85" y="95.38" width="1.08" height="126.85"/><rect class="cls-30" x="234.93" y="95.38" width="1.08" height="126.85"/><rect class="cls-31" x="236.01" y="95.38" width="1.08" height="126.85"/><rect class="cls-32" x="237.08" y="95.38" width="1.08" height="126.85"/><rect class="cls-33" x="238.16" y="95.38" width="1.08" height="126.85"/><rect class="cls-34" x="239.24" y="95.38" width="1.08" height="126.85"/><rect class="cls-35" x="240.31" y="95.38" width="1.08" height="126.85"/><rect class="cls-36" x="241.39" y="95.38" width="1.08" height="126.85"/><rect class="cls-37" x="242.47" y="95.38" width="1.08" height="126.85"/><rect class="cls-38" x="243.55" y="95.38" width="1.08" height="126.85"/><rect class="cls-39" x="244.62" y="95.38" width="1.08" height="126.85"/><rect class="cls-40" x="245.7" y="95.38" width="1.08" height="126.85"/><rect class="cls-41" x="246.78" y="95.38" width="1.08" height="126.85"/><rect class="cls-42" x="247.85" y="95.38" width="1.08" height="126.85"/><rect class="cls-43" x="248.93" y="95.38" width="1.08" height="126.85"/><rect class="cls-44" x="250.01" y="95.38" width="1.08" height="126.85"/><rect class="cls-45" x="251.08" y="95.38" width="1.08" height="126.85"/><rect class="cls-46" x="252.16" y="95.38" width="1.08" height="126.85"/><rect class="cls-47" x="253.24" y="95.38" width="1.08" height="126.85"/><rect class="cls-48" x="254.32" y="95.38" width="1.08" height="126.85"/><rect class="cls-49" x="255.39" y="95.38" width="1.08" height="126.85"/><rect class="cls-50" x="256.47" y="95.38" width="1.08" height="126.85"/><rect class="cls-51" x="257.55" y="95.38" width="1.08" height="126.85"/><rect class="cls-52" x="258.62" y="95.38" width="1.08" height="126.85"/><rect class="cls-53" x="259.7" y="95.38" width="1.08" height="126.85"/><rect class="cls-54" x="260.78" y="95.38" width="1.08" height="126.85"/><rect class="cls-55" x="261.85" y="95.38" width="1.08" height="126.85"/><rect class="cls-56" x="262.93" y="95.38" width="1.08" height="126.85"/><rect class="cls-57" x="264.01" y="95.38" width="1.08" height="126.85"/><rect class="cls-58" x="265.09" y="95.38" width="1.08" height="126.85"/><rect class="cls-59" x="266.16" y="95.38" width="1.08" height="126.85"/><rect class="cls-60" x="267.24" y="95.38" width="1.08" height="126.85"/><rect class="cls-61" x="268.32" y="95.38" width="1.08" height="126.85"/><rect class="cls-62" x="269.39" y="95.38" width="1.08" height="126.85"/><rect class="cls-63" x="270.47" y="95.38" width="1.08" height="126.85"/><rect class="cls-64" x="271.55" y="95.38" width="1.08" height="126.85"/><rect class="cls-65" x="272.62" y="95.38" width="1.08" height="126.85"/><rect class="cls-66" x="273.7" y="95.38" width="1.08" height="126.85"/><rect class="cls-67" x="274.78" y="95.38" width="1.08" height="126.85"/><rect class="cls-68" x="275.86" y="95.38" width="1.08" height="126.85"/><rect class="cls-69" x="276.93" y="95.38" width="1.08" height="126.85"/><rect class="cls-70" x="278.01" y="95.38" width="1.08" height="126.85"/><rect class="cls-71" x="279.09" y="95.38" width="1.08" height="126.85"/><rect class="cls-72" x="280.16" y="95.38" width="1.08" height="126.85"/><rect class="cls-72" x="281.24" y="95.38" width="1.08" height="126.85"/><rect class="cls-73" x="282.32" y="95.38" width="1.08" height="126.85"/><rect class="cls-74" x="283.39" y="95.38" width="1.08" height="126.85"/><rect class="cls-75" x="284.47" y="95.38" width="1.08" height="126.85"/><rect class="cls-76" x="285.55" y="95.38" width="1.08" height="126.85"/><rect class="cls-77" x="286.63" y="95.38" width="1.08" height="126.85"/><rect class="cls-78" x="287.7" y="95.38" width="1.08" height="126.85"/><rect class="cls-78" x="288.78" y="95.38" width="1.08" height="126.85"/><rect class="cls-79" x="289.86" y="95.38" width="1.08" height="126.85"/><rect class="cls-80" x="290.93" y="95.38" width="1.08" height="126.85"/><rect class="cls-80" x="292.01" y="95.38" width="1.08" height="126.85"/><rect class="cls-81" x="293.09" y="95.38" width="1.08" height="126.85"/><rect class="cls-81" x="294.16" y="95.38" width="1.08" height="126.85"/><rect class="cls-82" x="295.24" y="95.38" width="1.08" height="126.85"/><rect class="cls-83" x="296.32" y="95.38" width="1.08" height="126.85"/><rect class="cls-83" x="297.4" y="95.38" width="1.08" height="126.85"/><rect class="cls-84" x="298.47" y="95.38" width="1.08" height="126.85"/><rect class="cls-84" x="299.55" y="95.38" width="1.08" height="126.85"/><rect class="cls-85" x="300.63" y="95.38" width="1.08" height="126.85"/><rect class="cls-86" x="301.7" y="95.38" width="1.08" height="126.85"/><rect class="cls-86" x="302.78" y="95.38" width="1.08" height="126.85"/><rect class="cls-87" x="303.86" y="95.38" width="1.08" height="126.85"/><rect class="cls-87" x="304.93" y="95.38" width="1.08" height="126.85"/><rect class="cls-87" x="306.01" y="95.38" width="1.08" height="126.85"/><rect class="cls-88" x="307.09" y="95.38" width="1.08" height="126.85"/><rect class="cls-88" x="308.17" y="95.38" width="1.08" height="126.85"/><rect class="cls-88" x="309.24" y="95.38" width="1.08" height="126.85"/><rect class="cls-89" x="310.32" y="95.38" width="1.08" height="126.85"/><rect class="cls-89" x="311.4" y="95.38" width="1.08" height="126.85"/><rect class="cls-89" x="312.47" y="95.38" width="1.08" height="126.85"/><rect class="cls-89" x="313.55" y="95.38" width="1.08" height="126.85"/><rect class="cls-89" x="314.63" y="95.38" width="1.08" height="126.85"/><rect class="cls-90" x="315.7" y="95.38" width="1.08" height="126.85"/><rect class="cls-90" x="316.78" y="95.38" width="1.08" height="126.85"/><rect class="cls-90" x="317.86" y="95.38" width="1.08" height="126.85"/><rect class="cls-90" x="318.94" y="95.38" width="1.08" height="126.85"/><rect class="cls-90" x="320.01" y="95.38" width="1.08" height="126.85"/><rect class="cls-90" x="321.09" y="95.38" width="1.08" height="126.85"/></g><path class="cls-7" d="M267,225.17a2.62,2.62,0,0,1-1.31-.35l-54.61-31.53a2.62,2.62,0,0,1-1.3-2.26V128a2.63,2.63,0,0,1,1.3-2.26l54.61-31.53a2.64,2.64,0,0,1,2.61,0l54.61,31.53a2.63,2.63,0,0,1,1.31,2.26v50h-2.62V128L267,96.45,212.42,128V191L267,222.56,321.63,191v-17h2.62v17a2.6,2.6,0,0,1-1.31,2.26l-54.61,31.53A2.61,2.61,0,0,1,267,225.17Z"/><path class="cls-93" d="M258.91,115.75a11.88,11.88,0,1,1-3.55,8.48,11.7,11.7,0,0,1,2.42-7.18"/><path class="cls-7" d="M267.23,137.11a12.89,12.89,0,0,1-12.88-12.88,12.56,12.56,0,0,1,2.64-7.8,1,1,0,0,1,1-.38,1,1,0,0,1,.26-1,12.88,12.88,0,1,1,9,22.09Zm-8.48-20.37a1,1,0,0,1-.17.92,10.61,10.61,0,0,0-2.22,6.57,10.84,10.84,0,1,0,3.25-7.76A1,1,0,0,1,258.75,116.74Z"/><path class="cls-7" d="M269.05,131h-6.42a1.67,1.67,0,0,1-1.82-1.82v-6.54a1.67,1.67,0,0,1,1.82-1.82h8.56a1.66,1.66,0,0,1,1.79,1.79v6.57a1.66,1.66,0,0,1-1.79,1.79C270.49,131,269.77,131,269.05,131Zm-6.22-2H268c1,0,2,0,3,0v-6.13h-8.13Z"/><path class="cls-7" d="M262.52,122.21h-.07a1,1,0,0,1-.94-1.07,5.54,5.54,0,0,1,3.27-5,5.48,5.48,0,0,1,4.5.11,5.23,5.23,0,0,1,2.73,3.44c.06.24.1.47.14.71s.06.34.1.52a1,1,0,0,1-2,.47c-.05-.23-.09-.44-.13-.66s-.06-.35-.1-.53a3.2,3.2,0,0,0-1.67-2.14,3.46,3.46,0,0,0-2.8-.07,3.58,3.58,0,0,0-2.07,3.32A1,1,0,0,1,262.52,122.21Z"/><path class="cls-7" d="M266.21,127.15h0V128c0,.17.07.23.26.23h.85c.23,0,.29-.06.29-.26v-1.62a.39.39,0,0,1,.23-.4,1.22,1.22,0,0,0,.62-1.46,1.59,1.59,0,0,0-1.47-1,1.67,1.67,0,0,0-1.62.88,1.22,1.22,0,0,0,.55,1.53.42.42,0,0,1,.26.49A6,6,0,0,1,266.21,127.15Z"/><g id="Scone_logo_white-3" data-name="Scone logo white"><g class="cls-100"><g class="cls-100"><path class="cls-95" d="M240.63,185.71h-.92a.35.35,0,0,0-.35.35V187a.35.35,0,0,0,.35.35h.92A.35.35,0,0,0,241,187v-.94a.35.35,0,0,0-.35-.35m-3.2,1.64h.92a.35.35,0,0,0,.35-.35v-.94a.35.35,0,0,0-.35-.35h-.92a.35.35,0,0,0-.35.35V187a.35.35,0,0,0,.35.35m-1-.35v-.94a.35.35,0,0,0-.35-.35h-.92a.35.35,0,0,0-.35.35V187a.35.35,0,0,0,.35.35h.92a.35.35,0,0,0,.35-.35m4.26,1a.26.26,0,0,0-.26.26v1.1a.26.26,0,0,0,.26.26.27.27,0,0,0,.27-.26v-1.1a.25.25,0,0,0-.27-.26m-2.53.35v.94a.36.36,0,0,0,.36.35h.92a.35.35,0,0,0,.35-.35v-.94a.35.35,0,0,0-.35-.35h-.92a.35.35,0,0,0-.36.35m-.65.94v-.94a.35.35,0,0,0-.35-.35h-.92a.35.35,0,0,0-.35.35v.94a.35.35,0,0,0,.35.35h.92a.35.35,0,0,0,.35-.35m3.11,1h-.92a.36.36,0,0,0-.35.36v.93a.35.35,0,0,0,.35.35h.92a.35.35,0,0,0,.35-.35v-.93a.36.36,0,0,0-.35-.36m-2.38,0h-.92a.36.36,0,0,0-.36.36v.93a.35.35,0,0,0,.36.35h.92a.35.35,0,0,0,.35-.35v-.93a.36.36,0,0,0-.35-.36"/><path class="cls-95" d="M241.74,185.34a2.1,2.1,0,0,0,1.43.44s0,0,0,.07v2.53c0,1-1.18,1.57-1.47,1.73,0,0,0,0,0,0l0-4.73s0,0,0,0"/><path class="cls-95" d="M239,185.22c1.94-.07,2.26-.75,2.26-.75a.11.11,0,0,1,.09-.05.09.09,0,0,1,.09,0s.3.72,2.24.72c0,0,.07,0,.07.09v3.32c0,1.06-2,2.26-2.05,2.28s-.07,0-.07.07v.83s.12,0,.18,0c.74-.4,2.82-1.55,2.82-3V184.6c0-.07-.12-.13-.19-.13-2.47,0-2.93-.9-2.93-.9s-.11,0-.16,0-.09,0-.11,0-.4.93-2.86.93c-.09,0-.1,0-.1.11v.53s0,.12.07.12.65,0,.65,0"/><path class="cls-96" d="M246.44,190.64l1-.37a1.35,1.35,0,0,0,1.29.74,1.38,1.38,0,0,0,.76-.18.61.61,0,0,0,.32-.53c0-.53-.73-.85-1.26-1.06l0,0a4.33,4.33,0,0,1-1.15-.63,1.45,1.45,0,0,1-.57-1.17,1.55,1.55,0,0,1,.59-1.22,2.29,2.29,0,0,1,1.46-.49,2.1,2.1,0,0,1,1.94,1.06l-1,.39a.78.78,0,0,0-.35-.37,1.45,1.45,0,0,0-.57-.13c-.56,0-1,.3-1,.71a.8.8,0,0,0,.39.64,6,6,0,0,0,.88.46l.12.05c.76.32,1.7.72,1.7,1.75a1.47,1.47,0,0,1-.67,1.25,2.71,2.71,0,0,1-1.61.46,2.36,2.36,0,0,1-2.26-1.34"/><path class="cls-96" d="M255.2,192a3.21,3.21,0,0,1-1.22-.25,2.76,2.76,0,0,1-1-.67,2.8,2.8,0,0,1-.67-1,3.12,3.12,0,0,1-.25-1.21,3.17,3.17,0,0,1,.25-1.22A3.16,3.16,0,0,1,254,186a3.21,3.21,0,0,1,1.22-.25,3.14,3.14,0,0,1,2.49,1.24l-.83.61a2.46,2.46,0,0,0-.72-.6,2.3,2.3,0,0,0-1-.23,2.06,2.06,0,0,0-1.48.62,2,2,0,0,0-.62,1.49,2,2,0,0,0,.62,1.48,2,2,0,0,0,1.48.62,2.1,2.1,0,0,0,1.06-.3,2.18,2.18,0,0,0,.76-.78l.9.51a3,3,0,0,1-1.13,1.15,2.86,2.86,0,0,1-1.57.44"/><path class="cls-96" d="M262,192a3.21,3.21,0,0,1-1.22-.25,2.85,2.85,0,0,1-1-.67,3.07,3.07,0,0,1-.68-1,3.36,3.36,0,0,1-.24-1.22,3,3,0,0,1,.92-2.2,3.12,3.12,0,0,1,1-.67,3.21,3.21,0,0,1,1.22-.25,3.17,3.17,0,0,1,1.22.25,2.76,2.76,0,0,1,1,.67,3.13,3.13,0,0,1,.92,2.2,3.17,3.17,0,0,1-.25,1.22,3.16,3.16,0,0,1-1.66,1.66A3.17,3.17,0,0,1,262,192m0-5.25a2.06,2.06,0,0,0-1.48.62,2.1,2.1,0,0,0-.62,1.49,2,2,0,0,0,.62,1.48,2.09,2.09,0,0,0,3,0,2.09,2.09,0,0,0,.61-1.48,2.13,2.13,0,0,0-.61-1.49,2.1,2.1,0,0,0-1.49-.62"/><polygon class="cls-96" points="272.26 185.76 272.26 192.12 267.88 188.09 267.88 191.87 266.77 191.87 266.77 185.53 271.15 189.58 271.15 185.76 272.26 185.76"/><polygon class="cls-96" points="275.24 186.7 275.24 188.32 278.3 188.32 278.3 189.28 275.24 189.28 275.24 190.92 278.67 190.92 278.67 191.87 274.13 191.87 274.13 185.76 278.67 185.76 278.67 186.72 275.24 186.72 275.24 186.7"/></g></g></g><path class="cls-93" d="M249.4,158.24H248l-.23-1a1.85,1.85,0,0,0-.56-.3,2.17,2.17,0,0,0-.74-.12,1.44,1.44,0,0,0-.9.26.77.77,0,0,0-.33.64.73.73,0,0,0,.32.6,3.31,3.31,0,0,0,1.27.42,5.24,5.24,0,0,1,2.2.87,1.93,1.93,0,0,1,.71,1.58,2.11,2.11,0,0,1-.92,1.76,4.07,4.07,0,0,1-2.44.68,5.14,5.14,0,0,1-1.7-.27,4.49,4.49,0,0,1-1.37-.77l0-1.79h1.51l.29,1a1.45,1.45,0,0,0,.53.24,3.11,3.11,0,0,0,.69.07,1.74,1.74,0,0,0,1-.23.73.73,0,0,0,.34-.64.75.75,0,0,0-.34-.62,3.64,3.64,0,0,0-1.28-.45,5.18,5.18,0,0,1-2.13-.86,1.84,1.84,0,0,1-.72-1.54,2.24,2.24,0,0,1,.83-1.73,3.46,3.46,0,0,1,2.35-.72,5.94,5.94,0,0,1,1.76.25,3.5,3.5,0,0,1,1.3.64Z"/><path class="cls-93" d="M254.48,163.64a3.59,3.59,0,0,1-2.76-1.11,3.94,3.94,0,0,1-1-2.81v-.29a4.35,4.35,0,0,1,1-2.94,3.65,3.65,0,0,1,5.13-.17,3.74,3.74,0,0,1,.89,2.64v1.17h-4.77v.05a2.12,2.12,0,0,0,.53,1.3,1.63,1.63,0,0,0,1.27.51,4,4,0,0,0,1.19-.15,4.68,4.68,0,0,0,1-.45l.59,1.33a4.14,4.14,0,0,1-1.28.65A5.42,5.42,0,0,1,254.48,163.64Zm-.19-6.63a1.1,1.1,0,0,0-.94.46,2.27,2.27,0,0,0-.43,1.2l0,0h2.64v-.19a1.69,1.69,0,0,0-.32-1.1A1.16,1.16,0,0,0,254.29,157Z"/><path class="cls-93" d="M258.87,162.19l1-.22V157l-1.15-.22v-1.3h3.16l.09,1.16a2.5,2.5,0,0,1,.73-1,1.6,1.6,0,0,1,1-.35l.36,0a1.22,1.22,0,0,1,.31.06l-.23,2-.88,0a1.5,1.5,0,0,0-.78.18,1.23,1.23,0,0,0-.48.53V162l1,.22v1.3h-4.23Z"/><path class="cls-93" d="M268.6,156.8l-.76.14,1.06,3.57.14.75h0l.16-.75,1-3.57-.77-.14v-1.3h3.63v1.3l-.7.11-2.35,6.58H268l-2.36-6.58-.7-.11v-1.3h3.63Z"/><path class="cls-93" d="M273.76,162.19l1-.22V157l-1.15-.22v-1.3H277V162l1,.22v1.3h-4.23Zm3.19-8.6H274.8V152H277Z"/><path class="cls-93" d="M282.44,162a1.29,1.29,0,0,0,.93-.34,1.18,1.18,0,0,0,.34-.9h2l0,.05a2.48,2.48,0,0,1-.9,2,3.84,3.84,0,0,1-5.09-.31,4.32,4.32,0,0,1-1-2.9v-.22a4.21,4.21,0,0,1,1-2.9,3.54,3.54,0,0,1,2.83-1.14,4.94,4.94,0,0,1,1.73.29,3.42,3.42,0,0,1,1.28.81l0,2.13h-1.75l-.36-1.24a1.36,1.36,0,0,0-.39-.24,1.53,1.53,0,0,0-.54-.09,1.35,1.35,0,0,0-1.29.67,3.33,3.33,0,0,0-.38,1.71v.22a3.55,3.55,0,0,0,.35,1.72A1.24,1.24,0,0,0,282.44,162Z"/><path class="cls-93" d="M290.48,163.64a3.59,3.59,0,0,1-2.76-1.11,3.94,3.94,0,0,1-1-2.81v-.29a4.35,4.35,0,0,1,1-2.94,3.65,3.65,0,0,1,5.13-.17,3.74,3.74,0,0,1,.89,2.64v1.17h-4.76l0,.05a2.12,2.12,0,0,0,.53,1.3,1.64,1.64,0,0,0,1.27.51,4,4,0,0,0,1.19-.15,4.89,4.89,0,0,0,1-.45l.59,1.33a4.14,4.14,0,0,1-1.28.65A5.42,5.42,0,0,1,290.48,163.64Zm-.19-6.63a1.1,1.1,0,0,0-.94.46,2.27,2.27,0,0,0-.43,1.2l0,0h2.64v-.19a1.69,1.69,0,0,0-.32-1.1A1.16,1.16,0,0,0,290.29,157Z"/><path class="cls-5" d="M313.43,175.6H223.12a3.53,3.53,0,0,1-3.52-3.53V147.25a3.53,3.53,0,0,1,3.52-3.53h90.31a3.54,3.54,0,0,1,3.53,3.53v24.82A3.53,3.53,0,0,1,313.43,175.6Zm-90.31-28.85a.5.5,0,0,0-.5.5v24.82a.51.51,0,0,0,.5.51h90.31a.51.51,0,0,0,.51-.51V147.25a.5.5,0,0,0-.51-.5Z"/><path class="cls-7" d="M301.54,186.93h-9a4.17,4.17,0,1,0,0,2h2.63l1.2,1.2,1.2-1.2h.16l.76.77.71-.71,1.14,1.14,1.29-1.28,1-.88ZM286.9,189a1.1,1.1,0,1,1,1.1-1.1A1.1,1.1,0,0,1,286.9,189Z"/></g></svg>