<?xml version="1.0" encoding="UTF-8"?>
<svg id="Ebene_1" data-name="Ebene 1" xmlns="http://www.w3.org/2000/svg" xmlns:xlink="http://www.w3.org/1999/xlink" version="1.1" viewBox="0 0 546.9 235">
  <defs>
    <style>
      .cls-1 {
        fill: #4b2161;
      }

      .cls-1, .cls-2, .cls-3, .cls-4, .cls-5, .cls-6, .cls-7, .cls-8, .cls-9, .cls-10, .cls-11, .cls-12, .cls-13, .cls-14, .cls-15, .cls-16, .cls-17, .cls-18, .cls-19, .cls-20, .cls-21, .cls-22, .cls-23, .cls-24, .cls-25, .cls-26, .cls-27, .cls-28, .cls-29, .cls-30, .cls-31, .cls-32, .cls-33, .cls-34, .cls-35, .cls-36, .cls-37, .cls-38, .cls-39, .cls-40, .cls-41, .cls-42, .cls-43, .cls-44, .cls-45, .cls-46, .cls-47, .cls-48, .cls-49, .cls-50, .cls-51, .cls-52, .cls-53, .cls-54, .cls-55, .cls-56, .cls-57, .cls-58, .cls-59, .cls-60, .cls-61, .cls-62, .cls-63, .cls-64, .cls-65, .cls-66, .cls-67, .cls-68, .cls-69, .cls-70, .cls-71, .cls-72, .cls-73, .cls-74, .cls-75, .cls-76, .cls-77, .cls-78, .cls-79, .cls-80, .cls-81, .cls-82, .cls-83, .cls-84, .cls-85, .cls-86, .cls-87, .cls-88, .cls-89, .cls-90 {
        stroke-width: 0px;
      }

      .cls-2 {
        fill: url(#Unbenannter_Verlauf);
      }

      .cls-3 {
        fill: #761c65;
      }

      .cls-4 {
        fill: #6f1d65;
      }

      .cls-5 {
        fill: #36245e;
      }

      .cls-6 {
        fill: #3b235f;
      }

      .cls-7 {
        fill: #33245e;
      }

      .cls-91 {
        clip-path: url(#clippath);
      }

      .cls-8, .cls-92 {
        fill: none;
      }

      .cls-9 {
        fill: #7e1b66;
      }

      .cls-10 {
        fill: #961869;
      }

      .cls-11 {
        fill: #402260;
      }

      .cls-12 {
        fill: #522061;
      }

      .cls-13 {
        fill: #34245e;
      }

      .cls-14 {
        fill: #452260;
      }

      .cls-15 {
        fill: #611e63;
      }

      .cls-16 {
        fill: #8d1968;
      }

      .cls-17 {
        fill: #472260;
      }

      .cls-18 {
        fill: #502161;
      }

      .cls-19 {
        fill: #542062;
      }

      .cls-20 {
        fill: #891a67;
      }

      .cls-21 {
        fill: #5c1f63;
      }

      .cls-22 {
        fill: #791c66;
      }

      .cls-23 {
        fill: #881a67;
      }

      .cls-24 {
        fill: #5e1f63;
      }

      .cls-25 {
        fill: #811b67;
      }

      .cls-26 {
        fill: #4c2161;
      }

      .cls-27 {
        fill: #562062;
      }

      .cls-28 {
        fill: #981869;
      }

      .cls-29 {
        fill: #fc0;
      }

      .cls-93 {
        clip-path: url(#clippath-1);
      }

      .cls-94 {
        clip-path: url(#clippath-4);
      }

      .cls-95 {
        clip-path: url(#clippath-3);
      }

      .cls-96 {
        clip-path: url(#clippath-2);
      }

      .cls-97 {
        clip-path: url(#clippath-7);
      }

      .cls-98 {
        clip-path: url(#clippath-8);
      }

      .cls-99 {
        clip-path: url(#clippath-6);
      }

      .cls-100 {
        clip-path: url(#clippath-5);
      }

      .cls-101 {
        clip-path: url(#clippath-9);
      }

      .cls-30 {
        fill: #911968;
      }

      .cls-31, .cls-67 {
        fill: #39f;
      }

      .cls-32 {
        fill: #462260;
      }

      .cls-33 {
        fill: #921968;
      }

      .cls-34 {
        fill: #572062;
      }

      .cls-35 {
        fill: #771c65;
      }

      .cls-102 {
        clip-path: url(#clippath-10);
      }

      .cls-36 {
        fill: #671e64;
      }

      .cls-37 {
        fill: #841a67;
      }

      .cls-38 {
        fill: #422260;
      }

      .cls-39 {
        fill: #601f63;
      }

      .cls-40 {
        fill: #831b67;
      }

      .cls-41 {
        fill: #6b1d64;
      }

      .cls-42 {
        fill: #482160;
      }

      .cls-43 {
        fill: #3f225f;
      }

      .cls-44 {
        fill: #6d1d64;
      }

      .cls-45 {
        fill: #741c65;
      }

      .cls-46 {
        fill: #8b1a68;
      }

      .cls-47 {
        fill: #6a1d64;
      }

      .cls-48 {
        fill: #3c235f;
      }

      .cls-49 {
        fill: #681e64;
      }

      .cls-50 {
        fill: #591f62;
      }

      .cls-51 {
        fill: #5a1f62;
      }

      .cls-52 {
        fill: #3f235f;
      }

      .cls-53 {
        fill: #861a67;
      }

      .cls-54 {
        fill: #39235f;
      }

      .cls-55 {
        fill: #711d65;
      }

      .cls-56 {
        fill: #7c1b66;
      }

      .cls-57 {
        fill: #492161;
      }

      .cls-58 {
        fill: #35245e;
      }

      .cls-59 {
        fill: #641e63;
      }

      .cls-60 {
        fill: #512061;
      }

      .cls-61 {
        fill: #552062;
      }

      .cls-62 {
        fill: #631e63;
      }

      .cls-63 {
        fill: #fdfeff;
      }

      .cls-64 {
        fill: #5f1f63;
      }

      .cls-65 {
        fill: #3e235f;
      }

      .cls-66 {
        fill: #38235f;
      }

      .cls-67 {
        isolation: isolate;
        opacity: .4;
      }

      .cls-68 {
        fill: #4e2161;
      }

      .cls-69 {
        fill: #412260;
      }

      .cls-70 {
        fill: #941869;
      }

      .cls-71 {
        fill: #37235f;
      }

      .cls-72 {
        fill: #3d235f;
      }

      .cls-73 {
        fill: #5b1f62;
      }

      .cls-74 {
        fill: #3a235f;
      }

      .cls-75 {
        fill: #721c65;
      }

      .cls-76 {
        fill: #532062;
      }

      .cls-77 {
        fill: #6e1d64;
      }

      .cls-78 {
        fill: #7f1b66;
      }

      .cls-79 {
        fill: #4d2161;
      }

      .cls-80 {
        fill: #fff;
      }

      .cls-81 {
        fill: #8f1968;
      }

      .cls-82 {
        fill: #4a2161;
      }

      .cls-83 {
        fill: #651e64;
      }

      .cls-84 {
        fill: #7a1b66;
      }

      .cls-85 {
        fill: #442260;
      }

      .cls-86 {
        fill: #492160;
      }

      .cls-87 {
        fill: #432260;
      }

      .cls-88 {
        fill: #32245e;
      }

      .cls-92 {
        stroke: #39f;
        stroke-linecap: round;
        stroke-linejoin: round;
        stroke-width: 4px;
      }

      .cls-89 {
        fill: #37235e;
      }

      .cls-90 {
        fill: #ffd138;
      }
    </style>
    <linearGradient id="Unbenannter_Verlauf" data-name="Unbenannter Verlauf" x1="0" y1="961.7" x2="546.9" y2="961.7" gradientTransform="translate(0 -844)" gradientUnits="userSpaceOnUse">
      <stop offset="0" stop-color="#981869"/>
      <stop offset=".2" stop-color="#771c65"/>
      <stop offset=".4" stop-color="#591f62"/>
      <stop offset=".6" stop-color="#432260"/>
      <stop offset=".8" stop-color="#36235e"/>
      <stop offset="1" stop-color="#32245e"/>
    </linearGradient>
    <clipPath id="clippath">
      <polyline class="cls-8" points="212 75.9 348.6 75.9 348.6 84.5 212 84.5"/>
    </clipPath>
    <clipPath id="clippath-1">
      <polyline class="cls-8" points="315.9 142.2 365.8 114.3 371.4 123.6 321.4 151.5"/>
    </clipPath>
    <clipPath id="clippath-2">
      <polygon class="cls-8" points="210.4 110.9 210.4 47.4 155.4 15.7 100.5 47.4 100.5 110.9 155.4 142.6 210.4 110.9"/>
    </clipPath>
    <clipPath id="clippath-3">
      <rect class="cls-8" x="123" y="103.9" width="43.8" height="8.6"/>
    </clipPath>
    <clipPath id="clippath-4">
      <rect class="cls-8" x="123" y="103.9" width="43.8" height="8.6"/>
    </clipPath>
    <clipPath id="clippath-5">
      <polygon class="cls-8" points="458.8 111.9 458.8 48.5 403.9 16.7 348.9 48.5 348.9 111.9 403.9 143.6 458.8 111.9"/>
    </clipPath>
    <clipPath id="clippath-6">
      <rect class="cls-8" x="372.5" y="103.9" width="43.9" height="8.6"/>
    </clipPath>
    <clipPath id="clippath-7">
      <rect class="cls-8" x="372.5" y="103.9" width="43.9" height="8.6"/>
    </clipPath>
    <clipPath id="clippath-8">
      <polygon class="cls-8" points="322.2 190.5 322.2 127.1 267.2 95.4 212.3 127.1 212.3 190.5 267.2 222.2 322.2 190.5"/>
    </clipPath>
    <clipPath id="clippath-9">
      <rect class="cls-8" x="234.8" y="183.5" width="43.9" height="8.6"/>
    </clipPath>
    <clipPath id="clippath-10">
      <rect class="cls-8" x="234.8" y="183.5" width="43.9" height="8.6"/>
    </clipPath>
  </defs>
  <g id="Lock">
    <path class="cls-2" d="M7,.2h532.9c3.9,0,7,3.1,7,7v221c0,3.9-3.1,7-7,7H7c-3.9,0-7-3.1-7-7V7.2C0,3.3,3.1.2,7,.2Z"/>
    <path class="cls-67" d="M540.5,0h-113.1l119.9,119.9V6.8c0-3.7-3-6.8-6.8-6.8h0Z"/>
    <polygon class="cls-31" points="517.6 38.8 504.7 31.3 504.7 46.2 517.6 38.8"/>
    <circle class="cls-92" cx="509.6" cy="38.6" r="18.8" transform="translate(194.8 441.2) rotate(-56.3)"/>
    <path class="cls-29" d="M263.7,65.4v-1h2.5v.8c.3-.3.6-.5.9-.7s.7-.3,1.1-.2c.4,0,.7,0,1,.3.3.2.5.5.7.8.2-.3.4-.6.8-.8.3-.2.7-.3,1.1-.3.6,0,1.1.2,1.5.7.4.6.6,1.3.5,2v2.7l.8.2v1h-3.3v-1l.8-.2v-2.7c0-.4-.1-.7-.2-1-.2-.2-.4-.3-.7-.3s-.4,0-.6.2c-.2,0-.3.3-.4.4v3.4l.7.2v1h-3.1v-1l.7-.2v-2.7c0-.4-.1-.7-.2-1-.2-.2-.4-.3-.7-.3s-.4,0-.6,0-.3.2-.4.4v3.4l.7.2v1h-3.3v-1l.8-.2v-4l-1.1-.2Z"/>
    <path class="cls-29" d="M282.7,62.1v2.3h-1.3v-1h-1.7v6.1l.9.2v1h-3.6v-1l.9-.2v-6h-1.6v1h-1.3v-2.3h7.7Z"/>
    <path class="cls-29" d="M283.2,70.7v-1l.9-.2v-6.2l-.9-.2v-1h3.6v1l-.9.2v6.1h2.4v-1.1h1.4v2.4s-6.5,0-6.5,0Z"/>
    <path class="cls-29" d="M296.8,64.9h-1.3l-.2-1.2c-.2,0-.4-.2-.7-.2-.3,0-.6,0-.9,0s-.8,0-1.1.3c-.2.2-.4.5-.4.8s.2.6.4.7c.4.3.9.5,1.4.6.8.2,1.5.5,2.2,1,.5.4.8,1.1.7,1.7,0,.7-.3,1.3-.9,1.7-.7.5-1.5.7-2.3.6-.6,0-1.3,0-1.8-.3-.5-.2-1-.5-1.4-.9v-1.8h1.3l.2,1.2c.2.2.5.3.7.3.3,0,.7,0,1,0s.8,0,1.1-.3c.2-.2.4-.5.4-.8s-.1-.6-.4-.8c-.4-.3-.8-.5-1.2-.6-.8-.2-1.6-.5-2.3-1-.5-.4-.8-1-.8-1.7s.3-1.3.9-1.7c.7-.5,1.4-.7,2.2-.7s1.2,0,1.8.3c.5.2,1,.5,1.4.8v2Z"/>
    <path class="cls-29" d="M349.7,144.6v-1h2.5v.8c.3-.3.6-.5.9-.7s.7-.3,1.1-.2c.4,0,.7.1,1,.3s.5.5.7.8c.2-.3.4-.6.8-.8.3-.2.7-.3,1.1-.3.6,0,1.1.2,1.5.6.4.6.6,1.3.5,2v2.7l.8.2v1h-3.3v-1l.7-.2v-2.7c0-.3-.1-.7-.2-1-.2-.2-.4-.3-.7-.3s-.4,0-.6.2c-.2.1-.3.3-.4.4v3.3l.7.2v1h-3.1v-1l.7-.2v-2.7c0-.3-.1-.7-.2-1-.2-.2-.4-.3-.7-.3s-.4,0-.6.1-.3.2-.4.4v3.4l.8.2v1h-3.3v-1l.8-.2v-4h-1.1Z"/>
    <path class="cls-29" d="M368.7,141.4v2.3h-1.3v-1h-1.7v6.1l.9.2v1h-3.6v-1l.9-.2v-6h-1.6v1h-1.3v-2.3h7.7Z"/>
    <path class="cls-29" d="M369.2,150v-1l.9-.2v-6.2l-.9-.2v-1h3.6v1l-.9.2v6.1h2.4v-1.1h1.4v2.4h-6.5Z"/>
    <path class="cls-29" d="M382.9,144.1h-1.3l-.2-1.2c-.2-.1-.4-.2-.6-.2-.3-.1-.6-.1-.9-.1s-.8.1-1.1.3c-.2.2-.4.5-.4.8s.2.6.4.7c.4.3.9.5,1.4.6.8.2,1.5.5,2.2,1,.5.4.8,1.1.7,1.7,0,.7-.3,1.4-.9,1.7-.7.5-1.5.7-2.3.6-.6,0-1.3-.1-1.9-.3-.5-.2-1-.5-1.4-.9v-1.8h1.3l.2,1.2c.2.2.4.3.7.4.3.1.7.1,1,.1s.8-.1,1.1-.3c.2-.2.4-.5.4-.8s-.1-.6-.4-.8c-.4-.3-.8-.5-1.2-.6-.8-.2-1.6-.6-2.3-1.1-.5-.4-.8-1-.8-1.7s.3-1.3.9-1.7c.6-.5,1.4-.7,2.2-.7s1.2.1,1.8.3c.5.2,1,.5,1.4.8v2Z"/>
    <g class="cls-91">
      <g>
        <rect class="cls-28" x="212" y="75.9" width="1.3" height="8.6"/>
        <rect class="cls-10" x="213.3" y="75.9" width="1.3" height="8.6"/>
        <rect class="cls-70" x="214.6" y="75.9" width="1.3" height="8.6"/>
        <rect class="cls-33" x="216" y="75.9" width="1.3" height="8.6"/>
        <rect class="cls-30" x="217.3" y="75.9" width="1.3" height="8.6"/>
        <rect class="cls-81" x="218.7" y="75.9" width="1.3" height="8.6"/>
        <rect class="cls-16" x="220" y="75.9" width="1.3" height="8.6"/>
        <rect class="cls-46" x="221.3" y="75.9" width="1.3" height="8.6"/>
        <rect class="cls-20" x="222.7" y="75.9" width="1.3" height="8.6"/>
        <rect class="cls-23" x="224" y="75.9" width="1.3" height="8.6"/>
        <rect class="cls-53" x="225.4" y="75.9" width="1.3" height="8.6"/>
        <rect class="cls-37" x="226.7" y="75.9" width="1.3" height="8.6"/>
        <rect class="cls-40" x="228" y="75.9" width="1.3" height="8.6"/>
        <rect class="cls-25" x="229.4" y="75.9" width="1.3" height="8.6"/>
        <rect class="cls-78" x="230.7" y="75.9" width="1.3" height="8.6"/>
        <rect class="cls-9" x="232.1" y="75.9" width="1.3" height="8.6"/>
        <rect class="cls-56" x="233.4" y="75.9" width="1.3" height="8.6"/>
        <rect class="cls-84" x="234.7" y="75.9" width="1.3" height="8.6"/>
        <rect class="cls-22" x="236.1" y="75.9" width="1.3" height="8.6"/>
        <rect class="cls-35" x="237.4" y="75.9" width="1.3" height="8.6"/>
        <rect class="cls-3" x="238.8" y="75.9" width="1.3" height="8.6"/>
        <rect class="cls-45" x="240.1" y="75.9" width="1.3" height="8.6"/>
        <rect class="cls-75" x="241.4" y="75.9" width="1.3" height="8.6"/>
        <rect class="cls-55" x="242.8" y="75.9" width="1.3" height="8.6"/>
        <rect class="cls-4" x="244.1" y="75.9" width="1.3" height="8.6"/>
        <rect class="cls-77" x="245.4" y="75.9" width="1.3" height="8.6"/>
        <rect class="cls-44" x="246.8" y="75.9" width="1.3" height="8.6"/>
        <rect class="cls-41" x="248.1" y="75.9" width="1.3" height="8.6"/>
        <rect class="cls-47" x="249.5" y="75.9" width="1.3" height="8.6"/>
        <rect class="cls-49" x="250.8" y="75.9" width="1.3" height="8.6"/>
        <rect class="cls-36" x="252.1" y="75.9" width="1.3" height="8.6"/>
        <rect class="cls-83" x="253.5" y="75.9" width="1.3" height="8.6"/>
        <rect class="cls-59" x="254.8" y="75.9" width="1.3" height="8.6"/>
        <rect class="cls-62" x="256.2" y="75.9" width="1.3" height="8.6"/>
        <rect class="cls-15" x="257.5" y="75.9" width="1.3" height="8.6"/>
        <rect class="cls-39" x="258.9" y="75.9" width="1.3" height="8.6"/>
        <rect class="cls-64" x="260.2" y="75.9" width="1.3" height="8.6"/>
        <rect class="cls-24" x="261.5" y="75.9" width="1.3" height="8.6"/>
        <rect class="cls-21" x="262.9" y="75.9" width="1.3" height="8.6"/>
        <rect class="cls-73" x="264.2" y="75.9" width="1.3" height="8.6"/>
        <rect class="cls-51" x="265.5" y="75.9" width="1.3" height="8.6"/>
        <rect class="cls-50" x="266.9" y="75.9" width="1.3" height="8.6"/>
        <rect class="cls-34" x="268.2" y="75.9" width="1.3" height="8.6"/>
        <rect class="cls-27" x="269.6" y="75.9" width="1.3" height="8.6"/>
        <rect class="cls-61" x="270.9" y="75.9" width="1.3" height="8.6"/>
        <rect class="cls-19" x="272.2" y="75.9" width="1.3" height="8.6"/>
        <rect class="cls-76" x="273.6" y="75.9" width="1.3" height="8.6"/>
        <rect class="cls-12" x="274.9" y="75.9" width="1.3" height="8.6"/>
        <rect class="cls-60" x="276.3" y="75.9" width="1.3" height="8.6"/>
        <rect class="cls-18" x="277.6" y="75.9" width="1.3" height="8.6"/>
        <rect class="cls-68" x="278.9" y="75.9" width="1.3" height="8.6"/>
        <rect class="cls-79" x="280.3" y="75.9" width="1.3" height="8.6"/>
        <rect class="cls-26" x="281.6" y="75.9" width="1.3" height="8.6"/>
        <rect class="cls-1" x="283" y="75.9" width="1.3" height="8.6"/>
        <rect class="cls-82" x="284.3" y="75.9" width="1.3" height="8.6"/>
        <rect class="cls-57" x="285.6" y="75.9" width="1.3" height="8.6"/>
        <rect class="cls-86" x="287" y="75.9" width="1.3" height="8.6"/>
        <rect class="cls-42" x="288.3" y="75.9" width="1.3" height="8.6"/>
        <rect class="cls-17" x="289.7" y="75.9" width="1.3" height="8.6"/>
        <rect class="cls-32" x="291" y="75.9" width="1.3" height="8.6"/>
        <rect class="cls-14" x="292.3" y="75.9" width="1.3" height="8.6"/>
        <rect class="cls-85" x="293.7" y="75.9" width="1.3" height="8.6"/>
        <rect class="cls-87" x="295" y="75.9" width="1.3" height="8.6"/>
        <rect class="cls-38" x="296.4" y="75.9" width="1.3" height="8.6"/>
        <rect class="cls-38" x="297.7" y="75.9" width="1.3" height="8.6"/>
        <rect class="cls-69" x="299" y="75.9" width="1.3" height="8.6"/>
        <rect class="cls-11" x="300.4" y="75.9" width="1.3" height="8.6"/>
        <rect class="cls-43" x="301.7" y="75.9" width="1.3" height="8.6"/>
        <rect class="cls-52" x="303" y="75.9" width="1.3" height="8.6"/>
        <rect class="cls-65" x="304.4" y="75.9" width="1.3" height="8.6"/>
        <rect class="cls-72" x="305.7" y="75.9" width="1.3" height="8.6"/>
        <rect class="cls-72" x="307.1" y="75.9" width="1.3" height="8.6"/>
        <rect class="cls-48" x="308.4" y="75.9" width="1.3" height="8.6"/>
        <rect class="cls-6" x="309.8" y="75.9" width="1.3" height="8.6"/>
        <rect class="cls-6" x="311.1" y="75.9" width="1.3" height="8.6"/>
        <rect class="cls-74" x="312.4" y="75.9" width="1.3" height="8.6"/>
        <rect class="cls-74" x="313.8" y="75.9" width="1.3" height="8.6"/>
        <rect class="cls-54" x="315.1" y="75.9" width="1.3" height="8.6"/>
        <rect class="cls-66" x="316.5" y="75.9" width="1.3" height="8.6"/>
        <rect class="cls-66" x="317.8" y="75.9" width="1.3" height="8.6"/>
        <rect class="cls-71" x="319.1" y="75.9" width="1.3" height="8.6"/>
        <rect class="cls-71" x="320.5" y="75.9" width="1.3" height="8.6"/>
        <rect class="cls-89" x="321.8" y="75.9" width="1.3" height="8.6"/>
        <rect class="cls-5" x="323.1" y="75.9" width="1.3" height="8.6"/>
        <rect class="cls-5" x="324.5" y="75.9" width="1.3" height="8.6"/>
        <rect class="cls-58" x="325.8" y="75.9" width="1.3" height="8.6"/>
        <rect class="cls-58" x="327.2" y="75.9" width="1.3" height="8.6"/>
        <rect class="cls-58" x="328.5" y="75.9" width="1.3" height="8.6"/>
        <rect class="cls-13" x="329.8" y="75.9" width="1.3" height="8.6"/>
        <rect class="cls-13" x="331.2" y="75.9" width="1.3" height="8.6"/>
        <rect class="cls-13" x="332.5" y="75.9" width="1.3" height="8.6"/>
        <rect class="cls-7" x="333.9" y="75.9" width="1.3" height="8.6"/>
        <rect class="cls-7" x="335.2" y="75.9" width="1.3" height="8.6"/>
        <rect class="cls-7" x="336.5" y="75.9" width="1.3" height="8.6"/>
        <rect class="cls-7" x="337.9" y="75.9" width="1.3" height="8.6"/>
        <rect class="cls-7" x="339.2" y="75.9" width="1.3" height="8.6"/>
        <rect class="cls-88" x="340.6" y="75.9" width="1.3" height="8.6"/>
        <rect class="cls-88" x="341.9" y="75.9" width="1.3" height="8.6"/>
        <rect class="cls-88" x="343.2" y="75.9" width="1.3" height="8.6"/>
        <rect class="cls-88" x="344.6" y="75.9" width="1.3" height="8.6"/>
        <rect class="cls-88" x="345.9" y="75.9" width="1.3" height="8.6"/>
        <rect class="cls-88" x="347.3" y="75.9" width="1.3" height="8.6"/>
      </g>
    </g>
    <polygon class="cls-29" points="349.4 85.2 212 85.2 212 83.7 347.8 83.7 347.8 76.7 212 76.7 212 75.2 349.4 75.2 349.4 85.2"/>
    <path class="cls-29" d="M339.6,80.4h-.2v-1h.2v1ZM336.3,80.4h-3v-1h3v1ZM330.3,80.4h-3v-1h3v1ZM324.3,80.4h-3v-1h3v1ZM318.2,80.4h-3v-1h3v1ZM312.2,80.4h-3v-1h3v1ZM306.2,80.4h-3v-1h3v1ZM300.1,80.4h-3v-1h3v1ZM294.1,80.4h-3v-1h3v1ZM288.1,80.4h-3v-1h3v1ZM282.1,80.4h-3v-1h3v1ZM276,80.4h-3v-1h3v1ZM270,80.4h-3v-1h3v1ZM264,80.4h-3v-1h3v1ZM258,80.4h-3v-1h3v1ZM252,80.4h-3v-1h3v1ZM246,80.4h-3v-1h3v1ZM239.9,80.4h-3v-1h3v1ZM233.9,80.4h-3v-1h3v1ZM227.9,80.4h-3v-1h3v1ZM221.9,80.4h-3v-1h3v1Z"/>
    <polygon class="cls-29" points="336.9 83.2 336.4 82.7 339.3 79.9 336.4 77.2 336.9 76.6 340.5 79.9 336.9 83.2"/>
    <g class="cls-93">
      <g>
        <polygon class="cls-28" points="315.9 142.2 321.4 151.5 315.9 151.5 315.9 142.2"/>
        <polygon class="cls-28" points="315.9 141.1 322.1 151.5 321.4 151.5 315.9 142.2 315.9 141.1"/>
        <polygon class="cls-10" points="315.9 140.7 316.2 140.6 322.8 151.5 322.1 151.5 315.9 141.1 315.9 140.7"/>
        <polygon class="cls-70" points="316.2 140.6 316.7 140.3 323.4 151.5 322.8 151.5 316.2 140.6"/>
        <polygon class="cls-33" points="316.7 140.3 317.2 140 324.1 151.5 323.4 151.5 316.7 140.3"/>
        <polygon class="cls-30" points="317.2 140 317.7 139.7 324.5 151.2 324.1 151.5 324.1 151.5 317.2 140"/>
        <polygon class="cls-81" points="317.7 139.7 318.2 139.5 325 151 324.5 151.2 317.7 139.7"/>
        <polygon class="cls-16" points="318.2 139.5 318.7 139.2 325.5 150.7 325 151 318.2 139.5"/>
        <polygon class="cls-46" points="318.7 139.2 319.1 138.9 326 150.4 325.5 150.7 318.7 139.2"/>
        <polygon class="cls-20" points="319.1 138.9 319.6 138.6 326.5 150.1 326 150.4 319.1 138.9"/>
        <polygon class="cls-23" points="319.6 138.6 320.1 138.4 327 149.9 326.5 150.1 319.6 138.6"/>
        <polygon class="cls-53" points="320.1 138.4 320.6 138.1 327.5 149.6 327 149.9 320.1 138.4"/>
        <polygon class="cls-37" points="320.6 138.1 321.1 137.8 328 149.3 327.5 149.6 320.6 138.1"/>
        <polygon class="cls-40" points="321.1 137.8 321.6 137.6 328.5 149.1 328 149.3 321.1 137.8"/>
        <polygon class="cls-25" points="321.6 137.6 322.1 137.3 329 148.8 328.5 149.1 321.6 137.6"/>
        <polygon class="cls-78" points="322.1 137.3 322.6 137 329.4 148.5 329 148.8 322.1 137.3"/>
        <polygon class="cls-9" points="322.6 137 323.1 136.7 329.9 148.2 329.4 148.5 322.6 137"/>
        <polygon class="cls-56" points="323.1 136.7 323.6 136.5 330.4 148 329.9 148.2 323.1 136.7"/>
        <polygon class="cls-84" points="323.6 136.5 324 136.2 330.9 147.7 330.4 148 323.6 136.5"/>
        <polygon class="cls-22" points="324 136.2 324.5 135.9 331.4 147.4 330.9 147.7 324 136.2"/>
        <polygon class="cls-35" points="324.5 135.9 325 135.6 331.9 147.1 331.4 147.4 324.5 135.9"/>
        <polygon class="cls-3" points="325 135.6 325.5 135.4 332.4 146.9 331.9 147.1 325 135.6"/>
        <polygon class="cls-45" points="325.5 135.4 326 135.1 332.9 146.6 332.4 146.9 325.5 135.4"/>
        <polygon class="cls-75" points="326 135.1 326.5 134.8 333.4 146.3 332.9 146.6 326 135.1"/>
        <polygon class="cls-55" points="326.5 134.8 327 134.5 333.8 146 333.4 146.3 326.5 134.8"/>
        <polygon class="cls-4" points="327 134.5 327.5 134.3 334.3 145.8 333.8 146 327 134.5"/>
        <polygon class="cls-77" points="327.5 134.3 328 134 334.8 145.5 334.3 145.8 327.5 134.3"/>
        <polygon class="cls-44" points="328 134 328.5 133.7 335.3 145.2 334.8 145.5 328 134"/>
        <polygon class="cls-41" points="328.5 133.7 328.9 133.4 335.8 144.9 335.3 145.2 328.5 133.7"/>
        <polygon class="cls-47" points="328.9 133.4 329.4 133.2 336.3 144.7 335.8 144.9 328.9 133.4"/>
        <polygon class="cls-49" points="329.4 133.2 329.9 132.9 336.8 144.4 336.3 144.7 329.4 133.2"/>
        <polygon class="cls-36" points="329.9 132.9 330.4 132.6 337.3 144.1 336.8 144.4 329.9 132.9"/>
        <polygon class="cls-83" points="330.4 132.6 330.9 132.4 337.8 143.9 337.3 144.1 330.4 132.6"/>
        <polygon class="cls-59" points="330.9 132.4 331.4 132.1 338.2 143.6 337.8 143.9 330.9 132.4"/>
        <polygon class="cls-62" points="331.4 132.1 331.9 131.8 338.7 143.3 338.2 143.6 331.4 132.1"/>
        <polygon class="cls-15" points="331.9 131.8 332.4 131.5 339.2 143 338.7 143.3 331.9 131.8"/>
        <polygon class="cls-39" points="332.4 131.5 332.9 131.3 339.7 142.8 339.2 143 332.4 131.5"/>
        <polygon class="cls-64" points="332.9 131.3 333.4 131 340.2 142.5 339.7 142.8 332.9 131.3"/>
        <polygon class="cls-24" points="333.4 131 333.8 130.7 340.7 142.2 340.2 142.5 333.4 131"/>
        <polygon class="cls-21" points="333.8 130.7 334.3 130.4 341.2 141.9 340.7 142.2 333.8 130.7"/>
        <polygon class="cls-73" points="334.3 130.4 334.8 130.2 341.7 141.7 341.2 141.9 334.3 130.4"/>
        <polygon class="cls-51" points="334.8 130.2 335.3 129.9 342.2 141.4 341.7 141.7 334.8 130.2"/>
        <polygon class="cls-50" points="335.3 129.9 335.8 129.6 342.6 141.1 342.2 141.4 335.3 129.9"/>
        <polygon class="cls-34" points="335.8 129.6 336.3 129.4 343.1 140.9 342.6 141.1 335.8 129.6"/>
        <polygon class="cls-27" points="336.3 129.4 336.8 129.1 343.6 140.6 343.1 140.9 336.3 129.4"/>
        <polygon class="cls-61" points="336.8 129.1 337.3 128.8 344.1 140.3 343.6 140.6 336.8 129.1"/>
        <polygon class="cls-19" points="337.3 128.8 337.8 128.5 344.6 140 344.1 140.3 337.3 128.8"/>
        <polygon class="cls-76" points="337.8 128.5 338.2 128.2 345.1 139.8 344.6 140 337.8 128.5"/>
        <polygon class="cls-12" points="338.2 128.2 338.7 128 345.6 139.5 345.1 139.8 338.2 128.2"/>
        <polygon class="cls-60" points="338.7 128 339.2 127.7 346.1 139.2 345.6 139.5 338.7 128"/>
        <polygon class="cls-18" points="339.2 127.7 339.7 127.4 346.6 138.9 346.1 139.2 339.2 127.7"/>
        <polygon class="cls-68" points="339.7 127.4 340.2 127.2 347.1 138.7 346.6 138.9 339.7 127.4"/>
        <polygon class="cls-79" points="340.2 127.2 340.7 126.9 347.5 138.4 347.1 138.7 340.2 127.2"/>
        <polygon class="cls-26" points="340.7 126.9 341.2 126.6 348 138.1 347.5 138.4 340.7 126.9"/>
        <polygon class="cls-1" points="341.2 126.6 341.7 126.3 348.5 137.8 348 138.1 341.2 126.6"/>
        <polygon class="cls-82" points="341.7 126.3 342.2 126.1 349 137.6 348.5 137.8 341.7 126.3"/>
        <polygon class="cls-57" points="342.2 126.1 342.6 125.8 349.5 137.3 349 137.6 342.2 126.1"/>
        <polygon class="cls-86" points="342.6 125.8 343.1 125.5 350 137 349.5 137.3 342.6 125.8"/>
        <polygon class="cls-42" points="343.1 125.5 343.6 125.2 350.5 136.7 350 137 343.1 125.5"/>
        <polygon class="cls-17" points="343.6 125.2 344.1 125 351 136.5 350.5 136.7 343.6 125.2"/>
        <polygon class="cls-32" points="344.1 125 344.6 124.7 351.5 136.2 351 136.5 344.1 125"/>
        <polygon class="cls-14" points="344.6 124.7 345.1 124.4 352 135.9 351.5 136.2 344.6 124.7"/>
        <polygon class="cls-85" points="345.1 124.4 345.6 124.2 352.4 135.6 352 135.9 345.1 124.4"/>
        <polygon class="cls-87" points="345.6 124.2 346.1 123.9 352.9 135.4 352.4 135.6 345.6 124.2"/>
        <polygon class="cls-38" points="346.1 123.9 346.6 123.6 353.4 135.1 352.9 135.4 346.1 123.9"/>
        <polygon class="cls-38" points="346.6 123.6 347 123.3 353.9 134.8 353.4 135.1 346.6 123.6"/>
        <polygon class="cls-69" points="347 123.3 347.5 123.1 354.4 134.6 353.9 134.8 347 123.3"/>
        <polygon class="cls-11" points="347.5 123.1 348 122.8 354.9 134.3 354.4 134.6 347.5 123.1"/>
        <polygon class="cls-43" points="348 122.8 348.5 122.5 355.4 134 354.9 134.3 348 122.8"/>
        <polygon class="cls-52" points="348.5 122.5 349 122.2 355.9 133.7 355.4 134 348.5 122.5"/>
        <polygon class="cls-65" points="349 122.2 349.5 122 356.4 133.5 355.9 133.7 349 122.2"/>
        <polygon class="cls-72" points="349.5 122 350 121.7 356.9 133.2 356.4 133.5 349.5 122"/>
        <polygon class="cls-72" points="350 121.7 350.5 121.4 357.3 132.9 356.9 133.2 350 121.7"/>
        <polygon class="cls-48" points="350.5 121.4 351 121.1 357.8 132.6 357.3 132.9 350.5 121.4"/>
        <polygon class="cls-6" points="351 121.1 351.5 120.9 358.3 132.4 357.8 132.6 351 121.1"/>
        <polygon class="cls-6" points="351.5 120.9 352 120.6 358.8 132.1 358.3 132.4 351.5 120.9"/>
        <polygon class="cls-74" points="352 120.6 352.4 120.3 359.3 131.8 358.8 132.1 352 120.6"/>
        <polygon class="cls-74" points="352.4 120.3 352.9 120.1 359.8 131.6 359.3 131.8 352.4 120.3"/>
        <polygon class="cls-54" points="352.9 120.1 353.4 119.8 360.3 131.3 359.8 131.6 352.9 120.1"/>
        <polygon class="cls-66" points="353.4 119.8 353.9 119.5 360.8 131 360.3 131.3 353.4 119.8"/>
        <polygon class="cls-66" points="353.9 119.5 354.4 119.2 361.2 130.7 360.8 131 353.9 119.5"/>
        <polygon class="cls-71" points="354.4 119.2 354.9 118.9 361.7 130.4 361.2 130.7 354.4 119.2"/>
        <polygon class="cls-71" points="354.9 118.9 355.4 118.7 362.2 130.2 361.7 130.4 354.9 118.9"/>
        <polygon class="cls-89" points="355.4 118.7 355.9 118.4 362.7 129.9 362.2 130.2 355.4 118.7"/>
        <polygon class="cls-5" points="355.9 118.4 356.4 118.1 363.2 129.6 362.7 129.9 355.9 118.4"/>
        <polygon class="cls-5" points="356.4 118.1 356.8 117.9 363.7 129.4 363.2 129.6 356.4 118.1"/>
        <polygon class="cls-58" points="356.8 117.9 357.3 117.6 364.2 129.1 363.7 129.4 356.8 117.9"/>
        <polygon class="cls-58" points="357.3 117.6 357.8 117.3 364.7 128.8 364.2 129.1 357.3 117.6"/>
        <polygon class="cls-58" points="357.8 117.3 358.3 117 365.2 128.5 364.7 128.8 357.8 117.3"/>
        <polygon class="cls-13" points="358.3 117 358.8 116.8 365.7 128.3 365.2 128.5 358.3 117"/>
        <polygon class="cls-13" points="358.8 116.8 359.3 116.5 366.1 128 365.7 128.3 358.8 116.8"/>
        <polygon class="cls-13" points="359.3 116.5 359.8 116.2 366.6 127.7 366.1 128 359.3 116.5"/>
        <polygon class="cls-7" points="359.8 116.2 360.3 115.9 367.1 127.4 366.6 127.7 359.8 116.2"/>
        <polygon class="cls-7" points="360.3 115.9 360.8 115.7 367.6 127.2 367.1 127.4 360.3 115.9"/>
        <polygon class="cls-7" points="360.8 115.7 361.2 115.4 368.1 126.9 367.6 127.2 360.8 115.7"/>
        <polygon class="cls-7" points="361.2 115.4 361.7 115.1 368.6 126.6 368.1 126.9 361.2 115.4"/>
        <polygon class="cls-7" points="361.7 115.1 362.2 114.8 369.1 126.3 368.6 126.6 361.7 115.1"/>
        <polygon class="cls-88" points="362.2 114.8 362.7 114.6 369.6 126.1 369.1 126.3 362.2 114.8"/>
        <polygon class="cls-88" points="362.7 114.6 363.2 114.3 363.2 114.3 370.1 125.8 369.6 126.1 362.7 114.6"/>
        <polygon class="cls-88" points="363.9 114.3 370.5 125.5 370.1 125.8 363.2 114.3 363.9 114.3"/>
        <polygon class="cls-88" points="364.5 114.3 371 125.2 370.5 125.5 363.9 114.3 364.5 114.3"/>
        <polygon class="cls-88" points="365.2 114.3 371.4 124.7 371.4 125.1 371 125.2 364.5 114.3 365.2 114.3"/>
        <polygon class="cls-88" points="365.8 114.3 371.4 123.6 371.4 124.7 365.2 114.3 365.8 114.3"/>
        <polygon class="cls-88" points="371.4 123.6 365.8 114.3 371.4 114.3 371.4 123.6"/>
      </g>
    </g>
    <polygon class="cls-29" points="321.9 152.3 321 150.7 370 123.3 365.5 115.6 316.4 143 315.4 141.4 366.2 113 372.7 124 321.9 152.3"/>
    <path class="cls-29" d="M269.3,175.9l-.5-.9,2.6-1.5.5.9-2.6,1.5ZM274.5,172.9l-.5-.9,2.6-1.5.5.9-2.6,1.5ZM279.7,169.9l-.5-.9,2.6-1.5.5.9-2.6,1.5ZM285,166.9l-.5-.9,2.6-1.5.5.9-2.6,1.5ZM290.2,163.9l-.5-.9,2.6-1.5.5.9-2.6,1.5ZM295.4,160.9l-.5-.9,2.6-1.5.5.9-2.6,1.5ZM300.7,157.9l-.5-.9,2.6-1.5.5.9-2.6,1.5ZM305.9,154.9l-.5-.9,2.6-1.5.5.9-2.6,1.5ZM311.1,151.9l-.5-.9,2.6-1.5.5.9-2.6,1.5ZM316.4,148.9l-.5-.9,2.6-1.5.5.9-2.6,1.5ZM321.6,145.9l-.5-.9,2.6-1.5.5.9-2.6,1.5ZM326.9,142.9l-.5-.9,2.6-1.5.5.9-2.6,1.5ZM332.1,139.9l-.5-.9,2.6-1.5.5.9-2.6,1.5ZM337.3,136.9l-.5-.9,2.6-1.5.5.9-2.6,1.5ZM342.6,133.9l-.5-.9,2.6-1.5.5.9-2.6,1.5ZM347.8,130.9l-.5-.9,2.6-1.5.5.9-2.6,1.5ZM353,127.9l-.5-.9,2.6-1.5.5.9-2.6,1.5ZM358.3,124.9l-.5-.9,1.4-.8.5.9-1.4.8Z"/>
    <polygon class="cls-29" points="358.8 127.5 358 127.2 359.2 123.4 355.3 122.5 355.5 121.8 360.2 122.8 358.8 127.5"/>
    <g class="cls-96">
      <g>
        <rect class="cls-28" x="100.5" y="15.7" width="1.1" height="126.9"/>
        <rect class="cls-10" x="101.6" y="15.7" width="1.1" height="126.9"/>
        <rect class="cls-70" x="102.7" y="15.7" width="1.1" height="126.9"/>
        <rect class="cls-33" x="103.8" y="15.7" width="1.1" height="126.9"/>
        <rect class="cls-30" x="104.8" y="15.7" width="1.1" height="126.9"/>
        <rect class="cls-81" x="105.9" y="15.7" width="1.1" height="126.9"/>
        <rect class="cls-16" x="107" y="15.7" width="1.1" height="126.9"/>
        <rect class="cls-46" x="108.1" y="15.7" width="1.1" height="126.9"/>
        <rect class="cls-20" x="109.1" y="15.7" width="1.1" height="126.9"/>
        <rect class="cls-23" x="110.2" y="15.7" width="1.1" height="126.9"/>
        <rect class="cls-53" x="111.3" y="15.7" width="1.1" height="126.9"/>
        <rect class="cls-37" x="112.4" y="15.7" width="1.1" height="126.9"/>
        <rect class="cls-40" x="113.4" y="15.7" width="1.1" height="126.9"/>
        <rect class="cls-25" x="114.5" y="15.7" width="1.1" height="126.9"/>
        <rect class="cls-78" x="115.6" y="15.7" width="1.1" height="126.9"/>
        <rect class="cls-9" x="116.7" y="15.7" width="1.1" height="126.9"/>
        <rect class="cls-56" x="117.8" y="15.7" width="1.1" height="126.9"/>
        <rect class="cls-84" x="118.8" y="15.7" width="1.1" height="126.9"/>
        <rect class="cls-22" x="119.9" y="15.7" width="1.1" height="126.9"/>
        <rect class="cls-35" x="121" y="15.7" width="1.1" height="126.9"/>
        <rect class="cls-3" x="122.1" y="15.7" width="1.1" height="126.9"/>
        <rect class="cls-45" x="123.1" y="15.7" width="1.1" height="126.9"/>
        <rect class="cls-75" x="124.2" y="15.7" width="1.1" height="126.9"/>
        <rect class="cls-55" x="125.3" y="15.7" width="1.1" height="126.9"/>
        <rect class="cls-4" x="126.4" y="15.7" width="1.1" height="126.9"/>
        <rect class="cls-77" x="127.4" y="15.7" width="1.1" height="126.9"/>
        <rect class="cls-44" x="128.5" y="15.7" width="1.1" height="126.9"/>
        <rect class="cls-41" x="129.6" y="15.7" width="1.1" height="126.9"/>
        <rect class="cls-47" x="130.7" y="15.7" width="1.1" height="126.9"/>
        <rect class="cls-49" x="131.8" y="15.7" width="1.1" height="126.9"/>
        <rect class="cls-36" x="132.8" y="15.7" width="1.1" height="126.9"/>
        <rect class="cls-83" x="133.9" y="15.7" width="1.1" height="126.9"/>
        <rect class="cls-59" x="135" y="15.7" width="1.1" height="126.9"/>
        <rect class="cls-62" x="136.1" y="15.7" width="1.1" height="126.9"/>
        <rect class="cls-15" x="137.1" y="15.7" width="1.1" height="126.9"/>
        <rect class="cls-39" x="138.2" y="15.7" width="1.1" height="126.9"/>
        <rect class="cls-64" x="139.3" y="15.7" width="1.1" height="126.9"/>
        <rect class="cls-24" x="140.4" y="15.7" width="1.1" height="126.9"/>
        <rect class="cls-21" x="141.4" y="15.7" width="1.1" height="126.9"/>
        <rect class="cls-73" x="142.5" y="15.7" width="1.1" height="126.9"/>
        <rect class="cls-51" x="143.6" y="15.7" width="1.1" height="126.9"/>
        <rect class="cls-50" x="144.7" y="15.7" width="1.1" height="126.9"/>
        <rect class="cls-34" x="145.8" y="15.7" width="1.1" height="126.9"/>
        <rect class="cls-27" x="146.8" y="15.7" width="1.1" height="126.9"/>
        <rect class="cls-61" x="147.9" y="15.7" width="1.1" height="126.9"/>
        <rect class="cls-19" x="149" y="15.7" width="1.1" height="126.9"/>
        <rect class="cls-76" x="150.1" y="15.7" width="1.1" height="126.9"/>
        <rect class="cls-12" x="151.1" y="15.7" width="1.1" height="126.9"/>
        <rect class="cls-60" x="152.2" y="15.7" width="1.1" height="126.9"/>
        <rect class="cls-18" x="153.3" y="15.7" width="1.1" height="126.9"/>
        <rect class="cls-68" x="154.4" y="15.7" width="1.1" height="126.9"/>
        <rect class="cls-79" x="155.4" y="15.7" width="1.1" height="126.9"/>
        <rect class="cls-26" x="156.5" y="15.7" width="1.1" height="126.9"/>
        <rect class="cls-1" x="157.6" y="15.7" width="1.1" height="126.9"/>
        <rect class="cls-82" x="158.7" y="15.7" width="1.1" height="126.9"/>
        <rect class="cls-57" x="159.8" y="15.7" width="1.1" height="126.9"/>
        <rect class="cls-86" x="160.8" y="15.7" width="1.1" height="126.9"/>
        <rect class="cls-42" x="161.9" y="15.7" width="1.1" height="126.9"/>
        <rect class="cls-17" x="163" y="15.7" width="1.1" height="126.9"/>
        <rect class="cls-32" x="164.1" y="15.7" width="1.1" height="126.9"/>
        <rect class="cls-14" x="165.1" y="15.7" width="1.1" height="126.9"/>
        <rect class="cls-85" x="166.2" y="15.7" width="1.1" height="126.9"/>
        <rect class="cls-87" x="167.3" y="15.7" width="1.1" height="126.9"/>
        <rect class="cls-38" x="168.4" y="15.7" width="1.1" height="126.9"/>
        <rect class="cls-38" x="169.4" y="15.7" width="1.1" height="126.9"/>
        <rect class="cls-69" x="170.5" y="15.7" width="1.1" height="126.9"/>
        <rect class="cls-11" x="171.6" y="15.7" width="1.1" height="126.9"/>
        <rect class="cls-43" x="172.7" y="15.7" width="1.1" height="126.9"/>
        <rect class="cls-52" x="173.8" y="15.7" width="1.1" height="126.9"/>
        <rect class="cls-65" x="174.8" y="15.7" width="1.1" height="126.9"/>
        <rect class="cls-72" x="175.9" y="15.7" width="1.1" height="126.9"/>
        <rect class="cls-72" x="177" y="15.7" width="1.1" height="126.9"/>
        <rect class="cls-48" x="178.1" y="15.7" width="1.1" height="126.9"/>
        <rect class="cls-6" x="179.1" y="15.7" width="1.1" height="126.9"/>
        <rect class="cls-6" x="180.2" y="15.7" width="1.1" height="126.9"/>
        <rect class="cls-74" x="181.3" y="15.7" width="1.1" height="126.9"/>
        <rect class="cls-74" x="182.4" y="15.7" width="1.1" height="126.9"/>
        <rect class="cls-54" x="183.4" y="15.7" width="1.1" height="126.9"/>
        <rect class="cls-66" x="184.5" y="15.7" width="1.1" height="126.9"/>
        <rect class="cls-66" x="185.6" y="15.7" width="1.1" height="126.9"/>
        <rect class="cls-71" x="186.7" y="15.7" width="1.1" height="126.9"/>
        <rect class="cls-71" x="187.8" y="15.7" width="1.1" height="126.9"/>
        <rect class="cls-89" x="188.8" y="15.7" width="1.1" height="126.9"/>
        <rect class="cls-5" x="189.9" y="15.7" width="1.1" height="126.9"/>
        <rect class="cls-5" x="191" y="15.7" width="1.1" height="126.9"/>
        <rect class="cls-58" x="192.1" y="15.7" width="1.1" height="126.9"/>
        <rect class="cls-58" x="193.1" y="15.7" width="1.1" height="126.9"/>
        <rect class="cls-58" x="194.2" y="15.7" width="1.1" height="126.9"/>
        <rect class="cls-13" x="195.3" y="15.7" width="1.1" height="126.9"/>
        <rect class="cls-13" x="196.4" y="15.7" width="1.1" height="126.9"/>
        <rect class="cls-13" x="197.4" y="15.7" width="1.1" height="126.9"/>
        <rect class="cls-7" x="198.5" y="15.7" width="1.1" height="126.9"/>
        <rect class="cls-7" x="199.6" y="15.7" width="1.1" height="126.9"/>
        <rect class="cls-7" x="200.7" y="15.7" width="1.1" height="126.9"/>
        <rect class="cls-7" x="201.8" y="15.7" width="1.1" height="126.9"/>
        <rect class="cls-7" x="202.8" y="15.7" width="1.1" height="126.9"/>
        <rect class="cls-88" x="203.9" y="15.7" width="1.1" height="126.9"/>
        <rect class="cls-88" x="205" y="15.7" width="1.1" height="126.9"/>
        <rect class="cls-88" x="206.1" y="15.7" width="1.1" height="126.9"/>
        <rect class="cls-88" x="207.1" y="15.7" width="1.1" height="126.9"/>
        <rect class="cls-88" x="208.2" y="15.7" width="1.1" height="126.9"/>
        <rect class="cls-88" x="209.3" y="15.7" width="1.1" height="126.9"/>
      </g>
    </g>
    <path class="cls-29" d="M155.2,145.5c-.5,0-.9-.1-1.3-.4l-54.6-31.5c-.8-.5-1.3-1.3-1.3-2.3v-63c0-.9.5-1.8,1.3-2.3l54.6-31.5c.8-.5,1.8-.5,2.6,0l54.6,31.5c.8.5,1.3,1.3,1.3,2.3v50h-2.6v-50l-54.6-31.5-54.6,31.5v63.1l54.6,31.5,54.6-31.5v-17h2.6v17c0,.9-.5,1.8-1.3,2.3l-54.6,31.5c-.4.2-.8.3-1.3.3Z"/>
    <path class="cls-80" d="M147.1,36.1c4.7-4.6,12.2-4.5,16.8.2s4.5,12.2-.2,16.8-12.2,4.5-16.8-.2c-2.2-2.2-3.4-5.2-3.4-8.3s.9-5.1,2.4-7.2"/>
    <path class="cls-29" d="M155.4,57.5c-7.1,0-12.9-5.8-12.9-12.9s.9-5.6,2.6-7.8c.2-.3.6-.5,1-.4-.1-.4,0-.7.3-1,5.1-5,13.2-4.9,18.2.2,5,5.1,4.9,13.2-.2,18.2-2.3,2.4-5.6,3.7-9,3.7h0ZM147,37.1c.1.3,0,.7-.2.9-1.5,1.9-2.2,4.2-2.2,6.6,0,6,4.9,10.8,10.9,10.8s10.8-4.9,10.8-10.9-4.9-10.8-10.9-10.8-5.5,1.1-7.6,3.1c-.2.2-.5.3-.8.3Z"/>
    <path class="cls-29" d="M157.3,51.3h-6.4c-.9,0-1.7-.6-1.8-1.5v-6.8c-.1-.9.6-1.7,1.5-1.8h8.9c.9,0,1.7.6,1.8,1.5v6.9c.1.9-.6,1.7-1.5,1.8h-.3c-.8,0-1.5,0-2.2,0ZM151,49.3h8.2v-6.2h-8.2v6.2Z"/>
    <path class="cls-29" d="M150.7,42.6h0c-.6,0-1-.5-1-1.1h0c0-3,2.3-5.4,5.3-5.5.8,0,1.7.2,2.4.5,1.4.7,2.4,1.9,2.7,3.4.1.2.1.5.1.7s.1.4.1.5c.1.5-.2,1.1-.7,1.2h0c-.5,0-1.1-.2-1.2-.7h0c-.1-.2-.1-.4-.1-.7s-.1-.4-.1-.5c-.2-.9-.8-1.7-1.7-2.1-.9-.4-1.9-.4-2.8,0-1.3.6-2.1,1.9-2.1,3.3.1.7-.3,1.1-.9,1.1Z"/>
    <path class="cls-29" d="M154.4,47.5h0v.9c0,.2.1.2.3.2h.9c.2,0,.3,0,.3-.3v-1.6c0-.2.1-.3.2-.4.5-.3.8-.9.6-1.5s-.8-1-1.5-1c-.7,0-1.3.3-1.6.9-.2.6,0,1.2.6,1.5.2,0,.3.3.3.5-.1.3-.1.5-.1.8Z"/>
    <g id="Scone_logo_white" data-name="Scone logo white">
      <g class="cls-95">
        <g class="cls-94">
          <g>
            <path class="cls-90" d="M128.8,106.1h-.9c-.2,0-.4.2-.4.3v.9c0,.2.2.4.4.3h.9c.2,0,.4-.2.4-.3v-.9c0-.2-.2-.3-.4-.3M125.6,107.7h.9c.2,0,.3-.2.3-.3v-.9c0-.2-.2-.3-.3-.3h-.9c-.2,0-.4.2-.4.3v.9c.1.1.2.3.4.3M124.6,107.3v-.9c0-.2-.2-.3-.3-.3h-.9c-.2,0-.4.2-.4.3v.9c0,.2.2.4.4.3h.9c.2,0,.3-.1.3-.3M128.9,108.3c-.1,0-.3,0-.3.3v1.1c0,0,.1.3.2.3s.3,0,.3-.2h0v-1.2c.1-.1,0-.2-.2-.3h0M126.4,108.7v.9c0,.2.2.4.3.4h.9c.2,0,.4-.2.4-.3h0v-.9c0-.2,0-.4-.3-.4h-.9c-.3,0-.4.1-.4.3M125.7,109.6v-.9c0-.2-.2-.4-.4-.4h-.9c-.2,0-.4.2-.3.4v.9c0,.2.2.4.3.4h.9c.3,0,.4-.2.4-.4h0M128.8,110.6h-.9c-.2,0-.4.2-.4.3v.9c0,.2.2.4.4.3h.9c.2,0,.4-.2.4-.3v-.8c0-.2-.2-.4-.4-.4M126.4,110.7h-.9c-.2,0-.3.2-.3.3v.9c0,.2.2.3.3.3h.9c.2,0,.3-.2.3-.3v-.9c0-.2-.1-.3-.3-.3"/>
            <path class="cls-90" d="M130,105.7c.4.3.9.5,1.4.4h0v2.6c0,1-1.2,1.6-1.5,1.7h0v-4.7h.1"/>
            <path class="cls-90" d="M127.2,105.6c2,0,2.3-.7,2.3-.7h.2s.3.7,2.2.7.1,0,.1,0v3.3c0,1.1-2,2.3-2,2.3,0,0-.1,0-.1,0v.8h.2c.7-.4,2.8-1.6,2.8-3v-4.2c0,0-.1,0-.2,0-2.5,0-2.9-.9-2.9-.9h-.3s-.4.9-2.9.9,0,0,0,0v.5s0,0,0,0h.7"/>
            <path class="cls-63" d="M134.6,111l1-.4c.2.5.7.8,1.3.8s.5,0,.8-.2c.2,0,.3-.3.3-.5,0-.5-.7-.8-1.2-1.1h0c-.4-.2-.8-.4-1.1-.6-.4-.3-.6-.7-.6-1.2s.2-.9.6-1.2c.4-.3.9-.5,1.5-.5s1.5.4,1.9,1.1l-1,.4c-.1-.2-.2-.3-.4-.4s-.4,0-.6,0c-.6,0-1,.3-1,.7s.2.5.4.6c.3.2.6.3.9.5h.1c.8.4,1.7.8,1.7,1.8s-.2,1-.7,1.3-1,.5-1.6.5c-.9-.1-1.8-.6-2.3-1.5"/>
            <path class="cls-63" d="M143.4,112.3c-.4,0-.8,0-1.2-.2s-.7-.4-1-.7c-.3-.3-.5-.6-.7-1s-.2-.8-.2-1.2.1-.8.2-1.2c.3-.7.9-1.3,1.7-1.7.4-.2.8-.2,1.2-.2s1,0,1.4.3c.4.2.8.5,1.1.9l-.8.6c-.2-.2-.4-.5-.7-.6-.3-.2-.7-.2-1-.2-.6,0-1.1.2-1.5.6s-.6.9-.6,1.5.2,1.1.6,1.5c.4.4.9.6,1.5.6s.7,0,1.1-.3c.3-.2.6-.5.8-.8l.9.5c-.3.5-.7.9-1.1,1.2-.7.3-1.2.4-1.7.4"/>
            <path class="cls-63" d="M150.2,112.3c-.4,0-.8,0-1.2-.2-.4-.2-.7-.4-1-.7-.3-.3-.5-.6-.7-1s-.2-.8-.2-1.2.1-.8.2-1.2c.3-.7.9-1.3,1.7-1.7.4-.2.8-.2,1.2-.2s.8,0,1.2.2c.4.2.7.4,1,.7.3.3.5.6.7,1s.2.8.2,1.2-.1.8-.2,1.2c-.2.4-.4.7-.7,1s-.6.5-1,.7c-.3.2-.8.2-1.2.2M150.2,107.1c-.6,0-1.1.2-1.5.6s-.6.9-.6,1.5.2,1.1.6,1.5c.4.4.9.6,1.5.6s1.1-.2,1.5-.6.6-.9.6-1.5-.2-1.1-.6-1.5c-.4-.4-.9-.6-1.5-.6"/>
            <polygon class="cls-63" points="160.5 106.1 160.5 112.5 156.1 108.4 156.1 112.2 155 112.2 155 105.9 159.4 109.9 159.4 106.1 160.5 106.1"/>
            <polygon class="cls-63" points="163.4 107.1 163.4 108.7 166.5 108.7 166.5 109.6 163.4 109.6 163.4 111.3 166.9 111.3 166.9 112.2 162.3 112.2 162.3 106.1 166.9 106.1 166.9 107.1 163.4 107.1"/>
          </g>
        </g>
      </g>
    </g>
    <path class="cls-80" d="M137.6,78.6h-1.4l-.2-1-.6-.3c-.2,0-.5,0-.7,0-.3,0-.6,0-.9.3-.2,0-.3.4-.3.6s.1.5.3.6c.4.2.8.4,1.3.4.8,0,1.5.4,2.2.9.5.4.7,1,.7,1.6s-.3,1.4-.9,1.8c-.7.5-1.6.7-2.4.7s-1.1,0-1.7-.3c-.5-.2-1-.4-1.4-.8v-1.8h1.5l.3,1c.2,0,.3.2.5.2s.5,0,.7,0c.3,0,.7,0,1-.2.3-.2.5-.7.2-1-.1,0-.1-.2-.2-.2-.4-.2-.8-.4-1.3-.5-.8,0-1.5-.4-2.1-.8-.5-.4-.7-.9-.7-1.5s.3-1.3.8-1.7c.7-.5,1.5-.8,2.4-.7.6,0,1.2,0,1.8.2.5,0,.9.4,1.3.7l-.2,1.8Z"/>
    <path class="cls-80" d="M142.7,84c-1,0-2-.4-2.8-1.1-.7-.8-1-1.8-1-2.8v-.3c0-1.1.3-2.1,1-2.9,1.4-1.5,3.7-1.5,5.1-.2.6.7.9,1.7.9,2.6v1.2h-4.8c0,.5.2.9.5,1.3.3.3.8.5,1.3.5s.8,0,1.2-.2c.3,0,.7-.3,1-.4l.6,1.3c-.4.3-.8.5-1.3.7-.5.2-1.1.3-1.7.3ZM142.5,77.4c-.4,0-.7.2-.9.5-.2.4-.4.8-.4,1.2h2.6v-.2c0-.4-.1-.8-.3-1.1-.3-.3-.6-.5-1-.4h0Z"/>
    <path class="cls-80" d="M147.1,82.5l1-.2v-4.9l-1.1-.2v-1.3h3.1v1.2c.2-.4.5-.7.8-1,.3-.2.6-.4,1-.3h.4c.1,0,.2,0,.3,0l-.2,2h-.9c-.3,0-.5,0-.8.2-.2,0-.4.3-.5.5v3.9l1,.2v1.3h-4.2v-1.5Z"/>
    <path class="cls-80" d="M156.8,77.2h-.8c0,0,1,3.7,1,3.7v.8h.1v-.8c.1,0,1.1-3.6,1.1-3.6h-.8v-1.4h3.6v1.3h-.7c0,0-2.4,6.7-2.4,6.7h-2.1l-2.4-6.6h-.7v-1.4h3.6l.5,1.3Z"/>
    <path class="cls-80" d="M162,82.5l1-.2v-4.9l-1.1-.2v-1.3h3.3v6.5l1,.2v1.3h-4.2v-1.4ZM165.2,73.9h-2.2v-1.6h2.2v1.6Z"/>
    <path class="cls-80" d="M170.6,82.3c.3,0,.7,0,.9-.3.2-.2.4-.6.4-.9h2c0,.9-.3,1.6-.9,2.1-.6.6-1.5.9-2.3.8-1,0-2.1-.4-2.8-1.1-.7-.8-1-1.8-1-2.9v-.2c0-1.1.3-2.1,1-2.9s1.8-1.2,2.8-1.1c.6,0,1.2,0,1.7.3.5.2.9.4,1.3.8v2.1h-1.7l-.4-1.2c-.1,0-.3-.2-.4-.2-.2,0-.4,0-.5,0-.5,0-1,.2-1.3.7s-.4,1.1-.4,1.7h0c0,.7.1,1.3.4,1.8.2.5.7.7,1.2.6Z"/>
    <path class="cls-80" d="M178.7,84c-1,0-2-.4-2.8-1.1-.7-.8-1-1.8-1-2.8v-.3c0-1.1.3-2.1,1-2.9,1.4-1.5,3.7-1.5,5.1-.2.6.7.9,1.7.9,2.6v1.2h-4.8c0,.5.2.9.5,1.3.3.3.8.5,1.3.5s.8,0,1.2-.2c.3,0,.7-.3,1-.4l.6,1.3c-.4.3-.8.5-1.3.7-.5.2-1.1.3-1.7.3ZM178.5,77.4c-.4,0-.7.2-.9.5-.2.4-.4.8-.4,1.2h2.6v-.2c0-.4-.1-.8-.3-1.1-.3-.3-.6-.5-1-.4h0Z"/>
    <path class="cls-31" d="M201.6,96h-90.3c-1.9,0-3.5-1.6-3.5-3.5v-24.9c0-1.9,1.6-3.5,3.5-3.5h90.3c1.9,0,3.5,1.6,3.5,3.5v24.8c0,2-1.5,3.6-3.5,3.6q0,0,0,0ZM111.3,67.1c-.3,0-.5.2-.5.5h0v24.8c0,.3.2.5.5.5h90.3c.3,0,.5-.2.5-.5v-24.8c0-.3-.2-.5-.5-.5h-90.3Z"/>
    <path class="cls-29" d="M189.8,107.3h-9c-.6-2.2-2.8-3.6-5.1-3.1-2.2.6-3.6,2.8-3.1,5.1.6,2.2,2.8,3.6,5.1,3.1,1.5-.4,2.7-1.5,3.1-3.1h2.6l1.2,1.2,1.2-1.2h.1l.8.8.7-.7,1.1,1.1,1.3-1.3,1-.9-1-1ZM175.1,109.4c-.6,0-1.1-.5-1.1-1.1s.5-1.1,1.1-1.1,1.1.5,1.1,1.1-.5,1.1-1.1,1.1h0Z"/>
    <g class="cls-100">
      <g>
        <rect class="cls-28" x="348.9" y="16.7" width="1.1" height="126.8"/>
        <rect class="cls-10" x="350" y="16.7" width="1.1" height="126.8"/>
        <rect class="cls-70" x="351.1" y="16.7" width="1.1" height="126.8"/>
        <rect class="cls-33" x="352.2" y="16.7" width="1.1" height="126.8"/>
        <rect class="cls-30" x="353.2" y="16.7" width="1.1" height="126.8"/>
        <rect class="cls-81" x="354.3" y="16.7" width="1.1" height="126.8"/>
        <rect class="cls-16" x="355.4" y="16.7" width="1.1" height="126.8"/>
        <rect class="cls-46" x="356.5" y="16.7" width="1.1" height="126.8"/>
        <rect class="cls-20" x="357.6" y="16.7" width="1.1" height="126.8"/>
        <rect class="cls-23" x="358.6" y="16.7" width="1.1" height="126.8"/>
        <rect class="cls-53" x="359.7" y="16.7" width="1.1" height="126.8"/>
        <rect class="cls-37" x="360.8" y="16.7" width="1.1" height="126.8"/>
        <rect class="cls-40" x="361.9" y="16.7" width="1.1" height="126.8"/>
        <rect class="cls-25" x="362.9" y="16.7" width="1.1" height="126.8"/>
        <rect class="cls-78" x="364" y="16.7" width="1.1" height="126.8"/>
        <rect class="cls-9" x="365.1" y="16.7" width="1.1" height="126.8"/>
        <rect class="cls-56" x="366.2" y="16.7" width="1.1" height="126.8"/>
        <rect class="cls-84" x="367.2" y="16.7" width="1.1" height="126.8"/>
        <rect class="cls-22" x="368.3" y="16.7" width="1.1" height="126.8"/>
        <rect class="cls-35" x="369.4" y="16.7" width="1.1" height="126.8"/>
        <rect class="cls-3" x="370.5" y="16.7" width="1.1" height="126.8"/>
        <rect class="cls-45" x="371.6" y="16.7" width="1.1" height="126.8"/>
        <rect class="cls-75" x="372.6" y="16.7" width="1.1" height="126.8"/>
        <rect class="cls-55" x="373.7" y="16.7" width="1.1" height="126.8"/>
        <rect class="cls-4" x="374.8" y="16.7" width="1.1" height="126.8"/>
        <rect class="cls-77" x="375.9" y="16.7" width="1.1" height="126.8"/>
        <rect class="cls-44" x="376.9" y="16.7" width="1.1" height="126.8"/>
        <rect class="cls-41" x="378" y="16.7" width="1.1" height="126.8"/>
        <rect class="cls-47" x="379.1" y="16.7" width="1.1" height="126.8"/>
        <rect class="cls-49" x="380.2" y="16.7" width="1.1" height="126.8"/>
        <rect class="cls-36" x="381.2" y="16.7" width="1.1" height="126.8"/>
        <rect class="cls-83" x="382.3" y="16.7" width="1.1" height="126.8"/>
        <rect class="cls-59" x="383.4" y="16.7" width="1.1" height="126.8"/>
        <rect class="cls-62" x="384.5" y="16.7" width="1.1" height="126.8"/>
        <rect class="cls-15" x="385.6" y="16.7" width="1.1" height="126.8"/>
        <rect class="cls-39" x="386.6" y="16.7" width="1.1" height="126.8"/>
        <rect class="cls-64" x="387.7" y="16.7" width="1.1" height="126.8"/>
        <rect class="cls-24" x="388.8" y="16.7" width="1.1" height="126.8"/>
        <rect class="cls-21" x="389.9" y="16.7" width="1.1" height="126.8"/>
        <rect class="cls-73" x="390.9" y="16.7" width="1.1" height="126.8"/>
        <rect class="cls-51" x="392" y="16.7" width="1.1" height="126.8"/>
        <rect class="cls-50" x="393.1" y="16.7" width="1.1" height="126.8"/>
        <rect class="cls-34" x="394.2" y="16.7" width="1.1" height="126.8"/>
        <rect class="cls-27" x="395.2" y="16.7" width="1.1" height="126.8"/>
        <rect class="cls-61" x="396.3" y="16.7" width="1.1" height="126.8"/>
        <rect class="cls-19" x="397.4" y="16.7" width="1.1" height="126.8"/>
        <rect class="cls-76" x="398.5" y="16.7" width="1.1" height="126.8"/>
        <rect class="cls-12" x="399.6" y="16.7" width="1.1" height="126.8"/>
        <rect class="cls-60" x="400.6" y="16.7" width="1.1" height="126.8"/>
        <rect class="cls-18" x="401.7" y="16.7" width="1.1" height="126.8"/>
        <rect class="cls-68" x="402.8" y="16.7" width="1.1" height="126.8"/>
        <rect class="cls-79" x="403.9" y="16.7" width="1.1" height="126.8"/>
        <rect class="cls-26" x="404.9" y="16.7" width="1.1" height="126.8"/>
        <rect class="cls-1" x="406" y="16.7" width="1.1" height="126.8"/>
        <rect class="cls-82" x="407.1" y="16.7" width="1.1" height="126.8"/>
        <rect class="cls-57" x="408.2" y="16.7" width="1.1" height="126.8"/>
        <rect class="cls-86" x="409.2" y="16.7" width="1.1" height="126.8"/>
        <rect class="cls-42" x="410.3" y="16.7" width="1.1" height="126.8"/>
        <rect class="cls-17" x="411.4" y="16.7" width="1.1" height="126.8"/>
        <rect class="cls-32" x="412.5" y="16.7" width="1.1" height="126.8"/>
        <rect class="cls-14" x="413.6" y="16.7" width="1.1" height="126.8"/>
        <rect class="cls-85" x="414.6" y="16.7" width="1.1" height="126.8"/>
        <rect class="cls-87" x="415.7" y="16.7" width="1.1" height="126.8"/>
        <rect class="cls-38" x="416.8" y="16.7" width="1.1" height="126.8"/>
        <rect class="cls-38" x="417.9" y="16.7" width="1.1" height="126.8"/>
        <rect class="cls-69" x="418.9" y="16.7" width="1.1" height="126.8"/>
        <rect class="cls-11" x="420" y="16.7" width="1.1" height="126.8"/>
        <rect class="cls-43" x="421.1" y="16.7" width="1.1" height="126.8"/>
        <rect class="cls-52" x="422.2" y="16.7" width="1.1" height="126.8"/>
        <rect class="cls-65" x="423.2" y="16.7" width="1.1" height="126.8"/>
        <rect class="cls-72" x="424.3" y="16.7" width="1.1" height="126.8"/>
        <rect class="cls-72" x="425.4" y="16.7" width="1.1" height="126.8"/>
        <rect class="cls-48" x="426.5" y="16.7" width="1.1" height="126.8"/>
        <rect class="cls-6" x="427.6" y="16.7" width="1.1" height="126.8"/>
        <rect class="cls-6" x="428.6" y="16.7" width="1.1" height="126.8"/>
        <rect class="cls-74" x="429.7" y="16.7" width="1.1" height="126.8"/>
        <rect class="cls-74" x="430.8" y="16.7" width="1.1" height="126.8"/>
        <rect class="cls-54" x="431.9" y="16.7" width="1.1" height="126.8"/>
        <rect class="cls-66" x="433" y="16.7" width="1.1" height="126.8"/>
        <rect class="cls-66" x="434" y="16.7" width="1.1" height="126.8"/>
        <rect class="cls-71" x="435.1" y="16.7" width="1.1" height="126.8"/>
        <rect class="cls-71" x="436.2" y="16.7" width="1.1" height="126.8"/>
        <rect class="cls-89" x="437.2" y="16.7" width="1.1" height="126.8"/>
        <rect class="cls-5" x="438.3" y="16.7" width="1.1" height="126.8"/>
        <rect class="cls-5" x="439.4" y="16.7" width="1.1" height="126.8"/>
        <rect class="cls-58" x="440.5" y="16.7" width="1.1" height="126.8"/>
        <rect class="cls-58" x="441.6" y="16.7" width="1.1" height="126.8"/>
        <rect class="cls-58" x="442.6" y="16.7" width="1.1" height="126.8"/>
        <rect class="cls-13" x="443.7" y="16.7" width="1.1" height="126.8"/>
        <rect class="cls-13" x="444.8" y="16.7" width="1.1" height="126.8"/>
        <rect class="cls-13" x="445.9" y="16.7" width="1.1" height="126.8"/>
        <rect class="cls-7" x="447" y="16.7" width="1.1" height="126.8"/>
        <rect class="cls-7" x="448" y="16.7" width="1.1" height="126.8"/>
        <rect class="cls-7" x="449.1" y="16.7" width="1.1" height="126.8"/>
        <rect class="cls-7" x="450.2" y="16.7" width="1.1" height="126.8"/>
        <rect class="cls-7" x="451.2" y="16.7" width="1.1" height="126.8"/>
        <rect class="cls-88" x="452.3" y="16.7" width="1.1" height="126.8"/>
        <rect class="cls-88" x="453.4" y="16.7" width="1.1" height="126.8"/>
        <rect class="cls-88" x="454.5" y="16.7" width="1.1" height="126.8"/>
        <rect class="cls-88" x="455.6" y="16.7" width="1.1" height="126.8"/>
        <rect class="cls-88" x="456.6" y="16.7" width="1.1" height="126.8"/>
        <rect class="cls-88" x="457.7" y="16.7" width="1.1" height="126.8"/>
      </g>
    </g>
    <path class="cls-29" d="M404.7,145.5c-.5,0-.9-.1-1.3-.4l-54.6-31.5c-.8-.5-1.3-1.3-1.3-2.3v-63c0-.9.5-1.8,1.3-2.3l54.6-31.5c.8-.5,1.8-.5,2.6,0l54.6,31.5c.8.5,1.3,1.3,1.3,2.3v50h-2.6v-50l-54.6-31.5-54.7,31.5v63.1l54.6,31.5,54.6-31.5v-17h2.6v17c0,.9-.5,1.8-1.3,2.3l-54.5,31.5c-.4.2-.9.3-1.3.3Z"/>
    <path class="cls-80" d="M396.5,36.1c4.7-4.6,12.2-4.5,16.8,0s4.5,12.2-.1,16.8c-4.7,4.6-12.2,4.5-16.8,0-2.2-2.2-3.4-5.2-3.4-8.3s.8-5.1,2.4-7.2"/>
    <path class="cls-29" d="M404.9,57.5c-7.1,0-12.8-5.8-12.9-12.9,0-2.8.9-5.6,2.6-7.8.2-.3.6-.5,1-.4-.1-.4,0-.7.3-1,5.1-5,13.2-4.9,18.2.2,5,5.1,4.9,13.2-.2,18.2-2.4,2.4-5.6,3.7-9,3.7h0ZM396.4,37.1c.1.3,0,.7-.2.9-1.5,1.9-2.2,4.2-2.2,6.6,0,6,4.9,10.8,10.9,10.8s10.8-4.9,10.8-10.9-4.9-10.8-10.9-10.8-5.5,1.1-7.6,3.1c-.2.2-.5.3-.8.3h0Z"/>
    <path class="cls-29" d="M406.7,51.3h-6.4c-.9,0-1.7-.6-1.8-1.5v-6.9c-.1-.9.6-1.7,1.5-1.8h8.8c.9,0,1.7.6,1.8,1.5v6.9c.1.9-.6,1.7-1.5,1.8h-2.4ZM400.5,49.3h8.2v-6.2h-8.1v6.2Z"/>
    <path class="cls-29" d="M400.1,42.6h0c-.6,0-1-.5-1-1.1h0c0-3,2.3-5.4,5.3-5.5.9,0,1.7.2,2.5.5,1.4.7,2.4,1.9,2.7,3.4.1.2.1.5.1.7s.1.4.1.5c.1.5-.2,1.1-.7,1.2h0c-.5,0-1.1-.2-1.2-.7h0c-.1-.2-.1-.4-.1-.7s-.1-.4-.1-.5c-.2-.9-.8-1.7-1.7-2.1-.9-.4-1.9-.4-2.8,0-1.3.6-2.1,1.9-2.1,3.3,0,.6-.4,1.1-1,1.1Z"/>
    <path class="cls-29" d="M403.9,47.5h0v.9c0,.2.1.2.3.2h.9c.2,0,.3,0,.3-.3v-1.6c0-.2.1-.3.2-.4.5-.3.8-.9.6-1.5-.2-.6-.8-1-1.5-1-.7,0-1.3.3-1.6.9-.2.6,0,1.2.6,1.5.2,0,.3.3.3.5,0,.3,0,.5,0,.8Z"/>
    <g id="Scone_logo_white-2" data-name="Scone logo white-2">
      <g class="cls-99">
        <g class="cls-97">
          <g>
            <path class="cls-90" d="M378.3,106.1h-.9c-.2,0-.4.2-.4.3v.9c0,.2.2.4.4.3h.9c.2,0,.4-.2.4-.3v-.9c0-.2-.2-.3-.4-.3M375.1,107.7h.9c.2,0,.4-.2.4-.3h0v-.9c0-.2-.2-.3-.4-.3h-.9c-.2,0-.4.2-.4.3v.9c0,.1.2.3.4.3M374.1,107.3v-.9c0-.2-.2-.3-.4-.3h-.9c-.2,0-.4.2-.4.3v.9c0,.2.2.4.4.3h.9c.2,0,.4-.1.4-.3h0M378.3,108.3c-.1,0-.3,0-.3.3v1.1c0,0,.1.3.2.3s.3,0,.3-.2h0v-1.2c.1-.1,0-.2-.2-.3h0M375.8,108.7v.9c0,.2.2.4.4.4h.9c.2,0,.4-.2.4-.3h0v-.9c0-.2-.1-.4-.3-.4h-.9c-.3,0-.5.1-.5.3M375.2,109.6v-.9c0-.2-.2-.4-.4-.4h-.9c-.2,0-.4.2-.4.4v.9c0,.2.2.4.4.4h.9c.2,0,.4-.2.4-.4M378.3,110.6h-.9c-.2,0-.4.2-.4.3v.9c0,.2.2.4.4.3h.9c.2,0,.4-.2.4-.3v-.8c0-.2-.2-.4-.4-.4M375.9,110.7h-.9c-.2,0-.4.2-.4.3h0v.9c0,.2.2.3.4.3h.9c.2,0,.4-.2.4-.3h0v-.9c0-.2-.2-.3-.4-.3h0"/>
            <path class="cls-90" d="M379.4,105.7c.4.3.9.5,1.4.4h0v2.6c0,1-1.2,1.6-1.5,1.7h0v-4.7h.1"/>
            <path class="cls-90" d="M376.6,105.6c2,0,2.3-.7,2.3-.7h.2s.3.7,2.2.7.1,0,.1,0v3.3c0,1.1-2,2.3-2,2.3,0,0-.1,0-.1,0v.8h.2c.7-.4,2.8-1.6,2.8-3v-4.2c0,0-.1,0-.2,0-2.5,0-2.9-.9-2.9-.9h-.3s-.4.9-2.9.9-.1,0-.1,0v.5s0,0,.1,0h.6"/>
            <path class="cls-63" d="M384.1,111l1-.4c.2.5.7.8,1.3.8s.5,0,.8-.2c.2,0,.3-.3.3-.5,0-.5-.7-.8-1.2-1.1h0c-.4-.2-.8-.4-1.1-.6-.4-.3-.6-.7-.6-1.2s.2-.9.6-1.2c.4-.3.9-.5,1.5-.5s1.5.4,1.9,1.1l-1,.4c-.1-.2-.2-.3-.4-.4-.2,0-.4,0-.6,0-.6,0-1,.3-1,.7s.2.5.4.6c.3.2.6.3.9.5h.1c.8.4,1.7.8,1.7,1.8s-.2,1-.7,1.3-1,.5-1.6.5c-1-.1-1.9-.6-2.3-1.5"/>
            <path class="cls-63" d="M392.8,112.3c-.4,0-.8,0-1.2-.2-.4,0-.7-.4-1-.7-.3-.3-.5-.6-.7-1s-.2-.8-.2-1.2.1-.8.3-1.2c.3-.7.9-1.3,1.7-1.7.4-.2.8-.2,1.2-.2s1,0,1.4.3c.4.2.8.5,1.1.9l-.8.6c-.2-.2-.4-.5-.7-.6-.3,0-.6-.2-1-.2-.6,0-1.1.2-1.5.6s-.6.9-.6,1.5.2,1.1.6,1.5.9.6,1.5.6.7,0,1.1-.3c.3-.2.6-.5.8-.8l.9.5c-.3.5-.7.9-1.1,1.2-.6.3-1.2.5-1.8.4"/>
            <path class="cls-63" d="M399.7,112.3c-.4,0-.8,0-1.2-.2-.4-.2-.7-.4-1-.7-.3-.3-.5-.6-.7-1s-.2-.8-.2-1.2.1-.8.2-1.2c.3-.7.9-1.3,1.7-1.7.4-.2.8-.2,1.2-.2s.8,0,1.2.2c.4.2.7.4,1,.7.3.3.5.6.7,1s.2.8.2,1.2-.1.8-.2,1.2c-.2.4-.4.7-.7,1-.3.3-.6.5-1,.7-.4.2-.8.2-1.2.2M399.7,107.1c-.6,0-1.1.2-1.5.6s-.6.9-.6,1.5.2,1.1.6,1.5.9.6,1.5.6,1.1-.2,1.5-.6.6-.9.6-1.5-.2-1.1-.6-1.5c-.5-.4-1-.6-1.5-.6"/>
            <polygon class="cls-63" points="409.9 106.1 409.9 112.5 405.5 108.4 405.5 112.2 404.4 112.2 404.4 105.9 408.8 109.9 408.8 106.1 409.9 106.1"/>
            <polygon class="cls-63" points="412.9 107.1 412.9 108.7 415.9 108.7 415.9 109.6 412.9 109.6 412.9 111.3 416.3 111.3 416.3 112.2 411.8 112.2 411.8 106.1 416.3 106.1 416.3 107.1 412.9 107.1"/>
          </g>
        </g>
      </g>
    </g>
    <path class="cls-80" d="M387,78.6h-1.5l-.2-1c-.2,0-.4-.2-.6-.3-.2,0-.5,0-.7,0-.3,0-.6,0-.9.3-.2,0-.3.4-.3.6s.1.5.3.6c.4.2.8.4,1.3.4.8,0,1.5.4,2.2.9.5.4.7,1,.7,1.6s-.3,1.4-.9,1.8c-.7.5-1.5.7-2.4.7s-1.1,0-1.7-.3c-.5-.2-1-.4-1.4-.7v-1.8h1.5l.3,1c.2,0,.3.2.5.2s.5,0,.7,0c.3,0,.7,0,1-.2.3-.2.5-.7.2-1-.1,0-.1-.2-.2-.2-.4-.2-.8-.4-1.3-.5-.8,0-1.5-.4-2.1-.8-.5-.4-.7-.9-.7-1.5s.3-1.3.8-1.7c.7-.5,1.5-.8,2.4-.7.6,0,1.2,0,1.8.2.5,0,.9.4,1.3.7v1.7Z"/>
    <path class="cls-80" d="M392.1,84c-1,0-2-.4-2.8-1.1-.7-.8-1-1.8-1-2.8v-.3c0-1.1.3-2.1,1-2.9s1.6-1.2,2.6-1.1c.9,0,1.9.3,2.5,1s1,1.7.9,2.6v1.2h-4.8c0,.5.2.9.5,1.3.3.3.8.5,1.3.5s.8,0,1.2-.2c.3,0,.7-.3,1-.4l.6,1.3c-.4.3-.8.5-1.3.7-.5.1-1.1.2-1.7.2ZM391.9,77.4c-.4,0-.7.2-1,.5-.2.4-.4.8-.4,1.2h2.6v-.2c0-.4-.1-.8-.3-1.1-.2-.3-.5-.5-.9-.4h0Z"/>
    <path class="cls-80" d="M396.5,82.5l1-.2v-4.9l-1.1-.2v-1.3h3.1v1.2c.2-.4.5-.7.8-1,.3-.2.6-.4,1-.3h.4c.1,0,.2,0,.3,0l-.2,2h-.9c-.3,0-.5,0-.8.2-.2,0-.4.3-.5.5v3.9l1,.2v1.3h-4.2v-1.5Z"/>
    <path class="cls-80" d="M406.2,77.2h-.8c0,0,1,3.7,1,3.7v.8h.1v-.8c.1,0,1.1-3.6,1.1-3.6h-.8v-1.4h3.6v1.3h-.7c0,0-2.4,6.7-2.4,6.7h-2.1l-2.4-6.6h-.7v-1.4h3.6l.5,1.3Z"/>
    <path class="cls-80" d="M411.4,82.5l1-.2v-4.9l-1.1-.2v-1.3h3.3v6.5l1,.2v1.3h-4.2v-1.4ZM414.6,73.9h-2.2v-1.6h2.2v1.6Z"/>
    <path class="cls-80" d="M420.1,82.3c.3,0,.7,0,.9-.3.2-.2.4-.6.4-.9h2c0,.9-.3,1.6-.9,2.1-.6.6-1.5.9-2.3.8-1,0-2.1-.4-2.8-1.1-.7-.8-1-1.8-1-2.9v-.2c0-1.1.3-2.1,1-2.9s1.8-1.2,2.8-1.1c.6,0,1.2,0,1.7.3.5.2.9.4,1.3.8v2.1h-1.8l-.4-1.2c-.1,0-.3-.2-.4-.2-.2,0-.4,0-.5,0-.5,0-1,.2-1.3.7s-.4,1.1-.4,1.7h0c0,.7.1,1.3.4,1.8.2.5.8.7,1.3.6Z"/>
    <path class="cls-80" d="M428.1,84c-1,0-2-.4-2.8-1.1-.7-.8-1-1.8-1-2.8v-.3c0-1.1.3-2.1,1-2.9,1.4-1.5,3.7-1.5,5.1-.2.6.7.9,1.7.9,2.6v1.2h-4.8c0,.5.2.9.5,1.3.3.3.8.5,1.3.5s.8,0,1.2-.2c.3,0,.7-.3,1-.4l.6,1.3c-.4.3-.8.5-1.3.7-.5.2-1.1.3-1.7.3ZM427.9,77.4c-.4,0-.7.2-1,.5-.2.4-.4.8-.4,1.2h2.6v-.2c0-.4-.1-.8-.3-1.1-.2-.3-.5-.5-.9-.4h0Z"/>
    <path class="cls-31" d="M451.1,96h-90.3c-1.9,0-3.5-1.6-3.5-3.5v-24.9c0-1.9,1.6-3.5,3.5-3.5h90.3c1.9,0,3.5,1.6,3.5,3.5v24.8c0,2-1.5,3.6-3.5,3.6h0ZM360.8,67.1c-.3,0-.5.2-.5.5h0v24.8c0,.3.2.5.5.5h90.3c.3,0,.5-.2.5-.5v-24.8c0-.3-.2-.5-.5-.5h-90.3Z"/>
    <path class="cls-29" d="M439.2,107.3h-9c-.6-2.2-2.8-3.6-5.1-3.1-2.2.6-3.6,2.8-3.1,5.1.6,2.2,2.8,3.6,5.1,3.1,1.5-.4,2.7-1.5,3.1-3.1h2.6l1.2,1.2,1.2-1.2h.1l.8.8.7-.7,1.1,1.1,1.3-1.3,1-.9-1-1ZM424.5,109.4c-.6,0-1.1-.5-1.1-1.1s.5-1.1,1.1-1.1,1.1.5,1.1,1.1-.5,1.1-1.1,1.1h0Z"/>
    <g class="cls-98">
      <g>
        <rect class="cls-28" x="212.3" y="95.4" width="1.1" height="126.8"/>
        <rect class="cls-10" x="213.4" y="95.4" width="1.1" height="126.8"/>
        <rect class="cls-70" x="214.5" y="95.4" width="1.1" height="126.8"/>
        <rect class="cls-33" x="215.5" y="95.4" width="1.1" height="126.8"/>
        <rect class="cls-30" x="216.6" y="95.4" width="1.1" height="126.8"/>
        <rect class="cls-81" x="217.7" y="95.4" width="1.1" height="126.8"/>
        <rect class="cls-16" x="218.8" y="95.4" width="1.1" height="126.8"/>
        <rect class="cls-46" x="219.9" y="95.4" width="1.1" height="126.8"/>
        <rect class="cls-20" x="220.9" y="95.4" width="1.1" height="126.8"/>
        <rect class="cls-23" x="222" y="95.4" width="1.1" height="126.8"/>
        <rect class="cls-53" x="223.1" y="95.4" width="1.1" height="126.8"/>
        <rect class="cls-37" x="224.2" y="95.4" width="1.1" height="126.8"/>
        <rect class="cls-40" x="225.2" y="95.4" width="1.1" height="126.8"/>
        <rect class="cls-25" x="226.3" y="95.4" width="1.1" height="126.8"/>
        <rect class="cls-78" x="227.4" y="95.4" width="1.1" height="126.8"/>
        <rect class="cls-9" x="228.5" y="95.4" width="1.1" height="126.8"/>
        <rect class="cls-56" x="229.5" y="95.4" width="1.1" height="126.8"/>
        <rect class="cls-84" x="230.6" y="95.4" width="1.1" height="126.8"/>
        <rect class="cls-22" x="231.7" y="95.4" width="1.1" height="126.8"/>
        <rect class="cls-35" x="232.8" y="95.4" width="1.1" height="126.8"/>
        <rect class="cls-3" x="233.9" y="95.4" width="1.1" height="126.8"/>
        <rect class="cls-45" x="234.9" y="95.4" width="1.1" height="126.8"/>
        <rect class="cls-75" x="236" y="95.4" width="1.1" height="126.8"/>
        <rect class="cls-55" x="237.1" y="95.4" width="1.1" height="126.8"/>
        <rect class="cls-4" x="238.2" y="95.4" width="1.1" height="126.8"/>
        <rect class="cls-77" x="239.2" y="95.4" width="1.1" height="126.8"/>
        <rect class="cls-44" x="240.3" y="95.4" width="1.1" height="126.8"/>
        <rect class="cls-41" x="241.4" y="95.4" width="1.1" height="126.8"/>
        <rect class="cls-47" x="242.5" y="95.4" width="1.1" height="126.8"/>
        <rect class="cls-49" x="243.6" y="95.4" width="1.1" height="126.8"/>
        <rect class="cls-36" x="244.6" y="95.4" width="1.1" height="126.8"/>
        <rect class="cls-83" x="245.7" y="95.4" width="1.1" height="126.8"/>
        <rect class="cls-59" x="246.8" y="95.4" width="1.1" height="126.8"/>
        <rect class="cls-62" x="247.9" y="95.4" width="1.1" height="126.8"/>
        <rect class="cls-15" x="248.9" y="95.4" width="1.1" height="126.8"/>
        <rect class="cls-39" x="250" y="95.4" width="1.1" height="126.8"/>
        <rect class="cls-64" x="251.1" y="95.4" width="1.1" height="126.8"/>
        <rect class="cls-24" x="252.2" y="95.4" width="1.1" height="126.8"/>
        <rect class="cls-21" x="253.2" y="95.4" width="1.1" height="126.8"/>
        <rect class="cls-73" x="254.3" y="95.4" width="1.1" height="126.8"/>
        <rect class="cls-51" x="255.4" y="95.4" width="1.1" height="126.8"/>
        <rect class="cls-50" x="256.5" y="95.4" width="1.1" height="126.8"/>
        <rect class="cls-34" x="257.5" y="95.4" width="1.1" height="126.8"/>
        <rect class="cls-27" x="258.6" y="95.4" width="1.1" height="126.8"/>
        <rect class="cls-61" x="259.7" y="95.4" width="1.1" height="126.8"/>
        <rect class="cls-19" x="260.8" y="95.4" width="1.1" height="126.8"/>
        <rect class="cls-76" x="261.9" y="95.4" width="1.1" height="126.8"/>
        <rect class="cls-12" x="262.9" y="95.4" width="1.1" height="126.8"/>
        <rect class="cls-60" x="264" y="95.4" width="1.1" height="126.8"/>
        <rect class="cls-18" x="265.1" y="95.4" width="1.1" height="126.8"/>
        <rect class="cls-68" x="266.2" y="95.4" width="1.1" height="126.8"/>
        <rect class="cls-79" x="267.2" y="95.4" width="1.1" height="126.8"/>
        <rect class="cls-26" x="268.3" y="95.4" width="1.1" height="126.8"/>
        <rect class="cls-1" x="269.4" y="95.4" width="1.1" height="126.8"/>
        <rect class="cls-82" x="270.5" y="95.4" width="1.1" height="126.8"/>
        <rect class="cls-57" x="271.5" y="95.4" width="1.1" height="126.8"/>
        <rect class="cls-86" x="272.6" y="95.4" width="1.1" height="126.8"/>
        <rect class="cls-42" x="273.7" y="95.4" width="1.1" height="126.8"/>
        <rect class="cls-17" x="274.8" y="95.4" width="1.1" height="126.8"/>
        <rect class="cls-32" x="275.9" y="95.4" width="1.1" height="126.8"/>
        <rect class="cls-14" x="276.9" y="95.4" width="1.1" height="126.8"/>
        <rect class="cls-85" x="278" y="95.4" width="1.1" height="126.8"/>
        <rect class="cls-87" x="279.1" y="95.4" width="1.1" height="126.8"/>
        <rect class="cls-38" x="280.2" y="95.4" width="1.1" height="126.8"/>
        <rect class="cls-38" x="281.2" y="95.4" width="1.1" height="126.8"/>
        <rect class="cls-69" x="282.3" y="95.4" width="1.1" height="126.8"/>
        <rect class="cls-11" x="283.4" y="95.4" width="1.1" height="126.8"/>
        <rect class="cls-43" x="284.5" y="95.4" width="1.1" height="126.8"/>
        <rect class="cls-52" x="285.5" y="95.4" width="1.1" height="126.8"/>
        <rect class="cls-65" x="286.6" y="95.4" width="1.1" height="126.8"/>
        <rect class="cls-72" x="287.7" y="95.4" width="1.1" height="126.8"/>
        <rect class="cls-72" x="288.8" y="95.4" width="1.1" height="126.8"/>
        <rect class="cls-48" x="289.9" y="95.4" width="1.1" height="126.8"/>
        <rect class="cls-6" x="290.9" y="95.4" width="1.1" height="126.8"/>
        <rect class="cls-6" x="292" y="95.4" width="1.1" height="126.8"/>
        <rect class="cls-74" x="293.1" y="95.4" width="1.1" height="126.8"/>
        <rect class="cls-74" x="294.2" y="95.4" width="1.1" height="126.8"/>
        <rect class="cls-54" x="295.2" y="95.4" width="1.1" height="126.8"/>
        <rect class="cls-66" x="296.3" y="95.4" width="1.1" height="126.8"/>
        <rect class="cls-66" x="297.4" y="95.4" width="1.1" height="126.8"/>
        <rect class="cls-71" x="298.5" y="95.4" width="1.1" height="126.8"/>
        <rect class="cls-71" x="299.5" y="95.4" width="1.1" height="126.8"/>
        <rect class="cls-89" x="300.6" y="95.4" width="1.1" height="126.8"/>
        <rect class="cls-5" x="301.7" y="95.4" width="1.1" height="126.8"/>
        <rect class="cls-5" x="302.8" y="95.4" width="1.1" height="126.8"/>
        <rect class="cls-58" x="303.9" y="95.4" width="1.1" height="126.8"/>
        <rect class="cls-58" x="304.9" y="95.4" width="1.1" height="126.8"/>
        <rect class="cls-58" x="306" y="95.4" width="1.1" height="126.8"/>
        <rect class="cls-13" x="307.1" y="95.4" width="1.1" height="126.8"/>
        <rect class="cls-13" x="308.2" y="95.4" width="1.1" height="126.8"/>
        <rect class="cls-13" x="309.2" y="95.4" width="1.1" height="126.8"/>
        <rect class="cls-7" x="310.3" y="95.4" width="1.1" height="126.8"/>
        <rect class="cls-7" x="311.4" y="95.4" width="1.1" height="126.8"/>
        <rect class="cls-7" x="312.5" y="95.4" width="1.1" height="126.8"/>
        <rect class="cls-7" x="313.5" y="95.4" width="1.1" height="126.8"/>
        <rect class="cls-7" x="314.6" y="95.4" width="1.1" height="126.8"/>
        <rect class="cls-88" x="315.7" y="95.4" width="1.1" height="126.8"/>
        <rect class="cls-88" x="316.8" y="95.4" width="1.1" height="126.8"/>
        <rect class="cls-88" x="317.9" y="95.4" width="1.1" height="126.8"/>
        <rect class="cls-88" x="318.9" y="95.4" width="1.1" height="126.8"/>
        <rect class="cls-88" x="320" y="95.4" width="1.1" height="126.8"/>
        <rect class="cls-88" x="321.1" y="95.4" width="1.1" height="126.8"/>
      </g>
    </g>
    <path class="cls-29" d="M267,225.2c-.5,0-.9-.1-1.3-.4l-54.6-31.5c-.8-.5-1.3-1.3-1.3-2.3v-63c0-.9.5-1.8,1.3-2.3l54.6-31.5c.8-.5,1.8-.5,2.6,0l54.6,31.5c.8.5,1.3,1.3,1.3,2.3v50h-2.6v-50l-54.6-31.6-54.6,31.6v63l54.6,31.6,54.6-31.6v-17h2.6v17c0,.9-.5,1.8-1.3,2.3l-54.6,31.5c-.4.2-.8.4-1.3.4Z"/>
    <path class="cls-80" d="M258.9,115.8c4.7-4.6,12.2-4.5,16.8,0,4.6,4.7,4.5,12.2-.1,16.8-4.7,4.6-12.2,4.5-16.8-.1-2.2-2.2-3.4-5.2-3.4-8.3s.8-5.1,2.4-7.2"/>
    <path class="cls-29" d="M267.2,137.1c-7.1,0-12.9-5.8-12.9-12.9s.9-5.6,2.6-7.8c.2-.3.6-.5,1-.4-.1-.4,0-.7.3-1,5.1-5,13.2-4.9,18.2.2s4.9,13.2-.2,18.2c-2.3,2.4-5.6,3.7-9,3.7h0ZM258.8,116.7c.1.3,0,.7-.2.9-1.5,1.9-2.2,4.2-2.2,6.6,0,6,4.9,10.8,10.9,10.8s10.8-4.9,10.8-10.9-4.9-10.8-10.9-10.8-5.5,1.1-7.6,3.1c-.2.3-.5.4-.8.3Z"/>
    <path class="cls-29" d="M269,131h-6.4c-.9.1-1.7-.6-1.8-1.5v-6.8c-.1-.9.6-1.7,1.5-1.8h8.9c.9,0,1.7.6,1.8,1.5v6.9c.1.9-.6,1.7-1.5,1.8h-.3c-.7-.1-1.4-.1-2.2-.1ZM262.8,129h8.2v-6.1h-8.1v6.1Z"/>
    <path class="cls-29" d="M262.5,122.2h0c-.6,0-1-.5-1-1.1h0c0-2.2,1.3-4.1,3.3-5,1.4-.6,3.1-.6,4.5,0s2.4,1.9,2.7,3.4c.1.2.1.5.1.7s.1.3.1.5c.1.6-.2,1.1-.8,1.2-.6,0-1.1-.2-1.2-.8,0-.2-.1-.4-.1-.7s-.1-.3-.1-.5c-.2-.9-.8-1.7-1.7-2.1-.9-.4-1.9-.4-2.8,0-1.3.6-2.1,1.9-2.1,3.3s-.4,1.1-.9,1.1Z"/>
    <path class="cls-29" d="M266.2,127.2h0v.8c0,.2.1.2.3.2h.9c.2,0,.3-.1.3-.3v-1.6c0-.2.1-.3.2-.4.5-.3.8-.9.6-1.5-.2-.6-.8-1-1.5-1-.7,0-1.3.3-1.6.9-.2.6,0,1.2.5,1.5.2,0,.3.3.3.5,0,.3,0,.6,0,.9Z"/>
    <g id="Scone_logo_white-3" data-name="Scone logo white-3">
      <g class="cls-101">
        <g class="cls-102">
          <g>
            <path class="cls-90" d="M240.6,185.7h-.9c-.2,0-.4.2-.4.3h0v.9c0,.2.2.4.3.4h.9c.2,0,.4-.1.4-.3h0v-.9c0-.2-.1-.4-.3-.4h0M237.4,187.3h.9c.2,0,.4-.2.4-.3h0v-.9c0-.2-.2-.4-.3-.4h-.9c-.2,0-.4.2-.4.3h0v.9c0,.3.2.5.3.4h0M236.4,187v-.9c0-.2-.2-.4-.3-.4h-.9c-.2,0-.4.2-.4.3h0v.9c0,.2.2.4.3.4h.9c.3,0,.4-.1.4-.3h0M240.7,188c-.1,0-.3.1-.3.3v1.1c0,.1.1.3.3.3s.3-.1.3-.3v-1.1c0-.2-.1-.3-.3-.3h0M238.2,188.4v.9c0,.2.2.4.4.4h.9c.2,0,.4-.2.4-.3h0v-.9c0-.2-.2-.4-.3-.4h-.9c-.4,0-.5,0-.5.3q0,0,0,0M237.5,189.3v-.9c0-.2-.2-.4-.3-.4h-.9c-.2,0-.4.2-.4.3h0v.9c0,.2.2.4.3.4h.9c.3,0,.4-.1.4-.3h0M240.6,190.3h-.9c-.2,0-.4.2-.4.4v.9c0,.2.2.4.3.4h.9c.2,0,.4-.2.4-.3h0v-.9c0-.3-.1-.5-.3-.5M238.3,190.3h-.9c-.2,0-.4.2-.4.4h0v.9c0,.2.2.4.3.4h.9c.2,0,.4-.2.4-.3h0v-.9c0-.3-.1-.5-.3-.5"/>
            <path class="cls-90" d="M241.7,185.3c.4.3.9.5,1.4.4h0v2.6c0,1-1.2,1.6-1.5,1.7h0v-4.7h.1"/>
            <path class="cls-90" d="M239,185.2c1.9-.1,2.3-.8,2.3-.8,0,0,.1,0,.1-.1h.1s.3.7,2.2.7c0,0,.1,0,.1.1v3.3c0,1.1-2,2.3-2.1,2.3s-.1,0-.1.1v.8h.2c.7-.4,2.8-1.6,2.8-3v-4.1c0-.1-.1-.1-.2-.1-2.5,0-2.9-.9-2.9-.9h-.3s-.4.9-2.9.9-.1,0-.1.1v.5s0,.1.1.1.7.2.7,0"/>
            <path class="cls-63" d="M246.4,190.6l1-.4c.2.5.8.8,1.3.7.3,0,.5,0,.8-.2.2-.1.3-.3.3-.5,0-.5-.7-.9-1.3-1.1h0c-.4-.2-.8-.4-1.1-.6-.4-.3-.6-.7-.6-1.2s.2-.9.6-1.2c.4-.3.9-.5,1.5-.5s1.5.4,1.9,1.1l-1,.4c-.1-.2-.2-.3-.4-.4-.2-.1-.4-.1-.6-.1-.6,0-1,.3-1,.7s.2.5.4.6c.3.2.6.3.9.5h.1c.8.4,1.7.8,1.7,1.9s-.2,1-.7,1.2c-.5.3-1,.5-1.6.5-.8,0-1.7-.5-2.2-1.4"/>
            <path class="cls-63" d="M255.2,192c-.4,0-.8-.1-1.2-.2-.4-.1-.7-.4-1-.7s-.5-.6-.7-1-.2-.8-.2-1.2.1-.8.2-1.2c.3-.7.9-1.3,1.7-1.6.4-.2.8-.2,1.2-.2,1,0,1.9.5,2.5,1.2l-.8.6c-.2-.2-.4-.4-.7-.6-.3-.2-.7-.2-1-.2-.6,0-1.1.2-1.5.6-.4.4-.6.9-.6,1.5s.2,1.1.6,1.5c.4.4.9.6,1.5.6s.7-.1,1.1-.3c.3-.2.6-.5.8-.8l.9.5c-.3.5-.7.9-1.1,1.1-.6.3-1.2.4-1.7.4"/>
            <path class="cls-63" d="M262,192c-.4,0-.8-.1-1.2-.2-.4-.1-.7-.4-1-.7s-.5-.6-.7-1-.2-.8-.2-1.2c0-.8.3-1.6.9-2.2.3-.3.6-.5,1-.7s.8-.2,1.2-.2.8.1,1.2.2c.4.1.7.4,1,.7.6.6.9,1.4.9,2.2s-.1.8-.2,1.2c-.3.7-.9,1.3-1.7,1.7-.4,0-.8.2-1.2.2M262,186.8c-.6,0-1.1.2-1.5.6-.4.4-.6.9-.6,1.5s.2,1.1.6,1.5c.8.8,2.1.8,3,0h0c.4-.4.6-.9.6-1.5s-.2-1.1-.6-1.5c-.4-.4-.9-.7-1.5-.6"/>
            <polygon class="cls-63" points="272.3 185.8 272.3 192.1 267.9 188.1 267.9 191.9 266.8 191.9 266.8 185.5 271.1 189.6 271.1 185.8 272.3 185.8"/>
            <polygon class="cls-63" points="275.2 186.7 275.2 188.3 278.3 188.3 278.3 189.3 275.2 189.3 275.2 190.9 278.7 190.9 278.7 191.9 274.1 191.9 274.1 185.8 278.7 185.8 278.7 186.7 275.2 186.7"/>
          </g>
        </g>
      </g>
    </g>
    <path class="cls-80" d="M249.4,158.2h-1.4l-.2-1c-.2-.1-.4-.2-.6-.3-.2-.1-.5-.1-.7-.1-.3,0-.6.1-.9.3-.2.1-.3.4-.3.6s.1.5.3.6c.4.2.8.4,1.3.4.8.1,1.5.4,2.2.9.5.4.7,1,.7,1.6s-.3,1.4-.9,1.8c-.7.5-1.6.7-2.4.7s-1.2-.1-1.7-.3-1-.4-1.4-.8v-1.8h1.5l.3,1c.2.1.3.2.5.2s.5.1.7.1c.3,0,.7-.1,1-.2.2-.1.3-.4.3-.6,0-.3-.1-.5-.3-.6-.4-.2-.8-.4-1.3-.4-.8-.1-1.5-.4-2.1-.9-.5-.4-.7-.9-.7-1.5s.3-1.3.8-1.7c.7-.5,1.5-.8,2.4-.7.6,0,1.2.1,1.8.2.5.1.9.3,1.3.6l-.2,1.9Z"/>
    <path class="cls-80" d="M254.5,163.6c-1,0-2-.4-2.8-1.1-.7-.8-1-1.8-1-2.8v-.3c0-1.1.3-2.1,1-2.9,1.4-1.5,3.7-1.5,5.1-.2.6.7.9,1.7.9,2.6v1.2h-4.7c0,.6.2,1,.5,1.4.3.3.8.5,1.3.5s.8,0,1.2-.1c.3-.1.7-.3,1-.4l.6,1.3c-.4.3-.8.5-1.3.6-.6.2-1.2.3-1.8.2ZM254.3,157c-.4,0-.7.2-.9.5-.3.4-.4.8-.4,1.2h2.6v-.2c0-.4-.1-.8-.3-1.1-.3-.3-.7-.4-1-.4h0Z"/>
    <path class="cls-80" d="M258.9,162.2l1-.2v-5l-1.1-.2v-1.3h3.2v1.2c.3-.4.5-.7.8-1,.3-.2.6-.4,1-.4h.4c.1,0,.2,0,.3.1l-.2,2h-.9c-.3,0-.5.1-.8.2-.2.1-.4.3-.5.5v3.9l1,.2v1.3h-4.2v-1.3Z"/>
    <path class="cls-80" d="M268.6,156.8h-.8c0,.1,1.1,3.7,1.1,3.7v.8h.1l.2-.8,1-3.6h-.8v-1.4h3.6v1.3h-.7c0,.1-2.4,6.7-2.4,6.7h-2l-2.4-6.6h-.7v-1.4h3.6l.2,1.3Z"/>
    <path class="cls-80" d="M273.8,162.2l1-.2v-5l-1.1-.2v-1.3h3.4v6.5l1,.2v1.3h-4.2v-1.3ZM277,153.6h-2.2v-1.6h2.2v1.6Z"/>
    <path class="cls-80" d="M282.4,162c.3,0,.7-.1.9-.3.2-.2.4-.6.3-.9h2c0,.9-.3,1.6-.9,2.1-1.5,1.2-3.7,1.1-5.1-.3-.7-.8-1-1.8-1-2.9v-.2c0-1.1.3-2.1,1-2.9.7-.8,1.8-1.2,2.8-1.1.6,0,1.2.1,1.7.3s.9.4,1.3.8v2.1h-1.8l-.4-1.2c-.1-.1-.2-.2-.4-.2-.2-.1-.4-.1-.5-.1-.5,0-1,.2-1.3.7s-.4,1.1-.4,1.7v.2c0,.6.1,1.2.4,1.7.4.3.9.6,1.4.5Z"/>
    <path class="cls-80" d="M290.5,163.6c-1,0-2-.4-2.8-1.1-.7-.8-1-1.8-1-2.8v-.3c0-1.1.3-2.1,1-2.9,1.4-1.5,3.7-1.5,5.1-.2.6.7.9,1.7.9,2.6v1.2h-4.7c0,.6.2,1,.5,1.4.3.3.8.5,1.3.5s.8,0,1.2-.1c.3-.1.7-.3,1-.4l.6,1.3c-.4.3-.8.5-1.3.6-.6.2-1.2.3-1.8.2ZM290.3,157c-.4,0-.7.2-.9.5-.3.4-.4.8-.4,1.2h2.6v-.2c0-.4-.1-.8-.3-1.1-.3-.3-.7-.4-1-.4h0Z"/>
    <path class="cls-31" d="M313.4,175.6h-90.3c-1.9,0-3.5-1.6-3.5-3.5v-24.8c0-1.9,1.6-3.5,3.5-3.5h90.3c1.9,0,3.5,1.6,3.5,3.5v24.8c.1,1.9-1.5,3.5-3.5,3.5ZM223.1,146.8c-.3,0-.5.2-.5.5v24.8c0,.3.2.5.5.5h90.3c.3,0,.5-.2.5-.5h0v-24.8c0-.3-.2-.5-.5-.5h-90.3Z"/>
    <path class="cls-29" d="M301.5,186.9h-9c-.6-2.2-2.8-3.6-5-3s-3.6,2.8-3,5,2.8,3.6,5,3c1.5-.4,2.7-1.5,3-3h2.6l1.2,1.2,1.2-1.2h.2l.8.8.7-.7,1.1,1.1,1.3-1.3,1-.9-1.1-1ZM286.9,189c-.6,0-1.1-.5-1.1-1.1s.5-1.1,1.1-1.1,1.1.5,1.1,1.1-.5,1.1-1.1,1.1h0Z"/>
  </g>
</svg>