<?xml version="1.0" encoding="UTF-8"?>
<svg id="Ebene_1" data-name="Ebene 1" xmlns="http://www.w3.org/2000/svg" xmlns:xlink="http://www.w3.org/1999/xlink" version="1.1" viewBox="0 0 194 194">
  <defs>
    <style>
      .cls-1 {
        fill: #eee;
      }

      .cls-1, .cls-2, .cls-3 {
        stroke-width: 0px;
      }

      .cls-4 {
        fill: none;
        stroke: #3c9;
        stroke-linecap: round;
        stroke-linejoin: round;
        stroke-width: 4px;
      }

      .cls-5 {
        fill: url(#Unbenannter_Verlauf);
        isolation: isolate;
        stroke: url(#Unbenannter_Verlauf_2);
        stroke-miterlimit: 10;
      }

      .cls-2 {
        fill: #3c9;
      }

      .cls-3 {
        fill: #fff;
      }
    </style>
    <linearGradient id="Unbenannter_Verlauf" data-name="Unbenannter Verlauf" x1=".5" y1="99" x2="193.5" y2="99" gradientTransform="translate(0 196) scale(1 -1)" gradientUnits="userSpaceOnUse">
      <stop offset="0" stop-color="#981869"/>
      <stop offset=".2" stop-color="#771c65"/>
      <stop offset=".4" stop-color="#591f62"/>
      <stop offset=".6" stop-color="#432260"/>
      <stop offset=".8" stop-color="#36235e"/>
      <stop offset="1" stop-color="#32245e"/>
    </linearGradient>
    <linearGradient id="Unbenannter_Verlauf_2" data-name="Unbenannter Verlauf 2" x1="0" y1="99" x2="194" y2="99" gradientTransform="translate(0 196) scale(1 -1)" gradientUnits="userSpaceOnUse">
      <stop offset="0" stop-color="#981869"/>
      <stop offset=".2" stop-color="#771c65"/>
      <stop offset=".4" stop-color="#591f62"/>
      <stop offset=".6" stop-color="#432260"/>
      <stop offset=".8" stop-color="#36235e"/>
      <stop offset="1" stop-color="#32245e"/>
    </linearGradient>
  </defs>
  <line class="cls-1" x1="1290.4" y1="2745.7" x2="-630.7" y2="2745.7"/>
  <circle class="cls-5" cx="97" cy="97" r="96.5"/>
  <path class="cls-3" d="M52,64.3l1.5-.2v-6h-1.5v-1l3.3-.6v7.7l1.5.2v1.1h-4.8v-1.1Z"/>
  <path class="cls-3" d="M74.7,65.4v-1.2l2.9-3.1c.3-.4.6-.8.9-1.2.2-.3.2-.6.3-.9,0-.3,0-.7-.3-.9-.2-.2-.5-.4-.9-.4-.4,0-.7.1-.9.4-.2.3-.4.7-.3,1.1h-1.7c0-.7.3-1.5.8-2,.6-.6,1.4-.9,2.2-.8.8,0,1.6.2,2.2.7.5.5.8,1.2.8,1.9,0,.5-.2,1-.4,1.5-.4.6-.9,1.2-1.5,1.8l-1.6,1.7h2.3v-.9h1.4v2.3h-6.1Z"/>
  <path class="cls-3" d="M99.1,60.2h1c.3,0,.7,0,.9-.3.2-.3.3-.6.3-.9,0-.3,0-.6-.3-.9-.2-.2-.6-.3-.9-.3-.3,0-.6,0-.8.3-.2.2-.3.5-.3.8h-1.7c0-.7.3-1.3.8-1.7.6-.5,1.3-.7,2.1-.7.8,0,1.6.2,2.2.7.6.5.9,1.2.8,1.9,0,.4-.1.8-.4,1.1-.3.4-.6.6-1,.8.4.1.8.4,1.1.8.3.4.4.8.4,1.3,0,.7-.3,1.5-.9,1.9-.7.5-1.5.7-2.3.7-.8,0-1.5-.2-2.2-.7-.6-.4-.9-1.1-.8-1.8h1.8c0,.3.1.6.4.8.6.4,1.4.4,1.9,0,.2-.2.4-.6.4-.9,0-.4-.1-.7-.3-1-.3-.2-.6-.3-1-.3h-1v-1.4Z"/>
  <path class="cls-3" d="M125.1,62h1v1.2h-1v.9l1,.2v1.1h-3.7v-1.1l1-.2v-.9h-3.6v-.9c0,0,3.6-5.9,3.6-5.9h1.8v5.6ZM121.3,62h2v-3.2h0v.3c-.1,0-2,3-2,3Z"/>
  <path class="cls-3" d="M144.5,65.4h-1.8v-1.6h1.8v1.6Z"/>
  <path class="cls-3" d="M147.7,65.4h-1.7v-1.6h1.8v1.6Z"/>
  <path class="cls-3" d="M150.9,65.4h-1.8v-1.6h1.8v1.6Z"/>
  <polygon class="cls-4" points="114.9 107.2 102 99.8 102 114.7 114.9 107.2"/>
  <circle class="cls-4" cx="106.9" cy="107.1" r="18.8"/>
  <line class="cls-4" x1="80.2" y1="102.8" x2="66.9" y2="102.8"/>
  <line class="cls-4" x1="84.5" y1="94.3" x2="72.1" y2="94.3"/>
  <line class="cls-4" x1="80.2" y1="111.3" x2="66.9" y2="111.3"/>
  <line class="cls-4" x1="84.5" y1="119.8" x2="72.1" y2="119.8"/>
  <polygon class="cls-2" points="88.3 31.8 81.3 38.7 78.9 36.3 77.1 38.2 80.1 41.2 81.4 42.4 82.6 41.2 90.2 33.6 88.3 31.8"/>
  <path class="cls-4" d="M136.2,49h-71.2c-1.1,0-2-.9-2-2h0c0-1.1.9-2.1,2-2.1h71.1c1.1,0,2,.8,2.1,1.9,0,0,0,.1,0,.2h0c0,1.1-.9,2-2.1,2Z"/>
  <line class="cls-4" x1="80.5" y1="44.9" x2="80.5" y2="48.7"/>
  <line class="cls-4" x1="100.8" y1="44.9" x2="100.8" y2="48.7"/>
  <line class="cls-4" x1="121" y1="44.9" x2="121" y2="48.7"/>
  <path class="cls-2" d="M80.5,44.7h-15.5c-1.1,0-2,.9-2,2.1h0c0,1.1.9,2,2,2,0,0,0,0,0,0h15.5v-4.1Z"/>
  <path class="cls-4" d="M149.9,71.7H51.3c-1.3,0-2.3,1-2.3,2.3v69.3c0,1.3,1,2.3,2.3,2.3h98.6c1.3,0,2.3-1,2.3-2.3v-69.3c0-1.2-1-2.3-2.2-2.3Z"/>
</svg>