<svg xmlns="http://www.w3.org/2000/svg" xmlns:xlink="http://www.w3.org/1999/xlink" viewBox="0 0 194.02 194.02"><defs><style>.cls-1{fill:#eee;}.cls-2{fill:#fff;}.cls-3{stroke-miterlimit:10;isolation:isolate;fill:url(#Unbenannter_Verlauf_5);stroke:url(#Unbenannter_Verlauf_5-2);}.cls-4{fill:none;stroke:#3c9;stroke-linecap:round;stroke-linejoin:round;stroke-width:4px;}.cls-5{fill:#3c9;}</style><linearGradient id="Unbenannter_Verlauf_5" x1="0.5" y1="97.01" x2="193.52" y2="97.01" gradientUnits="userSpaceOnUse"><stop offset="0" stop-color="#981869"/><stop offset="0.19" stop-color="#771c65"/><stop offset="0.4" stop-color="#591f62"/><stop offset="0.61" stop-color="#432260"/><stop offset="0.81" stop-color="#36235e"/><stop offset="1" stop-color="#32245e"/></linearGradient><linearGradient id="Unbenannter_Verlauf_5-2" x1="0" y1="97.01" x2="194.02" y2="97.01" xlink:href="#Unbenannter_Verlauf_5"/></defs><g id="Lock"><rect class="cls-1" x="-630.65" y="-692.95" width="1921.02" height="3438.64"/><rect class="cls-2" x="-137.82" y="-35.24" width="459.57" height="496.34" rx="10"/><circle class="cls-3" cx="97.01" cy="97.01" r="96.51"/><path class="cls-2" d="M52,64.3l1.51-.19v-6H52v-1l3.31-.6v7.66l1.51.19v1.07H52Z"/><path class="cls-2" d="M74.66,65.37V64.2l2.89-3.1a6.72,6.72,0,0,0,.89-1.21A2,2,0,0,0,78.7,59a1.38,1.38,0,0,0-.3-.92,1.06,1.06,0,0,0-.86-.36,1.1,1.1,0,0,0-.94.42,1.76,1.76,0,0,0-.33,1.12H74.53v0a2.68,2.68,0,0,1,.8-2,3,3,0,0,1,2.22-.84,3.11,3.11,0,0,1,2.17.72A2.46,2.46,0,0,1,80.5,59a2.64,2.64,0,0,1-.45,1.49,13.48,13.48,0,0,1-1.47,1.79L77,64v0h2.32l.07-.89h1.36v2.26Z"/><path class="cls-2" d="M99.13,60.15h1a1.19,1.19,0,0,0,.94-.34,1.28,1.28,0,0,0,.31-.92,1.2,1.2,0,0,0-.31-.87,1.18,1.18,0,0,0-.89-.32,1.28,1.28,0,0,0-.84.29,1,1,0,0,0-.34.77H97.27v0a2,2,0,0,1,.8-1.73,3.23,3.23,0,0,1,2.08-.68,3.42,3.42,0,0,1,2.21.66,2.28,2.28,0,0,1,.83,1.89,1.91,1.91,0,0,1-.37,1.1,2.42,2.42,0,0,1-1,.82,2.35,2.35,0,0,1,1.13.81,2.13,2.13,0,0,1,.39,1.27,2.33,2.33,0,0,1-.89,1.93,3.65,3.65,0,0,1-2.29.7A3.48,3.48,0,0,1,98,64.84,2.12,2.12,0,0,1,97.15,63v0H98.9a1.1,1.1,0,0,0,.36.85,1.53,1.53,0,0,0,1.91,0,1.23,1.23,0,0,0,.36-.93,1.36,1.36,0,0,0-.35-1,1.48,1.48,0,0,0-1-.33h-1Z"/><path class="cls-2" d="M125.11,62.05h1v1.19h-1v.87l1,.19v1.07h-3.69V64.3l1-.19v-.87h-3.64l-.09-.88,3.71-5.91h1.8Zm-3.83,0h2V58.83h0l-.14.26Z"/><path class="cls-2" d="M144.54,65.37h-1.78V63.8h1.78Z"/><path class="cls-2" d="M147.74,65.37H146V63.8h1.78Z"/><path class="cls-2" d="M150.94,65.37h-1.79V63.8h1.79Z"/><polygon class="cls-4" points="114.9 107.22 101.98 99.77 101.98 114.68 114.9 107.22"/><circle class="cls-4" cx="106.87" cy="107.14" r="18.77"/><line class="cls-4" x1="80.18" y1="102.82" x2="66.93" y2="102.82"/><line class="cls-4" x1="84.5" y1="94.31" x2="72.1" y2="94.31"/><line class="cls-4" x1="80.18" y1="111.31" x2="66.93" y2="111.31"/><line class="cls-4" x1="84.5" y1="119.83" x2="72.1" y2="119.83"/><polygon class="cls-5" points="88.3 31.75 81.33 38.69 78.93 36.32 77.1 38.15 80.1 41.15 81.38 42.44 82.61 41.18 90.18 33.63 88.3 31.75"/><path class="cls-4" d="M136.19,49H65A2.06,2.06,0,0,1,63,47h0A2.06,2.06,0,0,1,65,44.89h71.15A2,2,0,0,1,138.24,47h0A2.07,2.07,0,0,1,136.19,49Z"/><line class="cls-4" x1="80.53" y1="44.89" x2="80.53" y2="48.66"/><line class="cls-4" x1="100.78" y1="44.89" x2="100.78" y2="48.66"/><line class="cls-4" x1="121.01" y1="44.89" x2="121.01" y2="48.66"/><path class="cls-5" d="M80.53,44.72H65A2.05,2.05,0,0,0,63,46.78h0a2,2,0,0,0,2.06,2H80.53Z"/><path class="cls-4" d="M149.9,71.74l-.11,0H51.3A2.29,2.29,0,0,0,49,74v69.29a2.34,2.34,0,0,0,2.26,2.32h98.6a2.3,2.3,0,0,0,2.29-2.29V74A2.26,2.26,0,0,0,149.9,71.74Z"/></g></svg>