<?xml version="1.0" encoding="UTF-8"?>
<svg id="Ebene_1" data-name="Ebene 1" xmlns="http://www.w3.org/2000/svg" xmlns:xlink="http://www.w3.org/1999/xlink" version="1.1" viewBox="0 0 634.2 483.9">
  <defs>
    <style>
      .cls-1, .cls-2, .cls-3, .cls-4, .cls-5, .cls-6, .cls-7, .cls-8 {
        fill: none;
      }

      .cls-1, .cls-2, .cls-9, .cls-10, .cls-5, .cls-6, .cls-7 {
        stroke-miterlimit: 10;
      }

      .cls-1, .cls-2, .cls-4, .cls-5, .cls-6, .cls-11, .cls-7, .cls-8 {
        stroke-width: 2px;
      }

      .cls-1, .cls-9 {
        stroke: #fff;
      }

      .cls-12 {
        fill: url(#Unbenannter_Verlauf);
      }

      .cls-12, .cls-13, .cls-14, .cls-15, .cls-3, .cls-16, .cls-17, .cls-18, .cls-19, .cls-20, .cls-21, .cls-22, .cls-23, .cls-24, .cls-25, .cls-26, .cls-27, .cls-28, .cls-29, .cls-30 {
        stroke-width: 0px;
      }

      .cls-13 {
        fill: #f2f2f2;
        opacity: 0;
      }

      .cls-2, .cls-4, .cls-11, .cls-7 {
        stroke: #fc0;
      }

      .cls-14 {
        fill: #7f8b99;
      }

      .cls-31 {
        clip-path: url(#clippath);
      }

      .cls-15 {
        fill: #004482;
      }

      .cls-16 {
        fill: #706353;
      }

      .cls-17 {
        fill: #659ad2;
      }

      .cls-18 {
        fill: #fc0;
      }

      .cls-32 {
        clip-path: url(#clippath-1);
      }

      .cls-19 {
        fill: #f6f2e2;
      }

      .cls-20 {
        fill: #39f;
      }

      .cls-9 {
        fill: #333;
      }

      .cls-21 {
        fill: #f6f1e1;
      }

      .cls-22 {
        fill: #00acd7;
      }

      .cls-4, .cls-11, .cls-8 {
        stroke-linecap: round;
        stroke-linejoin: round;
      }

      .cls-23 {
        fill: #0090db;
      }

      .cls-10 {
        fill: #cc2537;
        stroke: #f63;
      }

      .cls-5, .cls-6, .cls-8 {
        stroke: #39f;
      }

      .cls-24 {
        fill: #00599c;
      }

      .cls-25 {
        fill: #fdfeff;
      }

      .cls-6 {
        stroke-dasharray: 0 0 2 2;
      }

      .cls-26 {
        fill: #fefefe;
      }

      .cls-27 {
        fill: #a9b9cb;
      }

      .cls-33 {
        isolation: isolate;
      }

      .cls-11, .cls-28 {
        fill: #fff;
      }

      .cls-7 {
        stroke-dasharray: 0 0 1.9 1.9;
      }

      .cls-29 {
        fill: #ffd138;
      }

      .cls-30 {
        fill: #f6f1e2;
      }
    </style>
    <linearGradient id="Unbenannter_Verlauf" data-name="Unbenannter Verlauf" x1="21.5" y1="732.4" x2="251.9" y2="732.4" gradientTransform="translate(0 -594)" gradientUnits="userSpaceOnUse">
      <stop offset="0" stop-color="#906"/>
      <stop offset=".2" stop-color="#780066"/>
      <stop offset=".4" stop-color="#5a0066"/>
      <stop offset=".6" stop-color="#406"/>
      <stop offset=".8" stop-color="#370066"/>
      <stop offset="1" stop-color="#306"/>
    </linearGradient>
    <clipPath id="clippath">
      <rect class="cls-3" x="117.7" y="160.9" width="36.3" height="7.1"/>
    </clipPath>
    <clipPath id="clippath-1">
      <rect class="cls-3" x="117.7" y="160.9" width="36.3" height="7.1"/>
    </clipPath>
  </defs>
  <path class="cls-13" d="M49.9,336.2h557.5c2.8,0,5,2.2,5,5v125.9c0,2.8-2.2,5-5,5H49.9c-2.8,0-5-2.2-5-5v-125.9c0-2.8,2.3-5,5-5Z"/>
  <path class="cls-12" d="M26.5,100.6h220.4c2.8,0,5,2.2,5,5v65.5c0,2.8-2.2,5-5,5H26.5c-2.8,0-5-2.2-5-5v-65.5c0-2.8,2.2-5,5-5Z"/>
  <path class="cls-2" d="M26.5,100.6h220.4c2.8,0,5,2.2,5,5v65.5c0,2.8-2.2,5-5,5H26.5c-2.8,0-5-2.2-5-5v-65.5c0-2.8,2.2-5,5-5Z"/>
  <path class="cls-4" d="M49.9,122.9h172c2.8,0,5,2.2,5,5v17.2c0,2.8-2.2,5-5,5H49.9c-2.8,0-5-2.2-5-5v-17.2c0-2.8,2.3-5,5-5Z"/>
  <g class="cls-33">
    <path class="cls-18" d="M83.5,134.9h-1.2l-.2-1c-.2-.2-.3-.3-.6-.4-.2-.1-.5-.1-.8-.1-.7,0-1.2.2-1.6.7s-.6,1.1-.6,1.9v.3c0,.8.2,1.4.5,1.9s.9.7,1.5.7.6,0,.8-.1c.3-.1.5-.2.6-.4l.2-1h1.2v1.5c-.3.4-.7.7-1.2.9s-1,.3-1.6.3c-1,0-1.9-.4-2.6-1.1s-1-1.7-1-2.8v-.2c0-1.1.3-2.1,1-2.8s1.5-1.1,2.6-1.1,1.2.1,1.6.3c.5.2.9.5,1.2.9v1.6h.2Z"/>
  </g>
  <g class="cls-33">
    <path class="cls-18" d="M84.4,139.1l.8-.2v-3.6l-.8-.2v-.9h2.3v.8c.2-.3.4-.5.6-.7s.5-.3.7-.3h.5l-.2,1.4h-.6c-.2,0-.4,0-.6.1s-.3.2-.3.4v2.8l.8.2v.9h-3.1v-.7h-.1Z"/>
  </g>
  <g class="cls-33">
    <path class="cls-18" d="M88.8,137.1c0-.9.2-1.6.7-2.1.5-.6,1.2-.8,2-.8s1.5.3,2,.8c.5.6.7,1.3.7,2.1h0c0,1-.2,1.7-.7,2.2s-1.2.8-2,.8-1.5-.3-2-.8-.7-1.3-.7-2.1h0ZM90.4,137.2c0,.5,0,1,.3,1.3s.5.5.9.5.7-.2.9-.5c.2-.3.3-.7.3-1.3h0c0-.6,0-1-.3-1.4s-.5-.5-.9-.5-.7.2-.9.5-.3.7-.3,1.3h0Z"/>
    <path class="cls-18" d="M99.7,136.2h-1.1l-.2-.7c0-.1-.2-.2-.4-.2-.2-.1-.3-.1-.5-.1-.3,0-.5.1-.7.2-.2.1-.2.3-.2.5s0,.3.2.4.5.2.9.3c.7.1,1.3.4,1.6.6s.5.7.5,1.1-.2,1-.7,1.3c-.4.3-1,.5-1.8.5s-.9-.1-1.2-.2c-.4-.1-.7-.3-1-.6v-1.3h1.1l.2.8c0,.1.2.1.4.2.2,0,.3.1.5.1.3,0,.6-.1.7-.2.2-.1.2-.3.2-.5s0-.3-.3-.4c-.2-.1-.5-.2-.9-.3-.7-.1-1.2-.3-1.5-.6s-.5-.6-.5-1.1.2-.9.6-1.3,1-.5,1.7-.5.9.1,1.3.2c.4.1.7.3.9.5l.2,1.3Z"/>
    <path class="cls-18" d="M105.4,136.2h-1.1l-.2-.7c0-.1-.2-.2-.4-.2-.2-.1-.3-.1-.5-.1-.3,0-.5.1-.7.2-.2.1-.2.3-.2.5s0,.3.2.4.5.2.9.3c.7.1,1.3.4,1.6.6s.5.7.5,1.1-.2,1-.7,1.3c-.4.3-1,.5-1.8.5s-.9-.1-1.2-.2c-.4-.1-.7-.3-1-.6v-1.3h1.1l.2.8c0,.1.2.1.4.2.2,0,.3.1.5.1.3,0,.6-.1.7-.2.2-.1.2-.3.2-.5s0-.3-.3-.4c-.2-.1-.5-.2-.9-.3-.7-.1-1.2-.3-1.5-.6s-.5-.6-.5-1.1.2-.9.6-1.3,1-.5,1.7-.5.9.1,1.3.2c.4.1.7.3.9.5l.2,1.3Z"/>
    <path class="cls-18" d="M109.7,137.3h-3v-1.2h3v1.2Z"/>
    <path class="cls-18" d="M117,134.9h-1.2l-.2-1c-.2-.2-.3-.3-.6-.4-.2-.1-.5-.1-.8-.1-.7,0-1.2.2-1.6.7s-.6,1.1-.6,1.9v.3c0,.8.2,1.4.5,1.9s.9.7,1.5.7.6,0,.8-.1c.3-.1.5-.2.6-.4l.2-1h1.2v1.5c-.3.4-.7.7-1.2.9s-1,.3-1.6.3c-1,0-1.9-.4-2.6-1.1s-1-1.7-1-2.8v-.2c0-1.1.3-2.1,1-2.8s1.5-1.1,2.6-1.1,1.2.1,1.6.3c.5.2.9.5,1.2.9v1.6h.2Z"/>
    <path class="cls-18" d="M117.8,137.1c0-.9.2-1.6.7-2.1.5-.6,1.2-.8,2-.8s1.5.3,2,.8c.5.6.7,1.3.7,2.1h0c0,1-.2,1.7-.7,2.2s-1.2.8-2,.8-1.5-.3-2-.8-.7-1.3-.7-2.1h0ZM119.4,137.2c0,.5,0,1,.3,1.3s.5.5.9.5.7-.2.9-.5c.2-.3.3-.7.3-1.3h0c0-.6,0-1-.3-1.4s-.5-.5-.9-.5-.7.2-.9.5-.3.7-.3,1.3h0Z"/>
    <path class="cls-18" d="M123.8,135.2v-.9h2.3v.8c.3-.3.5-.5.8-.6.3-.2.6-.2,1-.2s.7.1,1,.2.5.4.6.7c.2-.3.4-.6.7-.7.3-.2.6-.3,1-.3.6,0,1,.2,1.4.6.3.4.5,1,.5,1.8v2.4l.8.2v.9h-3v-.9l.7-.2v-2.4c0-.4-.1-.7-.2-.9s-.4-.3-.6-.3-.4,0-.6.1c-.2.1-.3.2-.4.4v.2h0v2.8l.6.2v.9h-2.8v-.9l.6-.2v-2.4c0-.4-.1-.7-.2-.9,0-.2-.4-.3-.6-.3s-.4,0-.6.1-.3.2-.4.3v3.1l.7.2v.9h-3v-.9l.8-.2v-3.6h-1.1Z"/>
    <path class="cls-18" d="M134.1,135.2v-.9h2.3v.7c.3-.3.5-.4.7-.6s.5-.2.8-.2c.7,0,1.3.3,1.7.8.4.6.6,1.3.6,2.2h0c0,1-.2,1.6-.6,2.2-.4.5-1,.8-1.7.8s-.6-.1-.8-.2c-.2-.1-.4-.3-.6-.5v1.7l.8.2v.9h-3.1v-.9l.8-.2v-5.8l-.9-.2ZM138.6,137.2c0-.5-.1-1-.3-1.3s-.5-.5-.8-.5-.4,0-.6.1c-.2.1-.3.2-.4.4v2.5c.1.2.2.3.4.4.2.1.4.1.6.1.4,0,.7-.1.8-.4.2-.3.3-.7.3-1.2h0Z"/>
    <path class="cls-18" d="M140.8,139.1l.8-.2v-3.6l-.8-.2v-.9h2.4v4.7l.8.2v.9h-3.1v-.9h0ZM143.1,132.9h-1.6v-1.2h1.6v1.2Z"/>
    <path class="cls-18" d="M144.2,132.6v-.9h2.4v7.3l.8.2v.9h-3.1v-.9l.8-.2v-6.2l-.9-.2Z"/>
    <path class="cls-18" d="M150.7,140.2c-.8,0-1.5-.3-2-.8s-.8-1.2-.8-2v-.2c0-.9.2-1.6.7-2.1.5-.6,1.1-.8,1.9-.8s1.4.2,1.8.7.6,1.1.6,1.9v.9h-3.5c0,.4.2.7.4.9s.5.4.9.4.6,0,.9-.1c.2-.1.5-.2.8-.3l.4,1c-.2.2-.6.3-.9.5-.3,0-.7,0-1.2,0ZM150.6,135.3c-.3,0-.5.1-.7.3s-.3.5-.3.9h1.9c0-.4-.1-.7-.2-.9-.2-.2-.4-.3-.7-.3Z"/>
    <path class="cls-18" d="M153.9,139.1l.8-.2v-3.6l-.8-.2v-.9h2.3v.8c.2-.3.4-.5.6-.7s.5-.3.7-.3h.5l-.2,1.4h-.6c-.2,0-.4,0-.6.1s-.3.2-.3.4v2.8l.8.2v.9h-3.1v-.7h0Z"/>
    <path class="cls-18" d="M161.1,133.2v-.9h3.2v.9l-.8.2v5.6l.8.2v.9h-3.2v-.9l.8-.2v-5.6l-.8-.2Z"/>
    <path class="cls-18" d="M164.7,135.2v-.9h2.3v.8c.3-.3.5-.5.8-.6.3-.2.6-.2,1-.2s.7.1,1,.2.5.4.6.7c.2-.3.4-.6.7-.7.3-.2.6-.3,1-.3.6,0,1,.2,1.4.6.3.4.5,1,.5,1.8v2.4l.8.2v.9h-3v-.9l.7-.2v-2.4c0-.4-.1-.7-.2-.9s-.4-.3-.6-.3-.4,0-.6.1c-.2.1-.3.2-.4.4v.2h0v2.8l.6.2v.9h-2.8v-.9l.6-.2v-2.4c0-.4-.1-.7-.2-.9-.1-.2-.4-.3-.6-.3s-.4,0-.6.1c-.2.1-.3.2-.4.3v3.1l.7.2v.9h-3v-.9l.8-.2v-3.6h-1.1Z"/>
    <path class="cls-18" d="M178.9,140.1c0-.1-.1-.2-.1-.3s-.1-.2-.1-.3c-.2.2-.4.4-.7.5s-.6.2-.9.2c-.6,0-1-.2-1.4-.5-.3-.3-.5-.7-.5-1.3s.2-1,.7-1.3,1.1-.4,1.9-.4h.8v-.6c0-.3-.1-.5-.2-.6s-.4-.2-.7-.2-.3,0-.5.1-.3.1-.3.1v.6h-1.3v-1.3c.3-.2.6-.4,1-.5s.8-.2,1.2-.2c.7,0,1.3.2,1.8.5.4.4.7.9.7,1.5v2.9h.5v1h-1.9ZM177.5,139c.2,0,.5-.1.6-.2.2-.1.3-.2.5-.4v-.9h-.8c-.3,0-.6.1-.8.2-.2.2-.3.3-.3.6s.1.4.2.5c.2.2.4.2.6.2Z"/>
    <path class="cls-18" d="M181.3,137.2c0-.9.2-1.7.6-2.2.4-.6,1-.8,1.7-.8s.6.1.9.2c.2.1.5.4.6.6v-.7h1.5v5.6c0,.8-.2,1.4-.7,1.8-.5.5-1.1.7-2,.7s-.6,0-.9-.1c-.3-.1-.6-.2-.9-.3l.3-1.1c.3.1.5.2.8.3s.5.1.8.1.7-.1.9-.3.3-.6.3-1v-.4c-.2.2-.4.4-.6.5-.2.1-.5.2-.8.2-.7,0-1.3-.3-1.7-.8s-.6-1.2-.6-2.1v-.2h-.2ZM182.9,137.3c0,.5.1.9.3,1.2s.5.4.8.4.4,0,.6-.1c.2-.1.3-.2.4-.4v-2.5c-.1-.2-.2-.3-.4-.4-.2-.1-.4-.1-.6-.1-.4,0-.7.2-.8.5-.2.3-.3.8-.3,1.3h0Z"/>
    <path class="cls-18" d="M190.3,140.2c-.8,0-1.5-.3-2-.8s-.8-1.2-.8-2v-.2c0-.9.2-1.6.7-2.1.5-.6,1.1-.8,1.9-.8s1.4.2,1.8.7.6,1.1.6,1.9v.9h-3.5c0,.4.2.7.4.9s.5.4.9.4.6,0,.9-.1c.2-.1.5-.2.8-.3l.4,1c-.2.2-.6.3-.9.5-.3,0-.8,0-1.2,0ZM190.1,135.3c-.3,0-.5.1-.7.3s-.3.5-.3.9h1.9c0-.4-.1-.7-.2-.9-.1-.2-.4-.3-.7-.3Z"/>
  </g>
  <path class="cls-11" d="M128,89.8c4.6-4.5,12.1-4.5,16.6,0s4.5,12.1-.1,16.6-12.1,4.5-16.6,0c-2.2-2.2-3.4-5.1-3.4-8.2s.8-5.1,2.4-7.1"/>
  <path class="cls-4" d="M136.3,103.9h-4.3c-.6,0-.8-.2-.8-.8v-6.5c0-.6.2-.8.8-.8h8.5c.5,0,.8.2.8.8v6.5c0,.6-.2.8-.8.8h-4.2Z"/>
  <path class="cls-4" d="M131.9,95.2c0-1.8,1-3.4,2.6-4.1,2.1-.9,4.6,0,5.5,2.2.1.2.2.5.2.7.1.4.1.8.2,1.2"/>
  <path class="cls-18" d="M135.5,101.1h0v.9c0,.2.1.2.3.2h.8c.2,0,.3,0,.3-.3v-1.6c0-.2.1-.3.2-.4.5-.3.8-.9.6-1.4-.2-.6-.8-1-1.4-1-.7,0-1.3.3-1.6.9-.2.6,0,1.2.5,1.5.2,0,.3.3.3.5,0,.2,0,.5,0,.7Z"/>
  <g id="Scone_logo_white" data-name="Scone logo white">
    <g class="cls-31">
      <g class="cls-32">
        <g>
          <path class="cls-29" d="M122.5,162.7h-.8c-.2,0-.3.1-.3.3v.8c0,.2,0,.3.3.3h.8c.2,0,.3-.1.3-.3v-.8c0-.2-.2-.3-.3-.3M119.8,164h.8c.2,0,.3-.1.3-.3v-.7c0-.2,0-.3-.3-.3h-.8c-.2,0-.3.1-.3.3v.8c0,0,0,.3.3.2M119,163.8v-.8c0-.2,0-.3-.3-.3h-.8c-.2,0-.3.1-.3.3v.8c0,.2,0,.3.3.3h.8c.2,0,.3-.2.3-.3M122.5,164.6c0,0-.2.1-.2.2v.9c0,.1,0,.2.2.2s.2-.1.2-.2v-.9c0-.1,0-.2-.2-.2h0M120.4,164.9v.8c0,.2,0,.3.3.3h.8c.2,0,.3-.1.3-.3v-.8c0-.2,0-.3-.3-.3h-.8c-.1,0-.3.1-.3.3M119.9,165.7v-.8c0-.2,0-.3-.3-.3h-.8c-.2,0-.3.1-.3.3v.8c0,.2,0,.3.3.3h.8c.2,0,.3-.2.3-.3M122.5,166.5h-.8c-.2,0-.3.1-.3.3v.8c0,.2,0,.3.3.3h.8c.2,0,.3-.1.3-.3h0v-.8c0-.2-.2-.3-.3-.3M120.5,166.5h-.8c-.2,0-.3.1-.3.3v.8c0,.2,0,.3.3.3h.8c.2,0,.3-.1.3-.3h0v-.8c0-.2-.2-.3-.3-.3h0"/>
          <path class="cls-29" d="M123.4,162.4c.3.3.8.4,1.2.4h0v2.2c0,.8-1,1.3-1.2,1.4h0v-4h0"/>
          <path class="cls-29" d="M121.1,162.3c1.6-.1,1.9-.6,1.9-.6h0c0-.1,0-.1,0-.1,0,0,.3.6,1.9.6s0,0,0,.1v2.8c0,.9-1.7,1.9-1.7,1.9h0v.8h.2c.6-.3,2.3-1.3,2.3-2.5v-3.5c0-.1,0-.1-.2-.1-2,0-2.4-.8-2.4-.8h-.2s-.3.8-2.4.8,0,0,0,.1v.4s0,.1,0,.1h.4"/>
          <path class="cls-25" d="M127.3,166.8l.8-.3c.2.4.6.6,1.1.6s.4,0,.6-.1c.2-.1.3-.3.3-.4,0-.4-.6-.7-1-.9h0c-.4-.1-.7-.3-1-.5s-.5-.6-.5-1,.2-.8.5-1c.3-.3.8-.4,1.2-.4.7,0,1.3.3,1.6.9l-.9.3-.3-.3c-.1-.1-.3-.1-.5-.1-.5,0-.8.3-.8.6s.1.4.3.5c.2.2.5.3.7.4h.1c.6.4,1.4.7,1.4,1.5s-.2.8-.6,1c-.4.3-.9.4-1.3.4-.6-.1-1.4-.6-1.7-1.2"/>
          <path class="cls-25" d="M134.5,167.9c-.3,0-.7-.1-1-.2-.3-.1-.6-.3-.8-.6-.2-.2-.4-.5-.6-.8-.3-.6-.3-1.4,0-2,.1-.3.3-.6.6-.8.2-.2.5-.4.8-.6.3-.1.7-.2,1-.2.8,0,1.6.4,2.1,1l-.7.5c-.3-.4-.8-.7-1.4-.7s-.9.2-1.2.5-.5.8-.5,1.2.2.9.5,1.2.8.5,1.2.5.6-.1.9-.3c.3-.2.5-.4.6-.6l.7.4c-.2.4-.5.8-.9,1-.4.4-.8.5-1.3.5"/>
          <path class="cls-25" d="M140.2,167.9c-.3,0-.7-.1-1-.2-.3-.1-.6-.3-.8-.6-.2-.2-.4-.5-.6-.8-.1-.3-.2-.7-.2-1,0-.7.3-1.3.8-1.8s.5-.4.8-.6c.6-.3,1.4-.3,2,0,.3.1.6.3.8.6.2.2.4.5.6.8.1.3.2.7.2,1s-.1.7-.2,1c-.1.3-.3.6-.6.8-.2.2-.5.4-.8.6-.3.1-.7.2-1,.2M140.2,163.5c-.4,0-.9.2-1.2.5s-.5.8-.5,1.2c0,1,.7,1.8,1.7,1.8h0c.5,0,.9-.2,1.2-.5s.5-.8.5-1.2-.2-.9-.5-1.2c-.3-.4-.7-.6-1.2-.6"/>
          <polygon class="cls-25" points="148.7 162.7 148.7 168 145 164.6 145 167.8 144.1 167.8 144.1 162.5 147.8 165.9 147.8 162.7 148.7 162.7"/>
          <polygon class="cls-25" points="151.1 163.5 151.1 164.8 153.7 164.8 153.7 165.6 151.1 165.6 151.1 167 154 167 154 167.8 150.2 167.8 150.2 162.7 154 162.7 154 163.5 151.1 163.5"/>
        </g>
      </g>
    </g>
  </g>
  <path class="cls-5" d="M51,239.8h170c2.8,0,5,2.2,5,5v20.6c0,2.8-2.2,5-5,5H51c-2.8,0-5-2.2-5-5v-20.6c0-2.8,2.2-5,5-5Z"/>
  <g class="cls-33">
    <path class="cls-28" d="M102.5,250.3c1.1,0,1.9.3,2.6,1s1,1.6,1,2.6v1.4c0,1.1-.3,1.9-1,2.6-.7.7-1.6,1-2.6,1h-3.9v-1l.9-.2v-6.2l-.9-.2v-1.1h3.9ZM101.3,251.6v6h1.2c.6,0,1.1-.2,1.5-.6s.5-1,.5-1.7v-1.5c0-.7-.2-1.2-.5-1.6-.4-.4-.8-.6-1.5-.6h-1.2Z"/>
    <path class="cls-28" d="M107.1,255.7c0-1,.3-1.8.8-2.4.5-.6,1.3-.9,2.2-.9s1.7.3,2.2.9c.5.6.8,1.4.8,2.4h0c0,1.1-.3,1.9-.8,2.5s-1.3.9-2.2.9-1.7-.3-2.3-.9c-.5-.6-.8-1.4-.8-2.4h0c0-.1.1-.1.1-.1ZM108.8,255.8c0,.6,0,1.1.3,1.4.2.4.5.5,1,.5s.8-.2,1-.5c.2-.4.3-.8.3-1.4h0c0-.7,0-1.1-.3-1.5-.2-.4-.5-.5-1-.5s-.8.2-1,.5c-.2.4-.3.8-.3,1.4h0Z"/>
    <path class="cls-28" d="M117,257.7c.3,0,.6-.1.7-.3.2-.2.3-.4.3-.7h1.6c0,.7-.2,1.2-.7,1.6s-1.1.7-1.9.7-1.7-.3-2.2-.9-.8-1.4-.8-2.3v-.2c0-1,.3-1.7.8-2.3s1.3-.9,2.3-.9,1,.1,1.4.2c.4.2.8.4,1,.7v1.7h-1.4l-.3-1c0-.1-.2-.1-.3-.2s-.3-.1-.4-.1c-.5,0-.8.2-1,.5-.2.4-.3.8-.3,1.4v.2c0,.6,0,1,.3,1.4,0,.4.4.5.9.5Z"/>
  </g>
  <g class="cls-33">
    <path class="cls-28" d="M120.2,250.7v-1.1h2.7v5.4h.4l1-1.4h-.6v-1.2h3.2v1.1l-.8.2-1.2,1.6,1.6,2.5h.7v1.1h-3v-1h.4c0-.1-1-1.7-1-1.7h-.7v1.5l.8.2v1h-3.3v-1l.8-.2v-6.9h-1Z"/>
  </g>
  <g class="cls-33">
    <path class="cls-28" d="M130.8,259.1c-.9,0-1.7-.3-2.2-.9-.6-.6-.8-1.4-.8-2.3v-.2c0-1,.3-1.8.8-2.4.5-.6,1.2-.9,2.1-.9s1.5.3,2,.8.7,1.2.7,2.1v1h-3.9c0,.4.2.8.4,1.1.3.3.6.4,1,.4s.7,0,1-.1.5-.2.8-.4l.5,1.1c-.3.2-.6.4-1,.5s-.9.2-1.4.2ZM130.7,253.7c-.3,0-.6.1-.8.4-.2.2-.3.6-.3,1h2.1v-.2c0-.4-.1-.7-.3-.9,0-.2-.4-.3-.7-.3Z"/>
    <path class="cls-28" d="M134.4,257.9l.8-.2v-4l-.9-.2v-1.1h2.6v.9c.3-.3.4-.6.7-.8.2-.2.5-.3.8-.3h.3c.1,0,.2,0,.3.1l-.2,1.6h-.7c-.3,0-.5,0-.6.1-.2.1-.3.2-.4.4v3.1l.8.2v1h-3.4v-.8h-.1Z"/>
    <path class="cls-28" d="M143.2,255.9h-3.4v-1.3h3.4v1.3Z"/>
    <path class="cls-28" d="M148.1,250.3c1.1,0,1.9.3,2.6,1,.7.7,1,1.6,1,2.6v1.4c0,1.1-.3,1.9-1,2.6-.7.7-1.6,1-2.6,1h-3.9v-1l.9-.2v-6.2l-.9-.2v-1.1h3.9ZM146.9,251.6v6h1.2c.6,0,1.1-.2,1.5-.6s.5-1,.5-1.7v-1.5c0-.7-.2-1.2-.5-1.6-.4-.4-.8-.6-1.5-.6h-1.2Z"/>
  </g>
  <g class="cls-33">
    <path class="cls-28" d="M156.8,259c0-.1-.1-.2-.1-.3s-.1-.2-.1-.3c-.2.2-.5.4-.8.6s-.6.2-1,.2c-.6,0-1.1-.2-1.5-.5s-.6-.8-.6-1.4.2-1.1.7-1.4c.5-.3,1.2-.5,2.1-.5h.9v-.6c0-.3-.1-.6-.3-.7-.2-.2-.4-.3-.8-.3s-.4,0-.5.1c-.2,0-.3.1-.4.2v.7h-1.4v-1.4c.3-.2.7-.4,1.1-.5.4-.1.9-.2,1.3-.2.8,0,1.5.2,2,.6.5.4.8,1,.8,1.7v3.3h.5v1.1h-1.9v-.4ZM155.3,257.8c.3,0,.5-.1.7-.2s.4-.3.5-.4v-1h-.9c-.4,0-.7.1-.8.3s-.3.4-.3.6.1.4.2.5c.2.1.4.2.6.2Z"/>
  </g>
  <g class="cls-33">
    <path class="cls-28" d="M161.5,250.9v1.6h1.1v1.2h-1.1v3.3c0,.3.1.4.2.5s.2.2.4.2h.3c.1,0,.2,0,.3-.1v1.3c0,.1-.3.1-.5.1h-.6c-.6,0-1.1-.2-1.4-.5-.3-.3-.5-.9-.5-1.6v-3.3h-1v-1.2h1v-1.6h1.8Z"/>
    <path class="cls-28" d="M166.6,259.1c-.9,0-1.7-.3-2.2-.9-.6-.6-.8-1.4-.8-2.3v-.2c0-1,.3-1.8.8-2.4.5-.6,1.2-.9,2.1-.9s1.5.3,2,.8.7,1.2.7,2.1v1h-3.9c0,.4.2.8.4,1.1.3.3.6.4,1,.4s.7,0,1-.1.5-.2.8-.4l.5,1.1c-.3.2-.6.4-1,.5s-.9.2-1.4.2ZM166.5,253.7c-.3,0-.6.1-.8.4-.2.2-.3.6-.3,1h2.1v-.2c0-.4-.1-.7-.3-.9,0-.2-.4-.3-.7-.3Z"/>
    <path class="cls-28" d="M170,257.9l.8-.2v-4l-.9-.2v-1.1h2.7v5.2l.8.2v1h-3.4v-.9ZM172.6,250.9h-1.7v-1.3h1.7v1.3Z"/>
  </g>
  <path class="cls-1" d="M437.5,239.8h170c2.8,0,5,2.2,5,5v20.6c0,2.8-2.2,5-5,5h-170c-2.8,0-5-2.2-5-5v-20.6c0-2.8,2.2-5,5-5Z"/>
  <g class="cls-33">
    <path class="cls-28" d="M458.1,253.2h-1.3l-.2-1.2c-.2-.2-.4-.3-.6-.4s-.6-.1-.9-.1c-.8,0-1.3.3-1.7.8s-.6,1.3-.6,2.2v.3c0,.9.2,1.6.6,2.2s1,.8,1.7.8.7,0,.9-.1c.3-.1.5-.2.7-.4l.2-1.2h1.3v1.7c-.4.4-.8.7-1.3,1s-1.2.4-1.8.4c-1.2,0-2.1-.4-2.9-1.2s-1.1-1.8-1.1-3.1v-.3c0-1.3.4-2.3,1.1-3.1s1.7-1.2,2.9-1.2,1.3.1,1.8.4c.5.2,1,.6,1.3,1v1.5h-.1Z"/>
    <path class="cls-28" d="M463.5,258.1c-.2.3-.5.5-.8.7s-.7.2-1,.2c-.7,0-1.2-.2-1.6-.7-.4-.4-.6-1.1-.6-2v-2.7l-.7-.2v-1.1h2.4v3.9c0,.5.1.8.2,1s.4.3.7.3.5,0,.7-.1.4-.2.5-.4v-3.5l-.8-.2v-1.1h2.5v5.2l.8.2v1h-2.3v-.5Z"/>
    <path class="cls-28" d="M471.9,254.7h-1.2l-.2-.8c-.1-.1-.3-.2-.5-.2-.2-.1-.4-.1-.6-.1-.3,0-.5.1-.7.2-.2.1-.3.3-.3.5s.1.4.3.5c.2.1.5.2,1,.3.8.2,1.4.4,1.8.7.4.3.6.7.6,1.3s-.3,1.1-.8,1.4c-.5.4-1.2.6-2,.6s-1-.1-1.4-.2-.8-.4-1.1-.6v-1.5h1.2l.2.8c.1.1.2.2.4.2s.4.1.6.1c.4,0,.6-.1.8-.2.2-.1.3-.3.3-.5s-.1-.4-.3-.5c-.2-.1-.5-.3-1-.4-.8-.2-1.3-.4-1.7-.7-.4-.3-.6-.7-.6-1.2s.2-1,.7-1.4,1.1-.6,1.9-.6,1,.1,1.4.2.8.3,1.1.5v1.6Z"/>
  </g>
  <g class="cls-33">
    <path class="cls-28" d="M475.5,250.9v1.6h1.1v1.2h-1.1v3.3c0,.3.1.4.2.5s.2.2.4.2h.3c.1,0,.2,0,.3-.1v1.3c-.1.1-.3.1-.5.1h-.6c-.6,0-1.1-.2-1.4-.5s-.5-.9-.5-1.6v-3.3h-1v-1.2h1v-1.6h1.8Z"/>
  </g>
  <g class="cls-33">
    <path class="cls-28" d="M477.3,255.7c0-1,.3-1.8.8-2.4.5-.6,1.3-.9,2.2-.9s1.7.3,2.2.9c.5.6.8,1.4.8,2.4h0c0,1.1-.3,1.9-.8,2.5s-1.3.9-2.2.9-1.7-.3-2.3-.9-.8-1.4-.8-2.4h0c0-.1,0-.1,0-.1ZM479,255.8c0,.6.1,1.1.3,1.4s.5.5,1,.5.8-.2,1-.5.3-.8.3-1.4h0c0-.7-.1-1.1-.3-1.5-.2-.4-.5-.5-1-.5s-.8.2-1,.5c-.2.4-.3.8-.3,1.4h0Z"/>
    <path class="cls-28" d="M484,253.5v-1.1h2.6v.9c.3-.3.6-.6.9-.7.3-.2.7-.3,1.1-.3s.8.1,1.1.3c.3.2.5.5.7.8.2-.3.5-.6.8-.8s.7-.3,1.1-.3c.6,0,1.1.2,1.5.7s.6,1.1.6,2v2.7l.8.2v1h-3.3v-1l.8-.2v-2.7c0-.5-.1-.8-.2-1-.2-.2-.4-.3-.7-.3s-.5.1-.6.2c-.2.1-.3.3-.4.5v3.4l.7.2v1h-3.1v-1l.7-.2v-2.8c0-.5-.1-.8-.2-1s-.4-.3-.7-.3-.4,0-.6.1-.3.2-.4.4v3.5l.8.2v1h-4v-1l.8-.2v-4l-.8-.2Z"/>
    <path class="cls-28" d="M505.6,253.2h-1.3l-.2-1.2c-.2-.2-.4-.3-.6-.4s-.6-.1-.9-.1c-.8,0-1.3.3-1.7.8s-.6,1.3-.6,2.2v.3c0,.9.2,1.6.6,2.2s1,.8,1.7.8.7,0,.9-.1c.3-.1.5-.2.7-.4l.2-1.2h1.3v1.7c-.4.4-.8.7-1.3,1s-1.2.4-1.8.4c-1.2,0-2.1-.4-2.9-1.2s-1.1-1.8-1.1-3.1v-.3c0-1.3.4-2.3,1.1-3.1s1.7-1.2,2.9-1.2,1.3.1,1.8.4c.5.2,1,.6,1.3,1v1.5h-.1Z"/>
    <path class="cls-28" d="M506.5,255.7c0-1,.3-1.8.8-2.4.5-.6,1.3-.9,2.2-.9s1.7.3,2.2.9c.5.6.8,1.4.8,2.4h0c0,1.1-.3,1.9-.8,2.5s-1.3.9-2.2.9-1.7-.3-2.3-.9-.8-1.4-.8-2.4h0c0-.1,0-.1,0-.1ZM508.2,255.8c0,.6.1,1.1.3,1.4s.5.5,1,.5.8-.2,1-.5.3-.8.3-1.4h0c0-.7-.1-1.1-.3-1.5-.2-.4-.5-.5-1-.5s-.8.2-1,.5c-.2.4-.3.8-.3,1.4h0Z"/>
    <path class="cls-28" d="M513.2,257.9l.8-.2v-4l-.9-.2v-1.1h2.6v.9c.3-.3.6-.6.9-.8s.7-.3,1.1-.3c.7,0,1.2.2,1.5.6.4.4.5,1.1.5,1.9v2.8l.8.2v1h-3.3v-1l.7-.2v-2.8c0-.4,0-.7-.3-.9s-.4-.3-.8-.3-.4,0-.6.1c-.2.1-.3.2-.5.4v3.5l.7.2v1h-3.3v-.8h.1Z"/>
    <path class="cls-28" d="M523.7,250.9v1.6h1.1v1.2h-1.1v3.3c0,.3,0,.4.2.5s.2.2.4.2h.3c0,0,.2,0,.3-.1v1.3c-.1.1-.3.1-.5.1h-.6c-.6,0-1.1-.2-1.4-.5-.3-.3-.5-.9-.5-1.6v-3.3h-1v-1.2h1v-1.6h1.8Z"/>
    <path class="cls-28" d="M529.8,259c0-.1,0-.2,0-.3s0-.2,0-.3c-.2.2-.5.4-.8.6s-.6.2-1,.2c-.6,0-1.1-.2-1.5-.5s-.6-.8-.6-1.4.2-1.1.7-1.4c.5-.3,1.2-.5,2.1-.5h.9v-.6c0-.3,0-.6-.3-.7-.2-.2-.4-.3-.8-.3s-.4,0-.5.1c-.2,0-.3.1-.4.2v.7h-1.4v-1.4c.3-.2.7-.4,1.1-.5.4-.1.9-.2,1.3-.2.8,0,1.5.2,2,.6.5.4.8,1,.8,1.7v3.3h.5v1.1h-1.9v-.4ZM528.3,257.8c.3,0,.5-.1.7-.2s.4-.3.5-.4v-1h-.9c-.4,0-.7.1-.8.3s-.3.4-.3.6,0,.4.2.5c0,.1.3.2.6.2Z"/>
    <path class="cls-28" d="M532.3,257.9l.8-.2v-4l-.9-.2v-1.1h2.7v5.2l.8.2v1h-3.4v-.9h0ZM534.9,250.9h-1.7v-1.3h1.7v1.3Z"/>
  </g>
  <g class="cls-33">
    <path class="cls-28" d="M536.3,257.9l.8-.2v-4l-.9-.2v-1.1h2.6v.9c.3-.3.6-.6.9-.8s.7-.3,1.1-.3c.7,0,1.2.2,1.5.6s.5,1.1.5,1.9v2.8l.8.2v1h-3.3v-1l.7-.2v-2.8c0-.4,0-.7-.3-.9s-.4-.3-.8-.3-.4,0-.6.1-.3.2-.5.4v3.5l.7.2v1h-3.3v-.8h.1Z"/>
  </g>
  <g class="cls-33">
    <path class="cls-28" d="M547.2,259.1c-.9,0-1.7-.3-2.2-.9-.6-.6-.8-1.4-.8-2.3v-.2c0-1,.3-1.8.8-2.4.5-.6,1.2-.9,2.1-.9s1.5.3,2,.8.7,1.2.7,2.1v1h-3.9c0,.4.2.8.4,1.1.3.3.6.4,1,.4s.7,0,1-.1.5-.2.8-.4l.5,1.1c-.3.2-.6.4-1,.5-.4,0-.9.2-1.4.2ZM547,253.7c-.3,0-.6.1-.8.4s-.3.6-.3,1h2.1v-.2c0-.4,0-.7-.3-.9-.1-.2-.3-.3-.7-.3Z"/>
    <path class="cls-28" d="M550.7,257.9l.8-.2v-4l-.9-.2v-1.1h2.6v.9c.3-.3.4-.6.7-.8.2-.2.5-.3.8-.3h.3c0,0,.2,0,.3.1l-.3,1.7h-.7c-.3,0-.5,0-.6.1-.2.1-.3.2-.4.4v3.1l.8.2v1h-3.4v-.9h0Z"/>
    <path class="cls-28" d="M558.7,251.3v-1.1h3.6v1.1l-.9.2v6.2l.9.2v1h-3.6v-1l.9-.2v-6.2l-.9-.2Z"/>
    <path class="cls-28" d="M562.8,253.5v-1.1h2.6v.9c.3-.3.6-.6.9-.7.3-.2.7-.3,1.1-.3s.8.1,1.1.3.5.5.7.8c.2-.3.5-.6.8-.8s.7-.3,1.1-.3c.6,0,1.1.2,1.5.7.4.4.6,1.1.6,2v2.7l.8.2v1h-3.3v-1l.8-.2v-2.7c0-.5,0-.8-.2-1s-.4-.3-.7-.3-.5.1-.6.2c-.2.1-.3.3-.4.5v3.4l.7.2v1h-3.1v-1l.7-.2v-2.8c0-.5,0-.8-.2-1-.2-.2-.4-.3-.7-.3s-.4,0-.6.1c-.2.1-.3.2-.4.4v3.5l.8.2v1h-3.3v-1l.8-.2v-4l-1.5-.2Z"/>
    <path class="cls-28" d="M578.5,259c0-.1,0-.2,0-.3s0-.2,0-.3c-.2.2-.5.4-.8.6s-.6.2-1,.2c-.6,0-1.1-.2-1.5-.5s-.6-.8-.6-1.4.2-1.1.7-1.4c.5-.3,1.2-.5,2.1-.5h.9v-.6c0-.3,0-.6-.3-.7-.2-.2-.4-.3-.8-.3s-.4,0-.5.1c-.2,0-.3.1-.4.2v.7h-1.4v-1.4c.3-.2.7-.4,1.1-.5.4-.1.9-.2,1.3-.2.8,0,1.5.2,2,.6.5.4.8,1,.8,1.7v3.3h.5v1.1h-1.9v-.4ZM577,257.8c.3,0,.5-.1.7-.2s.4-.3.5-.4v-1h-.9c-.4,0-.7.1-.8.3s-.3.4-.3.6,0,.4.2.5c0,.1.3.2.6.2Z"/>
    <path class="cls-28" d="M581.2,255.8c0-1,.2-1.8.7-2.5.4-.6,1.1-.9,1.9-.9s.7.1,1,.2c.3.2.5.4.7.7v-.8h1.6v6.3c0,.9-.3,1.5-.8,2s-1.3.8-2.2.8-.7,0-1-.1c-.4-.1-.7-.2-1-.4l.3-1.2c.3.1.6.2.8.3.3.1.6.1.9.1s.7-.1,1-.4c.2-.3.3-.6.3-1.1v-.4c-.2.2-.4.4-.7.6-.3.1-.6.2-.9.2-.8,0-1.4-.3-1.9-.9s-.7-1.4-.7-2.3v-.2h0ZM583,255.9c0,.6,0,1,.3,1.3s.5.5.9.5.5,0,.7-.1.3-.2.4-.4v-2.8c0-.2-.3-.3-.4-.5s-.4-.2-.7-.2-.7.2-.9.6c-.2.4-.3.9-.3,1.5h0Z"/>
    <path class="cls-28" d="M591.2,259.1c-.9,0-1.7-.3-2.2-.9-.6-.6-.8-1.4-.8-2.3v-.2c0-1,.3-1.8.8-2.4.5-.6,1.2-.9,2.1-.9s1.5.3,2,.8.7,1.2.7,2.1v1h-3.9c0,.4.2.8.4,1.1.3.3.6.4,1,.4s.7,0,1-.1.5-.2.8-.4l.5,1.1c-.3.2-.6.4-1,.5-.4,0-.9.2-1.4.2ZM591,253.7c-.3,0-.6.1-.8.4s-.3.6-.3,1h2.1v-.2c0-.4,0-.7-.3-.9,0-.2-.3-.3-.7-.3Z"/>
  </g>
  <g class="cls-33">
    <path class="cls-28" d="M89.8,64h-1.6l-.2-1.5c-.2-.2-.5-.4-.8-.5s-.7-.2-1.1-.2c-.9,0-1.6.3-2.1,1s-.8,1.6-.8,2.6v.4c0,1.1.2,2,.7,2.6s1.2,1,2.1,1,.8,0,1.2-.2.6-.3.8-.5l.2-1.4h1.6v2.1c-.4.5-1,.9-1.6,1.2-.7.3-1.4.4-2.2.4-1.4,0-2.6-.5-3.5-1.5s-1.5-2.1-1.5-3.6v-.4c0-1.5.5-2.8,1.4-3.8s2.1-1.5,3.5-1.5,1.6.2,2.2.5c.7.3,1.2.7,1.6,1.2v2.1h.1Z"/>
  </g>
  <g class="cls-33">
    <path class="cls-28" d="M91,69.7l1-.2v-4.9l-1.1-.2v-1.3h3.1v1.2c.3-.4.5-.7.8-1s.6-.3,1-.3h.4c0,0,.2,0,.3,0l-.2,1.9h-.9c-.3,0-.6,0-.8.2s-.4.3-.5.5v3.9l1,.2v1.2h-4.1v-1.3Z"/>
  </g>
  <g class="cls-33">
    <path class="cls-28" d="M97,67c0-1.2.3-2.2,1-2.9.7-.8,1.6-1.1,2.7-1.1s2.1.4,2.8,1.1c.7.8,1,1.7,1,2.9v.2c0,1.2-.3,2.2-1,2.9-.7.8-1.6,1.1-2.7,1.1s-2.1-.4-2.8-1.1c-.7-.7-1-1.7-1-2.9v-.2ZM99.1,67.1c0,.7,0,1.3.4,1.7.3.4.7.7,1.2.7s1-.2,1.2-.7c.3-.4.4-1,.4-1.7h0c0-.8,0-1.4-.4-1.8s-.7-.7-1.2-.7-1,.2-1.2.7-.4,1-.4,1.7h0Z"/>
    <path class="cls-28" d="M111.9,65.8h-1.4l-.2-1c0,0-.3-.2-.6-.3-.2,0-.5,0-.7,0-.4,0-.7,0-.9.3s-.3.4-.3.6,0,.4.3.6c.2.2.6.3,1.3.4,1,.2,1.7.5,2.2.9s.7.9.7,1.6-.3,1.3-.9,1.7c-.6.5-1.4.7-2.4.7s-1.2,0-1.7-.3c-.5-.2-1-.4-1.4-.8v-1.8h1.5l.3,1c0,0,.3.2.5.2.2,0,.4,0,.7,0s.8,0,1-.2c.2-.2.3-.4.3-.6s0-.4-.3-.6c-.2-.2-.7-.3-1.3-.5-.9-.2-1.6-.5-2.1-.8-.5-.4-.7-.9-.7-1.5s.3-1.2.8-1.7c.5-.5,1.3-.7,2.3-.7s1.2,0,1.7.2c.5.2,1,.4,1.3.6v2Z"/>
    <path class="cls-28" d="M119.6,65.8h-1.4l-.2-1c0,0-.3-.2-.6-.3-.2,0-.5,0-.7,0-.4,0-.7,0-.9.3s-.3.4-.3.6,0,.4.3.6c.2.2.6.3,1.3.4,1,.2,1.7.5,2.2.9s.7.9.7,1.6-.3,1.3-.9,1.7c-.6.5-1.4.7-2.4.7s-1.2,0-1.7-.3c-.5-.2-1-.4-1.4-.8v-1.8h1.5l.3,1c0,0,.3.2.5.2.2,0,.4,0,.7,0s.8,0,1-.2c.2-.2.3-.4.3-.6s0-.4-.3-.6c-.2-.2-.7-.3-1.3-.5-.9-.2-1.6-.5-2.1-.8-.5-.4-.7-.9-.7-1.5s.3-1.2.8-1.7c.5-.5,1.3-.7,2.3-.7s1.2,0,1.7.2c.5.2,1,.4,1.3.6v2Z"/>
    <path class="cls-28" d="M125.5,67.3h-4.1v-1.6h4.1v1.6Z"/>
    <path class="cls-28" d="M135.5,64h-1.6l-.2-1.4c-.2-.2-.5-.4-.8-.5s-.7-.2-1.1-.2c-.9,0-1.6.3-2.1,1s-.8,1.6-.8,2.6v.4c0,1.1.2,2,.7,2.6s1.2,1,2.1,1,.8,0,1.2-.2.6-.3.8-.5l.2-1.4h1.6v2.1c-.4.5-1,.9-1.6,1.2-.7.3-1.4.4-2.2.4-1.4,0-2.6-.5-3.5-1.5s-1.4-2.3-1.4-3.8v-.4c0-1.5.5-2.8,1.4-3.8.9-1,2.1-1.5,3.5-1.5s1.6.2,2.2.5c.7.3,1.2.7,1.6,1.2v2.2h0Z"/>
    <path class="cls-28" d="M136.5,67c0-1.2.3-2.2,1-2.9.7-.8,1.6-1.1,2.7-1.1s2.1.4,2.8,1.1c.7.8,1,1.7,1,2.9v.2c0,1.2-.3,2.2-1,2.9-.7.8-1.6,1.1-2.7,1.1s-2.1-.4-2.8-1.1-1-1.7-1-2.9v-.2ZM138.7,67.1c0,.7.1,1.3.4,1.7.3.4.7.7,1.2.7s1-.2,1.2-.7c.3-.4.4-1,.4-1.7h0c0-.8-.1-1.4-.4-1.8s-.7-.7-1.2-.7-1,.2-1.2.7-.4,1-.4,1.7h0Z"/>
    <path class="cls-28" d="M144.7,64.4v-1.3h3.1v1c.4-.4.7-.7,1.1-.9s.8-.3,1.3-.3.9,0,1.3.3.6.6.8,1c.2-.4.6-.8,1-1s.8-.4,1.4-.4,1.4.3,1.8.8c.5.5.7,1.4.7,2.5v3.3l1,.2v1.4h-4.1v-1.3l.9-.2v-3.3c0-.6-.1-1-.3-1.3s-.5-.4-.9-.4-.6,0-.8.2-.4.3-.5.6v4.1l.9.2v1.4h-3.9v-1.3l.9-.2v-3.3c0-.6-.1-1-.3-1.2s-.5-.4-.9-.4-.5,0-.8.2c-.2,0-.4.3-.5.5v4.3l.9.2v1.2h-4.1v-1.3l1-.2v-4.9l-1-.2Z"/>
    <path class="cls-28" d="M158.7,64.4v-1.3h3.1l.2.9c.2-.3.5-.6.8-.8s.7-.3,1.1-.3c1,0,1.7.4,2.3,1.1.5.8.8,1.8.8,3v.2c0,1.2-.3,2.1-.8,2.8-.5.7-1.3,1.1-2.3,1.1s-.8,0-1.1-.2c-.3-.2-.6-.4-.8-.7v2.3l1,.2v1.3h-4.2v-1.3l1-.2v-8h-1.1ZM164.9,67.1c0-.7-.1-1.4-.4-1.8s-.6-.7-1.1-.7-.6,0-.8.2-.4.3-.5.6v3.5c.1.2.3.4.5.5s.5.2.8.2c.5,0,.9-.2,1.1-.6.2-.4.4-1,.4-1.6v-.3Z"/>
    <path class="cls-28" d="M167.9,69.7l1-.2v-4.9l-1.1-.2v-1.3h3.3v6.4l1,.2v1.3h-4.2v-1.3ZM171.1,61.2h-2.1v-1.6h2.1v1.6Z"/>
    <path class="cls-28" d="M172.6,60.9v-1.3h3.3v9.9l1,.2v1.3h-4.2v-1.3l1-.2v-8.4l-1.1-.2Z"/>
    <path class="cls-28" d="M181.4,71.2c-1.1,0-2.1-.4-2.7-1.1s-1-1.7-1-2.8v-.3c0-1.2.3-2.1,1-2.9s1.5-1.1,2.6-1.1,1.9.3,2.5,1c.6.7.9,1.5.9,2.6v1.2h-4.7c0,.5.2,1,.5,1.3s.7.5,1.3.5.9,0,1.2,0,.7-.2,1-.5l.6,1.3c-.3.3-.8.5-1.3.7-.7,0-1.3.2-1.9.2ZM181.2,64.6c-.4,0-.7.2-.9.5s-.4.7-.4,1.2h2.6v-.2c0-.5-.1-.8-.3-1.1-.2-.3-.6-.4-1-.4Z"/>
    <path class="cls-28" d="M185.8,69.7l1-.2v-4.9l-1.1-.2v-1.3h3.1v1.2c.3-.4.5-.7.8-1s.6-.3,1-.3h.4c.1,0,.2,0,.3,0l-.3,1.9h-.9c-.3,0-.6,0-.8.2s-.4.3-.5.5v3.9l1,.2v1.2h-4.2v-1.3h.2Z"/>
  </g>
  <g class="cls-33">
    <path class="cls-28" d="M465.8,223.2l1-.2v-8.4l-1.1-.2v-1.3h3.3v4.5c.3-.4.6-.7.9-.9.4-.2.8-.3,1.2-.3.8,0,1.5.3,2,.8s.7,1.4.7,2.5v3.2l1,.2v1.3h-4.1v-1.3l.9-.2v-3.2c0-.6-.1-1.1-.3-1.3-.2-.3-.5-.4-1-.4s-.6.1-.8.2-.4.3-.6.5v4.3l.9.2v1.3h-4.1v-1.3h.1Z"/>
    <path class="cls-28" d="M481,223.5c-.3.4-.6.7-.9.9-.4.2-.8.3-1.3.3-.8,0-1.5-.3-2-.8s-.7-1.4-.7-2.5v-3.3l-.9-.2v-1.3h3v4.8c0,.6.1,1,.3,1.2.2.3.5.4.9.4s.6-.1.9-.2c.2-.1.4-.3.6-.5v-4.3l-.9-.2v-1.3h3v6.4l1,.2v1.3h-2.8l-.2-.9Z"/>
    <path class="cls-28" d="M492.5,220.8c0,1.2-.3,2.1-.8,2.8s-1.3,1.1-2.3,1.1-.9-.1-1.2-.3c-.3-.2-.6-.5-.9-.8l-.2,1h-1.8v-9.9l-1.1-.2v-1.3h3.3v4.3c.2-.3.5-.6.8-.7.3-.2.7-.3,1.1-.3,1,0,1.8.4,2.3,1.1.5.8.8,1.8.8,3v.2h0ZM490.4,220.6c0-.8-.1-1.4-.3-1.8-.2-.5-.6-.7-1.2-.7s-.6.1-.8.2-.4.3-.5.6v3.3c.1.2.3.4.5.6.2.1.5.2.9.2.6,0,.9-.2,1.2-.6.2-.4.3-.9.3-1.7h0c0-.1-.1-.1-.1-.1Z"/>
    <path class="cls-28" d="M496.1,224.5h-2.1v-1.9h2.1v1.9Z"/>
    <path class="cls-28" d="M502.5,223.6c-.2.4-.5.6-.9.8-.3.2-.7.3-1.2.3-1,0-1.7-.4-2.3-1.1-.5-.7-.8-1.7-.8-2.8v-.2c0-1.3.3-2.3.8-3,.5-.8,1.3-1.1,2.3-1.1s.8.1,1.1.3c.3.2.6.4.8.7v-2.8l-1.1-.2v-1.3h3.2v9.9l1,.2v1.3h-2.9v-1ZM499.5,220.8c0,.7.1,1.2.3,1.6.2.4.6.6,1.1.6s.6-.1.8-.2.4-.3.6-.5v-3.4c-.1-.3-.3-.5-.6-.6-.2-.1-.5-.2-.8-.2-.5,0-.9.2-1.1.7s-.4,1.1-.4,1.8v.2h.1Z"/>
    <path class="cls-28" d="M506.2,220.5c0-1.2.3-2.2,1-2.9.7-.8,1.6-1.1,2.7-1.1s2.1.4,2.8,1.1,1,1.7,1,2.9v.2c0,1.2-.3,2.2-1,2.9-.7.8-1.6,1.1-2.7,1.1s-2.1-.4-2.8-1.1c-.7-.7-1-1.7-1-2.9v-.2ZM508.3,220.6c0,.7.1,1.3.4,1.7s.7.7,1.2.7,1-.2,1.2-.7.4-1,.4-1.7v-.2c0-.7-.1-1.3-.4-1.7s-.7-.7-1.2-.7-1,.2-1.2.7-.4,1-.4,1.7v.2Z"/>
    <path class="cls-28" d="M518.3,223c.4,0,.7-.1.9-.3s.3-.5.3-.9h1.9c0,.8-.3,1.5-.9,2-.6.5-1.4.8-2.3.8s-2.1-.4-2.7-1.1c-.6-.7-1-1.7-1-2.9v-.2c0-1.2.3-2.1,1-2.9.7-.8,1.6-1.1,2.8-1.1s1.2.1,1.7.3.9.5,1.3.8v2.1h-1.7l-.4-1.2c0-.1-.2-.2-.4-.2-.2-.1-.3-.1-.5-.1-.6,0-1,.2-1.3.7-.3.4-.4,1-.4,1.7v.2c0,.7,0,1.3.3,1.7.5.4.9.6,1.4.6Z"/>
  </g>
  <g class="cls-33">
    <path class="cls-28" d="M522.3,214.4v-1.3h3.3v6.6h.5l1.2-1.7h-.7v-1.4h3.9v1.3l-.9.2-1.4,2,2,3,.8.2v1.3h-3.7v-1.3h.4c0-.1-1.2-2.1-1.2-2.1h-.9v1.8l.9.2v1.3h-4.1v-1.3l1-.2v-8.4l-1.1-.2Z"/>
  </g>
  <g class="cls-33">
    <path class="cls-28" d="M535.3,224.7c-1.1,0-2.1-.4-2.7-1.1s-1-1.7-1-2.8v-.3c0-1.2.3-2.1,1-2.9.6-.8,1.5-1.1,2.6-1.1s1.9.3,2.5,1,.9,1.5.9,2.6v1.2h-4.7c0,.5.2,1,.5,1.3s.7.5,1.3.5.9,0,1.2-.1.7-.2,1-.5l.6,1.3c-.3.3-.8.5-1.3.7-.7.1-1.2.2-1.9.2ZM535.1,218.1c-.4,0-.7.2-.9.5s-.4.7-.4,1.2h2.6v-.2c0-.5,0-.8-.3-1.1-.2-.3-.5-.4-1-.4Z"/>
  </g>
  <g class="cls-33">
    <path class="cls-28" d="M539.7,223.2l1-.2v-4.9l-1.1-.2v-1.3h3.1v1.2c.3-.4.5-.7.8-1s.6-.3,1-.3h.4c0,0,.2,0,.3.1l-.2,1.9h-.9c-.3,0-.6.1-.8.2s-.4.3-.5.5v3.9l1,.2v1.3h-4.2v-1.4h.1Z"/>
  </g>
  <g class="cls-33">
    <path class="cls-28" d="M547.2,224.5h-2.2v-1.9h2.1v1.9h.1Z"/>
    <path class="cls-28" d="M552.1,223c.4,0,.7-.1.9-.3s.3-.5.3-.9h1.9c0,.8-.3,1.5-.9,2-.6.5-1.4.8-2.3.8s-2.1-.4-2.7-1.1-1-1.7-1-2.9v-.2c0-1.2.3-2.1,1-2.9.7-.8,1.6-1.1,2.8-1.1s1.2.1,1.7.3.9.5,1.3.8v2.1h-1.7l-.4-1.2c0-.1-.2-.2-.4-.2-.2-.1-.3-.1-.5-.1-.6,0-1,.2-1.3.7s-.4,1-.4,1.7v.2c0,.7,0,1.3.3,1.7.4.4.8.6,1.4.6Z"/>
    <path class="cls-28" d="M556.3,220.5c0-1.2.3-2.2,1-2.9.7-.8,1.6-1.1,2.7-1.1s2.1.4,2.8,1.1c.7.8,1,1.7,1,2.9v.2c0,1.2-.3,2.2-1,2.9-.7.8-1.6,1.1-2.7,1.1s-2.1-.4-2.8-1.1c-.7-.7-1-1.7-1-2.9v-.2ZM558.4,220.6c0,.7,0,1.3.4,1.7.3.4.7.7,1.2.7s1-.2,1.2-.7c.3-.4.4-1,.4-1.7v-.2c0-.7,0-1.3-.4-1.7s-.7-.7-1.2-.7-1,.2-1.2.7-.4,1-.4,1.7v.2Z"/>
    <path class="cls-28" d="M564.4,217.9v-1.3h3.1v1c.4-.4.7-.7,1.1-.9s.8-.3,1.3-.3.9.1,1.3.3.6.6.8,1c.2-.4.6-.8,1-1s.8-.4,1.4-.4,1.4.3,1.8.8c.5.5.7,1.4.7,2.5v3.3l1,.2v1.3h-4.1v-1.3l.9-.2v-3.3c0-.6,0-1-.3-1.3s-.5-.4-.9-.4-.6.1-.8.2c-.2.1-.4.3-.5.6v4.1l.9.2v1.3h-3.9v-1.3l.9-.2v-3.3c0-.6,0-1-.3-1.2s-.5-.4-.9-.4-.5.1-.8.2c-.2.1-.4.3-.5.5v4.3l.9.2v1.3h-4.1v-1.3l1-.2v-4.9h-1Z"/>
  </g>
  <g class="cls-33">
    <path class="cls-28" d="M305.5,233.1c.2,0,.4-.1.7-.1h2.3c.9,0,1.7.1,2.4.4.7.3,1.2.6,1.6,1.1s.7,1,.9,1.7c.2.7.3,1.4.3,2.1s-.1,1.4-.3,2.1c-.2.7-.5,1.2-.9,1.8-.4.5-1,.9-1.7,1.2s-1.5.5-2.5.5h-2.2c-.2,0-.5,0-.6-.1v-10.7ZM308.8,234.7h-1.2v7h1c.6,0,1.1-.1,1.4-.3.4-.2.7-.5.9-.8.2-.3.4-.7.5-1.2.1-.4.1-.9.1-1.4s0-.8-.1-1.2-.2-.8-.4-1.1c-.2-.3-.5-.6-.9-.8-.3,0-.8-.2-1.3-.2Z"/>
    <path class="cls-28" d="M314.8,239.8c0-1.3.3-2.2.9-2.9s1.5-1,2.6-1,1.1.1,1.6.3c.4.2.8.5,1.1.8.3.3.5.8.7,1.3.1.5.2,1,.2,1.6,0,1.3-.3,2.2-.9,2.9s-1.5,1-2.6,1-1.1-.1-1.6-.3c-.4-.2-.8-.5-1.1-.8-.3-.3-.5-.8-.7-1.3s-.2-1-.2-1.6ZM316.8,239.8c0,.3,0,.6.1.9.1.3.1.5.3.7.1.2.3.4.5.5s.4.2.7.2c.5,0,.9-.2,1.1-.6s.4-1,.4-1.8-.1-1.2-.3-1.7c-.2-.4-.6-.6-1.2-.6s-.9.2-1.1.5c-.3.5-.5,1.1-.5,1.9Z"/>
    <path class="cls-28" d="M328.6,243.1c-.3.2-.7.4-1.1.5s-.9.2-1.3.2c-.6,0-1.1-.1-1.5-.3s-.8-.5-1-.8c-.3-.3-.4-.8-.6-1.3-.1-.5-.2-1-.2-1.6,0-1.3.3-2.2.9-2.9s1.4-1,2.5-1,1,0,1.3.1.6.2.9.3l-.5,1.6c-.2-.1-.5-.2-.7-.3s-.5-.1-.8-.1c-.5,0-1,.2-1.2.5-.3.4-.4.9-.4,1.7s0,.6.1.9c.1.3.2.5.3.7.1.2.3.4.5.5s.5.2.8.2.6,0,.8-.1l.6-.3.6,1.5Z"/>
  </g>
  <g class="cls-33">
    <path class="cls-28" d="M332.2,240.5h-.5v3.1h-2v-10.5h2v6.2l.4-.2,1.7-3h2.1l-1.8,2.8-.8.6.8.6,2,3.5h-2.1l-1.8-3.1Z"/>
  </g>
  <g class="cls-33">
    <path class="cls-28" d="M342.9,242.9c-.3.2-.7.4-1.2.6-.5.2-1.1.2-1.6.2-1.2,0-2.1-.4-2.7-1.1-.6-.7-.8-1.7-.8-2.9s.3-2.3.9-3,1.5-1,2.7-1,.8,0,1.1.2c.4.1.7.3,1,.5s.5.5.7.9.3.9.3,1.5v.7c0,.2-.1.5-.1.8h-4.5c0,.6.2,1.1.5,1.4s.8.5,1.4.5.8-.1,1.1-.2c.3-.1.6-.3.7-.4l.5,1.3ZM340.1,237.4c-.5,0-.9.2-1.1.5s-.4.7-.4,1.2h2.8c0-.5,0-1-.2-1.2-.3-.3-.6-.5-1.1-.5Z"/>
    <path class="cls-28" d="M348.7,237.9c-.3-.1-.6-.2-.8-.2-.3,0-.6.1-.9.3-.2.2-.4.4-.5.7v4.8h-2v-7.5h1.5l.2,1h.1c.2-.4.4-.7.7-.9.3-.2.6-.3,1-.3s.6.1.9.2l-.2,1.9Z"/>
    <path class="cls-28" d="M353.6,233.1h2v3.6h.1c.2-.2.5-.4.8-.6.3-.1.7-.2,1.1-.2.9,0,1.6.3,2.1.9.5.6.7,1.6.7,2.8s-.3,2.4-1,3.1c-.7.7-1.6,1-2.7,1s-1.2-.1-1.8-.2c-.5-.1-.9-.2-1.2-.4v-10h-.1ZM357,237.5c-.4,0-.7.1-.9.3-.2.2-.4.5-.5.8v3.3c.2.1.3.1.5.2h.6c.5,0,.9-.2,1.2-.6.3-.4.4-1,.4-1.8,0-1.5-.5-2.2-1.3-2.2Z"/>
    <path class="cls-28" d="M363.5,236.1v4.3c0,.6.1,1,.2,1.3s.4.4.8.4.7-.1.9-.3.4-.5.5-.8v-4.8h2v5.2c0,.4,0,.8.1,1.2,0,.4.1.8.2,1.1h-1.5l-.3-1.1h-.1c-.2.4-.6.7-1,.9-.4.3-.9.4-1.5.4s-.7,0-1-.2c-.3-.1-.5-.3-.8-.5-.2-.2-.4-.5-.5-.9s-.2-.9-.2-1.5v-4.7h2.2Z"/>
    <path class="cls-28" d="M369.6,233.9c0-.3.1-.5.3-.7s.5-.3.9-.3.7.1.9.3c.2.2.4.5.4.7s-.1.5-.4.7c-.2.2-.5.3-.9.3s-.7-.1-.9-.3c-.2,0-.3-.4-.3-.7ZM369.9,236.1h2v7.5h-2v-7.5Z"/>
    <path class="cls-28" d="M375.8,241c0,.3,0,.6.1.8s.2.2.4.2h.4c.1,0,.3-.1.4-.1l.2,1.5c-.2.1-.4.2-.7.2s-.7.1-1,.1c-.6,0-1-.1-1.3-.4s-.5-.7-.5-1.3v-9h2v8Z"/>
    <path class="cls-28" d="M384.5,240.9v1.3c0,.4.1.9.1,1.4h-1.4l-.3-1h0c-.2.4-.5.6-.9.8s-.8.3-1.3.3c-.9,0-1.7-.3-2.2-.9-.5-.6-.8-1.6-.8-2.9s.3-2.3.9-3,1.4-1.1,2.5-1.1.6,0,.8.1c.2,0,.4.1.6.2v-3h2v7.8h-.1ZM381.2,242.1c.4,0,.7-.1.9-.3.2-.2.4-.5.5-.8v-3.2c-.1-.1-.3-.2-.5-.2s-.4-.1-.7-.1c-.5,0-1,.2-1.2.6-.3.4-.4,1-.4,1.9s.1,1.2.3,1.5c.3.4.6.6,1.1.6Z"/>
  </g>
  <path class="cls-8" d="M268.8,239.3c-.9,0-1.7-.7-1.7-1.7.1-.9.9-1.6,1.8-1.6.8.1,1.5.7,1.6,1.6,0,.9-.7,1.7-1.7,1.7.1,0,0,0,0,0Z"/>
  <path class="cls-8" d="M290.3,230.3c-.2-1.3-1-2.5-2.1-3.3l-.5-.3-.3.4c-1.1,1.5-1.1,3.6-.1,5.1-.3.1-.7.4-1.1.5-.7.3-1.5.4-2.2.3h-21.5v.5c-.2,1.6.1,3.2.7,4.6l.3.6h0c2,3.4,5.6,4.9,9.5,4.9,7.5,0,13.6-3.3,16.5-10.1,1.9.1,3.8-.4,4.7-2.2l.3-.4-.4-.2c-1.2-.6-2.5-.7-3.8-.4h0Z"/>
  <rect class="cls-8" x="275.7" y="227.7" width="3" height="2.9"/>
  <rect class="cls-8" x="275.7" y="222.5" width="3" height="2.9"/>
  <rect class="cls-8" x="280.9" y="227.7" width="3" height="2.9"/>
  <polygon class="cls-8" points="268.3 227.7 265.3 227.7 265.3 230.6 268.3 230.6 268.3 227.7"/>
  <rect class="cls-8" x="270.6" y="227.7" width="3" height="2.9"/>
  <rect class="cls-8" x="270.6" y="222.5" width="3" height="2.9"/>
  <rect class="cls-8" x="275.7" y="217.3" width="3" height="2.9"/>
  <line class="cls-5" x1="407.4" y1="253.7" x2="406.4" y2="253.7"/>
  <line class="cls-6" x1="404.4" y1="253.7" x2="253.5" y2="253.7"/>
  <line class="cls-5" x1="252.5" y1="253.7" x2="251.5" y2="253.7"/>
  <polygon class="cls-20" points="400.7 245.5 399.4 247 406.6 253.7 399.4 260.4 400.7 261.9 409.5 253.7 400.7 245.5"/>
  <line class="cls-2" x1="136.7" y1="226.9" x2="136.7" y2="225.9"/>
  <line class="cls-7" x1="136.7" y1="224" x2="136.7" y2="190.3"/>
  <line class="cls-2" x1="136.7" y1="189.3" x2="136.7" y2="188.3"/>
  <polygon class="cls-18" points="144.9 220.3 143.4 218.9 136.7 226.2 130 218.9 128.5 220.3 136.7 229.1 144.9 220.3"/>
  <line class="cls-2" x1="136.7" y1="319.7" x2="136.7" y2="318.7"/>
  <line class="cls-7" x1="136.7" y1="316.8" x2="136.7" y2="283"/>
  <line class="cls-2" x1="136.7" y1="282" x2="136.7" y2="281"/>
  <polygon class="cls-18" points="144.9 313 143.4 311.7 136.7 318.9 130 311.7 128.5 313 136.7 321.9 144.9 313"/>
  <path class="cls-8" d="M512.8,198.6c-.9,0-1.7-.7-1.7-1.7s.7-1.7,1.7-1.7,1.7.7,1.7,1.7-.7,1.7-1.7,1.7h0Z"/>
  <path class="cls-8" d="M534.3,189.6c-.2-1.3-1-2.5-2.1-3.3l-.4-.3-.3.4c-.6.9-.9,2-.8,3.1,0,.7.3,1.4.8,2l-1.1.5c-.7.3-1.5.4-2.3.3h-21.5v.5c-.2,1.6.1,3.2.7,4.6l.3.6h0c2,3.4,5.6,4.9,9.5,4.9,7.5,0,13.6-3.3,16.5-10.1,1.9.1,3.8-.4,4.7-2.2l.3-.4-.5-.2c-1.2-.6-2.6-.8-3.8-.4h0Z"/>
  <rect class="cls-8" x="519.7" y="187" width="3" height="2.9"/>
  <rect class="cls-8" x="519.7" y="181.8" width="3" height="2.9"/>
  <rect class="cls-8" x="524.9" y="187" width="3" height="2.9"/>
  <polygon class="cls-8" points="512.3 187 509.3 187 509.3 189.9 512.3 189.9 512.3 187"/>
  <rect class="cls-8" x="514.6" y="187" width="3" height="2.9"/>
  <rect class="cls-8" x="514.6" y="181.8" width="3" height="2.9"/>
  <rect class="cls-8" x="519.7" y="176.6" width="3" height="2.9"/>
  <path class="cls-27" d="M73.1,27.2c0-.5,0-.9-.3-1.3-.2-.4-.6-.7-1-1l-10.7-6.2c-.9-.5-2-.5-2.8,0-1.4.9-8.5,4.9-10.7,6.1-.8.5-1.3,1.3-1.3,2.3v12.4c0,.5,0,.9.3,1.4.2.4.6.8,1,1,2.1,1.2,9.2,5.3,10.6,6.1.9.6,2,.6,2.8,0l10.8-6c.4-.2.8-.6,1-1s.3-.9.3-1.3v-12.5"/>
  <path class="cls-14" d="M61,18.8c-.9-.6-2-.6-2.8,0l-10.6,6.1c-.8.4-1.3,1.3-1.3,2.3v12.4c0,.5,0,.9.3,1.3.2.4.6.8,1,1l2.1,1.2,19.6-19.6-8.3-4.7"/>
  <path class="cls-28" d="M62.4,31.5h4.2c-.3-3.5-3.3-6.1-6.8-6-3.2,0-7.5,2-7.5,7.9s4.2,7.8,7.5,7.8c5.3,0,6.6-3.7,6.6-5.8l-4-.2c0,1.3-1,2.4-2.3,2.4h-.3c-2.5,0-3-3.1-3-4.2,0-1.6.6-4.2,3-4.2s2.5,1,2.6,2.3"/>
  <path class="cls-24" d="M111,41.2c.2-.4.3-.8.3-1.2v-13.1c0-.4,0-.8-.3-1.2l-13.4,7.7,13.4,7.8Z"/>
  <path class="cls-15" d="M98.8,48.6l11.4-6.6c.3-.2.6-.5.8-.9l-13.4-7.7-13.4,7.7c.2.4.5.7.8.9l11.4,6.6c.8.4,1.7.4,2.4,0Z"/>
  <path class="cls-17" d="M111,25.7c-.2-.4-.5-.7-.8-.9l-11.4-6.6c-.7-.4-1.6-.4-2.4,0l-11.4,6.6c-.7.5-1.1,1.2-1.2,2.1v13.1c0,.4,0,.8.3,1.2l13.4-7.7,13.5-7.8Z"/>
  <path class="cls-28" d="M97.6,42.6c-5.1,0-9.2-4.1-9.2-9.2s4.1-9.2,9.2-9.2,6.3,1.7,7.9,4.6l-4,2.3c-.8-1.4-2.4-2.3-4-2.3-2.5,0-4.6,2.1-4.6,4.6s2.1,4.6,4.6,4.6,3.1-.9,4-2.3l4,2.3c-1.6,2.8-4.6,4.6-7.9,4.6Z"/>
  <polygon class="cls-28" points="106.8 32.9 105.8 32.9 105.8 31.9 104.8 31.9 104.8 32.9 103.7 32.9 103.7 33.9 104.8 33.9 104.8 35 105.8 35 105.8 33.9 106.8 33.9 106.8 32.9"/>
  <polygon class="cls-28" points="110.6 32.9 109.6 32.9 109.6 31.9 108.6 31.9 108.6 32.9 107.6 32.9 107.6 33.9 108.6 33.9 108.6 35 109.6 35 109.6 33.9 110.6 33.9 110.6 32.9"/>
  <path class="cls-22" d="M197.6,30.9s-.1,0,0,0l.4-.5c0-.1.1-.1.2-.1h5.8q.1,0,0,.1l-.3.4c0,.1-.1.1-.2.1h-5.9Z"/>
  <path class="cls-22" d="M195.1,32.4q-.1,0,0,0l.3-.5c0-.1.1-.1.2-.1h7.6s.1,0,.1.1h0v.4c-.1,0-.2,0-.2,0h-8Z"/>
  <path class="cls-22" d="M199.1,34q-.1,0,0,0l.2-.4c0,0,.1,0,.2,0h3.3q.1,0,.1,0v.4c0,0-.1,0-.1,0h-3.7Z"/>
  <g id="CXHf1q">
    <path class="cls-22" d="M216.4,30.6c-1.1.3-1.8.5-2.8.7q-.3.1-.5-.2c-.2-.3-.5-.5-.8-.6-1-.5-2.1-.4-3,.3-1.1.7-1.8,1.9-1.7,3.2,0,1.3.9,2.4,2.2,2.6,1.1.2,2.1-.3,2.8-1.1.1-.2.3-.4.4-.6h-3.2c-.3,0-.4-.2-.3-.5.2-.5.6-1.4.9-1.8.1-.2.2-.3.4-.3h6c0,.5,0,.9-.1,1.3-.2,1.2-.7,2.3-1.4,3.3-1.1,1.6-2.8,2.6-4.7,2.8-1.6.3-3.2,0-4.5-1.1-1.2-.9-2-2.2-2.1-3.7-.2-1.7.3-3.5,1.4-4.9,1.1-1.5,2.8-2.5,4.6-2.9,1.5-.3,3.1,0,4.4.8.9.6,1.5,1.4,1.9,2.3.3.3.3.4.1.4Z"/>
    <path class="cls-22" d="M221.8,39.8c-1.5,0-2.9-.5-4.1-1.5-1-.8-1.6-2-1.8-3.2-.3-1.8.2-3.6,1.3-5,1.1-1.5,2.8-2.5,4.7-2.8,1.6-.4,3.3-.1,4.7.8,1.3.8,2.1,2.2,2.3,3.7.3,2.1-.4,4.2-1.9,5.6-1.1,1.1-2.5,1.8-4,2.1-.3.2-.7.2-1.2.3ZM225.8,33.1v-.5c-.2-1.5-1.7-2.5-3.1-2.3-.1,0-.2,0-.2.1-1.5.3-2.6,1.4-2.9,2.9-.3,1.3.3,2.6,1.5,3.1.9.4,1.9.4,2.7,0,1.1-.6,1.9-1.8,2-3.2Z"/>
  </g>
  <g class="cls-33">
    <path class="cls-23" d="M75.7,359v3.3h2c0,0,.2,0,.3.1q0,.1,0,.2c0,.1,0,.2,0,.2s-.2.1-.3.1h-3.3c0,0-.2,0-.3-.1s0-.1,0-.2,0-.2,0-.2c0-.1.2-.1.3-.1h.8v-6.8h-.8c0,0-.2,0-.3-.1q0-.1,0-.2c0-.1,0-.2,0-.2s0-.1.3-.1h6.3v2c0,.1,0,.2,0,.3s0,.1-.2.1-.2,0-.2-.1,0-.2,0-.3v-1.4h-4.4v3h2.1v-.6c0-.1,0-.2,0-.3s0-.1.2-.1.2,0,.2.1,0,.2,0,.3v1.9c0,.1,0,.2,0,.3s0,.1-.2.1-.2,0-.2-.1,0-.2,0-.3v-.8h-2.1Z"/>
    <path class="cls-23" d="M83.6,359.3v3h1.1c0,0,.2,0,.3.1q0,.1,0,.2c0,.1,0,.2,0,.2s-.2.1-.3.1h-2.4c0,0-.2,0-.3-.1s0-.1,0-.2,0-.2,0-.2c0-.1.2-.1.3-.1h.8v-6.8h-.8c0,0-.2,0-.3-.1q0-.1,0-.2c0-.1,0-.2,0-.2,0-.1.2-.1.3-.1h3.5c.7,0,1.3.2,1.8.7s.7,1,.7,1.5-.2.8-.5,1.2c-.3.4-.8.7-1.5.9.4.3.8.6,1.1,1s.8,1.1,1.4,2.2h.4c0,0,.2,0,.3.1q0,.1,0,.2c0,.1,0,.2,0,.2s-.2.1-.3.1h-.8c-.7-1.3-1.3-2.1-1.7-2.6s-.8-.8-1.3-1h-1.8ZM83.6,358.7h1.6c.5,0,1-.1,1.4-.3s.7-.4.9-.6.3-.5.3-.8-.2-.7-.6-1.1-.9-.5-1.4-.5h-2.1v3.3h-.1Z"/>
    <path class="cls-23" d="M97.4,358.8c0,.8-.2,1.5-.5,2.1-.3.7-.7,1.2-1.3,1.5s-1.1.5-1.8.5-1.7-.4-2.4-1.2c-.7-.8-1.1-1.8-1.1-3s.4-2.2,1.1-3,1.5-1.2,2.4-1.2,1.2.2,1.8.5,1,.9,1.3,1.5.5,1.6.5,2.3ZM96.8,358.8c0-.9-.3-1.8-.8-2.5s-1.2-1.1-2.1-1.1-1.5.4-2.1,1.1-.9,1.6-.9,2.6.3,1.9.9,2.6,1.3,1,2,1,1.6-.4,2.1-1.1c.7-.8.9-1.6.9-2.6Z"/>
    <path class="cls-23" d="M102.7,360.4h-.7l-2.2-5h0v6.8h1.1c0,0,.2,0,.3.1q0,.1,0,.2c0,.1,0,.2,0,.2s-.2.1-.3.1h-2.1c0,0-.2,0-.3-.1s0-.1,0-.2,0-.2,0-.2c0-.1.2-.1.3-.1h.5v-6.8h-.4c0,0-.2,0-.3-.1q0-.1,0-.2c0-.1,0-.2,0-.2,0-.1.2-.1.3-.1h1.4l2.2,4.9,2.1-4.9h1.4c0,0,.2,0,.3.1q0,.1,0,.2c0,.1,0,.2,0,.2,0,.1-.2.1-.3.1h-.4v6.8h.5c0,0,.2,0,.3.1q0,.1,0,.2c0,.1,0,.2,0,.2s-.2.1-.3.1h-2.1c0,0-.2,0-.3-.1s0-.1,0-.2,0-.2,0-.2c0-.1.2-.1.3-.1h1.1v-6.8h0l-2.2,5Z"/>
  </g>
  <g class="cls-33">
    <path class="cls-9" d="M121,357.3c0-.1,0-.2,0-.3s0-.1.2-.1.2,0,.2.1,0,.2,0,.3v1c0,.1,0,.2,0,.3s0,.1-.2.1,0,0-.2-.1,0-.1,0-.2c0-.3-.2-.5-.4-.7-.4-.3-.9-.4-1.5-.4s-1.1.1-1.5.4c-.3.2-.4.4-.4.7s.2.5.5.7c.2.1.6.2,1.2.3.8.1,1.4.2,1.7.3.4.2.8.4,1,.7s.3.6.3.9c0,.5-.2.9-.7,1.3s-1.2.6-2.1.6-1.6-.2-2.2-.7v.3h0c0,.1,0,.1-.2.1s-.2,0-.2-.1,0-.2,0-.3v-1.2c0-.1,0-.2,0-.3s0-.1.2-.1.2,0,.2.1q0,.1,0,.2c0,.2,0,.4.2.5.2.2.4.4.8.5.3.1.8.2,1.3.2s1.3-.1,1.7-.4.5-.6.5-.9-.2-.6-.6-.9c-.4-.2-.9-.4-1.6-.4s-1.2-.2-1.5-.3-.6-.3-.7-.5-.3-.5-.3-.8c0-.5.2-.9.7-1.2.5-.3,1.1-.4,1.7-.4.8.1,1.4.3,1.9.7Z"/>
    <path class="cls-9" d="M129.9,357.5v-.2c0-.1,0-.2.1-.3s.1-.1.2-.1.2,0,.2.1.1.2.1.3v1.3c0,.1,0,.2-.1.3s-.1.1-.2.1-.1,0-.2-.1q-.1-.1-.1-.3c0-.3-.2-.6-.6-.9s-.9-.4-1.6-.4-1.5.3-1.9.8-.7,1.1-.7,1.8.2,1.4.7,1.8,1.1.7,1.9.7.9-.1,1.4-.2.9-.4,1.3-.8c.1-.1.2-.1.3-.1s.1,0,.2.1q.1.1.1.2c0,.2-.2.4-.7.7-.7.5-1.6.7-2.5.7s-1.7-.3-2.3-.9c-.6-.6-.9-1.3-.9-2.2s.3-1.7.9-2.3,1.4-.9,2.3-.9,1.5.3,2.1.8Z"/>
    <path class="cls-9" d="M139.1,359.9c0,.9-.3,1.6-.9,2.2s-1.4.9-2.3.9-1.7-.3-2.3-.9-.9-1.4-.9-2.2.3-1.6.9-2.2c.6-.6,1.4-.9,2.3-.9s1.6.3,2.3.9.9,1.3.9,2.2ZM138.6,359.9c0-.7-.3-1.3-.8-1.8s-1.1-.8-1.9-.8-1.4.3-1.9.8-.8,1.1-.8,1.8.3,1.3.8,1.8,1.1.8,1.9.8,1.4-.3,1.9-.8c.5-.5.8-1.1.8-1.8Z"/>
    <path class="cls-9" d="M142.5,356.9v.9c.4-.4.8-.7,1.1-.8s.7-.2,1.1-.2.8.1,1.2.3c.3.1.5.4.7.7.2.3.3.6.3,1v3.6h.5c.1,0,.2,0,.3.1s.1.1.1.2,0,.2-.1.2-.2.1-.3.1h-1.5c-.1,0-.2,0-.3-.1s-.1-.1-.1-.2,0-.2.1-.2c.1-.1.2-.1.3-.1h.5v-3.5c0-.4-.1-.7-.4-1-.3-.3-.7-.4-1.2-.4s-.7.1-1,.2c-.3.2-.7.5-1.2,1.1v3.6h.6c.1,0,.2,0,.3.1s.1.1.1.2,0,.2-.1.2-.2.1-.3.1h-1.9c-.1,0-.2,0-.3-.1s-.1-.1-.1-.2,0-.2.1-.2c.1-.1.2-.1.3-.1h.6v-4.8h-.5c-.1,0-.2,0-.3-.1s-.1-.1-.1-.2,0-.2.1-.2.2-.1.3-.1h1.1Z"/>
    <path class="cls-9" d="M155.8,360h-5.8c.1.7.4,1.3.9,1.8s1.2.7,1.9.7.9-.1,1.3-.2.9-.3,1.1-.6c.1-.1.2-.1.2-.1q.1,0,.2.1t.1.2c0,.1,0,.2-.1.2-.2.2-.6.4-1.2.6-.6.2-1.1.3-1.7.3-1,0-1.8-.3-2.5-1-.7-.6-1-1.4-1-2.3s.3-1.5.9-2.1,1.4-.9,2.3-.9,1.7.3,2.3.9c.8.6,1.1,1.4,1.1,2.4ZM155.3,359.4c-.1-.6-.4-1.1-.9-1.5s-1.1-.6-1.7-.6-1.2.2-1.7.6-.8.9-.9,1.6h5.2Z"/>
    <path class="cls-9" d="M163.5,357.5v-.2c0-.1,0-.2.1-.3s.1-.1.2-.1.2,0,.2.1.1.2.1.3v1.3c0,.1,0,.2-.1.3s-.1.1-.2.1-.1,0-.2-.1q-.1-.1-.1-.3c0-.3-.2-.6-.6-.9s-.9-.4-1.6-.4-1.5.3-1.9.8-.7,1.1-.7,1.8.2,1.4.7,1.8,1.1.7,1.9.7.9-.1,1.4-.2.9-.4,1.3-.8c.1-.1.2-.1.3-.1s.1,0,.2.1q.1.1.1.2c0,.2-.2.4-.7.7-.7.5-1.6.7-2.5.7s-1.7-.3-2.3-.9-.9-1.3-.9-2.2.3-1.7.9-2.3,1.4-.9,2.3-.9,1.5.3,2.1.8Z"/>
    <path class="cls-9" d="M171.5,362.8v-.8c-.8.7-1.6,1.1-2.5,1.1s-1-.2-1.3-.5c-.4-.4-.6-.9-.6-1.4v-3.7h-.8c-.1,0-.2,0-.3-.1s-.1-.1-.1-.2,0-.2.1-.2.2-.1.3-.1h1.3v4.3c0,.4.1.7.4.9s.5.4.9.4c.9,0,1.8-.4,2.6-1.3v-3.7h-1.1c-.1,0-.2,0-.3-.1s-.1-.1-.1-.2,0-.2.1-.2.2-.1.3-.1h1.6v5.3h.5c.1,0,.2,0,.3.1s.1.1.1.2,0,.2-.1.2-.2.1-.3.1h-1Z"/>
    <path class="cls-9" d="M177.2,356.9v1.4c.7-.7,1.3-1.1,1.7-1.3.4-.2.7-.3,1-.3s.7.1,1,.3c.3.2.4.4.4.5s0,.2-.1.2q-.1.1-.2.1h-.1s-.1-.1-.2-.2c-.2-.2-.3-.3-.4-.3s-.2-.1-.3-.1c-.3,0-.6.1-.9.3s-1,.7-1.8,1.5v3.1h2.5c.1,0,.2,0,.3.1s.1.1.1.2,0,.2-.1.2-.2.1-.3.1h-4.5c-.1,0-.2,0-.3-.1s-.1-.1-.1-.2,0-.1.1-.2.2-.1.3-.1h1.4v-4.8h-1.1c-.1,0-.2,0-.3-.1s-.1-.1-.1-.2,0-.2.1-.2.2-.1.3-.1h1.6v.2Z"/>
    <path class="cls-9" d="M188,362.8v-.8c-.8.7-1.7,1.1-2.7,1.1s-1.2-.2-1.6-.5c-.4-.3-.6-.8-.6-1.3s.3-1,.8-1.5,1.3-.6,2.2-.6.6,0,.9.1c.3,0,.6.1,1,.2v-.9c0-.3-.1-.6-.4-.8s-.7-.3-1.3-.3-1.1.1-1.9.4c-.1,0-.2.1-.3.1s-.1,0-.2-.1-.1-.1-.1-.2,0-.1.1-.2.3-.2.8-.3c.7-.2,1.2-.3,1.6-.3.7,0,1.3.2,1.7.5.4.4.6.8.6,1.2v3.8h.8c.1,0,.2,0,.3.1s.1.1.1.2,0,.2-.1.2-.2.1-.3.1h-1.4v-.2ZM188,360c-.3-.1-.6-.1-.9-.2s-.6-.1-1-.1c-.8,0-1.5.2-2,.5-.4.3-.5.6-.5,1s.1.6.4.9.7.4,1.2.4,1-.1,1.4-.3c.4-.2.9-.5,1.3-.9v-1.3h.1Z"/>
    <path class="cls-9" d="M193.6,356.9h3.1c.1,0,.2,0,.3.1s.1.1.1.2,0,.2-.1.2-.2.1-.3.1h-3.1v3.8c0,.3.1.6.4.8s.7.3,1.2.3.8-.1,1.3-.2.8-.2,1.1-.4c.1-.1.2-.1.2-.1q.1,0,.2.1t.1.2-.1.2c-.1.2-.5.3-1.1.5s-1.1.3-1.6.3-1.2-.2-1.6-.5-.6-.7-.6-1.3v-3.8h-1.1c-.1,0-.2,0-.3-.1s-.1-.1-.1-.2,0-.2.1-.2.2-.1.3-.1h1.1v-1.7c0-.1,0-.2.1-.3s.1-.1.2-.1.2,0,.2.1.1.2.1.3v1.8h0Z"/>
    <path class="cls-9" d="M206.2,360h-5.9c.1.7.4,1.3.9,1.8s1.2.7,1.9.7.9-.1,1.3-.2.9-.3,1.1-.6c.1-.1.2-.1.2-.1q.1,0,.2.1t.1.2c0,.1,0,.2-.1.2-.2.2-.6.4-1.2.6-.6.2-1.1.3-1.7.3-1,0-1.8-.3-2.5-1-.7-.6-1-1.4-1-2.3s.3-1.5.9-2.1,1.4-.9,2.3-.9,1.7.3,2.3.9c1,.6,1.3,1.4,1.2,2.4ZM205.7,359.4c-.1-.6-.4-1.1-.9-1.5s-1.1-.6-1.7-.6-1.2.2-1.7.6-.8.9-.9,1.6h5.2Z"/>
    <path class="cls-9" d="M214.3,354.2v8h.8c.1,0,.2,0,.3.1s.1.1.1.2,0,.2-.1.2-.2.1-.3.1h-1.3v-1.1c-.7.9-1.5,1.4-2.5,1.4s-1-.1-1.5-.4-.9-.7-1.1-1.2-.4-1-.4-1.6.1-1.1.4-1.6c.3-.5.7-.9,1.1-1.2s1-.4,1.5-.4c1,0,1.8.5,2.5,1.4v-3.2h-.8c-.1,0-.2,0-.3-.1s-.1-.1-.1-.2,0-.2.1-.2.2-.1.3-.1h1.3ZM213.8,359.9c0-.7-.2-1.3-.7-1.8s-1.1-.8-1.8-.8-1.3.3-1.8.8-.7,1.1-.7,1.8.2,1.3.7,1.8,1.1.8,1.8.8,1.3-.3,1.8-.8c.4-.5.7-1.1.7-1.8Z"/>
    <path class="cls-9" d="M220.2,356.9v5.3h2.3c.1,0,.2,0,.3.1s.1.1.1.2,0,.2-.1.2-.2.1-.3.1h-5.1c-.1,0-.2,0-.3-.1s-.1-.1-.1-.2,0-.2.1-.2c.1-.1.2-.1.3-.1h2.3v-4.8h-1.7c-.1,0-.2,0-.3-.1s-.1-.1-.1-.2,0-.2.1-.2.2-.1.3-.1h2.2ZM220.2,354v1.5h-.8v-1.5h.8Z"/>
    <path class="cls-9" d="M225.7,356.9v.6c.5-.5,1-.8,1.5-.8s.6.1.8.2c.2.2.4.4.6.7.3-.3.5-.6.8-.7.3-.2.5-.2.8-.2s.7.1,1,.4.5.7.5,1.1v4h.5c.1,0,.2,0,.3.1s.1.1.1.2,0,.2-.1.2-.2.1-.3.1h-1.2v-4.5c0-.3-.1-.5-.3-.7s-.4-.3-.6-.3-.4.1-.7.2c-.2.2-.5.5-.8.9v3.8h.5c.1,0,.2,0,.3.1s.1.1.1.2,0,.2-.1.2-.2.1-.3.1h-1.1v-4.5c0-.3-.1-.6-.3-.8-.2-.2-.4-.3-.6-.3s-.4.1-.6.2c-.3.2-.6.5-.9,1v3.8h.5c.1,0,.2,0,.3.1s.1.1.1.2,0,.2-.1.2-.2.1-.3.1h-1.5c-.1,0-.2,0-.3-.1s-.1-.1-.1-.2,0-.2.1-.2c.1-.1.2-.1.3-.1h.5v-4.8h-.5c-.1,0-.2,0-.3-.1s-.1-.1-.1-.2,0-.2.1-.2.2-.1.3-.1h1.1Z"/>
    <path class="cls-9" d="M238.4,362.8v-.8c-.8.7-1.7,1.1-2.7,1.1s-1.2-.2-1.6-.5c-.4-.3-.6-.8-.6-1.3s.3-1,.8-1.5,1.3-.6,2.2-.6.6,0,.9.1c.3,0,.6.1,1,.2v-.9c0-.3-.1-.6-.4-.8s-.7-.3-1.3-.3-1.1.1-1.9.4c-.1,0-.2.1-.3.1s-.1,0-.2-.1-.1-.1-.1-.2,0-.1.1-.2.3-.2.8-.3c.7-.2,1.2-.3,1.6-.3.7,0,1.3.2,1.7.5.4.4.6.8.6,1.2v3.8h.8c.1,0,.2,0,.3.1s.1.1.1.2,0,.2-.1.2-.2.1-.3.1h-1.4v-.2ZM238.4,360c-.3-.1-.6-.1-.9-.2s-.6-.1-1-.1c-.8,0-1.5.2-2,.5-.4.3-.5.6-.5,1s.1.6.4.9.7.4,1.2.4,1-.1,1.4-.3c.4-.2.9-.5,1.3-.9v-1.3h.1Z"/>
    <path class="cls-9" d="M247.1,358v-1.1h1.3c.1,0,.2,0,.3.1s.1.1.1.2,0,.2-.1.2-.2.1-.3.1h-.8v5.7c0,.4-.1.7-.2,1-.1.2-.3.4-.5.6s-.5.4-.7.5-.5.1-.8.1h-1.6c-.1,0-.2,0-.3-.1s-.1-.1-.1-.2,0-.2.1-.2.2-.1.3-.1h1.6c.3,0,.6-.1.9-.3s.5-.4.7-.8.2-.4.2-.7v-1.7c-.6.8-1.4,1.3-2.4,1.3s-1.5-.3-2-.9c-.6-.6-.9-1.3-.9-2.1s.3-1.5.9-2.1,1.3-.9,2-.9c.9.1,1.7.5,2.3,1.4ZM247.1,359.7c0-.7-.2-1.2-.7-1.7s-1-.7-1.7-.7-1.2.2-1.7.7-.7,1-.7,1.7.2,1.2.7,1.7,1,.7,1.7.7,1.2-.2,1.7-.7c.4-.5.7-1,.7-1.7Z"/>
    <path class="cls-9" d="M256.6,360h-5.9c.1.7.4,1.3.9,1.8s1.2.7,1.9.7.9-.1,1.3-.2.9-.3,1.1-.6c0-.1.2-.1.2-.1q.1,0,.2.1t.1.2c0,.1,0,.2-.1.2-.2.2-.6.4-1.2.6-.6.2-1.1.3-1.7.3-1,0-1.8-.3-2.5-1-.7-.6-1-1.4-1-2.3s.3-1.5.9-2.1,1.4-.9,2.3-.9,1.7.3,2.3.9c1,.6,1.3,1.4,1.2,2.4ZM256.1,359.4c-.1-.6-.4-1.1-.9-1.5s-1.1-.6-1.7-.6-1.2.2-1.7.6-.8.9-.9,1.6h5.2Z"/>
    <path class="cls-9" d="M263.8,357.3c0-.1,0-.2.1-.3s.1-.1.2-.1.2,0,.2.1.1.2.1.3v1c0,.1,0,.2-.1.3s-.1.1-.2.1-.1,0-.2-.1-.1-.1-.1-.2c0-.3-.2-.5-.4-.7-.4-.3-.9-.4-1.5-.4s-1.1.1-1.5.4c-.3.2-.4.4-.4.7s.2.5.5.7c.2.1.6.2,1.2.3.8.1,1.4.2,1.7.3.4.2.8.4,1,.7s.3.6.3.9c0,.5-.2.9-.7,1.3s-1.2.6-2.1.6-1.6-.2-2.2-.7v.3h-.1c0,.1-.1.1-.2.1s-.2,0-.2-.1-.1-.2-.1-.3v-1.2c0-.1,0-.2.1-.3s.1-.1.2-.1.2,0,.2.1q.1.1.1.2c0,.2.1.4.2.5.2.2.4.4.8.5.3.1.8.2,1.3.2s1.3-.1,1.7-.4.5-.6.5-.9-.2-.6-.6-.9c-.4-.2-.9-.4-1.6-.4s-1.2-.2-1.5-.3-.6-.3-.7-.5-.3-.5-.3-.8c0-.5.2-.9.7-1.2.5-.3,1.1-.4,1.7-.4.8.1,1.4.3,1.9.7Z"/>
    <path class="cls-9" d="M272.9,353.8l-4.6,9.9c-.1.2-.2.3-.3.3s-.1,0-.2-.1-.1-.1-.1-.2,0-.1.1-.2l4.6-9.9c.1-.1.1-.2.1-.2h.2q.1,0,.2.1t.1.2c0,0,0,0-.1.1Z"/>
    <path class="cls-9" d="M281.1,357.5v-.2c0-.1,0-.2.1-.3s.1-.1.2-.1.2,0,.2.1.1.2.1.3v1.3c0,.1,0,.2-.1.3s-.1.1-.2.1-.1,0-.2-.1-.1-.1-.1-.3c0-.3-.2-.6-.6-.9s-.9-.4-1.6-.4-1.5.3-1.9.8-.7,1.1-.7,1.8.2,1.4.7,1.8,1.1.7,1.9.7.9-.1,1.4-.2.9-.4,1.3-.8.2-.1.3-.1.1,0,.2.1.1.1.1.2c0,.2-.2.4-.7.7-.7.5-1.6.7-2.5.7s-1.7-.3-2.3-.9c-.6-.6-.9-1.3-.9-2.2s.3-1.7.9-2.3,1.4-.9,2.3-.9,1.5.3,2.1.8Z"/>
    <path class="cls-9" d="M286.5,356.9v1.4c.7-.7,1.3-1.1,1.7-1.3.4-.2.7-.3,1-.3s.7.1,1,.3c.3.2.4.4.4.5s0,.2-.1.2q-.1.1-.2.1h-.1l-.2-.2c-.2-.2-.3-.3-.4-.3s-.2-.1-.3-.1c-.3,0-.6.1-.9.3s-1,.7-1.8,1.5v3.1h2.5c.1,0,.2,0,.3.1q.1.1.1.2c0,.1,0,.2-.1.2s-.2.1-.3.1h-4.5c-.1,0-.2,0-.3-.1q-.1-.1-.1-.2t.1-.2c.1-.1.2-.1.3-.1h1.4v-4.8h-1.1c-.1,0-.2,0-.3-.1s-.1-.1-.1-.2,0-.2.1-.2.2-.1.3-.1h1.6v.2Z"/>
    <path class="cls-9" d="M298.8,359.9c0,.9-.3,1.6-.9,2.2s-1.4.9-2.3.9-1.7-.3-2.3-.9c-.6-.6-.9-1.4-.9-2.2s.3-1.6.9-2.2,1.4-.9,2.3-.9,1.6.3,2.3.9.9,1.3.9,2.2ZM298.2,359.9c0-.7-.3-1.3-.8-1.8s-1.1-.8-1.9-.8-1.4.3-1.9.8-.8,1.1-.8,1.8.3,1.3.8,1.8,1.1.8,1.9.8,1.4-.3,1.9-.8.8-1.1.8-1.8Z"/>
    <path class="cls-9" d="M305.8,357.3c0-.1,0-.2.1-.3s.1-.1.2-.1.2,0,.2.1.1.2.1.3v1c0,.1,0,.2-.1.3s-.1.1-.2.1-.1,0-.2-.1-.1-.1-.1-.2c0-.3-.2-.5-.4-.7-.4-.3-.9-.4-1.5-.4s-1.1.1-1.5.4c-.3.2-.4.4-.4.7s.2.5.5.7c.2.1.6.2,1.2.3.8.1,1.4.2,1.7.3.4.2.8.4,1,.7s.3.6.3.9c0,.5-.2.9-.7,1.3s-1.2.6-2.1.6-1.6-.2-2.2-.7v.3h-.1c0,.1-.1.1-.2.1s-.2,0-.2-.1-.1-.2-.1-.3v-1.2c0-.1,0-.2.1-.3s.1-.1.2-.1.2,0,.2.1q.1.1.1.2c0,.2.1.4.2.5.2.2.4.4.8.5.3.1.8.2,1.3.2s1.3-.1,1.7-.4.5-.6.5-.9-.2-.6-.6-.9c-.4-.2-.9-.4-1.6-.4s-1.2-.2-1.5-.3-.6-.3-.7-.5-.3-.5-.3-.8c0-.5.2-.9.7-1.2.5-.3,1.1-.4,1.7-.4.8.1,1.5.3,1.9.7Z"/>
    <path class="cls-9" d="M314.2,357.3c0-.1,0-.2.1-.3s.1-.1.2-.1.2,0,.2.1.1.2.1.3v1c0,.1,0,.2-.1.3s-.1.1-.2.1-.1,0-.2-.1-.1-.1-.1-.2c0-.3-.2-.5-.4-.7-.4-.3-.9-.4-1.5-.4s-1.1.1-1.5.4c-.3.2-.4.4-.4.7s.2.5.5.7c.2.1.6.2,1.2.3.8.1,1.4.2,1.7.3.4.2.8.4,1,.7s.3.6.3.9c0,.5-.2.9-.7,1.3s-1.2.6-2.1.6-1.6-.2-2.2-.7v.3h-.1c0,.1-.1.1-.2.1s-.2,0-.2-.1-.1-.2-.1-.3v-1.2c0-.1,0-.2.1-.3s.1-.1.2-.1.2,0,.2.1q.1.1.1.2c0,.2.1.4.2.5.2.2.4.4.8.5.3.1.8.2,1.3.2s1.3-.1,1.7-.4.5-.6.5-.9-.2-.6-.6-.9c-.4-.2-.9-.4-1.6-.4s-1.2-.2-1.5-.3-.6-.3-.7-.5-.3-.5-.3-.8c0-.5.2-.9.7-1.2.5-.3,1.1-.4,1.7-.4.8.1,1.5.3,1.9.7Z"/>
    <path class="cls-9" d="M323.1,357.5v-.2c0-.1,0-.2.1-.3s.1-.1.2-.1.2,0,.2.1.1.2.1.3v1.3c0,.1,0,.2-.1.3q-.1.1-.2.1t-.2-.1-.1-.3c0-.3-.2-.6-.6-.9s-.9-.4-1.6-.4-1.5.3-1.9.8-.7,1.1-.7,1.8.2,1.4.7,1.8c.5.5,1.1.7,1.9.7s.9-.1,1.4-.2c.5-.2.9-.4,1.3-.8s.2-.1.3-.1.1,0,.2.1.1.1.1.2c0,.2-.2.4-.7.7-.7.5-1.6.7-2.5.7s-1.7-.3-2.3-.9c-.6-.6-.9-1.3-.9-2.2s.3-1.7.9-2.3,1.4-.9,2.3-.9,1.6.3,2.1.8Z"/>
    <path class="cls-9" d="M332.4,359.9c0,.9-.3,1.6-.9,2.2s-1.4.9-2.3.9-1.7-.3-2.3-.9c-.6-.6-.9-1.4-.9-2.2s.3-1.6.9-2.2,1.4-.9,2.3-.9,1.6.3,2.3.9c.6.5.9,1.3.9,2.2ZM331.8,359.9c0-.7-.3-1.3-.8-1.8s-1.1-.8-1.9-.8-1.3.3-1.9.8c-.5.5-.8,1.1-.8,1.8s.3,1.3.8,1.8,1.1.8,1.9.8,1.4-.3,1.9-.8c.5-.5.8-1.1.8-1.8Z"/>
    <path class="cls-9" d="M334.9,356.9v.6c.5-.5,1-.8,1.5-.8s.6.1.8.2c.2.2.4.4.6.7.3-.3.5-.6.8-.7.3-.2.5-.2.8-.2s.7.1,1,.4.5.7.5,1.1v4h.5c.1,0,.2,0,.3.1q.1.1.1.2c0,.1,0,.2-.1.2-.1.1-.2.1-.3.1h-1.1v-4.5c0-.3-.1-.5-.3-.7s-.4-.3-.6-.3-.4.1-.7.2c-.2.2-.5.5-.8.9v3.8h.5c.1,0,.2,0,.3.1q.1.1.1.2c0,.1,0,.2-.1.2-.1.1-.2.1-.3.1h-1.1v-4.5c0-.3-.1-.6-.3-.8s-.4-.3-.6-.3-.4.1-.6.2c-.3.2-.6.5-.9,1v3.8h.5c.1,0,.2,0,.3.1q.1.1.1.2c0,.1,0,.2-.1.2-.1.1-.2.1-.3.1h-1.5c-.1,0-.2,0-.3-.1q-.1-.1-.1-.2c0-.1,0-.2.1-.2.1-.1.2-.1.3-.1h.5v-4.8h-.5c-.1,0-.2,0-.3-.1q-.1-.1-.1-.2c0-.1,0-.2.1-.2.1-.1.2-.1.3-.1h1Z"/>
    <path class="cls-9" d="M343.8,356.9v1c.3-.4.7-.7,1.1-.9.4-.2.9-.3,1.4-.3s1.1.1,1.6.4.8.6,1.1,1.1c.3.5.4,1,.4,1.5,0,.8-.3,1.5-.9,2.1s-1.3.9-2.2.9-1.9-.4-2.5-1.3v3.5h1.4c.1,0,.2,0,.3.1q.1.1.1.2c0,.1,0,.2-.1.2-.1.1-.2.1-.3.1h-2.7c-.1,0-.2,0-.3-.1q-.1-.1-.1-.2c0-.1,0-.2.1-.2.1-.1.2-.1.3-.1h.8v-7.4h-.8c-.1,0-.2,0-.3-.1q-.1-.1-.1-.2c0-.1,0-.2.1-.2.1-.1.2-.1.3-.1h1.3ZM348.8,359.7c0-.7-.2-1.2-.7-1.7s-1.1-.7-1.8-.7-1.3.2-1.8.7-.7,1-.7,1.7.2,1.2.7,1.7,1.1.7,1.8.7,1.3-.2,1.8-.7c.4-.5.7-1.1.7-1.7Z"/>
    <path class="cls-9" d="M354.7,356.9v5.3h2.3c.1,0,.2,0,.3.1q.1.1.1.2c0,.1,0,.2-.1.2-.1.1-.2.1-.3.1h-5.1c-.1,0-.2,0-.3-.1q-.1-.1-.1-.2c0-.1,0-.2.1-.2.1-.1.2-.1.3-.1h2.3v-4.8h-1.7c-.1,0-.2,0-.3-.1s-.1-.1-.1-.2,0-.2.1-.2c.1-.1.2-.1.3-.1h2.2ZM354.6,354v1.5h-.8v-1.5h.8Z"/>
    <path class="cls-9" d="M363.1,354.2v8h2.3c.1,0,.2,0,.3.1q.1.1.1.2c0,.1,0,.2-.1.2-.1.1-.2.1-.3.1h-5.1c-.1,0-.2,0-.3-.1q-.1-.1-.1-.2c0-.1,0-.2.1-.2.1-.1.2-.1.3-.1h2.3v-7.4h-1.7c-.1,0-.2,0-.3-.1s-.1-.1-.1-.2,0-.2.1-.2c.1-.1.2-.1.3-.1h2.2Z"/>
    <path class="cls-9" d="M374.3,360h-5.9c.1.7.4,1.3.9,1.8s1.2.7,1.9.7.9-.1,1.3-.2c.5-.1.9-.3,1.1-.6.1-.1.2-.1.2-.1q.1,0,.2.1t.1.2c0,.1,0,.2-.1.2-.2.2-.6.4-1.2.6s-1.1.3-1.7.3c-1,0-1.8-.3-2.5-1-.7-.6-1-1.4-1-2.3s.3-1.5.9-2.1,1.4-.9,2.3-.9,1.7.3,2.3.9c.9.6,1.2,1.4,1.2,2.4ZM373.7,359.4c-.1-.6-.4-1.1-.9-1.5s-1.1-.6-1.7-.6-1.2.2-1.7.6-.8.9-.9,1.6h5.2Z"/>
    <path class="cls-9" d="M378.9,356.9v1.4c.7-.7,1.3-1.1,1.7-1.3.4-.2.7-.3,1-.3s.7.1,1,.3c.3.2.4.4.4.5s0,.2-.1.2q-.1.1-.2.1h-.1l-.2-.2c-.2-.2-.3-.3-.4-.3-.1-.1-.2-.1-.3-.1-.3,0-.6.1-.9.3-.4.2-1,.7-1.8,1.5v3.1h2.5c.1,0,.2,0,.3.1q.1.1.1.2c0,.1,0,.2-.1.2-.1.1-.2.1-.3.1h-4.5c-.1,0-.2,0-.3-.1q-.1-.1-.1-.2t.1-.2c.1-.1.2-.1.3-.1h1.4v-4.8h-1.1c-.1,0-.2,0-.3-.1q-.1-.1-.1-.2c0-.1,0-.2.1-.2.1-.1.2-.1.3-.1h1.6v.2Z"/>
    <path class="cls-9" d="M389.9,357.3c0-.1,0-.2.1-.3s.1-.1.2-.1.2,0,.2.1.1.2.1.3v1c0,.1,0,.2-.1.3s-.1.1-.2.1-.1,0-.2-.1c-.1,0-.1-.1-.1-.2,0-.3-.2-.5-.4-.7-.4-.3-.9-.4-1.5-.4s-1.1.1-1.5.4c-.3.2-.4.4-.4.7s.2.5.5.7c.2.1.6.2,1.2.3.8.1,1.4.2,1.7.3.4.2.8.4,1,.7.2.3.3.6.3.9,0,.5-.2.9-.7,1.3s-1.2.6-2.1.6-1.6-.2-2.2-.7v.3h-.1c0,.1-.1.1-.2.1s-.2,0-.2-.1-.1-.2-.1-.3v-1.2c0-.1,0-.2.1-.3q.1-.1.2-.1c.1,0,.2,0,.2.1q.1.1.1.2c0,.2.1.4.2.5.2.2.4.4.8.5.3.1.8.2,1.3.2s1.3-.1,1.7-.4c.4-.3.5-.6.5-.9s-.2-.6-.6-.9c-.4-.2-.9-.4-1.6-.4-.7-.1-1.2-.2-1.5-.3-.3-.1-.6-.3-.7-.5-.2-.2-.3-.5-.3-.8,0-.5.2-.9.7-1.2.5-.3,1.1-.4,1.7-.4.7.1,1.4.3,1.9.7Z"/>
  </g>
  <g class="cls-33">
    <path class="cls-23" d="M75.2,381.3v3h1.1c0,0,.2,0,.3.1q0,.1,0,.2c0,.1,0,.2,0,.2s-.2.1-.3.1h-2.4c0,0-.2,0-.3-.1s0-.1,0-.2,0-.2,0-.2c0-.1.2-.1.3-.1h.8v-6.8h-.8c0,0-.2,0-.3-.1q0-.1,0-.2c0-.1,0-.2,0-.2,0-.1.2-.1.3-.1h3.5c.7,0,1.3.2,1.8.7s.7,1,.7,1.5-.2.8-.5,1.2c-.3.4-.8.7-1.5.9.4.3.8.6,1.1,1s.8,1.1,1.4,2.2h.4c0,0,.2,0,.3.1q0,.1,0,.2c0,.1,0,.2,0,.2s-.2.1-.3.1h-.8c-.7-1.3-1.3-2.1-1.7-2.6s-.8-.8-1.3-1h-1.8ZM75.2,380.7h1.6c.5,0,1-.1,1.4-.3s.7-.4.9-.6.3-.5.3-.8-.2-.7-.6-1.1-.9-.5-1.4-.5h-2.1v3.3h-.1Z"/>
    <path class="cls-23" d="M88.3,377.4v4.8c0,.8-.3,1.5-.8,2s-1.2.8-1.9.8-1-.1-1.4-.3-.7-.6-1-1c-.3-.5-.4-1-.4-1.5v-4.8h-.5c0,0-.2,0-.3-.1q0-.1,0-.2c0-.1,0-.2,0-.2s.2-.1.3-.1h2.1c0,0,.2,0,.3.1q0,.1,0,.2c0,.1,0,.2,0,.2,0,.1-.2.1-.3.1h-1.1v4.8c0,.6.2,1.2.6,1.6s.9.7,1.5.7.7-.1,1-.3.6-.4.8-.8.4-.8.4-1.2v-4.8h-1.1c0,0-.2,0-.3-.1q0-.1,0-.2c0-.1,0-.2,0-.2,0-.1.2-.1.3-.1h2.1c0,0,.2,0,.3.1q0,.1,0,.2c0,.1,0,.2,0,.2,0,.1-.2.1-.3.1h-.3Z"/>
    <path class="cls-23" d="M96.7,384.8h-.7l-4.2-7.2v6.6h1.1c0,0,.2,0,.3.1q0,.1,0,.2c0,.1,0,.2,0,.2s-.2.1-.3.1h-2.1c0,0-.2,0-.3-.1s0-.1,0-.2,0-.2,0-.2c0-.1.2-.1.3-.1h.5v-6.8h-.8c0,0-.2,0-.3-.1q0-.1,0-.2c0-.1,0-.2,0-.2,0-.1.2-.1.3-.1h1.5l4.2,7.2v-6.6h-1.1c0,0-.2,0-.3-.1q0-.1,0-.2c0-.1,0-.2,0-.2,0-.1.2-.1.3-.1h2.1c0,0,.2,0,.3.1q0,.1,0,.2c0,.1,0,.2,0,.2,0,.1-.2.1-.3.1h-.5v7.4Z"/>
  </g>
  <g class="cls-33">
    <path class="cls-9" d="M108.1,378.9v.6c.5-.5,1-.8,1.5-.8s.6.1.8.2c.2.2.4.4.6.7.3-.3.5-.6.8-.7.3-.2.5-.2.8-.2s.7.1,1,.4.5.7.5,1.1v4h.5c0,0,.2,0,.3.1q0,.1,0,.2c0,.1,0,.2,0,.2s-.2.1-.3.1h-1.1v-4.5c0-.3,0-.5-.3-.7s-.4-.3-.6-.3-.4.1-.7.2c-.2.2-.5.5-.8.9v3.8h.5c0,0,.2,0,.3.1q0,.1,0,.2c0,.1,0,.2,0,.2s-.2.1-.3.1h-1.1v-4.5c0-.3,0-.6-.3-.8-.2-.2-.4-.3-.6-.3s-.4.1-.6.2c-.3.2-.6.5-.9,1v3.8h.5c0,0,.2,0,.3.1q0,.1,0,.2c0,.1,0,.2,0,.2s-.2.1-.3.1h-1.6c0,0-.2,0-.3-.1s0-.1,0-.2,0-.2,0-.2c0-.1.2-.1.3-.1h.5v-4.8h-.5c0,0-.2,0-.3-.1s0-.1,0-.2,0-.2,0-.2.2-.1.3-.1h1.1Z"/>
    <path class="cls-9" d="M117.9,382.3v2.6h-1.3c0,0-.2,0-.3-.1s0-.1,0-.2,0-.2,0-.2c0-.1.2-.1.3-.1h.8v-7.4h-.8c0,0-.2,0-.3-.1s0-.1,0-.2,0-.2,0-.2.2-.1.3-.1h1.3v5.3l2.4-2.1h-.3c0,0-.2,0-.3-.1s0-.1,0-.2,0-.2,0-.2.2-.1.3-.1h1.8c0,0,.2,0,.3.1s0,.1,0,.2,0,.2,0,.2-.2.1-.3.1h-.7l-2.2,1.9,2.8,2.9h.7c0,0,.2,0,.3.1q0,.1,0,.2c0,.1,0,.2,0,.2s-.2.1-.3.1h-1.9c0,0-.2,0-.3-.1s0-.1,0-.2,0-.2,0-.2c0-.1.2-.1.3-.1h.4l-2.5-2.5-.5.5Z"/>
    <path class="cls-9" d="M130.3,376.2v8h.8c.1,0,.2,0,.3.1s.1.1.1.2,0,.2-.1.2-.2.1-.3.1h-1.3v-1.1c-.7.9-1.5,1.4-2.5,1.4s-1-.1-1.5-.4-.9-.7-1.1-1.2-.4-1-.4-1.6,0-1.1.4-1.6.7-.9,1.1-1.2,1-.4,1.5-.4c1,0,1.8.5,2.5,1.4v-3.2h-.8c-.1,0-.2,0-.3-.1s-.1-.1-.1-.2,0-.2.1-.2.2-.1.3-.1h1.3ZM129.7,381.9c0-.7-.2-1.3-.7-1.8s-1.1-.8-1.8-.8-1.3.3-1.8.8-.7,1.1-.7,1.8.2,1.3.7,1.8,1.1.8,1.8.8,1.3-.3,1.8-.8c.5-.5.7-1.1.7-1.8Z"/>
    <path class="cls-9" d="M136.2,378.9v5.3h2.3c.1,0,.2,0,.3.1s.1.1.1.2,0,.2-.1.2-.2.1-.3.1h-5.1c-.1,0-.2,0-.3-.1s-.1-.1-.1-.2,0-.2.1-.2c.1-.1.2-.1.3-.1h2.3v-4.8h-1.7c-.1,0-.2,0-.3-.1s-.1-.1-.1-.2,0-.2.1-.2.2-.1.3-.1h2.2ZM136.2,376v1.5h-.8v-1.5h.8Z"/>
    <path class="cls-9" d="M143.6,378.9v1.4c.7-.7,1.3-1.1,1.7-1.3.4-.2.7-.3,1-.3s.7.1,1,.3c.3.2.4.4.4.5s0,.2-.1.2q-.1.1-.2.1h-.1s-.1-.1-.2-.2c-.2-.2-.3-.3-.4-.3s-.2-.1-.3-.1c-.3,0-.6.1-.9.3s-1,.7-1.8,1.5v3.1h2.5c.1,0,.2,0,.3.1s.1.1.1.2,0,.2-.1.2-.2.1-.3.1h-4.5c-.1,0-.2,0-.3-.1s-.1-.1-.1-.2,0-.1.1-.2.2-.1.3-.1h1.4v-4.8h-1.1c-.1,0-.2,0-.3-.1s-.1-.1-.1-.2,0-.2.1-.2.2-.1.3-.1h1.6v.2Z"/>
    <path class="cls-9" d="M163.7,375.8l-4.6,9.9c-.1.2-.2.3-.3.3s-.1,0-.2-.1q-.1-.1-.1-.2t.1-.2l4.6-9.9c.1-.1.1-.2.1-.2h.2q.1,0,.2.1.1.1.1.2c0,0-.1,0-.1.1Z"/>
    <path class="cls-9" d="M167.6,376.2v3.5c.4-.4.7-.7,1-.8.3-.2.7-.2,1.1-.2s.8.1,1.1.2c.3.2.6.4.8.7.2.3.3.7.3,1v3.6h.6c.1,0,.2,0,.3.1s.1.1.1.2,0,.2-.1.2-.2.1-.3.1h-1.9c-.1,0-.2,0-.3-.1s-.1-.1-.1-.2,0-.2.1-.2c.1-.1.2-.1.3-.1h.6v-3.5c0-.4-.1-.8-.4-1s-.7-.4-1.2-.4-.8.1-1.1.3c-.2.1-.6.5-1.1,1v3.6h.6c.1,0,.2,0,.3.1s.1.1.1.2,0,.2-.1.2-.2.1-.3.1h-1.9c-.1,0-.2,0-.3-.1s-.1-.1-.1-.2,0-.2.1-.2c.1-.1.2-.1.3-.1h.6v-7.4h-.8c-.1,0-.2,0-.3-.1s-.1-.1-.1-.2,0-.2.1-.2.2-.1.3-.1h1.7Z"/>
    <path class="cls-9" d="M181,382h-5.9c.1.7.4,1.3.9,1.8s1.2.7,1.9.7.9-.1,1.3-.2.9-.3,1.1-.6c.1-.1.2-.1.2-.1q.1,0,.2.1t.1.2c0,.1,0,.2-.1.2-.2.2-.6.4-1.2.6-.6.2-1.1.3-1.7.3-1,0-1.8-.3-2.5-1-.7-.6-1-1.4-1-2.3s.3-1.5.9-2.1,1.4-.9,2.3-.9,1.7.3,2.3.9c.9.6,1.2,1.4,1.2,2.4ZM180.4,381.4c-.1-.6-.4-1.1-.9-1.5s-1.1-.6-1.7-.6-1.2.2-1.7.6-.8.9-.9,1.6h5.2Z"/>
    <path class="cls-9" d="M186.6,376.2v8h2.3c.1,0,.2,0,.3.1s.1.1.1.2,0,.2-.1.2-.2.1-.3.1h-5.1c-.1,0-.2,0-.3-.1s-.1-.1-.1-.2,0-.2.1-.2c.1-.1.2-.1.3-.1h2.3v-7.4h-1.7c-.1,0-.2,0-.3-.1s-.1-.1-.1-.2,0-.2.1-.2.2-.1.3-.1h2.2Z"/>
    <path class="cls-9" d="M195,376.2v8h2.3c.1,0,.2,0,.3.1s.1.1.1.2,0,.2-.1.2-.2.1-.3.1h-5.1c-.1,0-.2,0-.3-.1s-.1-.1-.1-.2,0-.2.1-.2c.1-.1.2-.1.3-.1h2.3v-7.4h-1.7c-.1,0-.2,0-.3-.1s-.1-.1-.1-.2,0-.2.1-.2.2-.1.3-.1h2.2Z"/>
    <path class="cls-9" d="M206.3,381.9c0,.9-.3,1.6-.9,2.2s-1.4.9-2.3.9-1.7-.3-2.3-.9-.9-1.4-.9-2.2.3-1.6.9-2.2c.6-.6,1.4-.9,2.3-.9s1.6.3,2.3.9.9,1.3.9,2.2ZM205.8,381.9c0-.7-.3-1.3-.8-1.8s-1.1-.8-1.9-.8-1.4.3-1.9.8-.8,1.1-.8,1.8.3,1.3.8,1.8,1.1.8,1.9.8,1.4-.3,1.9-.8c.5-.5.8-1.1.8-1.8Z"/>
  </g>
  <g class="cls-33">
    <path class="cls-23" d="M79.6,399.6v-.4c0-.1,0-.2,0-.3s0-.1.2-.1.2,0,.2.1,0,.2,0,.3v1.6c0,.1,0,.2,0,.3s0,.1-.2.1,0,0-.2-.1,0-.1,0-.3c0-.4-.2-.7-.6-1-.5-.4-1.1-.6-1.8-.6s-.9.1-1.3.3c-.3.1-.5.3-.7.5-.3.4-.5.8-.7,1.2,0,.3-.2.7-.2,1.1v1c0,.9.3,1.6.9,2.2s1.3.9,2.2.9.9-.1,1.3-.3.8-.5,1.1-1c0-.1.2-.1.3-.1s0,0,.2.1,0,.1,0,.2,0,.3-.3.5c-.4.4-.8.7-1.3.9-.5.2-.9.3-1.4.3s-.8-.1-1.3-.2c-.3-.1-.6-.3-.8-.4s-.5-.4-.8-.8-.5-.7-.6-1.1c0-.3-.2-.7-.2-1.1v-1.2c0-.6.2-1.1.5-1.7s.7-1,1.2-1.4c.5-.3,1.1-.5,1.7-.5,1,0,1.9.4,2.5,1Z"/>
    <path class="cls-23" d="M89,402.8c0,.8-.2,1.5-.5,2.1-.3.7-.7,1.2-1.3,1.5s-1.1.5-1.8.5-1.7-.4-2.4-1.2c-.7-.8-1.1-1.8-1.1-3s.4-2.2,1.1-3,1.5-1.2,2.4-1.2,1.2.2,1.8.5,1,.9,1.3,1.5.5,1.6.5,2.3ZM88.4,402.8c0-.9-.3-1.8-.8-2.5s-1.2-1.1-2.1-1.1-1.5.4-2.1,1.1-.9,1.6-.9,2.6.3,1.9.9,2.6,1.3,1,2,1,1.6-.4,2.1-1.1c.7-.8.9-1.6.9-2.6Z"/>
    <path class="cls-23" d="M92.7,403.5v2.7h2c0,0,.2,0,.3.1q0,.1,0,.2c0,.1,0,.2,0,.2s-.2.1-.3.1h-3.3c0,0-.2,0-.3-.1s0-.1,0-.2,0-.2,0-.2c0-.1.2-.1.3-.1h.8v-6.8h-.8c0,0-.2,0-.3-.1q0-.1,0-.2c0-.1,0-.2,0-.2,0-.1.2-.1.3-.1h3.3c.8,0,1.4.2,1.9.7s.7,1,.7,1.6,0,.7-.2,1-.4.5-.6.7c-.3.3-.7.4-1.1.6-.3.1-.6.1-1,.1h-1.7ZM92.7,403h1.8c.4,0,.8-.1,1.2-.3.4-.2.6-.4.8-.7s.3-.6.3-.8c0-.5-.2-.9-.6-1.2s-.9-.5-1.5-.5h-2s0,3.5,0,3.5Z"/>
    <path class="cls-23" d="M102.6,403.2v3h1.5c0,0,.2,0,.3.1q0,.1,0,.2c0,.1,0,.2,0,.2s-.2.1-.3.1h-3.6c0,0-.2,0-.3-.1s0-.1,0-.2,0-.2,0-.2c0-.1.2-.1.3-.1h1.5v-3l-2.5-3.8h-.3c0,0-.2,0-.3-.1q0-.1,0-.2c0-.1,0-.2,0-.2,0-.1.2-.1.3-.1h1.6c0,0,.2,0,.3.1q0,.1,0,.2c0,.1,0,.2,0,.2,0,.1-.2.1-.3.1h-.6l2.1,3.2,2.1-3.2h-.6c0,0-.2,0-.3-.1q0-.1,0-.2c0-.1,0-.2,0-.2,0-.1.2-.1.3-.1h1.6c0,0,.2,0,.3.1q0,.1,0,.2c0,.1,0,.2,0,.2,0,.1-.2.1-.3.1h-.3l-2.5,3.8Z"/>
  </g>
  <g class="cls-33">
    <path class="cls-9" d="M117.2,398.2v3.5c.4-.4.7-.7,1-.8.3-.2.7-.2,1.1-.2s.8.1,1.1.2c.3.2.6.4.8.7.2.3.3.7.3,1v3.6h.6c0,0,.2,0,.3.1q0,.1,0,.2c0,.1,0,.2,0,.2s-.2.1-.3.1h-1.9c0,0-.2,0-.3-.1s0-.1,0-.2,0-.2,0-.2c0-.1.2-.1.3-.1h.6v-3.5c0-.4,0-.8-.4-1s-.7-.4-1.2-.4-.8.1-1.1.3c-.2.1-.6.5-1.1,1v3.6h.6c0,0,.2,0,.3.1q0,.1,0,.2c0,.1,0,.2,0,.2s-.2.1-.3.1h-1.6c0,0-.2,0-.3-.1s0-.1,0-.2,0-.2,0-.2c0-.1.2-.1.3-.1h.6v-7.4h-.8c0,0-.2,0-.3-.1s0-.1,0-.2,0-.2,0-.2.2-.1.3-.1h1.4Z"/>
    <path class="cls-9" d="M130.6,404h-5.9c0,.7.4,1.3.9,1.8s1.2.7,1.9.7.9-.1,1.3-.2.9-.3,1.1-.6c.1-.1.2-.1.2-.1q.1,0,.2.1t.1.2c0,.1,0,.2-.1.2-.2.2-.6.4-1.2.6-.6.2-1.1.3-1.7.3-1,0-1.8-.3-2.5-1-.7-.6-1-1.4-1-2.3s.3-1.5.9-2.1,1.4-.9,2.3-.9,1.7.3,2.3.9c.9.6,1.2,1.4,1.2,2.4ZM130,403.4c-.1-.6-.4-1.1-.9-1.5s-1.1-.6-1.7-.6-1.2.2-1.7.6-.8.9-.9,1.6h5.2Z"/>
    <path class="cls-9" d="M136.2,398.2v8h2.3c.1,0,.2,0,.3.1s.1.1.1.2,0,.2-.1.2-.2.1-.3.1h-5.1c-.1,0-.2,0-.3-.1s-.1-.1-.1-.2,0-.2.1-.2c.1-.1.2-.1.3-.1h2.3v-7.4h-1.7c-.1,0-.2,0-.3-.1s-.1-.1-.1-.2,0-.2.1-.2.2-.1.3-.1h2.2Z"/>
    <path class="cls-9" d="M144.6,398.2v8h2.3c.1,0,.2,0,.3.1s.1.1.1.2,0,.2-.1.2-.2.1-.3.1h-5.1c-.1,0-.2,0-.3-.1s-.1-.1-.1-.2,0-.2.1-.2c.1-.1.2-.1.3-.1h2.3v-7.4h-1.7c-.1,0-.2,0-.3-.1s-.1-.1-.1-.2,0-.2.1-.2.2-.1.3-.1h2.2Z"/>
    <path class="cls-9" d="M155.9,403.9c0,.9-.3,1.6-.9,2.2s-1.4.9-2.3.9-1.7-.3-2.3-.9-.9-1.4-.9-2.2.3-1.6.9-2.2c.6-.6,1.4-.9,2.3-.9s1.6.3,2.3.9.9,1.3.9,2.2ZM155.4,403.9c0-.7-.3-1.3-.8-1.8s-1.1-.8-1.9-.8-1.4.3-1.9.8-.8,1.1-.8,1.8.3,1.3.8,1.8,1.1.8,1.9.8,1.4-.3,1.9-.8c.5-.5.8-1.1.8-1.8Z"/>
    <path class="cls-9" d="M164.9,410.7h-7.6c-.1,0-.2,0-.3-.1s-.1-.1-.1-.2,0-.2.1-.2c.1-.1.2-.1.3-.1h7.6c.1,0,.2,0,.3.1s.1.1.1.2,0,.2-.1.2c0,0,0,.1-.3.1Z"/>
    <path class="cls-9" d="M171.2,406.8v-.8c-.8.7-1.7,1.1-2.7,1.1s-1.2-.2-1.6-.5c-.4-.3-.6-.8-.6-1.3s.3-1,.8-1.5,1.3-.6,2.2-.6.6,0,.9.1c.3,0,.6.1,1,.2v-.9c0-.3-.1-.6-.4-.8s-.7-.3-1.3-.3-1.1.1-1.9.4c-.1,0-.2.1-.3.1s-.1,0-.2-.1-.1-.1-.1-.2,0-.1.1-.2.3-.2.8-.3c.7-.2,1.2-.3,1.6-.3.7,0,1.3.2,1.7.5.4.4.6.8.6,1.2v3.8h.8c.1,0,.2,0,.3.1s.1.1.1.2,0,.2-.1.2-.2.1-.3.1h-1.4v-.2ZM171.2,404c-.3-.1-.6-.1-.9-.2s-.6-.1-1-.1c-.8,0-1.5.2-2,.5-.4.3-.5.6-.5,1s.1.6.4.9.7.4,1.2.4,1-.1,1.4-.3c.4-.2.9-.5,1.3-.9v-1.3h.1Z"/>
    <path class="cls-9" d="M179.9,402v-1.1h1.3c.1,0,.2,0,.3.1s.1.1.1.2,0,.2-.1.2-.2.1-.3.1h-.8v5.7c0,.4-.1.7-.2,1-.1.2-.3.4-.5.6s-.5.4-.7.5-.5.1-.8.1h-1.6c-.1,0-.2,0-.3-.1s-.1-.1-.1-.2,0-.2.1-.2.2-.1.3-.1h1.6c.3,0,.6-.1.9-.3s.5-.4.7-.8.2-.4.2-.7v-1.7c-.6.8-1.4,1.3-2.4,1.3s-1.5-.3-2-.9c-.6-.6-.9-1.3-.9-2.1s.3-1.5.9-2.1,1.3-.9,2-.9c.9.1,1.6.5,2.3,1.4ZM179.9,403.7c0-.7-.2-1.2-.7-1.7s-1-.7-1.7-.7-1.2.2-1.7.7-.7,1-.7,1.7.2,1.2.7,1.7,1,.7,1.7.7,1.2-.2,1.7-.7c.4-.5.7-1,.7-1.7Z"/>
    <path class="cls-9" d="M188,406.8v-.8c-.8.7-1.7,1.1-2.7,1.1s-1.2-.2-1.6-.5c-.4-.3-.6-.8-.6-1.3s.3-1,.8-1.5,1.3-.6,2.2-.6.6,0,.9.1c.3,0,.6.1,1,.2v-.9c0-.3-.1-.6-.4-.8s-.7-.3-1.3-.3-1.1.1-1.9.4c-.1,0-.2.1-.3.1s-.1,0-.2-.1-.1-.1-.1-.2,0-.1.1-.2.3-.2.8-.3c.7-.2,1.2-.3,1.6-.3.7,0,1.3.2,1.7.5.4.4.6.8.6,1.2v3.8h.8c.1,0,.2,0,.3.1s.1.1.1.2,0,.2-.1.2-.2.1-.3.1h-1.4v-.2ZM188,404c-.3-.1-.6-.1-.9-.2s-.6-.1-1-.1c-.8,0-1.5.2-2,.5-.4.3-.5.6-.5,1s.1.6.4.9.7.4,1.2.4,1-.1,1.4-.3c.4-.2.9-.5,1.3-.9v-1.3h.1Z"/>
    <path class="cls-9" d="M195,400.9v5.3h2.3c.1,0,.2,0,.3.1s.1.1.1.2,0,.2-.1.2-.2.1-.3.1h-5.1c-.1,0-.2,0-.3-.1s-.1-.1-.1-.2,0-.2.1-.2c.1-.1.2-.1.3-.1h2.3v-4.8h-1.7c-.1,0-.2,0-.3-.1s-.1-.1-.1-.2,0-.2.1-.2.2-.1.3-.1h2.2ZM195,398v1.5h-.8v-1.5h.8Z"/>
    <path class="cls-9" d="M201.3,400.9v.9c.4-.4.8-.7,1.1-.8s.7-.2,1.1-.2.8.1,1.2.3c.3.1.5.4.7.7.2.3.3.6.3,1v3.6h.5c.1,0,.2,0,.3.1s.1.1.1.2,0,.2-.1.2-.2.1-.3.1h-1.5c-.1,0-.2,0-.3-.1s-.1-.1-.1-.2,0-.2.1-.2c.1-.1.2-.1.3-.1h.5v-3.5c0-.4-.1-.7-.4-1-.3-.3-.7-.4-1.2-.4s-.7.1-1,.2c-.3.2-.7.5-1.2,1.1v3.6h.6c.1,0,.2,0,.3.1s.1.1.1.2,0,.2-.1.2-.2.1-.3.1h-1.9c-.1,0-.2,0-.3-.1s-.1-.1-.1-.2,0-.2.1-.2c.1-.1.2-.1.3-.1h.6v-4.8h-.5c-.1,0-.2,0-.3-.1s-.1-.1-.1-.2,0-.2.1-.2.2-.1.3-.1h1.1Z"/>
    <path class="cls-9" d="M211.4,405.2h.2c.3,0,.5.1.7.3.2.2.3.4.3.7s-.1.5-.3.7-.4.3-.7.3h-.2c-.3,0-.5-.1-.7-.3-.2-.2-.3-.4-.3-.7s.1-.5.3-.7.5-.3.7-.3Z"/>
    <path class="cls-9" d="M222.3,401.5v-.2c0-.1,0-.2.1-.3s.1-.1.2-.1.2,0,.2.1.1.2.1.3v1.3c0,.1,0,.2-.1.3s-.1.1-.2.1-.1,0-.2-.1q-.1-.1-.1-.3c0-.3-.2-.6-.6-.9s-.9-.4-1.6-.4-1.5.3-1.9.8-.7,1.1-.7,1.8.2,1.4.7,1.8,1.1.7,1.9.7.9-.1,1.4-.2.9-.4,1.3-.8c.1-.1.2-.1.3-.1s.1,0,.2.1q.1.1.1.2c0,.2-.2.4-.7.7-.7.5-1.6.7-2.5.7s-1.7-.3-2.3-.9-.9-1.3-.9-2.2.3-1.7.9-2.3,1.4-.9,2.3-.9,1.5.3,2.1.8Z"/>
    <path class="cls-9" d="M239.3,397.8l-4.6,9.9c-.1.2-.2.3-.3.3s-.1,0-.2-.1q-.1-.1-.1-.2t.1-.2l4.6-9.9c.1-.1.1-.2.1-.2h.2q.1,0,.2.1.1.1.1.2c0,0,0,0-.1.1Z"/>
    <path class="cls-9" d="M243.3,398.2v3.5c.4-.4.7-.7,1-.8.3-.2.7-.2,1.1-.2s.8.1,1.1.2c.3.2.6.4.8.7.2.3.3.7.3,1v3.6h.6c.1,0,.2,0,.3.1s.1.1.1.2,0,.2-.1.2-.2.1-.3.1h-1.9c-.1,0-.2,0-.3-.1s-.1-.1-.1-.2,0-.2.1-.2c.1-.1.2-.1.3-.1h.6v-3.5c0-.4-.1-.8-.4-1s-.7-.4-1.2-.4-.8.1-1.1.3c-.2.1-.6.5-1.1,1v3.6h.6c.1,0,.2,0,.3.1s.1.1.1.2,0,.2-.1.2-.2.1-.3.1h-1.7c-.1,0-.2,0-.3-.1s-.1-.1-.1-.2,0-.2.1-.2c.1-.1.2-.1.3-.1h.6v-7.4h-.8c-.1,0-.2,0-.3-.1s-.1-.1-.1-.2,0-.2.1-.2.2-.1.3-.1h1.5Z"/>
    <path class="cls-9" d="M256.7,404h-5.9c.1.7.4,1.3.9,1.8s1.2.7,1.9.7.9-.1,1.3-.2.9-.3,1.1-.6c.1-.1.2-.1.2-.1q.1,0,.2.1t.1.2c0,.1,0,.2-.1.2-.2.2-.6.4-1.2.6-.6.2-1.1.3-1.7.3-1,0-1.8-.3-2.5-1-.7-.6-1-1.4-1-2.3s.3-1.5.9-2.1,1.4-.9,2.3-.9,1.7.3,2.3.9c.9.6,1.2,1.4,1.2,2.4ZM256.1,403.4c-.1-.6-.4-1.1-.9-1.5s-1.1-.6-1.7-.6-1.2.2-1.7.6-.8.9-.9,1.6h5.2Z"/>
    <path class="cls-9" d="M262.2,398.2v8h2.3c.1,0,.2,0,.3.1q.1.1.1.2c0,.1,0,.2-.1.2s-.2.1-.3.1h-5.1c-.1,0-.2,0-.3-.1s-.1-.1-.1-.2,0-.2.1-.2c.1-.1.2-.1.3-.1h2.3v-7.4h-1.7c-.1,0-.2,0-.3-.1s-.1-.1-.1-.2,0-.2.1-.2.2-.1.3-.1h2.2Z"/>
    <path class="cls-9" d="M270.6,398.2v8h2.3c.1,0,.2,0,.3.1q.1.1.1.2c0,.1,0,.2-.1.2s-.2.1-.3.1h-5.1c-.1,0-.2,0-.3-.1s-.1-.1-.1-.2,0-.2.1-.2c.1-.1.2-.1.3-.1h2.3v-7.4h-1.7c-.1,0-.2,0-.3-.1s-.1-.1-.1-.2,0-.2.1-.2.2-.1.3-.1h2.2Z"/>
    <path class="cls-9" d="M282,403.9c0,.9-.3,1.6-.9,2.2s-1.4.9-2.3.9-1.7-.3-2.3-.9c-.6-.6-.9-1.4-.9-2.2s.3-1.6.9-2.2,1.4-.9,2.3-.9,1.6.3,2.3.9.9,1.3.9,2.2ZM281.4,403.9c0-.7-.3-1.3-.8-1.8s-1.1-.8-1.9-.8-1.4.3-1.9.8-.8,1.1-.8,1.8.3,1.3.8,1.8,1.1.8,1.9.8,1.4-.3,1.9-.8c.5-.5.8-1.1.8-1.8Z"/>
    <path class="cls-9" d="M289.7,397.8l-4.6,9.9c-.1.2-.2.3-.3.3s-.1,0-.2-.1-.1-.1-.1-.2,0-.1.1-.2l4.6-9.9c.1-.1.1-.2.1-.2h.2q.1,0,.2.1t.1.2c0,0,0,0-.1.1Z"/>
  </g>
  <g class="cls-33">
    <path class="cls-23" d="M75.2,425.3v3h1.1c0,0,.2,0,.3.1q0,.1,0,.2c0,.1,0,.2,0,.2s-.2.1-.3.1h-2.4c0,0-.2,0-.3-.1s0-.1,0-.2,0-.2,0-.2c0-.1.2-.1.3-.1h.8v-6.8h-.8c0,0-.2,0-.3-.1q0-.1,0-.2c0-.1,0-.2,0-.2,0-.1.2-.1.3-.1h3.5c.7,0,1.3.2,1.8.7s.7,1,.7,1.5-.2.8-.5,1.2c-.3.4-.8.7-1.5.9.4.3.8.6,1.1,1s.8,1.1,1.4,2.2h.4c0,0,.2,0,.3.1q0,.1,0,.2c0,.1,0,.2,0,.2s-.2.1-.3.1h-.8c-.7-1.3-1.3-2.1-1.7-2.6s-.8-.8-1.3-1h-1.8ZM75.2,424.7h1.6c.5,0,1-.1,1.4-.3s.7-.4.9-.6.3-.5.3-.8-.2-.7-.6-1.1-.9-.5-1.4-.5h-2.1v3.3h-.1Z"/>
    <path class="cls-23" d="M88.3,421.4v4.8c0,.8-.3,1.5-.8,2s-1.2.8-1.9.8-1-.1-1.4-.3-.7-.6-1-1c-.3-.5-.4-1-.4-1.5v-4.8h-.5c0,0-.2,0-.3-.1q0-.1,0-.2c0-.1,0-.2,0-.2s.2-.1.3-.1h2.1c0,0,.2,0,.3.1q0,.1,0,.2c0,.1,0,.2,0,.2,0,.1-.2.1-.3.1h-1.1v4.8c0,.6.2,1.2.6,1.6s.9.7,1.5.7.7-.1,1-.3.6-.4.8-.8.4-.8.4-1.2v-4.8h-1.1c0,0-.2,0-.3-.1q0-.1,0-.2c0-.1,0-.2,0-.2,0-.1.2-.1.3-.1h2.1c0,0,.2,0,.3.1q0,.1,0,.2c0,.1,0,.2,0,.2,0,.1-.2.1-.3.1h-.3Z"/>
    <path class="cls-23" d="M96.7,428.8h-.7l-4.2-7.2v6.6h1.1c0,0,.2,0,.3.1q0,.1,0,.2c0,.1,0,.2,0,.2s-.2.1-.3.1h-2.1c0,0-.2,0-.3-.1s0-.1,0-.2,0-.2,0-.2c0-.1.2-.1.3-.1h.5v-6.8h-.8c0,0-.2,0-.3-.1q0-.1,0-.2c0-.1,0-.2,0-.2,0-.1.2-.1.3-.1h1.5l4.2,7.2v-6.6h-1.1c0,0-.2,0-.3-.1q0-.1,0-.2c0-.1,0-.2,0-.2,0-.1.2-.1.3-.1h2.1c0,0,.2,0,.3.1q0,.1,0,.2c0,.1,0,.2,0,.2,0,.1-.2.1-.3.1h-.5v7.4Z"/>
    <path class="cls-23" d="M113.1,423.5v-.2c0-.1,0-.2,0-.3s0-.1.2-.1.2,0,.2.1,0,.2,0,.3v1.3c0,.1,0,.2,0,.3s0,.1-.2.1,0,0-.2-.1,0-.1,0-.3c0-.3-.2-.6-.6-.9s-.9-.4-1.6-.4-1.5.3-1.9.8-.7,1.1-.7,1.8.2,1.4.7,1.8,1.1.7,1.9.7.9-.1,1.4-.2.9-.4,1.3-.8c0-.1.2-.1.3-.1s0,0,.2.1,0,.1,0,.2c0,.2-.2.4-.7.7-.7.5-1.6.7-2.5.7s-1.7-.3-2.3-.9c-.6-.6-.9-1.3-.9-2.2s.3-1.7.9-2.3,1.4-.9,2.3-.9,1.5.3,2.1.8Z"/>
    <path class="cls-23" d="M121.9,420.2v8h.8c0,0,.2,0,.3.1q0,.1,0,.2c0,.1,0,.2,0,.2s-.2.1-.3.1h-1.3v-1.1c-.7.9-1.5,1.4-2.5,1.4s-1-.1-1.5-.4-.9-.7-1.1-1.2-.4-1-.4-1.6,0-1.1.4-1.6.7-.9,1.1-1.2,1-.4,1.5-.4c1,0,1.8.5,2.5,1.4v-3.2h-.8c0,0-.2,0-.3-.1s0-.1,0-.2,0-.2,0-.2.2-.1.3-.1h1.3ZM121.3,425.9c0-.7-.2-1.3-.7-1.8s-1.1-.8-1.8-.8-1.3.3-1.8.8-.7,1.1-.7,1.8.2,1.3.7,1.8,1.1.8,1.8.8,1.3-.3,1.8-.8c.5-.5.7-1.1.7-1.8Z"/>
  </g>
  <g class="cls-33">
    <path class="cls-9" d="M138.5,419.8l-4.6,9.9c-.1.2-.2.3-.3.3s-.1,0-.2-.1q-.1-.1-.1-.2t.1-.2l4.6-9.9c.1-.1.1-.2.1-.2h.2q.1,0,.2.1.1.1.1.2c0,0-.1,0-.1.1Z"/>
    <path class="cls-9" d="M142.4,420.2v3.5c.4-.4.7-.7,1-.8.3-.2.7-.2,1.1-.2s.8.1,1.1.2c.3.2.6.4.8.7.2.3.3.7.3,1v3.6h.6c.1,0,.2,0,.3.1s.1.1.1.2,0,.2-.1.2-.2.1-.3.1h-1.9c-.1,0-.2,0-.3-.1s-.1-.1-.1-.2,0-.2.1-.2c.1-.1.2-.1.3-.1h.6v-3.5c0-.4-.1-.8-.4-1s-.7-.4-1.2-.4-.8.1-1.1.3c-.2.1-.6.5-1.1,1v3.6h.6c.1,0,.2,0,.3.1s.1.1.1.2,0,.2-.1.2-.2.1-.3.1h-1.9c-.1,0-.2,0-.3-.1s-.1-.1-.1-.2,0-.2.1-.2c.1-.1.2-.1.3-.1h.6v-7.4h-.8c-.1,0-.2,0-.3-.1s-.1-.1-.1-.2,0-.2.1-.2.2-.1.3-.1h1.7Z"/>
    <path class="cls-9" d="M155.8,426h-5.8c.1.7.4,1.3.9,1.8s1.2.7,1.9.7.9-.1,1.3-.2.9-.3,1.1-.6c.1-.1.2-.1.2-.1q.1,0,.2.1t.1.2c0,.1,0,.2-.1.2-.2.2-.6.4-1.2.6-.6.2-1.1.3-1.7.3-1,0-1.8-.3-2.5-1-.7-.6-1-1.4-1-2.3s.3-1.5.9-2.1,1.4-.9,2.3-.9,1.7.3,2.3.9c.8.6,1.1,1.4,1.1,2.4ZM155.3,425.4c-.1-.6-.4-1.1-.9-1.5s-1.1-.6-1.7-.6-1.2.2-1.7.6-.8.9-.9,1.6h5.2Z"/>
    <path class="cls-9" d="M161.4,420.2v8h2.3c.1,0,.2,0,.3.1s.1.1.1.2,0,.2-.1.2-.2.1-.3.1h-5.1c-.1,0-.2,0-.3-.1s-.1-.1-.1-.2,0-.2.1-.2c.1-.1.2-.1.3-.1h2.3v-7.4h-1.7c-.1,0-.2,0-.3-.1s-.1-.1-.1-.2,0-.2.1-.2.2-.1.3-.1h2.2Z"/>
    <path class="cls-9" d="M169.8,420.2v8h2.3c.1,0,.2,0,.3.1s.1.1.1.2,0,.2-.1.2-.2.1-.3.1h-5.1c-.1,0-.2,0-.3-.1s-.1-.1-.1-.2,0-.2.1-.2c.1-.1.2-.1.3-.1h2.3v-7.4h-1.7c-.1,0-.2,0-.3-.1s-.1-.1-.1-.2,0-.2.1-.2.2-.1.3-.1h2.2Z"/>
    <path class="cls-9" d="M181.1,425.9c0,.9-.3,1.6-.9,2.2s-1.4.9-2.3.9-1.7-.3-2.3-.9-.9-1.4-.9-2.2.3-1.6.9-2.2c.6-.6,1.4-.9,2.3-.9s1.6.3,2.3.9.9,1.3.9,2.2ZM180.6,425.9c0-.7-.3-1.3-.8-1.8s-1.1-.8-1.9-.8-1.4.3-1.9.8-.8,1.1-.8,1.8.3,1.3.8,1.8,1.1.8,1.9.8,1.4-.3,1.9-.8c.5-.5.8-1.1.8-1.8Z"/>
    <path class="cls-9" d="M196.4,428.8l-.4-.7c-.4.6-.9.9-1.6.9s-1-.2-1.4-.6-.6-1-.6-1.6.1-.9.4-1.3.7-.6,1.2-.8c-.3-.5-.5-.9-.6-1.1s-.1-.3-.1-.5c0-.5.2-.8.5-1.2.3-.3.8-.5,1.2-.5s.3,0,.5.1.3.1.5.2c.2-.1.3-.2.4-.2s.1,0,.2.1q.1.1.1.2v.2c0,.1-.1.1-.2.1l-.4.2c-.1-.1-.3-.2-.4-.3-.1-.1-.3-.1-.5-.1-.3,0-.6.1-.8.3s-.4.5-.4.8.2.8.6,1.4l1.6,2.5c.3-.5.5-1.1.7-1.8h.6c.1,0,.2,0,.3.1s.1.1.1.2,0,.1-.1.2h-.1c0,.1-.2.1-.3.1-.2.8-.5,1.4-.8,1.8l.4.6h.5c.1,0,.2,0,.3.1s.1.1.1.2,0,.2-.1.2-.2.1-.3.1h-1.1ZM194.1,425.3c-.4.1-.7.3-.9.6-.2.3-.3.6-.3,1s.2.9.5,1.2.6.5,1,.5.9-.3,1.3-.9l-1.6-2.4Z"/>
    <path class="cls-9" d="M204.8,428.8l-.4-.7c-.4.6-.9.9-1.6.9s-1-.2-1.4-.6-.6-1-.6-1.6.1-.9.4-1.3.7-.6,1.2-.8c-.3-.5-.5-.9-.6-1.1s-.1-.3-.1-.5c0-.5.2-.8.5-1.2.3-.3.8-.5,1.2-.5s.3,0,.5.1.3.1.5.2c.2-.1.3-.2.4-.2s.1,0,.2.1q.1.1.1.2v.2c0,.1-.1.1-.2.1l-.4.2c-.1-.1-.3-.2-.4-.3-.1-.1-.3-.1-.5-.1-.3,0-.6.1-.8.3s-.4.5-.4.8.2.8.6,1.4l1.6,2.5c.3-.5.5-1.1.7-1.8h.6c.1,0,.2,0,.3.1s.1.1.1.2,0,.1-.1.2h-.1c0,.1-.2.1-.3.1-.2.8-.5,1.4-.8,1.8l.4.6h.5c.1,0,.2,0,.3.1s.1.1.1.2,0,.2-.1.2-.2.1-.3.1h-1.1ZM202.5,425.3c-.4.1-.7.3-.9.6-.2.3-.3.6-.3,1s.2.9.5,1.2.6.5,1,.5.9-.3,1.3-.9l-1.6-2.4Z"/>
    <path class="cls-9" d="M221.8,423.3c0-.1,0-.2.1-.3s.1-.1.2-.1.2,0,.2.1.1.2.1.3v1c0,.1,0,.2-.1.3s-.1.1-.2.1-.1,0-.2-.1-.1-.1-.1-.2c0-.3-.2-.5-.4-.7-.4-.3-.9-.4-1.5-.4s-1.1.1-1.5.4c-.3.2-.4.4-.4.7s.2.5.5.7c.2.1.6.2,1.2.3.8.1,1.4.2,1.7.3.4.2.8.4,1,.7s.3.6.3.9c0,.5-.2.9-.7,1.3s-1.2.6-2.1.6-1.6-.2-2.2-.7v.3h-.1c0,.1-.1.1-.2.1s-.2,0-.2-.1-.1-.2-.1-.3v-1.2c0-.1,0-.2.1-.3s.1-.1.2-.1.2,0,.2.1q.1.1.1.2c0,.2.1.4.2.5.2.2.4.4.8.5.3.1.8.2,1.3.2s1.3-.1,1.7-.4.5-.6.5-.9-.2-.6-.6-.9c-.4-.2-.9-.4-1.6-.4s-1.2-.2-1.5-.3-.6-.3-.7-.5-.3-.5-.3-.8c0-.5.2-.9.7-1.2.5-.3,1.1-.4,1.7-.4.8.1,1.4.3,1.9.7Z"/>
    <path class="cls-9" d="M230.7,423.5v-.2c0-.1,0-.2.1-.3s.1-.1.2-.1.2,0,.2.1.1.2.1.3v1.3c0,.1,0,.2-.1.3s-.1.1-.2.1-.1,0-.2-.1q-.1-.1-.1-.3c0-.3-.2-.6-.6-.9s-.9-.4-1.6-.4-1.5.3-1.9.8-.7,1.1-.7,1.8.2,1.4.7,1.8,1.1.7,1.9.7.9-.1,1.4-.2.9-.4,1.3-.8c.1-.1.2-.1.3-.1s.1,0,.2.1q.1.1.1.2c0,.2-.2.4-.7.7-.7.5-1.6.7-2.5.7s-1.7-.3-2.3-.9-.9-1.3-.9-2.2.3-1.7.9-2.3,1.4-.9,2.3-.9,1.5.3,2.1.8Z"/>
    <path class="cls-9" d="M239.9,425.9c0,.9-.3,1.6-.9,2.2s-1.4.9-2.3.9-1.7-.3-2.3-.9-.9-1.4-.9-2.2.3-1.6.9-2.2c.6-.6,1.4-.9,2.3-.9s1.6.3,2.3.9.9,1.3.9,2.2ZM239.4,425.9c0-.7-.3-1.3-.8-1.8s-1.1-.8-1.9-.8-1.4.3-1.9.8-.8,1.1-.8,1.8.3,1.3.8,1.8,1.1.8,1.9.8,1.4-.3,1.9-.8c.5-.5.8-1.1.8-1.8Z"/>
    <path class="cls-9" d="M243.3,422.9v.9c.4-.4.8-.7,1.1-.8s.7-.2,1.1-.2.8.1,1.2.3c.3.1.5.4.7.7.2.3.3.6.3,1v3.6h.5c.1,0,.2,0,.3.1s.1.1.1.2,0,.2-.1.2-.2.1-.3.1h-1.5c-.1,0-.2,0-.3-.1s-.1-.1-.1-.2,0-.2.1-.2c.1-.1.2-.1.3-.1h.5v-3.5c0-.4-.1-.7-.4-1-.3-.3-.7-.4-1.2-.4s-.7.1-1,.2c-.3.2-.7.5-1.2,1.1v3.6h.6c.1,0,.2,0,.3.1s.1.1.1.2,0,.2-.1.2-.2.1-.3.1h-1.9c-.1,0-.2,0-.3-.1s-.1-.1-.1-.2,0-.2.1-.2c.1-.1.2-.1.3-.1h.6v-4.8h-.5c-.1,0-.2,0-.3-.1s-.1-.1-.1-.2,0-.2.1-.2.2-.1.3-.1h1.1Z"/>
    <path class="cls-9" d="M256.6,426h-5.9c.1.7.4,1.3.9,1.8s1.2.7,1.9.7.9-.1,1.3-.2.9-.3,1.1-.6c0-.1.2-.1.2-.1q.1,0,.2.1t.1.2c0,.1,0,.2-.1.2-.2.2-.6.4-1.2.6-.6.2-1.1.3-1.7.3-1,0-1.8-.3-2.5-1-.7-.6-1-1.4-1-2.3s.3-1.5.9-2.1,1.4-.9,2.3-.9,1.7.3,2.3.9c1,.6,1.3,1.4,1.2,2.4ZM256.1,425.4c-.1-.6-.4-1.1-.9-1.5s-1.1-.6-1.7-.6-1.2.2-1.7.6-.8.9-.9,1.6h5.2Z"/>
    <path class="cls-9" d="M264.9,424.5v.8h-5.9v-.8h5.9Z"/>
    <path class="cls-9" d="M272.3,424v-1.1h1.3c.1,0,.2,0,.3.1s.1.1.1.2,0,.2-.1.2-.2.1-.3.1h-.8v5.7c0,.4-.1.7-.2,1-.1.2-.3.4-.5.6s-.5.4-.7.5-.5.1-.8.1h-1.6c-.1,0-.2,0-.3-.1q-.1-.1-.1-.2c0-.1,0-.2.1-.2s.2-.1.3-.1h1.6c.3,0,.6-.1.9-.3s.5-.4.7-.8c.1-.2.2-.4.2-.7v-1.7c-.6.8-1.4,1.3-2.4,1.3s-1.5-.3-2-.9c-.6-.6-.9-1.3-.9-2.1s.3-1.5.9-2.1,1.3-.9,2-.9c.9.1,1.7.5,2.3,1.4ZM272.3,425.7c0-.7-.2-1.2-.7-1.7s-1-.7-1.7-.7-1.2.2-1.7.7-.7,1-.7,1.7.2,1.2.7,1.7,1,.7,1.7.7,1.2-.2,1.7-.7c.4-.5.7-1,.7-1.7Z"/>
    <path class="cls-9" d="M281.1,423.5v-.2c0-.1,0-.2.1-.3s.1-.1.2-.1.2,0,.2.1.1.2.1.3v1.3c0,.1,0,.2-.1.3s-.1.1-.2.1-.1,0-.2-.1-.1-.1-.1-.3c0-.3-.2-.6-.6-.9s-.9-.4-1.6-.4-1.5.3-1.9.8-.7,1.1-.7,1.8.2,1.4.7,1.8,1.1.7,1.9.7.9-.1,1.4-.2.9-.4,1.3-.8.2-.1.3-.1.1,0,.2.1.1.1.1.2c0,.2-.2.4-.7.7-.7.5-1.6.7-2.5.7s-1.7-.3-2.3-.9c-.6-.6-.9-1.3-.9-2.2s.3-1.7.9-2.3,1.4-.9,2.3-.9,1.5.3,2.1.8Z"/>
    <path class="cls-9" d="M289.5,423.5v-.2c0-.1,0-.2.1-.3s.1-.1.2-.1.2,0,.2.1.1.2.1.3v1.3c0,.1,0,.2-.1.3s-.1.1-.2.1-.1,0-.2-.1-.1-.1-.1-.3c0-.3-.2-.6-.6-.9s-.9-.4-1.6-.4-1.5.3-1.9.8-.7,1.1-.7,1.8.2,1.4.7,1.8,1.1.7,1.9.7.9-.1,1.4-.2.9-.4,1.3-.8.2-.1.3-.1.1,0,.2.1.1.1.1.2c0,.2-.2.4-.7.7-.7.5-1.6.7-2.5.7s-1.7-.3-2.3-.9c-.6-.6-.9-1.3-.9-2.2s.3-1.7.9-2.3,1.4-.9,2.3-.9,1.5.3,2.1.8Z"/>
    <path class="cls-9" d="M302.1,420.2v3.5c.4-.4.7-.7,1-.8.3-.2.7-.2,1.1-.2s.8.1,1.1.2c.3.2.6.4.8.7.2.3.3.7.3,1v3.6h.6c.1,0,.2,0,.3.1q.1.1.1.2c0,.1,0,.2-.1.2s-.2.1-.3.1h-1.9c-.1,0-.2,0-.3-.1s-.1-.1-.1-.2,0-.2.1-.2c.1-.1.2-.1.3-.1h.6v-3.5c0-.4-.1-.8-.4-1s-.7-.4-1.2-.4-.8.1-1.1.3c-.2.1-.6.5-1.1,1v3.6h.6c.1,0,.2,0,.3.1q.1.1.1.2c0,.1,0,.2-.1.2s-.2.1-.3.1h-1.9c-.1,0-.2,0-.3-.1s-.1-.1-.1-.2,0-.2.1-.2c.1-.1.2-.1.3-.1h.6v-7.4h-.8c-.1,0-.2,0-.3-.1s-.1-.1-.1-.2,0-.2.1-.2.2-.1.3-.1h1.7Z"/>
    <path class="cls-9" d="M315.5,426h-5.9c.1.7.4,1.3.9,1.8s1.2.7,1.9.7.9-.1,1.3-.2.9-.3,1.1-.6c.1-.1.2-.1.2-.1q.1,0,.2.1t.1.2c0,.1,0,.2-.1.2-.2.2-.6.4-1.2.6s-1.1.3-1.7.3c-1,0-1.8-.3-2.5-1-.7-.6-1-1.4-1-2.3s.3-1.5.9-2.1,1.4-.9,2.3-.9,1.7.3,2.3.9c.9.6,1.2,1.4,1.2,2.4ZM314.9,425.4c-.1-.6-.4-1.1-.9-1.5s-1.1-.6-1.7-.6-1.2.2-1.7.6-.8.9-.9,1.6h5.2Z"/>
    <path class="cls-9" d="M321,420.2v8h2.3c.1,0,.2,0,.3.1q.1.1.1.2c0,.1,0,.2-.1.2-.1.1-.2.1-.3.1h-5.1c-.1,0-.2,0-.3-.1s-.1-.1-.1-.2,0-.2.1-.2c.1-.1.2-.1.3-.1h2.3v-7.4h-1.7c-.1,0-.2,0-.3-.1s-.1-.1-.1-.2,0-.2.1-.2c.1-.1.2-.1.3-.1h2.2Z"/>
    <path class="cls-9" d="M329.4,420.2v8h2.3c.1,0,.2,0,.3.1q.1.1.1.2c0,.1,0,.2-.1.2-.1.1-.2.1-.3.1h-5.1c-.1,0-.2,0-.3-.1q-.1-.1-.1-.2c0-.1,0-.2.1-.2.1-.1.2-.1.3-.1h2.3v-7.4h-1.7c-.1,0-.2,0-.3-.1s-.1-.1-.1-.2,0-.2.1-.2c.1-.1.2-.1.3-.1h2.2Z"/>
    <path class="cls-9" d="M340.8,425.9c0,.9-.3,1.6-.9,2.2s-1.4.9-2.3.9-1.7-.3-2.3-.9c-.6-.6-.9-1.4-.9-2.2s.3-1.6.9-2.2,1.4-.9,2.3-.9,1.6.3,2.3.9c.6.5.9,1.3.9,2.2ZM340.2,425.9c0-.7-.3-1.3-.8-1.8s-1.1-.8-1.9-.8-1.4.3-1.9.8-.8,1.1-.8,1.8.3,1.3.8,1.8,1.1.8,1.9.8,1.3-.3,1.9-.8c.5-.5.8-1.1.8-1.8Z"/>
    <path class="cls-9" d="M349.8,432.7h-7.6c-.1,0-.2,0-.3-.1q-.1-.1-.1-.2c0-.1,0-.2.1-.2.1-.1.2-.1.3-.1h7.6c.1,0,.2,0,.3.1q.1.1.1.2c0,.1,0,.2-.1.2s-.2.1-.3.1Z"/>
    <path class="cls-9" d="M356,428.8v-.8c-.8.7-1.7,1.1-2.7,1.1s-1.2-.2-1.6-.5-.6-.8-.6-1.3.3-1,.8-1.5c.5-.4,1.3-.6,2.2-.6s.6,0,.9.1c.3,0,.6.1,1,.2v-.9c0-.3-.1-.6-.4-.8-.3-.2-.7-.3-1.3-.3s-1.1.1-1.9.4c-.1,0-.2.1-.3.1s-.1,0-.2-.1-.1-.1-.1-.2,0-.1.1-.2.3-.2.8-.3c.7-.2,1.2-.3,1.6-.3.7,0,1.3.2,1.7.5.4.4.6.8.6,1.2v3.8h.8c.1,0,.2,0,.3.1q.1.1.1.2c0,.1,0,.2-.1.2-.1.1-.2.1-.3.1h-1.4v-.2ZM356,426c-.3-.1-.6-.1-.9-.2s-.6-.1-1-.1c-.8,0-1.5.2-2,.5-.4.3-.5.6-.5,1s.1.6.4.9c.3.2.7.4,1.2.4s1-.1,1.4-.3c.4-.2.9-.5,1.3-.9v-1.3h.1Z"/>
    <path class="cls-9" d="M364.7,424v-1.1h1.3c.1,0,.2,0,.3.1q.1.1.1.2c0,.1,0,.2-.1.2-.1.1-.2.1-.3.1h-.8v5.7c0,.4-.1.7-.2,1-.1.2-.3.4-.5.6-.3.2-.5.4-.7.5s-.5.1-.8.1h-1.6c-.1,0-.2,0-.3-.1q-.1-.1-.1-.2c0-.1,0-.2.1-.2.1-.1.2-.1.3-.1h1.6c.3,0,.6-.1.9-.3.3-.2.5-.4.7-.8.1-.2.2-.4.2-.7v-1.7c-.6.8-1.4,1.3-2.4,1.3s-1.5-.3-2-.9c-.6-.6-.9-1.3-.9-2.1s.3-1.5.9-2.1,1.3-.9,2-.9c.9.1,1.7.5,2.3,1.4ZM364.7,425.7c0-.7-.2-1.2-.7-1.7s-1-.7-1.7-.7-1.2.2-1.7.7-.7,1-.7,1.7.2,1.2.7,1.7,1,.7,1.7.7,1.2-.2,1.7-.7c.5-.5.7-1,.7-1.7Z"/>
    <path class="cls-9" d="M372.8,428.8v-.8c-.8.7-1.7,1.1-2.7,1.1s-1.2-.2-1.6-.5-.6-.8-.6-1.3.3-1,.8-1.5c.5-.4,1.3-.6,2.2-.6s.6,0,.9.1c.3,0,.6.1,1,.2v-.9c0-.3-.1-.6-.4-.8-.3-.2-.7-.3-1.3-.3s-1.1.1-1.9.4c-.1,0-.2.1-.3.1s-.1,0-.2-.1-.1-.1-.1-.2,0-.1.1-.2.3-.2.8-.3c.7-.2,1.2-.3,1.6-.3.7,0,1.3.2,1.7.5.4.4.6.8.6,1.2v3.8h.8c.1,0,.2,0,.3.1q.1.1.1.2c0,.1,0,.2-.1.2-.1.1-.2.1-.3.1h-1.4v-.2ZM372.8,426c-.3-.1-.6-.1-.9-.2s-.6-.1-1-.1c-.8,0-1.5.2-2,.5-.4.3-.5.6-.5,1s.1.6.4.9c.3.2.7.4,1.2.4s1-.1,1.4-.3c.4-.2.9-.5,1.3-.9v-1.3h.1Z"/>
    <path class="cls-9" d="M379.9,422.9v5.3h2.3c.1,0,.2,0,.3.1q.1.1.1.2c0,.1,0,.2-.1.2-.1.1-.2.1-.3.1h-5.2c-.1,0-.2,0-.3-.1q-.1-.1-.1-.2c0-.1,0-.2.1-.2.1-.1.2-.1.3-.1h2.3v-4.8h-1.7c-.1,0-.2,0-.3-.1s-.1-.1-.1-.2,0-.2.1-.2c.1-.1.2-.1.3-.1h2.3ZM379.8,420v1.5h-.8v-1.5h.8Z"/>
    <path class="cls-9" d="M386.1,422.9v.9c.4-.4.8-.7,1.1-.8.3-.2.7-.2,1.1-.2s.8.1,1.2.3c.3.1.5.4.7.7.2.3.3.6.3,1v3.6h.5c.1,0,.2,0,.3.1q.1.1.1.2c0,.1,0,.2-.1.2-.1.1-.2.1-.3.1h-1.5c-.1,0-.2,0-.3-.1q-.1-.1-.1-.2c0-.1,0-.2.1-.2.1-.1.2-.1.3-.1h.5v-3.5c0-.4-.1-.7-.4-1s-.7-.4-1.2-.4-.7.1-1,.2c-.3.2-.7.5-1.2,1.1v3.6h.6c.1,0,.2,0,.3.1q.1.1.1.2c0,.1,0,.2-.1.2-.1.1-.2.1-.3.1h-1.9c-.1,0-.2,0-.3-.1q-.1-.1-.1-.2c0-.1,0-.2.1-.2.1-.1.2-.1.3-.1h.6v-4.8h-.5c-.1,0-.2,0-.3-.1q-.1-.1-.1-.2c0-.1,0-.2.1-.2.1-.1.2-.1.3-.1h1.1Z"/>
    <path class="cls-9" d="M396.2,427.2h.2c.3,0,.5.1.7.3.2.2.3.4.3.7s-.1.5-.3.7-.4.3-.7.3h-.2c-.3,0-.5-.1-.7-.3-.2-.2-.3-.4-.3-.7s.1-.5.3-.7.5-.3.7-.3Z"/>
    <path class="cls-9" d="M407.2,423.5v-.2c0-.1,0-.2.1-.3s.1-.1.2-.1.2,0,.2.1.1.2.1.3v1.3c0,.1,0,.2-.1.3q-.1.1-.2.1t-.2-.1-.1-.3c0-.3-.2-.6-.6-.9s-.9-.4-1.6-.4-1.5.3-1.9.8-.7,1.1-.7,1.8.2,1.4.7,1.8c.5.5,1.1.7,1.9.7s.9-.1,1.4-.2c.5-.2.9-.4,1.3-.8s.2-.1.3-.1.1,0,.2.1.1.1.1.2c0,.2-.2.4-.7.7-.7.5-1.6.7-2.5.7s-1.7-.3-2.3-.9c-.6-.6-.9-1.3-.9-2.2s.3-1.7.9-2.3,1.4-.9,2.3-.9,1.5.3,2.1.8Z"/>
    <path class="cls-9" d="M424.5,424.5v.8h-5.9v-.8h5.9Z"/>
    <path class="cls-9" d="M433.2,425.9c0,.9-.3,1.6-.9,2.2s-1.4.9-2.3.9-1.7-.3-2.3-.9c-.6-.6-.9-1.4-.9-2.2s.3-1.6.9-2.2,1.4-.9,2.3-.9,1.6.3,2.3.9c.6.5.9,1.3.9,2.2ZM432.6,425.9c0-.7-.3-1.3-.8-1.8s-1.1-.8-1.9-.8-1.4.3-1.9.8-.8,1.1-.8,1.8.3,1.3.8,1.8,1.1.8,1.9.8,1.3-.3,1.9-.8c.5-.5.8-1.1.8-1.8Z"/>
    <path class="cls-9" d="M448.4,428.8v-.8c-.8.7-1.7,1.1-2.7,1.1s-1.2-.2-1.6-.5-.6-.8-.6-1.3.3-1,.8-1.5c.5-.4,1.3-.6,2.2-.6s.6,0,.9.1c.3,0,.6.1,1,.2v-.9c0-.3-.1-.6-.4-.8-.3-.2-.7-.3-1.3-.3s-1.1.1-1.9.4c-.1,0-.2.1-.3.1s-.1,0-.2-.1-.1-.1-.1-.2,0-.1.1-.2.3-.2.8-.3c.7-.2,1.2-.3,1.6-.3.7,0,1.3.2,1.7.5.4.4.6.8.6,1.2v3.8h.8c.1,0,.2,0,.3.1q.1.1.1.2c0,.1,0,.2-.1.2-.1.1-.2.1-.3.1h-1.4v-.2ZM448.4,426c-.3-.1-.6-.1-.9-.2s-.6-.1-1-.1c-.8,0-1.5.2-2,.5-.4.3-.5.6-.5,1s.1.6.4.9c.3.2.7.4,1.2.4s1-.1,1.4-.3c.4-.2.9-.5,1.3-.9v-1.3h.1Z"/>
    <path class="cls-9" d="M457.1,424v-1.1h1.3c.1,0,.2,0,.3.1q.1.1.1.2c0,.1,0,.2-.1.2-.1.1-.2.1-.3.1h-.8v5.7c0,.4-.1.7-.2,1-.1.2-.3.4-.5.6-.3.2-.5.4-.7.5s-.5.1-.8.1h-1.6c-.1,0-.2,0-.3-.1q-.1-.1-.1-.2c0-.1,0-.2.1-.2.1-.1.2-.1.3-.1h1.6c.3,0,.6-.1.9-.3.3-.2.5-.4.7-.8.1-.2.2-.4.2-.7v-1.7c-.6.8-1.4,1.3-2.4,1.3s-1.5-.3-2-.9c-.6-.6-.9-1.3-.9-2.1s.3-1.5.9-2.1,1.3-.9,2-.9c.9.1,1.7.5,2.3,1.4ZM457.1,425.7c0-.7-.2-1.2-.7-1.7s-1-.7-1.7-.7-1.2.2-1.7.7-.7,1-.7,1.7.2,1.2.7,1.7,1,.7,1.7.7,1.2-.2,1.7-.7c.5-.5.7-1,.7-1.7Z"/>
    <path class="cls-9" d="M465.2,428.8v-.8c-.8.7-1.7,1.1-2.7,1.1s-1.2-.2-1.6-.5-.6-.8-.6-1.3.3-1,.8-1.5c.5-.4,1.3-.6,2.2-.6s.6,0,.9.1c.3,0,.6.1,1,.2v-.9c0-.3-.1-.6-.4-.8-.3-.2-.7-.3-1.3-.3s-1.1.1-1.9.4c-.1,0-.2.1-.3.1s-.1,0-.2-.1-.1-.1-.1-.2,0-.1.1-.2.3-.2.8-.3c.7-.2,1.2-.3,1.6-.3.7,0,1.3.2,1.7.5.4.4.6.8.6,1.2v3.8h.8c.1,0,.2,0,.3.1q.1.1.1.2c0,.1,0,.2-.1.2-.1.1-.2.1-.3.1h-1.4v-.2ZM465.2,426c-.3-.1-.6-.1-.9-.2s-.6-.1-1-.1c-.8,0-1.5.2-2,.5-.4.3-.5.6-.5,1s.1.6.4.9c.3.2.7.4,1.2.4s1-.1,1.4-.3c.4-.2.9-.5,1.3-.9v-1.3h.1Z"/>
    <path class="cls-9" d="M472.3,422.9v5.3h2.3c.1,0,.2,0,.3.1q.1.1.1.2c0,.1,0,.2-.1.2-.1.1-.2.1-.3.1h-5.1c-.1,0-.2,0-.3-.1q-.1-.1-.1-.2c0-.1,0-.2.1-.2.1-.1.2-.1.3-.1h2.3v-4.8h-1.8c-.1,0-.2,0-.3-.1s-.1-.1-.1-.2,0-.2.1-.2c.1-.1.2-.1.3-.1h2.3ZM472.3,420v1.5h-.8v-1.5h.8Z"/>
    <path class="cls-9" d="M478.5,422.9v.9c.4-.4.8-.7,1.1-.8.3-.2.7-.2,1.1-.2s.8.1,1.2.3c.3.1.5.4.7.7.2.3.3.6.3,1v3.6h.5c.1,0,.2,0,.3.1q.1.1.1.2c0,.1,0,.2-.1.2-.1.1-.2.1-.3.1h-1.5c-.1,0-.2,0-.3-.1q-.1-.1-.1-.2c0-.1,0-.2.1-.2.1-.1.2-.1.3-.1h.5v-3.5c0-.4-.1-.7-.4-1s-.7-.4-1.2-.4-.7.1-1,.2c-.3.2-.7.5-1.2,1.1v3.6h.6c.1,0,.2,0,.3.1q.1.1.1.2c0,.1,0,.2-.1.2-.1.1-.2.1-.3.1h-1.9c-.1,0-.2,0-.3-.1q-.1-.1-.1-.2c0-.1,0-.2.1-.2.1-.1.2-.1.3-.1h.6v-4.8h-.5c-.1,0-.2,0-.3-.1q-.1-.1-.1-.2c0-.1,0-.2.1-.2.1-.1.2-.1.3-.1h1.1Z"/>
  </g>
  <g class="cls-33">
    <path class="cls-23" d="M79.6,443.6v-.4c0-.1,0-.2,0-.3s0-.1.2-.1.2,0,.2.1,0,.2,0,.3v1.6c0,.1,0,.2,0,.3s0,.1-.2.1,0,0-.2-.1,0-.1,0-.3c0-.4-.2-.7-.6-1-.5-.4-1.1-.6-1.8-.6s-.9.1-1.3.3c-.3.1-.5.3-.7.5-.3.4-.5.8-.7,1.2,0,.3-.2.7-.2,1.1v1c0,.9.3,1.6.9,2.2s1.3.9,2.2.9.9-.1,1.3-.3.8-.5,1.1-1c0-.1.2-.1.3-.1s0,0,.2.1,0,.1,0,.2,0,.3-.3.5c-.4.4-.8.7-1.3.9-.5.2-.9.3-1.4.3s-.8-.1-1.3-.2c-.3-.1-.6-.3-.8-.4s-.5-.4-.8-.8-.5-.7-.6-1.1c0-.3-.2-.7-.2-1.1v-1.2c0-.6.2-1.1.5-1.7s.7-1,1.2-1.4c.5-.3,1.1-.5,1.7-.5,1,0,1.9.4,2.5,1Z"/>
    <path class="cls-23" d="M85.9,448.4h-.7l-2.2-5h0v6.8h1.1c0,0,.2,0,.3.1q0,.1,0,.2c0,.1,0,.2,0,.2s-.2.1-.3.1h-2.1c0,0-.2,0-.3-.1s0-.1,0-.2,0-.2,0-.2c0-.1.2-.1.3-.1h.5v-6.8h-.4c0,0-.2,0-.3-.1q0-.1,0-.2c0-.1,0-.2,0-.2,0-.1.2-.1.3-.1h1.4l2.2,4.9,2.1-4.9h1.4c0,0,.2,0,.3.1q0,.1,0,.2c0,.1,0,.2,0,.2,0,.1-.2.1-.3.1h-.4v6.8h.5c0,0,.2,0,.3.1q0,.1,0,.2c0,.1,0,.2,0,.2s-.2.1-.3.1h-2.1c0,0-.2,0-.3-.1s0-.1,0-.2,0-.2,0-.2c0-.1.2-.1.3-.1h1.1v-6.8h0l-2.2,5Z"/>
    <path class="cls-23" d="M91.7,450.2v-6.8h-.5c0,0-.2,0-.3-.1q0-.1,0-.2c0-.1,0-.2,0-.2,0-.1.2-.1.3-.1h3.1c.5,0,.9.1,1.3.3s.7.4.9.7c.4.4.6.9.8,1.4,0,.4.2.8.2,1.2v.8c0,.6,0,1.2-.4,1.7s-.7,1-1.3,1.4c-.5.3-1,.5-1.6.5h-3.1c0,0-.2,0-.3-.1s0-.1,0-.2,0-.2,0-.2c0-.1.2-.1.3-.1h.6ZM92.2,450.2h2.1c.5,0,.9-.2,1.4-.5s.7-.7,1-1.1c.2-.4.3-.9.3-1.3v-1c0-.4,0-.7-.2-1-.2-.4-.4-.8-.7-1.2-.2-.2-.4-.4-.7-.5-.3-.2-.7-.3-1-.3h-2.1v6.9h-.1Z"/>
  </g>
  <g class="cls-33">
    <path class="cls-9" d="M111,442.8v9.2h1.4c0,0,.2,0,.3.1q0,.1,0,.2c0,.1,0,.2,0,.2,0,.1-.2.1-.3.1h-2v-10.3h2c0,0,.2,0,.3.1s0,.1,0,.2,0,.2,0,.2-.2.1-.3.1h-1.4Z"/>
  </g>
  <g class="cls-33">
    <path class="cls-10" d="M117.7,442.2h1.5l-2,3.3c0,.2-.2.3-.4.3s-.2,0-.2-.1,0-.1,0-.2,0-.1,0-.2l1.1-3.1ZM120.6,442.2h1.5l-2,3.3c0,.2-.2.3-.4.3s-.2,0-.3-.1,0-.1,0-.2,0-.1,0-.2l1.2-3.1Z"/>
    <path class="cls-10" d="M130.1,441.8l-4.6,9.9c0,.2-.2.3-.3.3s0,0-.2-.1,0-.1,0-.2,0-.1,0-.2l4.6-9.9c.1-.1.1-.2.1-.2h.2q.1,0,.2.1t.1.2c0,0-.1,0-.1.1Z"/>
    <path class="cls-10" d="M134,442.2v3.5c.4-.4.7-.7,1-.8.3-.2.7-.2,1.1-.2s.8.1,1.1.2c.3.2.6.4.8.7.2.3.3.7.3,1v3.6h.6c.1,0,.2,0,.3.1s.1.1.1.2,0,.2-.1.2-.2.1-.3.1h-1.9c-.1,0-.2,0-.3-.1s-.1-.1-.1-.2,0-.2.1-.2c.1-.1.2-.1.3-.1h.6v-3.5c0-.4-.1-.8-.4-1s-.7-.4-1.2-.4-.8.1-1.1.3c-.2.1-.6.5-1.1,1v3.6h.6c.1,0,.2,0,.3.1s.1.1.1.2,0,.2-.1.2-.2.1-.3.1h-1.9c-.1,0-.2,0-.3-.1s-.1-.1-.1-.2,0-.2.1-.2c.1-.1.2-.1.3-.1h.6v-7.4h-.8c-.1,0-.2,0-.3-.1s-.1-.1-.1-.2,0-.2.1-.2.2-.1.3-.1h1.7Z"/>
    <path class="cls-10" d="M147.4,448h-5.9c.1.7.4,1.3.9,1.8s1.2.7,1.9.7.9-.1,1.3-.2.9-.3,1.1-.6c.1-.1.2-.1.2-.1q.1,0,.2.1t.1.2c0,.1,0,.2-.1.2-.2.2-.6.4-1.2.6-.6.2-1.1.3-1.7.3-1,0-1.8-.3-2.5-1-.7-.6-1-1.4-1-2.3s.3-1.5.9-2.1,1.4-.9,2.3-.9,1.7.3,2.3.9c.9.6,1.2,1.4,1.2,2.4ZM146.9,447.4c-.1-.6-.4-1.1-.9-1.5s-1.1-.6-1.7-.6-1.2.2-1.7.6-.8.9-.9,1.6h5.2Z"/>
    <path class="cls-10" d="M153,442.2v8h2.3c.1,0,.2,0,.3.1s.1.1.1.2,0,.2-.1.2-.2.1-.3.1h-5.1c-.1,0-.2,0-.3-.1s-.1-.1-.1-.2,0-.2.1-.2c.1-.1.2-.1.3-.1h2.3v-7.4h-1.7c-.1,0-.2,0-.3-.1s-.1-.1-.1-.2,0-.2.1-.2.2-.1.3-.1h2.2Z"/>
    <path class="cls-10" d="M161.4,442.2v8h2.3c.1,0,.2,0,.3.1s.1.1.1.2,0,.2-.1.2-.2.1-.3.1h-5.1c-.1,0-.2,0-.3-.1s-.1-.1-.1-.2,0-.2.1-.2c.1-.1.2-.1.3-.1h2.3v-7.4h-1.7c-.1,0-.2,0-.3-.1s-.1-.1-.1-.2,0-.2.1-.2.2-.1.3-.1h2.2Z"/>
    <path class="cls-10" d="M172.7,447.9c0,.9-.3,1.6-.9,2.2s-1.4.9-2.3.9-1.7-.3-2.3-.9-.9-1.4-.9-2.2.3-1.6.9-2.2c.6-.6,1.4-.9,2.3-.9s1.6.3,2.3.9.9,1.3.9,2.2ZM172.2,447.9c0-.7-.3-1.3-.8-1.8s-1.1-.8-1.9-.8-1.4.3-1.9.8-.8,1.1-.8,1.8.3,1.3.8,1.8,1.1.8,1.9.8,1.4-.3,1.9-.8c.5-.5.8-1.1.8-1.8Z"/>
    <path class="cls-10" d="M180.5,441.8l-4.6,9.9c-.1.2-.2.3-.3.3s-.1,0-.2-.1q-.1-.1-.1-.2t.1-.2l4.6-9.9c.1-.1.1-.2.1-.2h.2q.1,0,.2.1.1.1.1.2c0,0,0,0-.1.1Z"/>
    <path class="cls-10" d="M188,450.8v-.8c-.8.7-1.7,1.1-2.7,1.1s-1.2-.2-1.6-.5c-.4-.3-.6-.8-.6-1.3s.3-1,.8-1.5,1.3-.6,2.2-.6.6,0,.9.1c.3,0,.6.1,1,.2v-.9c0-.3-.1-.6-.4-.8s-.7-.3-1.3-.3-1.1.1-1.9.4c-.1,0-.2.1-.3.1s-.1,0-.2-.1-.1-.1-.1-.2,0-.1.1-.2.3-.2.8-.3c.7-.2,1.2-.3,1.6-.3.7,0,1.3.2,1.7.5.4.4.6.8.6,1.2v3.8h.8c.1,0,.2,0,.3.1s.1.1.1.2,0,.2-.1.2-.2.1-.3.1h-1.4v-.2ZM188,448c-.3-.1-.6-.1-.9-.2s-.6-.1-1-.1c-.8,0-1.5.2-2,.5-.4.3-.5.6-.5,1s.1.6.4.9.7.4,1.2.4,1-.1,1.4-.3c.4-.2.9-.5,1.3-.9v-1.3h.1Z"/>
    <path class="cls-10" d="M196.7,446v-1.1h1.3c.1,0,.2,0,.3.1s.1.1.1.2,0,.2-.1.2-.2.1-.3.1h-.8v5.7c0,.4-.1.7-.2,1-.1.2-.3.4-.5.6s-.5.4-.7.5-.5.1-.8.1h-1.6c-.1,0-.2,0-.3-.1s-.1-.1-.1-.2,0-.2.1-.2.2-.1.3-.1h1.6c.3,0,.6-.1.9-.3s.5-.4.7-.8.2-.4.2-.7v-1.7c-.6.8-1.4,1.3-2.4,1.3s-1.5-.3-2-.9c-.6-.6-.9-1.3-.9-2.1s.3-1.5.9-2.1,1.3-.9,2-.9c.9.1,1.6.5,2.3,1.4ZM196.7,447.7c0-.7-.2-1.2-.7-1.7s-1-.7-1.7-.7-1.2.2-1.7.7-.7,1-.7,1.7.2,1.2.7,1.7,1,.7,1.7.7,1.2-.2,1.7-.7c.4-.5.7-1,.7-1.7Z"/>
    <path class="cls-10" d="M204.8,450.8v-.8c-.8.7-1.7,1.1-2.7,1.1s-1.2-.2-1.6-.5c-.4-.3-.6-.8-.6-1.3s.3-1,.8-1.5,1.3-.6,2.2-.6.6,0,.9.1c.3,0,.6.1,1,.2v-.9c0-.3-.1-.6-.4-.8s-.7-.3-1.3-.3-1.1.1-1.9.4c-.1,0-.2.1-.3.1s-.1,0-.2-.1-.1-.1-.1-.2,0-.1.1-.2.3-.2.8-.3c.7-.2,1.2-.3,1.6-.3.7,0,1.3.2,1.7.5.4.4.6.8.6,1.2v3.8h.8c.1,0,.2,0,.3.1s.1.1.1.2,0,.2-.1.2-.2.1-.3.1h-1.4v-.2ZM204.8,448c-.3-.1-.6-.1-.9-.2s-.6-.1-1-.1c-.8,0-1.5.2-2,.5-.4.3-.5.6-.5,1s.1.6.4.9.7.4,1.2.4,1-.1,1.4-.3c.4-.2.9-.5,1.3-.9v-1.3h.1Z"/>
    <path class="cls-10" d="M211.8,444.9v5.3h2.3c.1,0,.2,0,.3.1s.1.1.1.2,0,.2-.1.2-.2.1-.3.1h-5.1c-.1,0-.2,0-.3-.1s-.1-.1-.1-.2,0-.2.1-.2c.1-.1.2-.1.3-.1h2.3v-4.8h-1.7c-.1,0-.2,0-.3-.1s-.1-.1-.1-.2,0-.2.1-.2.2-.1.3-.1h2.2ZM211.8,442v1.5h-.8v-1.5h.8Z"/>
    <path class="cls-10" d="M218.1,444.9v.9c.4-.4.8-.7,1.1-.8s.7-.2,1.1-.2.8.1,1.2.3c.3.1.5.4.7.7.2.3.3.6.3,1v3.6h.5c.1,0,.2,0,.3.1s.1.1.1.2,0,.2-.1.2-.2.1-.3.1h-1.5c-.1,0-.2,0-.3-.1s-.1-.1-.1-.2,0-.2.1-.2c.1-.1.2-.1.3-.1h.5v-3.5c0-.4-.1-.7-.4-1-.3-.3-.7-.4-1.2-.4s-.7.1-1,.2c-.3.2-.7.5-1.2,1.1v3.6h.6c.1,0,.2,0,.3.1s.1.1.1.2,0,.2-.1.2-.2.1-.3.1h-1.9c-.1,0-.2,0-.3-.1s-.1-.1-.1-.2,0-.2.1-.2c.1-.1.2-.1.3-.1h.6v-4.8h-.5c-.1,0-.2,0-.3-.1s-.1-.1-.1-.2,0-.2.1-.2.2-.1.3-.1h1.1Z"/>
    <path class="cls-10" d="M226.9,442.2h1.5l-2,3.3c-.1.2-.2.3-.4.3s-.2,0-.2-.1-.1-.1-.1-.2,0-.1.1-.2l1.1-3.1ZM229.8,442.2h1.5l-2,3.3c-.1.2-.2.3-.4.3s-.2,0-.3-.1-.1-.1-.1-.2,0-.1.1-.2l1.2-3.1Z"/>
  </g>
  <g class="cls-33">
    <path class="cls-9" d="M236.5,452v-9.2h-1.4c-.1,0-.2,0-.3-.1s-.1-.1-.1-.2,0-.2.1-.2.2-.1.3-.1h2v10.3h-2c-.1,0-.2,0-.3-.1s-.1-.1-.1-.2,0-.2.1-.2.2-.1.3-.1h1.4Z"/>
  </g>
  <path id="path3" class="cls-28" d="M188.9,33l-1.3-.8v-.4l1.1-1c.1-.1.2-.3.1-.4,0-.1-.1-.3-.3-.3l-1.4-.5c0-.1-.1-.2-.1-.4l.9-1.2c.1-.1.1-.3.1-.4-.1-.1-.2-.2-.3-.3l-1.5-.2c-.1-.1-.1-.2-.2-.3l.6-1.4c.1-.1.1-.3,0-.4s-.2-.2-.4-.2h-1.5c-.1,0-.2-.1-.2-.2l.3-1.5c0-.1,0-.3-.1-.4s-.3-.1-.4-.1l-1.5.3-.3-.2v-1.5c.1-.2,0-.4-.3-.5h-.2l-1.4.6-.3-.2-.2-1.5c0-.2-.3-.4-.5-.4s-.1,0-.2.1l-1.2.9h-.4c0-.1-.6-1.5-.6-1.5-.1-.1-.2-.3-.3-.3-.2,0-.3,0-.4.1l-1,1.1h-.4l-.8-1.3c-.1-.1-.2-.2-.4-.2s-.3.1-.4.2l-.8,1.3h-.4l-1-1.1c-.2-.2-.4-.2-.6,0-.1,0-.1.1-.1.2l-.5,1.4h-.4c0,.1-1.2-.8-1.2-.8-.1-.1-.3-.1-.4,0-.1.1-.2.2-.3.3l-.2,1.5-.3.2-1.4-.6c-.1-.1-.3-.1-.4,0-.1.1-.2.2-.2.4v1.5l-.3.2-1.5-.3c-.1,0-.3,0-.4.1-.1.1-.2.3-.1.4l.3,1.5c-.1.1-.1.2-.2.3h-1.5c-.2-.1-.3,0-.4.1-.1.1-.1.3,0,.4l.6,1.4c-.1.1-.1.2-.2.3l-1.5.2c-.1,0-.3.1-.3.3-.1.1-.1.3,0,.4l.9,1.2c0,.1-.1.2-.1.4l-1.4.5c-.1.1-.2.2-.3.3,0,.2,0,.3.1.4l1.1,1v.4l-1.3.8c-.1,0-.2.2-.2.4s.1.3.2.4l1.3.8v.5l-1.1,1c-.1,0-.2.3-.1.4,0,0,.1.3.3.3l1.4.5c0,0,.1.2.1.4l-.9,1.2c-.1,0-.1.3,0,.4.1,0,.2.2.3.3l1.5.2c.1,0,.1.2.2.3l-.6,1.4c-.1,0-.1.3,0,.4.1,0,.2.2.4.2h1.5c0,0,.2.2.2.2l-.4,1.5c0,0,0,.3.1.4.1,0,.3,0,.4,0l1.5-.3.3.2v1.5c0,.2.1.3.2.4.1,0,.3,0,.4,0l1.4-.6c.1,0,.2,0,.3.2l.2,1.5c0,0,.1.3.3.3.1,0,.3,0,.4,0l1.2-.9h.4c0,0,.5,1.5.5,1.5.1,0,.2.2.3.3.2,0,.3,0,.4,0l1-1.1h.4l.8,1.3c.1.2.4.3.6.2.1,0,.1,0,.2-.2l.8-1.3h.4l1,1.1c.1,0,.3.2.4,0,.1,0,.3,0,.3-.3l.5-1.4c.1,0,.2,0,.4,0l1.2.9c.1,0,.3,0,.4,0,.1,0,.2-.2.3-.3l.2-1.5c.1,0,.2,0,.3-.2l1.4.6c.1,0,.3,0,.4,0,.1,0,.2-.2.2-.4v-1.5c-.1,0,.2-.2.2-.2l1.5.3c.1,0,.3,0,.4,0,.1,0,.2-.3.1-.4l-.3-1.5.2-.3h1.5c.2,0,.3,0,.4-.1.1,0,.1-.3,0-.4l-.6-1.4.2-.3,1.5-.2c.1,0,.3,0,.3-.3.1,0,.1-.3,0-.4l-.9-1.2c0,0,.1-.2.1-.4l1.4-.5c.1,0,.3-.2.3-.3s0-.3-.1-.4l-1.1-1v-.4l1.3-.8c.1,0,.2-.2.2-.4.1,0,0-.2-.1-.4h0ZM180.3,43.7c-.5,0-.8-.6-.7-1.1s.6-.8,1.1-.7.8.6.7,1.1c-.2.4-.6.7-1.1.7ZM179.9,40.7c-.4,0-.9.2-1,.6h0l-.4,2.1c-2.9,1.3-6.3,1.3-9.3,0l-.5-2.1c-.1-.4-.5-.7-1-.6h0l-1.9.4c-.4-.4-.7-.7-1-1.1h9.2c.1,0,.2,0,.2,0v-3.3c0,0-.1,0-.2,0h-2.7v-2h2.9c.9,0,1.7.7,1.8,1.6.1.5.4,1.9.5,2.4s.9,1.6,1.6,1.6h4.7c-.3.4-.6.8-1,1.2l-1.9-.6h0ZM167.3,43.6c-.5,0-.9-.3-1-.8,0-.4.2-.8.6-1,.5,0,1,.2,1.1.7,0,.5-.2,1-.7,1.1h0ZM163.8,29.6c.2.5,0,1-.5,1.2s-1,0-1.2-.5,0-1,.5-1.2,1,0,1.2.5h0ZM162.8,32.1l1.9-.9c.4-.2.6-.7.4-1.1l-.4-.9h1.6v7.1h-3.2c-.3-1-.4-2-.4-3,0-.4,0-.8,0-1.2h0ZM171.3,31.4v-2.1h3.8c.2,0,1.4.2,1.4,1.1s-.9,1-1.6,1h-3.6ZM185,33.3v.8h-1.1c-.1,0-.2,0-.2.2v.5c0,1.2-.7,1.5-1.3,1.6s-1.2-.2-1.3-.6c-.1-1.2-.8-2.4-1.8-3.1,1.1-.7,2.3-1.8,2.3-3.1s-.7-2.3-1.8-2.9c-.7-.5-1.5-.7-2.4-.8h-11.8c1.6-1.8,3.8-3,6.2-3.5l1.4,1.5c.3.3.8.3,1.2,0h0l1.6-1.5c3.2.6,6,2.6,7.6,5.4l-1.1,2.4c-.2.4,0,.9.4,1.1l2,.9c.1.4.1.7.1,1.1h0ZM173.2,21.2c.4-.4.9-.4,1.3,0,.4.4.4.9,0,1.3s-.9.4-1.3,0h0c-.4-.4-.4-1,0-1.3h0ZM183.8,29.7c.2-.5.7-.7,1.2-.5s.7.7.5,1.2-.7.7-1.2.5h0c-.5-.2-.7-.8-.5-1.2h0Z"/>
  <path class="cls-16" d="M121.2,48.1v-29.5h29.5v29.5c-.2,0-.4,0-.5,0h-28.5c-.2,0-.3,0-.5,0Z"/>
  <path class="cls-26" d="M121.2,48.1h29.5v-29.5h.1v29.5h-29.2c-.1.1-.3.2-.4,0Z"/>
  <path class="cls-21" d="M123.2,35.2c.5,0,.6-.3.5-.7v-2.7c0-.3,0-.5-.4-.5s-.2-.2-.2-.4h4v1.3c-.2,0-.3,0-.4,0,0-.5-.6-.8-1-.7h-1.1v1.6c.9.2,1,0,1.2-.7,0,0,.2,0,.3,0,0,.6,0,1.3,0,1.9-.2,0-.3,0-.4,0q-.2-.7-1-.6v1.3c0,.3.2.3.4.3s.4,0,.2.4h-2v-.3Z"/>
  <path class="cls-21" d="M147.1,35.5h-1.7c-.1-.2-.1-.3.1-.3s.4-.2.4-.5v-1.4c0-.3,0-.5-.3-.5s-.2-.2-.1-.3h1.3v.5c.3-.2.6-.5.9-.6.9-.2,1.4,0,1.4,1v1.3c0,.3,0,.5.3.5s.2.2.1.3h-1.6c-.1,0-.1-.3,0-.3.4,0,.3-.4.3-.7v-1.2c0-.4-.3-.7-.8-.5-.4.2-.7.6-.7,1v.7c0,.2,0,.5.3.5.1.2.1.3.1.5Z"/>
  <path class="cls-21" d="M143.4,33.5c0-.9-.6-1.2-1.4-.7,0,0,.1,0,.2.3s0,.4-.3.5c-.2,0-.4,0-.5-.2h0c-.1-.4.1-.7.4-.8.6-.3,1.3-.4,1.9,0,.4.2.7.6.6,1v1.3c0,0,0,.3.1.4.4,0,.1-.4.3-.6.3,0,.2.3.2.4,0,.3-.2.5-.4.5-.4,0-.6,0-.9-.5-.5.4-1.1.6-1.7.5-.4,0-.6-.3-.7-.7-.1-.4.2-.8.6-.9s.8-.2,1.1-.3c.2,0,.4,0,.5-.1Z"/>
  <path class="cls-19" d="M129.2,32.3c1.1,0,1.6.5,1.6,1.7.1.8-.4,1.5-1.3,1.7h-.4c-.8,0-1.6-.5-1.7-1.3v-.4c0-.9.5-1.6,1.4-1.7h.4Z"/>
  <path class="cls-30" d="M133.9,32.8c-.4-.2-.9,0-1.1.4,0,0-.1,0-.1.2-.1.5-.1,1-.1,1.5s.1.3.3.3.3,0,.2.3h-1.9c-.1-.2-.1-.3.1-.3s.3-.2.3-.4v-1.3c0-.3.1-.6-.4-.7-.1,0-.1-.2-.1-.3h1.3c.1,0,0,.3.1.5.2-.4.6-.6,1-.5.4,0,.7.3.7.7s-.1.5-.4.5c-.2,0-.4,0-.5-.2,0-.4.3-.5.6-.7Z"/>
  <path class="cls-21" d="M138,32.9c-.2-.2-.6,0-.4-.5h1.3c.1,0,0,.3.1.4s.1,0,.1,0c.2-.3.6-.4,1-.3.3,0,.5.3.5.6.1.3,0,.5-.2.7-.2,0-.4,0-.5,0h0c-.1-.3-.1-.5.3-.6-.4-.2-.9,0-1.1.4,0,0-.1.2-.1.3v1.3c0,.2.2.3.4.3s.3,0,.2.4h-1.6c-.2,0-.3,0-.2-.3s.3,0,.4-.2l-.2-2.3Z"/>
  <path class="cls-21" d="M135.4,32.9c-.2-.2-.4,0-.5-.2s-.1-.3.1-.3c.6,0,.7-.5.7-.9.2-.1.3-.1.5-.1.1.3,0,.6.1.9h.7c.1,0,.1.2,0,.4h-.7v2.2c0,.2.1.2.4.2.2,0-.1-.5.3-.5.2.6.1.8-.4,1-.6.2-1.1,0-1.1-.6-.1-.8-.1-1.5-.1-2.1Z"/>
  <path class="cls-16" d="M143.4,33.8c.2.8-.2,1.3-.9,1.3s-.5,0-.6-.4c-.1-.3.1-.5.3-.7.4,0,.8,0,1.2-.2Z"/>
  <path class="cls-16" d="M130,33.9c0,.2,0,.5-.1.7-.1.5-.4.6-.8.6s-.7-.3-.8-.7-.1-.8,0-1.2.4-.7.8-.7.7.2.8.6c.1.3.1.5.1.7Z"/>
</svg>