<?xml version="1.0" encoding="UTF-8"?>
<svg id="Ebene_1" data-name="Ebene 1" xmlns="http://www.w3.org/2000/svg" xmlns:xlink="http://www.w3.org/1999/xlink" version="1.1" viewBox="0 0 1099.5 416.9">
  <defs>
    <style>
      .cls-1, .cls-2, .cls-3, .cls-4, .cls-5, .cls-6, .cls-7, .cls-8, .cls-9, .cls-10 {
        fill: none;
      }

      .cls-1, .cls-2, .cls-4, .cls-5, .cls-6, .cls-7, .cls-8, .cls-9, .cls-11, .cls-10 {
        stroke-width: 2px;
      }

      .cls-1, .cls-2, .cls-4, .cls-5, .cls-6, .cls-8, .cls-9 {
        stroke-miterlimit: 10;
      }

      .cls-1, .cls-5 {
        stroke: #fff;
      }

      .cls-12 {
        fill: url(#Unbenannter_Verlauf);
      }

      .cls-12, .cls-3, .cls-13, .cls-14, .cls-15, .cls-16, .cls-17, .cls-18, .cls-19, .cls-20, .cls-21 {
        stroke-width: 0px;
      }

      .cls-2, .cls-6, .cls-7, .cls-9, .cls-11 {
        stroke: #fc0;
      }

      .cls-22 {
        clip-path: url(#clippath);
      }

      .cls-4, .cls-5 {
        stroke-dasharray: 0 0 2 2;
      }

      .cls-4, .cls-8, .cls-10 {
        stroke: #39f;
      }

      .cls-13 {
        fill: #fc0;
      }

      .cls-23 {
        clip-path: url(#clippath-1);
      }

      .cls-24 {
        clip-path: url(#clippath-4);
      }

      .cls-25 {
        clip-path: url(#clippath-3);
      }

      .cls-26 {
        clip-path: url(#clippath-2);
      }

      .cls-27 {
        clip-path: url(#clippath-5);
      }

      .cls-14 {
        fill: #39f;
      }

      .cls-6 {
        stroke-dasharray: 0 0 2 2;
      }

      .cls-7, .cls-11, .cls-10 {
        stroke-linecap: round;
        stroke-linejoin: round;
      }

      .cls-15 {
        fill: url(#Unbenannter_Verlauf_5);
      }

      .cls-16 {
        fill: url(#Unbenannter_Verlauf_4);
      }

      .cls-17 {
        fill: url(#Unbenannter_Verlauf_3);
      }

      .cls-18 {
        fill: url(#Unbenannter_Verlauf_2);
      }

      .cls-9 {
        stroke-dasharray: 0 0 2 2;
      }

      .cls-19 {
        fill: #fdfeff;
      }

      .cls-28 {
        isolation: isolate;
      }

      .cls-11, .cls-20 {
        fill: #fff;
      }

      .cls-21 {
        fill: #ffd138;
      }
    </style>
    <linearGradient id="Unbenannter_Verlauf" data-name="Unbenannter Verlauf" x1="529.5" y1="995.1" x2="759.9" y2="995.1" gradientTransform="translate(0 -664)" gradientUnits="userSpaceOnUse">
      <stop offset="0" stop-color="#906"/>
      <stop offset=".2" stop-color="#780066"/>
      <stop offset=".4" stop-color="#5a0066"/>
      <stop offset=".6" stop-color="#406"/>
      <stop offset=".8" stop-color="#370066"/>
      <stop offset="1" stop-color="#306"/>
    </linearGradient>
    <linearGradient id="Unbenannter_Verlauf_2" data-name="Unbenannter Verlauf 2" x1="522.5" y1="1002.6" x2="752.9" y2="1002.6" gradientTransform="translate(0 -664)" gradientUnits="userSpaceOnUse">
      <stop offset="0" stop-color="#906"/>
      <stop offset=".2" stop-color="#780066"/>
      <stop offset=".4" stop-color="#5a0066"/>
      <stop offset=".6" stop-color="#406"/>
      <stop offset=".8" stop-color="#370066"/>
      <stop offset="1" stop-color="#306"/>
    </linearGradient>
    <linearGradient id="Unbenannter_Verlauf_3" data-name="Unbenannter Verlauf 3" x1="514" y1="728.1" x2="744.4" y2="728.1" gradientTransform="translate(0 -664)" gradientUnits="userSpaceOnUse">
      <stop offset="0" stop-color="#906"/>
      <stop offset=".2" stop-color="#780066"/>
      <stop offset=".4" stop-color="#5a0066"/>
      <stop offset=".6" stop-color="#406"/>
      <stop offset=".8" stop-color="#370066"/>
      <stop offset="1" stop-color="#306"/>
    </linearGradient>
    <clipPath id="clippath">
      <rect class="cls-3" x="610.2" y="86.6" width="36.3" height="7.1"/>
    </clipPath>
    <clipPath id="clippath-1">
      <rect class="cls-3" x="610.2" y="86.6" width="36.3" height="7.1"/>
    </clipPath>
    <linearGradient id="Unbenannter_Verlauf_4" data-name="Unbenannter Verlauf 4" x1="514" y1="838.8" x2="744.4" y2="838.8" gradientTransform="translate(0 -664)" gradientUnits="userSpaceOnUse">
      <stop offset="0" stop-color="#906"/>
      <stop offset=".2" stop-color="#780066"/>
      <stop offset=".4" stop-color="#5a0066"/>
      <stop offset=".6" stop-color="#406"/>
      <stop offset=".8" stop-color="#370066"/>
      <stop offset="1" stop-color="#306"/>
    </linearGradient>
    <clipPath id="clippath-2">
      <rect class="cls-3" x="610.2" y="197.3" width="36.3" height="7.1"/>
    </clipPath>
    <clipPath id="clippath-3">
      <rect class="cls-3" x="610.2" y="197.3" width="36.3" height="7.1"/>
    </clipPath>
    <linearGradient id="Unbenannter_Verlauf_5" data-name="Unbenannter Verlauf 5" x1="514" y1="1010.5" x2="744.4" y2="1010.5" gradientTransform="translate(0 -664)" gradientUnits="userSpaceOnUse">
      <stop offset="0" stop-color="#906"/>
      <stop offset=".2" stop-color="#780066"/>
      <stop offset=".4" stop-color="#5a0066"/>
      <stop offset=".6" stop-color="#406"/>
      <stop offset=".8" stop-color="#370066"/>
      <stop offset="1" stop-color="#306"/>
    </linearGradient>
    <clipPath id="clippath-4">
      <rect class="cls-3" x="610.2" y="368.9" width="36.3" height="7.1"/>
    </clipPath>
    <clipPath id="clippath-5">
      <rect class="cls-3" x="610.2" y="368.9" width="36.3" height="7.1"/>
    </clipPath>
  </defs>
  <path class="cls-12" d="M534.5,293.4h220.4c2.8,0,5,2.2,5,5v65.5c0,2.8-2.2,5-5,5h-220.4c-2.8,0-5-2.2-5-5v-65.5c0-2.8,2.2-5,5-5Z"/>
  <path class="cls-2" d="M534.5,293.4h220.4c2.8,0,5,2.2,5,5v65.5c0,2.8-2.2,5-5,5h-220.4c-2.8,0-5-2.2-5-5v-65.5c0-2.8,2.2-5,5-5Z"/>
  <path class="cls-18" d="M527.5,300.9h220.4c2.8,0,5,2.2,5,5v65.5c0,2.8-2.2,5-5,5h-220.4c-2.8,0-5-2.2-5-5v-65.5c0-2.8,2.2-5,5-5Z"/>
  <path class="cls-2" d="M527.5,300.9h220.4c2.8,0,5,2.2,5,5v65.5c0,2.8-2.2,5-5,5h-220.4c-2.8,0-5-2.2-5-5v-65.5c0-2.8,2.2-5,5-5Z"/>
  <path class="cls-2" d="M25.1,266.1h1046.9c2.8,0,5,2.2,5,5v124.2c0,2.8-2.2,5-5,5H25.1c-2.8,0-5-2.2-5-5v-124.2c0-2.8,2.3-5,5-5Z"/>
  <path class="cls-17" d="M519,26.3h220.4c2.8,0,5,2.2,5,5v65.5c0,2.8-2.2,5-5,5h-220.4c-2.8,0-5-2.2-5-5V31.3c0-2.8,2.3-5,5-5Z"/>
  <path class="cls-2" d="M519,26.3h220.4c2.8,0,5,2.2,5,5v65.5c0,2.8-2.2,5-5,5h-220.4c-2.8,0-5-2.2-5-5V31.3c0-2.8,2.3-5,5-5Z"/>
  <path class="cls-7" d="M542.5,48.6h172c2.8,0,5,2.2,5,5v17.2c0,2.8-2.2,5-5,5h-172c-2.8,0-5-2.2-5-5v-17.2c0-2.8,2.2-5,5-5Z"/>
  <g class="cls-28">
    <path class="cls-13" d="M561.5,60.6h-1.2l-.2-1c-.2-.2-.3-.3-.6-.4-.2,0-.5,0-.8,0-.7,0-1.2.2-1.6.7s-.6,1.1-.6,1.9v.3c0,.8.2,1.4.5,1.9s.9.7,1.5.7.6,0,.8,0c.3,0,.5-.2.6-.4l.2-1h1.2v1.5c-.3.4-.7.7-1.2.9-.5.2-1,.3-1.6.3-1,0-1.9-.4-2.6-1.1-.7-.7-1-1.7-1-2.8v-.3c0-1.1.3-2.1,1-2.8s1.5-1.1,2.6-1.1,1.2,0,1.6.3c.5.2.9.5,1.2.9v1.7h.2Z"/>
    <path class="cls-13" d="M566.3,65c-.2.3-.4.5-.7.6s-.6.2-.9.2c-.6,0-1.1-.2-1.4-.6-.3-.4-.5-1-.5-1.8v-2.4l-.6-.2v-.9h2.2v3.5c0,.4,0,.7.2.9s.4.3.6.3.5,0,.6,0c.2,0,.3-.2.4-.3v-3.2l-.7-.2v-.9h2.3v4.7l.7.2v.9h-2.1v-.7Z"/>
    <path class="cls-13" d="M573.9,61.9h-1.1l-.2-.7c0,0-.2-.2-.4-.2-.2,0-.3,0-.5,0-.3,0-.5,0-.7.2-.2,0-.2.3-.2.5s0,.3.2.4c.2,0,.5.2.9.3.7,0,1.3.4,1.6.6.3.3.5.7.5,1.1s-.2,1-.7,1.3-1,.5-1.8.5-.9,0-1.2-.2c-.4,0-.7-.3-1-.6v-1.3h1.1l.2.8c0,0,.2,0,.4.2.2,0,.3,0,.5,0,.3,0,.6,0,.7-.2.2,0,.2-.3.2-.5s0-.3-.3-.4c-.2,0-.5-.2-.9-.3-.7,0-1.2-.3-1.5-.6s-.5-.6-.5-1.1.2-.9.6-1.3c.4-.4,1-.5,1.7-.5s.9,0,1.3.2c.4,0,.7.3.9.5l.2,1.3Z"/>
  </g>
  <g class="cls-28">
    <path class="cls-13" d="M577.1,58.5v1.4h1v1.1h-1v3c0,.2,0,.4,0,.5s.2,0,.4,0h.6v1.1c-.1,0-.2,0-.4,0h-.6c-.5,0-1,0-1.2-.4-.3-.3-.4-.8-.4-1.4v-3h-.9v-1.1h.9v-1.4s1.5,0,1.5,0Z"/>
  </g>
  <g class="cls-28">
    <path class="cls-13" d="M578.7,62.8c0-.9.2-1.6.7-2.1.5-.6,1.2-.8,2-.8s1.5.3,2,.8.7,1.3.7,2.1h0c0,1-.2,1.7-.7,2.2s-1.2.8-2,.8-1.5-.3-2-.8-.7-1.3-.7-2.1h0ZM580.3,62.9c0,.5,0,1,.3,1.3s.5.5.9.5.7-.2.9-.5c.2-.3.3-.7.3-1.3h0c0-.6,0-1-.3-1.4-.2-.3-.5-.5-.9-.5s-.7.2-.9.5-.3.7-.3,1.3h0Z"/>
    <path class="cls-13" d="M584.7,60.9v-.9h2.3v.8c.3-.3.5-.5.8-.6s.6-.2,1-.2.7,0,1,.2c.3.2.5.4.6.7.2-.3.4-.6.7-.7.3-.2.6-.3,1-.3.6,0,1,.2,1.4.6s.5,1,.5,1.8v2.4l.8.2v.9h-3v-.9l.7-.2v-2.4c0-.4,0-.7-.2-.9,0-.2-.4-.3-.6-.3s-.4,0-.6,0-.3.2-.4.4v.2h0v2.8l.6.2v.9h-2.8v-.9l.6-.2v-2.4c0-.4,0-.7-.2-.9,0-.2-.4-.3-.6-.3s-.4,0-.6,0c-.2,0-.3.2-.4.3v3.1l.7.2v.9h-3v-.9l.8-.2v-3.5h-1.1Z"/>
    <path class="cls-13" d="M597.6,60.9v-.9h2.3v.8c.3-.3.5-.5.8-.6.3-.2.6-.2,1-.2s.7,0,1,.2c.3.2.5.4.6.7.2-.3.4-.6.7-.7.3-.2.6-.3,1-.3.6,0,1,.2,1.4.6.3.4.5,1,.5,1.8v2.4l.8.2v.9h-3v-.9l.7-.2v-2.4c0-.4,0-.7-.2-.9s-.4-.3-.6-.3-.4,0-.6,0c-.2,0-.3.2-.4.4v.2h0v2.8l.6.2v.9h-2.8v-.9l.6-.2v-2.4c0-.4,0-.7-.2-.9,0-.2-.4-.3-.6-.3s-.4,0-.6,0c-.2,0-.3.2-.4.3v3.1l.7.2v.9h-3v-.9l.8-.2v-3.5h-1.1Z"/>
    <path class="cls-13" d="M608,64.8l.8-.2v-3.6l-.8-.2v-.9h2.4v4.7l.8.2v.9h-3.2v-.9ZM610.3,58.5h-1.6v-1.2h1.6v1.2Z"/>
    <path class="cls-13" d="M614.3,64.7c.3,0,.5,0,.7-.2s.3-.4.3-.7h1.4c0,.6-.2,1.1-.7,1.5s-1,.6-1.7.6-1.5-.3-2-.8-.7-1.3-.7-2.1v-.2c0-.9.2-1.6.7-2.1s1.2-.8,2.1-.8.9,0,1.3.2c.4,0,.7.3.9.6v1.6h-1.3l-.3-.9c0,0-.2,0-.3-.2s-.2,0-.4,0c-.4,0-.8.2-.9.5s-.3.7-.3,1.2v.2c0,.5,0,.9.3,1.3.2.2.5.4.9.4Z"/>
  </g>
  <g class="cls-28">
    <path class="cls-13" d="M617.5,64.8l.8-.2v-3.6l-.8-.2v-.9h2.3v.8c.2-.3.4-.5.6-.7s.5-.3.7-.3h.5l-.2,1.4h-.6c-.2,0-.4,0-.6,0s-.3.2-.3.4v2.8l.8.2v.9h-3.1v-.7h-.1Z"/>
  </g>
  <g class="cls-28">
    <path class="cls-13" d="M621.9,62.8c0-.9.2-1.6.7-2.1.5-.6,1.2-.8,2-.8s1.5.3,2,.8c.5.6.7,1.3.7,2.1h0c0,1-.2,1.7-.7,2.2s-1.2.8-2,.8-1.5-.3-2-.8-.7-1.3-.7-2.1h0ZM623.5,62.9c0,.5,0,1,.3,1.3s.5.5.9.5.7-.2.9-.5c.2-.3.3-.7.3-1.3h0c0-.6,0-1-.3-1.4-.2-.3-.5-.5-.9-.5s-.7.2-.9.5-.3.7-.3,1.3h0Z"/>
    <path class="cls-13" d="M632.8,61.9h-1.1l-.2-.7c0,0-.2-.2-.4-.2-.2,0-.3,0-.5,0-.3,0-.5,0-.7.2-.2,0-.2.3-.2.5s0,.3.2.4c.2,0,.5.2.9.3.7,0,1.3.4,1.6.6.3.3.5.7.5,1.1s-.2,1-.7,1.3-1,.5-1.8.5-.9,0-1.2-.2c-.4,0-.7-.3-1-.6v-1.3h1.1l.2.8c0,0,.2,0,.4.2.2,0,.3,0,.5,0,.3,0,.6,0,.7-.2.2,0,.2-.3.2-.5s0-.3-.3-.4c-.2,0-.5-.2-.9-.3-.7,0-1.2-.3-1.5-.6s-.5-.6-.5-1.1.2-.9.6-1.3c.4-.4,1-.5,1.7-.5s.9,0,1.3.2c.4,0,.7.3.9.5l.2,1.3Z"/>
    <path class="cls-13" d="M636.5,65.9c-.8,0-1.5-.3-2-.8s-.8-1.2-.8-2v-.2c0-.9.2-1.6.7-2.1s1.1-.8,1.9-.8,1.4.2,1.8.7c.4.5.7,1.1.7,1.9v.9h-3.5c0,.4.2.7.4.9s.5.4.9.4.6,0,.9,0c.2,0,.5-.2.8-.3l.4,1c-.2.2-.6.3-.9.5-.4,0-.8,0-1.3,0ZM636.4,61c-.3,0-.5,0-.7.3s-.3.5-.3.9h1.9c0-.4,0-.7-.2-.9-.2-.2-.4-.3-.7-.3Z"/>
  </g>
  <g class="cls-28">
    <path class="cls-13" d="M639.7,64.8l.8-.2v-3.6l-.8-.2v-.9h2.3v.8c.2-.3.4-.5.6-.7s.5-.3.7-.3h.5l-.2,1.4h-.6c-.2,0-.4,0-.6,0s-.3.2-.3.4v2.8l.8.2v.9h-3.1v-.7h-.1Z"/>
  </g>
  <g class="cls-28">
    <path class="cls-13" d="M646.8,60.9h-.5c0,0,.8,2.7.8,2.7v.5h0v-.5c0,0,.8-2.6.8-2.6h-.6v-1h2.6v.9h-.5c0,0-1.7,4.9-1.7,4.9h-1.5l-1.7-4.8h-.5v-1h2.6v.9h.1Z"/>
    <path class="cls-13" d="M650.6,64.8l.8-.2v-3.6l-.8-.2v-.9h2.4v4.7l.8.2v.9h-3.1v-.9h-.1ZM652.9,58.5h-1.6v-1.2h1.6v1.2Z"/>
    <path class="cls-13" d="M656.9,64.7c.3,0,.5,0,.7-.2.2-.2.3-.4.3-.7h1.4c0,.6-.2,1.1-.7,1.5s-1,.6-1.7.6-1.5-.3-2-.8-.7-1.3-.7-2.1v-.2c0-.9.2-1.6.7-2.1.5-.6,1.2-.8,2.1-.8s.9,0,1.3.2c.4,0,.7.3.9.6v1.6h-1.3l-.3-.9c0,0-.2,0-.3-.2,0,0-.2,0-.4,0-.4,0-.8.2-.9.5-.2.3-.3.7-.3,1.2v.2c0,.5,0,.9.3,1.3.2.2.5.4.9.4Z"/>
    <path class="cls-13" d="M662.7,65.9c-.8,0-1.5-.3-2-.8s-.8-1.2-.8-2v-.2c0-.9.2-1.6.7-2.1s1.1-.8,1.9-.8,1.4.2,1.8.7c.4.5.6,1.1.6,1.9v.9h-3.5c0,.4.2.7.4.9s.5.4.9.4.6,0,.9,0c.2,0,.5-.2.8-.3l.4,1c-.2.2-.6.3-.9.5-.3,0-.7,0-1.2,0ZM662.6,61c-.3,0-.5,0-.7.3s-.3.5-.3.9h1.9c0-.4,0-.7-.2-.9-.2-.2-.4-.3-.7-.3Z"/>
    <path class="cls-13" d="M668.5,64.8l.8-.2v-3.6l-.8-.2v-.9h2.4v4.7l.8.2v.9h-3.1v-.9h-.1ZM670.8,58.5h-1.6v-1.2h1.6v1.2Z"/>
    <path class="cls-13" d="M671.9,60.9v-.9h2.3v.8c.3-.3.5-.5.8-.6s.6-.2,1-.2.7,0,1,.2.5.4.6.7c.2-.3.4-.6.7-.7.3-.2.6-.3,1-.3.6,0,1,.2,1.4.6s.5,1,.5,1.8v2.4l.8.2v.9h-3v-.9l.7-.2v-2.4c0-.4,0-.7-.2-.9,0-.2-.4-.3-.6-.3s-.4,0-.6,0-.3.2-.4.4v.2h0v2.8l.6.2v.9h-2.8v-.9l.6-.2v-2.4c0-.4,0-.7-.2-.9,0-.2-.4-.3-.6-.3s-.4,0-.6,0c-.2,0-.3.2-.4.3v3.1l.7.2v.9h-3v-.9l.8-.2v-3.5h-1.1Z"/>
    <path class="cls-13" d="M686,65.8c0,0,0-.2,0-.3s0-.2,0-.3c-.2.2-.4.4-.7.5s-.6.2-.9.2c-.6,0-1-.2-1.4-.5s-.5-.7-.5-1.3.2-1,.7-1.3,1.1-.4,1.9-.4h.8v-.6c0-.3,0-.5-.2-.6s-.4-.2-.7-.2-.3,0-.5,0-.3,0-.3,0v.6h-1.3v-1.3c.3-.2.6-.4,1-.5s.8-.2,1.2-.2c.7,0,1.3.2,1.8.5s.7.9.7,1.5v2.9h.5v1h-1.9ZM684.6,64.7c.2,0,.5,0,.6-.2.2,0,.3-.2.5-.4v-.9h-.8c-.3,0-.6,0-.8.2-.2.2-.3.3-.3.6s0,.4.2.5.4.2.6.2Z"/>
    <path class="cls-13" d="M688.4,62.9c0-.9.2-1.7.6-2.2.4-.6,1-.8,1.7-.8s.6,0,.9.2c.2,0,.5.4.6.6v-.7h1.5v5.6c0,.8-.2,1.4-.7,1.8-.5.5-1.1.7-2,.7s-.6,0-.9,0c-.3,0-.6-.2-.9-.3l.3-1.1c.3,0,.5.2.8.3s.5,0,.8,0,.7,0,.9-.3.3-.6.3-1v-.4c-.2.2-.4.4-.6.5-.2,0-.5.2-.8.2-.7,0-1.3-.3-1.7-.8s-.6-1.2-.6-2.1v-.2h-.2ZM690,63c0,.5,0,.9.3,1.2s.5.4.8.4.4,0,.6,0c.2,0,.3-.2.4-.4v-2.5c0-.2-.2-.3-.4-.4-.2,0-.4,0-.6,0-.4,0-.7.2-.8.5-.2.3-.3.8-.3,1.3h0Z"/>
    <path class="cls-13" d="M697.4,65.9c-.8,0-1.5-.3-2-.8s-.8-1.2-.8-2v-.2c0-.9.2-1.6.7-2.1s1.1-.8,1.9-.8,1.4.2,1.8.7c.4.5.7,1.1.7,1.9v.9h-3.5c0,.4.2.7.4.9s.5.4.9.4.6,0,.9,0c.2,0,.5-.2.8-.3l.4,1c-.2.2-.6.3-.9.5-.4,0-.8,0-1.3,0ZM697.2,61c-.3,0-.5,0-.7.3s-.3.5-.3.9h1.9c0-.4,0-.7-.2-.9-.1-.2-.3-.3-.7-.3Z"/>
  </g>
  <path class="cls-11" d="M620.5,15.5c4.6-4.5,12.1-4.4,16.6.2s4.4,12.1-.2,16.6c-4.6,4.5-12.1,4.4-16.6-.2-2.1-2.2-3.3-5.1-3.3-8.2s.8-5.1,2.4-7.1"/>
  <path class="cls-7" d="M628.8,29.6h-4.3c-.6,0-.8-.2-.8-.8v-6.5c0-.6.2-.8.8-.8h8.5c.5,0,.8.2.8.8v6.5c0,.5-.2.8-.8.8h-4.2Z"/>
  <path class="cls-7" d="M624.4,20.9c0-1.8,1-3.4,2.6-4.1,2.1-.9,4.6,0,5.5,2.2,0,.2.2.5.2.7,0,.4,0,.8.2,1.2"/>
  <path class="cls-13" d="M628.1,26.8h0v.9c0,.2,0,.2.3.2h.8c.2,0,.3-.1.3-.3v-1.6c0-.2,0-.3.2-.4.5-.3.8-.9.6-1.5s-.8-1-1.4-1c-.7-.1-1.3.3-1.6.9-.2.6,0,1.2.5,1.5.2.1.3.3.3.5,0,.3,0,.5,0,.8Z"/>
  <g id="Scone_logo_white" data-name="Scone logo white">
    <g class="cls-22">
      <g class="cls-23">
        <g>
          <path class="cls-21" d="M615,88.4h-.8c-.2,0-.3,0-.3.3v.8c0,.2,0,.3.3.3h.8c.2,0,.3,0,.3-.3v-.8c0-.2,0-.3-.3-.3M612.3,89.7h.8c.2,0,.3,0,.3-.3h0v-.8c0-.2,0-.3-.3-.3h-.8c-.2,0-.3,0-.3.3v.8c0,.2.2.3.3.3M611.5,89.4v-.8c0-.2,0-.3-.3-.3h-.8c-.2,0-.3,0-.3.3v.8c0,.2,0,.3.3.3h.8c.2,0,.3-.1.3-.3M615.1,90.3c0,0-.2,0-.2.2v.9c0,0,0,.2.2.2s.2,0,.2-.2v-.9c0,0,0-.2-.2-.2h0M613,90.6v.8c0,.2,0,.3.3.3h.7c.2,0,.3,0,.3-.3v-.8c0-.2,0-.3-.3-.3h-.8c-.1,0-.2.1-.2.3M612.4,91.3v-.8c0-.2,0-.3-.3-.3h-.8c-.2,0-.3,0-.3.3v.8c0,.2,0,.3.3.3h.8c.2,0,.3-.1.3-.3M615,92.2h-.8c-.2,0-.3,0-.3.3v.8c0,.2,0,.3.3.3h.8c.2,0,.3,0,.3-.3v-.8c0-.2,0-.3-.3-.3M613,92.2h-.8c-.2,0-.3,0-.3.3h0v.8c0,.2,0,.3.3.3h.8c.2,0,.3,0,.3-.3v-.8c0-.2,0-.3-.3-.3"/>
          <path class="cls-21" d="M615.9,88.1c.3.3.8.4,1.2.4h0v2.1c0,.8-1,1.3-1.2,1.4h0v-3.9h0"/>
          <path class="cls-21" d="M613.6,88c1.6,0,1.9-.6,1.9-.6h.2s.3.6,1.8.6c0,0,0,0,0,0v2.8c0,.9-1.7,1.9-1.7,1.9,0,0,0,0,0,0v.7h0c.6-.3,2.3-1.3,2.3-2.5v-3.5s0,0-.2,0c-2,0-2.4-.7-2.4-.7h-.2s-.3.8-2.4.8,0,0,0,0v.4s0,0,0,0,.6-.2.6-.2"/>
          <path class="cls-19" d="M619.8,92.4l.8-.3c.2.4.6.6,1.1.6s.4,0,.6-.2c.2,0,.3-.3.3-.4,0-.4-.6-.7-1-.9h0c-.3,0-.7-.3-1-.5s-.5-.6-.5-1,.2-.8.5-1c.3-.3.8-.4,1.2-.4.7,0,1.3.3,1.6.9l-.8.3c0,0-.2-.2-.3-.3,0,0-.3,0-.5,0-.5,0-.8.3-.8.6s0,.4.3.5c.2.2.5.3.7.4h0c.6.3,1.4.6,1.4,1.4s-.2.8-.6,1c-.4.3-.9.4-1.3.4-.6,0-1.4-.3-1.8-1"/>
          <path class="cls-19" d="M627.1,93.6c-.3,0-.7,0-1-.2s-.6-.3-.8-.6c-.2-.2-.4-.5-.6-.8,0-.3-.2-.7-.2-1s0-.7.2-1c.3-.6.8-1.1,1.4-1.4.3,0,.7-.2,1-.2s.8,0,1.2.3c.3.2.7.4.9.8l-.7.5c-.2-.2-.4-.4-.6-.5-.2,0-.5-.2-.8-.2-.5,0-.9.2-1.2.5s-.5.8-.5,1.2.2.9.5,1.2c.6.6,1.4.7,2.1.3.3-.2.5-.4.6-.6l.8.4c-.2.4-.5.8-.9,1-.5.2-1,.3-1.4.3"/>
          <path class="cls-19" d="M632.7,93.6c-.3,0-.7,0-1-.2s-.6-.3-.8-.6c-.2-.2-.4-.5-.6-.8,0-.3-.2-.7-.2-1s0-.7.2-1c0-.3.3-.6.6-.8.2-.2.5-.4.8-.6.6-.3,1.4-.3,2,0,.3,0,.6.3.8.6.2.2.4.5.6.8.3.6.3,1.4,0,2,0,.3-.3.6-.6.8-.2.2-.5.4-.8.6-.3,0-.6.2-1,.2M632.7,89.2c-.5,0-.9.2-1.2.5s-.5.8-.5,1.3.2.9.5,1.2c.7.7,1.8.7,2.5,0s.7-1.8,0-2.5c-.4-.3-.8-.4-1.3-.5"/>
          <polygon class="cls-19" points="641.2 88.4 641.2 93.7 637.6 90.3 637.6 93.5 636.7 93.5 636.7 88.2 640.3 91.6 640.3 88.4 641.2 88.4"/>
          <polygon class="cls-19" points="643.7 89.2 643.7 90.5 646.2 90.5 646.2 91.3 643.7 91.3 643.7 92.7 646.5 92.7 646.5 93.5 642.8 93.5 642.8 88.4 646.5 88.4 646.5 89.2 643.7 89.2"/>
        </g>
      </g>
    </g>
  </g>
  <path class="cls-16" d="M519,137h220.4c2.8,0,5,2.2,5,5v65.5c0,2.8-2.2,5-5,5h-220.4c-2.8,0-5-2.2-5-5v-65.5c0-2.7,2.3-5,5-5Z"/>
  <path class="cls-2" d="M519,137h220.4c2.8,0,5,2.2,5,5v65.5c0,2.8-2.2,5-5,5h-220.4c-2.8,0-5-2.2-5-5v-65.5c0-2.7,2.3-5,5-5Z"/>
  <path class="cls-7" d="M542.5,159.3h172c2.8,0,5,2.2,5,5v17.2c0,2.8-2.2,5-5,5h-172c-2.8,0-5-2.2-5-5v-17.2c0-2.8,2.2-5,5-5Z"/>
  <g class="cls-28">
    <path class="cls-13" d="M561.2,171.3h-1.2l-.2-1c-.2-.2-.3-.3-.6-.4-.2-.1-.5-.1-.8-.1-.7,0-1.2.2-1.6.7-.4.5-.6,1.1-.6,1.9v.3c0,.8.2,1.4.5,1.9s.9.7,1.5.7.6,0,.8-.1.5-.2.6-.4l.2-1h1.2v1.5c-.3.4-.7.7-1.2.9s-1,.3-1.6.3c-1,0-1.9-.4-2.6-1.1-.7-.7-1-1.7-1-2.8v-.3c0-1.1.3-2.1,1-2.8s1.5-1.1,2.6-1.1,1.2.1,1.6.3c.5.2.9.5,1.2.9v1.7h.2Z"/>
    <path class="cls-13" d="M566,175.7c-.2.3-.4.5-.7.6s-.6.2-.9.2c-.6,0-1.1-.2-1.4-.6-.3-.4-.5-1-.5-1.8v-2.4l-.6-.2v-.9h2.2v3.5c0,.4,0,.7.2.9,0,.2.4.3.6.3s.5,0,.6-.1c.2-.1.3-.2.4-.3v-3.1l-.7-.2v-.9h2.3v4.7l.7.2v.9h-2.1v-.8Z"/>
  </g>
  <g class="cls-28">
    <path class="cls-13" d="M568.9,175.5l.8-.2v-3.6l-.8-.2v-.9h2.3v.8c.2-.3.4-.5.6-.7s.5-.3.7-.3h.5l-.2,1.4h-.6c-.2,0-.4,0-.6.1s-.3.2-.3.4v2.8l.8.2v.9h-3.1v-.7h-.1Z"/>
  </g>
  <g class="cls-28">
    <path class="cls-13" d="M577,176.5c0-.1,0-.2,0-.3s0-.2,0-.3c-.2.2-.4.4-.7.5s-.6.2-.9.2c-.6,0-1-.2-1.4-.5s-.5-.7-.5-1.3.2-1,.7-1.3,1.1-.4,1.9-.4h.8v-.6c0-.3,0-.5-.2-.6s-.4-.2-.7-.2-.3,0-.5.1-.3.1-.3.1v.6h-1.3v-1.3c.3-.2.6-.4,1-.5s.8-.2,1.2-.2c.7,0,1.3.2,1.8.5s.7.9.7,1.5v2.9h.5v1h-1.9ZM575.7,175.4c.2,0,.5-.1.6-.2.2-.1.3-.2.5-.4v-.8h-.8c-.3,0-.6.1-.8.2-.2.2-.3.3-.3.6s0,.4.2.5c.2,0,.4,0,.6,0Z"/>
  </g>
  <g class="cls-28">
    <path class="cls-13" d="M581.3,169.2v1.4h1v1.1h-1v3c0,.2,0,.4,0,.5s.2.1.4.1h.6v1.1c-.1.1-.2.1-.4.1h-.6c-.5,0-1-.1-1.2-.4-.3-.3-.4-.8-.4-1.4v-3h-.9v-1.1h.9v-1.4h1.5Z"/>
    <path class="cls-13" d="M585.8,176.6c-.8,0-1.5-.3-2-.8s-.8-1.2-.8-2v-.2c0-.9.2-1.6.7-2.1s1.1-.8,1.9-.8,1.4.2,1.8.7c.4.5.7,1.1.7,1.9v.9h-3.5c0,.4.2.7.4.9s.5.4.9.4.6,0,.9-.1c.2-.1.5-.2.8-.3l.4,1c-.2.2-.6.3-.9.5-.4,0-.8,0-1.3,0ZM585.7,171.8c-.3,0-.5.1-.7.3s-.3.5-.3.9h1.9c0-.4,0-.7-.2-.9s-.4-.3-.7-.3Z"/>
    <path class="cls-13" d="M592.7,175.8c-.2.3-.4.5-.6.6s-.5.2-.9.2c-.7,0-1.3-.3-1.7-.8s-.6-1.2-.6-2.1h0c0-1,.2-1.8.6-2.3.4-.6,1-.8,1.7-.8s.6.1.8.2c.2.1.4.3.6.5v-2.1l-.8-.2v-.9h2.4v7.3l.8.2v.9h-2.1l-.2-.7ZM590.5,173.7c0,.5,0,.9.3,1.2s.4.4.8.4.4,0,.6-.1c.2-.1.3-.2.4-.4v-2.5c0-.2-.2-.3-.4-.4-.2-.1-.4-.2-.6-.2-.4,0-.7.2-.8.5-.2.3-.3.8-.3,1.3v.2Z"/>
    <path class="cls-13" d="M597.9,171.6v-.9h2.3v.8c.3-.3.5-.5.8-.6s.6-.2,1-.2.7.1,1,.2c.3.2.5.4.6.7.2-.3.4-.6.7-.7.3-.2.6-.3,1-.3.6,0,1,.2,1.4.6.3.4.5,1,.5,1.8v2.4l.8.2v.9h-3v-.9l.7-.2v-2.4c0-.4,0-.7-.2-.9,0-.2-.4-.3-.6-.3s-.4,0-.6.1c-.2.1-.3.2-.4.4v.2h0v2.8l.6.2v.9h-2.8v-.9l.6-.2v-2.4c0-.4,0-.7-.2-.9,0-.2-.4-.3-.6-.3s-.4,0-.6.1c-.2.1-.3.2-.4.3v3.1l.7.2v.9h-3v-.9l.8-.2v-3.6h-1.1Z"/>
    <path class="cls-13" d="M608.3,175.5l.8-.2v-3.6l-.8-.2v-.9h2.4v4.7l.8.2v.9h-3.1v-.9h-.1ZM610.6,169.3h-1.6v-1.2h1.6v1.2Z"/>
    <path class="cls-13" d="M614.6,175.4c.3,0,.5-.1.7-.2s.3-.4.3-.7h1.4c0,.6-.2,1.1-.7,1.5s-1,.6-1.7.6-1.5-.3-2-.8-.7-1.3-.7-2.1v-.2c0-.9.2-1.6.7-2.1s1.2-.8,2.1-.8.9.1,1.3.2.7.3.9.6v1.6h-1.3l-.3-.9c0-.1-.2-.1-.3-.2s-.2-.1-.4-.1c-.4,0-.8.2-.9.5s-.3.7-.3,1.2v.2c0,.5,0,.9.3,1.3.2.2.5.4.9.4Z"/>
  </g>
  <g class="cls-28">
    <path class="cls-13" d="M617.8,175.5l.8-.2v-3.6l-.8-.2v-.9h2.3v.8c.2-.3.4-.5.6-.7s.5-.3.7-.3h.5l-.2,1.4h-.6c-.2,0-.4,0-.6.1s-.3.2-.3.4v2.8l.8.2v.9h-3.1v-.7h-.1Z"/>
  </g>
  <g class="cls-28">
    <path class="cls-13" d="M622.2,173.5c0-.9.2-1.6.7-2.1.5-.6,1.2-.8,2-.8s1.5.3,2,.8.7,1.3.7,2.1h0c0,1-.2,1.7-.7,2.2s-1.2.8-2,.8-1.5-.3-2-.8-.7-1.3-.7-2.1h0ZM623.8,173.6c0,.5,0,1,.3,1.3s.5.5.9.5.7-.2.9-.5.3-.7.3-1.3h0c0-.6,0-1-.3-1.4-.2-.3-.5-.5-.9-.5s-.7.2-.9.5-.3.7-.3,1.3h0Z"/>
    <path class="cls-13" d="M633.1,172.7h-1.1l-.2-.7c0-.1-.2-.2-.4-.2-.2-.1-.3-.1-.5-.1-.3,0-.5.1-.7.2-.2.1-.2.3-.2.5s0,.3.2.4c.2.1.5.2.9.3.7.1,1.3.4,1.6.6.3.3.5.7.5,1.1s-.2,1-.7,1.3-1,.5-1.8.5-.9-.1-1.2-.2-.7-.3-1-.6v-1.3h1.1l.2.8c0,.1.2.1.4.2.2,0,.3.1.5.1.3,0,.6-.1.7-.2.2-.1.3-.3.3-.5s0-.3-.3-.4c-.2-.1-.5-.2-.9-.3-.7-.1-1.2-.3-1.5-.6s-.5-.6-.5-1.1.2-.9.6-1.3c.4-.4,1-.5,1.7-.5s.9.1,1.3.2.7.3.9.5v1.3Z"/>
    <path class="cls-13" d="M636.8,176.6c-.8,0-1.5-.3-2-.8s-.8-1.2-.8-2v-.2c0-.9.2-1.6.7-2.1.5-.6,1.1-.8,1.9-.8s1.4.2,1.8.7c.4.5.6,1.1.6,1.9v.9h-3.5c0,.4.2.7.4.9s.5.4.9.4.6,0,.9-.1c.2-.1.5-.2.8-.3l.4,1c-.2.2-.6.3-.9.5-.3,0-.7,0-1.2,0ZM636.7,171.8c-.3,0-.5.1-.7.3s-.3.5-.3.9h1.9c0-.4,0-.7-.2-.9-.2-.2-.4-.3-.7-.3Z"/>
  </g>
  <g class="cls-28">
    <path class="cls-13" d="M640,175.5l.8-.2v-3.6l-.8-.2v-.9h2.3v.8c.2-.3.4-.5.6-.7s.5-.3.7-.3h.5l-.2,1.4h-.6c-.2,0-.4,0-.6.1s-.3.2-.3.4v2.8l.8.2v.9h-3.2v-.7Z"/>
  </g>
  <g class="cls-28">
    <path class="cls-13" d="M647.1,171.6h-.5c0,.1.8,2.7.8,2.7v.5h0v-.5c0,0,.9-2.6.9-2.6h-.6v-1h2.6v.9h-.5c0,.1-1.7,4.9-1.7,4.9h-1.5l-1.7-4.8h-.5v-1h2.6v.9h0Z"/>
    <path class="cls-13" d="M650.8,175.5l.8-.2v-3.6l-.8-.2v-.9h2.4v4.7l.8.2v.9h-3.1v-.9h-.1ZM653.2,169.3h-1.6v-1.2h1.6v1.2Z"/>
    <path class="cls-13" d="M657.2,175.4c.3,0,.5-.1.7-.2.2-.2.3-.4.3-.7h1.4c0,.6-.2,1.1-.7,1.5s-1,.6-1.7.6-1.5-.3-2-.8-.7-1.3-.7-2.1v-.2c0-.9.2-1.6.7-2.1.5-.6,1.2-.8,2.1-.8s.9.1,1.3.2.7.3.9.6v1.6h-1.3l-.3-.9c0-.1-.2-.1-.3-.2,0,0-.2-.1-.4-.1-.4,0-.8.2-.9.5s-.3.7-.3,1.2v.2c0,.5,0,.9.3,1.3.2.2.4.4.9.4Z"/>
    <path class="cls-13" d="M663,176.6c-.8,0-1.5-.3-2-.8s-.8-1.2-.8-2v-.2c0-.9.2-1.6.7-2.1s1.1-.8,1.9-.8,1.4.2,1.8.7c.4.5.7,1.1.7,1.9v.9h-3.5c0,.4.2.7.4.9s.5.4.9.4.6,0,.9-.1c.2-.1.5-.2.8-.3l.4,1c-.2.2-.6.3-.9.5-.4,0-.8,0-1.3,0ZM662.9,171.8c-.3,0-.5.1-.7.3s-.3.5-.3.9h1.9c0-.4,0-.7-.2-.9-.2-.2-.4-.3-.7-.3Z"/>
    <path class="cls-13" d="M668.7,175.5l.8-.2v-3.6l-.8-.2v-.9h2.4v4.7l.8.2v.9h-3.1v-.9h-.1ZM671.1,169.3h-1.6v-1.2h1.6v1.2Z"/>
    <path class="cls-13" d="M672.2,171.6v-.9h2.3v.8c.3-.3.5-.5.8-.6s.6-.2,1-.2.7.1,1,.2.5.4.6.7c.2-.3.4-.6.7-.7.3-.2.6-.3,1-.3.6,0,1,.2,1.4.6s.5,1,.5,1.8v2.4l.8.2v.9h-3v-.9l.7-.2v-2.4c0-.4,0-.7-.2-.9,0-.2-.4-.3-.6-.3s-.4,0-.6.1-.3.2-.4.4v.2h0v2.8l.6.2v.9h-2.8v-.9l.6-.2v-2.4c0-.4,0-.7-.2-.9,0-.2-.4-.3-.6-.3s-.4,0-.6.1c-.2.1-.3.2-.4.3v3.1l.7.2v.9h-3v-.9l.8-.2v-3.6h-1.1Z"/>
    <path class="cls-13" d="M686.3,176.5c0-.1,0-.2,0-.3s0-.2,0-.3c-.2.2-.4.4-.7.5s-.6.2-.9.2c-.6,0-1-.2-1.4-.5s-.5-.7-.5-1.3.2-1,.7-1.3,1.1-.4,1.9-.4h.8v-.6c0-.3,0-.5-.2-.6s-.4-.2-.7-.2-.3,0-.5.1-.3.1-.3.1v.6h-1.3v-1.3c.3-.2.6-.4,1-.5s.8-.2,1.2-.2c.7,0,1.3.2,1.8.5s.7.9.7,1.5v2.9h.5v1h-1.9ZM684.9,175.4c.2,0,.5-.1.6-.2.2-.1.3-.2.5-.4v-.8h-.8c-.3,0-.6.1-.8.2-.2.2-.3.3-.3.6s0,.4.2.5.4,0,.6,0Z"/>
    <path class="cls-13" d="M688.7,173.6c0-.9.2-1.7.6-2.2.4-.6,1-.8,1.7-.8s.6.1.9.2c.2.1.5.4.6.6v-.7h1.5v5.6c0,.8-.2,1.4-.7,1.8-.5.5-1.1.7-2,.7s-.6,0-.9-.1c-.3-.1-.6-.2-.9-.3l.3-1.1c.3.1.5.2.8.3s.5.1.8.1.7-.1.9-.3.3-.6.3-1v-.4c-.2.2-.4.4-.6.5-.2.1-.5.2-.8.2-.7,0-1.3-.3-1.7-.8s-.6-1.2-.6-2.1v-.2h-.2ZM690.3,173.7c0,.5,0,.9.3,1.2s.5.4.8.4.4,0,.6-.1c.2-.1.3-.2.4-.4v-2.5c0-.2-.2-.3-.4-.4-.2-.1-.4-.1-.6-.1-.4,0-.7.2-.8.5-.2.3-.3.8-.3,1.3h0Z"/>
    <path class="cls-13" d="M697.7,176.6c-.8,0-1.5-.3-2-.8s-.8-1.2-.8-2v-.2c0-.9.2-1.6.7-2.1s1.1-.8,1.9-.8,1.4.2,1.8.7c.4.5.7,1.1.7,1.9v.9h-3.5c0,.4.2.7.4.9s.5.4.9.4.6,0,.9-.1c.2-.1.5-.2.8-.3l.4,1c-.2.2-.6.3-.9.5-.4,0-.9,0-1.3,0ZM697.5,171.8c-.3,0-.5.1-.7.3s-.3.5-.3.9h1.9c0-.4,0-.7-.2-.9s-.3-.3-.7-.3Z"/>
  </g>
  <path class="cls-11" d="M620.5,126.3c4.6-4.5,12.1-4.5,16.6,0s4.5,12.1,0,16.6-12.1,4.5-16.6-.1c-2.2-2.2-3.4-5.1-3.4-8.2s.8-5.1,2.4-7.1"/>
  <path class="cls-7" d="M628.8,140.3h-4.3c-.6,0-.8-.2-.8-.8v-6.5c0-.6.2-.8.8-.8h8.5c.5,0,.8.2.8.8v6.5c0,.6-.2.8-.8.8h-4.2Z"/>
  <path class="cls-7" d="M624.4,131.6c0-1.8,1-3.4,2.6-4.1,2.1-.9,4.6,0,5.5,2.2,0,.2.2.5.2.7,0,.4,0,.8.2,1.2"/>
  <path class="cls-13" d="M628.1,137.5h0v.9c0,.2,0,.2.3.2h.8c.2,0,.3-.1.3-.3v-1.6c0-.2,0-.3.2-.4.5-.3.8-.9.6-1.4-.2-.6-.8-1-1.4-1-.7-.1-1.3.3-1.6.9-.2.6,0,1.2.5,1.5.2.1.3.3.3.5,0,.2,0,.5,0,.7Z"/>
  <g id="Scone_logo_white-2" data-name="Scone logo white-2">
    <g class="cls-26">
      <g class="cls-25">
        <g>
          <path class="cls-21" d="M615,199.1h-.8c-.2,0-.3.1-.3.3v.8c0,.2,0,.3.3.3h.8c.2,0,.3-.1.3-.3v-.8c0-.2,0-.3-.3-.3M612.3,200.4h.8c.2,0,.3-.1.3-.3h0v-.8c0-.2,0-.3-.3-.3h-.8c-.2,0-.3.1-.3.3v.8c0,.2.2.3.3.3M611.5,200.2v-.8c0-.2,0-.3-.3-.3h-.8c-.2,0-.3.1-.3.3v.8c0,.2,0,.3.3.3h.8c.2-.1.3-.2.3-.3M615.1,201c0,0-.2.1-.2.2v.9c0,.1,0,.2.2.2s.2-.1.2-.2v-.9c0,0,0-.2-.2-.2h0M613,201.3v.8c0,.2,0,.3.3.3h.7c.2,0,.3-.1.3-.3v-.8c0-.2,0-.3-.3-.3h-.8c-.1,0-.2.1-.2.3M612.4,202.1v-.8c0-.2,0-.3-.3-.3h-.8c-.2,0-.3.1-.3.3v.8c0,.2,0,.3.3.3h.8c.2,0,.3-.2.3-.3M615,202.9h-.8c-.2,0-.3.1-.3.3v.8c0,.2,0,.3.3.3h.8c.2,0,.3-.1.3-.3v-.8c0,0,0-.3-.3-.3M613,202.9h-.8c-.2,0-.3.1-.3.3v.8c0,.2,0,.3.3.3h.8c.2,0,.3-.1.3-.3v-.8c0,0,0-.3-.3-.3"/>
          <path class="cls-21" d="M615.9,198.8c.3.3.8.4,1.2.4h0v2.2c0,.8-1,1.3-1.2,1.4h0v-4h0"/>
          <path class="cls-21" d="M613.6,198.7c1.6-.1,1.9-.6,1.9-.6h.2s.3.6,1.8.6c0,0,0,0,0,.1v2.8c0,.9-1.7,1.9-1.7,1.9h0v.8h0c.6-.3,2.3-1.3,2.3-2.5v-3.5c0-.1,0-.1-.2-.1-2,0-2.4-.8-2.4-.8h-.2s-.3.8-2.4.8,0,0,0,.1v.4s0,.1,0,.1.6-.1.6-.1"/>
          <path class="cls-19" d="M619.8,203.2l.8-.3c.2.4.6.6,1.1.6s.4,0,.6-.1c.2-.1.3-.3.3-.4,0-.4-.6-.7-1-.9h0c-.3-.1-.7-.3-1-.5s-.5-.6-.5-1,.2-.8.5-1c.3-.3.8-.4,1.2-.4.7,0,1.3.3,1.6.9l-.8.3c0-.1-.2-.2-.3-.3s-.3-.1-.5-.1c-.5,0-.8.3-.8.6s0,.4.3.5c.2.2.5.3.7.4h0c.6.3,1.4.6,1.4,1.4s-.2.8-.6,1c-.4.3-.9.4-1.3.4-.6,0-1.4-.5-1.8-1.1"/>
          <path class="cls-19" d="M627.1,204.3c-.3,0-.7-.1-1-.2-.3-.1-.6-.3-.8-.6-.2-.2-.4-.5-.6-.8-.3-.6-.3-1.4,0-2,0-.3.3-.6.6-.8.2-.2.5-.4.8-.6.3-.1.7-.2,1-.2s.8.1,1.2.3c.3.2.7.4.9.7l-.7.5c-.2-.2-.4-.4-.6-.5-.2-.1-.5-.2-.8-.2-.5,0-.9.2-1.2.5s-.5.8-.5,1.2.2.9.5,1.2.8.5,1.2.5.6-.1.9-.3c.3-.2.5-.4.6-.6l.8.4c-.2.4-.5.8-.9,1-.5.4-1,.5-1.4.5"/>
          <path class="cls-19" d="M632.7,204.3c-.3,0-.7-.1-1-.2-.3-.1-.6-.3-.8-.6-.2-.2-.4-.5-.6-.8,0-.3-.2-.7-.2-1s0-.7.2-1c0-.3.3-.6.6-.8.2-.2.5-.4.8-.6.6-.3,1.4-.3,2,0,.3.1.6.3.8.6.2.2.4.5.6.8,0,.3.2.7.2,1s0,.7-.2,1c0,.3-.3.6-.6.8-.2.2-.5.4-.8.6-.3,0-.6.2-1,.2M632.7,199.9c-.5,0-.9.2-1.2.5s-.5.8-.5,1.2.2.9.5,1.2c.7.7,1.8.7,2.5,0,.3-.3.5-.8.5-1.2s-.2-.9-.5-1.2c-.4-.3-.8-.5-1.3-.5"/>
          <polygon class="cls-19" points="641.2 199.1 641.2 204.4 637.6 201.1 637.6 204.2 636.7 204.2 636.7 198.9 640.3 202.3 640.3 199.1 641.2 199.1"/>
          <polygon class="cls-19" points="643.7 199.9 643.7 201.3 646.2 201.3 646.2 202.1 643.7 202.1 643.7 203.4 646.5 203.4 646.5 204.2 642.8 204.2 642.8 199.1 646.5 199.1 646.5 199.9 643.7 199.9"/>
        </g>
      </g>
    </g>
  </g>
  <path class="cls-15" d="M519,308.7h220.4c2.8,0,5,2.2,5,5v65.5c0,2.8-2.2,5-5,5h-220.4c-2.8,0-5-2.2-5-5v-65.5c0-2.8,2.3-5,5-5Z"/>
  <path class="cls-2" d="M519,308.7h220.4c2.8,0,5,2.2,5,5v65.5c0,2.8-2.2,5-5,5h-220.4c-2.8,0-5-2.2-5-5v-65.5c0-2.8,2.3-5,5-5Z"/>
  <path class="cls-7" d="M542.5,330.9h172c2.8,0,5,2.2,5,5v17.2c0,2.8-2.2,5-5,5h-172c-2.8,0-5-2.2-5-5v-17.2c0-2.7,2.2-5,5-5Z"/>
  <g class="cls-28">
    <path class="cls-13" d="M580.6,342.8h-1.2l-.2-1.1c0-.1-.3-.2-.6-.2-.3-.1-.5-.1-.8-.1s-.8.1-1,.3c-.2.2-.4.4-.4.7s0,.5.4.7.7.4,1.3.5c.9.2,1.5.6,2,1,.4.4.7.9.7,1.6s-.3,1.2-.8,1.6-1.2.6-2.1.6-1.2-.1-1.7-.3c-.5-.2-.9-.5-1.2-.8v-1.6h1.2l.2,1.1.6.3c.2,0,.6.1.9.1s.8-.1,1-.3c.2-.2.3-.4.3-.7s0-.5-.3-.7-.6-.4-1.1-.5c-.9-.3-1.6-.6-2.1-1s-.7-.9-.7-1.5.3-1.2.8-1.6,1.2-.6,2-.6,1.1.1,1.6.3c.5.2.9.4,1.2.7v1.5h0Z"/>
    <path class="cls-13" d="M584.1,348.2c-.8,0-1.5-.3-2-.8s-.8-1.2-.8-2v-.2c0-.9.2-1.6.7-2.1.5-.6,1.1-.8,1.9-.8s1.4.2,1.8.7c.4.5.6,1.1.6,1.9v.9h-3.3c0,.4.2.7.4.9.2.2.5.4.9.4s.6,0,.9-.1c.2-.1.5-.2.8-.3l.4,1c-.2.2-.6.3-.9.5-.5-.1-.9,0-1.4,0ZM584,343.4c-.3,0-.5.1-.7.3-.2.2-.3.5-.3.9h1.9c0-.4,0-.7-.2-.9-.2-.2-.4-.3-.7-.3Z"/>
    <path class="cls-13" d="M589.9,347c.3,0,.5-.1.7-.2.2-.2.3-.4.3-.7h1.4c0,.6-.2,1.1-.7,1.5s-1,.6-1.7.6-1.5-.3-2-.8-.7-1.3-.7-2.1v-.2c0-.9.2-1.6.7-2.1s1.2-.8,2.1-.8.9.1,1.3.2c.4.1.7.3.9.6v1.6h-1.2l-.3-.9c0-.1-.2-.1-.3-.2,0,0-.2-.1-.4-.1-.4,0-.8.2-.9.5s-.3.7-.3,1.2v.2c0,.5,0,.9.3,1.3.1.3.4.4.8.4Z"/>
    <path class="cls-13" d="M597.1,347.4c-.2.3-.4.5-.7.6s-.6.2-.9.2c-.6,0-1.1-.2-1.4-.6-.3-.4-.5-1-.5-1.8v-2.4l-.6-.2v-.9h2.2v3.5c0,.4,0,.7.2.9,0,.2.4.3.6.3s.5,0,.6-.1c.2-.1.3-.2.4-.3v-3.1l-.7-.2v-.9h2.3v4.7l.7.2v.9h-2.1v-.8Z"/>
  </g>
  <g class="cls-28">
    <path class="cls-13" d="M600,347.2l.8-.2v-3.6l-.8-.2v-.9h2.3v.8c.2-.3.4-.5.6-.7s.5-.3.7-.3h.5l-.2,1.4h-.6c-.2,0-.4,0-.6.1s-.3.2-.3.4v2.8l.8.2v.9h-3.2v-.7Z"/>
  </g>
  <g class="cls-28">
    <path class="cls-13" d="M607.2,348.2c-.8,0-1.5-.3-2-.8s-.8-1.2-.8-2v-.2c0-.9.2-1.6.7-2.1.5-.6,1.1-.8,1.9-.8s1.4.2,1.8.7c.4.5.6,1.1.6,1.9v.9h-3.4c0,.4.2.7.4.9.2.2.5.4.9.4s.6,0,.9-.1c.2-.1.5-.2.8-.3l.4,1c-.2.2-.6.3-.9.5-.4-.1-.9,0-1.3,0ZM607,343.4c-.3,0-.5.1-.7.3-.2.2-.3.5-.3.9h1.9c0-.4,0-.7-.2-.9s-.3-.3-.7-.3Z"/>
    <path class="cls-13" d="M612.8,343.2v-.9h2.3v.8c.3-.3.5-.5.8-.6.3-.2.6-.2,1-.2s.7.1,1,.2c.3.2.5.4.6.7.2-.3.4-.6.7-.7.3-.2.6-.3,1-.3.6,0,1,.2,1.4.6.3.4.5,1,.5,1.8v2.4l.8.2v.9h-3v-.9l.7-.2v-2.4c0-.4,0-.7-.2-.9,0-.2-.4-.3-.6-.3s-.4,0-.6.1c-.2.1-.3.2-.4.4v.2h0v2.8l.6.2v.9h-2.8v-.9l.6-.2v-2.4c0-.4,0-.7-.2-.9,0-.2-.4-.3-.6-.3s-.4,0-.6.1c-.2.1-.3.2-.4.3v3.1l.7.2v.9h-3v-.9l.8-.2v-3.6h-1.1Z"/>
    <path class="cls-13" d="M623.1,347.2l.8-.2v-3.6l-.8-.2v-.9h2.4v4.7l.8.2v.9h-3.1v-.9h-.1ZM625.5,340.9h-1.6v-1.2h1.6v1.2Z"/>
    <path class="cls-13" d="M629.5,347c.3,0,.5-.1.7-.2s.3-.4.3-.7h1.4c0,.6-.2,1.1-.7,1.5s-1,.6-1.7.6-1.5-.3-2-.8-.7-1.3-.7-2.1v-.2c0-.9.2-1.6.7-2.1.5-.6,1.2-.8,2.1-.8s.9.1,1.3.2c.4.1.7.3.9.6v1.6h-1.3l-.3-.9c0-.1-.2-.1-.3-.2s-.2-.1-.4-.1c-.4,0-.8.2-.9.5s-.3.7-.3,1.2v.2c0,.5,0,.9.3,1.3.1.3.4.4.9.4Z"/>
  </g>
  <g class="cls-28">
    <path class="cls-13" d="M632.6,347.2l.8-.2v-3.6l-.8-.2v-.9h2.3v.8c.2-.3.4-.5.6-.7s.5-.3.7-.3h.5l-.2,1.4h-.6c-.2,0-.4,0-.6.1s-.3.2-.3.4v2.8l.8.2v.9h-3.1v-.7h-.1Z"/>
  </g>
  <g class="cls-28">
    <path class="cls-13" d="M637,345.1c0-.9.2-1.6.7-2.1.5-.6,1.2-.8,2-.8s1.5.3,2,.8.7,1.3.7,2.1h0c0,1-.2,1.7-.7,2.2s-1.2.8-2,.8-1.5-.3-2-.8-.7-1.3-.7-2.1h0ZM638.6,345.3c0,.5,0,1,.3,1.3s.5.5.9.5.7-.2.9-.5.3-.7.3-1.3h0c0-.6,0-1-.3-1.4-.2-.3-.5-.5-.9-.5s-.7.2-.9.5-.3.7-.3,1.3h0Z"/>
    <path class="cls-13" d="M648,344.3h-1.1l-.2-.7c0-.1-.2-.2-.4-.2-.2-.1-.3-.1-.5-.1-.3,0-.5.1-.7.2s-.2.3-.2.5,0,.3.2.4c.2.1.5.2.9.3.7.1,1.3.4,1.6.6.3.3.5.7.5,1.1s-.2,1-.7,1.3-1,.5-1.8.5-.9-.1-1.2-.2-.7-.3-1-.6v-1.3h1.1l.2.8c0,.1.2.1.4.2.2,0,.3.1.5.1.3,0,.6-.1.7-.2.2-.1.3-.3.3-.5s0-.3-.3-.4-.5-.2-.9-.3c-.7-.1-1.2-.3-1.5-.6-.3-.3-.5-.6-.5-1.1s.2-.9.6-1.3c.4-.4,1-.5,1.7-.5s.9.1,1.3.2c.4.1.7.3.9.5v1.3Z"/>
    <path class="cls-13" d="M651.7,348.2c-.8,0-1.5-.3-2-.8s-.8-1.2-.8-2v-.2c0-.9.2-1.6.7-2.1.5-.6,1.1-.8,1.9-.8s1.4.2,1.8.7c.4.5.6,1.1.6,1.9v.9h-3.5c0,.4.2.7.4.9.2.2.5.4.9.4s.6,0,.9-.1c.2-.1.5-.2.8-.3l.4,1c-.2.2-.6.3-.9.5-.3-.1-.8,0-1.2,0ZM651.5,343.4c-.3,0-.5.1-.7.3-.2.2-.3.5-.3.9h1.9c0-.4,0-.7-.2-.9s-.4-.3-.7-.3Z"/>
  </g>
  <g class="cls-28">
    <path class="cls-13" d="M654.8,347.2l.8-.2v-3.6l-.8-.2v-.9h2.3v.8c.2-.3.4-.5.6-.7s.5-.3.7-.3h.5l-.2,1.4h-.6c-.2,0-.4,0-.6.1s-.3.2-.3.4v2.8l.8.2v.9h-3.1v-.7h-.1Z"/>
  </g>
  <g class="cls-28">
    <path class="cls-13" d="M661.9,343.2h-.5c0,.1.8,2.7.8,2.7v.5h0v-.5c0,0,.9-2.6.9-2.6h-.6v-1h2.6v.9h-.5c0,.1-1.7,4.9-1.7,4.9h-1.5l-1.7-4.8h-.5v-1h2.6v.9h0Z"/>
    <path class="cls-13" d="M665.7,347.2l.8-.2v-3.6l-.8-.2v-.9h2.4v4.7l.8.2v.9h-3.1v-.9h-.1ZM668,340.9h-1.6v-1.2h1.6v1.2Z"/>
    <path class="cls-13" d="M672,347c.3,0,.5-.1.7-.2.2-.2.3-.4.3-.7h1.4c0,.6-.2,1.1-.7,1.5s-1,.6-1.7.6-1.5-.3-2-.8-.7-1.3-.7-2.1v-.2c0-.9.2-1.6.7-2.1.5-.6,1.2-.8,2.1-.8s.9.1,1.3.2c.4.1.7.3.9.6v1.6h-1.3l-.3-.9c0-.1-.2-.1-.3-.2,0,0-.2-.1-.4-.1-.4,0-.8.2-.9.5s-.3.7-.3,1.2v.2c0,.5,0,.9.3,1.3.2.3.5.4.9.4Z"/>
    <path class="cls-13" d="M677.8,348.2c-.8,0-1.5-.3-2-.8s-.8-1.2-.8-2v-.2c0-.9.2-1.6.7-2.1s1.1-.8,1.9-.8,1.4.2,1.8.7c.4.5.7,1.1.7,1.9v.9h-3.5c0,.4.2.7.4.9s.5.4.9.4.6,0,.9-.1c.2-.1.5-.2.8-.3l.4,1c-.2.2-.6.3-.9.5-.4-.1-.8,0-1.3,0ZM677.7,343.4c-.3,0-.5.1-.7.3-.2.2-.3.5-.3.9h1.9c0-.4,0-.7-.2-.9s-.4-.3-.7-.3Z"/>
  </g>
  <path class="cls-11" d="M620.5,297.9c4.6-4.6,12.1-4.5,16.6.1,4.6,4.6,4.5,12.1,0,16.6-4.6,4.6-12.1,4.5-16.6-.1-2.2-2.2-3.4-5.1-3.4-8.2s.8-5.1,2.4-7.1"/>
  <path class="cls-7" d="M628.8,311.9h-4.3c-.6,0-.8-.2-.8-.8v-6.5c0-.6.2-.8.8-.8h8.5c.5,0,.8.2.8.8v6.5c0,.5-.2.8-.8.8-1.4.1-2.8,0-4.2,0Z"/>
  <path class="cls-7" d="M624.4,303.3c0-1.8,1-3.4,2.6-4.1,2.1-.9,4.6,0,5.5,2.1,0,.2.2.5.2.7,0,.4,0,.8.2,1.2"/>
  <path class="cls-13" d="M628.1,309.1h0v.9c0,.2,0,.2.3.2h.8c.2,0,.3-.1.3-.3v-1.6c0-.2,0-.3.2-.4.5-.3.8-.9.6-1.5s-.8-1-1.4-1c-.7-.1-1.3.3-1.6.9-.2.6,0,1.2.5,1.5.2.1.3.3.3.5,0,.3,0,.6,0,.8Z"/>
  <g id="Scone_logo_white-3" data-name="Scone logo white-3">
    <g class="cls-24">
      <g class="cls-27">
        <g>
          <path class="cls-21" d="M615,370.7h-.8c-.2,0-.3.1-.3.3v.8c0,.2,0,.3.3.3h.8c.2,0,.3-.1.3-.3v-.8c0-.2,0-.3-.3-.3M612.3,372.1h.8c.2,0,.3-.1.3-.3h0v-.8c0-.2,0-.3-.3-.3h-.8c-.2,0-.3.1-.3.3v.8c0,.1.2.3.3.3M611.5,371.8v-.8c0-.2,0-.3-.3-.3h-.8c-.2,0-.3.1-.3.3v.8c0,.2,0,.3.3.3h.8c.2,0,.3-.2.3-.3M615.1,372.6c0,0-.2.1-.2.2v.9c0,.1,0,.2.2.2s.2-.1.2-.2v-.9c0-.1,0-.2-.2-.2h0M613,372.9v.8c0,.2,0,.3.3.3h.7c.2,0,.3-.1.3-.3v-.8c0-.2,0-.3-.3-.3h-.8c-.1,0-.3.1-.2.3q0,0,0,0M612.4,373.7v-.8c0-.2,0-.3-.3-.3h-.8c-.2,0-.3.1-.3.3h0v.8c0,.2,0,.3.3.3h.8c.2,0,.3-.2.3-.3M615,374.5h-.8c-.2,0-.3.1-.3.3v.8c0,.2,0,.3.3.3h.8c.2,0,.3-.1.3-.3v-.8c0-.2,0-.3-.3-.3M613,374.5h-.8c-.2,0-.3.1-.3.3h0v.8c0,.2,0,.3.3.3h.8c.2,0,.3-.1.3-.3v-.8c0-.2,0-.3-.3-.3"/>
          <path class="cls-21" d="M615.9,370.4c.3.3.8.4,1.2.4h0v2.2c0,.8-1,1.3-1.2,1.4h0v-4h0"/>
          <path class="cls-21" d="M613.6,370.3c1.6-.1,1.9-.6,1.9-.6h.2s.3.6,1.8.6c0,0,0,0,0,.1v2.8c0,.9-1.7,1.9-1.7,1.9h0v.8h0c.6-.3,2.3-1.3,2.3-2.5v-3.5c0-.1,0-.1-.2-.1-2,0-2.4-.8-2.4-.8h-.2s-.3.8-2.4.8,0,0,0,.1v.4s0,.1,0,.1.6,0,.6-.1"/>
          <path class="cls-19" d="M619.8,374.8l.8-.3c.2.4.6.6,1.1.6s.4,0,.6-.1c.2-.1.3-.2.3-.4,0-.4-.6-.7-1-.9h0c-.3-.1-.7-.3-1-.5s-.5-.6-.5-1,.2-.8.5-1c.3-.3.8-.4,1.2-.4.7,0,1.3.3,1.6.9l-.8.3c0-.1-.2-.2-.3-.3,0-.1-.3-.1-.5-.1-.5,0-.8.3-.8.6s0,.4.3.5c.2.2.5.3.7.4h0c.6.3,1.4.6,1.4,1.5s-.2.8-.6,1c-.4.3-.9.4-1.3.4-.6-.1-1.4-.5-1.8-1.2"/>
          <path class="cls-19" d="M627.1,375.9c-.3,0-.7-.1-1-.2s-.6-.3-.8-.6c-.2-.2-.4-.5-.6-.8-.3-.6-.3-1.4,0-2,0-.3.3-.6.6-.8.2-.2.5-.4.8-.6.3-.1.7-.2,1-.2s.8.1,1.2.3c.3.2.7.4.9.7l-.7.5c-.2-.2-.4-.4-.6-.5-.2-.1-.5-.2-.8-.2-.5,0-.9.2-1.2.5s-.5.8-.5,1.2.2.9.5,1.2c.3.3.8.5,1.2.5s.6-.1.9-.3c.3-.2.5-.4.6-.6l.8.4c-.2.4-.5.7-.9,1-.5.4-1,.5-1.4.5"/>
          <path class="cls-19" d="M632.7,375.9c-.3,0-.7-.1-1-.2s-.6-.3-.8-.6c-.2-.2-.4-.5-.6-.8,0-.3-.2-.7-.2-1s0-.7.2-1c0-.3.3-.6.6-.8.2-.2.5-.4.8-.6.6-.3,1.4-.3,2,0,.3.1.6.3.8.6.2.2.4.5.6.8.3.6.3,1.4,0,2,0,.3-.3.6-.6.8-.2.2-.5.4-.8.6-.3.1-.6.2-1,.2M632.7,371.6c-.5,0-.9.2-1.2.5s-.5.8-.5,1.2.2.9.5,1.2c.7.7,1.8.7,2.5,0s.5-.8.5-1.2-.2-.9-.5-1.2c-.4-.3-.8-.5-1.3-.5"/>
          <polygon class="cls-19" points="641.2 370.8 641.2 376 637.6 372.7 637.6 375.8 636.7 375.8 636.7 370.6 640.3 373.9 640.3 370.8 641.2 370.8"/>
          <polygon class="cls-19" points="643.7 371.5 643.7 372.9 646.2 372.9 646.2 373.7 643.7 373.7 643.7 375 646.5 375 646.5 375.8 642.8 375.8 642.8 370.8 646.5 370.8 646.5 371.5 643.7 371.5"/>
        </g>
      </g>
    </g>
  </g>
  <path class="cls-8" d="M143.8,46.8h154.2c2.8,0,5,2.2,5,5v20.6c0,2.8-2.2,5-5,5h-154.2c-2.8,0-5-2.2-5-5v-20.6c0-2.8,2.2-5,5-5Z"/>
  <path class="cls-1" d="M143.8,308h154.2c2.8,0,5,2.2,5,5v20.6c0,2.8-2.2,5-5,5h-154.2c-2.8,0-5-2.2-5-5v-20.6c0-2.8,2.2-5,5-5Z"/>
  <g class="cls-28">
    <path class="cls-20" d="M195.5,57.2c1.1,0,1.9.3,2.6,1,.7.7,1,1.6,1,2.6v1.4c0,1.1-.3,1.9-1,2.6-.7.7-1.6,1-2.6,1h-3.9v-1l.9-.2v-6.2l-.9-.2v-1.1h3.9ZM194.2,58.6v6h1.2c.6,0,1.1-.2,1.5-.6s.5-1,.5-1.7v-1.5c0-.7-.2-1.2-.5-1.6-.4-.4-.8-.6-1.5-.6,0,0-1.2,0-1.2,0Z"/>
    <path class="cls-20" d="M200,62.6c0-1,.3-1.8.8-2.4.5-.6,1.3-.9,2.2-.9s1.7.3,2.2.9c.5.6.8,1.4.8,2.4h0c0,1.1-.3,1.9-.8,2.5s-1.3.9-2.2.9-1.7-.3-2.3-.9-.8-1.4-.8-2.4h0c0,0,.1,0,.1,0ZM201.8,62.8c0,.6.1,1.1.3,1.4.2.3.5.5,1,.5s.8-.2,1-.5.3-.8.3-1.4h0c0-.7-.1-1.1-.3-1.5s-.5-.5-1-.5-.8.2-1,.5c-.2.4-.3.8-.3,1.4h0Z"/>
    <path class="cls-20" d="M209.9,64.7c.3,0,.6,0,.7-.3.2-.2.3-.4.3-.7h1.6c0,.7-.2,1.2-.7,1.6s-1.1.7-1.9.7-1.7-.3-2.2-.9-.8-1.4-.8-2.3v-.2c0-1,.3-1.7.8-2.3s1.3-.9,2.3-.9,1,0,1.4.2c.4.2.8.4,1,.7v1.7h-1.4l-.3-1c-.1,0-.2,0-.3-.2-.1,0-.3,0-.4,0-.5,0-.8.2-1,.5-.2.4-.3.8-.3,1.4v.2c0,.6.1,1,.3,1.4,0,.4.5.5.9.5Z"/>
  </g>
  <g class="cls-28">
    <path class="cls-20" d="M213.2,57.7v-1.1h2.7v5.4h.4l1-1.4h-.6v-1.2h3.2v1.1l-.8.2-1.2,1.6,1.6,2.5h.7v1.1h-3v-1h.4c0,0-1-1.7-1-1.7h-.7v1.5l.8.2v1h-3.3v-1l.8-.2v-6.9h-1Z"/>
  </g>
  <g class="cls-28">
    <path class="cls-20" d="M223.8,66.1c-.9,0-1.7-.3-2.2-.9-.6-.6-.8-1.4-.8-2.3v-.2c0-1,.3-1.8.8-2.4.5-.6,1.2-.9,2.1-.9s1.5.3,2,.8.7,1.2.7,2.1v1h-3.9c0,.4.2.8.4,1.1.3.3.6.4,1,.4s.7,0,1,0,.5-.2.8-.4l.5,1.1c-.3.2-.6.4-1,.5s-.9.2-1.4.2ZM223.6,60.7c-.3,0-.6,0-.8.4-.2.2-.3.6-.3,1h2.1v-.2c0-.4-.1-.7-.3-.9,0-.2-.3-.3-.7-.3Z"/>
    <path class="cls-20" d="M227.4,64.9l.8-.2v-4l-.9-.2v-1.1h2.6v.9c.3-.3.4-.6.7-.8.2-.2.5-.3.8-.3h.3c.1,0,.2,0,.3,0l-.2,1.6h-.7c-.3,0-.5,0-.6,0-.2,0-.3.2-.4.4v3.1l.8.2v1h-3.4v-.8h-.1Z"/>
    <path class="cls-20" d="M232.2,60.7v-1.2h1v-.5c0-.8.2-1.4.7-1.9.5-.4,1.2-.7,2.1-.7s.6,0,.9,0,.7.2,1.1.3l-.3,1.4c-.3,0-.6-.2-.8-.2s-.5,0-.8,0-.7,0-.9.3-.3.5-.3.8v.4h3.9v5.2l.9.2v1h-3.5v-1l.8-.2v-4h-2.2v4l.8.2v1h-3.5v-1l.9-.2v-4h-.8Z"/>
    <path class="cls-20" d="M240.2,57.7v-1.1h2.7v8.1l.8.2v1h-3.4v-1l.8-.2v-6.9h-.9Z"/>
    <path class="cls-20" d="M247.4,66.1c-.9,0-1.7-.3-2.2-.9-.6-.6-.8-1.4-.8-2.3v-.2c0-1,.3-1.8.8-2.4.5-.6,1.2-.9,2.1-.9s1.5.3,2,.8.7,1.2.7,2.1v1h-3.9c0,.4.2.8.4,1.1.3.3.6.4,1,.4s.7,0,1,0,.5-.2.8-.4l.5,1.1c-.3.2-.6.4-1,.5-.4.1-.9.2-1.4.2ZM247.2,60.7c-.3,0-.6,0-.8.4s-.3.6-.3,1h2.1v-.2c0-.4-.1-.7-.3-.9,0-.2-.3-.3-.7-.3Z"/>
  </g>
  <path class="cls-1" d="M144.8,145.7h154.2c2.8,0,5,2.2,5,5v39.8c0,2.8-2.2,5-5,5h-154.2c-2.8,0-5-2.2-5-5v-39.8c0-2.7,2.2-5,5-5Z"/>
  <g class="cls-28">
    <path class="cls-20" d="M191.2,158.5h0l-2.4,6.4h-1.2l-2.3-6.4h0l.2,3.8v1.4l.9.2v1h-3.6v-1l.9-.2v-6.2l-.9-.2v-1.1h3.2l2.2,6.4h0l2.2-6.4h3.2v1.1l-.9.2v6.2l.9.2v1h-3.6v-1l.9-.2v-1.4l.3-3.8Z"/>
    <path class="cls-20" d="M194.3,163.9l.8-.2v-4l-.9-.2v-1.1h2.7v5.2l.8.2v1h-3.4v-.9h0ZM196.9,156.9h-1.7v-1.3h1.7v1.3Z"/>
    <path class="cls-20" d="M201.3,163.7c.3,0,.6-.1.7-.3.2-.2.3-.4.3-.7h1.6c0,.7-.2,1.2-.7,1.6-.5.4-1.1.7-1.9.7s-1.7-.3-2.2-.9c-.5-.6-.8-1.4-.8-2.3v-.2c0-1,.3-1.7.8-2.3s1.3-.9,2.3-.9,1,.1,1.4.2c.4.2.8.4,1,.7v1.7h-1.4l-.3-1c-.1-.1-.2-.1-.3-.2s-.3-.1-.4-.1c-.5,0-.8.2-1,.5-.2.4-.3.8-.3,1.4v.2c0,.6.1,1,.3,1.4,0,.3.4.5.9.5Z"/>
  </g>
  <g class="cls-28">
    <path class="cls-20" d="M204.9,163.9l.8-.2v-4l-.9-.2v-1.1h2.6v.9c.3-.3.4-.6.7-.8.2-.2.5-.3.8-.3h.3c.1,0,.2,0,.3.1l-.2,1.6h-.7c-.3,0-.5,0-.6.1-.2.1-.3.2-.4.4v3.1l.8.2v1h-3.4v-.8h-.1Z"/>
  </g>
  <g class="cls-28">
    <path class="cls-20" d="M209.8,161.6c0-1,.3-1.8.8-2.4.5-.6,1.3-.9,2.2-.9s1.7.3,2.2.9c.5.6.8,1.4.8,2.4h0c0,1.1-.3,1.9-.8,2.5-.5.6-1.3.9-2.2.9s-1.7-.3-2.3-.9c-.5-.6-.8-1.4-.8-2.4h0c0-.1.1-.1.1-.1ZM211.5,161.7c0,.6.1,1.1.3,1.4.2.4.5.5,1,.5s.8-.2,1-.5c.2-.4.3-.8.3-1.4h0c0-.7-.1-1.1-.3-1.5s-.5-.5-1-.5-.8.2-1,.5c-.2.4-.3.8-.3,1.4h0Z"/>
    <path class="cls-20" d="M221.9,160.7h-1.2l-.2-.8c-.1-.1-.3-.2-.5-.2-.2-.1-.4-.1-.6-.1-.3,0-.5.1-.7.2s-.3.3-.3.5.1.4.3.5.5.2,1,.3c.8.2,1.4.4,1.8.7.4.3.6.7.6,1.3s-.3,1.1-.8,1.4c-.5.4-1.2.6-2,.6s-1-.1-1.4-.2-.8-.4-1.1-.6v-1.5h1.2l.2.8c.1.1.2.2.4.2s.4.1.6.1c.4,0,.6-.1.8-.2.2-.1.3-.3.3-.5s-.1-.4-.3-.5-.5-.3-1-.4c-.8-.2-1.3-.4-1.7-.7s-.6-.7-.6-1.2.2-1,.7-1.4,1.1-.6,1.9-.6,1,.1,1.4.2.8.3,1.1.5v1.6Z"/>
    <path class="cls-20" d="M226,165c-.9,0-1.7-.3-2.2-.9-.6-.6-.8-1.4-.8-2.3v-.2c0-1,.3-1.8.8-2.4.5-.6,1.2-.9,2.1-.9s1.5.3,2,.8.7,1.2.7,2.1v1h-3.9c0,.4.2.8.4,1.1.3.3.6.4,1,.4s.7,0,1-.1.5-.2.8-.4l.5,1.1c-.3.2-.6.4-1,.5s-.9.2-1.4.2ZM225.9,159.7c-.3,0-.6.1-.8.4-.2.2-.3.6-.3,1h2.1v-.2c0-.4-.1-.7-.3-.9,0-.2-.4-.3-.7-.3Z"/>
  </g>
  <g class="cls-28">
    <path class="cls-20" d="M229.6,163.9l.8-.2v-4l-.9-.2v-1.1h2.6v.9c.3-.3.4-.6.7-.8.2-.2.5-.3.8-.3h.3c.1,0,.2,0,.3.1l-.2,1.6h-.7c-.3,0-.5,0-.6.1-.2.1-.3.2-.4.4v3.1l.8.2v1h-3.4v-.8h-.1Z"/>
  </g>
  <g class="cls-28">
    <path class="cls-20" d="M237.5,159.5h-.6c0,.1.9,3,.9,3v.6h.1v-.6c.1,0,.9-2.9.9-2.9h-.6v-1.2h2.9v1.1h-.6c0,.1-1.9,5.4-1.9,5.4h-1.6l-1.9-5.3h-.6v-1.2h2.9v1.1h.1Z"/>
    <path class="cls-20" d="M241.6,163.9l.8-.2v-4l-.9-.2v-1.1h2.7v5.2l.8.2v1h-3.4v-.9h0ZM244.2,156.9h-1.7v-1.3h1.7v1.3Z"/>
    <path class="cls-20" d="M248.7,163.7c.3,0,.6-.1.7-.3.2-.2.3-.4.3-.7h1.6c0,.7-.2,1.2-.7,1.6-.5.4-1.1.7-1.9.7s-1.7-.3-2.2-.9c-.5-.6-.8-1.4-.8-2.3v-.2c0-1,.3-1.7.8-2.3s1.3-.9,2.3-.9,1,.1,1.4.2c.4.2.8.4,1,.7v1.7h-1.4l-.3-1c-.1-.1-.2-.1-.3-.2s-.3-.1-.4-.1c-.5,0-.8.2-1,.5-.2.4-.3.8-.3,1.4v.2c0,.6.1,1,.3,1.4,0,.3.4.5.9.5Z"/>
    <path class="cls-20" d="M255.2,165c-.9,0-1.7-.3-2.2-.9-.6-.6-.8-1.4-.8-2.3v-.2c0-1,.3-1.8.8-2.4.5-.6,1.2-.9,2.1-.9s1.5.3,2,.8.7,1.2.7,2.1v1h-3.9c0,.4.2.8.4,1.1.3.3.6.4,1,.4s.7,0,1-.1.5-.2.8-.4l.5,1.1c-.3.2-.6.4-1,.5s-.9.2-1.4.2ZM255,159.7c-.3,0-.6.1-.8.4-.2.2-.3.6-.3,1h2.1v-.2c0-.4-.1-.7-.3-.9,0-.2-.3-.3-.7-.3Z"/>
    <path class="cls-20" d="M260.6,164.7c0,.4-.1.8-.3,1.3-.2.5-.5.8-.8,1.1l-.9-.5c.2-.3.3-.6.4-.9.1-.3.1-.6.1-1v-1.3h1.6v1.3Z"/>
  </g>
  <g class="cls-28">
    <path class="cls-20" d="M164.3,174.6v-1.1h2.7v8.1l.8.2v1h-3.4v-1l.8-.2v-6.9h-.9Z"/>
    <path class="cls-20" d="M168.4,181.9l.8-.2v-4l-.9-.2v-1.1h2.7v5.2l.8.2v1h-3.4v-.9h0ZM171,174.9h-1.7v-1.3h1.7v1.3Z"/>
    <path class="cls-20" d="M178.6,179.9c0,1-.2,1.7-.6,2.3-.4.6-1.1.9-1.9.9s-.7-.1-1-.2c-.3-.2-.5-.4-.7-.7v.8h-1.6v-8.1l-.9-.2v-1.1h2.7v3.5c.2-.3.4-.5.7-.6s.6-.2.9-.2c.8,0,1.4.3,1.9.9.4.6.6,1.4.6,2.5v.2h0ZM176.9,179.7c0-.6-.1-1.1-.3-1.5s-.5-.6-.9-.6-.5.1-.7.2c-.2.1-.3.3-.4.5v2.7c.1.2.3.4.4.5.2.1.4.2.7.2.5,0,.8-.2.9-.5.2-.3.3-.8.3-1.3v-.2Z"/>
  </g>
  <g class="cls-28">
    <path class="cls-20" d="M179.6,181.9l.8-.2v-4l-.9-.2v-1.1h2.6v.9c.3-.3.4-.6.7-.8.2-.2.5-.3.8-.3h.3c.1,0,.2,0,.3.1l-.2,1.6h-.7c-.3,0-.5,0-.6.1-.2.1-.3.2-.4.4v3.1l.8.2v1h-3.4v-.8h-.1Z"/>
  </g>
  <g class="cls-28">
    <path class="cls-20" d="M188.6,182.9c0-.1-.1-.2-.1-.3s-.1-.2-.1-.3c-.2.2-.5.4-.8.6s-.6.2-1,.2c-.6,0-1.1-.2-1.5-.5s-.6-.8-.6-1.4.2-1.1.7-1.4c.5-.3,1.2-.5,2.1-.5h.9v-.6c0-.3-.1-.6-.3-.7-.2-.2-.4-.3-.8-.3s-.4,0-.5.1c-.2,0-.3.1-.4.2v.7h-1.4v-1.4c.3-.2.7-.4,1.1-.5.4-.1.9-.2,1.3-.2.8,0,1.5.2,2,.6.5.4.8,1,.8,1.7v3.3h.5v1.1h-1.9v-.4ZM187.1,181.7c.3,0,.5-.1.7-.2.2-.1.4-.3.5-.4v-1h-.9c-.4,0-.7.1-.8.3s-.3.4-.3.6.1.4.2.5c.1.2.3.2.6.2Z"/>
    <path class="cls-20" d="M191.3,181.9l.8-.2v-4l-.9-.2v-1.1h2.6v.9c.3-.3.4-.6.7-.8.2-.2.5-.3.8-.3h.3c.1,0,.2,0,.3.1l-.2,1.6h-.7c-.3,0-.5,0-.6.1-.2.1-.3.2-.4.4v3.1l.8.2v1h-3.4v-.8h-.1Z"/>
    <path class="cls-20" d="M196.3,181.9l.8-.2v-4l-.9-.2v-1.1h2.7v5.2l.8.2v1h-3.4v-.9h0ZM198.9,174.9h-1.7v-1.3h1.7v1.3Z"/>
    <path class="cls-20" d="M203.4,183c-.9,0-1.7-.3-2.2-.9-.6-.6-.8-1.4-.8-2.3v-.2c0-1,.3-1.8.8-2.4.5-.6,1.2-.9,2.1-.9s1.5.3,2,.8.7,1.2.7,2.1v1h-3.9c0,.4.2.8.4,1.1.3.3.6.4,1,.4s.7,0,1-.1.5-.2.8-.4l.5,1.1c-.3.2-.6.4-1,.5s-.9.2-1.4.2ZM203.2,177.7c-.3,0-.6.1-.8.4-.2.2-.3.6-.3,1h2.1v-.2c0-.4-.1-.7-.3-.9,0-.2-.3-.3-.7-.3Z"/>
    <path class="cls-20" d="M212.1,178.7h-1.2l-.2-.8c-.1-.1-.3-.2-.5-.2-.2-.1-.4-.1-.6-.1-.3,0-.6.1-.7.2-.2.1-.3.3-.3.5s.1.4.3.5.5.2,1,.3c.8.2,1.4.4,1.8.7.4.3.6.7.6,1.3s-.3,1.1-.8,1.4c-.5.4-1.2.6-2,.6s-1-.1-1.4-.2-.8-.4-1.1-.6v-1.5h1.2l.2.8c.1.1.2.2.4.2s.4.1.6.1c.4,0,.6-.1.8-.2.2-.1.3-.3.3-.5s-.1-.4-.3-.5-.5-.3-1-.4c-.8-.2-1.3-.4-1.7-.7s-.6-.7-.6-1.2.2-1,.7-1.4,1.1-.6,1.9-.6,1,.1,1.4.2c.4.1.8.3,1.1.5v1.6Z"/>
    <path class="cls-20" d="M219.1,181.7c.3,0,.6-.1.7-.3.2-.2.3-.4.3-.7h1.6c0,.7-.2,1.2-.7,1.6-.5.4-1.1.7-1.9.7s-1.7-.3-2.2-.9c-.5-.6-.8-1.4-.8-2.3v-.2c0-1,.3-1.7.8-2.3s1.3-.9,2.3-.9,1,.1,1.4.2c.4.2.8.4,1,.7v1.7h-1.4l-.3-1c-.1-.1-.2-.1-.3-.2-.1,0-.3-.1-.4-.1-.5,0-.8.2-1,.5-.2.4-.3.8-.3,1.4v.2c0,.6.1,1,.3,1.4,0,.3.5.5.9.5Z"/>
    <path class="cls-20" d="M222.6,179.6c0-1,.3-1.8.8-2.4.5-.6,1.3-.9,2.2-.9s1.7.3,2.2.9c.5.6.8,1.4.8,2.4h0c0,1.1-.3,1.9-.8,2.5s-1.3.9-2.2.9-1.7-.3-2.3-.9-.8-1.4-.8-2.4h0c0-.1.1-.1.1-.1ZM224.3,179.7c0,.6.1,1.1.3,1.4s.5.5,1,.5.8-.2,1-.5.3-.8.3-1.4h0c0-.7-.1-1.1-.3-1.5s-.5-.5-1-.5-.8.2-1,.5c-.2.4-.3.8-.3,1.4h0Z"/>
    <path class="cls-20" d="M229.3,181.9l.8-.2v-4l-.9-.2v-1.1h2.6v.9c.3-.3.6-.6.9-.8s.7-.3,1.1-.3c.7,0,1.2.2,1.5.6.4.4.5,1.1.5,1.9v2.8l.8.2v1h-3.3v-1l.7-.2v-2.8c0-.4-.1-.7-.3-.9s-.4-.3-.8-.3-.4,0-.6.1c-.2.1-.3.2-.5.4v3.5l.7.2v1h-3.3v-.8h0Z"/>
    <path class="cls-20" d="M237,177.7v-1.2h1v-.5c0-.8.2-1.4.7-1.9.5-.4,1.2-.7,2.1-.7s.6,0,.9.1.7.2,1.1.3l-.3,1.4c-.3-.1-.6-.2-.8-.2s-.5-.1-.8-.1-.7.1-.9.3-.3.5-.3.8v.4h3.9v5.2l.9.2v1h-3.5v-1l.8-.2v-4h-2.2v4l.8.2v1h-3.4v-1l.9-.2v-4h-.9Z"/>
    <path class="cls-20" d="M245.3,179.7c0-1,.2-1.8.7-2.5.4-.6,1.1-.9,1.9-.9s.7.1,1,.2c.3.2.5.4.7.7v-.8h1.6v6.3c0,.9-.3,1.5-.8,2s-1.3.8-2.2.8-.7,0-1-.1c-.4-.1-.7-.2-1-.4l.3-1.2c.3.1.6.2.8.3.3.1.6.1.9.1s.7-.1,1-.4c.2-.3.3-.6.3-1.1v-.4c-.2.2-.4.4-.7.6-.3.1-.6.2-.9.2-.8,0-1.4-.3-1.9-.9s-.7-1.4-.7-2.3v-.2h0ZM247,179.9c0,.6.1,1,.3,1.3s.5.5.9.5.5,0,.7-.1.3-.2.4-.4v-2.8c-.1-.2-.3-.3-.4-.5s-.4-.2-.7-.2-.7.2-.9.6c-.2.4-.3.9-.3,1.5h0Z"/>
    <path class="cls-20" d="M255,177.7v-1.2h1v-.5c0-.8.2-1.4.7-1.9.5-.4,1.2-.7,2.1-.7s.6,0,.9.1.7.2,1.1.3l-.3,1.4c-.3-.1-.6-.2-.8-.2s-.5-.1-.8-.1-.7.1-.9.3c-.2.2-.3.5-.3.8v.4h3.9v5.2l.9.2v1h-3.5v-1l.8-.2v-4h-2.2v4l.8.2v1h-3.4v-1l.9-.2v-4h-.9Z"/>
    <path class="cls-20" d="M263,174.6v-1.1h2.7v8.1l.8.2v1h-3.4v-1l.8-.2v-6.9h-.9Z"/>
    <path class="cls-20" d="M270.2,183c-.9,0-1.7-.3-2.2-.9s-.8-1.4-.8-2.3v-.2c0-1,.3-1.8.8-2.4.5-.6,1.2-.9,2.1-.9s1.5.3,2,.8.7,1.2.7,2.1v1h-3.9c0,.4.2.8.4,1.1.3.3.6.4,1,.4s.7,0,1-.1.5-.2.8-.4l.5,1.1c-.3.2-.6.4-1,.5-.4.2-.9.2-1.4.2ZM270,177.7c-.3,0-.6.1-.8.4s-.3.6-.3,1h2.1v-.2c0-.4-.1-.7-.3-.9-.1-.2-.3-.3-.7-.3Z"/>
    <path class="cls-20" d="M278.9,178.7h-1.2l-.2-.8c-.1-.1-.3-.2-.5-.2-.2-.1-.4-.1-.6-.1-.3,0-.5.1-.7.2-.2.1-.3.3-.3.5s.1.4.3.5c.2.1.5.2,1,.3.8.2,1.4.4,1.8.7s.6.7.6,1.3-.3,1.1-.8,1.4c-.5.4-1.2.6-2,.6s-1-.1-1.4-.2-.8-.4-1.1-.6v-1.5h1.2l.2.8c.1.1.2.2.4.2s.4.1.6.1c.4,0,.6-.1.8-.2s.3-.3.3-.5-.1-.4-.3-.5c-.2-.1-.5-.3-1-.4-.8-.2-1.3-.4-1.7-.7-.4-.3-.6-.7-.6-1.2s.2-1,.7-1.4,1.1-.6,1.9-.6,1,.1,1.4.2.8.3,1.1.5v1.6Z"/>
  </g>
  <g class="cls-28">
    <path class="cls-20" d="M377,151.4c.2,0,.4-.1.7-.1h2.3c.9,0,1.7.1,2.4.4.7.3,1.2.6,1.6,1.1s.7,1,.9,1.7c.2.7.3,1.4.3,2.1s-.1,1.4-.3,2.1c-.2.7-.5,1.2-.9,1.8-.4.5-1,.9-1.7,1.2s-1.5.5-2.5.5h-2.2c-.2,0-.5,0-.6-.1v-10.7ZM380.2,153h-1.2v7h1c.6,0,1.1-.1,1.4-.3.4-.2.7-.5.9-.8.2-.3.4-.7.5-1.2.1-.4.1-.9.1-1.4s0-.8-.1-1.2-.2-.8-.4-1.1c-.2-.3-.5-.6-.9-.8-.3,0-.7-.2-1.3-.2Z"/>
    <path class="cls-20" d="M386.3,158.1c0-1.3.3-2.2.9-2.9s1.5-1,2.6-1,1.1.1,1.6.3c.4.2.8.5,1.1.8.3.3.5.8.7,1.3.1.5.2,1,.2,1.6,0,1.3-.3,2.2-.9,2.9s-1.5,1-2.6,1-1.1-.1-1.6-.3c-.4-.2-.8-.5-1.1-.8-.3-.3-.5-.8-.7-1.3s-.2-1-.2-1.6ZM388.3,158.1c0,.3,0,.6.1.9.1.3.1.5.3.7.1.2.3.4.5.5s.4.2.7.2c.5,0,.9-.2,1.1-.6s.4-1,.4-1.8-.1-1.2-.3-1.7c-.2-.4-.6-.6-1.2-.6s-.9.2-1.1.5c-.4.5-.5,1.1-.5,1.9Z"/>
    <path class="cls-20" d="M400,161.4c-.3.2-.7.4-1.1.5s-.9.2-1.3.2c-.6,0-1.1-.1-1.5-.3s-.8-.5-1-.8c-.3-.3-.4-.8-.6-1.3-.1-.5-.2-1-.2-1.6,0-1.3.3-2.2.9-2.9s1.4-1,2.5-1,1,0,1.3.1.6.2.9.3l-.5,1.6c-.2-.1-.5-.2-.7-.3s-.5-.1-.8-.1c-.5,0-.9.2-1.2.5-.3.4-.4.9-.4,1.7s0,.6.1.9c.1.3.2.5.3.7s.3.4.5.5.5.2.8.2.6,0,.8-.1l.6-.3.6,1.5Z"/>
  </g>
  <g class="cls-28">
    <path class="cls-20" d="M403.6,158.8h-.5v3.1h-2v-10.5h2v6.2l.4-.2,1.7-3h2.1l-1.8,2.8-.8.6.8.6,2,3.5h-2.2l-1.7-3.1Z"/>
  </g>
  <g class="cls-28">
    <path class="cls-20" d="M414.4,161.2c-.3.2-.7.4-1.2.6s-1.1.2-1.6.2c-1.2,0-2.1-.4-2.7-1.1s-.8-1.7-.8-2.9.3-2.3.9-3,1.5-1,2.7-1,.8,0,1.1.2c.4.1.7.3,1,.5s.5.5.7.9.3.9.3,1.5v.7c0,.3-.1.5-.1.8h-4.7c0,.6.2,1.1.5,1.4s.8.5,1.4.5.8-.1,1.1-.2.6-.3.7-.4l.7,1.3ZM411.6,155.7c-.5,0-.9.2-1.1.5s-.4.7-.4,1.2h2.8c0-.5,0-1-.2-1.2-.4-.3-.7-.5-1.1-.5Z"/>
    <path class="cls-20" d="M420.1,156.2c-.3-.1-.6-.2-.8-.2-.4,0-.6.1-.9.3-.2.2-.4.4-.5.7v4.8h-2v-7.5h1.5l.2,1h.1c.2-.4.4-.7.7-.9.3-.2.6-.3,1-.3s.6.1.9.2l-.2,1.9Z"/>
    <path class="cls-20" d="M425,151.4h2v3.6h.1c.2-.2.5-.4.8-.6.3-.1.7-.2,1.1-.2.9,0,1.6.3,2.1.9.5.6.7,1.6.7,2.8s-.3,2.4-1,3.1-1.6,1-2.7,1-1.2-.1-1.8-.2c-.5-.1-.9-.2-1.2-.4v-10h-.1ZM428.4,155.8c-.4,0-.7.1-.9.3-.2.2-.4.5-.5.8v3.3c.2.1.3.1.5.2h.6c.5,0,.9-.2,1.2-.6.3-.4.4-1,.4-1.8,0-1.4-.4-2.2-1.3-2.2Z"/>
    <path class="cls-20" d="M435,154.4v4.3c0,.6.1,1,.2,1.3s.4.4.8.4.7-.1.9-.3.4-.5.5-.8v-4.8h2v5.2c0,.4,0,.8.1,1.2,0,.4.1.8.2,1.1h-1.5l-.3-1.1h-.1c-.2.4-.5.7-1,.9s-.9.4-1.5.4-.7,0-1-.2c-.3-.1-.5-.3-.8-.5-.2-.2-.4-.5-.5-.9s-.2-.9-.2-1.5v-4.7h2.2Z"/>
    <path class="cls-20" d="M441,152.3c0-.3.1-.5.3-.7s.5-.3.9-.3.7.1.9.3c.2.2.4.5.4.7s-.1.5-.4.7c-.2.2-.5.3-.9.3s-.7-.1-.9-.3-.3-.5-.3-.7ZM441.3,154.4h2v7.5h-2v-7.5Z"/>
    <path class="cls-20" d="M447.2,159.4c0,.3,0,.6.1.8s.2.2.4.2h.4c.1,0,.3-.1.4-.1l.2,1.5c-.2.1-.4.2-.7.2-.3.1-.7.1-1,.1-.6,0-1-.1-1.3-.4s-.5-.7-.5-1.3v-9h2v8Z"/>
    <path class="cls-20" d="M456,159.2v1.3c0,.5.1.9.1,1.4h-1.4l-.3-1h-.1c-.2.4-.5.6-.9.8s-.8.3-1.3.3c-.9,0-1.7-.3-2.2-.9-.5-.6-.8-1.6-.8-2.9s.3-2.3.9-3,1.4-1.1,2.5-1.1.6,0,.8.1c.2,0,.4.1.6.2v-3h2v7.8h0ZM452.6,160.4c.4,0,.7-.1.9-.3.2-.2.4-.5.5-.8v-3.2c-.1-.1-.3-.2-.5-.2-.2-.1-.4-.1-.7-.1-.6,0-1,.2-1.2.6-.3.4-.4,1-.4,1.9s.1,1.2.3,1.5c.3.4.7.6,1.1.6Z"/>
  </g>
  <g class="cls-28">
    <path class="cls-20" d="M571,248.5c.4,0,.7-.1.9-.3s.3-.5.3-.9h1.9c0,.8-.3,1.5-.9,2-.6.5-1.4.8-2.3.8s-2.1-.4-2.7-1.1-1-1.7-1-2.9v-.2c0-1.2.3-2.1,1-2.9.7-.8,1.6-1.1,2.8-1.1s1.2.1,1.7.3.9.5,1.3.8v2.1h-1.7l-.4-1.2c0-.1-.2-.2-.4-.2-.2-.1-.3-.1-.5-.1-.6,0-1,.2-1.3.7s-.4,1-.4,1.7v.2c0,.7,0,1.3.3,1.7.4.4.8.6,1.4.6Z"/>
    <path class="cls-20" d="M580.7,249c-.3.4-.6.7-.9.9-.4.2-.8.3-1.3.3-.8,0-1.5-.3-2-.8s-.7-1.4-.7-2.5v-3.3l-.9-.2v-1.4h3v4.8c0,.6,0,1,.3,1.2.2.3.5.4.9.4s.6-.1.9-.2c.2-.1.4-.3.6-.5v-4.3l-.9-.2v-1.2h3v6.4l1,.2v1.3h-2.8l-.2-.9Z"/>
    <path class="cls-20" d="M591,244.8h-1.4l-.2-1c0-.1-.3-.2-.6-.3-.2-.1-.5-.1-.7-.1-.4,0-.7.1-.9.3s-.3.4-.3.6,0,.4.3.6c.2.2.6.3,1.3.4,1,.2,1.7.5,2.2.9s.7.9.7,1.6-.3,1.3-.9,1.7c-.6.5-1.4.7-2.4.7s-1.2-.1-1.7-.3-1-.4-1.4-.8v-1.8h1.5l.3,1c0,.1.3.2.5.2.2.1.4.1.7.1s.8-.1,1-.2c.2-.2.3-.4.3-.6s0-.4-.3-.6c-.2-.2-.7-.3-1.3-.5-.9-.2-1.6-.5-2.1-.8-.5-.4-.7-.9-.7-1.5s.3-1.2.8-1.7,1.3-.7,2.3-.7,1.2.1,1.7.2c.5.2,1,.4,1.3.6v2Z"/>
  </g>
  <g class="cls-28">
    <path class="cls-20" d="M595.4,240.1v1.9h1.4v1.5h-1.4v4c0,.3,0,.5.2.7s.3.2.5.2h.4c0,0,.2,0,.4-.1l.2,1.5c-.2.1-.5.1-.7.2-.2,0-.5.1-.8.1-.7,0-1.3-.2-1.7-.6-.4-.4-.6-1-.6-1.9v-4h-1.2v-1.6h1.2v-1.9h2.1Z"/>
  </g>
  <g class="cls-28">
    <path class="cls-20" d="M597.6,245.9c0-1.2.3-2.2,1-2.9.7-.8,1.6-1.1,2.7-1.1s2.1.4,2.8,1.1c.7.8,1,1.7,1,2.9v.2c0,1.2-.3,2.2-1,2.9-.7.8-1.6,1.1-2.7,1.1s-2.1-.4-2.8-1.1c-.7-.7-1-1.7-1-2.9v-.2ZM599.7,246.1c0,.7,0,1.3.4,1.7.3.4.7.7,1.2.7s1-.2,1.2-.7c.3-.4.4-1,.4-1.7v-.2c0-.7,0-1.3-.4-1.7s-.7-.7-1.2-.7-1,.2-1.2.7-.4,1-.4,1.7v.2Z"/>
    <path class="cls-20" d="M605.8,243.3v-1.3h3.1v1c.4-.4.7-.7,1.1-.9s.8-.3,1.3-.3.9.1,1.3.3.6.6.8,1c.2-.4.6-.8,1-1s.8-.4,1.4-.4,1.4.3,1.8.8c.5.5.7,1.4.7,2.5v3.3l1,.2v1.3h-4.1v-1.3l.9-.2v-3.3c0-.6,0-1-.3-1.3s-.5-.4-.9-.4-.6.1-.8.2c-.2.1-.4.3-.5.6v4.1l.9.2v1.3h-3.9v-1.3l.9-.2v-3.3c0-.6,0-1-.3-1.2s-.5-.4-.9-.4-.5.1-.8.2c-.2.1-.4.3-.5.5v4.3l.9.2v1.3h-4.1v-1.3l1-.2v-4.9h-1Z"/>
    <path class="cls-20" d="M619.9,248.7l1-.2v-4.9l-1.1-.2v-1.4h3.3v6.4l1,.2v1.3h-4.2v-1.2ZM623.1,240.1h-2.1v-1.6h2.1v1.6Z"/>
  </g>
  <g class="cls-28">
    <path class="cls-20" d="M627.6,248.3h2.2v-1.1h1.7v2.7h-6.5v-1.3l3.8-5h-1.9v1h-1.7v-2.6h6.3v1.2l-3.9,5.1Z"/>
  </g>
  <g class="cls-28">
    <path class="cls-20" d="M636.3,250.1c-1.1,0-2.1-.4-2.7-1.1s-1-1.7-1-2.8v-.3c0-1.2.3-2.1,1-2.9.6-.8,1.5-1.1,2.6-1.1s1.9.3,2.5,1,.9,1.5.9,2.6v1.2h-4.7c0,.5.2,1,.5,1.3s.7.5,1.3.5.9,0,1.2-.1.7-.2,1-.5l.6,1.3c-.3.3-.8.5-1.3.7-.7.1-1.3.2-1.9.2ZM636.1,243.5c-.4,0-.7.2-.9.5s-.4.7-.4,1.2h2.6v-.2c0-.5,0-.8-.3-1.1-.2-.2-.6-.4-1-.4Z"/>
  </g>
  <g class="cls-28">
    <path class="cls-20" d="M822,199.8c1.3,0,2.4.4,3.2,1.2s1.3,1.9,1.3,3.2v1.8c0,1.3-.4,2.4-1.3,3.2-.8.8-1.9,1.2-3.2,1.2h-4.8v-1.3l1.1-.2v-7.7l-1.1-.2v-1.3h4.8ZM820.5,201.4v7.4h1.4c.8,0,1.4-.3,1.8-.8s.7-1.2.7-2v-1.8c0-.8-.2-1.5-.7-2-.4-.5-1-.8-1.8-.8h-1.4Z"/>
  </g>
  <g class="cls-28">
    <path class="cls-20" d="M831.4,210.6c-1.1,0-2.1-.4-2.7-1.1s-1-1.7-1-2.8v-.3c0-1.2.3-2.1,1-2.9.6-.8,1.5-1.1,2.6-1.1s1.9.3,2.5,1,.9,1.5.9,2.6v1.2h-4.7c0,.5.2,1,.5,1.3s.7.5,1.3.5.9,0,1.2-.1.7-.2,1-.5l.6,1.3c-.3.3-.8.5-1.3.7-.7.1-1.3.2-1.9.2ZM831.2,204c-.4,0-.7.2-.9.5s-.4.7-.4,1.2h2.6v-.2c0-.5,0-.8-.3-1.1-.3-.3-.6-.4-1-.4Z"/>
    <path class="cls-20" d="M838.7,203.8h-.7c0,.1,1,3.6,1,3.6v.7h0l.2-.7,1-3.5h-.8v-1.4h3.6v1.3h-.7c0,.1-2.3,6.6-2.3,6.6h-2l-2.3-6.5h-.7v-1.4h3.6v1.3h0Z"/>
  </g>
  <g class="cls-28">
    <path class="cls-20" d="M847.7,210.6c-1.1,0-2.1-.4-2.7-1.1s-1-1.7-1-2.8v-.3c0-1.2.3-2.1,1-2.9.6-.8,1.5-1.1,2.6-1.1s1.9.3,2.5,1,.9,1.5.9,2.6v1.2h-4.7c0,.5.2,1,.5,1.3s.7.5,1.3.5.9,0,1.2-.1.7-.2,1-.5l.6,1.3c-.3.3-.8.5-1.3.7s-1.2.2-1.9.2ZM847.5,204c-.4,0-.7.2-.9.5s-.4.7-.4,1.2h2.6v-.2c0-.5,0-.8-.3-1.1-.2-.3-.5-.4-1-.4Z"/>
  </g>
  <g class="cls-28">
    <path class="cls-20" d="M851.7,200.3v-1.3h3.3v9.9l1,.2v1.3h-4.2v-1.3l1-.2v-8.4l-1.1-.2Z"/>
  </g>
  <g class="cls-28">
    <path class="cls-20" d="M856.6,206.4c0-1.2.3-2.2,1-2.9.7-.8,1.6-1.1,2.7-1.1s2.1.4,2.8,1.1c.7.8,1,1.7,1,2.9v.2c0,1.2-.3,2.2-1,2.9-.7.8-1.6,1.1-2.7,1.1s-2.1-.4-2.8-1.1c-.7-.7-1-1.7-1-2.9v-.2ZM858.7,206.5c0,.7,0,1.3.4,1.7.3.4.7.7,1.2.7s1-.2,1.2-.7c.3-.4.4-1,.4-1.7v-.2c0-.7,0-1.3-.4-1.7s-.7-.7-1.2-.7-1,.2-1.2.7-.4,1-.4,1.7v.2Z"/>
    <path class="cls-20" d="M864.8,203.8v-1.3h3.1v.9c.3-.3.6-.6.9-.8s.7-.3,1.1-.3c1,0,1.7.4,2.3,1.1.5.8.8,1.8.8,3v.2c0,1.2-.3,2.1-.8,2.8s-1.3,1.1-2.3,1.1-.8-.1-1.1-.2c-.3-.2-.6-.4-.8-.7v2.3l1,.2v1.3h-4.2v-1.3l1-.2v-8h-1ZM871,206.5c0-.7,0-1.4-.4-1.8s-.6-.7-1.1-.7-.6.1-.8.2c-.2.1-.4.3-.5.6v3.5c0,.2.3.4.5.5s.5.2.8.2c.5,0,.9-.2,1.1-.6.2-.4.4-1,.4-1.6v-.3Z"/>
  </g>
  <g class="cls-28">
    <path class="cls-20" d="M873.8,203.8v-1.3h3.1v1c.4-.4.7-.7,1.1-.9s.8-.3,1.3-.3.9.1,1.3.3.6.6.8,1c.2-.4.6-.8,1-1s.8-.4,1.4-.4,1.4.3,1.8.8c.5.5.7,1.4.7,2.5v3.3l1,.2v1.3h-4.1v-1.3l.9-.2v-3.3c0-.6,0-1-.3-1.3s-.5-.4-.9-.4-.6.1-.8.2c-.2.1-.4.3-.5.6v4.1l.9.2v1.3h-3.9v-1.3l.9-.2v-3.3c0-.6,0-1-.3-1.2s-.5-.4-.9-.4-.5.1-.8.2c-.2.1-.4.3-.5.5v4.3l.9.2v1.3h-4.1v-1.3l1-.2v-4.8l-1-.2Z"/>
  </g>
  <g class="cls-28">
    <path class="cls-20" d="M891.7,210.6c-1.1,0-2.1-.4-2.7-1.1s-1-1.7-1-2.8v-.3c0-1.2.3-2.1,1-2.9.6-.8,1.5-1.1,2.6-1.1s1.9.3,2.5,1,.9,1.5.9,2.6v1.2h-4.7c0,.5.2,1,.5,1.3s.7.5,1.3.5.9,0,1.2-.1.7-.2,1-.5l.6,1.3c-.3.3-.8.5-1.3.7s-1.2.2-1.9.2ZM891.5,204c-.4,0-.7.2-.9.5s-.4.7-.4,1.2h2.6v-.2c0-.5,0-.8-.3-1.1-.2-.3-.5-.4-1-.4Z"/>
    <path class="cls-20" d="M895.8,209.1l1-.2v-4.9l-1.1-.2v-1.3h3.1v1.1c.4-.4.7-.7,1.1-.9s.8-.3,1.3-.3c.8,0,1.4.3,1.9.8s.7,1.3.7,2.4v3.4l1,.2v1.3h-4.1v-1.3l.9-.2v-3.4c0-.5,0-.9-.3-1.1-.2-.2-.5-.3-1-.3s-.5.1-.8.2c-.2.1-.4.3-.6.5v4.2l.9.2v1.3h-4v-1.5h0Z"/>
    <path class="cls-20" d="M908.6,200.6v1.9h1.4v1.5h-1.4v4c0,.3,0,.5.2.7s.3.2.5.2h.4c0,0,.2,0,.4-.1l.2,1.5c-.2.1-.5.1-.7.2-.2,0-.5.1-.8.1-.7,0-1.3-.2-1.7-.6-.4-.4-.6-1-.6-1.9v-4h-1.2v-1.5h1.2v-1.9h2.1Z"/>
  </g>
  <g class="cls-28">
    <path class="cls-20" d="M1009.6,247c0,1.6-.4,2.9-1.3,3.9s-2.1,1.5-3.5,1.5-2.6-.5-3.5-1.5-1.3-2.3-1.3-3.9v-.2c0-1.6.4-2.8,1.3-3.9s2-1.5,3.5-1.5,2.6.5,3.5,1.5,1.3,2.3,1.3,3.9v.2ZM1007.5,246.9c0-1.1-.2-2-.7-2.7s-1.1-1-2-1-1.6.3-2,1-.7,1.6-.7,2.7v.2c0,1.1.2,2,.7,2.7.4.7,1.1,1,2,1s1.6-.3,2-1c.5-.7.7-1.6.7-2.7v-.2Z"/>
    <path class="cls-20" d="M1010.4,245.7v-1.3h3.1v.9c.3-.3.6-.6.9-.8s.7-.3,1.1-.3c1,0,1.7.4,2.3,1.1.5.8.8,1.8.8,3v.2c0,1.2-.3,2.1-.8,2.8s-1.3,1.1-2.3,1.1-.8-.1-1.1-.2c-.3-.2-.6-.4-.8-.7v2.3l1,.2v1.3h-4.2v-1.3l1-.2v-8h-1ZM1016.5,248.4c0-.7,0-1.4-.4-1.8s-.6-.7-1.1-.7-.6.1-.8.2c-.2.1-.4.3-.5.6v3.5c0,.2.3.4.5.5s.5.2.8.2c.5,0,.9-.2,1.1-.6.2-.4.4-1,.4-1.6v-.3Z"/>
    <path class="cls-20" d="M1023.4,252.5c-1.1,0-2.1-.4-2.7-1.1s-1-1.7-1-2.8v-.3c0-1.2.3-2.1,1-2.9.6-.8,1.5-1.1,2.6-1.1s1.9.3,2.5,1c.6.6.9,1.5.9,2.6v1.2h-4.7c0,.5.2,1,.5,1.3s.7.5,1.3.5.9,0,1.2-.1c.3-.1.7-.2,1-.5l.6,1.3c-.3.3-.8.5-1.3.7-.7.1-1.3.2-1.9.2ZM1023.2,245.9c-.4,0-.7.2-.9.5s-.4.7-.4,1.2h2.6v-.2c0-.5,0-.8-.3-1.1-.2-.3-.6-.4-1-.4Z"/>
  </g>
  <g class="cls-28">
    <path class="cls-20" d="M1027.8,251l1-.2v-4.9l-1.1-.2v-1.3h3.1v1.2c.3-.4.5-.7.8-1s.6-.3,1-.3h.4c0,0,.2,0,.3.1l-.2,1.9h-.9c-.3,0-.6.1-.8.2s-.4.3-.5.5v3.9l1,.2v1.3h-4.2v-1.4h0Z"/>
  </g>
  <g class="cls-28">
    <path class="cls-20" d="M1038.8,252.3c0-.1,0-.3-.2-.4,0-.1,0-.3,0-.4-.3.3-.6.5-.9.7-.4.2-.8.3-1.2.3-.8,0-1.4-.2-1.8-.6-.5-.4-.7-1-.7-1.7s.3-1.3.9-1.7,1.5-.6,2.6-.6h1.1v-.9c0-.4,0-.7-.3-.9s-.5-.3-1-.3-.5,0-.7.1-.3.1-.5.2v.8h-1.7v-1.8c.4-.3.8-.5,1.3-.7s1.1-.3,1.7-.3c1,0,1.8.2,2.4.7s.9,1.2.9,2.1v3.9h.7v1.4h-2.5ZM1037,250.9c.3,0,.6-.1.9-.2.3-.1.5-.3.6-.5v-1.2h-1.1c-.5,0-.8.1-1,.3s-.4.5-.4.8,0,.5.3.6c0,0,.3.2.7.2Z"/>
  </g>
  <g class="cls-28">
    <path class="cls-20" d="M1044.6,242.4v1.9h1.4v1.5h-1.4v4c0,.3,0,.5.2.7s.3.2.5.2h.4c0,0,.2,0,.4-.1l.2,1.5c-.2.1-.5.1-.7.2-.2,0-.5.1-.8.1-.7,0-1.3-.2-1.7-.6-.4-.4-.6-1-.6-1.9v-4h-1.2v-1.5h1.2v-1.9h2.1Z"/>
    <path class="cls-20" d="M1046.9,251l1-.2v-4.9l-1.1-.2v-1.3h3.3v6.4l1,.2v1.3h-4.2v-1.3h0ZM1050.1,242.5h-2.1v-1.6h2.1v1.6Z"/>
    <path class="cls-20" d="M1051.8,248.3c0-1.2.3-2.2,1-2.9.7-.8,1.6-1.1,2.7-1.1s2.1.4,2.8,1.1c.7.8,1,1.7,1,2.9v.2c0,1.2-.3,2.2-1,2.9-.7.8-1.6,1.1-2.7,1.1s-2.1-.4-2.8-1.1c-.7-.7-1-1.7-1-2.9v-.2ZM1054,248.4c0,.7,0,1.3.4,1.7s.7.7,1.2.7,1-.2,1.2-.7c.3-.4.4-1,.4-1.7v-.2c0-.7,0-1.3-.4-1.7s-.7-.7-1.2-.7-1,.2-1.2.7-.4,1-.4,1.7v.2Z"/>
    <path class="cls-20" d="M1060.1,251l1-.2v-4.9l-1.1-.2v-1.3h3.1v1.1c.4-.4.7-.7,1.1-.9s.8-.3,1.3-.3c.8,0,1.4.3,1.9.8s.7,1.3.7,2.4v3.4l1,.2v1.3h-4.1v-1.4l.9-.2v-3.4c0-.5,0-.9-.3-1.1-.2-.2-.5-.3-1-.3s-.5.1-.8.2c-.2.1-.4.3-.6.5v4.2l.9.2v1.3h-4v-1.4Z"/>
    <path class="cls-20" d="M1076.2,247.1h-1.4l-.2-1c0-.1-.3-.2-.6-.3-.2-.1-.5-.1-.7-.1-.4,0-.7.1-.9.3-.2.2-.3.4-.3.6s0,.4.3.6c.2.2.6.3,1.3.4,1,.2,1.7.5,2.2.9s.7.9.7,1.6-.3,1.3-.9,1.7c-.6.5-1.4.7-2.4.7s-1.2-.1-1.7-.3-1-.4-1.4-.8v-1.8h1.5l.3,1c0,.1.3.2.5.2.2.1.4.1.7.1s.8-.1,1-.2c.2-.2.3-.4.3-.6s0-.4-.3-.6c-.2-.2-.7-.3-1.3-.5-.9-.2-1.6-.5-2.1-.8-.5-.4-.7-.9-.7-1.5s.3-1.2.8-1.7,1.3-.7,2.3-.7,1.2.1,1.7.2c.5.2,1,.4,1.3.6v2Z"/>
  </g>
  <path class="cls-10" d="M340.2,157.6c-.9,0-1.7-.7-1.7-1.7s.7-1.7,1.7-1.7,1.7.7,1.7,1.7c0,.9-.7,1.7-1.7,1.7q0,0,0,0Z"/>
  <path class="cls-10" d="M361.7,148.6c-.2-1.3-1-2.5-2.1-3.3l-.4-.3-.3.4c-.6.9-.9,2-.8,3.1.1.7.3,1.4.8,2l-1.1.5c-.7.3-1.5.4-2.3.3h-21.5v.5c-.2,1.6,0,3.2.7,4.6l.3.6h0c2,3.4,5.6,4.9,9.5,4.9,7.5,0,13.6-3.3,16.5-10.1,1.9.1,3.8-.4,4.7-2.2l.3-.4-.5-.2c-1.1-.6-2.5-.8-3.8-.4h0Z"/>
  <rect class="cls-10" x="347.2" y="146" width="3" height="2.9"/>
  <rect class="cls-10" x="347.2" y="140.8" width="3" height="2.9"/>
  <rect class="cls-10" x="352.3" y="146" width="3" height="2.9"/>
  <polygon class="cls-10" points="339.7 146 336.8 146 336.8 148.9 339.7 148.9 339.7 146"/>
  <rect class="cls-10" x="342" y="146" width="3" height="2.9"/>
  <rect class="cls-10" x="342" y="140.8" width="3" height="2.9"/>
  <rect class="cls-10" x="347.2" y="135.6" width="3" height="2.9"/>
  <line class="cls-8" x1="487.8" y1="172" x2="486.8" y2="172"/>
  <line class="cls-4" x1="484.8" y1="172" x2="324.9" y2="172"/>
  <line class="cls-8" x1="323.9" y1="172" x2="322.9" y2="172"/>
  <polygon class="cls-14" points="481.2 163.9 479.9 165.3 487.1 172 479.9 178.7 481.2 180.2 490 172 481.2 163.9"/>
  <line class="cls-2" x1="556.3" y1="284.2" x2="556.3" y2="283.2"/>
  <line class="cls-6" x1="556.3" y1="281.2" x2="556.3" y2="231.5"/>
  <line class="cls-2" x1="556.3" y1="230.6" x2="556.3" y2="229.6"/>
  <polygon class="cls-13" points="564.5 277.6 563 276.2 556.3 283.4 549.5 276.2 548.1 277.6 556.3 286.4 564.5 277.6"/>
  <g class="cls-28">
    <path class="cls-20" d="M377,42.5c.2,0,.4,0,.7,0h2.3c.9,0,1.7,0,2.4.4.7.3,1.2.6,1.6,1.1s.7,1,.9,1.7c.2.7.3,1.4.3,2.1s-.1,1.4-.3,2.1c-.2.7-.5,1.2-.9,1.8-.4.5-1,.9-1.7,1.2s-1.5.5-2.5.5h-2.2c-.2,0-.5,0-.6,0v-10.7ZM380.2,44.2h-1.2v7h1c.6,0,1.1,0,1.4-.3.4-.2.7-.5.9-.8.2-.3.4-.7.5-1.2.1-.4.1-.9.1-1.4s0-.8-.1-1.2-.2-.8-.4-1.1c-.2-.3-.5-.6-.9-.8-.3-.1-.7-.2-1.3-.2Z"/>
    <path class="cls-20" d="M386.3,49.3c0-1.3.3-2.2.9-2.9s1.5-1,2.6-1,1.1,0,1.6.3c.4.2.8.5,1.1.8.3.3.5.8.7,1.3.1.5.2,1,.2,1.6,0,1.3-.3,2.2-.9,2.9s-1.5,1-2.6,1-1.1,0-1.6-.3c-.4-.2-.8-.5-1.1-.8-.3-.3-.5-.8-.7-1.3s-.2-1-.2-1.6ZM388.3,49.3c0,.3,0,.6.1.9.1.3.1.5.3.7.1.2.3.4.5.5s.4.2.7.2c.5,0,.9-.2,1.1-.6s.4-1,.4-1.8-.1-1.2-.3-1.7c-.2-.4-.6-.6-1.2-.6s-.9.2-1.1.5c-.4.5-.5,1.1-.5,1.9Z"/>
    <path class="cls-20" d="M400,52.6c-.3.2-.7.4-1.1.5s-.9.2-1.3.2c-.6,0-1.1,0-1.5-.3s-.8-.5-1-.8c-.3-.3-.4-.8-.6-1.3-.1-.5-.2-1-.2-1.6,0-1.3.3-2.2.9-2.9s1.4-1,2.5-1,1,0,1.3,0,.6.2.9.3l-.5,1.6c-.2,0-.5-.2-.7-.3s-.5,0-.8,0c-.5,0-.9.2-1.2.5-.3.4-.4.9-.4,1.7s0,.6.1.9c.1.3.2.5.3.7s.3.4.5.5.5.2.8.2.6,0,.8,0c.2,0,.4-.2.6-.3l.6,1.5Z"/>
  </g>
  <g class="cls-28">
    <path class="cls-20" d="M403.6,49.9h-.5v3.1h-2v-10.5h2v6.2l.4-.2,1.7-3h2.1l-1.8,2.8-.8.6.8.6,2,3.5h-2.2l-1.7-3.1Z"/>
  </g>
  <g class="cls-28">
    <path class="cls-20" d="M414.4,52.4c-.3.2-.7.4-1.2.6s-1.1.2-1.6.2c-1.2,0-2.1-.4-2.7-1.1s-.8-1.7-.8-2.9.3-2.3.9-3,1.5-1,2.7-1,.8,0,1.1.2c.4,0,.7.3,1,.5s.5.5.7.9.3.9.3,1.5v.7c0,.3-.1.5-.1.8h-4.7c0,.6.2,1.1.5,1.4s.8.5,1.4.5.8,0,1.1-.2.6-.3.7-.4l.7,1.3ZM411.6,46.9c-.5,0-.9.2-1.1.5s-.4.7-.4,1.2h2.8c0-.5,0-1-.2-1.2-.4-.4-.7-.5-1.1-.5Z"/>
    <path class="cls-20" d="M420.1,47.4c-.3,0-.6-.2-.8-.2-.4,0-.6,0-.9.3-.2.2-.4.4-.5.7v4.8h-2v-7.5h1.5l.2,1h.1c.2-.4.4-.7.7-.9.3-.2.6-.3,1-.3s.6,0,.9.2l-.2,1.9Z"/>
    <path class="cls-20" d="M425,42.5h2v3.6h.1c.2-.2.5-.4.8-.6.3,0,.7-.2,1.1-.2.9,0,1.6.3,2.1.9.5.6.7,1.6.7,2.8s-.3,2.4-1,3.1-1.6,1-2.7,1-1.2,0-1.8-.2c-.5,0-.9-.2-1.2-.4v-10h-.1ZM428.4,47c-.4,0-.7,0-.9.3-.2.2-.4.5-.5.8v3.3c.2,0,.3,0,.5.2h.6c.5,0,.9-.2,1.2-.6.3-.4.4-1,.4-1.8,0-1.5-.4-2.2-1.3-2.2Z"/>
    <path class="cls-20" d="M435,45.5v4.3c0,.6.1,1,.2,1.3s.4.4.8.4.7,0,.9-.3.4-.5.5-.8v-4.8h2v5.2c0,.4,0,.8.1,1.2,0,.4.1.8.2,1.1h-1.5l-.3-1.1h-.1c-.2.4-.5.7-1,.9s-.9.4-1.5.4-.7,0-1-.2c-.3,0-.5-.3-.8-.5-.2-.2-.4-.5-.5-.9s-.2-.9-.2-1.5v-4.7s2.2,0,2.2,0Z"/>
    <path class="cls-20" d="M441,43.4c0-.3.1-.5.3-.7s.5-.3.9-.3.7,0,.9.3c.2.2.4.5.4.7s-.1.5-.4.7c-.2.2-.5.3-.9.3s-.7,0-.9-.3c-.2-.1-.3-.4-.3-.7ZM441.3,45.5h2v7.5h-2v-7.5Z"/>
    <path class="cls-20" d="M447.2,50.5c0,.3,0,.6.1.8s.2.2.4.2h.4c.1,0,.3,0,.4,0l.2,1.5c-.2,0-.4.2-.7.2-.3,0-.7,0-1,0-.6,0-1,0-1.3-.4s-.5-.7-.5-1.3v-9h2v8Z"/>
    <path class="cls-20" d="M456,50.4v1.3c0,.5.1.9.1,1.4h-1.4l-.3-1h-.1c-.2.4-.5.6-.9.8s-.8.3-1.3.3c-.9,0-1.7-.3-2.2-.9-.5-.6-.8-1.6-.8-2.9s.3-2.3.9-3,1.4-1.1,2.5-1.1.6,0,.8,0c.2,0,.4,0,.6.2v-3h2v7.8h0ZM452.6,51.6c.4,0,.7,0,.9-.3.2-.2.4-.5.5-.8v-3.2c-.1,0-.3-.2-.5-.2-.2,0-.4,0-.7,0-.6,0-1,.2-1.2.6-.3.4-.4,1-.4,1.9s.1,1.2.3,1.5c.3.4.7.6,1.1.6Z"/>
  </g>
  <path class="cls-10" d="M340.2,48.8c-.9,0-1.7-.7-1.7-1.7s.7-1.7,1.7-1.7,1.7.7,1.7,1.7c0,.9-.7,1.6-1.7,1.7q0,0,0,0Z"/>
  <path class="cls-10" d="M361.7,39.8c-.2-1.3-1-2.5-2.1-3.3l-.4-.3-.3.4c-.6.9-.9,2-.8,3.1.1.7.3,1.4.8,2l-1.1.5c-.7.3-1.5.4-2.3.3h-21.5v.5c-.2,1.6,0,3.2.7,4.6l.3.6h0c2,3.4,5.6,4.9,9.5,4.9,7.5,0,13.6-3.3,16.5-10.1,1.9,0,3.8-.4,4.7-2.2l.3-.5-.5-.2c-1.1-.6-2.5-.7-3.8-.3h0Z"/>
  <rect class="cls-10" x="347.2" y="37.2" width="3" height="2.9"/>
  <rect class="cls-10" x="347.2" y="32" width="3" height="2.9"/>
  <rect class="cls-10" x="352.3" y="37.2" width="3" height="2.9"/>
  <polygon class="cls-10" points="339.7 37.2 336.8 37.2 336.8 40.1 339.7 40.1 339.7 37.2"/>
  <rect class="cls-10" x="342" y="37.2" width="3" height="2.9"/>
  <rect class="cls-10" x="342" y="32" width="3" height="2.9"/>
  <rect class="cls-10" x="347.2" y="26.8" width="3" height="2.9"/>
  <line class="cls-8" x1="487.8" y1="63.2" x2="486.8" y2="63.2"/>
  <line class="cls-4" x1="484.8" y1="63.2" x2="324.9" y2="63.2"/>
  <line class="cls-8" x1="323.9" y1="63.2" x2="322.9" y2="63.2"/>
  <polygon class="cls-14" points="481.2 55 479.9 56.5 487.1 63.2 479.9 69.9 481.2 71.4 490 63.2 481.2 55"/>
  <g class="cls-28">
    <path class="cls-20" d="M378,302.6c.2,0,.4-.1.7-.1h2.3c.9,0,1.7.1,2.4.4.7.3,1.2.6,1.6,1.1s.7,1,.9,1.7c.2.7.3,1.4.3,2.1s-.1,1.4-.3,2.1c-.2.7-.5,1.2-.9,1.8-.4.5-1,.9-1.7,1.2-.7.3-1.5.5-2.5.5h-2.2c-.2,0-.5,0-.6-.1v-10.7ZM381.2,304.3h-1.2v7h1c.6,0,1.1-.1,1.4-.3.4-.2.7-.5.9-.8.2-.3.4-.7.5-1.2.1-.4.1-.9.1-1.4s0-.8-.1-1.2-.2-.8-.4-1.1c-.2-.3-.5-.6-.9-.8-.3-.1-.7-.2-1.3-.2Z"/>
    <path class="cls-20" d="M387.3,309.4c0-1.3.3-2.2.9-2.9.6-.7,1.5-1,2.6-1s1.1.1,1.6.3c.4.2.8.5,1.1.8.3.3.5.8.7,1.3.1.5.2,1,.2,1.6,0,1.3-.3,2.2-.9,2.9-.6.7-1.5,1-2.6,1s-1.1-.1-1.6-.3c-.4-.2-.8-.5-1.1-.8-.3-.3-.5-.8-.7-1.3s-.2-1-.2-1.6ZM389.3,309.4c0,.3,0,.6.1.9s.1.5.3.7c.1.2.3.4.5.5s.4.2.7.2c.5,0,.9-.2,1.1-.6s.4-1,.4-1.8-.1-1.2-.3-1.7c-.2-.4-.6-.6-1.2-.6s-.9.2-1.1.5c-.4.5-.5,1.1-.5,1.9Z"/>
    <path class="cls-20" d="M401,312.7c-.3.2-.7.4-1.1.5s-.9.2-1.3.2c-.6,0-1.1-.1-1.5-.3-.4-.2-.8-.5-1-.8-.3-.3-.4-.8-.6-1.3-.1-.5-.2-1-.2-1.6,0-1.3.3-2.2.9-2.9.6-.7,1.4-1,2.5-1s1,0,1.3.1.6.2.9.3l-.5,1.6c-.2-.1-.5-.2-.7-.3-.2-.1-.5-.1-.8-.1-.5,0-.9.2-1.2.5-.3.4-.4.9-.4,1.7s0,.6.1.9.2.5.3.7.3.4.5.5.5.2.8.2.6,0,.8-.1c.2-.1.4-.2.6-.3l.6,1.5Z"/>
  </g>
  <g class="cls-28">
    <path class="cls-20" d="M404.6,310h-.5v3.1h-2v-10.5h2v6.2l.4-.2,1.7-3h2.1l-1.8,2.8-.8.6.8.6,2,3.5h-2.2l-1.7-3.1Z"/>
  </g>
  <g class="cls-28">
    <path class="cls-20" d="M415.4,312.5c-.3.2-.7.4-1.2.6s-1.1.2-1.6.2c-1.2,0-2.1-.4-2.7-1.1s-.8-1.7-.8-2.9.3-2.3.9-3,1.5-1,2.7-1,.8,0,1.1.2c.4.1.7.3,1,.5s.5.5.7.9.3.9.3,1.5v.7c0,.3-.1.5-.1.8h-4.7c0,.6.2,1.1.5,1.4s.8.5,1.4.5.8-.1,1.1-.2.6-.3.7-.4l.7,1.3ZM412.6,307c-.5,0-.9.2-1.1.5s-.4.7-.4,1.2h2.8c0-.5,0-1-.2-1.2-.4-.4-.7-.5-1.1-.5Z"/>
    <path class="cls-20" d="M421.1,307.5c-.3-.1-.6-.2-.8-.2-.4,0-.6.1-.9.3-.2.2-.4.4-.5.7v4.8h-2v-7.5h1.5l.2,1h.1c.2-.4.4-.7.7-.9.3-.2.6-.3,1-.3s.6.1.9.2l-.2,1.9Z"/>
    <path class="cls-20" d="M432.4,310.5v1.3c0,.4.1.9.1,1.4h-1.4l-.3-1h-.1c-.2.4-.5.6-.9.8s-.8.3-1.3.3c-.9,0-1.7-.3-2.2-.9s-.8-1.6-.8-2.9.3-2.3.9-3,1.4-1.1,2.5-1.1.6,0,.8.1c.2,0,.4.1.6.2v-3h2v7.8h0ZM429.1,311.7c.4,0,.7-.1.9-.3s.4-.5.5-.8v-3.2c-.1-.1-.3-.2-.5-.2s-.4-.1-.7-.1c-.5,0-1,.2-1.2.6s-.4,1-.4,1.9.1,1.2.3,1.5c.2.4.6.6,1.1.6Z"/>
    <path class="cls-20" d="M440.1,312.5c-.3.2-.7.4-1.2.6s-1.1.2-1.6.2c-1.2,0-2.1-.4-2.7-1.1s-.8-1.7-.8-2.9.3-2.3.9-3,1.5-1,2.7-1,.8,0,1.1.2c.4.1.7.3,1,.5s.5.5.7.9.3.9.3,1.5v.7c0,.2-.1.5-.1.8h-4.5c0,.6.2,1.1.5,1.4s.8.5,1.4.5.8-.1,1.1-.2c.3-.1.6-.3.7-.4l.5,1.3ZM437.3,307c-.5,0-.9.2-1.1.5s-.4.7-.4,1.2h2.8c0-.5,0-1-.2-1.2s-.6-.5-1.1-.5Z"/>
    <path class="cls-20" d="M441.7,305.6h1.4l.2.9h.1c.3-.4.6-.7.9-.8.4-.2.8-.3,1.3-.3.9,0,1.6.3,2.1.9s.7,1.6.7,2.9-.1,1.2-.2,1.7-.4,1-.7,1.3c-.3.4-.7.6-1.1.8-.4.2-.9.3-1.5.3s-.6,0-.8-.1c-.2,0-.4-.1-.6-.2v3.1h-1.9v-10.5h.1ZM445.1,307.1c-.4,0-.7.1-.9.3s-.4.5-.5.9v3.1c.1.1.3.2.5.3.2.1.4.1.7.1.6,0,1-.2,1.3-.6s.4-1,.4-2-.1-1.2-.3-1.5c-.4-.4-.7-.6-1.2-.6Z"/>
    <path class="cls-20" d="M451.8,310.6c0,.3,0,.6.1.8s.2.2.4.2h.4c.1,0,.3-.1.4-.1l.2,1.5c-.2.1-.4.2-.7.2-.3.1-.7.1-1,.1-.6,0-1-.1-1.3-.4s-.5-.7-.5-1.3v-9h2v8Z"/>
  </g>
  <g class="cls-28">
    <path class="cls-20" d="M453.9,309.4c0-1.3.3-2.2.9-2.9.6-.7,1.5-1,2.6-1s1.1.1,1.6.3c.4.2.8.5,1.1.8.3.3.5.8.7,1.3.1.5.2,1,.2,1.6,0,1.3-.3,2.2-.9,2.9-.6.7-1.5,1-2.6,1s-1.1-.1-1.6-.3c-.4-.2-.8-.5-1.1-.8-.3-.3-.5-.8-.7-1.3s-.2-1-.2-1.6ZM455.9,309.4c0,.3,0,.6.1.9s.1.5.3.7c.1.2.3.4.5.5s.4.2.7.2c.5,0,.9-.2,1.1-.6s.4-1,.4-1.8-.1-1.2-.3-1.7c-.2-.4-.6-.6-1.2-.6s-.9.2-1.1.5c-.4.5-.5,1.1-.5,1.9Z"/>
  </g>
  <g class="cls-28">
    <path class="cls-20" d="M464.9,309.8l.3,1.2h.1l.2-1.2,1.1-4.2h2l-2.3,6.8c-.2.6-.4,1.1-.5,1.5s-.4.9-.6,1.2c-.2.3-.4.6-.7.8-.3.2-.6.3-.9.3-.5,0-.9-.1-1.2-.3l.4-1.6c.1.1.3.1.5.1s.5-.1.7-.3c.2-.2.4-.5.5-1.1l-3.1-7.5h2.3l1.2,4.3Z"/>
  </g>
  <g class="cls-28">
    <path class="cls-20" d="M353,352.2h-.5v4.5h-2.1v-10.5h2.1v4.7l.5-.2,2.9-4.4h2.3l-3.1,4.4-.8.6.8.6,3.5,4.9h-2.5l-3.1-4.6Z"/>
  </g>
  <g class="cls-28">
    <path class="cls-20" d="M361.3,349.2v4.3c0,.6.1,1,.2,1.3s.4.4.8.4.7-.1.9-.3.4-.5.5-.8v-4.8h1.9v5.2c0,.4,0,.8.1,1.2,0,.4.1.8.2,1.1h-1.5l-.3-1.1h-.1c-.2.4-.6.7-1,.9-.4.3-.9.4-1.5.4s-.7,0-1-.2c-.3-.1-.6-.3-.8-.5-.2-.2-.4-.5-.5-.9s-.2-.9-.2-1.5v-4.7h2.3Z"/>
    <path class="cls-20" d="M367.4,346.2h2v3.6h.1c.2-.2.5-.4.8-.6.3-.1.7-.2,1.1-.2.9,0,1.6.3,2.1.9s.7,1.6.7,2.8-.3,2.4-1,3.1-1.6,1-2.7,1-1.2-.1-1.8-.2c-.5-.1-.9-.2-1.2-.4v-10h-.1ZM370.8,350.6c-.4,0-.7.1-.9.3s-.4.5-.5.8v3.3c.2.1.3.1.5.2h.6c.5,0,.9-.2,1.2-.6.3-.4.4-1,.4-1.8,0-1.5-.4-2.2-1.3-2.2Z"/>
    <path class="cls-20" d="M381.5,356c-.3.2-.7.4-1.2.6s-1.1.2-1.6.2c-1.2,0-2.1-.4-2.7-1.1s-.8-1.7-.8-2.9.3-2.3.9-3,1.5-1,2.7-1,.8,0,1.1.2c.4.1.7.3,1,.5s.5.5.7.9.3.9.3,1.5v.7c0,.3-.1.5-.1.8h-4.5c0,.6.2,1.1.5,1.4s.8.5,1.4.5.8-.1,1.1-.2.6-.3.7-.4l.5,1.3ZM378.7,350.5c-.5,0-.9.2-1.1.5s-.4.7-.4,1.2h2.8c0-.5,0-1-.2-1.2-.3-.3-.7-.5-1.1-.5Z"/>
    <path class="cls-20" d="M387.2,351c-.3-.1-.6-.2-.8-.2-.3,0-.6.1-.9.3-.2.2-.4.4-.5.7v4.8h-2v-7.5h1.5l.2,1h.1c.2-.4.4-.7.7-.9.3-.2.6-.3,1-.3s.6.1.9.2l-.2,1.9Z"/>
    <path class="cls-20" d="M393,356.7v-4.3c0-.6-.1-1-.3-1.3-.2-.3-.5-.4-.9-.4s-.7.1-.9.3-.4.5-.5.8v4.9h-1.9v-7.5h1.5l.2,1h.1c.2-.3.5-.6.9-.8.4-.2.9-.4,1.5-.4s.7,0,1,.2c.3.1.5.3.7.5s.3.5.5.9c.1.4.1.9.1,1.5v4.7h-2Z"/>
    <path class="cls-20" d="M402.5,356c-.3.2-.7.4-1.2.6s-1.1.2-1.6.2c-1.2,0-2.1-.4-2.7-1.1s-.8-1.7-.8-2.9.3-2.3.9-3,1.5-1,2.7-1,.8,0,1.1.2c.4.1.7.3,1,.5s.5.5.7.9.3.9.3,1.5v.7c0,.2-.1.5-.1.8h-4.5c0,.6.2,1.1.5,1.4s.8.5,1.4.5.8-.1,1.1-.2c.3-.1.6-.3.7-.4l.5,1.3ZM399.8,350.5c-.5,0-.9.2-1.1.5s-.4.7-.4,1.2h2.8c0-.5,0-1-.2-1.2s-.7-.5-1.1-.5Z"/>
  </g>
  <g class="cls-28">
    <path class="cls-20" d="M403.4,349.2h1v-1.4l2-.6v2h1.8v1.7h-1.8v2.9c0,.5.1.9.2,1.1s.3.3.6.3.4,0,.5-.1c.1,0,.3-.1.5-.2l.3,1.5c-.3.1-.6.2-.9.3-.4.1-.7.1-1.1.1-.7,0-1.2-.2-1.5-.5-.3-.4-.5-.9-.5-1.7v-3.8h-1v-1.6h-.1Z"/>
  </g>
  <g class="cls-28">
    <path class="cls-20" d="M415.3,356c-.3.2-.7.4-1.2.6s-1.1.2-1.6.2c-1.2,0-2.1-.4-2.7-1.1s-.8-1.7-.8-2.9.3-2.3.9-3,1.5-1,2.7-1,.8,0,1.1.2c.4.1.7.3,1,.5s.5.5.7.9.3.9.3,1.5v.7c0,.3-.1.5-.1.8h-4.5c0,.6.2,1.1.5,1.4s.8.5,1.4.5.8-.1,1.1-.2.6-.3.7-.4l.5,1.3ZM412.5,350.5c-.5,0-.9.2-1.1.5s-.4.7-.4,1.2h2.8c0-.5,0-1-.2-1.2-.3-.3-.6-.5-1.1-.5Z"/>
    <path class="cls-20" d="M420.1,354.6c0-.2-.1-.4-.3-.5-.2-.1-.4-.2-.6-.3-.3-.1-.5-.2-.8-.3s-.6-.3-.8-.4c-.3-.2-.5-.4-.6-.7-.2-.3-.3-.7-.3-1.1,0-.7.2-1.3.7-1.7.4-.4,1.1-.6,1.9-.6s1.1.1,1.5.2.8.3,1.1.4l-.4,1.4c-.2-.1-.5-.2-.9-.3s-.7-.2-1.1-.2c-.6,0-.9.2-.9.7s.1.3.3.4c.2.1.4.2.6.3s.5.2.8.3c.3.1.6.3.8.4s.5.4.6.7c.2.3.3.6.3,1.1,0,.8-.2,1.4-.7,1.8s-1.2.7-2.2.7-1-.1-1.5-.2-.8-.3-1.1-.5l.5-1.5c.2.1.5.3.9.4s.8.2,1.2.2.5-.1.7-.2c.2,0,.3-.2.3-.5Z"/>
    <path class="cls-20" d="M427.4,346l1.5.7-5.4,12.1-1.5-.7,5.4-12.1Z"/>
    <path class="cls-20" d="M435.3,352.3h-3.8v4.4h-2.1v-10.5h2.1v4.3h3.8v-4.3h2.1v10.5h-2.1v-4.4Z"/>
    <path class="cls-20" d="M445.2,356c-.3.2-.7.4-1.2.6s-1.1.2-1.6.2c-1.2,0-2.1-.4-2.7-1.1s-.8-1.7-.8-2.9.3-2.3.9-3,1.5-1,2.7-1,.8,0,1.1.2c.4.1.7.3,1,.5s.5.5.7.9.3.9.3,1.5v.7c0,.2-.1.5-.1.8h-4.5c0,.6.2,1.1.5,1.4s.8.5,1.4.5.8-.1,1.1-.2c.3-.1.6-.3.7-.4l.5,1.3ZM442.4,350.5c-.5,0-.9.2-1.1.5s-.4.7-.4,1.2h2.8c0-.5,0-1-.2-1.2s-.7-.5-1.1-.5Z"/>
    <path class="cls-20" d="M448.8,354.1c0,.3,0,.6.1.8s.2.2.4.2h.4c.1,0,.3-.1.4-.1l.2,1.5c-.2.1-.4.2-.7.2-.3.1-.7.1-1,.1-.6,0-1-.1-1.3-.4s-.5-.7-.5-1.3v-9h2v8Z"/>
    <path class="cls-20" d="M455.4,356.7v-4.1c0-.7-.1-1.2-.2-1.5s-.4-.4-.8-.4-.6.1-.8.3-.4.4-.5.7v5h-1.9v-7.5h1.5l.2,1h.1c.2-.3.5-.6.9-.8.4-.2.8-.4,1.4-.4s.9.1,1.2.3c.3.2.5.5.7,1,.2-.4.5-.7.9-.9.4-.2.8-.3,1.3-.3s.8,0,1.1.2c.3.1.5.3.7.5s.3.6.4,1,.1.9.1,1.6v4.5h-2v-4.2c0-.6-.1-1-.2-1.3s-.4-.4-.8-.4-.6.1-.8.3-.4.5-.5.8v4.9h-2v-.3Z"/>
  </g>
  <path class="cls-10" d="M341.2,308.9c-.9,0-1.7-.7-1.7-1.7s.7-1.7,1.7-1.7,1.7.7,1.7,1.7-.7,1.6-1.7,1.7q0,0,0,0Z"/>
  <path class="cls-10" d="M362.7,299.9c-.2-1.3-1-2.5-2.1-3.3l-.4-.4-.3.5c-.6.9-.9,2-.8,3.1.1.7.3,1.4.8,2-.3.1-.8.3-1.1.5-.7.3-1.5.4-2.3.4h-21.5v.5c-.2,1.6,0,3.2.7,4.6l.3.6h0c2,3.4,5.6,4.9,9.5,4.9,7.5,0,13.6-3.3,16.5-10.1,1.9.1,3.8-.5,4.7-2.2l.3-.4-.5-.2c-1.1-.7-2.5-.9-3.8-.5h0Z"/>
  <rect class="cls-10" x="348.2" y="297.3" width="3" height="2.9"/>
  <rect class="cls-10" x="348.2" y="292.1" width="3" height="2.9"/>
  <rect class="cls-10" x="353.3" y="297.3" width="3" height="2.9"/>
  <polygon class="cls-10" points="340.7 297.3 337.8 297.3 337.8 300.2 340.7 300.2 340.7 297.3"/>
  <rect class="cls-10" x="343" y="297.3" width="3" height="2.9"/>
  <rect class="cls-10" x="343" y="292.1" width="3" height="2.9"/>
  <rect class="cls-10" x="348.2" y="286.9" width="3" height="2.9"/>
  <line class="cls-8" x1="487.8" y1="324.3" x2="486.8" y2="324.3"/>
  <line class="cls-4" x1="484.8" y1="324.3" x2="324.9" y2="324.3"/>
  <line class="cls-8" x1="323.9" y1="324.3" x2="322.9" y2="324.3"/>
  <polygon class="cls-14" points="481.2 316.1 479.9 317.6 487.1 324.3 479.9 331 481.2 332.5 490 324.3 481.2 316.1"/>
  <line class="cls-1" x1="487.8" y1="363.6" x2="486.8" y2="363.6"/>
  <line class="cls-5" x1="484.8" y1="363.6" x2="324.9" y2="363.6"/>
  <line class="cls-1" x1="323.9" y1="363.6" x2="322.9" y2="363.6"/>
  <polygon class="cls-20" points="481.2 355.4 479.9 356.9 487.1 363.6 479.9 370.3 481.2 371.8 490 363.6 481.2 355.4"/>
  <g class="cls-28">
    <path class="cls-20" d="M191.9,322.4h-1.3l-.2-1.2c-.2-.2-.4-.3-.6-.4-.3-.1-.6-.1-.9-.1-.8,0-1.3.3-1.7.8s-.6,1.3-.6,2.2v.3c0,.9.2,1.6.6,2.2s1,.8,1.7.8.7,0,.9-.1c.3-.1.5-.2.7-.4l.2-1.2h1.3v1.7c-.4.4-.8.7-1.3,1s-1.2.4-1.8.4c-1.2,0-2.1-.4-2.9-1.2s-1.1-1.8-1.1-3.1v-.3c0-1.3.4-2.3,1.1-3.1.7-.8,1.7-1.2,2.9-1.2s1.3.1,1.8.4c.5.2,1,.6,1.3,1v1.5h0Z"/>
    <path class="cls-20" d="M192.8,324.9c0-1,.3-1.8.8-2.4s1.3-.9,2.2-.9,1.7.3,2.2.9.8,1.4.8,2.4h0c0,1.1-.3,1.9-.8,2.5s-1.3.9-2.2.9-1.7-.3-2.3-.9c-.5-.6-.8-1.4-.8-2.4h0c0-.1.1-.1.1-.1ZM194.5,325c0,.6.1,1.1.3,1.4.2.4.5.5,1,.5s.8-.2,1-.5c.2-.4.3-.8.3-1.4h0c0-.7-.1-1.1-.3-1.5s-.5-.5-1-.5-.8.2-1,.5c-.2.4-.3.8-.3,1.4h0Z"/>
    <path class="cls-20" d="M199.4,322.8v-1.1h2.6v.9c.3-.3.6-.6.9-.7.3-.2.7-.3,1.1-.3s.8.1,1.1.3c.3.2.5.5.7.8.2-.3.5-.6.8-.8s.7-.3,1.1-.3c.6,0,1.1.2,1.5.7.4.4.6,1.1.6,2v2.7l.8.2v1h-3.3v-1l.8-.2v-2.7c0-.5-.1-.8-.2-1-.2-.2-.4-.3-.7-.3s-.5.1-.6.2c-.2.1-.3.3-.4.5v3.4l.7.2v1h-3.1v-1l.7-.2v-2.7c0-.5-.1-.8-.2-1-.2-.2-.4-.3-.7-.3s-.4,0-.6.1c-.2.1-.3.2-.4.4v3.5l.8.2v1h-3.3v-1l.8-.2v-4l-1.5-.3Z"/>
    <path class="cls-20" d="M210.9,322.8v-1.1h2.5v.8c.3-.3.5-.5.8-.6.3-.2.6-.2.9-.2.8,0,1.4.3,1.9.9.4.6.7,1.4.7,2.5h0c0,1.1-.2,1.8-.7,2.4-.4.6-1.1.9-1.9.9s-.6-.1-.9-.2c-.3-.1-.5-.3-.7-.6v1.9l.8.2v1.1h-3.3v-1.1l.8-.2v-6.5l-.9-.2ZM215.9,325c0-.6-.1-1.1-.3-1.5s-.5-.6-.9-.6-.5.1-.7.2-.3.3-.4.5v2.8c.1.2.3.3.4.4.2.1.4.1.7.1s.7-.2.9-.5.3-.8.3-1.3h0Z"/>
    <path class="cls-20" d="M218.4,324.9c0-1,.3-1.8.8-2.4s1.3-.9,2.2-.9,1.7.3,2.2.9.8,1.4.8,2.4h0c0,1.1-.3,1.9-.8,2.5s-1.3.9-2.2.9-1.7-.3-2.3-.9-.8-1.4-.8-2.4h0c0-.1.1-.1.1-.1ZM220.2,325c0,.6.1,1.1.3,1.4s.5.5,1,.5.8-.2,1-.5.3-.8.3-1.4h0c0-.7-.1-1.1-.3-1.5s-.5-.5-1-.5-.8.2-1,.5c-.2.4-.3.8-.3,1.4h0Z"/>
    <path class="cls-20" d="M230.6,323.9h-1.2l-.2-.8c-.1-.1-.3-.2-.5-.2-.2-.1-.4-.1-.6-.1-.3,0-.5.1-.7.2s-.3.3-.3.5.1.4.3.5.5.2,1,.3c.8.2,1.4.4,1.8.7.4.3.6.7.6,1.3s-.3,1.1-.8,1.4c-.5.4-1.2.6-2,.6s-1-.1-1.4-.2-.8-.4-1.1-.6v-1.5h1.2l.2.8c.1.1.2.2.4.2s.4.1.6.1c.4,0,.6-.1.8-.2s.3-.3.3-.5-.1-.4-.3-.5-.5-.3-1-.4c-.8-.2-1.3-.4-1.7-.7-.4-.3-.6-.7-.6-1.2s.2-1,.7-1.4,1.1-.6,1.9-.6,1,.1,1.4.2.8.3,1.1.5v1.6Z"/>
    <path class="cls-20" d="M234.7,328.3c-.9,0-1.7-.3-2.2-.9s-.8-1.4-.8-2.3v-.2c0-1,.3-1.8.8-2.4s1.2-.9,2.1-.9,1.5.3,2,.8.7,1.2.7,2.1v1h-3.9c0,.4.2.8.4,1.1.3.3.6.4,1,.4s.7,0,1-.1.5-.2.8-.4l.5,1.1c-.3.2-.6.4-1,.5-.4.1-.9.2-1.4.2ZM234.5,322.9c-.3,0-.6.1-.8.4s-.3.6-.3,1h2.1v-.2c0-.4-.1-.7-.3-.9,0-.2-.3-.3-.7-.3Z"/>
    <path class="cls-20" d="M241,322.9v-1.2h1v-.4c0-.8.2-1.4.7-1.9.5-.4,1.2-.7,2.1-.7s.6,0,.9.1.7.2,1.1.3l-.3,1.4c-.3-.1-.6-.2-.8-.2s-.5-.1-.8-.1-.7.1-.9.3c-.2.2-.3.5-.3.8v.4h3.9v5.2l.9.2v1h-3.5v-1l.8-.2v-4h-2.2v4l.8.2v1h-3.4v-1l.9-.2v-4h-.9Z"/>
    <path class="cls-20" d="M248.9,319.9v-1.1h2.7v8.1l.8.2v1h-3.4v-1l.8-.2v-6.9h-.9Z"/>
    <path class="cls-20" d="M256.1,328.3c-.9,0-1.7-.3-2.2-.9s-.8-1.4-.8-2.3v-.2c0-1,.3-1.8.8-2.4s1.2-.9,2.1-.9,1.5.3,2,.8.7,1.2.7,2.1v1h-3.9c0,.4.2.8.4,1.1.3.3.6.4,1,.4s.7,0,1-.1.5-.2.8-.4l.5,1.1c-.3.2-.6.4-1,.5s-.9.2-1.4.2ZM256,322.9c-.3,0-.6.1-.8.4s-.3.6-.3,1h2.1v-.2c0-.4-.1-.7-.3-.9-.1-.2-.4-.3-.7-.3Z"/>
  </g>
  <path class="cls-1" d="M143.8,348.1h154.2c2.8,0,5,2.2,5,5v20.6c0,2.8-2.2,5-5,5h-154.2c-2.8,0-5-2.2-5-5v-20.6c0-2.8,2.2-5,5-5Z"/>
  <g class="cls-28">
    <path class="cls-20" d="M195.8,360.7v-1.1h3.6v1.1l-.9.2v2.5h3.5v-2.5l-.9-.2v-1.1h3.5v1.1l-.9.2v6.2l.9.2v1h-3.6v-1l.9-.2v-2.4h-3.5v2.4l.9.2v1h-3.6v-1l.9-.2v-6.2l-.8-.2Z"/>
    <path class="cls-20" d="M208.5,368.5c-.9,0-1.7-.3-2.2-.9-.6-.6-.8-1.4-.8-2.3v-.2c0-1,.3-1.8.8-2.4s1.2-.9,2.1-.9,1.5.3,2,.8.7,1.2.7,2.1v1h-3.9c0,.4.2.8.4,1.1.3.3.6.4,1,.4s.7,0,1-.1.5-.2.8-.4l.5,1.1c-.3.2-.6.4-1,.5s-.9.2-1.4.2ZM208.3,363.1c-.3,0-.6.1-.8.4-.2.2-.3.6-.3,1h2.1v-.2c0-.4-.1-.7-.3-.9-.1-.2-.3-.3-.7-.3Z"/>
    <path class="cls-20" d="M211.7,360.1v-1.1h2.7v8.1l.8.2v1h-3.4v-1l.8-.2v-6.9h-.9Z"/>
    <path class="cls-20" d="M215.6,362.9v-1.1h2.6v.9c.3-.3.6-.6.9-.7.3-.2.7-.3,1.1-.3s.8.1,1.1.3c.3.2.5.5.7.8.2-.3.5-.6.8-.8s.7-.3,1.1-.3c.6,0,1.1.2,1.5.7.4.4.6,1.1.6,2v2.7l.8.2v1h-3.3v-1l.8-.2v-2.7c0-.5-.1-.8-.2-1-.2-.2-.4-.3-.7-.3s-.5.1-.6.2c-.2.1-.3.3-.4.5v3.4l.7.2v1h-3.1v-1l.7-.2v-2.7c0-.5-.1-.8-.2-1-.2-.2-.4-.3-.7-.3s-.4,0-.6.1c-.2.1-.3.2-.4.4v3.5l.8.2v1h-3.3v-1l.8-.2v-4l-1.5-.3Z"/>
    <path class="cls-20" d="M230,363.1v-1.2h1v-.4c0-.8.2-1.4.7-1.9.5-.4,1.2-.7,2.1-.7s.6,0,.9.1.7.2,1.1.3l-.3,1.4c-.3-.1-.6-.2-.8-.2s-.5-.1-.8-.1-.7.1-.9.3c-.2.2-.3.5-.3.8v.4h3.9v5.2l.9.2v1h-3.5v-1l.8-.2v-4h-2.2v4l.8.2v1h-3.4v-1l.9-.2v-4h-.9Z"/>
    <path class="cls-20" d="M238,360.1v-1.1h2.7v8.1l.8.2v1h-3.4v-1l.8-.2v-6.9h-.9Z"/>
    <path class="cls-20" d="M245.2,368.5c-.9,0-1.7-.3-2.2-.9s-.8-1.4-.8-2.3v-.2c0-1,.3-1.8.8-2.4s1.2-.9,2.1-.9,1.5.3,2,.8.7,1.2.7,2.1v1h-3.9c0,.4.2.8.4,1.1.3.3.6.4,1,.4s.7,0,1-.1.5-.2.8-.4l.5,1.1c-.3.2-.6.4-1,.5-.4,0-.9.2-1.4.2ZM245,363.1c-.3,0-.6.1-.8.4s-.3.6-.3,1h2.1v-.2c0-.4-.1-.7-.3-.9,0-.2-.3-.3-.7-.3Z"/>
  </g>
  <path class="cls-7" d="M869.9,317.6h154.2c2.8,0,5,2.2,5,5v56.5c0,2.8-2.2,5-5,5h-154.2c-2.8,0-5-2.2-5-5v-56.5c0-2.7,2.2-5,5-5Z"/>
  <g class="cls-28">
    <path class="cls-20" d="M918.8,342.6h-1.3l-.2-1.2c-.2-.2-.4-.3-.6-.4s-.6-.1-.9-.1c-.8,0-1.3.3-1.7.8s-.6,1.3-.6,2.2v.3c0,.9.2,1.6.6,2.2s1,.8,1.7.8.7,0,.9-.1c.3-.1.5-.2.7-.4l.2-1.2h1.3v1.7c-.4.4-.8.7-1.3,1s-1.2.4-1.8.4c-1.2,0-2.1-.4-2.9-1.2s-1.1-1.8-1.1-3.1v-.3c0-1.3.4-2.3,1.1-3.1.7-.8,1.7-1.2,2.9-1.2s1.3.1,1.8.4c.5.2,1,.6,1.3,1v1.5h-.1Z"/>
    <path class="cls-20" d="M919.7,345c0-1,.3-1.8.8-2.4s1.3-.9,2.2-.9,1.7.3,2.2.9.8,1.4.8,2.4h0c0,1.1-.3,1.9-.8,2.5s-1.3.9-2.2.9-1.7-.3-2.3-.9c-.5-.6-.8-1.4-.8-2.4h0c0-.1,0-.1,0-.1ZM921.4,345.2c0,.6,0,1.1.3,1.4.2.4.5.5,1,.5s.8-.2,1-.5c.2-.4.3-.8.3-1.4v-.2c0-.6,0-1-.3-1.4s-.5-.5-1-.5-.8.2-1,.5c-.2.4-.3.8-.3,1.4v.2Z"/>
    <path class="cls-20" d="M926.4,347.3l.8-.2v-4l-.9-.2v-1.1h2.6v.9c.3-.3.6-.6.9-.8.3-.2.7-.3,1.1-.3.7,0,1.2.2,1.5.6.4.4.5,1.1.5,1.9v2.8l.8.2v1h-3.3v-1l.7-.2v-2.8c0-.4,0-.7-.3-.9-.2-.2-.4-.3-.8-.3s-.4,0-.6.1c-.2.1-.3.2-.5.4v3.5l.7.2v1h-3.3v-.8h.1Z"/>
    <path class="cls-20" d="M934.1,343.1v-1.2h1v-.4c0-.8.2-1.4.7-1.9.5-.4,1.2-.7,2.1-.7s.6,0,.9.1.7.2,1.1.3l-.3,1.4c-.3-.1-.6-.2-.8-.2s-.5-.1-.8-.1-.7.1-.9.3c-.2.2-.3.5-.3.8v.4h3.9v5.2l.9.2v1h-3.5v-1l.8-.2v-4h-2.2v4l.8.2v1h-3.5v-1l.9-.2v-4h-.8Z"/>
    <path class="cls-20" d="M946.5,347.6c-.2.3-.4.5-.7.7s-.6.2-.9.2c-.8,0-1.4-.3-1.9-.9s-.7-1.4-.7-2.3h0c0-1.1.2-1.9.7-2.6.4-.6,1.1-.9,1.9-.9s.6.1.9.2.5.3.7.6v-2.3l-.9-.2v-1.1h2.6v8.1l.8.2v1h-2.3l-.2-.7ZM944.1,345.3c0,.6,0,1,.3,1.3s.5.5.9.5.5-.1.7-.2.3-.3.5-.4v-2.7c0-.2-.3-.4-.5-.5s-.4-.2-.7-.2-.7.2-.9.6-.3.9-.3,1.5h0Z"/>
    <path class="cls-20" d="M952.6,348.5c-.9,0-1.7-.3-2.2-.9s-.8-1.4-.8-2.3v-.2c0-1,.3-1.8.8-2.4s1.2-.9,2.1-.9,1.5.3,2,.8.7,1.2.7,2.1v1h-3.9c0,.4.2.8.4,1.1.3.3.6.4,1,.4s.7,0,1-.1.5-.2.8-.4l.5,1.1c-.3.2-.6.4-1,.5-.4,0-.8.2-1.4.2ZM952.5,343.1c-.3,0-.6.1-.8.4s-.3.6-.3,1h2.1v-.2c0-.4,0-.7-.3-.9-.1-.2-.4-.3-.7-.3Z"/>
    <path class="cls-20" d="M956,347.3l.8-.2v-4l-.9-.2v-1.1h2.6v.9c.3-.3.6-.6.9-.8.3-.2.7-.3,1.1-.3.7,0,1.2.2,1.5.6.4.4.5,1.1.5,1.9v2.8l.8.2v1h-3.3v-1l.7-.2v-2.8c0-.4,0-.7-.3-.9-.2-.2-.4-.3-.8-.3s-.4,0-.6.1c-.2.1-.3.2-.5.4v3.5l.7.2v1h-3.2v-.8Z"/>
    <path class="cls-20" d="M966.4,340.3v1.6h1.1v1.2h-1.1v3.3c0,.3,0,.4.2.5s.2.2.4.2h.3c0,0,.2,0,.3-.1v1.3c-.1.1-.3.1-.5.1h-.6c-.6,0-1.1-.2-1.4-.5-.3-.3-.5-.9-.5-1.6v-3.3h-1v-1.2h1v-1.6h1.8Z"/>
    <path class="cls-20" d="M968.3,347.3l.8-.2v-4l-.9-.2v-1.1h2.7v5.2l.8.2v1h-3.4v-.9h0ZM970.9,340.3h-1.7v-1.3h1.7v1.3Z"/>
    <path class="cls-20" d="M976.5,348.3c0-.1,0-.2,0-.3s0-.2,0-.3c-.2.2-.5.4-.8.6s-.6.2-1,.2c-.6,0-1.1-.2-1.5-.5s-.6-.8-.6-1.4.2-1.1.7-1.4,1.2-.5,2.1-.5h.9v-.7c0-.3,0-.6-.3-.7-.2-.2-.4-.3-.8-.3s-.4,0-.5.1-.3.1-.4.2v.7h-1.4v-1.4c.3-.2.7-.4,1.1-.5.4-.1.9-.2,1.3-.2.8,0,1.5.2,2,.6s.8,1,.8,1.7v3.3h.5v1.1h-1.9v-.3ZM974.9,347.2c.3,0,.5-.1.7-.2s.4-.3.5-.4v-1h-.9c-.4,0-.7.1-.8.3-.2.2-.3.4-.3.6s0,.4.2.5c.2.1.4.2.6.2Z"/>
    <path class="cls-20" d="M978.9,340.1v-1.1h2.7v8.1l.8.2v1h-3.4v-1l.8-.2v-6.9h-.9Z"/>
  </g>
  <g class="cls-28">
    <path class="cls-20" d="M878.9,365.1c.3,0,.6-.1.7-.3.2-.2.3-.4.3-.7h1.6c0,.7-.2,1.2-.7,1.6s-1.1.7-1.9.7-1.7-.3-2.2-.9-.8-1.4-.8-2.3v-.2c0-1,.3-1.7.8-2.3.5-.6,1.3-.9,2.3-.9s1,.1,1.4.2c.4.2.8.4,1,.7v1.7h-1.4l-.3-1c0-.1-.2-.1-.3-.2,0,0-.3-.1-.4-.1-.5,0-.8.2-1,.5-.2.4-.3.8-.3,1.4v.2c0,.6,0,1,.3,1.4,0,.4.4.5.9.5Z"/>
  </g>
  <g class="cls-28">
    <path class="cls-20" d="M882.1,358.1v-1.1h2.7v8.1l.8.2v1h-3.4v-1l.8-.2v-6.9h-.9Z"/>
  </g>
  <g class="cls-28">
    <path class="cls-20" d="M886.1,363c0-1,.3-1.8.8-2.4s1.3-.9,2.2-.9,1.7.3,2.2.9.8,1.4.8,2.4h0c0,1.1-.3,1.9-.8,2.5s-1.3.9-2.2.9-1.7-.3-2.3-.9-.8-1.4-.8-2.4h0c0-.1,0-.1,0-.1ZM887.8,363.2c0,.6,0,1.1.3,1.4s.5.5,1,.5.8-.2,1-.5.3-.8.3-1.4v-.2c0-.6,0-1-.3-1.4s-.5-.5-1-.5-.8.2-1,.5c-.2.4-.3.8-.3,1.4v.2Z"/>
    <path class="cls-20" d="M897.5,365.5c-.2.3-.5.5-.8.7s-.7.2-1,.2c-.7,0-1.2-.2-1.6-.7-.4-.4-.6-1.1-.6-2v-2.7l-.7-.2v-1.1h2.4v3.9c0,.5,0,.8.2,1s.4.3.7.3.5,0,.7-.1.4-.2.5-.4v-3.5l-.8-.2v-1.1h2.5v5.2l.8.2v1h-2.3v-.5Z"/>
    <path class="cls-20" d="M904.8,365.6c-.2.3-.4.5-.7.7s-.6.2-.9.2c-.8,0-1.4-.3-1.9-.9-.4-.6-.7-1.4-.7-2.3h0c0-1.1.2-1.9.7-2.6.4-.6,1.1-.9,1.9-.9s.6.1.9.2c.3.1.5.3.7.6v-2.3l-.9-.2v-1.1h2.6v8.1l.8.2v1h-2.3l-.2-.7ZM902.4,363.3c0,.6,0,1,.3,1.3s.5.5.9.5.5-.1.7-.2.3-.3.5-.4v-2.7c0-.2-.3-.4-.5-.5s-.4-.2-.7-.2-.7.2-.9.6-.3.9-.3,1.5h0Z"/>
    <path class="cls-20" d="M911.6,363.3h-3.4v-1.3h3.4v1.3Z"/>
    <path class="cls-20" d="M912.6,365.3l.8-.2v-4l-.9-.2v-1.1h2.6v.9c.3-.3.6-.6.9-.8.3-.2.7-.3,1.1-.3.7,0,1.2.2,1.5.6.4.4.5,1.1.5,1.9v2.8l.8.2v1h-3.3v-1l.7-.2v-2.8c0-.4,0-.7-.3-.9-.2-.2-.4-.3-.8-.3s-.4,0-.6.1c-.2.1-.3.2-.5.4v3.5l.7.2v1h-3.3v-.8h.1Z"/>
  </g>
  <g class="cls-28">
    <path class="cls-20" d="M924.6,366.3c0-.1,0-.2,0-.3s0-.2,0-.3c-.2.2-.5.4-.8.6s-.6.2-1,.2c-.6,0-1.1-.2-1.5-.5s-.6-.8-.6-1.4.2-1.1.7-1.4,1.2-.5,2.1-.5h.9v-.7c0-.3,0-.6-.3-.7-.2-.2-.4-.3-.8-.3s-.4,0-.5.1-.3.1-.4.2v.7h-1.4v-1.4c.3-.2.7-.4,1.1-.5s.9-.2,1.3-.2c.8,0,1.5.2,2,.6s.8,1,.8,1.7v3.3h.5v1.1h-1.9v-.3ZM923.1,365.2c.3,0,.5-.1.7-.2s.4-.3.5-.4v-1h-.9c-.4,0-.7.1-.8.3s-.3.4-.3.6,0,.4.2.5c.2.1.4.2.6.2Z"/>
  </g>
  <g class="cls-28">
    <path class="cls-20" d="M929.3,358.3v1.6h1.1v1.2h-1.1v3.3c0,.3,0,.4.2.5s.2.2.4.2h.3c0,0,.2,0,.3-.1v1.3c-.1.1-.3.1-.5.1h-.6c-.6,0-1.1-.2-1.4-.5-.3-.3-.5-.9-.5-1.6v-3.3h-1v-1.2h1v-1.6h1.8Z"/>
    <path class="cls-20" d="M931.2,365.3l.8-.2v-4l-.9-.2v-1.1h2.7v5.2l.8.2v1h-3.4v-.9h0ZM933.8,358.3h-1.7v-1.3h1.7v1.3Z"/>
  </g>
  <g class="cls-28">
    <path class="cls-20" d="M938,360.9h-.6c0,.1.9,3,.9,3v.6h0v-.6c0,0,.9-2.9.9-2.9h-.6v-1.2h2.9v1.1h-.6c0,.1-1.9,5.4-1.9,5.4h-1.7l-1.9-5.3h-.6v-1.2h2.9v1.1h.2Z"/>
  </g>
  <g class="cls-28">
    <path class="cls-20" d="M945.2,366.5c-.9,0-1.7-.3-2.2-.9-.6-.6-.8-1.4-.8-2.3v-.2c0-1,.3-1.8.8-2.4s1.2-.9,2.1-.9,1.5.3,2,.8.7,1.2.7,2.1v1h-3.8c0,.4.2.8.4,1.1.3.3.6.4,1,.4s.7,0,1-.1.5-.2.8-.4l.5,1.1c-.3.2-.6.4-1,.5-.5,0-.9.2-1.5.2ZM945.1,361.1c-.3,0-.6.1-.8.4s-.3.6-.3,1h2.1v-.2c0-.4,0-.7-.3-.9,0-.2-.4-.3-.7-.3Z"/>
    <path class="cls-20" d="M951.5,365.3h.6c0-.1,2.6-7.7,2.6-7.7h1.8l2.6,7.6h.6v1.1h-3v-1h.6c0-.1-.4-1.3-.4-1.3h-2.8l-.4,1.2h.6v1.1h-3v-1h.2ZM954.7,362.7h2l-1-3.1h0l-1,3.1Z"/>
    <path class="cls-20" d="M960.3,360.9v-1.1h2.5v.8c.3-.3.5-.5.8-.6.3-.2.6-.2.9-.2.8,0,1.4.3,1.9.9.4.6.7,1.4.7,2.5h0c0,1.1-.2,1.8-.7,2.4-.4.6-1.1.9-1.9.9s-.6-.1-.9-.2c-.3-.1-.5-.3-.7-.6v1.9l.8.2v1.1h-3.4v-1.1l.8-.2v-6.5l-.8-.2ZM965.3,363.2c0-.6,0-1.1-.3-1.5s-.5-.6-.9-.6-.5.1-.7.2-.3.3-.4.5v2.8c0,.2.3.3.4.4s.4.1.7.1.7-.2.9-.5.3-.8.3-1.3h0Z"/>
  </g>
  <g class="cls-28">
    <path class="cls-20" d="M967.7,360.9v-1.1h2.5v.8c.3-.3.5-.5.8-.6.3-.2.6-.2.9-.2.8,0,1.4.3,1.9.9.4.6.7,1.4.7,2.5h0c0,1.1-.2,1.8-.7,2.4-.4.6-1.1.9-1.9.9s-.6-.1-.9-.2c-.3-.1-.5-.3-.7-.6v1.9l.8.2v1.1h-3.4v-1.1l.8-.2v-6.5l-.8-.2ZM972.8,363.2c0-.6,0-1.1-.3-1.5s-.5-.6-.9-.6-.5.1-.7.2-.3.3-.4.5v2.8c0,.2.3.3.4.4s.4.1.7.1.7-.2.9-.5.3-.8.3-1.3h0Z"/>
  </g>
  <g class="cls-28">
    <path class="cls-20" d="M975,358.1v-1.1h2.7v8.1l.8.2v1h-3.4v-1l.8-.2v-6.9h-.9Z"/>
    <path class="cls-20" d="M979,365.3l.8-.2v-4l-.9-.2v-1.1h2.7v5.2l.8.2v1h-3.4v-.9ZM981.6,358.3h-1.7v-1.3h1.7v1.3Z"/>
    <path class="cls-20" d="M986.1,365.1c.3,0,.6-.1.7-.3.2-.2.3-.4.3-.7h1.6c0,.7-.2,1.2-.7,1.6s-1.1.7-1.9.7-1.7-.3-2.2-.9-.8-1.4-.8-2.3v-.2c0-1,.3-1.7.8-2.3.5-.6,1.3-.9,2.3-.9s1,.1,1.4.2c.4.2.8.4,1,.7v1.7h-1.4l-.3-1c0-.1-.2-.1-.3-.2,0,0-.3-.1-.4-.1-.5,0-.8.2-1,.5-.2.4-.3.8-.3,1.4v.2c0,.6,0,1,.3,1.4.1.4.4.5.9.5Z"/>
  </g>
  <g class="cls-28">
    <path class="cls-20" d="M993.6,366.3c0-.1,0-.2,0-.3s0-.2,0-.3c-.2.2-.5.4-.8.6s-.6.2-1,.2c-.6,0-1.1-.2-1.5-.5s-.6-.8-.6-1.4.2-1.1.7-1.4,1.2-.5,2.1-.5h.9v-.7c0-.3,0-.6-.3-.7-.2-.2-.4-.3-.8-.3s-.4,0-.5.1c-.2,0-.3.1-.4.2v.7h-1.4v-1.4c.3-.2.7-.4,1.1-.5.4-.1.9-.2,1.3-.2.8,0,1.5.2,2,.6s.8,1,.8,1.7v3.3h.5v1.1h-1.9v-.3ZM992.1,365.2c.3,0,.5-.1.7-.2s.4-.3.5-.4v-1h-.9c-.4,0-.7.1-.8.3s-.3.4-.3.6,0,.4.2.5c0,.1.3.2.6.2Z"/>
  </g>
  <g class="cls-28">
    <path class="cls-20" d="M998.3,358.3v1.6h1.1v1.2h-1.1v3.3c0,.3,0,.4.2.5s.2.2.4.2h.3c0,0,.2,0,.3-.1v1.3c-.1.1-.3.1-.5.1h-.6c-.6,0-1.1-.2-1.4-.5-.3-.3-.5-.9-.5-1.6v-3.3h-1v-1.2h1v-1.6h1.8Z"/>
    <path class="cls-20" d="M1000.2,365.3l.8-.2v-4l-.9-.2v-1.1h2.7v5.2l.8.2v1h-3.4v-.9h0ZM1002.8,358.3h-1.7v-1.3h1.7v1.3Z"/>
    <path class="cls-20" d="M1004.2,363c0-1,.3-1.8.8-2.4s1.3-.9,2.2-.9,1.7.3,2.2.9.8,1.4.8,2.4h0c0,1.1-.3,1.9-.8,2.5s-1.3.9-2.2.9-1.7-.3-2.3-.9-.8-1.4-.8-2.4h0c0-.1,0-.1,0-.1ZM1006,363.2c0,.6,0,1.1.3,1.4s.5.5,1,.5.8-.2,1-.5.3-.8.3-1.4v-.2c0-.6,0-1-.3-1.4s-.5-.5-1-.5-.8.2-1,.5c-.2.4-.3.8-.3,1.4v.2Z"/>
    <path class="cls-20" d="M1011,365.3l.8-.2v-4l-.9-.2v-1.1h2.6v.9c.3-.3.6-.6.9-.8.3-.2.7-.3,1.1-.3.7,0,1.2.2,1.5.6.4.4.5,1.1.5,1.9v2.8l.8.2v1h-3.3v-1l.7-.2v-2.8c0-.4,0-.7-.3-.9-.2-.2-.4-.3-.8-.3s-.4,0-.6.1c-.2.1-.3.2-.5.4v3.5l.7.2v1h-3.3v-.8h.1Z"/>
  </g>
  <g class="cls-28">
    <path class="cls-20" d="M57.2,50.7h-1.6l-.3-1.5c-.2,0-.5-.2-.8-.3s-.7,0-1.1,0c-.6,0-1,0-1.4.4-.3.2-.5.6-.5,1s.2.7.5.9.9.5,1.7.7c1.2.3,2.1.8,2.7,1.3.6.5.9,1.2.9,2.1s-.4,1.6-1.1,2.2-1.7.8-2.9.8-1.6,0-2.3-.4c-.7-.3-1.2-.6-1.7-1.1v-2.2h1.7l.2,1.5c.2.2.5.3.9.4.4,0,.8.2,1.2.2.6,0,1,0,1.3-.4.3-.2.5-.6.5-1s0-.7-.4-1c-.3-.3-.8-.5-1.5-.7-1.3-.4-2.2-.8-2.9-1.3-.6-.5-1-1.2-1-2.1s.4-1.6,1.1-2.1c.7-.5,1.7-.8,2.8-.8s1.6,0,2.2.4c.7.3,1.2.6,1.7,1v2.1h.1Z"/>
    <path class="cls-20" d="M65.5,53.3h-3.6v3h3.4v-1.3h1.7v3h-8.4v-1.3l1.1-.2v-7.7l-1.1-.2v-1.3h8.4v2.9h-1.6v-1.2h-3.5v2.7h3.6v1.6Z"/>
  </g>
  <g class="cls-28">
    <path class="cls-20" d="M73.3,47.3c1.2,0,2.2.3,2.8.8.7.6,1,1.3,1,2.3s0,1-.4,1.4-.7.7-1.3,1c.6.2,1.1.5,1.4.9s.4,1,.4,1.6v.5c0,.2,0,.4,0,.5s.2.2.5.2h.3v1.5h-1.1c-.7,0-1.2-.2-1.5-.6-.3-.4-.4-.9-.4-1.5v-.6c0-.5,0-.9-.4-1.2s-.7-.5-1.2-.5h-1.8v2.8l1.1.2v1.4h-4.4v-1.3l1.1-.2v-7.7l-1.1-.2v-1.3h4.9ZM71.8,52h1.5c.6,0,1,0,1.3-.4s.4-.6.4-1.1,0-.9-.4-1.1c-.3-.3-.7-.4-1.3-.4h-1.5s0,3,0,3Z"/>
  </g>
  <g class="cls-28">
    <path class="cls-20" d="M82.3,48.6h-.8c0,0,1.9,6.5,1.9,6.5v.6h0v-.6c0,0,2-6.4,2-6.4h-.8v-1.4h3.9v1.3h-.9c0,0-3.1,9.4-3.1,9.4h-2.2l-3.1-9.3h-.9v-1.4h3.9v1.3Z"/>
    <path class="cls-20" d="M89.7,48.6v-1.3h4.4v1.3l-1.1.2v7.7l1.1.2v1.3h-4.4v-1.3l1.1-.2v-7.7l-1.1-.2Z"/>
    <path class="cls-20" d="M104.1,50.9h-1.6l-.2-1.4c-.2-.2-.5-.4-.8-.5s-.7-.2-1.1-.2c-.9,0-1.6.3-2.1,1s-.8,1.6-.8,2.6v.4c0,1.1.2,2,.7,2.6s1.2,1,2.1,1,.8,0,1.2-.2.6-.3.8-.5l.2-1.4h1.6v2.1c-.4.5-1,.9-1.6,1.2-.7.3-1.4.4-2.2.4-1.4,0-2.6-.5-3.5-1.5s-1.4-2.3-1.4-3.8v-.4c0-1.5.5-2.8,1.4-3.8s2.1-1.5,3.5-1.5,1.6.2,2.2.5c.7.3,1.2.7,1.6,1.2,0,0,0,2.2,0,2.2Z"/>
    <path class="cls-20" d="M112.4,53.3h-3.6v3h3.4v-1.3h1.7v3h-8.4v-1.3l1.1-.2v-7.7l-1.1-.2v-1.3h8.4v2.9h-1.6v-1.3h-3.5v2.7h3.6v1.7Z"/>
  </g>
  <g class="cls-28">
    <path class="cls-20" d="M40.7,65.3c1.2,0,2.2.3,2.9.9s1.1,1.4,1.1,2.5-.4,1.8-1.1,2.5-1.7.9-2.9.9h-1.8v2.4l1.1.2v1.3h-4.4v-1.3l1.1-.2v-7.7l-1.1-.2v-1.3h5.1ZM38.9,70.5h1.8c.6,0,1-.2,1.4-.5.3-.3.5-.7.5-1.2s-.2-.9-.5-1.3c-.3-.3-.8-.5-1.4-.5h-1.8v3.5Z"/>
    <path class="cls-20" d="M50.6,65.3c1.2,0,2.2.3,2.8.8.7.6,1,1.3,1,2.3s0,1-.4,1.4-.7.7-1.3,1c.6.2,1.1.5,1.4.9.3.4.4,1,.4,1.6v.5c0,.2,0,.4,0,.5s.2.2.5.2h.3v1.5h-1.1c-.7,0-1.2-.2-1.5-.6s-.4-.9-.4-1.5v-.6c0-.5,0-.9-.4-1.2-.3-.3-.7-.5-1.2-.5h-1.8v2.8l1.1.2v1.4h-4.4v-1.3l1.1-.2v-7.7l-1.1-.2v-1.3h4.9ZM49.1,70h1.5c.6,0,1,0,1.3-.4s.4-.6.4-1.1,0-.9-.4-1.1c-.3-.3-.7-.4-1.3-.4h-1.5v3Z"/>
  </g>
  <g class="cls-28">
    <path class="cls-20" d="M66.1,70.7c0,1.6-.4,2.9-1.3,3.9s-2.1,1.5-3.5,1.5-2.6-.5-3.5-1.5-1.3-2.3-1.3-3.9v-.2c0-1.6.4-2.8,1.3-3.9s2-1.5,3.5-1.5,2.6.5,3.5,1.5,1.3,2.3,1.3,3.9v.2ZM64,70.6c0-1.1-.2-2-.7-2.7s-1.1-1-2-1-1.6.3-2,1-.7,1.6-.7,2.7v.2c0,1.1.2,2,.7,2.7.4.7,1.1,1,2,1s1.6-.3,2-1c.5-.7.7-1.6.7-2.7v-.2Z"/>
  </g>
  <g class="cls-28">
    <path class="cls-20" d="M70.9,66.6h-.8c0,0,1.9,6.5,1.9,6.5v.6h0v-.6c0,0,2-6.4,2-6.4h-.8v-1.4h3.9v1.3h-.9c0,0-3,9.4-3,9.4h-2.2l-3.1-9.3h-1v-1.4h3.9v1.3Z"/>
    <path class="cls-20" d="M78.4,66.6v-1.3h4.4v1.3l-1.1.2v7.7l1.1.2v1.3h-4.4v-1.3l1.1-.2v-7.7l-1.1-.2Z"/>
    <path class="cls-20" d="M88.9,65.3c1.3,0,2.4.4,3.2,1.2s1.3,1.9,1.3,3.2v1.8c0,1.3-.4,2.4-1.3,3.2-.8.8-1.9,1.2-3.2,1.2h-4.8v-1.3l1.1-.2v-7.7l-1.1-.2v-1.3h4.8ZM87.4,67v7.4h1.4c.8,0,1.4-.3,1.8-.8s.7-1.2.7-2v-1.8c0-.8-.2-1.5-.7-2-.4-.5-1-.8-1.8-.8,0,0-1.4,0-1.4,0Z"/>
    <path class="cls-20" d="M101.8,71.3h-3.6v3h3.4v-1.3h1.7v3h-8.4v-1.3l1.1-.2v-7.7l-1.1-.2v-1.3h8.4v2.9h-1.6v-1.3h-3.5v2.7h3.6v1.7Z"/>
    <path class="cls-20" d="M109.7,65.3c1.2,0,2.2.3,2.8.8.7.6,1,1.3,1,2.3s0,1-.4,1.4-.7.7-1.3,1c.6.2,1.1.5,1.4.9s.4,1,.4,1.6v.5c0,.2,0,.4,0,.5s.2.2.5.2h.3v1.5h-1.1c-.7,0-1.2-.2-1.5-.6s-.4-.9-.4-1.5v-.6c0-.5,0-.9-.4-1.2-.3-.3-.7-.5-1.2-.5h-1.8v2.8l1.1.2v1.4h-4.4v-1.3l1.1-.2v-7.7l-1.1-.2v-1.3h4.9ZM108.2,70h1.5c.6,0,1,0,1.3-.4s.4-.6.4-1.1,0-.9-.4-1.1c-.3-.3-.7-.4-1.3-.4h-1.5v3Z"/>
  </g>
  <g class="cls-28">
    <path class="cls-20" d="M64.2,157.6v-1.3h4.4v1.3l-1.1.2v7.7l1.1.2v1.3h-4.4v-1.3l1.1-.2v-7.7l-1.1-.2Z"/>
    <path class="cls-20" d="M80.2,159h0l-2.9,7.9h-1.4l-2.8-7.9h0l.2,4.7v1.7l1.1.2v1.3h-4.4v-1.3l1.1-.2v-7.7l-1.1-.2v-1.3h3.8l2.7,7.9h0l2.7-7.9h3.9v1.3l-1.1.2v7.7l1.1.2v1.3h-4.4v-1.3l1.1-.2v-1.7l.4-4.7Z"/>
  </g>
  <g class="cls-28">
    <path class="cls-20" d="M84.2,165.6h.8c0-.1,3.2-9.4,3.2-9.4h2.2l3.2,9.3h.8v1.4h-3.6v-1.3h.7c0-.1-.5-1.6-.5-1.6h-3.5l-.5,1.5h.7v1.4h-3.6v-1.3h.1ZM88.1,162.5h2.4l-1.2-3.8h0l-1.2,3.8Z"/>
  </g>
  <g class="cls-28">
    <path class="cls-20" d="M103.9,165.7c-.3.3-.9.7-1.5.9-.7.3-1.5.4-2.5.4s-2.6-.5-3.5-1.4c-.9-1-1.4-2.2-1.4-3.8v-.4c0-1.6.4-2.9,1.3-3.9s2.1-1.5,3.5-1.5,1.6.1,2.3.4c.7.3,1.3.6,1.7,1.1v2.1h-1.6l-.3-1.4c-.2-.2-.5-.3-.8-.4-.3-.1-.7-.2-1.1-.2-.9,0-1.7.3-2.2,1s-.8,1.6-.8,2.7v.4c0,1.1.3,1.9.8,2.6.5.6,1.2,1,2.2,1s.8,0,1-.1c.3-.1.5-.2.6-.3v-1.8h-1.5v-1.6h3.7v4.2h.1Z"/>
    <path class="cls-20" d="M112.3,162.2h-3.6v3h3.4v-1.3h1.7v2.9h-8.4v-1.3l1.1-.2v-7.7l-1.1-.2v-1.3h8.4v2.9h-1.6v-1.3h-3.5v2.7h3.6v1.8Z"/>
  </g>
  <g class="cls-28">
    <path class="cls-20" d="M49.6,177.9h-1.6l-.2-1.4c-.2-.2-.5-.4-.8-.5s-.7-.2-1.1-.2c-.9,0-1.6.3-2.1,1s-.8,1.6-.8,2.6v.4c0,1.1.2,2,.7,2.6s1.2,1,2.1,1,.8-.1,1.2-.2.6-.3.8-.5l.2-1.4h1.6v2.1c-.4.5-1,.9-1.6,1.2-.7.3-1.4.4-2.2.4-1.4,0-2.6-.5-3.5-1.5s-1.4-2.3-1.4-3.8v-.4c0-1.5.5-2.8,1.4-3.8s2.1-1.5,3.5-1.5,1.6.2,2.2.5c.7.3,1.2.7,1.6,1.2,0,0,0,2.2,0,2.2Z"/>
    <path class="cls-20" d="M55.3,174.3v1.3l-1.1.2v5.6c0,.7.2,1.2.6,1.6.4.3.9.5,1.6.5s1.2-.2,1.6-.5.6-.9.6-1.6v-5.6l-1.1-.2v-1.3h4.4v1.3l-1.1.2v5.6c0,1.2-.4,2.1-1.2,2.8s-1.8,1-3.1,1-2.3-.3-3.1-1c-.8-.6-1.2-1.6-1.2-2.8v-5.6l-1.1-.2v-1.3h4.2Z"/>
    <path class="cls-20" d="M67.6,174.3c1.2,0,2.2.3,2.8.8.7.6,1,1.3,1,2.3s0,1-.4,1.4-.7.7-1.3,1c.6.2,1.1.5,1.4.9s.4,1,.4,1.6v.5c0,.2,0,.4,0,.5s.2.2.5.2h.3v1.3h-1.1c-.7,0-1.2-.2-1.5-.6-.3-.4-.4-.9-.4-1.5v-.6c0-.5,0-.9-.4-1.2s-.7-.5-1.2-.5h-1.8v2.8l1.1.2v1.3h-4.4v-1.3l1.1-.2v-7.7l-1.1-.2v-1.3h4.9v.3ZM66.1,179h1.5c.6,0,1-.1,1.3-.4.3-.3.4-.6.4-1.1s0-.9-.4-1.1c-.3-.3-.7-.4-1.3-.4h-1.5v3Z"/>
  </g>
  <g class="cls-28">
    <path class="cls-20" d="M73.2,183.6h.8c0-.1,3.2-9.4,3.2-9.4h2.2l3.2,9.3h.8v1.4h-3.6v-1.3h.7c0-.1-.5-1.6-.5-1.6h-3.5l-.5,1.5h.7v1.4h-3.6v-1.3h.1ZM77.1,180.5h2.4l-1.2-3.8h0l-1.2,3.8Z"/>
  </g>
  <g class="cls-28">
    <path class="cls-20" d="M92.8,174.3v2.8h-1.6v-1.2h-2.1v7.5l1.1.2v1.3h-4.4v-1.3l1.1-.2v-7.5h-2v1.2h-1.7v-2.8h9.6Z"/>
  </g>
  <g class="cls-28">
    <path class="cls-20" d="M103.4,179.7c0,1.6-.4,2.9-1.3,3.9s-2.1,1.5-3.5,1.5-2.6-.5-3.5-1.5-1.3-2.3-1.3-3.9v-.2c0-1.6.4-2.8,1.3-3.9s2-1.5,3.5-1.5,2.6.5,3.5,1.5,1.3,2.3,1.3,3.9v.2ZM101.2,179.5c0-1.1-.2-2-.7-2.7s-1.1-1-2-1-1.6.3-2,1-.7,1.6-.7,2.7v.2c0,1.1.2,2,.7,2.7.4.7,1.1,1,2,1s1.6-.3,2-1c.5-.7.7-1.6.7-2.7v-.2Z"/>
    <path class="cls-20" d="M109.5,174.3c1.2,0,2.2.3,2.8.8.7.6,1,1.3,1,2.3s0,1-.4,1.4-.7.7-1.3,1c.6.2,1.1.5,1.4.9s.4,1,.4,1.6v.5c0,.2,0,.4,0,.5s.2.2.5.2h.3v1.3h-1.1c-.7,0-1.2-.2-1.5-.6-.3-.4-.4-.9-.4-1.5v-.6c0-.5,0-.9-.4-1.2s-.7-.5-1.2-.5h-1.8v2.8l1.1.2v1.3h-4.4v-1.3l1.1-.2v-7.7l-1.1-.2v-1.3h4.9v.3ZM107.9,179h1.5c.6,0,1-.1,1.3-.4s.4-.6.4-1.1,0-.9-.4-1.1c-.3-.3-.7-.4-1.3-.4h-1.5v3Z"/>
  </g>
  <g class="cls-28">
    <path class="cls-20" d="M57.2,332.7h-1.6l-.3-1.5c-.2-.1-.5-.2-.8-.3s-.7-.1-1.1-.1c-.6,0-1,.1-1.4.4-.3.2-.5.6-.5,1s.2.7.5.9c.3.2.9.5,1.7.7,1.2.3,2.1.8,2.7,1.3.6.5.9,1.2.9,2.1s-.4,1.6-1.1,2.2-1.7.8-2.9.8-1.6-.1-2.3-.4-1.2-.6-1.7-1.1v-2.2h1.7l.2,1.5c.2.2.5.3.9.4s.8.2,1.2.2c.6,0,1-.1,1.3-.4.3-.2.5-.6.5-1s0-.7-.4-1c-.3-.3-.8-.5-1.5-.7-1.3-.4-2.2-.8-2.9-1.3-.6-.5-1-1.2-1-2.1s.4-1.6,1.1-2.1c.7-.5,1.7-.8,2.8-.8s1.6.1,2.2.4c.7.3,1.2.6,1.7,1v2.1h.1Z"/>
    <path class="cls-20" d="M65.5,335.3h-3.6v3h3.4v-1.3h1.7v2.9h-8.4v-1.3l1.1-.2v-7.7l-1.1-.2v-1.3h8.4v2.9h-1.6v-1.3h-3.5v2.7h3.6v1.8Z"/>
  </g>
  <g class="cls-28">
    <path class="cls-20" d="M73.3,329.3c1.2,0,2.2.3,2.8.8.7.6,1,1.3,1,2.3s0,1-.4,1.4-.7.7-1.3,1c.6.2,1.1.5,1.4.9s.4,1,.4,1.6v.5c0,.2,0,.4,0,.5s.2.2.5.2h.3v1.3h-1.1c-.7,0-1.2-.2-1.5-.6s-.4-.9-.4-1.5v-.6c0-.5,0-.9-.4-1.2-.3-.3-.7-.5-1.2-.5h-1.8v2.8l1.1.2v1.3h-4.4v-1.3l1.1-.2v-7.7l-1.1-.2v-1.3h4.9v.3ZM71.8,334h1.5c.6,0,1-.1,1.3-.4s.4-.6.4-1.1,0-.9-.4-1.1c-.3-.3-.7-.4-1.3-.4h-1.5v3Z"/>
  </g>
  <g class="cls-28">
    <path class="cls-20" d="M82.3,330.6h-.8c0,.1,1.9,6.5,1.9,6.5v.6h0v-.6c0,0,2-6.4,2-6.4h-.8v-1.4h3.9v1.3h-.9c0,.1-3.1,9.4-3.1,9.4h-2.2l-3.1-9.3h-.9v-1.4h3.9v1.3Z"/>
    <path class="cls-20" d="M89.7,330.6v-1.3h4.4v1.3l-1.1.2v7.7l1.1.2v1.3h-4.4v-1.3l1.1-.2v-7.7l-1.1-.2Z"/>
    <path class="cls-20" d="M104.1,332.9h-1.6l-.2-1.4c-.2-.2-.5-.4-.8-.5s-.7-.2-1.1-.2c-.9,0-1.6.3-2.1,1s-.8,1.6-.8,2.6v.4c0,1.1.2,2,.7,2.6s1.2,1,2.1,1,.8-.1,1.2-.2.6-.3.8-.5l.2-1.4h1.6v2.1c-.4.5-1,.9-1.6,1.2-.7.3-1.4.4-2.2.4-1.4,0-2.6-.5-3.5-1.5s-1.4-2.3-1.4-3.8v-.4c0-1.5.5-2.8,1.4-3.8s2.1-1.5,3.5-1.5,1.6.2,2.2.5c.7.3,1.2.7,1.6,1.2,0,0,0,2.2,0,2.2Z"/>
    <path class="cls-20" d="M112.4,335.3h-3.6v3h3.4v-1.3h1.7v2.9h-8.4v-1.3l1.1-.2v-7.7l-1.1-.2v-1.3h8.4v2.9h-1.6v-1.3h-3.5v2.7h3.6v1.8Z"/>
  </g>
  <g class="cls-28">
    <path class="cls-20" d="M40.7,347.3c1.2,0,2.2.3,2.9.9s1.1,1.4,1.1,2.5-.4,1.8-1.1,2.5-1.7.9-2.9.9h-1.8v2.4l1.1.2v1.3h-4.4v-1.3l1.1-.2v-7.7l-1.1-.2v-1.3h5.1ZM38.9,352.5h1.8c.6,0,1-.2,1.4-.5.3-.3.5-.7.5-1.2s-.2-.9-.5-1.3c-.3-.3-.8-.5-1.4-.5h-1.8v3.5Z"/>
    <path class="cls-20" d="M50.6,347.3c1.2,0,2.2.3,2.8.8.7.6,1,1.3,1,2.3s0,1-.4,1.4-.7.7-1.3,1c.6.2,1.1.5,1.4.9.3.4.4,1,.4,1.6v.5c0,.2,0,.4,0,.5s.2.2.5.2h.3v1.3h-1.1c-.7,0-1.2-.2-1.5-.6s-.4-.9-.4-1.5v-.6c0-.5,0-.9-.4-1.2-.3-.3-.7-.5-1.2-.5h-1.8v2.8l1.1.2v1.3h-4.4v-1.3l1.1-.2v-7.7l-1.1-.2v-1.3h4.9v.3ZM49.1,352h1.5c.6,0,1-.1,1.3-.4s.4-.6.4-1.1,0-.9-.4-1.1c-.3-.3-.7-.4-1.3-.4h-1.5v3Z"/>
  </g>
  <g class="cls-28">
    <path class="cls-20" d="M66.1,352.7c0,1.6-.4,2.9-1.3,3.9s-2.1,1.5-3.5,1.5-2.6-.5-3.5-1.5-1.3-2.3-1.3-3.9v-.2c0-1.6.4-2.8,1.3-3.9s2-1.5,3.5-1.5,2.6.5,3.5,1.5,1.3,2.3,1.3,3.9v.2ZM64,352.6c0-1.1-.2-2-.7-2.7s-1.1-1-2-1-1.6.3-2,1-.7,1.6-.7,2.7v.2c0,1.1.2,2,.7,2.7.4.7,1.1,1,2,1s1.6-.3,2-1c.5-.7.7-1.6.7-2.7v-.2Z"/>
  </g>
  <g class="cls-28">
    <path class="cls-20" d="M70.9,348.6h-.8c0,.1,1.9,6.5,1.9,6.5v.6h0v-.6c0,0,2-6.4,2-6.4h-.8v-1.4h3.9v1.3h-.9c0,.1-3.1,9.4-3.1,9.4h-2.2l-3.1-9.3h-.9v-1.4h3.9v1.3Z"/>
    <path class="cls-20" d="M78.4,348.6v-1.3h4.4v1.3l-1.1.2v7.7l1.1.2v1.3h-4.4v-1.3l1.1-.2v-7.7l-1.1-.2Z"/>
    <path class="cls-20" d="M88.9,347.3c1.3,0,2.4.4,3.2,1.2.8.8,1.3,1.9,1.3,3.2v1.8c0,1.3-.4,2.4-1.3,3.2-.8.8-1.9,1.2-3.2,1.2h-4.8v-1.3l1.1-.2v-7.7l-1.1-.2v-1.3h4.8ZM87.4,349v7.4h1.4c.8,0,1.4-.3,1.8-.8s.7-1.2.7-2v-1.8c0-.8-.2-1.5-.7-2-.4-.5-1-.8-1.8-.8h-1.4Z"/>
    <path class="cls-20" d="M101.8,353.3h-3.6v3h3.4v-1.3h1.7v2.9h-8.4v-1.3l1.1-.2v-7.7l-1.1-.2v-1.3h8.4v2.9h-1.6v-1.3h-3.5v2.7h3.6v1.8Z"/>
    <path class="cls-20" d="M109.7,347.3c1.2,0,2.2.3,2.8.8.7.6,1,1.3,1,2.3s0,1-.4,1.4-.7.7-1.3,1c.6.2,1.1.5,1.4.9s.4,1,.4,1.6v.5c0,.2,0,.4,0,.5s.2.2.5.2h.3v1.3h-1.1c-.7,0-1.2-.2-1.5-.6s-.4-.9-.4-1.5v-.6c0-.5,0-.9-.4-1.2-.3-.3-.7-.5-1.2-.5h-1.8v2.8l1.1.2v1.3h-4.4v-1.3l1.1-.2v-7.7l-1.1-.2v-1.3h4.9v.3ZM108.2,352h1.5c.6,0,1-.1,1.3-.4s.4-.6.4-1.1,0-.9-.4-1.1c-.3-.3-.7-.4-1.3-.4h-1.5v3Z"/>
  </g>
  <polyline class="cls-9" points="766.9 62 801.2 62 801.2 310.2 784.1 310.2"/>
  <polygon class="cls-13" points="790.7 302.1 792.1 303.5 784.9 310.2 792.1 317 790.7 318.4 781.9 310.2 790.7 302.1"/>
  <path class="cls-11" d="M938.8,309.5c4.6-4.5,12.1-4.5,16.6.1s4.5,12.1,0,16.6-12.1,4.5-16.6-.1c-2.2-2.2-3.4-5.1-3.4-8.2s.8-5.1,2.4-7.1"/>
  <path class="cls-7" d="M947,323.5h-4.2c-.6,0-.8-.2-.8-.8v-6.5c0-.6.2-.8.8-.8h8.5c.5,0,.8.2.8.8v6.5c0,.5-.2.8-.8.8h-4.3Z"/>
  <path class="cls-7" d="M942.7,314.9c0-1.8,1-3.4,2.6-4.1,2.1-.9,4.6,0,5.5,2.1,0,.2.2.5.2.7,0,.4,0,.8.2,1.2"/>
  <path class="cls-13" d="M946.3,320.7h0v.9c0,.2,0,.2.3.2h.8c.2,0,.3-.1.3-.3v-1.5c0-.2,0-.3.2-.4.5-.3.8-.9.6-1.4-.2-.6-.8-1-1.4-1-.7-.1-1.3.3-1.6.9-.2.6,0,1.2.5,1.5.2.1.3.3.3.5,0,.2,0,.4,0,.6Z"/>
  <rect class="cls-20" x="792.1" y="332.6" width="11.9" height="3.1"/>
  <rect class="cls-20" x="792.1" y="340" width="11.9" height="3.1"/>
  <rect class="cls-20" x="820.8" y="332.6" width="11.9" height="3.1"/>
  <rect class="cls-20" x="820.8" y="340" width="11.9" height="3.1"/>
</svg>