<?xml version="1.0" encoding="UTF-8"?>
<svg id="Ebene_1" data-name="Ebene 1" xmlns="http://www.w3.org/2000/svg" xmlns:xlink="http://www.w3.org/1999/xlink" version="1.1" viewBox="0 0 605.5 457.5">
  <defs>
    <style>
      .cls-1, .cls-2, .cls-3, .cls-4, .cls-5, .cls-6, .cls-7, .cls-8, .cls-9, .cls-10, .cls-11, .cls-12, .cls-13 {
        fill: none;
      }

      .cls-1, .cls-2, .cls-5, .cls-6, .cls-8, .cls-9, .cls-10, .cls-11, .cls-14, .cls-12, .cls-13 {
        stroke-width: 2px;
      }

      .cls-1, .cls-2, .cls-10, .cls-12, .cls-13 {
        stroke-miterlimit: 10;
      }

      .cls-1, .cls-4, .cls-5, .cls-6, .cls-7, .cls-9, .cls-11 {
        stroke: #fff;
      }

      .cls-15 {
        fill: url(#Unbenannter_Verlauf);
      }

      .cls-15, .cls-3, .cls-16, .cls-17, .cls-18, .cls-19 {
        stroke-width: 0px;
      }

      .cls-2, .cls-8, .cls-10, .cls-14, .cls-13 {
        stroke: #fc0;
      }

      .cls-20 {
        clip-path: url(#clippath);
      }

      .cls-4, .cls-5, .cls-6, .cls-7, .cls-8, .cls-9, .cls-11, .cls-14 {
        stroke-linejoin: round;
      }

      .cls-5 {
        opacity: .8;
      }

      .cls-5, .cls-6, .cls-7, .cls-8, .cls-9, .cls-11, .cls-14 {
        stroke-linecap: round;
      }

      .cls-5, .cls-6, .cls-21, .cls-11 {
        isolation: isolate;
      }

      .cls-6 {
        opacity: .6;
      }

      .cls-16 {
        fill: #fc0;
      }

      .cls-22 {
        clip-path: url(#clippath-1);
      }

      .cls-10 {
        stroke-dasharray: 0 0 2 2;
      }

      .cls-17 {
        fill: #fdfeff;
      }

      .cls-11 {
        opacity: .4;
      }

      .cls-14, .cls-18 {
        fill: #fff;
      }

      .cls-12 {
        stroke: #f63;
      }

      .cls-13 {
        stroke-dasharray: 0 0 0 0 0 0 2 2;
      }

      .cls-19 {
        fill: #ffd138;
      }
    </style>
    <linearGradient id="Unbenannter_Verlauf" data-name="Unbenannter Verlauf" x1="161.7" y1="4302.5" x2="349.4" y2="4302.5" gradientTransform="translate(0 4409.4) scale(1 -1)" gradientUnits="userSpaceOnUse">
      <stop offset="0" stop-color="#906"/>
      <stop offset=".2" stop-color="#780066"/>
      <stop offset=".4" stop-color="#5a0066"/>
      <stop offset=".6" stop-color="#406"/>
      <stop offset=".8" stop-color="#370066"/>
      <stop offset="1" stop-color="#306"/>
    </linearGradient>
    <clipPath id="clippath">
      <rect class="cls-3" x="230.2" y="170.1" width="50.7" height="9.9"/>
    </clipPath>
    <clipPath id="clippath-1">
      <rect class="cls-3" x="230.2" y="170.1" width="50.7" height="9.9"/>
    </clipPath>
  </defs>
  <g class="cls-21">
    <path class="cls-18" d="M395.6,282.5c0-.4-.1-.8-.4-1-.3-.3-.6-.5-.9-.7s-.8-.4-1.2-.6c-.4-.2-.8-.4-1.2-.7s-.7-.6-.9-.9-.4-.9-.4-1.4c0-.8.3-1.5.9-2s1.4-.7,2.4-.7,1.2,0,1.7.1.9.2,1.2.3l-.4,1.1c-.2-.1-.6-.2-1-.3s-.9-.2-1.5-.2-1.2.1-1.5.4-.5.6-.5,1,.1.7.4,1,.6.5.9.7.8.4,1.2.6c.4.2.8.4,1.2.7s.7.6.9,1c.3.4.4.8.4,1.4s-.1.9-.2,1.2c-.2.4-.4.7-.7.9-.3.3-.7.5-1.1.6s-.9.2-1.5.2-1.4-.1-1.9-.2-.9-.2-1.1-.4l.4-1.1c.2.1.6.3,1,.4.5.1,1,.2,1.5.2s.6,0,.9-.1.5-.2.8-.3c.2-.1.4-.3.5-.5,0-.1.1-.4.1-.7Z"/>
    <path class="cls-18" d="M402.3,279.9h3.5v4.6c-.2.1-.4.2-.6.3-.2.1-.5.2-.7.3-.3.1-.5.1-.8.2-.3,0-.5.1-.8.1-.7,0-1.3-.1-1.8-.3-.6-.2-1-.5-1.5-1s-.7-1-1-1.7c-.2-.7-.3-1.5-.3-2.4s.1-1.8.4-2.5.6-1.3,1.1-1.7c.5-.4,1-.8,1.5-1s1.1-.3,1.7-.3,1.1,0,1.5.1.7.2,1,.3l-.3,1.1c-.5-.2-1.2-.4-2.1-.4s-.8.1-1.3.2c-.4.1-.8.4-1.1.7s-.6.8-.8,1.3-.3,1.2-.3,2,.1,1.4.3,1.9c.2.5.4,1,.7,1.3.3.4.7.6,1.1.8.4.2.9.3,1.4.3s1.2-.1,1.6-.4v-2.9l-2.4-.3v-.6h0Z"/>
  </g>
  <g class="cls-21">
    <path class="cls-18" d="M410.6,279.8l-3.2-5.2h1.5l2.1,3.6.4.9.4-.9,2.3-3.6h1.4l-3.3,5.1,3.5,5.4h-1.5l-2.4-3.8-.4-.9-.4.9-2.4,3.8h-1.4l3.4-5.3Z"/>
  </g>
  <g class="cls-21">
    <path class="cls-18" d="M420.7,277.7h.8l.2.9h.1c.2-.4.5-.6.9-.8.4-.2.8-.3,1.3-.3,1,0,1.7.3,2.2.9s.7,1.6.7,2.9-.1,1.2-.2,1.7-.4.9-.7,1.3c-.3.4-.7.6-1.1.8-.4.2-.9.3-1.4.3s-.7,0-.9-.1-.4-.1-.7-.2v3.1h-1.2v-10.5h0ZM423.7,278.5c-.5,0-.9.1-1.2.4s-.5.7-.6,1.2v3.7c.2.1.4.2.6.3.2.1.5.1.9.1.7,0,1.2-.3,1.6-.8s.6-1.3.6-2.3,0-.8-.1-1.1c-.1-.3-.2-.6-.3-.9-.2-.2-.4-.4-.6-.5s-.5-.1-.9-.1Z"/>
    <path class="cls-18" d="M432.3,278.8c-.3-.1-.6-.2-.9-.2s-.8.1-1,.4c-.3.2-.4.5-.5.9v5.3h-1.2v-7.5h.8l.2.9h.1c.2-.3.4-.6.7-.8.3-.2.6-.3,1-.3s.6.1,1,.2l-.2,1.1Z"/>
    <path class="cls-18" d="M433.5,281.4c0-1.3.3-2.2.8-2.9.6-.7,1.4-1,2.4-1s1,.1,1.5.3c.4.2.8.5,1,.8.3.3.5.8.6,1.2s.2,1,.2,1.6c0,1.3-.3,2.2-.8,2.9-.6.7-1.4,1-2.4,1s-1-.1-1.5-.3c-.4-.2-.8-.5-1-.8-.3-.3-.5-.8-.6-1.2-.2-.4-.2-1-.2-1.6ZM434.7,281.4c0,.4,0,.7.1,1.1s.2.7.4.9c.2.3.4.5.6.6.3.2.6.2.9.2,1.4,0,2-1,2-2.9s0-.8-.1-1.1c-.1-.3-.2-.7-.4-.9-.2-.3-.4-.5-.6-.6-.3-.2-.6-.2-.9-.2-1.3,0-2,1-2,2.9Z"/>
  </g>
  <g class="cls-21">
    <path class="cls-18" d="M440.9,277.7h1.2v-1.5l1.2-.3v1.8h2v1h-2v4.2c0,.5.1.9.2,1.1s.3.3.7.3.5,0,.7-.1.4-.1.6-.2l.3.9c-.3.1-.6.2-.9.3-.3.1-.7.1-1,.1-.6,0-1-.2-1.3-.5s-.4-.9-.4-1.7v-4.4h-1.2v-1h-.1Z"/>
    <path class="cls-18" d="M452.2,284.6c-.3.2-.7.4-1.1.6-.5.1-.9.2-1.4.2s-1.1-.1-1.5-.3c-.4-.2-.8-.5-1-.8-.3-.3-.5-.8-.6-1.2-.1-.5-.2-1-.2-1.6,0-1.3.3-2.3.9-2.9.6-.7,1.4-1,2.4-1s.7,0,1,.1.6.2.9.4c.3.2.5.5.7.9s.3.9.3,1.5,0,.7-.1,1.1h-4.8c0,.4,0,.8.1,1.2s.2.6.4.9c.2.2.4.4.7.5.3.1.7.2,1.1.2s.7-.1,1-.2.6-.3.8-.4l.4.8ZM449.6,278.5c-.6,0-1.1.2-1.4.5-.4.3-.6.8-.6,1.6h3.7c0-.8-.1-1.3-.4-1.6-.4-.3-.8-.5-1.3-.5Z"/>
  </g>
  <g class="cls-21">
    <path class="cls-18" d="M460,285.5c0,1-.3,1.7-.8,2.1-.5.5-1.3.7-2.3.7s-1.1,0-1.4-.1c-.4-.1-.7-.2-.9-.3l.3-1c.2.1.5.2.8.3.3.1.6.1,1.1.1s.8,0,1-.1.5-.2.6-.4.3-.4.3-.7c.1-.3.1-.6.1-1v-.7h-.1c-.2.3-.5.5-.8.7s-.7.2-1.2.2c-1,0-1.8-.3-2.2-.9s-.7-1.6-.7-2.9.3-2.3.9-2.9c.6-.7,1.5-1,2.7-1s1.1,0,1.5.1.8.2,1.1.3v7.5ZM457,284.3c.5,0,.9-.1,1.2-.4s.5-.7.6-1.2v-3.8c-.4-.2-.9-.3-1.5-.3s-1.2.2-1.6.7-.6,1.2-.6,2.2,0,.8.1,1.2c.1.4.2.7.3.9.1.3.3.4.6.6.3,0,.6,0,.9,0Z"/>
    <path class="cls-18" d="M467.8,284.6c-.3.2-.7.4-1.1.6-.5.1-.9.2-1.4.2s-1.1-.1-1.5-.3c-.4-.2-.8-.5-1-.8-.3-.3-.5-.8-.6-1.2-.1-.5-.2-1-.2-1.6,0-1.3.3-2.3.9-2.9s1.4-1,2.4-1,.7,0,1,.1.6.2.9.4c.3.2.5.5.7.9s.3.9.3,1.5,0,.7-.1,1.1h-4.8c0,.4,0,.8.1,1.2.1.3.2.6.4.9.2.2.4.4.7.5.3.1.7.2,1.1.2s.7-.1,1-.2.6-.3.8-.4l.4.8ZM465.3,278.5c-.6,0-1.1.2-1.4.5-.4.3-.6.8-.6,1.6h3.7c0-.8-.1-1.3-.4-1.6-.4-.3-.8-.5-1.3-.5Z"/>
    <path class="cls-18" d="M473.9,278.2c.4-.2.8-.4,1.3-.5s1-.2,1.6-.2.9.1,1.3.2c.3.1.6.3.7.5.2.2.3.5.3.7.1.3.1.5.1.8v4.4c0,.3.1.6.2.9h-.9l-.3-1h-.2c-.1.1-.2.3-.3.4-.1.1-.3.3-.5.4s-.4.2-.7.3c-.3.1-.5.1-.9.1s-.6,0-.9-.2c-.3-.1-.5-.2-.7-.4-.2-.2-.4-.4-.5-.7-.1-.3-.2-.6-.2-.9s.1-.8.3-1.1c.2-.3.4-.5.8-.7s.7-.3,1.2-.4,1-.1,1.5-.1h.8v-.8c0-.5-.1-.9-.3-1.2-.2-.2-.6-.3-1.2-.3h-.5c-.2,0-.4.1-.6.1s-.4.1-.6.2-.3.1-.5.2l-.3-.7ZM476,284.3c.3,0,.5,0,.8-.1.2-.1.4-.2.6-.3.2-.1.3-.2.4-.4.1-.1.2-.3.2-.4v-1.2h-.8c-.3,0-.6,0-.9.1-.3,0-.6.1-.8.2-.2.1-.4.2-.5.4s-.2.4-.2.6c0,.3.1.6.4.9s.4.2.8.2Z"/>
  </g>
  <g class="cls-21">
    <path class="cls-18" d="M395.8,302.7c-.3.2-.7.4-1.1.5s-.8.2-1.3.2-1.1-.1-1.5-.3c-.4-.2-.7-.5-1-.8s-.4-.8-.6-1.2c-.1-.5-.2-1-.2-1.6,0-1.3.3-2.2.8-2.9.6-.7,1.4-1,2.4-1s.9,0,1.2.1.6.2.9.3l-.3,1c-.2-.1-.5-.2-.8-.3-.3-.1-.6-.1-.9-.1-1.4,0-2.1,1-2.1,2.9s0,.7.1,1.1c.1.3.2.6.4.9.2.3.4.5.7.6.3.2.6.2,1.1.2s.7-.1,1-.2.5-.2.7-.4l.5,1Z"/>
  </g>
  <g class="cls-21">
    <path class="cls-18" d="M396.7,299.4c0-1.3.3-2.2.8-2.9.6-.7,1.4-1,2.4-1s1,.1,1.5.3c.4.2.8.5,1,.8.3.3.5.8.6,1.2s.2,1,.2,1.6c0,1.3-.3,2.2-.8,2.9-.6.7-1.4,1-2.4,1s-1-.1-1.5-.3c-.4-.2-.8-.5-1-.8-.3-.3-.5-.8-.6-1.2-.1-.4-.2-1-.2-1.6ZM398,299.4c0,.4,0,.7.1,1.1s.2.7.4.9c.2.3.4.5.6.6.3.2.6.2.9.2,1.4,0,2-1,2-2.9s0-.8-.1-1.1c-.1-.3-.2-.7-.4-.9-.2-.3-.4-.5-.6-.6-.3-.2-.6-.2-.9-.2-1.4,0-2,1-2,2.9Z"/>
    <path class="cls-18" d="M410,303.2v-4.3c0-.8-.1-1.4-.3-1.8-.2-.4-.6-.6-1.2-.6s-1,.1-1.3.4-.6.6-.7,1.1v5.1h-1.2v-7.5h.8l.2.9h.1c.2-.3.6-.6,1-.8.4-.2.9-.3,1.4-.3s.8,0,1.1.1c.3.1.6.3.8.5s.4.6.5,1,.2.9.2,1.5v4.5h-1.4v.2Z"/>
    <path class="cls-18" d="M419.1,295.7v7.5h-1.2v-6.5h-3v6.5h-1.2v-6.5h-1.2v-1h1.2v-.4c0-.9.2-1.6.7-2s1.1-.6,2-.6,1.1.1,1.6.2.8.3,1.1.4l-.4,1c-.3-.2-.6-.3-1-.4s-.8-.1-1.2-.1-.7,0-.9.1-.4.2-.5.4-.2.4-.2.7-.1.6-.1.9h4.3v-.2Z"/>
    <path class="cls-18" d="M427.2,300.6v1.4c0,.4.1.8.1,1.2h-.8l-.3-1.1h-.1c-.2.4-.5.6-.9.9-.4.2-.8.3-1.3.3-1,0-1.7-.3-2.2-.9s-.7-1.6-.7-3,.3-2.3.9-2.9c.6-.7,1.4-1,2.5-1s.7,0,.9.1.4.1.7.2v-3.1h1.2v7.9h0ZM424.2,302.3c.5,0,.9-.1,1.2-.4.3-.3.5-.7.6-1.2v-3.7c-.2-.1-.4-.2-.6-.3-.2-.1-.5-.1-.9-.1-.7,0-1.2.2-1.6.7s-.6,1.2-.6,2.2,0,.8.1,1.1c.1.4.2.7.3.9.1.3.3.4.6.6.3,0,.5.2.9.2Z"/>
    <path class="cls-18" d="M435,302.6c-.3.2-.7.4-1.1.6-.5.1-.9.2-1.4.2s-1.1-.1-1.5-.3c-.4-.2-.8-.5-1-.8-.3-.3-.5-.8-.6-1.2-.1-.5-.2-1-.2-1.6,0-1.3.3-2.3.9-2.9s1.4-1,2.4-1,.7,0,1,.1.6.2.9.4c.3.2.5.5.7.9s.3.9.3,1.5,0,.7-.1,1.1h-4.8c0,.4,0,.8.1,1.2s.2.6.4.9c.2.2.4.4.7.5s.7.2,1.1.2.7-.1,1-.2.6-.3.8-.4l.4.8ZM432.4,296.5c-.6,0-1.1.2-1.4.5-.4.3-.6.8-.6,1.6h3.7c0-.8-.1-1.3-.4-1.6-.3-.3-.7-.5-1.3-.5Z"/>
    <path class="cls-18" d="M442,303.2v-4.3c0-.8-.1-1.4-.3-1.8-.2-.4-.6-.6-1.2-.6s-1,.1-1.3.4-.6.6-.7,1.1v5.1h-1.2v-7.5h.8l.2.9h.1c.2-.3.6-.6,1-.8.4-.2.9-.3,1.4-.3s.8,0,1.1.1c.3.1.6.3.8.5.2.2.4.6.5,1s.2.9.2,1.5v4.5h-1.4v.2Z"/>
    <path class="cls-18" d="M450.5,302.7c-.3.2-.7.4-1.1.5s-.8.2-1.3.2-1.1-.1-1.5-.3c-.4-.2-.7-.5-1-.8s-.4-.8-.6-1.2c-.1-.5-.2-1-.2-1.6,0-1.3.3-2.2.8-2.9.6-.7,1.4-1,2.4-1s.9,0,1.2.1c.3.1.6.2.9.3l-.3,1c-.2-.1-.5-.2-.8-.3s-.6-.1-.9-.1c-1.4,0-2.1,1-2.1,2.9s0,.7.1,1.1c.1.3.2.6.4.9.2.3.4.5.7.6.3.2.6.2,1.1.2s.7-.1,1-.2.5-.2.7-.4l.5,1Z"/>
    <path class="cls-18" d="M452.1,293.4c0-.2.1-.4.2-.6.2-.2.4-.2.6-.2s.4.1.6.2.3.4.3.6-.1.4-.3.6-.4.2-.6.2-.4-.1-.6-.2c-.1-.2-.2-.4-.2-.6ZM452.4,295.7h1.2v7.5h-1.2v-7.5Z"/>
    <path class="cls-18" d="M456,296.2c.4-.2.8-.4,1.3-.5s1-.2,1.6-.2.9.1,1.3.2c.3.1.6.3.7.5.2.2.3.5.3.7.1.3.1.5.1.8v4.4c0,.3.1.6.2.9h-.9l-.3-1h-.1c-.1.1-.2.3-.3.4-.1.1-.3.3-.5.4s-.4.2-.7.3c-.3.1-.5.1-.9.1s-.6,0-.9-.2c-.3-.1-.5-.2-.7-.4-.2-.2-.4-.4-.5-.7-.1-.3-.2-.6-.2-.9s.1-.8.3-1.1c.2-.3.4-.5.8-.7s.7-.3,1.2-.4,1-.1,1.5-.1h.8v-.8c0-.5-.1-.9-.3-1.2-.2-.2-.6-.3-1.2-.3h-.5c-.2,0-.4.1-.6.1s-.4.1-.6.2-.3.1-.5.2l-.4-.7ZM458.2,302.3c.3,0,.5,0,.8-.1.2-.1.4-.2.6-.3.2-.1.3-.2.4-.4.1-.1.2-.3.2-.4v-1.2h-.8c-.3,0-.6,0-.9.1-.3,0-.6.1-.8.2-.2.1-.4.2-.5.4-.1.2-.2.4-.2.6,0,.3.1.6.4.9s.4.2.8.2Z"/>
    <path class="cls-18" d="M464.9,301.3c0,.3.1.6.2.8.1.1.3.2.5.2h.4c.2,0,.3-.1.5-.1v.9c-.1.1-.3.1-.6.2-.3,0-.5.1-.7.1-.5,0-.8-.1-1.1-.4s-.4-.7-.4-1.3v-9h1.2v8.6Z"/>
    <path class="cls-18" d="M468,293.4c0-.2.1-.4.2-.6.2-.2.4-.2.6-.2s.4.1.6.2.3.4.3.6-.1.4-.3.6-.4.2-.6.2-.4-.1-.6-.2c-.2-.2-.2-.4-.2-.6ZM468.2,295.7h1.2v7.5h-1.2v-7.5Z"/>
    <path class="cls-18" d="M477.7,300.6v1.4c0,.4.1.8.1,1.2h-.8l-.3-1.1h-.1c-.2.4-.5.6-.9.9-.4.2-.8.3-1.3.3-1,0-1.7-.3-2.2-.9s-.7-1.6-.7-3,.3-2.3.9-2.9c.6-.7,1.4-1,2.5-1s.7,0,.9.1.4.1.7.2v-3.1h1.2v7.9h0ZM474.7,302.3c.5,0,.9-.1,1.2-.4.3-.3.5-.7.6-1.2v-3.7c-.2-.1-.4-.2-.6-.3-.2-.1-.5-.1-.9-.1-.7,0-1.2.2-1.6.7s-.6,1.2-.6,2.2,0,.8.1,1.1c.1.4.2.7.3.9.1.3.3.4.6.6.3,0,.6.2.9.2Z"/>
    <path class="cls-18" d="M479.9,296.2c.4-.2.8-.4,1.3-.5s1-.2,1.6-.2.9.1,1.3.2c.3.1.6.3.7.5.2.2.3.5.3.7.1.3.1.5.1.8v4.4c0,.3.1.6.2.9h-.9l-.3-1h-.1c-.1.1-.2.3-.3.4-.1.1-.3.3-.5.4s-.4.2-.7.3c-.3.1-.5.1-.9.1s-.6,0-.9-.2c-.3-.1-.5-.2-.7-.4-.2-.2-.4-.4-.5-.7-.1-.3-.2-.6-.2-.9s.1-.8.3-1.1c.2-.3.4-.5.8-.7s.7-.3,1.2-.4,1-.1,1.5-.1h.8v-.8c0-.5-.1-.9-.3-1.2-.2-.2-.6-.3-1.2-.3h-.5c-.2,0-.4.1-.6.1s-.4.1-.6.2-.3.1-.5.2l-.4-.7ZM482.1,302.3c.3,0,.5,0,.8-.1.2-.1.4-.2.6-.3.2-.1.3-.2.4-.4.1-.1.2-.3.2-.4v-1.2h-.8c-.3,0-.6,0-.9.1-.3,0-.6.1-.8.2-.2.1-.4.2-.5.4-.1.2-.2.4-.2.6,0,.3.1.6.4.9s.4.2.8.2Z"/>
    <path class="cls-18" d="M493.3,300.6v1.4c0,.4.1.8.1,1.2h-.8l-.3-1.1h-.1c-.2.4-.5.6-.9.9-.4.2-.8.3-1.3.3-1,0-1.7-.3-2.2-.9s-.7-1.6-.7-3,.3-2.3.9-2.9c.6-.7,1.4-1,2.5-1s.7,0,.9.1.4.1.7.2v-3.1h1.2v7.9h0ZM490.2,302.3c.5,0,.9-.1,1.2-.4.3-.3.5-.7.6-1.2v-3.7c-.2-.1-.4-.2-.6-.3-.2-.1-.5-.1-.9-.1-.7,0-1.2.2-1.6.7s-.6,1.2-.6,2.2,0,.8.1,1.1c.1.4.2.7.3.9.1.3.3.4.6.6.3,0,.6.2.9.2Z"/>
    <path class="cls-18" d="M501,302.6c-.3.2-.7.4-1.1.6-.5.1-.9.2-1.4.2s-1.1-.1-1.5-.3c-.4-.2-.8-.5-1-.8-.3-.3-.5-.8-.6-1.2-.1-.5-.2-1-.2-1.6,0-1.3.3-2.3.9-2.9s1.4-1,2.4-1,.7,0,1,.1.6.2.9.4c.3.2.5.5.7.9s.3.9.3,1.5,0,.7-.1,1.1h-4.8c0,.4,0,.8.1,1.2s.2.6.4.9c.2.2.4.4.7.5s.7.2,1.1.2.7-.1,1-.2.6-.3.8-.4l.4.8ZM498.5,296.5c-.6,0-1.1.2-1.4.5-.4.3-.6.8-.6,1.6h3.7c0-.8-.1-1.3-.4-1.6-.4-.3-.8-.5-1.3-.5Z"/>
    <path class="cls-18" d="M512.7,302.6c-.3.2-.7.4-1.1.6-.5.1-.9.2-1.4.2s-1.1-.1-1.5-.3c-.4-.2-.8-.5-1-.8-.3-.3-.5-.8-.6-1.2-.1-.5-.2-1-.2-1.6,0-1.3.3-2.3.9-2.9s1.4-1,2.4-1,.7,0,1,.1.6.2.9.4c.3.2.5.5.7.9s.3.9.3,1.5,0,.7,0,1.1h-5c0,.4,0,.8.1,1.2s.2.6.4.9c.2.2.4.4.7.5s.7.2,1.1.2.7-.1,1-.2.6-.3.8-.4l.6.8ZM510.1,296.5c-.6,0-1.1.2-1.4.5-.4.3-.6.8-.6,1.6h3.7c0-.8-.1-1.3-.4-1.6-.4-.3-.8-.5-1.3-.5Z"/>
    <path class="cls-18" d="M518.8,293.4c0-.2,0-.4.2-.6.2-.2.4-.2.6-.2s.4.1.6.2.3.4.3.6,0,.4-.3.6-.4.2-.6.2-.4-.1-.6-.2c0-.2-.2-.4-.2-.6ZM519.1,295.7h1.2v7.5h-1.2v-7.5Z"/>
    <path class="cls-18" d="M527.7,303.2v-4.3c0-.8,0-1.4-.3-1.8s-.6-.6-1.2-.6-1,.1-1.3.4-.6.6-.7,1.1v5.1h-1.2v-7.5h.8l.2.9h0c.2-.3.6-.6,1-.8.4-.2.9-.3,1.4-.3s.8,0,1.1.1.6.3.8.5.4.6.5,1,.2.9.2,1.5v4.5h-1.4v.2Z"/>
  </g>
  <g class="cls-21">
    <path class="cls-18" d="M530.1,295.7h1.2v-1.5l1.2-.3v1.8h2v1h-2v4.2c0,.5,0,.9.2,1.1s.3.3.7.3.5,0,.7-.1.4-.1.6-.2l.3.9c-.3.1-.6.2-.9.3-.3.1-.7.1-1,.1-.6,0-1-.2-1.3-.5s-.4-.9-.4-1.7v-4.4h-1.2v-1h0Z"/>
    <path class="cls-18" d="M541.3,302.6c-.3.2-.7.4-1.1.6-.5.1-.9.2-1.4.2s-1.1-.1-1.5-.3c-.4-.2-.8-.5-1-.8-.3-.3-.5-.8-.6-1.2,0-.5-.2-1-.2-1.6,0-1.3.3-2.3.9-2.9.6-.7,1.4-1,2.4-1s.7,0,1,.1.6.2.9.4c.3.2.5.5.7.9s.3.9.3,1.5,0,.7,0,1.1h-4.8c0,.4,0,.8,0,1.2s.2.6.4.9c.2.2.4.4.7.5s.7.2,1.1.2.7-.1,1-.2.6-.3.8-.4l.4.8ZM538.7,296.5c-.6,0-1.1.2-1.4.5-.4.3-.6.8-.6,1.6h3.7c0-.8,0-1.3-.4-1.6-.3-.3-.7-.5-1.3-.5Z"/>
  </g>
  <g class="cls-21">
    <path class="cls-18" d="M549.2,303.5c0,1-.3,1.7-.8,2.1-.5.5-1.3.7-2.3.7s-1.1,0-1.4-.1-.7-.2-.9-.3l.3-1c.2.1.5.2.8.3s.6.1,1.1.1.8,0,1-.1c.3-.1.5-.2.6-.4s.3-.4.3-.7c0-.3,0-.6,0-1v-.7h0c-.2.3-.5.5-.8.7s-.7.2-1.2.2c-1,0-1.8-.3-2.2-.9-.5-.6-.7-1.6-.7-2.9s.3-2.3.9-2.9c.6-.7,1.5-1,2.7-1s1.1,0,1.5.1.8.2,1.1.3v7.5h0ZM546.1,302.3c.5,0,.9-.1,1.2-.4s.5-.7.6-1.2v-3.8c-.4-.2-.9-.3-1.5-.3s-1.2.2-1.6.7c-.4.5-.6,1.2-.6,2.2s0,.8,0,1.2c0,.4.2.7.3.9.2.3.3.4.6.6.3,0,.6,0,.9,0Z"/>
    <path class="cls-18" d="M555,296.8c-.3-.1-.6-.2-.9-.2s-.8.1-1,.4c-.3.2-.4.5-.5.9v5.3h-1.2v-7.5h.8l.2.9h0c.2-.3.4-.6.7-.8.3-.2.6-.3,1-.3s.6.1,1,.2l-.2,1.1Z"/>
    <path class="cls-18" d="M556.6,293.4c0-.2,0-.4.2-.6.2-.2.4-.2.6-.2s.4.1.6.2.3.4.3.6,0,.4-.3.6-.4.2-.6.2-.4-.1-.6-.2c-.2-.2-.2-.4-.2-.6ZM556.8,295.7h1.2v7.5h-1.2v-7.5Z"/>
    <path class="cls-18" d="M566.3,300.6v1.4c0,.4,0,.8,0,1.2h-.8l-.3-1.1h0c-.2.4-.5.6-.9.9s-.8.3-1.3.3c-1,0-1.7-.3-2.2-.9s-.7-1.6-.7-3,.3-2.3.9-2.9,1.4-1,2.5-1,.7,0,.9.1.4.1.7.2v-3.1h1.2v7.9h0ZM563.3,302.3c.5,0,.9-.1,1.2-.4s.5-.7.6-1.2v-3.7l-.6-.3c-.2-.1-.5-.1-.9-.1-.7,0-1.2.2-1.6.7-.4.5-.6,1.2-.6,2.2s0,.8,0,1.1c0,.4.2.7.3.9,0,.3.3.4.6.6.3,0,.6.2.9.2Z"/>
    <path class="cls-18" d="M568.5,296.2c.4-.2.8-.4,1.3-.5s1-.2,1.6-.2.9.1,1.3.2c.3.1.6.3.7.5.2.2.3.5.3.7,0,.3,0,.5,0,.8v4.4c0,.3,0,.6.2.9h-.9l-.3-1h0c0,.1-.2.3-.3.4s-.3.3-.5.4-.4.2-.7.3c-.3.1-.5.1-.9.1s-.6,0-.9-.2c-.3-.1-.5-.2-.7-.4-.2-.2-.4-.4-.5-.7,0-.3-.2-.6-.2-.9s0-.8.3-1.1c.2-.3.4-.5.8-.7s.7-.3,1.2-.4,1-.1,1.5-.1h.8v-.8c0-.5,0-.9-.3-1.2-.2-.2-.6-.3-1.2-.3h-.5c-.2,0-.4.1-.6.1s-.4.1-.6.2c-.2.1-.3.1-.5.2l-.4-.7ZM570.7,302.3c.3,0,.5,0,.8-.1l.6-.3c.2-.1.3-.2.4-.4,0-.1.2-.3.2-.4v-1.2h-.8c-.3,0-.6,0-.9.1-.3,0-.6.1-.8.2s-.4.2-.5.4c0,.2-.2.4-.2.6,0,.3,0,.6.4.9s.4.2.8.2Z"/>
    <path class="cls-18" d="M581.9,300.6v1.4c0,.4,0,.8,0,1.2h-.8l-.3-1.1h0c-.2.4-.5.6-.9.9-.4.2-.8.3-1.3.3-1,0-1.7-.3-2.2-.9s-.7-1.6-.7-3,.3-2.3.9-2.9c.6-.7,1.4-1,2.5-1s.7,0,.9.1.4.1.7.2v-3.1h1.2v7.9h0ZM578.8,302.3c.5,0,.9-.1,1.2-.4s.5-.7.6-1.2v-3.7l-.6-.3c-.2-.1-.5-.1-.9-.1-.7,0-1.2.2-1.6.7-.4.5-.6,1.2-.6,2.2s0,.8,0,1.1c0,.4.2.7.3.9,0,.3.3.4.6.6.3,0,.6.2.9.2Z"/>
    <path class="cls-18" d="M589.6,302.6c-.3.2-.7.4-1.1.6-.5.1-.9.2-1.4.2s-1.1-.1-1.5-.3c-.4-.2-.8-.5-1-.8-.3-.3-.5-.8-.6-1.2,0-.5-.2-1-.2-1.6,0-1.3.3-2.3.9-2.9s1.4-1,2.4-1,.7,0,1,.1.6.2.9.4c.3.2.5.5.7.9s.3.9.3,1.5,0,.7,0,1.1h-4.9c0,.4,0,.8,0,1.2s.2.6.4.9c.2.2.4.4.7.5s.7.2,1.1.2.7-.1,1-.2.6-.3.8-.4l.5.8ZM587.1,296.5c-.6,0-1.1.2-1.4.5-.4.3-.6.8-.6,1.6h3.7c0-.8,0-1.3-.4-1.6-.4-.3-.8-.5-1.3-.5Z"/>
  </g>
  <g class="cls-21">
    <path class="cls-18" d="M396.5,318.6v1.4c0,.4.1.8.1,1.2h-.8l-.3-1.1h-.1c-.2.4-.5.6-.9.9s-.8.3-1.3.3c-1,0-1.7-.3-2.2-.9s-.7-1.6-.7-3,.3-2.3.9-2.9,1.4-1,2.5-1,.7,0,.9.1.4.1.7.2v-3.1h1.2v7.9h0ZM393.4,320.3c.5,0,.9-.1,1.2-.4.3-.3.5-.7.6-1.2v-3.7c-.2-.1-.4-.2-.6-.3-.2-.1-.5-.1-.9-.1-.7,0-1.2.2-1.6.7s-.6,1.2-.6,2.2,0,.8.1,1.1c.1.4.2.7.3.9.1.3.3.4.6.6.3,0,.6.2.9.2Z"/>
    <path class="cls-18" d="M398.4,317.4c0-1.3.3-2.2.8-2.9.6-.7,1.4-1,2.4-1s1,.1,1.5.3c.4.2.8.5,1,.8s.5.8.6,1.2.2,1,.2,1.6c0,1.3-.3,2.2-.8,2.9-.6.7-1.4,1-2.4,1s-1-.1-1.5-.3c-.4-.2-.8-.5-1-.8-.3-.3-.5-.8-.6-1.2-.2-.4-.2-1-.2-1.6ZM399.6,317.4c0,.4,0,.7.1,1.1s.2.7.4.9c.2.3.4.5.6.6.3.2.6.2.9.2,1.4,0,2-1,2-2.9s0-.8-.1-1.1c-.1-.3-.2-.7-.4-.9-.2-.3-.4-.5-.6-.6s-.6-.2-.9-.2c-1.3,0-2,1-2,2.9Z"/>
    <path class="cls-18" d="M410.7,314.2c.4-.2.8-.4,1.3-.5s1-.2,1.6-.2.9.1,1.3.2c.3.1.6.3.7.5.2.2.3.5.3.7.1.3.1.5.1.8v4.4c0,.3.1.6.2.9h-.9l-.3-1h-.1c-.1.1-.2.3-.3.4-.1.1-.3.3-.5.4s-.4.2-.7.3c-.3.1-.5.1-.9.1s-.6,0-.9-.2c-.3-.1-.5-.2-.7-.4-.2-.2-.4-.4-.5-.7-.1-.3-.2-.6-.2-.9s.1-.8.3-1.1c.2-.3.4-.5.8-.7s.7-.3,1.2-.4,1-.1,1.5-.1h.8v-.8c0-.5-.1-.9-.3-1.2-.2-.2-.6-.3-1.2-.3h-.5c-.2,0-.4.1-.6.1s-.4.1-.6.2-.3.1-.5.2l-.4-.7ZM412.8,320.3c.3,0,.5,0,.8-.1.2-.1.4-.2.6-.3.2-.1.3-.2.4-.4s.2-.3.2-.4v-1.2h-.8c-.3,0-.6,0-.9.1-.3,0-.6.1-.8.2-.2.1-.4.2-.5.4s-.2.4-.2.6c0,.3.1.6.4.9s.4.2.8.2Z"/>
    <path class="cls-18" d="M418.3,313.7h.8l.2.9h.1c.2-.4.5-.6.9-.8.4-.2.8-.3,1.3-.3,1,0,1.7.3,2.2.9s.7,1.6.7,2.9-.1,1.2-.2,1.7-.4.9-.7,1.3c-.3.4-.7.6-1.1.8-.4.2-.9.3-1.4.3s-.7,0-.9-.1c-.2,0-.4-.1-.7-.2v3.1h-1.2v-10.5h0ZM421.3,314.5c-.5,0-.9.1-1.2.4s-.5.7-.6,1.2v3.7c.2.1.4.2.6.3.2.1.5.1.9.1.7,0,1.2-.3,1.6-.8s.6-1.3.6-2.3,0-.8-.1-1.1c-.1-.3-.2-.6-.3-.9-.2-.2-.4-.4-.6-.5s-.6-.1-.9-.1Z"/>
    <path class="cls-18" d="M427.7,319.3c0,.3.1.6.2.8.1.1.3.2.5.2h.4c.2,0,.3-.1.5-.1v.9c-.1.1-.3.1-.6.2-.3,0-.5.1-.7.1-.5,0-.8-.1-1.1-.4s-.4-.7-.4-1.3v-9h1.2v8.6Z"/>
    <path class="cls-18" d="M430.8,311.4c0-.2.1-.4.2-.6.2-.2.4-.2.6-.2s.4.1.6.2.3.4.3.6-.1.4-.3.6-.4.2-.6.2-.4-.1-.6-.2c-.2-.2-.2-.4-.2-.6ZM431,313.7h1.2v7.5h-1.2v-7.5Z"/>
    <path class="cls-18" d="M439.9,320.7c-.3.2-.7.4-1.1.5s-.8.2-1.3.2-1.1-.1-1.5-.3c-.4-.2-.7-.5-1-.8s-.4-.8-.6-1.2c-.1-.5-.2-1-.2-1.6,0-1.3.3-2.2.8-2.9.6-.7,1.4-1,2.4-1s.9,0,1.2.1c.3.1.6.2.9.3l-.3,1c-.2-.1-.5-.2-.8-.3s-.6-.1-.9-.1c-1.4,0-2.1,1-2.1,2.9s0,.7.1,1.1c.1.3.2.6.4.9.2.3.4.5.7.6.3.2.6.2,1.1.2s.7-.1,1-.2.5-.2.7-.4l.5,1Z"/>
    <path class="cls-18" d="M441.4,314.2c.4-.2.8-.4,1.3-.5s1-.2,1.6-.2.9.1,1.3.2c.3.1.6.3.7.5.2.2.3.5.3.7.1.3.1.5.1.8v4.4c0,.3.1.6.2.9h-.9l-.3-1h-.1c-.1.1-.2.3-.3.4-.1.1-.3.3-.5.4s-.4.2-.7.3c-.3.1-.5.1-.9.1s-.6,0-.9-.2c-.3-.1-.5-.2-.7-.4-.2-.2-.4-.4-.5-.7-.1-.3-.2-.6-.2-.9s.1-.8.3-1.1c.2-.3.4-.5.8-.7s.7-.3,1.2-.4,1-.1,1.5-.1h.8v-.8c0-.5-.1-.9-.3-1.2-.2-.2-.6-.3-1.2-.3h-.5c-.2,0-.4.1-.6.1s-.4.1-.6.2-.3.1-.5.2l-.4-.7ZM443.5,320.3c.3,0,.5,0,.8-.1.2-.1.4-.2.6-.3.2-.1.3-.2.4-.4.1-.1.2-.3.2-.4v-1.2h-.8c-.3,0-.6,0-.9.1-.3,0-.6.1-.8.2-.2.1-.4.2-.5.4-.1.2-.2.4-.2.6,0,.3.1.6.4.9s.5.2.8.2Z"/>
    <path class="cls-18" d="M448,313.7h1.2v-1.5l1.2-.3v1.8h2v1h-2v4.2c0,.5.1.9.2,1.1s.3.3.7.3.5,0,.7-.1.4-.1.6-.2l.3.9c-.3.1-.6.2-.9.3-.3.1-.7.1-1,.1-.6,0-1-.2-1.3-.5s-.4-.9-.4-1.7v-4.4h-1.3v-1Z"/>
    <path class="cls-18" d="M454.1,311.4c0-.2.1-.4.2-.6.2-.2.4-.2.6-.2s.4.1.6.2.3.4.3.6-.1.4-.3.6-.4.2-.6.2-.4-.1-.6-.2c-.2-.2-.2-.4-.2-.6ZM454.3,313.7h1.2v7.5h-1.2v-7.5Z"/>
  </g>
  <g class="cls-21">
    <path class="cls-18" d="M460.2,318.1l.4,1.4h0l.4-1.5,1.7-4.4h1.3l-3.2,7.7h-.5l-3.3-7.7h1.4l1.8,4.5Z"/>
  </g>
  <g class="cls-21">
    <path class="cls-18" d="M464.7,317.4c0-1.3.3-2.2.8-2.9.6-.7,1.4-1,2.4-1s1,.1,1.5.3c.4.2.8.5,1,.8s.5.8.6,1.2.2,1,.2,1.6c0,1.3-.3,2.2-.8,2.9-.6.7-1.4,1-2.4,1s-1-.1-1.5-.3c-.4-.2-.8-.5-1-.8-.3-.3-.5-.8-.6-1.2-.1-.4-.2-1-.2-1.6ZM466,317.4c0,.4,0,.7.1,1.1s.2.7.4.9c.2.3.4.5.6.6.3.2.6.2.9.2,1.4,0,2-1,2-2.9s0-.8-.1-1.1c-.1-.3-.2-.7-.4-.9-.2-.3-.4-.5-.6-.6s-.6-.2-.9-.2c-1.3,0-2,1-2,2.9Z"/>
    <path class="cls-18" d="M477.8,318.4c0-.4.1-.8.2-1.1.1-.4.3-.7.6-1s.5-.6.8-.9.6-.5,1-.7c-.2-.4-.4-.7-.6-1.1s-.3-.8-.3-1.2,0-.5.1-.7.2-.4.4-.6c.2-.2.4-.3.7-.4.3-.1.6-.2,1-.2s.8.1,1,.2c.3.1.5.2.7.4.2.2.3.4.4.6s.1.4.1.6c0,.4-.2.9-.5,1.3s-.8.9-1.5,1.3c.2.3.3.6.6.9.2.3.4.6.7.9.2.3.5.6.7.9s.5.6.8.8c.1-.1.2-.3.3-.5.1-.2.2-.4.3-.6.1-.2.2-.4.3-.6.1-.2.2-.4.2-.6l.9.4c-.1.2-.1.4-.3.6-.1.2-.2.5-.4.7s-.3.5-.4.7-.3.4-.4.6c.2.2.4.4.6.5s.3.3.5.4c.1.1.3.2.4.3.1.1.3.2.4.2l-.8.8c-.5-.3-1.1-.7-1.8-1.4-.2.2-.4.4-.6.5-.2.2-.5.3-.7.4-.3.1-.6.2-.9.3-.3.1-.7.1-1.1.1s-.9-.1-1.3-.2-.8-.3-1.1-.6-.6-.6-.7-.9c-.2-.2-.3-.6-.3-1.1ZM483.8,319.2l-.9-.9c-.3-.3-.5-.7-.8-1s-.5-.7-.7-1-.4-.6-.5-.8c-.3.2-.5.4-.8.6-.2.2-.4.4-.6.7-.2.2-.3.5-.4.8s-.1.6-.1.9.1.6.2.8c.1.2.3.5.5.6s.5.3.8.4.6.1.9.1.5,0,.7-.1.5-.1.7-.2.4-.2.6-.3.3-.4.4-.6ZM480.6,312.4c0,.3.1.6.2.9s.3.6.5.9c.5-.3.9-.6,1.1-.9s.3-.5.3-.7c0-.3-.1-.6-.2-.8s-.4-.3-.8-.3-.6.1-.8.3-.3.3-.3.6Z"/>
    <path class="cls-18" d="M492.6,313.7h1.2v-.4c0-.5,0-.9.1-1.2s.2-.6.4-.8.4-.4.7-.5c.3-.1.6-.2,1-.2s.6,0,.8.1.5.1.8.2l-.3,1c-.2-.1-.4-.2-.7-.2h-.6c-.3,0-.5,0-.6.1s-.3.2-.3.4c-.1.2-.1.3-.1.6v1h2v1h-2v6.5h-1.2v-6.5h-1.2v-1.1h0Z"/>
    <path class="cls-18" d="M501.7,314.8c-.3-.1-.6-.2-.9-.2s-.8.1-1,.4c-.3.2-.4.5-.5.9v5.3h-1.2v-7.5h.8l.2.9h.1c.2-.3.4-.6.7-.8.3-.2.6-.3,1-.3s.6.1,1,.2l-.2,1.1Z"/>
    <path class="cls-18" d="M508.8,320.6c-.3.2-.7.4-1.1.6-.5.1-.9.2-1.4.2s-1.1-.1-1.5-.3c-.4-.2-.8-.5-1-.8-.3-.3-.5-.8-.6-1.2-.1-.5-.2-1-.2-1.6,0-1.3.3-2.3.9-2.9s1.4-1,2.4-1,.7,0,1,.1.6.2.9.4c.3.2.5.5.7.9s.3.9.3,1.5,0,.7-.1,1.1h-4.8c0,.4,0,.8.1,1.2s.2.6.4.9c.2.2.4.4.7.5s.7.2,1.1.2.7-.1,1-.2.6-.3.8-.4l.4.8ZM506.2,314.5c-.6,0-1.1.2-1.4.5-.4.3-.6.8-.6,1.6h3.7c0-.8-.1-1.3-.4-1.6-.4-.3-.8-.5-1.3-.5Z"/>
    <path class="cls-18" d="M514.2,319.1c0-.3,0-.5-.3-.7s-.4-.3-.7-.4-.6-.2-.9-.3c-.3-.1-.6-.2-.9-.4s-.5-.4-.7-.6c-.2-.3-.3-.6-.3-1,0-.7.2-1.2.6-1.6s1-.5,1.7-.5,1,0,1.4.1.7.2,1,.3l-.3,1c-.2-.1-.5-.2-.8-.3-.3-.1-.7-.1-1-.1s-.8.1-1,.2c-.2.2-.3.4-.3.8s.1.5.3.6c.2.1.4.3.7.4s.6.2.9.3c.3.1.6.3.9.4.3.2.5.4.7.7.2.3.3.6.3,1.1s0,.6-.2.9c0,.3-.3.5-.5.7s-.5.4-.8.5-.7.2-1.1.2c-.6,0-1.1-.1-1.5-.2s-.7-.2-1-.4l.4-1c.2.1.5.3.9.4.4.1.7.2,1.1.2s.8-.1,1.1-.3c.2-.2.3-.5.3-1Z"/>
    <path class="cls-18" d="M522,321.2v-4.3c0-.4,0-.7,0-1s0-.5-.2-.7c0-.2-.3-.3-.5-.4s-.5-.1-.8-.1c-.5,0-.9.2-1.3.5-.4.3-.6.7-.7,1.2v5h-1.2v-10.5h1.2v3.8h0c.3-.3.6-.6.9-.7.4-.2.8-.3,1.4-.3s.8,0,1.1.1.6.3.8.5.4.6.5,1,0,.9,0,1.5v4.5h-1.3Z"/>
    <path class="cls-18" d="M530.2,321.2v-4.3c0-.8,0-1.4-.3-1.8s-.6-.6-1.2-.6-1,.1-1.3.4-.6.6-.7,1.1v5.1h-1.2v-7.5h.8l.2.9h0c.2-.3.6-.6,1-.8.4-.2.9-.3,1.4-.3s.8,0,1.1.1.6.3.8.5.4.6.5,1,.2.9.2,1.5v4.5h-1.4v.2Z"/>
    <path class="cls-18" d="M539.1,320.6c-.3.2-.7.4-1.1.6-.5.1-.9.2-1.4.2s-1.1-.1-1.5-.3c-.4-.2-.8-.5-1-.8-.3-.3-.5-.8-.6-1.2,0-.5-.2-1-.2-1.6,0-1.3.3-2.3.9-2.9s1.4-1,2.4-1,.7,0,1,.1.6.2.9.4c.3.2.5.5.7.9s.3.9.3,1.5,0,.7,0,1.1h-4.8c0,.4,0,.8,0,1.2s.2.6.4.9c.2.2.4.4.7.5s.7.2,1.1.2.7-.1,1-.2.6-.3.8-.4l.4.8ZM536.5,314.5c-.6,0-1.1.2-1.4.5-.4.3-.6.8-.6,1.6h3.7c0-.8,0-1.3-.4-1.6-.3-.3-.7-.5-1.3-.5Z"/>
    <path class="cls-18" d="M544.6,319.1c0-.3,0-.5-.3-.7s-.4-.3-.7-.4-.6-.2-.9-.3c-.3-.1-.6-.2-.9-.4s-.5-.4-.7-.6c-.2-.3-.3-.6-.3-1,0-.7.2-1.2.6-1.6s1-.5,1.7-.5,1,0,1.4.1.7.2,1,.3l-.3,1c-.2-.1-.5-.2-.8-.3-.3-.1-.7-.1-1-.1s-.8.1-1,.2c-.2.2-.3.4-.3.8s0,.5.3.6.4.3.7.4.6.2.9.3c.3.1.6.3.9.4.3.2.5.4.7.7.2.3.3.6.3,1.1s0,.6-.2.9c0,.3-.3.5-.5.7s-.5.4-.8.5-.7.2-1.1.2c-.6,0-1.1-.1-1.5-.2s-.7-.2-1-.4l.4-1c.2.1.5.3.9.4s.7.2,1.1.2.8-.1,1.1-.3c0-.2.3-.5.3-1Z"/>
    <path class="cls-18" d="M550.9,319.1c0-.3,0-.5-.3-.7s-.4-.3-.7-.4-.6-.2-.9-.3c-.3-.1-.6-.2-.9-.4s-.5-.4-.7-.6c-.2-.3-.3-.6-.3-1,0-.7.2-1.2.6-1.6s1-.5,1.7-.5,1,0,1.4.1.7.2,1,.3l-.3,1c-.2-.1-.5-.2-.8-.3-.3-.1-.7-.1-1-.1s-.8.1-1,.2c-.2.2-.3.4-.3.8s0,.5.3.6.4.3.7.4.6.2.9.3c.3.1.6.3.9.4.3.2.5.4.7.7.2.3.3.6.3,1.1s0,.6-.2.9c0,.3-.3.5-.5.7s-.5.4-.8.5-.7.2-1.1.2c-.6,0-1.1-.1-1.5-.2s-.7-.2-1-.4l.4-1c.2.1.5.3.9.4s.7.2,1.1.2.8-.1,1.1-.3c0-.2.3-.5.3-1Z"/>
  </g>
  <g class="cls-21">
    <path class="cls-18" d="M471.8,207.9h.6c0-.1,2.6-7.7,2.6-7.7h1.8l2.6,7.6h.6v1.1h-3v-1h.6c0-.1-.4-1.3-.4-1.3h-2.8l-.4,1.2h.6v1.1h-3v-1h.2ZM475,205.3h2l-1-3.1h0l-1,3.1Z"/>
    <path class="cls-18" d="M484.9,208.1c-.2.3-.4.5-.7.7-.3.2-.6.2-.9.2-.8,0-1.4-.3-1.9-.9s-.7-1.4-.7-2.3h0c0-1.1.2-1.9.7-2.6.4-.6,1.1-.9,1.9-.9s.6.1.9.2.5.3.7.6v-2.3l-.9-.2v-1.1h2.6v8.1l.8.2v1h-2.3l-.2-.7ZM482.5,205.8c0,.6.1,1,.3,1.3.2.3.5.5.9.5s.5-.1.7-.2c.2-.1.3-.3.5-.4v-2.7c-.1-.2-.3-.4-.5-.5s-.4-.2-.7-.2-.7.2-.9.6c-.2.4-.3.9-.3,1.5h0Z"/>
  </g>
  <g class="cls-21">
    <path class="cls-18" d="M490.7,203.5h-.6c0,.1.9,3,.9,3v.6h.1v-.6c.1,0,.9-2.9.9-2.9h-.6v-1.2h2.9v1.1h-.6c0,.1-1.9,5.4-1.9,5.4h-1.7l-1.9-5.3h-.6v-1.2h2.9v1.1h.2Z"/>
  </g>
  <g class="cls-21">
    <path class="cls-18" d="M498,209c-.9,0-1.7-.3-2.2-.9s-.8-1.4-.8-2.3v-.2c0-1,.3-1.8.8-2.4.5-.6,1.2-.9,2.1-.9s1.6.3,2,.8c.5.5.7,1.2.7,2.1v1h-3.9c0,.4.2.8.4,1.1.3.3.6.4,1,.4s.7,0,1-.1.5-.2.8-.4l.5,1.1c-.3.2-.6.4-1,.5s-.9.2-1.4.2ZM497.8,203.7c-.3,0-.6.1-.8.4-.2.2-.3.6-.3,1h2.1v-.2c0-.4-.1-.7-.3-.9-.1-.2-.3-.3-.7-.3Z"/>
    <path class="cls-18" d="M501.5,207.9l.8-.2v-4l-.9-.2v-1.1h2.6v.9c.3-.3.4-.6.7-.8.2-.2.5-.3.8-.3h.3c.1,0,.2,0,.3.1l-.2,1.6h-.7c-.3,0-.5,0-.6.1-.2.1-.3.2-.4.4v3.1l.8.2v1h-3.4v-.8h0Z"/>
    <path class="cls-18" d="M511.8,204.7h-1.2l-.2-.8c-.1-.1-.3-.2-.5-.2-.2-.1-.4-.1-.6-.1-.3,0-.6.1-.7.2s-.3.3-.3.5.1.4.3.5c.2.1.5.2,1,.3.8.2,1.4.4,1.8.7s.6.7.6,1.3-.3,1.1-.8,1.4c-.5.4-1.2.6-2,.6s-1-.1-1.4-.2c-.4-.1-.8-.4-1.1-.6v-1.5h1.2l.2.8c.1.1.2.2.4.2s.4.1.6.1c.4,0,.6-.1.8-.2s.3-.3.3-.5-.1-.4-.3-.5c-.2-.1-.5-.3-1-.4-.8-.2-1.3-.4-1.7-.7-.4-.3-.6-.7-.6-1.2s.2-1,.7-1.4c.4-.4,1.1-.6,1.9-.6s1,.1,1.4.2c.4.1.8.3,1.1.5v1.6Z"/>
    <path class="cls-18" d="M517,208.9c0-.1,0-.2,0-.3s0-.2,0-.3c-.2.2-.5.4-.8.6s-.6.2-1,.2c-.6,0-1.1-.2-1.5-.5s-.6-.8-.6-1.4.2-1.1.7-1.4c.5-.3,1.2-.5,2.1-.5h.9v-.6c0-.3,0-.6-.3-.7-.2-.2-.4-.3-.8-.3s-.4,0-.5.1c-.2,0-.3.1-.4.2v.7h-1.4v-1.4c.3-.2.7-.4,1.1-.5s.9-.2,1.3-.2c.8,0,1.5.2,2,.6.5.4.8,1,.8,1.7v3.3h.5v1.1h-1.9v-.4ZM515.5,207.7c.3,0,.5-.1.7-.2.2-.1.4-.3.5-.4v-1h-.9c-.4,0-.7.1-.8.3s-.3.4-.3.6,0,.4.2.5c0,.2.3.2.6.2ZM516,199.9h1.8l-1.6,1.6h-1.4l1.2-1.6Z"/>
    <path class="cls-18" d="M519.7,207.9l.8-.2v-4l-.9-.2v-1.1h2.6v.9c.3-.3.4-.6.7-.8.2-.2.5-.3.8-.3h.3c0,0,.2,0,.3.1l-.3,1.7h-.7c-.3,0-.5,0-.6.1-.2.1-.3.2-.4.4v3.1l.8.2v1h-3.4v-.9h0Z"/>
    <path class="cls-18" d="M524.7,207.9l.8-.2v-4l-.9-.2v-1.1h2.7v5.2l.8.2v1h-3.4v-.9h0ZM527.3,200.9h-1.7v-1.3h1.7v1.3Z"/>
    <path class="cls-18" d="M528.7,205.6c0-1,.3-1.8.8-2.4.5-.6,1.3-.9,2.2-.9s1.7.3,2.2.9c.5.6.8,1.4.8,2.4h0c0,1.1-.3,1.9-.8,2.5s-1.3.9-2.2.9-1.7-.3-2.3-.9-.8-1.4-.8-2.4h0c0-.1,0-.1,0-.1ZM530.4,205.7c0,.6,0,1.1.3,1.4s.5.5,1,.5.8-.2,1-.5.3-.8.3-1.4h0c0-.7,0-1.1-.3-1.5s-.5-.5-1-.5-.8.2-1,.5c-.2.4-.3.8-.3,1.4h0Z"/>
    <path class="cls-18" d="M541.6,207.7c.3,0,.6-.1.7-.3.2-.2.3-.4.3-.7h1.6c0,.7-.2,1.2-.7,1.6-.5.4-1.1.7-1.9.7s-1.7-.3-2.2-.9c-.5-.6-.8-1.4-.8-2.3v-.2c0-1,.3-1.7.8-2.3s1.3-.9,2.3-.9,1,.1,1.4.2c.4.2.8.4,1,.7v1.7h-1.4l-.3-1c0-.1-.2-.1-.3-.2,0,0-.3-.1-.4-.1-.5,0-.8.2-1,.5-.2.4-.3.8-.3,1.4v.2c0,.6,0,1,.3,1.4.1.3.4.5.9.5Z"/>
    <path class="cls-18" d="M545,205.6c0-1,.3-1.8.8-2.4.5-.6,1.3-.9,2.2-.9s1.7.3,2.2.9c.5.6.8,1.4.8,2.4h0c0,1.1-.3,1.9-.8,2.5s-1.2.9-2.2.9-1.7-.3-2.3-.9-.8-1.4-.8-2.4h0c0-.1,0-.1,0-.1ZM546.7,205.7c0,.6,0,1.1.3,1.4s.5.5,1,.5.8-.2,1-.5.3-.8.3-1.4h0c0-.7,0-1.1-.3-1.5s-.5-.5-1-.5-.8.2-1,.5c-.2.4-.3.8-.3,1.4h0Z"/>
    <path class="cls-18" d="M551.6,203.5v-1.1h2.6v.9c.3-.3.6-.6.9-.7.3-.2.7-.3,1.1-.3s.8.1,1.1.3.5.5.7.8c.2-.3.5-.6.8-.8s.7-.3,1.1-.3c.6,0,1.1.2,1.5.7.4.4.6,1.1.6,2v2.7l.8.2v1h-3.3v-1l.8-.2v-2.7c0-.5,0-.8-.2-1s-.4-.3-.7-.3-.5.1-.6.2c-.2.1-.3.3-.4.5v3.4l.7.2v1h-3.2v-1l.7-.2v-2.8c0-.5,0-.8-.2-1s-.4-.3-.7-.3-.4,0-.6.1c-.2.1-.3.2-.4.4v3.5l.8.2v1h-3.3v-1l.8-.2v-4l-1.4-.2Z"/>
  </g>
  <g class="cls-21">
    <path class="cls-18" d="M489,223.6c0-.1-.1-.2-.1-.3s-.1-.2-.1-.3c-.2.2-.5.4-.8.6s-.6.2-1,.2c-.6,0-1.1-.2-1.5-.5s-.6-.8-.6-1.4.2-1.1.7-1.4c.5-.3,1.2-.5,2.1-.5h.9v-.6c0-.3-.1-.6-.3-.7-.2-.2-.4-.3-.8-.3s-.4,0-.5.1c-.2,0-.3.1-.4.2v.7h-1.4v-1.4c.3-.2.7-.4,1.1-.5s.9-.2,1.3-.2c.8,0,1.5.2,2,.6.5.4.8,1,.8,1.7v3.3h.5v1.1h-1.9v-.4ZM487.5,222.4c.3,0,.5-.1.7-.2.2-.1.4-.3.5-.4v-1h-.9c-.4,0-.7.1-.8.3s-.3.4-.3.6.1.4.2.5c0,.2.3.2.6.2Z"/>
    <path class="cls-18" d="M494.6,222.4c.3,0,.6-.1.7-.3.2-.2.3-.4.3-.7h1.6c0,.7-.2,1.2-.7,1.6-.5.4-1.1.7-1.9.7s-1.7-.3-2.2-.9c-.5-.6-.8-1.4-.8-2.3v-.2c0-1,.3-1.7.8-2.3s1.3-.9,2.3-.9,1,.1,1.4.2c.4.2.8.4,1,.7v1.7h-1.4l-.3-1c-.1-.1-.2-.1-.3-.2-.1,0-.3-.1-.4-.1-.5,0-.8.2-1,.5-.2.4-.3.8-.3,1.4v.2c0,.6.1,1,.3,1.4s.4.5.9.5Z"/>
    <path class="cls-18" d="M501.1,223.7c-.9,0-1.7-.3-2.2-.9-.6-.6-.8-1.4-.8-2.3v-.2c0-1,.3-1.8.8-2.4.5-.6,1.2-.9,2.1-.9s1.5.3,2,.8.7,1.2.7,2.1v1h-3.9c0,.4.2.8.4,1.1.3.3.6.4,1,.4s.7,0,1-.1.5-.2.8-.4l.5,1.1c-.3.2-.6.4-1,.5-.4,0-.9.2-1.4.2ZM501,218.3c-.3,0-.6.1-.8.4s-.3.6-.3,1h2.1v-.2c0-.4-.1-.7-.3-.9-.1-.1-.4-.3-.7-.3Z"/>
    <path class="cls-18" d="M509.8,219.3h-1.2l-.2-.8c-.1-.1-.3-.2-.5-.2s-.4-.1-.6-.1c-.3,0-.5.1-.7.2-.2.1-.3.3-.3.5s.1.4.3.5c.2.1.5.2,1,.3.8.2,1.4.4,1.8.7s.6.7.6,1.3-.3,1.1-.8,1.4c-.5.4-1.2.6-2,.6s-1-.1-1.4-.2c-.4-.1-.8-.4-1.1-.6v-1.5h1.2l.2.8c.1.1.2.2.4.2s.4.1.6.1c.4,0,.6-.1.8-.2s.3-.3.3-.5-.1-.4-.3-.5c-.2-.1-.5-.3-1-.4-.8-.2-1.3-.4-1.7-.7s-.6-.7-.6-1.2.2-1,.7-1.4,1.1-.6,1.9-.6,1,.1,1.4.2.8.3,1.1.5v1.6Z"/>
    <path class="cls-18" d="M516.1,219.3h-1.2l-.2-.8c0-.1-.3-.2-.5-.2-.2-.1-.4-.1-.6-.1-.3,0-.5.1-.7.2-.2.1-.3.3-.3.5s0,.4.3.5.5.2,1,.3c.8.2,1.4.4,1.8.7.4.3.6.7.6,1.3s-.3,1.1-.8,1.4c-.5.4-1.2.6-2,.6s-1-.1-1.4-.2-.8-.4-1.1-.6v-1.5h1.2l.2.8c0,.1.2.2.4.2s.4.1.6.1c.4,0,.6-.1.8-.2.2-.1.3-.3.3-.5s0-.4-.3-.5-.5-.3-1-.4c-.8-.2-1.3-.4-1.7-.7-.4-.3-.6-.7-.6-1.2s.2-1,.7-1.4c.5-.4,1.1-.6,1.9-.6s1,.1,1.4.2.8.3,1.1.5v1.6Z"/>
    <path class="cls-18" d="M517.1,220.3c0-1,.3-1.8.8-2.4.5-.6,1.3-.9,2.2-.9s1.7.3,2.2.9c.5.6.8,1.4.8,2.4h0c0,1.1-.3,1.9-.8,2.5s-1.3.9-2.2.9-1.7-.3-2.3-.9-.8-1.4-.8-2.4h0c0-.1,0-.1,0-.1ZM518.9,220.4c0,.6,0,1.1.3,1.4s.5.5,1,.5.8-.2,1-.5.3-.8.3-1.4h0c0-.7,0-1.1-.3-1.5s-.5-.5-1-.5-.8.2-1,.5c-.2.4-.3.8-.3,1.4h0Z"/>
  </g>
  <g class="cls-21">
    <path class="cls-18" d="M527.1,222.5l.8-.2v-4l-.9-.2v-1.1h2.6v.9c.3-.3.4-.6.7-.8.2-.2.5-.3.8-.3h.3c0,0,.2,0,.3.1l-.2,1.6h-.7c-.3,0-.5,0-.6.1s-.3.2-.4.4v3.1l.8.2v1h-3.4v-.8h0Z"/>
  </g>
  <g class="cls-21">
    <path class="cls-18" d="M532,220.3c0-1,.3-1.8.8-2.4.5-.6,1.3-.9,2.2-.9s1.7.3,2.2.9c.5.6.8,1.4.8,2.4h0c0,1.1-.3,1.9-.8,2.5-.5.6-1.3.9-2.2.9s-1.7-.3-2.3-.9c-.5-.6-.8-1.4-.8-2.4h0c0-.1,0-.1,0-.1ZM533.8,220.4c0,.6,0,1.1.3,1.4.2.4.5.5,1,.5s.8-.2,1-.5c.2-.4.3-.8.3-1.4h0c0-.7,0-1.1-.3-1.5s-.5-.5-1-.5-.8.2-1,.5c-.2.4-.3.8-.3,1.4h0Z"/>
    <path class="cls-18" d="M538.9,220.3c0-1,.3-1.8.8-2.4.5-.6,1.3-.9,2.2-.9s1.7.3,2.2.9c.5.6.8,1.4.8,2.4h0c0,1.1-.3,1.9-.8,2.5-.5.6-1.3.9-2.2.9s-1.7-.3-2.3-.9c-.5-.6-.8-1.4-.8-2.4h0c0-.1,0-.1,0-.1ZM540.6,220.4c0,.6,0,1.1.3,1.4.2.4.5.5,1,.5s.8-.2,1-.5c.2-.4.3-.8.3-1.4h0c0-.7,0-1.1-.3-1.5s-.5-.5-1-.5-.8.2-1,.5c-.2.4-.3.8-.3,1.4h0Z"/>
    <path class="cls-18" d="M548.3,215.5v1.6h1.1v1.2h-1.1v3.3c0,.3,0,.4.2.5s.2.2.4.2h.3c0,0,.2,0,.3-.1v1.3c-.1.1-.3.1-.5.1h-.6c-.6,0-1.1-.2-1.4-.5-.3-.3-.5-.9-.5-1.6v-3.3h-1v-1.2h1v-1.6h1.8Z"/>
  </g>
  <g class="cls-21">
    <path class="cls-18" d="M74.5,366.9h.6c0-.1,2.6-7.7,2.6-7.7h1.8l2.6,7.6h.6v1.1h-3v-1h.6c0-.1-.4-1.3-.4-1.3h-2.8l-.4,1.2h.6v1.1h-3v-1h.2ZM77.7,364.3h2l-1-3.1h0l-1,3.1Z"/>
    <path class="cls-18" d="M87.6,367.1c-.2.3-.4.5-.7.7-.3.2-.6.2-.9.2-.8,0-1.4-.3-1.9-.9s-.7-1.4-.7-2.3h0c0-1.1.2-1.9.7-2.6.4-.6,1.1-.9,1.9-.9s.6.1.9.2.5.3.7.6v-2.3l-.9-.2v-1.1h2.6v8.1l.8.2v1h-2.3l-.2-.7ZM85.2,364.9c0,.6,0,1,.3,1.3.2.3.5.5.9.5s.5-.1.7-.2.3-.3.5-.4v-2.7c0-.2-.3-.4-.5-.5s-.4-.2-.7-.2-.7.2-.9.6c-.2.4-.3.9-.3,1.5h0Z"/>
  </g>
  <g class="cls-21">
    <path class="cls-18" d="M93.4,362.5h-.6c0,.1.9,3,.9,3v.6h0v-.6c0,0,.9-2.9.9-2.9h-.6v-1.2h2.9v1.1h-.6c0,.1-1.9,5.4-1.9,5.4h-1.5l-1.9-5.3h-.6v-1.2h2.9v1.1Z"/>
  </g>
  <g class="cls-21">
    <path class="cls-18" d="M100.7,368c-.9,0-1.7-.3-2.2-.9-.6-.6-.8-1.4-.8-2.3v-.2c0-1,.3-1.8.8-2.4s1.2-.9,2.1-.9,1.5.3,2,.8.7,1.2.7,2.1v1h-3.9c0,.4.2.8.4,1.1.3.3.6.4,1,.4s.7,0,1-.1.5-.2.8-.4l.5,1.1c-.3.2-.6.4-1,.5s-.9.2-1.4.2ZM100.5,362.7c-.3,0-.6.1-.8.4-.2.2-.3.6-.3,1h2.1v-.2c0-.4,0-.7-.3-.9,0-.2-.3-.3-.7-.3Z"/>
    <path class="cls-18" d="M104.2,366.9l.8-.2v-4l-.9-.2v-1.1h2.6v.9c.3-.3.4-.6.7-.8.2-.2.5-.3.8-.3h.3c0,0,.2,0,.3.1l-.2,1.6h-.7c-.3,0-.5,0-.6.1-.2.1-.3.2-.4.4v3.1l.8.2v1h-3.4v-.8h-.1Z"/>
    <path class="cls-18" d="M114.5,363.7h-1.2l-.2-.8c0-.1-.3-.2-.5-.2-.2-.1-.4-.1-.6-.1-.3,0-.5.1-.7.2s-.3.3-.3.5,0,.4.3.5c.2.1.5.2,1,.3.8.2,1.4.4,1.8.7.4.3.6.7.6,1.3s-.3,1.1-.8,1.4c-.5.4-1.2.6-2,.6s-1-.1-1.4-.2-.8-.4-1.1-.6v-1.5h1.2l.2.8c0,.1.2.2.4.2s.4.1.6.1c.4,0,.6-.1.8-.2.2-.1.3-.3.3-.5s0-.4-.3-.5c-.2-.1-.5-.3-1-.4-.8-.2-1.3-.4-1.7-.7-.4-.3-.6-.7-.6-1.2s.2-1,.7-1.4,1.1-.6,1.9-.6,1,.1,1.4.2.8.3,1.1.5v1.6Z"/>
    <path class="cls-18" d="M119.7,367.9c0-.1,0-.2,0-.3s0-.2,0-.3c-.2.2-.5.4-.8.6s-.6.2-1,.2c-.6,0-1.1-.2-1.5-.5s-.6-.8-.6-1.4.2-1.1.7-1.4,1.2-.5,2.1-.5h.9v-.6c0-.3,0-.6-.3-.7-.2-.2-.4-.3-.8-.3s-.4,0-.5.1c-.2,0-.3.1-.4.2v.7h-1.3v-1.4c.3-.2.7-.4,1.1-.5s.9-.2,1.3-.2c.8,0,1.5.2,2,.6s.8,1,.8,1.7v3.3h.5v1.1h-2v-.4ZM118.2,366.8c.3,0,.5-.1.7-.2s.4-.3.5-.4v-1h-.9c-.4,0-.7.1-.8.3s-.3.4-.3.6,0,.4.2.5c.1.1.3.2.6.2ZM118.7,358.9h1.8l-1.6,1.6h-1.4l1.2-1.6Z"/>
    <path class="cls-18" d="M122.4,366.9l.8-.2v-4l-.9-.2v-1.1h2.6v.9c.3-.3.4-.6.7-.8.2-.2.5-.3.8-.3h.3c0,0,.2,0,.3.1l-.2,1.6h-.7c-.3,0-.5,0-.6.1-.2.1-.3.2-.4.4v3.1l.8.2v1h-3.4v-.8h-.1Z"/>
    <path class="cls-18" d="M127.4,366.9l.8-.2v-4l-.9-.2v-1.1h2.7v5.2l.8.2v1h-3.4v-.9ZM130,359.9h-1.7v-1.3h1.7v1.3Z"/>
    <path class="cls-18" d="M131.4,364.6c0-1,.3-1.8.8-2.4s1.3-.9,2.2-.9,1.7.3,2.2.9.8,1.4.8,2.4h0c0,1.1-.3,1.9-.8,2.5s-1.3.9-2.2.9-1.7-.3-2.3-.9-.8-1.4-.8-2.4h0c0-.1.1-.1.1-.1ZM133.1,364.8c0,.6.1,1.1.3,1.4s.5.5,1,.5.8-.2,1-.5.3-.8.3-1.4h0c0-.7-.1-1.1-.3-1.5s-.5-.5-1-.5-.8.2-1,.5c-.2.4-.3.8-.3,1.4h0Z"/>
    <path class="cls-18" d="M144.3,366.7c.3,0,.6-.1.7-.3.2-.2.3-.4.3-.7h1.6c0,.7-.2,1.2-.7,1.6s-1.1.7-1.9.7-1.7-.3-2.2-.9-.8-1.4-.8-2.3v-.2c0-1,.3-1.7.8-2.3.5-.6,1.3-.9,2.3-.9s1,.1,1.4.2c.4.2.8.4,1,.7v1.7h-1.4l-.3-1c-.1-.1-.2-.1-.3-.2-.1,0-.3-.1-.4-.1-.5,0-.8.2-1,.5-.2.4-.3.8-.3,1.4v.2c0,.6.1,1,.3,1.4,0,.3.4.5.9.5Z"/>
    <path class="cls-18" d="M147.7,364.6c0-1,.3-1.8.8-2.4s1.3-.9,2.2-.9,1.7.3,2.2.9.8,1.4.8,2.4h0c0,1.1-.3,1.9-.8,2.5s-1.3.9-2.2.9-1.7-.3-2.3-.9-.8-1.4-.8-2.4h0c0-.1.1-.1.1-.1ZM149.4,364.8c0,.6.1,1.1.3,1.4s.5.5,1,.5.8-.2,1-.5.3-.8.3-1.4h0c0-.7-.1-1.1-.3-1.5s-.5-.5-1-.5-.8.2-1,.5c-.2.4-.3.8-.3,1.4h0Z"/>
    <path class="cls-18" d="M154.3,362.5v-1.1h2.6v.9c.3-.3.6-.6.9-.7.3-.2.7-.3,1.1-.3s.8.1,1.1.3c.3.2.5.5.7.8.2-.3.5-.6.8-.8s.7-.3,1.1-.3c.6,0,1.1.2,1.5.7.4.4.6,1.1.6,2v2.7l.8.2v1h-3.5v-1l.8-.2v-2.7c0-.5-.1-.8-.2-1s-.4-.3-.7-.3-.5.1-.6.2c-.2.1-.3.3-.4.5v3.4l.7.2v1h-3.2v-1l.7-.2v-2.8c0-.5-.1-.8-.2-1s-.4-.3-.7-.3-.4,0-.6.1c-.2.1-.3.2-.4.4v3.5l.8.2v1h-3.3v-1l.8-.2v-4l-1.2-.2Z"/>
  </g>
  <g class="cls-21">
    <path class="cls-18" d="M91.7,382.6c0-.1,0-.2,0-.3s0-.2,0-.3c-.2.2-.5.4-.8.6s-.6.2-1,.2c-.6,0-1.1-.2-1.5-.5s-.6-.8-.6-1.4.2-1.1.7-1.4,1.2-.5,2.1-.5h.9v-.6c0-.3,0-.6-.3-.7-.2-.2-.4-.3-.8-.3s-.4,0-.5.1c-.2,0-.3.1-.4.2v.7h-1.3v-1.4c.3-.2.7-.4,1.1-.5s.9-.2,1.3-.2c.8,0,1.5.2,2,.6s.8,1,.8,1.7v3.3h.5v1.1h-2v-.4ZM90.2,381.4c.3,0,.5-.1.7-.2s.4-.3.5-.4v-1h-.9c-.4,0-.7.1-.8.3s-.3.4-.3.6,0,.4.2.5c.1.2.3.2.6.2Z"/>
    <path class="cls-18" d="M97.3,381.4c.3,0,.6-.1.7-.3.2-.2.3-.4.3-.7h1.6c0,.7-.2,1.2-.7,1.6s-1.1.7-1.9.7-1.7-.3-2.2-.9-.8-1.4-.8-2.3v-.2c0-1,.3-1.7.8-2.3.5-.6,1.3-.9,2.3-.9s1,.1,1.4.2c.4.2.8.4,1,.7v1.7h-1.4l-.3-1c0-.1-.2-.1-.3-.2s-.3-.1-.4-.1c-.5,0-.8.2-1,.5-.2.4-.3.8-.3,1.4v.2c0,.6,0,1,.3,1.4,0,.3.4.5.9.5Z"/>
    <path class="cls-18" d="M103.8,382.7c-.9,0-1.7-.3-2.2-.9-.6-.6-.8-1.4-.8-2.3v-.2c0-1,.3-1.8.8-2.4s1.2-.9,2.1-.9,1.5.3,2,.8.7,1.2.7,2.1v1h-3.9c0,.4.2.8.4,1.1.3.3.6.4,1,.4s.7,0,1-.1.5-.2.8-.4l.5,1.1c-.3.2-.6.4-1,.5s-.9.2-1.4.2ZM103.7,377.4c-.3,0-.6.1-.8.4-.2.2-.3.6-.3,1h2.1v-.2c0-.4,0-.7-.3-.9,0-.2-.4-.3-.7-.3Z"/>
    <path class="cls-18" d="M112.5,378.4h-1.2l-.2-.8c0-.1-.3-.2-.5-.2-.2-.1-.4-.1-.6-.1-.3,0-.5.1-.7.2s-.3.3-.3.5,0,.4.3.5c.2.1.5.2,1,.3.8.2,1.4.4,1.8.7.4.3.6.7.6,1.3s-.3,1.1-.8,1.4c-.5.4-1.2.6-2,.6s-1-.1-1.4-.2-.8-.4-1.1-.6v-1.5h1.2l.2.8c0,.1.2.2.4.2s.4.1.6.1c.4,0,.6-.1.8-.2.2-.1.3-.3.3-.5s0-.4-.3-.5c-.2-.1-.5-.3-1-.4-.8-.2-1.3-.4-1.7-.7-.4-.3-.6-.7-.6-1.2s.2-1,.7-1.4,1.1-.6,1.9-.6,1,.1,1.4.2.8.3,1.1.5v1.6Z"/>
    <path class="cls-18" d="M118.8,378.4h-1.2l-.2-.8c0-.1-.3-.2-.5-.2-.2-.1-.4-.1-.6-.1-.3,0-.5.1-.7.2s-.3.3-.3.5,0,.4.3.5c.2.1.5.2,1,.3.8.2,1.4.4,1.8.7.4.3.6.7.6,1.3s-.3,1.1-.8,1.4c-.5.4-1.2.6-2,.6s-1-.1-1.4-.2-.8-.4-1.1-.6v-1.5h1.2l.2.8c0,.1.2.2.4.2s.4.1.6.1c.4,0,.6-.1.8-.2.2-.1.3-.3.3-.5s0-.4-.3-.5c-.2-.1-.5-.3-1-.4-.8-.2-1.3-.4-1.7-.7-.4-.3-.6-.7-.6-1.2s.2-1,.7-1.4,1.1-.6,1.9-.6,1,.1,1.4.2.8.3,1.1.5v1.6Z"/>
    <path class="cls-18" d="M119.8,379.3c0-1,.3-1.8.8-2.4s1.3-.9,2.2-.9,1.7.3,2.2.9.8,1.4.8,2.4h0c0,1.1-.3,1.9-.8,2.5s-1.3.9-2.2.9-1.7-.3-2.3-.9-.8-1.4-.8-2.4h0c0-.1.1-.1.1-.1ZM121.6,379.4c0,.6,0,1.1.3,1.4s.5.5,1,.5.8-.2,1-.5.3-.8.3-1.4h0c0-.7,0-1.1-.3-1.5-.2-.4-.5-.5-1-.5s-.8.2-1,.5c-.2.4-.3.8-.3,1.4h0Z"/>
  </g>
  <g class="cls-21">
    <path class="cls-18" d="M129.8,381.6l.8-.2v-4l-.9-.2v-1.1h2.6v.9c.3-.3.4-.6.7-.8.2-.2.5-.3.8-.3h.3c.1,0,.2,0,.3.1l-.2,1.6h-.7c-.3,0-.5,0-.6.1-.2.1-.3.2-.4.4v3.1l.8.2v1h-3.4v-.8h-.1Z"/>
  </g>
  <g class="cls-21">
    <path class="cls-18" d="M134.7,379.3c0-1,.3-1.8.8-2.4s1.3-.9,2.2-.9,1.7.3,2.2.9.8,1.4.8,2.4h0c0,1.1-.3,1.9-.8,2.5s-1.3.9-2.2.9-1.7-.3-2.3-.9c-.5-.6-.8-1.4-.8-2.4h0c0-.1.1-.1.1-.1ZM136.5,379.4c0,.6.1,1.1.3,1.4.2.4.5.5,1,.5s.8-.2,1-.5c.2-.4.3-.8.3-1.4h0c0-.7-.1-1.1-.3-1.5s-.5-.5-1-.5-.8.2-1,.5c-.2.4-.3.8-.3,1.4h0Z"/>
    <path class="cls-18" d="M141.6,379.3c0-1,.3-1.8.8-2.4s1.3-.9,2.2-.9,1.7.3,2.2.9.8,1.4.8,2.4h0c0,1.1-.3,1.9-.8,2.5s-1.3.9-2.2.9-1.7-.3-2.3-.9c-.5-.6-.8-1.4-.8-2.4h0c0-.1.1-.1.1-.1ZM143.3,379.4c0,.6.1,1.1.3,1.4.2.4.5.5,1,.5s.8-.2,1-.5c.2-.4.3-.8.3-1.4h0c0-.7-.1-1.1-.3-1.5s-.5-.5-1-.5-.8.2-1,.5c-.2.4-.3.8-.3,1.4h0Z"/>
    <path class="cls-18" d="M151,374.6v1.6h1.1v1.2h-1.1v3.3c0,.3.1.4.2.5s.2.2.4.2h.3c.1,0,.2,0,.3-.1v1.3c0,.1-.3.1-.5.1h-.6c-.6,0-1.1-.2-1.4-.5-.3-.3-.5-.9-.5-1.6v-3.3h-1v-1.2h1v-1.6h1.8Z"/>
  </g>
  <g class="cls-21">
    <path class="cls-18" d="M8.1,130.9h.6c0-.1,2.6-7.7,2.6-7.7h1.8l2.6,7.6h.6v1.1h-3v-1h.6c0-.1-.4-1.3-.4-1.3h-2.8l-.4,1.2h.6v1.1h-3v-1h.2ZM11.3,128.3h2l-1-3.1h0l-1,3.1Z"/>
    <path class="cls-18" d="M21.2,131.1c-.2.3-.4.5-.7.7s-.6.2-.9.2c-.8,0-1.4-.3-1.9-.9-.4-.6-.7-1.4-.7-2.3h0c0-1.1.2-1.9.7-2.6.4-.6,1.1-.9,1.9-.9s.6,0,.9.2.5.3.7.6v-2.3l-.9-.2v-1.1h2.6v8.1l.8.2v1h-2.3l-.2-.7ZM18.8,128.9c0,.6.1,1,.3,1.3.2.3.5.5.9.5s.5-.1.7-.2c.2-.1.3-.3.5-.4v-2.7c-.1-.2-.3-.4-.5-.5s-.4-.2-.7-.2-.7.2-.9.6c-.2.4-.3.9-.3,1.5h0Z"/>
  </g>
  <g class="cls-21">
    <path class="cls-18" d="M27,126.5h-.6c0,0,.9,3,.9,3v.6h.1v-.6c.1,0,.9-2.9.9-2.9h-.6v-1.2h2.9v1.1h-.6c0,0-1.9,5.4-1.9,5.4h-1.7l-1.9-5.3h-.6v-1.2h3.1v1.1Z"/>
  </g>
  <g class="cls-21">
    <path class="cls-18" d="M34.3,132c-.9,0-1.7-.3-2.2-.9-.6-.6-.8-1.4-.8-2.3v-.2c0-1,.3-1.8.8-2.4s1.2-.9,2.1-.9,1.5.3,2,.8.7,1.2.7,2.1v1h-3.9c0,.4.2.8.4,1.1.3.3.6.4,1,.4s.7,0,1-.1.5-.2.8-.4l.5,1.1c-.3.2-.6.4-1,.5s-.9.2-1.4.2ZM34.1,126.7c-.3,0-.6,0-.8.4-.2.2-.3.6-.3,1h2.1v-.2c0-.4,0-.7-.3-.9,0-.2-.3-.3-.7-.3Z"/>
    <path class="cls-18" d="M37.8,130.9l.8-.2v-4l-.9-.2v-1.1h2.6v.9c.3-.3.4-.6.7-.8.2-.2.5-.3.8-.3h.3c0,0,.2,0,.3,0l-.2,1.6h-.7c-.3,0-.5,0-.6,0-.2,0-.3.2-.4.4v3.1l.8.2v1h-3.4v-.8h0Z"/>
    <path class="cls-18" d="M48.1,127.7h-1.1l-.2-.8c0,0-.3-.2-.5-.2-.2,0-.4,0-.6,0-.3,0-.5,0-.7.2s-.3.3-.3.5,0,.4.3.5.5.2,1,.3c.8.2,1.4.4,1.8.7.4.3.6.7.6,1.3s-.3,1.1-.8,1.4c-.5.4-1.2.6-2,.6s-1-.1-1.4-.2-.8-.4-1.1-.6v-1.5h1.2l.2.8c0,.1.2.2.4.2s.4.1.6.1c.4,0,.6-.1.8-.2.2-.1.3-.3.3-.5s0-.4-.3-.5-.5-.3-1-.4c-.8-.2-1.3-.4-1.7-.7s-.6-.7-.6-1.2.2-1,.7-1.4,1.1-.6,1.9-.6,1,0,1.4.2.8.3,1.1.5v1.6Z"/>
    <path class="cls-18" d="M53.3,131.9c0-.1,0-.2,0-.3s0-.2,0-.3c-.2.2-.5.4-.8.6s-.6.2-1,.2c-.6,0-1.1-.2-1.5-.5s-.6-.8-.6-1.4.2-1.1.7-1.4c.5-.3,1.2-.5,2.1-.5h1v-.6c0-.3,0-.6-.3-.7-.2-.2-.4-.3-.8-.3s-.4,0-.5,0c-.2,0-.3,0-.4.2v.7h-1.4v-1.4c.3-.2.7-.4,1.1-.5.4,0,.9-.2,1.3-.2.8,0,1.5.2,2,.6s.8,1,.8,1.7v3.3h.5v1.1h-2v-.4ZM51.8,130.8c.3,0,.5-.1.7-.2.2-.1.4-.3.5-.4v-1h-.9c-.4,0-.7.1-.8.3s-.3.4-.3.6,0,.4.2.5c0,0,.3.2.6.2ZM52.3,122.9h1.8l-1.6,1.6h-1.4l1.2-1.6Z"/>
    <path class="cls-18" d="M56,130.9l.8-.2v-4l-.9-.2v-1.1h2.6v.9c.3-.3.4-.6.7-.8.2-.2.5-.3.8-.3h.3c0,0,.2,0,.3,0l-.2,1.6h-.7c-.3,0-.5,0-.6,0-.2,0-.3.2-.4.4v3.1l.8.2v1h-3.5v-.8Z"/>
    <path class="cls-18" d="M61,130.9l.8-.2v-4l-.9-.2v-1.1h2.7v5.2l.8.2v1h-3.4v-.9ZM63.6,123.9h-1.7v-1.3h1.7v1.3Z"/>
    <path class="cls-18" d="M65,128.6c0-1,.3-1.8.8-2.4s1.3-.9,2.2-.9,1.7.3,2.2.9.8,1.4.8,2.4h0c0,1.1-.3,1.9-.8,2.5s-1.2.9-2.2.9-1.7-.3-2.3-.9-.8-1.4-.8-2.4h0c0-.1.1-.1.1-.1ZM66.7,128.8c0,.6,0,1.1.3,1.4s.5.5,1,.5.8-.2,1-.5.3-.8.3-1.4h0c0-.7,0-1.1-.3-1.5-.2-.4-.5-.5-1-.5s-.8.2-1,.5c-.2.4-.3.8-.3,1.4h0Z"/>
    <path class="cls-18" d="M77.9,130.7c.3,0,.6-.1.7-.3.2-.2.3-.4.3-.7h1.6c0,.7-.2,1.2-.7,1.6-.5.4-1.1.7-1.9.7s-1.7-.3-2.2-.9c-.5-.6-.8-1.4-.8-2.3v-.2c0-1,.3-1.7.8-2.3.5-.6,1.3-.9,2.3-.9s1,0,1.4.2c.4.2.8.4,1,.7v1.7h-1.4l-.3-1c0,0-.2,0-.3-.2,0,0-.3,0-.4,0-.5,0-.8.2-1,.5-.2.4-.3.8-.3,1.4v.2c0,.6,0,1,.3,1.4.1.3.4.5.9.5Z"/>
    <path class="cls-18" d="M81.3,128.6c0-1,.3-1.8.8-2.4s1.3-.9,2.2-.9,1.7.3,2.2.9.8,1.4.8,2.4h0c0,1.1-.3,1.9-.8,2.5s-1.3.9-2.2.9-1.7-.3-2.3-.9-.8-1.4-.8-2.4h0c0-.1.1-.1.1-.1ZM83,128.8c0,.6,0,1.1.3,1.4s.5.5,1,.5.8-.2,1-.5.3-.8.3-1.4h0c0-.7,0-1.1-.3-1.5-.2-.4-.5-.5-1-.5s-.8.2-1,.5c-.2.4-.3.8-.3,1.4h0Z"/>
    <path class="cls-18" d="M87.9,126.5v-1.1h2.6v.9c.3-.3.6-.6.9-.7.3-.2.7-.3,1.1-.3s.8,0,1.1.3c.3.2.5.5.7.8.2-.3.5-.6.8-.8s.7-.3,1.1-.3c.6,0,1.1.2,1.5.7.4.4.6,1.1.6,2v2.7l.8.2v1h-3.3v-1l.8-.2v-2.7c0-.5,0-.8-.2-1s-.4-.3-.7-.3-.5,0-.6.2c-.2,0-.3.3-.4.5v3.4l.7.2v1h-3.2v-1l.7-.2v-2.8c0-.5,0-.8-.2-1s-.4-.3-.7-.3-.4,0-.6,0-.3.2-.4.4v3.5l.8.2v1h-3.8v-1l.8-.2v-4l-.9-.2Z"/>
  </g>
  <g class="cls-21">
    <path class="cls-18" d="M25.3,146.6c0-.1-.1-.2-.1-.3s-.1-.2-.1-.3c-.2.2-.5.4-.8.6s-.6.2-1,.2c-.6,0-1.1-.2-1.5-.5s-.6-.8-.6-1.4.2-1.1.7-1.4c.5-.3,1.2-.5,2.1-.5h1v-.6c0-.3-.1-.6-.3-.7-.2-.2-.4-.3-.8-.3s-.4,0-.5.1c-.2,0-.3.1-.4.2v.7h-1.4v-1.4c.3-.2.7-.4,1.1-.5s.9-.2,1.3-.2c.8,0,1.5.2,2,.6.5.4.8,1,.8,1.7v3.3h.5v1.1h-2v-.4ZM23.8,145.4c.3,0,.5-.1.7-.2.2-.1.4-.3.5-.4v-1h-.9c-.4,0-.7.1-.8.3s-.3.4-.3.6.1.4.2.5c0,.2.3.2.6.2Z"/>
    <path class="cls-18" d="M30.9,145.4c.3,0,.6-.1.7-.3.2-.2.3-.4.3-.7h1.6c0,.7-.2,1.2-.7,1.6-.5.4-1.1.7-1.9.7s-1.7-.3-2.2-.9c-.5-.6-.8-1.4-.8-2.3v-.2c0-1,.3-1.7.8-2.3s1.3-.9,2.3-.9,1,.1,1.4.2c.4.2.8.4,1,.7v1.7h-1.4l-.3-1c-.1-.1-.2-.1-.3-.2s-.3-.1-.4-.1c-.5,0-.8.2-1,.5-.2.4-.3.8-.3,1.4v.2c0,.6.1,1,.3,1.4,0,.3.4.5.9.5Z"/>
    <path class="cls-18" d="M37.4,146.7c-.9,0-1.7-.3-2.2-.9-.6-.6-.8-1.4-.8-2.3v-.2c0-1,.3-1.8.8-2.4.5-.6,1.2-.9,2.1-.9s1.5.3,2,.8.7,1.2.7,2.1v1h-3.9c0,.4.2.8.4,1.1.3.3.6.4,1,.4s.7,0,1-.1.5-.2.8-.4l.5,1.1c-.3.2-.6.4-1,.5s-.9.2-1.4.2ZM37.3,141.4c-.3,0-.6.1-.8.4-.2.2-.3.6-.3,1h2.1v-.2c0-.4,0-.7-.3-.9,0-.2-.4-.3-.7-.3Z"/>
    <path class="cls-18" d="M46.1,142.4h-1.2l-.2-.8c0-.1-.3-.2-.5-.2-.2-.1-.4-.1-.6-.1-.3,0-.5.1-.7.2s-.3.3-.3.5,0,.4.3.5.5.2,1,.3c.8.2,1.4.4,1.8.7.4.3.6.7.6,1.3s-.3,1.1-.8,1.4c-.5.4-1.2.6-2,.6s-1-.1-1.4-.2-.8-.4-1.1-.6v-1.5h1.2l.2.8c0,.1.2.2.4.2s.4.1.6.1c.4,0,.6-.1.8-.2.2-.1.3-.3.3-.5s0-.4-.3-.5-.5-.3-1-.4c-.8-.2-1.3-.4-1.7-.7s-.6-.7-.6-1.2.2-1,.7-1.4,1.1-.6,1.9-.6,1,.1,1.4.2.8.3,1.1.5v1.6Z"/>
    <path class="cls-18" d="M52.4,142.4h-1.2l-.2-.8c0-.1-.3-.2-.5-.2-.2-.1-.4-.1-.6-.1-.3,0-.5.1-.7.2-.2.1-.3.3-.3.5s0,.4.3.5.5.2,1,.3c.8.2,1.4.4,1.8.7.4.3.6.7.6,1.3s-.3,1.1-.8,1.4c-.5.4-1.2.6-2,.6s-1-.1-1.4-.2-.8-.4-1.1-.6v-1.5h1.2l.2.8c0,.1.2.2.4.2s.4.1.6.1c.4,0,.6-.1.8-.2.2-.1.3-.3.3-.5s0-.4-.3-.5-.5-.3-1-.4c-.8-.2-1.3-.4-1.7-.7s-.6-.7-.6-1.2.2-1,.7-1.4,1.1-.6,1.9-.6,1,.1,1.4.2.8.3,1.1.5v1.6Z"/>
    <path class="cls-18" d="M53.4,143.3c0-1,.3-1.8.8-2.4.5-.6,1.3-.9,2.2-.9s1.7.3,2.2.9c.5.6.8,1.4.8,2.4h0c0,1.1-.3,1.9-.8,2.5s-1.3.9-2.2.9-1.7-.3-2.3-.9-.8-1.4-.8-2.4h0c0-.1,0-.1,0-.1ZM55.2,143.4c0,.6,0,1.1.3,1.4s.5.5,1,.5.8-.2,1-.5.3-.8.3-1.4h0c0-.7,0-1.1-.3-1.5s-.5-.5-1-.5-.8.2-1,.5c-.2.4-.3.8-.3,1.4h0Z"/>
  </g>
  <g class="cls-21">
    <path class="cls-18" d="M63.4,145.6l.8-.2v-4l-.9-.2v-1.1h2.6v.9c.3-.3.4-.6.7-.8.2-.2.5-.3.8-.3h.3c0,0,.2,0,.3.1l-.2,1.6h-.7c-.3,0-.5,0-.6.1-.2.1-.3.2-.4.4v3.1l.8.2v1h-3.4v-.8h-.1Z"/>
  </g>
  <g class="cls-21">
    <path class="cls-18" d="M68.3,143.3c0-1,.3-1.8.8-2.4.5-.6,1.3-.9,2.2-.9s1.7.3,2.2.9c.5.6.8,1.4.8,2.4h0c0,1.1-.3,1.9-.8,2.5-.5.6-1.3.9-2.2.9s-1.7-.3-2.3-.9c-.5-.6-.8-1.4-.8-2.4h0c0-.1.1-.1.1-.1ZM70.1,143.4c0,.6,0,1.1.3,1.4.2.4.5.5,1,.5s.8-.2,1-.5c.2-.4.3-.8.3-1.4h0c0-.7,0-1.1-.3-1.5-.2-.4-.5-.5-1-.5s-.8.2-1,.5c-.2.4-.3.8-.3,1.4h0Z"/>
    <path class="cls-18" d="M75.2,143.3c0-1,.3-1.8.8-2.4.5-.6,1.3-.9,2.2-.9s1.7.3,2.2.9c.5.6.8,1.4.8,2.4h0c0,1.1-.3,1.9-.8,2.5-.5.6-1.3.9-2.2.9s-1.7-.3-2.3-.9c-.5-.6-.8-1.4-.8-2.4h0c0-.1.1-.1.1-.1ZM76.9,143.4c0,.6,0,1.1.3,1.4.2.4.5.5,1,.5s.8-.2,1-.5c.2-.4.3-.8.3-1.4h0c0-.7,0-1.1-.3-1.5-.2-.4-.5-.5-1-.5s-.8.2-1,.5c-.2.4-.3.8-.3,1.4h0Z"/>
    <path class="cls-18" d="M84.6,138.6v1.6h1.1v1.2h-1.1v3.3c0,.3,0,.4.2.5s.2.2.4.2h.3c0,0,.2,0,.3-.1v1.3c0,.1-.3.1-.5.1h-.6c-.6,0-1.1-.2-1.4-.5s-.5-.9-.5-1.6v-3.3h-1v-1.2h1v-1.6h1.8Z"/>
  </g>
  <path class="cls-15" d="M166.7,24.7h177.7c2.8,0,5,2.2,5,5v154.5c0,2.8-2.2,5-5,5h-177.7c-2.8,0-5-2.2-5-5V29.7c.1-2.7,2.3-4.9,5-5Z"/>
  <path class="cls-2" d="M166.7,24.7h177.7c2.8,0,5,2.2,5,5v154.5c0,2.8-2.2,5-5,5h-177.7c-2.8,0-5-2.2-5-5V29.7c.1-2.7,2.3-4.9,5-5Z"/>
  <path class="cls-8" d="M182.1,80.1h147c2.8,0,5,2.2,5,5v20.6c0,2.8-2.2,5-5,5h-147c-2.8,0-5-2.2-5-5v-20.6c0-2.7,2.2-5,5-5h0Z"/>
  <path class="cls-8" d="M182.1,124.6h147c2.8,0,5,2.2,5,5h0v20.6c0,2.8-2.2,5-5,5h-147c-2.8,0-5-2.2-5-5v-20.6c0-2.7,2.2-5,5-5h0Z"/>
  <path class="cls-1" d="M445.9,81.6h132.6c2.8,0,5,2.2,5,5v20.6c0,2.8-2.2,5-5,5h-132.6c-2.8,0-5-2.2-5-5v-20.6c0-2.7,2.2-5,5-5Z"/>
  <polyline class="cls-8" points="302 205.3 296.2 199.5 290.5 205.3 284.7 199.5 279 205.3 278.9 205.3 273.2 199.5 267.4 205.3 261.6 199.5 255.9 205.3 255.2 205.3 249.4 199.5 243.7 205.3 237.9 199.5 232.2 205.3 232.1 205.3 226.4 199.5 220.6 205.3 214.9 199.5 209.1 205.3"/>
  <polyline class="cls-8" points="145.2 142.4 150.9 136.7 145.2 130.9 150.9 125.1 145.2 119.4 145.2 119.3 150.9 113.6 145.2 107.8 150.9 102.1 145.2 96.3 145.2 95.6 150.9 89.9 145.2 84.1 150.9 78.4 145.2 72.6 145.2 72.6 150.9 66.8 145.2 61.1 150.9 55.3 145.2 49.5"/>
  <polyline class="cls-8" points="365.1 50.5 359.4 56.3 365.1 62.1 359.4 67.8 365.1 73.6 365.1 73.6 359.4 79.4 365.1 85.1 359.4 90.9 365.1 96.6 365.1 97.3 359.4 103.1 365.1 108.8 359.4 114.6 365.1 120.3 365.1 120.4 359.4 126.1 365.1 131.9 359.4 137.7 365.1 143.4"/>
  <g id="Scone_logo_white" data-name="Scone logo white">
    <g class="cls-20">
      <g class="cls-22">
        <g>
          <path class="cls-19" d="M236.9,172.6h-1.1c-.2,0-.4.2-.4.4h0v1.1c0,.2.2.4.4.4h1.1c.2,0,.4-.2.4-.4v-1.1c0-.2,0-.4-.4-.4.1,0,0,0,0,0h0M233.2,174.5h1.1c.2,0,.4-.2.4-.4h0v-1.1c0-.2-.2-.4-.4-.4h-1.1c-.2,0-.4.2-.4.4h0v1.1c0,.2.2.4.4.4M232.1,174.1v-1.1c0-.2-.2-.4-.4-.4h-1.1c-.2,0-.4.2-.4.4h0v1.1c0,.2.2.4.4.4h1.1c.2,0,.4-.2.4-.4h0M237,175.3c-.1,0-.3.1-.3.2h0v1.4c0,.2.1.3.3.3s.3-.1.3-.3v-1.3c0-.1-.1-.3-.3-.3.1,0,0,0,0,0h0M234.1,175.7v1.1c0,.2.2.4.4.4h1.1c.2,0,.4-.2.4-.4h0v-1.1c0-.2-.2-.4-.4-.4h-1.1c-.2,0-.4,0-.4.4h0M233.3,176.7v-1.1c0-.2-.2-.4-.4-.4h-1.1c-.2,0-.4.2-.4.4h0v1.1c0,.2.2.4.4.4h1.1c.3.1.4,0,.4-.4h0M236.9,177.9h-1.1c-.2,0-.4.2-.4.4h0v1.1c0,.2.2.4.4.4h1.1c.2,0,.4-.2.4-.4h0v-1.1c0-.2,0-.4-.4-.4.1,0,0,0,0,0M234.2,177.9h-1.1c-.2,0-.4.2-.4.4v1.1c0,.2.2.4.4.4h1.1c.2,0,.4-.2.4-.4h0v-1.1c0-.2-.2-.4-.4-.4h0"/>
          <path class="cls-19" d="M238.2,172.2c.5.4,1.1.5,1.7.5v3c0,1.1-1.4,1.8-1.7,2h0v-5.5h0"/>
          <path class="cls-19" d="M235,172c2.2-.1,2.6-.9,2.6-.9h.1c0-.1.1-.1.1-.1,0,0,.4.8,2.6.8s.1,0,.1.1v3.8c0,1.2-2.3,2.6-2.4,2.6s-.1,0-.1.1h0v1q.1.1.2,0h0c.9-.5,3.3-1.8,3.3-3.4v-4.9c0-.1-.1-.1-.2-.1-2.9,0-3.4-1-3.4-1h-.3s-.5,1.1-3.3,1.1-.1,0-.1.1v.6q0,.1.1.1h0c0,0,.7.2.7,0"/>
          <path class="cls-17" d="M243.6,178.3l1.1-.4c.3.6.9.9,1.5.9s.6-.1.9-.2c.2-.1.4-.3.4-.6,0-.6-.8-1-1.4-1.2h0c-.5-.2-.9-.4-1.3-.7-.4-.3-.7-.8-.6-1.3,0-.6.2-1.1.7-1.4.5-.4,1.1-.6,1.7-.6.9,0,1.8.4,2.2,1.2l-1.2.4c-.1-.2-.2-.3-.4-.4-.2-.1-.4-.1-.6-.1-.7,0-1.1.4-1.1.8s.2.6.4.7c.3.2.6.4,1,.5h.1c.9.5,2,.9,2,2.1s-.3,1.1-.8,1.4c-.5.4-1.2.6-1.9.5-1.1,0-2.1-.6-2.7-1.6"/>
          <path class="cls-17" d="M253.8,179.8c-.5,0-1-.1-1.4-.3s-.8-.4-1.1-.8c-.3-.3-.6-.7-.8-1.1-.4-.9-.4-1.9,0-2.8.2-.4.4-.8.8-1.1.3-.3.7-.6,1.1-.8.4-.2.9-.3,1.4-.3,1.1,0,2.2.5,2.9,1.4l-1,.7c-.5-.6-1.2-1-1.9-1s-1.3.3-1.7.8c-.5.4-.7,1.1-.7,1.7,0,1.3,1,2.4,2.3,2.4h.1c.5,0,.9-.1,1.3-.4.4-.2.7-.5.9-.9l1,.6c-.3.5-.8,1-1.3,1.3-.5.4-1.2.6-1.9.6"/>
          <path class="cls-17" d="M261.7,179.8c-.5,0-1-.1-1.4-.3s-.8-.4-1.1-.8c-.3-.3-.6-.7-.8-1.1-.4-.9-.4-1.9,0-2.8.2-.4.4-.8.8-1.1.3-.3.7-.6,1.1-.8.9-.4,1.9-.4,2.8,0,.4.2.8.4,1.1.8.3.3.6.7.8,1.1.4.9.4,1.9,0,2.8-.2.4-.4.8-.8,1.1-.6.8-1.5,1.2-2.5,1.1M261.7,173.8c-.6,0-1.2.3-1.7.7s-.7,1.1-.7,1.7.3,1.2.7,1.7c1,.9,2.4.9,3.4,0,.4-.5.7-1.1.7-1.7,0-1.3-1.1-2.4-2.4-2.4"/>
          <polygon class="cls-17" points="273.5 172.7 273.5 180 268.4 175.4 268.4 179.7 267.1 179.7 267.1 172.4 272.2 177.1 272.2 172.7 273.5 172.7"/>
          <polygon class="cls-17" points="276.9 173.7 276.9 175.6 280.5 175.6 280.5 176.7 276.9 176.7 276.9 178.6 280.9 178.6 280.9 179.7 275.6 179.7 275.6 172.7 280.9 172.7 280.9 173.8 276.9 173.8 276.9 173.7"/>
        </g>
      </g>
    </g>
  </g>
  <path class="cls-14" d="M244.8,14.7c6-5.9,15.7-5.8,21.6.3,5.9,6,5.8,15.7-.3,21.6s-15.7,5.8-21.6-.3c-5.3-5.4-5.8-13.9-1.2-19.9"/>
  <path class="cls-8" d="M255.6,33h-5.5c-.8,0-1.1-.3-1.1-1v-8.5c0-.8.3-1,1.1-1h11c.7,0,1,.3,1,1v8.5c0,.7-.3,1-1,1h-5.5Z"/>
  <path class="cls-8" d="M249.9,21.7c0-2.3,1.3-4.4,3.4-5.4,2.7-1.2,5.9,0,7.2,2.7h0c0,.1.3,1,.3,1l.3,1.5"/>
  <path class="cls-16" d="M254.7,29.4h0v1.1c0,.1.1.3.2.3h1.2c.3,0,.4-.1.4-.3v-2.1c0-.2.1-.4.3-.5.7-.3,1-1.2.8-1.9-.3-.8-1.1-1.3-1.9-1.3-.9-.1-1.7.3-2.1,1.1-.3.7,0,1.6.7,2,.2.1.4.3.3.6h0c.1.4.1.7.1,1Z"/>
  <path class="cls-1" d="M126,296c-2.8,0-5.3,1.9-6,4.7h-13.3l-1.6,1.5,1.4,1.3,1.9,1.9,1.7-1.7,1,1,1.1-1.1h.2l1.8,1.8,1.8-1.8h3.9c.8,3.3,4.2,5.3,7.5,4.5,3.3-.8,5.3-4.2,4.5-7.5-.6-2.7-3.1-4.7-5.9-4.6Z"/>
  <path class="cls-1" d="M62,58.6c-2.8,0-5.3,1.9-6,4.7h-13.3l-1.6,1.6,1.4,1.3,1.9,1.9,1.7-1.7,1,1,1.1-1.1h.2l1.8,1.8,1.8-1.8h4c.8,3.3,4.2,5.3,7.5,4.5s5.3-4.2,4.5-7.5c-.6-2.8-3.1-4.7-6-4.7h0Z"/>
  <path class="cls-18" d="M210,58.7h-3v2.5h2.8v-1h1.4v2.3h-6.9v-1l.9-.2v-6.2l-.9-.2v-1.1h6.8v2.4h-1.3v-1h-2.8v2.2h2.9v1.3h.1Z"/>
  <path class="cls-18" d="M212.1,61.4l.8-.2v-4l-.9-.2v-1.1h2.6v.9c.3-.3.6-.6.9-.8s.7-.3,1.1-.3c.6,0,1.1.2,1.5.6.4.6.5,1.2.5,1.9v2.8l.8.2v1h-3.3v-1l.7-.2v-2.8c0-.3-.1-.7-.3-.9s-.5-.3-.8-.3-.4,0-.6,0c-.2,0-.4.2-.5.4v3.5l.7.2v1h-3.3v-.8h.1Z"/>
  <g>
    <path class="cls-18" d="M223,61.3c.3,0,.5,0,.7-.3s.3-.4.3-.7h1.6c0,.6-.2,1.2-.7,1.6-.5.5-1.2.7-1.9.7-.8,0-1.6-.3-2.2-.9-.5-.6-.8-1.5-.8-2.3v-.2c0-.8.3-1.7.8-2.3.6-.6,1.4-1,2.3-.9.5,0,.9,0,1.4.2.4,0,.7.4,1,.7v1.7h-1.4l-.3-1c-.1,0-.2,0-.3-.2-.1,0-.3,0-.4,0-.4,0-.8.2-1,.5-.2.4-.3.9-.3,1.4v.2c0,.5.1,1,.3,1.4,0,.3.4.5.9.5Z"/>
    <path class="cls-18" d="M226.2,54.2v-1.1h2.7v8.1l.8.2v1h-3.4v-1l.8-.2v-6.9h-.9Z"/>
  </g>
  <path class="cls-18" d="M234.4,62.5c0,0-.1-.2-.1-.3s-.1-.2-.1-.3c-.2.2-.5.4-.8.6-.3.2-.7.2-1,.2-.5,0-1.1-.2-1.5-.5s-.6-.9-.6-1.4.2-1.1.7-1.4c.6-.4,1.4-.5,2.1-.5h.9v-.6c0-.3-.1-.5-.3-.7s-.5-.3-.8-.3-.4,0-.5,0c-.2,0-.3,0-.4.2v.7h-1.4v-1.4c.3-.2.7-.4,1.1-.5.4,0,.9-.2,1.3-.2.7,0,1.4.2,2,.6.5.4.8,1,.8,1.7v3.3h.5v1.1h-1.9v-.4h0ZM232.9,61.3c.2,0,.5,0,.7-.2.2,0,.4-.2.5-.4v-1h-.9c-.4,0-.7,0-.8.3s-.3.4-.3.6.1.4.2.5c.1.2.3.2.6.2Z"/>
  <path class="cls-18" d="M239.6,57.1h-.6c0,0,.9,3,.9,3v.6h.1v-.6c.1,0,.9-2.9.9-2.9h-.6v-1.2h2.9v1.1h-.6c0,0-1.9,5.4-1.9,5.4h-1.7l-1.9-5.3h-.6v-1.2h2.9v1.1h.2Z"/>
  <g>
    <path class="cls-18" d="M246.9,62.6c-.8,0-1.6-.3-2.2-.9-.6-.6-.9-1.5-.8-2.3v-.2c0-.9.3-1.7.8-2.4.5-.6,1.3-.9,2.1-.9s1.5.3,2,.8c.5.6.8,1.3.7,2.1v1h-3.9c0,.4.2.8.4,1.1.3.3.6.4,1,.4s.7,0,1,0,.6-.2.8-.4l.5,1.1c-.3.2-.6.4-1,.5-.4.2-.9.2-1.4.2ZM246.7,57.2c-.3,0-.6,0-.8.4-.2.3-.3.6-.3,1h2.1c0-.4-.1-.8-.3-1,0-.3-.3-.4-.7-.4Z"/>
    <path class="cls-18" d="M253.3,54.8v-1.1h3.6v1.1l-.9.2v6.2l.9.2v1h-3.6v-1l.9-.2v-6.2l-.9-.2Z"/>
    <path class="cls-18" d="M257.5,61.4l.8-.2v-4l-.9-.2v-1.1h2.6v.9c.3-.3.6-.6.9-.8s.7-.3,1.1-.3c.6,0,1.1.2,1.5.6.4.6.5,1.2.5,1.9v2.8l.8.2v1h-3.3v-1l.7-.2v-2.8c0-.3-.1-.7-.3-.9-.2-.2-.5-.3-.8-.3s-.4,0-.6,0-.4.2-.5.4v3.5l.7.2v1h-3.3v-.8h0Z"/>
    <path class="cls-18" d="M267.9,54.4v1.6h1.1v1.2h-1.1v3.3c0,.2.1.4.2.5s.2.2.4.2h.3c.1,0,.2,0,.3,0v1.3c-.1,0-.3,0-.5,0h-.6c-.5,0-1-.2-1.4-.5-.4-.5-.5-1-.5-1.6v-3.3h-1v-1.2h1v-1.6h1.8Z"/>
    <path class="cls-18" d="M273,62.6c-.8,0-1.6-.3-2.2-.9-.6-.6-.9-1.5-.8-2.3v-.2c0-.9.3-1.7.8-2.4.5-.6,1.3-.9,2.1-.9s1.5.3,2,.8c.5.6.8,1.3.7,2.1v1h-3.9c0,.4.2.8.4,1.1.3.3.6.4,1,.4s.7,0,1,0,.6-.2.8-.4l.5,1.1c-.3.2-.6.4-1,.5-.5.2-.9.2-1.4.2ZM272.9,57.2c-.3,0-.6,0-.8.4-.2.3-.3.6-.3,1h2.1c0-.4-.1-.8-.3-1-.1-.2-.4-.4-.7-.4h0Z"/>
    <path class="cls-18" d="M276.3,54.2v-1.1h2.7v8.1l.8.2v1h-3.4v-1l.8-.2v-6.9h-.9Z"/>
    <path class="cls-18" d="M289.9,56.6h-1.3l-.2-1.2c-.2,0-.5-.2-.7-.3-.3,0-.6,0-.9,0s-.8,0-1.1.3c-.3.2-.4.5-.4.8s.1.6.4.7c.4.3.9.5,1.4.6.8.2,1.6.6,2.2,1.1.5.4.7,1.1.7,1.7s-.3,1.4-.9,1.8c-.7.4-1.5.6-2.3.6s-1.3,0-1.9-.3c-.5-.2-1-.5-1.4-.9v-1.8h1.4l.2,1.2c.2.2.5.3.7.4.3,0,.7,0,1,0s.8,0,1.1-.3c.2-.2.4-.5.4-.8s-.1-.6-.4-.8c-.4-.3-.8-.5-1.2-.6-.8-.2-1.6-.6-2.3-1.1-.5-.4-.8-1-.8-1.7s.3-1.3.9-1.7c.7-.5,1.5-.7,2.3-.7s1.2,0,1.8.3c.5.2,1,.5,1.4.8v1.9h-.1Z"/>
    <path class="cls-18" d="M297.9,61.5c-.4.3-.8.6-1.2.8-.7.2-1.4.3-2.1.3-1.1,0-2.1-.4-2.9-1.2-.7-.9-1.1-2-1.1-3.1v-.3c0-1.2.4-2.3,1.1-3.2.7-.8,1.7-1.2,2.8-1.2s1.3,0,1.9.3c.5.2,1,.5,1.4.9v1.8h-1.3l-.2-1.2-.6-.3c-.3,0-.6,0-.9,0-.7,0-1.4.3-1.8.8-.4.7-.6,1.4-.6,2.2v.3c0,.7.2,1.5.6,2.1.4.5,1.1.8,1.8.8s.6,0,.9,0,.4,0,.5-.2v-1.4h-1.2v-1.3h3v3.3h0Z"/>
    <path class="cls-18" d="M298.7,61.4h.7c0,0,2.3-3.3,2.3-3.3l-2.2-3.1h-.7v-1.2h3.3v1.1h-.7c0,0,1.3,2.2,1.3,2.2l1.4-2.1h-.7v-1.2h3.4v1.1h-.7c0,0-2.2,3.2-2.2,3.2l2.3,3.2h.8v1.1h-3.4v-1h.7c0,0-1.4-2.3-1.4-2.3l-1.4,2.2h.7v1.1h-3.4v-1h0Z"/>
  </g>
  <circle class="cls-12" cx="305.4" cy="224.4" r="7.8"/>
  <line class="cls-12" x1="310.9" y1="229.9" x2="299.9" y2="218.9"/>
  <circle class="cls-12" cx="127.3" cy="96.7" r="7.8"/>
  <line class="cls-12" x1="132.8" y1="102.1" x2="121.8" y2="91.2"/>
  <circle class="cls-12" cx="381.5" cy="97" r="7.8"/>
  <line class="cls-12" x1="387" y1="102.5" x2="376" y2="91.5"/>
  <circle class="cls-12" cx="272.2" cy="224.4" r="7.8"/>
  <line class="cls-12" x1="277.7" y1="229.9" x2="266.7" y2="218.9"/>
  <circle class="cls-12" cx="239" cy="224.4" r="7.8"/>
  <line class="cls-12" x1="244.5" y1="229.9" x2="233.5" y2="218.9"/>
  <circle class="cls-12" cx="205.8" cy="224.4" r="7.8"/>
  <line class="cls-12" x1="211.3" y1="229.9" x2="200.3" y2="218.9"/>
  <line class="cls-10" x1="401.1" y1="97.7" x2="432.4" y2="97.7"/>
  <polygon class="cls-16" points="407.8 105.8 409.1 104.4 401.9 97.7 409.1 90.9 407.8 89.5 399 97.7 407.8 105.8"/>
  <line class="cls-10" x1="105.8" y1="96.7" x2="74.6" y2="96.7"/>
  <polygon class="cls-16" points="99.2 88.5 97.9 89.9 105.1 96.6 97.9 103.4 99.2 104.8 108 96.6 99.2 88.5"/>
  <line class="cls-10" x1="515.4" y1="125.3" x2="515.4" y2="146.1"/>
  <polygon class="cls-16" points="507.2 131.9 508.7 133.3 515.4 126.1 522.1 133.3 523.6 131.9 515.4 123.1 507.2 131.9"/>
  <line class="cls-10" x1="172.3" y1="332.8" x2="151.5" y2="332.8"/>
  <polygon class="cls-16" points="165.7 324.7 164.3 326.1 171.6 332.8 164.3 339.5 165.7 341 174.5 332.8 165.7 324.7"/>
  <path class="cls-9" d="M189.2,272.2h132.6c2.8,0,5,2.2,5,5v20.6c0,2.8-2.2,5-5,5h-132.6c-2.8,0-5-2.2-5-5v-20.6c.1-2.7,2.3-4.9,5-5Z"/>
  <path class="cls-18" d="M197.5,287.6h-2.9v2.5h2.8v-1h1.4v2.4h-6.9v-1l.9-.2v-6.2l-.9-.2v-1.1h6.8v2.4h-1.3v-1h-2.9v2.2h2.9v1.2h0Z"/>
  <path class="cls-18" d="M199.6,290.4l.8-.2v-4l-.9-.2v-1.1h2.6v.9c.3-.3.6-.6.9-.8.3-.2.7-.3,1.1-.3.6-.1,1.1.2,1.5.6.4.6.5,1.2.5,1.9v2.8l.8.2v1h-3.3v-1l.7-.2v-2.8c0-.3-.1-.7-.3-.9-.2-.2-.5-.3-.8-.3s-.4,0-.6.1c-.2.1-.4.2-.5.4v3.5l.7.2v1h-3.3v-.8h0Z"/>
  <g>
    <path class="cls-18" d="M207.5,288.3c0-.9.2-1.8.7-2.5.4-.6,1.2-.9,1.9-.9s.7.1,1,.2c.3.2.5.4.7.7v-.8h1.6v6.3c0,.8-.3,1.5-.8,2-.6.5-1.4.8-2.2.8s-.7,0-1-.1-.7-.2-1-.4l.3-1.2c.3.1.5.2.8.3.3.1.6.1.9.1s.7-.1,1-.4c.2-.3.3-.7.3-1.1v-.4c-.2.2-.4.4-.7.6-.3.1-.6.2-.9.2-.7,0-1.4-.3-1.9-.9-.5-.7-.7-1.5-.7-2.3v-.2h0ZM209.3,288.4c0,.5.1.9.3,1.3.2.3.5.5.9.5s.5,0,.7-.1.3-.2.4-.4v-2.8c-.1-.2-.3-.3-.4-.5-.2-.1-.5-.2-.7-.2-.4,0-.7.2-.9.6-.2.5-.3,1-.3,1.5h0Z"/>
    <path class="cls-18" d="M214.3,290.4l.8-.2v-4l-.9-.2v-1.1h2.7v5.2l.8.2v1h-3.4v-.9h0ZM216.9,283.4h-1.7v-1.3h1.7v1.3Z"/>
  </g>
  <path class="cls-18" d="M218.3,290.4l.8-.2v-4l-.9-.2v-1.1h2.6v.9c.3-.3.6-.6.9-.8.3-.2.7-.3,1.1-.3.6-.1,1.1.2,1.5.6.4.6.5,1.2.5,1.9v2.8l.8.2v1h-3.3v-1l.7-.2v-2.8c0-.3-.1-.7-.3-.9-.2-.2-.5-.3-.8-.3s-.4,0-.6.1c-.2.1-.4.2-.5.4v3.5l.7.2v1h-3.3v-.8h0Z"/>
  <g>
    <path class="cls-18" d="M229.2,291.6c-.8,0-1.6-.3-2.2-.9-.6-.6-.9-1.5-.8-2.3v-.2c0-.9.3-1.7.8-2.4.5-.6,1.3-.9,2.1-.9s1.5.3,2,.8c.5.6.8,1.3.7,2.1v1h-3.9c0,.4.2.8.4,1.1.3.3.6.4,1,.4s.7,0,1-.1.6-.2.8-.4l.5,1.1c-.3.2-.6.4-1,.5-.4.2-.9.2-1.4.2ZM229,286.2c-.3,0-.6.1-.8.4s-.3.6-.3,1h2.1v-.2c0-.3-.1-.7-.3-.9-.2-.2-.4-.3-.7-.3h0Z"/>
    <path class="cls-18" d="M235.4,286v-1.1h2.5v.8c.3-.3.5-.5.8-.6.3-.2.6-.2.9-.2.7,0,1.4.3,1.9.9.5.7.7,1.6.7,2.5h0c.1.9-.2,1.7-.7,2.4-.5.6-1.2.9-1.9.9s-.6-.1-.9-.2c-.3-.1-.5-.3-.7-.6v1.9l.8.2v1.1h-3.4v-1.1l.8-.2v-6.5l-.8-.2ZM240.5,288.3c0-.5-.1-1-.3-1.5-.2-.4-.5-.6-.9-.6s-.5.1-.7.2-.3.3-.4.5v2.8c.1.2.3.3.4.4.2.1.5.1.7.1.4,0,.7-.2.9-.5.2-.4.3-.8.3-1.3h0Z"/>
    <path class="cls-18" d="M247.1,291.4c0-.1-.1-.2-.1-.3s-.1-.2-.1-.3c-.2.2-.5.4-.8.6s-.7.2-1,.2c-.5,0-1.1-.2-1.5-.5s-.6-.9-.6-1.4.2-1.1.7-1.4c.6-.4,1.4-.5,2.1-.5h.9v-.6c0-.3-.1-.5-.3-.7s-.5-.3-.8-.3-.4,0-.5.1c-.2,0-.3.1-.4.2v.7h-1.4v-1.4c.3-.2.7-.4,1.1-.5.4-.1.9-.2,1.3-.2.7,0,1.4.2,2,.6.5.4.8,1,.8,1.7v3.3h.5v1.1h-1.9v-.4h0ZM245.6,290.3c.2,0,.5-.1.7-.2s.4-.2.5-.4v-1h-.9c-.4,0-.7.1-.8.3s-.3.4-.3.6.1.4.2.5c.2.2.4.2.6.2Z"/>
  </g>
  <path class="cls-18" d="M249.8,290.4l.8-.2v-4l-.9-.2v-1.1h2.6v.9c.2-.3.4-.6.7-.8.2-.2.5-.3.8-.3h.3c.1,0,.2,0,.3.1l-.2,1.6h-.7c-.3,0-.5,0-.6.1-.2.1-.3.2-.4.4v3.1l.8.2v1h-3.4v-.8h-.1Z"/>
  <g>
    <path class="cls-18" d="M258.9,291.4c0-.1-.1-.2-.1-.3s-.1-.2-.1-.3c-.2.2-.5.4-.8.6s-.7.2-1,.2c-.5,0-1.1-.2-1.5-.5s-.6-.9-.6-1.4.2-1.1.7-1.4c.6-.4,1.4-.5,2.1-.5h.9v-.6c0-.3-.1-.5-.3-.7-.2-.2-.5-.3-.8-.3s-.4,0-.5.1c-.2,0-.3.1-.4.2v.7h-1.4v-1.4c.3-.2.7-.4,1.1-.5s.9-.2,1.3-.2c.7,0,1.4.2,2,.6.5.4.8,1,.8,1.7v3.3h.5v1.1h-1.9v-.4h0ZM257.4,290.3c.2,0,.5-.1.7-.2s.4-.2.5-.4v-1h-.9c-.4,0-.7.1-.8.3s-.3.4-.3.6.1.4.2.5c.2.2.4.2.6.2Z"/>
    <path class="cls-18" d="M267.5,290.2c.3,0,.5-.1.7-.3.2-.2.3-.4.3-.7h1.6c0,.6-.2,1.2-.7,1.6-.5.5-1.2.7-1.9.7-.8.1-1.6-.3-2.2-.9-.5-.6-.8-1.5-.8-2.3v-.2c0-.8.3-1.7.8-2.3.6-.6,1.4-1,2.3-.9.5,0,.9.1,1.4.2.4.1.7.4,1,.7v1.7h-1.4l-.3-1c-.1-.1-.2-.1-.3-.2-.1-.1-.3-.1-.4-.1-.4,0-.8.2-1,.5-.2.4-.3.9-.3,1.4v.2c0,.5.1,1,.3,1.4.1.3.4.5.9.5Z"/>
    <path class="cls-18" d="M270.9,288.1c0-.9.3-1.7.8-2.4.6-.6,1.4-.9,2.2-.9.8-.1,1.6.3,2.2.9.5.7.8,1.5.8,2.4h0c0,1-.3,1.8-.8,2.5-.6.6-1.4.9-2.2.9s-1.7-.3-2.3-.9c-.5-.7-.8-1.5-.8-2.4h0ZM272.7,288.3c0,.5.1,1,.3,1.4.2.4.5.5,1,.5s.8-.2,1-.5c.2-.4.3-.9.3-1.4h0c0-.6-.1-1.1-.3-1.5-.2-.4-.5-.5-1-.5s-.8.2-1,.5c-.2.4-.3.9-.3,1.4h0Z"/>
    <path class="cls-18" d="M277.7,290.4l.8-.2v-4l-.9-.2v-1.1h2.6v.9c.3-.3.6-.6.9-.8.3-.2.7-.3,1.1-.3.6-.1,1.1.2,1.5.6.4.6.5,1.2.5,1.9v2.8l.8.2v1h-3.3v-1l.7-.2v-2.8c0-.3-.1-.7-.3-.9s-.5-.3-.8-.3-.4,0-.6.1-.4.2-.5.4v3.5l.7.2v1h-3.3v-.8h0Z"/>
    <path class="cls-18" d="M288.1,283.4v1.6h1.1v1.2h-1.1v3.3c0,.2.1.4.2.5s.2.2.4.2h.3c.1,0,.2,0,.3-.1v1.3c-.1.1-.3.1-.5.1h-.6c-.5,0-1-.2-1.4-.5-.4-.5-.5-1-.5-1.6v-3.3h-1v-1.2h1v-1.6h1.8Z"/>
    <path class="cls-18" d="M293.2,291.6c-.8,0-1.6-.3-2.2-.9s-.9-1.5-.8-2.3v-.2c0-.9.3-1.7.8-2.4.5-.6,1.3-.9,2.1-.9s1.5.3,2,.8c.5.6.8,1.3.7,2.1v1h-3.8c0,.4.2.8.4,1.1.3.3.6.4,1,.4s.7,0,1-.1.6-.2.8-.4l.5,1.1c-.3.2-.6.4-1,.5-.5.2-1,.2-1.5.2ZM295.2,283.8h0c0,.1-1.3.1-1.3.1l-.9-.9-.9.9h-1.3v-.2l1.7-1.4h1l1.7,1.5ZM293.1,286.2c-.3,0-.6.1-.8.4-.2.3-.3.6-.3,1h2.1v-.2c0-.3-.1-.7-.3-.9-.2-.2-.4-.3-.7-.3Z"/>
    <path class="cls-18" d="M296.6,290.4l.8-.2v-4l-.9-.2v-1.1h2.7v5.2l.8.2v1h-3.4v-.9ZM299.2,283.4h-1.7v-1.3h1.7v1.3Z"/>
  </g>
  <path class="cls-18" d="M300.5,290.4l.8-.2v-4l-.9-.2v-1.1h2.6v.9c.3-.3.6-.6.9-.8.3-.2.7-.3,1.1-.3.6-.1,1.1.2,1.5.6.4.6.5,1.2.5,1.9v2.8l.8.2v1h-3.3v-1l.7-.2v-2.8c0-.3-.1-.7-.3-.9s-.5-.3-.8-.3-.4,0-.6.1-.4.2-.5.4v3.5l.7.2v1h-3.3v-.8h0Z"/>
  <g>
    <path class="cls-18" d="M311.4,291.6c-.8,0-1.6-.3-2.2-.9s-.9-1.5-.8-2.3v-.2c0-.9.3-1.7.8-2.4.5-.6,1.3-.9,2.1-.9s1.5.3,2,.8c.5.6.8,1.3.7,2.1v1h-3.9c0,.4.2.8.4,1.1.3.3.6.4,1,.4s.7,0,1-.1.6-.2.8-.4l.5,1.1c-.3.2-.6.4-1,.5-.4.2-.9.2-1.4.2ZM311.2,286.2c-.3,0-.6.1-.8.4-.2.3-.3.6-.3,1h2.1v-.2c0-.3-.1-.7-.3-.9,0-.2-.3-.3-.7-.3Z"/>
    <path class="cls-18" d="M315,290.4l.8-.2v-4l-.9-.2v-1.1h2.6v.9c.2-.3.4-.6.7-.8.2-.2.5-.3.8-.3h.3c.1,0,.2,0,.3.1l-.2,1.6h-.7c-.3,0-.5,0-.6.1s-.3.2-.4.4v3.1l.8.2v1h-3.5v-.8Z"/>
  </g>
  <path class="cls-5" d="M189.2,317.9h132.6c2.8,0,5,2.2,5,5v20.6c0,2.8-2.2,5-5,5h-132.6c-2.8,0-5-2.2-5-5v-20.6c.1-2.7,2.3-4.9,5-5Z"/>
  <g>
    <path class="cls-18" d="M203.5,331.2h-1.3l-.2-1.2c-.2-.1-.5-.2-.7-.3-.3-.1-.6-.1-.9-.1s-.8.1-1.1.3c-.3.2-.4.5-.4.8s.1.6.4.7c.4.3.9.5,1.4.6.8.2,1.6.6,2.2,1.1.5.4.7,1.1.7,1.7s-.3,1.4-.9,1.8c-.7.4-1.5.6-2.3.6s-1.3-.1-1.9-.3c-.5-.2-1-.5-1.4-.9v-1.8h1.4l.2,1.2c.2.2.5.3.7.4.3.1.7.1,1,.1s.8-.1,1.1-.3c.2-.2.4-.5.4-.8s-.1-.6-.4-.8c-.4-.3-.8-.5-1.2-.6-.8-.2-1.6-.6-2.3-1.1-.5-.4-.8-1-.8-1.7s.3-1.3.9-1.7c.7-.5,1.5-.7,2.3-.7s1.2.1,1.8.3c.5.2,1,.5,1.4.8v1.9h0Z"/>
    <path class="cls-18" d="M204.3,336.1l.8-.2v-4l-.9-.2v-1.1h2.7v5.2l.8.2v1h-3.4v-.9h0ZM206.8,329.1h-1.7v-1.3h1.7v1.3Z"/>
    <path class="cls-18" d="M213.5,332.9h-1.2l-.2-.8c-.1-.1-.3-.2-.5-.2-.2-.1-.4-.1-.6-.1s-.5.1-.7.2c-.3.2-.4.5-.2.8.1.1.1.2.2.2.3.1.7.2,1,.3.6.1,1.2.4,1.8.7.4.3.6.8.6,1.3s-.3,1.1-.8,1.4c-.6.4-1.3.6-2,.6s-.9-.1-1.4-.2c-.4-.1-.8-.3-1.1-.6v-1.5h1.2l.2.8c.1.1.2.2.4.2s.4.1.6.1c.3,0,.6-.1.8-.2.3-.2.4-.5.2-.8-.1-.1-.1-.2-.2-.2-.3-.2-.6-.3-1-.4-.6-.1-1.2-.4-1.7-.7-.4-.3-.6-.7-.6-1.2s.3-1.1.7-1.4c.5-.4,1.2-.6,1.9-.6s.9.1,1.4.2c.4.1.8.3,1.1.5v1.6Z"/>
    <path class="cls-18" d="M217.1,329.1v1.6h1.1v1.2h-1.1v3.3c0,.2.1.4.2.5.1.1.2.2.4.2h.3c.1,0,.2,0,.3-.1v1.3c0,.1-.3.1-.5.1h-.6c-.5,0-1-.2-1.4-.5-.4-.5-.5-1-.5-1.6v-3.3h-1v-1.2h1v-1.6h1.8Z"/>
    <path class="cls-18" d="M222.2,337.2c-.8,0-1.6-.3-2.2-.9-.6-.6-.9-1.5-.8-2.3v-.2c0-.9.3-1.7.8-2.4.5-.6,1.3-.9,2.1-.9s1.5.3,2,.8c.5.6.8,1.3.7,2.1v1h-3.8c0,.4.2.8.4,1.1.3.3.6.4,1,.4s.7,0,1-.1.6-.2.8-.4l.5,1.1c-.3.2-.6.4-1,.5-.5.2-1,.3-1.5.2ZM222.1,331.9c-.3,0-.6.1-.8.4s-.3.6-.3,1h2.1v-.2c0-.3-.1-.7-.3-.9s-.4-.3-.7-.3h0Z"/>
    <path class="cls-18" d="M225.4,331.7v-1.1h2.6v.9c.3-.3.6-.6.9-.7.7-.4,1.5-.4,2.2,0,.3.2.5.5.7.8.2-.3.5-.6.8-.8.3-.2.7-.3,1.1-.3.6,0,1.1.2,1.5.7.4.6.7,1.3.6,2v2.7l.8.2v1h-3.3v-1l.8-.2v-2.7c0-.3-.1-.7-.2-1-.2-.2-.4-.3-.7-.3s-.4.1-.6.2c-.2.1-.3.3-.4.5v3.4l.7.2v1h-3.1v-1l.7-.2v-2.7c0-.3-.1-.7-.2-1-.2-.2-.4-.3-.7-.3s-.4,0-.6.1c-.2.1-.3.2-.4.4v3.5l.8.2v1h-3.3v-1l.8-.2v-4l-1.5-.3Z"/>
    <path class="cls-18" d="M241.1,337.1c0-.1-.1-.2-.1-.3s-.1-.2-.1-.3c-.2.2-.5.4-.8.6-.3.1-.7.2-1,.2-.5,0-1.1-.2-1.5-.5s-.6-.9-.6-1.4.2-1.1.7-1.4c.6-.4,1.4-.5,2.1-.5h.9v-.6c0-.3-.1-.5-.3-.7s-.5-.3-.8-.3-.4,0-.5.1c-.2,0-.3.1-.4.2v.7h-1.4v-1.4c.3-.2.7-.4,1.1-.5.4-.1.9-.2,1.3-.2.7,0,1.4.2,2,.6.5.4.8,1,.8,1.7v3.3h.5v1.1h-1.9v-.4h0ZM239.6,335.9c.2,0,.5-.1.7-.2s.4-.2.5-.4v-1h-.8c-.4,0-.7.1-.8.3-.2.2-.3.4-.3.6,0,.4.3.7.7.7h0Z"/>
    <path class="cls-18" d="M246.7,333.8c0-.9.3-1.7.8-2.4.6-.6,1.4-.9,2.2-.9.8-.1,1.6.3,2.2.9.5.7.8,1.5.8,2.4h0c0,1-.3,1.8-.8,2.5-.6.6-1.4.9-2.2.9s-1.7-.3-2.3-.9c-.5-.7-.8-1.5-.8-2.4h0c0-.1.1-.1.1-.1ZM248.5,333.9c0,.5.1,1,.3,1.4s.5.5,1,.5.8-.2,1-.5c.2-.4.3-.9.3-1.4h0c0-.6-.1-1.1-.3-1.5s-.5-.5-1-.5-.8.2-1,.5c-.2.4-.3.9-.3,1.4h0Z"/>
    <path class="cls-18" d="M253.5,331.7v-1.1h2.5v.8c.3-.3.5-.5.8-.6.3-.2.6-.2.9-.2.7,0,1.4.3,1.9.9.5.7.8,1.6.7,2.5h0c.1.9-.2,1.7-.7,2.4-.5.6-1.2.9-1.9.9s-.6-.1-.9-.2-.5-.3-.7-.6v1.9l.8.2v1.1h-3.4v-1.2l.8-.2v-6.5h-.8ZM258.5,333.9c0-.5-.1-1-.3-1.5-.2-.4-.5-.6-.9-.6s-.5.1-.7.2-.3.3-.4.5v2.8c.1.2.3.3.4.4.2.1.5.1.7.1.4,0,.7-.2.9-.5.2-.4.3-.8.3-1.3h0Z"/>
    <path class="cls-18" d="M264.1,337.2c-.8,0-1.6-.3-2.2-.9s-.9-1.5-.8-2.3v-.2c0-.9.3-1.7.8-2.4.5-.6,1.3-.9,2.1-.9s1.5.3,2,.8c.5.6.8,1.3.7,2.1v1h-3.9c0,.4.2.8.4,1.1.3.3.6.4,1,.4s.7,0,1-.1.6-.2.8-.4l.5,1.1c-.3.2-.6.4-1,.5-.4.2-.9.3-1.4.2ZM264,331.9c-.3,0-.6.1-.8.4-.2.3-.3.6-.3,1h2.1v-.2c0-.3-.1-.7-.3-.9-.2-.2-.4-.3-.7-.3h0Z"/>
  </g>
  <path class="cls-18" d="M267.7,336.1l.8-.2v-4l-.9-.2v-1.1h2.6v.9c.2-.3.4-.6.7-.8.2-.2.5-.3.8-.3h.3c.1,0,.2,0,.3.1l-.2,1.6h-.7c-.2,0-.4.1-.6.2s-.3.2-.4.4v3.1l.8.2v1h-3.4v-.9h0Z"/>
  <g>
    <path class="cls-18" d="M276.7,337.1c0-.1-.1-.2-.1-.3s-.1-.2-.1-.3c-.2.2-.5.4-.8.6-.3.1-.7.2-1,.2-.5,0-1.1-.2-1.5-.5s-.6-.9-.6-1.4.2-1.1.7-1.4c.6-.4,1.4-.5,2.1-.5h.9v-.6c0-.3-.1-.5-.3-.7-.2-.2-.5-.3-.8-.3s-.4,0-.5.1c-.2,0-.3.1-.4.2v.7h-1.3v-1.4c.3-.2.7-.4,1.1-.5s.9-.2,1.3-.2c.7,0,1.4.2,2,.6.5.4.8,1,.8,1.7v3.3h.5v1.1h-2v-.4ZM275.2,335.9c.2,0,.5-.1.7-.2s.4-.2.5-.4v-1h-.9c-.4,0-.7.1-.8.3-.2.2-.3.4-.3.6s.1.4.2.5c.2.2.4.2.6.2Z"/>
    <path class="cls-18" d="M282.4,335.9c.3,0,.5-.1.7-.3.2-.2.3-.4.3-.7h1.6c0,.6-.2,1.2-.7,1.6-.5.5-1.2.7-1.9.7-.8.1-1.6-.3-2.2-.9-.5-.6-.8-1.5-.8-2.3v-.2c0-.8.3-1.7.8-2.3.6-.6,1.4-1,2.3-.9.5,0,.9.1,1.4.2.4.1.7.4,1,.7v1.7h-1.4l-.3-1c-.1-.1-.2-.1-.3-.2s-.3-.1-.4-.1c-.4,0-.8.2-1,.5-.2.4-.3.9-.3,1.4v.2c0,.5.1,1,.3,1.4.1.3.4.5.9.5Z"/>
    <path class="cls-18" d="M285.7,336.1l.8-.2v-4l-.9-.2v-1.1h2.7v5.2l.8.2v1h-3.4v-.9ZM288.3,329.1h-1.7v-1.3h1.7v1.3Z"/>
    <path class="cls-18" d="M289.7,333.8c0-.9.3-1.7.8-2.4.6-.6,1.4-.9,2.2-.9.8-.1,1.6.3,2.2.9.5.7.8,1.5.8,2.4h0c0,1-.3,1.8-.8,2.5-.6.6-1.4.9-2.2.9s-1.7-.3-2.3-.9c-.5-.7-.8-1.5-.8-2.4h0ZM291.5,333.9c0,.5.1,1,.3,1.4.2.4.5.5,1,.5s.8-.2,1-.5c.2-.4.3-.9.3-1.4h0c0-.6-.1-1.1-.3-1.5-.2-.4-.5-.5-1-.5s-.8.2-1,.5c-.2.4-.3.9-.3,1.4h0Z"/>
    <path class="cls-18" d="M296.5,336.1l.8-.2v-4l-.9-.2v-1.1h2.6v.9c.3-.3.6-.6.9-.8.3-.2.7-.3,1.1-.3.6-.1,1.1.2,1.5.6.4.6.5,1.2.5,1.9v2.8l.8.2v1h-3.3v-1l.7-.2v-2.8c0-.3-.1-.7-.3-.9s-.5-.3-.8-.3-.4,0-.6.1-.4.2-.5.4v3.5l.7.2v1h-3.3v-.8h0Z"/>
    <path class="cls-18" d="M308.5,337.1c0-.1-.1-.2-.1-.3s-.1-.2-.1-.3c-.2.2-.5.4-.8.6-.3.1-.7.2-1,.2-.5,0-1.1-.2-1.5-.5s-.6-.9-.6-1.4.2-1.1.7-1.4c.6-.4,1.4-.5,2.1-.5h.9v-.6c0-.3-.1-.5-.3-.7-.2-.2-.5-.3-.8-.3s-.4,0-.5.1c-.2,0-.3.1-.4.2v.7h-1.4v-1.4c.3-.2.7-.4,1.1-.5s.9-.2,1.3-.2c.7,0,1.4.2,2,.6.5.4.8,1,.8,1.7v3.3h.5v1.1h-1.9v-.4h0ZM307,335.9c.2,0,.5-.1.7-.2s.4-.2.5-.4v-1h-.9c-.4,0-.7.1-.8.3-.2.2-.3.4-.3.6s.1.4.2.5c.2.2.4.2.6.2h0Z"/>
    <path class="cls-18" d="M310.9,328.8v-1.1h2.7v8.1l.8.2v1h-3.4v-1l.8-.2v-6.9h-.9Z"/>
  </g>
  <path class="cls-6" d="M189.2,363.6h132.6c2.8,0,5,2.2,5,5v20.6c0,2.8-2.2,5-5,5h-132.6c-2.8,0-5-2.2-5-5v-20.6c0-2.7,2.2-5,5-5Z"/>
  <g>
    <path class="cls-18" d="M224.9,375.1v-1.1h3.6v1.1l-.9.2v2.5h3.5v-2.5l-.9-.2v-1.1h3.5v1.1l-.9.2v6.2l.9.2v1h-3.6v-1l.9-.2v-2.4h-3.5v2.4l.9.2v1h-3.6v-1l.9-.2v-6.2l-.8-.2Z"/>
    <path class="cls-18" d="M234.5,381.7l.8-.2v-4l-.9-.2v-1.1h2.7v5.2l.8.2v1h-3.4v-.9h0ZM237.1,374.8h-1.7v-1.3h1.7v1.3Z"/>
    <path class="cls-18" d="M238.3,377.4v-1.1h2.5v.8c.3-.3.5-.5.8-.6.3-.2.6-.2.9-.2.7,0,1.4.3,1.9.9.5.7.7,1.6.7,2.5h0c.1.9-.2,1.7-.7,2.4-.5.6-1.2.9-1.9.9s-.6-.1-.9-.2c-.3-.1-.5-.3-.7-.6v1.9l.8.2v1.1h-3.4v-1.1l.8-.2v-6.5l-.8-.2ZM243.4,379.6c0-.5-.1-1-.3-1.5-.2-.4-.5-.6-.9-.6s-.5.1-.7.2-.3.3-.4.5v2.8c.1.2.3.3.4.4.2.1.5.1.7.1.4,0,.7-.2.9-.5.2-.4.3-.8.3-1.4h0Z"/>
    <path class="cls-18" d="M249,382.9c-.8,0-1.6-.3-2.2-.9-.6-.6-.9-1.5-.8-2.3v-.2c0-.9.3-1.7.8-2.4.5-.6,1.3-.9,2.1-.9s1.5.3,2,.8c.5.6.8,1.3.7,2.1v1h-3.9c0,.4.2.8.4,1.1.3.3.6.4,1,.4s.7,0,1-.1.6-.2.8-.4l.5,1.1c-.3.2-.6.4-1,.5-.5.2-.9.2-1.4.2ZM248.8,377.5c-.3,0-.6.1-.8.4s-.3.6-.3,1h2.1v-.2c0-.3-.1-.7-.3-.9s-.4-.3-.7-.3h0Z"/>
  </g>
  <path class="cls-18" d="M252.5,381.7l.8-.2v-4l-.9-.2v-1.1h2.6v.9c.2-.3.4-.6.7-.8.2-.2.5-.3.8-.3h.3c.1,0,.2,0,.3.1l-.2,1.6h-.7c-.3,0-.5,0-.6.1-.2.1-.3.2-.4.4v3.1l.8.2v1h-3.4v-.8h0Z"/>
  <g>
    <path class="cls-18" d="M260.4,377.4h-.6c0,.1.9,3,.9,3v.6h.1v-.6c.1,0,.9-2.9.9-2.9h-.6v-1.2h2.9v1.1h-.6c0,.1-1.9,5.4-1.9,5.4h-1.7l-1.8-5.3h-.6v-1.2h2.9v1.1h.1Z"/>
    <path class="cls-18" d="M264.6,381.7l.8-.2v-4l-.9-.2v-1.1h2.7v5.2l.8.2v1h-3.4v-.9ZM267.2,374.8h-1.7v-1.3h1.7v1.3Z"/>
    <path class="cls-18" d="M273.9,378.5h-1.2l-.2-.8c-.1-.1-.3-.2-.5-.2-.2-.1-.4-.1-.6-.1s-.5.1-.7.2c-.3.2-.4.5-.2.8.1.1.1.2.2.2.3.1.7.2,1,.3.6.1,1.2.4,1.8.7.4.3.6.8.6,1.3s-.3,1.1-.8,1.4c-.6.4-1.3.6-2,.6s-.9-.1-1.4-.2c-.4-.1-.8-.3-1.1-.6v-1.5h1.2l.2.8c.1.1.2.2.4.2s.4.1.6.1c.3,0,.6-.1.8-.2.3-.2.4-.5.2-.8-.1-.1-.1-.2-.2-.2-.3-.2-.6-.3-1-.4-.6-.1-1.2-.4-1.7-.7-.4-.3-.6-.7-.6-1.2s.3-1.1.7-1.4c.5-.4,1.2-.6,1.9-.6s.9.1,1.4.2c.4.1.8.3,1.1.5v1.6Z"/>
    <path class="cls-18" d="M274.9,379.5c0-.9.3-1.7.8-2.4.6-.6,1.4-.9,2.2-.9.8-.1,1.6.3,2.2.9.5.7.8,1.5.8,2.4h0c0,1-.3,1.8-.8,2.5-.6.6-1.4.9-2.2.9s-1.7-.3-2.3-.9c-.5-.7-.8-1.5-.8-2.4h0ZM276.6,379.6c0,.5.1,1,.3,1.4.2.4.5.5,1,.5s.8-.2,1-.5c.2-.4.3-.9.3-1.4h0c0-.6-.1-1.1-.3-1.5-.2-.4-.5-.5-1-.5s-.8.2-1,.5c-.2.4-.3.9-.3,1.4h0Z"/>
    <path class="cls-18" d="M281.9,381.7l.8-.2v-4l-.9-.2v-1.1h2.6v.9c.2-.3.4-.6.7-.8.2-.2.5-.3.8-.3h.3c.1,0,.2,0,.3.1l-.2,1.6h-.7c-.3,0-.5,0-.6.1-.2.1-.3.2-.4.4v3.1l.8.2v1h-3.4v-.8h-.1Z"/>
  </g>
  <path class="cls-11" d="M189.2,408.3h132.6c2.8,0,5,2.2,5,5v20.6c0,2.8-2.2,5-5,5h-132.6c-2.8,0-5-2.2-5-5v-20.6c0-2.7,2.2-5,5-5Z"/>
  <g>
    <path class="cls-18" d="M242.2,419.8v-1.1h3.6v1.1l-.9.2v2.5h3.5v-2.5l-.9-.2v-1.1h3.5v1.1l-.9.2v6.2l.9.2v1h-3.6v-1l.9-.2v-2.4h-3.5v2.4l.9.2v1h-3.6v-1l.9-.2v-6.2l-.8-.2Z"/>
    <path class="cls-18" d="M251.8,424.2c0-.9.3-1.7.8-2.4.6-.6,1.4-.9,2.2-.9.8-.1,1.6.3,2.2.9.5.7.8,1.5.8,2.4h0c0,1-.3,1.8-.8,2.5-.6.6-1.4.9-2.2.9s-1.7-.3-2.3-.9c-.5-.7-.8-1.5-.8-2.4h.1ZM253.6,424.3c0,.5.1,1,.3,1.4s.5.5,1,.5.8-.2,1-.5c.2-.4.3-.9.3-1.4h0c0-.6-.1-1.1-.3-1.5s-.5-.5-1-.5-.8.2-1,.5c-.2.4-.3.9-.3,1.4h0Z"/>
    <path class="cls-18" d="M264,423.2h-1.2l-.2-.8c-.1-.1-.3-.2-.5-.2-.2-.1-.4-.1-.6-.1s-.5.1-.7.2c-.3.2-.4.5-.2.8.1.1.1.2.2.2.3.1.7.2,1,.3.6.1,1.2.4,1.8.7.4.3.6.8.6,1.3s-.3,1.1-.8,1.4c-.6.4-1.3.6-2,.6s-.9-.1-1.4-.2c-.4-.1-.8-.3-1.1-.6v-1.5h1.2l.2.8c.1.1.2.2.4.2s.4.1.6.1c.3,0,.6-.1.8-.2.3-.2.4-.5.2-.8-.1-.1-.1-.2-.2-.2-.3-.2-.6-.3-1-.4-.6-.1-1.2-.4-1.7-.7-.4-.3-.6-.7-.6-1.2s.3-1.1.7-1.4c.5-.4,1.2-.6,1.9-.6s.9.1,1.4.2c.4.1.8.3,1.1.5v1.6Z"/>
    <path class="cls-18" d="M267.6,419.4v1.6h1.1v1.2h-1.1v3.3c0,.2.1.4.2.5s.2.2.4.2h.3c.1,0,.2,0,.3-.1v1.3c-.1.1-.3.1-.5.1h-.6c-.5,0-1-.2-1.4-.5-.4-.5-.5-1-.5-1.6v-3.3h-1v-1.2h1v-1.6h1.8Z"/>
  </g>
  <path class="cls-18" d="M119.9,313.5c1,0,2,.2,2.9.5,1.2.4,2.4,1.2,3.3,2.1,1.4,1.4,2.3,3.3,2.6,5.3h.1v5.1h-1.1v3.3c0,2.5-1.3,4.7-3.4,6v2.3h.9c.3,0,.6,0,.9.1,1.1.1,2.1.6,2.9,1.3,1,.7,1.6,1.9,1.6,3.1v4.7h-21.3v-4.8c0-1.2.6-2.4,1.6-3.1.8-.7,1.8-1.1,2.9-1.3.3-.1.6-.1.9-.1h.9v-2.3h0c-2.2-1.4-3.5-3.7-3.5-6.3s0-1.4,0-2.9h-1.1v-5.2h0c.3-3.4,2.6-6.3,5.8-7.4,1-.3,2-.4,3-.4M120,311.5c-1.2,0-2.4.2-3.6.6-3.7,1.3-6.5,4.5-7.1,8.4,0,.3-.2.6-.2.9v5.1c0,.8.5,1.5,1.2,1.8v1.1c0,2.6,1,5,2.9,6.8-1.3.2-2.4.8-3.4,1.6-1.5,1.1-2.4,2.8-2.4,4.7v4.7c0,1.1.9,2,2,2h21.3c1.1,0,2-.9,2-2v-4.7c0-1.9-.9-3.6-2.4-4.7-1-.8-2.1-1.3-3.3-1.6,1.8-1.7,2.8-4,2.8-6.5v-1.5c.7-.3,1.1-1,1.1-1.8v-5.2c0-.3-.1-.6-.2-.9-.4-2.2-1.4-4.3-3-5.9-1.1-1.2-2.5-2-4-2.6-1.3,0-2.5-.3-3.7-.3h0Z"/>
  <path class="cls-4" d="M112.2,325.2c0,1.7,0,2.5,0,4.3,0,4.2,3.5,7.6,7.7,7.6,4.1.1,7.6-3.1,7.8-7.2h0v-4.9"/>
  <path class="cls-4" d="M111.1,322.3c0-3.8,2.3-7.1,5.9-8.3,1.9-.7,4-.7,5.9,0,1.2.4,2.4,1.2,3.3,2.1,1.7,1.6,2.6,3.9,2.6,6.2"/>
  <rect class="cls-7" x="111.1" y="321.9" width="17.7" height="3.3"/>
  <line class="cls-7" x1="118.9" y1="332.5" x2="122.1" y2="332.5"/>
  <path class="cls-18" d="M110.9,325.2v4h18v-4h-18ZM118.2,327.9c0,.1-.1.1-.1.1-.5.4-1.2.3-1.6-.2s-.4-1.3,0-1.8l2,1.1c0,.3,0,.6-.4.8ZM125.1,327.8c-.5.5-1.2.5-1.7,0l-.3-.6,2-1.2h0c.5.6.5,1.3,0,1.8Z"/>
  <path class="cls-18" d="M54.5,78c1,0,2,.2,2.9.5,1.3.4,2.4,1.1,3.3,2.1,1.4,1.4,2.3,3.3,2.6,5.3h0v5.2h-1.1v3.3c0,2.5-1.3,4.7-3.4,6v2.3h.9c.3,0,.6,0,.9,0,1.1,0,2.1.6,2.9,1.3,1,.7,1.6,1.9,1.6,3.1v4.7h-21.3v-4.7c0-1.2.6-2.4,1.6-3.1.8-.7,1.8-1.1,2.9-1.3.3,0,.6,0,.9,0h.9v-2.3h0c-2.2-1.4-3.5-3.7-3.5-6.3s0-1.4,0-2.9h-1.1v-5.1h0c.3-3.4,2.6-6.2,5.8-7.3.9-.5,2-.8,3-.8M54.5,76c-5.3,0-9.8,3.8-10.7,9,0,.3-.2.5-.2.8v5.2c0,.8.5,1.5,1.2,1.8v1.1c0,2.6,1,5,2.9,6.8-1.3.2-2.4.8-3.4,1.6-1.5,1.1-2.4,2.8-2.4,4.7v4.7c0,1.1.9,2,2,2h21.3c1.1,0,2-.9,2-2v-4.7c0-1.9-.9-3.6-2.4-4.7-1-.8-2.1-1.3-3.3-1.6,1.8-1.7,2.8-4,2.8-6.5v-1.5c.7-.3,1.1-1,1.1-1.8v-5.2c0-.3,0-.6-.2-.8-.4-2.2-1.4-4.3-3-5.9-1.1-1.2-2.5-2-4-2.6-1.2-.2-2.4-.4-3.7-.4Z"/>
  <path class="cls-4" d="M46.8,89.7c0,1.7,0,2.5,0,4.3,0,4.2,3.5,7.6,7.7,7.6,4.1,0,7.6-3.1,7.8-7.2h0v-4.9"/>
  <path class="cls-4" d="M45.7,86.7c0-3.7,2.4-7,5.9-8.3,1.9-.7,4-.7,5.9,0,1.3.4,2.4,1.1,3.3,2.1,1.7,1.6,2.6,3.9,2.6,6.2"/>
  <rect class="cls-7" x="45.7" y="86.4" width="17.7" height="3.3"/>
  <line class="cls-7" x1="53.5" y1="97" x2="56.7" y2="97"/>
  <path class="cls-18" d="M45.5,89.7v4h18v-4h-18ZM52.9,92.5c-.5.4-1.3.3-1.7-.2-.4-.5-.4-1.3,0-1.8l2,1.1c0,.3,0,.7-.4.9ZM59.8,92.3c-.5.5-1.3.5-1.8,0l-.3-.6,2-1.2c.3.3.4.6.5.9,0,.3-.2.7-.4.9Z"/>
  <path class="cls-18" d="M515.5,156.2c1,0,2,.2,2.9.5,3.2,1.1,5.5,4,5.8,7.4h0v5.2h-1.1c0,1.5,0,1.3,0,2.9,0,2.6-1.3,5-3.5,6.3h0v2.3h.9c.3,0,.6,0,.9.1,1.1.1,2.1.6,2.9,1.3,1,.7,1.6,1.9,1.6,3.1v4.7h-21.3v-4.7c0-1.2.6-2.4,1.6-3.1.8-.7,1.8-1.1,2.9-1.3.3-.1.6-.1.9-.1h.9v-2.3c-2.1-1.3-3.4-3.5-3.4-6v-3.3h-1.1v-5.2h.1c.2-2,1.1-3.9,2.6-5.3.9-1,2-1.7,3.3-2.1,1-.3,2-.4,3-.4M515.6,154.2c-1.2,0-2.4.2-3.6.6-1.5.5-2.9,1.4-4,2.6-1.6,1.6-2.7,3.7-3,5.9-.1.3-.2.6-.2.9v5.2c0,.8.4,1.5,1.1,1.8v1.5c0,2.5,1,4.8,2.8,6.5-1.2.2-2.3.7-3.3,1.5-1.5,1.1-2.4,2.8-2.4,4.7v4.7c0,1.1.9,2,2,2h21.3c1.1,0,2-.9,2-2v-4.7c0-1.9-.9-3.6-2.4-4.7-1-.8-2.2-1.4-3.4-1.6,1.8-1.8,2.9-4.2,2.9-6.8v-1.1c.7-.3,1.2-1,1.2-1.8v-5.2c0-.3,0-.6-.2-.9-1-5.2-5.5-9-10.8-9.1h0Z"/>
  <path class="cls-4" d="M523.3,167.9c0,1.7,0,2.5,0,4.3,0,4.2-3.5,7.6-7.7,7.6-4.1.1-7.6-3.1-7.8-7.2h0v-4.9"/>
  <path class="cls-4" d="M524.4,164.9c0-3.7-2.4-7.1-5.9-8.3-1.9-.7-4-.7-5.9,0-1.3.4-2.4,1.1-3.3,2.1-1.7,1.6-2.6,3.9-2.6,6.2"/>
  <rect class="cls-7" x="506.7" y="164.6" width="17.7" height="3.3"/>
  <line class="cls-7" x1="516.5" y1="175.2" x2="513.3" y2="175.2"/>
  <path class="cls-18" d="M506.5,167.9v4h18.1v-4h-18.1ZM512.1,170.5c-.4.5-1.2.5-1.7,0-.5-.4-.5-1.2,0-1.7-.1-.1,0-.1,0-.2l2,1.2-.3.6ZM518.9,170.5c-.4.5-1.2.6-1.7.2-.3-.2-.4-.6-.4-.9l2-1.1c.5.5.5,1.3,0,1.8Z"/>
  <g class="cls-21">
    <path class="cls-18" d="M484.2,100.2h.6c0,0,2.6-7.7,2.6-7.7h1.8l2.6,7.6h.6v1.1h-3v-1h.6c0,0-.4-1.3-.4-1.3h-2.8l-.4,1.2h.6v1.1h-3v-1h.2ZM487.3,97.6h2l-1-3.1h0l-1,3.1Z"/>
  </g>
  <g class="cls-21">
    <path class="cls-18" d="M493,95.8v-1.1h2.5v.8c.3-.3.5-.5.8-.6.3-.2.6-.2.9-.2.8,0,1.4.3,1.9.9.4.6.7,1.4.7,2.5h0c0,1.1-.2,1.8-.7,2.4s-1.1.9-1.9.9-.6,0-.9-.2-.5-.3-.7-.6v1.9l.8.2v1.1h-3.4v-1.1l.8-.2v-6.5l-.8-.2ZM498,98c0-.6-.1-1.1-.3-1.5-.2-.4-.5-.6-.9-.6s-.5,0-.7.2-.3.3-.4.5v2.8c.1.2.3.3.4.4.2,0,.4,0,.7,0s.7-.2.9-.5c.2-.3.3-.8.3-1.3h0Z"/>
  </g>
  <g class="cls-21">
    <path class="cls-18" d="M500.2,92.9v-1.1h2.7v8.1l.8.2v1h-3.4v-1l.8-.2v-6.9h-.9Z"/>
    <path class="cls-18" d="M504.2,100.2l.8-.2v-4l-.9-.2v-1.1h2.7v5.2l.8.2v1h-3.4v-.9ZM506.8,93.2h-1.7v-1.3h1.7v1.3Z"/>
    <path class="cls-18" d="M511.3,100c.3,0,.6,0,.7-.3.2-.2.3-.4.3-.7h1.6c0,.7-.2,1.2-.7,1.6s-1.1.7-1.9.7-1.7-.3-2.2-.9-.8-1.4-.8-2.3v-.2c0-1,.3-1.7.8-2.3.5-.6,1.3-.9,2.3-.9s1,0,1.4.2c.4.2.8.4,1,.7v1.7h-1.4l-.3-1c-.1,0-.2,0-.3-.2-.1,0-.3,0-.4,0-.5,0-.8.2-1,.5-.2.4-.3.8-.3,1.4v.2c0,.6.1,1,.3,1.4.1.3.4.5.9.5Z"/>
    <path class="cls-18" d="M518.8,101.2c0,0,0-.2,0-.3s0-.2,0-.3c-.2.2-.5.4-.8.6s-.6.2-1,.2c-.6,0-1.1-.2-1.5-.5s-.6-.8-.6-1.4.2-1.1.7-1.4,1.2-.5,2.1-.5h.9v-.6c0-.3,0-.6-.3-.7-.2-.2-.4-.3-.8-.3s-.4,0-.5,0c-.2,0-.3,0-.4.2v.7h-1.4v-1.4c.3-.2.7-.4,1.1-.5.4,0,.9-.2,1.3-.2.8,0,1.5.2,2,.6s.8,1,.8,1.7v3.3h.5v1.1h-1.9v-.4ZM517.3,100c.3,0,.5,0,.7-.2s.4-.3.5-.4v-1h-.9c-.4,0-.7,0-.8.3s-.3.4-.3.6,0,.4.2.5c.2.2.3.2.6.2Z"/>
    <path class="cls-18" d="M524.5,100c.3,0,.6,0,.7-.3.2-.2.3-.4.3-.7h1.6c0,.7-.2,1.2-.7,1.6s-1.1.7-1.9.7-1.7-.3-2.2-.9-.8-1.4-.8-2.3v-.2c0-1,.3-1.7.8-2.3.5-.6,1.3-.9,2.3-.9s1,0,1.4.2c.4.2.8.4,1,.7v1.7h-1.4l-.3-1c0,0-.2,0-.3-.2s-.3,0-.4,0c-.5,0-.8.2-1,.5-.2.4-.3.8-.3,1.4v.2c0,.6,0,1,.3,1.4s.4.5.9.5ZM525,101.2v.3c.2,0,.4,0,.5.3.2.2.3.4.3.7s-.2.8-.5,1c-.4.3-.9.4-1.5.4v-1c.2,0,.4,0,.5,0s.2-.2.2-.4,0-.3-.2-.3c0,0-.3,0-.7,0l.2-.8h1.2Z"/>
    <path class="cls-18" d="M532,101.2c0,0,0-.2,0-.3s0-.2,0-.3c-.2.2-.5.4-.8.6s-.6.2-1,.2c-.6,0-1.1-.2-1.5-.5s-.6-.8-.6-1.4.2-1.1.7-1.4,1.2-.5,2.1-.5h.9v-.6c0-.3,0-.6-.3-.7-.2-.2-.4-.3-.8-.3s-.4,0-.5,0-.3,0-.4.2v.7h-1.4v-1.4c.3-.2.7-.4,1.1-.5.4,0,.9-.2,1.3-.2.8,0,1.5.2,2,.6s.8,1,.8,1.7v3.3h.5v1.1h-1.9v-.4ZM533.1,92.2c0,.4,0,.7-.4,1-.2.3-.5.4-.9.4s-.6,0-.9-.3c-.4-.2-.6-.3-.8-.3s-.3,0-.4.2c0,0,0,.3,0,.5l-.9-.3c0-.4,0-.7.4-1,.2-.3.5-.4.9-.4s.5,0,.9.3c.4.2.7.3.9.3s.3,0,.4-.2c0,0,.2-.3.2-.5l.7.3ZM530.5,100c.3,0,.5,0,.7-.2s.4-.3.5-.4v-1h-.9c-.4,0-.7,0-.8.3-.2.2-.3.4-.3.6s0,.4.2.5c0,.2.3.2.6.2Z"/>
    <path class="cls-18" d="M534.6,97.9c0-1,.3-1.8.8-2.4s1.3-.9,2.2-.9,1.7.3,2.2.9.8,1.4.8,2.4h0c0,1.1-.3,1.9-.8,2.5s-1.3.9-2.2.9-1.7-.3-2.3-.9-.8-1.4-.8-2.4h0c0,0,0,0,0,0ZM536.3,98c0,.6,0,1.1.3,1.4s.5.5,1,.5.8-.2,1-.5.3-.8.3-1.4h0c0-.7,0-1.1-.3-1.5s-.5-.5-1-.5-.8.2-1,.5c-.2.4-.3.8-.3,1.4h0Z"/>
  </g>
  <g class="cls-21">
    <path class="cls-16" d="M226.6,98.4h.6c0,0,2.6-7.7,2.6-7.7h1.8l2.6,7.6h.6v1.1h-3v-1h.6c0,0-.4-1.3-.4-1.3h-2.8l-.4,1.2h.6v1.1h-3v-1h.2ZM229.7,95.8h2l-1-3.1h0l-1,3.1Z"/>
  </g>
  <g class="cls-21">
    <path class="cls-16" d="M235.4,94.1v-1.1h2.5v.8c.3-.3.5-.5.8-.6.3-.2.6-.2.9-.2.8,0,1.4.3,1.9.9.4.6.7,1.4.7,2.5h0c0,1.1-.2,1.8-.7,2.4s-1.1.9-1.9.9-.6,0-.9-.2c-.3,0-.5-.3-.7-.6v1.9l.8.2v1.1h-3.4v-1.1l.8-.2v-6.5l-.8-.2ZM240.4,96.3c0-.6-.1-1.1-.3-1.5s-.5-.6-.9-.6-.5,0-.7.2-.3.3-.4.5v2.8c.1.2.3.3.4.4.2,0,.4,0,.7,0s.7-.2.9-.5.3-.8.3-1.3h0Z"/>
  </g>
  <g class="cls-21">
    <path class="cls-16" d="M242.6,91.2v-1.1h2.7v8.1l.8.2v1h-3.4v-1l.8-.2v-6.9h-.9Z"/>
    <path class="cls-16" d="M246.6,98.4l.8-.2v-4l-.9-.2v-1h2.7v5.2l.8.2v1h-3.4v-1h0ZM249.2,91.5h-1.7v-1.3h1.7v1.3Z"/>
    <path class="cls-16" d="M253.7,98.3c.3,0,.6,0,.7-.3.2-.2.3-.4.3-.7h1.6c0,.7-.2,1.2-.7,1.6-.5.4-1.1.7-1.9.7s-1.7-.3-2.2-.9-.8-1.4-.8-2.3v-.2c0-1,.3-1.7.8-2.3.5-.6,1.3-.9,2.3-.9s1,0,1.4.2c.4.2.8.4,1,.7v1.7h-1.4l-.3-1c-.1,0-.2,0-.3-.2s-.3,0-.4,0c-.5,0-.8.2-1,.5-.2.4-.3.8-.3,1.4v.2c0,.6.1,1,.3,1.4,0,.3.4.5.9.5Z"/>
    <path class="cls-16" d="M261.2,99.5c0,0-.1-.2-.1-.3s-.1-.2-.1-.3c-.2.2-.5.4-.8.6s-.6.2-1,.2c-.6,0-1.1-.2-1.5-.5s-.6-.8-.6-1.4.2-1.1.7-1.4,1.2-.5,2.1-.5h.9v-.6c0-.3-.1-.6-.3-.7-.2-.2-.4-.3-.8-.3s-.4,0-.5,0c-.2,0-.3,0-.4.2v.7h-1.4v-1.4c.3-.2.7-.4,1.1-.5s.9-.2,1.3-.2c.8,0,1.5.2,2,.6s.8,1,.8,1.7v3.3h.5v1.1h-1.9v-.4ZM259.7,98.3c.3,0,.5,0,.7-.2s.4-.3.5-.4v-1h-.9c-.4,0-.7,0-.8.3s-.3.4-.3.6.1.4.2.5c.2.2.3.2.6.2Z"/>
    <path class="cls-16" d="M266.9,98.3c.3,0,.6,0,.7-.3.2-.2.3-.4.3-.7h1.6c0,.7-.2,1.2-.7,1.6s-1.1.7-1.9.7-1.7-.3-2.2-.9-.8-1.4-.8-2.3v-.2c0-1,.3-1.7.8-2.3.5-.6,1.3-.9,2.3-.9s1,0,1.4.2c.4.2.8.4,1,.7v1.7h-1.4l-.3-1c-.1,0-.2,0-.3-.2-.1,0-.3,0-.4,0-.5,0-.8.2-1,.5-.2.4-.3.8-.3,1.4v.2c0,.6.1,1,.3,1.4,0,.3.4.5.9.5ZM267.4,99.5v.3c.2,0,.4,0,.5.3.2.2.3.4.3.7s-.2.8-.5,1c-.4.3-.9.4-1.6.4v-1c.2,0,.4,0,.5,0s.2-.2.2-.4-.1-.3-.2-.3-.3,0-.7,0l.2-.8h1.3Z"/>
    <path class="cls-16" d="M274.4,99.5c0,0-.1-.2-.1-.3s-.1-.2-.1-.3c-.2.2-.5.4-.8.6s-.6.2-1,.2c-.6,0-1.1-.2-1.5-.5s-.6-.8-.6-1.4.2-1.1.7-1.4,1.2-.5,2.1-.5h.9v-.6c0-.3-.1-.6-.3-.7-.2-.2-.4-.3-.8-.3s-.4,0-.5,0-.3,0-.4.2v.7h-1.4v-1.4c.3-.2.7-.4,1.1-.5s.9-.2,1.3-.2c.8,0,1.5.2,2,.6s.8,1,.8,1.7v3.3h.5v1.1h-1.9v-.4ZM275.5,90.4c0,.4-.1.7-.4,1-.2.3-.5.4-.9.4s-.6,0-.9-.3c-.4-.2-.6-.3-.8-.3s-.3,0-.4.2-.1.3-.1.5l-.9-.3c0-.4.1-.7.4-1,.2-.3.5-.4.9-.4s.5,0,.9.3c.4.2.7.3.9.3s.3,0,.4-.2.2-.3.2-.5l.7.3ZM272.9,98.3c.3,0,.5,0,.7-.2s.4-.3.5-.4v-1h-.9c-.4,0-.7,0-.8.3-.2.2-.3.4-.3.6s.1.4.2.5c0,.2.3.2.6.2Z"/>
    <path class="cls-16" d="M277,96.2c0-1,.3-1.8.8-2.4s1.3-.9,2.2-.9,1.7.3,2.2.9.8,1.4.8,2.4h0c0,1.1-.3,1.9-.8,2.5s-1.3.9-2.2.9-1.7-.3-2.3-.9-.8-1.4-.8-2.4h0c0,0,0,0,0,0ZM278.7,96.3c0,.6.1,1.1.3,1.4s.5.5,1,.5.8-.2,1-.5.3-.8.3-1.4h0c0-.7-.1-1.1-.3-1.5-.2-.4-.5-.5-1-.5s-.8.2-1,.5c-.2.4-.3.8-.3,1.4h0Z"/>
  </g>
  <g class="cls-21">
    <path class="cls-16" d="M187.2,136.1c1,0,1.8.2,2.4.6s.9,1,.9,1.8-.1.8-.3,1.1-.5.6-.9.7c.5.1.9.4,1.2.7.3.4.4.8.4,1.3,0,.8-.3,1.5-.8,1.9s-1.3.6-2.3.6h-4.3v-1l.9-.2v-6.2l-.9-.2v-1.1h3.7ZM186,139.8h1.3c.5,0,.8-.1,1.1-.3s.4-.5.4-.8-.1-.7-.4-.9-.6-.3-1.1-.3h-1.3v2.3ZM186,141v2.5h1.6c.5,0,.8-.1,1.1-.3.2-.2.4-.5.4-.9s-.1-.8-.3-1-.5-.3-1-.3h-1.8Z"/>
    <path class="cls-16" d="M191.4,143.8l.8-.2v-4l-.9-.2v-1.1h2.7v5.2l.8.2v1h-3.4v-.9h0ZM194,136.8h-1.7v-1.3h1.7v1.3Z"/>
  </g>
  <g class="cls-21">
    <path class="cls-16" d="M201.7,141.8c0,1-.2,1.7-.6,2.3-.4.6-1.1.9-1.9.9s-.7-.1-1-.2c-.3-.2-.5-.4-.7-.7v.8h-1.6v-8.1l-.9-.2v-1.1h2.7v3.5c.2-.3.4-.5.7-.6s.6-.2.9-.2c.8,0,1.4.3,1.9.9.4.6.6,1.4.6,2.5v.2h0ZM199.9,141.6c0-.6-.1-1.1-.3-1.5s-.5-.6-.9-.6-.5.1-.7.2c-.2.1-.3.3-.4.5v2.7c.1.2.3.4.4.5.2.1.4.2.7.2.5,0,.8-.2.9-.5.2-.3.3-.8.3-1.3v-.2Z"/>
  </g>
  <g class="cls-21">
    <path class="cls-16" d="M202.2,136.5v-1.1h2.7v8.1l.8.2v1h-3.4v-1l.8-.2v-6.9h-.9Z"/>
    <path class="cls-16" d="M206.2,143.8l.8-.2v-4l-.9-.2v-1.1h2.7v5.2l.8.2v1h-3.4v-.9h0ZM208.8,136.8h-1.7v-1.3h1.7v1.3Z"/>
    <path class="cls-16" d="M210.2,141.5c0-1,.3-1.8.8-2.4.5-.6,1.3-.9,2.2-.9s1.7.3,2.2.9c.5.6.8,1.4.8,2.4h0c0,1.1-.3,1.9-.8,2.5s-1.3.9-2.2.9-1.7-.3-2.3-.9-.8-1.4-.8-2.4h0c0-.1.1-.1.1-.1ZM212,141.6c0,.6.1,1.1.3,1.4s.5.5,1,.5.8-.2,1-.5.3-.8.3-1.4h0c0-.7-.1-1.1-.3-1.5s-.5-.5-1-.5-.8.2-1,.5c-.2.4-.3.8-.3,1.4h0Z"/>
    <path class="cls-16" d="M219.7,136.8v1.6h1.1v1.2h-1.1v3.3c0,.3.1.4.2.5s.2.2.4.2h.3c.1,0,.2,0,.3-.1v1.3c0,.1-.3.1-.5.1h-.6c-.6,0-1.1-.2-1.4-.5-.3-.3-.5-.9-.5-1.6v-3.3h-1v-1.2h1v-1.6h1.8Z"/>
    <path class="cls-16" d="M224.7,144.9c-.9,0-1.7-.3-2.2-.9-.6-.6-.8-1.4-.8-2.3v-.2c0-1,.3-1.8.8-2.4.5-.6,1.2-.9,2.1-.9s1.5.3,2,.8.7,1.2.7,2.1v1h-3.9c0,.4.2.8.4,1.1.3.3.6.4,1,.4s.7,0,1-.1.5-.2.8-.4l.5,1.1c-.3.2-.6.4-1,.5-.4.2-.8.2-1.4.2ZM224.6,139.6c-.3,0-.6.1-.8.4s-.3.6-.3,1h2.1v-.2c0-.4-.1-.7-.3-.9-.1-.2-.4-.3-.7-.3Z"/>
    <path class="cls-16" d="M231.2,143.6c.3,0,.6-.1.7-.3.2-.2.3-.4.3-.7h1.6c0,.7-.2,1.2-.7,1.6-.5.4-1.1.7-1.9.7s-1.7-.3-2.2-.9c-.5-.6-.8-1.4-.8-2.3v-.2c0-1,.3-1.7.8-2.3s1.3-.9,2.3-.9,1,.1,1.4.2c.4.2.8.4,1,.7v1.7h-1.4l-.3-1c-.1-.1-.2-.1-.3-.2-.1,0-.3-.1-.4-.1-.5,0-.8.2-1,.5-.2.4-.3.8-.3,1.4v.2c0,.6.1,1,.3,1.4,0,.3.4.5.9.5Z"/>
    <path class="cls-16" d="M238.7,144.8c0-.1-.1-.2-.1-.3s-.1-.2-.1-.3c-.2.2-.5.4-.8.6s-.6.2-1,.2c-.6,0-1.1-.2-1.5-.5s-.6-.8-.6-1.4.2-1.1.7-1.4c.5-.3,1.2-.5,2.1-.5h.9v-.6c0-.3-.1-.6-.3-.7-.2-.2-.4-.3-.8-.3s-.4,0-.5.1-.3.1-.4.2v.7h-1.3v-1.4c.3-.2.7-.4,1.1-.5.4-.1.9-.2,1.3-.2.8,0,1.5.2,2,.6.5.4.8,1,.8,1.7v3.3h.5v1.1h-2v-.4ZM237.2,143.6c.3,0,.5-.1.7-.2.2-.1.4-.3.5-.4v-1h-.9c-.4,0-.7.1-.8.3-.2.2-.3.4-.3.6s.1.4.2.5c.2.2.4.2.6.2Z"/>
    <path class="cls-16" d="M246.6,140.6h-1.2l-.2-.8c-.1-.1-.3-.2-.5-.2-.2-.1-.4-.1-.6-.1-.3,0-.5.1-.7.2-.2.1-.3.3-.3.5s.1.4.3.5.5.2,1,.3c.8.2,1.4.4,1.8.7.4.3.6.7.6,1.3s-.3,1.1-.8,1.4c-.5.4-1.2.6-2,.6s-1-.1-1.4-.2-.8-.4-1.1-.6v-1.5h1.2l.2.8c.1.1.2.2.4.2s.4.1.6.1c.4,0,.6-.1.8-.2.2-.1.3-.3.3-.5s-.1-.4-.3-.5-.5-.3-1-.4c-.8-.2-1.3-.4-1.7-.7s-.6-.7-.6-1.2.2-1,.7-1.4,1.1-.6,1.9-.6,1,.1,1.4.2.8.3,1.1.5v1.6Z"/>
    <path class="cls-16" d="M254.8,144c-.2.3-.4.5-.7.7s-.6.2-.9.2c-.8,0-1.4-.3-1.9-.9s-.7-1.4-.7-2.3h0c0-1.1.2-1.9.7-2.6.4-.6,1.1-.9,1.9-.9s.6.1.9.2.5.3.7.6v-2.3l-.9-.2v-1.1h2.6v8.1l.8.2v1h-2.3l-.2-.7ZM252.4,141.8c0,.6.1,1,.3,1.3s.5.5.9.5.5-.1.7-.2c.2-.1.3-.3.5-.4v-2.7c-.1-.2-.3-.4-.5-.5s-.4-.2-.7-.2-.7.2-.9.6c-.2.4-.3.9-.3,1.5h0Z"/>
    <path class="cls-16" d="M261,144.9c-.9,0-1.7-.3-2.2-.9s-.8-1.4-.8-2.3v-.2c0-1,.3-1.8.8-2.4.5-.6,1.2-.9,2.1-.9s1.5.3,2,.8.7,1.2.7,2.1v1h-3.9c0,.4.2.8.4,1.1.3.3.6.4,1,.4s.7,0,1-.1.5-.2.8-.4l.5,1.1c-.3.2-.6.4-1,.5-.4.2-.9.2-1.4.2ZM260.8,139.6c-.3,0-.6.1-.8.4s-.3.6-.3,1h2.1v-.2c0-.4-.1-.7-.3-.9-.1-.2-.3-.3-.7-.3Z"/>
    <path class="cls-16" d="M271.5,144.8c0-.1-.1-.2-.1-.3s-.1-.2-.1-.3c-.2.2-.5.4-.8.6s-.6.2-1,.2c-.6,0-1.1-.2-1.5-.5s-.6-.8-.6-1.4.2-1.1.7-1.4c.5-.3,1.2-.5,2.1-.5h.9v-.6c0-.3-.1-.6-.3-.7-.2-.2-.4-.3-.8-.3s-.4,0-.5.1-.3.1-.4.2v.7h-1.4v-1.4c.3-.2.7-.4,1.1-.5s.9-.2,1.3-.2c.8,0,1.5.2,2,.6.5.4.8,1,.8,1.7v3.3h.5v1.1h-1.9v-.4ZM270,143.6c.3,0,.5-.1.7-.2.2-.1.4-.3.5-.4v-1h-.9c-.4,0-.7.1-.8.3-.2.2-.3.4-.3.6s.1.4.2.5c.2.2.4.2.6.2Z"/>
  </g>
  <g class="cls-21">
    <path class="cls-16" d="M274,139.4v-1.1h2.5v.8c.3-.3.5-.5.8-.6.3-.2.6-.2.9-.2.8,0,1.4.3,1.9.9.4.6.7,1.4.7,2.5h0c0,1.1-.2,1.8-.7,2.4s-1.1.9-1.9.9-.6-.1-.9-.2c-.3-.1-.5-.3-.7-.6v1.9l.8.2v1.1h-3.4v-1.1l.8-.2v-6.5l-.8-.2ZM279,141.6c0-.6-.1-1.1-.3-1.5-.2-.4-.5-.6-.9-.6s-.5.1-.7.2c-.2.1-.3.3-.4.5v2.8c.1.2.3.3.4.4.2.1.4.1.7.1s.7-.2.9-.5c.2-.3.3-.8.3-1.3h0Z"/>
  </g>
  <g class="cls-21">
    <path class="cls-16" d="M281.2,136.5v-1.1h2.7v8.1l.8.2v1h-3.4v-1l.8-.2v-6.9h-.9Z"/>
    <path class="cls-16" d="M285.3,143.8l.8-.2v-4l-.9-.2v-1.1h2.7v5.2l.8.2v1h-3.4v-.9ZM287.9,136.8h-1.7v-1.3h1.7v1.3Z"/>
    <path class="cls-16" d="M292.3,143.6c.3,0,.6-.1.7-.3.2-.2.3-.4.3-.7h1.6c0,.7-.2,1.2-.7,1.6-.5.4-1.1.7-1.9.7s-1.7-.3-2.2-.9c-.5-.6-.8-1.4-.8-2.3v-.2c0-1,.3-1.7.8-2.3s1.3-.9,2.3-.9,1,.1,1.4.2c.4.2.8.4,1,.7v1.7h-1.4l-.3-1c-.1-.1-.2-.1-.3-.2s-.3-.1-.4-.1c-.5,0-.8.2-1,.5-.2.4-.3.8-.3,1.4v.2c0,.6.1,1,.3,1.4.1.3.4.5.9.5Z"/>
    <path class="cls-16" d="M299.8,144.8c0-.1-.1-.2-.1-.3s-.1-.2-.1-.3c-.2.2-.5.4-.8.6s-.6.2-1,.2c-.6,0-1.1-.2-1.5-.5s-.6-.8-.6-1.4.2-1.1.7-1.4c.5-.3,1.2-.5,2.1-.5h.9v-.6c0-.3-.1-.6-.3-.7-.2-.2-.4-.3-.8-.3s-.4,0-.5.1c-.2,0-.3.1-.4.2v.7h-1.4v-1.4c.3-.2.7-.4,1.1-.5s.9-.2,1.3-.2c.8,0,1.5.2,2,.6.5.4.8,1,.8,1.7v3.3h.5v1.1h-1.9v-.4ZM298.3,143.6c.3,0,.5-.1.7-.2.2-.1.4-.3.5-.4v-1h-.9c-.4,0-.7.1-.8.3s-.3.4-.3.6.1.4.2.5c.2.2.4.2.6.2Z"/>
    <path class="cls-16" d="M305.5,143.6c.3,0,.6-.1.7-.3.2-.2.3-.4.3-.7h1.6c0,.7-.2,1.2-.7,1.6-.5.4-1.1.7-1.9.7s-1.7-.3-2.2-.9c-.5-.6-.8-1.4-.8-2.3v-.2c0-1,.3-1.7.8-2.3s1.3-.9,2.3-.9,1,.1,1.4.2c.4.2.8.4,1,.7v1.7h-1.4l-.3-1c-.1-.1-.2-.1-.3-.2s-.3-.1-.4-.1c-.5,0-.8.2-1,.5-.2.4-.3.8-.3,1.4v.2c0,.6.1,1,.3,1.4s.4.5.9.5ZM306,144.8v.3c.2,0,.4.1.5.3.2.2.3.4.3.7s-.2.8-.5,1c-.4.3-.9.4-1.5.4v-1c.2,0,.4,0,.5-.1s.2-.2.2-.4-.1-.3-.2-.3c-.1-.1-.3-.1-.7-.1l.2-.8h1.2Z"/>
    <path class="cls-16" d="M308.9,141.5c0-1,.3-1.8.8-2.4.5-.6,1.3-.9,2.2-.9s1.7.3,2.2.9c.5.6.8,1.4.8,2.4h0c0,1.1-.3,1.9-.8,2.5s-1.3.9-2.2.9-1.7-.3-2.3-.9-.8-1.4-.8-2.4h0c0-.1,0-.1,0-.1ZM314.1,135.8c0,.4-.1.7-.4,1-.2.3-.5.4-.9.4s-.6-.1-.9-.3c-.4-.2-.6-.3-.8-.3s-.3.1-.4.2c-.1.1-.1.3-.1.5l-.9-.3c0-.4.1-.7.4-1,.2-.3.5-.4.9-.4s.5.1.9.3.7.3.9.3.3-.1.4-.2c.1-.1.2-.3.2-.5l.7.3ZM310.6,141.6c0,.6.1,1.1.3,1.4s.5.5,1,.5.8-.2,1-.5.3-.8.3-1.4h0c0-.7-.1-1.1-.3-1.5-.2-.4-.5-.5-1-.5s-.8.2-1,.5c-.2.4-.3.8-.3,1.4h0Z"/>
    <path class="cls-16" d="M318.9,144.9c-.9,0-1.7-.3-2.2-.9s-.8-1.4-.8-2.3v-.2c0-1,.3-1.8.8-2.4.5-.6,1.2-.9,2.1-.9s1.5.3,2,.8.7,1.2.7,2.1v1h-3.9c0,.4.2.8.4,1.1.3.3.6.4,1,.4s.7,0,1-.1.5-.2.8-.4l.5,1.1c-.3.2-.6.4-1,.5-.5.2-.9.2-1.4.2ZM318.7,139.6c-.3,0-.6.1-.8.4s-.3.6-.3,1h2.1v-.2c0-.4-.1-.7-.3-.9-.1-.2-.4-.3-.7-.3Z"/>
    <path class="cls-16" d="M327.6,140.6h-1.2l-.2-.8c-.1-.1-.3-.2-.5-.2-.2-.1-.4-.1-.6-.1-.3,0-.5.1-.7.2-.2.1-.3.3-.3.5s.1.4.3.5c.2.1.5.2,1,.3.8.2,1.4.4,1.8.7s.6.7.6,1.3-.3,1.1-.8,1.4c-.5.4-1.2.6-2,.6s-1-.1-1.4-.2-.8-.4-1.1-.6v-1.5h1.2l.2.8c.1.1.2.2.4.2s.4.1.6.1c.4,0,.6-.1.8-.2s.3-.3.3-.5-.1-.4-.3-.5c-.2-.1-.5-.3-1-.4-.8-.2-1.3-.4-1.7-.7-.4-.3-.6-.7-.6-1.2s.2-1,.7-1.4,1.1-.6,1.9-.6,1,.1,1.4.2.8.3,1.1.5v1.6Z"/>
  </g>
  <line class="cls-13" x1="305.3" y1="245.2" x2="305.3" y2="272.9"/>
  <polygon class="cls-16" points="297.2 251.9 298.6 253.2 305.3 246 312.1 253.2 313.5 251.9 305.3 243.1 297.2 251.9"/>
  <line class="cls-13" x1="272" y1="245.2" x2="272" y2="272.4"/>
  <polygon class="cls-16" points="263.8 251.9 265.3 253.2 272 246 278.7 253.2 280.2 251.9 272 243.1 263.8 251.9"/>
  <line class="cls-13" x1="238.6" y1="245.2" x2="238.6" y2="272.9"/>
  <polygon class="cls-16" points="230.4 251.9 231.9 253.2 238.6 246 245.3 253.2 246.8 251.9 238.6 243.1 230.4 251.9"/>
  <line class="cls-13" x1="205.2" y1="245.2" x2="205.2" y2="272.9"/>
  <polygon class="cls-16" points="197 251.9 198.5 253.2 205.2 246 211.9 253.2 213.4 251.9 205.2 243.1 197 251.9"/>
  <line class="cls-13" x1="305.3" y1="394.8" x2="305.3" y2="408.9"/>
  <line class="cls-13" x1="305.3" y1="349.1" x2="305.3" y2="364.2"/>
  <line class="cls-13" x1="305.3" y1="303.4" x2="305.3" y2="318.5"/>
  <line class="cls-13" x1="272" y1="349.1" x2="272" y2="364.2"/>
  <line class="cls-13" x1="272" y1="303.4" x2="272" y2="318.1"/>
  <line class="cls-13" x1="238.6" y1="303.4" x2="238.6" y2="316.8"/>
  <path class="cls-18" d="M128.7,303.4c-.7,0-1.3-.6-1.3-1.3s.6-1.3,1.3-1.3,1.3.6,1.3,1.3h0c.1.7-.4,1.2-1.1,1.3h-.2Z"/>
  <path class="cls-18" d="M64.7,66c-.7,0-1.3-.6-1.3-1.3s.6-1.3,1.3-1.3,1.3.6,1.3,1.3h0c0,.7-.4,1.2-1.1,1.3h-.2Z"/>
</svg>