<?xml version="1.0" encoding="UTF-8"?>
<svg id="Ebene_1" data-name="Ebene 1" xmlns="http://www.w3.org/2000/svg" xmlns:xlink="http://www.w3.org/1999/xlink" version="1.1" viewBox="0 0 585.2 457.5">
  <defs>
    <style>
      .cls-1, .cls-2, .cls-3, .cls-4, .cls-5, .cls-6, .cls-7, .cls-8, .cls-9, .cls-10, .cls-11, .cls-12, .cls-13 {
        fill: none;
      }

      .cls-1, .cls-2, .cls-5, .cls-6, .cls-8, .cls-9, .cls-10, .cls-11, .cls-14, .cls-12, .cls-13 {
        stroke-width: 2px;
      }

      .cls-1, .cls-2, .cls-10, .cls-12, .cls-13 {
        stroke-miterlimit: 10;
      }

      .cls-1, .cls-4, .cls-5, .cls-6, .cls-7, .cls-9, .cls-11 {
        stroke: #fff;
      }

      .cls-15 {
        fill: url(#Unbenannter_Verlauf);
      }

      .cls-15, .cls-3, .cls-16, .cls-17, .cls-18, .cls-19 {
        stroke-width: 0px;
      }

      .cls-2, .cls-8, .cls-10, .cls-14, .cls-13 {
        stroke: #fc0;
      }

      .cls-20 {
        clip-path: url(#clippath);
      }

      .cls-4, .cls-5, .cls-6, .cls-7, .cls-8, .cls-9, .cls-11, .cls-14 {
        stroke-linejoin: round;
      }

      .cls-5 {
        opacity: .8;
      }

      .cls-5, .cls-6, .cls-7, .cls-8, .cls-9, .cls-11, .cls-14 {
        stroke-linecap: round;
      }

      .cls-5, .cls-6, .cls-21, .cls-11 {
        isolation: isolate;
      }

      .cls-6 {
        opacity: .6;
      }

      .cls-16 {
        fill: #fc0;
      }

      .cls-22 {
        clip-path: url(#clippath-1);
      }

      .cls-10 {
        stroke-dasharray: 0 0 2 2;
      }

      .cls-17 {
        fill: #fdfeff;
      }

      .cls-11 {
        opacity: .4;
      }

      .cls-14, .cls-18 {
        fill: #fff;
      }

      .cls-12 {
        stroke: #f63;
      }

      .cls-13 {
        stroke-dasharray: 0 0 0 0 0 0 2 2;
      }

      .cls-19 {
        fill: #ffd138;
      }
    </style>
    <linearGradient id="Unbenannter_Verlauf" data-name="Unbenannter Verlauf" x1="141.7" y1="731.4" x2="329.4" y2="731.4" gradientTransform="translate(0 -620)" gradientUnits="userSpaceOnUse">
      <stop offset="0" stop-color="#906"/>
      <stop offset=".2" stop-color="#780066"/>
      <stop offset=".4" stop-color="#5a0066"/>
      <stop offset=".6" stop-color="#406"/>
      <stop offset=".8" stop-color="#370066"/>
      <stop offset="1" stop-color="#306"/>
    </linearGradient>
    <clipPath id="clippath">
      <rect class="cls-3" x="210.2" y="174.6" width="50.7" height="9.9"/>
    </clipPath>
    <clipPath id="clippath-1">
      <rect class="cls-3" x="210.2" y="174.6" width="50.7" height="9.9"/>
    </clipPath>
  </defs>
  <path class="cls-15" d="M146.7,29.2h177.7c2.8,0,5,2.2,5,5v154.5c0,2.8-2.2,5-5,5h-177.7c-2.8,0-5-2.2-5-5V34.2c0-2.7,2.3-5,5-5Z"/>
  <path class="cls-2" d="M146.7,29.2h177.7c2.8,0,5,2.2,5,5v154.5c0,2.8-2.2,5-5,5h-177.7c-2.8,0-5-2.2-5-5V34.2c0-2.7,2.3-5,5-5Z"/>
  <path class="cls-8" d="M159.8,84.6h151.6c2.8,0,5,2.2,5,5v20.6c0,2.8-2.2,5-5,5h-151.6c-2.8,0-5-2.2-5-5v-20.6c0-2.8,2.2-5,5-5Z"/>
  <path class="cls-8" d="M159.8,129.1h151.6c2.8,0,5,2.2,5,5v20.6c0,2.8-2.2,5-5,5h-151.6c-2.8,0-5-2.2-5-5v-20.6c0-2.8,2.2-5,5-5Z"/>
  <path class="cls-1" d="M429.1,87.5h132.6c2.8,0,5,2.2,5,5v20.6c0,2.8-2.2,5-5,5h-132.6c-2.8,0-5-2.2-5-5v-20.6c0-2.7,2.2-5,5-5Z"/>
  <polyline class="cls-8" points="282 209.8 276.2 204 270.5 209.8 264.7 204 259 209.8 258.9 209.8 253.2 204 247.4 209.8 241.6 204 235.9 209.8 235.2 209.8 229.4 204 223.7 209.8 217.9 204 212.2 209.8 212.1 209.8 206.4 204 200.6 209.8 194.9 204 189.1 209.8"/>
  <polyline class="cls-8" points="125.2 146.9 130.9 141.2 125.2 135.4 130.9 129.6 125.2 123.9 125.2 123.8 130.9 118.1 125.2 112.3 130.9 106.6 125.2 100.8 125.2 100.1 130.9 94.4 125.2 88.6 130.9 82.9 125.2 77.1 125.2 77.1 130.9 71.3 125.2 65.6 130.9 59.8 125.2 54"/>
  <polyline class="cls-8" points="345.1 55 339.4 60.8 345.1 66.6 339.4 72.3 345.1 78.1 345.1 78.1 339.4 83.9 345.1 89.6 339.4 95.4 345.1 101.1 345.1 101.8 339.4 107.6 345.1 113.3 339.4 119.1 345.1 124.8 345.1 124.9 339.4 130.6 345.1 136.4 339.4 142.2 345.1 147.9"/>
  <g class="cls-21">
    <path class="cls-18" d="M380.4,286.8c0-.4-.1-.8-.4-1s-.6-.5-.9-.7-.8-.4-1.2-.6c-.4-.2-.8-.4-1.2-.7s-.7-.6-.9-.9-.4-.9-.4-1.4c0-.8.3-1.5.9-2s1.4-.7,2.4-.7,1.2,0,1.7.1.9.2,1.2.3l-.4,1.1c-.2-.1-.6-.2-1-.3-.4-.1-.9-.2-1.5-.2s-1.2.1-1.5.4-.5.6-.5,1,.1.7.4,1,.6.5.9.7.8.4,1.2.6.8.4,1.2.7.7.6.9,1c.3.4.4.8.4,1.4s-.1.9-.2,1.2c-.2.4-.4.7-.7.9-.3.3-.7.5-1.1.6s-.9.2-1.5.2-1.4-.1-1.9-.2-.9-.2-1.1-.4l.4-1.1c.2.1.6.3,1,.4s1,.2,1.5.2.6,0,.9-.1.5-.2.8-.3c.2-.1.4-.3.5-.5s.1-.4.1-.7Z"/>
    <path class="cls-18" d="M387.2,284.2h3.5v4.6c-.2.1-.4.2-.6.3-.2.1-.5.2-.7.3-.3.1-.5.1-.8.2-.3,0-.5.1-.8.1-.7,0-1.3-.1-1.8-.3-.6-.2-1-.5-1.5-1s-.7-1-1-1.7c-.2-.7-.3-1.5-.3-2.4s.1-1.8.4-2.5.6-1.3,1.1-1.7c.5-.4,1-.8,1.5-1,.6-.2,1.1-.3,1.7-.3s1.1,0,1.5.1.7.2,1,.3l-.3,1.1c-.5-.2-1.2-.4-2.1-.4s-.8.1-1.3.2c-.4.1-.8.4-1.1.7s-.6.8-.8,1.3-.3,1.2-.3,2,.1,1.4.3,1.9.4,1,.7,1.3c.3.4.7.6,1.1.8s.9.3,1.4.3,1.2-.1,1.6-.4v-2.9l-2.4-.3v-.6h0Z"/>
  </g>
  <g class="cls-21">
    <path class="cls-18" d="M395.4,284.1l-3.2-5.2h1.5l2.1,3.6.4.9.4-.9,2.3-3.6h1.4l-3.3,5.1,3.5,5.4h-1.5l-2.4-3.8-.4-.9-.4.9-2.4,3.8h-1.4l3.4-5.3Z"/>
  </g>
  <g class="cls-21">
    <path class="cls-18" d="M408.8,287.4c0-.3-.1-.5-.3-.7-.2-.2-.4-.3-.7-.4-.3-.1-.6-.2-.9-.3-.3-.1-.6-.2-.9-.4-.3-.2-.5-.4-.7-.6-.2-.3-.3-.6-.3-1,0-.7.2-1.2.6-1.6.4-.3,1-.5,1.7-.5s1,0,1.4.1.7.2,1,.3l-.3,1c-.2-.1-.5-.2-.8-.3-.3-.1-.7-.1-1-.1s-.8.1-1,.2c-.2.2-.3.4-.3.8s.1.5.3.6c.2.1.4.3.7.4.3.1.6.2.9.3.3.1.6.3.9.4.3.2.5.4.7.7.2.3.3.6.3,1.1s-.1.6-.2.9-.3.5-.5.7-.5.4-.8.5-.7.2-1.1.2c-.6,0-1.1-.1-1.5-.2s-.7-.2-1-.4l.4-1c.2.1.5.3.9.4s.7.2,1.1.2.8-.1,1.1-.3c.2-.2.3-.5.3-1Z"/>
    <path class="cls-18" d="M417,289c-.3.2-.7.4-1.1.5s-.8.2-1.3.2-1.1-.1-1.5-.3c-.4-.2-.7-.5-1-.8s-.4-.8-.6-1.2c-.1-.5-.2-1-.2-1.6,0-1.3.3-2.2.8-2.9.6-.7,1.4-1,2.4-1s.9,0,1.2.1.6.2.9.3l-.3,1c-.2-.1-.5-.2-.8-.3-.3-.1-.6-.1-.9-.1-1.4,0-2.1,1-2.1,2.9s0,.7.1,1.1c.1.3.2.6.4.9.2.3.4.5.7.6.3.2.6.2,1.1.2s.7-.1,1-.2.5-.2.7-.4l.5,1Z"/>
    <path class="cls-18" d="M423.4,289.5v-4.3c0-.4,0-.7-.1-1s-.1-.5-.2-.7-.3-.3-.5-.4-.5-.1-.8-.1c-.5,0-.9.2-1.3.5s-.6.7-.7,1.2v5h-1.2v-10.7h1.2v3.8h.1c.3-.3.6-.6.9-.7.4-.2.8-.3,1.4-.3s.8,0,1.1.1c.3.1.6.3.8.5.2.2.4.6.4,1,.1.4.1.9.1,1.5v4.5h-1.2Z"/>
    <path class="cls-18" d="M427.9,282v4.3c0,.4,0,.7.1,1s.1.5.2.7.3.3.5.4.4.1.7.1.5,0,.7-.1.4-.2.6-.4c.2-.2.3-.3.4-.5s.2-.4.3-.6v-5h1.2v6.5c0,.4.1.7.1,1h-.8l-.3-1.2h-.1c-.2.4-.5.7-.9,1s-.9.4-1.5.4-.8,0-1.1-.1c-.3-.1-.6-.3-.8-.5-.2-.2-.4-.6-.5-1s-.2-.9-.2-1.5v-4.5h1.4ZM427.5,279.7c0-.2.1-.4.2-.6.1-.1.3-.2.5-.2s.4.1.5.2.2.3.2.6-.1.4-.2.5-.3.2-.5.2-.4-.1-.5-.2c-.1-.2-.2-.3-.2-.5ZM430.4,279.7c0-.2.1-.4.2-.6.1-.1.3-.2.5-.2s.4.1.5.2.2.3.2.6-.1.4-.2.5-.3.2-.5.2-.4-.1-.5-.2c-.1-.2-.2-.3-.2-.5Z"/>
    <path class="cls-18" d="M433.9,282h1.2v-1.5l1.2-.3v1.8h2v1h-2v4.2c0,.5.1.9.2,1.1s.3.3.7.3.5,0,.7-.1.4-.1.6-.2l.3.9c-.3.1-.6.2-.9.3-.3.1-.7.1-1,.1-.6,0-1-.2-1.3-.5s-.4-.9-.4-1.7v-4.4h-1.2v-1h-.1Z"/>
    <path class="cls-18" d="M439.5,288.4l3.5-4.8.6-.6h-4.1v-1h5.3v1l-3.5,4.8-.6.6h4.1v1h-5.3v-1Z"/>
    <path class="cls-18" d="M445.7,282h1.2v-1.5l1.2-.3v1.8h2v1h-2v4.2c0,.5.1.9.2,1.1s.4.3.7.3.5,0,.7-.1.4-.1.6-.2l.3.9c-.3.1-.6.2-.9.3-.3.1-.7.1-1,.1-.6,0-1-.2-1.3-.5s-.4-.9-.4-1.7v-4.4h-1.2v-1h-.1Z"/>
    <path class="cls-18" d="M461.5,286.9v1.4c0,.4.1.8.1,1.2h-.8l-.3-1.1h-.1c-.2.4-.5.6-.9.9s-.8.3-1.3.3c-1,0-1.7-.3-2.2-.9s-.7-1.6-.7-3,.3-2.3.9-2.9c.6-.7,1.4-1,2.5-1s.7,0,.9.1c.2,0,.4.1.7.2v-3.1h1.2v7.9h0ZM458.5,288.6c.5,0,.9-.1,1.2-.4.3-.3.5-.7.6-1.2v-3.7c-.2-.1-.4-.2-.6-.3-.2-.1-.5-.1-.9-.1-.7,0-1.2.2-1.6.7s-.6,1.2-.6,2.2,0,.8.1,1.1c.1.4.2.7.3.9.2.3.3.4.6.6.3,0,.6.2.9.2Z"/>
    <path class="cls-18" d="M463.8,279.7c0-.2.1-.4.2-.6s.4-.2.6-.2.4.1.6.2c.2.2.3.4.3.6s-.1.4-.3.6c-.2.2-.4.2-.6.2s-.4-.1-.6-.2-.2-.4-.2-.6ZM464.1,282h1.2v7.5h-1.2v-7.5Z"/>
    <path class="cls-18" d="M473.3,288.9c-.3.2-.7.4-1.1.6-.5.1-.9.2-1.4.2s-1.1-.1-1.5-.3c-.4-.2-.8-.5-1-.8-.3-.3-.5-.8-.6-1.2-.1-.5-.2-1-.2-1.6,0-1.3.3-2.3.9-2.9s1.4-1,2.4-1,.7,0,1,.1.6.2.9.4c.3.2.5.5.7.9s.3.9.3,1.5,0,.7-.1,1.1h-4.8c0,.4,0,.8.1,1.2.1.3.2.6.4.9.2.2.4.4.7.5.3.1.7.2,1.1.2s.7-.1,1-.2.6-.3.8-.4l.4.8ZM470.8,282.8c-.6,0-1.1.2-1.4.5-.4.3-.6.8-.6,1.6h3.7c0-.8-.1-1.3-.4-1.6-.4-.3-.8-.5-1.3-.5Z"/>
  </g>
  <g class="cls-21">
    <path class="cls-18" d="M378.8,303.1l.3,1.8h.1l.3-1.8,2-6.2h2.2l-3.9,10.6h-1.5l-3.9-10.6h2.4l2,6.2Z"/>
  </g>
  <g class="cls-21">
    <path class="cls-18" d="M389.2,306.8c-.3.2-.7.4-1.2.6s-1.1.2-1.6.2c-1.2,0-2.1-.4-2.7-1.1s-.8-1.7-.8-2.9.3-2.3.9-3,1.5-1,2.7-1,.8,0,1.1.2c.4.1.7.3,1,.5s.5.5.7.9.3.9.3,1.5v.7c0,.2-.1.5-.1.8h-4.5c0,.6.2,1.1.5,1.4s.8.5,1.4.5.8-.1,1.1-.2c.3-.1.6-.3.7-.4l.5,1.3ZM386.4,301.3c-.5,0-.9.2-1.1.5s-.4.7-.4,1.2h2.8c0-.5,0-1-.2-1.2-.3-.3-.7-.5-1.1-.5Z"/>
  </g>
  <g class="cls-21">
    <path class="cls-18" d="M394.9,301.8c-.3-.1-.6-.2-.8-.2-.3,0-.6.1-.9.3-.2.2-.4.4-.5.7v4.8h-2v-7.4h1.5l.2,1h.1c.2-.4.4-.7.7-.9.3-.2.6-.3,1-.3s.6.1.9.2l-.2,1.8Z"/>
  </g>
  <g class="cls-21">
    <path class="cls-18" d="M395.7,300h1v-1.4l2-.6v2h1.8v1.7h-1.8v2.9c0,.5.1.9.2,1.1s.3.3.6.3.4,0,.5-.1c.1,0,.3-.1.5-.2l.3,1.5c-.3.1-.6.2-.9.3-.4.1-.7.1-1.1.1-.7,0-1.2-.2-1.5-.5-.3-.4-.5-.9-.5-1.7v-3.8h-1v-1.6h-.1Z"/>
    <path class="cls-18" d="M405.9,301.8c-.3-.1-.6-.2-.8-.2-.3,0-.6.1-.9.3-.2.2-.4.4-.5.7v4.8h-2v-7.4h1.5l.2,1h.1c.2-.4.4-.7.7-.9.3-.2.6-.3,1-.3s.6.1.9.2l-.2,1.8Z"/>
    <path class="cls-18" d="M407,300.4c.4-.2.9-.3,1.4-.4s1.1-.2,1.7-.2,1,.1,1.3.2.6.3.8.5c.2.2.3.5.4.8s.1.7.1,1.1v1.3c0,.4,0,.9-.1,1.3s0,.8,0,1.3.1.8.2,1.1h-1.6l-.3-1h.1c-.2.3-.5.6-.8.8-.4.2-.8.3-1.4.3s-.7-.1-.9-.2c-.3-.1-.5-.3-.7-.5s-.4-.4-.5-.7c-.1-.3-.2-.6-.2-.9,0-.5.1-.8.3-1.2.2-.3.5-.6.9-.8.4-.2.8-.3,1.4-.4.5-.1,1.1-.1,1.8-.1.1-.6,0-1-.1-1.2s-.5-.4-1-.4-.8,0-1.2.1c-.4.1-.8.2-1.1.3l-.5-1.1ZM409.5,306c.4,0,.7-.1.9-.3s.4-.4.5-.6v-1h-.9c-.3,0-.5.1-.8.1-.2.1-.4.2-.5.3s-.2.3-.2.5c0,.3.1.5.2.7.2.2.5.3.8.3Z"/>
    <path class="cls-18" d="M416.3,300v4.3c0,.6.1,1,.2,1.3s.4.4.8.4.7-.1.9-.3.4-.5.5-.8v-4.9h2v5.2c0,.4,0,.8.1,1.2,0,.4.1.8.2,1.1h-1.5l-.3-1.1h-.1c-.2.4-.6.7-1,.9-.4.3-.9.4-1.5.4s-.7,0-1-.2c-.3-.1-.5-.3-.8-.5-.2-.2-.4-.5-.5-.9s-.2-.9-.2-1.5v-4.6h2.2Z"/>
    <path class="cls-18" d="M424.5,304.9c0,.3,0,.6.1.8s.2.2.4.2h.4c.1,0,.3-.1.4-.1l.2,1.5c-.2.1-.4.2-.7.2s-.7.1-1,.1c-.6,0-1-.1-1.3-.4s-.5-.7-.5-1.3v-9h2v8Z"/>
    <path class="cls-18" d="M426.8,297.8c0-.3.1-.5.3-.7.2-.2.5-.3.9-.3s.7.1.9.3.4.5.4.7-.1.5-.4.7c-.2.2-.5.3-.9.3s-.7-.1-.9-.3c-.2-.1-.3-.4-.3-.7ZM427.1,300h2v7.5h-2v-7.5Z"/>
    <path class="cls-18" d="M436.3,307c-.3.2-.7.4-1.1.5s-.9.2-1.3.2c-.6,0-1.1-.1-1.5-.3-.4-.2-.8-.5-1-.8-.3-.3-.4-.8-.6-1.3s-.2-1-.2-1.6c0-1.3.3-2.2.9-2.9.6-.7,1.4-1,2.5-1s1,0,1.3.1.6.2.9.3l-.5,1.6c-.2-.1-.5-.2-.7-.3-.2-.1-.5-.1-.8-.1-.5,0-.9.2-1.2.5-.3.4-.4.9-.4,1.7s0,.6.1.9.2.5.3.7c.1.2.3.4.5.5s.5.2.8.2.6,0,.8-.1.4-.2.6-.3l.6,1.5Z"/>
    <path class="cls-18" d="M442.1,307.5v-4.3c0-.6-.1-1-.3-1.3-.2-.3-.5-.4-.9-.4s-.6.1-.9.3c-.3.2-.5.5-.5.9v4.8h-2v-10.5h2v3.8h.1c.2-.3.5-.6.9-.8.3-.2.8-.3,1.3-.3s.7,0,1,.2c.3.1.5.3.7.5s.3.5.4.9.1.9.1,1.5v4.7h-1.9Z"/>
  </g>
  <g class="cls-21">
    <path class="cls-18" d="M448.1,304.4h-.5v3.1h-2v-10.5h2v6.2l.4-.2,1.7-3h2.1l-1.8,2.8-.8.6.8.6,2,3.5h-2l-1.9-3.1Z"/>
  </g>
  <g class="cls-21">
    <path class="cls-18" d="M458.8,306.8c-.3.2-.7.4-1.2.6s-1.1.2-1.6.2c-1.2,0-2.1-.4-2.7-1.1s-.8-1.7-.8-2.9.3-2.3.9-3,1.5-1,2.7-1,.8,0,1.1.2c.4.1.7.3,1,.5s.5.5.7.9.3.9.3,1.5v.7c0,.2-.1.5-.1.8h-4.5c0,.6.2,1.1.5,1.4s.8.5,1.4.5.8-.1,1.1-.2c.3-.1.6-.3.7-.4l.5,1.3ZM456,301.3c-.5,0-.9.2-1.1.5s-.4.7-.4,1.2h2.8c0-.5,0-1-.2-1.2s-.6-.5-1.1-.5Z"/>
    <path class="cls-18" d="M460.3,297.8c0-.3.1-.5.3-.7s.5-.3.9-.3.7.1.9.3.4.5.4.7-.1.5-.4.7c-.2.2-.5.3-.9.3s-.7-.1-.9-.3c-.2-.1-.3-.4-.3-.7ZM460.6,300h2v7.5h-2v-7.5Z"/>
    <path class="cls-18" d="M463.7,300h1v-1.4l2-.6v2h1.8v1.7h-1.8v2.9c0,.5.1.9.2,1.1s.3.3.6.3.4,0,.5-.1.3-.1.5-.2l.3,1.5c-.3.1-.6.2-.9.3s-.7.1-1.1.1c-.7,0-1.2-.2-1.5-.5-.3-.4-.5-.9-.5-1.7v-3.8h-1v-1.6h-.1Z"/>
  </g>
  <g class="cls-21">
    <path class="cls-18" d="M469.5,306.5c0-.3.1-.6.3-.8s.5-.3.8-.3.8.1,1,.4.4.7.4,1.1-.1.8-.2,1.2c-.1.3-.3.6-.5.8s-.4.4-.7.5c-.2.1-.4.2-.6.3l-.6-.8c.3-.1.5-.3.7-.5s.3-.5.3-.8c-.2,0-.4,0-.7-.2s-.2-.5-.2-.9Z"/>
  </g>
  <g class="cls-21">
    <path class="cls-18" d="M378,320.8l.2,1.9h.1l.2-1.9,1.8-5.8h1.3l1.8,5.9.2,1.9h.1l.2-1.9,1.3-5.8h2.1l-2.9,10.6h-1.4l-1.9-5.8-.3-1.6h-.1l-.3,1.6-1.9,5.8h-1.5l-2.9-10.6h2.2l1.7,5.7Z"/>
    <path class="cls-18" d="M388.1,315.8c0-.3.1-.5.3-.7s.5-.3.9-.3.7.1.9.3.4.5.4.7-.1.5-.4.7c-.2.2-.5.3-.9.3s-.7-.1-.9-.3c-.2-.1-.3-.4-.3-.7ZM388.4,318h2v7.5h-2v-7.5Z"/>
    <path class="cls-18" d="M398.6,322.8v1.3c0,.4.1.9.1,1.4h-1.4l-.3-1h0c-.2.4-.5.6-.9.8s-.8.3-1.3.3c-.9,0-1.7-.3-2.2-.9s-.8-1.6-.8-2.9.3-2.3.9-3,1.4-1.1,2.5-1.1.6,0,.8.1c.2,0,.4.1.6.2v-3h2v7.8ZM395.3,324c.4,0,.7-.1.9-.3s.4-.5.5-.8v-3.2c-.1-.1-.3-.2-.5-.2s-.4-.1-.7-.1c-.5,0-1,.2-1.2.6-.3.4-.4,1-.4,1.9s.1,1.2.3,1.5c.2.4.6.6,1.1.6Z"/>
    <path class="cls-18" d="M406.3,324.8c-.3.2-.7.4-1.2.6s-1.1.2-1.6.2c-1.2,0-2.1-.4-2.7-1.1s-.8-1.7-.8-2.9.3-2.3.9-3,1.5-1,2.7-1,.8,0,1.1.2c.4.1.7.3,1,.5s.5.5.7.9.3.9.3,1.5v.7c0,.2-.1.5-.1.8h-4.5c0,.6.2,1.1.5,1.4s.8.5,1.4.5.8-.1,1.1-.2c.3-.1.6-.3.7-.4l.5,1.3ZM403.5,319.3c-.5,0-.9.2-1.1.5s-.4.7-.4,1.2h2.8c0-.5,0-1-.2-1.2-.3-.3-.6-.5-1.1-.5Z"/>
    <path class="cls-18" d="M412.1,319.8c-.3-.1-.6-.2-.8-.2-.3,0-.6.1-.9.3-.2.2-.4.4-.5.7v4.8h-2v-7.4h1.5l.2,1h.1c.2-.4.4-.7.7-.9.3-.2.6-.3,1-.3s.6.1.9.2l-.2,1.8Z"/>
    <path class="cls-18" d="M416.3,323.4c0-.2-.1-.4-.3-.5-.2-.1-.4-.2-.6-.3-.3-.1-.5-.2-.8-.3s-.6-.3-.8-.4c-.3-.2-.5-.4-.6-.7-.2-.3-.3-.7-.3-1.1,0-.7.2-1.3.7-1.7.4-.4,1.1-.6,1.9-.6s1.1.1,1.5.2.8.3,1.1.4l-.4,1.4c-.2-.1-.5-.2-.9-.3-.4-.1-.7-.2-1.1-.2-.6,0-.9.2-.9.7s.1.3.3.4c.2.1.4.2.6.3s.5.2.8.3c.3.1.6.3.8.4s.5.4.6.7c.2.3.3.6.3,1.1,0,.8-.2,1.4-.7,1.8s-1.2.7-2.2.7-1-.1-1.5-.2-.8-.3-1.1-.5l.5-1.5c.2.1.5.3.9.4s.8.2,1.2.2.5-.1.7-.2c.2,0,.3-.2.3-.5Z"/>
    <path class="cls-18" d="M419.5,318h1.4l.2.9h.1c.3-.4.6-.7.9-.8.4-.2.8-.3,1.3-.3.9,0,1.6.3,2.1.9s.7,1.6.7,2.9-.1,1.2-.2,1.7c-.2.5-.4,1-.7,1.3-.3.4-.7.6-1.1.8-.4.2-.9.3-1.5.3s-.6,0-.8-.1c-.2,0-.4-.1-.6-.2v3.1h-2v-10.5h.2ZM422.9,319.4c-.4,0-.7.1-.9.3s-.4.5-.5.9v3.1c.1.1.3.2.5.3.2.1.4.1.7.1.6,0,1-.2,1.3-.6s.4-1,.4-2-.1-1.2-.3-1.5c-.4-.4-.7-.6-1.2-.6Z"/>
    <path class="cls-18" d="M431.8,319.8c-.3-.1-.6-.2-.8-.2-.3,0-.6.1-.9.3-.2.2-.4.4-.5.7v4.8h-2v-7.4h1.5l.2,1h.1c.2-.4.4-.7.7-.9.3-.2.6-.3,1-.3s.6.1.9.2l-.2,1.8Z"/>
    <path class="cls-18" d="M434.8,318v4.3c0,.6.1,1,.2,1.3s.4.4.8.4.7-.1.9-.3.4-.5.5-.8v-4.9h1.9v5.2c0,.4,0,.8.1,1.2,0,.4.1.8.2,1.1h-1.4l-.3-1.1h-.1c-.2.4-.5.7-1,.9s-.9.4-1.5.4-.7,0-1-.2c-.3-.1-.6-.3-.8-.5-.2-.2-.4-.5-.5-.9s-.2-.9-.2-1.5v-4.6h2.2Z"/>
    <path class="cls-18" d="M446.3,325c-.3.2-.7.4-1.1.5s-.9.2-1.3.2c-.6,0-1.1-.1-1.5-.3-.4-.2-.8-.5-1-.8-.3-.3-.4-.8-.6-1.3s-.2-1-.2-1.6c0-1.3.3-2.2.9-2.9.6-.7,1.4-1,2.5-1s1,0,1.3.1.6.2.9.3l-.5,1.6c-.2-.1-.5-.2-.7-.3-.2-.1-.5-.1-.8-.1-.5,0-.9.2-1.2.5-.3.4-.4.9-.4,1.7s0,.6.1.9.2.5.3.7c.1.2.3.4.5.5s.5.2.8.2.6,0,.8-.1.4-.2.6-.3l.6,1.5Z"/>
    <path class="cls-18" d="M452,325.5v-4.3c0-.6-.1-1-.3-1.3-.2-.3-.5-.4-.9-.4s-.6.1-.9.3c-.3.2-.5.5-.5.9v4.8h-2v-10.5h2v3.8h.1c.2-.3.5-.6.9-.8.3-.2.8-.3,1.3-.3s.7,0,1,.2c.3.1.5.3.7.5s.3.5.4.9.1.9.1,1.5v4.7h-1.9Z"/>
    <path class="cls-18" d="M458.7,323.4c0-.2-.1-.4-.3-.5-.2-.1-.4-.2-.6-.3-.3-.1-.5-.2-.8-.3s-.6-.3-.8-.4c-.3-.2-.5-.4-.6-.7-.2-.3-.3-.7-.3-1.1,0-.7.2-1.3.7-1.7.4-.4,1.1-.6,1.9-.6s1.1.1,1.5.2.8.3,1.1.4l-.4,1.4c-.2-.1-.5-.2-.9-.3-.4-.1-.7-.2-1.1-.2-.6,0-.9.2-.9.7s.1.3.3.4c.2.1.4.2.6.3s.5.2.8.3c.3.1.6.3.8.4s.5.4.6.7c.2.3.3.6.3,1.1,0,.8-.2,1.4-.7,1.8s-1.2.7-2.2.7-1-.1-1.5-.2-.8-.3-1.1-.5l.5-1.5c.2.1.5.3.9.4s.8.2,1.2.2.5-.1.7-.2c.3,0,.3-.2.3-.5Z"/>
    <path class="cls-18" d="M461.3,318h1v-.4c0-1,.2-1.6.6-2.1.4-.4,1-.6,1.7-.6s1.5.1,2,.3l-.4,1.6c-.2-.1-.4-.1-.6-.2h-.5c-.2,0-.4,0-.5.1l-.3.3c0,0-.1.3-.1.5v.6h1.7v1.7h-1.7v5.8h-1.9v-5.8h-1v-1.8h0Z"/>
    <path class="cls-18" d="M470.9,319.8c-.3-.1-.6-.2-.8-.2-.4,0-.6.1-.9.3-.2.2-.4.4-.5.7v4.8h-2v-7.4h1.5l.2,1h.1c.2-.4.4-.7.7-.9.3-.2.6-.3,1-.3s.6.1.9.2l-.2,1.8Z"/>
    <path class="cls-18" d="M478,324.8c-.3.2-.7.4-1.2.6s-1.1.2-1.6.2c-1.2,0-2.1-.4-2.7-1.1s-.8-1.7-.8-2.9.3-2.3.9-3,1.5-1,2.7-1,.8,0,1.1.2c.4.1.7.3,1,.5s.5.5.7.9.3.9.3,1.5v.7c0,.2-.1.5-.1.8h-4.5c0,.6.2,1.1.5,1.4s.8.5,1.4.5.8-.1,1.1-.2c.3-.1.6-.3.7-.4l.5,1.3ZM475.3,319.3c-.5,0-.9.2-1.1.5s-.4.7-.4,1.2h2.8c0-.5,0-1-.2-1.2-.4-.3-.7-.5-1.1-.5Z"/>
    <path class="cls-18" d="M479.5,315.8c0-.3.1-.5.3-.7.2-.2.5-.3.9-.3s.7.1.9.3.4.5.4.7-.1.5-.4.7c-.2.2-.5.3-.9.3s-.7-.1-.9-.3c0-.1-.3-.4-.3-.7ZM479.8,318h2v7.5h-2v-7.5Z"/>
    <path class="cls-18" d="M488.3,325.5v-4.3c0-.6-.1-1-.3-1.3-.2-.3-.5-.4-.9-.4s-.6.1-.9.3-.5.5-.5.9v4.8h-2v-10.5h2v3.8h.1c.2-.3.5-.6.9-.8.4-.2.8-.3,1.3-.3s.7,0,1,.2c.3.1.5.3.7.5s.3.5.4.9.1.9.1,1.5v4.7h-1.9Z"/>
    <path class="cls-18" d="M497.9,324.8c-.3.2-.7.4-1.2.6s-1.1.2-1.6.2c-1.2,0-2.1-.4-2.7-1.1s-.8-1.7-.8-2.9.3-2.3.9-3,1.5-1,2.7-1,.8,0,1.1.2c.4.1.7.3,1,.5s.5.5.7.9.3.9.3,1.5v.7c0,.2-.1.5-.1.8h-4.5c0,.6.2,1.1.5,1.4s.8.5,1.4.5.8-.1,1.1-.2c.3-.1.6-.3.7-.4l.5,1.3ZM495.1,319.3c-.5,0-.9.2-1.1.5s-.4.7-.4,1.2h2.8c0-.5,0-1-.2-1.2s-.7-.5-1.1-.5Z"/>
    <path class="cls-18" d="M499.4,315.8c0-.3.1-.5.3-.7s.5-.3.9-.3.7.1.9.3.4.5.4.7-.1.5-.4.7c-.2.2-.5.3-.9.3s-.7-.1-.9-.3c-.2-.1-.3-.4-.3-.7ZM499.7,318h2v7.5h-2v-7.5Z"/>
    <path class="cls-18" d="M502.7,318h1v-1.4l2-.6v2h1.8v1.7h-1.8v2.9c0,.5.1.9.2,1.1s.3.3.6.3.4,0,.5-.1c.1,0,.3-.1.5-.2l.3,1.5c-.3.1-.6.2-.9.3-.4.1-.7.1-1.1.1-.7,0-1.2-.2-1.5-.5-.3-.4-.5-.9-.5-1.7v-3.8h-1v-1.6h-.1Z"/>
    <path class="cls-18" d="M513.1,322.5c0-.4,0-.7.2-1.1,0-.3.3-.7.5-1s.5-.6.8-.8c.3-.3.6-.5,1-.7-.3-.3-.5-.7-.6-1-.2-.3-.2-.7-.2-1.1s0-.5,0-.8.2-.5.5-.7c.2-.2.5-.4.8-.5s.7-.2,1.2-.2.9.1,1.2.2.6.3.8.4c.2.2.3.4.4.6,0,.2,0,.5,0,.7,0,.4,0,.8-.4,1.3-.3.4-.8.9-1.5,1.3.3.5.7,1,1,1.5s.7.9,1.2,1.3c.2-.3.4-.6.6-.9.2-.4.3-.8.5-1.1l1.4.8c0,.2,0,.4-.2.6,0,.2-.2.4-.3.7s-.3.4-.4.6c0,.2-.3.4-.4.5.3.3.6.5.8.7s.5.3.7.5l-1,1.4c-.3-.1-.6-.3-.9-.5s-.6-.5-.9-.7c-.4.3-.8.6-1.4.9s-1.2.4-2,.4-1-.1-1.5-.2-.9-.3-1.2-.6c-.3-.3-.6-.6-.8-1,0-.5,0-1,0-1.5ZM519,323.2c-.5-.5-1-1.1-1.4-1.6s-.8-1-1.1-1.5c-.5.4-.8.7-1.1,1.1s-.4.7-.4,1.2.2.9.6,1.2.9.4,1.5.4.8-.1,1.1-.2c.3-.2.6-.4.8-.6ZM516.7,317c0,.4.2.9.5,1.4.4-.3.7-.5.8-.7s.3-.4.3-.6,0-.4-.2-.6-.4-.2-.7-.2-.5.1-.6.2,0,.2,0,.5Z"/>
  </g>
  <g class="cls-21">
    <path class="cls-18" d="M375.3,333h6.2v1.8h-4.2v2.6h3.8v1.8h-3.8v4.2h-2.1v-10.4h.1Z"/>
    <path class="cls-18" d="M387,337.8c-.3-.1-.6-.2-.8-.2-.3,0-.6.1-.9.3-.2.2-.4.4-.5.7v4.8h-2v-7.4h1.5l.2,1h.1c.2-.4.4-.7.7-.9.3-.2.6-.3,1-.3s.6.1.9.2l-.2,1.8Z"/>
    <path class="cls-18" d="M394.1,342.8c-.3.2-.7.4-1.2.6s-1.1.2-1.6.2c-1.2,0-2.1-.4-2.7-1.1s-.8-1.7-.8-2.9.3-2.3.9-3,1.5-1,2.7-1,.8,0,1.1.2c.4.1.7.3,1,.5s.5.5.7.9.3.9.3,1.5v.7c0,.2-.1.5-.1.8h-4.5c0,.6.2,1.1.5,1.4s.8.5,1.4.5.8-.1,1.1-.2c.3-.1.6-.3.7-.4l.5,1.3ZM391.4,337.3c-.5,0-.9.2-1.1.5s-.4.7-.4,1.2h2.8c0-.5,0-1-.2-1.2-.4-.3-.7-.5-1.1-.5Z"/>
    <path class="cls-18" d="M398.9,341.4c0-.2-.1-.4-.3-.5-.2-.1-.4-.2-.6-.3-.3-.1-.5-.2-.8-.3s-.6-.3-.8-.4c-.3-.2-.5-.4-.6-.7-.2-.3-.3-.7-.3-1.1,0-.7.2-1.3.7-1.7.4-.4,1.1-.6,1.9-.6s1.1.1,1.5.2.8.3,1.1.4l-.4,1.4c-.2-.1-.5-.2-.9-.3-.4-.1-.7-.2-1.1-.2-.6,0-.9.2-.9.7s.1.3.3.4c.2.1.4.2.6.3s.5.2.8.3c.3.1.6.3.8.4s.5.4.6.7c.2.3.3.6.3,1.1,0,.8-.2,1.4-.7,1.8s-1.2.7-2.2.7-1-.1-1.5-.2-.8-.3-1.1-.5l.5-1.5c.2.1.5.3.9.4s.8.2,1.2.2.5-.1.7-.2c.2,0,.3-.2.3-.5Z"/>
    <path class="cls-18" d="M406.7,343.5v-4.3c0-.6-.1-1-.3-1.3-.2-.3-.5-.4-.9-.4s-.6.1-.9.3c-.3.2-.5.5-.5.9v4.8h-2v-10.5h2v3.8h.1c.2-.3.5-.6.9-.8.3-.2.8-.3,1.3-.3s.7,0,1,.2c.3.1.5.3.7.5s.3.5.4.9.1.9.1,1.5v4.7h-1.9Z"/>
    <path class="cls-18" d="M414.9,343.5v-4.3c0-.6-.1-1-.3-1.3-.2-.3-.5-.4-.9-.4s-.7.1-.9.3-.4.5-.5.8v4.9h-2v-7.5h1.5l.2,1h.1c.2-.3.5-.6.9-.8.4-.2.9-.4,1.5-.4s.7,0,1,.2c.3.1.5.3.7.5s.3.5.5.9c.1.4.1.9.1,1.5v4.7h-1.9Z"/>
    <path class="cls-18" d="M424.4,342.8c-.3.2-.7.4-1.2.6s-1.1.2-1.6.2c-1.2,0-2.1-.4-2.7-1.1s-.8-1.7-.8-2.9.3-2.3.9-3,1.5-1,2.7-1,.8,0,1.1.2c.4.1.7.3,1,.5s.5.5.7.9.3.9.3,1.5v.7c0,.2-.1.5-.1.8h-4.5c0,.6.2,1.1.5,1.4s.8.5,1.4.5.8-.1,1.1-.2c.3-.1.6-.3.7-.4l.5,1.3ZM421.7,337.3c-.5,0-.9.2-1.1.5s-.4.7-.4,1.2h2.8c0-.5,0-1-.2-1.2-.4-.3-.7-.5-1.1-.5Z"/>
    <path class="cls-18" d="M429.2,341.4c0-.2-.1-.4-.3-.5-.2-.1-.4-.2-.6-.3-.3-.1-.5-.2-.8-.3s-.6-.3-.8-.4c-.3-.2-.5-.4-.6-.7-.2-.3-.3-.7-.3-1.1,0-.7.2-1.3.7-1.7.4-.4,1.1-.6,1.9-.6s1.1.1,1.5.2.8.3,1.1.4l-.4,1.4c-.2-.1-.5-.2-.9-.3-.4-.1-.7-.2-1.1-.2-.6,0-.9.2-.9.7s.1.3.3.4c.2.1.4.2.6.3s.5.2.8.3c.3.1.6.3.8.4s.5.4.6.7c.2.3.3.6.3,1.1,0,.8-.2,1.4-.7,1.8s-1.2.7-2.2.7-1-.1-1.5-.2-.8-.3-1.1-.5l.5-1.5c.2.1.5.3.9.4s.8.2,1.2.2.5-.1.7-.2c.2,0,.3-.2.3-.5Z"/>
    <path class="cls-18" d="M435.5,341.4c0-.2-.1-.4-.3-.5-.2-.1-.4-.2-.6-.3-.3-.1-.5-.2-.8-.3s-.6-.3-.8-.4c-.3-.2-.5-.4-.6-.7-.2-.3-.3-.7-.3-1.1,0-.7.2-1.3.7-1.7.4-.4,1.1-.6,1.9-.6s1.1.1,1.5.2.8.3,1.1.4l-.4,1.4c-.2-.1-.5-.2-.9-.3-.4-.1-.7-.2-1.1-.2-.6,0-.9.2-.9.7s.1.3.3.4c.2.1.4.2.6.3s.5.2.8.3c.3.1.6.3.8.4s.5.4.6.7c.2.3.3.6.3,1.1,0,.8-.2,1.4-.7,1.8s-1.2.7-2.2.7-1-.1-1.5-.2-.8-.3-1.1-.5l.5-1.5c.2.1.5.3.9.4s.8.2,1.2.2.5-.1.7-.2c.2,0,.3-.2.3-.5Z"/>
  </g>
  <g class="cls-21">
    <path class="cls-18" d="M381.3,358.9v1.4c0,.4.1.8.1,1.2h-.8l-.3-1.1h-.1c-.2.4-.5.6-.9.9s-.8.3-1.3.3c-1,0-1.7-.3-2.2-.9s-.7-1.6-.7-3,.3-2.3.9-2.9c.6-.7,1.4-1,2.5-1s.7,0,.9.1c.2,0,.4.1.7.2v-3.1h1.2v7.9h0ZM378.3,360.6c.5,0,.9-.1,1.2-.4.3-.3.5-.7.6-1.2v-3.7c-.2-.1-.4-.2-.6-.3-.2-.1-.5-.1-.9-.1-.7,0-1.2.2-1.6.7s-.6,1.2-.6,2.2,0,.8.1,1.1c.1.4.2.7.3.9.2.3.3.4.6.6.2,0,.5.2.9.2Z"/>
    <path class="cls-18" d="M389.1,360.9c-.3.2-.7.4-1.1.6-.5.1-.9.2-1.4.2s-1.1-.1-1.5-.3c-.4-.2-.8-.5-1-.8-.3-.3-.5-.8-.6-1.2-.1-.5-.2-1-.2-1.6,0-1.3.3-2.3.9-2.9.6-.7,1.4-1,2.4-1s.7,0,1,.1.6.2.9.4c.3.2.5.5.7.9s.3.9.3,1.5,0,.7-.1,1.1h-4.8c0,.4,0,.8.1,1.2s.2.6.4.9c.2.2.4.4.7.5.3.1.7.2,1.1.2s.7-.1,1-.2.6-.3.8-.4l.4.8ZM386.5,354.8c-.6,0-1.1.2-1.4.5-.4.3-.6.8-.6,1.6h3.7c0-.8-.1-1.3-.4-1.6-.3-.3-.7-.5-1.3-.5Z"/>
    <path class="cls-18" d="M394.8,355.1c-.3-.1-.6-.2-.9-.2s-.8.1-1,.4c-.3.2-.4.5-.5.9v5.3h-1.2v-7.5h.8l.2.9h.1c.2-.3.4-.6.7-.8.3-.2.6-.3,1-.3s.6.1,1,.2l-.2,1.1Z"/>
  </g>
  <g class="cls-21">
    <path class="cls-18" d="M405,358.5h-3.9l-1,2.9h-1.2l4-10.7h.6l4,10.7h-1.3l-1.2-2.9ZM401.5,357.5h3.1l-1.2-3.2-.4-1.6h0l-.4,1.6-1.1,3.2Z"/>
    <path class="cls-18" d="M413.5,361.5v-4.3c0-.8-.1-1.4-.3-1.8-.2-.4-.6-.6-1.2-.6s-1,.1-1.3.4-.6.6-.7,1.1v5.1h-1.2v-7.4h.8l.2.9h.1c.2-.3.6-.6,1-.8s.9-.3,1.4-.3.8,0,1.1.1c.3.1.6.3.8.5s.4.6.5,1,.2.9.2,1.5v4.5h-1.4Z"/>
  </g>
  <g class="cls-21">
    <path class="cls-18" d="M421.7,354l1.7,4.4.4,1.4h0l.3-1.5,1.3-4.3h1.1l-2.5,7.7h-.6l-2-5-.3-1.2h0l-.3,1.2-1.9,4.9h-.6l-2.6-7.7h1.3l1.5,4.4.3,1.5h0l.4-1.5,1.6-4.3h.9Z"/>
  </g>
  <g class="cls-21">
    <path class="cls-18" d="M433.2,360.9c-.3.2-.7.4-1.1.6-.5.1-.9.2-1.4.2s-1.1-.1-1.5-.3c-.4-.2-.8-.5-1-.8-.3-.3-.5-.8-.6-1.2-.1-.5-.2-1-.2-1.6,0-1.3.3-2.3.9-2.9s1.4-1,2.4-1,.7,0,1,.1.6.2.9.4c.3.2.5.5.7.9s.3.9.3,1.5,0,.7-.1,1.1h-4.8c0,.4,0,.8.1,1.2.1.3.2.6.4.9.2.2.4.4.7.5.3.1.7.2,1.1.2s.7-.1,1-.2.6-.3.8-.4l.4.8ZM430.6,354.8c-.6,0-1.1.2-1.4.5-.4.3-.6.8-.6,1.6h3.7c0-.8-.1-1.3-.4-1.6-.3-.3-.7-.5-1.3-.5Z"/>
    <path class="cls-18" d="M440.2,361.5v-4.3c0-.8-.1-1.4-.3-1.8-.2-.4-.6-.6-1.2-.6s-1,.1-1.3.4-.6.6-.7,1.1v5.1h-1.2v-7.4h.8l.2.9h.1c.2-.3.6-.6,1-.8s.9-.3,1.4-.3.8,0,1.1.1c.3.1.6.3.8.5s.4.6.5,1,.2.9.2,1.5v4.5h-1.4Z"/>
    <path class="cls-18" d="M449.3,358.9v1.4c0,.4.1.8.1,1.2h-.8l-.3-1.1h-.1c-.2.4-.5.6-.9.9s-.8.3-1.3.3c-1,0-1.7-.3-2.2-.9s-.7-1.6-.7-3,.3-2.3.9-2.9,1.4-1,2.5-1,.7,0,.9.1.4.1.7.2v-3.1h1.2v7.9h0ZM446.3,360.6c.5,0,.9-.1,1.2-.4.3-.3.5-.7.6-1.2v-3.7c-.2-.1-.4-.2-.6-.3-.2-.1-.5-.1-.9-.1-.7,0-1.2.2-1.6.7s-.6,1.2-.6,2.2,0,.8.1,1.1c.1.4.2.7.3.9.1.3.3.4.6.6.2,0,.5.2.9.2Z"/>
    <path class="cls-18" d="M452.7,354v4.3c0,.4,0,.7.1,1s.1.5.2.7.3.3.5.4.4.1.7.1.5,0,.7-.1.4-.2.6-.4c.2-.2.3-.3.4-.5s.2-.4.3-.6v-5h1.2v6.5c0,.4.1.7.1,1h-.8l-.3-1.2h-.1c-.2.4-.5.7-.9,1s-.9.4-1.5.4-.8,0-1.1-.1c-.3-.1-.6-.3-.8-.5-.2-.2-.4-.6-.5-1s-.2-.9-.2-1.5v-4.5h1.4Z"/>
    <path class="cls-18" d="M464.5,361.5v-4.3c0-.8-.1-1.4-.3-1.8-.2-.4-.6-.6-1.2-.6s-1,.1-1.3.4-.6.6-.7,1.1v5.1h-1.2v-7.4h.8l.2.9h.1c.2-.3.6-.6,1-.8s.9-.3,1.4-.3.8,0,1.1.1c.3.1.6.3.8.5s.4.6.5,1,.2.9.2,1.5v4.5h-1.4Z"/>
    <path class="cls-18" d="M473.7,361.8c0,1-.3,1.7-.8,2.1-.5.5-1.3.7-2.3.7s-1.1,0-1.4-.1c-.4-.1-.7-.2-.9-.3l.3-1c.2.1.5.2.8.3.3.1.6.1,1.1.1s.8,0,1-.1.5-.2.6-.4.3-.4.3-.7c.1-.3.1-.6.1-1v-.7h-.1c-.2.3-.5.5-.8.7s-.7.2-1.2.2c-1,0-1.8-.3-2.2-.9s-.7-1.6-.7-2.9.3-2.3.9-2.9c.6-.7,1.5-1,2.7-1s1.1,0,1.5.1.8.2,1.1.3v7.5ZM470.6,360.6c.5,0,.9-.1,1.2-.4s.5-.7.6-1.2v-3.8c-.4-.2-.9-.3-1.5-.3s-1.2.2-1.6.7-.6,1.2-.6,2.2,0,.8.1,1.2c.1.4.2.7.3.9.1.3.3.4.6.6.3,0,.6,0,.9,0Z"/>
  </g>
  <g id="Scone_logo_white" data-name="Scone logo white">
    <g class="cls-20">
      <g class="cls-22">
        <g>
          <path class="cls-19" d="M216.9,177.1h-1.1c-.2,0-.4.2-.4.4h0v1.1c0,.2.2.4.4.4h1.1c.2,0,.4-.2.4-.4v-1.1c0-.2,0-.4-.4-.4h0M213.2,179h1.1c.2,0,.4-.2.4-.4h0v-1.1c0-.2-.2-.4-.4-.4h-1.1c-.2,0-.4.2-.4.4h0v1.1c0,.2.2.4.4.4M212.1,178.6v-1.1c0-.2-.2-.4-.4-.4h-1.1c-.2,0-.4.2-.4.4h0v1.1c0,.2.2.4.4.4h1.1c.2,0,.4-.2.4-.4h0M217,179.8c-.2,0-.3.1-.3.3v1.3c0,.2.1.3.3.3s.3-.1.3-.3v-1.3c0-.2-.1-.3-.3-.3q0-.1,0,0M214.1,180.2v1.1c0,.2.2.4.4.4h1.1c.2,0,.4-.2.4-.4h0v-1.1c0-.2-.2-.4-.4-.4h-1.1c-.2,0-.4,0-.4.4h0M213.3,181.2v-1.1c0-.2-.2-.4-.4-.4h-1.1c-.2,0-.4.2-.4.4h0v1.1c0,.2.2.4.4.4h1.1c.3.1.4,0,.4-.4h0M216.9,182.4h-1.1c-.2,0-.4.2-.4.4h0v1.1c0,.2.2.4.4.4h1.1c.2,0,.4-.2.4-.4h0v-1.1c0-.2,0-.4-.4-.4M214.2,182.4h-1.1c-.2,0-.4.2-.4.4v1.1c0,.2.2.4.4.4h1.1c.2,0,.4-.2.4-.4h0v-1.1c0-.2-.2-.4-.4-.4h0"/>
          <path class="cls-19" d="M218.2,176.7c.5.4,1.1.5,1.7.5h0v3c0,1.1-1.4,1.8-1.7,2h0v-5.5h0"/>
          <path class="cls-19" d="M215,176.5c2.2-.1,2.6-.9,2.6-.9h.1c0-.1.1-.1.1-.1,0,0,.4.8,2.6.8s.1,0,.1.1v3.8c0,1.2-2.3,2.6-2.4,2.6s-.1.1-.1.1v1s.1.1.2,0c.9-.5,3.3-1.8,3.3-3.4v-4.9c0-.1-.1-.1-.2-.1-2.9,0-3.4-1-3.4-1h-.3s-.5,1.1-3.3,1.1-.1,0-.1.1v.6s0,.1.1.1.7.2.7,0"/>
          <path class="cls-17" d="M223.6,182.8l1.1-.4c.3.6.9.9,1.5.9s.6-.1.9-.2c.2-.1.4-.4.4-.6,0-.6-.8-1-1.4-1.2h0c-.5-.2-.9-.4-1.3-.7-.4-.3-.7-.8-.6-1.3,0-.5.2-1.1.7-1.4.5-.4,1.1-.6,1.7-.6.9,0,1.8.4,2.2,1.2l-1.2.4c-.1-.2-.2-.3-.4-.4-.2-.1-.4-.1-.6-.1-.7,0-1.1.4-1.1.8s.2.6.4.7c.3.2.7.4,1,.5h.1c.9.5,2,.9,2,2.1s-.3,1.1-.8,1.4c-.5.4-1.2.6-1.9.5-1.1,0-2.1-.6-2.7-1.6"/>
          <path class="cls-17" d="M233.8,184.3c-.5,0-1-.1-1.4-.3s-.8-.4-1.1-.8c-.3-.3-.6-.7-.8-1.1-.4-.9-.4-1.9,0-2.8.2-.4.4-.8.8-1.1.3-.3.7-.6,1.1-.8.4-.2.9-.3,1.4-.3,1.1,0,2.2.5,2.9,1.4l-1,.7c-.5-.6-1.2-1-1.9-1s-1.3.3-1.7.8c-.5.4-.7,1.1-.7,1.7,0,1.3,1,2.4,2.4,2.4s.9-.1,1.3-.4c.4-.2.7-.5.9-.9l1,.6c-.3.5-.8,1-1.3,1.3-.7.5-1.4.6-1.9.6"/>
          <path class="cls-17" d="M241.7,184.3c-.5,0-1-.1-1.4-.3s-.8-.4-1.1-.8c-.3-.3-.6-.7-.8-1.1-.2-.4-.3-.9-.3-1.4s.1-1,.3-1.4.4-.8.8-1.1c.3-.3.7-.6,1.1-.8.9-.4,1.9-.4,2.8,0,.4.2.8.4,1.1.8.3.3.6.7.8,1.1.4.9.4,1.9,0,2.8-.2.4-.4.8-.8,1.1-.7.8-1.6,1.1-2.5,1.1M241.7,178.3c-.6,0-1.2.3-1.7.7-.5.5-.7,1.1-.7,1.7s.3,1.3.7,1.7c1,.9,2.5.9,3.4,0,.4-.5.7-1.1.7-1.7,0-1.3-1.1-2.4-2.4-2.4"/>
          <polygon class="cls-17" points="253.5 177.2 253.5 184.5 248.4 179.9 248.4 184.2 247.1 184.2 247.1 176.9 252.2 181.6 252.2 177.2 253.5 177.2"/>
          <polygon class="cls-17" points="256.9 178.2 256.9 180.1 260.5 180.1 260.5 181.2 256.9 181.2 256.9 183.1 260.9 183.1 260.9 184.2 255.6 184.2 255.6 177.2 260.9 177.2 260.9 178.3 256.9 178.3 256.9 178.2"/>
        </g>
      </g>
    </g>
  </g>
  <path class="cls-14" d="M224.8,19.2c6-5.9,15.7-5.8,21.7.2,5.9,6,5.8,15.7-.2,21.7-6,5.9-15.7,5.8-21.7-.2-2.8-2.9-4.4-6.7-4.4-10.7s1.1-6.6,3.1-9.3"/>
  <path class="cls-8" d="M235.6,37.5h-5.5c-.8,0-1.1-.3-1.1-1v-8.5c0-.8.3-1,1.1-1h11c.7,0,1,.3,1,1v8.5c0,.7-.3,1-1,1h-5.5Z"/>
  <path class="cls-8" d="M229.9,26.2c0-2.3,1.3-4.4,3.4-5.4,2.8-1.2,6,0,7.2,2.8.1.3.2.6.3.9.1.5.2,1,.3,1.5"/>
  <path class="cls-16" d="M234.7,33.9h0v1.1c0,.2.1.3.3.3h1.1c.3,0,.4,0,.4-.3v-2.1c0-.2.1-.4.3-.5.7-.3,1-1.1.8-1.9-.3-.8-1.1-1.3-1.9-1.3-.9-.1-1.7.4-2.1,1.1-.3.8,0,1.6.7,2,.3,0,.4.4.3.6,0,.4,0,.7,0,1Z"/>
  <path class="cls-1" d="M115,300.5c-2.8,0-5.3,1.9-6,4.7h-13.3l-1.6,1.5,1.4,1.3,1.9,1.9,1.7-1.7,1,1,1.1-1.1h.2l1.8,1.8,1.8-1.8h3.9c.8,3.3,4.2,5.3,7.5,4.5s5.3-4.2,4.5-7.5c-.6-2.7-3.1-4.7-5.9-4.6h0Z"/>
  <g class="cls-21">
    <path class="cls-18" d="M8.9,136.1h.6c0-.1,2.6-7.7,2.6-7.7h1.9l2.6,7.6h.6v1.1h-3v-1h.6c0-.1-.4-1.3-.4-1.3h-2.8l-.4,1.2h.6v1.1h-3v-1h0ZM12.1,133.5h2l-1-3.1h0l-1,3.1Z"/>
  </g>
  <g class="cls-21">
    <path class="cls-18" d="M17.8,136.1l.8-.2v-4l-.9-.2v-1.1h2.6v.9c.3-.3.6-.6.9-.8s.7-.3,1.1-.3c.7,0,1.2.2,1.5.6s.5,1.1.5,1.9v2.8l.8.2v1h-3.3v-1l.7-.2v-2.8c0-.4-.1-.7-.3-.9-.2-.2-.4-.3-.8-.3s-.4,0-.6.1-.3.2-.5.4v3.5l.7.2v1h-3.3v-.8h0Z"/>
  </g>
  <g class="cls-21">
    <path class="cls-18" d="M25.7,134c0-1,.2-1.8.7-2.5.4-.6,1.1-.9,1.9-.9s.7.1,1,.2c.3.2.5.4.7.7v-.8h1.6v6.3c0,.9-.3,1.5-.8,2s-1.3.8-2.2.8-.7,0-1-.1-.7-.2-1-.4l.3-1.2c.3.1.6.2.8.3.3.1.6.1.9.1s.7-.1,1-.4c.2-.3.3-.6.3-1.1v-.4c-.2.2-.4.4-.7.6-.3.1-.6.2-.9.2-.8,0-1.4-.3-1.9-.9s-.7-1.4-.7-2.3c0,0,0-.2,0-.2ZM27.4,134.1c0,.6.1,1,.3,1.3.2.3.5.5.9.5s.5,0,.7-.1.3-.2.4-.4v-2.8c-.1-.2-.3-.3-.4-.5-.2-.1-.4-.2-.7-.2s-.7.2-.9.6c-.2.4-.3.9-.3,1.5h0Z"/>
  </g>
  <g class="cls-21">
    <path class="cls-18" d="M32.7,136.1l.8-.2v-4l-.9-.2v-1.1h2.6v.9c.3-.3.4-.6.7-.8.2-.2.5-.3.8-.3h.3c0,0,.2,0,.3.1l-.2,1.6h-.7c-.3,0-.5,0-.6.1-.2.1-.3.2-.4.4v3.1l.8.2v1h-3.4v-.8h0Z"/>
  </g>
  <g class="cls-21">
    <path class="cls-18" d="M40.7,137.3c-.9,0-1.7-.3-2.2-.9-.6-.6-.8-1.4-.8-2.3v-.2c0-1,.3-1.8.8-2.4.5-.6,1.2-.9,2.1-.9s1.5.3,2,.8.7,1.2.7,2.1v1h-3.9c0,.4.2.8.4,1.1.3.3.6.4,1,.4s.7,0,1-.1.5-.2.8-.4l.5,1.1c-.3.2-.6.4-1,.5s-.9.2-1.4.2ZM40.5,131.9c-.3,0-.6.1-.8.4-.2.2-.3.6-.3,1h2.1v-.2c0-.4,0-.7-.3-.9,0-.2-.3-.3-.7-.3Z"/>
    <path class="cls-18" d="M44.1,136.1l.8-.2v-4l-.9-.2v-1.1h2.7v5.2l.8.2v1h-3.4s0-.9,0-.9ZM46.7,129.2h-1.7v-1.3h1.7v1.3Z"/>
  </g>
  <g class="cls-21">
    <path class="cls-18" d="M48.2,136.1l.8-.2v-4h-1v-1.2h1v-.7c0-.7.2-1.3.6-1.7s1-.6,1.8-.6h.5c.2,0,.3,0,.5,0v1.3h-.7c-.3,0-.5.1-.6.2,0,.2-.2.4-.2.7v.7h1.1v1.2h-1.3v4l.8.2v1h-3.4v-1h.1Z"/>
  </g>
  <g class="cls-21">
    <path class="cls-18" d="M55.6,137.3c-.9,0-1.7-.3-2.2-.9-.6-.6-.8-1.4-.8-2.3v-.2c0-1,.3-1.8.8-2.4.5-.6,1.2-.9,2.1-.9s1.5.3,2,.8.7,1.2.7,2.1v1h-3.9c0,.4.2.8.4,1.1.3.3.6.4,1,.4s.7,0,1-.1.5-.2.8-.4l.5,1.1c-.3.2-.6.4-1,.5s-.9.2-1.4.2ZM55.4,131.9c-.3,0-.6.1-.8.4-.2.2-.3.6-.3,1h2.1v-.2c0-.4,0-.7-.3-.9-.1-.2-.3-.3-.7-.3Z"/>
    <path class="cls-18" d="M59.1,136.1l.8-.2v-4l-.9-.2v-1.1h2.6v.9c.3-.3.4-.6.7-.8.2-.2.5-.3.8-.3h.3c0,0,.2,0,.3.1l-.2,1.6h-.7c-.3,0-.5,0-.6.1-.2.1-.3.2-.4.4v3.1l.8.2v1h-3.4v-.8h0Z"/>
  </g>
  <g class="cls-21">
    <path class="cls-18" d="M11.6,146.4v-1.1h2.6v.9c.3-.3.6-.6.9-.7.3-.2.7-.3,1.1-.3s.8.1,1.1.3c.3.2.5.5.7.8.2-.3.5-.6.8-.8s.7-.3,1.1-.3c.6,0,1.1.2,1.5.7.4.4.6,1.1.6,2v2.7l.8.2v1h-3.3v-1l.8-.2v-2.7c0-.5-.1-.8-.2-1-.2-.2-.4-.3-.7-.3s-.5.1-.6.2c-.2.1-.3.3-.4.5v3.4l.7.2v1h-3.1v-1l.7-.2v-2.7c0-.5-.1-.8-.2-1-.2-.2-.4-.3-.7-.3s-.4,0-.6.1c-.2.1-.3.2-.4.4v3.5l.8.2v1h-3.3v-1l.8-.2v-4l-1.5-.3Z"/>
    <path class="cls-18" d="M23.1,150.8l.8-.2v-4l-.9-.2v-1.1h2.7v5.2l.8.2v1h-3.4v-.9ZM25.7,143.8h-1.7v-1.3h1.7v1.3Z"/>
    <path class="cls-18" d="M29.7,143.8v1.6h1.1v1.2h-1.1v3.3c0,.3.1.4.2.5s.2.2.4.2h.3c.1,0,.2,0,.3-.1v1.3c-.1.1-.3.1-.5.1h-.6c-.6,0-1.1-.2-1.4-.5s-.5-.9-.5-1.6v-3.3h-1v-1.2h1v-1.6h1.8Z"/>
    <path class="cls-18" d="M38.6,143.2c1,0,1.8.2,2.3.7.6.5.8,1.1.8,1.9s0,.8-.4,1.1c-.2.3-.6.6-1,.8.5.2.9.4,1.1.8s.3.8.3,1.3v.4c0,.2,0,.3,0,.4,0,.1.2.2.4.2h.2v1.1h-.9c-.6,0-1-.2-1.2-.5s-.3-.7-.3-1.2v-.5c0-.4,0-.8-.3-1s-.5-.4-1-.4h-1.4v2.3l.9.2v1h-3.6v-1l.9-.2v-6.2l-.9-.2v-1.1h4ZM37.3,147h1.2c.5,0,.9-.1,1.1-.3s.4-.5.4-.9,0-.7-.4-.9c-.2-.2-.6-.3-1.1-.3h-1.2v2.4Z"/>
    <path class="cls-18" d="M43.1,148.6c0-1,.3-1.8.8-2.4.5-.6,1.3-.9,2.2-.9s1.7.3,2.2.9c.5.6.8,1.4.8,2.4h0c0,1.1-.3,1.9-.8,2.5-.5.6-1.3.9-2.2.9s-1.7-.3-2.3-.9c-.5-.6-.8-1.4-.8-2.4h0c0-.1,0-.1,0-.1ZM44.9,148.7c0,.6,0,1.1.3,1.4.2.4.5.5,1,.5s.8-.2,1-.5c.2-.4.3-.8.3-1.4h0c0-.7,0-1.1-.3-1.5s-.5-.5-1-.5-.8.2-1,.5c-.2.4-.3.8-.3,1.4h0Z"/>
    <path class="cls-18" d="M50,148.6c0-1,.3-1.8.8-2.4.5-.6,1.3-.9,2.2-.9s1.7.3,2.2.9c.5.6.8,1.4.8,2.4h0c0,1.1-.3,1.9-.8,2.5-.5.6-1.3.9-2.2.9s-1.7-.3-2.3-.9c-.5-.6-.8-1.4-.8-2.4h0c0-.1,0-.1,0-.1ZM51.7,148.7c0,.6,0,1.1.3,1.4.2.4.5.5,1,.5s.8-.2,1-.5c.2-.4.3-.8.3-1.4h0c0-.7,0-1.1-.3-1.5s-.5-.5-1-.5-.8.2-1,.5c-.2.4-.3.8-.3,1.4h0Z"/>
    <path class="cls-18" d="M59.4,143.8v1.6h1.1v1.2h-1.1v3.3c0,.3,0,.4.2.5s.2.2.4.2h.3c0,0,.2,0,.3-.1v1.3c-.1.1-.3.1-.5.1h-.6c-.6,0-1.1-.2-1.4-.5-.3-.3-.5-.9-.5-1.6v-3.3h-1v-1.2h1v-1.6h1.8Z"/>
  </g>
  <g class="cls-21">
    <path class="cls-18" d="M470.7,212.8h.6c0-.1,2.6-7.7,2.6-7.7h1.8l2.6,7.6h.6v1.1h-3v-1h.6c0-.1-.4-1.3-.4-1.3h-2.8l-.4,1.2h.6v1.1h-3v-1h.2ZM473.8,210.2h2l-1-3.1h0l-1,3.1Z"/>
  </g>
  <g class="cls-21">
    <path class="cls-18" d="M479.5,212.8l.8-.2v-4l-.9-.2v-1.1h2.6v.9c.3-.3.6-.6.9-.8s.7-.3,1.1-.3c.7,0,1.2.2,1.5.6.4.4.5,1.1.5,1.9v2.8l.8.2v1h-3.3v-1l.7-.2v-2.8c0-.4-.1-.7-.3-.9-.2-.2-.4-.3-.8-.3s-.4,0-.6.1-.3.2-.5.4v3.5l.7.2v1h-3.3v-.8h0Z"/>
  </g>
  <g class="cls-21">
    <path class="cls-18" d="M487.4,210.6c0-1,.2-1.8.7-2.5.4-.6,1.1-.9,1.9-.9s.7.1,1,.2c.3.2.5.4.7.7v-.8h1.6v6.3c0,.9-.3,1.5-.8,2s-1.3.8-2.2.8-.7,0-1-.1c-.4-.1-.7-.2-1-.4l.3-1.2c.3.1.6.2.8.3.3.1.6.1.9.1s.7-.1,1-.4c.2-.3.3-.6.3-1.1v-.4c-.2.2-.4.4-.7.6-.3.1-.6.2-.9.2-.8,0-1.4-.3-1.9-.9s-.7-1.4-.7-2.3v-.2h0ZM489.2,210.8c0,.6.1,1,.3,1.3.2.3.5.5.9.5s.5,0,.7-.1.3-.2.4-.4v-2.8c-.1-.2-.3-.3-.4-.5-.2-.1-.4-.2-.7-.2s-.7.2-.9.6c-.2.4-.3.9-.3,1.5h0Z"/>
  </g>
  <g class="cls-21">
    <path class="cls-18" d="M494.4,212.8l.8-.2v-4l-.9-.2v-1.1h2.6v.9c.3-.3.4-.6.7-.8.2-.2.5-.3.8-.3h.3c.1,0,.2,0,.3.1l-.2,1.6h-.7c-.3,0-.5,0-.6.1s-.3.2-.4.4v3.1l.8.2v1h-3.4v-.8h0Z"/>
  </g>
  <g class="cls-21">
    <path class="cls-18" d="M502.4,213.9c-.9,0-1.7-.3-2.2-.9s-.8-1.4-.8-2.3v-.2c0-1,.3-1.8.8-2.4.5-.6,1.2-.9,2.1-.9s1.5.3,2,.8.7,1.2.7,2.1v1h-3.9c0,.4.2.8.4,1.1.3.3.6.4,1,.4s.7,0,1-.1.5-.2.8-.4l.5,1.1c-.3.2-.6.4-1,.5-.4.2-.8.2-1.4.2ZM502.3,208.6c-.3,0-.6.1-.8.4-.2.2-.3.6-.3,1h2.1v-.2c0-.4-.1-.7-.3-.9-.1-.2-.4-.3-.7-.3Z"/>
    <path class="cls-18" d="M505.8,212.8l.8-.2v-4l-.9-.2v-1.1h2.7v5.2l.8.2v1h-3.4v-.9ZM508.4,205.8h-1.7v-1.3h1.7v1.3Z"/>
  </g>
  <g class="cls-21">
    <path class="cls-18" d="M509.9,212.8l.8-.2v-4h-1v-1.2h1v-.7c0-.7.2-1.3.6-1.7s1-.6,1.8-.6h.5c.2,0,.3.1.5.1v1.3h-.7c-.3,0-.5.1-.6.2,0,.2-.2.4-.2.7v.7h1.3v1.2h-1.3v4l.8.2v1h-3.4v-1h-.1Z"/>
  </g>
  <g class="cls-21">
    <path class="cls-18" d="M517.3,213.9c-.9,0-1.7-.3-2.2-.9s-.8-1.4-.8-2.3v-.2c0-1,.3-1.8.8-2.4.5-.6,1.2-.9,2.1-.9s1.5.3,2,.8.7,1.2.7,2.1v1h-3.9c0,.4.2.8.4,1.1.3.3.6.4,1,.4s.7,0,1-.1.5-.2.8-.4l.5,1.1c-.3.2-.6.4-1,.5-.4.2-.9.2-1.4.2ZM517.2,208.6c-.3,0-.6.1-.8.4-.2.2-.3.6-.3,1h2.1v-.2c0-.4,0-.7-.3-.9-.1-.2-.4-.3-.7-.3Z"/>
    <path class="cls-18" d="M520.9,212.8l.8-.2v-4l-.9-.2v-1.1h2.6v.9c.3-.3.4-.6.7-.8.2-.2.5-.3.8-.3h.3c0,0,.2,0,.3.1l-.2,1.6h-.7c-.3,0-.5,0-.6.1s-.3.2-.4.4v3.1l.8.2v1h-3.4v-.8h0Z"/>
  </g>
  <g class="cls-21">
    <path class="cls-18" d="M473.3,223.1v-1.1h2.6v.9c.3-.3.6-.6.9-.7.3-.2.7-.3,1.1-.3s.8.1,1.1.3c.3.2.5.5.7.8.2-.3.5-.6.8-.8s.7-.3,1.1-.3c.6,0,1.1.2,1.5.7s.6,1.1.6,2v2.7l.8.2v1h-3.5v-1l.8-.2v-2.7c0-.5-.1-.8-.2-1-.2-.2-.4-.3-.7-.3s-.5.1-.6.2c-.2.1-.3.3-.4.5v3.4l.7.2v1h-3.1v-1l.7-.2v-2.7c0-.5-.1-.8-.2-1s-.4-.3-.7-.3-.4,0-.6.1-.3.2-.4.4v3.5l.8.2v1h-3.3v-1l.8-.2v-4l-1.3-.3Z"/>
    <path class="cls-18" d="M484.9,227.5l.8-.2v-4l-.9-.2v-1.1h2.7v5.2l.8.2v1h-3.4v-.9ZM487.5,220.5h-1.7v-1.3h1.7v1.3Z"/>
    <path class="cls-18" d="M491.5,220.5v1.6h1.1v1.2h-1.1v3.3c0,.3.1.4.2.5s.2.2.4.2h.3c.1,0,.2,0,.3-.1v1.3c-.1.1-.3.1-.5.1h-.6c-.6,0-1.1-.2-1.4-.5s-.5-.9-.5-1.6v-3.3h-1v-1.2h1v-1.6h1.8Z"/>
    <path class="cls-18" d="M500.3,219.8c1,0,1.8.2,2.3.7.6.5.8,1.1.8,1.9s-.1.8-.4,1.1c-.2.3-.6.6-1,.8.5.2.9.4,1.1.8.2.4.3.8.3,1.3v.4c0,.2,0,.3.1.4.1.1.2.2.4.2h.2v1.1h-.9c-.6,0-1-.2-1.2-.5s-.3-.7-.3-1.2v-.5c0-.4-.1-.8-.3-1-.2-.2-.5-.4-1-.4h-1.4v2.3l.9.2v1h-3.6v-1l.9-.2v-6.2l-.9-.2v-1.1h4ZM499.1,223.6h1.2c.5,0,.9-.1,1.1-.3s.4-.5.4-.9-.1-.7-.4-.9c-.2-.2-.6-.3-1.1-.3h-1.2v2.4Z"/>
    <path class="cls-18" d="M504.9,225.2c0-1,.3-1.8.8-2.4.5-.6,1.3-.9,2.2-.9s1.7.3,2.2.9c.5.6.8,1.4.8,2.4h0c0,1.1-.3,1.9-.8,2.5-.5.6-1.3.9-2.2.9s-1.7-.3-2.3-.9c-.5-.6-.8-1.4-.8-2.4h0c0-.1,0-.1,0-.1ZM506.6,225.3c0,.6.1,1.1.3,1.4.2.4.5.5,1,.5s.8-.2,1-.5c.2-.4.3-.8.3-1.4h0c0-.7-.1-1.1-.3-1.5-.2-.4-.5-.5-1-.5s-.8.2-1,.5c-.2.4-.3.8-.3,1.4h0Z"/>
    <path class="cls-18" d="M511.7,225.2c0-1,.3-1.8.8-2.4.5-.6,1.3-.9,2.2-.9s1.7.3,2.2.9c.5.6.8,1.4.8,2.4h0c0,1.1-.3,1.9-.8,2.5-.5.6-1.3.9-2.2.9s-1.7-.3-2.3-.9c-.5-.6-.8-1.4-.8-2.4h0c0-.1,0-.1,0-.1ZM513.5,225.3c0,.6,0,1.1.3,1.4.2.4.5.5,1,.5s.8-.2,1-.5c.2-.4.3-.8.3-1.4h0c0-.7,0-1.1-.3-1.5s-.5-.5-1-.5-.8.2-1,.5c-.2.4-.3.8-.3,1.4h0Z"/>
    <path class="cls-18" d="M521.2,220.5v1.6h1.1v1.2h-1.1v3.3c0,.3,0,.4.2.5s.2.2.4.2h.3c0,0,.2,0,.3-.1v1.3c-.1.1-.3.1-.5.1h-.6c-.6,0-1.1-.2-1.4-.5-.3-.3-.5-.9-.5-1.6v-3.3h-1v-1.2h1v-1.6h1.8Z"/>
  </g>
  <g class="cls-21">
    <path class="cls-18" d="M80.3,369.6h.6c0-.1,2.6-7.7,2.6-7.7h1.8l2.6,7.6h.6v1.1h-3v-1h.6c0-.1-.4-1.3-.4-1.3h-2.8l-.4,1.2h.6v1.1h-3v-1h.2ZM83.5,367h2l-1-3.1h0l-1,3.1Z"/>
  </g>
  <g class="cls-21">
    <path class="cls-18" d="M89.2,369.6l.8-.2v-4l-.9-.2v-1.1h2.6v.9c.3-.3.6-.6.9-.8.3-.2.7-.3,1.1-.3.7,0,1.2.2,1.5.6s.5,1.1.5,1.9v2.8l.8.2v1h-3.3v-1l.7-.2v-2.8c0-.4,0-.7-.3-.9-.2-.2-.4-.3-.8-.3s-.4,0-.6.1-.3.2-.5.4v3.5l.7.2v1h-3.3v-.8h.1Z"/>
  </g>
  <g class="cls-21">
    <path class="cls-18" d="M97.1,367.5c0-1,.2-1.8.7-2.5.4-.6,1.1-.9,1.9-.9s.7.1,1,.2c.3.2.5.4.7.7v-.8h1.6v6.3c0,.9-.3,1.5-.8,2s-1.3.8-2.2.8-.7,0-1-.1-.7-.2-1-.4l.3-1.2c.3.1.6.2.8.3.3.1.6.1.9.1s.7-.1,1-.4c.2-.3.3-.6.3-1.1v-.5c-.2.2-.4.4-.7.6-.3.1-.6.2-.9.2-.8,0-1.4-.3-1.9-.9s-.7-1.4-.7-2.3c0,0,0-.1,0-.1ZM98.8,367.6c0,.6,0,1,.3,1.3.2.3.5.5.9.5s.5,0,.7-.1.3-.2.4-.4v-2.8c0-.2-.3-.3-.4-.5-.2-.1-.4-.2-.7-.2s-.7.2-.9.6c-.2.4-.3.9-.3,1.5h0Z"/>
  </g>
  <g class="cls-21">
    <path class="cls-18" d="M104.1,369.6l.8-.2v-4l-.9-.2v-1.1h2.6v.9c.3-.3.4-.6.7-.8.2-.2.5-.3.8-.3h.3c0,0,.2,0,.3.1l-.2,1.6h-.7c-.3,0-.5,0-.6.1-.2.1-.3.2-.4.4v3.1l.8.2v1h-3.4v-.8h-.1Z"/>
  </g>
  <g class="cls-21">
    <path class="cls-18" d="M112.1,370.8c-.9,0-1.7-.3-2.2-.9-.6-.6-.8-1.4-.8-2.3v-.2c0-1,.3-1.8.8-2.4s1.2-.9,2.1-.9,1.5.3,2,.8.7,1.2.7,2.1v1h-3.9c0,.4.2.8.4,1.1.3.3.6.4,1,.4s.7,0,1-.1.5-.2.8-.4l.5,1.1c-.3.2-.6.4-1,.5s-.9.2-1.4.2ZM112,365.4c-.3,0-.6.1-.8.4-.2.2-.3.6-.3,1h2.1v-.2c0-.4,0-.7-.3-.9,0-.2-.4-.3-.7-.3Z"/>
    <path class="cls-18" d="M115.5,369.6l.8-.2v-4l-.9-.2v-1.1h2.7v5.2l.8.2v1h-3.4v-.9ZM118.1,362.7h-1.7v-1.3h1.7v1.3Z"/>
  </g>
  <g class="cls-21">
    <path class="cls-18" d="M119.6,369.6l.8-.2v-4h-1v-1.2h1v-.7c0-.7.2-1.3.6-1.7s1-.6,1.8-.6h.5c.2,0,.3.1.5.1v1.3h-.7c-.3,0-.5.1-.6.2,0,.2-.2.4-.2.7v.7h1.3v1.2h-1.3v4l.8.2v1h-3.4v-1h-.1Z"/>
  </g>
  <g class="cls-21">
    <path class="cls-18" d="M127,370.8c-.9,0-1.7-.3-2.2-.9-.6-.6-.8-1.4-.8-2.3v-.2c0-1,.3-1.8.8-2.4s1.2-.9,2.1-.9,1.5.3,2,.8.7,1.2.7,2.1v1h-3.9c0,.4.2.8.4,1.1.3.3.6.4,1,.4s.7,0,1-.1.5-.2.8-.4l.5,1.1c-.3.2-.6.4-1,.5s-.9.2-1.4.2ZM126.8,365.4c-.3,0-.6.1-.8.4-.2.2-.3.6-.3,1h2.1v-.2c0-.4,0-.7-.3-.9,0-.2-.3-.3-.7-.3Z"/>
    <path class="cls-18" d="M130.5,369.6l.8-.2v-4l-.9-.2v-1.1h2.6v.9c.3-.3.4-.6.7-.8.2-.2.5-.3.8-.3h.3c.1,0,.2,0,.3.1l-.2,1.6h-.7c-.3,0-.5,0-.6.1-.2.1-.3.2-.4.4v3.1l.8.2v1h-3.4v-.8h-.1Z"/>
  </g>
  <g class="cls-21">
    <path class="cls-18" d="M83,379.9v-1.1h2.6v.9c.3-.3.6-.6.9-.7.3-.2.7-.3,1.1-.3s.8.1,1.1.3c.3.2.5.5.7.8.2-.3.5-.6.8-.8s.7-.3,1.1-.3c.6,0,1.1.2,1.5.7.4.4.6,1.1.6,2v2.7l.8.2v1h-3.3v-1l.8-.2v-2.7c0-.5,0-.8-.2-1-.2-.2-.4-.3-.7-.3s-.5.1-.6.2c-.2.1-.3.3-.4.5v3.4l.7.2v1h-3.5v-1l.7-.2v-2.7c0-.5,0-.8-.2-1-.2-.2-.4-.3-.7-.3s-.4,0-.6.1-.3.2-.4.4v3.5l.8.2v1h-3.3v-1l.8-.2v-4l-1.1-.3Z"/>
    <path class="cls-18" d="M94.5,384.3l.8-.2v-4l-.9-.2v-1.1h2.7v5.2l.8.2v1h-3.4v-.9ZM97.1,377.3h-1.7v-1.3h1.7v1.3Z"/>
    <path class="cls-18" d="M101.1,377.3v1.6h1.1v1.2h-1.1v3.3c0,.3,0,.4.2.5s.2.2.4.2h.3c0,0,.2,0,.3-.1v1.3c0,.1-.3.1-.5.1h-.6c-.6,0-1.1-.2-1.4-.5s-.5-.9-.5-1.6v-3.3h-1v-1.2h1v-1.6h1.8Z"/>
    <path class="cls-18" d="M110,376.7c1,0,1.8.2,2.3.7.6.5.8,1.1.8,1.9s0,.8-.4,1.1c-.2.3-.6.6-1,.8.5.2.9.4,1.1.8s.3.8.3,1.3v.4c0,.2,0,.3,0,.4s.2.2.4.2h.2v1.1h-.8c-.6,0-1-.2-1.2-.5s-.3-.7-.3-1.2v-.5c0-.4,0-.8-.3-1s-.5-.4-1-.4h-1.4v2.3l.9.2v1h-3.6v-1l.9-.2v-6.2l-.9-.2v-1.1h3.9ZM108.7,380.5h1.2c.5,0,.9-.1,1.1-.3s.4-.5.4-.9,0-.7-.4-.9c-.2-.2-.6-.3-1.1-.3h-1.2v2.4Z"/>
    <path class="cls-18" d="M114.5,382.1c0-1,.3-1.8.8-2.4s1.3-.9,2.2-.9,1.7.3,2.2.9.8,1.4.8,2.4h0c0,1.1-.3,1.9-.8,2.5s-1.3.9-2.2.9-1.7-.3-2.3-.9c-.5-.6-.8-1.4-.8-2.4h0c0-.1.1-.1.1-.1ZM116.3,382.2c0,.6,0,1.1.3,1.4.2.4.5.5,1,.5s.8-.2,1-.5c.2-.4.3-.8.3-1.4h0c0-.7,0-1.1-.3-1.5-.2-.4-.5-.5-1-.5s-.8.2-1,.5c-.2.4-.3.8-.3,1.4h0Z"/>
    <path class="cls-18" d="M121.4,382.1c0-1,.3-1.8.8-2.4s1.3-.9,2.2-.9,1.7.3,2.2.9.8,1.4.8,2.4h0c0,1.1-.3,1.9-.8,2.5s-1.3.9-2.2.9-1.7-.3-2.3-.9c-.5-.6-.8-1.4-.8-2.4h0c0-.1.1-.1.1-.1ZM123.1,382.2c0,.6,0,1.1.3,1.4.2.4.5.5,1,.5s.8-.2,1-.5c.2-.4.3-.8.3-1.4h0c0-.7,0-1.1-.3-1.5-.2-.4-.5-.5-1-.5s-.8.2-1,.5c-.2.4-.3.8-.3,1.4h0Z"/>
    <path class="cls-18" d="M130.8,377.3v1.6h1.1v1.2h-1.1v3.3c0,.3.1.4.2.5s.2.2.4.2h.3c.1,0,.2,0,.3-.1v1.3c0,.1-.3.1-.5.1h-.6c-.6,0-1.1-.2-1.4-.5-.3-.3-.5-.9-.5-1.6v-3.3h-1v-1.2h1v-1.6h1.8Z"/>
  </g>
  <path class="cls-1" d="M42,63.1c-2.8,0-5.3,1.9-6,4.7h-13.3l-1.6,1.6,1.4,1.3,1.9,1.9,1.7-1.7,1,1,1.1-1.1h.2l1.8,1.8,1.8-1.8h4c.8,3.3,4.2,5.3,7.5,4.5s5.3-4.2,4.5-7.5c-.7-2.8-3.2-4.8-6-4.7h0Z"/>
  <g class="cls-21">
    <path class="cls-18" d="M460.6,105.7h.6c0,0,2.6-7.7,2.6-7.7h1.8l2.6,7.6h.6v1.1h-3v-1h.6c0,0-.4-1.3-.4-1.3h-2.8l-.4,1.2h.6v1.1h-3v-1h.2ZM463.7,103.1h2l-1-3.1h0l-1,3.1Z"/>
    <path class="cls-18" d="M469.4,105.7l.8-.2v-4l-.9-.2v-1.1h2.6v.9c.3-.3.6-.6.9-.8.3-.2.7-.3,1.1-.3.7,0,1.2.2,1.5.6.4.4.5,1.1.5,1.9v2.8l.8.2v1h-3.3v-1l.7-.2v-2.8c0-.4-.1-.7-.3-.9-.2-.2-.4-.3-.8-.3s-.4,0-.6,0-.3.2-.5.4v3.5l.7.2v1h-3.3v-.8h0Z"/>
    <path class="cls-18" d="M486.5,101.3h-.7c0,0-1.4,5.4-1.4,5.4h-1.4l-1.2-3.8h0l-1.2,3.8h-1.5l-1.4-5.3h-.7v-1.2h2.9v1.1h-.7c0,0,.6,3.1.6,3.1h0l1.2-4.1h1.2l1.2,4.2h0l.6-3h-.7v-1.2h2.9v1h.3Z"/>
    <path class="cls-18" d="M490.2,106.8c-.9,0-1.7-.3-2.2-.9s-.8-1.4-.8-2.3v-.2c0-1,.3-1.8.8-2.4s1.2-.9,2.1-.9,1.5.3,2,.8.7,1.2.7,2.1v1h-3.9c0,.4.2.8.4,1.1.3.3.6.4,1,.4s.7,0,1,0,.5-.2.8-.4l.5,1.1c-.3.2-.6.4-1,.5-.4.2-.9.2-1.4.2ZM490,101.5c-.3,0-.6,0-.8.4-.2.2-.3.6-.3,1h2.1v-.2c0-.4-.1-.7-.3-.9-.1-.2-.3-.3-.7-.3Z"/>
  </g>
  <g class="cls-21">
    <path class="cls-18" d="M493.5,105.7l.8-.2v-4l-.9-.2v-1.1h2.6v.9c.3-.3.6-.6.9-.8.3-.2.7-.3,1.1-.3.7,0,1.2.2,1.5.6.4.4.5,1.1.5,1.9v2.8l.8.2v1h-3.3v-1l.7-.2v-2.8c0-.4-.1-.7-.3-.9-.2-.2-.4-.3-.8-.3s-.4,0-.6,0-.3.2-.5.4v3.5l.7.2v1h-3.3v-.8h0Z"/>
  </g>
  <g class="cls-21">
    <path class="cls-18" d="M505.5,105.9c-.2.3-.4.5-.7.7-.3.2-.6.2-.9.2-.8,0-1.4-.3-1.9-.9-.4-.6-.7-1.4-.7-2.3h0c0-1.1.2-1.9.7-2.6.4-.6,1.1-.9,1.9-.9s.6,0,.9.2.5.3.7.6v-2.3l-.9-.2v-1.1h2.6v8.1l.8.2v1h-2.3l-.2-.7ZM503.1,103.7c0,.6.1,1,.3,1.3.2.3.5.5.9.5s.5,0,.7-.2.3-.3.5-.4v-2.7c-.1-.2-.3-.4-.5-.5s-.4-.2-.7-.2-.7.2-.9.6c-.2.4-.3.9-.3,1.5h0Z"/>
    <path class="cls-18" d="M513.1,105.9c-.2.3-.5.5-.8.7s-.7.2-1,.2c-.7,0-1.2-.2-1.6-.7-.4-.4-.6-1.1-.6-2v-2.7l-.7-.2v-1.1h2.4v3.9c0,.5.1.8.2,1s.4.3.7.3.5,0,.7,0,.4-.2.5-.4v-3.5l-.8-.2v-1.1h2.5v5.2l.8.2v1h-2.3v-.5Z"/>
  </g>
  <g class="cls-21">
    <path class="cls-18" d="M516.1,105.7l.8-.2v-4l-.9-.2v-1.1h2.6v.9c.3-.3.6-.6.9-.8.3-.2.7-.3,1.1-.3.7,0,1.2.2,1.5.6.4.4.5,1.1.5,1.9v2.8l.8.2v1h-3.3v-1l.7-.2v-2.8c0-.4,0-.7-.3-.9-.2-.2-.4-.3-.8-.3s-.4,0-.6,0c-.2,0-.3.2-.5.4v3.5l.7.2v1h-3.3v-.8h.1Z"/>
  </g>
  <g class="cls-21">
    <path class="cls-18" d="M524,103.5c0-1,.2-1.8.7-2.5.4-.6,1.1-.9,1.9-.9s.7,0,1,.2c.3.2.5.4.7.7v-.8h1.6v6.3c0,.9-.3,1.5-.8,2s-1.3.8-2.2.8-.7,0-1,0c-.4,0-.7-.2-1-.4l.3-1.2c.3,0,.6.2.8.3.3,0,.6,0,.9,0s.7,0,1-.4c.2-.3.3-.6.3-1.1v-.4c-.2.2-.4.4-.7.6-.3,0-.6.2-.9.2-.8,0-1.4-.3-1.9-.9s-.7-1.4-.7-2.3v-.2h0ZM525.8,103.7c0,.6,0,1,.3,1.3s.5.5.9.5.5,0,.7,0,.3-.2.4-.4v-2.8c0-.2-.3-.3-.4-.5-.2,0-.4-.2-.7-.2s-.7.2-.9.6-.3.9-.3,1.5h0Z"/>
  </g>
  <g class="cls-21">
    <path class="cls-18" d="M183.8,59.3v-1.1h3.6v1.1l-.9.2v6.2l.9.2v1h-3.6v-1l.9-.2v-6.2l-.9-.2Z"/>
    <path class="cls-18" d="M188,65.9l.8-.2v-4l-.9-.2v-1.1h2.6v.9c.3-.3.6-.6.9-.8s.7-.3,1.1-.3c.7,0,1.2.2,1.5.6.4.4.5,1.1.5,1.9v2.8l.8.2v1h-3.3v-1l.7-.2v-2.8c0-.4-.1-.7-.3-.9s-.4-.3-.8-.3-.4,0-.6,0c-.2,0-.3.2-.5.4v3.5l.7.2v1h-3.2v-.8Z"/>
    <path class="cls-18" d="M198.5,58.9v1.6h1.1v1.2h-1.1v3.3c0,.3.1.4.2.5s.2.2.4.2h.3c.1,0,.2,0,.3,0v1.3c0,0-.3,0-.5,0h-.6c-.6,0-1.1-.2-1.4-.5-.3-.3-.5-.9-.5-1.6v-3.3h-1v-1.2h1v-1.6h1.8Z"/>
    <path class="cls-18" d="M203.5,67.1c-.9,0-1.7-.3-2.2-.9s-.8-1.4-.8-2.3v-.2c0-1,.3-1.8.8-2.4.5-.6,1.2-.9,2.1-.9s1.5.3,2,.8.7,1.2.7,2.1v1h-3.9c0,.4.2.8.4,1.1.3.3.6.4,1,.4s.7,0,1,0,.5-.2.8-.4l.5,1.1c-.3.2-.6.4-1,.5-.4.1-.8.2-1.4.2ZM203.4,61.7c-.3,0-.6,0-.8.4-.2.2-.3.6-.3,1h2.1c0-.5-.1-.8-.3-1,0-.3-.4-.4-.7-.4Z"/>
    <path class="cls-18" d="M206.8,58.7v-1.1h2.7v8.1l.8.2v1h-3.4v-1l.8-.2v-6.9h-.9Z"/>
    <path class="cls-18" d="M220.4,61.1h-1.3l-.2-1.2c-.2,0-.4-.2-.7-.3s-.6,0-.9,0c-.5,0-.8,0-1.1.3s-.4.5-.4.8.1.5.4.7c.3.2.7.4,1.4.6,1,.3,1.7.6,2.2,1.1.5.4.7,1,.7,1.7s-.3,1.3-.9,1.8c-.6.4-1.4.6-2.3.6s-1.3,0-1.9-.3c-.6-.2-1-.5-1.4-.9v-1.8h1.4l.2,1.2c.2,0,.4.3.7.4s.6,0,1,0,.8,0,1.1-.3.4-.5.4-.8-.1-.6-.4-.8c-.2-.2-.7-.4-1.2-.6-1-.3-1.8-.7-2.3-1.1-.5-.4-.8-1-.8-1.7s.3-1.3.9-1.7,1.3-.7,2.3-.7,1.3,0,1.8.3,1,.5,1.4.8v1.9h0Z"/>
    <path class="cls-18" d="M228.5,66c-.3.3-.7.5-1.2.8-.5.2-1.2.3-2.1.3s-2.1-.4-2.9-1.2-1.1-1.8-1.1-3.1v-.3c0-1.3.4-2.4,1.1-3.2.7-.8,1.7-1.2,2.8-1.2s1.3,0,1.9.3c.6.2,1,.5,1.4.9v1.8h-1.3l-.2-1.2c-.2,0-.4-.2-.6-.3-.3,0-.6,0-.9,0-.8,0-1.4.3-1.8.8-.4.6-.6,1.3-.6,2.2v.3c0,.9.2,1.6.6,2.1.4.5,1,.8,1.8.8s.6,0,.9,0c.2,0,.4,0,.5-.2v-1.4h-1.2v-1.3h3v3.3h0Z"/>
    <path class="cls-18" d="M229.2,65.9h.7c0,0,2.3-3.3,2.3-3.3l-2.2-3.1h-.7v-1.2h3.3v1.1h-.7c0,0,1.3,2.2,1.3,2.2l1.4-2.1h-.7v-1.2h3.4v1.1h-.7c0,0-2.2,3.2-2.2,3.2l2.3,3.2h.8v1.1h-3.5v-1h.7c0,0-1.4-2.3-1.4-2.3l-1.4,2.2h.7v1.1h-3.4v-1h0Z"/>
    <path class="cls-18" d="M246.5,63.2h-2.9v2.5h2.8v-1h1.4v2.3h-6.9v-1l.9-.2v-6.2l-.9-.2v-1.1h6.8v2.4h-1.3v-1h-2.9v2.2h2.9v1.3h.1Z"/>
    <path class="cls-18" d="M248.7,65.9l.8-.2v-4l-.9-.2v-1.1h2.6v.9c.3-.3.6-.6.9-.8s.7-.3,1.1-.3c.7,0,1.2.2,1.5.6.4.4.5,1.1.5,1.9v2.8l.8.2v1h-3.3v-1l.7-.2v-2.8c0-.4-.1-.7-.3-.9s-.4-.3-.8-.3-.4,0-.6,0-.3.2-.5.4v3.5l.7.2v1h-3.3v-.8h0Z"/>
    <path class="cls-18" d="M256.4,58.7v-1.1h2.7v5.4h.4l1-1.4h-.6v-1.2h3.2v1.1l-.8.2-1.2,1.6,1.6,2.5h.7v1.1h-3v-1h.4c0,0-1-1.7-1-1.7h-.8v1.5l.8.2v1h-3.3v-1l.8-.2v-6.9h-.9Z"/>
    <path class="cls-18" d="M263.8,58.7v-1.1h2.7v8.1l.8.2v1h-3.4v-1l.8-.2v-6.9h-.9Z"/>
  </g>
  <g class="cls-21">
    <path class="cls-18" d="M272.1,67c0,0-.1-.2-.1-.3s-.1-.2-.1-.3c-.2.2-.5.4-.8.6s-.6.2-1,.2c-.6,0-1.1-.2-1.5-.5s-.6-.8-.6-1.4.2-1.1.7-1.4c.5-.3,1.2-.5,2.1-.5h.9v-.6c0-.3-.1-.6-.3-.7-.2-.2-.4-.3-.8-.3s-.4,0-.5,0c-.2,0-.3,0-.4.2v.7h-1.4v-1.4c.3-.2.7-.4,1.1-.5s.9-.2,1.3-.2c.8,0,1.5.2,2,.6.5.4.8,1,.8,1.7v3.3h.5v1.1h-1.9v-.4ZM270.6,65.8c.3,0,.5,0,.7-.2s.4-.3.5-.4v-1h-.9c-.4,0-.7,0-.8.3s-.3.4-.3.6.1.4.2.5c0,.2.3.2.6.2Z"/>
  </g>
  <g class="cls-21">
    <path class="cls-18" d="M277.3,61.6h-.6c0,0,.9,3,.9,3v.6h.1v-.6c.1,0,.9-2.9.9-2.9h-.6v-1.2h2.9v1.1h-.6c0,0-1.9,5.4-1.9,5.4h-1.7l-1.9-5.3h-.6v-1.2h2.9v1.1h.2Z"/>
  </g>
  <g class="cls-21">
    <path class="cls-18" d="M284.6,67.1c-.9,0-1.7-.3-2.2-.9-.6-.6-.8-1.4-.8-2.3v-.2c0-1,.3-1.8.8-2.4.5-.6,1.2-.9,2.1-.9s1.5.3,2,.8.7,1.2.7,2.1v1h-3.9c0,.4.2.8.4,1.1.3.3.6.4,1,.4s.7,0,1,0,.5-.2.8-.4l.5,1.1c-.3.2-.6.4-1,.5s-.9.2-1.4.2ZM284.4,61.7c-.3,0-.6,0-.8.4-.2.2-.3.6-.3,1h2.1c0-.5-.1-.8-.3-1-.1-.3-.3-.4-.7-.4Z"/>
  </g>
  <g class="cls-21">
    <path class="cls-16" d="M200.7,102.7h.6c0,0,2.6-7.7,2.6-7.7h1.8l2.6,7.6h.6v1.1h-3v-1h.6c0,0-.4-1.3-.4-1.3h-2.8l-.4,1.2h.6v1.1h-3v-1h.2ZM203.9,100.1h2l-1-3.1h0l-1,3.1Z"/>
    <path class="cls-16" d="M209.5,102.7l.8-.2v-4l-.9-.2v-1.1h2.6v.9c.3-.3.6-.6.9-.8.3-.2.7-.3,1.1-.3.7,0,1.2.2,1.5.6s.5,1.1.5,1.9v2.8l.8.2v1h-3.3v-1l.7-.2v-2.8c0-.4-.1-.7-.3-.9-.2-.2-.4-.3-.8-.3s-.4,0-.6,0c-.2,0-.3.2-.5.4v3.5l.7.2v1h-3.3v-.8h0Z"/>
    <path class="cls-16" d="M226.6,98.4h-.7c0,0-1.4,5.4-1.4,5.4h-1.5l-1.2-3.8h0l-1.2,3.8h-1.5l-1.4-5.3h-.7v-1.2h2.9v1.1h-.7c0,0,.6,3.1.6,3.1h0l1.2-4.1h1.2l1.2,4.2h0l.6-3h-.7v-1.2h2.9v1h.4Z"/>
    <path class="cls-16" d="M230.3,103.9c-.9,0-1.7-.3-2.2-.9-.6-.6-.8-1.4-.8-2.3v-.2c0-1,.3-1.8.8-2.4s1.2-.9,2.1-.9,1.5.3,2,.8.7,1.2.7,2.1v1h-3.9c0,.4.2.8.4,1.1.3.3.6.4,1,.4s.7,0,1,0,.5-.2.8-.4l.5,1.1c-.3.2-.6.4-1,.5s-.9.2-1.4.2ZM230.1,98.5c-.3,0-.6,0-.8.4-.2.2-.3.6-.3,1h2.1v-.2c0-.4-.1-.7-.3-.9,0-.2-.3-.3-.7-.3Z"/>
  </g>
  <g class="cls-21">
    <path class="cls-16" d="M233.6,102.7l.8-.2v-4l-.9-.2v-1.1h2.6v.9c.3-.3.6-.6.9-.8.3-.2.7-.3,1.1-.3.7,0,1.2.2,1.5.6s.5,1.1.5,1.9v2.8l.8.2v1h-3.3v-1l.7-.2v-2.8c0-.4-.1-.7-.3-.9-.2-.2-.4-.3-.8-.3s-.4,0-.6,0c-.2,0-.3.2-.5.4v3.5l.7.2v1h-3.3v-.8h0Z"/>
  </g>
  <g class="cls-21">
    <path class="cls-16" d="M245.6,103c-.2.3-.4.5-.7.7s-.6.2-.9.2c-.8,0-1.4-.3-1.9-.9-.4-.6-.7-1.4-.7-2.3h0c0-1.1.2-1.9.7-2.6.4-.6,1.1-.9,1.9-.9s.6,0,.9.2c.3,0,.5.3.7.6v-2.3l-.9-.2v-1.1h2.6v8.1l.8.2v1h-2.3l-.2-.7ZM243.2,100.7c0,.6.1,1,.3,1.3s.5.5.9.5.5,0,.7-.2.3-.3.5-.4v-2.7c-.1-.2-.3-.4-.5-.5s-.4-.2-.7-.2-.7.2-.9.6-.3.9-.3,1.5h0Z"/>
    <path class="cls-16" d="M253.2,103c-.2.3-.5.5-.8.7s-.7.2-1,.2c-.7,0-1.2-.2-1.6-.7-.4-.4-.6-1.1-.6-2v-2.7l-.7-.2v-1.1h2.4v3.9c0,.5.1.8.2,1s.4.3.7.3.5,0,.7,0,.4-.2.5-.4v-3.5l-.8-.2v-1.1h2.5v5.2l.8.2v1h-2.3v-.5Z"/>
  </g>
  <g class="cls-21">
    <path class="cls-16" d="M256.2,102.7l.8-.2v-4l-.9-.2v-1.1h2.6v.9c.3-.3.6-.6.9-.8.3-.2.7-.3,1.1-.3.7,0,1.2.2,1.5.6s.5,1.1.5,1.9v2.8l.8.2v1h-3.3v-1l.7-.2v-2.8c0-.4-.1-.7-.3-.9-.2-.2-.4-.3-.8-.3s-.4,0-.6,0-.3.2-.5.4v3.5l.7.2v1h-3.3v-.8h0Z"/>
  </g>
  <g class="cls-21">
    <path class="cls-16" d="M264.1,100.6c0-1,.2-1.8.7-2.5.4-.6,1.1-.9,1.9-.9s.7,0,1,.2c.3.2.5.4.7.7v-.8h1.6v6.3c0,.9-.3,1.5-.8,2s-1.3.8-2.2.8-.7,0-1,0-.7-.2-1-.4l.3-1.2c.3,0,.6.2.8.3.3,0,.6,0,.9,0s.7,0,1-.4c.2-.3.3-.6.3-1.1v-.4c-.2.2-.4.4-.7.6-.3,0-.6.2-.9.2-.8,0-1.4-.3-1.9-.9s-.7-1.4-.7-2.3v-.2h0ZM265.9,100.7c0,.6.1,1,.3,1.3.2.3.5.5.9.5s.5,0,.7,0,.3-.2.4-.4v-2.8c-.1-.2-.3-.3-.4-.5-.2,0-.4-.2-.7-.2s-.7.2-.9.6c-.2.4-.3.9-.3,1.5h0Z"/>
  </g>
  <g class="cls-21">
    <path class="cls-16" d="M165.1,147.2h.6c0-.1,2.6-7.7,2.6-7.7h1.8l2.6,7.6h.6v1.1h-3v-1h.6c0-.1-.4-1.3-.4-1.3h-2.8l-.4,1.2h.6v1.1h-3v-1h.2ZM168.3,144.6h2l-1-3.1h0l-1,3.1Z"/>
    <path class="cls-16" d="M174,147.2l.8-.2v-4l-.9-.2v-1.1h2.6v.9c.3-.3.6-.6.9-.8s.7-.3,1.1-.3c.7,0,1.2.2,1.5.6s.5,1.1.5,1.9v2.8l.8.2v1h-3.3v-1l.7-.2v-2.8c0-.4-.1-.7-.3-.9s-.4-.3-.8-.3-.4,0-.6.1c-.2.1-.3.2-.5.4v3.5l.7.2v1h-3.2v-.8Z"/>
    <path class="cls-16" d="M191,142.8h-.7c0,.1-1.4,5.4-1.4,5.4h-1.5l-1.2-3.8h0l-1.2,3.8h-1.5l-1.4-5.3h-.7v-1.2h2.9v1.1h-.7c0,.1.6,3.1.6,3.1h0l1.2-4.1h1.2l1.2,4.2h0l.6-3h-.7v-1.2h2.9v1h.4Z"/>
    <path class="cls-16" d="M194.7,148.4c-.9,0-1.7-.3-2.2-.9-.6-.6-.8-1.4-.8-2.3v-.2c0-1,.3-1.8.8-2.4.5-.6,1.2-.9,2.1-.9s1.5.3,2,.8.7,1.2.7,2.1v1h-3.9c0,.4.2.8.4,1.1.3.3.6.4,1,.4s.7,0,1-.1.5-.2.8-.4l.5,1.1c-.3.2-.6.4-1,.5s-.9.2-1.4.2ZM194.6,143c-.3,0-.6.1-.8.4-.2.2-.3.6-.3,1h2.1v-.2c0-.4-.1-.7-.3-.9-.1-.2-.4-.3-.7-.3Z"/>
  </g>
  <g class="cls-21">
    <path class="cls-16" d="M198.1,147.2l.8-.2v-4l-.9-.2v-1.1h2.6v.9c.3-.3.6-.6.9-.8s.7-.3,1.1-.3c.7,0,1.2.2,1.5.6.4.4.5,1.1.5,1.9v2.8l.8.2v1h-3.4v-1l.7-.2v-2.8c0-.4-.1-.7-.3-.9s-.4-.3-.8-.3-.4,0-.6.1c-.2.1-.3.2-.5.4v3.5l.7.2v1h-3.3v-.8h.2Z"/>
  </g>
  <g class="cls-21">
    <path class="cls-16" d="M210.1,147.5c-.2.3-.4.5-.7.7s-.6.2-.9.2c-.8,0-1.4-.3-1.9-.9s-.7-1.4-.7-2.3h0c0-1.1.2-1.9.7-2.6.4-.6,1.1-.9,1.9-.9s.6.1.9.2.5.3.7.6v-2.3l-1.1-.2v-1.1h2.6v8.1l.8.2v1h-2.3v-.7ZM207.6,145.2c0,.6.1,1,.3,1.3s.5.5.9.5.5-.1.7-.2c.2-.1.3-.3.5-.4v-2.7c-.1-.2-.3-.4-.5-.5s-.4-.2-.7-.2-.7.2-.9.6c-.2.4-.3.9-.3,1.5h0Z"/>
    <path class="cls-16" d="M217.6,147.4c-.2.3-.5.5-.8.7s-.7.2-1,.2c-.7,0-1.2-.2-1.6-.7-.4-.4-.6-1.1-.6-2v-2.6l-.7-.2v-1.1h2.4v3.9c0,.5.1.8.2,1s.4.3.7.3.5,0,.7-.1.4-.2.5-.4v-3.4l-.8-.2v-1.1h2.5v5.2l.8.2v1h-2.3v-.7Z"/>
  </g>
  <g class="cls-21">
    <path class="cls-16" d="M220.7,147.2l.8-.2v-4l-.9-.2v-1.1h2.6v.9c.3-.3.6-.6.9-.8s.7-.3,1.1-.3c.7,0,1.2.2,1.5.6s.5,1.1.5,1.9v2.8l.8.2v1h-3.3v-1l.7-.2v-2.8c0-.4-.1-.7-.3-.9s-.4-.3-.8-.3-.4,0-.6.1c-.2.1-.3.2-.5.4v3.5l.7.2v1h-3.3v-.8h0Z"/>
  </g>
  <g class="cls-21">
    <path class="cls-16" d="M228.6,145.1c0-1,.2-1.8.7-2.5.4-.6,1.1-.9,1.9-.9s.7.1,1,.2c.3.2.5.4.7.7v-.8h1.6v6.3c0,.9-.3,1.5-.8,2s-1.3.8-2.2.8-.7,0-1-.1-.7-.2-1-.4l.3-1.2c.3.1.6.2.8.3.3.1.6.1.9.1s.7-.1,1-.4c.2-.3.3-.6.3-1.1v-.4c-.2.2-.4.4-.7.6-.3.1-.6.2-.9.2-.8,0-1.4-.3-1.9-.9s-.7-1.4-.7-2.3v-.2h0ZM230.3,145.2c0,.6.1,1,.3,1.3s.5.5.9.5.5,0,.7-.1.3-.2.4-.4v-2.8c-.1-.2-.3-.3-.4-.5-.2-.1-.4-.2-.7-.2s-.7.2-.9.6c-.2.4-.3.9-.3,1.5h0Z"/>
    <path class="cls-16" d="M240.7,144h-1.2l-.2-.8c-.1-.1-.3-.2-.5-.2-.2-.1-.4-.1-.6-.1-.3,0-.5.1-.7.2s-.3.3-.3.5.1.4.3.5.5.2,1,.3c.8.2,1.4.4,1.8.7.4.3.6.7.6,1.3s-.3,1.1-.8,1.4c-.5.4-1.2.6-2,.6s-1-.1-1.4-.2-.8-.4-1.1-.6v-1.5h1.2l.2.8c.1.1.2.2.4.2s.4.1.6.1c.4,0,.6-.1.8-.2.2-.1.3-.3.3-.5s-.1-.4-.3-.5-.5-.3-1-.4c-.8-.2-1.3-.4-1.7-.7s-.6-.7-.6-1.2.2-1,.7-1.4,1.1-.6,1.9-.6,1,.1,1.4.2.8.3,1.1.5v1.6Z"/>
    <path class="cls-16" d="M245.5,145.2h-3.4v-1.3h3.4v1.3Z"/>
    <path class="cls-16" d="M250.5,139.5c1,0,1.8.2,2.4.6s.9,1,.9,1.8-.1.8-.3,1.1-.5.6-.9.7c.5.1.9.4,1.2.7.3.4.4.8.4,1.3,0,.8-.3,1.5-.8,1.9s-1.3.6-2.3.6h-4.3v-1l.9-.2v-6.2l-.9-.2v-1.1h3.7ZM249.3,143.2h1.3c.5,0,.8-.1,1.1-.3s.4-.5.4-.8-.1-.7-.4-.9-.6-.3-1.1-.3h-1.2v2.3h-.1ZM249.3,144.4v2.5h1.6c.5,0,.8-.1,1.1-.3.2-.2.4-.5.4-.9s-.1-.8-.3-1-.5-.3-1-.3h-1.8Z"/>
    <path class="cls-16" d="M254.7,147.2l.8-.2v-4l-.9-.2v-1.1h2.7v5.2l.8.2v1h-3.4v-.9h0ZM257.3,140.2h-1.7v-1.3h1.7v1.3Z"/>
  </g>
  <g class="cls-21">
    <path class="cls-16" d="M264.9,145.2c0,1-.2,1.7-.6,2.3s-1.1.9-1.9.9-.7-.1-1-.2c-.3-.2-.5-.4-.7-.7v.8h-1.6v-8.1l-.9-.2v-1.1h2.7v3.5c.2-.3.4-.5.7-.6.3-.1.6-.2.9-.2.8,0,1.4.3,1.9.9.4.6.6,1.4.6,2.5v.2h-.1ZM263.2,145.1c0-.6-.1-1.1-.3-1.5-.2-.4-.5-.6-.9-.6s-.5.1-.7.2c-.2.1-.3.3-.4.5v2.7c.1.2.3.4.4.5.2.1.4.2.7.2.5,0,.8-.2.9-.5.2-.3.3-.8.3-1.3v-.2Z"/>
  </g>
  <g class="cls-21">
    <path class="cls-16" d="M265.4,140v-1.1h2.7v8.1l.8.2v1h-3.4v-1l.8-.2v-6.9h-.9Z"/>
    <path class="cls-16" d="M269.5,147.2l.8-.2v-4l-.9-.2v-1.1h2.7v5.2l.8.2v1h-3.4v-.9ZM272.1,140.2h-1.7v-1.3h1.7v1.3Z"/>
    <path class="cls-16" d="M273.5,144.9c0-1,.3-1.8.8-2.4.5-.6,1.3-.9,2.2-.9s1.7.3,2.2.9c.5.6.8,1.4.8,2.4h0c0,1.1-.3,1.9-.8,2.5s-1.3.9-2.2.9-1.7-.3-2.3-.9-.8-1.4-.8-2.4h0c0-.1,0-.1,0-.1ZM275.2,145.1c0,.6.1,1.1.3,1.4s.5.5,1,.5.8-.2,1-.5.3-.8.3-1.4h0c0-.7-.1-1.1-.3-1.5-.2-.4-.5-.5-1-.5s-.8.2-1,.5c-.2.4-.3.8-.3,1.4h0Z"/>
    <path class="cls-16" d="M282.9,140.2v1.6h1.1v1.2h-1.1v3.3c0,.3.1.4.2.5s.2.2.4.2h.3c.1,0,.2,0,.3-.1v1.3c-.1.1-.3.1-.5.1h-.6c-.6,0-1.1-.2-1.4-.5s-.5-.9-.5-1.6v-3.2h-1v-1.2h1v-1.6h1.8Z"/>
  </g>
  <g class="cls-21">
    <path class="cls-16" d="M284.8,147.2l.8-.2v-6.9l-.9-.2v-1.1h2.7v3.7c.2-.3.5-.5.7-.7.3-.2.6-.2,1-.2.7,0,1.2.2,1.6.7.4.4.6,1.1.6,2.1v2.6l.8.2v1h-3.3v-1l.8-.2v-2.6c0-.5-.1-.9-.3-1.1-.2-.2-.4-.3-.8-.3s-.5,0-.6.1c-.2.1-.3.2-.5.4v3.5l.8.2v1h-3.3v-1h-.1Z"/>
  </g>
  <g class="cls-21">
    <path class="cls-16" d="M295.7,148.4c-.9,0-1.7-.3-2.2-.9-.6-.6-.8-1.4-.8-2.3v-.2c0-1,.3-1.8.8-2.4.5-.6,1.2-.9,2.1-.9s1.5.3,2,.8.7,1.2.7,2.1v1h-3.9c0,.4.2.8.4,1.1.3.3.6.4,1,.4s.7,0,1-.1.5-.2.8-.4l.5,1.1c-.3.2-.6.4-1,.5-.4,0-.9.2-1.4.2ZM295.6,143c-.3,0-.6.1-.8.4s-.3.6-.3,1h2.1v-.2c0-.4-.1-.7-.3-.9-.1-.2-.4-.3-.7-.3Z"/>
    <path class="cls-16" d="M299,140v-1.1h2.7v5.4h.4l1-1.4h-.6v-1.2h3.2v1.1l-.8.2-1.2,1.6,1.6,2.5h.7v1.1h-3v-1h.4c0-.1-1-1.7-1-1.7h-.7v1.5l.8.2v1h-3.5v-1l.8-.2v-6.9h-.8Z"/>
  </g>
  <circle class="cls-12" cx="285.4" cy="228.9" r="7.8"/>
  <line class="cls-12" x1="290.9" y1="234.4" x2="279.9" y2="223.4"/>
  <circle class="cls-12" cx="107.3" cy="101.2" r="7.8"/>
  <line class="cls-12" x1="112.8" y1="106.7" x2="101.8" y2="95.7"/>
  <circle class="cls-12" cx="361.5" cy="101.5" r="7.8"/>
  <line class="cls-12" x1="367" y1="107" x2="356" y2="96"/>
  <circle class="cls-12" cx="252.2" cy="228.9" r="7.8"/>
  <line class="cls-12" x1="257.7" y1="234.4" x2="246.7" y2="223.4"/>
  <circle class="cls-12" cx="219" cy="228.9" r="7.8"/>
  <line class="cls-12" x1="224.5" y1="234.4" x2="213.5" y2="223.4"/>
  <circle class="cls-12" cx="185.8" cy="228.9" r="7.8"/>
  <line class="cls-12" x1="191.3" y1="234.4" x2="180.3" y2="223.4"/>
  <line class="cls-10" x1="381.1" y1="102.2" x2="412.4" y2="102.2"/>
  <polygon class="cls-16" points="387.8 110.3 389.1 108.9 381.9 102.2 389.1 95.4 387.8 94 379 102.2 387.8 110.3"/>
  <line class="cls-10" x1="85.8" y1="101.2" x2="54.6" y2="101.2"/>
  <polygon class="cls-16" points="79.2 93 77.9 94.4 85.1 101.2 77.9 107.9 79.2 109.3 88 101.2 79.2 93"/>
  <line class="cls-10" x1="495.4" y1="129.8" x2="495.4" y2="150.6"/>
  <polygon class="cls-16" points="487.2 136.4 488.7 137.8 495.4 130.6 502.1 137.8 503.6 136.4 495.4 127.7 487.2 136.4"/>
  <line class="cls-10" x1="152.3" y1="337.3" x2="131.5" y2="337.3"/>
  <polygon class="cls-16" points="145.7 329.2 144.3 330.6 151.6 337.3 144.3 344 145.7 345.5 154.5 337.3 145.7 329.2"/>
  <path class="cls-9" d="M169.2,276.7h132.6c2.8,0,5,2.2,5,5v20.6c0,2.8-2.2,5-5,5h-132.6c-2.8,0-5-2.2-5-5v-20.6c0-2.7,2.3-5,5-5Z"/>
  <g class="cls-21">
    <path class="cls-18" d="M192.6,290.2h-1.3l-.2-1.2c-.2-.2-.4-.3-.6-.4-.3-.1-.6-.1-.9-.1-.8,0-1.3.3-1.7.8s-.6,1.3-.6,2.2v.3c0,.9.2,1.6.6,2.2s1,.8,1.7.8.7,0,.9-.1c.3-.1.5-.2.7-.4l.2-1.2h1.3v1.7c-.4.4-.8.7-1.3,1s-1.2.4-1.8.4c-1.2,0-2.1-.4-2.9-1.2s-1.1-1.8-1.1-3.1v-.3c0-1.3.4-2.3,1.1-3.1.7-.8,1.7-1.2,2.9-1.2s1.3.1,1.8.4c.5.2,1,.6,1.3,1v1.5h0Z"/>
    <path class="cls-18" d="M193.4,292.6c0-1,.3-1.8.8-2.4s1.3-.9,2.2-.9,1.7.3,2.2.9.8,1.4.8,2.4h0c0,1.1-.3,1.9-.8,2.5s-1.3.9-2.2.9-1.7-.3-2.3-.9c-.5-.6-.8-1.4-.8-2.4h0c0-.1.1-.1.1-.1ZM195.2,292.8c0,.6.1,1.1.3,1.4.2.4.5.5,1,.5s.8-.2,1-.5c.2-.4.3-.8.3-1.4h0c0-.7-.1-1.1-.3-1.5s-.5-.5-1-.5-.8.2-1,.5c-.2.4-.3.8-.3,1.4h0Z"/>
    <path class="cls-18" d="M200.2,294.9l.8-.2v-4l-.9-.2v-1.1h2.6v.9c.3-.3.6-.6.9-.8.3-.2.7-.3,1.1-.3.7,0,1.2.2,1.5.6s.5,1.1.5,1.9v2.8l.8.2v1h-3.3v-1l.7-.2v-2.8c0-.4-.1-.7-.3-.9-.2-.2-.4-.3-.8-.3s-.4,0-.6.1c-.2.1-.3.2-.5.4v3.5l.7.2v1h-3.3v-.8h0Z"/>
    <path class="cls-18" d="M210.6,287.9v1.6h1.1v1.2h-1.1v3.3c0,.3.1.4.2.5s.2.2.4.2h.3c.1,0,.2,0,.3-.1v1.3c0,.1-.3.1-.5.1h-.6c-.6,0-1.1-.2-1.4-.5-.3-.3-.5-.9-.5-1.6v-3.3h-1v-1.2h1v-1.6h1.8Z"/>
    <path class="cls-18" d="M216.7,295.9c0-.1-.1-.2-.1-.3s-.1-.2-.1-.3c-.2.2-.5.4-.8.6s-.6.2-1,.2c-.6,0-1.1-.2-1.5-.5s-.6-.8-.6-1.4.2-1.1.7-1.4,1.2-.5,2.1-.5h.9v-.6c0-.3-.1-.6-.3-.7-.2-.2-.4-.3-.8-.3s-.4,0-.5.1c-.2,0-.3.1-.4.2v.7h-1.3v-1.4c.3-.2.7-.4,1.1-.5.4-.1.9-.2,1.3-.2.8,0,1.5.2,2,.6s.8,1,.8,1.7v3.3h.5v1.1h-2v-.4ZM215.2,294.8c.3,0,.5-.1.7-.2s.4-.3.5-.4v-1h-.9c-.4,0-.7.1-.8.3s-.3.4-.3.6.1.4.2.5c.2.1.4.2.6.2Z"/>
    <path class="cls-18" d="M219.3,294.9l.8-.2v-4l-.9-.2v-1.1h2.7v5.2l.8.2v1h-3.4v-.9h0ZM221.9,287.9h-1.7v-1.3h1.7v1.3Z"/>
  </g>
  <g class="cls-21">
    <path class="cls-18" d="M223.2,294.9l.8-.2v-4l-.9-.2v-1.1h2.6v.9c.3-.3.6-.6.9-.8.3-.2.7-.3,1.1-.3.7,0,1.2.2,1.5.6s.5,1.1.5,1.9v2.8l.8.2v1h-3.3v-1l.7-.2v-2.8c0-.4-.1-.7-.3-.9-.2-.2-.4-.3-.8-.3s-.4,0-.6.1c-.2.1-.3.2-.5.4v3.5l.7.2v1h-3.3v-.8h0Z"/>
  </g>
  <g class="cls-21">
    <path class="cls-18" d="M234.1,296.1c-.9,0-1.7-.3-2.2-.9-.6-.6-.8-1.4-.8-2.3v-.2c0-1,.3-1.8.8-2.4s1.2-.9,2.1-.9,1.5.3,2,.8.7,1.2.7,2.1v1h-3.9c0,.4.2.8.4,1.1.3.3.6.4,1,.4s.7,0,1-.1.5-.2.8-.4l.5,1.1c-.3.2-.6.4-1,.5s-.9.2-1.4.2ZM233.9,290.7c-.3,0-.6.1-.8.4-.2.2-.3.6-.3,1h2.1v-.2c0-.4-.1-.7-.3-.9,0-.2-.3-.3-.7-.3Z"/>
    <path class="cls-18" d="M237.6,294.9l.8-.2v-4l-.9-.2v-1.1h2.6v.9c.3-.3.4-.6.7-.8.2-.2.5-.3.8-.3h.3c.1,0,.2,0,.3.1l-.2,1.7h-.7c-.3,0-.5,0-.6.1-.2.1-.3.2-.4.4v3.1l.8.2v1h-3.4v-.9h-.1Z"/>
    <path class="cls-18" d="M251.2,292.1h-2.9v2.5h2.8v-1h1.4v2.4h-6.9v-1l.9-.2v-6.2l-.9-.2v-1.1h6.8v2.4h-1.3v-1h-2.9v2.2h2.9v1.2h.1Z"/>
  </g>
  <g class="cls-21">
    <path class="cls-18" d="M253.4,294.9l.8-.2v-4l-.9-.2v-1.1h2.6v.9c.3-.3.6-.6.9-.8.3-.2.7-.3,1.1-.3.7,0,1.2.2,1.5.6s.5,1.1.5,1.9v2.8l.8.2v1h-3.3v-1l.7-.2v-2.8c0-.4-.1-.7-.3-.9s-.4-.3-.8-.3-.4,0-.6.1-.3.2-.5.4v3.5l.7.2v1h-3.3v-.8h0Z"/>
  </g>
  <g class="cls-21">
    <path class="cls-18" d="M261.3,292.8c0-1,.2-1.8.7-2.5.4-.6,1.1-.9,1.9-.9s.7.1,1,.2c.3.2.5.4.7.7v-.8h1.6v6.3c0,.9-.3,1.5-.8,2s-1.3.8-2.2.8-.7,0-1-.1-.7-.2-1-.4l.3-1.2c.3.1.6.2.8.3.3.1.6.1.9.1s.7-.1,1-.4c.2-.3.3-.6.3-1.1v-.4c-.2.2-.4.4-.7.6-.3.1-.6.2-.9.2-.8,0-1.4-.3-1.9-.9s-.7-1.4-.7-2.3v-.2h0ZM263,292.9c0,.6.1,1,.3,1.3.2.3.5.5.9.5s.5,0,.7-.1.3-.2.4-.4v-2.8c-.1-.2-.3-.3-.4-.5-.2-.1-.4-.2-.7-.2s-.7.2-.9.6c-.2.4-.3.9-.3,1.5h0Z"/>
    <path class="cls-18" d="M268.1,294.9l.8-.2v-4l-.9-.2v-1.1h2.7v5.2l.8.2v1h-3.4v-.9ZM270.7,287.9h-1.7v-1.3h1.7v1.3Z"/>
  </g>
  <g class="cls-21">
    <path class="cls-18" d="M272,294.9l.8-.2v-4l-.9-.2v-1.1h2.6v.9c.3-.3.6-.6.9-.8.3-.2.7-.3,1.1-.3.7,0,1.2.2,1.5.6.4.4.5,1.1.5,1.9v2.8l.8.2v1h-3.3v-1l.7-.2v-2.8c0-.4-.1-.7-.3-.9s-.4-.3-.8-.3-.4,0-.6.1-.3.2-.5.4v3.5l.7.2v1h-3.2v-.8Z"/>
  </g>
  <g class="cls-21">
    <path class="cls-18" d="M282.9,296.1c-.9,0-1.7-.3-2.2-.9s-.8-1.4-.8-2.3v-.2c0-1,.3-1.8.8-2.4s1.2-.9,2.1-.9,1.5.3,2,.8.7,1.2.7,2.1v1h-3.9c0,.4.2.8.4,1.1.3.3.6.4,1,.4s.7,0,1-.1.5-.2.8-.4l.5,1.1c-.3.2-.6.4-1,.5-.4,0-.8.2-1.4.2ZM282.8,290.7c-.3,0-.6.1-.8.4-.2.2-.3.6-.3,1h2.1v-.2c0-.4-.1-.7-.3-.9-.1-.2-.4-.3-.7-.3Z"/>
  </g>
  <path class="cls-5" d="M169.2,322.4h132.6c2.8,0,5,2.2,5,5v20.6c0,2.8-2.2,5-5,5h-132.6c-2.8,0-5-2.2-5-5v-20.6c0-2.7,2.3-5,5-5Z"/>
  <g class="cls-21">
    <path class="cls-18" d="M194.5,332.9c1,0,1.8.2,2.4.6s.9,1,.9,1.8-.1.8-.3,1.1c-.2.3-.5.6-.9.7.5.1.9.4,1.2.7.3.4.4.8.4,1.3,0,.8-.3,1.5-.8,1.9s-1.3.6-2.3.6h-4.3v-1l.9-.2v-6.2l-.9-.2v-1.1h3.7ZM193.3,336.6h1.3c.5,0,.8-.1,1.1-.3s.4-.5.4-.8-.1-.7-.4-.9-.6-.3-1.1-.3h-1.2v2.3h-.1ZM193.3,337.8v2.5h1.6c.5,0,.8-.1,1.1-.3.2-.2.4-.5.4-.9s-.1-.8-.3-1-.5-.3-1-.3h-1.8Z"/>
    <path class="cls-18" d="M201.9,341.7c-.9,0-1.7-.3-2.2-.9-.6-.6-.8-1.4-.8-2.3v-.2c0-1,.3-1.8.8-2.4s1.2-.9,2.1-.9,1.5.3,2,.8.7,1.2.7,2.1v1h-3.9c0,.4.2.8.4,1.1.3.3.6.4,1,.4s.7,0,1-.1.5-.2.8-.4l.5,1.1c-.3.2-.6.4-1,.5s-.9.2-1.4.2ZM201.7,336.4c-.3,0-.6.1-.8.4-.2.2-.3.6-.3,1h2.1v-.2c0-.4-.1-.7-.3-.9,0-.2-.3-.3-.7-.3Z"/>
    <path class="cls-18" d="M207.9,333.6v1.6h1.1v1.2h-1.1v3.3c0,.3.1.4.2.5s.2.2.4.2h.3c.1,0,.2,0,.3-.1v1.3c0,.1-.3.1-.5.1h-.6c-.6,0-1.1-.2-1.4-.5-.3-.3-.5-.9-.5-1.6v-3.3h-1v-1.2h1v-1.6h1.8Z"/>
    <path class="cls-18" d="M210,340.6l.8-.2v-4l-.9-.2v-1.1h2.6v.9c.3-.3.4-.6.7-.8.2-.2.5-.3.8-.3h.3c.1,0,.2,0,.3.1l-.2,1.6h-.7c-.3,0-.5,0-.6.1-.2.1-.3.2-.4.4v3.1l.8.2v1h-3.5v-.8Z"/>
    <path class="cls-18" d="M215,340.6l.8-.2v-4l-.9-.2v-1.1h2.7v5.2l.8.2v1h-3.4v-.9ZM217.6,333.6h-1.7v-1.3h1.7v1.3Z"/>
    <path class="cls-18" d="M222.1,341.7c-.9,0-1.7-.3-2.2-.9-.6-.6-.8-1.4-.8-2.3v-.2c0-1,.3-1.8.8-2.4s1.2-.9,2.1-.9,1.5.3,2,.8.7,1.2.7,2.1v1h-3.9c0,.4.2.8.4,1.1.3.3.6.4,1,.4s.7,0,1-.1.5-.2.8-.4l.5,1.1c-.3.2-.6.4-1,.5s-.9.2-1.4.2ZM221.9,336.4c-.3,0-.6.1-.8.4-.2.2-.3.6-.3,1h2.1v-.2c0-.4-.1-.7-.3-.9,0-.2-.3-.3-.7-.3Z"/>
    <path class="cls-18" d="M231.7,338.6c0,1-.2,1.7-.6,2.3-.4.6-1.1.9-1.9.9s-.7-.1-1-.2c-.3-.2-.5-.4-.7-.7v.8h-1.6v-8.1l-.9-.2v-1.1h2.7v3.5c.2-.3.4-.5.7-.6s.6-.2.9-.2c.8,0,1.4.3,1.9.9.4.6.6,1.4.6,2.5v.2h0ZM230,338.4c0-.6-.1-1.1-.3-1.5s-.5-.6-.9-.6-.5.1-.7.2-.3.3-.4.5v2.7c.1.2.3.4.4.5.2.1.4.2.7.2.5,0,.8-.2.9-.5.2-.3.3-.8.3-1.3v-.2Z"/>
    <path class="cls-18" d="M237.8,337.4h-1.2l-.2-.8c-.1-.1-.3-.2-.5-.2-.2-.1-.4-.1-.6-.1-.3,0-.5.1-.7.2s-.3.3-.3.5.1.4.3.5.5.2,1,.3c.8.2,1.4.4,1.8.7.4.3.6.7.6,1.3s-.3,1.1-.8,1.4c-.5.4-1.2.6-2,.6s-1-.1-1.4-.2-.8-.4-1.1-.6v-1.5h1.2l.2.8c.1.1.2.2.4.2s.4.1.6.1c.4,0,.6-.1.8-.2s.3-.3.3-.5-.1-.4-.3-.5-.5-.3-1-.4c-.8-.2-1.3-.4-1.7-.7-.4-.3-.6-.7-.6-1.2s.2-1,.7-1.4,1.1-.6,1.9-.6,1,.1,1.4.2.8.3,1.1.5v1.6Z"/>
    <path class="cls-18" d="M244.1,337.4h-1.2l-.2-.8c-.1-.1-.3-.2-.5-.2-.2-.1-.4-.1-.6-.1-.3,0-.5.1-.7.2s-.3.3-.3.5.1.4.3.5.5.2,1,.3c.8.2,1.4.4,1.8.7.4.3.6.7.6,1.3s-.3,1.1-.8,1.4c-.5.4-1.2.6-2,.6s-1-.1-1.4-.2-.8-.4-1.1-.6v-1.5h1.2l.2.8c.1.1.2.2.4.2s.4.1.6.1c.4,0,.6-.1.8-.2s.3-.3.3-.5-.1-.4-.3-.5-.5-.3-1-.4c-.8-.2-1.3-.4-1.7-.7-.4-.3-.6-.7-.6-1.2s.2-1,.7-1.4,1.1-.6,1.9-.6,1,.1,1.4.2.8.3,1.1.5v1.6Z"/>
    <path class="cls-18" d="M251.8,336.2h-.6c0,.1-2.4,6.4-2.4,6.4-.2.5-.4.9-.8,1.2s-.8.5-1.4.5h-.4c-.1,0-.3-.1-.5-.1l.2-1.3h.4c.3,0,.5-.1.7-.2s.3-.3.4-.5l.2-.5-2.1-5.3h-.6v-1.2h3.2v1.1h-.7c0,.1.9,2.7.9,2.7v.5h.1l1-3.1h-.7v-1.2h3.2v1h0Z"/>
    <path class="cls-18" d="M257.7,337.4h-1.2l-.2-.8c-.1-.1-.3-.2-.5-.2-.2-.1-.4-.1-.6-.1-.3,0-.5.1-.7.2s-.3.3-.3.5.1.4.3.5.5.2,1,.3c.8.2,1.4.4,1.8.7.4.3.6.7.6,1.3s-.3,1.1-.8,1.4c-.5.4-1.2.6-2,.6s-1-.1-1.4-.2-.8-.4-1.1-.6v-1.5h1.2l.2.8c.1.1.2.2.4.2s.4.1.6.1c.4,0,.6-.1.8-.2s.3-.3.3-.5-.1-.4-.3-.5-.5-.3-1-.4c-.8-.2-1.3-.4-1.7-.7-.4-.3-.6-.7-.6-1.2s.2-1,.7-1.4,1.1-.6,1.9-.6,1,.1,1.4.2.8.3,1.1.5v1.6Z"/>
    <path class="cls-18" d="M261.3,333.6v1.6h1.1v1.2h-1.1v3.3c0,.3.1.4.2.5s.2.2.4.2h.3c.1,0,.2,0,.3-.1v1.3c-.1.1-.3.1-.5.1h-.6c-.6,0-1.1-.2-1.4-.5s-.5-.9-.5-1.6v-3.3h-1v-1.2h1v-1.6h1.8Z"/>
    <path class="cls-18" d="M266.3,341.7c-.9,0-1.7-.3-2.2-.9-.6-.6-.8-1.4-.8-2.3v-.2c0-1,.3-1.8.8-2.4s1.2-.9,2.1-.9,1.5.3,2,.8.7,1.2.7,2.1v1h-3.9c0,.4.2.8.4,1.1.3.3.6.4,1,.4s.7,0,1-.1.5-.2.8-.4l.5,1.1c-.3.2-.6.4-1,.5s-.8.2-1.4.2ZM266.2,336.4c-.3,0-.6.1-.8.4-.2.2-.3.6-.3,1h2.1v-.2c0-.4-.1-.7-.3-.9-.1-.2-.4-.3-.7-.3Z"/>
    <path class="cls-18" d="M269.6,336.2v-1.1h2.6v.9c.3-.3.6-.6.9-.7.3-.2.7-.3,1.1-.3s.8.1,1.1.3c.3.2.5.5.7.8.2-.3.5-.6.8-.8s.7-.3,1.1-.3c.6,0,1.1.2,1.5.7.4.4.6,1.1.6,2v2.7l.8.2v1h-3.3v-1l.8-.2v-2.7c0-.5-.1-.8-.2-1-.2-.2-.4-.3-.7-.3s-.5.1-.6.2c-.2.1-.3.3-.4.5v3.4l.7.2v1h-3.1v-1l.7-.2v-2.7c0-.5-.1-.8-.2-1-.2-.2-.4-.3-.7-.3s-.4,0-.6.1-.3.2-.4.4v3.5l.8.2v1h-3.3v-1l.8-.2v-4l-1.5-.3Z"/>
  </g>
  <path class="cls-6" d="M169.2,368.1h132.6c2.8,0,5,2.2,5,5v20.6c0,2.8-2.2,5-5,5h-132.6c-2.8,0-5-2.2-5-5v-20.6c0-2.8,2.3-5,5-5Z"/>
  <g class="cls-21">
    <path class="cls-18" d="M203.3,379.6v-1.1h3.6v1.1l-.9.2v2.5h3.5v-2.5l-.9-.2v-1.1h3.5v1.1l-.9.2v6.2l.9.2v1h-3.6v-1l.9-.2v-2.4h-3.5v2.4l.9.2v1h-3.6v-1l.9-.2v-6.2l-.8-.2Z"/>
    <path class="cls-18" d="M219.6,381.9h-.6c0,.1-2.4,6.4-2.4,6.4-.2.5-.4.9-.8,1.2s-.8.5-1.4.5h-.4c-.1,0-.3-.1-.5-.1l.2-1.3h.4c.3,0,.5-.1.7-.2s.3-.3.4-.5l.2-.5-2.1-5.3h-.6v-1.2h3.2v1.1h-.7c0,.1.9,2.7.9,2.7v.5h.1l1-3.1h-.7v-1.2h3.2v1h0Z"/>
    <path class="cls-18" d="M220,381.9v-1.1h2.5v.8c.3-.3.5-.5.8-.6.3-.2.6-.2.9-.2.8,0,1.4.3,1.9.9.4.6.7,1.4.7,2.5h0c0,1.1-.2,1.8-.7,2.4s-1.1.9-1.9.9-.6-.1-.9-.2c-.3-.1-.5-.3-.7-.6v1.9l.8.2v1.1h-3.4v-1.1l.8-.2v-6.5l-.8-.2ZM225,384.1c0-.6-.1-1.1-.3-1.5s-.5-.6-.9-.6-.5.1-.7.2-.3.3-.4.5v2.8c.1.2.3.3.4.4.2.1.4.1.7.1s.7-.2.9-.5.3-.8.3-1.3h0Z"/>
    <path class="cls-18" d="M230.6,387.4c-.9,0-1.7-.3-2.2-.9-.6-.6-.8-1.4-.8-2.3v-.2c0-1,.3-1.8.8-2.4s1.2-.9,2.1-.9,1.5.3,2,.8.7,1.2.7,2.1v1h-3.9c0,.4.2.8.4,1.1.3.3.6.4,1,.4s.7,0,1-.1.5-.2.8-.4l.5,1.1c-.3.2-.6.4-1,.5s-.9.2-1.4.2ZM230.5,382c-.3,0-.6.1-.8.4-.2.2-.3.6-.3,1h2.1v-.2c0-.4-.1-.7-.3-.9,0,0-.4-.3-.7-.3Z"/>
  </g>
  <g class="cls-21">
    <path class="cls-18" d="M234.2,386.2l.8-.2v-4l-.9-.2v-1.1h2.6v.9c.3-.3.4-.6.7-.8.2-.2.5-.3.8-.3h.3c.1,0,.2,0,.3.1l-.2,1.6h-.7c-.3,0-.5,0-.6.1-.2.1-.3.2-.4.4v3.1l.8.2v1h-3.4v-.8h-.1Z"/>
  </g>
  <g class="cls-21">
    <path class="cls-18" d="M242.1,381.9h-.6c0,.1.9,3,.9,3v.6h.1v-.6c.1,0,.9-2.9.9-2.9h-.6v-1.2h2.9v1.1h-.6c0,.1-1.9,5.4-1.9,5.4h-1.7l-1.9-5.3h-.6v-1.2h2.9v1.1h.2Z"/>
    <path class="cls-18" d="M246.2,386.2l.8-.2v-4l-.9-.2v-1.1h2.7v5.2l.8.2v1h-3.4v-.9h0ZM248.8,379.3h-1.7v-1.3h1.7v1.3Z"/>
    <path class="cls-18" d="M255.5,383h-1.2l-.2-.8c-.1-.1-.3-.2-.5-.2-.2-.1-.4-.1-.6-.1-.3,0-.5.1-.7.2s-.3.3-.3.5.1.4.3.5.5.2,1,.3c.8.2,1.4.4,1.8.7.4.3.6.7.6,1.3s-.3,1.1-.8,1.4c-.5.4-1.2.6-2,.6s-1-.1-1.4-.2-.8-.4-1.1-.6v-1.5h1.2l.2.8c.1.1.2.2.4.2s.4.1.6.1c.4,0,.6-.1.8-.2s.3-.3.3-.5-.1-.4-.3-.5-.5-.3-1-.4c-.8-.2-1.3-.4-1.7-.7-.4-.3-.6-.7-.6-1.2s.2-1,.7-1.4,1.1-.6,1.9-.6,1,.1,1.4.2.8.3,1.1.5v1.6Z"/>
    <path class="cls-18" d="M256.5,384c0-1,.3-1.8.8-2.4s1.3-.9,2.2-.9,1.7.3,2.2.9.8,1.4.8,2.4h0c0,1.1-.3,1.9-.8,2.5s-1.3.9-2.2.9-1.7-.3-2.3-.9c-.5-.6-.8-1.4-.8-2.4h0c0-.1,0-.1,0-.1ZM258.3,384.1c0,.6.1,1.1.3,1.4.2.4.5.5,1,.5s.8-.2,1-.5c.2-.4.3-.8.3-1.4h0c0-.7-.1-1.1-.3-1.5-.2-.4-.5-.5-1-.5s-.8.2-1,.5c-.2.4-.3.8-.3,1.4h0Z"/>
    <path class="cls-18" d="M263.5,386.2l.8-.2v-4l-.9-.2v-1.1h2.6v.9c.3-.3.4-.6.7-.8.2-.2.5-.3.8-.3h.3c.1,0,.2,0,.3.1l-.2,1.6h-.7c-.3,0-.5,0-.6.1-.2.1-.3.2-.4.4v3.1l.8.2v1h-3.4v-.8h0Z"/>
  </g>
  <path class="cls-11" d="M169.2,412.8h132.6c2.8,0,5,2.2,5,5v20.6c0,2.8-2.2,5-5,5h-132.6c-2.8,0-5-2.2-5-5v-20.6c0-2.8,2.3-5,5-5Z"/>
  <g class="cls-21">
    <path class="cls-18" d="M222.2,424.3v-1.1h3.6v1.1l-.9.2v2.5h3.5v-2.5l-.9-.2v-1.1h3.5v1.1l-.9.2v6.2l.9.2v1h-3.6v-1l.9-.2v-2.4h-3.5v2.4l.9.2v1h-3.6v-1l.9-.2v-6.2l-.8-.2Z"/>
    <path class="cls-18" d="M231.8,428.7c0-1,.3-1.8.8-2.4s1.3-.9,2.2-.9,1.7.3,2.2.9.8,1.4.8,2.4h0c0,1.1-.3,1.9-.8,2.5s-1.3.9-2.2.9-1.7-.3-2.3-.9c-.5-.6-.8-1.4-.8-2.4h0c0-.1.1-.1.1-.1ZM233.6,428.8c0,.6.1,1.1.3,1.4.2.4.5.5,1,.5s.8-.2,1-.5c.2-.4.3-.8.3-1.4h0c0-.7-.1-1.1-.3-1.5s-.5-.5-1-.5-.8.2-1,.5c-.2.4-.3.8-.3,1.4h0Z"/>
    <path class="cls-18" d="M244,427.7h-1.2l-.2-.8c-.1-.1-.3-.2-.5-.2-.2-.1-.4-.1-.6-.1-.3,0-.5.1-.7.2s-.3.3-.3.5.1.4.3.5.5.2,1,.3c.8.2,1.4.4,1.8.7.4.3.6.7.6,1.3s-.3,1.1-.8,1.4c-.5.4-1.2.6-2,.6s-1-.1-1.4-.2-.8-.4-1.1-.6v-1.5h1.2l.2.8c.1.1.2.2.4.2s.4.1.6.1c.4,0,.6-.1.8-.2s.3-.3.3-.5-.1-.4-.3-.5-.5-.3-1-.4c-.8-.2-1.3-.4-1.7-.7-.4-.3-.6-.7-.6-1.2s.2-1,.7-1.4,1.1-.6,1.9-.6,1,.1,1.4.2.8.3,1.1.5v1.6Z"/>
    <path class="cls-18" d="M247.6,423.9v1.6h1.1v1.2h-1.1v3.3c0,.3.1.4.2.5s.2.2.4.2h.3c.1,0,.2,0,.3-.1v1.3c0,.1-.3.1-.5.1h-.6c-.6,0-1.1-.2-1.4-.5-.3-.3-.5-.9-.5-1.6v-3.3h-1v-1.2h1v-1.6h1.8Z"/>
  </g>
  <path class="cls-18" d="M108.9,318c1,0,2,.2,2.9.5,1.2.4,2.4,1.2,3.3,2.1,1.4,1.4,2.3,3.3,2.6,5.3h0v5.1h-1.1v3.3c0,2.5-1.3,4.7-3.4,6v2.3h.9c.3,0,.6,0,.9.1,1.1.1,2.1.6,2.9,1.3,1,.7,1.6,1.9,1.6,3.1v4.7h-21.3v-4.8c0-1.2.6-2.4,1.6-3.1.8-.7,1.8-1.1,2.9-1.3.3-.1.6-.1.9-.1h.9v-2.3h0c-2.2-1.4-3.5-3.8-3.5-6.3s0-1.4,0-2.9h-1.1v-5.2h0c.3-3.4,2.6-6.3,5.8-7.4,1-.3,2-.4,3-.4M109,316c-1.2,0-2.5.2-3.6.6-3.7,1.3-6.5,4.5-7.1,8.4,0,.3-.2.6-.2.9v5.1c0,.8.5,1.5,1.2,1.8v1.1c0,2.6,1,5,2.9,6.8-1.3.2-2.4.8-3.4,1.6-1.5,1.1-2.4,2.8-2.4,4.7v4.7c0,1.1.9,2,2,2h21.3c1.1,0,2-.9,2-2v-4.7c0-1.9-.9-3.6-2.4-4.7-.9-.8-2.1-1.3-3.3-1.6,1.8-1.7,2.8-4,2.8-6.5v-1.5c.7-.3,1.1-1,1.1-1.8v-5.2c0-.3,0-.6-.2-.9-.4-2.2-1.4-4.3-3-5.9-1.1-1.2-2.5-2-4-2.6-1.3,0-2.5-.3-3.7-.3h0Z"/>
  <path class="cls-4" d="M101.2,329.7c0,1.7,0,2.5,0,4.3,0,4.2,3.5,7.6,7.7,7.6,4.1.1,7.6-3.1,7.8-7.2h0v-4.9"/>
  <path class="cls-4" d="M100.1,326.8c0-3.7,2.3-7.1,5.9-8.3,1.9-.7,4-.7,5.9,0,1.2.4,2.4,1.2,3.3,2.1,1.7,1.6,2.6,3.9,2.6,6.2"/>
  <rect class="cls-7" x="100.1" y="326.4" width="17.7" height="3.3"/>
  <line class="cls-7" x1="107.9" y1="337" x2="111.1" y2="337"/>
  <path class="cls-18" d="M99.9,329.7v4h18v-4h-18ZM107.2,332.4c-.5.5-1.3.4-1.7,0-.4-.6-.4-1.3,0-1.8l2,1.1c0,.3,0,.6-.4.8ZM114.1,332.3c-.5.5-1.2.5-1.7,0-.1-.2-.2-.4-.3-.6l2-1.2h0c.5.6.5,1.3,0,1.8Z"/>
  <path class="cls-18" d="M34.5,82.5c1,0,2,.2,2.9.5,1.2.4,2.4,1.1,3.3,2.1,1.4,1.4,2.3,3.3,2.6,5.3h0v5.2h-1.1v3.3c0,2.5-1.3,4.7-3.4,6v2.3h.9c.3,0,.6,0,.9,0,1.1,0,2.1.6,2.9,1.3,1,.7,1.6,1.9,1.6,3.1v4.7h-21.3v-4.7c0-1.2.6-2.4,1.6-3.1.8-.7,1.8-1.1,2.9-1.3.3,0,.6,0,.9,0h.9v-2.3h.1c-2.2-1.4-3.5-3.8-3.5-6.3s-.1-1.4-.1-2.9h-1.1v-5.1h.1c.3-3.4,2.6-6.2,5.8-7.3,1-.6,2-.8,3-.8M34.5,80.5c-5.3,0-9.8,3.8-10.7,9-.1.3-.2.6-.2.8v5.2c0,.8.5,1.5,1.2,1.8v1.1c0,2.6,1,5,2.9,6.8-1.3.2-2.4.8-3.4,1.6-1.5,1.1-2.4,2.8-2.4,4.7v4.7c0,1.1.9,2,2,2h21.3c1.1,0,2-.9,2-2v-4.7c0-1.9-.9-3.6-2.4-4.7-.9-.8-2.1-1.3-3.3-1.6,1.8-1.7,2.8-4,2.8-6.5v-1.5c.7-.3,1.1-1,1.1-1.8v-5.2c0-.3,0-.6-.2-.8-.4-2.2-1.4-4.3-3-5.9s-2.5-2-4-2.6c-1.2-.2-2.4-.4-3.7-.4h0Z"/>
  <path class="cls-4" d="M26.8,94.2c0,1.7.1,2.5.1,4.3.1,4.2,3.5,7.6,7.7,7.6,4.1.2,7.6-3.1,7.8-7.2h0v-4.9"/>
  <path class="cls-4" d="M25.7,91.3c0-3.7,2.4-7,5.9-8.3,1.9-.7,4-.7,5.9,0,1.2.4,2.4,1.1,3.3,2.1,1.7,1.6,2.6,3.9,2.6,6.2"/>
  <rect class="cls-7" x="25.7" y="90.9" width="17.7" height="3.3"/>
  <line class="cls-7" x1="33.5" y1="101.5" x2="36.7" y2="101.5"/>
  <path class="cls-18" d="M25.5,94.2v4h18v-4h-18ZM32.9,97c-.5.4-1.3.3-1.7-.2-.4-.6-.4-1.3,0-1.8l2,1.1c0,.3,0,.7-.4.9ZM39.8,96.8c-.5.5-1.3.5-1.8,0,0-.2-.2-.4-.3-.6l2-1.2c.3.2.4.6.5.9,0,.3-.2.7-.4.9Z"/>
  <path class="cls-18" d="M495.5,160.7c1,0,2,.2,2.9.5,3.2,1.1,5.5,4,5.8,7.4h.1v5.2h-1.1c0,1.5-.1,1.3-.1,2.9,0,2.6-1.3,4.9-3.5,6.3h.1v2.3h.9c.3,0,.6,0,.9.1,1.1.1,2.1.6,2.9,1.3,1,.7,1.6,1.9,1.6,3.1v4.7h-21.3v-4.7c0-1.2.6-2.4,1.6-3.1.8-.7,1.8-1.1,2.9-1.3.3-.1.6-.1.9-.1h.9v-2.3c-2.1-1.3-3.4-3.5-3.4-6v-3.3h-1.1v-5.2h.1c.2-2,1.1-3.9,2.6-5.3.9-.9,2-1.7,3.3-2.1,1.1-.3,2.1-.4,3-.4M495.6,158.7c-1.2,0-2.4.2-3.6.6-1.5.5-2.9,1.4-4,2.6-1.6,1.6-2.7,3.6-3,5.9-.1.3-.2.6-.2.9v5.2c0,.8.4,1.5,1.1,1.8v1.5c0,2.4,1,4.8,2.8,6.5-1.2.2-2.4.8-3.3,1.5-1.5,1.1-2.4,2.8-2.4,4.7v4.7c0,1.1.9,2,2,2h21.3c1.1,0,2-.9,2-2v-4.7c0-1.9-.9-3.6-2.4-4.7-1-.8-2.2-1.4-3.4-1.6,1.8-1.8,2.9-4.2,2.9-6.8v-1.1c.7-.3,1.2-1,1.2-1.8v-5.2c0-.3-.1-.6-.2-.9-1.1-5.3-5.6-9.1-10.8-9.1h0Z"/>
  <path class="cls-4" d="M503.3,172.4c0,1.7-.1,2.5-.1,4.3-.1,4.2-3.5,7.6-7.7,7.6-4.1.2-7.6-3.1-7.8-7.2h0v-4.9"/>
  <path class="cls-4" d="M504.4,169.4c0-3.7-2.3-7.1-5.9-8.3-1.9-.7-4-.7-5.9,0-1.2.4-2.4,1.1-3.3,2.1-1.7,1.6-2.6,3.9-2.6,6.2"/>
  <rect class="cls-7" x="486.7" y="169.1" width="17.7" height="3.3"/>
  <line class="cls-7" x1="496.5" y1="179.7" x2="493.3" y2="179.7"/>
  <path class="cls-18" d="M486.5,172.4v4h18.1v-4h-18.1ZM492.1,175c-.4.5-1.2.6-1.7,0-.5-.4-.6-1.2-.1-1.7,0-.1,0-.1.1-.2l2,1.2c-.1.2-.2.4-.3.6ZM498.9,175c-.4.5-1.2.6-1.7.2-.3-.2-.4-.5-.4-.9l2-1.1c.5.5.5,1.2.1,1.8Z"/>
  <line class="cls-13" x1="285" y1="249.7" x2="285" y2="277.4"/>
  <polygon class="cls-16" points="276.9 256.4 278.3 257.7 285 250.5 291.8 257.7 293.2 256.4 285 247.6 276.9 256.4"/>
  <line class="cls-13" x1="251.7" y1="249.7" x2="251.7" y2="276.9"/>
  <polygon class="cls-16" points="243.5 256.4 245 257.7 251.7 250.5 258.4 257.7 259.9 256.4 251.7 247.6 243.5 256.4"/>
  <line class="cls-13" x1="218.3" y1="249.7" x2="218.3" y2="277.4"/>
  <polygon class="cls-16" points="210.1 256.4 211.6 257.7 218.3 250.5 225 257.7 226.5 256.4 218.3 247.6 210.1 256.4"/>
  <line class="cls-13" x1="184.9" y1="249.7" x2="184.9" y2="277.4"/>
  <polygon class="cls-16" points="176.7 256.4 178.2 257.7 184.9 250.5 191.6 257.7 193.1 256.4 184.9 247.6 176.7 256.4"/>
  <line class="cls-13" x1="285" y1="399.3" x2="285" y2="413.4"/>
  <line class="cls-13" x1="285" y1="353.6" x2="285" y2="368.7"/>
  <line class="cls-13" x1="285" y1="307.9" x2="285" y2="323"/>
  <line class="cls-13" x1="251.7" y1="353.6" x2="251.7" y2="368.7"/>
  <line class="cls-13" x1="251.7" y1="307.9" x2="251.7" y2="322.6"/>
  <line class="cls-13" x1="218.3" y1="307.9" x2="218.3" y2="321.3"/>
  <path class="cls-18" d="M44.7,70.5c-.7,0-1.3-.6-1.3-1.3s.6-1.3,1.3-1.3,1.3.6,1.3,1.3h0c0,.7-.5,1.3-1.3,1.3h0Z"/>
  <path class="cls-18" d="M117.7,307.9c-.7,0-1.3-.6-1.3-1.3s.6-1.3,1.3-1.3,1.3.6,1.3,1.3h0c0,.7-.5,1.3-1.3,1.3h0Z"/>
</svg>