<?xml version="1.0" encoding="utf-8"?>
<!-- Generator: Adobe Illustrator 24.0.0, SVG Export Plug-In . SVG Version: 6.00 Build 0)  -->
<svg version="1.1" id="Ebene_1" xmlns="http://www.w3.org/2000/svg" xmlns:xlink="http://www.w3.org/1999/xlink" x="0px" y="0px"
	 viewBox="0 0 623.4 457.5" style="enable-background:new 0 0 623.4 457.5;" xml:space="preserve">
<style type="text/css">
	.st0{fill:url(#SVGID_1_);}
	.st1{fill:none;stroke:#FFCC00;stroke-width:2;stroke-miterlimit:10;}
	.st2{fill:none;stroke:#FFCC00;stroke-width:2;stroke-linecap:round;stroke-linejoin:round;}
	.st3{fill:#FFFFFF;stroke:#330066;stroke-width:2;stroke-miterlimit:10;}
	.st4{enable-background:new    ;}
	.st5{fill:#330066;}
	.st6{clip-path:url(#SVGID_3_);}
	.st7{clip-path:url(#SVGID_5_);}
	.st8{fill:#FFD138;}
	.st9{fill:#FDFEFF;}
	.st10{fill:#FFFFFF;stroke:#FFCC00;stroke-width:2;stroke-linecap:round;stroke-linejoin:round;}
	.st11{fill:#FFCC00;}
	.st12{fill:none;stroke:#330066;stroke-width:2;stroke-miterlimit:10;}
	.st13{fill:#FFFFFF;}
	.st14{fill:#FFFFFF;stroke:#CC3300;stroke-width:2;stroke-miterlimit:10;}
	.st15{fill:none;stroke:#CC3300;stroke-width:2;stroke-miterlimit:10;}
	.st16{fill:none;stroke:#FFCC00;stroke-width:2;stroke-miterlimit:10;stroke-dasharray:2,2;}
	.st17{fill:#FFFFFF;stroke:#330066;stroke-width:2;stroke-linecap:round;stroke-linejoin:round;}
	
		.st18{opacity:0.8;fill:#FFFFFF;stroke:#330066;stroke-width:2;stroke-linecap:round;stroke-linejoin:round;enable-background:new    ;}
	
		.st19{opacity:0.6;fill:#FFFFFF;stroke:#330066;stroke-width:2;stroke-linecap:round;stroke-linejoin:round;enable-background:new    ;}
	
		.st20{opacity:0.4;fill:#FFFFFF;stroke:#330066;stroke-width:2;stroke-linecap:round;stroke-linejoin:round;enable-background:new    ;}
	.st21{fill:none;stroke:#330066;stroke-linejoin:round;}
	.st22{fill:none;stroke:#330066;stroke-linecap:round;stroke-linejoin:round;}
</style>
<g id="Ebene_2_1_">
	
		<linearGradient id="SVGID_1_" gradientUnits="userSpaceOnUse" x1="184.11" y1="348.53" x2="371.76" y2="348.53" gradientTransform="matrix(1 0 0 -1 0 460)">
		<stop  offset="0" style="stop-color:#990066"/>
		<stop  offset="0.19" style="stop-color:#780066"/>
		<stop  offset="0.4" style="stop-color:#5A0066"/>
		<stop  offset="0.61" style="stop-color:#440066"/>
		<stop  offset="0.81" style="stop-color:#370066"/>
		<stop  offset="1" style="stop-color:#330066"/>
	</linearGradient>
	<path class="st0" d="M189.1,29.2h177.7c2.8,0,5,2.2,5,5v154.5c0,2.8-2.2,5-5,5H189.1c-2.8,0-5-2.2-5-5V34.2
		C184.1,31.5,186.3,29.2,189.1,29.2z"/>
	<path class="st1" d="M189.1,29.2h177.7c2.8,0,5,2.2,5,5v154.5c0,2.8-2.2,5-5,5H189.1c-2.8,0-5-2.2-5-5V34.2
		C184.1,31.5,186.3,29.2,189.1,29.2z"/>
	<path class="st2" d="M196.8,84.6H359c2.8,0,5,2.2,5,5v20.6c0,2.8-2.2,5-5,5H196.8c-2.8,0-5-2.2-5-5V89.6
		C191.8,86.8,194.1,84.6,196.8,84.6z"/>
	<path class="st2" d="M196.8,129.1H359c2.8,0,5,2.2,5,5v20.6c0,2.8-2.2,5-5,5H196.8c-2.8,0-5-2.2-5-5v-20.6
		C191.8,131.3,194.1,129.1,196.8,129.1z"/>
	<path class="st3" d="M471.5,87.5h132.6c2.8,0,5,2.2,5,5v20.6c0,2.8-2.2,5-5,5H471.5c-2.8,0-5-2.2-5-5V92.5
		C466.5,89.8,468.7,87.5,471.5,87.5z"/>
	<polyline class="st2" points="324.4,209.8 318.6,204 312.9,209.8 307.1,204 301.4,209.8 301.3,209.8 295.5,204 289.8,209.8 
		284,204 278.3,209.8 277.6,209.8 271.8,204 266.1,209.8 260.3,204 254.6,209.8 254.5,209.8 248.8,204 243,209.8 237.3,204 
		231.5,209.8 	"/>
	<polyline class="st2" points="167.6,146.9 173.3,141.2 167.6,135.4 173.3,129.6 167.6,123.9 167.6,123.8 173.3,118.1 167.6,112.3 
		173.3,106.6 167.6,100.8 167.6,100.1 173.3,94.4 167.6,88.6 173.3,82.9 167.6,77.1 167.6,77.1 173.3,71.3 167.6,65.6 173.3,59.8 
		167.6,54 	"/>
	<polyline class="st2" points="387.5,55 381.8,60.8 387.5,66.6 381.8,72.3 387.5,78.1 387.5,78.1 381.8,83.9 387.5,89.6 381.8,95.4 
		387.5,101.1 387.5,101.8 381.8,107.6 387.5,113.3 381.8,119.1 387.5,124.8 387.5,124.9 381.8,130.6 387.5,136.4 381.8,142.2 
		387.5,147.9 	"/>
	<g class="st4">
		<path class="st5" d="M420.4,286.8c0-0.4-0.1-0.8-0.4-1s-0.6-0.5-0.9-0.7s-0.8-0.4-1.2-0.6c-0.4-0.2-0.8-0.4-1.2-0.7
			s-0.7-0.6-0.9-0.9s-0.4-0.9-0.4-1.4c0-0.8,0.3-1.5,0.9-2c0.6-0.5,1.4-0.7,2.4-0.7c0.6,0,1.2,0,1.7,0.1s0.9,0.2,1.2,0.3l-0.4,1.1
			c-0.2-0.1-0.6-0.2-1-0.3c-0.4-0.1-0.9-0.2-1.5-0.2c-0.7,0-1.2,0.1-1.5,0.4c-0.3,0.3-0.5,0.6-0.5,1c0,0.4,0.1,0.7,0.4,1
			c0.3,0.3,0.6,0.5,0.9,0.7s0.8,0.4,1.2,0.6s0.8,0.4,1.2,0.7s0.7,0.6,0.9,1c0.3,0.4,0.4,0.8,0.4,1.4c0,0.5-0.1,0.9-0.2,1.2
			c-0.2,0.4-0.4,0.7-0.7,0.9c-0.3,0.3-0.7,0.5-1.1,0.6c-0.4,0.1-0.9,0.2-1.5,0.2c-0.8,0-1.4-0.1-1.9-0.2c-0.5-0.1-0.9-0.2-1.1-0.4
			l0.4-1.1c0.2,0.1,0.6,0.3,1,0.4s1,0.2,1.5,0.2c0.3,0,0.6,0,0.9-0.1c0.3-0.1,0.5-0.2,0.8-0.3c0.2-0.1,0.4-0.3,0.5-0.5
			S420.4,287.1,420.4,286.8z"/>
		<path class="st5" d="M427.1,284.2h3.5v4.6c-0.2,0.1-0.4,0.2-0.6,0.3c-0.2,0.1-0.5,0.2-0.7,0.3c-0.3,0.1-0.5,0.1-0.8,0.2
			c-0.3,0-0.5,0.1-0.8,0.1c-0.7,0-1.3-0.1-1.8-0.3c-0.6-0.2-1-0.5-1.5-1c-0.4-0.4-0.7-1-1-1.7c-0.2-0.7-0.3-1.5-0.3-2.4
			c0-1,0.1-1.8,0.4-2.5c0.3-0.7,0.6-1.3,1.1-1.7c0.5-0.4,1-0.8,1.5-1c0.6-0.2,1.1-0.3,1.7-0.3c0.6,0,1.1,0,1.5,0.1
			c0.4,0.1,0.7,0.2,1,0.3l-0.3,1.1c-0.5-0.2-1.2-0.4-2.1-0.4c-0.4,0-0.8,0.1-1.3,0.2c-0.4,0.1-0.8,0.4-1.1,0.7s-0.6,0.8-0.8,1.3
			s-0.3,1.2-0.3,2c0,0.7,0.1,1.4,0.3,1.9s0.4,1,0.7,1.3c0.3,0.4,0.7,0.6,1.1,0.8s0.9,0.3,1.4,0.3c0.6,0,1.2-0.1,1.6-0.4v-2.9
			l-2.4-0.3V284.2z"/>
	</g>
	<g class="st4">
		<path class="st5" d="M435.4,284.1l-3.2-5.2h1.5l2.1,3.6l0.4,0.9l0.4-0.9l2.3-3.6h1.4l-3.3,5.1l3.5,5.4h-1.5l-2.4-3.8l-0.4-0.9
			l-0.4,0.9l-2.4,3.8h-1.4L435.4,284.1z"/>
	</g>
	<g class="st4">
		<path class="st5" d="M446.2,286.1v-1h1c0.2,0,0.4,0,0.5-0.1c0.2-0.1,0.3-0.1,0.5-0.2c0.1-0.1,0.3-0.2,0.3-0.4
			c0.1-0.1,0.1-0.3,0.1-0.5c0-0.4-0.1-0.7-0.4-0.8c-0.3-0.2-0.7-0.2-1.2-0.2c-0.4,0-0.7,0.1-1.1,0.2c-0.3,0.1-0.6,0.2-0.8,0.3
			l-0.3-0.9c0.3-0.2,0.7-0.3,1.1-0.5s0.9-0.2,1.4-0.2c1.7,0,2.5,0.6,2.5,1.8c0,0.3-0.1,0.7-0.3,1c-0.2,0.3-0.5,0.6-1,0.7v0.1
			c0.6,0.1,1,0.3,1.2,0.6c0.2,0.3,0.4,0.7,0.4,1.2c0,0.3-0.1,0.6-0.2,0.9c-0.1,0.3-0.3,0.5-0.6,0.7s-0.6,0.4-1,0.5
			c-0.4,0.1-0.9,0.2-1.4,0.2c-0.5,0-0.9,0-1.3-0.1s-0.6-0.2-0.9-0.3l0.3-1c0.2,0.1,0.5,0.2,0.8,0.3c0.3,0.1,0.7,0.1,1.1,0.1
			c0.6,0,1.1-0.1,1.4-0.3c0.3-0.2,0.5-0.5,0.5-1c0-0.4-0.2-0.6-0.5-0.8s-0.8-0.3-1.5-0.3H446.2z"/>
		<path class="st5" d="M452,282.5c0.4-0.2,0.8-0.4,1.3-0.5c0.5-0.1,1-0.2,1.6-0.2c0.5,0,0.9,0.1,1.3,0.2c0.3,0.1,0.6,0.3,0.7,0.5
			c0.2,0.2,0.3,0.5,0.3,0.7c0.1,0.3,0.1,0.5,0.1,0.8c0,0.6,0,1.2,0,1.8c0,0.6,0,1.1,0,1.6c0,0.4,0,0.7,0,1c0,0.3,0.1,0.6,0.2,0.9
			h-0.9l-0.3-1h-0.1c-0.1,0.1-0.2,0.3-0.3,0.4c-0.1,0.1-0.3,0.3-0.5,0.4c-0.2,0.1-0.4,0.2-0.7,0.3c-0.3,0.1-0.5,0.1-0.9,0.1
			c-0.3,0-0.6,0-0.9-0.2c-0.3-0.1-0.5-0.2-0.7-0.4c-0.2-0.2-0.4-0.4-0.5-0.7c-0.1-0.3-0.2-0.6-0.2-0.9c0-0.4,0.1-0.8,0.3-1.1
			c0.2-0.3,0.4-0.5,0.8-0.7s0.7-0.3,1.2-0.4s1-0.1,1.5-0.1c0.1,0,0.3,0,0.4,0s0.3,0,0.4,0c0-0.3,0-0.6,0-0.8c0-0.5-0.1-0.9-0.3-1.2
			c-0.2-0.2-0.6-0.3-1.2-0.3c-0.2,0-0.4,0-0.5,0c-0.2,0-0.4,0.1-0.6,0.1c-0.2,0-0.4,0.1-0.6,0.2c-0.2,0.1-0.3,0.1-0.5,0.2L452,282.5
			z M454.1,288.5c0.3,0,0.5,0,0.8-0.1c0.2-0.1,0.4-0.2,0.6-0.3c0.2-0.1,0.3-0.2,0.4-0.4c0.1-0.1,0.2-0.3,0.2-0.4v-1.2
			c-0.1,0-0.3,0-0.4,0c-0.1,0-0.3,0-0.4,0c-0.3,0-0.6,0-0.9,0.1c-0.3,0-0.6,0.1-0.8,0.2c-0.2,0.1-0.4,0.2-0.5,0.4s-0.2,0.4-0.2,0.6
			c0,0.3,0.1,0.6,0.4,0.9S453.7,288.5,454.1,288.5z"/>
		<path class="st5" d="M469.3,291.4h-0.8l-0.2-1.9h-8.8V282h1.2v6.5h2.6V282h1.2v6.5h2.6V282h1.2v6.5h1.1V291.4z"/>
		<path class="st5" d="M475.5,285l0-0.9h0l-0.6,1l-3.4,4.4h-0.7V282h1.2v4.6l0,0.9h0.1l0.6-0.9l3.4-4.5h0.7v7.5h-1.2V285z"/>
		<path class="st5" d="M488.8,291.4H488l-0.2-1.9H479V282h1.2v6.5h2.6V282h1.2v6.5h2.6V282h1.2v6.5h1.1V291.4z"/>
		<path class="st5" d="M490.2,282.5c0.4-0.2,0.8-0.4,1.3-0.5c0.5-0.1,1-0.2,1.6-0.2c0.5,0,0.9,0.1,1.3,0.2c0.3,0.1,0.6,0.3,0.7,0.5
			c0.2,0.2,0.3,0.5,0.3,0.7c0.1,0.3,0.1,0.5,0.1,0.8c0,0.6,0,1.2,0,1.8c0,0.6,0,1.1,0,1.6c0,0.4,0,0.7,0,1s0.1,0.6,0.2,0.9h-0.9
			l-0.3-1h-0.1c-0.1,0.1-0.2,0.3-0.3,0.4s-0.3,0.3-0.5,0.4c-0.2,0.1-0.4,0.2-0.7,0.3c-0.3,0.1-0.5,0.1-0.9,0.1s-0.6,0-0.9-0.2
			c-0.3-0.1-0.5-0.2-0.7-0.4c-0.2-0.2-0.4-0.4-0.5-0.7s-0.2-0.6-0.2-0.9c0-0.4,0.1-0.8,0.3-1.1c0.2-0.3,0.4-0.5,0.8-0.7
			c0.3-0.2,0.7-0.3,1.2-0.4c0.5-0.1,1-0.1,1.5-0.1c0.1,0,0.3,0,0.4,0c0.1,0,0.3,0,0.4,0c0-0.3,0-0.6,0-0.8c0-0.5-0.1-0.9-0.3-1.2
			c-0.2-0.2-0.6-0.3-1.2-0.3c-0.2,0-0.4,0-0.5,0c-0.2,0-0.4,0.1-0.6,0.1c-0.2,0-0.4,0.1-0.6,0.2c-0.2,0.1-0.3,0.1-0.5,0.2
			L490.2,282.5z M492.3,288.5c0.3,0,0.5,0,0.8-0.1c0.2-0.1,0.4-0.2,0.6-0.3c0.2-0.1,0.3-0.2,0.4-0.4c0.1-0.1,0.2-0.3,0.2-0.4v-1.2
			c-0.1,0-0.3,0-0.4,0c-0.1,0-0.3,0-0.4,0c-0.3,0-0.6,0-0.9,0.1c-0.3,0-0.6,0.1-0.8,0.2c-0.2,0.1-0.4,0.2-0.5,0.4
			c-0.1,0.2-0.2,0.4-0.2,0.6c0,0.3,0.1,0.6,0.4,0.9S491.9,288.5,492.3,288.5z"/>
		<path class="st5" d="M503.2,288.9c-0.3,0.2-0.7,0.4-1.1,0.6c-0.5,0.1-0.9,0.2-1.4,0.2c-0.6,0-1.1-0.1-1.5-0.3
			c-0.4-0.2-0.8-0.5-1-0.8c-0.3-0.3-0.5-0.8-0.6-1.2c-0.1-0.5-0.2-1-0.2-1.6c0-1.3,0.3-2.3,0.9-2.9s1.4-1,2.4-1c0.3,0,0.7,0,1,0.1
			s0.6,0.2,0.9,0.4c0.3,0.2,0.5,0.5,0.7,0.9c0.2,0.4,0.3,0.9,0.3,1.5c0,0.3,0,0.7-0.1,1.1h-4.8c0,0.4,0,0.8,0.1,1.2
			c0.1,0.3,0.2,0.6,0.4,0.9c0.2,0.2,0.4,0.4,0.7,0.5c0.3,0.1,0.7,0.2,1.1,0.2c0.3,0,0.7-0.1,1-0.2c0.3-0.1,0.6-0.3,0.8-0.4
			L503.2,288.9z M500.6,282.8c-0.6,0-1.1,0.2-1.4,0.5c-0.4,0.3-0.6,0.8-0.6,1.6h3.7c0-0.8-0.1-1.3-0.4-1.6
			C501.6,283,501.2,282.8,500.6,282.8z"/>
	</g>
	<g class="st4">
		<path class="st5" d="M510.2,283h-2.4v6.5h-1.2V283h-2.4v-1h5.9V283z"/>
	</g>
	<g class="st4">
		<path class="st5" d="M417.4,304.1h-0.7v3.4h-1.2V300h1.2v3.4l0.6-0.2l2.4-3.2h1.3l-2.3,3l-0.6,0.5l0.8,0.6l2.5,3.4h-1.5
			L417.4,304.1z"/>
	</g>
	<g class="st4">
		<path class="st5" d="M422.1,303.7c0-1.3,0.3-2.2,0.8-2.9c0.6-0.7,1.4-1,2.4-1c0.6,0,1,0.1,1.5,0.3c0.4,0.2,0.8,0.5,1,0.8
			s0.5,0.8,0.6,1.2s0.2,1,0.2,1.6c0,1.3-0.3,2.2-0.8,2.9c-0.6,0.7-1.4,1-2.4,1c-0.6,0-1-0.1-1.5-0.3c-0.4-0.2-0.8-0.5-1-0.8
			c-0.3-0.3-0.5-0.8-0.6-1.2C422.2,304.8,422.1,304.3,422.1,303.7z M423.3,303.7c0,0.4,0,0.7,0.1,1.1c0.1,0.4,0.2,0.7,0.4,0.9
			c0.2,0.3,0.4,0.5,0.6,0.6c0.3,0.2,0.6,0.2,0.9,0.2c1.4,0,2-1,2-2.9c0-0.4,0-0.8-0.1-1.1c-0.1-0.3-0.2-0.7-0.4-0.9
			c-0.2-0.3-0.4-0.5-0.6-0.6s-0.6-0.2-0.9-0.2C424,300.8,423.3,301.8,423.3,303.7z"/>
		<path class="st5" d="M435.2,304.1h-3.4v3.3h-1.2V300h1.2v3.1h3.4V300h1.2v7.5h-1.2V304.1z"/>
		<path class="st5" d="M442,307.5c-0.2,0.1-0.3,0.1-0.5,0.1c-0.2,0-0.4,0-0.5,0c-0.9,0-1.6-0.3-2.1-1c-0.5-0.6-0.7-1.6-0.7-3
			c0-1.3,0.3-2.2,0.8-2.9c0.5-0.7,1.3-1,2.3-1c0.3,0,0.5,0,0.7,0.1V297h1.1v3c0.2,0,0.3,0,0.5-0.1c0.1,0,0.3,0,0.4,0
			c1,0,1.7,0.3,2.2,0.9c0.5,0.6,0.8,1.5,0.8,2.9c0,0.6-0.1,1.2-0.2,1.7c-0.1,0.5-0.3,0.9-0.6,1.3c-0.3,0.4-0.6,0.6-1,0.8
			c-0.4,0.2-0.8,0.3-1.3,0.3c-0.1,0-0.2,0-0.4,0c-0.2,0-0.3,0-0.4-0.1v2.9H442V307.5z M441.3,306.7c0.1,0,0.2,0,0.4,0
			c0.1,0,0.3,0,0.4-0.1v-5.7c-0.1,0-0.2,0-0.3,0c-0.1,0-0.2,0-0.4,0c-0.6,0-1.1,0.2-1.4,0.7c-0.3,0.5-0.5,1.2-0.5,2.2
			c0,0.4,0,0.8,0.1,1.2c0.1,0.4,0.2,0.7,0.4,0.9c0.2,0.3,0.4,0.5,0.6,0.6C440.7,306.6,441,306.7,441.3,306.7z M443.8,300.8
			c-0.1,0-0.2,0-0.3,0c-0.1,0-0.2,0-0.4,0.1v5.7c0.1,0,0.2,0,0.3,0s0.3,0,0.4,0c0.6,0,1.1-0.3,1.4-0.8c0.3-0.5,0.5-1.3,0.5-2.3
			c0-0.8-0.1-1.5-0.4-2S444.6,300.8,443.8,300.8z"/>
		<path class="st5" d="M453.5,303l0-0.9h0l-0.6,1l-3.4,4.4h-0.7V300h1.2v4.6l0,0.9h0.1l0.6-0.9l3.4-4.5h0.7v7.5h-1.2V303z"/>
		<path class="st5" d="M463.7,309.4h-0.8l-0.2-1.9H457l-0.2,1.9H456v-3h0.9c0.1-0.1,0.2-0.3,0.3-0.6s0.3-0.7,0.4-1.2
			c0.1-0.5,0.2-1.2,0.3-1.9c0.1-0.8,0.2-1.7,0.2-2.7h4.5v6.5h1.1V309.4z M461.4,306.4V301h-2.3c0,0.4-0.1,0.9-0.1,1.4
			c0,0.5-0.1,1-0.2,1.5s-0.2,1-0.3,1.4c-0.1,0.4-0.3,0.8-0.5,1.1H461.4z"/>
		<path class="st5" d="M470.6,306.9c-0.3,0.2-0.7,0.4-1.1,0.6c-0.5,0.1-0.9,0.2-1.4,0.2c-0.6,0-1.1-0.1-1.5-0.3
			c-0.4-0.2-0.8-0.5-1-0.8c-0.3-0.3-0.5-0.8-0.6-1.2c-0.1-0.5-0.2-1-0.2-1.6c0-1.3,0.3-2.3,0.9-2.9s1.4-1,2.4-1c0.3,0,0.7,0,1,0.1
			s0.6,0.2,0.9,0.4c0.3,0.2,0.5,0.5,0.7,0.9c0.2,0.4,0.3,0.9,0.3,1.5c0,0.3,0,0.7-0.1,1.1H466c0,0.4,0,0.8,0.1,1.2
			c0.1,0.3,0.2,0.6,0.4,0.9c0.2,0.2,0.4,0.4,0.7,0.5c0.3,0.1,0.7,0.2,1.1,0.2c0.3,0,0.7-0.1,1-0.2c0.3-0.1,0.6-0.3,0.8-0.4
			L470.6,306.9z M468.1,300.8c-0.6,0-1.1,0.2-1.4,0.5c-0.4,0.3-0.6,0.8-0.6,1.6h3.7c0-0.8-0.1-1.3-0.4-1.6
			C469,301,468.6,300.8,468.1,300.8z"/>
		<path class="st5" d="M477.4,304.1H474v3.3h-1.2V300h1.2v3.1h3.4V300h1.2v7.5h-1.2V304.1z"/>
		<path class="st5" d="M487.6,309.4h-0.8l-0.2-1.9h-5.7V300h1.2v6.5h3.3V300h1.2v6.5h1.1V309.4z"/>
		<path class="st5" d="M493.8,303l0-0.9h0l-0.6,1l-3.4,4.4h-0.7V300h1.2v4.6l0,0.9h0.1l0.6-0.9l3.4-4.5h0.7v7.5h-1.2V303z"/>
		<path class="st5" d="M497.2,300.5c0.4-0.2,0.8-0.4,1.3-0.5c0.5-0.1,1-0.2,1.6-0.2c0.5,0,0.9,0.1,1.3,0.2c0.3,0.1,0.6,0.3,0.7,0.5
			c0.2,0.2,0.3,0.5,0.3,0.7c0.1,0.3,0.1,0.5,0.1,0.8c0,0.6,0,1.2,0,1.8c0,0.6,0,1.1,0,1.6c0,0.4,0,0.7,0,1s0.1,0.6,0.2,0.9h-0.9
			l-0.3-1h-0.1c-0.1,0.1-0.2,0.3-0.3,0.4s-0.3,0.3-0.5,0.4c-0.2,0.1-0.4,0.2-0.7,0.3c-0.3,0.1-0.5,0.1-0.9,0.1s-0.6,0-0.9-0.2
			c-0.3-0.1-0.5-0.2-0.7-0.4c-0.2-0.2-0.4-0.4-0.5-0.7s-0.2-0.6-0.2-0.9c0-0.4,0.1-0.8,0.3-1.1c0.2-0.3,0.4-0.5,0.8-0.7
			c0.3-0.2,0.7-0.3,1.2-0.4c0.5-0.1,1-0.1,1.5-0.1c0.1,0,0.3,0,0.4,0c0.1,0,0.3,0,0.4,0c0-0.3,0-0.6,0-0.8c0-0.5-0.1-0.9-0.3-1.2
			c-0.2-0.2-0.6-0.3-1.2-0.3c-0.2,0-0.4,0-0.5,0c-0.2,0-0.4,0.1-0.6,0.1c-0.2,0-0.4,0.1-0.6,0.2c-0.2,0.1-0.3,0.1-0.5,0.2
			L497.2,300.5z M499.3,306.5c0.3,0,0.5,0,0.8-0.1c0.2-0.1,0.4-0.2,0.6-0.3c0.2-0.1,0.3-0.2,0.4-0.4c0.1-0.1,0.2-0.3,0.2-0.4v-1.2
			c-0.1,0-0.3,0-0.4,0c-0.1,0-0.3,0-0.4,0c-0.3,0-0.6,0-0.9,0.1c-0.3,0-0.6,0.1-0.8,0.2c-0.2,0.1-0.4,0.2-0.5,0.4
			c-0.1,0.2-0.2,0.4-0.2,0.6c0,0.3,0.1,0.6,0.4,0.9S498.9,306.5,499.3,306.5z"/>
		<path class="st5" d="M508.8,301h-2.2c0,0.4-0.1,0.9-0.1,1.4c0,0.5-0.1,1-0.1,1.5c-0.1,0.5-0.1,1-0.2,1.4c-0.1,0.4-0.2,0.8-0.4,1.2
			c-0.2,0.3-0.3,0.6-0.6,0.8c-0.2,0.2-0.5,0.3-0.8,0.3c-0.2,0-0.4,0-0.5,0c-0.1,0-0.3-0.1-0.4-0.1l0.2-1c0.1,0,0.3,0.1,0.4,0.1
			c0.2,0,0.4-0.1,0.5-0.3c0.2-0.2,0.3-0.5,0.4-1c0.1-0.5,0.2-1.1,0.3-2s0.1-1.9,0.2-3.3h4.5v7.5h-1.2V301z"/>
		<path class="st5" d="M513.5,302.8c0.2,0,0.5-0.1,0.7-0.1c0.2,0,0.4,0,0.6,0c0.5,0,1,0.1,1.3,0.2s0.7,0.3,0.9,0.5
			c0.2,0.2,0.4,0.4,0.5,0.7c0.1,0.3,0.1,0.6,0.1,0.9c0,0.9-0.3,1.6-0.8,2c-0.5,0.4-1.4,0.6-2.5,0.6c-0.6,0-1.3,0-2-0.1V300h1.2
			V302.8z M513.5,306.4c0.4,0.1,0.7,0.1,1.1,0.1c0.6,0,1.1-0.1,1.4-0.4s0.5-0.6,0.5-1c0-0.4-0.1-0.7-0.4-1c-0.3-0.3-0.7-0.4-1.4-0.4
			c-0.2,0-0.4,0-0.6,0c-0.2,0-0.4,0-0.6,0.1V306.4z"/>
		<path class="st5" d="M523.8,304.1h-3.4v3.3h-1.2V300h1.2v3.1h3.4V300h1.2v7.5h-1.2V304.1z"/>
		<path class="st5" d="M526.9,303.7c0-1.3,0.3-2.2,0.8-2.9c0.6-0.7,1.4-1,2.4-1c0.6,0,1,0.1,1.5,0.3c0.4,0.2,0.8,0.5,1,0.8
			s0.5,0.8,0.6,1.2s0.2,1,0.2,1.6c0,1.3-0.3,2.2-0.8,2.9c-0.6,0.7-1.4,1-2.4,1c-0.6,0-1-0.1-1.5-0.3c-0.4-0.2-0.8-0.5-1-0.8
			c-0.3-0.3-0.5-0.8-0.6-1.2C527,304.8,526.9,304.3,526.9,303.7z M528.2,303.7c0,0.4,0,0.7,0.1,1.1c0.1,0.4,0.2,0.7,0.4,0.9
			c0.2,0.3,0.4,0.5,0.6,0.6c0.3,0.2,0.6,0.2,0.9,0.2c1.4,0,2-1,2-2.9c0-0.4,0-0.8-0.1-1.1c-0.1-0.3-0.2-0.7-0.4-0.9
			c-0.2-0.3-0.4-0.5-0.6-0.6s-0.6-0.2-0.9-0.2C528.8,300.8,528.2,301.8,528.2,303.7z"/>
	</g>
	<g class="st4">
		<path class="st5" d="M540.5,307c-0.3,0.2-0.7,0.4-1.1,0.5c-0.4,0.1-0.8,0.2-1.3,0.2c-0.6,0-1.1-0.1-1.5-0.3
			c-0.4-0.2-0.7-0.5-1-0.8s-0.4-0.8-0.6-1.2c-0.1-0.5-0.2-1-0.2-1.6c0-1.3,0.3-2.2,0.8-2.9c0.6-0.7,1.4-1,2.4-1c0.5,0,0.9,0,1.2,0.1
			s0.6,0.2,0.9,0.3l-0.3,1c-0.2-0.1-0.5-0.2-0.8-0.3c-0.3-0.1-0.6-0.1-0.9-0.1c-1.4,0-2.1,1-2.1,2.9c0,0.4,0,0.7,0.1,1.1
			c0.1,0.3,0.2,0.6,0.4,0.9c0.2,0.3,0.4,0.5,0.7,0.6c0.3,0.2,0.6,0.2,1.1,0.2c0.4,0,0.7-0.1,1-0.2c0.3-0.1,0.5-0.2,0.7-0.4
			L540.5,307z"/>
	</g>
	<g class="st4">
		<path class="st5" d="M546.7,301h-2.4v6.5h-1.2V301h-2.4v-1h5.9V301z"/>
		<path class="st5" d="M549.1,302.8c0.2,0,0.5-0.1,0.7-0.1c0.2,0,0.4,0,0.6,0c0.5,0,1,0.1,1.3,0.2c0.4,0.1,0.7,0.3,0.9,0.5
			c0.2,0.2,0.4,0.4,0.5,0.7c0.1,0.3,0.1,0.6,0.1,0.9c0,0.9-0.3,1.6-0.8,2c-0.5,0.4-1.4,0.6-2.5,0.6c-0.6,0-1.3,0-2-0.1V300h1.2
			V302.8z M549.1,306.4c0.4,0.1,0.7,0.1,1.1,0.1c0.6,0,1.1-0.1,1.4-0.4c0.3-0.2,0.4-0.6,0.4-1c0-0.4-0.1-0.7-0.4-1
			c-0.3-0.3-0.7-0.4-1.4-0.4c-0.2,0-0.4,0-0.6,0c-0.2,0-0.4,0-0.6,0.1V306.4z"/>
	</g>
	<g class="st4">
		<path class="st5" d="M554.4,306.8c0-0.2,0.1-0.4,0.2-0.6c0.2-0.1,0.4-0.2,0.6-0.2c0.3,0,0.6,0.1,0.8,0.3s0.3,0.5,0.3,1
			c0,0.4-0.1,0.7-0.2,0.9c-0.1,0.3-0.2,0.5-0.4,0.7c-0.2,0.2-0.3,0.4-0.5,0.5c-0.2,0.1-0.4,0.2-0.6,0.3l-0.4-0.6
			c0.4-0.1,0.6-0.4,0.8-0.7s0.3-0.6,0.3-0.9c-0.1,0-0.2,0-0.3,0c-0.2,0-0.4-0.1-0.5-0.2S554.4,307.1,554.4,306.8z"/>
	</g>
	<g class="st4">
		<path class="st5" d="M422.3,327.4h-0.8l-0.2-1.9h-5.7V318h1.2v6.5h3.3V318h1.2v6.5h1.1V327.4z"/>
	</g>
	<g class="st4">
		<path class="st5" d="M429.2,324.9c-0.3,0.2-0.7,0.4-1.1,0.6c-0.5,0.1-0.9,0.2-1.4,0.2c-0.6,0-1.1-0.1-1.5-0.3
			c-0.4-0.2-0.8-0.5-1-0.8c-0.3-0.3-0.5-0.8-0.6-1.2c-0.1-0.5-0.2-1-0.2-1.6c0-1.3,0.3-2.3,0.9-2.9s1.4-1,2.4-1c0.3,0,0.7,0,1,0.1
			s0.6,0.2,0.9,0.4c0.3,0.2,0.5,0.5,0.7,0.9c0.2,0.4,0.3,0.9,0.3,1.5c0,0.3,0,0.7-0.1,1.1h-4.8c0,0.4,0,0.8,0.1,1.2
			c0.1,0.3,0.2,0.6,0.4,0.9c0.2,0.2,0.4,0.4,0.7,0.5c0.3,0.1,0.7,0.2,1.1,0.2c0.3,0,0.7-0.1,1-0.2c0.3-0.1,0.6-0.3,0.8-0.4
			L429.2,324.9z M426.6,318.8c-0.6,0-1.1,0.2-1.4,0.5c-0.4,0.3-0.6,0.8-0.6,1.6h3.7c0-0.8-0.1-1.3-0.4-1.6
			C427.6,319,427.2,318.8,426.6,318.8z"/>
	</g>
	<g class="st4">
		<path class="st5" d="M435.1,319h-2.2c0,0.4-0.1,0.9-0.1,1.4c0,0.5-0.1,1-0.1,1.5c-0.1,0.5-0.1,1-0.2,1.4c-0.1,0.4-0.2,0.8-0.4,1.2
			c-0.2,0.3-0.3,0.6-0.6,0.8c-0.2,0.2-0.5,0.3-0.8,0.3c-0.2,0-0.4,0-0.5,0c-0.1,0-0.3-0.1-0.4-0.1l0.2-1c0.1,0,0.3,0.1,0.4,0.1
			c0.2,0,0.4-0.1,0.5-0.3c0.2-0.2,0.3-0.5,0.4-1c0.1-0.5,0.2-1.1,0.3-2s0.1-1.9,0.2-3.3h4.5v7.5h-1.2V319z"/>
		<path class="st5" d="M438.1,321.7c0-1.3,0.3-2.2,0.8-2.9c0.6-0.7,1.4-1,2.4-1c0.6,0,1,0.1,1.5,0.3c0.4,0.2,0.8,0.5,1,0.8
			s0.5,0.8,0.6,1.2s0.2,1,0.2,1.6c0,1.3-0.3,2.2-0.8,2.9c-0.6,0.7-1.4,1-2.4,1c-0.6,0-1-0.1-1.5-0.3c-0.4-0.2-0.8-0.5-1-0.8
			c-0.3-0.3-0.5-0.8-0.6-1.2C438.2,322.8,438.1,322.3,438.1,321.7z M439.4,321.7c0,0.4,0,0.7,0.1,1.1c0.1,0.4,0.2,0.7,0.4,0.9
			c0.2,0.3,0.4,0.5,0.6,0.6c0.3,0.2,0.6,0.2,0.9,0.2c1.4,0,2-1,2-2.9c0-0.4,0-0.8-0.1-1.1c-0.1-0.3-0.2-0.7-0.4-0.9
			c-0.2-0.3-0.4-0.5-0.6-0.6s-0.6-0.2-0.9-0.2C440.1,318.8,439.4,319.8,439.4,321.7z"/>
	</g>
	<g class="st4">
		<path class="st5" d="M451.7,325c-0.3,0.2-0.7,0.4-1.1,0.5c-0.4,0.1-0.8,0.2-1.3,0.2c-0.6,0-1.1-0.1-1.5-0.3
			c-0.4-0.2-0.7-0.5-1-0.8c-0.3-0.3-0.4-0.8-0.6-1.2c-0.1-0.5-0.2-1-0.2-1.6c0-1.3,0.3-2.2,0.8-2.9c0.6-0.7,1.4-1,2.4-1
			c0.5,0,0.9,0,1.2,0.1c0.3,0.1,0.6,0.2,0.9,0.3l-0.3,1c-0.2-0.1-0.5-0.2-0.8-0.3s-0.6-0.1-0.9-0.1c-1.4,0-2.1,1-2.1,2.9
			c0,0.4,0,0.7,0.1,1.1c0.1,0.3,0.2,0.6,0.4,0.9c0.2,0.3,0.4,0.5,0.7,0.6c0.3,0.2,0.6,0.2,1.1,0.2c0.4,0,0.7-0.1,1-0.2
			c0.3-0.1,0.5-0.2,0.7-0.4L451.7,325z"/>
	</g>
	<g class="st4">
		<path class="st5" d="M457.9,319h-2.4v6.5h-1.2V319H452v-1h5.9V319z"/>
		<path class="st5" d="M463.7,322.1h-3.4v3.3h-1.2V318h1.2v3.1h3.4V318h1.2v7.5h-1.2V322.1z"/>
		<path class="st5" d="M466.8,321.7c0-1.3,0.3-2.2,0.8-2.9c0.6-0.7,1.4-1,2.4-1c0.6,0,1,0.1,1.5,0.3c0.4,0.2,0.8,0.5,1,0.8
			c0.3,0.3,0.5,0.8,0.6,1.2c0.1,0.5,0.2,1,0.2,1.6c0,1.3-0.3,2.2-0.8,2.9c-0.6,0.7-1.4,1-2.4,1c-0.6,0-1-0.1-1.5-0.3
			c-0.4-0.2-0.8-0.5-1-0.8c-0.3-0.3-0.5-0.8-0.6-1.2C466.8,322.8,466.8,322.3,466.8,321.7z M468,321.7c0,0.4,0,0.7,0.1,1.1
			c0.1,0.4,0.2,0.7,0.4,0.9c0.2,0.3,0.4,0.5,0.6,0.6c0.3,0.2,0.6,0.2,0.9,0.2c1.4,0,2-1,2-2.9c0-0.4,0-0.8-0.1-1.1
			c-0.1-0.3-0.2-0.7-0.4-0.9c-0.2-0.3-0.4-0.5-0.6-0.6c-0.3-0.2-0.6-0.2-0.9-0.2C468.7,318.8,468,319.8,468,321.7z"/>
	</g>
	<g class="st4">
		<path class="st5" d="M480.4,325c-0.3,0.2-0.7,0.4-1.1,0.5c-0.4,0.1-0.8,0.2-1.3,0.2c-0.6,0-1.1-0.1-1.5-0.3
			c-0.4-0.2-0.7-0.5-1-0.8s-0.4-0.8-0.6-1.2c-0.1-0.5-0.2-1-0.2-1.6c0-1.3,0.3-2.2,0.8-2.9c0.6-0.7,1.4-1,2.4-1c0.5,0,0.9,0,1.2,0.1
			s0.6,0.2,0.9,0.3l-0.3,1c-0.2-0.1-0.5-0.2-0.8-0.3c-0.3-0.1-0.6-0.1-0.9-0.1c-1.4,0-2.1,1-2.1,2.9c0,0.4,0,0.7,0.1,1.1
			c0.1,0.3,0.2,0.6,0.4,0.9c0.2,0.3,0.4,0.5,0.7,0.6c0.3,0.2,0.6,0.2,1.1,0.2c0.4,0,0.7-0.1,1-0.2c0.3-0.1,0.5-0.2,0.7-0.4
			L480.4,325z"/>
	</g>
	<g class="st4">
		<path class="st5" d="M486.5,319h-2.4v6.5H483V319h-2.4v-1h5.9V319z"/>
	</g>
	<g class="st4">
		<path class="st5" d="M488.9,320.8c0.2,0,0.5-0.1,0.7-0.1c0.2,0,0.4,0,0.6,0c0.5,0,1,0.1,1.3,0.2c0.4,0.1,0.7,0.3,0.9,0.5
			c0.2,0.2,0.4,0.4,0.5,0.7c0.1,0.3,0.2,0.6,0.2,0.9c0,0.9-0.3,1.6-0.8,2c-0.5,0.4-1.4,0.6-2.5,0.6c-0.6,0-1.3,0-2-0.1V318h1.2
			V320.8z M488.9,324.4c0.4,0.1,0.7,0.1,1.1,0.1c0.6,0,1.1-0.1,1.4-0.4c0.3-0.2,0.5-0.6,0.5-1c0-0.4-0.1-0.7-0.4-1
			c-0.3-0.3-0.7-0.4-1.4-0.4c-0.2,0-0.4,0-0.6,0c-0.2,0-0.4,0-0.6,0.1V324.4z"/>
	</g>
	<g class="st4">
		<path class="st5" d="M502.7,319h-3.3v6.5h-1.2V318h5.7v7.5h-1.2V319z"/>
		<path class="st5" d="M506.2,318h0.8l0.2,0.9h0.1c0.2-0.4,0.5-0.6,0.9-0.8c0.4-0.2,0.8-0.3,1.3-0.3c1,0,1.7,0.3,2.2,0.9
			c0.5,0.6,0.7,1.6,0.7,2.9c0,0.6-0.1,1.2-0.2,1.7c-0.2,0.5-0.4,0.9-0.7,1.3c-0.3,0.4-0.7,0.6-1.1,0.8c-0.4,0.2-0.9,0.3-1.4,0.3
			c-0.4,0-0.7,0-0.9-0.1c-0.2,0-0.4-0.1-0.7-0.2v3.1h-1.2V318z M509.2,318.8c-0.5,0-0.9,0.1-1.2,0.4s-0.5,0.7-0.6,1.2v3.7
			c0.2,0.1,0.4,0.2,0.6,0.3s0.5,0.1,0.9,0.1c0.7,0,1.2-0.3,1.6-0.8c0.4-0.5,0.6-1.3,0.6-2.3c0-0.4,0-0.8-0.1-1.1
			c-0.1-0.3-0.2-0.6-0.3-0.9c-0.2-0.2-0.4-0.4-0.6-0.5C509.9,318.9,509.6,318.8,509.2,318.8z"/>
		<path class="st5" d="M519,321l0-0.9h0l-0.6,1l-3.4,4.4h-0.7V318h1.2v4.6l0,0.9h0.1l0.6-0.9l3.4-4.5h0.7v7.5H519V321z"/>
		<path class="st5" d="M526.5,319h-2.2c0,0.4-0.1,0.9-0.1,1.4c0,0.5-0.1,1-0.1,1.5c-0.1,0.5-0.1,1-0.2,1.4c-0.1,0.4-0.2,0.8-0.4,1.2
			c-0.2,0.3-0.3,0.6-0.6,0.8c-0.2,0.2-0.5,0.3-0.8,0.3c-0.2,0-0.4,0-0.5,0c-0.1,0-0.3-0.1-0.4-0.1l0.2-1c0.1,0,0.3,0.1,0.4,0.1
			c0.2,0,0.4-0.1,0.5-0.3c0.2-0.2,0.3-0.5,0.4-1c0.1-0.5,0.2-1.1,0.3-2s0.1-1.9,0.2-3.3h4.5v7.5h-1.2V319z"/>
	</g>
	<g class="st4">
		<path class="st5" d="M529.6,321.7c0-1.3,0.3-2.2,0.8-2.9c0.6-0.7,1.4-1,2.4-1c0.6,0,1,0.1,1.5,0.3c0.4,0.2,0.8,0.5,1,0.8
			s0.5,0.8,0.6,1.2s0.2,1,0.2,1.6c0,1.3-0.3,2.2-0.8,2.9c-0.6,0.7-1.4,1-2.4,1c-0.6,0-1-0.1-1.5-0.3c-0.4-0.2-0.8-0.5-1-0.8
			s-0.5-0.8-0.6-1.2C529.7,322.8,529.6,322.3,529.6,321.7z M530.9,321.7c0,0.4,0,0.7,0.1,1.1c0.1,0.4,0.2,0.7,0.4,0.9
			c0.2,0.3,0.4,0.5,0.6,0.6c0.3,0.2,0.6,0.2,0.9,0.2c1.4,0,2-1,2-2.9c0-0.4,0-0.8-0.1-1.1c-0.1-0.3-0.2-0.7-0.4-0.9
			c-0.2-0.3-0.4-0.5-0.6-0.6s-0.6-0.2-0.9-0.2C531.6,318.8,530.9,319.8,530.9,321.7z"/>
	</g>
	<g class="st4">
		<path class="st5" d="M540.5,322.1l-2.2,3.3h-1.4l2.4-3.4l0.5-0.5L539,321l-1.9-3h1.3l2.1,3.2h0.8V318h1.2v3.4l0.7-0.2l2.1-3.2h1.3
			l-2,3l-0.6,0.5l0.8,0.6l2.2,3.4h-1.4l-2.2-3.4h-0.8v3.4h-1.2v-3.5L540.5,322.1z"/>
	</g>
	<g class="st4">
		<path class="st5" d="M553.3,324.9c-0.3,0.2-0.7,0.4-1.1,0.6c-0.5,0.1-0.9,0.2-1.4,0.2c-0.6,0-1.1-0.1-1.5-0.3
			c-0.4-0.2-0.8-0.5-1-0.8c-0.3-0.3-0.5-0.8-0.6-1.2c-0.1-0.5-0.2-1-0.2-1.6c0-1.3,0.3-2.3,0.9-2.9c0.6-0.7,1.4-1,2.4-1
			c0.3,0,0.7,0,1,0.1c0.3,0.1,0.6,0.2,0.9,0.4c0.3,0.2,0.5,0.5,0.7,0.9c0.2,0.4,0.3,0.9,0.3,1.5c0,0.3,0,0.7-0.1,1.1h-4.8
			c0,0.4,0,0.8,0.1,1.2s0.2,0.6,0.4,0.9c0.2,0.2,0.4,0.4,0.7,0.5c0.3,0.1,0.7,0.2,1.1,0.2c0.3,0,0.7-0.1,1-0.2s0.6-0.3,0.8-0.4
			L553.3,324.9z M550.7,318.8c-0.6,0-1.1,0.2-1.4,0.5c-0.4,0.3-0.6,0.8-0.6,1.6h3.7c0-0.8-0.1-1.3-0.4-1.6
			C551.6,319,551.2,318.8,550.7,318.8z"/>
		<path class="st5" d="M560,322.1h-3.4v3.3h-1.2V318h1.2v3.1h3.4V318h1.2v7.5H560V322.1z"/>
		<path class="st5" d="M568.2,321l0-0.9h0l-0.6,1l-3.4,4.4h-0.7V318h1.2v4.6l0,0.9h0.1l0.6-0.9l3.4-4.5h0.7v7.5h-1.2V321z"/>
		<path class="st5" d="M575.4,322.4l-1.2,0.2l-2,2.9h-1.5l1.8-2.6l0.6-0.6c-0.5-0.1-1-0.3-1.3-0.6s-0.5-0.8-0.5-1.4
			c0-0.5,0.1-0.8,0.2-1.2c0.2-0.3,0.4-0.6,0.7-0.8s0.6-0.4,1-0.5c0.4-0.1,0.8-0.1,1.3-0.1c0.4,0,0.7,0,1,0.1
			c0.3,0.1,0.6,0.1,0.9,0.2v7.4h-1.2V322.4z M575.4,319c-0.1,0-0.3-0.1-0.4-0.1c-0.2,0-0.3,0-0.4,0c-0.6,0-1.1,0.1-1.5,0.3
			c-0.3,0.2-0.5,0.6-0.5,1.1c0,0.5,0.2,0.8,0.5,1c0.4,0.2,0.8,0.4,1.4,0.4c0,0,0,0,0,0c0,0,0.1,0,0.1,0c0.1,0,0.1,0,0.3,0
			s0.3,0,0.5,0V319z"/>
	</g>
	<g id="Scone_logo_white">
		<g>
			<defs>
				<rect id="SVGID_2_" x="252.6" y="174.6" width="50.7" height="9.9"/>
			</defs>
			<clipPath id="SVGID_3_">
				<use xlink:href="#SVGID_2_"  style="overflow:visible;"/>
			</clipPath>
			<g class="st6">
				<g>
					<defs>
						<rect id="SVGID_4_" x="252.6" y="174.6" width="50.7" height="9.9"/>
					</defs>
					<clipPath id="SVGID_5_">
						<use xlink:href="#SVGID_4_"  style="overflow:visible;"/>
					</clipPath>
					<g class="st7">
						<path class="st8" d="M259.3,177.1h-1.1c-0.2,0-0.4,0.2-0.4,0.4l0,0v1.1c0,0.2,0.2,0.4,0.4,0.4l0,0h1.1c0.2,0,0.4-0.2,0.4-0.4
							v-1.1C259.7,177.3,259.5,177.1,259.3,177.1L259.3,177.1 M255.6,179h1.1c0.2,0,0.4-0.2,0.4-0.4v-1.1c0-0.2-0.2-0.4-0.4-0.4l0,0
							h-1.1c-0.2,0-0.4,0.2-0.4,0.4l0,0v1.1C255.2,178.8,255.4,179,255.6,179L255.6,179 M254.5,178.6v-1.1c0-0.2-0.2-0.4-0.4-0.4
							l0,0H253c-0.2,0-0.4,0.2-0.4,0.4c0,0,0,0,0,0v1.1c0,0.2,0.2,0.4,0.4,0.4h1.1C254.3,179,254.5,178.8,254.5,178.6L254.5,178.6
							 M259.4,179.8c-0.2,0-0.3,0.1-0.3,0.3v1.3c0,0.2,0.1,0.3,0.3,0.3c0.2,0,0.3-0.1,0.3-0.3v-1.3
							C259.7,179.9,259.6,179.8,259.4,179.8C259.4,179.7,259.4,179.7,259.4,179.8 M256.5,180.2v1.1c0,0.2,0.2,0.4,0.4,0.4l0,0h1.1
							c0.2,0,0.4-0.2,0.4-0.4l0,0v-1.1c0-0.2-0.2-0.4-0.4-0.4l0,0h-1.1C256.7,179.8,256.5,179.9,256.5,180.2L256.5,180.2
							 M255.7,181.2v-1.1c0-0.2-0.2-0.4-0.4-0.4l0,0h-1.1c-0.2,0-0.4,0.2-0.4,0.4l0,0v1.1c0,0.2,0.2,0.4,0.4,0.4l0,0h1.1
							C255.5,181.7,255.7,181.5,255.7,181.2L255.7,181.2 M259.3,182.4h-1.1c-0.2,0-0.4,0.2-0.4,0.4l0,0v1.1c0,0.2,0.2,0.4,0.4,0.4
							l0,0h1.1c0.2,0,0.4-0.2,0.4-0.4l0,0v-1.1C259.7,182.6,259.5,182.4,259.3,182.4 M256.5,182.4h-1.1c-0.2,0-0.4,0.2-0.4,0.4v1.1
							c0,0.2,0.2,0.4,0.4,0.4c0,0,0,0,0,0h1.1c0.2,0,0.4-0.2,0.4-0.4l0,0v-1.1C257,182.6,256.8,182.4,256.5,182.4L256.5,182.4"/>
						<path class="st8" d="M260.6,176.7c0.5,0.4,1.1,0.5,1.6,0.5c0,0,0,0,0,0.1v2.9c0,1.1-1.4,1.8-1.7,2c0,0,0,0,0,0L260.6,176.7
							C260.5,176.7,260.5,176.7,260.6,176.7"/>
						<path class="st8" d="M257.4,176.5c2.3-0.1,2.6-0.9,2.6-0.9c0,0,0.1-0.1,0.1-0.1c0,0,0.1,0,0.1,0s0.3,0.8,2.6,0.8
							c0.1,0,0.1,0,0.1,0.1v3.8c0,1.2-2.3,2.6-2.4,2.6s-0.1,0.1-0.1,0.1v1c0,0,0.1,0.1,0.2,0c0.9-0.5,3.3-1.8,3.3-3.4v-4.9
							c0-0.1-0.1-0.1-0.2-0.1c-2.9,0-3.4-1-3.4-1s-0.1,0-0.2,0s-0.1,0-0.1,0s-0.5,1.1-3.3,1.1c-0.1,0-0.1,0-0.1,0.1v0.6
							c0,0,0,0.1,0.1,0.1S257.4,176.6,257.4,176.5"/>
						<path class="st9" d="M266,182.8l1.1-0.4c0.3,0.6,0.9,0.9,1.5,0.9c0.3,0,0.6-0.1,0.9-0.2c0.2-0.1,0.4-0.4,0.4-0.6
							c0-0.6-0.8-1-1.5-1.2l0,0c-0.5-0.2-0.9-0.4-1.3-0.7c-0.4-0.3-0.7-0.8-0.7-1.3c0-0.5,0.3-1.1,0.7-1.4c0.5-0.4,1.1-0.6,1.7-0.6
							c0.9,0,1.8,0.4,2.2,1.2l-1.2,0.4c-0.1-0.2-0.2-0.3-0.4-0.4c-0.2-0.1-0.4-0.1-0.6-0.1c-0.6,0-1.1,0.4-1.1,0.8
							c0,0.3,0.2,0.6,0.5,0.7c0.3,0.2,0.6,0.4,1,0.5l0.1,0.1c0.9,0.4,2,0.8,2,2c0,0.6-0.3,1.1-0.8,1.4c-0.5,0.4-1.2,0.6-1.9,0.5
							C267.6,184.4,266.5,183.8,266,182.8"/>
						<path class="st9" d="M276.1,184.3c-0.5,0-1-0.1-1.4-0.3c-0.4-0.2-0.8-0.4-1.1-0.8c-0.3-0.3-0.6-0.7-0.8-1.1
							c-0.4-0.9-0.4-1.9,0-2.8c0.2-0.4,0.4-0.8,0.8-1.1c0.3-0.3,0.7-0.6,1.1-0.8c0.4-0.2,0.9-0.3,1.4-0.3c0.6,0,1.1,0.1,1.6,0.4
							c0.5,0.2,0.9,0.6,1.2,1l-1,0.7c-0.2-0.3-0.5-0.5-0.8-0.7c-0.3-0.2-0.7-0.3-1.1-0.3c-0.6,0-1.3,0.3-1.7,0.7
							c-0.5,0.4-0.7,1.1-0.7,1.7c0,1.3,1.1,2.4,2.4,2.4c0.4,0,0.9-0.1,1.2-0.4c0.4-0.2,0.7-0.5,0.9-0.9l1,0.6
							c-0.3,0.5-0.8,1-1.3,1.3C277.4,184.1,276.8,184.3,276.1,184.3"/>
						<path class="st9" d="M284,184.3c-0.5,0-1-0.1-1.4-0.3c-0.4-0.2-0.8-0.4-1.1-0.8c-0.3-0.3-0.6-0.7-0.8-1.1
							c-0.2-0.4-0.3-0.9-0.3-1.4c0-0.5,0.1-1,0.3-1.4c0.2-0.4,0.4-0.8,0.8-1.1c0.3-0.3,0.7-0.6,1.1-0.8c0.4-0.2,0.9-0.3,1.4-0.3
							c0.5,0,1,0.1,1.4,0.3c0.4,0.2,0.8,0.4,1.1,0.8c0.3,0.3,0.6,0.7,0.8,1.1c0.6,1.4,0.3,3-0.8,4c-0.3,0.3-0.7,0.6-1.1,0.8
							C285,184.3,284.5,184.4,284,184.3 M284,178.3c-0.6,0-1.3,0.3-1.7,0.7c-0.5,0.5-0.7,1.1-0.7,1.7c0,0.6,0.2,1.3,0.7,1.7
							c1,0.9,2.5,0.9,3.4,0c0.4-0.5,0.7-1.1,0.7-1.7c0-0.6-0.3-1.3-0.7-1.7C285.3,178.6,284.7,178.3,284,178.3"/>
						<polygon class="st9" points="295.9,177.2 295.9,184.5 290.8,179.9 290.8,184.2 289.5,184.2 289.5,176.9 294.6,181.6 
							294.6,177.2 						"/>
						<polygon class="st9" points="299.3,178.2 299.3,180.1 302.8,180.1 302.8,181.2 299.3,181.2 299.3,183.1 303.3,183.1 
							303.3,184.2 298,184.2 298,177.2 303.3,177.2 303.3,178.3 299.3,178.3 						"/>
					</g>
				</g>
			</g>
		</g>
	</g>
	<path class="st10" d="M267.2,19.2c6-5.9,15.7-5.8,21.7,0.2s5.8,15.7-0.2,21.7s-15.7,5.8-21.7-0.2c-2.8-2.8-4.4-6.7-4.4-10.7
		c0-3.4,1.1-6.6,3.1-9.3"/>
	<path class="st2" d="M278,37.5h-5.5c-0.8,0-1-0.3-1-1V28c0-0.8,0.3-1,1-1h11c0.7,0,1,0.3,1,1v8.5c0,0.7-0.3,1-1,1
		C281.6,37.5,279.8,37.5,278,37.5z"/>
	<path class="st2" d="M272.3,26.2c0-2.3,1.3-4.4,3.5-5.4c2.8-1.2,6,0,7.2,2.8c0.1,0.3,0.2,0.6,0.3,0.9c0.1,0.5,0.2,1,0.3,1.5"/>
	<path class="st11" d="M277,33.9L277,33.9V35c0,0.2,0.1,0.3,0.3,0.3h1.1c0.3,0,0.4-0.1,0.4-0.3v-2.1c0-0.2,0.1-0.4,0.3-0.5
		c0.7-0.3,1-1.1,0.8-1.9c-0.3-0.8-1.1-1.3-1.9-1.3c-0.9-0.1-1.7,0.4-2.1,1.1c-0.3,0.8,0,1.6,0.7,2c0.3,0.1,0.4,0.4,0.3,0.7
		C277,33.3,277.1,33.6,277,33.9z"/>
	<path class="st12" d="M87.3,300.5c-2.8,0-5.3,1.9-6,4.7H68l-1.6,1.6l1.4,1.3l1.9,1.9l1.7-1.7l1,1l1.1-1.1h0.2l1.8,1.8l1.8-1.8h3.9
		c0.8,3.3,4.2,5.3,7.5,4.5c3.3-0.8,5.3-4.2,4.5-7.5C92.5,302.4,90.1,300.4,87.3,300.5L87.3,300.5z M90,307.9c-0.7,0-1.3-0.6-1.3-1.3
		s0.6-1.3,1.3-1.3s1.3,0.6,1.3,1.3l0,0C91.3,307.3,90.7,307.9,90,307.9z"/>
	<g class="st4">
		<path class="st5" d="M468.5,206.1c0.5,0,0.8-0.1,1-0.3c0.2-0.2,0.3-0.5,0.3-0.9c0-0.3-0.1-0.6-0.4-0.8c-0.3-0.2-0.7-0.3-1.2-0.3
			c-0.3,0-0.6,0.1-0.9,0.2s-0.5,0.2-0.6,0.4l-0.2,1.1h-1.3v-1.6c0.3-0.4,0.8-0.7,1.3-1c0.5-0.2,1.1-0.4,1.8-0.4c1,0,1.8,0.2,2.3,0.6
			c0.6,0.4,0.9,1,0.9,1.8c0,0.4-0.1,0.8-0.4,1.1c-0.2,0.3-0.6,0.6-1,0.8c0.5,0.2,0.8,0.4,1.1,0.8s0.4,0.8,0.4,1.3
			c0,0.8-0.3,1.4-0.9,1.9c-0.6,0.5-1.4,0.7-2.4,0.7c-0.9,0-1.6-0.2-2.3-0.6c-0.6-0.4-0.9-1-0.9-1.9l0,0h1.7c0,0.3,0.1,0.6,0.4,0.9
			c0.3,0.2,0.6,0.3,1.1,0.3c0.5,0,0.9-0.1,1.2-0.3c0.3-0.2,0.4-0.5,0.4-0.9c0-0.5-0.1-0.8-0.4-1c-0.3-0.2-0.6-0.3-1.1-0.3h-1.1v-1.3
			H468.5z"/>
		<path class="st5" d="M476.1,210.2l0.9-0.2v-3.9h-1.6v1.4c0,1.3-0.2,2.2-0.6,2.8s-1.1,0.9-2,0.9h-0.3l0-1.4l0.2,0
			c0.4,0,0.7-0.2,0.8-0.5c0.1-0.3,0.2-0.9,0.2-1.8V206l-0.9-0.2v-1.1h6h0.9v1.1l-0.9,0.2v4l0.9,0.2v1h-3.6V210.2z"/>
	</g>
	<g class="st4">
		<path class="st5" d="M480.5,207.9c0-1,0.3-1.8,0.8-2.4c0.5-0.6,1.3-0.9,2.2-0.9c1,0,1.7,0.3,2.2,0.9c0.5,0.6,0.8,1.4,0.8,2.4v0.1
			c0,1-0.3,1.8-0.8,2.4s-1.3,0.9-2.2,0.9c-1,0-1.7-0.3-2.3-0.9s-0.8-1.4-0.8-2.4V207.9z M482.3,208.1c0,0.6,0.1,1.1,0.3,1.4
			s0.5,0.5,1,0.5c0.5,0,0.8-0.2,1-0.5s0.3-0.8,0.3-1.4v-0.1c0-0.6-0.1-1-0.3-1.4c-0.2-0.4-0.5-0.5-1-0.5s-0.8,0.2-1,0.5
			c-0.2,0.4-0.3,0.8-0.3,1.4V208.1z"/>
	</g>
	<g class="st4">
		<path class="st5" d="M494,205.8l-0.6,0.1l-2.4,6.3c-0.2,0.5-0.4,0.9-0.8,1.2s-0.8,0.5-1.4,0.5c-0.1,0-0.3,0-0.4,0
			c-0.1,0-0.3-0.1-0.5-0.1l0.2-1.3c0.1,0,0.1,0,0.2,0c0.1,0,0.1,0,0.2,0c0.3,0,0.5-0.1,0.7-0.2c0.2-0.1,0.3-0.3,0.4-0.5l0.2-0.5
			l-2-5.3l-0.6-0.1v-1.1h3.2v1.1l-0.7,0.1l0.9,2.6l0.1,0.5l0,0l1-3.1l-0.7-0.1v-1.1h3.2V205.8z"/>
		<path class="st5" d="M499.4,209.2L499.4,209.2l1.7-4.4h2.2h0.9v1.1l-0.9,0.2v4l0.9,0.2v1h-3.3v-1l0.7-0.2v-2.6l0,0l-1.5,3.9h-1.2
			l-1.5-3.8l0,0v2.6l0.7,0.2v1h-3.3v-1l0.9-0.2v-4l-0.9-0.2v-1.1h0.9h2.2L499.4,209.2z"/>
		<path class="st5" d="M507.9,204.8v2.1h1.2c0.9,0,1.6,0.2,2.1,0.6s0.7,0.9,0.7,1.6c0,0.7-0.2,1.2-0.7,1.6s-1.2,0.6-2.1,0.6h-3.9v-1
			l0.9-0.2v-4l-0.9-0.2v-1.1h0.9H507.9z M508.9,204.8v1.1l-0.9,0.2v-1.2H508.9z M507.9,208.1v1.8h1.2c0.4,0,0.6-0.1,0.8-0.2
			c0.2-0.2,0.3-0.4,0.3-0.6c0-0.3-0.1-0.5-0.3-0.7c-0.2-0.2-0.4-0.3-0.8-0.3H507.9z M512,205.8v-1.1h2.7v5.2l0.8,0.2v1h-3.4v-1
			l0.8-0.2v-4L512,205.8z"/>
		<path class="st5" d="M516.1,205.8v-1.1h2.7h0.9v1.1l-0.9,0.2v3.9h1.8v-5.1h1.7v5.1h1.8V206l-0.9-0.2v-1.1h2.7h0.9v1.1l-0.9,0.2v4
			l0.9,0.2v1h-10.6v-1l0.9-0.2v-4L516.1,205.8z"/>
		<path class="st5" d="M531.1,210.2l0.9-0.2v-3.9h-1.6v1.4c0,1.3-0.2,2.2-0.6,2.8s-1.1,0.9-2,0.9h-0.3l0-1.4l0.2,0
			c0.4,0,0.7-0.2,0.8-0.5c0.1-0.3,0.2-0.9,0.2-1.8V206l-0.9-0.2v-1.1h6h0.9v1.1l-0.9,0.2v4l0.9,0.2v1h-3.6V210.2z"/>
		<path class="st5" d="M538.6,211.3c-0.9,0-1.7-0.3-2.2-0.9c-0.6-0.6-0.8-1.4-0.8-2.3v-0.2c0-1,0.3-1.8,0.8-2.4
			c0.5-0.6,1.2-0.9,2.1-0.9c0.9,0,1.5,0.3,2,0.8c0.5,0.5,0.7,1.2,0.7,2.1v1h-3.9l0,0c0,0.4,0.2,0.8,0.4,1.1c0.3,0.3,0.6,0.4,1,0.4
			c0.4,0,0.7,0,1-0.1c0.3-0.1,0.5-0.2,0.8-0.4l0.5,1.1c-0.3,0.2-0.6,0.4-1,0.5C539.6,211.3,539.1,211.3,538.6,211.3z M538.4,206
			c-0.3,0-0.6,0.1-0.8,0.4c-0.2,0.2-0.3,0.6-0.3,1l0,0h2.1v-0.2c0-0.4-0.1-0.7-0.3-0.9C539,206.1,538.8,206,538.4,206z"/>
		<path class="st5" d="M542.1,205.8v-1.1h3.4v1.1l-0.8,0.2v1.4h2.1V206l-0.7-0.2v-1.1h0.7h1.7h0.9v1.1l-0.9,0.2v4l0.9,0.2v1h-3.4v-1
			l0.7-0.2v-1.3h-2.1v1.3l0.8,0.2v1h-3.4v-1l0.9-0.2v-4L542.1,205.8z"/>
		<path class="st5" d="M550.6,205.8v-1.1h3.4v1.1l-0.8,0.2v1.4h2.1V206l-0.7-0.2v-1.1h0.7h1.7h0.9v1.1l-0.9,0.2v4l0.9,0.2v1h-3.4v-1
			l0.7-0.2v-1.3h-2.1v1.3l0.8,0.2v1h-3.4v-1l0.9-0.2v-4L550.6,205.8z"/>
		<path class="st5" d="M562.6,204.8v1.1l-0.8,0.2v2.7l0,0l2.1-3.9h1.7h0.9v1.1l-0.9,0.2v4l0.9,0.2v1H563v-1l0.8-0.2v-2.7l0,0
			l-2.1,3.9H559v-1l0.9-0.2v-4l-0.9-0.2v-1.1h2.7H562.6z"/>
		<path class="st5" d="M567.5,205.8v-1.1h3.5v1.1l-0.8,0.2v1.2h0.6l1-1.4c0.2-0.4,0.5-0.7,0.8-0.8c0.3-0.2,0.6-0.3,1-0.3
			c0.2,0,0.4,0,0.5,0.1c0.2,0.1,0.3,0.1,0.5,0.2l-0.3,1.2c-0.1,0-0.2-0.1-0.2-0.1c0,0-0.1,0-0.2,0c-0.1,0-0.2,0-0.4,0.1
			c-0.1,0.1-0.2,0.2-0.3,0.3l-0.8,1.2l1.5,2.2l0.9,0.1v1h-2.4l-1.4-2.4h-0.7v1.2l0.8,0.2v1h-3.5v-1l0.9-0.2v-4L567.5,205.8z"/>
		<path class="st5" d="M581.4,210c0.3,0,0.6-0.1,0.7-0.3c0.2-0.2,0.3-0.4,0.3-0.7h1.6l0,0c0,0.7-0.2,1.2-0.7,1.6s-1.1,0.7-1.9,0.7
			c-1,0-1.7-0.3-2.2-0.9c-0.5-0.6-0.8-1.4-0.8-2.3v-0.2c0-1,0.3-1.7,0.8-2.3c0.5-0.6,1.3-0.9,2.3-0.9c0.5,0,1,0.1,1.4,0.2
			c0.4,0.2,0.8,0.4,1,0.7l0,1.7h-1.4l-0.3-1c-0.1-0.1-0.2-0.1-0.3-0.2s-0.3-0.1-0.4-0.1c-0.5,0-0.8,0.2-1,0.5
			c-0.2,0.4-0.3,0.8-0.3,1.4v0.2c0,0.6,0.1,1,0.3,1.4C580.6,209.8,580.9,210,581.4,210z"/>
	</g>
	<g class="st4">
		<path class="st5" d="M587.9,210.2l0.8-0.2v-4l-0.9-0.2v-1.1h2.6l0.1,0.9c0.2-0.3,0.3-0.6,0.6-0.8c0.2-0.2,0.5-0.3,0.8-0.3
			c0.1,0,0.2,0,0.3,0c0.1,0,0.2,0,0.3,0.1l-0.2,1.6l-0.7,0c-0.3,0-0.5,0-0.6,0.1c-0.2,0.1-0.3,0.2-0.4,0.4v3.1l0.8,0.2v1h-3.4V210.2
			z"/>
	</g>
	<g class="st4">
		<path class="st5" d="M592.8,207.9c0-1,0.3-1.8,0.8-2.4c0.5-0.6,1.3-0.9,2.2-0.9c1,0,1.7,0.3,2.2,0.9c0.5,0.6,0.8,1.4,0.8,2.4v0.1
			c0,1-0.3,1.8-0.8,2.4c-0.5,0.6-1.3,0.9-2.2,0.9c-1,0-1.7-0.3-2.3-0.9c-0.5-0.6-0.8-1.4-0.8-2.4V207.9z M594.6,208.1
			c0,0.6,0.1,1.1,0.3,1.4s0.5,0.5,1,0.5c0.5,0,0.8-0.2,1-0.5c0.2-0.4,0.3-0.8,0.3-1.4v-0.1c0-0.6-0.1-1-0.3-1.4
			c-0.2-0.4-0.5-0.5-1-0.5c-0.5,0-0.8,0.2-1,0.5c-0.2,0.4-0.3,0.8-0.3,1.4V208.1z"/>
		<path class="st5" d="M599.7,207.9c0-1,0.3-1.8,0.8-2.4c0.5-0.6,1.3-0.9,2.2-0.9c1,0,1.7,0.3,2.2,0.9c0.5,0.6,0.8,1.4,0.8,2.4v0.1
			c0,1-0.3,1.8-0.8,2.4c-0.5,0.6-1.3,0.9-2.2,0.9c-1,0-1.7-0.3-2.3-0.9c-0.5-0.6-0.8-1.4-0.8-2.4V207.9z M601.4,208.1
			c0,0.6,0.1,1.1,0.3,1.4s0.5,0.5,1,0.5c0.5,0,0.8-0.2,1-0.5c0.2-0.4,0.3-0.8,0.3-1.4v-0.1c0-0.6-0.1-1-0.3-1.4
			c-0.2-0.4-0.5-0.5-1-0.5c-0.5,0-0.8,0.2-1,0.5c-0.2,0.4-0.3,0.8-0.3,1.4V208.1z"/>
		<path class="st5" d="M609.1,203.2v1.6h1.1v1.2h-1.1v3.3c0,0.3,0.1,0.4,0.2,0.5s0.2,0.2,0.4,0.2c0.1,0,0.2,0,0.3,0
			c0.1,0,0.2,0,0.3-0.1l0.1,1.3c-0.2,0.1-0.4,0.1-0.6,0.1c-0.2,0-0.4,0-0.6,0c-0.6,0-1.1-0.2-1.4-0.5c-0.3-0.3-0.5-0.9-0.5-1.6V206
			h-1v-1.2h1v-1.6H609.1z"/>
	</g>
	<g class="st4">
		<path class="st5" d="M510.3,224.9l0.9-0.2v-4l-0.9-0.2v-1.1h7.5v1.1l-0.9,0.2v4l0.9,0.2v1h-3.4v-1l0.8-0.2v-3.9H513v3.9l0.8,0.2v1
			h-3.4V224.9z"/>
		<path class="st5" d="M518.5,220.5v-1.1h2.5l0.1,0.8c0.2-0.3,0.4-0.5,0.7-0.6s0.6-0.2,0.9-0.2c0.8,0,1.4,0.3,1.9,0.9
			c0.4,0.6,0.7,1.4,0.7,2.5v0.1c0,1-0.2,1.7-0.7,2.3s-1.1,0.9-1.9,0.9c-0.3,0-0.6-0.1-0.9-0.2c-0.3-0.1-0.5-0.3-0.7-0.6v1.9l0.8,0.2
			v1.1h-3.4v-1.1l0.8-0.2v-6.5L518.5,220.5z M523.5,222.7c0-0.6-0.1-1.1-0.3-1.5c-0.2-0.4-0.5-0.6-0.9-0.6c-0.3,0-0.5,0.1-0.7,0.2
			s-0.3,0.3-0.4,0.5v2.8c0.1,0.2,0.3,0.3,0.4,0.4s0.4,0.1,0.7,0.1c0.4,0,0.7-0.2,0.9-0.5c0.2-0.3,0.3-0.8,0.3-1.3V222.7z"/>
		<path class="st5" d="M530.2,225.9c0-0.1-0.1-0.2-0.1-0.3c0-0.1-0.1-0.2-0.1-0.3c-0.2,0.2-0.5,0.4-0.8,0.6s-0.6,0.2-1,0.2
			c-0.6,0-1.1-0.2-1.5-0.5c-0.4-0.3-0.6-0.8-0.6-1.4c0-0.6,0.2-1.1,0.7-1.4c0.5-0.3,1.2-0.5,2.1-0.5h0.9v-0.6c0-0.3-0.1-0.6-0.3-0.7
			c-0.2-0.2-0.4-0.3-0.8-0.3c-0.2,0-0.4,0-0.5,0.1s-0.3,0.1-0.4,0.2l-0.1,0.7h-1.3l0-1.4c0.3-0.2,0.7-0.4,1.1-0.5s0.9-0.2,1.3-0.2
			c0.8,0,1.5,0.2,2,0.6c0.5,0.4,0.8,1,0.8,1.7v2.7c0,0.1,0,0.2,0,0.3c0,0.1,0,0.2,0,0.3l0.5,0.1v1H530.2z M528.7,224.7
			c0.3,0,0.5-0.1,0.7-0.2c0.2-0.1,0.4-0.3,0.5-0.4v-1H529c-0.4,0-0.7,0.1-0.8,0.3s-0.3,0.4-0.3,0.6c0,0.2,0.1,0.4,0.2,0.5
			C528.2,224.7,528.4,224.7,528.7,224.7z"/>
		<path class="st5" d="M536.6,219.4c0.9,0,1.5,0.2,2,0.5c0.5,0.3,0.7,0.8,0.7,1.4c0,0.3-0.1,0.6-0.3,0.8c-0.2,0.2-0.5,0.4-0.9,0.5
			c0.5,0.1,0.9,0.3,1.1,0.5c0.3,0.3,0.4,0.6,0.4,0.9c0,0.6-0.2,1.1-0.7,1.4c-0.5,0.3-1.1,0.5-2,0.5H533v-1l0.9-0.2v-4l-0.9-0.2v-1.1
			h0.9H536.6z M535.6,222.1h1.1c0.3,0,0.5-0.1,0.7-0.2s0.2-0.3,0.2-0.5c0-0.2-0.1-0.4-0.2-0.5c-0.2-0.1-0.4-0.2-0.7-0.2h-1V222.1z
			 M535.6,223.2v1.4h1.4c0.3,0,0.5-0.1,0.7-0.2c0.1-0.1,0.2-0.3,0.2-0.5c0-0.2-0.1-0.4-0.2-0.5c-0.1-0.1-0.4-0.2-0.7-0.2H535.6z"/>
		<path class="st5" d="M544.6,225.9c0-0.1-0.1-0.2-0.1-0.3c0-0.1-0.1-0.2-0.1-0.3c-0.2,0.2-0.5,0.4-0.8,0.6s-0.6,0.2-1,0.2
			c-0.6,0-1.1-0.2-1.5-0.5s-0.6-0.8-0.6-1.4c0-0.6,0.2-1.1,0.7-1.4c0.5-0.3,1.2-0.5,2.1-0.5h0.9v-0.6c0-0.3-0.1-0.6-0.3-0.7
			c-0.2-0.2-0.4-0.3-0.8-0.3c-0.2,0-0.4,0-0.5,0.1c-0.2,0-0.3,0.1-0.4,0.2l-0.1,0.7h-1.3l0-1.4c0.3-0.2,0.7-0.4,1.1-0.5
			s0.9-0.2,1.3-0.2c0.8,0,1.5,0.2,2,0.6c0.5,0.4,0.8,1,0.8,1.7v2.7c0,0.1,0,0.2,0,0.3c0,0.1,0,0.2,0,0.3l0.5,0.1v1H544.6z
			 M543.1,224.7c0.3,0,0.5-0.1,0.7-0.2c0.2-0.1,0.4-0.3,0.5-0.4v-1h-0.9c-0.4,0-0.7,0.1-0.8,0.3s-0.3,0.4-0.3,0.6
			c0,0.2,0.1,0.4,0.2,0.5C542.6,224.7,542.8,224.7,543.1,224.7z"/>
		<path class="st5" d="M552.1,223.9L552.1,223.9l1.7-4.4h2.2h0.9v1.1l-0.9,0.2v4l0.9,0.2v1h-3.3v-1l0.7-0.2v-2.6l0,0l-1.5,3.9h-1.2
			l-1.5-3.8l0,0v2.6l0.7,0.2v1h-3.3v-1l0.9-0.2v-4l-0.9-0.2v-1.1h0.9h2.2L552.1,223.9z"/>
		<path class="st5" d="M561.4,219.4v1.1l-0.8,0.2v2.7l0,0l2.1-3.9h1.7h0.9v1.1l-0.9,0.2v4l0.9,0.2v1h-3.5v-1l0.8-0.2V222l0,0
			l-2.1,3.9h-2.7v-1l0.9-0.2v-4l-0.9-0.2v-1.1h2.7H561.4z"/>
	</g>
	<g class="st4">
		<path class="st5" d="M21.4,368.4c0.5,0,0.8-0.1,1-0.3c0.2-0.2,0.3-0.5,0.3-0.9c0-0.3-0.1-0.6-0.4-0.8c-0.3-0.2-0.7-0.3-1.2-0.3
			c-0.3,0-0.6,0.1-0.9,0.2c-0.3,0.1-0.5,0.2-0.6,0.4l-0.2,1.1h-1.3V366c0.3-0.4,0.8-0.7,1.3-1c0.5-0.2,1.1-0.4,1.8-0.4
			c1,0,1.8,0.2,2.3,0.6c0.6,0.4,0.9,1,0.9,1.8c0,0.4-0.1,0.8-0.4,1.1c-0.2,0.3-0.6,0.6-1,0.8c0.5,0.2,0.8,0.4,1.1,0.8
			s0.4,0.8,0.4,1.3c0,0.8-0.3,1.4-0.9,1.9s-1.4,0.7-2.4,0.7c-0.9,0-1.6-0.2-2.3-0.6c-0.6-0.4-0.9-1-0.9-1.9l0,0h1.7
			c0,0.3,0.1,0.6,0.4,0.9c0.3,0.2,0.6,0.3,1.1,0.3c0.5,0,0.9-0.1,1.2-0.3c0.3-0.2,0.4-0.5,0.4-0.9c0-0.5-0.1-0.8-0.4-1
			c-0.3-0.2-0.6-0.3-1.1-0.3h-1.1v-1.3H21.4z"/>
		<path class="st5" d="M29,372.4l0.9-0.2v-3.9h-1.6v1.4c0,1.3-0.2,2.2-0.6,2.8s-1.1,0.9-2,0.9h-0.3l0-1.4l0.2,0
			c0.4,0,0.7-0.2,0.8-0.5c0.1-0.3,0.2-0.9,0.2-1.8v-1.5l-0.9-0.2V367h6h0.9v1.1l-0.9,0.2v4l0.9,0.2v1H29V372.4z"/>
	</g>
	<g class="st4">
		<path class="st5" d="M33.4,370.2c0-1,0.3-1.8,0.8-2.4c0.5-0.6,1.3-0.9,2.2-0.9c1,0,1.7,0.3,2.2,0.9c0.5,0.6,0.8,1.4,0.8,2.4v0.1
			c0,1-0.3,1.8-0.8,2.4c-0.5,0.6-1.3,0.9-2.2,0.9c-1,0-1.7-0.3-2.3-0.9c-0.5-0.6-0.8-1.4-0.8-2.4V370.2z M35.1,370.3
			c0,0.6,0.1,1.1,0.3,1.4c0.2,0.4,0.5,0.5,1,0.5c0.5,0,0.8-0.2,1-0.5c0.2-0.4,0.3-0.8,0.3-1.4v-0.1c0-0.6-0.1-1-0.3-1.4
			c-0.2-0.4-0.5-0.5-1-0.5c-0.5,0-0.8,0.2-1,0.5c-0.2,0.4-0.3,0.8-0.3,1.4V370.3z"/>
	</g>
	<g class="st4">
		<path class="st5" d="M46.9,368l-0.6,0.1l-2.4,6.3c-0.2,0.5-0.4,0.9-0.8,1.2c-0.3,0.3-0.8,0.5-1.4,0.5c-0.1,0-0.3,0-0.4,0
			c-0.1,0-0.3-0.1-0.5-0.1l0.2-1.3c0.1,0,0.1,0,0.2,0c0.1,0,0.1,0,0.2,0c0.3,0,0.5-0.1,0.7-0.2c0.2-0.1,0.3-0.3,0.4-0.5l0.2-0.5
			l-2-5.3l-0.6-0.1V367h3.2v1.1l-0.7,0.1l0.9,2.6l0.1,0.5l0,0l1-3.1l-0.7-0.1V367h3.2V368z"/>
		<path class="st5" d="M52.3,371.4L52.3,371.4L54,367h2.2h0.9v1.1l-0.9,0.2v4l0.9,0.2v1h-3.3v-1l0.7-0.2v-2.6l0,0l-1.5,3.9h-1.2
			l-1.5-3.8l0,0v2.6l0.7,0.2v1h-3.3v-1l0.9-0.2v-4l-0.9-0.2V367h0.9h2.2L52.3,371.4z"/>
		<path class="st5" d="M60.8,367v2.1H62c0.9,0,1.6,0.2,2.1,0.6s0.7,0.9,0.7,1.6c0,0.7-0.2,1.2-0.7,1.6s-1.2,0.6-2.1,0.6h-3.9v-1
			l0.9-0.2v-4l-0.9-0.2V367H59H60.8z M61.7,367v1.1l-0.9,0.2V367H61.7z M60.8,370.3v1.8H62c0.4,0,0.6-0.1,0.8-0.2
			c0.2-0.2,0.3-0.4,0.3-0.6c0-0.3-0.1-0.5-0.3-0.7c-0.2-0.2-0.4-0.3-0.8-0.3H60.8z M64.8,368V367h2.7v5.2l0.8,0.2v1h-3.4v-1l0.8-0.2
			v-4L64.8,368z"/>
		<path class="st5" d="M69,368V367h2.7h0.9v1.1l-0.9,0.2v3.9h1.8V367h1.7v5.1h1.8v-3.9L76,368V367h2.7h0.9v1.1l-0.9,0.2v4l0.9,0.2v1
			H69v-1l0.9-0.2v-4L69,368z"/>
		<path class="st5" d="M83.9,372.4l0.9-0.2v-3.9h-1.6v1.4c0,1.3-0.2,2.2-0.6,2.8s-1.1,0.9-2,0.9h-0.3l0-1.4l0.2,0
			c0.4,0,0.7-0.2,0.8-0.5c0.1-0.3,0.2-0.9,0.2-1.8v-1.5l-0.9-0.2V367h6h0.9v1.1l-0.9,0.2v4l0.9,0.2v1h-3.6V372.4z"/>
		<path class="st5" d="M91.4,373.6c-0.9,0-1.7-0.3-2.2-0.9s-0.8-1.4-0.8-2.3v-0.2c0-1,0.3-1.8,0.8-2.4c0.5-0.6,1.2-0.9,2.1-0.9
			c0.9,0,1.5,0.3,2,0.8c0.5,0.5,0.7,1.2,0.7,2.1v1h-3.9l0,0c0,0.4,0.2,0.8,0.4,1.1c0.3,0.3,0.6,0.4,1,0.4c0.4,0,0.7,0,1-0.1
			c0.3-0.1,0.5-0.2,0.8-0.4l0.5,1.1c-0.3,0.2-0.6,0.4-1,0.5C92.4,373.5,92,373.6,91.4,373.6z M91.3,368.2c-0.3,0-0.6,0.1-0.8,0.4
			c-0.2,0.2-0.3,0.6-0.3,1l0,0h2.1v-0.2c0-0.4-0.1-0.7-0.3-0.9C91.9,368.3,91.6,368.2,91.3,368.2z"/>
		<path class="st5" d="M95,368V367h3.4v1.1l-0.8,0.2v1.4h2.1v-1.4L99,368V367h0.7h1.7h0.9v1.1l-0.9,0.2v4l0.9,0.2v1H99v-1l0.7-0.2
			V371h-2.1v1.3l0.8,0.2v1H95v-1l0.9-0.2v-4L95,368z"/>
		<path class="st5" d="M103.4,368V367h3.4v1.1l-0.8,0.2v1.4h2.1v-1.4l-0.7-0.2V367h0.7h1.7h0.9v1.1l-0.9,0.2v4l0.9,0.2v1h-3.4v-1
			l0.7-0.2V371h-2.1v1.3l0.8,0.2v1h-3.4v-1l0.9-0.2v-4L103.4,368z"/>
		<path class="st5" d="M115.4,367v1.1l-0.8,0.2v2.7l0,0l2.1-3.9h1.7h0.9v1.1l-0.9,0.2v4l0.9,0.2v1h-3.5v-1l0.8-0.2v-2.7l0,0
			l-2.1,3.9h-2.7v-1l0.9-0.2v-4l-0.9-0.2V367h2.7H115.4z"/>
		<path class="st5" d="M120.4,368V367h3.5v1.1l-0.8,0.2v1.2h0.6l1-1.4c0.2-0.4,0.5-0.7,0.8-0.8s0.6-0.3,1-0.3c0.2,0,0.4,0,0.5,0.1
			s0.3,0.1,0.5,0.2l-0.3,1.2c-0.1,0-0.2-0.1-0.2-0.1c0,0-0.1,0-0.2,0c-0.1,0-0.2,0-0.4,0.1s-0.2,0.2-0.3,0.3l-0.8,1.2l1.5,2.2
			l0.9,0.1v1h-2.4l-1.4-2.4h-0.7v1.2l0.8,0.2v1h-3.5v-1l0.9-0.2v-4L120.4,368z"/>
		<path class="st5" d="M134.2,372.2c0.3,0,0.6-0.1,0.7-0.3c0.2-0.2,0.3-0.4,0.3-0.7h1.6l0,0c0,0.7-0.2,1.2-0.7,1.6s-1.1,0.7-1.9,0.7
			c-1,0-1.7-0.3-2.2-0.9c-0.5-0.6-0.8-1.4-0.8-2.3v-0.2c0-1,0.3-1.7,0.8-2.3c0.5-0.6,1.3-0.9,2.3-0.9c0.5,0,1,0.1,1.4,0.2
			c0.4,0.2,0.8,0.4,1,0.7l0,1.7h-1.4l-0.3-1c-0.1-0.1-0.2-0.1-0.3-0.2c-0.1,0-0.3-0.1-0.4-0.1c-0.5,0-0.8,0.2-1,0.5
			c-0.2,0.4-0.3,0.8-0.3,1.4v0.2c0,0.6,0.1,1,0.3,1.4C133.4,372.1,133.8,372.2,134.2,372.2z"/>
	</g>
	<g class="st4">
		<path class="st5" d="M36.8,387.1l0.8-0.2v-4l-0.9-0.2v-1.1h2.6l0.1,0.9c0.2-0.3,0.3-0.6,0.6-0.8c0.2-0.2,0.5-0.3,0.8-0.3
			c0.1,0,0.2,0,0.3,0c0.1,0,0.2,0,0.3,0.1l-0.2,1.6l-0.7,0c-0.3,0-0.5,0-0.6,0.1c-0.2,0.1-0.3,0.2-0.4,0.4v3.1l0.8,0.2v1h-3.4V387.1
			z"/>
	</g>
	<g class="st4">
		<path class="st5" d="M41.7,384.9c0-1,0.3-1.8,0.8-2.4c0.5-0.6,1.3-0.9,2.2-0.9c1,0,1.7,0.3,2.2,0.9c0.5,0.6,0.8,1.4,0.8,2.4v0.1
			c0,1-0.3,1.8-0.8,2.4c-0.5,0.6-1.3,0.9-2.2,0.9c-1,0-1.7-0.3-2.3-0.9c-0.5-0.6-0.8-1.4-0.8-2.4V384.9z M43.5,385
			c0,0.6,0.1,1.1,0.3,1.4c0.2,0.4,0.5,0.5,1,0.5c0.5,0,0.8-0.2,1-0.5c0.2-0.4,0.3-0.8,0.3-1.4v-0.1c0-0.6-0.1-1-0.3-1.4
			c-0.2-0.4-0.5-0.5-1-0.5c-0.5,0-0.8,0.2-1,0.5c-0.2,0.4-0.3,0.8-0.3,1.4V385z"/>
		<path class="st5" d="M48.6,384.9c0-1,0.3-1.8,0.8-2.4c0.5-0.6,1.3-0.9,2.2-0.9c1,0,1.7,0.3,2.2,0.9c0.5,0.6,0.8,1.4,0.8,2.4v0.1
			c0,1-0.3,1.8-0.8,2.4c-0.5,0.6-1.3,0.9-2.2,0.9c-1,0-1.7-0.3-2.3-0.9c-0.5-0.6-0.8-1.4-0.8-2.4V384.9z M50.4,385
			c0,0.6,0.1,1.1,0.3,1.4c0.2,0.4,0.5,0.5,1,0.5c0.5,0,0.8-0.2,1-0.5c0.2-0.4,0.3-0.8,0.3-1.4v-0.1c0-0.6-0.1-1-0.3-1.4
			c-0.2-0.4-0.5-0.5-1-0.5c-0.5,0-0.8,0.2-1,0.5c-0.2,0.4-0.3,0.8-0.3,1.4V385z"/>
		<path class="st5" d="M58,380.1v1.6h1.1v1.2H58v3.3c0,0.3,0.1,0.4,0.2,0.5s0.2,0.2,0.4,0.2c0.1,0,0.2,0,0.3,0c0.1,0,0.2,0,0.3-0.1
			l0.1,1.3c-0.2,0.1-0.4,0.1-0.6,0.1c-0.2,0-0.4,0-0.6,0c-0.6,0-1.1-0.2-1.4-0.5c-0.3-0.3-0.5-0.9-0.5-1.6v-3.3h-1v-1.2h1v-1.6H58z"
			/>
		<path class="st5" d="M63.2,387.1l0.9-0.2v-4l-0.9-0.2v-1.1h7.5v1.1l-0.9,0.2v4l0.9,0.2v1h-3.4v-1l0.8-0.2V383h-2.1v3.9l0.8,0.2v1
			h-3.4V387.1z"/>
		<path class="st5" d="M71.4,382.7v-1.1h2.5l0.1,0.8c0.2-0.3,0.4-0.5,0.7-0.6c0.3-0.2,0.6-0.2,0.9-0.2c0.8,0,1.4,0.3,1.9,0.9
			c0.4,0.6,0.7,1.4,0.7,2.5v0.1c0,1-0.2,1.7-0.7,2.3s-1.1,0.9-1.9,0.9c-0.3,0-0.6-0.1-0.9-0.2c-0.3-0.1-0.5-0.3-0.7-0.6v1.9l0.8,0.2
			v1.1h-3.4v-1.1l0.8-0.2v-6.5L71.4,382.7z M76.4,385c0-0.6-0.1-1.1-0.3-1.5c-0.2-0.4-0.5-0.6-0.9-0.6c-0.3,0-0.5,0.1-0.7,0.2
			c-0.2,0.1-0.3,0.3-0.4,0.5v2.8c0.1,0.2,0.3,0.3,0.4,0.4c0.2,0.1,0.4,0.1,0.7,0.1c0.4,0,0.7-0.2,0.9-0.5c0.2-0.3,0.3-0.8,0.3-1.3
			V385z"/>
		<path class="st5" d="M83,388.2c0-0.1-0.1-0.2-0.1-0.3c0-0.1-0.1-0.2-0.1-0.3c-0.2,0.2-0.5,0.4-0.8,0.6s-0.6,0.2-1,0.2
			c-0.6,0-1.1-0.2-1.5-0.5s-0.6-0.8-0.6-1.4c0-0.6,0.2-1.1,0.7-1.4c0.5-0.3,1.2-0.5,2.1-0.5h0.9v-0.6c0-0.3-0.1-0.6-0.3-0.7
			c-0.2-0.2-0.4-0.3-0.8-0.3c-0.2,0-0.4,0-0.5,0.1c-0.2,0-0.3,0.1-0.4,0.2l-0.1,0.7h-1.3l0-1.4c0.3-0.2,0.7-0.4,1.1-0.5
			c0.4-0.1,0.9-0.2,1.3-0.2c0.8,0,1.5,0.2,2,0.6c0.5,0.4,0.8,1,0.8,1.7v2.7c0,0.1,0,0.2,0,0.3c0,0.1,0,0.2,0,0.3l0.5,0.1v1H83z
			 M81.5,387c0.3,0,0.5-0.1,0.7-0.2c0.2-0.1,0.4-0.3,0.5-0.4v-1h-0.9c-0.4,0-0.7,0.1-0.8,0.3s-0.3,0.4-0.3,0.6
			c0,0.2,0.1,0.4,0.2,0.5C81.1,386.9,81.3,387,81.5,387z"/>
		<path class="st5" d="M89.4,381.7c0.9,0,1.5,0.2,2,0.5c0.5,0.3,0.7,0.8,0.7,1.4c0,0.3-0.1,0.6-0.3,0.8c-0.2,0.2-0.5,0.4-0.9,0.5
			c0.5,0.1,0.9,0.3,1.1,0.5c0.3,0.3,0.4,0.6,0.4,0.9c0,0.6-0.2,1.1-0.7,1.4c-0.5,0.3-1.1,0.5-2,0.5h-4.1v-1l0.9-0.2v-4l-0.9-0.2
			v-1.1h0.9H89.4z M88.5,384.3h1.1c0.3,0,0.5-0.1,0.7-0.2c0.1-0.1,0.2-0.3,0.2-0.5c0-0.2-0.1-0.4-0.2-0.5c-0.2-0.1-0.4-0.2-0.7-0.2
			h-1V384.3z M88.5,385.5v1.4h1.4c0.3,0,0.5-0.1,0.7-0.2s0.2-0.3,0.2-0.5c0-0.2-0.1-0.4-0.2-0.5c-0.1-0.1-0.4-0.2-0.7-0.2H88.5z"/>
		<path class="st5" d="M97.4,388.2c0-0.1-0.1-0.2-0.1-0.3c0-0.1-0.1-0.2-0.1-0.3c-0.2,0.2-0.5,0.4-0.8,0.6s-0.6,0.2-1,0.2
			c-0.6,0-1.1-0.2-1.5-0.5s-0.6-0.8-0.6-1.4c0-0.6,0.2-1.1,0.7-1.4c0.5-0.3,1.2-0.5,2.1-0.5h0.9v-0.6c0-0.3-0.1-0.6-0.3-0.7
			c-0.2-0.2-0.4-0.3-0.8-0.3c-0.2,0-0.4,0-0.5,0.1c-0.2,0-0.3,0.1-0.4,0.2l-0.1,0.7h-1.3l0-1.4c0.3-0.2,0.7-0.4,1.1-0.5
			c0.4-0.1,0.9-0.2,1.3-0.2c0.8,0,1.5,0.2,2,0.6c0.5,0.4,0.8,1,0.8,1.7v2.7c0,0.1,0,0.2,0,0.3c0,0.1,0,0.2,0,0.3l0.5,0.1v1H97.4z
			 M95.9,387c0.3,0,0.5-0.1,0.7-0.2c0.2-0.1,0.4-0.3,0.5-0.4v-1h-0.9c-0.4,0-0.7,0.1-0.8,0.3s-0.3,0.4-0.3,0.6
			c0,0.2,0.1,0.4,0.2,0.5C95.5,386.9,95.6,387,95.9,387z"/>
		<path class="st5" d="M104.9,386.1L104.9,386.1l1.7-4.4h2.2h0.9v1.1l-0.9,0.2v4l0.9,0.2v1h-3.3v-1l0.7-0.2v-2.6l0,0l-1.5,3.9h-1.2
			l-1.5-3.8l0,0v2.6l0.7,0.2v1h-3.3v-1l0.9-0.2v-4l-0.9-0.2v-1.1h0.9h2.2L104.9,386.1z"/>
		<path class="st5" d="M114.2,381.7v1.1l-0.8,0.2v2.7l0,0l2.1-3.9h1.7h0.9v1.1l-0.9,0.2v4l0.9,0.2v1h-3.5v-1l0.8-0.2v-2.7l0,0
			l-2.1,3.9h-2.7v-1l0.9-0.2v-4l-0.9-0.2v-1.1h2.7H114.2z"/>
	</g>
	<g class="st4">
		<path class="st5" d="M18.3,132.2c0.5,0,0.8-0.1,1-0.3c0.2-0.2,0.3-0.5,0.3-0.9c0-0.3-0.1-0.6-0.4-0.8c-0.3-0.2-0.7-0.3-1.2-0.3
			c-0.3,0-0.6,0.1-0.9,0.2c-0.3,0.1-0.5,0.2-0.6,0.4l-0.2,1.1h-1.3v-1.6c0.3-0.4,0.8-0.7,1.3-1c0.5-0.2,1.1-0.4,1.8-0.4
			c1,0,1.8,0.2,2.3,0.6c0.6,0.4,0.9,1,0.9,1.8c0,0.4-0.1,0.8-0.4,1.1c-0.2,0.3-0.6,0.6-1,0.8c0.5,0.2,0.8,0.4,1.1,0.8
			s0.4,0.8,0.4,1.3c0,0.8-0.3,1.4-0.9,1.9s-1.4,0.7-2.4,0.7c-0.9,0-1.6-0.2-2.3-0.6c-0.6-0.4-0.9-1-0.9-1.9l0,0h1.7
			c0,0.3,0.1,0.6,0.4,0.9c0.3,0.2,0.6,0.3,1.1,0.3c0.5,0,0.9-0.1,1.2-0.3c0.3-0.2,0.4-0.5,0.4-0.9c0-0.5-0.1-0.8-0.4-1
			c-0.3-0.2-0.6-0.3-1.1-0.3h-1.1v-1.3H18.3z"/>
		<path class="st5" d="M25.9,136.2l0.9-0.2v-3.9h-1.6v1.4c0,1.3-0.2,2.2-0.6,2.8s-1.1,0.9-2,0.9h-0.3l0-1.4l0.2,0
			c0.4,0,0.7-0.2,0.8-0.5c0.1-0.3,0.2-0.9,0.2-1.8V132l-0.9-0.2v-1.1h6h0.9v1.1l-0.9,0.2v4l0.9,0.2v1h-3.6V136.2z"/>
	</g>
	<g class="st4">
		<path class="st5" d="M30.3,134c0-1,0.3-1.8,0.8-2.4c0.5-0.6,1.3-0.9,2.2-0.9c1,0,1.7,0.3,2.2,0.9c0.5,0.6,0.8,1.4,0.8,2.4v0.1
			c0,1-0.3,1.8-0.8,2.4s-1.3,0.9-2.2,0.9c-1,0-1.7-0.3-2.3-0.9s-0.8-1.4-0.8-2.4V134z M32.1,134.1c0,0.6,0.1,1.1,0.3,1.4
			s0.5,0.5,1,0.5c0.5,0,0.8-0.2,1-0.5s0.3-0.8,0.3-1.4V134c0-0.6-0.1-1-0.3-1.4c-0.2-0.4-0.5-0.5-1-0.5s-0.8,0.2-1,0.5
			c-0.2,0.4-0.3,0.8-0.3,1.4V134.1z"/>
	</g>
	<g class="st4">
		<path class="st5" d="M43.8,131.9l-0.6,0.1l-2.4,6.3c-0.2,0.5-0.4,0.9-0.8,1.2s-0.8,0.5-1.4,0.5c-0.1,0-0.3,0-0.4,0
			c-0.1,0-0.3-0.1-0.5-0.1l0.2-1.3c0.1,0,0.1,0,0.2,0c0.1,0,0.1,0,0.2,0c0.3,0,0.5-0.1,0.7-0.2c0.2-0.1,0.3-0.3,0.4-0.5l0.2-0.5
			l-2.1-5.3l-0.6-0.1v-1.1h3.2v1.1l-0.7,0.1l0.9,2.6l0.1,0.5l0,0l1-3.1l-0.7-0.1v-1.1h3.2V131.9z"/>
		<path class="st5" d="M49.3,135.2L49.3,135.2l1.7-4.4h2.2h0.9v1.1l-0.9,0.2v4l0.9,0.2v1h-3.3v-1l0.7-0.2v-2.6l0,0l-1.5,3.9h-1.2
			l-1.5-3.8l0,0v2.6l0.7,0.2v1h-3.3v-1l0.9-0.2v-4l-0.9-0.2v-1.1h0.9h2.2L49.3,135.2z"/>
		<path class="st5" d="M57.8,130.8v2.1H59c0.9,0,1.6,0.2,2.1,0.6s0.7,0.9,0.7,1.6c0,0.7-0.2,1.2-0.7,1.6s-1.2,0.6-2.1,0.6h-3.9v-1
			l0.9-0.2v-4l-0.9-0.2v-1.1H56H57.8z M58.7,130.8v1.1l-0.9,0.2v-1.2H58.7z M57.8,134.2v1.8H59c0.4,0,0.6-0.1,0.8-0.2
			c0.2-0.2,0.3-0.4,0.3-0.6c0-0.3-0.1-0.5-0.3-0.7c-0.2-0.2-0.4-0.3-0.8-0.3H57.8z M61.8,131.9v-1.1h2.7v5.2l0.8,0.2v1h-3.4v-1
			l0.8-0.2v-4L61.8,131.9z"/>
		<path class="st5" d="M66,131.9v-1.1h2.7h0.9v1.1l-0.9,0.2v3.9h1.8v-5.1h1.7v5.1h1.8V132l-0.9-0.2v-1.1h2.7h0.9v1.1l-0.9,0.2v4
			l0.9,0.2v1H66v-1l0.9-0.2v-4L66,131.9z"/>
		<path class="st5" d="M80.9,136.2l0.9-0.2v-3.9h-1.6v1.4c0,1.3-0.2,2.2-0.6,2.8s-1.1,0.9-2,0.9h-0.3l0-1.4l0.2,0
			c0.4,0,0.7-0.2,0.8-0.5c0.1-0.3,0.2-0.9,0.2-1.8V132l-0.9-0.2v-1.1h6h0.9v1.1l-0.9,0.2v4l0.9,0.2v1h-3.6V136.2z"/>
		<path class="st5" d="M88.4,137.4c-0.9,0-1.7-0.3-2.2-0.9c-0.6-0.6-0.8-1.4-0.8-2.3V134c0-1,0.3-1.8,0.8-2.4
			c0.5-0.6,1.2-0.9,2.1-0.9c0.9,0,1.5,0.3,2,0.8c0.5,0.5,0.7,1.2,0.7,2.1v1h-3.9l0,0c0,0.4,0.2,0.8,0.4,1.1c0.3,0.3,0.6,0.4,1,0.4
			c0.4,0,0.7,0,1-0.1c0.3-0.1,0.5-0.2,0.8-0.4l0.5,1.1c-0.3,0.2-0.6,0.4-1,0.5S88.9,137.4,88.4,137.4z M88.3,132
			c-0.3,0-0.6,0.1-0.8,0.4c-0.2,0.2-0.3,0.6-0.3,1l0,0h2.1v-0.2c0-0.4-0.1-0.7-0.3-0.9C88.9,132.1,88.6,132,88.3,132z"/>
		<path class="st5" d="M92,131.9v-1.1h3.4v1.1l-0.8,0.2v1.4h2.1V132l-0.7-0.2v-1.1h0.7h1.7h0.9v1.1l-0.9,0.2v4l0.9,0.2v1H96v-1
			l0.7-0.2v-1.3h-2.1v1.3l0.8,0.2v1H92v-1l0.9-0.2v-4L92,131.9z"/>
		<path class="st5" d="M100.4,131.9v-1.1h3.4v1.1l-0.8,0.2v1.4h2.1V132l-0.7-0.2v-1.1h0.7h1.7h0.9v1.1L107,132v4l0.9,0.2v1h-3.4v-1
			l0.7-0.2v-1.3h-2.1v1.3l0.8,0.2v1h-3.4v-1l0.9-0.2v-4L100.4,131.9z"/>
		<path class="st5" d="M112.4,130.8v1.1l-0.8,0.2v2.7l0,0l2.1-3.9h1.7h0.9v1.1l-0.9,0.2v4l0.9,0.2v1h-3.5v-1l0.8-0.2v-2.7l0,0
			l-2.1,3.9h-2.7v-1l0.9-0.2v-4l-0.9-0.2v-1.1h2.7H112.4z"/>
		<path class="st5" d="M117.4,131.9v-1.1h3.5v1.1l-0.8,0.2v1.2h0.6l1-1.4c0.2-0.4,0.5-0.7,0.8-0.8c0.3-0.2,0.6-0.3,1-0.3
			c0.2,0,0.4,0,0.5,0.1c0.2,0.1,0.3,0.1,0.5,0.2l-0.3,1.2c-0.1,0-0.2-0.1-0.2-0.1c0,0-0.1,0-0.2,0c-0.1,0-0.2,0-0.4,0.1
			c-0.1,0.1-0.2,0.2-0.3,0.3l-0.8,1.2l1.5,2.2l0.9,0.1v1h-2.4l-1.4-2.4h-0.7v1.2l0.8,0.2v1h-3.5v-1l0.9-0.2v-4L117.4,131.9z"/>
		<path class="st5" d="M131.2,136.1c0.3,0,0.6-0.1,0.7-0.3c0.2-0.2,0.3-0.4,0.3-0.7h1.6l0,0c0,0.7-0.2,1.2-0.7,1.6
			c-0.5,0.4-1.1,0.7-1.9,0.7c-1,0-1.7-0.3-2.2-0.9c-0.5-0.6-0.8-1.4-0.8-2.3V134c0-1,0.3-1.7,0.8-2.3c0.5-0.6,1.3-0.9,2.3-0.9
			c0.5,0,1,0.1,1.4,0.2c0.4,0.2,0.8,0.4,1,0.7l0,1.7h-1.4l-0.3-1c-0.1-0.1-0.2-0.1-0.3-0.2s-0.3-0.1-0.4-0.1c-0.5,0-0.8,0.2-1,0.5
			c-0.2,0.4-0.3,0.8-0.3,1.4v0.2c0,0.6,0.1,1,0.3,1.4C130.4,135.9,130.7,136.1,131.2,136.1z"/>
	</g>
	<g class="st4">
		<path class="st5" d="M33.8,150.9l0.8-0.2v-4l-0.9-0.2v-1.1h2.6l0.1,0.9c0.2-0.3,0.3-0.6,0.6-0.8c0.2-0.2,0.5-0.3,0.8-0.3
			c0.1,0,0.2,0,0.3,0c0.1,0,0.2,0,0.3,0.1l-0.2,1.6l-0.7,0c-0.3,0-0.5,0-0.6,0.1c-0.2,0.1-0.3,0.2-0.4,0.4v3.1l0.8,0.2v1h-3.4V150.9
			z"/>
	</g>
	<g class="st4">
		<path class="st5" d="M38.7,148.7c0-1,0.3-1.8,0.8-2.4c0.5-0.6,1.3-0.9,2.2-0.9c1,0,1.7,0.3,2.2,0.9c0.5,0.6,0.8,1.4,0.8,2.4v0.1
			c0,1-0.3,1.8-0.8,2.4c-0.5,0.6-1.3,0.9-2.2,0.9c-1,0-1.7-0.3-2.3-0.9c-0.5-0.6-0.8-1.4-0.8-2.4V148.7z M40.5,148.8
			c0,0.6,0.1,1.1,0.3,1.4c0.2,0.4,0.5,0.5,1,0.5c0.5,0,0.8-0.2,1-0.5c0.2-0.4,0.3-0.8,0.3-1.4v-0.1c0-0.6-0.1-1-0.3-1.4
			c-0.2-0.4-0.5-0.5-1-0.5c-0.5,0-0.8,0.2-1,0.5c-0.2,0.4-0.3,0.8-0.3,1.4V148.8z"/>
		<path class="st5" d="M45.6,148.7c0-1,0.3-1.8,0.8-2.4c0.5-0.6,1.3-0.9,2.2-0.9c1,0,1.7,0.3,2.2,0.9c0.5,0.6,0.8,1.4,0.8,2.4v0.1
			c0,1-0.3,1.8-0.8,2.4c-0.5,0.6-1.3,0.9-2.2,0.9c-1,0-1.7-0.3-2.3-0.9c-0.5-0.6-0.8-1.4-0.8-2.4V148.7z M47.3,148.8
			c0,0.6,0.1,1.1,0.3,1.4c0.2,0.4,0.5,0.5,1,0.5c0.5,0,0.8-0.2,1-0.5c0.2-0.4,0.3-0.8,0.3-1.4v-0.1c0-0.6-0.1-1-0.3-1.4
			c-0.2-0.4-0.5-0.5-1-0.5c-0.5,0-0.8,0.2-1,0.5c-0.2,0.4-0.3,0.8-0.3,1.4V148.8z"/>
		<path class="st5" d="M55,143.9v1.6h1.1v1.2H55v3.3c0,0.3,0.1,0.4,0.2,0.5s0.2,0.2,0.4,0.2c0.1,0,0.2,0,0.3,0c0.1,0,0.2,0,0.3-0.1
			l0.1,1.3c-0.2,0.1-0.4,0.1-0.6,0.1c-0.2,0-0.4,0-0.6,0c-0.6,0-1.1-0.2-1.4-0.5c-0.3-0.3-0.5-0.9-0.5-1.6v-3.3h-1v-1.2h1v-1.6H55z"
			/>
		<path class="st5" d="M60.1,150.9l0.9-0.2v-4l-0.9-0.2v-1.1h7.5v1.1l-0.9,0.2v4l0.9,0.2v1h-3.4v-1l0.8-0.2v-3.9h-2.1v3.9l0.8,0.2v1
			h-3.4V150.9z"/>
		<path class="st5" d="M68.3,146.6v-1.1h2.5l0.1,0.8c0.2-0.3,0.4-0.5,0.7-0.6c0.3-0.2,0.6-0.2,0.9-0.2c0.8,0,1.4,0.3,1.9,0.9
			c0.4,0.6,0.7,1.4,0.7,2.5v0.1c0,1-0.2,1.7-0.7,2.3s-1.1,0.9-1.9,0.9c-0.3,0-0.6-0.1-0.9-0.2c-0.3-0.1-0.5-0.3-0.7-0.6v1.9l0.8,0.2
			v1.1h-3.4v-1.1l0.8-0.2v-6.5L68.3,146.6z M73.4,148.8c0-0.6-0.1-1.1-0.3-1.5c-0.2-0.4-0.5-0.6-0.9-0.6c-0.3,0-0.5,0.1-0.7,0.2
			c-0.2,0.1-0.3,0.3-0.4,0.5v2.8c0.1,0.2,0.3,0.3,0.4,0.4c0.2,0.1,0.4,0.1,0.7,0.1c0.4,0,0.7-0.2,0.9-0.5c0.2-0.3,0.3-0.8,0.3-1.3
			V148.8z"/>
		<path class="st5" d="M80,152c0-0.1-0.1-0.2-0.1-0.3c0-0.1-0.1-0.2-0.1-0.3c-0.2,0.2-0.5,0.4-0.8,0.6s-0.6,0.2-1,0.2
			c-0.6,0-1.1-0.2-1.5-0.5s-0.6-0.8-0.6-1.4c0-0.6,0.2-1.1,0.7-1.4c0.5-0.3,1.2-0.5,2.1-0.5h0.9v-0.6c0-0.3-0.1-0.6-0.3-0.7
			c-0.2-0.2-0.4-0.3-0.8-0.3c-0.2,0-0.4,0-0.5,0.1c-0.2,0-0.3,0.1-0.4,0.2l-0.1,0.7h-1.3l0-1.4c0.3-0.2,0.7-0.4,1.1-0.5
			c0.4-0.1,0.9-0.2,1.3-0.2c0.8,0,1.5,0.2,2,0.6c0.5,0.4,0.8,1,0.8,1.7v2.7c0,0.1,0,0.2,0,0.3c0,0.1,0,0.2,0,0.3l0.5,0.1v1H80z
			 M78.5,150.8c0.3,0,0.5-0.1,0.7-0.2c0.2-0.1,0.4-0.3,0.5-0.4v-1h-0.9c-0.4,0-0.7,0.1-0.8,0.3s-0.3,0.4-0.3,0.6
			c0,0.2,0.1,0.4,0.2,0.5C78,150.7,78.2,150.8,78.5,150.8z"/>
		<path class="st5" d="M86.4,145.5c0.9,0,1.5,0.2,2,0.5c0.5,0.3,0.7,0.8,0.7,1.4c0,0.3-0.1,0.6-0.3,0.8c-0.2,0.2-0.5,0.4-0.9,0.5
			c0.5,0.1,0.9,0.3,1.1,0.5c0.3,0.3,0.4,0.6,0.4,0.9c0,0.6-0.2,1.1-0.7,1.4c-0.5,0.3-1.1,0.5-2,0.5h-4.1v-1l0.9-0.2v-4l-0.9-0.2
			v-1.1h0.9H86.4z M85.4,148.1h1.1c0.3,0,0.5-0.1,0.7-0.2c0.1-0.1,0.2-0.3,0.2-0.5c0-0.2-0.1-0.4-0.2-0.5c-0.2-0.1-0.4-0.2-0.7-0.2
			h-1V148.1z M85.4,149.3v1.4h1.4c0.3,0,0.5-0.1,0.7-0.2s0.2-0.3,0.2-0.5c0-0.2-0.1-0.4-0.2-0.5c-0.1-0.1-0.4-0.2-0.7-0.2H85.4z"/>
		<path class="st5" d="M94.4,152c0-0.1-0.1-0.2-0.1-0.3c0-0.1-0.1-0.2-0.1-0.3c-0.2,0.2-0.5,0.4-0.8,0.6s-0.6,0.2-1,0.2
			c-0.6,0-1.1-0.2-1.5-0.5s-0.6-0.8-0.6-1.4c0-0.6,0.2-1.1,0.7-1.4c0.5-0.3,1.2-0.5,2.1-0.5h0.9v-0.6c0-0.3-0.1-0.6-0.3-0.7
			c-0.2-0.2-0.4-0.3-0.8-0.3c-0.2,0-0.4,0-0.5,0.1c-0.2,0-0.3,0.1-0.4,0.2l-0.1,0.7h-1.3l0-1.4c0.3-0.2,0.7-0.4,1.1-0.5
			c0.4-0.1,0.9-0.2,1.3-0.2c0.8,0,1.5,0.2,2,0.6c0.5,0.4,0.8,1,0.8,1.7v2.7c0,0.1,0,0.2,0,0.3c0,0.1,0,0.2,0,0.3l0.5,0.1v1H94.4z
			 M92.9,150.8c0.3,0,0.5-0.1,0.7-0.2c0.2-0.1,0.4-0.3,0.5-0.4v-1h-0.9c-0.4,0-0.7,0.1-0.8,0.3s-0.3,0.4-0.3,0.6
			c0,0.2,0.1,0.4,0.2,0.5C92.4,150.7,92.6,150.8,92.9,150.8z"/>
		<path class="st5" d="M101.9,149.9L101.9,149.9l1.7-4.4h2.2h0.9v1.1l-0.9,0.2v4l0.9,0.2v1h-3.3v-1l0.7-0.2v-2.6l0,0l-1.5,3.9h-1.2
			l-1.5-3.8l0,0v2.6l0.7,0.2v1h-3.3v-1l0.9-0.2v-4l-0.9-0.2v-1.1h0.9h2.2L101.9,149.9z"/>
		<path class="st5" d="M111.2,145.5v1.1l-0.8,0.2v2.7l0,0l2.1-3.9h1.7h0.9v1.1l-0.9,0.2v4l0.9,0.2v1h-3.5v-1l0.8-0.2V148l0,0
			l-2.1,3.9h-2.7v-1l0.9-0.2v-4l-0.9-0.2v-1.1h2.7H111.2z"/>
	</g>
	<path class="st12" d="M84.4,63.1c-2.8,0-5.3,1.9-6,4.7H65.1l-1.6,1.6l1.4,1.3l1.9,1.9l1.7-1.7l1,1l1.1-1.1h0.2l1.8,1.8l1.8-1.8h3.9
		c0.8,3.3,4.2,5.3,7.5,4.5c3.3-0.8,5.3-4.2,4.5-7.5C89.6,65,87.2,63.1,84.4,63.1L84.4,63.1z M87.1,70.5c-0.7,0-1.3-0.6-1.3-1.3
		s0.6-1.3,1.3-1.3c0.7,0,1.3,0.6,1.3,1.3c0,0,0,0,0,0C88.4,69.9,87.9,70.5,87.1,70.5z"/>
	<g class="st4">
		<path class="st5" d="M497.6,105.7l0.9-0.2v-6.2l-0.9-0.2V98h8.9v1.1l-0.9,0.2v6.2l0.9,0.2v1h-3.6v-1l0.9-0.2v-6.1h-3.5v6.1
			l0.9,0.2v1h-3.6V105.7z"/>
		<path class="st5" d="M507.1,101.3v-1.1h2.5l0.1,0.8c0.2-0.3,0.4-0.5,0.7-0.6c0.3-0.2,0.6-0.2,0.9-0.2c0.8,0,1.4,0.3,1.9,0.9
			c0.4,0.6,0.7,1.4,0.7,2.5v0.1c0,1-0.2,1.7-0.7,2.3s-1.1,0.9-1.9,0.9c-0.3,0-0.6-0.1-0.9-0.2c-0.3-0.1-0.5-0.3-0.7-0.6v1.9l0.8,0.2
			v1.1h-3.4v-1.1l0.8-0.2v-6.5L507.1,101.3z M512.1,103.5c0-0.6-0.1-1.1-0.3-1.5c-0.2-0.4-0.5-0.6-0.9-0.6c-0.3,0-0.5,0.1-0.7,0.2
			c-0.2,0.1-0.3,0.3-0.4,0.5v2.8c0.1,0.2,0.3,0.3,0.4,0.4c0.2,0.1,0.4,0.1,0.7,0.1c0.4,0,0.7-0.2,0.9-0.5c0.2-0.3,0.3-0.8,0.3-1.3
			V103.5z"/>
		<path class="st5" d="M518.3,100.3v1.1l-0.8,0.2v2.7l0,0l2.1-3.9h1.7h0.9v1.1l-0.9,0.2v4l0.9,0.2v1h-3.5v-1l0.8-0.2v-2.7l0,0
			l-2.1,3.9h-2.7v-1l0.9-0.2v-4l-0.9-0.2v-1.1h2.7H518.3z"/>
		<path class="st5" d="M526.7,105.7l0.9-0.2v-3.9H526v1.4c0,1.3-0.2,2.2-0.6,2.8s-1.1,0.9-2,0.9h-0.3l0-1.4l0.2,0
			c0.4,0,0.7-0.2,0.8-0.5c0.1-0.3,0.2-0.9,0.2-1.8v-1.5l-0.9-0.2v-1.1h6h0.9v1.1l-0.9,0.2v4l0.9,0.2v1h-3.6V105.7z"/>
	</g>
	<g class="st4">
		<path class="st5" d="M531.1,103.4c0-1,0.3-1.8,0.8-2.4c0.5-0.6,1.3-0.9,2.2-0.9c1,0,1.7,0.3,2.2,0.9c0.5,0.6,0.8,1.4,0.8,2.4v0.1
			c0,1-0.3,1.8-0.8,2.4c-0.5,0.6-1.3,0.9-2.2,0.9c-1,0-1.7-0.3-2.3-0.9c-0.5-0.6-0.8-1.4-0.8-2.4V103.4z M532.8,103.6
			c0,0.6,0.1,1.1,0.3,1.4c0.2,0.4,0.5,0.5,1,0.5c0.4,0,0.8-0.2,1-0.5s0.3-0.8,0.3-1.4v-0.1c0-0.6-0.1-1-0.3-1.4
			c-0.2-0.4-0.5-0.5-1-0.5c-0.5,0-0.8,0.2-1,0.5c-0.2,0.4-0.3,0.8-0.3,1.4V103.6z"/>
	</g>
	<g class="st4">
		<path class="st5" d="M541.3,105.7l0.7-0.2v-1.2h-0.8l-1.2,2.4h-2.4v-1l0.9-0.1l1.4-2.3l-0.8-1.2c-0.1-0.1-0.2-0.3-0.3-0.4
			c-0.1-0.1-0.3-0.1-0.4-0.1c-0.1,0-0.1,0-0.2,0c0,0-0.1,0-0.2,0.1l-0.3-1.2c0.2-0.1,0.3-0.2,0.5-0.2c0.2-0.1,0.3-0.1,0.5-0.1
			c0.4,0,0.7,0.1,1,0.3c0.3,0.2,0.5,0.5,0.8,0.8l0.9,1.4h0.7v-1.2l-0.7-0.2v-1.1h3.2v1.1l-0.8,0.2v1.2h0.7l0.9-1.4
			c0.2-0.4,0.5-0.7,0.8-0.8s0.6-0.3,1-0.3c0.2,0,0.4,0,0.5,0.1s0.3,0.1,0.5,0.2l-0.3,1.2c-0.1,0-0.2,0-0.2-0.1c0,0-0.1,0-0.2,0
			c-0.1,0-0.3,0-0.4,0.1c-0.1,0.1-0.2,0.2-0.3,0.4l-0.8,1.2l1.4,2.3l0.9,0.1v1h-2.4l-1.2-2.4h-0.8v1.2l0.8,0.2v1h-3.2V105.7z"/>
	</g>
	<g class="st4">
		<path class="st5" d="M551.8,106.8c-0.9,0-1.7-0.3-2.2-0.9c-0.6-0.6-0.8-1.4-0.8-2.3v-0.2c0-1,0.3-1.8,0.8-2.4
			c0.5-0.6,1.2-0.9,2.1-0.9c0.9,0,1.5,0.3,2,0.8c0.5,0.5,0.7,1.2,0.7,2.1v1h-3.9l0,0c0,0.4,0.2,0.8,0.4,1.1c0.3,0.3,0.6,0.4,1,0.4
			c0.4,0,0.7,0,1-0.1c0.3-0.1,0.5-0.2,0.8-0.4l0.5,1.1c-0.3,0.2-0.6,0.4-1,0.5C552.8,106.8,552.4,106.8,551.8,106.8z M551.7,101.5
			c-0.3,0-0.6,0.1-0.8,0.4s-0.3,0.6-0.3,1l0,0h2.1v-0.2c0-0.4-0.1-0.7-0.3-0.9C552.3,101.6,552,101.5,551.7,101.5z"/>
		<path class="st5" d="M555.4,101.3v-1.1h3.4v1.1l-0.8,0.2v1.4h2.1v-1.4l-0.7-0.2v-1.1h0.7h1.7h0.9v1.1l-0.9,0.2v4l0.9,0.2v1h-3.4
			v-1l0.7-0.2v-1.3h-2.1v1.3l0.8,0.2v1h-3.4v-1l0.9-0.2v-4L555.4,101.3z"/>
		<path class="st5" d="M567.4,100.3v1.1l-0.8,0.2v2.7l0,0l2.1-3.9h1.7h0.9v1.1l-0.9,0.2v4l0.9,0.2v1h-3.5v-1l0.8-0.2v-2.7l0,0
			l-2.1,3.9h-2.7v-1l0.9-0.2v-4l-0.9-0.2v-1.1h2.7H567.4z"/>
		<path class="st5" d="M575.3,106.8c-0.9,0-1.7-0.3-2.2-0.9c-0.6-0.6-0.8-1.4-0.8-2.3v-0.2c0-1,0.3-1.8,0.8-2.4
			c0.5-0.6,1.2-0.9,2.1-0.9c0.9,0,1.5,0.3,2,0.8c0.5,0.5,0.7,1.2,0.7,2.1v1H574l0,0c0,0.4,0.2,0.8,0.4,1.1c0.3,0.3,0.6,0.4,1,0.4
			c0.4,0,0.7,0,1-0.1c0.3-0.1,0.5-0.2,0.8-0.4l0.5,1.1c-0.3,0.2-0.6,0.4-1,0.5C576.3,106.8,575.8,106.8,575.3,106.8z M575.1,101.5
			c-0.3,0-0.6,0.1-0.8,0.4s-0.3,0.6-0.3,1l0,0h2.1v-0.2c0-0.4-0.1-0.7-0.3-0.9C575.7,101.6,575.5,101.5,575.1,101.5z"/>
	</g>
	<g class="st4">
		<path class="st13" d="M225.8,65.9l0.6-0.1l2.6-7.6h1.8l2.6,7.6l0.6,0.1v1h-3v-1l0.6-0.1l-0.4-1.2h-2.8l-0.4,1.2l0.6,0.1v1h-3V65.9
			z M229,63.3h2l-1-3.1h0L229,63.3z"/>
		<path class="st13" d="M234.9,61.6v-1.1h3.4v1.1l-0.8,0.2v1.4h2.1v-1.4l-0.7-0.2v-1.1h0.7h1.7h0.9v1.1l-0.9,0.2v4l0.9,0.2v1h-3.4
			v-1l0.7-0.2v-1.3h-2.1v1.3l0.8,0.2v1h-3.4v-1l0.9-0.2v-4L234.9,61.6z"/>
		<path class="st13" d="M243.4,61.6v-1.1h3.5v1.1l-0.8,0.2V63h0.6l1-1.4c0.2-0.4,0.5-0.7,0.8-0.8c0.3-0.2,0.6-0.3,1-0.3
			c0.2,0,0.4,0,0.5,0.1c0.2,0.1,0.3,0.1,0.5,0.2l-0.3,1.2c-0.1,0-0.2-0.1-0.2-0.1c0,0-0.1,0-0.2,0c-0.1,0-0.2,0-0.4,0.1
			c-0.1,0.1-0.2,0.2-0.3,0.3l-0.8,1.2l1.5,2.2l0.9,0.1v1h-2.4l-1.4-2.4h-0.7v1.2l0.8,0.2v1h-3.5v-1l0.9-0.2v-4L243.4,61.6z"/>
		<path class="st13" d="M254.7,65.9l0.9-0.2v-3.9h-1.6v1.4c0,1.3-0.2,2.2-0.6,2.8s-1.1,0.9-2,0.9h-0.3l0-1.4l0.2,0
			c0.4,0,0.7-0.2,0.8-0.5c0.1-0.3,0.2-0.9,0.2-1.8v-1.5l-0.9-0.2v-1.1h6h0.9v1.1l-0.9,0.2v4l0.9,0.2v1h-3.6V65.9z"/>
		<path class="st13" d="M263.3,67c0-0.1-0.1-0.2-0.1-0.3c0-0.1-0.1-0.2-0.1-0.3c-0.2,0.2-0.5,0.4-0.8,0.6s-0.6,0.2-1,0.2
			c-0.6,0-1.1-0.2-1.5-0.5s-0.6-0.8-0.6-1.4c0-0.6,0.2-1.1,0.7-1.4c0.5-0.3,1.2-0.5,2.1-0.5h0.9v-0.6c0-0.3-0.1-0.6-0.3-0.7
			c-0.2-0.2-0.4-0.3-0.8-0.3c-0.2,0-0.4,0-0.5,0.1c-0.2,0-0.3,0.1-0.4,0.2l-0.1,0.7h-1.3l0-1.4c0.3-0.2,0.7-0.4,1.1-0.5
			c0.4-0.1,0.9-0.2,1.3-0.2c0.8,0,1.5,0.2,2,0.6c0.5,0.4,0.8,1,0.8,1.7v2.7c0,0.1,0,0.2,0,0.3c0,0.1,0,0.2,0,0.3l0.5,0.1v1H263.3z
			 M261.7,65.8c0.3,0,0.5-0.1,0.7-0.2c0.2-0.1,0.4-0.3,0.5-0.4v-1h-0.9c-0.4,0-0.7,0.1-0.8,0.3s-0.3,0.4-0.3,0.6
			c0,0.2,0.1,0.4,0.2,0.5C261.3,65.8,261.5,65.8,261.7,65.8z"/>
		<path class="st13" d="M269.7,60.5c0.9,0,1.5,0.2,2,0.5c0.5,0.3,0.7,0.8,0.7,1.4c0,0.3-0.1,0.6-0.3,0.8c-0.2,0.2-0.5,0.4-0.9,0.5
			c0.5,0.1,0.9,0.3,1.1,0.5c0.3,0.3,0.4,0.6,0.4,0.9c0,0.6-0.2,1.1-0.7,1.4c-0.5,0.3-1.1,0.5-2,0.5H266v-1l0.9-0.2v-4l-0.9-0.2v-1.1
			h0.9H269.7z M268.7,63.1h1.1c0.3,0,0.5-0.1,0.7-0.2c0.1-0.1,0.2-0.3,0.2-0.5c0-0.2-0.1-0.4-0.2-0.5c-0.2-0.1-0.4-0.2-0.7-0.2h-1
			V63.1z M268.7,64.3v1.4h1.4c0.3,0,0.5-0.1,0.7-0.2s0.2-0.3,0.2-0.5c0-0.2-0.1-0.4-0.2-0.5c-0.1-0.1-0.4-0.2-0.7-0.2H268.7z"/>
		<path class="st13" d="M276.5,59.3v-1.1h3.6v1.1l-0.9,0.2v6.2l0.9,0.2v1h-3.6v-1l0.9-0.2v-6.2L276.5,59.3z"/>
		<path class="st13" d="M280.7,65.9l0.8-0.2v-4l-0.9-0.2v-1.1h2.6l0.1,0.9c0.2-0.3,0.5-0.6,0.8-0.8c0.3-0.2,0.7-0.3,1.1-0.3
			c0.7,0,1.2,0.2,1.5,0.6s0.5,1.1,0.5,1.9v2.8l0.8,0.2v1h-3.3v-1l0.7-0.2v-2.8c0-0.4-0.1-0.7-0.3-0.9c-0.2-0.2-0.4-0.3-0.8-0.3
			c-0.2,0-0.4,0-0.6,0.1c-0.2,0.1-0.3,0.2-0.5,0.4v3.5l0.7,0.2v1h-3.3V65.9z"/>
		<path class="st13" d="M291.1,58.9v1.6h1.1v1.2h-1.1V65c0,0.3,0.1,0.4,0.2,0.5s0.2,0.2,0.4,0.2c0.1,0,0.2,0,0.3,0
			c0.1,0,0.2,0,0.3-0.1l0.1,1.3c-0.2,0.1-0.4,0.1-0.6,0.1c-0.2,0-0.4,0-0.6,0c-0.6,0-1.1-0.2-1.4-0.5c-0.3-0.3-0.5-0.9-0.5-1.6v-3.3
			h-1v-1.2h1v-1.6H291.1z"/>
		<path class="st13" d="M296.2,67.1c-0.9,0-1.7-0.3-2.2-0.9c-0.6-0.6-0.8-1.4-0.8-2.3v-0.2c0-1,0.3-1.8,0.8-2.4
			c0.5-0.6,1.2-0.9,2.1-0.9c0.9,0,1.5,0.3,2,0.8c0.5,0.5,0.7,1.2,0.7,2.1v1h-3.9l0,0c0,0.4,0.2,0.8,0.4,1.1c0.3,0.3,0.6,0.4,1,0.4
			c0.4,0,0.7,0,1-0.1c0.3-0.1,0.5-0.2,0.8-0.4l0.5,1.1c-0.3,0.2-0.6,0.4-1,0.5S296.7,67.1,296.2,67.1z M296.1,61.7
			c-0.3,0-0.6,0.1-0.8,0.4c-0.2,0.2-0.3,0.6-0.3,1l0,0h2.1V63c0-0.4-0.1-0.7-0.3-0.9C296.7,61.8,296.4,61.7,296.1,61.7z"/>
		<path class="st13" d="M299.4,58.7v-1.1h2.7v8.1l0.8,0.2v1h-3.4v-1l0.8-0.2v-6.9L299.4,58.7z"/>
		<path class="st13" d="M313.1,61.1h-1.3l-0.2-1.2c-0.2-0.1-0.4-0.2-0.7-0.3c-0.3-0.1-0.6-0.1-0.9-0.1c-0.5,0-0.8,0.1-1.1,0.3
			c-0.3,0.2-0.4,0.5-0.4,0.8c0,0.3,0.1,0.5,0.4,0.7c0.3,0.2,0.7,0.4,1.4,0.6c1,0.3,1.7,0.6,2.2,1.1c0.5,0.4,0.7,1,0.7,1.7
			c0,0.7-0.3,1.3-0.9,1.8c-0.6,0.4-1.4,0.6-2.3,0.6c-0.7,0-1.3-0.1-1.9-0.3c-0.6-0.2-1-0.5-1.4-0.9v-1.8h1.4l0.2,1.2
			c0.2,0.1,0.4,0.3,0.7,0.4s0.6,0.1,1,0.1c0.5,0,0.8-0.1,1.1-0.3c0.2-0.2,0.4-0.5,0.4-0.8c0-0.3-0.1-0.6-0.4-0.8
			c-0.2-0.2-0.7-0.4-1.2-0.6c-1-0.3-1.8-0.7-2.3-1.1c-0.5-0.4-0.8-1-0.8-1.7c0-0.7,0.3-1.3,0.9-1.7s1.3-0.7,2.3-0.7
			c0.7,0,1.3,0.1,1.8,0.3s1,0.5,1.4,0.8V61.1z"/>
		<path class="st13" d="M321.1,66c-0.3,0.3-0.7,0.5-1.2,0.8c-0.5,0.2-1.2,0.3-2.1,0.3c-1.2,0-2.1-0.4-2.9-1.2
			c-0.7-0.8-1.1-1.8-1.1-3.1v-0.3c0-1.3,0.4-2.4,1.1-3.2c0.7-0.8,1.7-1.2,2.8-1.2c0.7,0,1.3,0.1,1.9,0.3c0.6,0.2,1,0.5,1.4,0.9v1.8
			h-1.3l-0.2-1.2c-0.2-0.1-0.4-0.2-0.6-0.3c-0.3-0.1-0.6-0.1-0.9-0.1c-0.8,0-1.4,0.3-1.8,0.8c-0.4,0.6-0.6,1.3-0.6,2.2v0.3
			c0,0.9,0.2,1.6,0.6,2.1c0.4,0.5,1,0.8,1.8,0.8c0.4,0,0.6,0,0.9-0.1c0.2-0.1,0.4-0.1,0.5-0.2V64l-1.2-0.1v-1.2h3V66z"/>
		<path class="st13" d="M321.9,65.9l0.7-0.1l2.3-3.2l-2.2-3.1l-0.7-0.1v-1.1h3.3v1.1l-0.7,0.1l1.3,2.1l1.4-2.1l-0.7-0.1v-1.1h3.4
			v1.1l-0.7,0.1l-2.2,3.1l2.3,3.2l0.8,0.1v1h-3.4v-1l0.7-0.1l-1.4-2.2l-1.4,2.2l0.7,0.1v1h-3.4V65.9z"/>
	</g>
	<g class="st4">
		<path class="st11" d="M237.8,102.7l0.9-0.2v-6.2l-0.9-0.2v-1.1h8.9v1.1l-0.9,0.2v6.2l0.9,0.2v1h-3.6v-1l0.9-0.2v-6.1h-3.5v6.1
			l0.9,0.2v1h-3.6V102.7z"/>
		<path class="st11" d="M247.2,98.4v-1.1h2.5l0.1,0.8c0.2-0.3,0.4-0.5,0.7-0.6c0.3-0.2,0.6-0.2,0.9-0.2c0.8,0,1.4,0.3,1.9,0.9
			c0.4,0.6,0.7,1.4,0.7,2.5v0.1c0,1-0.2,1.7-0.7,2.3s-1.1,0.9-1.9,0.9c-0.3,0-0.6-0.1-0.9-0.2c-0.3-0.1-0.5-0.3-0.7-0.6v1.9l0.8,0.2
			v1.1h-3.4v-1.1l0.8-0.2v-6.5L247.2,98.4z M252.2,100.6c0-0.6-0.1-1.1-0.3-1.5c-0.2-0.4-0.5-0.6-0.9-0.6c-0.3,0-0.5,0.1-0.7,0.2
			c-0.2,0.1-0.3,0.3-0.4,0.5v2.8c0.1,0.2,0.3,0.3,0.4,0.4c0.2,0.1,0.4,0.1,0.7,0.1c0.4,0,0.7-0.2,0.9-0.5c0.2-0.3,0.3-0.8,0.3-1.3
			V100.6z"/>
		<path class="st11" d="M258.4,97.3v1.1l-0.8,0.2v2.7l0,0l2.1-3.9h1.7h0.9v1.1l-0.9,0.2v4l0.9,0.2v1h-3.5v-1l0.8-0.2v-2.7l0,0
			l-2.1,3.9h-2.7v-1l0.9-0.2v-4l-0.9-0.2v-1.1h2.7H258.4z"/>
		<path class="st11" d="M266.8,102.7l0.9-0.2v-3.9h-1.6v1.4c0,1.3-0.2,2.2-0.6,2.8s-1.1,0.9-2,0.9h-0.3l0-1.4l0.2,0
			c0.4,0,0.7-0.2,0.8-0.5c0.1-0.3,0.2-0.9,0.2-1.8v-1.5l-0.9-0.2v-1.1h6h0.9v1.1l-0.9,0.2v4l0.9,0.2v1h-3.6V102.7z"/>
	</g>
	<g class="st4">
		<path class="st11" d="M271.2,100.5c0-1,0.3-1.8,0.8-2.4c0.5-0.6,1.3-0.9,2.2-0.9c1,0,1.7,0.3,2.2,0.9c0.5,0.6,0.8,1.4,0.8,2.4v0.1
			c0,1-0.3,1.8-0.8,2.4c-0.5,0.6-1.3,0.9-2.2,0.9c-1,0-1.7-0.3-2.3-0.9c-0.5-0.6-0.8-1.4-0.8-2.4V100.5z M272.9,100.6
			c0,0.6,0.1,1.1,0.3,1.4c0.2,0.4,0.5,0.5,1,0.5c0.5,0,0.8-0.2,1-0.5c0.2-0.4,0.3-0.8,0.3-1.4v-0.1c0-0.6-0.1-1-0.3-1.4
			c-0.2-0.4-0.5-0.5-1-0.5c-0.5,0-0.8,0.2-1,0.5c-0.2,0.4-0.3,0.8-0.3,1.4V100.6z"/>
	</g>
	<g class="st4">
		<path class="st11" d="M281.5,102.7l0.7-0.2v-1.2h-0.8l-1.2,2.4h-2.4v-1l0.9-0.1l1.4-2.3l-0.8-1.2c-0.1-0.1-0.2-0.3-0.3-0.4
			s-0.3-0.1-0.4-0.1c-0.1,0-0.1,0-0.2,0c0,0-0.1,0-0.2,0.1l-0.3-1.2c0.2-0.1,0.3-0.2,0.5-0.2c0.2-0.1,0.3-0.1,0.5-0.1
			c0.4,0,0.7,0.1,1,0.3c0.3,0.2,0.5,0.5,0.8,0.8l0.9,1.4h0.7v-1.2l-0.7-0.2v-1.1h3.2v1.1l-0.8,0.2v1.2h0.7l0.9-1.4
			c0.2-0.4,0.5-0.7,0.8-0.8c0.3-0.2,0.6-0.3,1-0.3c0.2,0,0.4,0,0.5,0.1c0.2,0.1,0.3,0.1,0.5,0.2l-0.3,1.2c-0.1,0-0.2,0-0.2-0.1
			c0,0-0.1,0-0.2,0c-0.1,0-0.3,0-0.4,0.1s-0.2,0.2-0.3,0.4l-0.8,1.2l1.4,2.3l0.9,0.1v1H286l-1.2-2.4H284v1.2l0.8,0.2v1h-3.2V102.7z"
			/>
	</g>
	<g class="st4">
		<path class="st11" d="M292,103.9c-0.9,0-1.7-0.3-2.2-0.9c-0.6-0.6-0.8-1.4-0.8-2.3v-0.2c0-1,0.3-1.8,0.8-2.4
			c0.5-0.6,1.2-0.9,2.1-0.9c0.9,0,1.5,0.3,2,0.8c0.5,0.5,0.7,1.2,0.7,2.1v1h-3.9l0,0c0,0.4,0.2,0.8,0.4,1.1c0.3,0.3,0.6,0.4,1,0.4
			c0.4,0,0.7,0,1-0.1c0.3-0.1,0.5-0.2,0.8-0.4l0.5,1.1c-0.3,0.2-0.6,0.4-1,0.5S292.5,103.9,292,103.9z M291.8,98.5
			c-0.3,0-0.6,0.1-0.8,0.4c-0.2,0.2-0.3,0.6-0.3,1l0,0h2.1v-0.2c0-0.4-0.1-0.7-0.3-0.9C292.4,98.6,292.2,98.5,291.8,98.5z"/>
		<path class="st11" d="M295.5,98.4v-1.1h3.4v1.1l-0.8,0.2v1.4h2.1v-1.4l-0.7-0.2v-1.1h0.7h1.7h0.9v1.1l-0.9,0.2v4l0.9,0.2v1h-3.4
			v-1l0.7-0.2v-1.3h-2.1v1.3l0.8,0.2v1h-3.4v-1l0.9-0.2v-4L295.5,98.4z"/>
		<path class="st11" d="M307.5,97.3v1.1l-0.8,0.2v2.7l0,0l2.1-3.9h1.7h0.9v1.1l-0.9,0.2v4l0.9,0.2v1H308v-1l0.8-0.2v-2.7l0,0
			l-2.1,3.9H304v-1l0.9-0.2v-4l-0.9-0.2v-1.1h2.7H307.5z"/>
		<path class="st11" d="M315.4,103.9c-0.9,0-1.7-0.3-2.2-0.9c-0.6-0.6-0.8-1.4-0.8-2.3v-0.2c0-1,0.3-1.8,0.8-2.4
			c0.5-0.6,1.2-0.9,2.1-0.9c0.9,0,1.5,0.3,2,0.8c0.5,0.5,0.7,1.2,0.7,2.1v1h-3.9l0,0c0,0.4,0.2,0.8,0.4,1.1c0.3,0.3,0.6,0.4,1,0.4
			c0.4,0,0.7,0,1-0.1c0.3-0.1,0.5-0.2,0.8-0.4l0.5,1.1c-0.3,0.2-0.6,0.4-1,0.5S315.9,103.9,315.4,103.9z M315.3,98.5
			c-0.3,0-0.6,0.1-0.8,0.4s-0.3,0.6-0.3,1l0,0h2.1v-0.2c0-0.4-0.1-0.7-0.3-0.9C315.9,98.6,315.6,98.5,315.3,98.5z"/>
	</g>
	<g class="st4">
		<path class="st11" d="M240.1,147.2l0.9-0.2v-6.2l-0.9-0.2v-1.1h6.6v2.2h-1.3l-0.1-0.9h-2.5v1.9h1.5c1,0,1.8,0.2,2.4,0.7
			c0.6,0.5,0.9,1.1,0.9,2c0,0.8-0.3,1.5-0.9,2c-0.6,0.5-1.4,0.8-2.4,0.8h-4.2V147.2z M242.7,144.1v2.8h1.5c0.5,0,0.9-0.1,1.1-0.4
			c0.3-0.3,0.4-0.6,0.4-1c0-0.4-0.1-0.7-0.4-1c-0.3-0.3-0.6-0.4-1.1-0.4H242.7z"/>
	</g>
	<g class="st4">
		<path class="st11" d="M251.6,141.8v1.1l-0.8,0.2v2.7l0,0l2.1-3.9h1.7h0.9v1.1l-0.9,0.2v4l0.9,0.2v1h-3.5v-1l0.8-0.2v-2.7l0,0
			l-2.1,3.9h-2.7v-1l0.9-0.2v-4l-0.9-0.2v-1.1h2.7H251.6z"/>
		<path class="st11" d="M259.8,142.1c0.9,0,1.6,0.3,2.1,0.8c0.5,0.6,0.8,1.3,0.8,2.2v0.1c0,0.9-0.3,1.7-0.8,2.2
			c-0.5,0.6-1.3,0.9-2.2,0.9c-1,0-1.7-0.3-2.2-0.9c-0.5-0.6-0.8-1.3-0.8-2.3v-0.8c0-1.4,0.3-2.5,0.8-3.3c0.5-0.8,1.3-1.2,2.2-1.4
			c0.4-0.1,0.7-0.1,0.9-0.3c0.2-0.1,0.3-0.3,0.3-0.5h1.4l0,0c0,0.8-0.2,1.3-0.5,1.5c-0.4,0.3-1,0.4-1.9,0.6
			c-0.4,0.1-0.8,0.3-1.1,0.5c-0.3,0.3-0.4,0.7-0.5,1.1l0,0c0.2-0.2,0.5-0.4,0.8-0.5C259.2,142.2,259.5,142.1,259.8,142.1z
			 M259.6,143.5c-0.5,0-0.8,0.2-1,0.5c-0.2,0.3-0.3,0.7-0.3,1.2v0.1c0,0.5,0.1,1,0.3,1.3c0.2,0.3,0.5,0.5,1,0.5c0.5,0,0.8-0.2,1-0.5
			c0.2-0.3,0.3-0.7,0.3-1.3v-0.1c0-0.5-0.1-0.9-0.3-1.2C260.4,143.6,260.1,143.5,259.6,143.5z"/>
		<path class="st11" d="M267,147.2l0.9-0.2v-3.9h-1.6v1.4c0,1.3-0.2,2.2-0.6,2.8s-1.1,0.9-2,0.9h-0.3l0-1.4l0.2,0
			c0.4,0,0.7-0.2,0.8-0.5c0.1-0.3,0.2-0.9,0.2-1.8V143l-0.9-0.2v-1.1h6h0.9v1.1l-0.9,0.2v4l0.9,0.2v1H267V147.2z"/>
		<path class="st11" d="M275.1,141.8v1.1l-0.8,0.2v2.7l0,0l2.1-3.9h1.7h0.9v1.1l-0.9,0.2v4l0.9,0.2v1h-3.5v-1l0.8-0.2v-2.7l0,0
			l-2.1,3.9h-2.7v-1l0.9-0.2v-4l-0.9-0.2v-1.1h2.7H275.1z"/>
	</g>
	<g class="st4">
		<path class="st11" d="M279.9,144.9c0-1,0.3-1.8,0.8-2.4c0.5-0.6,1.3-0.9,2.2-0.9c1,0,1.7,0.3,2.2,0.9c0.5,0.6,0.8,1.4,0.8,2.4v0.1
			c0,1-0.3,1.8-0.8,2.4c-0.5,0.6-1.3,0.9-2.2,0.9c-1,0-1.7-0.3-2.3-0.9c-0.5-0.6-0.8-1.4-0.8-2.4V144.9z M281.6,145.1
			c0,0.6,0.1,1.1,0.3,1.4c0.2,0.4,0.5,0.5,1,0.5c0.5,0,0.8-0.2,1-0.5c0.2-0.4,0.3-0.8,0.3-1.4v-0.1c0-0.6-0.1-1-0.3-1.4
			c-0.2-0.4-0.5-0.5-1-0.5c-0.5,0-0.8,0.2-1,0.5c-0.2,0.4-0.3,0.8-0.3,1.4V145.1z"/>
	</g>
	<g class="st4">
		<path class="st11" d="M293.3,141.8v2.2h-1.3l-0.1-0.9h-1.1v3.9l0.9,0.2v1h-3.6v-1l0.9-0.2v-3.9h-1.1l-0.1,0.9h-1.3v-2.2H293.3z"/>
	</g>
	<g class="st4">
		<path class="st11" d="M296.7,148.4c-0.9,0-1.7-0.3-2.2-0.9c-0.6-0.6-0.8-1.4-0.8-2.3V145c0-1,0.3-1.8,0.8-2.4
			c0.5-0.6,1.2-0.9,2.1-0.9c0.9,0,1.5,0.3,2,0.8c0.5,0.5,0.7,1.2,0.7,2.1v1h-3.9l0,0c0,0.4,0.2,0.8,0.4,1.1c0.3,0.3,0.6,0.4,1,0.4
			c0.4,0,0.7,0,1-0.1c0.3-0.1,0.5-0.2,0.8-0.4l0.5,1.1c-0.3,0.2-0.6,0.4-1,0.5S297.2,148.4,296.7,148.4z M296.6,143
			c-0.3,0-0.6,0.1-0.8,0.4c-0.2,0.2-0.3,0.6-0.3,1l0,0h2.1v-0.2c0-0.4-0.1-0.7-0.3-0.9C297.2,143.1,296.9,143,296.6,143z"/>
		<path class="st11" d="M300.3,142.8v-1.1h3.5v1.1L303,143v1.2h0.6l1-1.4c0.2-0.4,0.5-0.7,0.8-0.8c0.3-0.2,0.6-0.3,1-0.3
			c0.2,0,0.4,0,0.5,0.1c0.2,0.1,0.3,0.1,0.5,0.2l-0.3,1.2c-0.1,0-0.2-0.1-0.2-0.1c0,0-0.1,0-0.2,0c-0.1,0-0.2,0-0.4,0.1
			c-0.1,0.1-0.2,0.2-0.3,0.3l-0.8,1.2l1.5,2.2l0.9,0.1v1h-2.4l-1.4-2.4H303v1.2l0.8,0.2v1h-3.5v-1l0.9-0.2v-4L300.3,142.8z"/>
		<path class="st11" d="M311.7,141.8v1.1l-0.8,0.2v2.7l0,0l2.1-3.9h1.7h0.9v1.1l-0.9,0.2v4l0.9,0.2v1h-3.5v-1l0.8-0.2v-2.7l0,0
			l-2.1,3.9h-2.7v-1l0.9-0.2v-4l-0.9-0.2v-1.1h2.7H311.7z"/>
	</g>
	<circle class="st14" cx="327.8" cy="228.9" r="7.8"/>
	<line class="st15" x1="333.3" y1="234.4" x2="322.3" y2="223.4"/>
	<circle class="st14" cx="149.7" cy="101.2" r="7.8"/>
	<line class="st15" x1="155.2" y1="106.7" x2="144.2" y2="95.7"/>
	<circle class="st14" cx="403.9" cy="101.5" r="7.8"/>
	<line class="st15" x1="409.4" y1="107" x2="398.4" y2="96"/>
	<line class="st16" x1="327.8" y1="249.1" x2="327.8" y2="412.8"/>
	<polygon class="st11" points="319.6,255.7 321.1,257.1 327.8,249.9 334.5,257.1 336,255.7 327.8,246.9 	"/>
	<circle class="st14" cx="294.6" cy="228.9" r="7.8"/>
	<line class="st15" x1="300.1" y1="234.4" x2="289.1" y2="223.4"/>
	<line class="st16" x1="294.4" y1="249.1" x2="294.4" y2="368.1"/>
	<polygon class="st11" points="286.2,255.7 287.7,257.1 294.4,249.9 301.1,257.1 302.6,255.7 294.4,246.9 	"/>
	
		<ellipse transform="matrix(0.1602 -0.9871 0.9871 0.1602 -6.3864 450.2337)" class="st14" cx="261.4" cy="228.9" rx="7.8" ry="7.8"/>
	<line class="st15" x1="266.9" y1="234.4" x2="255.9" y2="223.4"/>
	<line class="st16" x1="261" y1="249.1" x2="261" y2="320.7"/>
	<polygon class="st11" points="252.9,255.7 254.3,257.1 261,249.9 267.8,257.1 269.2,255.7 261,246.9 	"/>
	<circle class="st14" cx="228.2" cy="228.9" r="7.8"/>
	<line class="st15" x1="233.7" y1="234.4" x2="222.7" y2="223.4"/>
	<line class="st16" x1="227.7" y1="249.1" x2="227.7" y2="300.2"/>
	<polygon class="st11" points="219.5,255.7 220.9,257.1 227.7,249.9 234.4,257.1 235.8,255.7 227.7,246.9 	"/>
	<line class="st16" x1="423.5" y1="102.2" x2="454.8" y2="102.2"/>
	<polygon class="st11" points="430.1,110.3 431.5,108.9 424.3,102.2 431.5,95.4 430.1,94 421.4,102.2 	"/>
	<line class="st16" x1="128.2" y1="101.2" x2="97" y2="101.2"/>
	<polygon class="st11" points="121.6,93 120.2,94.4 127.5,101.2 120.2,107.9 121.6,109.3 130.4,101.2 	"/>
	<line class="st16" x1="537.8" y1="129.8" x2="537.8" y2="150.6"/>
	<polygon class="st11" points="529.6,136.4 531.1,137.8 537.8,130.6 544.5,137.8 546,136.4 537.8,127.7 	"/>
	<line class="st16" x1="167.6" y1="337.3" x2="109.8" y2="337.3"/>
	<polygon class="st11" points="161,329.2 159.7,330.6 166.9,337.3 159.7,344 161,345.5 169.8,337.3 	"/>
	<path class="st17" d="M191.9,276.7H364c2.8,0,5,2.2,5,5v20.6c0,2.8-2.2,5-5,5H191.9c-2.8,0-5-2.2-5-5v-20.6
		C186.9,279,189.1,276.7,191.9,276.7z"/>
	<g class="st4">
		<path class="st5" d="M195.5,294.9l0.9-0.2v-6.2l-0.9-0.2v-1.1h3.6v1.1l-0.9,0.2v2.3h0.8l1.6-2.3c0.3-0.5,0.7-0.8,0.9-1
			c0.3-0.2,0.6-0.3,1.1-0.3c0.2,0,0.4,0,0.6,0.1s0.3,0.1,0.5,0.2l-0.3,1.3c-0.1,0-0.2,0-0.3-0.1s-0.1,0-0.2,0
			c-0.2,0-0.4,0.1-0.5,0.2c-0.2,0.1-0.3,0.3-0.6,0.6l-1.4,1.9l2.4,3.4l0.9,0.1v1h-3.4v-1l0.5-0.1l-1.6-2.4h-1v2.3l0.9,0.2v1h-3.6
			V294.9z"/>
	</g>
	<g class="st4">
		<path class="st5" d="M204.1,292.6c0-1,0.3-1.8,0.8-2.4c0.5-0.6,1.3-0.9,2.2-0.9c1,0,1.7,0.3,2.2,0.9c0.5,0.6,0.8,1.4,0.8,2.4v0.1
			c0,1-0.3,1.8-0.8,2.4c-0.5,0.6-1.3,0.9-2.2,0.9c-1,0-1.7-0.3-2.3-0.9c-0.5-0.6-0.8-1.4-0.8-2.4V292.6z M205.9,292.8
			c0,0.6,0.1,1.1,0.3,1.4c0.2,0.4,0.5,0.5,1,0.5c0.5,0,0.8-0.2,1-0.5c0.2-0.4,0.3-0.8,0.3-1.4v-0.1c0-0.6-0.1-1-0.3-1.4
			c-0.2-0.4-0.5-0.5-1-0.5c-0.5,0-0.8,0.2-1,0.5c-0.2,0.4-0.3,0.8-0.3,1.4V292.8z"/>
		<path class="st5" d="M211.1,290.5v-1.1h3.4v1.1l-0.8,0.2v1.4h2.1v-1.4l-0.7-0.2v-1.1h0.7h1.7h0.9v1.1l-0.9,0.2v4l0.9,0.2v1h-3.4
			v-1l0.7-0.2v-1.3h-2.1v1.3l0.8,0.2v1h-3.4v-1l0.9-0.2v-4L211.1,290.5z"/>
	</g>
	<g class="st4">
		<path class="st5" d="M226.2,289.5v2.2h-1.3l-0.1-0.9h-1.1v3.9l0.9,0.2v1H221v-1l0.9-0.2v-3.9h-1.1l-0.1,0.9h-1.3v-2.2H226.2z"/>
	</g>
	<g class="st4">
		<path class="st5" d="M229.6,296.1c-0.9,0-1.7-0.3-2.2-0.9c-0.6-0.6-0.8-1.4-0.8-2.3v-0.2c0-1,0.3-1.8,0.8-2.4
			c0.5-0.6,1.2-0.9,2.1-0.9c0.9,0,1.5,0.3,2,0.8c0.5,0.5,0.7,1.2,0.7,2.1v1h-3.9l0,0c0,0.4,0.2,0.8,0.4,1.1c0.3,0.3,0.6,0.4,1,0.4
			c0.4,0,0.7,0,1-0.1c0.3-0.1,0.5-0.2,0.8-0.4l0.5,1.1c-0.3,0.2-0.6,0.4-1,0.5S230.1,296.1,229.6,296.1z M229.4,290.7
			c-0.3,0-0.6,0.1-0.8,0.4c-0.2,0.2-0.3,0.6-0.3,1l0,0h2.1v-0.2c0-0.4-0.1-0.7-0.3-0.9C230,290.8,229.8,290.7,229.4,290.7z"/>
		<path class="st5" d="M236.7,289.5v1.1l-0.8,0.2v2.7l0,0l2.1-3.9h1.7h0.9v1.1l-0.9,0.2v4l0.9,0.2v1h-3.5v-1l0.8-0.2V292l0,0
			l-2.1,3.9h-2.7v-1l0.9-0.2v-4l-0.9-0.2v-1.1h2.7H236.7z M238.9,286.6L238.9,286.6c0,0.5-0.1,1-0.5,1.3c-0.4,0.3-0.9,0.5-1.5,0.5
			c-0.6,0-1.1-0.2-1.5-0.5c-0.4-0.3-0.5-0.7-0.5-1.2l0,0h1.2c0,0.2,0.1,0.4,0.2,0.6c0.1,0.2,0.3,0.2,0.6,0.2c0.3,0,0.5-0.1,0.6-0.2
			c0.1-0.1,0.2-0.3,0.2-0.6H238.9z"/>
		<path class="st5" d="M241.6,290.5v-1.1h3.4v1.1l-0.8,0.2v1.4h2.1v-1.4l-0.7-0.2v-1.1h0.7h1.7h0.9v1.1l-0.9,0.2v4l0.9,0.2v1h-3.4
			v-1l0.7-0.2v-1.3h-2.1v1.3l0.8,0.2v1h-3.4v-1l0.9-0.2v-4L241.6,290.5z"/>
		<path class="st5" d="M253,296.1c-0.9,0-1.7-0.3-2.2-0.9c-0.6-0.6-0.8-1.4-0.8-2.3v-0.2c0-1,0.3-1.8,0.8-2.4
			c0.5-0.6,1.2-0.9,2.1-0.9c0.9,0,1.5,0.3,2,0.8c0.5,0.5,0.7,1.2,0.7,2.1v1h-3.9l0,0c0,0.4,0.2,0.8,0.4,1.1c0.3,0.3,0.6,0.4,1,0.4
			c0.4,0,0.7,0,1-0.1c0.3-0.1,0.5-0.2,0.8-0.4l0.5,1.1c-0.3,0.2-0.6,0.4-1,0.5S253.6,296.1,253,296.1z M252.9,290.7
			c-0.3,0-0.6,0.1-0.8,0.4c-0.2,0.2-0.3,0.6-0.3,1l0,0h2.1v-0.2c0-0.4-0.1-0.7-0.3-0.9C253.5,290.8,253.2,290.7,252.9,290.7z"/>
		<path class="st5" d="M256.3,290.5v-1.1h2.5l0.1,0.8c0.2-0.3,0.4-0.5,0.7-0.6c0.3-0.2,0.6-0.2,0.9-0.2c0.8,0,1.4,0.3,1.9,0.9
			c0.4,0.6,0.7,1.4,0.7,2.5v0.1c0,1-0.2,1.7-0.7,2.3s-1.1,0.9-1.9,0.9c-0.3,0-0.6-0.1-0.9-0.2c-0.3-0.1-0.5-0.3-0.7-0.6v1.9l0.8,0.2
			v1.1h-3.4v-1.1l0.8-0.2v-6.5L256.3,290.5z M261.4,292.8c0-0.6-0.1-1.1-0.3-1.5c-0.2-0.4-0.5-0.6-0.9-0.6c-0.3,0-0.5,0.1-0.7,0.2
			c-0.2,0.1-0.3,0.3-0.4,0.5v2.8c0.1,0.2,0.3,0.3,0.4,0.4c0.2,0.1,0.4,0.1,0.7,0.1c0.4,0,0.7-0.2,0.9-0.5c0.2-0.3,0.3-0.8,0.3-1.3
			V292.8z"/>
		<path class="st5" d="M264,290.5v-1.1h3.4v1.1l-0.8,0.2v1.4h2.1v-1.4l-0.7-0.2v-1.1h0.7h1.7h0.9v1.1l-0.9,0.2v4l0.9,0.2v1h-3.4v-1
			l0.7-0.2v-1.3h-2.1v1.3l0.8,0.2v1H264v-1l0.9-0.2v-4L264,290.5z"/>
		<path class="st5" d="M275.2,289.5v2.1h1.2c0.9,0,1.6,0.2,2.1,0.6s0.7,0.9,0.7,1.6c0,0.7-0.2,1.2-0.7,1.6s-1.2,0.6-2.1,0.6h-3.9v-1
			l0.9-0.2v-4l-0.9-0.2v-1.1h0.9H275.2z M276.1,289.5v1.1l-0.9,0.2v-1.2H276.1z M275.2,292.8v1.8h1.2c0.4,0,0.6-0.1,0.8-0.2
			c0.2-0.2,0.3-0.4,0.3-0.6c0-0.3-0.1-0.5-0.3-0.7c-0.2-0.2-0.4-0.3-0.8-0.3H275.2z M279.2,290.5v-1.1h2.7v5.2l0.8,0.2v1h-3.4v-1
			l0.8-0.2v-4L279.2,290.5z"/>
		<path class="st5" d="M286.9,289.5v1.1l-0.8,0.2v2.7l0,0l2.1-3.9h1.7h0.9v1.1l-0.9,0.2v4l0.9,0.2v1h-3.5v-1l0.8-0.2V292l0,0
			l-2.1,3.9h-2.7v-1l0.9-0.2v-4l-0.9-0.2v-1.1h2.7H286.9z M289.1,286.6L289.1,286.6c0,0.5-0.1,1-0.5,1.3c-0.4,0.3-0.9,0.5-1.5,0.5
			c-0.6,0-1.1-0.2-1.5-0.5c-0.4-0.3-0.5-0.7-0.5-1.2l0,0h1.2c0,0.2,0.1,0.4,0.2,0.6c0.1,0.2,0.3,0.2,0.6,0.2c0.3,0,0.5-0.1,0.6-0.2
			c0.1-0.1,0.2-0.3,0.2-0.6H289.1z"/>
		<path class="st5" d="M295.2,294.6c0.4-0.4,0.7-0.8,0.8-1.2c0.1-0.4,0.2-1,0.2-1.7l0-1l-0.9-0.2v-1.1h5.7h0.9v1.1l-0.9,0.2v3.9h0.9
			l-0.1,3.3h-1.6v-1.9h-3.8v1.9h-1.6l-0.1-3.3H295.2z M298,291.6c0,0.6-0.1,1.2-0.3,1.7s-0.3,0.9-0.5,1.3h2.1v-3.7H298L298,291.6z"
			/>
		<path class="st5" d="M306.6,289.5c0.9,0,1.5,0.2,2,0.5c0.5,0.3,0.7,0.8,0.7,1.4c0,0.3-0.1,0.6-0.3,0.8c-0.2,0.2-0.5,0.4-0.9,0.5
			c0.5,0.1,0.9,0.3,1.1,0.5c0.3,0.3,0.4,0.6,0.4,0.9c0,0.6-0.2,1.1-0.7,1.4c-0.5,0.3-1.1,0.5-2,0.5h-4.1v-1l0.9-0.2v-4l-0.9-0.2
			v-1.1h0.9H306.6z M305.6,292.1h1.1c0.3,0,0.5-0.1,0.7-0.2c0.1-0.1,0.2-0.3,0.2-0.5c0-0.2-0.1-0.4-0.2-0.5
			c-0.2-0.1-0.4-0.2-0.7-0.2h-1V292.1z M305.6,293.2v1.4h1.4c0.3,0,0.5-0.1,0.7-0.2s0.2-0.3,0.2-0.5c0-0.2-0.1-0.4-0.2-0.5
			c-0.1-0.1-0.4-0.2-0.7-0.2H305.6z"/>
		<path class="st5" d="M314.1,289.5v1.1l-0.8,0.2v2.7l0,0l2.1-3.9h1.7h0.9v1.1l-0.9,0.2v4l0.9,0.2v1h-3.5v-1l0.8-0.2V292l0,0
			l-2.1,3.9h-2.7v-1l0.9-0.2v-4l-0.9-0.2v-1.1h2.7H314.1z"/>
		<path class="st5" d="M319.8,290.7l-0.9-0.2v-1.1h5.7v2.3h-1.1l-0.1-0.9h-1.8v3.9l0.9,0.2v1h-3.6v-1l0.9-0.2V290.7z"/>
	</g>
	<g class="st4">
		<path class="st5" d="M329.5,295.9c0-0.1-0.1-0.2-0.1-0.3c0-0.1-0.1-0.2-0.1-0.3c-0.2,0.2-0.5,0.4-0.8,0.6s-0.6,0.2-1,0.2
			c-0.6,0-1.1-0.2-1.5-0.5s-0.6-0.8-0.6-1.4c0-0.6,0.2-1.1,0.7-1.4c0.5-0.3,1.2-0.5,2.1-0.5h0.9v-0.6c0-0.3-0.1-0.6-0.3-0.7
			c-0.2-0.2-0.4-0.3-0.8-0.3c-0.2,0-0.4,0-0.5,0.1c-0.2,0-0.3,0.1-0.4,0.2l-0.1,0.7h-1.3l0-1.4c0.3-0.2,0.7-0.4,1.1-0.5
			s0.9-0.2,1.3-0.2c0.8,0,1.5,0.2,2,0.6c0.5,0.4,0.8,1,0.8,1.7v2.7c0,0.1,0,0.2,0,0.3c0,0.1,0,0.2,0,0.3l0.5,0.1v1H329.5z
			 M328,294.8c0.3,0,0.5-0.1,0.7-0.2c0.2-0.1,0.4-0.3,0.5-0.4v-1h-0.9c-0.4,0-0.7,0.1-0.8,0.3s-0.3,0.4-0.3,0.6
			c0,0.2,0.1,0.4,0.2,0.5C327.6,294.7,327.8,294.8,328,294.8z"/>
	</g>
	<g class="st4">
		<path class="st5" d="M338.8,289.5v2.2h-1.3l-0.1-0.9h-1.1v3.9l0.9,0.2v1h-3.6v-1l0.9-0.2v-3.9h-1.1l-0.1,0.9H332v-2.2H338.8z"/>
	</g>
	<g class="st4">
		<path class="st5" d="M342.2,296.1c-0.9,0-1.7-0.3-2.2-0.9s-0.8-1.4-0.8-2.3v-0.2c0-1,0.3-1.8,0.8-2.4c0.5-0.6,1.2-0.9,2.1-0.9
			c0.9,0,1.5,0.3,2,0.8c0.5,0.5,0.7,1.2,0.7,2.1v1h-3.9l0,0c0,0.4,0.2,0.8,0.4,1.1c0.3,0.3,0.6,0.4,1,0.4c0.4,0,0.7,0,1-0.1
			c0.3-0.1,0.5-0.2,0.8-0.4l0.5,1.1c-0.3,0.2-0.6,0.4-1,0.5C343.2,296,342.7,296.1,342.2,296.1z M342,290.7c-0.3,0-0.6,0.1-0.8,0.4
			c-0.2,0.2-0.3,0.6-0.3,1l0,0h2.1v-0.2c0-0.4-0.1-0.7-0.3-0.9C342.6,290.8,342.4,290.7,342,290.7z"/>
		<path class="st5" d="M349.2,294.9l0.9-0.2v-3.9h-1.6v1.4c0,1.3-0.2,2.2-0.6,2.8s-1.1,0.9-2,0.9h-0.3l0-1.4l0.2,0
			c0.4,0,0.7-0.2,0.8-0.5c0.1-0.3,0.2-0.9,0.2-1.8v-1.5l-0.9-0.2v-1.1h6h0.9v1.1l-0.9,0.2v4l0.9,0.2v1h-3.6V294.9z"/>
		<path class="st5" d="M356.4,289.5v2.1h1.2c0.9,0,1.6,0.2,2.1,0.6s0.7,0.9,0.7,1.6c0,0.7-0.2,1.2-0.7,1.6s-1.2,0.6-2.1,0.6h-3.9v-1
			l0.9-0.2v-4l-0.9-0.2v-1.1h0.9H356.4z M357.4,289.5v1.1l-0.9,0.2v-1.2H357.4z M356.4,292.8v1.8h1.2c0.4,0,0.6-0.1,0.8-0.2
			c0.2-0.2,0.3-0.4,0.3-0.6c0-0.3-0.1-0.5-0.3-0.7c-0.2-0.2-0.4-0.3-0.8-0.3H356.4z"/>
	</g>
	<path class="st18" d="M191.9,322.4H364c2.8,0,5,2.2,5,5V348c0,2.8-2.2,5-5,5H191.9c-2.8,0-5-2.2-5-5v-20.6
		C186.9,324.7,189.1,322.4,191.9,322.4z"/>
	<g class="st4">
		<path class="st5" d="M212.2,337.3c0,1.3-0.4,2.3-1.1,3.2c-0.7,0.8-1.7,1.3-2.9,1.3c-1.2,0-2.1-0.4-2.8-1.3
			c-0.7-0.8-1.1-1.9-1.1-3.2v-0.1c0-1.3,0.4-2.3,1.1-3.2c0.7-0.8,1.7-1.3,2.8-1.3c1.2,0,2.1,0.4,2.9,1.3c0.7,0.8,1.1,1.9,1.1,3.2
			V337.3z M210.4,337.2c0-0.9-0.2-1.6-0.6-2.2s-0.9-0.8-1.7-0.8c-0.7,0-1.3,0.3-1.6,0.8c-0.4,0.6-0.5,1.3-0.5,2.2v0.1
			c0,0.9,0.2,1.7,0.5,2.2c0.4,0.6,0.9,0.8,1.6,0.8c0.7,0,1.3-0.3,1.7-0.8c0.4-0.6,0.6-1.3,0.6-2.2V337.2z"/>
		<path class="st5" d="M213,340.6l0.9-0.2v-4l-0.9-0.2v-1.1h7.5v1.1l-0.9,0.2v4l0.9,0.2v1h-3.4v-1l0.8-0.2v-3.9h-2.1v3.9l0.8,0.2v1
			H213V340.6z"/>
		<path class="st5" d="M224.5,341.7c-0.9,0-1.7-0.3-2.2-0.9c-0.6-0.6-0.8-1.4-0.8-2.3v-0.2c0-1,0.3-1.8,0.8-2.4
			c0.5-0.6,1.2-0.9,2.1-0.9c0.9,0,1.5,0.3,2,0.8c0.5,0.5,0.7,1.2,0.7,2.1v1h-3.9l0,0c0,0.4,0.2,0.8,0.4,1.1c0.3,0.3,0.6,0.4,1,0.4
			c0.4,0,0.7,0,1-0.1c0.3-0.1,0.5-0.2,0.8-0.4l0.5,1.1c-0.3,0.2-0.6,0.4-1,0.5S225,341.7,224.5,341.7z M224.3,336.4
			c-0.3,0-0.6,0.1-0.8,0.4c-0.2,0.2-0.3,0.6-0.3,1l0,0h2.1v-0.2c0-0.4-0.1-0.7-0.3-0.9C224.9,336.5,224.7,336.4,224.3,336.4z"/>
		<path class="st5" d="M227.8,336.2v-1.1h2.5l0.1,0.8c0.2-0.3,0.4-0.5,0.7-0.6c0.3-0.2,0.6-0.2,0.9-0.2c0.8,0,1.4,0.3,1.9,0.9
			c0.4,0.6,0.7,1.4,0.7,2.5v0.1c0,1-0.2,1.7-0.7,2.3s-1.1,0.9-1.9,0.9c-0.3,0-0.6-0.1-0.9-0.2c-0.3-0.1-0.5-0.3-0.7-0.6v1.9l0.8,0.2
			v1.1h-3.4V343l0.8-0.2v-6.5L227.8,336.2z M232.8,338.4c0-0.6-0.1-1.1-0.3-1.5c-0.2-0.4-0.5-0.6-0.9-0.6c-0.3,0-0.5,0.1-0.7,0.2
			c-0.2,0.1-0.3,0.3-0.4,0.5v2.8c0.1,0.2,0.3,0.3,0.4,0.4c0.2,0.1,0.4,0.1,0.7,0.1c0.4,0,0.7-0.2,0.9-0.5c0.2-0.3,0.3-0.8,0.3-1.3
			V338.4z"/>
		<path class="st5" d="M239.4,341.6c0-0.1-0.1-0.2-0.1-0.3c0-0.1-0.1-0.2-0.1-0.3c-0.2,0.2-0.5,0.4-0.8,0.6s-0.6,0.2-1,0.2
			c-0.6,0-1.1-0.2-1.5-0.5s-0.6-0.8-0.6-1.4c0-0.6,0.2-1.1,0.7-1.4c0.5-0.3,1.2-0.5,2.1-0.5h0.9v-0.6c0-0.3-0.1-0.6-0.3-0.7
			c-0.2-0.2-0.4-0.3-0.8-0.3c-0.2,0-0.4,0-0.5,0.1c-0.2,0-0.3,0.1-0.4,0.2l-0.1,0.7h-1.3l0-1.4c0.3-0.2,0.7-0.4,1.1-0.5
			c0.4-0.1,0.9-0.2,1.3-0.2c0.8,0,1.5,0.2,2,0.6c0.5,0.4,0.8,1,0.8,1.7v2.7c0,0.1,0,0.2,0,0.3c0,0.1,0,0.2,0,0.3l0.5,0.1v1H239.4z
			 M237.9,340.4c0.3,0,0.5-0.1,0.7-0.2c0.2-0.1,0.4-0.3,0.5-0.4v-1h-0.9c-0.4,0-0.7,0.1-0.8,0.3s-0.3,0.4-0.3,0.6
			c0,0.2,0.1,0.4,0.2,0.5C237.5,340.4,237.7,340.4,237.9,340.4z"/>
		<path class="st5" d="M248.5,335.1v5.1h1l-0.1,3.3h-1.6v-1.9H242v-1l0.9-0.2v-4l-0.9-0.2v-1.1h0.9h1.7h0.8v1.1l-0.8,0.2v3.9h2.1
			v-3.9l-0.8-0.2v-1.1h0.8H248.5z M249.4,335.1v1.1l-0.9,0.2v-1.2H249.4z"/>
		<path class="st5" d="M254,335.1v1.1l-0.8,0.2v2.7l0,0l2.1-3.9h1.7h0.9v1.1l-0.9,0.2v4l0.9,0.2v1h-3.5v-1l0.8-0.2v-2.7l0,0
			l-2.1,3.9h-2.7v-1l0.9-0.2v-4l-0.9-0.2v-1.1h2.7H254z"/>
		<path class="st5" d="M258.8,338.3c0-1,0.3-1.8,0.8-2.4c0.5-0.6,1.3-0.9,2.2-0.9c1,0,1.7,0.3,2.2,0.9c0.5,0.6,0.8,1.4,0.8,2.4v0.1
			c0,1-0.3,1.8-0.8,2.4c-0.5,0.6-1.3,0.9-2.2,0.9c-1,0-1.7-0.3-2.3-0.9c-0.5-0.6-0.8-1.4-0.8-2.4V338.3z M260.5,338.4
			c0,0.6,0.1,1.1,0.3,1.4c0.2,0.4,0.5,0.5,1,0.5c0.5,0,0.8-0.2,1-0.5c0.2-0.4,0.3-0.8,0.3-1.4v-0.1c0-0.6-0.1-1-0.3-1.4
			c-0.2-0.4-0.5-0.5-1-0.5c-0.5,0-0.8,0.2-1,0.5c-0.2,0.4-0.3,0.8-0.3,1.4V338.4z"/>
		<path class="st5" d="M265.8,336.2v-1.1h3.4v1.1l-0.8,0.2v1.4h2.1v-1.4l-0.7-0.2v-1.1h0.7h1.7h0.9v1.1l-0.9,0.2v4l0.9,0.2v1h-3.4
			v-1l0.7-0.2v-1.3h-2.1v1.3l0.8,0.2v1h-3.4v-1l0.9-0.2v-4L265.8,336.2z"/>
		<path class="st5" d="M274.2,336.2v-1.1h3.4v1.1l-0.8,0.2v1.4h2.1v-1.4l-0.7-0.2v-1.1h0.7h1.7h0.9v1.1l-0.9,0.2v4l0.9,0.2v1h-3.4
			v-1l0.7-0.2v-1.3h-2.1v1.3l0.8,0.2v1h-3.4v-1l0.9-0.2v-4L274.2,336.2z"/>
		<path class="st5" d="M286.7,341.6c0-0.1-0.1-0.2-0.1-0.3c0-0.1-0.1-0.2-0.1-0.3c-0.2,0.2-0.5,0.4-0.8,0.6s-0.6,0.2-1,0.2
			c-0.6,0-1.1-0.2-1.5-0.5s-0.6-0.8-0.6-1.4c0-0.6,0.2-1.1,0.7-1.4c0.5-0.3,1.2-0.5,2.1-0.5h0.9v-0.6c0-0.3-0.1-0.6-0.3-0.7
			c-0.2-0.2-0.4-0.3-0.8-0.3c-0.2,0-0.4,0-0.5,0.1c-0.2,0-0.3,0.1-0.4,0.2l-0.1,0.7H283l0-1.4c0.3-0.2,0.7-0.4,1.1-0.5
			c0.4-0.1,0.9-0.2,1.3-0.2c0.8,0,1.5,0.2,2,0.6c0.5,0.4,0.8,1,0.8,1.7v2.7c0,0.1,0,0.2,0,0.3c0,0.1,0,0.2,0,0.3l0.5,0.1v1H286.7z
			 M285.2,340.4c0.3,0,0.5-0.1,0.7-0.2c0.2-0.1,0.4-0.3,0.5-0.4v-1h-0.9c-0.4,0-0.7,0.1-0.8,0.3s-0.3,0.4-0.3,0.6
			c0,0.2,0.1,0.4,0.2,0.5C284.7,340.4,284.9,340.4,285.2,340.4z"/>
		<path class="st5" d="M292.8,340.6l0.8-0.2v-1h-1.1l-1.3,2.3h-1.9v-1l0.8-0.1l0.8-1.4c-0.4-0.2-0.7-0.4-0.9-0.7
			c-0.2-0.3-0.3-0.7-0.3-1c0-0.6,0.3-1.1,0.8-1.5s1.2-0.6,2-0.6h2.9h0.9v1.1l-0.9,0.2v4l0.9,0.2v1h-3.5V340.6z M291.5,337.3
			c0,0.2,0.1,0.4,0.3,0.6s0.4,0.2,0.7,0.2h1.1v-1.7h-1.1c-0.3,0-0.6,0.1-0.8,0.3C291.6,336.9,291.5,337.1,291.5,337.3z"/>
		<path class="st5" d="M303.2,340.4c0.3,0,0.6-0.1,0.7-0.3c0.2-0.2,0.3-0.4,0.3-0.7h1.6l0,0c0,0.7-0.2,1.2-0.7,1.6
			c-0.5,0.4-1.1,0.7-1.9,0.7c-1,0-1.7-0.3-2.2-0.9c-0.5-0.6-0.8-1.4-0.8-2.3v-0.2c0-1,0.3-1.7,0.8-2.3c0.5-0.6,1.3-0.9,2.3-0.9
			c0.5,0,1,0.1,1.4,0.2c0.4,0.2,0.8,0.4,1,0.7l0,1.7h-1.4l-0.3-1c-0.1-0.1-0.2-0.1-0.3-0.2s-0.3-0.1-0.4-0.1c-0.5,0-0.8,0.2-1,0.5
			c-0.2,0.4-0.3,0.8-0.3,1.4v0.2c0,0.6,0.1,1,0.3,1.4C302.4,340.2,302.7,340.4,303.2,340.4z"/>
		<path class="st5" d="M310.2,335.1v1.1l-0.8,0.2v2.7l0,0l2.1-3.9h1.7h0.9v1.1l-0.9,0.2v4l0.9,0.2v1h-3.5v-1l0.8-0.2v-2.7l0,0
			l-2.1,3.9h-2.7v-1l0.9-0.2v-4l-0.9-0.2v-1.1h2.7H310.2z"/>
		<path class="st5" d="M318.1,340.4c0.3,0,0.6-0.1,0.7-0.3c0.2-0.2,0.3-0.4,0.3-0.7h1.6l0,0c0,0.7-0.2,1.2-0.7,1.6s-1.1,0.7-1.9,0.7
			c-1,0-1.7-0.3-2.2-0.9c-0.5-0.6-0.8-1.4-0.8-2.3v-0.2c0-1,0.3-1.7,0.8-2.3c0.5-0.6,1.3-0.9,2.3-0.9c0.5,0,1,0.1,1.4,0.2
			c0.4,0.2,0.8,0.4,1,0.7l0,1.7h-1.4l-0.3-1c-0.1-0.1-0.2-0.1-0.3-0.2c-0.1,0-0.3-0.1-0.4-0.1c-0.5,0-0.8,0.2-1,0.5
			c-0.2,0.4-0.3,0.8-0.3,1.4v0.2c0,0.6,0.1,1,0.3,1.4C317.3,340.2,317.6,340.4,318.1,340.4z"/>
	</g>
	<g class="st4">
		<path class="st5" d="M328.2,335.1v2.2h-1.3l-0.1-0.9h-1.1v3.9l0.9,0.2v1H323v-1l0.9-0.2v-3.9h-1.1l-0.1,0.9h-1.3v-2.2H328.2z"/>
	</g>
	<g class="st4">
		<path class="st5" d="M331.7,341.7c-0.9,0-1.7-0.3-2.2-0.9c-0.6-0.6-0.8-1.4-0.8-2.3v-0.2c0-1,0.3-1.8,0.8-2.4
			c0.5-0.6,1.2-0.9,2.1-0.9c0.9,0,1.5,0.3,2,0.8c0.5,0.5,0.7,1.2,0.7,2.1v1h-3.9l0,0c0,0.4,0.2,0.8,0.4,1.1c0.3,0.3,0.6,0.4,1,0.4
			c0.4,0,0.7,0,1-0.1c0.3-0.1,0.5-0.2,0.8-0.4l0.5,1.1c-0.3,0.2-0.6,0.4-1,0.5C332.7,341.7,332.2,341.7,331.7,341.7z M331.5,336.4
			c-0.3,0-0.6,0.1-0.8,0.4s-0.3,0.6-0.3,1l0,0h2.1v-0.2c0-0.4-0.1-0.7-0.3-0.9C332.1,336.5,331.9,336.4,331.5,336.4z"/>
		<path class="st5" d="M340,339.6L340,339.6l1.7-4.4h2.2h0.9v1.1l-0.9,0.2v4l0.9,0.2v1h-3.3v-1l0.7-0.2v-2.6l0,0l-1.5,3.9h-1.2
			l-1.5-3.8l0,0v2.6l0.7,0.2v1h-3.3v-1l0.9-0.2v-4l-0.9-0.2v-1.1h0.9h2.2L340,339.6z"/>
		<path class="st5" d="M349.8,341.6c0-0.1-0.1-0.2-0.1-0.3c0-0.1-0.1-0.2-0.1-0.3c-0.2,0.2-0.5,0.4-0.8,0.6s-0.6,0.2-1,0.2
			c-0.6,0-1.1-0.2-1.5-0.5c-0.4-0.3-0.6-0.8-0.6-1.4c0-0.6,0.2-1.1,0.7-1.4c0.5-0.3,1.2-0.5,2.1-0.5h0.9v-0.6c0-0.3-0.1-0.6-0.3-0.7
			c-0.2-0.2-0.4-0.3-0.8-0.3c-0.2,0-0.4,0-0.5,0.1c-0.2,0-0.3,0.1-0.4,0.2l-0.1,0.7h-1.3l0-1.4c0.3-0.2,0.7-0.4,1.1-0.5
			c0.4-0.1,0.9-0.2,1.3-0.2c0.8,0,1.5,0.2,2,0.6c0.5,0.4,0.8,1,0.8,1.7v2.7c0,0.1,0,0.2,0,0.3c0,0.1,0,0.2,0,0.3l0.5,0.1v1H349.8z
			 M348.2,340.4c0.3,0,0.5-0.1,0.7-0.2c0.2-0.1,0.4-0.3,0.5-0.4v-1h-0.9c-0.4,0-0.7,0.1-0.8,0.3s-0.3,0.4-0.3,0.6
			c0,0.2,0.1,0.4,0.2,0.5C347.8,340.4,348,340.4,348.2,340.4z"/>
	</g>
	<path class="st19" d="M191.9,368.1H364c2.8,0,5,2.2,5,5v20.6c0,2.8-2.2,5-5,5H191.9c-2.8,0-5-2.2-5-5v-20.6
		C186.9,370.3,189.1,368.1,191.9,368.1z"/>
	<g class="st4">
		<path class="st5" d="M240.8,386.2l0.9-0.2v-6.2l-0.9-0.2v-1.1h6.6v2.2h-1.3l-0.1-0.9h-2.5v6.1l0.9,0.2v1h-3.6V386.2z"/>
		<path class="st5" d="M251.8,380.8v1.1l-0.8,0.2v2.7l0,0l2.1-3.9h1.7h0.9v1.1l-0.9,0.2v4l0.9,0.2v1h-3.5v-1l0.8-0.2v-2.7l0,0
			l-2.1,3.9h-2.7v-1l0.9-0.2v-4l-0.9-0.2v-1.1h2.7H251.8z"/>
		<path class="st5" d="M256.7,386.2l0.9-0.2v-4l-0.9-0.2v-1.1h7.5v1.1l-0.9,0.2v4l0.9,0.2v1h-3.4v-1l0.8-0.2v-3.9h-2.1v3.9l0.8,0.2
			v1h-3.4V386.2z"/>
		<path class="st5" d="M268.2,387.4c-0.9,0-1.7-0.3-2.2-0.9c-0.6-0.6-0.8-1.4-0.8-2.3V384c0-1,0.3-1.8,0.8-2.4
			c0.5-0.6,1.2-0.9,2.1-0.9c0.9,0,1.5,0.3,2,0.8c0.5,0.5,0.7,1.2,0.7,2.1v1h-3.9l0,0c0,0.4,0.2,0.8,0.4,1.1c0.3,0.3,0.6,0.4,1,0.4
			c0.4,0,0.7,0,1-0.1c0.3-0.1,0.5-0.2,0.8-0.4l0.5,1.1c-0.3,0.2-0.6,0.4-1,0.5S268.7,387.4,268.2,387.4z M268,382
			c-0.3,0-0.6,0.1-0.8,0.4c-0.2,0.2-0.3,0.6-0.3,1l0,0h2.1v-0.2c0-0.4-0.1-0.7-0.3-0.9C268.6,382.2,268.4,382,268,382z"/>
		<path class="st5" d="M271.5,381.9v-1.1h2.5l0.1,0.8c0.2-0.3,0.4-0.5,0.7-0.6c0.3-0.2,0.6-0.2,0.9-0.2c0.8,0,1.4,0.3,1.9,0.9
			c0.4,0.6,0.7,1.4,0.7,2.5v0.1c0,1-0.2,1.7-0.7,2.3s-1.1,0.9-1.9,0.9c-0.3,0-0.6-0.1-0.9-0.2c-0.3-0.1-0.5-0.3-0.7-0.6v1.9l0.8,0.2
			v1.1h-3.4v-1.1l0.8-0.2v-6.5L271.5,381.9z M276.5,384.1c0-0.6-0.1-1.1-0.3-1.5c-0.2-0.4-0.5-0.6-0.9-0.6c-0.3,0-0.5,0.1-0.7,0.2
			c-0.2,0.1-0.3,0.3-0.4,0.5v2.8c0.1,0.2,0.3,0.3,0.4,0.4c0.2,0.1,0.4,0.1,0.7,0.1c0.4,0,0.7-0.2,0.9-0.5c0.2-0.3,0.3-0.8,0.3-1.3
			V384.1z"/>
		<path class="st5" d="M282.8,380.8c0.9,0,1.5,0.2,2,0.5c0.5,0.3,0.7,0.8,0.7,1.4c0,0.3-0.1,0.6-0.3,0.8c-0.2,0.2-0.5,0.4-0.9,0.5
			c0.5,0.1,0.9,0.3,1.1,0.5c0.3,0.3,0.4,0.6,0.4,0.9c0,0.6-0.2,1.1-0.7,1.4c-0.5,0.3-1.1,0.5-2,0.5h-4.1v-1l0.9-0.2v-4l-0.9-0.2
			v-1.1h0.9H282.8z M281.9,383.5h1.1c0.3,0,0.5-0.1,0.7-0.2c0.1-0.1,0.2-0.3,0.2-0.5c0-0.2-0.1-0.4-0.2-0.5
			c-0.2-0.1-0.4-0.2-0.7-0.2h-1V383.5z M281.9,384.6v1.4h1.4c0.3,0,0.5-0.1,0.7-0.2s0.2-0.3,0.2-0.5c0-0.2-0.1-0.4-0.2-0.5
			c-0.1-0.1-0.4-0.2-0.7-0.2H281.9z"/>
		<path class="st5" d="M290.3,380.8v1.1l-0.8,0.2v2.7l0,0l2.1-3.9h1.7h0.9v1.1l-0.9,0.2v4l0.9,0.2v1h-3.5v-1l0.8-0.2v-2.7l0,0
			l-2.1,3.9h-2.7v-1l0.9-0.2v-4l-0.9-0.2v-1.1h2.7H290.3z"/>
		<path class="st5" d="M297.9,383.4c0.3,0,0.5-0.1,0.7-0.2c0.1-0.1,0.2-0.3,0.2-0.5c0-0.2-0.1-0.4-0.2-0.5c-0.1-0.1-0.4-0.2-0.7-0.2
			c-0.3,0-0.5,0.1-0.7,0.2c-0.2,0.1-0.3,0.3-0.3,0.5h-1.7l0,0c0-0.6,0.2-1,0.7-1.4c0.5-0.4,1.1-0.5,1.9-0.5c0.8,0,1.5,0.2,2,0.5
			c0.5,0.3,0.7,0.8,0.7,1.4c0,0.3-0.1,0.6-0.3,0.8s-0.4,0.4-0.7,0.6c0.4,0.1,0.6,0.3,0.8,0.6c0.2,0.3,0.3,0.6,0.3,0.9
			c0,0.6-0.3,1.1-0.8,1.4s-1.2,0.5-2,0.5c-0.7,0-1.4-0.2-1.9-0.5c-0.5-0.3-0.8-0.8-0.8-1.5l0,0h1.7c0,0.2,0.1,0.4,0.3,0.6
			c0.2,0.1,0.4,0.2,0.8,0.2c0.3,0,0.6-0.1,0.7-0.2c0.2-0.2,0.2-0.3,0.2-0.6c0-0.3-0.1-0.5-0.2-0.6c-0.2-0.1-0.4-0.2-0.7-0.2H297
			v-1.1H297.9z"/>
		<path class="st5" d="M301.5,384c0-1,0.3-1.8,0.8-2.4c0.5-0.6,1.3-0.9,2.2-0.9c1,0,1.7,0.3,2.2,0.9c0.5,0.6,0.8,1.4,0.8,2.4v0.1
			c0,1-0.3,1.8-0.8,2.4c-0.5,0.6-1.3,0.9-2.2,0.9c-1,0-1.7-0.3-2.3-0.9c-0.5-0.6-0.8-1.4-0.8-2.4V384z M303.2,384.1
			c0,0.6,0.1,1.1,0.3,1.4c0.2,0.4,0.5,0.5,1,0.5c0.5,0,0.8-0.2,1-0.5c0.2-0.4,0.3-0.8,0.3-1.4V384c0-0.6-0.1-1-0.3-1.4
			c-0.2-0.4-0.5-0.5-1-0.5c-0.5,0-0.8,0.2-1,0.5c-0.2,0.4-0.3,0.8-0.3,1.4V384.1z"/>
		<path class="st5" d="M308.2,381.9v-1.1h2.5l0.1,0.8c0.2-0.3,0.4-0.5,0.7-0.6c0.3-0.2,0.6-0.2,0.9-0.2c0.8,0,1.4,0.3,1.9,0.9
			c0.4,0.6,0.7,1.4,0.7,2.5v0.1c0,1-0.2,1.7-0.7,2.3s-1.1,0.9-1.9,0.9c-0.3,0-0.6-0.1-0.9-0.2c-0.3-0.1-0.5-0.3-0.7-0.6v1.9l0.8,0.2
			v1.1h-3.4v-1.1l0.8-0.2v-6.5L308.2,381.9z M313.2,384.1c0-0.6-0.1-1.1-0.3-1.5c-0.2-0.4-0.5-0.6-0.9-0.6c-0.3,0-0.5,0.1-0.7,0.2
			c-0.2,0.1-0.3,0.3-0.4,0.5v2.8c0.1,0.2,0.3,0.3,0.4,0.4c0.2,0.1,0.4,0.1,0.7,0.1c0.4,0,0.7-0.2,0.9-0.5c0.2-0.3,0.3-0.8,0.3-1.3
			V384.1z"/>
	</g>
	<path class="st20" d="M191.9,412.8H364c2.8,0,5,2.2,5,5v20.6c0,2.8-2.2,5-5,5H191.9c-2.8,0-5-2.2-5-5v-20.6
		C186.9,415,189.1,412.8,191.9,412.8z"/>
	<g class="st4">
		<path class="st5" d="M263.5,430.9l0.7-0.1l2.3-3.2l-2.2-3.1l-0.7-0.1v-1.1h3.3v1.1l-0.7,0.1l1.3,2.1l1.4-2.1l-0.7-0.1v-1.1h3.4
			v1.1l-0.7,0.1l-2.2,3.1l2.3,3.2l0.8,0.1v1h-3.4v-1l0.7-0.1l-1.4-2.2l-1.4,2.2l0.7,0.1v1h-3.4V430.9z"/>
	</g>
	<g class="st4">
		<path class="st5" d="M272.2,428.7c0-1,0.3-1.8,0.8-2.4c0.5-0.6,1.3-0.9,2.2-0.9c1,0,1.7,0.3,2.2,0.9c0.5,0.6,0.8,1.4,0.8,2.4v0.1
			c0,1-0.3,1.8-0.8,2.4c-0.5,0.6-1.3,0.9-2.2,0.9c-1,0-1.7-0.3-2.3-0.9c-0.5-0.6-0.8-1.4-0.8-2.4V428.7z M273.9,428.8
			c0,0.6,0.1,1.1,0.3,1.4c0.2,0.4,0.5,0.5,1,0.5c0.5,0,0.8-0.2,1-0.5c0.2-0.4,0.3-0.8,0.3-1.4v-0.1c0-0.6-0.1-1-0.3-1.4
			c-0.2-0.4-0.5-0.5-1-0.5c-0.5,0-0.8,0.2-1,0.5c-0.2,0.4-0.3,0.8-0.3,1.4V428.8z"/>
		<path class="st5" d="M282.1,430.8c0.3,0,0.6-0.1,0.7-0.3c0.2-0.2,0.3-0.4,0.3-0.7h1.6l0,0c0,0.7-0.2,1.2-0.7,1.6
			c-0.5,0.4-1.1,0.7-1.9,0.7c-1,0-1.7-0.3-2.2-0.9c-0.5-0.6-0.8-1.4-0.8-2.3v-0.2c0-1,0.3-1.7,0.8-2.3c0.5-0.6,1.3-0.9,2.3-0.9
			c0.5,0,1,0.1,1.4,0.2c0.4,0.2,0.8,0.4,1,0.7l0,1.7h-1.4l-0.3-1c-0.1-0.1-0.2-0.1-0.3-0.2s-0.3-0.1-0.4-0.1c-0.5,0-0.8,0.2-1,0.5
			c-0.2,0.4-0.3,0.8-0.3,1.4v0.2c0,0.6,0.1,1,0.3,1.4C281.3,430.6,281.6,430.8,282.1,430.8z"/>
		<path class="st5" d="M292.2,425.5v2.2h-1.3l-0.1-0.9h-1.1v3.9l0.9,0.2v1H287v-1l0.9-0.2v-3.9h-1.1l-0.1,0.9h-1.3v-2.2H292.2z"/>
	</g>
	<path class="st5" d="M81.2,318c1,0,2,0.2,2.9,0.5c1.2,0.4,2.4,1.2,3.3,2.1c1.4,1.4,2.4,3.3,2.6,5.3h0.1v5.1H89v3.3
		c0,2.5-1.3,4.7-3.4,6v2.3h0.9c0.3,0,0.6,0,0.9,0.1c1.1,0.1,2.1,0.6,2.9,1.3c1,0.7,1.6,1.9,1.6,3.1v4.7H70.6V347
		c0-1.2,0.6-2.4,1.6-3.1c0.8-0.7,1.8-1.1,2.9-1.3c0.3-0.1,0.6-0.1,0.9-0.1h0.9v-2.3H77c-2.1-1.4-3.4-3.7-3.5-6.3
		c0-1.6-0.1-1.4-0.1-2.9h-1.1v-5.2h0.1c0.3-3.4,2.6-6.3,5.8-7.4C79.2,318.2,80.2,318,81.2,318 M81.2,316c-1.2,0-2.5,0.2-3.6,0.6
		c-3.7,1.3-6.4,4.5-7,8.4c-0.1,0.3-0.2,0.6-0.2,0.9v5.1c0,0.8,0.5,1.5,1.2,1.8c0,0.3,0,0.6,0,1.1c0,2.6,1,5,2.9,6.8
		c-1.3,0.2-2.4,0.8-3.4,1.6c-1.5,1.1-2.4,2.8-2.4,4.7v4.7c0,1.1,0.9,2,2,2h21.3c1.1,0,2-0.9,2-2V347c0-1.9-0.9-3.6-2.4-4.7
		c-0.9-0.8-2.1-1.3-3.3-1.6c1.8-1.7,2.8-4,2.8-6.5v-1.5c0.7-0.3,1.1-1,1.1-1.8v-5.2c0-0.3-0.1-0.6-0.2-0.9c-0.4-2.2-1.4-4.3-3.1-5.9
		c-1.1-1.2-2.5-2-4-2.6C83.7,316.2,82.5,316,81.2,316L81.2,316z"/>
	<polygon class="st5" points="72.1,329.7 72.1,333.7 79.4,333.7 81.2,333.7 83,333.7 90.2,333.7 90.2,329.7 	"/>
	<path class="st21" d="M73.4,329.7c0,1.7,0.1,2.5,0.1,4.3c0.1,4.2,3.5,7.6,7.7,7.6c4.1,0.2,7.6-3,7.8-7.2c0,0,0,0,0-0.1v-4.9"/>
	<path class="st21" d="M72.4,326.8c0-3.7,2.3-7.1,5.9-8.3c1.9-0.7,4-0.7,5.9,0c1.2,0.4,2.4,1.2,3.3,2.1c1.7,1.6,2.6,3.9,2.6,6.2"/>
	<rect x="72.3" y="326.4" class="st22" width="17.7" height="3.3"/>
	<line class="st22" x1="80.2" y1="337" x2="83.4" y2="337"/>
	<path class="st13" d="M77.9,330.5c-0.5,0.5-0.5,1.2-0.1,1.8c0.4,0.5,1.2,0.6,1.7,0.1c0.3-0.2,0.4-0.5,0.4-0.8l0,0L77.9,330.5z"/>
	<path class="st13" d="M86.3,330.5l-1.9,1.2c0.1,0.2,0.2,0.4,0.3,0.6c0.5,0.5,1.2,0.5,1.7,0c0.5-0.5,0.5-1.2,0-1.7
		C86.4,330.6,86.4,330.5,86.3,330.5z"/>
	<path class="st5" d="M76.9,82.5c1,0,2,0.2,2.9,0.5c1.2,0.4,2.4,1.2,3.3,2.1c1.4,1.4,2.3,3.3,2.6,5.3h0.1v5.2h-1.1v3.3
		c0,2.5-1.3,4.7-3.4,6v2.3h0.9c0.3,0,0.6,0,0.9,0.1c1.1,0.1,2.1,0.6,2.9,1.3c1,0.7,1.6,1.9,1.6,3.1v4.7H66.3v-4.7
		c0-1.2,0.6-2.4,1.6-3.1c0.8-0.7,1.8-1.1,2.9-1.3c0.3-0.1,0.6-0.1,0.9-0.1h0.9v-2.3h0.1c-2.2-1.4-3.5-3.8-3.5-6.3
		c0-1.6-0.1-1.4-0.1-2.9h-1.1v-5.1h0.1c0.3-3.4,2.6-6.3,5.9-7.3C75,82.7,76,82.5,76.9,82.5 M77,80.5c-5.3,0-9.8,3.8-10.7,9
		c-0.1,0.3-0.2,0.6-0.2,0.8v5.2c0,0.8,0.5,1.5,1.2,1.8c0,0.3,0,0.6,0,1.1c0,2.6,1,5,2.9,6.8c-1.3,0.2-2.4,0.8-3.4,1.6
		c-1.5,1.1-2.4,2.8-2.4,4.7v4.7c0,1.1,0.9,2,2,2h21.2c1.1,0,2-0.9,2-2v-4.7c0-1.9-0.9-3.6-2.4-4.7c-0.9-0.8-2.1-1.3-3.3-1.6
		c1.8-1.7,2.8-4,2.8-6.5v-1.5c0.7-0.3,1.1-1,1.1-1.8v-5.2c0-0.3-0.1-0.6-0.2-0.8c-0.4-2.2-1.4-4.3-3-5.9c-1.1-1.1-2.5-2-4-2.6
		C79.4,80.7,78.2,80.5,77,80.5L77,80.5z"/>
	<polygon class="st5" points="67.9,94.2 67.9,98.2 75.1,98.2 76.9,98.2 78.7,98.2 85.9,98.2 85.9,94.2 	"/>
	<path class="st21" d="M69.2,94.2c0,1.7,0.1,2.5,0.1,4.3c0.1,4.2,3.5,7.6,7.7,7.6c4.1,0.1,7.6-3.1,7.8-7.2c0,0,0,0,0,0v-4.9"/>
	<path class="st21" d="M68.1,91.3c0-3.7,2.4-7.1,5.9-8.3c1.9-0.7,4-0.7,5.9,0c1.2,0.4,2.4,1.2,3.3,2.1c1.7,1.6,2.6,3.9,2.6,6.2"/>
	<rect x="68.1" y="90.9" class="st22" width="17.7" height="3.3"/>
	<line class="st22" x1="75.9" y1="101.5" x2="79.1" y2="101.5"/>
	<path class="st13" d="M73.6,95c-0.5,0.5-0.5,1.2-0.1,1.8c0.4,0.5,1.2,0.6,1.7,0.1c0.3-0.2,0.4-0.5,0.4-0.9l0,0L73.6,95z"/>
	<path class="st13" d="M82.1,95l-2,1.2c0.1,0.2,0.2,0.4,0.3,0.6c0.5,0.5,1.3,0.5,1.8,0c0.2-0.2,0.4-0.6,0.4-0.9
		C82.5,95.6,82.3,95.2,82.1,95z"/>
	<path class="st5" d="M537.9,160.7c1,0,2,0.2,2.9,0.5c3.2,1.1,5.5,4,5.8,7.4h0.1v5.2h-1.1c0,1.5-0.1,1.3-0.1,2.9
		c0,2.6-1.3,5-3.5,6.4h0.1v2.3h0.9c0.3,0,0.6,0,0.9,0.1c1.1,0.1,2.1,0.6,2.9,1.3c1,0.7,1.6,1.9,1.6,3.1v4.7h-21.2v-4.7
		c0-1.2,0.6-2.4,1.6-3.1c0.8-0.7,1.8-1.1,2.9-1.3c0.3-0.1,0.6-0.1,0.9-0.1h0.9V183c-2.1-1.3-3.4-3.5-3.4-6v-3.3h-1.1v-5.2h0.1
		c0.2-2,1.1-3.9,2.6-5.3c0.9-0.9,2-1.7,3.3-2.1C535.9,160.8,536.9,160.7,537.9,160.7 M537.9,158.7c-1.2,0-2.4,0.2-3.6,0.6
		c-1.5,0.5-2.9,1.4-4,2.6c-1.6,1.6-2.6,3.6-3,5.9c-0.1,0.3-0.2,0.6-0.2,0.9v5.2c0,0.8,0.4,1.5,1.1,1.8v1.5c0,2.4,1,4.8,2.8,6.5
		c-1.2,0.3-2.3,0.8-3.3,1.6c-1.5,1.1-2.4,2.8-2.4,4.7v4.7c0,1.1,0.9,2,2,2h21.2c1.1,0,2-0.9,2-2v-4.7c0-1.8-0.9-3.6-2.4-4.7
		c-1-0.8-2.2-1.4-3.4-1.6c1.8-1.8,2.9-4.2,2.9-6.8c0-0.6,0-0.9,0-1.1c0.7-0.3,1.2-1,1.2-1.8v-5.2c0-0.3-0.1-0.6-0.2-0.9
		C547.8,162.5,543.3,158.7,537.9,158.7L537.9,158.7z"/>
	<polygon class="st5" points="547,172.4 547,176.4 539.7,176.4 537.9,176.4 536.1,176.4 528.9,176.4 528.9,172.4 	"/>
	<path class="st21" d="M545.7,172.4c0,1.7-0.1,2.5-0.1,4.3c-0.1,4.2-3.5,7.6-7.7,7.6c-4.1,0.2-7.6-3.1-7.8-7.2c0,0,0,0,0,0v-4.9"/>
	<path class="st21" d="M546.8,169.4c0-3.7-2.4-7.1-5.9-8.3c-1.9-0.7-4-0.7-5.9,0c-1.2,0.4-2.4,1.1-3.3,2.1c-1.7,1.6-2.6,3.9-2.6,6.2
		"/>
	<rect x="529" y="169.1" class="st22" width="17.7" height="3.3"/>
	<line class="st22" x1="538.9" y1="179.7" x2="535.7" y2="179.7"/>
	<path class="st13" d="M541.2,173.2c0.5,0.5,0.5,1.2,0.1,1.8c-0.4,0.5-1.2,0.6-1.7,0.2c-0.3-0.2-0.4-0.5-0.4-0.9l0,0L541.2,173.2z"
		/>
	<path class="st13" d="M532.8,173.2l2,1.2c-0.1,0.2-0.2,0.4-0.3,0.6c-0.5,0.5-1.3,0.5-1.8,0c-0.2-0.2-0.4-0.6-0.4-0.9
		C532.3,173.8,532.5,173.4,532.8,173.2z"/>
</g>
</svg>
