<?xml version="1.0" encoding="UTF-8"?>
<svg id="Ebene_1" data-name="Ebene 1" xmlns="http://www.w3.org/2000/svg" xmlns:xlink="http://www.w3.org/1999/xlink" version="1.1" viewBox="0 0 585.2 457.5">
  <defs>
    <style>
      .cls-1, .cls-2, .cls-3, .cls-4, .cls-5, .cls-6, .cls-7, .cls-8, .cls-9, .cls-10, .cls-11, .cls-12, .cls-13 {
        fill: none;
      }

      .cls-1, .cls-2, .cls-5, .cls-6, .cls-8, .cls-9, .cls-10, .cls-11, .cls-14, .cls-12, .cls-13 {
        stroke-width: 2px;
      }

      .cls-1, .cls-2, .cls-10, .cls-12, .cls-13 {
        stroke-miterlimit: 10;
      }

      .cls-1, .cls-4, .cls-5, .cls-6, .cls-7, .cls-9, .cls-11 {
        stroke: #fff;
      }

      .cls-15 {
        fill: url(#Unbenannter_Verlauf);
      }

      .cls-15, .cls-3, .cls-16, .cls-17, .cls-18, .cls-19 {
        stroke-width: 0px;
      }

      .cls-2, .cls-8, .cls-10, .cls-14, .cls-13 {
        stroke: #fc0;
      }

      .cls-20 {
        clip-path: url(#clippath);
      }

      .cls-4, .cls-5, .cls-6, .cls-7, .cls-8, .cls-9, .cls-11, .cls-14 {
        stroke-linejoin: round;
      }

      .cls-5 {
        opacity: .8;
      }

      .cls-5, .cls-6, .cls-7, .cls-8, .cls-9, .cls-11, .cls-14 {
        stroke-linecap: round;
      }

      .cls-5, .cls-6, .cls-21, .cls-11 {
        isolation: isolate;
      }

      .cls-6 {
        opacity: .6;
      }

      .cls-16 {
        fill: #fc0;
      }

      .cls-22 {
        clip-path: url(#clippath-1);
      }

      .cls-10 {
        stroke-dasharray: 0 0 2 2;
      }

      .cls-17 {
        fill: #fdfeff;
      }

      .cls-11 {
        opacity: .4;
      }

      .cls-14, .cls-18 {
        fill: #fff;
      }

      .cls-12 {
        stroke: #f63;
      }

      .cls-13 {
        stroke-dasharray: 0 0 0 0 0 0 2 2;
      }

      .cls-19 {
        fill: #ffd138;
      }
    </style>
    <linearGradient id="Unbenannter_Verlauf" data-name="Unbenannter Verlauf" x1="141.7" y1="733.4" x2="329.4" y2="733.4" gradientTransform="translate(0 -622)" gradientUnits="userSpaceOnUse">
      <stop offset="0" stop-color="#906"/>
      <stop offset=".2" stop-color="#780066"/>
      <stop offset=".4" stop-color="#5a0066"/>
      <stop offset=".6" stop-color="#406"/>
      <stop offset=".8" stop-color="#370066"/>
      <stop offset="1" stop-color="#306"/>
    </linearGradient>
    <clipPath id="clippath">
      <rect class="cls-3" x="210.2" y="174.6" width="50.7" height="9.9"/>
    </clipPath>
    <clipPath id="clippath-1">
      <rect class="cls-3" x="210.2" y="174.6" width="50.7" height="9.9"/>
    </clipPath>
  </defs>
  <path class="cls-15" d="M146.7,29.2h177.7c2.8,0,5,2.2,5,5v154.5c0,2.8-2.2,5-5,5h-177.7c-2.8,0-5-2.2-5-5V34.2c0-2.7,2.3-5,5-5Z"/>
  <path class="cls-2" d="M146.7,29.2h177.7c2.8,0,5,2.2,5,5v154.5c0,2.8-2.2,5-5,5h-177.7c-2.8,0-5-2.2-5-5V34.2c0-2.7,2.3-5,5-5Z"/>
  <path class="cls-8" d="M169.2,84.6h132.6c2.8,0,5,2.2,5,5v20.6c0,2.8-2.2,5-5,5h-132.6c-2.8,0-5-2.2-5-5v-20.6c0-2.8,2.3-5,5-5Z"/>
  <path class="cls-8" d="M169.2,129.1h132.6c2.8,0,5,2.2,5,5v20.6c0,2.8-2.2,5-5,5h-132.6c-2.8,0-5-2.2-5-5v-20.6c0-2.8,2.3-5,5-5Z"/>
  <path class="cls-1" d="M429.1,87.5h132.6c2.8,0,5,2.2,5,5v20.6c0,2.8-2.2,5-5,5h-132.6c-2.8,0-5-2.2-5-5v-20.6c0-2.7,2.2-5,5-5Z"/>
  <polyline class="cls-8" points="282 209.8 276.2 204 270.5 209.8 264.7 204 259 209.8 258.9 209.8 253.2 204 247.4 209.8 241.6 204 235.9 209.8 235.2 209.8 229.4 204 223.7 209.8 217.9 204 212.2 209.8 212.1 209.8 206.4 204 200.6 209.8 194.9 204 189.1 209.8"/>
  <polyline class="cls-8" points="125.2 146.9 130.9 141.2 125.2 135.4 130.9 129.6 125.2 123.9 125.2 123.8 130.9 118.1 125.2 112.3 130.9 106.6 125.2 100.8 125.2 100.1 130.9 94.4 125.2 88.6 130.9 82.9 125.2 77.1 125.2 77.1 130.9 71.3 125.2 65.6 130.9 59.8 125.2 54"/>
  <polyline class="cls-8" points="345.1 55 339.4 60.8 345.1 66.6 339.4 72.3 345.1 78.1 345.1 78.1 339.4 83.9 345.1 89.6 339.4 95.4 345.1 101.1 345.1 101.8 339.4 107.6 345.1 113.3 339.4 119.1 345.1 124.8 345.1 124.9 339.4 130.6 345.1 136.4 339.4 142.2 345.1 147.9"/>
  <g class="cls-21">
    <path class="cls-18" d="M370.9,286.8c0-.4-.1-.8-.4-1s-.6-.5-.9-.7-.8-.4-1.2-.6c-.4-.2-.8-.4-1.2-.7s-.7-.6-.9-.9-.4-.9-.4-1.4c0-.8.3-1.5.9-2s1.4-.7,2.4-.7,1.2,0,1.7.1.9.2,1.2.3l-.4,1.1c-.2-.1-.6-.2-1-.3-.4-.1-.9-.2-1.5-.2s-1.2.1-1.5.4-.5.6-.5,1,.1.7.4,1,.6.5.9.7.8.4,1.2.6.8.4,1.2.7.7.6.9,1c.3.4.4.8.4,1.4s-.1.9-.2,1.2c-.2.4-.4.7-.7.9-.3.3-.7.5-1.1.6s-.9.2-1.5.2-1.4-.1-1.9-.2-.9-.2-1.1-.4l.4-1.1c.2.1.6.3,1,.4s1,.2,1.5.2.6,0,.9-.1.5-.2.8-.3c.2-.1.4-.3.5-.5s.1-.4.1-.7Z"/>
    <path class="cls-18" d="M377.6,284.2h3.5v4.6c-.2.1-.4.2-.6.3-.2.1-.5.2-.7.3-.3.1-.5.1-.8.2-.3,0-.5.1-.8.1-.7,0-1.3-.1-1.8-.3-.6-.2-1-.5-1.5-1s-.7-1-1-1.7c-.2-.7-.3-1.5-.3-2.4s.1-1.8.4-2.5.6-1.3,1.1-1.7c.5-.4,1-.8,1.5-1,.6-.2,1.1-.3,1.7-.3s1.1,0,1.5.1.7.2,1,.3l-.3,1.1c-.5-.2-1.2-.4-2.1-.4s-.8.1-1.3.2c-.4.1-.8.4-1.1.7s-.6.8-.8,1.3-.3,1.2-.3,2,.1,1.4.3,1.9.4,1,.7,1.3c.3.4.7.6,1.1.8s.9.3,1.4.3,1.2-.1,1.6-.4v-2.9l-2.4-.3v-.6h0Z"/>
  </g>
  <g class="cls-21">
    <path class="cls-18" d="M385.9,284.1l-3.2-5.2h1.5l2.1,3.6.4.9.4-.9,2.3-3.6h1.4l-3.3,5.1,3.5,5.4h-1.5l-2.4-3.8-.4-.9-.4.9-2.4,3.8h-1.4l3.4-5.3Z"/>
  </g>
  <g class="cls-21">
    <path class="cls-18" d="M396,282h.8l.2.9h.1c.2-.4.5-.6.9-.8.4-.2.8-.3,1.3-.3,1,0,1.7.3,2.2.9s.7,1.6.7,2.9-.1,1.2-.2,1.7-.4.9-.7,1.3c-.3.4-.7.6-1.1.8-.4.2-.9.3-1.4.3s-.7,0-.9-.1c-.2,0-.4-.1-.7-.2v3.1h-1.2v-10.5ZM399,282.8c-.5,0-.9.1-1.2.4s-.5.7-.6,1.2v3.7c.2.1.4.2.6.3.2.1.5.1.9.1.7,0,1.2-.3,1.6-.8s.6-1.3.6-2.3,0-.8-.1-1.1c-.1-.3-.2-.6-.3-.9-.2-.2-.4-.4-.6-.5s-.5-.1-.9-.1Z"/>
    <path class="cls-18" d="M407.6,283.1c-.3-.1-.6-.2-.9-.2s-.8.1-1,.4c-.3.2-.4.5-.5.9v5.3h-1.2v-7.5h.8l.2.9h.1c.2-.3.4-.6.7-.8.3-.2.6-.3,1-.3s.6.1,1,.2l-.2,1.1Z"/>
    <path class="cls-18" d="M408.8,285.7c0-1.3.3-2.2.8-2.9.6-.7,1.4-1,2.4-1s1,.1,1.5.3c.4.2.8.5,1,.8s.5.8.6,1.2.2,1,.2,1.6c0,1.3-.3,2.2-.8,2.9-.6.7-1.4,1-2.4,1s-1-.1-1.5-.3c-.4-.2-.8-.5-1-.8-.3-.3-.5-.8-.6-1.2-.2-.5-.2-1-.2-1.6ZM410,285.7c0,.4,0,.7.1,1.1s.2.7.4.9c.2.3.4.5.6.6.3.2.6.2.9.2,1.4,0,2-1,2-2.9s0-.8-.1-1.1c-.1-.3-.2-.7-.4-.9-.2-.3-.4-.5-.6-.6s-.6-.2-.9-.2c-1.3,0-2,1-2,2.9Z"/>
  </g>
  <g class="cls-21">
    <path class="cls-18" d="M416.3,282h1.2v-1.5l1.2-.3v1.8h2v1h-2v4.2c0,.5.1.9.2,1.1s.3.3.7.3.5,0,.7-.1.4-.1.6-.2l.3.9c-.3.1-.6.2-.9.3-.3.1-.7.1-1,.1-.6,0-1-.2-1.3-.5s-.4-.9-.4-1.7v-4.4h-1.2v-1h-.1Z"/>
    <path class="cls-18" d="M427.5,288.9c-.3.2-.7.4-1.1.6-.5.1-.9.2-1.4.2s-1.1-.1-1.5-.3c-.4-.2-.8-.5-1-.8-.3-.3-.5-.8-.6-1.2-.1-.5-.2-1-.2-1.6,0-1.3.3-2.3.9-2.9.6-.7,1.4-1,2.4-1s.7,0,1,.1.6.2.9.4c.3.2.5.5.7.9s.3.9.3,1.5,0,.7-.1,1.1h-4.8c0,.4,0,.8.1,1.2s.2.6.4.9c.2.2.4.4.7.5.3.1.7.2,1.1.2s.7-.1,1-.2.6-.3.8-.4l.4.8ZM424.9,282.8c-.6,0-1.1.2-1.4.5-.4.3-.6.8-.6,1.6h3.7c0-.8-.1-1.3-.4-1.6-.3-.3-.7-.5-1.3-.5Z"/>
  </g>
  <g class="cls-21">
    <path class="cls-18" d="M434.7,289c-.3.2-.7.4-1.1.5s-.8.2-1.3.2-1.1-.1-1.5-.3c-.4-.2-.7-.5-1-.8s-.4-.8-.6-1.2c-.1-.5-.2-1-.2-1.6,0-1.3.3-2.2.8-2.9.6-.7,1.4-1,2.4-1s.9,0,1.2.1.6.2.9.3l-.3,1c-.2-.1-.5-.2-.8-.3-.3-.1-.6-.1-.9-.1-1.4,0-2.1,1-2.1,2.9s0,.7.1,1.1c.1.3.2.6.4.9.2.3.4.5.7.6.3.2.6.2,1.1.2s.7-.1,1-.2.5-.2.7-.4l.5,1Z"/>
    <path class="cls-18" d="M435.4,282h1.2v-1.5l1.2-.3v1.8h2v1h-2v4.2c0,.5.1.9.2,1.1s.3.3.7.3.5,0,.7-.1.4-.1.6-.2l.3.9c-.3.1-.6.2-.9.3-.3.1-.7.1-1,.1-.6,0-1-.2-1.3-.5s-.4-.9-.4-1.7v-4.4h-1.2v-1h-.1Z"/>
    <path class="cls-18" d="M444.8,287.4c0-.3-.1-.5-.3-.7-.2-.2-.4-.3-.7-.4-.3-.1-.6-.2-.9-.3-.3-.1-.6-.2-.9-.4-.3-.2-.5-.4-.7-.6s-.3-.6-.3-1c0-.7.2-1.2.6-1.6s1-.5,1.7-.5,1,0,1.4.1.7.2,1,.3l-.3,1c-.2-.1-.5-.2-.8-.3-.3-.1-.7-.1-1-.1s-.8.1-1,.2c-.2.2-.3.4-.3.8s.1.5.3.6c.2.1.4.3.7.4.3.1.6.2.9.3.3.1.6.3.9.4.3.2.5.4.7.7.2.3.3.6.3,1.1s-.1.6-.2.9-.3.5-.5.7-.5.4-.8.5-.7.2-1.1.2c-.6,0-1.1-.1-1.5-.2s-.7-.2-1-.4l.4-1c.2.1.5.3.9.4s.7.2,1.1.2.8-.1,1.1-.3.3-.5.3-1Z"/>
    <path class="cls-18" d="M450.8,282h1.2v-1.5l1.2-.3v1.8h2v1h-2v4.2c0,.5.1.9.2,1.1s.4.3.7.3.5,0,.7-.1.4-.1.6-.2l.3.9c-.3.1-.6.2-.9.3-.3.1-.7.1-1,.1-.6,0-1-.2-1.3-.5s-.4-.9-.4-1.7v-4.4h-1.2v-1h-.1Z"/>
    <path class="cls-18" d="M461.7,289.5v-4.3c0-.4,0-.7-.1-1s-.1-.5-.2-.7-.3-.3-.5-.4-.5-.1-.8-.1c-.5,0-.9.2-1.3.5s-.6.7-.7,1.2v5h-1.2v-10.7h1.2v3.8h.1c.3-.3.6-.6.9-.7.4-.2.8-.3,1.4-.3s.8,0,1.1.1c.3.1.6.3.8.5s.4.6.5,1,.1.9.1,1.5v4.5h-1.3Z"/>
    <path class="cls-18" d="M470.6,288.9c-.3.2-.7.4-1.1.6-.5.1-.9.2-1.4.2s-1.1-.1-1.5-.3c-.4-.2-.8-.5-1-.8-.3-.3-.5-.8-.6-1.2-.1-.5-.2-1-.2-1.6,0-1.3.3-2.3.9-2.9s1.4-1,2.4-1,.7,0,1,.1.6.2.9.4c.3.2.5.5.7.9s.3.9.3,1.5,0,.7-.1,1.1h-4.8c0,.4,0,.8.1,1.2s.2.6.4.9c.2.2.4.4.7.5s.7.2,1.1.2.7-.1,1-.2.6-.3.8-.4l.4.8ZM468,282.8c-.6,0-1.1.2-1.4.5-.4.3-.6.8-.6,1.6h3.7c0-.8-.1-1.3-.4-1.6-.4-.3-.8-.5-1.3-.5Z"/>
    <path class="cls-18" d="M476.6,282.5c.4-.2.8-.4,1.3-.5s1-.2,1.6-.2.9.1,1.3.2c.3.1.6.3.7.5.2.2.3.5.3.7.1.3.1.5.1.8v4.4c0,.3.1.6.2.9h-.9l-.3-1h-.1c-.1.1-.2.3-.3.4-.1.1-.3.3-.5.4s-.4.2-.7.3c-.3.1-.5.1-.9.1s-.6,0-.9-.2c-.3-.1-.5-.2-.7-.4-.2-.2-.4-.4-.5-.7-.1-.3-.2-.6-.2-.9s.1-.8.3-1.1c.2-.3.4-.5.8-.7s.7-.3,1.2-.4,1-.1,1.5-.1h.8v-.8c0-.5-.1-.9-.3-1.2-.2-.2-.6-.3-1.2-.3h-.5c-.2,0-.4.1-.6.1s-.4.1-.6.2-.3.1-.5.2l-.4-.7ZM478.7,288.5c.3,0,.5,0,.8-.1.2-.1.4-.2.6-.3.2-.1.3-.2.4-.4.1-.1.2-.3.2-.4v-1.2h-.8c-.3,0-.6,0-.9.1-.3,0-.6.1-.8.2-.2.1-.4.2-.5.4-.1.2-.2.4-.2.6,0,.3.1.6.4.9s.4.2.8.2Z"/>
    <path class="cls-18" d="M484.1,282h.8l.2.9h.1c.2-.4.5-.6.9-.8.4-.2.8-.3,1.3-.3,1,0,1.7.3,2.2.9s.7,1.6.7,2.9-.1,1.2-.2,1.7-.4.9-.7,1.3c-.3.4-.7.6-1.1.8-.4.2-.9.3-1.4.3s-.7,0-.9-.1c-.2,0-.4-.1-.7-.2v3.1h-1.2v-10.5h0ZM487.2,282.8c-.5,0-.9.1-1.2.4s-.5.7-.6,1.2v3.7c.2.1.4.2.6.3.2.1.5.1.9.1.7,0,1.2-.3,1.6-.8s.6-1.3.6-2.3,0-.8-.1-1.1c-.1-.3-.2-.6-.3-.9-.2-.2-.4-.4-.6-.5s-.6-.1-.9-.1Z"/>
    <path class="cls-18" d="M492.3,282h.8l.2.9h.1c.2-.4.5-.6.9-.8.4-.2.8-.3,1.3-.3,1,0,1.7.3,2.2.9s.7,1.6.7,2.9-.1,1.2-.2,1.7-.4.9-.7,1.3c-.3.4-.7.6-1.1.8-.4.2-.9.3-1.4.3s-.7,0-.9-.1c-.2,0-.4-.1-.7-.2v3.1h-1.2v-10.5h0ZM495.3,282.8c-.5,0-.9.1-1.2.4s-.5.7-.6,1.2v3.7c.2.1.4.2.6.3.2.1.5.1.9.1.7,0,1.2-.3,1.6-.8s.6-1.3.6-2.3,0-.8-.1-1.1c-.1-.3-.2-.6-.3-.9-.2-.2-.4-.4-.6-.5s-.5-.1-.9-.1Z"/>
    <path class="cls-18" d="M501.7,287.6c0,.3.1.6.2.8.1.1.3.2.5.2h.4c.2,0,.3-.1.5-.1v.9c-.1.1-.3.1-.6.2-.3,0-.5.1-.7.1-.5,0-.8-.1-1.1-.4s-.4-.7-.4-1.3v-9h1.2v8.6Z"/>
    <path class="cls-18" d="M504.8,279.7c0-.2.1-.4.2-.6.2-.2.4-.2.6-.2s.4.1.6.2.3.4.3.6-.1.4-.3.6-.4.2-.6.2-.4-.1-.6-.2c-.2-.2-.2-.4-.2-.6ZM505,282h1.2v7.5h-1.2v-7.5Z"/>
    <path class="cls-18" d="M513.9,289c-.3.2-.7.4-1.1.5-.4.1-.8.2-1.3.2s-1.1-.1-1.5-.3c-.4-.2-.7-.5-1-.8s-.4-.8-.6-1.2c-.1-.5-.2-1-.2-1.6,0-1.3.3-2.2.8-2.9.6-.7,1.4-1,2.4-1s.9,0,1.2.1.6.2.9.3l-.3,1c-.2-.1-.5-.2-.8-.3s-.6-.1-.9-.1c-1.4,0-2.1,1-2.1,2.9s0,.7.1,1.1c.1.3.2.6.4.9.2.3.4.5.7.6.3.2.6.2,1.1.2s.7-.1,1-.2.5-.2.7-.4l.5,1Z"/>
    <path class="cls-18" d="M515.4,282.5c.4-.2.8-.4,1.3-.5s1-.2,1.6-.2.9.1,1.3.2c.3.1.6.3.7.5.2.2.3.5.3.7,0,.3,0,.5,0,.8v4.4c0,.3,0,.6.2.9h-.9l-.3-1h0c0,.1-.2.3-.3.4s-.3.3-.5.4-.4.2-.7.3c-.3.1-.5.1-.9.1s-.6,0-.9-.2c-.3-.1-.5-.2-.7-.4-.2-.2-.4-.4-.5-.7,0-.3-.2-.6-.2-.9s0-.8.3-1.1c.2-.3.4-.5.8-.7s.7-.3,1.2-.4,1-.1,1.5-.1h.8v-.8c0-.5,0-.9-.3-1.2-.2-.2-.6-.3-1.2-.3h-.5c-.2,0-.4.1-.6.1s-.4.1-.6.2c-.2.1-.3.1-.5.2l-.4-.7ZM517.6,288.5c.3,0,.5,0,.8-.1l.6-.3c.2-.1.3-.2.4-.4,0-.1.2-.3.2-.4v-1.2h-.8c-.3,0-.6,0-.9.1-.3,0-.6.1-.8.2s-.4.2-.5.4c0,.2-.2.4-.2.6,0,.3,0,.6.4.9s.4.2.8.2Z"/>
    <path class="cls-18" d="M522,282h1.2v-1.5l1.2-.3v1.8h2v1h-2v4.2c0,.5,0,.9.2,1.1,0,.2.3.3.7.3s.5,0,.7-.1.4-.1.6-.2l.3.9c-.3.1-.6.2-.9.3-.3.1-.7.1-1,.1-.6,0-1-.2-1.3-.5s-.4-.9-.4-1.7v-4.4h-1.3v-1Z"/>
    <path class="cls-18" d="M528.1,279.7c0-.2,0-.4.2-.6.2-.2.4-.2.6-.2s.4.1.6.2.3.4.3.6,0,.4-.3.6-.4.2-.6.2-.4-.1-.6-.2c-.2-.2-.2-.4-.2-.6ZM528.3,282h1.2v7.5h-1.2v-7.5Z"/>
    <path class="cls-18" d="M531.7,285.7c0-1.3.3-2.2.8-2.9.6-.7,1.4-1,2.4-1s1,.1,1.5.3c.4.2.8.5,1,.8.3.3.5.8.6,1.2,0,.5.2,1,.2,1.6,0,1.3-.3,2.2-.8,2.9-.6.7-1.4,1-2.4,1s-1-.1-1.5-.3c-.4-.2-.8-.5-1-.8-.3-.3-.5-.8-.6-1.2-.2-.5-.2-1-.2-1.6ZM532.9,285.7c0,.4,0,.7,0,1.1s.2.7.4.9c.2.3.4.5.6.6.3.2.6.2.9.2,1.4,0,2-1,2-2.9s0-.8,0-1.1c0-.3-.2-.7-.4-.9-.2-.3-.4-.5-.6-.6s-.6-.2-.9-.2c-1.3,0-2,1-2,2.9Z"/>
    <path class="cls-18" d="M544.9,289.5v-4.3c0-.8,0-1.4-.3-1.8s-.6-.6-1.2-.6-1,.1-1.3.4-.6.6-.7,1.1v5.1h-1.2v-7.4h.8l.2.9h0c.2-.3.6-.6,1-.8.4-.2.9-.3,1.4-.3s.8,0,1.1.1.6.3.8.5.4.6.5,1,.2.9.2,1.5v4.5h-1.4Z"/>
  </g>
  <g class="cls-21">
    <path class="cls-18" d="M371.1,307c-.3.2-.7.4-1.1.5s-.8.2-1.3.2-1.1-.1-1.5-.3c-.4-.2-.7-.5-1-.8s-.4-.8-.6-1.2c-.1-.5-.2-1-.2-1.6,0-1.3.3-2.2.8-2.9.6-.7,1.4-1,2.4-1s.9,0,1.2.1.6.2.9.3l-.3,1c-.2-.1-.5-.2-.8-.3s-.6-.1-.9-.1c-1.4,0-2.1,1-2.1,2.9s0,.7.1,1.1c.1.3.2.6.4.9.2.3.4.5.7.6.3.2.6.2,1.1.2s.7-.1,1-.2.5-.2.7-.4l.5,1Z"/>
  </g>
  <g class="cls-21">
    <path class="cls-18" d="M372,303.7c0-1.3.3-2.2.8-2.9.6-.7,1.4-1,2.4-1s1,.1,1.5.3c.4.2.8.5,1,.8s.5.8.6,1.2.2,1,.2,1.6c0,1.3-.3,2.2-.8,2.9-.6.7-1.4,1-2.4,1s-1-.1-1.5-.3c-.4-.2-.8-.5-1-.8-.3-.3-.5-.8-.6-1.2-.1-.5-.2-1-.2-1.6ZM373.3,303.7c0,.4,0,.7.1,1.1s.2.7.4.9c.2.3.4.5.6.6.3.2.6.2.9.2,1.4,0,2-1,2-2.9s0-.8-.1-1.1c-.1-.3-.2-.7-.4-.9-.2-.3-.4-.5-.6-.6s-.6-.2-.9-.2c-1.3,0-2,1-2,2.9Z"/>
    <path class="cls-18" d="M385.3,307.5v-4.3c0-.8-.1-1.4-.3-1.8-.2-.4-.6-.6-1.2-.6s-1,.1-1.3.4-.6.6-.7,1.1v5.1h-1.2v-7.4h.8l.2.9h.1c.2-.3.6-.6,1-.8s.9-.3,1.4-.3.8,0,1.1.1c.3.1.6.3.8.5s.4.6.5,1,.2.9.2,1.5v4.5h-1.4Z"/>
    <path class="cls-18" d="M394.5,300v7.5h-1.2v-6.5h-3v6.5h-1.3v-6.5h-1.2v-1h1.2v-.4c0-.9.2-1.6.7-2s1.1-.6,2-.6,1.1.1,1.6.2.8.3,1.1.4l-.4,1c-.3-.2-.6-.3-1-.4s-.8-.1-1.2-.1-.7,0-.9.1c-.2.1-.4.2-.5.4-.1.2-.2.4-.2.7s-.1.6-.1.9h4.4v-.2Z"/>
    <path class="cls-18" d="M402.5,304.9v1.4c0,.4.1.8.1,1.2h-.8l-.3-1.1h-.1c-.2.4-.5.6-.9.9-.4.2-.8.3-1.3.3-1,0-1.7-.3-2.2-.9s-.7-1.6-.7-3,.3-2.3.9-2.9c.6-.7,1.4-1,2.5-1s.7,0,.9.1.4.1.7.2v-3.1h1.2v7.9h0ZM399.5,306.6c.5,0,.9-.1,1.2-.4.3-.3.5-.7.6-1.2v-3.7c-.2-.1-.4-.2-.6-.3-.2-.1-.5-.1-.9-.1-.7,0-1.2.2-1.6.7s-.6,1.2-.6,2.2,0,.8.1,1.1c.1.4.2.7.3.9.1.3.3.4.6.6.3,0,.6.2.9.2Z"/>
    <path class="cls-18" d="M410.3,306.9c-.3.2-.7.4-1.1.6-.5.1-.9.2-1.4.2s-1.1-.1-1.5-.3c-.4-.2-.8-.5-1-.8-.3-.3-.5-.8-.6-1.2-.1-.5-.2-1-.2-1.6,0-1.3.3-2.3.9-2.9s1.4-1,2.4-1,.7,0,1,.1.6.2.9.4c.3.2.5.5.7.9s.3.9.3,1.5,0,.7-.1,1.1h-4.8c0,.4,0,.8.1,1.2s.2.6.4.9c.2.2.4.4.7.5s.7.2,1.1.2.7-.1,1-.2.6-.3.8-.4l.4.8ZM407.8,300.8c-.6,0-1.1.2-1.4.5-.4.3-.6.8-.6,1.6h3.7c0-.8-.1-1.3-.4-1.6-.4-.3-.8-.5-1.3-.5Z"/>
    <path class="cls-18" d="M417.3,307.5v-4.3c0-.8-.1-1.4-.3-1.8-.2-.4-.6-.6-1.2-.6s-1,.1-1.3.4-.6.6-.7,1.1v5.1h-1.2v-7.4h.8l.2.9h.1c.2-.3.6-.6,1-.8.4-.2.9-.3,1.4-.3s.8,0,1.1.1c.3.1.6.3.8.5.2.2.4.6.5,1s.2.9.2,1.5v4.5h-1.4Z"/>
    <path class="cls-18" d="M419.7,300h1.2v-1.5l1.2-.3v1.8h2v1h-2v4.2c0,.5.1.9.2,1.1s.3.3.7.3.5,0,.7-.1.4-.1.6-.2l.3.9c-.3.1-.6.2-.9.3-.3.1-.7.1-1,.1-.6,0-1-.2-1.3-.5s-.4-.9-.4-1.7v-4.4h-1.2v-1h-.1Z"/>
    <path class="cls-18" d="M425.8,297.7c0-.2.1-.4.2-.6.2-.2.4-.2.6-.2s.4.1.6.2.3.4.3.6-.1.4-.3.6-.4.2-.6.2-.4-.1-.6-.2c-.2-.2-.2-.4-.2-.6ZM426,300h1.2v7.5h-1.2v-7.5Z"/>
    <path class="cls-18" d="M429.7,300.5c.4-.2.8-.4,1.3-.5s1-.2,1.6-.2.9.1,1.3.2c.3.1.6.3.7.5.2.2.3.5.3.7.1.3.1.5.1.8v4.4c0,.3.1.6.2.9h-.9l-.3-1h-.1c-.1.1-.2.3-.3.4-.1.1-.3.3-.5.4s-.4.2-.7.3c-.3.1-.5.1-.9.1s-.6,0-.9-.2c-.3-.1-.5-.2-.7-.4-.2-.2-.4-.4-.5-.7-.1-.3-.2-.6-.2-.9s.1-.8.3-1.1c.2-.3.4-.5.8-.7s.7-.3,1.2-.4,1-.1,1.5-.1h.8v-.8c0-.5-.1-.9-.3-1.2-.2-.2-.6-.3-1.2-.3h-.5c-.2,0-.4.1-.6.1s-.4.1-.6.2-.3.1-.5.2l-.4-.7ZM431.8,306.5c.3,0,.5,0,.8-.1.2-.1.4-.2.6-.3.2-.1.3-.2.4-.4.1-.1.2-.3.2-.4v-1.2h-.8c-.3,0-.6,0-.9.1-.3,0-.6.1-.8.2-.2.1-.4.2-.5.4-.1.2-.2.4-.2.6,0,.3.1.6.4.9s.4.2.8.2Z"/>
    <path class="cls-18" d="M438.6,305.6c0,.3.1.6.2.8.1.1.3.2.5.2h.4c.2,0,.3-.1.5-.1v.9c-.1.1-.3.1-.6.2-.3,0-.5.1-.7.1-.5,0-.8-.1-1.1-.4s-.4-.7-.4-1.3v-9h1.2v8.6Z"/>
    <path class="cls-18" d="M441.6,297.7c0-.2.1-.4.2-.6.2-.2.4-.2.6-.2s.4.1.6.2.3.4.3.6-.1.4-.3.6-.4.2-.6.2-.4-.1-.6-.2c-.1-.2-.2-.4-.2-.6ZM441.9,300h1.2v7.5h-1.2v-7.5Z"/>
    <path class="cls-18" d="M444.6,300h1.2v-1.5l1.2-.3v1.8h2v1h-2v4.2c0,.5.1.9.2,1.1s.3.3.7.3.5,0,.7-.1.4-.1.6-.2l.3.9c-.3.1-.6.2-.9.3-.3.1-.7.1-1,.1-.6,0-1-.2-1.3-.5s-.4-.9-.4-1.7v-4.4h-1.2v-1h-.1Z"/>
  </g>
  <g class="cls-21">
    <path class="cls-18" d="M452.9,304.8l.4,1.4h.1l.3-1.5,1.5-4.8h1.2l-2.2,6.7c-.2.5-.3,1-.5,1.4s-.3.9-.5,1.2c-.2.4-.4.6-.7.9-.3.2-.5.3-.9.3s-.7-.1-.9-.2l.2-1c.1,0,.3.1.4.1.3,0,.5-.1.8-.4s.5-.8.6-1.5l-3-7.5h1.4l1.8,4.9Z"/>
  </g>
  <g class="cls-21">
    <path class="cls-18" d="M456.2,306.8c0-.2.1-.4.2-.6.2-.1.4-.2.6-.2.3,0,.6.1.8.3s.3.5.3,1-.1.7-.2.9c-.1.3-.2.5-.4.7-.2.2-.3.4-.5.5s-.4.2-.6.3l-.4-.6c.4-.1.6-.4.8-.7s.3-.6.3-.9h-.3c-.2,0-.4-.1-.5-.2s0-.2,0-.5Z"/>
  </g>
  <g class="cls-21">
    <path class="cls-18" d="M462.8,297.7c0-.2.1-.4.2-.6s.4-.2.6-.2.4.1.6.2c.2.2.3.4.3.6s-.1.4-.3.6c-.2.2-.4.2-.6.2s-.4-.1-.6-.2-.2-.4-.2-.6ZM463.1,300h1.2v7.5h-1.2v-7.5Z"/>
    <path class="cls-18" d="M471.7,307.5v-4.3c0-.8-.1-1.4-.3-1.8-.2-.4-.6-.6-1.2-.6s-1,.1-1.3.4-.6.6-.7,1.1v5.1h-1.2v-7.4h.8l.2.9h.1c.2-.3.6-.6,1-.8s.9-.3,1.4-.3.8,0,1.1.1c.3.1.6.3.8.5s.4.6.5,1,.2.9.2,1.5v4.5h-1.4Z"/>
  </g>
  <g class="cls-21">
    <path class="cls-18" d="M474.1,300h1.2v-1.5l1.2-.3v1.8h2v1h-2v4.2c0,.5.1.9.2,1.1s.4.3.7.3.5,0,.7-.1.4-.1.6-.2l.3.9c-.3.1-.6.2-.9.3-.3.1-.7.1-1,.1-.6,0-1-.2-1.3-.5s-.4-.9-.4-1.7v-4.4h-1.2v-1h-.1Z"/>
    <path class="cls-18" d="M485.3,306.9c-.3.2-.7.4-1.1.6-.5.1-.9.2-1.4.2s-1.1-.1-1.5-.3c-.4-.2-.8-.5-1-.8-.3-.3-.5-.8-.6-1.2-.1-.5-.2-1-.2-1.6,0-1.3.3-2.3.9-2.9s1.4-1,2.4-1,.7,0,1,.1.6.2.9.4c.3.2.5.5.7.9s.3.9.3,1.5,0,.7-.1,1.1h-4.8c0,.4,0,.8.1,1.2.1.3.2.6.4.9.2.2.4.4.7.5.3.1.7.2,1.1.2s.7-.1,1-.2.6-.3.8-.4l.4.8ZM482.7,300.8c-.6,0-1.1.2-1.4.5-.4.3-.6.8-.6,1.6h3.7c0-.8-.1-1.3-.4-1.6-.3-.3-.7-.5-1.3-.5Z"/>
  </g>
  <g class="cls-21">
    <path class="cls-18" d="M493.2,307.8c0,1-.3,1.7-.8,2.1-.5.5-1.3.7-2.3.7s-1.1,0-1.4-.1c-.4-.1-.7-.2-.9-.3l.3-1c.2.1.5.2.8.3.3.1.6.1,1.1.1s.8,0,1-.1.5-.2.6-.4.3-.4.3-.7c.1-.3.1-.6.1-1v-.7h-.1c-.2.3-.5.5-.8.7s-.7.2-1.2.2c-1,0-1.8-.3-2.2-.9s-.7-1.6-.7-2.9.3-2.3.9-2.9c.6-.7,1.5-1,2.7-1s1.1,0,1.5.1.8.2,1.1.3v7.5ZM490.2,306.6c.5,0,.9-.1,1.2-.4s.5-.7.6-1.2v-3.8c-.4-.2-.9-.3-1.5-.3s-1.2.2-1.6.7-.6,1.2-.6,2.2,0,.8.1,1.2c.1.4.2.7.3.9.1.3.3.4.6.6.2,0,.5,0,.9,0Z"/>
    <path class="cls-18" d="M499,301.1c-.3-.1-.6-.2-.9-.2s-.8.1-1,.4c-.3.2-.4.5-.5.9v5.3h-1.2v-7.5h.8l.2.9h.1c.2-.3.4-.6.7-.8.3-.2.6-.3,1-.3s.6.1,1,.2l-.2,1.1Z"/>
    <path class="cls-18" d="M500.6,297.7c0-.2.1-.4.2-.6s.4-.2.6-.2.4.1.6.2c.2.2.3.4.3.6s-.1.4-.3.6c-.2.2-.4.2-.6.2s-.4-.1-.6-.2-.2-.4-.2-.6ZM500.8,300h1.2v7.5h-1.2v-7.5Z"/>
    <path class="cls-18" d="M503.6,300h1.2v-1.5l1.2-.3v1.8h2v1h-2v4.2c0,.5.1.9.2,1.1s.4.3.7.3.5,0,.7-.1.4-.1.6-.2l.3.9c-.3.1-.6.2-.9.3-.3.1-.7.1-1,.1-.6,0-1-.2-1.3-.5s-.4-.9-.4-1.7v-4.4h-1.2v-1h-.1Z"/>
  </g>
  <g class="cls-21">
    <path class="cls-18" d="M511.9,304.8l.4,1.4h0l.3-1.5,1.5-4.8h1.2l-2.2,6.7c-.2.5-.3,1-.5,1.4s-.3.9-.5,1.2c-.2.4-.4.6-.7.9-.3.2-.5.3-.9.3s-.7-.1-.9-.2l.2-1c.1,0,.3.1.4.1.3,0,.5-.1.8-.4s.5-.8.6-1.5l-3-7.5h1.4l1.8,4.9Z"/>
  </g>
  <g class="cls-21">
    <path class="cls-18" d="M366.6,322.7c0-.4.1-.8.2-1.1.1-.4.3-.7.6-1s.5-.6.8-.9.6-.5,1-.7c-.2-.4-.4-.7-.6-1.1s-.3-.8-.3-1.2,0-.5.1-.7.2-.4.4-.6c.2-.2.4-.3.7-.4.3-.1.6-.2,1-.2s.8.1,1,.2c.3.1.5.2.7.4.2.2.3.4.4.6s.1.4.1.6c0,.4-.2.9-.5,1.3s-.8.9-1.5,1.3c.2.3.3.6.6.9.2.3.4.6.7.9.2.3.5.6.7.9s.5.6.8.8c.1-.1.2-.3.3-.5.1-.2.2-.4.3-.6.1-.2.2-.4.3-.6.1-.2.2-.4.2-.6l.9.4c-.1.2-.1.4-.3.6-.1.2-.2.5-.4.7s-.3.5-.4.7-.3.4-.4.6c.2.2.4.4.6.5s.3.3.5.4c.1.1.3.2.4.3.1.1.3.2.4.2l-.8.8c-.5-.3-1.1-.7-1.8-1.4-.2.2-.4.4-.6.5-.2.2-.5.3-.7.4-.3.1-.6.2-.9.3-.3.1-.7.1-1.1.1s-.9-.1-1.3-.2-.8-.3-1.1-.6-.6-.6-.7-.9c-.2-.2-.3-.7-.3-1.1ZM372.7,323.5l-.9-.9c-.3-.3-.5-.7-.8-1s-.5-.7-.7-1-.4-.6-.5-.8c-.3.2-.5.4-.8.6-.2.2-.4.4-.6.7-.2.2-.3.5-.4.8s-.1.6-.1.9.1.6.2.8c.1.2.3.5.5.6s.5.3.8.4.6.1.9.1.5,0,.7-.1.5-.1.7-.2.4-.2.6-.3.2-.5.4-.6ZM369.5,316.7c0,.3.1.6.2.9s.3.6.5.9c.5-.3.9-.6,1.1-.9s.3-.5.3-.7c0-.3-.1-.6-.2-.8s-.4-.3-.8-.3-.6.1-.8.3-.3.3-.3.6Z"/>
    <path class="cls-18" d="M381.4,318h1.2v-.4c0-.5,0-.9.1-1.2s.2-.6.4-.8.4-.4.7-.5c.3-.1.6-.2,1-.2s.6,0,.8.1.5.1.8.2l-.3,1c-.2-.1-.4-.2-.7-.2h-.6c-.3,0-.5,0-.6.1s-.3.2-.3.4c-.1.2-.1.3-.1.6v1h2v1h-2v6.5h-1.2v-6.6h-1.2v-1h0Z"/>
    <path class="cls-18" d="M390.6,319.1c-.3-.1-.6-.2-.9-.2s-.8.1-1,.4c-.3.2-.4.5-.5.9v5.3h-1.2v-7.5h.8l.2.9h.1c.2-.3.4-.6.7-.8.3-.2.6-.3,1-.3s.6.1,1,.2l-.2,1.1Z"/>
    <path class="cls-18" d="M397.6,324.9c-.3.2-.7.4-1.1.6-.5.1-.9.2-1.4.2s-1.1-.1-1.5-.3c-.4-.2-.8-.5-1-.8-.3-.3-.5-.8-.6-1.2-.1-.5-.2-1-.2-1.6,0-1.3.3-2.3.9-2.9s1.4-1,2.4-1,.7,0,1,.1.6.2.9.4c.3.2.5.5.7.9s.3.9.3,1.5,0,.7-.1,1.1h-4.9c0,.4,0,.8.1,1.2s.2.6.4.9c.2.2.4.4.7.5s.7.2,1.1.2.7-.1,1-.2.6-.3.8-.4l.5.8ZM395,318.8c-.6,0-1.1.2-1.4.5-.4.3-.6.8-.6,1.6h3.7c0-.8-.1-1.3-.4-1.6-.3-.3-.8-.5-1.3-.5Z"/>
    <path class="cls-18" d="M403,323.4c0-.3-.1-.5-.3-.7-.2-.2-.4-.3-.7-.4-.3-.1-.6-.2-.9-.3-.3-.1-.6-.2-.9-.4s-.5-.4-.7-.6c-.2-.3-.3-.6-.3-1,0-.7.2-1.2.6-1.6s1-.5,1.7-.5,1,0,1.4.1.7.2,1,.3l-.3,1c-.2-.1-.5-.2-.8-.3-.3-.1-.7-.1-1-.1s-.8.1-1,.2c-.2.2-.3.4-.3.8s.1.5.3.6c.2.1.4.3.7.4.3.1.6.2.9.3.3.1.6.3.9.4.3.2.5.4.7.7.2.3.3.6.3,1.1s-.1.6-.2.9-.3.5-.5.7-.5.4-.8.5-.7.2-1.1.2c-.6,0-1.1-.1-1.5-.2s-.7-.2-1-.4l.4-1c.2.1.5.3.9.4s.7.2,1.1.2.8-.1,1.1-.3c.2-.2.3-.5.3-1Z"/>
    <path class="cls-18" d="M410.9,325.5v-4.3c0-.4,0-.7-.1-1s-.1-.5-.2-.7-.3-.3-.5-.4-.5-.1-.8-.1c-.5,0-.9.2-1.3.5s-.6.7-.7,1.2v5h-1.2v-10.7h1.2v3.8h.1c.3-.3.6-.6.9-.7.4-.2.8-.3,1.4-.3s.8,0,1.1.1c.3.1.6.3.8.5s.4.6.5,1,.1.9.1,1.5v4.5h-1.3Z"/>
    <path class="cls-18" d="M419.1,325.5v-4.3c0-.8-.1-1.4-.3-1.8-.2-.4-.6-.6-1.2-.6s-1,.1-1.3.4-.6.6-.7,1.1v5.1h-1.2v-7.4h.8l.2.9h.1c.2-.3.6-.6,1-.8.4-.2.9-.3,1.4-.3s.8,0,1.1.1c.3.1.6.3.8.5.2.2.4.6.5,1s.2.9.2,1.5v4.5h-1.4Z"/>
    <path class="cls-18" d="M427.9,324.9c-.3.2-.7.4-1.1.6-.5.1-.9.2-1.4.2s-1.1-.1-1.5-.3c-.4-.2-.8-.5-1-.8-.3-.3-.5-.8-.6-1.2-.1-.5-.2-1-.2-1.6,0-1.3.3-2.3.9-2.9s1.4-1,2.4-1,.7,0,1,.1.6.2.9.4c.3.2.5.5.7.9s.3.9.3,1.5,0,.7-.1,1.1h-4.8c0,.4,0,.8.1,1.2s.2.6.4.9c.2.2.4.4.7.5s.7.2,1.1.2.7-.1,1-.2.6-.3.8-.4l.4.8ZM425.4,318.8c-.6,0-1.1.2-1.4.5-.4.3-.6.8-.6,1.6h3.7c0-.8-.1-1.3-.4-1.6-.4-.3-.8-.5-1.3-.5Z"/>
    <path class="cls-18" d="M433.4,323.4c0-.3-.1-.5-.3-.7-.2-.2-.4-.3-.7-.4-.3-.1-.6-.2-.9-.3-.3-.1-.6-.2-.9-.4s-.5-.4-.7-.6c-.2-.3-.3-.6-.3-1,0-.7.2-1.2.6-1.6s1-.5,1.7-.5,1,0,1.4.1.7.2,1,.3l-.3,1c-.2-.1-.5-.2-.8-.3-.3-.1-.7-.1-1-.1s-.8.1-1,.2c-.2.2-.3.4-.3.8s.1.5.3.6c.2.1.4.3.7.4.3.1.6.2.9.3.3.1.6.3.9.4.3.2.5.4.7.7.2.3.3.6.3,1.1s-.1.6-.2.9-.3.5-.5.7-.5.4-.8.5-.7.2-1.1.2c-.6,0-1.1-.1-1.5-.2s-.7-.2-1-.4l.4-1c.2.1.5.3.9.4s.7.2,1.1.2.8-.1,1.1-.3c0-.2.3-.5.3-1Z"/>
    <path class="cls-18" d="M439.7,323.4c0-.3-.1-.5-.3-.7-.2-.2-.4-.3-.7-.4-.3-.1-.6-.2-.9-.3-.3-.1-.6-.2-.9-.4s-.5-.4-.7-.6c-.2-.3-.3-.6-.3-1,0-.7.2-1.2.6-1.6s1-.5,1.7-.5,1,0,1.4.1.7.2,1,.3l-.3,1c-.2-.1-.5-.2-.8-.3-.3-.1-.7-.1-1-.1s-.8.1-1,.2c-.2.2-.3.4-.3.8s.1.5.3.6c.2.1.4.3.7.4.3.1.6.2.9.3.3.1.6.3.9.4.3.2.5.4.7.7.2.3.3.6.3,1.1s-.1.6-.2.9-.3.5-.5.7-.5.4-.8.5-.7.2-1.1.2c-.6,0-1.1-.1-1.5-.2s-.7-.2-1-.4l.4-1c.2.1.5.3.9.4s.7.2,1.1.2.8-.1,1.1-.3c.2-.2.3-.5.3-1Z"/>
  </g>
  <g id="Scone_logo_white" data-name="Scone logo white">
    <g class="cls-20">
      <g class="cls-22">
        <g>
          <path class="cls-19" d="M216.9,177.1h-1.1c-.2,0-.4.2-.4.4h0v1.1c0,.2.2.4.4.4h1.1c.2,0,.4-.2.4-.4v-1.1c0-.2,0-.4-.4-.4h0M213.2,179h1.1c.2,0,.4-.2.4-.4h0v-1.1c0-.2-.2-.4-.4-.4h-1.1c-.2,0-.4.2-.4.4h0v1.1c0,.2.2.4.4.4M212.1,178.6v-1.1c0-.2-.2-.4-.4-.4h-1.1c-.2,0-.4.2-.4.4h0v1.1c0,.2.2.4.4.4h1.1c.2,0,.4-.2.4-.4h0M217,179.8c-.2,0-.3.1-.3.3v1.3c0,.2.1.3.3.3s.3-.1.3-.3v-1.3c0-.2-.1-.3-.3-.3q0-.1,0,0M214.1,180.2v1.1c0,.2.2.4.4.4h1.1c.2,0,.4-.2.4-.4h0v-1.1c0-.2-.2-.4-.4-.4h-1.1c-.2,0-.4,0-.4.4h0M213.3,181.2v-1.1c0-.2-.2-.4-.4-.4h-1.1c-.2,0-.4.2-.4.4h0v1.1c0,.2.2.4.4.4h1.1c.3.1.4,0,.4-.4h0M216.9,182.4h-1.1c-.2,0-.4.2-.4.4h0v1.1c0,.2.2.4.4.4h1.1c.2,0,.4-.2.4-.4h0v-1.1c0-.2,0-.4-.4-.4M214.2,182.4h-1.1c-.2,0-.4.2-.4.4v1.1c0,.2.2.4.4.4h1.1c.2,0,.4-.2.4-.4h0v-1.1c0-.2-.2-.4-.4-.4h0"/>
          <path class="cls-19" d="M218.2,176.7c.5.4,1.1.5,1.7.5h0v3c0,1.1-1.4,1.8-1.7,2h0v-5.5h0"/>
          <path class="cls-19" d="M215,176.5c2.2-.1,2.6-.9,2.6-.9h.1c0-.1.1-.1.1-.1,0,0,.4.8,2.6.8s.1,0,.1.1v3.8c0,1.2-2.3,2.6-2.4,2.6s-.1.1-.1.1v1s.1.1.2,0c.9-.5,3.3-1.8,3.3-3.4v-4.9c0-.1-.1-.1-.2-.1-2.9,0-3.4-1-3.4-1h-.3s-.5,1.1-3.3,1.1-.1,0-.1.1v.6s0,.1.1.1.7.2.7,0"/>
          <path class="cls-17" d="M223.6,182.8l1.1-.4c.3.6.9.9,1.5.9s.6-.1.9-.2c.2-.1.4-.4.4-.6,0-.6-.8-1-1.4-1.2h0c-.5-.2-.9-.4-1.3-.7-.4-.3-.7-.8-.6-1.3,0-.5.2-1.1.7-1.4.5-.4,1.1-.6,1.7-.6.9,0,1.8.4,2.2,1.2l-1.2.4c-.1-.2-.2-.3-.4-.4-.2-.1-.4-.1-.6-.1-.7,0-1.1.4-1.1.8s.2.6.4.7c.3.2.7.4,1,.5h.1c.9.5,2,.9,2,2.1s-.3,1.1-.8,1.4c-.5.4-1.2.6-1.9.5-1.1,0-2.1-.6-2.7-1.6"/>
          <path class="cls-17" d="M233.8,184.3c-.5,0-1-.1-1.4-.3s-.8-.4-1.1-.8c-.3-.3-.6-.7-.8-1.1-.4-.9-.4-1.9,0-2.8.2-.4.4-.8.8-1.1.3-.3.7-.6,1.1-.8.4-.2.9-.3,1.4-.3,1.1,0,2.2.5,2.9,1.4l-1,.7c-.5-.6-1.2-1-1.9-1s-1.3.3-1.7.8c-.5.4-.7,1.1-.7,1.7,0,1.3,1,2.4,2.4,2.4s.9-.1,1.3-.4c.4-.2.7-.5.9-.9l1,.6c-.3.5-.8,1-1.3,1.3-.7.5-1.4.6-1.9.6"/>
          <path class="cls-17" d="M241.7,184.3c-.5,0-1-.1-1.4-.3s-.8-.4-1.1-.8c-.3-.3-.6-.7-.8-1.1-.2-.4-.3-.9-.3-1.4s.1-1,.3-1.4.4-.8.8-1.1c.3-.3.7-.6,1.1-.8.9-.4,1.9-.4,2.8,0,.4.2.8.4,1.1.8.3.3.6.7.8,1.1.4.9.4,1.9,0,2.8-.2.4-.4.8-.8,1.1-.7.8-1.6,1.1-2.5,1.1M241.7,178.3c-.6,0-1.2.3-1.7.7-.5.5-.7,1.1-.7,1.7s.3,1.3.7,1.7c1,.9,2.5.9,3.4,0,.4-.5.7-1.1.7-1.7,0-1.3-1.1-2.4-2.4-2.4"/>
          <polygon class="cls-17" points="253.5 177.2 253.5 184.5 248.4 179.9 248.4 184.2 247.1 184.2 247.1 176.9 252.2 181.6 252.2 177.2 253.5 177.2"/>
          <polygon class="cls-17" points="256.9 178.2 256.9 180.1 260.5 180.1 260.5 181.2 256.9 181.2 256.9 183.1 260.9 183.1 260.9 184.2 255.6 184.2 255.6 177.2 260.9 177.2 260.9 178.3 256.9 178.3 256.9 178.2"/>
        </g>
      </g>
    </g>
  </g>
  <path class="cls-14" d="M224.8,19.2c6-5.9,15.7-5.8,21.7.2,5.9,6,5.8,15.7-.2,21.7-6,5.9-15.7,5.8-21.7-.2-2.8-2.9-4.4-6.7-4.4-10.7s1.1-6.6,3.1-9.3"/>
  <path class="cls-8" d="M235.6,37.5h-5.5c-.8,0-1.1-.3-1.1-1v-8.5c0-.8.3-1,1.1-1h11c.7,0,1,.3,1,1v8.5c0,.7-.3,1-1,1h-5.5Z"/>
  <path class="cls-8" d="M229.9,26.2c0-2.3,1.3-4.4,3.4-5.4,2.8-1.2,6,0,7.2,2.8.1.3.2.6.3.9.1.5.2,1,.3,1.5"/>
  <path class="cls-16" d="M234.7,33.9h0v1.1c0,.2.1.3.3.3h1.1c.3,0,.4,0,.4-.3v-2.1c0-.2.1-.4.3-.5.7-.3,1-1.1.8-1.9-.3-.8-1.1-1.3-1.9-1.3-.9-.1-1.7.4-2.1,1.1-.3.8,0,1.6.7,2,.3,0,.4.4.3.6,0,.4,0,.7,0,1Z"/>
  <g class="cls-21">
    <path class="cls-18" d="M6.4,136.1h.6c0-.1,2.6-7.7,2.6-7.7h1.8l2.6,7.6h.6v1.1h-3v-1h.6c0-.1-.4-1.3-.4-1.3h-2.7l-.3,1.2h.6v1.1h-3s0-1,0-1ZM9.6,133.5h2l-1-3.1h0l-1,3.1Z"/>
    <path class="cls-18" d="M19.5,136.4c-.2.3-.4.5-.7.7s-.6.2-.9.2c-.8,0-1.4-.3-1.9-.9-.4-.6-.7-1.4-.7-2.3h0c0-1.1.2-1.9.7-2.6.4-.6,1.1-.9,1.9-.9s.6.1.9.2c.3.1.5.3.7.6v-2.3l-.9-.2v-1.1h2.6v8.1l.8.2v1h-2.3l-.2-.7ZM17.1,134.1c0,.6.1,1,.3,1.3.2.3.5.5.9.5s.5-.1.7-.2c.2-.1.3-.3.5-.4v-2.7c-.1-.2-.3-.4-.5-.5s-.4-.2-.7-.2-.7.2-.9.6c-.2.4-.3.9-.3,1.5h0Z"/>
  </g>
  <g class="cls-21">
    <path class="cls-18" d="M25.3,131.8h-.6c0,.1.9,3,.9,3v.6h.1v-.6c.1,0,.9-2.9.9-2.9h-.6v-1.2h3v1.1h-.6c0,.1-1.9,5.4-1.9,5.4h-1.7l-1.9-5.3h-.6v-1.2h2.9v1.1h.1Z"/>
  </g>
  <g class="cls-21">
    <path class="cls-18" d="M32.6,137.3c-.9,0-1.7-.3-2.2-.9-.6-.6-.8-1.4-.8-2.3v-.2c0-1,.3-1.8.8-2.4.5-.6,1.2-.9,2.1-.9s1.5.3,2,.8.7,1.2.7,2.1v1h-3.9c0,.4.2.8.4,1.1.3.3.6.4,1,.4s.7,0,1-.1.5-.2.8-.4l.5,1.1c-.3.2-.6.4-1,.5s-.9.2-1.4.2ZM32.4,131.9c-.3,0-.6.1-.8.4-.2.2-.3.6-.3,1h2.1v-.2c0-.4,0-.7-.3-.9-.1-.2-.3-.3-.7-.3Z"/>
    <path class="cls-18" d="M36.1,136.1l.8-.2v-4l-.9-.2v-1.1h2.6v.9c.3-.3.4-.6.7-.8.2-.2.5-.3.8-.3h.3c0,0,.2,0,.3.1l-.2,1.6h-.7c-.3,0-.5,0-.6.1-.2.1-.3.2-.4.4v3.1l.8.2v1h-3.4v-.8h0Z"/>
    <path class="cls-18" d="M46.4,132.9h-1.2l-.2-.8c0-.1-.3-.2-.5-.2-.2-.1-.4-.1-.6-.1-.3,0-.5.1-.7.2s-.3.3-.3.5,0,.4.3.5.5.2,1,.3c.8.2,1.4.4,1.8.7.4.3.6.7.6,1.3s-.3,1.1-.8,1.4c-.5.4-1.2.6-2,.6s-1-.1-1.4-.2-.8-.4-1.1-.6v-1.5h1.2l.2.8c0,.1.2.2.4.2s.4.1.6.1c.4,0,.6-.1.8-.2.2-.1.3-.3.3-.5s0-.4-.3-.5-.5-.3-1-.4c-.8-.2-1.3-.4-1.7-.7s-.6-.7-.6-1.2.2-1,.7-1.4,1.1-.6,1.9-.6,1,.1,1.4.2.8.3,1.1.5v1.6Z"/>
    <path class="cls-18" d="M51.6,137.2c0-.1,0-.2,0-.3s0-.2,0-.3c-.2.2-.5.4-.8.6s-.6.2-1,.2c-.6,0-1.1-.2-1.5-.5s-.6-.8-.6-1.4.2-1.1.7-1.4c.5-.3,1.2-.5,2.1-.5h.9v-.6c0-.3,0-.6-.3-.7-.2-.2-.4-.3-.8-.3s-.4,0-.5.1c-.2,0-.3.1-.4.2v.7h-1.4v-1.4c.3-.2.7-.4,1.1-.5.4-.1.9-.2,1.3-.2.8,0,1.5.2,2,.6.5.4.8,1,.8,1.7v3.3h.5v1.1h-1.9v-.4ZM50.1,136c.3,0,.5-.1.7-.2.2-.1.4-.3.5-.4v-1h-.9c-.4,0-.7.1-.8.3s-.3.4-.3.6,0,.4.2.5c0,0,.3.2.6.2Z"/>
  </g>
  <g class="cls-21">
    <path class="cls-18" d="M54.3,136.1l.8-.2v-4l-.9-.2v-1.1h2.6v.9c.3-.3.4-.6.7-.8.2-.2.5-.3.8-.3h.3c0,0,.2,0,.3.1l-.2,1.6h-.7c-.3,0-.5,0-.6.1-.2.1-.3.2-.4.4v3.1l.8.2v1h-3.4v-.8h0Z"/>
  </g>
  <g class="cls-21">
    <path class="cls-18" d="M66.1,131.8h-.6c0,.1-2.4,6.4-2.4,6.4-.2.5-.4.9-.8,1.2s-.8.5-1.4.5h-.4c0,0-.3-.1-.5-.1l.2-1.3h.4c.3,0,.5-.1.7-.2.2-.1.3-.3.4-.5l.2-.5-2.1-5.3h-.6v-1.2h3.2v1.1h-.7c0,.1.9,2.7.9,2.7v.5h0l1-3.1h-.7v-1.2h3.2v1h-.1Z"/>
  </g>
  <g class="cls-21">
    <path class="cls-18" d="M19.6,146.4h-.7c0,.1-1.4,5.4-1.4,5.4h-1.5l-1.2-3.8h0l-1.2,3.8h-1.5l-1.4-5.3h-.7v-1.2h2.9v1.1h-.7c0,.1.6,3.1.6,3.1h0l1.2-4.1h1.2l1.2,4.2h0l.6-3h-.7v-1.2h2.9v1h.4Z"/>
    <path class="cls-18" d="M20.1,150.8l.8-.2v-4l-.9-.2v-1.1h2.7v5.2l.8.2v1h-3.4v-.9ZM22.7,143.8h-1.7v-1.3h1.7v1.3Z"/>
    <path class="cls-18" d="M26.7,143.8v1.6h1.1v1.2h-1.1v3.3c0,.3.1.4.2.5s.2.2.4.2h.3c.1,0,.2,0,.3-.1v1.3c-.1.1-.3.1-.5.1h-.6c-.6,0-1.1-.2-1.4-.5s-.5-.9-.5-1.6v-3.3h-1v-1.2h1v-1.6h1.8Z"/>
    <path class="cls-18" d="M28.6,150.8l.8-.2v-6.9l-.9-.2v-1.1h2.7v3.7c.2-.3.5-.5.7-.7.3-.2.6-.2,1-.2.7,0,1.2.2,1.6.7.4.4.6,1.1.6,2.1v2.6l.8.2v1h-3.3v-1l.8-.2v-2.6c0-.5,0-.9-.3-1.1-.2-.2-.4-.3-.8-.3s-.5,0-.6.1c-.2.1-.3.2-.5.4v3.5l.8.2v1h-3.3v-1h0Z"/>
  </g>
  <g class="cls-21">
    <path class="cls-18" d="M39.6,150.8l.8-.2v-4l-.9-.2v-1.1h2.6v.9c.3-.3.4-.6.7-.8.2-.2.5-.3.8-.3h.3c0,0,.2,0,.3.1l-.2,1.6h-.7c-.3,0-.5,0-.6.1-.2.1-.3.2-.4.4v3.1l.8.2v1h-3.4v-.8h0Z"/>
  </g>
  <g class="cls-21">
    <path class="cls-18" d="M44.5,148.6c0-1,.3-1.8.8-2.4.5-.6,1.3-.9,2.2-.9s1.7.3,2.2.9c.5.6.8,1.4.8,2.4h0c0,1.1-.3,1.9-.8,2.5-.5.6-1.3.9-2.2.9s-1.7-.3-2.3-.9c-.5-.6-.8-1.4-.8-2.4h0c0-.1,0-.1,0-.1ZM46.3,148.7c0,.6,0,1.1.3,1.4.2.4.5.5,1,.5s.8-.2,1-.5c.2-.4.3-.8.3-1.4h0c0-.7,0-1.1-.3-1.5s-.5-.5-1-.5-.8.2-1,.5c-.2.4-.3.8-.3,1.4h0Z"/>
    <path class="cls-18" d="M51.4,148.6c0-1,.3-1.8.8-2.4.5-.6,1.3-.9,2.2-.9s1.7.3,2.2.9c.5.6.8,1.4.8,2.4h0c0,1.1-.3,1.9-.8,2.5-.5.6-1.3.9-2.2.9s-1.7-.3-2.3-.9c-.5-.6-.8-1.4-.8-2.4h0c0-.1,0-.1,0-.1ZM53.1,148.7c0,.6,0,1.1.3,1.4.2.4.5.5,1,.5s.8-.2,1-.5c.2-.4.3-.8.3-1.4h0c0-.7,0-1.1-.3-1.5s-.5-.5-1-.5-.8.2-1,.5c-.2.4-.3.8-.3,1.4h0Z"/>
    <path class="cls-18" d="M60.8,143.8v1.6h1.2v1.2h-1.1v3.3c0,.3,0,.4.2.5s.2.2.4.2h.3c0,0,.2,0,.3-.1v1.3c-.1.1-.3.1-.5.1h-.6c-.6,0-1.1-.2-1.4-.5-.3-.3-.5-.9-.5-1.6v-3.3h-1v-1.2h1v-1.6h1.7Z"/>
  </g>
  <g class="cls-21">
    <path class="cls-18" d="M468.1,212.8h.6c0-.1,2.6-7.7,2.6-7.7h1.8l2.6,7.6h.6v1.1h-3v-1h.6c0-.1-.4-1.3-.4-1.3h-2.8l-.4,1.2h.6v1.1h-3v-1h.2ZM471.3,210.2h2l-1-3.1h0l-1,3.1Z"/>
    <path class="cls-18" d="M481.3,213c-.2.3-.4.5-.7.7-.3.2-.6.2-.9.2-.8,0-1.4-.3-1.9-.9-.4-.6-.7-1.4-.7-2.3h0c0-1.1.2-1.9.7-2.6.4-.6,1.1-.9,1.9-.9s.6.1.9.2c.3.1.5.3.7.6v-2.3l-.9-.2v-1.1h2.6v8.1l.8.2v1h-2.3l-.2-.7ZM478.8,210.8c0,.6.1,1,.3,1.3.2.3.5.5.9.5s.5-.1.7-.2.3-.3.5-.4v-2.7c-.1-.2-.3-.4-.5-.5s-.4-.2-.7-.2-.7.2-.9.6c-.2.4-.3.9-.3,1.5h0Z"/>
  </g>
  <g class="cls-21">
    <path class="cls-18" d="M487.1,208.4h-.6c0,.1.9,3,.9,3v.6h.1v-.6c.1,0,.9-2.9.9-2.9h-.6v-1.2h2.9v1.1h-.6c0,.1-1.9,5.4-1.9,5.4h-1.7l-1.9-5.3h-.6v-1.2h2.9v1.1h.2Z"/>
  </g>
  <g class="cls-21">
    <path class="cls-18" d="M494.3,213.9c-.9,0-1.7-.3-2.2-.9s-.8-1.4-.8-2.3v-.2c0-1,.3-1.8.8-2.4.5-.6,1.2-.9,2.1-.9s1.5.3,2,.8.7,1.2.7,2.1v1h-3.9c0,.4.2.8.4,1.1.3.3.6.4,1,.4s.7,0,1-.1.5-.2.8-.4l.5,1.1c-.3.2-.6.4-1,.5-.4.2-.9.2-1.4.2ZM494.2,208.6c-.3,0-.6.1-.8.4-.2.2-.3.6-.3,1h2.1v-.2c0-.4-.1-.7-.3-.9-.1-.2-.4-.3-.7-.3Z"/>
    <path class="cls-18" d="M497.9,212.8l.8-.2v-4l-.9-.2v-1.1h2.6v.9c.3-.3.4-.6.7-.8.2-.2.5-.3.8-.3h.3c.1,0,.2,0,.3.1l-.2,1.6h-.7c-.3,0-.5,0-.6.1s-.3.2-.4.4v3.1l.8.2v1h-3.4v-.8h0Z"/>
    <path class="cls-18" d="M508.2,209.6h-1.2l-.2-.8c-.1-.1-.3-.2-.5-.2s-.4-.1-.6-.1c-.3,0-.5.1-.7.2-.2.1-.3.3-.3.5s.1.4.3.5c.2.1.5.2,1,.3.8.2,1.4.4,1.8.7s.6.7.6,1.3-.3,1.1-.8,1.4c-.5.4-1.2.6-2,.6s-1-.1-1.4-.2c-.4-.1-.8-.4-1.1-.6v-1.5h1.2l.2.8c.1.1.2.2.4.2s.4.1.6.1c.4,0,.6-.1.8-.2s.3-.3.3-.5-.1-.4-.3-.5c-.2-.1-.5-.3-1-.4-.8-.2-1.3-.4-1.7-.7s-.6-.7-.6-1.2.2-1,.7-1.4,1.1-.6,1.9-.6,1,.1,1.4.2.8.3,1.1.5v1.6Z"/>
    <path class="cls-18" d="M513.3,213.8c0-.1,0-.2,0-.3s0-.2,0-.3c-.2.2-.5.4-.8.6s-.6.2-1,.2c-.6,0-1.1-.2-1.5-.5s-.6-.8-.6-1.4.2-1.1.7-1.4c.5-.3,1.2-.5,2.1-.5h.9v-.6c0-.3,0-.6-.3-.7-.2-.2-.4-.3-.8-.3s-.4,0-.5.1c-.2,0-.3.1-.4.2v.7h-1.4v-1.4c.3-.2.7-.4,1.1-.5s.9-.2,1.3-.2c.8,0,1.5.2,2,.6.5.4.8,1,.8,1.7v3.3h.5v1.1h-1.9v-.4ZM511.8,212.7c.3,0,.5-.1.7-.2.2-.1.4-.3.5-.4v-1h-.9c-.4,0-.7.1-.8.3s-.3.4-.3.6.1.4.2.5c0,0,.3.2.6.2Z"/>
  </g>
  <g class="cls-21">
    <path class="cls-18" d="M516,212.8l.8-.2v-4l-.9-.2v-1.1h2.6v.9c.3-.3.4-.6.7-.8.2-.2.5-.3.8-.3h.3c0,0,.2,0,.3.1l-.2,1.6h-.7c-.3,0-.5,0-.6.1-.2.1-.3.2-.4.4v3.1l.8.2v1h-3.5v-.8Z"/>
  </g>
  <g class="cls-21">
    <path class="cls-18" d="M527.9,208.4h-.6c0,.1-2.4,6.4-2.4,6.4-.2.5-.4.9-.8,1.2-.3.3-.8.5-1.4.5h-.4c0,0-.3-.1-.5-.1l.2-1.3h.4c.3,0,.5-.1.7-.2.2-.1.3-.3.4-.5l.2-.5-2.1-5.3h-.6v-1.2h3.2v1.1h-.7c0,.1.9,2.7.9,2.7v.5h0l1-3.1h-.7v-1.2h3.2v1h-.1Z"/>
  </g>
  <g class="cls-21">
    <path class="cls-18" d="M481.3,223.1h-.7c0,.1-1.4,5.4-1.4,5.4h-1.5l-1.2-3.8h0l-1.2,3.8h-1.3l-1.4-5.3h-.7v-1.2h2.9v1.1h-.7c0,.1.6,3.1.6,3.1h0l1.2-4.1h1.2l1.2,4.2h0l.6-3h-.7v-1.3h2.9v1.1h.2Z"/>
    <path class="cls-18" d="M481.9,227.5l.8-.2v-4l-.9-.2v-1.1h2.7v5.2l.8.2v1h-3.4v-.9ZM484.5,220.5h-1.7v-1.3h1.7v1.3Z"/>
    <path class="cls-18" d="M488.5,220.5v1.6h1.1v1.2h-1.1v3.3c0,.3.1.4.2.5s.2.2.4.2h.3c.1,0,.2,0,.3-.1v1.3c-.1.1-.3.1-.5.1h-.6c-.6,0-1.1-.2-1.4-.5s-.5-.9-.5-1.6v-3.3h-.9v-1.2h.9v-1.6h1.8Z"/>
    <path class="cls-18" d="M490.4,227.5l.8-.2v-6.9l-.9-.2v-1.1h2.7v3.7c.2-.3.5-.5.7-.7.3-.2.6-.2,1-.2.7,0,1.2.2,1.6.7.4.4.6,1.1.6,2.1v2.6l.8.2v1h-3.3v-1l.8-.2v-2.6c0-.5-.1-.9-.3-1.1s-.4-.3-.8-.3-.5,0-.6.1c-.2.1-.3.2-.5.4v3.5l.8.2v1h-3.3v-1h-.1Z"/>
  </g>
  <g class="cls-21">
    <path class="cls-18" d="M501.4,227.5l.8-.2v-4l-.9-.2v-1.1h2.6v.9c.3-.3.4-.6.7-.8.2-.2.5-.3.8-.3h.3c.1,0,.2,0,.3.1l-.2,1.6h-.7c-.3,0-.5,0-.6.1-.2.1-.3.2-.4.4v3.1l.8.2v1h-3.4v-.8h0Z"/>
  </g>
  <g class="cls-21">
    <path class="cls-18" d="M506.3,225.2c0-1,.3-1.8.8-2.4.5-.6,1.3-.9,2.2-.9s1.7.3,2.2.9c.5.6.8,1.4.8,2.4h0c0,1.1-.3,1.9-.8,2.5-.5.6-1.3.9-2.2.9s-1.7-.3-2.3-.9c-.5-.6-.8-1.4-.8-2.4h0c0-.1,0-.1,0-.1ZM508,225.3c0,.6.1,1.1.3,1.4.2.4.5.5,1,.5s.8-.2,1-.5c.2-.4.3-.8.3-1.4h0c0-.7-.1-1.1-.3-1.5-.2-.4-.5-.5-1-.5s-.8.2-1,.5c-.2.4-.3.8-.3,1.4h0Z"/>
    <path class="cls-18" d="M513.1,225.2c0-1,.3-1.8.8-2.4.5-.6,1.3-.9,2.2-.9s1.7.3,2.2.9c.5.6.8,1.4.8,2.4h0c0,1.1-.3,1.9-.8,2.5-.5.6-1.3.9-2.2.9s-1.7-.3-2.3-.9c-.5-.6-.8-1.4-.8-2.4h0c0-.1,0-.1,0-.1ZM514.9,225.3c0,.6,0,1.1.3,1.4.2.4.5.5,1,.5s.8-.2,1-.5c.2-.4.3-.8.3-1.4h0c0-.7,0-1.1-.3-1.5s-.5-.5-1-.5-.8.2-1,.5c-.2.4-.3.8-.3,1.4h0Z"/>
    <path class="cls-18" d="M522.6,220.5v1.6h1.1v1.2h-1.1v3.3c0,.3,0,.4.2.5s.2.2.4.2h.3c0,0,.2,0,.3-.1v1.3c-.1.1-.3.1-.5.1h-.6c-.6,0-1.1-.2-1.4-.5-.3-.3-.5-.9-.5-1.6v-3.3h-1v-1.2h1v-1.6h1.8Z"/>
  </g>
  <g class="cls-21">
    <path class="cls-18" d="M77.8,369.6h.6c0-.1,2.6-7.7,2.6-7.7h1.8l2.6,7.6h.6v1.1h-3v-1h.6c0-.1-.4-1.3-.4-1.3h-2.8l-.4,1.2h.6v1.1h-3v-1h.2ZM81,367h2l-1-3.1h0l-1,3.1Z"/>
    <path class="cls-18" d="M91,369.9c-.2.3-.4.5-.7.7s-.6.2-.9.2c-.8,0-1.4-.3-1.9-.9-.4-.6-.7-1.4-.7-2.3h0c0-1.1.2-1.9.7-2.6.4-.6,1.1-.9,1.9-.9s.6.1.9.2.5.3.7.6v-2.3l-.9-.2v-1.1h2.6v8.1l.8.2v1h-2.3l-.2-.7ZM88.5,367.6c0,.6,0,1,.3,1.3.2.3.5.5.9.5s.5-.1.7-.2.3-.3.5-.4v-2.7c0-.2-.3-.4-.5-.5s-.4-.2-.7-.2-.7.2-.9.6c-.2.4-.3.9-.3,1.5h0Z"/>
  </g>
  <g class="cls-21">
    <path class="cls-18" d="M96.7,365.3h-.6c0,.1.9,3,.9,3v.6h0v-.6c0,0,.9-2.9.9-2.9h-.6v-1.2h2.9v1.1h-.6c0,.1-1.9,5.4-1.9,5.4h-1.7l-1.9-5.3h-.6v-1.2h2.9v1.1h.2Z"/>
  </g>
  <g class="cls-21">
    <path class="cls-18" d="M104,370.8c-.9,0-1.7-.3-2.2-.9-.6-.6-.8-1.4-.8-2.3v-.2c0-1,.3-1.8.8-2.4s1.2-.9,2.1-.9,1.5.3,2,.8.7,1.2.7,2.1v1h-3.9c0,.4.2.8.4,1.1.3.3.6.4,1,.4s.7,0,1-.1.5-.2.8-.4l.5,1.1c-.3.2-.6.4-1,.5s-.9.2-1.4.2ZM103.8,365.4c-.3,0-.6.1-.8.4-.2.2-.3.6-.3,1h2.1v-.2c0-.4,0-.7-.3-.9,0-.2-.3-.3-.7-.3Z"/>
    <path class="cls-18" d="M107.5,369.6l.8-.2v-4l-.9-.2v-1.1h2.6v.9c.3-.3.4-.6.7-.8.2-.2.5-.3.8-.3h.3c0,0,.2,0,.3.1l-.2,1.6h-.7c-.3,0-.5,0-.6.1-.2.1-.3.2-.4.4v3.1l.8.2v1h-3.4v-.8h-.1Z"/>
    <path class="cls-18" d="M117.8,366.4h-1.2l-.2-.8c0-.1-.3-.2-.5-.2-.2-.1-.4-.1-.6-.1-.3,0-.5.1-.7.2s-.3.3-.3.5,0,.4.3.5c.2.1.5.2,1,.3.8.2,1.4.4,1.8.7.4.3.6.7.6,1.3s-.3,1.1-.8,1.4c-.5.4-1.2.6-2,.6s-1-.1-1.4-.2-.8-.4-1.1-.6v-1.5h1.2l.2.8c0,.1.2.2.4.2s.4.1.6.1c.4,0,.6-.1.8-.2.2-.1.3-.3.3-.5s0-.4-.3-.5c-.2-.1-.5-.3-1-.4-.8-.2-1.3-.4-1.7-.7-.4-.3-.6-.7-.6-1.2s.2-1,.7-1.4,1.1-.6,1.9-.6,1,.1,1.4.2.8.3,1.1.5v1.6Z"/>
    <path class="cls-18" d="M123,370.7c0-.1,0-.2,0-.3s0-.2,0-.3c-.2.2-.5.4-.8.6s-.6.2-1,.2c-.6,0-1.1-.2-1.5-.5s-.6-.8-.6-1.4.2-1.1.7-1.4,1.2-.5,2.1-.5h.9v-.6c0-.3,0-.6-.3-.7-.2-.2-.4-.3-.8-.3s-.4,0-.5.1c-.2,0-.3.1-.4.2v.7h-1.4v-1.4c.3-.2.7-.4,1.1-.5s.9-.2,1.3-.2c.8,0,1.5.2,2,.6s.8,1,.8,1.7v3.3h.5v1.1h-1.9v-.4ZM121.5,369.5c.3,0,.5-.1.7-.2s.4-.3.5-.4v-1h-.9c-.4,0-.7.1-.8.3s-.3.4-.3.6,0,.4.2.5c.1.1.3.2.6.2Z"/>
  </g>
  <g class="cls-21">
    <path class="cls-18" d="M125.7,369.6l.8-.2v-4l-.9-.2v-1.1h2.6v.9c.3-.3.4-.6.7-.8.2-.2.5-.3.8-.3h.3c.1,0,.2,0,.3.1l-.2,1.6h-.7c-.3,0-.5,0-.6.1-.2.1-.3.2-.4.4v3.1l.8.2v1h-3.4v-.8h-.1Z"/>
  </g>
  <g class="cls-21">
    <path class="cls-18" d="M137.6,365.3h-.6c0,.1-2.4,6.4-2.4,6.4-.2.5-.4.9-.8,1.2s-.8.5-1.4.5h-.4c-.1,0-.3-.1-.5-.1l.2-1.3h.4c.3,0,.5-.1.7-.2s.3-.3.4-.5l.2-.5-2.1-5.3h-.6v-1.2h3.2v1.1h-.7c0,.1.9,2.7.9,2.7v.5h.1l1-3.1h-.7v-1.2h3.2v1h0Z"/>
  </g>
  <g class="cls-21">
    <path class="cls-18" d="M91,379.9h-.7c0,.1-1.4,5.4-1.4,5.4h-1.5l-1.2-3.8h0l-1.2,3.8h-1.5l-1.4-5.3h-.7v-1.2h2.9v1.1h-.7c0,.1.6,3.1.6,3.1h0l1.2-4.1h1.2l1.2,4.2h0l.6-3h-.7v-1.2h3.3v1Z"/>
    <path class="cls-18" d="M91.6,384.3l.8-.2v-4l-.9-.2v-1.1h2.7v5.2l.8.2v1h-3.4v-.9ZM94.2,377.3h-1.7v-1.3h1.7v1.3Z"/>
    <path class="cls-18" d="M98.1,377.3v1.6h1.1v1.2h-1.1v3.3c0,.3,0,.4.2.5s.2.2.4.2h.3c0,0,.2,0,.3-.1v1.3c0,.1-.3.1-.5.1h-.6c-.6,0-1.1-.2-1.4-.5s-.5-.9-.5-1.6v-3.3h-1v-1.2h1v-1.6h1.8Z"/>
    <path class="cls-18" d="M100,384.3l.8-.2v-6.9l-.9-.2v-1h2.7v3.7c.2-.3.5-.5.7-.7.3-.2.6-.2,1-.2.7,0,1.2.2,1.6.7.4.4.6,1.1.6,2.1v2.6l.8.2v1h-3.3v-1l.8-.2v-2.6c0-.5,0-.9-.3-1.1-.2-.2-.4-.3-.8-.3s-.5,0-.6.1c-.2.1-.3.2-.5.4v3.5l.8.2v1h-3.4v-1.1Z"/>
  </g>
  <g class="cls-21">
    <path class="cls-18" d="M111.1,384.3l.8-.2v-4l-.9-.2v-1.1h2.6v.9c.3-.3.4-.6.7-.8.2-.2.5-.3.8-.3h.3c0,0,.2,0,.3.1l-.2,1.6h-.7c-.3,0-.5,0-.6.1-.2.1-.3.2-.4.4v3.1l.8.2v1h-3.4v-.8h-.1Z"/>
  </g>
  <g class="cls-21">
    <path class="cls-18" d="M116,382.1c0-1,.3-1.8.8-2.4s1.3-.9,2.2-.9,1.7.3,2.2.9.8,1.4.8,2.4h0c0,1.1-.3,1.9-.8,2.5s-1.3.9-2.2.9-1.7-.3-2.3-.9c-.5-.6-.8-1.4-.8-2.4h0c0-.1.1-.1.1-.1ZM117.7,382.2c0,.6,0,1.1.3,1.4.2.4.5.5,1,.5s.8-.2,1-.5c.2-.4.3-.8.3-1.4h0c0-.7,0-1.1-.3-1.5-.2-.4-.5-.5-1-.5s-.8.2-1,.5c-.2.4-.3.8-.3,1.4h0Z"/>
    <path class="cls-18" d="M122.8,382.1c0-1,.3-1.8.8-2.4s1.3-.9,2.2-.9,1.7.3,2.2.9.8,1.4.8,2.4h0c0,1.1-.3,1.9-.8,2.5s-1.3.9-2.2.9-1.7-.3-2.3-.9c-.5-.6-.8-1.4-.8-2.4h0c0-.1.1-.1.1-.1ZM124.6,382.2c0,.6,0,1.1.3,1.4.2.4.5.5,1,.5s.8-.2,1-.5c.2-.4.3-.8.3-1.4h0c0-.7,0-1.1-.3-1.5-.2-.4-.5-.5-1-.5s-.8.2-1,.5c-.2.4-.3.8-.3,1.4h0Z"/>
    <path class="cls-18" d="M132.3,377.3v1.6h1.1v1.2h-1.1v3.3c0,.3.1.4.2.5s.2.2.4.2h.3c.1,0,.2,0,.3-.1v1.3c0,.1-.3.1-.5.1h-.6c-.6,0-1.1-.2-1.4-.5-.3-.3-.5-.9-.5-1.6v-3.3h-1v-1.2h1v-1.6h1.8Z"/>
  </g>
  <g class="cls-21">
    <path class="cls-18" d="M462.1,105.7h.6c0,0,2.6-7.7,2.6-7.7h1.8l2.6,7.6h.6v1.1h-3v-1h.6c0,0-.4-1.3-.4-1.3h-2.8l-.4,1.2h.6v1.1h-3v-1h.2ZM465.2,103.1h2l-1-3.1h0l-1,3.1Z"/>
    <path class="cls-18" d="M470.9,101.3v-1.1h2.5v.8c.3-.3.5-.5.8-.6.3-.2.6-.2.9-.2.8,0,1.4.3,1.9.9.4.6.7,1.4.7,2.5h0c0,1.1-.2,1.8-.7,2.4s-1.1.9-1.9.9-.6,0-.9-.2-.5-.3-.7-.6v1.9l.8.2v1.1h-3.3v-1.1l.8-.2v-6.5l-.9-.2ZM475.9,103.5c0-.6-.1-1.1-.3-1.5-.2-.4-.5-.6-.9-.6s-.5,0-.7.2-.3.3-.4.5v2.8c.1.2.3.3.4.4.2,0,.4,0,.7,0s.7-.2.9-.5c.2-.3.3-.8.3-1.3h0Z"/>
  </g>
  <g class="cls-21">
    <path class="cls-18" d="M478.3,101.3v-1.1h2.5v.8c.3-.3.5-.5.8-.6s.6-.2.9-.2c.8,0,1.4.3,1.9.9.4.6.7,1.4.7,2.5h0c0,1.1-.2,1.8-.7,2.4s-1.1.9-1.9.9-.6,0-.9-.2-.5-.3-.7-.6v1.9l.8.2v1.1h-3.4v-1.1l.8-.2v-6.5l-.8-.2ZM483.3,103.5c0-.6-.1-1.1-.3-1.5-.2-.4-.5-.6-.9-.6s-.5,0-.7.2-.3.3-.4.5v2.8c.1.2.3.3.4.4s.4,0,.7,0,.7-.2.9-.5c.2-.3.3-.8.3-1.3h0Z"/>
  </g>
  <g class="cls-21">
    <path class="cls-18" d="M485.5,98.4v-1.1h2.7v8.1l.8.2v1h-3.4v-1l.8-.2v-6.9h-.9Z"/>
    <path class="cls-18" d="M489.6,105.7l.8-.2v-4l-.9-.2v-1.1h2.7v5.2l.8.2v1h-3.4v-.9ZM492.1,98.7h-1.7v-1.3h1.7v1.3Z"/>
    <path class="cls-18" d="M496.6,105.5c.3,0,.6,0,.7-.3.2-.2.3-.4.3-.7h1.6c0,.7-.2,1.2-.7,1.6s-1.1.7-1.9.7-1.7-.3-2.2-.9-.8-1.4-.8-2.3v-.2c0-1,.3-1.7.8-2.3.5-.6,1.3-.9,2.3-.9s1,0,1.4.2c.4.2.8.4,1,.7v1.7h-1.4l-.3-1c-.1,0-.2,0-.3-.2-.1,0-.3,0-.4,0-.5,0-.8.2-1,.5-.2.4-.3.8-.3,1.4v.2c0,.6.1,1,.3,1.4s.4.5.9.5Z"/>
  </g>
  <g class="cls-21">
    <path class="cls-18" d="M504.1,106.7c0,0-.1-.2-.1-.3s-.1-.2-.1-.3c-.2.2-.5.4-.8.6s-.6.2-1,.2c-.6,0-1.1-.2-1.5-.5s-.6-.8-.6-1.4.2-1.1.7-1.4,1.2-.5,2.1-.5h.9v-.6c0-.3-.1-.6-.3-.7-.2-.2-.4-.3-.8-.3s-.4,0-.5,0c-.2,0-.3,0-.4.2v.7h-1.4v-1.4c.3-.2.7-.4,1.1-.5s.9-.2,1.3-.2c.8,0,1.5.2,2,.6s.8,1,.8,1.7v3.3h.5v1.1h-1.9v-.4ZM502.6,105.6c.3,0,.5,0,.7-.2s.4-.3.5-.4v-1h-.9c-.4,0-.7,0-.8.3s-.3.4-.3.6.1.4.2.5c.2,0,.4.2.6.2Z"/>
  </g>
  <g class="cls-21">
    <path class="cls-18" d="M508.8,98.7v1.6h1.1v1.2h-1.1v3.3c0,.3.1.4.2.5s.2.2.4.2h.3c.1,0,.2,0,.3,0v1.3c-.1,0-.3,0-.5,0h-.6c-.6,0-1.1-.2-1.4-.5s-.5-.9-.5-1.6v-3.3h-1v-1.2h1v-1.6h1.8Z"/>
    <path class="cls-18" d="M510.8,105.7l.8-.2v-4l-.9-.2v-1.1h2.7v5.2l.8.2v1h-3.4v-.9h0ZM513.4,98.7h-1.7v-1.3h1.7v1.3Z"/>
    <path class="cls-18" d="M514.8,103.4c0-1,.3-1.8.8-2.4s1.3-.9,2.2-.9,1.7.3,2.2.9.8,1.4.8,2.4h0c0,1.1-.3,1.9-.8,2.5s-1.3.9-2.2.9-1.7-.3-2.3-.9-.8-1.4-.8-2.4h0c0,0,0,0,0,0ZM516.5,103.6c0,.6,0,1.1.3,1.4s.5.5,1,.5.8-.2,1-.5.3-.8.3-1.4h0c0-.7,0-1.1-.3-1.5s-.5-.5-1-.5-.8.2-1,.5c-.2.4-.3.8-.3,1.4h0Z"/>
    <path class="cls-18" d="M521.5,105.7l.8-.2v-4l-.9-.2v-1.1h2.6v.9c.3-.3.6-.6.9-.8.3-.2.7-.3,1.1-.3.7,0,1.2.2,1.5.6.4.4.5,1.1.5,1.9v2.8l.8.2v1h-3.3v-1l.7-.2v-2.8c0-.4,0-.7-.3-.9-.2-.2-.4-.3-.8-.3s-.4,0-.6,0c-.2,0-.3.2-.5.4v3.5l.7.2v1h-3.3v-.8h.1Z"/>
  </g>
  <g class="cls-21">
    <path class="cls-18" d="M184.3,59.3v-1.1h3.6v1.1l-.9.2v6.2l.9.2v1h-3.6v-1l.9-.2v-6.2l-.9-.2Z"/>
    <path class="cls-18" d="M188.6,65.9l.8-.2v-4l-.9-.2v-1.1h2.6v.9c.3-.3.6-.6.9-.8s.7-.3,1.1-.3c.7,0,1.2.2,1.5.6s.5,1.1.5,1.9v2.8l.8.2v1h-3.3v-1l.7-.2v-2.8c0-.4-.1-.7-.3-.9s-.4-.3-.8-.3-.4,0-.6,0c-.2,0-.3.2-.5.4v3.5l.7.2v1h-3.3v-.8h0Z"/>
    <path class="cls-18" d="M199,58.9v1.6h1.1v1.2h-1.1v3.3c0,.3.1.4.2.5s.2.2.4.2h.3c.1,0,.2,0,.3,0v1.3c0,0-.3,0-.5,0h-.6c-.6,0-1.1-.2-1.4-.5-.3-.3-.5-.9-.5-1.6v-3.3h-1v-1.2h1v-1.6h1.8Z"/>
    <path class="cls-18" d="M204.1,67.1c-.9,0-1.7-.3-2.2-.9-.6-.6-.8-1.4-.8-2.3v-.2c0-1,.3-1.8.8-2.4.5-.6,1.2-.9,2.1-.9s1.5.3,2,.8.7,1.2.7,2.1v1h-3.9c0,.4.2.8.4,1.1.3.3.6.4,1,.4s.7,0,1,0,.5-.2.8-.4l.5,1.1c-.3.2-.6.4-1,.5s-.9.2-1.4.2ZM203.9,61.7c-.3,0-.6,0-.8.4-.2.2-.3.6-.3,1h2.1c0-.5-.1-.8-.3-1,0-.3-.3-.4-.7-.4Z"/>
    <path class="cls-18" d="M207.3,58.7v-1.1h2.7v8.1l.8.2v1h-3.4v-1l.8-.2v-6.9h-.9Z"/>
    <path class="cls-18" d="M221,61.1h-1.3l-.2-1.2c-.2,0-.4-.2-.7-.3s-.6,0-.9,0c-.5,0-.8,0-1.1.3s-.4.5-.4.8.1.5.4.7c.3.2.7.4,1.4.6,1,.3,1.7.6,2.2,1.1.5.4.7,1,.7,1.7s-.3,1.3-.9,1.8c-.6.4-1.4.6-2.3.6s-1.3,0-1.9-.3-1-.5-1.4-.9v-1.8h1.4l.2,1.2c.2,0,.4.3.7.4s.6,0,1,0,.8,0,1.1-.3.4-.5.4-.8-.1-.6-.4-.8c-.2-.2-.7-.4-1.2-.6-1-.3-1.8-.7-2.3-1.1-.5-.4-.8-1-.8-1.7s.3-1.3.9-1.7,1.3-.7,2.3-.7,1.3,0,1.8.3,1,.5,1.4.8v1.9h0Z"/>
    <path class="cls-18" d="M229,66c-.3.3-.7.5-1.2.8-.5.2-1.2.3-2.1.3s-2.1-.4-2.9-1.2-1.1-1.8-1.1-3.1v-.3c0-1.3.4-2.4,1.1-3.2.7-.8,1.7-1.2,2.8-1.2s1.3,0,1.9.3c.6.2,1,.5,1.4.9v1.8h-1.3l-.2-1.2c-.2,0-.4-.2-.6-.3-.3,0-.6,0-.9,0-.8,0-1.4.3-1.8.8-.4.6-.6,1.3-.6,2.2v.3c0,.9.2,1.6.6,2.1.4.5,1,.8,1.8.8s.6,0,.9,0,.4,0,.5-.2v-1.4h-1.2v-1.3h3v3.3h0Z"/>
    <path class="cls-18" d="M229.7,65.9h.7c0,0,2.3-3.3,2.3-3.3l-2.2-3.1h-.7v-1.2h3.3v1.1h-.7c0,0,1.3,2.2,1.3,2.2l1.4-2.1h-.7v-1.2h3.4v1.1h-.7c0,0-2.2,3.2-2.2,3.2l2.3,3.2h.8v1.1h-3.4v-1h.7c0,0-1.4-2.3-1.4-2.3l-1.4,2.2h.7v1.1h-3.4v-1h-.1Z"/>
    <path class="cls-18" d="M247.1,63.2h-2.9v2.5h2.8v-1h1.4v2.3h-6.9v-1l.9-.2v-6.2l-.9-.2v-1.1h6.8v2.4h-1.3v-1h-2.9v2.2h2.9v1.3h.1Z"/>
  </g>
  <g class="cls-21">
    <path class="cls-18" d="M249.3,65.9l.8-.2v-4l-.9-.2v-1.1h2.6v.9c.3-.3.6-.6.9-.8s.7-.3,1.1-.3c.7,0,1.2.2,1.5.6s.5,1.1.5,1.9v2.8l.8.2v1h-3.3v-1l.7-.2v-2.8c0-.4-.1-.7-.3-.9s-.4-.3-.8-.3-.4,0-.6,0c-.2,0-.3.2-.5.4v3.5l.7.2v1h-3.3v-.8h0Z"/>
  </g>
  <g class="cls-21">
    <path class="cls-18" d="M260.1,65.8c.3,0,.6,0,.7-.3.2-.2.3-.4.3-.7h1.6c0,.7-.2,1.2-.7,1.6s-1.1.7-1.9.7-1.7-.3-2.2-.9-.8-1.4-.8-2.3v-.2c0-1,.3-1.7.8-2.3s1.3-.9,2.3-.9,1,0,1.4.2c.4.2.8.4,1,.7v1.7h-1.4l-.3-1c-.1,0-.2,0-.3-.2s-.3,0-.4,0c-.5,0-.8.2-1,.5-.2.4-.3.8-.3,1.4v.2c0,.6.1,1,.3,1.4,0,.3.4.5.9.5Z"/>
    <path class="cls-18" d="M263.3,58.7v-1.1h2.7v8.1l.8.2v1h-3.4v-1l.8-.2v-6.9h-.9Z"/>
  </g>
  <g class="cls-21">
    <path class="cls-18" d="M271.5,67c0,0-.1-.2-.1-.3s-.1-.2-.1-.3c-.2.2-.5.4-.8.6s-.6.2-1,.2c-.6,0-1.1-.2-1.5-.5s-.6-.8-.6-1.4.2-1.1.7-1.4c.5-.3,1.2-.5,2.1-.5h.9v-.6c0-.3-.1-.6-.3-.7-.2-.2-.4-.3-.8-.3s-.4,0-.5,0c-.2,0-.3,0-.4.2v.7h-1.4v-1.4c.3-.2.7-.4,1.1-.5s.9-.2,1.3-.2c.8,0,1.5.2,2,.6.5.4.8,1,.8,1.7v3.3h.5v1.1h-1.9v-.4ZM270,65.8c.3,0,.5,0,.7-.2s.4-.3.5-.4v-1h-.9c-.4,0-.7,0-.8.3s-.3.4-.3.6.1.4.2.5c.2.2.4.2.6.2Z"/>
  </g>
  <g class="cls-21">
    <path class="cls-18" d="M276.8,61.6h-.6c0,0,.9,3,.9,3v.6h.1v-.6c.1,0,.9-2.9.9-2.9h-.6v-1.2h2.9v1.1h-.6c0,0-1.8,5.4-1.8,5.4h-1.7l-1.9-5.3h-.6v-1.2h2.9v1.1h.1Z"/>
  </g>
  <g class="cls-21">
    <path class="cls-18" d="M284,67.1c-.9,0-1.7-.3-2.2-.9-.6-.6-.8-1.4-.8-2.3v-.2c0-1,.3-1.8.8-2.4.5-.6,1.2-.9,2.1-.9s1.5.3,2,.8.7,1.2.7,2.1v1h-3.9c0,.4.2.8.4,1.1.3.3.6.4,1,.4s.7,0,1,0,.5-.2.8-.4l.5,1.1c-.3.2-.6.4-1,.5s-.8.2-1.4.2ZM283.9,61.7c-.3,0-.6,0-.8.4-.2.2-.3.6-.3,1h2.1c0-.5-.1-.8-.3-1-.1-.3-.4-.4-.7-.4Z"/>
  </g>
  <g class="cls-21">
    <path class="cls-16" d="M202.2,102.7h.6c0,0,2.6-7.7,2.6-7.7h1.8l2.6,7.6h.6v1.1h-3v-1h.6c0,0-.4-1.3-.4-1.3h-2.8l-.4,1.2h.6v1.1h-3v-1h.2ZM205.4,100.1h2l-1-3.1h0l-1,3.1Z"/>
    <path class="cls-16" d="M211,98.4v-1.1h2.5v.8c.3-.3.5-.5.8-.6.3-.2.6-.2.9-.2.8,0,1.4.3,1.9.9.4.6.7,1.4.7,2.5h0c0,1.1-.2,1.8-.7,2.4s-1.1.9-1.9.9-.6,0-.9-.2c-.3,0-.5-.3-.7-.6v1.9l.8.2v1.1h-3.4v-1.1l.8-.2v-6.5l-.8-.2ZM216,100.6c0-.6-.1-1.1-.3-1.5s-.5-.6-.9-.6-.5,0-.7.2-.3.3-.4.5v2.8c.1.2.3.3.4.4.2,0,.4,0,.7,0s.7-.2.9-.5.3-.8.3-1.3h0Z"/>
  </g>
  <g class="cls-21">
    <path class="cls-16" d="M218.4,98.4v-1.1h2.5v.8c.3-.3.5-.5.8-.6.3-.2.6-.2.9-.2.8,0,1.4.3,1.9.9.4.6.7,1.4.7,2.5h0c0,1.1-.2,1.8-.7,2.4s-1.1.9-1.9.9-.6,0-.9-.2c-.3,0-.5-.3-.7-.6v1.9l.8.2v1.1h-3.4v-1.1l.8-.2v-6.5l-.8-.2ZM223.4,100.6c0-.6-.1-1.1-.3-1.5s-.5-.6-.9-.6-.5,0-.7.2-.3.3-.4.5v2.8c.1.2.3.3.4.4.2,0,.4,0,.7,0s.7-.2.9-.5.3-.8.3-1.3h0Z"/>
  </g>
  <g class="cls-21">
    <path class="cls-16" d="M225.6,95.5v-1.1h2.7v8.1l.8.2v1h-3.4v-1l.8-.2v-6.9h-.9Z"/>
    <path class="cls-16" d="M229.7,102.7l.8-.2v-4l-.9-.2v-1.1h2.7v5.2l.8.2v1h-3.4v-.9h0ZM232.3,95.8h-1.7v-1.3h1.7v1.3Z"/>
    <path class="cls-16" d="M236.7,102.6c.3,0,.6,0,.7-.3.2-.2.3-.4.3-.7h1.6c0,.7-.2,1.2-.7,1.6s-1.1.7-1.9.7-1.7-.3-2.2-.9-.8-1.4-.8-2.3v-.2c0-1,.3-1.7.8-2.3.5-.6,1.3-.9,2.3-.9s1,0,1.4.2c.4.2.8.4,1,.7v1.7h-1.4l-.3-1c-.1,0-.2,0-.3-.2s-.3,0-.4,0c-.5,0-.8.2-1,.5-.2.4-.3.8-.3,1.4v.2c0,.6.1,1,.3,1.4,0,.3.4.5.9.5Z"/>
  </g>
  <g class="cls-21">
    <path class="cls-16" d="M244.2,103.8c0,0-.1-.2-.1-.3s-.1-.2-.1-.3c-.2.2-.5.4-.8.6s-.6.2-1,.2c-.6,0-1.1-.2-1.5-.5s-.6-.8-.6-1.4.2-1.1.7-1.4,1.2-.5,2.1-.5h.9v-.6c0-.3-.1-.6-.3-.7-.2-.2-.4-.3-.8-.3s-.4,0-.5,0c-.2,0-.3,0-.4.2v.7h-1.4v-1.4c.3-.2.7-.4,1.1-.5.4,0,.9-.2,1.3-.2.8,0,1.5.2,2,.6s.8,1,.8,1.7v3.3h.5v1.1h-1.9v-.4ZM242.7,102.6c.3,0,.5,0,.7-.2s.4-.3.5-.4v-1h-.9c-.4,0-.7,0-.8.3s-.3.4-.3.6.1.4.2.5c.2.2.4.2.6.2Z"/>
  </g>
  <g class="cls-21">
    <path class="cls-16" d="M249,95.7v1.6h1.1v1.2h-1.1v3.3c0,.3.1.4.2.5s.2.2.4.2h.3c.1,0,.2,0,.3,0v1.3c0,0-.3,0-.5,0h-.6c-.6,0-1.1-.2-1.4-.5-.3-.3-.5-.9-.5-1.6v-3.3h-1v-1.2h1v-1.6h1.8Z"/>
    <path class="cls-16" d="M250.9,102.7l.8-.2v-4l-.9-.2v-1.1h2.7v5.2l.8.2v1h-3.4v-.9h0ZM253.5,95.8h-1.7v-1.3h1.7v1.3Z"/>
    <path class="cls-16" d="M254.9,100.5c0-1,.3-1.8.8-2.4.5-.6,1.3-.9,2.2-.9s1.7.3,2.2.9.8,1.4.8,2.4h0c0,1.1-.3,1.9-.8,2.5s-1.3.9-2.2.9-1.7-.3-2.3-.9c-.5-.6-.8-1.4-.8-2.4h0c0,0,.1,0,.1,0ZM256.6,100.6c0,.6.1,1.1.3,1.4.2.4.5.5,1,.5s.8-.2,1-.5c.2-.4.3-.8.3-1.4h0c0-.7-.1-1.1-.3-1.5-.2-.4-.5-.5-1-.5s-.8.2-1,.5c-.2.4-.3.8-.3,1.4h0Z"/>
    <path class="cls-16" d="M261.7,102.7l.8-.2v-4l-.9-.2v-1.1h2.6v.9c.3-.3.6-.6.9-.8.3-.2.7-.3,1.1-.3.7,0,1.2.2,1.5.6s.5,1.1.5,1.9v2.8l.8.2v1h-3.3v-1l.7-.2v-2.8c0-.4-.1-.7-.3-.9-.2-.2-.4-.3-.8-.3s-.4,0-.6,0-.3.2-.5.4v3.5l.7.2v1h-3.3v-.8h0Z"/>
  </g>
  <g class="cls-21">
    <path class="cls-16" d="M176.4,147.2h.6c0-.1,2.6-7.7,2.6-7.7h1.8l2.6,7.6h.6v1.1h-3v-1h.6c0-.1-.4-1.3-.4-1.3h-2.8l-.4,1.2h.6v1.1h-3v-1h.2ZM179.6,144.6h2l-1-3.1h0l-1,3.1Z"/>
    <path class="cls-16" d="M185.2,142.8v-1.1h2.5v.8c.3-.3.5-.5.8-.6.3-.2.6-.2.9-.2.8,0,1.4.3,1.9.9.4.6.7,1.4.7,2.5h0c0,1.1-.2,1.8-.7,2.4s-1.1.9-1.9.9-.6-.1-.9-.2c-.3-.1-.5-.3-.7-.6v1.9l.8.2v1.1h-3.4v-1.1l.8-.2v-6.5l-.8-.2ZM190.2,145.1c0-.6-.1-1.1-.3-1.5s-.5-.6-.9-.6-.5.1-.7.2c-.2.1-.3.3-.4.5v2.8c.1.2.3.3.4.4.2.1.4.1.7.1s.7-.2.9-.5.3-.8.3-1.3h0Z"/>
  </g>
  <g class="cls-21">
    <path class="cls-16" d="M192.6,142.8v-1.1h2.5v.8c.3-.3.5-.5.8-.6.3-.2.6-.2.9-.2.8,0,1.4.3,1.9.9.4.6.7,1.4.7,2.5h0c0,1.1-.2,1.8-.7,2.4s-1.1.9-1.9.9-.6-.1-.9-.2c-.3-.1-.5-.3-.7-.6v1.9l.8.2v1.1h-3.4v-1.1l.8-.2v-6.5l-.8-.2ZM197.6,145.1c0-.6-.1-1.1-.3-1.5s-.5-.6-.9-.6-.5.1-.7.2c-.2.1-.3.3-.4.5v2.8c.1.2.3.3.4.4.2.1.4.1.7.1s.7-.2.9-.5.3-.8.3-1.3h0Z"/>
  </g>
  <g class="cls-21">
    <path class="cls-16" d="M199.9,140v-1.1h2.7v8.1l.8.2v1h-3.4v-1l.8-.2v-6.9h-.9Z"/>
    <path class="cls-16" d="M203.9,147.2l.8-.2v-4l-.9-.2v-1.1h2.7v5.2l.8.2v1h-3.4v-.9h0ZM206.5,140.2h-1.7v-1.3h1.7v1.3Z"/>
    <path class="cls-16" d="M210.9,147c.3,0,.6-.1.7-.3.2-.2.3-.4.3-.7h1.6c0,.7-.2,1.2-.7,1.6-.5.4-1.1.7-1.9.7s-1.7-.3-2.2-.9c-.5-.6-.8-1.4-.8-2.3v-.2c0-1,.3-1.7.8-2.3s1.3-.9,2.3-.9,1,.1,1.4.2c.4.2.8.4,1,.7v1.7h-1.4l-.3-1c-.1-.1-.2-.1-.3-.2s-.3-.1-.4-.1c-.5,0-.8.2-1,.5-.2.4-.3.8-.3,1.4v.2c0,.6.1,1,.3,1.4.1.4.4.5.9.5Z"/>
  </g>
  <g class="cls-21">
    <path class="cls-16" d="M218.5,148.2c0-.1-.1-.2-.1-.3s-.1-.2-.1-.3c-.2.2-.5.4-.8.6s-.6.2-1,.2c-.6,0-1.1-.2-1.5-.5s-.6-.8-.6-1.4.2-1.1.7-1.4c.5-.3,1.2-.5,2.1-.5h.9v-.6c0-.3-.1-.6-.3-.7-.2-.2-.4-.3-.8-.3s-.4,0-.5.1c-.2,0-.3.1-.4.2v.7h-1.4v-1.4c.3-.2.7-.4,1.1-.5.4-.1.9-.2,1.3-.2.8,0,1.5.2,2,.6.5.4.8,1,.8,1.7v3.3h.5v1.1h-1.9v-.4ZM216.9,147.1c.3,0,.5-.1.7-.2.2-.1.4-.3.5-.4v-1h-.9c-.4,0-.7.1-.8.3s-.3.4-.3.6.1.4.2.5c.2,0,.4.2.6.2Z"/>
  </g>
  <g class="cls-21">
    <path class="cls-16" d="M223.2,140.2v1.6h1.1v1.2h-1.1v3.3c0,.3.1.4.2.5s.2.2.4.2h.3c.1,0,.2,0,.3-.1v1.3c0,.1-.3.1-.5.1h-.6c-.6,0-1.1-.2-1.4-.5-.3-.3-.5-.9-.5-1.6v-3.2h-1v-1.2h1v-1.6h1.8Z"/>
    <path class="cls-16" d="M225.1,147.2l.8-.2v-4l-.9-.2v-1.1h2.7v5.2l.8.2v1h-3.4v-.9h0ZM227.7,140.2h-1.7v-1.3h1.7v1.3Z"/>
    <path class="cls-16" d="M229.1,144.9c0-1,.3-1.8.8-2.4.5-.6,1.3-.9,2.2-.9s1.7.3,2.2.9c.5.6.8,1.4.8,2.4h0c0,1.1-.3,1.9-.8,2.5-.5.6-1.3.9-2.2.9s-1.7-.3-2.3-.9c-.5-.6-.8-1.4-.8-2.4h0c0-.1.1-.1.1-.1ZM230.8,145.1c0,.6.1,1.1.3,1.4.2.4.5.5,1,.5s.8-.2,1-.5c.2-.4.3-.8.3-1.4h0c0-.7-.1-1.1-.3-1.5s-.5-.5-1-.5-.8.2-1,.5c-.2.4-.3.8-.3,1.4h0Z"/>
    <path class="cls-16" d="M235.9,147.2l.8-.2v-4l-.9-.2v-1.1h2.6v.9c.3-.3.6-.6.9-.8s.7-.3,1.1-.3c.7,0,1.2.2,1.5.6s.5,1.1.5,1.9v2.8l.8.2v1h-3.3v-1l.7-.2v-2.8c0-.4-.1-.7-.3-.9s-.4-.3-.8-.3-.4,0-.6.1c-.2.1-.3.2-.5.4v3.5l.7.2v1h-3.3v-.8h0Z"/>
    <path class="cls-16" d="M246.5,140v-1.1h2.7v8.1l.8.2v1h-3.4v-1l.8-.2v-6.9h-.9Z"/>
    <path class="cls-16" d="M250.6,147.2l.8-.2v-4l-.9-.2v-1.1h2.7v5.2l.8.2v1h-3.4v-.9h0ZM253.2,140.2h-1.7v-1.3h1.7v1.3Z"/>
    <path class="cls-16" d="M260.8,145.2c0,1-.2,1.7-.6,2.3s-1.1.9-1.9.9-.7-.1-1-.2c-.3-.2-.5-.4-.7-.7v.8h-1.6v-8.1l-.9-.2v-1.1h2.7v3.5c.2-.3.4-.5.7-.6.3-.1.6-.2.9-.2.8,0,1.4.3,1.9.9.4.6.6,1.4.6,2.5v.2h-.1ZM259.1,145.1c0-.6-.1-1.1-.3-1.5-.2-.4-.5-.6-.9-.6s-.5.1-.7.2c-.2.1-.3.3-.4.5v2.7c.1.2.3.4.4.5s.4.2.7.2c.5,0,.8-.2.9-.5.2-.3.3-.8.3-1.3v-.2Z"/>
  </g>
  <g class="cls-21">
    <path class="cls-16" d="M261.8,147.2l.8-.2v-4l-.9-.2v-1.1h2.6v.9c.3-.3.4-.6.7-.8.2-.2.5-.3.8-.3h.3c.1,0,.2,0,.3.1l-.2,1.6h-.7c-.3,0-.5,0-.6.1s-.3.2-.4.4v3.1l.8.2v1h-3.4v-.8h0Z"/>
  </g>
  <g class="cls-21">
    <path class="cls-16" d="M270.8,148.2c0-.1-.1-.2-.1-.3s-.1-.2-.1-.3c-.2.2-.5.4-.8.6s-.6.2-1,.2c-.6,0-1.1-.2-1.5-.5s-.6-.8-.6-1.4.2-1.1.7-1.4c.5-.3,1.2-.5,2.1-.5h.9v-.6c0-.3-.1-.6-.3-.7-.2-.2-.4-.3-.8-.3s-.4,0-.5.1c-.2,0-.3.1-.4.2v.7h-1.4v-1.4c.3-.2.7-.4,1.1-.5s.9-.2,1.3-.2c.8,0,1.5.2,2,.6.5.4.8,1,.8,1.7v3.3h.5v1.1h-1.9v-.4ZM269.3,147.1c.3,0,.5-.1.7-.2.2-.1.4-.3.5-.4v-1h-.9c-.4,0-.7.1-.8.3s-.3.4-.3.6.1.4.2.5c0,0,.3.2.6.2Z"/>
    <path class="cls-16" d="M273.5,147.2l.8-.2v-4l-.9-.2v-1.1h2.6v.9c.3-.3.4-.6.7-.8.2-.2.5-.3.8-.3h.3c.1,0,.2,0,.3.1l-.2,1.6h-.7c-.3,0-.5,0-.6.1-.2.1-.3.2-.4.4v3.1l.8.2v1h-3.4v-.8h0Z"/>
    <path class="cls-16" d="M278.5,147.2l.8-.2v-4l-.9-.2v-1.1h2.7v5.2l.8.2v1h-3.4v-.9ZM281.1,140.2h-1.7v-1.3h1.7v1.3Z"/>
    <path class="cls-16" d="M285.6,148.4c-.9,0-1.7-.3-2.2-.9-.6-.6-.8-1.4-.8-2.3v-.2c0-1,.3-1.8.8-2.4.5-.6,1.2-.9,2.1-.9s1.5.3,2,.8.7,1.2.7,2.1v1h-3.9c0,.4.2.8.4,1.1.3.3.6.4,1,.4s.7,0,1-.1.5-.2.8-.4l.5,1.1c-.3.2-.6.4-1,.5s-.9.2-1.4.2ZM285.4,143c-.3,0-.6.1-.8.4-.2.2-.3.6-.3,1h2.1v-.2c0-.4-.1-.7-.3-.9-.1-.2-.3-.3-.7-.3Z"/>
    <path class="cls-16" d="M294.3,144h-1.2l-.2-.8c-.1-.1-.3-.2-.5-.2-.2-.1-.4-.1-.6-.1-.3,0-.6.1-.7.2-.2.1-.3.3-.3.5s.1.4.3.5c.2.1.5.2,1,.3.8.2,1.4.4,1.8.7s.6.7.6,1.3-.3,1.1-.8,1.4c-.5.4-1.2.6-2,.6s-1-.1-1.4-.2-.8-.4-1.1-.6v-1.5h1.2l.2.8c.1.1.2.2.4.2s.4.1.6.1c.4,0,.6-.1.8-.2s.3-.3.3-.5-.1-.4-.3-.5c-.2-.1-.5-.3-1-.4-.8-.2-1.3-.4-1.7-.7-.4-.3-.6-.7-.6-1.2s.2-1,.7-1.4,1.1-.6,1.9-.6,1,.1,1.4.2c.4.1.8.3,1.1.5v1.6Z"/>
  </g>
  <circle class="cls-12" cx="285.4" cy="228.9" r="7.8"/>
  <line class="cls-12" x1="290.9" y1="234.4" x2="279.9" y2="223.4"/>
  <circle class="cls-12" cx="107.3" cy="101.2" r="7.8"/>
  <line class="cls-12" x1="112.8" y1="106.7" x2="101.8" y2="95.7"/>
  <circle class="cls-12" cx="361.5" cy="101.5" r="7.8"/>
  <line class="cls-12" x1="367" y1="107" x2="356" y2="96"/>
  <circle class="cls-12" cx="252.2" cy="228.9" r="7.8"/>
  <line class="cls-12" x1="257.7" y1="234.4" x2="246.7" y2="223.4"/>
  <circle class="cls-12" cx="219" cy="228.9" r="7.8"/>
  <line class="cls-12" x1="224.5" y1="234.4" x2="213.5" y2="223.4"/>
  <circle class="cls-12" cx="185.8" cy="228.9" r="7.8"/>
  <line class="cls-12" x1="191.3" y1="234.4" x2="180.3" y2="223.4"/>
  <line class="cls-10" x1="381.1" y1="102.2" x2="412.4" y2="102.2"/>
  <polygon class="cls-16" points="387.8 110.3 389.1 108.9 381.9 102.2 389.1 95.4 387.8 94 379 102.2 387.8 110.3"/>
  <polygon class="cls-16" points="79.2 93 77.9 94.4 85.1 101.2 77.9 107.9 79.2 109.3 88 101.2 79.2 93"/>
  <line class="cls-10" x1="495.4" y1="129.8" x2="495.4" y2="150.6"/>
  <polygon class="cls-16" points="487.2 136.4 488.7 137.8 495.4 130.6 502.1 137.8 503.6 136.4 495.4 127.7 487.2 136.4"/>
  <line class="cls-10" x1="152.3" y1="337.3" x2="131.5" y2="337.3"/>
  <polygon class="cls-16" points="145.7 329.2 144.3 330.6 151.6 337.3 144.3 344 145.7 345.5 154.5 337.3 145.7 329.2"/>
  <path class="cls-9" d="M169.2,276.7h132.6c2.8,0,5,2.2,5,5v20.6c0,2.8-2.2,5-5,5h-132.6c-2.8,0-5-2.2-5-5v-20.6c0-2.7,2.3-5,5-5Z"/>
  <g class="cls-21">
    <path class="cls-18" d="M192.6,290.2h-1.3l-.2-1.2c-.2-.2-.4-.3-.6-.4-.3-.1-.6-.1-.9-.1-.8,0-1.3.3-1.7.8s-.6,1.3-.6,2.2v.3c0,.9.2,1.6.6,2.2s1,.8,1.7.8.7,0,.9-.1c.3-.1.5-.2.7-.4l.2-1.2h1.3v1.7c-.4.4-.8.7-1.3,1s-1.2.4-1.8.4c-1.2,0-2.1-.4-2.9-1.2s-1.1-1.8-1.1-3.1v-.3c0-1.3.4-2.3,1.1-3.1.7-.8,1.7-1.2,2.9-1.2s1.3.1,1.8.4c.5.2,1,.6,1.3,1v1.5h0Z"/>
    <path class="cls-18" d="M193.4,292.6c0-1,.3-1.8.8-2.4s1.3-.9,2.2-.9,1.7.3,2.2.9.8,1.4.8,2.4h0c0,1.1-.3,1.9-.8,2.5s-1.3.9-2.2.9-1.7-.3-2.3-.9c-.5-.6-.8-1.4-.8-2.4h0c0-.1.1-.1.1-.1ZM195.2,292.8c0,.6.1,1.1.3,1.4.2.4.5.5,1,.5s.8-.2,1-.5c.2-.4.3-.8.3-1.4h0c0-.7-.1-1.1-.3-1.5s-.5-.5-1-.5-.8.2-1,.5c-.2.4-.3.8-.3,1.4h0Z"/>
    <path class="cls-18" d="M200.2,294.9l.8-.2v-4l-.9-.2v-1.1h2.6v.9c.3-.3.6-.6.9-.8.3-.2.7-.3,1.1-.3.7,0,1.2.2,1.5.6s.5,1.1.5,1.9v2.8l.8.2v1h-3.3v-1l.7-.2v-2.8c0-.4-.1-.7-.3-.9-.2-.2-.4-.3-.8-.3s-.4,0-.6.1c-.2.1-.3.2-.5.4v3.5l.7.2v1h-3.3v-.8h0Z"/>
    <path class="cls-18" d="M210.6,287.9v1.6h1.1v1.2h-1.1v3.3c0,.3.1.4.2.5s.2.2.4.2h.3c.1,0,.2,0,.3-.1v1.3c0,.1-.3.1-.5.1h-.6c-.6,0-1.1-.2-1.4-.5-.3-.3-.5-.9-.5-1.6v-3.3h-1v-1.2h1v-1.6h1.8Z"/>
    <path class="cls-18" d="M216.7,295.9c0-.1-.1-.2-.1-.3s-.1-.2-.1-.3c-.2.2-.5.4-.8.6s-.6.2-1,.2c-.6,0-1.1-.2-1.5-.5s-.6-.8-.6-1.4.2-1.1.7-1.4,1.2-.5,2.1-.5h.9v-.6c0-.3-.1-.6-.3-.7-.2-.2-.4-.3-.8-.3s-.4,0-.5.1-.3.1-.4.2v.7h-1.3v-1.4c.3-.2.7-.4,1.1-.5.4-.1.9-.2,1.3-.2.8,0,1.5.2,2,.6s.8,1,.8,1.7v3.3h.5v1.1h-2v-.4ZM215.2,294.8c.3,0,.5-.1.7-.2s.4-.3.5-.4v-1h-.9c-.4,0-.7.1-.8.3-.2.2-.3.4-.3.6s.1.4.2.5c.2.1.4.2.6.2Z"/>
    <path class="cls-18" d="M219.3,294.9l.8-.2v-4l-.9-.2v-1.1h2.7v5.2l.8.2v1h-3.4v-.9h0ZM221.9,287.9h-1.7v-1.3h1.7v1.3Z"/>
  </g>
  <g class="cls-21">
    <path class="cls-18" d="M223.2,294.9l.8-.2v-4l-.9-.2v-1.1h2.6v.9c.3-.3.6-.6.9-.8.3-.2.7-.3,1.1-.3.7,0,1.2.2,1.5.6s.5,1.1.5,1.9v2.8l.8.2v1h-3.3v-1l.7-.2v-2.8c0-.4-.1-.7-.3-.9-.2-.2-.4-.3-.8-.3s-.4,0-.6.1c-.2.1-.3.2-.5.4v3.5l.7.2v1h-3.3v-.8h0Z"/>
  </g>
  <g class="cls-21">
    <path class="cls-18" d="M234.1,296.1c-.9,0-1.7-.3-2.2-.9-.6-.6-.8-1.4-.8-2.3v-.2c0-1,.3-1.8.8-2.4s1.2-.9,2.1-.9,1.5.3,2,.8.7,1.2.7,2.1v1h-3.9c0,.4.2.8.4,1.1.3.3.6.4,1,.4s.7,0,1-.1.5-.2.8-.4l.5,1.1c-.3.2-.6.4-1,.5s-.9.2-1.4.2ZM233.9,290.7c-.3,0-.6.1-.8.4-.2.2-.3.6-.3,1h2.1v-.2c0-.4-.1-.7-.3-.9,0-.2-.3-.3-.7-.3Z"/>
    <path class="cls-18" d="M237.6,294.9l.8-.2v-4l-.9-.2v-1.1h2.6v.9c.3-.3.4-.6.7-.8.2-.2.5-.3.8-.3h.3c.1,0,.2,0,.3.1l-.2,1.7h-.7c-.3,0-.5,0-.6.1-.2.1-.3.2-.4.4v3.1l.8.2v1h-3.4v-.9h-.1Z"/>
    <path class="cls-18" d="M251.2,292.1h-2.9v2.5h2.8v-1h1.4v2.4h-6.9v-1l.9-.2v-6.2l-.9-.2v-1.1h6.8v2.4h-1.3v-1h-2.9v2.2h2.9v1.2h.1Z"/>
  </g>
  <g class="cls-21">
    <path class="cls-18" d="M253.4,294.9l.8-.2v-4l-.9-.2v-1.1h2.6v.9c.3-.3.6-.6.9-.8.3-.2.7-.3,1.1-.3.7,0,1.2.2,1.5.6s.5,1.1.5,1.9v2.8l.8.2v1h-3.3v-1l.7-.2v-2.8c0-.4-.1-.7-.3-.9s-.4-.3-.8-.3-.4,0-.6.1-.3.2-.5.4v3.5l.7.2v1h-3.3v-.8h0Z"/>
  </g>
  <g class="cls-21">
    <path class="cls-18" d="M261.3,292.8c0-1,.2-1.8.7-2.5.4-.6,1.1-.9,1.9-.9s.7.1,1,.2c.3.2.5.4.7.7v-.8h1.6v6.3c0,.9-.3,1.5-.8,2s-1.3.8-2.2.8-.7,0-1-.1-.7-.2-1-.4l.3-1.2c.3.1.6.2.8.3.3.1.6.1.9.1s.7-.1,1-.4c.2-.3.3-.6.3-1.1v-.4c-.2.2-.4.4-.7.6-.3.1-.6.2-.9.2-.8,0-1.4-.3-1.9-.9s-.7-1.4-.7-2.3v-.2h0ZM263,292.9c0,.6.1,1,.3,1.3.2.3.5.5.9.5s.5,0,.7-.1.3-.2.4-.4v-2.8c-.1-.2-.3-.3-.4-.5-.2-.1-.4-.2-.7-.2s-.7.2-.9.6c-.2.4-.3.9-.3,1.5h0Z"/>
    <path class="cls-18" d="M268.1,294.9l.8-.2v-4l-.9-.2v-1.1h2.7v5.2l.8.2v1h-3.4v-.9ZM270.7,287.9h-1.7v-1.3h1.7v1.3Z"/>
  </g>
  <g class="cls-21">
    <path class="cls-18" d="M272,294.9l.8-.2v-4l-.9-.2v-1.1h2.6v.9c.3-.3.6-.6.9-.8.3-.2.7-.3,1.1-.3.7,0,1.2.2,1.5.6.4.4.5,1.1.5,1.9v2.8l.8.2v1h-3.3v-1l.7-.2v-2.8c0-.4-.1-.7-.3-.9s-.4-.3-.8-.3-.4,0-.6.1-.3.2-.5.4v3.5l.7.2v1h-3.2v-.8Z"/>
  </g>
  <g class="cls-21">
    <path class="cls-18" d="M282.9,296.1c-.9,0-1.7-.3-2.2-.9-.6-.6-.8-1.4-.8-2.3v-.2c0-1,.3-1.8.8-2.4s1.2-.9,2.1-.9,1.5.3,2,.8.7,1.2.7,2.1v1h-3.9c0,.4.2.8.4,1.1.3.3.6.4,1,.4s.7,0,1-.1.5-.2.8-.4l.5,1.1c-.3.2-.6.4-1,.5s-.8.2-1.4.2ZM282.8,290.7c-.3,0-.6.1-.8.4-.2.2-.3.6-.3,1h2.1v-.2c0-.4-.1-.7-.3-.9-.1-.2-.4-.3-.7-.3Z"/>
  </g>
  <path class="cls-5" d="M169.2,322.4h132.6c2.8,0,5,2.2,5,5v20.6c0,2.8-2.2,5-5,5h-132.6c-2.8,0-5-2.2-5-5v-20.6c0-2.7,2.3-5,5-5Z"/>
  <g class="cls-21">
    <path class="cls-18" d="M192.1,337.3c0,1.3-.4,2.3-1.1,3.2-.7.8-1.7,1.3-2.9,1.3s-2.1-.4-2.8-1.3c-.7-.8-1.1-1.9-1.1-3.2h0c0-1.4.4-2.4,1.1-3.3.7-.8,1.7-1.3,2.8-1.3s2.1.4,2.9,1.3c.7.8,1.1,1.9,1.1,3.2h0ZM190.3,337.2c0-.9-.2-1.6-.6-2.2s-.9-.8-1.7-.8-1.3.3-1.6.8c-.4.6-.5,1.3-.5,2.2h0c0,1,.2,1.8.5,2.3.4.6.9.8,1.6.8s1.3-.3,1.7-.8c.4-.6.6-1.3.6-2.2h0Z"/>
    <path class="cls-18" d="M192.7,336.2v-1.1h2.5v.8c.3-.3.5-.5.8-.6.3-.2.6-.2.9-.2.8,0,1.4.3,1.9.9.4.6.7,1.4.7,2.5h0c0,1.1-.2,1.8-.7,2.4s-1.1.9-1.9.9-.6-.1-.9-.2c-.3-.1-.5-.3-.7-.6v1.9l.8.2v1.1h-3.4v-1.2l.8-.2v-6.5h-.8ZM197.7,338.4c0-.6-.1-1.1-.3-1.5s-.5-.6-.9-.6-.5.1-.7.2-.3.3-.4.5v2.8c.1.2.3.3.4.4.2.1.4.1.7.1s.7-.2.9-.5.3-.8.3-1.3h0Z"/>
    <path class="cls-18" d="M203.3,341.7c-.9,0-1.7-.3-2.2-.9-.6-.6-.8-1.4-.8-2.3v-.2c0-1,.3-1.8.8-2.4s1.2-.9,2.1-.9,1.5.3,2,.8.7,1.2.7,2.1v1h-3.9c0,.4.2.8.4,1.1.3.3.6.4,1,.4s.7,0,1-.1.5-.2.8-.4l.5,1.1c-.3.2-.6.4-1,.5s-.9.2-1.4.2ZM203.2,336.4c-.3,0-.6.1-.8.4-.2.2-.3.6-.3,1h2.1v-.2c0-.4-.1-.7-.3-.9,0-.2-.4-.3-.7-.3Z"/>
  </g>
  <g class="cls-21">
    <path class="cls-18" d="M206.9,340.6l.8-.2v-4l-.9-.2v-1.1h2.6v.9c.3-.3.4-.6.7-.8.2-.2.5-.3.8-.3h.3c.1,0,.2,0,.3.1l-.2,1.6h-.7c-.3,0-.5,0-.6.1-.2.1-.3.2-.4.4v3.1l.8.2v1h-3.4v-.8h-.1Z"/>
  </g>
  <g class="cls-21">
    <path class="cls-18" d="M215.9,341.6c0-.1-.1-.2-.1-.3s-.1-.2-.1-.3c-.2.2-.5.4-.8.6s-.6.2-1,.2c-.6,0-1.1-.2-1.5-.5s-.6-.8-.6-1.4.2-1.1.7-1.4,1.2-.5,2.1-.5h.9v-.6c0-.3-.1-.6-.3-.7-.2-.2-.4-.3-.8-.3s-.4,0-.5.1c-.2,0-.3.1-.4.2v.7h-1.4v-1.4c.3-.2.7-.4,1.1-.5.4-.1.9-.2,1.3-.2.8,0,1.5.2,2,.6s.8,1,.8,1.7v3.3h.5v1.1h-1.9v-.4ZM214.4,340.4c.3,0,.5-.1.7-.2s.4-.3.5-.4v-1h-.9c-.4,0-.7.1-.8.3s-.3.4-.3.6.1.4.2.5c.1.2.3.2.6.2Z"/>
  </g>
  <g class="cls-21">
    <path class="cls-18" d="M220.6,333.6v1.6h1.1v1.2h-1.1v3.3c0,.3.1.4.2.5s.2.2.4.2h.3c.1,0,.2,0,.3-.1v1.3c0,.1-.3.1-.5.1h-.6c-.6,0-1.1-.2-1.4-.5-.3-.3-.5-.9-.5-1.6v-3.3h-1v-1.2h1v-1.6h1.8Z"/>
    <path class="cls-18" d="M222.5,340.6l.8-.2v-4l-.9-.2v-1.1h2.7v5.2l.8.2v1h-3.4v-.9h0ZM225.1,333.6h-1.7v-1.3h1.7v1.3Z"/>
  </g>
  <g class="cls-21">
    <path class="cls-18" d="M226.4,340.6l.8-.2v-4l-.9-.2v-1.1h2.6v.9c.3-.3.6-.6.9-.8.3-.2.7-.3,1.1-.3.7,0,1.2.2,1.5.6s.5,1.1.5,1.9v2.8l.8.2v1h-3.3v-1l.7-.2v-2.8c0-.4-.1-.7-.3-.9-.2-.2-.4-.3-.8-.3s-.4,0-.6.1c-.2.1-.3.2-.5.4v3.5l.7.2v1h-3.3v-.8h0Z"/>
  </g>
  <g class="cls-21">
    <path class="cls-18" d="M234.4,338.4c0-1,.2-1.8.7-2.5.4-.6,1.1-.9,1.9-.9s.7.1,1,.2c.3.2.5.4.7.7v-.8h1.6v6.3c0,.9-.3,1.5-.8,2s-1.3.8-2.2.8-.7,0-1-.1-.7-.2-1-.4l.3-1.2c.3.1.6.2.8.3.3.1.6.1.9.1s.7-.1,1-.4c.2-.3.3-.6.3-1.1v-.4c-.2.2-.4.4-.7.6-.3.1-.6.2-.9.2-.8,0-1.4-.3-1.9-.9s-.7-1.4-.7-2.3v-.2h0ZM236.1,338.6c0,.6.1,1,.3,1.3s.5.5.9.5.5,0,.7-.1.3-.2.4-.4v-2.9c-.1-.2-.3-.3-.4-.5-.2-.1-.4-.2-.7-.2s-.7.2-.9.6-.3.9-.3,1.5v.2Z"/>
    <path class="cls-18" d="M250.8,335.7h-1.3l-.2-1.2c-.2-.1-.4-.2-.7-.3-.3-.1-.6-.1-.9-.1-.5,0-.8.1-1.1.3-.3.2-.4.5-.4.8s.1.5.4.7c.3.2.7.4,1.4.6,1,.3,1.7.6,2.2,1.1.5.4.7,1,.7,1.7s-.3,1.3-.9,1.8c-.6.4-1.4.6-2.3.6s-1.3-.1-1.9-.3c-.6-.2-1-.5-1.4-.9v-1.8h1.4l.2,1.2c.2.1.4.3.7.4s.6.1,1,.1.8-.1,1.1-.3c.2-.2.4-.5.4-.8s-.1-.6-.4-.8c-.2-.2-.7-.4-1.2-.6-1-.3-1.8-.7-2.3-1.1s-.8-1-.8-1.7.3-1.3.9-1.7,1.3-.7,2.3-.7,1.3.1,1.8.3,1,.5,1.4.8v1.9h0Z"/>
    <path class="cls-18" d="M258.4,336.2h-.6c0,.1-2.4,6.4-2.4,6.4-.2.5-.4.9-.8,1.2s-.8.5-1.4.5h-.4c-.1,0-.3-.1-.5-.1l.2-1.3h.4c.3,0,.5-.1.7-.2s.3-.3.4-.5l.2-.5-2.1-5.3h-.6v-1.2h3.2v1.1h-.7c0,.1.9,2.7.9,2.7v.5h.1l1-3.1h-.7v-1.2h3.2v1h0Z"/>
    <path class="cls-18" d="M264.2,337.4h-1.2l-.2-.8c-.1-.1-.3-.2-.5-.2-.2-.1-.4-.1-.6-.1-.3,0-.5.1-.7.2s-.3.3-.3.5.1.4.3.5c.2.1.5.2,1,.3.8.2,1.4.4,1.8.7.4.3.6.7.6,1.3s-.3,1.1-.8,1.4c-.5.4-1.2.6-2,.6s-1-.1-1.4-.2-.8-.4-1.1-.6v-1.5h1.2l.2.8c.1.1.2.2.4.2s.4.1.6.1c.4,0,.6-.1.8-.2.2-.1.3-.3.3-.5s-.1-.4-.3-.5c-.2-.1-.5-.3-1-.4-.8-.2-1.3-.4-1.7-.7-.4-.3-.6-.7-.6-1.2s.2-1,.7-1.4,1.1-.6,1.9-.6,1,.1,1.4.2.8.3,1.1.5v1.6Z"/>
    <path class="cls-18" d="M267.8,333.6v1.6h1.1v1.2h-1.1v3.3c0,.3.1.4.2.5s.2.2.4.2h.3c.1,0,.2,0,.3-.1v1.3c-.1.1-.3.1-.5.1h-.6c-.6,0-1.1-.2-1.4-.5s-.5-.9-.5-1.6v-3.3h-1v-1.2h1v-1.6h1.8Z"/>
    <path class="cls-18" d="M272.9,341.7c-.9,0-1.7-.3-2.2-.9s-.8-1.4-.8-2.3v-.2c0-1,.3-1.8.8-2.4s1.2-.9,2.1-.9,1.5.3,2,.8.7,1.2.7,2.1v1h-3.9c0,.4.2.8.4,1.1.3.3.6.4,1,.4s.7,0,1-.1.5-.2.8-.4l.5,1.1c-.3.2-.6.4-1,.5-.4.2-.9.2-1.4.2ZM272.7,336.4c-.3,0-.6.1-.8.4s-.3.6-.3,1h2.1v-.2c0-.4-.1-.7-.3-.9-.1-.2-.3-.3-.7-.3Z"/>
    <path class="cls-18" d="M276.1,336.2v-1.1h2.6v.9c.3-.3.6-.6.9-.7.3-.2.7-.3,1.1-.3s.8.1,1.1.3c.3.2.5.5.7.8.2-.3.5-.6.8-.8s.7-.3,1.1-.3c.6,0,1.1.2,1.5.7.4.4.6,1.1.6,2v2.7l.8.2v1h-3.3v-1l.8-.2v-2.7c0-.5-.1-.8-.2-1s-.4-.3-.7-.3-.5.1-.6.2c-.2.1-.3.3-.4.5v3.4l.7.2v1h-3.2v-1l.7-.2v-2.7c0-.5-.1-.8-.2-1s-.4-.3-.7-.3-.4,0-.6.1-.3.2-.4.4v3.5l.8.2v1h-3.3v-1l.8-.2v-4l-1.4-.3Z"/>
  </g>
  <path class="cls-6" d="M169.2,368.1h132.6c2.8,0,5,2.2,5,5v20.6c0,2.8-2.2,5-5,5h-132.6c-2.8,0-5-2.2-5-5v-20.6c0-2.8,2.3-5,5-5Z"/>
  <g class="cls-21">
    <path class="cls-18" d="M203.3,379.6v-1.1h3.6v1.1l-.9.2v2.5h3.5v-2.5l-.9-.2v-1.1h3.5v1.1l-.9.2v6.2l.9.2v1h-3.6v-1l.9-.2v-2.4h-3.5v2.4l.9.2v1h-3.6v-1l.9-.2v-6.2l-.8-.2Z"/>
    <path class="cls-18" d="M219.6,381.9h-.6c0,.1-2.4,6.4-2.4,6.4-.2.5-.4.9-.8,1.2s-.8.5-1.4.5h-.4c-.1,0-.3-.1-.5-.1l.2-1.3h.4c.3,0,.5-.1.7-.2s.3-.3.4-.5l.2-.5-2.1-5.3h-.6v-1.2h3.2v1.1h-.7c0,.1.9,2.7.9,2.7v.5h.1l1-3.1h-.7v-1.2h3.2v1h0Z"/>
    <path class="cls-18" d="M220,381.9v-1.1h2.5v.8c.3-.3.5-.5.8-.6.3-.2.6-.2.9-.2.8,0,1.4.3,1.9.9.4.6.7,1.4.7,2.5h0c0,1.1-.2,1.8-.7,2.4s-1.1.9-1.9.9-.6-.1-.9-.2c-.3-.1-.5-.3-.7-.6v1.9l.8.2v1.1h-3.4v-1.1l.8-.2v-6.5l-.8-.2ZM225,384.1c0-.6-.1-1.1-.3-1.5s-.5-.6-.9-.6-.5.1-.7.2-.3.3-.4.5v2.8c.1.2.3.3.4.4.2.1.4.1.7.1s.7-.2.9-.5.3-.8.3-1.3h0Z"/>
    <path class="cls-18" d="M230.6,387.4c-.9,0-1.7-.3-2.2-.9-.6-.6-.8-1.4-.8-2.3v-.2c0-1,.3-1.8.8-2.4s1.2-.9,2.1-.9,1.5.3,2,.8.7,1.2.7,2.1v1h-3.9c0,.4.2.8.4,1.1.3.3.6.4,1,.4s.7,0,1-.1.5-.2.8-.4l.5,1.1c-.3.2-.6.4-1,.5s-.9.2-1.4.2ZM230.5,382c-.3,0-.6.1-.8.4s-.3.6-.3,1h2.1v-.2c0-.4-.1-.7-.3-.9,0,0-.4-.3-.7-.3Z"/>
  </g>
  <g class="cls-21">
    <path class="cls-18" d="M234.2,386.2l.8-.2v-4l-.9-.2v-1.1h2.6v.9c.3-.3.4-.6.7-.8.2-.2.5-.3.8-.3h.3c.1,0,.2,0,.3.1l-.2,1.6h-.7c-.3,0-.5,0-.6.1-.2.1-.3.2-.4.4v3.1l.8.2v1h-3.4v-.8h-.1Z"/>
  </g>
  <g class="cls-21">
    <path class="cls-18" d="M242.1,381.9h-.6c0,.1.9,3,.9,3v.6h.1v-.6c.1,0,.9-2.9.9-2.9h-.6v-1.2h2.9v1.1h-.6c0,.1-1.9,5.4-1.9,5.4h-1.7l-1.9-5.3h-.6v-1.2h2.9v1.1h.2Z"/>
    <path class="cls-18" d="M246.2,386.2l.8-.2v-4l-.9-.2v-1.1h2.7v5.2l.8.2v1h-3.4v-.9h0ZM248.8,379.3h-1.7v-1.3h1.7v1.3Z"/>
    <path class="cls-18" d="M255.5,383h-1.2l-.2-.8c-.1-.1-.3-.2-.5-.2-.2-.1-.4-.1-.6-.1-.3,0-.5.1-.7.2s-.3.3-.3.5.1.4.3.5.5.2,1,.3c.8.2,1.4.4,1.8.7.4.3.6.7.6,1.3s-.3,1.1-.8,1.4c-.5.4-1.2.6-2,.6s-1-.1-1.4-.2-.8-.4-1.1-.6v-1.5h1.2l.2.8c.1.1.2.2.4.2s.4.1.6.1c.4,0,.6-.1.8-.2s.3-.3.3-.5-.1-.4-.3-.5-.5-.3-1-.4c-.8-.2-1.3-.4-1.7-.7-.4-.3-.6-.7-.6-1.2s.2-1,.7-1.4,1.1-.6,1.9-.6,1,.1,1.4.2.8.3,1.1.5v1.6Z"/>
    <path class="cls-18" d="M256.5,384c0-1,.3-1.8.8-2.4s1.3-.9,2.2-.9,1.7.3,2.2.9.8,1.4.8,2.4h0c0,1.1-.3,1.9-.8,2.5s-1.3.9-2.2.9-1.7-.3-2.3-.9c-.5-.6-.8-1.4-.8-2.4h0c0-.1,0-.1,0-.1ZM258.3,384.1c0,.6.1,1.1.3,1.4.2.4.5.5,1,.5s.8-.2,1-.5c.2-.4.3-.8.3-1.4h0c0-.7-.1-1.1-.3-1.5-.2-.4-.5-.5-1-.5s-.8.2-1,.5c-.2.4-.3.8-.3,1.4h0Z"/>
    <path class="cls-18" d="M263.5,386.2l.8-.2v-4l-.9-.2v-1.1h2.6v.9c.3-.3.4-.6.7-.8.2-.2.5-.3.8-.3h.3c.1,0,.2,0,.3.1l-.2,1.6h-.7c-.3,0-.5,0-.6.1-.2.1-.3.2-.4.4v3.1l.8.2v1h-3.4v-.8h0Z"/>
  </g>
  <path class="cls-11" d="M169.2,412.8h132.6c2.8,0,5,2.2,5,5v20.6c0,2.8-2.2,5-5,5h-132.6c-2.8,0-5-2.2-5-5v-20.6c0-2.8,2.3-5,5-5Z"/>
  <g class="cls-21">
    <path class="cls-18" d="M222.2,424.3v-1.1h3.6v1.1l-.9.2v2.5h3.5v-2.5l-.9-.2v-1.1h3.5v1.1l-.9.2v6.2l.9.2v1h-3.6v-1l.9-.2v-2.4h-3.5v2.4l.9.2v1h-3.6v-1l.9-.2v-6.2l-.8-.2Z"/>
    <path class="cls-18" d="M231.8,428.7c0-1,.3-1.8.8-2.4s1.3-.9,2.2-.9,1.7.3,2.2.9.8,1.4.8,2.4h0c0,1.1-.3,1.9-.8,2.5s-1.3.9-2.2.9-1.7-.3-2.3-.9c-.5-.6-.8-1.4-.8-2.4h0c0-.1.1-.1.1-.1ZM233.6,428.8c0,.6.1,1.1.3,1.4.2.4.5.5,1,.5s.8-.2,1-.5c.2-.4.3-.8.3-1.4h0c0-.7-.1-1.1-.3-1.5s-.5-.5-1-.5-.8.2-1,.5c-.2.4-.3.8-.3,1.4h0Z"/>
    <path class="cls-18" d="M244,427.7h-1.2l-.2-.8c-.1-.1-.3-.2-.5-.2-.2-.1-.4-.1-.6-.1-.3,0-.5.1-.7.2s-.3.3-.3.5.1.4.3.5.5.2,1,.3c.8.2,1.4.4,1.8.7.4.3.6.7.6,1.3s-.3,1.1-.8,1.4c-.5.4-1.2.6-2,.6s-1-.1-1.4-.2-.8-.4-1.1-.6v-1.5h1.2l.2.8c.1.1.2.2.4.2s.4.1.6.1c.4,0,.6-.1.8-.2s.3-.3.3-.5-.1-.4-.3-.5-.5-.3-1-.4c-.8-.2-1.3-.4-1.7-.7-.4-.3-.6-.7-.6-1.2s.2-1,.7-1.4,1.1-.6,1.9-.6,1,.1,1.4.2.8.3,1.1.5v1.6Z"/>
    <path class="cls-18" d="M247.6,423.9v1.6h1.1v1.2h-1.1v3.3c0,.3.1.4.2.5s.2.2.4.2h.3c.1,0,.2,0,.3-.1v1.3c0,.1-.3.1-.5.1h-.6c-.6,0-1.1-.2-1.4-.5-.3-.3-.5-.9-.5-1.6v-3.3h-1v-1.2h1v-1.6h1.8Z"/>
  </g>
  <path class="cls-18" d="M495.5,160.7c1,0,2,.2,2.9.5,3.2,1.1,5.5,4,5.8,7.4h.1v5.2h-1.1c0,1.5-.1,1.3-.1,2.9,0,2.6-1.3,4.9-3.5,6.3h.1v2.3h.9c.3,0,.6,0,.9.1,1.1.1,2.1.6,2.9,1.3,1,.7,1.6,1.9,1.6,3.1v4.7h-21.3v-4.7c0-1.2.6-2.4,1.6-3.1.8-.7,1.8-1.1,2.9-1.3.3-.1.6-.1.9-.1h.9v-2.3c-2.1-1.3-3.4-3.5-3.4-6v-3.3h-1.1v-5.2h.1c.2-2,1.1-3.9,2.6-5.3.9-.9,2-1.7,3.3-2.1,1.1-.3,2.1-.4,3-.4M495.6,158.7c-1.2,0-2.4.2-3.6.6-1.5.5-2.9,1.4-4,2.6-1.6,1.6-2.7,3.6-3,5.9-.1.3-.2.6-.2.9v5.2c0,.8.4,1.5,1.1,1.8v1.5c0,2.4,1,4.8,2.8,6.5-1.2.2-2.4.8-3.3,1.5-1.5,1.1-2.4,2.8-2.4,4.7v4.7c0,1.1.9,2,2,2h21.3c1.1,0,2-.9,2-2v-4.7c0-1.9-.9-3.6-2.4-4.7-1-.8-2.2-1.4-3.4-1.6,1.8-1.8,2.9-4.2,2.9-6.8v-1.1c.7-.3,1.2-1,1.2-1.8v-5.2c0-.3-.1-.6-.2-.9-1.1-5.3-5.6-9.1-10.8-9.1h0Z"/>
  <path class="cls-4" d="M503.3,172.4c0,1.7-.1,2.5-.1,4.3-.1,4.2-3.5,7.6-7.7,7.6-4.1.2-7.6-3.1-7.8-7.2h0v-4.9"/>
  <path class="cls-4" d="M504.4,169.4c0-3.7-2.3-7.1-5.9-8.3-1.9-.7-4-.7-5.9,0-1.2.4-2.4,1.1-3.3,2.1-1.7,1.6-2.6,3.9-2.6,6.2"/>
  <rect class="cls-7" x="486.7" y="169.1" width="17.7" height="3.3"/>
  <line class="cls-7" x1="496.5" y1="179.7" x2="493.3" y2="179.7"/>
  <path class="cls-18" d="M486.5,172.4v4h18.1v-4h-18.1ZM492.1,175c-.4.5-1.2.6-1.7,0-.5-.4-.6-1.2-.1-1.7,0-.1,0-.1.1-.2l2,1.2c-.1.2-.2.4-.3.6ZM498.9,175c-.4.5-1.2.6-1.7.2-.3-.2-.4-.5-.4-.9l2-1.1c.5.5.5,1.2.1,1.8Z"/>
  <g>
    <path class="cls-1" d="M42,63.1c-2.8,0-5.3,1.9-6,4.7h-13.3l-1.6,1.6,1.4,1.3,1.9,1.9,1.7-1.7,1,1,1.1-1.1h.2l1.8,1.8,1.8-1.8h4c.8,3.3,4.2,5.3,7.5,4.5s5.3-4.2,4.5-7.5c-.7-2.8-3.2-4.8-6-4.7h0Z"/>
    <line class="cls-10" x1="85.8" y1="101.2" x2="54.6" y2="101.2"/>
    <path class="cls-18" d="M34.5,82.5c1,0,2,.2,2.9.5,1.2.4,2.4,1.1,3.3,2.1,1.4,1.4,2.3,3.3,2.6,5.3h0v5.2h-1.1v3.3c0,2.5-1.3,4.7-3.4,6v2.3h.9c.3,0,.6,0,.9,0,1.1,0,2.1.6,2.9,1.3,1,.7,1.6,1.9,1.6,3.1v4.7h-21.3v-4.7c0-1.2.6-2.4,1.6-3.1.8-.7,1.8-1.1,2.9-1.3.3,0,.6,0,.9,0h.9v-2.3h.1c-2.2-1.4-3.5-3.8-3.5-6.3s-.1-1.4-.1-2.9h-1.1v-5.1h.1c.3-3.4,2.6-6.2,5.8-7.3,1-.6,2-.8,3-.8M34.5,80.5c-5.3,0-9.8,3.8-10.7,9-.1.3-.2.6-.2.8v5.2c0,.8.5,1.5,1.2,1.8v1.1c0,2.6,1,5,2.9,6.8-1.3.2-2.4.8-3.4,1.6-1.5,1.1-2.4,2.8-2.4,4.7v4.7c0,1.1.9,2,2,2h21.3c1.1,0,2-.9,2-2v-4.7c0-1.9-.9-3.6-2.4-4.7-.9-.8-2.1-1.3-3.3-1.6,1.8-1.7,2.8-4,2.8-6.5v-1.5c.7-.3,1.1-1,1.1-1.8v-5.2c0-.3,0-.6-.2-.8-.4-2.2-1.4-4.3-3-5.9s-2.5-2-4-2.6c-1.2-.2-2.4-.4-3.7-.4h0Z"/>
    <path class="cls-4" d="M26.8,94.2c0,1.7.1,2.5.1,4.3.1,4.2,3.5,7.6,7.7,7.6,4.1.2,7.6-3.1,7.8-7.2h0v-4.9"/>
    <path class="cls-4" d="M25.7,91.3c0-3.7,2.4-7,5.9-8.3,1.9-.7,4-.7,5.9,0,1.2.4,2.4,1.1,3.3,2.1,1.7,1.6,2.6,3.9,2.6,6.2"/>
    <rect class="cls-7" x="25.7" y="90.9" width="17.7" height="3.3"/>
    <line class="cls-7" x1="33.5" y1="101.5" x2="36.7" y2="101.5"/>
    <path class="cls-18" d="M25.5,94.2v4h18v-4h-18ZM32.9,97c-.5.4-1.3.3-1.7-.2-.4-.6-.4-1.3,0-1.8l2,1.1c0,.3,0,.7-.4.9ZM39.8,96.8c-.5.5-1.3.5-1.8,0,0-.2-.2-.4-.3-.6l2-1.2c.3.2.4.6.5.9,0,.3-.2.7-.4.9Z"/>
    <path class="cls-18" d="M44.7,70.5c-.7,0-1.3-.6-1.3-1.3s.6-1.3,1.3-1.3,1.3.6,1.3,1.3h0c0,.7-.5,1.3-1.3,1.3h0Z"/>
  </g>
  <path class="cls-1" d="M114.8,299.1c-2.8,0-5.3,1.9-6,4.7h-13.3l-1.6,1.6,1.4,1.3,1.9,1.9,1.7-1.7,1,1,1.1-1.1h.2l1.8,1.8,1.8-1.8h4c.8,3.3,4.2,5.3,7.5,4.5s5.3-4.2,4.5-7.5c-.7-2.8-3.2-4.8-6-4.7h0Z"/>
  <path class="cls-18" d="M107.3,318.5c1,0,2,.2,2.9.5,1.2.4,2.4,1.1,3.3,2.1,1.4,1.4,2.3,3.3,2.6,5.3h0v5.2h-1.1v3.3c0,2.5-1.3,4.7-3.4,6v2.3h.9c.3,0,.6,0,.9,0,1.1,0,2.1.6,2.9,1.3,1,.7,1.6,1.9,1.6,3.1v4.7h-21.3v-4.7c0-1.2.6-2.4,1.6-3.1.8-.7,1.8-1.1,2.9-1.3.3,0,.6,0,.9,0h.9v-2.3h.1c-2.2-1.4-3.5-3.8-3.5-6.3s-.1-1.4-.1-2.9h-1.1v-5.1h.1c.3-3.4,2.6-6.2,5.8-7.3,1-.6,2-.8,3-.8M107.3,316.5c-5.3,0-9.8,3.8-10.7,9-.1.3-.2.6-.2.8v5.2c0,.8.5,1.5,1.2,1.8v1.1c0,2.6,1,5,2.9,6.8-1.3.2-2.4.8-3.4,1.6-1.5,1.1-2.4,2.8-2.4,4.7v4.7c0,1.1.9,2,2,2h21.3c1.1,0,2-.9,2-2v-4.7c0-1.9-.9-3.6-2.4-4.7-.9-.8-2.1-1.3-3.3-1.6,1.8-1.7,2.8-4,2.8-6.5v-1.5c.7-.3,1.1-1,1.1-1.8v-5.2c0-.3,0-.6-.2-.8-.4-2.2-1.4-4.3-3-5.9s-2.5-2-4-2.6c-1.2-.2-2.4-.4-3.7-.4h0Z"/>
  <path class="cls-4" d="M99.6,330.2c0,1.7.1,2.5.1,4.3.1,4.2,3.5,7.6,7.7,7.6,4.1.2,7.6-3.1,7.8-7.2h0v-4.9"/>
  <path class="cls-4" d="M98.5,327.3c0-3.7,2.4-7,5.9-8.3,1.9-.7,4-.7,5.9,0,1.2.4,2.4,1.1,3.3,2.1,1.7,1.6,2.6,3.9,2.6,6.2"/>
  <rect class="cls-7" x="98.5" y="326.9" width="17.7" height="3.3"/>
  <line class="cls-7" x1="106.3" y1="337.5" x2="109.5" y2="337.5"/>
  <path class="cls-18" d="M98.3,330.2v4h18v-4h-18ZM105.7,333c-.5.4-1.3.3-1.7-.2-.4-.6-.4-1.3,0-1.8l2,1.1c0,.3,0,.7-.4.9ZM112.6,332.8c-.5.5-1.3.5-1.8,0,0-.2-.2-.4-.3-.6l2-1.2c.3.2.4.6.5.9,0,.3-.2.7-.4.9Z"/>
  <path class="cls-18" d="M117.5,306.5c-.7,0-1.3-.6-1.3-1.3s.6-1.3,1.3-1.3,1.3.6,1.3,1.3h0c0,.7-.5,1.3-1.3,1.3h0Z"/>
  <line class="cls-13" x1="284.9" y1="249.4" x2="284.9" y2="277.1"/>
  <polygon class="cls-16" points="276.8 256.1 278.2 257.4 284.9 250.2 291.7 257.4 293.1 256.1 284.9 247.3 276.8 256.1"/>
  <line class="cls-13" x1="251.6" y1="249.4" x2="251.6" y2="276.6"/>
  <polygon class="cls-16" points="243.4 256.1 244.9 257.4 251.6 250.2 258.3 257.4 259.8 256.1 251.6 247.3 243.4 256.1"/>
  <line class="cls-13" x1="218.2" y1="249.4" x2="218.2" y2="277.1"/>
  <polygon class="cls-16" points="210 256.1 211.5 257.4 218.2 250.2 224.9 257.4 226.4 256.1 218.2 247.3 210 256.1"/>
  <line class="cls-13" x1="184.8" y1="249.4" x2="184.8" y2="277.1"/>
  <polygon class="cls-16" points="176.6 256.1 178.1 257.4 184.8 250.2 191.5 257.4 193 256.1 184.8 247.3 176.6 256.1"/>
  <line class="cls-13" x1="284.9" y1="399" x2="284.9" y2="413.1"/>
  <line class="cls-13" x1="284.9" y1="353.3" x2="284.9" y2="368.4"/>
  <line class="cls-13" x1="284.9" y1="307.6" x2="284.9" y2="322.7"/>
  <line class="cls-13" x1="251.6" y1="353.3" x2="251.6" y2="368.4"/>
  <line class="cls-13" x1="251.6" y1="307.6" x2="251.6" y2="322.3"/>
  <line class="cls-13" x1="218.2" y1="307.6" x2="218.2" y2="321"/>
</svg>