<?xml version="1.0" encoding="UTF-8"?>
<svg id="Ebene_1" data-name="Ebene 1" xmlns="http://www.w3.org/2000/svg" xmlns:xlink="http://www.w3.org/1999/xlink" version="1.1" viewBox="0 0 511.9 417.4">
  <defs>
    <style>
      .cls-1, .cls-2, .cls-3, .cls-4, .cls-5, .cls-6, .cls-7, .cls-8 {
        fill: none;
      }

      .cls-1, .cls-2, .cls-5, .cls-6, .cls-7, .cls-8, .cls-9 {
        stroke-width: 2px;
      }

      .cls-1, .cls-2, .cls-5, .cls-7 {
        stroke-miterlimit: 10;
      }

      .cls-1, .cls-8 {
        stroke: #fff;
      }

      .cls-2, .cls-3, .cls-5, .cls-6, .cls-7, .cls-9 {
        stroke: #fc0;
      }

      .cls-3, .cls-6, .cls-8, .cls-9 {
        stroke-linecap: round;
        stroke-linejoin: round;
      }

      .cls-10 {
        clip-path: url(#clippath);
      }

      .cls-4, .cls-11, .cls-12, .cls-13, .cls-14, .cls-15, .cls-16, .cls-17, .cls-18, .cls-19 {
        stroke-width: 0px;
      }

      .cls-11 {
        fill: #fc0;
      }

      .cls-20 {
        clip-path: url(#clippath-1);
      }

      .cls-21 {
        clip-path: url(#clippath-4);
      }

      .cls-22 {
        clip-path: url(#clippath-3);
      }

      .cls-23 {
        clip-path: url(#clippath-2);
      }

      .cls-24 {
        clip-path: url(#clippath-5);
      }

      .cls-5 {
        stroke-dasharray: 0 0 2 2;
      }

      .cls-7 {
        stroke-dasharray: 0 0 2 2;
      }

      .cls-12 {
        fill: url(#Unbenannter_Verlauf);
      }

      .cls-12, .cls-17 {
        opacity: .7;
      }

      .cls-12, .cls-17, .cls-25 {
        isolation: isolate;
      }

      .cls-13 {
        fill: url(#Unbenannter_Verlauf_5);
      }

      .cls-14 {
        fill: url(#Unbenannter_Verlauf_4);
      }

      .cls-15 {
        fill: url(#Unbenannter_Verlauf_3);
      }

      .cls-16 {
        fill: #fdfeff;
      }

      .cls-17 {
        fill: url(#Unbenannter_Verlauf_2);
      }

      .cls-9, .cls-18 {
        fill: #fff;
      }

      .cls-19 {
        fill: #ffd138;
      }
    </style>
    <linearGradient id="Unbenannter_Verlauf" data-name="Unbenannter Verlauf" x1="203.9" y1="821.7" x2="217.1" y2="821.7" gradientTransform="translate(0 -660)" gradientUnits="userSpaceOnUse">
      <stop offset="0" stop-color="#906"/>
      <stop offset=".2" stop-color="#780066"/>
      <stop offset=".4" stop-color="#5a0066"/>
      <stop offset=".6" stop-color="#406"/>
      <stop offset=".8" stop-color="#370066"/>
      <stop offset="1" stop-color="#306"/>
    </linearGradient>
    <linearGradient id="Unbenannter_Verlauf_2" data-name="Unbenannter Verlauf 2" x1="315.1" y1="895.7" x2="420.3" y2="895.7" gradientTransform="translate(-46.5 -647.9)" gradientUnits="userSpaceOnUse">
      <stop offset="0" stop-color="#906"/>
      <stop offset=".2" stop-color="#780066"/>
      <stop offset=".4" stop-color="#5a0066"/>
      <stop offset=".6" stop-color="#406"/>
      <stop offset=".8" stop-color="#370066"/>
      <stop offset="1" stop-color="#306"/>
    </linearGradient>
    <linearGradient id="Unbenannter_Verlauf_3" data-name="Unbenannter Verlauf 3" x1="369.5" y1="907.9" x2="495.2" y2="907.9" gradientTransform="translate(0 -660)" gradientUnits="userSpaceOnUse">
      <stop offset="0" stop-color="#906"/>
      <stop offset=".2" stop-color="#780066"/>
      <stop offset=".4" stop-color="#5a0066"/>
      <stop offset=".6" stop-color="#406"/>
      <stop offset=".8" stop-color="#370066"/>
      <stop offset="1" stop-color="#306"/>
    </linearGradient>
    <clipPath id="clippath">
      <rect class="cls-4" x="413.3" y="270.3" width="36.3" height="7.1"/>
    </clipPath>
    <clipPath id="clippath-1">
      <rect class="cls-4" x="413.3" y="270.3" width="36.3" height="7.1"/>
    </clipPath>
    <linearGradient id="Unbenannter_Verlauf_4" data-name="Unbenannter Verlauf 4" x1="147.7" y1="931.2" x2="273.4" y2="931.2" gradientTransform="translate(0 -660)" gradientUnits="userSpaceOnUse">
      <stop offset="0" stop-color="#906"/>
      <stop offset=".2" stop-color="#780066"/>
      <stop offset=".4" stop-color="#5a0066"/>
      <stop offset=".6" stop-color="#406"/>
      <stop offset=".8" stop-color="#370066"/>
      <stop offset="1" stop-color="#306"/>
    </linearGradient>
    <clipPath id="clippath-2">
      <rect class="cls-4" x="191.5" y="270.3" width="36.3" height="7.1"/>
    </clipPath>
    <clipPath id="clippath-3">
      <rect class="cls-4" x="191.5" y="270.3" width="36.3" height="7.1"/>
    </clipPath>
    <linearGradient id="Unbenannter_Verlauf_5" data-name="Unbenannter Verlauf 5" x1="147.7" y1="730.7" x2="273.4" y2="730.7" gradientTransform="translate(0 -660)" gradientUnits="userSpaceOnUse">
      <stop offset="0" stop-color="#906"/>
      <stop offset=".2" stop-color="#780066"/>
      <stop offset=".4" stop-color="#5a0066"/>
      <stop offset=".6" stop-color="#406"/>
      <stop offset=".8" stop-color="#370066"/>
      <stop offset="1" stop-color="#306"/>
    </linearGradient>
    <clipPath id="clippath-4">
      <rect class="cls-4" x="191.5" y="100.5" width="36.3" height="7.1"/>
    </clipPath>
    <clipPath id="clippath-5">
      <rect class="cls-4" x="191.5" y="100.5" width="36.3" height="7.1"/>
    </clipPath>
  </defs>
  <rect class="cls-12" x="203.9" y="115.1" width="13.2" height="93.2"/>
  <rect class="cls-17" x="268.6" y="240.9" width="105.2" height="13.8"/>
  <path class="cls-1" d="M304.5,371.5h58.2c2.8,0,5,2.2,5,5v20.6c0,2.8-2.2,5-5,5h-132.6c-2.8,0-5-2.2-5-5v-20.6c0-2.7,2.3-5,5-5h58.3"/>
  <path class="cls-2" d="M203.3,167.3c0-3.8,3.1-6.9,6.9-6.9s6.9,3.1,6.9,6.9"/>
  <g class="cls-25">
    <path class="cls-11" d="M175.2,161.7v2.3h-1.3v-1h-1.7v6l.9.2v1h-3.6v-1l.9-.2v-6h-1.6v1h-1.4v-2.3h7.8Z"/>
    <path class="cls-11" d="M175.8,170.2v-1l.9-.2v-6.1l-.9-.2v-1h3.5v1l-.9.2v6h2.4v-1.1h1.4v2.4h-6.4Z"/>
    <path class="cls-11" d="M189.4,164.4h-1.3l-.2-1.2c-.2-.1-.4-.2-.7-.2s-.6-.1-.9-.1c-.5,0-.8.1-1.1.3s-.4.5-.4.8.1.5.4.7c.3.2.7.4,1.4.6,1,.3,1.7.6,2.2,1s.7,1,.7,1.7-.3,1.3-.9,1.7-1.4.6-2.3.6-1.3-.1-1.8-.3-1-.5-1.4-.9v-1.8h1.3l.2,1.2c.2.1.4.3.7.3s.6.1,1,.1.8-.1,1.1-.3.4-.4.4-.8-.1-.6-.4-.8c-.2-.2-.6-.4-1.2-.6-1-.3-1.8-.6-2.3-1s-.8-1-.8-1.7.3-1.3.9-1.7,1.3-.7,2.2-.7,1.3.1,1.8.3,1,.5,1.4.8v2h0Z"/>
  </g>
  <path class="cls-2" d="M320,240.9c3.8.1,6.8,3.3,6.6,7.1-.1,3.6-3,6.5-6.6,6.6"/>
  <g class="cls-25">
    <path class="cls-11" d="M318.6,219.4v2.3h-1.3v-1h-1.7v6l.9.2v1h-3.5v-1l.9-.2v-6h-1.6v1h-1.4v-2.3h7.7Z"/>
    <path class="cls-11" d="M319.2,227.9v-1l.9-.2v-6.1l-.9-.2v-1h3.5v1l-.9.2v6h2.4v-1.1h1.4v2.4h-6.4Z"/>
    <path class="cls-11" d="M332.8,222.1h-1.3l-.2-1.2c-.2-.1-.4-.2-.7-.2s-.6-.1-.9-.1c-.5,0-.8.1-1.1.3-.3.2-.4.5-.4.8s.1.5.4.7.7.4,1.4.6c1,.3,1.7.6,2.2,1s.7,1,.7,1.7-.3,1.3-.9,1.7-1.4.6-2.3.6-1.3-.1-1.8-.3c-.6-.2-1-.5-1.4-.9v-1.8h1.3l.2,1.2c.2.1.4.3.7.3s.6.1,1,.1.8-.1,1.1-.3.4-.4.4-.8-.1-.6-.4-.8c-.2-.2-.6-.4-1.2-.6-1-.3-1.8-.6-2.3-1s-.8-1-.8-1.7.3-1.3.9-1.7,1.3-.7,2.2-.7,1.3.1,1.8.3,1,.5,1.4.8v2h0Z"/>
  </g>
  <path class="cls-8" d="M296.5,379.3c.1,0,.8-.3.9-.4,1.9-1,7.1-3.9,7.1-7.5v-10.7c0-.1-.1-.2-.3-.2h0q-.1,0-.2-.1c-1,0-1.9-.1-2.9-.2-3.4-.6-4.1-2.1-4.1-2.1,0,0-.1-.1-.3-.1h-.5c-.1,0-.2-.1-.3.1s-.7,1.5-4.1,2.1c-.9.1-1.9.2-2.9.2s-.1,0-.2.1h0c-.2,0-.3.1-.3.2v10.7c0,3.6,5.2,6.4,7.1,7.5.5.2.8.3,1,.4"/>
  <path class="cls-18" d="M292.2,368.6l3.3,3.3c.1.1.2.1.3.1s.2,0,.3-.1l4.9-5c.1-.2.1-.4,0-.5l-1.1-1.1c-.1-.1-.2-.1-.3-.1s-.2,0-.3.1l-3.6,3.6-1.9-2c-.2-.1-.4-.1-.5,0l-1.1,1.1c-.2.2-.2.4,0,.6"/>
  <g class="cls-25">
    <path class="cls-18" d="M254.7,391.2c-.2.2-.6.4-1,.6s-1,.3-1.6.3c-.9,0-1.7-.3-2.3-.9s-.9-1.4-.9-2.4v-.2c0-1,.3-1.9.9-2.5.6-.6,1.3-1,2.3-1s1,.1,1.5.3c.4.2.8.4,1.1.7v1.4h-1l-.2-.9c-.1-.1-.3-.2-.5-.3s-.4-.1-.7-.1c-.6,0-1.1.2-1.4.7s-.5,1-.5,1.8v.2c0,.7.2,1.3.5,1.7.3.4.8.6,1.4.6s.5,0,.7-.1c.2,0,.3-.1.4-.2v-1.2h-1v-1.1h2.4v2.6h0Z"/>
    <path class="cls-18" d="M257.9,392.1c-.7,0-1.3-.2-1.8-.7-.4-.5-.7-1.1-.7-1.8v-.2c0-.8.2-1.4.6-1.9s1-.7,1.7-.7,1.2.2,1.6.6.6,1,.6,1.7v.8h-3.1c0,.3.1.6.3.8s.5.3.8.3.6,0,.8-.1c.2-.1.4-.2.7-.3l.4.9c-.2.2-.5.3-.8.4-.3.1-.7.2-1.1.2ZM257.7,387.8c-.3,0-.5.1-.6.3-.1.2-.2.5-.3.8h1.7c0-.4-.1-.6-.2-.8-.1-.2-.3-.3-.6-.3Z"/>
    <path class="cls-18" d="M264.8,388.6h-.9v-.6c-.2-.1-.3-.1-.5-.2-.1,0-.3-.1-.5-.1s-.4.1-.6.2c-.1.1-.2.2-.2.4s.1.3.2.4.4.2.8.3c.6.1,1.1.3,1.4.6.3.2.5.6.5,1s-.2.8-.6,1.1-.9.4-1.6.4-.8-.1-1.1-.2-.6-.3-.9-.5v-1.2h1l.2.7c.1.1.2.1.3.2h.4c.3,0,.5-.1.6-.2s.2-.2.2-.4-.1-.3-.2-.4-.4-.2-.8-.3c-.6-.1-1.1-.3-1.4-.5s-.5-.6-.5-1,.2-.8.5-1.1c.4-.3.9-.5,1.5-.5s.8.1,1.1.2c.4.1.6.2.8.4l.3,1.3Z"/>
    <path class="cls-18" d="M268,391c.2,0,.4-.1.6-.2.1-.1.2-.3.2-.6h1.3c0,.5-.2,1-.6,1.3s-.9.5-1.5.5-1.4-.2-1.8-.7-.6-1.1-.6-1.9h0c0-.9.2-1.5.6-2s1-.7,1.8-.7.8.1,1.1.2c.3.1.6.3.8.5v1.4h-1.1l-.2-.8c-.1-.1-.2-.1-.3-.1s-.2-.1-.3-.1c-.4,0-.7.1-.8.4s-.2.7-.2,1.1h0c0,.6.1.9.2,1.2.2.4.4.5.8.5Z"/>
    <path class="cls-18" d="M270.6,391.2h.7v-5.5h-.7v-.9h2.1v2.9l.6-.6c.2-.1.5-.2.8-.2.5,0,1,.2,1.3.5.3.4.5.9.5,1.6v2.1h.7v.9h-2.6v-.8h.6v-2.2c0-.4-.1-.7-.2-.8-.1-.2-.4-.2-.6-.2s-.4,0-.5.1-.3.2-.4.3v2.8h.6v.9h-2.6v-.9h-.3Z"/>
    <path class="cls-18" d="M280.5,391.3l-.6.6c-.2.1-.5.2-.8.2-.5,0-1-.2-1.3-.5s-.5-.9-.5-1.6v-2.1h-.6v-.9h2v3.1c0,.4.1.6.2.8.1.2.3.2.6.2s.4,0,.6-.1.3-.2.4-.3v-2.8h-.6v-.9h2v4.2h.6v.9h-1.8l-.2-.8ZM278.8,385.9h-1.3v-1h1.3v1ZM281.2,385.9h-1.3v-1h1.3v1Z"/>
    <path class="cls-18" d="M285,385.6v1.3h.9v1h-.9v2.6c0,.2,0,.3.1.4s.2.1.3.1h.4v1c-.1,0-.2.1-.4.1h-.5c-.5,0-.8-.1-1.1-.4s-.4-.7-.4-1.2v-2.6h-.8v-1h.8v-1.3h1.6Z"/>
    <path class="cls-18" d="M288.4,390.9h1.4v-.7h1.2v1.7h-4.3v-.8l2.4-3.2h-1.3v.7h-1.2v-1.7h4.1v.8l-2.3,3.2Z"/>
    <path class="cls-18" d="M293.7,385.6v1.3h.9v1h-.9v2.6c0,.2,0,.3.1.4s.2.1.3.1h.4v1c-.1,0-.2.1-.4.1h-.5c-.5,0-.8-.1-1.1-.4-.3-.3-.4-.7-.4-1.2v-2.6h-.8v-1h.8v-1.3h1.6Z"/>
    <path class="cls-18" d="M297.7,392.1c-.7,0-1.3-.2-1.8-.7-.4-.5-.7-1.1-.7-1.8v-.2c0-.8.2-1.4.6-1.9s1-.7,1.7-.7,1.2.2,1.6.6.6,1,.6,1.7v.8h-3.1c0,.3.1.6.3.8s.5.3.8.3.6,0,.8-.1.4-.2.7-.3l.4.9c-.2.2-.5.3-.8.4-.3.1-.7.2-1.1.2ZM297.6,387.8c-.3,0-.5.1-.6.3-.1.2-.2.5-.3.8h1.7c0-.4-.1-.6-.2-.8-.1-.2-.3-.3-.6-.3Z"/>
    <path class="cls-18" d="M307,388.6h-.9v-.6c-.2-.1-.3-.1-.5-.2-.1,0-.3-.1-.5-.1s-.4.1-.6.2c-.1.1-.2.2-.2.4s.1.3.2.4.4.2.8.3c.6.1,1.1.3,1.4.6.3.2.5.6.5,1s-.2.8-.6,1.1-.9.4-1.6.4-.8-.1-1.1-.2-.6-.3-.9-.5v-1.2h1l.2.7c.1.1.2.1.3.2h.4c.3,0,.5-.1.6-.2s.2-.2.2-.4-.1-.3-.2-.4-.4-.2-.8-.3c-.6-.1-1.1-.3-1.4-.5s-.5-.6-.5-1,.2-.8.5-1.1c.4-.3.9-.5,1.5-.5s.8.1,1.1.2c.4.1.6.2.8.4l.3,1.3Z"/>
    <path class="cls-18" d="M309.8,385.6v1.3h.9v1h-.9v2.6c0,.2,0,.3.1.4s.2.1.3.1h.4v1c-.1,0-.2.1-.4.1h-.5c-.5,0-.8-.1-1.1-.4-.3-.3-.4-.7-.4-1.2v-2.6h-.8v-1h.8v-1.3h1.6Z"/>
    <path class="cls-18" d="M314.8,391.4c-.2.2-.4.4-.6.5s-.5.2-.8.2c-.6,0-1.1-.2-1.5-.7-.3-.5-.5-1.1-.5-1.8h0c0-.9.2-1.6.5-2.1s.8-.7,1.5-.7.5.1.7.2.4.3.5.5v-1.8h-.7v-.9h2.1v6.4h.7v.9h-1.9v-.7ZM312.8,389.6c0,.4.1.8.2,1.1.2.3.4.4.7.4s.4,0,.5-.1.3-.2.4-.4v-2.2c-.1-.2-.2-.3-.4-.4-.1-.1-.3-.1-.5-.1-.3,0-.6.2-.7.5-.1.2-.2.6-.2,1.2h0Z"/>
    <path class="cls-18" d="M317.2,389.4c0-.8.2-1.4.6-1.9s1-.7,1.8-.7,1.4.2,1.8.7.6,1.1.6,1.9h0c0,.9-.2,1.5-.6,2s-1,.7-1.8.7-1.4-.2-1.8-.7c-.4-.5-.6-1.2-.6-2h0ZM318.6,389.5c0,.5.1.8.2,1.1.2.3.4.4.8.4s.6-.1.8-.4c.2-.3.2-.7.2-1.1h0c0-.6-.1-.9-.3-1.2-.2-.3-.4-.4-.8-.4s-.6.1-.8.4c-.1.2-.1.6-.1,1.2h0Z"/>
    <path class="cls-18" d="M326.2,391.3l-.6.6c-.2.1-.5.2-.8.2-.5,0-1-.2-1.3-.5s-.5-.9-.5-1.6v-2.1h-.6v-.9h2v3.1c0,.4.1.6.2.8.1.2.3.2.6.2s.4,0,.6-.1.3-.2.4-.3v-2.8h-.6v-.9h2v4.2h.6v.9h-1.8l-.2-.8Z"/>
    <path class="cls-18" d="M330.7,385.6v1.3h.9v1h-.9v2.6c0,.2,0,.3.1.4s.2.1.3.1h.4v1c-.1,0-.2.1-.4.1h-.5c-.5,0-.8-.1-1.1-.4-.3-.3-.4-.7-.4-1.2v-2.6h-.8v-1h.8v-1.3h1.6Z"/>
    <path class="cls-18" d="M333.9,391.8c0,.3-.1.7-.3,1s-.4.7-.7.9l-.7-.4c.1-.2.2-.5.3-.7s.1-.5.1-.8v-1h1.2v1Z"/>
    <path class="cls-18" d="M338.8,392h-1.4v-1.2h1.4v1.2Z"/>
    <path class="cls-18" d="M341.2,392h-1.4v-1.2h1.4v1.2Z"/>
    <path class="cls-18" d="M343.7,392h-1.4v-1.2h1.4v1.2Z"/>
  </g>
  <g class="cls-25">
    <path class="cls-18" d="M237.1,146.3h1v5.6c0,.5-.1.9-.2,1.3-.1.4-.3.7-.6.9s-.5.4-.9.5c-.3.1-.7.2-1.1.2-1,0-1.7-.2-2.2-.7-.5-.4-.8-1.1-.8-2v-5.8h1v5.3c0,.4,0,.8.1,1.1s.2.5.4.7.4.3.6.4c.3.1.5.1.9.1.6,0,1.1-.2,1.4-.5.3-.4.4-.9.4-1.8v-5.3h0Z"/>
    <path class="cls-18" d="M243.5,154.7v-4.2c0-.2-.1-.4-.2-.6s-.2-.3-.3-.4-.3-.1-.6-.1-.7.1-.9.3-.4.5-.5.8v4.1h-1v-6h.7l.2.7h0c.2-.3.5-.5.8-.6.3-.2.7-.2,1.1-.2s.7.1.9.2.4.4.6.8c.2-.3.4-.6.8-.7s.7-.3,1.1-.3.6,0,.9.1c.2.1.4.2.6.4s.3.5.3.8.1.7.1,1.2v3.6h-1v-4.4c0-.2-.1-.4-.2-.5l-.3-.3c-.1-.1-.3-.1-.6-.1s-.7.1-.9.3-.4.5-.5,1v4h-1.1Z"/>
    <path class="cls-18" d="M254.3,155c0,.8-.2,1.3-.6,1.7s-1,.6-1.8.6-.9,0-1.2-.1-.5-.1-.8-.2l.3-.8c.2.1.4.1.6.2.2.1.5.1.9.1s.6,0,.8-.1.4-.2.5-.3.2-.3.3-.5c0-.2.1-.5.1-.8v-.6h0c-.2.2-.4.4-.6.5-.2.1-.6.2-1,.2-.8,0-1.4-.3-1.8-.8-.4-.5-.6-1.3-.6-2.4s.2-1.8.7-2.3,1.2-.8,2.2-.8.8,0,1.2.1c.3.1.6.2.9.3v6h0ZM251.9,154c.4,0,.7-.1,1-.3s.4-.5.5-1v-3.1c-.3-.2-.7-.2-1.2-.2s-1,.2-1.3.6c-.3.4-.5.9-.5,1.7s0,.6.1.9c.1.3.1.5.3.7.1.2.3.4.5.5s.3.2.6.2Z"/>
    <path class="cls-18" d="M260.6,154.2c-.2.2-.5.3-.9.5-.4.1-.8.2-1.2.2s-.9-.1-1.2-.2c-.3-.1-.6-.4-.8-.6-.2-.3-.4-.6-.5-1s-.2-.8-.2-1.3c0-1,.2-1.8.7-2.3s1.1-.8,2-.8.5,0,.8.1.5.2.7.3c.2.2.4.4.5.7s.2.7.2,1.2,0,.6-.1.9h-3.9c0,.4,0,.7.1.9.1.3.2.5.3.7.2.2.4.3.6.4.2.1.5.1.9.1s.5,0,.8-.1.5-.2.6-.3l.6.6ZM258.5,149.4c-.5,0-.9.1-1.1.4-.3.2-.5.7-.5,1.3h3c0-.6-.1-1-.3-1.3-.3-.3-.7-.4-1.1-.4Z"/>
    <path class="cls-18" d="M262.3,146.3h1v3h0c.2-.2.4-.4.7-.5s.6-.2.9-.2c.8,0,1.4.2,1.7.7.4.5.6,1.3.6,2.3s-.3,1.8-.8,2.4c-.5.5-1.2.8-2.2.8s-.9,0-1.2-.1c-.4-.1-.6-.2-.8-.3v-8.1h0ZM264.8,149.4c-.4,0-.7.1-1,.3s-.4.5-.5.9v3c.2.1.3.2.6.2s.4.1.7.1c.5,0,1-.2,1.3-.6.3-.4.5-1,.5-1.8s0-.6-.1-.9c-.1-.3-.1-.5-.3-.7-.1-.2-.3-.3-.5-.5s-.5,0-.7,0Z"/>
    <path class="cls-18" d="M269.6,148.7v3.4c0,.3,0,.6.1.8,0,.2.1.4.2.6s.2.3.4.4.3.1.6.1.4,0,.6-.1.3-.2.5-.3c.1-.1.2-.3.3-.4.1-.2.2-.3.2-.5v-4h1v5.2c0,.3.1.6.1.8h-.7l-.2-.9h-.1c-.2.3-.4.6-.7.8s-.7.3-1.2.3-.6,0-.8-.1c-.2-.1-.4-.2-.6-.4s-.3-.5-.4-.8-.1-.7-.1-1.2v-3.6h.8Z"/>
    <path class="cls-18" d="M279.1,154.7v-3.4c0-.6-.1-1.1-.3-1.4-.2-.3-.5-.5-1-.5s-.8.1-1.1.3c-.3.2-.5.5-.6.9v4.1h-1v-6h.7l.2.7h0c.2-.3.5-.5.8-.6.3-.2.7-.2,1.2-.2s.6,0,.9.1c.2.1.5.2.6.4s.3.5.4.8.1.7.1,1.2v3.6h-.9Z"/>
    <path class="cls-18" d="M286.4,155c0,.8-.2,1.3-.6,1.7s-1,.6-1.8.6-.9,0-1.2-.1c-.3-.1-.5-.1-.8-.2l.3-.8c.2.1.4.1.6.2.2.1.5.1.9.1s.6,0,.8-.1c.2-.1.4-.2.5-.3s.2-.3.3-.5c0-.2.1-.5.1-.8v-.6h0c-.2.2-.4.4-.6.5s-.6.2-1,.2c-.8,0-1.4-.3-1.8-.8s-.6-1.3-.6-2.4.2-1.8.7-2.3,1.2-.8,2.2-.8.8,0,1.2.1.6.2.9.3v6h-.1ZM284,154c.4,0,.7-.1,1-.3.2-.2.4-.5.5-1v-3.1c-.3-.2-.7-.2-1.2-.2s-1,.2-1.3.6-.5.9-.5,1.7,0,.6.1.9c.1.3.1.5.3.7.1.2.3.4.5.5.1.1.3.2.6.2Z"/>
    <path class="cls-18" d="M290.9,153.1c0-.2-.1-.4-.2-.6-.1-.1-.3-.3-.5-.3-.2-.1-.4-.2-.7-.3s-.5-.2-.7-.3-.4-.3-.5-.5-.2-.5-.2-.8c0-.6.2-1,.5-1.3s.8-.4,1.4-.4.8,0,1.1.1c.3.1.5.2.8.3l-.2.8c-.2-.1-.4-.2-.7-.2-.3-.1-.5-.1-.8-.1s-.6.1-.8.2-.2.3-.2.6.1.4.2.5.3.2.5.3.4.2.7.3.5.2.7.3.4.3.5.5.2.5.2.9,0,.5-.1.7-.2.4-.4.6c-.2.2-.4.3-.7.4-.3.1-.6.1-.9.1-.5,0-.8,0-1.2-.1-.3-.1-.6-.2-.8-.3l.3-.8c.2.1.4.2.7.3.3.1.6.1.9.1s.6-.1.9-.2c.1-.2.2-.5.2-.8Z"/>
    <path class="cls-18" d="M295,152.2l.3,1.1h0l.3-1.2,1.3-3.5h1l-2.6,6.1h-.4l-2.6-6.1h1.1l1.6,3.6Z"/>
    <path class="cls-18" d="M299,149.2c.3-.2.7-.3,1.1-.4s.8-.1,1.3-.1.8.1,1,.2.4.3.6.4c.1.2.2.4.3.6,0,.2.1.4.1.6v3.5c0,.2.1.5.1.7h-.7l-.3-.8h-.1c-.1.1-.2.2-.3.3-.1.1-.2.2-.4.3s-.3.2-.5.2c-.2.1-.4.1-.7.1s-.5,0-.7-.1l-.6-.3c-.2-.1-.3-.3-.4-.5s-.1-.4-.1-.7.1-.6.2-.9c.1-.2.3-.4.6-.6.3-.1.6-.2.9-.3.4-.1.8-.1,1.2-.1h.6v-.6c0-.4-.1-.7-.3-.9-.2-.2-.5-.3-1-.3h-.4c-.2,0-.3,0-.5.1s-.3.1-.5.1-.3.1-.4.2v-.7ZM300.7,154c.2,0,.4,0,.6-.1s.3-.1.5-.2c.1-.1.2-.2.3-.3.1-.1.1-.2.2-.3v-1h-1.3c-.2,0-.4.1-.6.2s-.3.2-.4.3-.2.3-.2.5c0,.3.1.5.3.7,0,.1.3.2.6.2Z"/>
    <path class="cls-18" d="M307.9,149.6c-.2-.1-.5-.1-.7-.1-.3,0-.6.1-.8.3-.2.2-.3.4-.4.7v4.2h-1v-6h.7l.2.7h0c.2-.3.3-.5.5-.6s.5-.2.8-.2.5,0,.8.1v.9Z"/>
    <path class="cls-18" d="M309.1,146.9c0-.2.1-.3.2-.5.1-.1.3-.2.5-.2s.4.1.5.2.2.3.2.5-.1.3-.2.5-.3.2-.5.2-.4-.1-.5-.2c-.1-.2-.2-.3-.2-.5ZM309.3,148.7h1v6h-1v-6Z"/>
    <path class="cls-18" d="M312.2,149.2c.3-.2.7-.3,1.1-.4.4-.1.8-.1,1.3-.1s.8.1,1,.2.4.3.6.4c.1.2.2.4.3.6,0,.2.1.4.1.6v3.5c0,.3.1.5.1.7h-.7l-.3-.8h-.1c-.1.1-.2.2-.3.3-.1.1-.2.2-.4.3-.2.1-.3.2-.5.2-.2.1-.4.1-.7.1s-.5,0-.7-.1l-.6-.3c-.2-.1-.3-.3-.4-.5s-.1-.4-.1-.7.1-.6.2-.9c.1-.2.3-.4.6-.6.3-.1.6-.2.9-.3.4-.1.8-.1,1.2-.1h.6v-.6c0-.4-.1-.7-.3-.9-.2-.2-.5-.3-1-.3h-.4c-.2,0-.3,0-.5.1s-.3.1-.5.1c-.1.1-.3.1-.4.2v-.7ZM313.9,154c.2,0,.4,0,.6-.1s.3-.1.5-.2c.1-.1.2-.2.3-.3.1-.1.1-.2.2-.3v-1h-1.3c-.2,0-.4.1-.6.2-.2.1-.3.2-.4.3s-.2.3-.2.5c0,.3.1.5.3.7.1.1.3.2.6.2Z"/>
    <path class="cls-18" d="M318.3,146.3h1v3h0c.2-.2.4-.4.7-.5.3-.1.6-.2.9-.2.8,0,1.4.2,1.7.7.4.5.6,1.3.6,2.3s-.3,1.8-.8,2.4-1.2.8-2.2.8-.9,0-1.2-.1-.6-.2-.8-.3v-8.1h0ZM320.7,149.4c-.4,0-.7.1-1,.3s-.4.5-.5.9v3c.2.1.3.2.6.2s.4.1.7.1c.5,0,1-.2,1.3-.6.3-.4.5-1,.5-1.8s0-.6-.1-.9c-.1-.3-.1-.5-.3-.7-.1-.2-.3-.3-.5-.5s-.4,0-.7,0Z"/>
    <path class="cls-18" d="M325.8,153.2c0,.3,0,.5.1.6s.2.2.4.2h.3c.1,0,.3-.1.4-.1v.8c0,.1-.2.1-.4.2s-.4.1-.6.1c-.4,0-.7-.1-.9-.3-.2-.2-.3-.5-.3-1v-7.2h1v6.7Z"/>
    <path class="cls-18" d="M332.6,154.2c-.2.2-.5.3-.9.5-.4.1-.8.2-1.2.2s-.9-.1-1.2-.2c-.3-.1-.6-.4-.8-.6-.2-.3-.4-.6-.5-1s-.2-.8-.2-1.3c0-1,.2-1.8.7-2.3s1.1-.8,2-.8.5,0,.8.1.5.2.7.3.4.4.5.7.2.7.2,1.2,0,.6-.1.9h-3.9c0,.4,0,.7.1.9.1.3.2.5.3.7.2.2.4.3.6.4.2.1.5.1.9.1s.5,0,.8-.1.5-.2.6-.3l.6.6ZM330.6,149.4c-.5,0-.8.1-1.1.4s-.5.7-.5,1.3h3c0-.6-.1-1-.3-1.3-.4-.3-.7-.4-1.1-.4Z"/>
    <path class="cls-18" d="M338.2,154.7v-3.4c0-.6-.1-1.1-.3-1.4-.2-.3-.5-.5-1-.5s-.8.1-1,.3c-.3.2-.5.5-.6.9v4.1h-1v-6h.7l.2.7h0c.2-.3.5-.5.8-.6.3-.2.7-.2,1.2-.2s.6,0,.9.1c.2.1.5.2.6.4s.3.5.4.8.1.7.1,1.2v3.6h-1Z"/>
  </g>
  <g class="cls-25">
    <path class="cls-18" d="M236.3,166.8h-3.1l-.8,2.3h-1l3.2-8.5h.5l3.2,8.5h-1.1l-.9-2.3ZM233.5,165.9h2.5l-.9-2.6-.3-1.3h0l-.3,1.3-1,2.6Z"/>
    <path class="cls-18" d="M242,164c-.2-.1-.5-.1-.7-.1-.3,0-.6.1-.8.3s-.3.4-.4.7v4.2h-1v-6h.7l.2.7h0c.2-.3.3-.5.5-.6s.5-.2.8-.2.5,0,.8.1v.9Z"/>
    <path class="cls-18" d="M247.9,169.4c0,.8-.2,1.3-.6,1.7s-1,.6-1.8.6-.9,0-1.2-.1-.5-.1-.8-.2l.3-.8c.2.1.4.1.6.2.2.1.5.1.9.1s.6,0,.8-.1.4-.2.5-.3.2-.3.3-.5c0-.2.1-.5.1-.8v-.6h0c-.2.2-.4.4-.6.5-.2.1-.6.2-1,.2-.8,0-1.4-.3-1.8-.8-.4-.5-.6-1.3-.6-2.4s.2-1.8.7-2.3,1.2-.8,2.2-.8.8,0,1.2.1c.3.1.6.2.9.3v6h0ZM245.5,168.4c.4,0,.7-.1,1-.3s.4-.5.5-1v-3.1c-.3-.2-.7-.2-1.2-.2s-1,.2-1.3.6c-.3.4-.5.9-.5,1.7s0,.6.1.9c.1.3.1.5.3.7.1.2.3.4.5.5s.3.2.6.2Z"/>
    <path class="cls-18" d="M250.6,163.1v3.4c0,.3,0,.6.1.8,0,.2.1.4.2.6s.2.3.4.4c.2.1.3.1.6.1s.4,0,.6-.1.3-.2.5-.3c.1-.1.2-.3.3-.4s.2-.3.2-.5v-4h1v5.2c0,.3.1.6.1.8h-.7l-.2-.9h-.1c-.2.3-.4.6-.7.8s-.7.3-1.2.3-.6,0-.8-.1-.4-.2-.6-.4c-.2-.2-.3-.5-.4-.8-.1-.3-.1-.7-.1-1.2v-3.6h.8Z"/>
    <path class="cls-18" d="M259.7,169.1v-4.2c0-.2-.1-.4-.2-.6s-.2-.3-.3-.4c-.1-.1-.3-.1-.6-.1s-.7.1-.9.3c-.2.2-.4.5-.5.8v4.1h-1v-6h.7l.2.7h0c.2-.3.5-.5.8-.6.3-.2.7-.2,1.1-.2s.7.1.9.2.4.4.6.8c.2-.3.4-.6.8-.7s.7-.3,1.1-.3.6,0,.9.1c.2.1.4.2.6.4s.3.5.3.8c.1.3.1.7.1,1.2v3.6h-1v-4.4c0-.2-.1-.4-.2-.5s-.2-.2-.3-.3c-.1-.1-.3-.1-.6-.1s-.7.1-.9.3-.4.5-.5,1v4h-1.1Z"/>
    <path class="cls-18" d="M270.3,168.6c-.2.2-.5.3-.9.5-.4.1-.8.2-1.2.2s-.9-.1-1.2-.2c-.3-.1-.6-.4-.8-.6-.2-.3-.4-.6-.5-1s-.2-.8-.2-1.3c0-1,.2-1.8.7-2.3s1.1-.8,2-.8.5,0,.8.1.5.2.7.3c.2.2.4.4.5.7s.2.7.2,1.2,0,.6-.1.9h-3.9c0,.4,0,.7.1.9.1.3.2.5.3.7.2.2.3.3.6.4.2.1.5.1.9.1s.5,0,.8-.1.5-.2.6-.3l.6.6ZM268.2,163.8c-.5,0-.9.1-1.1.4-.3.2-.5.7-.5,1.3h3c0-.6-.1-1-.3-1.3-.3-.3-.6-.4-1.1-.4Z"/>
    <path class="cls-18" d="M275.9,169.1v-3.4c0-.6-.1-1.1-.3-1.4-.2-.3-.5-.5-1-.5s-.8.1-1,.3c-.3.2-.5.5-.6.9v4.1h-1v-6h.7l.2.7h0c.2-.3.4-.5.8-.6.3-.2.7-.2,1.2-.2s.6,0,.9.1c.2.1.5.2.6.4s.3.5.4.8.1.7.1,1.2v3.6h-1Z"/>
  </g>
  <g class="cls-25">
    <path class="cls-18" d="M277.8,163.1h.9v-1.2l1-.3v1.5h1.6v.8h-1.6v3.3c0,.4.1.7.2.9s.3.3.5.3.4,0,.5-.1.3-.1.5-.2l.2.7c-.2.1-.5.2-.7.3-.3.1-.5.1-.8.1-.5,0-.8-.1-1-.4-.2-.3-.3-.7-.3-1.4v-3.5h-.9v-.8h-.1Z"/>
  </g>
  <g class="cls-25">
    <path class="cls-18" d="M286.9,168.6c-.2.2-.5.3-.9.5-.4.1-.8.2-1.2.2s-.9-.1-1.2-.2c-.3-.1-.6-.4-.8-.6-.2-.3-.4-.6-.5-1s-.2-.8-.2-1.3c0-1,.2-1.8.7-2.3s1.1-.8,2-.8.5,0,.8.1.5.2.7.3.4.4.5.7.2.7.2,1.2,0,.6-.1.9h-3.9c0,.4,0,.7.1.9.1.3.2.5.3.7.2.2.3.3.6.4.2.1.5.1.9.1s.5,0,.8-.1.5-.2.6-.3l.6.6ZM284.8,163.8c-.5,0-.9.1-1.1.4-.3.2-.5.7-.5,1.3h3c0-.6-.1-1-.3-1.3-.3-.3-.6-.4-1.1-.4Z"/>
  </g>
  <g class="cls-25">
    <path class="cls-18" d="M236.1,181.4c0-.3-.1-.6-.3-.8s-.5-.4-.8-.6c-.3-.2-.6-.3-1-.5-.4-.1-.7-.3-1-.5s-.6-.5-.8-.8-.3-.7-.3-1.1c0-.7.2-1.2.7-1.6s1.1-.6,1.9-.6.9,0,1.3.1c.4.1.7.2.9.3l-.3.9c-.2-.1-.5-.2-.8-.3-.4-.1-.8-.1-1.2-.1s-.9.1-1.2.4c-.3.2-.4.5-.4.8s.1.6.3.8.5.4.8.6c.3.2.6.3,1,.5s.7.3,1,.6c.3.2.6.5.8.8s.3.7.3,1.1-.1.7-.2,1c-.1.3-.3.5-.6.7s-.5.4-.9.5-.8.2-1.2.2c-.6,0-1.1,0-1.5-.1s-.7-.2-.9-.3l.3-.9c.2.1.5.2.8.3.4.1.8.1,1.2.1s.5,0,.7-.1.4-.1.6-.3c.2-.1.3-.3.4-.4.3-.3.4-.5.4-.7Z"/>
    <path class="cls-18" d="M242.6,183.1c-.2.2-.5.3-.9.4-.3.1-.7.1-1,.1-.5,0-.9-.1-1.2-.2-.3-.1-.6-.4-.8-.6-.2-.3-.4-.6-.4-1-.1-.4-.1-.8-.1-1.3,0-1,.2-1.8.7-2.3.4-.5,1.1-.8,1.9-.8s.7,0,1,.1.5.1.7.3l-.3.8c-.2-.1-.4-.2-.6-.2-.2-.1-.5-.1-.7-.1-1.1,0-1.7.8-1.7,2.3s0,.6.1.9.2.5.3.7.3.4.6.5.5.2.8.2.5,0,.8-.1.4-.2.6-.3l.2.6Z"/>
    <path class="cls-18" d="M247.8,183.5v-3.4c0-.3,0-.6-.1-.8,0-.2-.1-.4-.2-.6-.1-.2-.2-.3-.4-.4s-.4-.1-.6-.1c-.4,0-.7.1-1,.4-.3.2-.5.6-.6.9v4h-1v-8.4h1v3.1h0c.2-.2.5-.4.8-.6.3-.1.7-.2,1.1-.2s.6,0,.9.1c.2.1.5.2.6.4.2.2.3.5.4.8.1.3.1.7.1,1.2v3.6h-1Z"/>
    <path class="cls-18" d="M251.6,182c0,.3,0,.5.1.6s.2.2.4.2h.3c.1,0,.3-.1.4-.1v.8c0,.1-.2.1-.4.2s-.4.1-.6.1c-.4,0-.7-.1-.9-.3s-.3-.5-.3-1v-7.2h1v6.7Z"/>
    <path class="cls-18" d="M254.9,177.5v3.4c0,.3,0,.6.1.8,0,.2.1.4.2.6s.2.3.4.4c.2.1.3.1.6.1s.4,0,.6-.1.3-.2.5-.3c.1-.1.2-.3.3-.4s.2-.3.2-.5v-4h1v5.2c0,.3.1.6.1.8h-.7l-.2-.9h-.1c-.2.3-.4.6-.7.8-.3.2-.7.3-1.2.3s-.6,0-.8-.1-.4-.2-.6-.4c-.2-.2-.3-.5-.4-.8-.1-.3-.1-.7-.1-1.2v-3.6h.8ZM254.6,175.7c0-.2.1-.3.2-.4s.3-.2.4-.2.3.1.4.2.2.3.2.4c0,.2-.1.3-.2.4s-.3.2-.4.2-.3-.1-.4-.2-.2-.3-.2-.4ZM256.9,175.7c0-.2.1-.3.2-.4.1-.1.3-.2.4-.2.2,0,.3.1.4.2.1.1.2.3.2.4,0,.2-.1.3-.2.4s-.3.2-.4.2c-.2,0-.3-.1-.4-.2s-.2-.3-.2-.4Z"/>
    <path class="cls-18" d="M263.1,181.9c0-.2-.1-.4-.2-.6-.1-.1-.3-.3-.5-.3-.2-.1-.4-.2-.7-.3s-.5-.2-.7-.3-.4-.3-.5-.5-.2-.5-.2-.8c0-.6.2-1,.5-1.3s.8-.4,1.4-.4.8,0,1.1.1c.3.1.5.2.8.3l-.2.8c-.2-.1-.4-.2-.7-.2-.3-.1-.5-.1-.8-.1s-.6.1-.8.2-.2.3-.2.6.1.4.2.5.3.2.5.3.4.2.7.3.5.2.7.3.4.3.5.5.2.5.2.9,0,.5-.1.7-.2.4-.4.6c-.2.2-.4.3-.7.4-.3.1-.6.1-.9.1-.5,0-.8,0-1.2-.1-.3-.1-.6-.2-.8-.3l.3-.8c.2.1.4.2.7.3.3.1.6.1.9.1s.6-.1.9-.2c.1-.2.2-.5.2-.8Z"/>
    <path class="cls-18" d="M268.2,181.9c0-.2-.1-.4-.2-.6-.1-.1-.3-.3-.5-.3-.2-.1-.4-.2-.7-.3s-.5-.2-.7-.3-.4-.3-.5-.5-.2-.5-.2-.8c0-.6.2-1,.5-1.3s.8-.4,1.4-.4.8,0,1.1.1c.3.1.5.2.8.3l-.2.8c-.2-.1-.4-.2-.7-.2-.3-.1-.5-.1-.8-.1s-.6.1-.8.2-.2.3-.2.6.1.4.2.5.3.2.5.3.4.2.7.3.5.2.7.3.4.3.5.5.2.5.2.9,0,.5-.1.7-.2.4-.4.6-.4.3-.7.4-.6.1-.9.1c-.5,0-.8,0-1.2-.1-.3-.1-.6-.2-.8-.3l.3-.8c.2.1.4.2.7.3.3.1.6.1.9.1s.6-.1.9-.2c.1-.2.2-.5.2-.8Z"/>
    <path class="cls-18" d="M275,183c-.2.2-.5.3-.9.5-.4.1-.8.2-1.2.2s-.9-.1-1.2-.2c-.3-.1-.6-.4-.8-.6-.2-.3-.4-.6-.5-1s-.2-.8-.2-1.3c0-1,.2-1.8.7-2.3s1.1-.8,2-.8.5,0,.8.1.5.2.7.3c.2.2.4.4.5.7s.2.7.2,1.2,0,.6-.1.9h-3.9c0,.4,0,.7.1.9.1.3.2.5.3.7.2.2.3.3.6.4.2.1.5.1.9.1s.5,0,.8-.1.5-.2.6-.3l.6.6ZM272.9,178.2c-.5,0-.9.1-1.1.4-.3.2-.5.7-.5,1.3h3c0-.6-.1-1-.3-1.3-.3-.3-.7-.4-1.1-.4Z"/>
    <path class="cls-18" d="M277.8,182c0,.3,0,.5.1.6s.2.2.4.2h.3c.1,0,.3-.1.4-.1v.8c0,.1-.2.1-.4.2s-.4.1-.6.1c-.4,0-.7-.1-.9-.3-.2-.2-.3-.5-.3-1v-7.2h1v6.7Z"/>
    <path class="cls-18" d="M284.8,181.4v1.1c0,.3,0,.7.1,1h-.6l-.2-.9h0c-.2.3-.4.5-.7.7-.3.2-.7.3-1.1.3-.8,0-1.4-.3-1.8-.8s-.6-1.3-.6-2.4.2-1.8.7-2.3,1.1-.8,2-.8h.7c.2,0,.4.1.6.2v-2.5h1v6.4h-.1ZM282.4,182.8c.4,0,.7-.1,1-.3.2-.2.4-.5.5-1v-3c-.1-.1-.3-.2-.5-.2s-.4-.1-.7-.1c-.6,0-1,.2-1.3.5-.3.4-.5.9-.5,1.7s0,.6.1.9c.1.3.1.5.3.7.1.2.3.4.5.5s.3.3.6.3Z"/>
    <path class="cls-18" d="M286.6,178c.3-.2.7-.3,1.1-.4s.8-.1,1.3-.1.8.1,1,.2.4.3.6.4c.1.2.2.4.3.6,0,.2.1.4.1.6v3.5c0,.2.1.5.1.7h-.7l-.3-.8h-.1c-.1.1-.2.2-.3.3-.1.1-.2.2-.4.3s-.3.2-.5.2c-.2.1-.4.1-.7.1s-.5,0-.7-.1l-.6-.3c-.2-.1-.3-.3-.4-.5s-.1-.4-.1-.7.1-.6.2-.9c.1-.2.3-.4.6-.6.3-.1.6-.2.9-.3.4-.1.8-.1,1.2-.1h.6v-.6c0-.4-.1-.7-.3-.9-.2-.2-.5-.3-1-.3h-.4c-.2,0-.3,0-.5.1s-.3.1-.5.1-.3.1-.4.2v-.7ZM288.3,182.8c.2,0,.4,0,.6-.1s.3-.1.5-.2c.1-.1.2-.2.3-.3.1-.1.1-.2.2-.3v-1h-1.3c-.2,0-.4.1-.6.2s-.3.2-.4.3-.2.3-.2.5c0,.3.1.5.3.7,0,.1.2.2.6.2Z"/>
  </g>
  <g class="cls-25">
    <path class="cls-18" d="M291.8,177.5h.9v-1.2l1-.3v1.5h1.6v.8h-1.6v3.3c0,.4.1.7.2.9s.3.3.5.3.4,0,.5-.1.3-.1.5-.2l.2.7c-.2.1-.5.2-.7.3-.3.1-.5.1-.8.1-.5,0-.8-.1-1-.4-.2-.3-.3-.7-.3-1.4v-3.5h-.9v-.8h-.1Z"/>
  </g>
  <g class="cls-25">
    <path class="cls-18" d="M300.9,183c-.2.2-.5.3-.9.5-.4.1-.8.2-1.2.2s-.9-.1-1.2-.2c-.3-.1-.6-.4-.8-.6-.2-.3-.4-.6-.5-1s-.2-.8-.2-1.3c0-1,.2-1.8.7-2.3s1.1-.8,2-.8.5,0,.8.1.5.2.7.3c.2.2.4.4.5.7s.2.7.2,1.2,0,.6-.1.9h-3.9c0,.4,0,.7.1.9.1.3.2.5.3.7.2.2.4.3.6.4.2.1.5.1.9.1s.5,0,.8-.1.5-.2.6-.3l.6.6ZM298.9,178.2c-.5,0-.9.1-1.1.4s-.5.7-.5,1.3h3c0-.6-.1-1-.3-1.3-.4-.3-.7-.4-1.1-.4Z"/>
    <path class="cls-18" d="M302.6,175.7c0-.2.1-.3.2-.5s.3-.2.5-.2.4.1.5.2c.1.1.2.3.2.5s-.1.3-.2.5c-.1.1-.3.2-.5.2s-.4-.1-.5-.2-.2-.3-.2-.5ZM302.8,177.5h1v6h-1v-6Z"/>
  </g>
  <g class="cls-25">
    <path class="cls-18" d="M295.4,311.6h-2.6v7.5h-1v-7.5h-2.6v-.9h6.2v.9Z"/>
  </g>
  <g class="cls-25">
    <path class="cls-18" d="M298.1,314.1c-.2-.1-.5-.1-.7-.1-.3,0-.6.1-.8.3s-.3.4-.4.7v4.2h-1v-6h.7l.2.7h0c.2-.3.3-.5.5-.6s.5-.2.8-.2.5,0,.8.1v.9Z"/>
    <path class="cls-18" d="M299.3,313.6c.3-.2.7-.3,1.1-.4s.8-.1,1.3-.1.8.1,1,.2c.3.1.4.3.6.4.1.2.2.4.3.6,0,.2.1.4.1.6v3.5c0,.3.1.5.1.7h-.7l-.3-.8h-.1l-.3.3c-.1.1-.2.2-.4.3-.2.1-.3.2-.5.2-.2.1-.4.1-.7.1s-.5,0-.7-.1-.4-.2-.6-.3c-.2-.1-.3-.3-.4-.5s-.1-.4-.1-.7.1-.6.2-.9c.1-.2.3-.4.6-.6.3-.1.6-.2.9-.3.4-.1.8-.1,1.2-.1h.6v-.6c0-.4-.1-.7-.3-.9s-.5-.3-1-.3h-.4c-.2,0-.3,0-.5.1s-.3.1-.5.1c-.1.1-.3.1-.4.2v-.7ZM301,318.4c.2,0,.4,0,.6-.1s.3-.1.5-.2l.3-.3c.1-.1.1-.2.2-.3v-1h-1.3c-.2,0-.4.1-.6.2s-.3.2-.4.3c-.1.1-.2.3-.2.5,0,.3.1.5.3.7,0,0,.3.2.6.2Z"/>
    <path class="cls-18" d="M309.2,319.1v-3.4c0-.6-.1-1.1-.3-1.4-.2-.3-.5-.5-1-.5s-.8.1-1.1.3c-.3.2-.5.5-.6.9v4.1h-1v-6h.7l.2.7h0c.2-.3.5-.5.8-.6.3-.2.7-.2,1.2-.2s.6,0,.9.1c.2.1.5.2.6.4s.3.5.4.8.1.7.1,1.2v3.6h-.9Z"/>
    <path class="cls-18" d="M314.5,317.5c0-.2-.1-.4-.2-.6-.1-.1-.3-.3-.5-.3s-.4-.2-.7-.3-.5-.2-.7-.3-.4-.3-.5-.5-.2-.5-.2-.8c0-.6.2-1,.5-1.3s.8-.4,1.4-.4.8,0,1.1.1c.3.1.5.2.8.3l-.2.8c-.2-.1-.4-.2-.7-.2-.3-.1-.5-.1-.8-.1s-.6.1-.8.2-.2.3-.2.6.1.4.2.5.3.2.5.3.4.2.7.3.5.2.7.3.4.3.5.5.2.5.2.9,0,.5-.1.7-.2.4-.4.6-.4.3-.7.4-.6.1-.9.1c-.5,0-.8,0-1.2-.1-.3-.1-.6-.2-.8-.3l.3-.8c.2.1.4.2.7.3s.6.1.9.1.6-.1.9-.2c.1-.2.2-.5.2-.8Z"/>
    <path class="cls-18" d="M316.9,313.1h.7l.2.7h0c.2-.3.4-.5.7-.6s.6-.2,1-.2c.8,0,1.4.2,1.8.7s.6,1.2.6,2.3-.1,1-.2,1.4-.3.7-.6,1c-.2.3-.5.5-.9.6-.3.2-.7.2-1.1.2s-.5,0-.7-.1-.4-.1-.6-.2v2.5h-1v-8.3h.1ZM319.4,313.8c-.4,0-.7.1-1,.3-.2.2-.4.5-.5,1v3c.1.1.3.2.5.3.2.1.4.1.7.1.6,0,1-.2,1.3-.6s.5-1,.5-1.8,0-.6-.1-.9-.1-.5-.3-.7c-.1-.2-.3-.3-.5-.4-.1-.2-.4-.3-.6-.3Z"/>
    <path class="cls-18" d="M323.3,313.6c.3-.2.7-.3,1.1-.4s.8-.1,1.3-.1.8.1,1,.2c.3.1.4.3.6.4.1.2.2.4.3.6,0,.2.1.4.1.6v3.5c0,.3.1.5.1.7h-.8l-.3-.8h-.1l-.3.3c-.1.1-.2.2-.4.3-.2.1-.3.2-.5.2-.2.1-.4.1-.7.1s-.5,0-.7-.1-.4-.2-.6-.3c-.2-.1-.3-.3-.4-.5s-.1-.4-.1-.7.1-.6.2-.9c.1-.2.3-.4.6-.6.3-.1.6-.2.9-.3.4-.1.8-.1,1.2-.1h.6v-.6c0-.4-.1-.7-.3-.9s-.5-.3-1-.3h-.4c-.2,0-.3,0-.5.1s-.3.1-.5.1c-.1.1-.3.1-.4.2v-.7ZM325,318.4c.2,0,.4,0,.6-.1s.3-.1.5-.2l.3-.3c.1-.1.1-.2.2-.3v-1h-1.3c-.2,0-.4.1-.6.2s-.3.2-.4.3c-.1.1-.2.3-.2.5,0,.3.1.5.3.7.1,0,.3.2.6.2Z"/>
    <path class="cls-18" d="M332.2,314.1c-.2-.1-.5-.1-.7-.1-.3,0-.6.1-.8.3s-.3.4-.4.7v4.2h-1v-6h.7l.2.7h0c.2-.3.3-.5.5-.6s.5-.2.8-.2.5,0,.8.1v.9Z"/>
    <path class="cls-18" d="M337.8,318.6c-.2.2-.5.3-.9.5-.4.1-.8.2-1.2.2s-.9-.1-1.2-.2c-.3-.1-.6-.4-.8-.6-.2-.3-.4-.6-.5-1s-.2-.8-.2-1.3c0-1,.2-1.8.7-2.3s1.1-.8,2-.8.5,0,.8.1.5.2.7.3.4.4.5.7c.1.3.2.7.2,1.2s0,.6-.1.9h-3.9c0,.4,0,.7.1.9.1.3.2.5.3.7.2.2.3.3.6.4.2.1.5.1.9.1s.5,0,.8-.1.5-.2.6-.3l.6.6ZM335.8,313.8c-.5,0-.9.1-1.1.4-.3.2-.5.7-.5,1.3h3c0-.6-.1-1-.3-1.3-.4-.3-.7-.4-1.1-.4Z"/>
    <path class="cls-18" d="M343.4,319.1v-3.4c0-.6-.1-1.1-.3-1.4-.2-.3-.5-.5-1-.5s-.8.1-1.1.3c-.3.2-.5.5-.6.9v4.1h-1v-6h.7l.2.7h0c.2-.3.5-.5.8-.6.3-.2.7-.2,1.2-.2s.6,0,.9.1c.2.1.5.2.6.4s.3.5.4.8.1.7.1,1.2v3.6h-.9Z"/>
  </g>
  <g class="cls-25">
    <path class="cls-18" d="M345.3,313.1h.9v-1.2l1-.3v1.5h1.6v.8h-1.6v3.3c0,.4.1.7.2.9.1.2.3.3.5.3s.4,0,.5-.1c.1,0,.3-.1.5-.2l.2.7c-.2.1-.5.2-.7.3-.3.1-.5.1-.8.1-.5,0-.8-.1-1-.4s-.3-.7-.3-1.4v-3.4h-.9v-.9h-.1Z"/>
  </g>
  <g class="cls-25">
    <path class="cls-18" d="M354.4,318.6c-.2.2-.5.3-.9.5-.4.1-.8.2-1.2.2s-.9-.1-1.2-.2c-.3-.1-.6-.4-.8-.6-.2-.3-.4-.6-.5-1s-.2-.8-.2-1.3c0-1,.2-1.8.7-2.3s1.1-.8,2-.8.5,0,.8.1.5.2.7.3.4.4.5.7c.1.3.2.7.2,1.2s0,.6-.1.9h-3.9c0,.4,0,.7.1.9.1.3.2.5.3.7.2.2.3.3.6.4.2.1.5.1.9.1s.5,0,.8-.1.5-.2.6-.3l.6.6ZM352.4,313.8c-.5,0-.9.1-1.1.4-.3.2-.5.7-.5,1.3h3c0-.6-.1-1-.3-1.3-.4-.3-.7-.4-1.1-.4Z"/>
  </g>
  <g class="cls-25">
    <path class="cls-18" d="M361.3,316.5l.3,1.3h0l.3-1.3,2-5.7h1l-3.2,8.5h-.4l-3.2-8.5h1.1l2.1,5.7Z"/>
  </g>
  <g class="cls-25">
    <path class="cls-18" d="M369.5,318.6c-.2.2-.5.3-.9.5-.4.1-.8.2-1.2.2s-.9-.1-1.2-.2c-.3-.1-.6-.4-.8-.6-.2-.3-.4-.6-.5-1s-.2-.8-.2-1.3c0-1,.2-1.8.7-2.3s1.1-.8,2-.8.5,0,.8.1.5.2.7.3c.2.2.4.4.5.7.1.3.2.7.2,1.2s0,.6-.1.9h-3.9c0,.4,0,.7.1.9.1.3.2.5.3.7.2.2.4.3.6.4s.5.1.9.1.5,0,.8-.1.5-.2.6-.3l.6.6ZM367.4,313.8c-.5,0-.9.1-1.1.4s-.5.7-.5,1.3h3c0-.6-.1-1-.3-1.3-.3-.3-.6-.4-1.1-.4Z"/>
    <path class="cls-18" d="M374,314.1c-.2-.1-.5-.1-.7-.1-.3,0-.6.1-.8.3s-.3.4-.4.7v4.2h-1v-6h.7l.2.7h0c.2-.3.3-.5.5-.6s.5-.2.8-.2.5,0,.8.1v.9Z"/>
    <path class="cls-18" d="M377.9,317.5c0-.2-.1-.4-.2-.6-.1-.1-.3-.3-.5-.3s-.4-.2-.7-.3-.5-.2-.7-.3-.4-.3-.5-.5-.2-.5-.2-.8c0-.6.2-1,.5-1.3s.8-.4,1.4-.4.8,0,1.1.1c.3.1.5.2.8.3l-.2.8c-.2-.1-.4-.2-.7-.2-.3-.1-.5-.1-.8-.1s-.6.1-.8.2-.2.3-.2.6.1.4.2.5.3.2.5.3.4.2.7.3.5.2.7.3.4.3.5.5.2.5.2.9,0,.5-.1.7-.2.4-.4.6-.4.3-.7.4-.6.1-.9.1c-.5,0-.8,0-1.2-.1-.3-.1-.6-.2-.8-.3l.3-.8c.2.1.4.2.7.3s.6.1.9.1.6-.1.9-.2c.1-.2.2-.5.2-.8Z"/>
    <path class="cls-18" d="M384.4,318.7c-.2.2-.5.3-.9.4-.3.1-.7.1-1,.1-.5,0-.9-.1-1.2-.2-.3-.1-.6-.4-.8-.6-.2-.3-.4-.6-.4-1s-.1-.8-.1-1.3c0-1,.2-1.8.7-2.3s1.1-.8,1.9-.8.7,0,1,.1.5.1.7.3l-.3.8c-.2-.1-.4-.2-.6-.2-.2-.1-.5-.1-.7-.1-1.1,0-1.7.8-1.7,2.3s0,.6.1.9.2.5.3.7c.1.2.3.4.6.5.2.1.5.2.8.2s.5,0,.8-.1c.2-.1.4-.2.6-.3l.2.6Z"/>
    <path class="cls-18" d="M389.6,319.1v-3.4c0-.3,0-.6-.1-.8,0-.2-.1-.4-.2-.6s-.2-.3-.4-.4-.4-.1-.6-.1c-.4,0-.7.1-1,.4-.3.2-.5.6-.6.9v4h-1v-8.4h1v3.1h0c.2-.2.5-.4.8-.6s.7-.2,1.1-.2.6,0,.9.1c.2.1.5.2.6.4s.3.5.4.8.1.7.1,1.2v3.6h-1Z"/>
    <path class="cls-18" d="M393.4,317.7c0,.3,0,.5.1.6s.2.2.4.2h.3c.1,0,.3-.1.4-.1v.8c0,.1-.2.1-.4.2-.2,0-.4.1-.6.1-.4,0-.7-.1-.9-.3s-.3-.5-.3-1v-7.2h1v6.7Z"/>
    <path class="cls-18" d="M396.7,313.1v3.4c0,.3,0,.6.1.8,0,.2.1.4.2.6s.2.3.4.4c.2.1.3.1.6.1s.4,0,.6-.1.3-.2.5-.3.2-.3.3-.4c.1-.2.2-.3.2-.5v-4h1v5.2c0,.3.1.6.1.8h-.7l-.2-.9h-.1c-.2.3-.4.6-.7.8-.3.2-.7.3-1.2.3s-.6,0-.8-.1c-.2-.1-.4-.2-.6-.4s-.3-.5-.4-.8-.1-.7-.1-1.2v-3.6h.8ZM396.4,311.3c0-.2.1-.3.2-.4s.3-.2.4-.2.3.1.4.2.2.3.2.4c0,.2-.1.3-.2.4s-.3.2-.4.2-.3-.1-.4-.2c-.1,0-.2-.2-.2-.4ZM398.7,311.3c0-.2.1-.3.2-.4s.3-.2.4-.2c.2,0,.3.1.4.2s.2.3.2.4c0,.2-.1.3-.2.4s-.3.2-.4.2c-.2,0-.3-.1-.4-.2-.1,0-.2-.2-.2-.4Z"/>
    <path class="cls-18" d="M404.9,317.5c0-.2-.1-.4-.2-.6-.1-.1-.3-.3-.5-.3s-.4-.2-.7-.3-.5-.2-.7-.3-.4-.3-.5-.5-.2-.5-.2-.8c0-.6.2-1,.5-1.3s.8-.4,1.4-.4.8,0,1.1.1c.3.1.5.2.8.3l-.2.8c-.2-.1-.4-.2-.7-.2-.3-.1-.5-.1-.8-.1s-.6.1-.8.2-.2.3-.2.6.1.4.2.5.3.2.5.3.4.2.7.3.5.2.7.3.4.3.5.5.2.5.2.9,0,.5-.1.7-.2.4-.4.6c-.2.2-.4.3-.7.4-.3.1-.6.1-.9.1-.5,0-.8,0-1.2-.1-.3-.1-.6-.2-.8-.3l.3-.8c.2.1.4.2.7.3s.6.1.9.1.6-.1.9-.2c.1-.2.2-.5.2-.8Z"/>
    <path class="cls-18" d="M410,317.5c0-.2-.1-.4-.2-.6-.1-.1-.3-.3-.5-.3s-.4-.2-.7-.3-.5-.2-.7-.3-.4-.3-.5-.5-.2-.5-.2-.8c0-.6.2-1,.5-1.3s.8-.4,1.4-.4.8,0,1.1.1c.3.1.5.2.8.3l-.2.8c-.2-.1-.4-.2-.7-.2-.3-.1-.5-.1-.8-.1s-.6.1-.8.2-.2.3-.2.6.1.4.2.5.3.2.5.3.4.2.7.3.5.2.7.3.4.3.5.5.2.5.2.9,0,.5-.1.7-.2.4-.4.6c-.2.2-.4.3-.7.4-.3.1-.6.1-.9.1-.5,0-.8,0-1.2-.1-.3-.1-.6-.2-.8-.3l.3-.8c.2.1.4.2.7.3s.6.1.9.1.6-.1.9-.2c.1-.2.2-.5.2-.8Z"/>
    <path class="cls-18" d="M416.8,318.6c-.2.2-.5.3-.9.5-.4.1-.8.2-1.2.2s-.9-.1-1.2-.2c-.3-.1-.6-.4-.8-.6-.2-.3-.4-.6-.5-1s-.2-.8-.2-1.3c0-1,.2-1.8.7-2.3s1.1-.8,2-.8.5,0,.8.1.5.2.7.3c.2.2.4.4.5.7.1.3.2.7.2,1.2s0,.6-.1.9h-3.9c0,.4,0,.7.1.9.1.3.2.5.3.7.2.2.4.3.6.4s.5.1.9.1.5,0,.8-.1.5-.2.6-.3l.6.6ZM414.7,313.8c-.5,0-.9.1-1.1.4s-.5.7-.5,1.3h3c0-.6-.1-1-.3-1.3-.3-.3-.7-.4-1.1-.4Z"/>
    <path class="cls-18" d="M419.6,317.7c0,.3,0,.5.1.6s.2.2.4.2h.3c.1,0,.3-.1.4-.1v.8c0,.1-.2.1-.4.2-.2,0-.4.1-.6.1-.4,0-.7-.1-.9-.3s-.3-.5-.3-1v-7.2h1v6.7Z"/>
    <path class="cls-18" d="M422.9,313.1v3.4c0,.3,0,.6.1.8s.1.4.2.6.2.3.4.4c.2.1.3.1.6.1s.4,0,.6-.1.3-.2.5-.3c.1-.1.2-.3.3-.4.1-.2.2-.3.2-.5v-4h1v5.2c0,.3.1.6.1.8h-.7l-.2-.9h-.1c-.2.3-.4.6-.7.8-.3.2-.7.3-1.2.3s-.6,0-.8-.1c-.2-.1-.4-.2-.6-.4-.2-.2-.3-.5-.4-.8s-.1-.7-.1-1.2v-3.6h.8Z"/>
    <path class="cls-18" d="M432.3,319.1v-3.4c0-.6-.1-1.1-.3-1.4-.2-.3-.5-.5-1-.5s-.8.1-1,.3c-.3.2-.5.5-.6.9v4.1h-1v-6h.7l.2.7h0c.2-.3.4-.5.8-.6.3-.2.7-.2,1.2-.2s.6,0,.9.1c.2.1.5.2.6.4s.3.5.4.8.1.7.1,1.2v3.6h-1Z"/>
    <path class="cls-18" d="M439.6,319.4c0,.8-.2,1.3-.6,1.7s-1,.6-1.8.6-.9,0-1.2-.1c-.3-.1-.5-.1-.8-.2l.3-.8c.2.1.4.1.6.2s.5.1.9.1.6,0,.8-.1c.2-.1.4-.2.5-.3.1-.1.2-.3.3-.5,0-.2.1-.5.1-.8v-.6h0c-.2.2-.4.4-.6.5s-.6.2-1,.2c-.8,0-1.4-.3-1.8-.8s-.6-1.3-.6-2.4.2-1.8.7-2.3,1.2-.8,2.2-.8.8,0,1.2.1.6.2.9.3v6h-.1ZM437.2,318.4c.4,0,.7-.1,1-.3.2-.2.4-.5.5-1v-3.1c-.3-.2-.7-.2-1.2-.2s-1,.2-1.3.6-.5.9-.5,1.7,0,.6.1.9.1.5.3.7c.1.2.3.4.5.5.1.2.3.2.6.2Z"/>
  </g>
  <g class="cls-25">
    <path class="cls-18" d="M291.6,331l.3,1.1h0l.3-1.2,1.3-3.5h1l-2.6,6.1h-.4l-2.6-6.1h1.1l1.6,3.6Z"/>
  </g>
  <g class="cls-25">
    <path class="cls-18" d="M295.2,330.5c0-1,.2-1.8.7-2.3s1.1-.8,2-.8.8.1,1.2.2.6.4.8.6c.2.3.4.6.5,1s.2.8.2,1.3c0,1-.2,1.8-.7,2.3s-1.1.8-2,.8-.8-.1-1.2-.2c-.3-.1-.6-.4-.8-.6-.2-.3-.4-.6-.5-1-.1-.4-.2-.8-.2-1.3ZM296.2,330.5c0,.3,0,.6.1.9s.2.5.3.7.3.4.5.5.5.2.8.2c1.1,0,1.6-.8,1.6-2.3s0-.6-.1-.9-.2-.5-.3-.7-.3-.4-.5-.5-.5-.2-.8-.2c-1.1,0-1.6.8-1.6,2.3Z"/>
    <path class="cls-18" d="M305.8,333.5v-3.4c0-.6-.1-1.1-.3-1.4-.2-.3-.5-.5-1-.5s-.8.1-1.1.3c-.3.2-.5.5-.6.9v4.1h-1v-6h.7l.2.7h0c.2-.3.5-.5.8-.6.3-.2.7-.2,1.2-.2s.6,0,.9.1c.2.1.5.2.6.4s.3.5.4.8.1.7.1,1.2v3.6h-.9Z"/>
    <path class="cls-18" d="M314.4,331.9c0-.2-.1-.4-.2-.6-.1-.1-.3-.3-.5-.3s-.4-.2-.7-.3-.5-.2-.7-.3-.4-.3-.5-.5-.2-.5-.2-.8c0-.6.2-1,.5-1.3s.8-.4,1.4-.4.8,0,1.1.1c.3.1.5.2.8.3l-.2.8c-.2-.1-.4-.2-.7-.2-.3-.1-.5-.1-.8-.1s-.6.1-.8.2-.2.3-.2.6.1.4.2.5.3.2.5.3.4.2.7.3.5.2.7.3.4.3.5.5.2.5.2.9,0,.5-.1.7-.2.4-.4.6c-.2.2-.4.3-.7.4-.3.1-.6.1-.9.1-.5,0-.8,0-1.2-.1-.3-.1-.6-.2-.8-.3l.3-.8c.2.1.4.2.7.3s.6.1.9.1.6-.1.9-.2c.1-.2.2-.4.2-.8Z"/>
    <path class="cls-18" d="M316,327.5h.9v-1.2l1-.3v1.5h1.6v.8h-1.6v3.3c0,.4.1.7.2.9.1.2.3.3.5.3s.4,0,.5-.1c.1,0,.3-.1.5-.2l.2.7c-.2.1-.5.2-.7.3-.3.1-.5.1-.8.1-.5,0-.8-.1-1-.4s-.3-.7-.3-1.4v-3.5h-1v-.8Z"/>
    <path class="cls-18" d="M325.5,331.5v1.1c0,.3,0,.7.1,1h-.6l-.2-.9h0c-.2.3-.4.5-.7.7-.3.2-.7.3-1.1.3-.8,0-1.4-.3-1.8-.8s-.6-1.3-.6-2.4.2-1.8.7-2.3,1.1-.8,2-.8h.7c.2,0,.4.1.6.2v-2.5h1v6.4h-.1ZM323,332.8c.4,0,.7-.1,1-.3s.4-.5.5-1v-3c-.1-.1-.3-.2-.5-.2s-.4-.1-.7-.1c-.6,0-1,.2-1.3.5-.3.4-.5.9-.5,1.7s0,.6.1.9.1.5.3.7.3.4.5.5c.1.3.4.3.6.3Z"/>
    <path class="cls-18" d="M327.3,325.7c0-.2.1-.3.2-.5s.3-.2.5-.2.4.1.5.2.2.3.2.5-.1.3-.2.5c-.1.1-.3.2-.5.2s-.4-.1-.5-.2-.2-.3-.2-.5ZM327.5,327.5h1v6h-1v-6Z"/>
    <path class="cls-18" d="M334.4,333.5v-3.4c0-.6-.1-1.1-.3-1.4-.2-.3-.5-.5-1-.5s-.8.1-1,.3c-.3.2-.5.5-.6.9v4.1h-1v-6h.7l.2.7h0c.2-.3.4-.5.8-.6.3-.2.7-.2,1.2-.2s.6,0,.9.1c.2.1.5.2.6.4s.3.5.4.8.1.7.1,1.2v3.6h-1Z"/>
  </g>
  <g class="cls-25">
    <path class="cls-18" d="M336.8,333c0-.2.1-.3.2-.5.1-.1.3-.2.5-.2s.5.1.6.3c.2.2.2.4.2.8s0,.5-.1.8-.2.4-.3.6c-.1.2-.3.3-.4.4-.2.1-.3.2-.5.2l-.3-.5c.3-.1.5-.3.6-.5s.2-.5.2-.7h-.2c-.2,0-.3-.1-.4-.2-.1,0-.1-.3-.1-.5Z"/>
  </g>
  <g class="cls-25">
    <path class="cls-18" d="M344.7,331.9c0-.2-.1-.4-.2-.6-.1-.1-.3-.3-.5-.3s-.4-.2-.7-.3-.5-.2-.7-.3-.4-.3-.5-.5-.2-.5-.2-.8c0-.6.2-1,.5-1.3s.8-.4,1.4-.4.8,0,1.1.1c.3.1.5.2.8.3l-.2.8c-.2-.1-.4-.2-.7-.2-.3-.1-.5-.1-.8-.1s-.6.1-.8.2-.2.3-.2.6.1.4.2.5.3.2.5.3.4.2.7.3.5.2.7.3.4.3.5.5.2.5.2.9,0,.5-.1.7-.2.4-.4.6c-.2.2-.4.3-.7.4-.3.1-.6.1-.9.1-.5,0-.8,0-1.2-.1-.3-.1-.6-.2-.8-.3l.3-.8c.2.1.4.2.7.3s.6.1.9.1.6-.1.9-.2c.1-.2.2-.4.2-.8Z"/>
    <path class="cls-18" d="M346.3,327.5h.9v-1.2l1-.3v1.5h1.6v.8h-1.6v3.3c0,.4.1.7.2.9.1.2.3.3.5.3s.4,0,.5-.1.3-.1.5-.2l.2.7c-.2.1-.5.2-.7.3-.3.1-.5.1-.8.1-.5,0-.8-.1-1-.4s-.3-.7-.3-1.4v-3.5h-.9v-.8h-.1Z"/>
    <path class="cls-18" d="M355.8,331.5v1.1c0,.3,0,.7.1,1h-.6l-.2-.9h0c-.2.3-.4.5-.7.7-.3.2-.7.3-1.1.3-.8,0-1.4-.3-1.8-.8s-.6-1.3-.6-2.4.2-1.8.7-2.3,1.2-.8,2-.8h.7c.2,0,.4.1.6.2v-2.5h1v6.4h-.1ZM353.4,332.8c.4,0,.7-.1,1-.3.2-.2.4-.5.5-1v-3c-.1-.1-.3-.2-.5-.2s-.4-.1-.7-.1c-.6,0-1,.2-1.3.5s-.5.9-.5,1.7,0,.6.1.9.1.5.3.7.3.4.5.5.3.3.6.3Z"/>
    <path class="cls-18" d="M357.3,330.5c0-1,.2-1.8.7-2.3s1.1-.8,2-.8.8.1,1.2.2.6.4.8.6c.2.3.4.6.5,1s.2.8.2,1.3c0,1-.2,1.8-.7,2.3s-1.1.8-2,.8-.8-.1-1.2-.2c-.3-.1-.6-.4-.8-.6-.2-.3-.4-.6-.5-1-.2-.4-.2-.8-.2-1.3ZM358.3,330.5c0,.3,0,.6.1.9s.2.5.3.7.3.4.5.5.5.2.8.2c1.1,0,1.6-.8,1.6-2.3s0-.6-.1-.9-.2-.5-.3-.7-.3-.4-.5-.5-.5-.2-.8-.2c-1.1,0-1.6.8-1.6,2.3Z"/>
    <path class="cls-18" d="M364.9,327.5v3.4c0,.3,0,.6.1.8s.1.4.2.6.2.3.4.4c.2.1.3.1.6.1s.4,0,.6-.1.3-.2.5-.3c.1-.1.2-.3.3-.4.1-.2.2-.3.2-.5v-4h1v5.2c0,.3.1.6.1.8h-.7l-.2-.9h-.1c-.2.3-.4.6-.7.8-.3.2-.7.3-1.2.3s-.6,0-.8-.1c-.2-.1-.4-.2-.6-.4-.2-.2-.3-.5-.4-.8s-.1-.7-.1-1.2v-3.6h.8Z"/>
  </g>
  <g class="cls-25">
    <path class="cls-18" d="M369.7,327.5h.9v-1.2l1-.3v1.5h1.6v.8h-1.6v3.3c0,.4.1.7.2.9.1.2.3.3.5.3s.4,0,.5-.1c.1,0,.3-.1.5-.2l.2.7c-.2.1-.5.2-.7.3-.3.1-.5.1-.8.1-.5,0-.8-.1-1-.4s-.3-.7-.3-1.4v-3.5h-.9v-.8h-.1Z"/>
  </g>
  <g class="cls-25">
    <path class="cls-18" d="M374.5,333c0-.2.1-.3.2-.5.1-.1.3-.2.5-.2s.5.1.6.3c.2.2.2.4.2.8s0,.5-.1.8c-.1.2-.2.4-.3.6-.1.2-.3.3-.4.4-.2.1-.3.2-.5.2l-.3-.5c.3-.1.5-.3.6-.5s.2-.5.2-.7h-.2c-.2,0-.3-.1-.4-.2-.1,0-.1-.3-.1-.5Z"/>
  </g>
  <g class="cls-25">
    <path class="cls-18" d="M382.4,331.9c0-.2-.1-.4-.2-.6-.1-.1-.3-.3-.5-.3s-.4-.2-.7-.3-.5-.2-.7-.3-.4-.3-.5-.5-.2-.5-.2-.8c0-.6.2-1,.5-1.3s.8-.4,1.4-.4.8,0,1.1.1c.3.1.5.2.8.3l-.2.8c-.2-.1-.4-.2-.7-.2-.3-.1-.5-.1-.8-.1s-.6.1-.8.2-.2.3-.2.6.1.4.2.5.3.2.5.3.4.2.7.3.5.2.7.3.4.3.5.5.2.5.2.9,0,.5-.1.7-.2.4-.4.6c-.2.2-.4.3-.7.4-.3.1-.6.1-.9.1-.5,0-.8,0-1.2-.1-.3-.1-.6-.2-.8-.3l.3-.8c.2.1.4.2.7.3s.6.1.9.1.6-.1.9-.2c.1-.2.2-.4.2-.8Z"/>
    <path class="cls-18" d="M384,327.5h.9v-1.2l1-.3v1.5h1.6v.8h-1.6v3.3c0,.4.1.7.2.9.1.2.3.3.5.3s.4,0,.5-.1.3-.1.5-.2l.2.7c-.2.1-.5.2-.7.3-.3.1-.5.1-.8.1-.5,0-.8-.1-1-.4s-.3-.7-.3-1.4v-3.5h-1v-.8Z"/>
    <path class="cls-18" d="M393.5,331.5v1.1c0,.3,0,.7.1,1h-.6l-.2-.9h0c-.2.3-.4.5-.7.7-.3.2-.7.3-1.1.3-.8,0-1.4-.3-1.8-.8s-.6-1.3-.6-2.4.2-1.8.7-2.3,1.2-.8,2-.8h.7c.2,0,.4.1.6.2v-2.5h1v6.4h-.1ZM391.1,332.8c.4,0,.7-.1,1-.3.2-.2.4-.5.5-1v-3c-.1-.1-.3-.2-.5-.2s-.4-.1-.7-.1c-.6,0-1,.2-1.3.5s-.5.9-.5,1.7,0,.6.1.9.1.5.3.7.3.4.5.5.3.3.6.3Z"/>
    <path class="cls-18" d="M399.7,333c-.2.2-.5.3-.9.5-.4.1-.8.2-1.2.2s-.9-.1-1.2-.2c-.3-.1-.6-.4-.8-.6-.2-.3-.4-.6-.5-1s-.2-.8-.2-1.3c0-1,.2-1.8.7-2.3s1.1-.8,2-.8.5,0,.8.1.5.2.7.3c.2.2.4.4.5.7.1.3.2.7.2,1.2s0,.6-.1.9h-3.7c0,.4,0,.7.1.9.1.3.2.5.3.7.2.2.4.3.6.4s.5.1.9.1.5,0,.8-.1.5-.2.6-.3l.4.6ZM397.7,328.2c-.5,0-.9.1-1.1.4s-.5.7-.5,1.3h3c0-.6-.1-1-.3-1.3-.4-.3-.7-.4-1.1-.4Z"/>
    <path class="cls-18" d="M404.3,328.5c-.2-.1-.5-.1-.7-.1-.3,0-.6.1-.8.3s-.3.4-.4.7v4.2h-1v-6h.7l.2.7h0c.2-.3.3-.5.5-.6s.5-.2.8-.2.5,0,.8.1v.9Z"/>
    <path class="cls-18" d="M408.3,328.5c-.2-.1-.5-.1-.7-.1-.3,0-.6.1-.8.3s-.3.4-.4.7v4.2h-1v-6h.7l.2.7h0c.2-.3.3-.5.5-.6s.5-.2.8-.2.5,0,.8.1v.9Z"/>
  </g>
  <g class="cls-25">
    <path class="cls-18" d="M72,311.6h-2.6v7.5h-1v-7.5h-2.6v-.9h6.2v.9Z"/>
  </g>
  <g class="cls-25">
    <path class="cls-18" d="M74.7,314.1c-.2-.1-.5-.1-.7-.1-.3,0-.6.1-.8.3-.2.2-.3.4-.4.7v4.2h-1v-6h.7l.2.7h0c.2-.3.3-.5.5-.6s.5-.2.8-.2.5,0,.8.1v.9Z"/>
    <path class="cls-18" d="M75.9,313.6c.3-.2.7-.3,1.1-.4s.8-.1,1.3-.1.8.1,1,.2c.3.1.4.3.6.4,0,.2.2.4.3.6,0,.2,0,.4,0,.6v3.5c0,.3,0,.5,0,.7h-.7l-.3-.8h0c0,.1-.2.2-.3.3,0,.1-.2.2-.4.3-.2.1-.3.2-.5.2-.2.1-.4.1-.7.1s-.5,0-.7-.1-.4-.2-.6-.3c-.2-.1-.3-.3-.4-.5s0-.4,0-.7,0-.6.2-.9c0-.2.3-.4.6-.6.3-.1.6-.2.9-.3.4-.1.8-.1,1.2-.1h.6v-.6c0-.4,0-.7-.3-.9-.2-.2-.5-.3-1-.3h-.4c-.2,0-.3,0-.5.1s-.3.1-.5.1c0,.1-.3.1-.4.2v-.7ZM77.6,318.4c.2,0,.4,0,.6-.1s.3-.1.5-.2c0-.1.2-.2.3-.3,0-.1,0-.2.2-.3v-1h-1.3c-.2,0-.4.1-.6.2s-.3.2-.4.3c0,.1-.2.3-.2.5,0,.3,0,.5.3.7,0,0,.3.2.6.2Z"/>
    <path class="cls-18" d="M85.8,319.1v-3.4c0-.6,0-1.1-.3-1.4-.2-.3-.5-.5-1-.5s-.8.1-1.1.3c-.3.2-.5.5-.6.9v4.1h-1v-6h.7l.2.7h0c.2-.3.5-.5.8-.6.3-.2.7-.2,1.2-.2s.6,0,.9.1c.2.1.5.2.6.4s.3.5.4.8,0,.7,0,1.2v3.6h-.9Z"/>
    <path class="cls-18" d="M91.1,317.5c0-.2,0-.4-.2-.6,0-.1-.3-.3-.5-.3s-.4-.2-.7-.3-.5-.2-.7-.3-.4-.3-.5-.5-.2-.5-.2-.8c0-.6.2-1,.5-1.3s.8-.4,1.4-.4.8,0,1.1.1c.3.1.5.2.8.3l-.2.8c-.2-.1-.4-.2-.7-.2-.3-.1-.5-.1-.8-.1s-.6.1-.8.2-.2.3-.2.6,0,.4.2.5.3.2.5.3.4.2.7.3.5.2.7.3.4.3.5.5.2.5.2.9,0,.5,0,.7-.2.4-.4.6-.4.3-.7.4-.6.1-.9.1c-.5,0-.8,0-1.2-.1-.3-.1-.6-.2-.8-.3l.3-.8c.2.1.4.2.7.3s.6.1.9.1.6-.1.9-.2c0-.2.2-.5.2-.8Z"/>
    <path class="cls-18" d="M93.6,313.1h.7l.2.7h0c.2-.3.4-.5.7-.6s.6-.2,1-.2c.8,0,1.4.2,1.8.7s.6,1.2.6,2.3,0,1-.2,1.4-.3.7-.6,1c-.2.3-.5.5-.9.6-.3.2-.7.2-1.1.2s-.5,0-.7-.1-.4-.1-.6-.2v2.5h-1v-8.3h0ZM96,313.8c-.4,0-.7.1-1,.3-.2.2-.4.5-.5,1v3c0,.1.3.2.5.3.2.1.4.1.7.1.6,0,1-.2,1.3-.6s.5-1,.5-1.8,0-.6,0-.9,0-.5-.3-.7c0-.2-.3-.3-.5-.4,0-.2-.3-.3-.6-.3Z"/>
    <path class="cls-18" d="M100,313.6c.3-.2.7-.3,1.1-.4s.8-.1,1.3-.1.8.1,1,.2c.3.1.4.3.6.4,0,.2.2.4.3.6,0,.2,0,.4,0,.6v3.5c0,.3,0,.5,0,.7h-.7l-.3-.8h0c0,.1-.2.2-.3.3,0,.1-.2.2-.4.3-.2.1-.3.2-.5.2-.2.1-.4.1-.7.1s-.5,0-.7-.1-.4-.2-.6-.3c-.2-.1-.3-.3-.4-.5s0-.4,0-.7,0-.6.2-.9c0-.2.3-.4.6-.6.3-.1.6-.2.9-.3.4-.1.8-.1,1.2-.1h.6v-.6c0-.4,0-.7-.3-.9-.2-.2-.5-.3-1-.3h-.4c-.2,0-.3,0-.5.1s-.3.1-.5.1c0,.1-.3.1-.4.2v-.7ZM101.7,318.4c.2,0,.4,0,.6-.1s.3-.1.5-.2c0-.1.2-.2.3-.3,0-.1,0-.2.2-.3v-1h-1.3c-.2,0-.4.1-.6.2s-.3.2-.4.3c0,.1-.2.3-.2.5,0,.3,0,.5.3.7,0,0,.2.2.6.2Z"/>
    <path class="cls-18" d="M108.8,314.1c-.2-.1-.5-.1-.7-.1-.3,0-.6.1-.8.3-.2.2-.3.4-.4.7v4.2h-1v-6h.7l.2.7h0c.2-.3.3-.5.5-.6s.5-.2.8-.2.5,0,.8.1v.9Z"/>
    <path class="cls-18" d="M114.5,318.6c-.2.2-.5.3-.9.5-.4.1-.8.2-1.2.2s-.9-.1-1.2-.2c-.3-.1-.6-.4-.8-.6-.2-.3-.4-.6-.5-1s-.2-.8-.2-1.3c0-1,.2-1.8.7-2.3s1.1-.8,2-.8.5,0,.8.1.5.2.7.3.4.4.5.7c0,.3.2.7.2,1.2s0,.6,0,.9h-3.9c0,.4,0,.7,0,.9,0,.3.2.5.3.7.2.2.3.3.6.4.2.1.5.1.9.1s.5,0,.8-.1.5-.2.6-.3l.6.6ZM112.4,313.8c-.5,0-.9.1-1.1.4-.3.2-.5.7-.5,1.3h3c0-.6,0-1-.3-1.3-.3-.3-.7-.4-1.1-.4Z"/>
    <path class="cls-18" d="M120,319.1v-3.4c0-.6,0-1.1-.3-1.4-.2-.3-.5-.5-1-.5s-.8.1-1.1.3c-.3.2-.5.5-.6.9v4.1h-1v-6h.7l.2.7h0c.2-.3.5-.5.8-.6.3-.2.7-.2,1.2-.2s.6,0,.9.1c.2.1.5.2.6.4s.3.5.4.8,0,.7,0,1.2v3.6h-.9Z"/>
  </g>
  <g class="cls-25">
    <path class="cls-18" d="M122,313.1h.9v-1.2l1-.3v1.5h1.6v.8h-1.6v3.3c0,.4,0,.7.2.9s.3.3.5.3.4,0,.5-.1c0,0,.3-.1.5-.2l.2.7c-.2.1-.5.2-.7.3-.3.1-.5.1-.8.1-.5,0-.8-.1-1-.4s-.3-.7-.3-1.4v-3.4h-1v-.9Z"/>
  </g>
  <g class="cls-25">
    <path class="cls-18" d="M131.1,318.6c-.2.2-.5.3-.9.5-.4.1-.8.2-1.2.2s-.9-.1-1.2-.2-.6-.4-.8-.6c-.2-.3-.4-.6-.5-1s-.2-.8-.2-1.3c0-1,.2-1.8.7-2.3s1.1-.8,2-.8.5,0,.8.1.5.2.7.3.4.4.5.7c.1.3.2.7.2,1.2s0,.6-.1.9h-3.9c0,.4,0,.7,0,.9,0,.3.2.5.3.7.2.2.3.3.6.4.2.1.5.1.9.1s.5,0,.8-.1.5-.2.6-.3l.6.6ZM129,313.8c-.5,0-.9.1-1.1.4-.3.2-.5.7-.5,1.3h3c0-.6-.1-1-.3-1.3-.3-.3-.7-.4-1.1-.4Z"/>
  </g>
  <g class="cls-25">
    <path class="cls-18" d="M16,325.1c.2,0,.3,0,.5-.1h1.7c.7,0,1.3.1,1.7.3.5.2.9.5,1.2.9.3.4.6.8.7,1.3.2.5.2,1.1.2,1.7s-.1,1.1-.2,1.6-.4,1-.7,1.4c-.3.4-.7.7-1.2,1-.5.2-1.1.4-1.9.4h-2.1v-8.5h0ZM18.3,325.9h-1.2v6.7h1c.6,0,1-.1,1.4-.3.4-.2.7-.4.9-.8s.4-.7.5-1.1.1-.9.1-1.3,0-.8-.1-1.2c-.1-.4-.2-.8-.5-1.1-.2-.3-.5-.6-.9-.8s-.7-.1-1.2-.1Z"/>
    <path class="cls-18" d="M23.7,328c.3-.2.7-.3,1.1-.4s.8-.1,1.3-.1.8.1,1,.2.4.3.6.4c.1.2.2.4.3.6,0,.2.1.4.1.6v3.5c0,.3.1.5.1.7h-.7l-.3-.8h-.2c-.1.1-.2.2-.3.3-.1.1-.2.2-.4.3-.2.1-.3.2-.5.2-.2.1-.4.1-.7.1s-.5,0-.7-.1-.4-.2-.6-.3c-.2-.1-.3-.3-.4-.5s-.1-.4-.1-.7.1-.6.2-.9c.1-.2.3-.4.6-.6.3-.1.6-.2.9-.3.4-.1.8-.1,1.2-.1h.6v-.6c0-.4-.1-.7-.3-.9s-.5-.3-1-.3h-.4c-.2,0-.3,0-.5.1s-.3.1-.5.1c-.1.1-.3.1-.4.2v-.7ZM25.4,332.8c.2,0,.4,0,.6-.1s.3-.1.5-.2c.1-.1.2-.2.3-.3.1-.1.1-.2.2-.3v-1h-1.3c-.2,0-.4.1-.6.2s-.3.2-.4.3c-.1.1-.2.3-.2.5,0,.3.1.5.3.7,0,.1.3.2.6.2Z"/>
  </g>
  <g class="cls-25">
    <path class="cls-18" d="M28.9,327.5h.9v-1.2l1-.3v1.5h1.6v.8h-1.6v3.3c0,.4.1.7.2.9s.3.3.5.3.4,0,.5-.1c.1,0,.3-.1.5-.2l.2.7c-.2.1-.5.2-.7.3-.3.1-.5.1-.8.1-.5,0-.8-.1-1-.4s-.3-.7-.3-1.4v-3.5h-.9v-.8h-.1Z"/>
  </g>
  <g class="cls-25">
    <path class="cls-18" d="M38.1,333c-.2.2-.5.3-.9.5-.4.1-.8.2-1.2.2s-.9-.1-1.2-.2-.6-.4-.8-.6c-.2-.3-.4-.6-.5-1s-.2-.8-.2-1.3c0-1,.2-1.8.7-2.3s1.1-.8,2-.8.5,0,.8.1.5.2.7.3c.2.2.4.4.5.7,0,.3.2.7.2,1.2s0,.6,0,.9h-3.9c0,.4,0,.7,0,.9,0,.3.2.5.3.7.2.2.4.3.6.4.2.1.5.1.9.1s.5,0,.8-.1.5-.2.6-.3l.6.6ZM36,328.2c-.5,0-.9.1-1.1.4-.3.2-.5.7-.5,1.3h3c0-.6,0-1-.3-1.3-.4-.3-.7-.4-1.1-.4Z"/>
    <path class="cls-18" d="M43.6,333.5v-3.4c0-.6,0-1.1-.3-1.4s-.5-.5-1-.5-.8.1-1.1.3c-.3.2-.5.5-.6.9v4.1h-1v-6h.7l.2.7h0c.2-.3.4-.5.8-.6.3-.2.7-.2,1.2-.2s.6,0,.9.1c.2.1.5.2.6.4s.3.5.4.8c0,.3,0,.7,0,1.2v3.6h-.9Z"/>
  </g>
  <g class="cls-25">
    <path class="cls-18" d="M46.1,329.6h2.9v.9h-2.9v-.9Z"/>
  </g>
  <g class="cls-25">
    <path class="cls-18" d="M52.6,330.9l.3,1.3h0l.3-1.3,2-5.7h1l-3.2,8.5h-.4l-3.2-8.5h1.1l2.1,5.7Z"/>
  </g>
  <g class="cls-25">
    <path class="cls-18" d="M60.8,333c-.2.2-.5.3-.9.5-.4.1-.8.2-1.2.2s-.9-.1-1.2-.2-.6-.4-.8-.6c-.2-.3-.4-.6-.5-1s-.2-.8-.2-1.3c0-1,.2-1.8.7-2.3s1.1-.8,2-.8.5,0,.8.1.5.2.7.3c.2.2.4.4.5.7,0,.3.2.7.2,1.2s0,.6,0,.9h-3.9c0,.4,0,.7,0,.9,0,.3.2.5.3.7.2.2.4.3.6.4.2.1.5.1.9.1s.5,0,.8-.1.5-.2.6-.3l.6.6ZM58.7,328.2c-.5,0-.9.1-1.1.4-.3.2-.5.7-.5,1.3h3c0-.6,0-1-.3-1.3-.3-.3-.6-.4-1.1-.4Z"/>
    <path class="cls-18" d="M65.4,328.5c-.2-.1-.5-.1-.7-.1-.3,0-.6.1-.8.3-.2.2-.3.4-.4.7v4.2h-1v-6h.7l.2.7h0c.2-.3.3-.5.5-.6s.5-.2.8-.2.5,0,.8.1v.9Z"/>
    <path class="cls-18" d="M69.2,331.9c0-.2,0-.4-.2-.6,0-.1-.3-.3-.5-.3s-.4-.2-.7-.3-.5-.2-.7-.3-.4-.3-.5-.5-.2-.5-.2-.8c0-.6.2-1,.5-1.3s.8-.4,1.4-.4.8,0,1.1.1c.3.1.5.2.8.3l-.2.8c-.2-.1-.4-.2-.7-.2-.3-.1-.5-.1-.8-.1s-.6.1-.8.2-.2.3-.2.6,0,.4.2.5.3.2.5.3.4.2.7.3.5.2.7.3.4.3.5.5.2.5.2.9,0,.5,0,.7-.2.4-.4.6c-.2.2-.4.3-.7.4-.3.1-.6.1-.9.1-.5,0-.8,0-1.2-.1s-.6-.2-.8-.3l.3-.8c.2.1.4.2.7.3s.6.1.9.1.6-.1.9-.2c0-.2.2-.4.2-.8Z"/>
    <path class="cls-18" d="M75.7,333.1c-.2.2-.5.3-.9.4-.3.1-.7.1-1,.1-.5,0-.9-.1-1.2-.2-.3-.1-.6-.4-.8-.6-.2-.3-.4-.6-.4-1,0-.4,0-.8,0-1.3,0-1,.2-1.8.7-2.3.4-.5,1.1-.8,1.9-.8s.7,0,1,.1.5.1.7.3l-.3.8c-.2-.1-.4-.2-.6-.2-.2-.1-.5-.1-.7-.1-1.1,0-1.7.8-1.7,2.3s0,.6,0,.9.2.5.3.7c0,.2.3.4.6.5s.5.2.8.2.5,0,.8-.1.4-.2.6-.3l.2.6Z"/>
    <path class="cls-18" d="M80.9,333.5v-3.4c0-.3,0-.6,0-.8,0-.2,0-.4-.2-.6s-.2-.3-.4-.4-.4-.1-.6-.1c-.4,0-.7.1-1,.4-.3.2-.5.6-.6.9v4h-1v-8.4h1v3.1h0c.2-.2.5-.4.8-.6.3-.1.7-.2,1.1-.2s.6,0,.9.1c.2.1.5.2.6.4.2.2.3.5.4.8s0,.7,0,1.2v3.6h-1Z"/>
    <path class="cls-18" d="M84.7,332.1c0,.3,0,.5,0,.6s.2.2.4.2h.3c0,0,.3-.1.4-.1v.8c0,.1-.2.1-.4.2s-.4.1-.6.1c-.4,0-.7-.1-.9-.3s-.3-.5-.3-1v-7.2h1v6.7Z"/>
    <path class="cls-18" d="M88,327.5v3.4c0,.3,0,.6,0,.8,0,.2,0,.4.2.6s.2.3.4.4c.2.1.3.1.6.1s.4,0,.6-.1.3-.2.5-.3c0-.1.2-.3.3-.4s.2-.3.2-.5v-4h1v5.2c0,.3,0,.6,0,.8h-.7l-.2-.9h0c-.2.3-.4.6-.7.8s-.7.3-1.2.3-.6,0-.8-.1c-.2-.1-.4-.2-.6-.4-.2-.2-.3-.5-.4-.8s0-.7,0-1.2v-3.6h.8ZM87.7,325.7c0-.2,0-.3.2-.4s.3-.2.4-.2.3.1.4.2.2.3.2.4c0,.2,0,.3-.2.4s-.3.2-.4.2-.3-.1-.4-.2-.2-.2-.2-.4ZM90,325.7c0-.2,0-.3.2-.4s.3-.2.4-.2c.2,0,.3.1.4.2s.2.3.2.4c0,.2,0,.3-.2.4s-.3.2-.4.2c-.2,0-.3-.1-.4-.2s-.2-.2-.2-.4Z"/>
    <path class="cls-18" d="M96.2,331.9c0-.2,0-.4-.2-.6,0-.1-.3-.3-.5-.3s-.4-.2-.7-.3-.5-.2-.7-.3-.4-.3-.5-.5-.2-.5-.2-.8c0-.6.2-1,.5-1.3s.8-.4,1.4-.4.8,0,1.1.1c.3.1.5.2.8.3l-.2.8c-.2-.1-.4-.2-.7-.2-.3-.1-.5-.1-.8-.1s-.6.1-.8.2-.2.3-.2.6,0,.4.2.5.3.2.5.3.4.2.7.3.5.2.7.3.4.3.5.5.2.5.2.9,0,.5,0,.7-.2.4-.4.6c-.2.2-.4.3-.7.4-.3.1-.6.1-.9.1-.5,0-.8,0-1.2-.1s-.6-.2-.8-.3l.3-.8c.2.1.4.2.7.3s.6.1.9.1.6-.1.9-.2c0-.2.2-.4.2-.8Z"/>
    <path class="cls-18" d="M101.3,331.9c0-.2,0-.4-.2-.6,0-.1-.3-.3-.5-.3s-.4-.2-.7-.3-.5-.2-.7-.3-.4-.3-.5-.5-.2-.5-.2-.8c0-.6.2-1,.5-1.3s.8-.4,1.4-.4.8,0,1.1.1c.3.1.5.2.8.3l-.2.8c-.2-.1-.4-.2-.7-.2-.3-.1-.5-.1-.8-.1s-.6.1-.8.2-.2.3-.2.6,0,.4.2.5.3.2.5.3.4.2.7.3.5.2.7.3.4.3.5.5.2.5.2.9,0,.5,0,.7-.2.4-.4.6c-.2.2-.4.3-.7.4-.3.1-.6.1-.9.1-.5,0-.8,0-1.2-.1s-.6-.2-.8-.3l.3-.8c.2.1.4.2.7.3s.6.1.9.1.6-.1.9-.2c0-.2.2-.4.2-.8Z"/>
    <path class="cls-18" d="M108.1,333c-.2.2-.5.3-.9.5-.4.1-.8.2-1.2.2s-.9-.1-1.2-.2c-.3-.1-.6-.4-.8-.6-.2-.3-.4-.6-.5-1s-.2-.8-.2-1.3c0-1,.2-1.8.7-2.3s1.1-.8,2-.8.5,0,.8.1.5.2.7.3c.2.2.4.4.5.7,0,.3.2.7.2,1.2s0,.6,0,.9h-3.9c0,.4,0,.7,0,.9,0,.3.2.5.3.7.2.2.4.3.6.4s.5.1.9.1.5,0,.8-.1.5-.2.6-.3l.6.6ZM106,328.2c-.5,0-.9.1-1.1.4-.3.2-.5.7-.5,1.3h3c0-.6,0-1-.3-1.3-.3-.3-.7-.4-1.1-.4Z"/>
    <path class="cls-18" d="M110.9,332.1c0,.3,0,.5,0,.6s.2.2.4.2h.3c0,0,.3-.1.4-.1v.8c0,.1-.2.1-.4.2s-.4.1-.6.1c-.4,0-.7-.1-.9-.3s-.3-.5-.3-1v-7.2h1v6.7Z"/>
    <path class="cls-18" d="M114.2,327.5v3.4c0,.3,0,.6,0,.8,0,.2,0,.4.2.6s.2.3.4.4c.2.1.3.1.6.1s.4,0,.6-.1.3-.2.5-.3c0-.1.2-.3.3-.4s.2-.3.2-.5v-4h1v5.2c0,.3,0,.6,0,.8h-.7l-.2-.9h0c-.2.3-.4.6-.7.8s-.7.3-1.2.3-.6,0-.8-.1c-.2-.1-.4-.2-.6-.4-.2-.2-.3-.5-.4-.8s0-.7,0-1.2v-3.6h.8Z"/>
    <path class="cls-18" d="M123.6,333.5v-3.4c0-.6,0-1.1-.3-1.4-.2-.3-.5-.5-1-.5s-.8.1-1.1.3c-.3.2-.5.5-.6.9v4.1h-1v-6h.7l.2.7h0c.2-.3.4-.5.8-.6.3-.2.7-.2,1.2-.2s.6,0,.9.1c.2.1.5.2.6.4s.3.5.4.8,0,.7,0,1.2v3.6h-.9Z"/>
    <path class="cls-18" d="M130.9,333.8c0,.8-.2,1.3-.6,1.7s-1,.6-1.8.6-.9,0-1.2-.1c-.3-.1-.5-.1-.8-.2l.3-.8c.2.1.4.1.6.2s.5.1.9.1.6,0,.8-.1.4-.2.5-.3c.1-.1.2-.3.3-.5,0-.2.1-.5.1-.8v-.6h0c-.2.2-.4.4-.6.5-.2.1-.6.2-1,.2-.8,0-1.4-.3-1.8-.8s-.6-1.3-.6-2.4.2-1.8.7-2.3,1.2-.8,2.2-.8.8,0,1.2.1c.3.1.6.2.9.3v6h0ZM128.5,332.8c.4,0,.7-.1,1-.3s.4-.5.5-1v-3.1c-.3-.2-.7-.2-1.2-.2s-1,.2-1.3.6-.5.9-.5,1.7,0,.6,0,.9,0,.5.3.7c0,.2.3.4.5.5.2.1.3.2.6.2Z"/>
  </g>
  <path class="cls-15" d="M374.5,210.1h115.7c2.8,0,5,2.2,5,5v65.5c0,2.8-2.2,5-5,5h-115.7c-2.8,0-5-2.2-5-5v-65.5c0-2.8,2.3-5,5-5Z"/>
  <path class="cls-6" d="M387.3,234.4h89.3c2.8,0,5,2.2,5,5v17.2c0,2.8-2.2,5-5,5h-89.3c-2.8,0-5-2.2-5-5v-17.2c0-2.8,2.2-5,5-5Z"/>
  <g class="cls-25">
    <path class="cls-11" d="M402.3,245.7h0l-2.1,5.8h-1.1l-2.1-5.8h0l.2,3.4v1.2l.8.2v.9h-3.2v-.9l.8-.2v-5.6l-.8-.2v-.9h2.8l2,5.8h0l2-5.8h2.9v.9l-.8.2v5.6l.8.2v.9h-3.2v-.9l.8-.2v-1.2l.2-3.4Z"/>
    <path class="cls-11" d="M405.1,250.6l.8-.2v-3.6l-.8-.2v-.9h2.4v4.7l.8.2v.9h-3.1v-.9h0ZM407.4,244.3h-1.6v-1.2h1.6v1.2Z"/>
    <path class="cls-11" d="M411.4,250.4c.3,0,.5-.1.7-.2.2-.2.3-.4.3-.7h1.4c0,.6-.2,1.1-.7,1.5s-1,.6-1.7.6-1.5-.3-2-.8-.7-1.3-.7-2.1v-.2c0-.9.2-1.6.7-2.1s1.2-.8,2.1-.8.9.1,1.3.2c.4.1.7.3.9.6v1.6h-1.3l-.3-.9c-.1-.1-.2-.1-.3-.2-.1,0-.2-.1-.4-.1-.4,0-.8.2-.9.5s-.3.7-.3,1.2v.2c0,.5.1.9.3,1.3.2.3.5.4.9.4Z"/>
  </g>
  <g class="cls-25">
    <path class="cls-11" d="M414.6,250.6l.8-.2v-3.6l-.8-.2v-.9h2.3v.8c.2-.3.4-.5.6-.7s.5-.3.7-.3h.5l-.2,1.4h-.6c-.2,0-.4,0-.6.1s-.3.2-.3.4v2.8l.8.2v.9h-3.1v-.7h0Z"/>
  </g>
  <g class="cls-25">
    <path class="cls-11" d="M419,248.6c0-.9.2-1.6.7-2.1.5-.6,1.2-.8,2-.8s1.5.3,2,.8.7,1.3.7,2.1h0c0,1-.2,1.7-.7,2.2s-1.2.8-2,.8-1.5-.3-2-.8-.7-1.3-.7-2.1h0ZM420.5,248.7c0,.5.1,1,.3,1.3.2.3.5.5.9.5s.7-.2.9-.5c.2-.3.3-.7.3-1.3h0c0-.6-.1-1-.3-1.4-.2-.3-.5-.5-.9-.5s-.7.2-.9.5c-.2.3-.3.7-.3,1.3h0Z"/>
    <path class="cls-11" d="M428.5,248.8h-3v-1.2h3v1.2Z"/>
    <path class="cls-11" d="M435.4,246.2h-1.2l-.2-1.1c-.1-.1-.3-.2-.6-.2-.3-.1-.5-.1-.8-.1s-.8.1-1,.3-.4.4-.4.7.1.5.4.7c.2.2.7.4,1.3.5.9.2,1.5.6,2,1,.4.4.7.9.7,1.6s-.3,1.2-.8,1.6c-.5.4-1.2.6-2.1.6s-1.2-.1-1.7-.3-.9-.5-1.2-.8v-1.6h1.2l.2,1.1.6.3c.3.1.6.1.9.1s.8-.1,1-.3.3-.4.3-.7-.1-.5-.3-.7c-.2-.2-.6-.4-1.1-.5-.9-.3-1.6-.6-2.1-1s-.7-.9-.7-1.5.3-1.2.8-1.6c.5-.4,1.2-.6,2-.6s1.1.1,1.6.3.9.4,1.2.7v1.5h0Z"/>
    <path class="cls-11" d="M439,251.6c-.8,0-1.5-.3-2-.8s-.8-1.2-.8-2v-.2c0-.9.2-1.6.7-2.1s1.1-.8,1.9-.8,1.4.2,1.8.7.7,1.1.7,1.9v.9h-3.5c0,.4.2.7.4.9s.5.4.9.4.6,0,.9-.1c.2-.1.5-.2.8-.3l.4,1c-.2.2-.6.3-.9.5-.4,0-.9,0-1.3,0ZM438.8,246.8c-.3,0-.5.1-.7.3s-.3.5-.3.9h1.9c0-.4-.1-.7-.2-.9,0-.2-.3-.3-.7-.3Z"/>
  </g>
  <g class="cls-25">
    <path class="cls-11" d="M442.2,250.6l.8-.2v-3.6l-.8-.2v-.9h2.3v.8c.2-.3.4-.5.6-.7s.5-.3.7-.3h.5l-.2,1.4h-.6c-.2,0-.4,0-.6.1s-.3.2-.3.4v2.8l.8.2v.9h-3.1v-.7h0Z"/>
  </g>
  <g class="cls-25">
    <path class="cls-11" d="M449.3,246.6h-.5c0,.1.8,2.7.8,2.7v.5h.1v-.5c.1,0,.9-2.6.9-2.6h-.6v-1h2.6v.9h-.5c0,.1-1.7,4.9-1.7,4.9h-1.5l-1.7-4.8h-.5v-1h2.6v.9h0Z"/>
    <path class="cls-11" d="M453,250.6l.8-.2v-3.6l-.8-.2v-.9h2.4v4.7l.8.2v.9h-3.2v-.9ZM455.3,244.3h-1.6v-1.2h1.6v1.2Z"/>
    <path class="cls-11" d="M459.3,250.4c.3,0,.5-.1.7-.2.2-.2.3-.4.3-.7h1.4c0,.6-.2,1.1-.7,1.5s-1,.6-1.7.6-1.5-.3-2-.8-.7-1.3-.7-2.1v-.2c0-.9.2-1.6.7-2.1.5-.6,1.2-.8,2.1-.8s.9.1,1.3.2c.4.1.7.3.9.6v1.6h-1.3l-.3-.9c-.1-.1-.2-.1-.3-.2-.1,0-.2-.1-.4-.1-.4,0-.8.2-.9.5s-.3.7-.3,1.2v.2c0,.5.1.9.3,1.3.2.3.5.4.9.4Z"/>
    <path class="cls-11" d="M465.2,251.6c-.8,0-1.5-.3-2-.8s-.8-1.2-.8-2v-.2c0-.9.2-1.6.7-2.1s1.1-.8,1.9-.8,1.4.2,1.8.7.7,1.1.7,1.9v.9h-3.5c0,.4.2.7.4.9s.5.4.9.4.6,0,.9-.1c.2-.1.5-.2.8-.3l.4,1c-.2.2-.6.3-.9.5-.4,0-.9,0-1.3,0ZM465,246.8c-.3,0-.5.1-.7.3s-.3.5-.3.9h1.9c0-.4-.1-.7-.2-.9,0-.2-.3-.3-.7-.3Z"/>
  </g>
  <g id="Scone_logo_white" data-name="Scone logo white">
    <g class="cls-10">
      <g class="cls-20">
        <g>
          <path class="cls-19" d="M418.1,272.1h-.8c-.2,0-.3.1-.3.3h0v.8c0,.2.1.3.3.3h.8c.2,0,.3-.1.3-.3h0v-.8c0-.1-.1-.3-.3-.3h0M415.5,273.5h.8c.2,0,.3-.1.3-.3h0v-.8c0-.2-.1-.3-.3-.3h-.8c-.2,0-.3.1-.3.3h0v.8c0,.2,0,.3.3.3h0M414.6,273.2v-.8c0-.2-.1-.3-.3-.3h-.8c-.2,0-.3.1-.3.3h0v.8c0,.2.1.3.3.3h.8c.2,0,.3-.1.3-.3h0M418.2,274c-.1,0-.2.1-.2.2h0v.9c0,.1.1.2.2.2s.2-.1.2-.2v-.9c0-.1-.1-.2-.2-.2h0M416.1,274.3v.8c0,.2.1.3.3.3h.8c.2,0,.3-.1.3-.3h0v-.8c0-.2-.1-.3-.3-.3h-.8c-.2,0-.3.2-.3.3h0M415.5,275.1v-.8c0-.2-.1-.3-.3-.3h-.8c-.2,0-.3.1-.3.3h0v.8c0,.2.1.3.3.3h.8c.2,0,.3-.1.3-.3h0M418.1,275.9h-.8c-.2,0-.3.1-.3.3h0v.8c0,.2.1.3.3.3h.8c.2,0,.3-.1.3-.3h0v-.8c0,0-.1-.3-.3-.3h0M416.1,275.9h-.8c-.2,0-.3.1-.3.3h0v.8c0,.2.1.3.3.3h.8c.2,0,.3-.1.3-.3h0v-.8c0,0-.1-.3-.3-.3h0"/>
          <path class="cls-19" d="M419,271.8c.3.3.8.4,1.2.4h0v2.1c0,.8-1,1.3-1.2,1.4h0v-3.9h0"/>
          <path class="cls-19" d="M416.7,271.7c1.6-.1,1.9-.6,1.9-.6h.2s.3.6,1.9.6c0,0,.1,0,.1.1v2.8c0,.9-1.7,1.9-1.7,1.9,0,0-.1,0-.1.1v.7h.1c.6-.3,2.3-1.3,2.3-2.5v-3.5s-.1-.1-.2-.1c-2,0-2.4-.7-2.4-.7h-.2s-.3.8-2.4.8-.1,0-.1.1v.4s0,.1.1.1.5-.1.5-.2"/>
          <path class="cls-16" d="M422.9,276.2l.8-.3c.2.4.6.6,1.1.6s.4,0,.6-.1.3-.3.3-.4c0-.4-.6-.7-1-.9h0c-.3-.1-.7-.3-1-.5s-.5-.6-.5-1,.2-.8.5-1c.3-.3.8-.4,1.2-.4.7,0,1.3.3,1.6.9l-.8.3-.3-.3c-.1-.1-.3-.1-.5-.1-.5,0-.8.3-.8.6s.1.4.3.5c.2.2.5.3.7.4h.1c.6.3,1.4.6,1.4,1.5s-.2.8-.6,1c-.4.3-.9.4-1.3.4-.6-.1-1.4-.6-1.8-1.2"/>
          <path class="cls-16" d="M430.2,277.3c-.3,0-.7-.1-1-.2s-.6-.3-.8-.5c-.2-.2-.4-.5-.5-.8-.3-.6-.3-1.4,0-2,.1-.3.3-.6.5-.8.2-.2.5-.4.8-.6.3-.1.7-.2,1-.2s.8.1,1.2.3c.4.2.7.4.9.8l-.7.5c-.2-.2-.4-.4-.6-.5s-.5-.2-.8-.2c-1,0-1.7.8-1.7,1.7s.8,1.7,1.7,1.7.6-.1.9-.3c.3-.2.5-.4.6-.6l.7.4c-.2.4-.5.7-.9,1-.4.2-.9.3-1.3.3"/>
          <path class="cls-16" d="M435.9,277.3c-.3,0-.7-.1-1-.2s-.6-.3-.8-.6c-.2-.2-.4-.5-.6-.8-.1-.3-.2-.7-.2-1s.1-.7.2-1c.3-.6.8-1.1,1.4-1.4s1.4-.3,2,0c.3.1.6.3.8.5.7.7,1,1.9.5,2.8-.1.3-.3.6-.5.8-.2.2-.5.4-.8.6-.4.3-.7.3-1,.3M435.9,273c-.5,0-.9.2-1.2.5-.3.3-.5.8-.5,1.2s.2.9.5,1.2c.3.3.8.5,1.2.5,1,0,1.7-.8,1.7-1.7s-.8-1.7-1.7-1.7"/>
          <polygon class="cls-16" points="444.3 272.2 444.3 277.4 440.7 274.1 440.7 277.2 439.8 277.2 439.8 272 443.4 275.3 443.4 272.2 444.3 272.2"/>
          <polygon class="cls-16" points="446.8 273 446.8 274.3 449.3 274.3 449.3 275.1 446.8 275.1 446.8 276.4 449.6 276.4 449.6 277.2 445.9 277.2 445.9 272.2 449.6 272.2 449.6 273 446.8 273"/>
        </g>
      </g>
    </g>
  </g>
  <path class="cls-14" d="M152.7,210.1h115.7c2.8,0,5,2.2,5,5v112.1c0,2.8-2.2,5-5,5h-115.7c-2.8,0-5-2.2-5-5v-112.1c0-2.8,2.2-5,5-5Z"/>
  <path class="cls-6" d="M165.5,234.4h89.3c2.8,0,5,2.2,5,5v17.2c0,2.8-2.2,5-5,5h-89.3c-2.8,0-5-2.2-5-5v-17.2c0-2.8,2.2-5,5-5Z"/>
  <g class="cls-25">
    <path class="cls-11" d="M180.4,245.7h0l-2.1,5.8h-1.1l-2.1-5.8h0l.2,3.4v1.2l.8.2v.9h-3.2v-.9l.8-.2v-5.6l-.8-.2v-.9h2.8l2,5.8h0l2-5.8h2.9v.9l-.8.2v5.6l.8.2v.9h-3.2v-.9l.8-.2v-1.2l.2-3.4Z"/>
    <path class="cls-11" d="M183.3,250.6l.8-.2v-3.6l-.8-.2v-.9h2.4v4.7l.8.2v.9h-3.1v-.9h0ZM185.6,244.3h-1.6v-1.2h1.6v1.2Z"/>
    <path class="cls-11" d="M189.6,250.4c.3,0,.5-.1.7-.2s.3-.4.3-.7h1.4c0,.6-.2,1.1-.7,1.5s-1,.6-1.7.6-1.5-.3-2-.8-.7-1.3-.7-2.1v-.2c0-.9.2-1.6.7-2.1.5-.6,1.2-.8,2.1-.8s.9.1,1.3.2c.4.1.7.3.9.6v1.6h-1.3l-.3-.9c-.1-.1-.2-.1-.3-.2s-.2-.1-.4-.1c-.4,0-.8.2-.9.5s-.3.7-.3,1.2v.2c0,.5.1.9.3,1.3.2.3.5.4.9.4Z"/>
  </g>
  <g class="cls-25">
    <path class="cls-11" d="M192.8,250.6l.8-.2v-3.6l-.8-.2v-.9h2.3v.8c.2-.3.4-.5.6-.7s.5-.3.7-.3h.5l-.2,1.4h-.6c-.2,0-.4,0-.6.1s-.3.2-.3.4v2.8l.8.2v.9h-3.1v-.7h0Z"/>
  </g>
  <g class="cls-25">
    <path class="cls-11" d="M197.2,248.6c0-.9.2-1.6.7-2.1.5-.6,1.2-.8,2-.8s1.5.3,2,.8c.5.6.7,1.3.7,2.1h0c0,1-.2,1.7-.7,2.2s-1.2.8-2,.8-1.5-.3-2-.8-.7-1.3-.7-2.1h0ZM198.7,248.7c0,.5.1,1,.3,1.3s.5.5.9.5.7-.2.9-.5.3-.7.3-1.3h0c0-.6-.1-1-.3-1.4s-.5-.5-.9-.5-.7.2-.9.5-.3.7-.3,1.3h0Z"/>
    <path class="cls-11" d="M206.7,248.8h-3v-1.2h3v1.2Z"/>
    <path class="cls-11" d="M213.6,246.2h-1.2l-.2-1.1c-.1-.1-.3-.2-.6-.2s-.5-.1-.8-.1-.8.1-1,.3-.4.4-.4.7.1.5.4.7c.2.2.7.4,1.3.5.9.2,1.5.6,2,1,.4.4.7.9.7,1.6s-.3,1.2-.8,1.6-1.2.6-2.1.6-1.2-.1-1.7-.3-.9-.5-1.2-.8v-1.6h1.2l.2,1.1c.2.1.4.2.6.3.3.1.6.1.9.1s.8-.1,1-.3.3-.4.3-.7-.1-.5-.3-.7-.6-.4-1.1-.5c-.9-.3-1.6-.6-2.1-1s-.7-.9-.7-1.5.3-1.2.8-1.6c.5-.4,1.2-.6,2-.6s1.1.1,1.6.3.9.4,1.2.7v1.5h0Z"/>
    <path class="cls-11" d="M217.2,251.6c-.8,0-1.5-.3-2-.8s-.8-1.2-.8-2v-.2c0-.9.2-1.6.7-2.1.5-.6,1.1-.8,1.9-.8s1.4.2,1.8.7.6,1.1.6,1.9v.9h-3.4c0,.4.2.7.4.9s.5.4.9.4.6,0,.9-.1c.2-.1.5-.2.8-.3l.4,1c-.2.2-.6.3-.9.5-.5,0-.9,0-1.3,0ZM217,246.8c-.3,0-.5.1-.7.3s-.3.5-.3.9h1.9c0-.4-.1-.7-.2-.9s-.4-.3-.7-.3Z"/>
  </g>
  <g class="cls-25">
    <path class="cls-11" d="M220.4,250.6l.8-.2v-3.6l-.8-.2v-.9h2.3v.8c.2-.3.4-.5.6-.7s.5-.3.7-.3h.5l-.2,1.4h-.6c-.2,0-.4,0-.6.1s-.3.2-.3.4v2.8l.8.2v.9h-3.1v-.7h0Z"/>
  </g>
  <g class="cls-25">
    <path class="cls-11" d="M227.4,246.6h-.5c0,.1.8,2.7.8,2.7v.5h.1v-.5c.1,0,.9-2.6.9-2.6h-.6v-1h2.6v.9h-.5c0,.1-1.7,4.9-1.7,4.9h-1.5l-1.7-4.8h-.5v-1h2.6v.9h0Z"/>
    <path class="cls-11" d="M231.2,250.6l.8-.2v-3.6l-.8-.2v-.9h2.4v4.7l.8.2v.9h-3.1v-.9h0ZM233.5,244.3h-1.6v-1.2h1.6v1.2Z"/>
    <path class="cls-11" d="M237.5,250.4c.3,0,.5-.1.7-.2s.3-.4.3-.7h1.4c0,.6-.2,1.1-.7,1.5s-1,.6-1.7.6-1.5-.3-2-.8-.7-1.3-.7-2.1v-.2c0-.9.2-1.6.7-2.1.5-.6,1.2-.8,2.1-.8s.9.1,1.3.2c.4.1.7.3.9.6v1.6h-1.3l-.3-.9c-.1-.1-.2-.1-.3-.2s-.2-.1-.4-.1c-.4,0-.8.2-.9.5s-.3.7-.3,1.2v.2c0,.5.1.9.3,1.3.2.3.5.4.9.4Z"/>
    <path class="cls-11" d="M243.4,251.6c-.8,0-1.5-.3-2-.8s-.8-1.2-.8-2v-.2c0-.9.2-1.6.7-2.1.5-.6,1.1-.8,1.9-.8s1.4.2,1.8.7.6,1.1.6,1.9v.9h-3.5c0,.4.2.7.4.9s.5.4.9.4.6,0,.9-.1c.2-.1.5-.2.8-.3l.4,1c-.2.2-.6.3-.9.5-.3,0-.8,0-1.2,0ZM243.2,246.8c-.3,0-.5.1-.7.3s-.3.5-.3.9h1.9c0-.4-.1-.7-.2-.9s-.4-.3-.7-.3Z"/>
  </g>
  <g id="Scone_logo_white-2" data-name="Scone logo white-2">
    <g class="cls-23">
      <g class="cls-22">
        <g>
          <path class="cls-19" d="M196.3,272.1h-.8c-.2,0-.3.1-.3.3h0v.8c0,.2.1.3.3.3h.8c.2,0,.3-.1.3-.3h0v-.8c0-.1-.1-.3-.3-.3h0M193.6,273.5h.8c.2,0,.3-.1.3-.3v-.8c0-.2-.1-.3-.3-.3h-.8c-.2,0-.3.1-.3.3h0v.8c0,.2.2.3.3.3h0M192.8,273.2v-.8c0-.2-.1-.3-.3-.3h-.8c-.2,0-.3.1-.3.3h0v.8c0,.2.1.3.3.3h.8c.2,0,.3-.1.3-.3h0M196.3,274c-.1,0-.2.1-.2.2h0v.9c0,.1.1.2.2.2s.2-.1.2-.2v-.9c.1-.1,0-.2-.2-.2q0,0,0,0M194.3,274.3v.8c0,.2.1.3.3.3h.8c.2,0,.3-.1.3-.3h0v-.8c0-.2-.1-.3-.3-.3h-.8c-.2,0-.3.2-.3.3h0M193.7,275.1v-.8c0-.2-.1-.3-.3-.3h-.8c-.2,0-.3.1-.3.3h0v.8c0,.2.1.3.3.3h.8c.2,0,.3-.1.3-.3M196.3,275.9h-.8c-.2,0-.3.1-.3.3h0v.8c0,.2.1.3.3.3h.8c.2,0,.3-.1.3-.3h0v-.8c0,0-.1-.3-.3-.3h0M194.3,275.9h-.8c-.2,0-.3.1-.3.3h0v.8c0,.2.1.3.3.3h.8c.2,0,.3-.1.3-.3h0v-.8c0,0-.1-.3-.3-.3h0"/>
          <path class="cls-19" d="M197.2,271.8c.3.3.8.4,1.2.4h0v2.1c0,.8-1,1.3-1.2,1.4h0v-3.9h0"/>
          <path class="cls-19" d="M194.9,271.7c1.6-.1,1.9-.6,1.9-.6h.2s.2.6,1.9.6.1,0,.1.1v2.8c0,.9-1.7,1.9-1.7,1.9,0,0-.1,0-.1.1v.7h.1c.6-.3,2.3-1.3,2.3-2.5v-3.5s-.1-.1-.2-.1c-2,0-2.4-.7-2.4-.7h-.2s-.3.8-2.4.8-.1,0-.1.1v.4s0,.1.1.1.5-.1.5-.2"/>
          <path class="cls-16" d="M201.1,276.2l.8-.3c.2.4.6.6,1.1.6s.4,0,.6-.1c.2-.1.3-.3.3-.4,0-.4-.6-.7-1-.9h0c-.3-.1-.7-.3-.9-.5-.3-.2-.5-.6-.5-1s.2-.8.5-1c.3-.3.8-.4,1.2-.4.7,0,1.3.3,1.6.9l-.9.3c-.1-.1-.2-.2-.3-.3-.1-.1-.3-.1-.5-.1-.5,0-.8.3-.8.6s.1.4.3.5c.2.2.5.3.7.4h.1c.6.3,1.4.6,1.4,1.5s-.2.8-.6,1c-.4.3-.9.4-1.3.4-.6-.1-1.4-.6-1.8-1.2"/>
          <path class="cls-16" d="M208.4,277.3c-.3,0-.7-.1-1-.2s-.6-.3-.8-.5-.4-.5-.6-.8c-.3-.6-.3-1.4,0-2s.8-1.1,1.4-1.4c.3-.1.7-.2,1-.2s.8.1,1.2.3c.3.2.7.4.9.8l-.7.5c-.2-.2-.4-.4-.6-.5-.2-.1-.5-.2-.8-.2-1,0-1.7.8-1.7,1.7s.8,1.7,1.7,1.7.6-.1.9-.3c.3-.2.5-.4.6-.6l.7.4c-.2.4-.5.7-.9,1-.4.2-.9.3-1.3.3"/>
          <path class="cls-16" d="M214,277.3c-.3,0-.7-.1-1-.2s-.6-.3-.8-.6c-.2-.2-.4-.5-.6-.8-.1-.3-.2-.7-.2-1s.1-.7.2-1c.1-.3.3-.6.6-.8.2-.2.5-.4.8-.5.6-.3,1.4-.3,2,0,.3.1.6.3.8.5s.4.5.6.8c.3.6.3,1.4,0,2-.1.3-.3.6-.6.8-.2.2-.5.4-.8.6s-.7.2-1,.2M214,273c-.5,0-.9.2-1.2.5s-.5.8-.5,1.2.2.9.5,1.2c.7.7,1.8.7,2.5,0s.7-1.8,0-2.5c-.4-.2-.8-.4-1.3-.4"/>
          <polygon class="cls-16" points="222.5 272.2 222.5 277.4 218.9 274.1 218.9 277.2 217.9 277.2 217.9 272 221.6 275.3 221.6 272.2 222.5 272.2"/>
          <polygon class="cls-16" points="225 273 225 274.3 227.5 274.3 227.5 275.1 225 275.1 225 276.4 227.8 276.4 227.8 277.2 224.1 277.2 224.1 272.2 227.8 272.2 227.8 273 225 273"/>
        </g>
      </g>
    </g>
  </g>
  <path class="cls-13" d="M152.7,26.4h115.7c2.8,0,5,2.2,5,5v78.7c0,2.8-2.2,5-5,5h-115.7c-2.8,0-5-2.2-5-5V31.4c0-2.8,2.2-5,5-5Z"/>
  <path class="cls-6" d="M165.5,46.4h89.3c2.8,0,5,2.2,5,5v32.3c0,2.8-2.2,5-5,5h-89.3c-2.8,0-5-2.2-5-5v-32.3c0-2.8,2.2-5,5-5Z"/>
  <g class="cls-25">
    <path class="cls-11" d="M174,63.6l.8-.2v-5.6l-.8-.2v-.9h3.2v.9l-.8.2v2.1h.7l1.5-2.2h-.5v-1h3.1v.9h-.8c0,0-1.9,2.7-1.9,2.7l2.2,3.1h.8v1h-3.1v-.9h.5c0,0-1.5-2.4-1.5-2.4h-.9v2.2l.8.2v.9h-3.3v-.8Z"/>
  </g>
  <g class="cls-25">
    <path class="cls-11" d="M181.7,61.6c0-.9.2-1.6.7-2.1.5-.6,1.2-.8,2-.8s1.5.3,2,.8c.5.6.7,1.3.7,2.1h0c0,1-.2,1.7-.7,2.2s-1.2.8-2,.8-1.5-.3-2-.8c-.5-.5-.7-1.3-.7-2.1h0ZM183.3,61.7c0,.5.1,1,.3,1.3s.5.5.9.5.7-.2.9-.5.3-.7.3-1.3h0c0-.6-.1-1-.3-1.4s-.5-.5-.9-.5-.7.2-.9.5-.3.7-.3,1.3h0Z"/>
    <path class="cls-11" d="M187.8,63.6l.8-.2v-3.6l-.8-.2v-.9h2.3v.8c.3-.3.5-.5.8-.7s.6-.2,1-.2c.6,0,1,.2,1.4.6.3.4.5.9.5,1.7v2.5l.8.2v.9h-3v-.9l.7-.2v-2.5c0-.4-.1-.7-.2-.8s-.4-.2-.7-.2-.4,0-.6,0-.3.2-.4.4v3.1l.6.2v.9h-3v-1h-.2Z"/>
    <path class="cls-11" d="M194.7,59.8v-1.1h.9v-.4c0-.7.2-1.3.7-1.7.4-.4,1.1-.6,1.9-.6s.6,0,.8,0,.6,0,.9.2l-.2,1.2c-.3,0-.5,0-.7-.2-.2,0-.5,0-.7,0-.4,0-.6,0-.8.2-.2.2-.3.4-.3.7v.4h3.5v4.7l.8.2v.9h-3.2v-.9l.8-.2v-3.6h-2v3.6l.8.2v.9h-3.2v-.9l.8-.2v-3.6h-.8v.2Z"/>
    <path class="cls-11" d="M202.1,61.7c0-.9.2-1.7.6-2.2.4-.6,1-.8,1.7-.8s.6,0,.9.2c.2,0,.5.4.6.6v-.7h1.5v5.6c0,.8-.2,1.4-.7,1.8-.5.5-1.1.7-2,.7s-.6,0-.9,0c-.3,0-.6-.2-.9-.3l.3-1.1c.3,0,.5.2.8.3s.5,0,.8,0,.7,0,.9-.3.3-.6.3-1v-.5c-.2.2-.4.4-.6.5-.2,0-.5.2-.8.2-.7,0-1.3-.3-1.7-.8-.4-.5-.6-1.2-.6-2.1h0c0,0-.2,0-.2,0ZM203.7,61.8c0,.5.1.9.3,1.2s.5.4.8.4.4,0,.6,0c.2,0,.3-.2.4-.4v-2.5c-.1-.2-.2-.3-.4-.4-.2,0-.4,0-.6,0-.4,0-.7.2-.8.5-.2.3-.3.8-.3,1.3h0Z"/>
    <path class="cls-11" d="M212.4,63.8c-.2.3-.4.5-.7.6s-.6.2-.9.2c-.6,0-1.1-.2-1.4-.6-.3-.4-.5-1-.5-1.8v-2.4l-.6-.2v-.9h2.2v3.5c0,.4.1.7.2.9.1.2.4.3.6.3s.5,0,.6,0c.2,0,.3-.2.4-.3v-3.1l-.7-.2v-.9h2.3v4.7l.7.2v.9h-2.1v-.8Z"/>
  </g>
  <g class="cls-25">
    <path class="cls-11" d="M215.3,63.6l.8-.2v-3.6l-.8-.2v-.9h2.3v.8c.2-.3.4-.5.6-.7s.5-.3.7-.3h.5l-.2,1.4h-.6c-.2,0-.4,0-.6,0s-.3.2-.3.4v2.8l.8.2v.9h-3.1v-.7h0Z"/>
  </g>
  <g class="cls-25">
    <path class="cls-11" d="M223.4,64.5c0,0-.1-.2-.1-.3s-.1-.2-.1-.3c-.2.2-.4.4-.7.5s-.6.2-.9.2c-.6,0-1-.2-1.4-.5-.3-.3-.5-.7-.5-1.3s.2-1,.7-1.3,1.1-.4,1.9-.4h.8v-.6c0-.3-.1-.5-.2-.6s-.4-.2-.7-.2-.3,0-.5,0-.3,0-.3,0v.6h-1.3v-1.3c.3-.2.6-.4,1-.5s.8-.2,1.2-.2c.7,0,1.3.2,1.8.5.4.4.7.9.7,1.5v3h.5v1h-1.9ZM222.1,63.5c.2,0,.5,0,.6-.2.2,0,.3-.2.5-.4v-.9h-.8c-.3,0-.6,0-.8.2-.2.2-.3.3-.3.6s.1.4.2.5c.2.1.3.2.6.2Z"/>
  </g>
  <g class="cls-25">
    <path class="cls-11" d="M227.6,57.3v1.4h1v1.1h-1v3c0,.2,0,.4.1.5s.2,0,.4,0h.6v1.1c0,0-.2,0-.4,0h-.6c-.5,0-1,0-1.2-.4-.3-.3-.4-.8-.4-1.4v-3h-.9v-1.1h.9v-1.4s1.5,0,1.5,0Z"/>
    <path class="cls-11" d="M229.4,63.6l.8-.2v-3.6l-.8-.2v-.9h2.4v4.7l.8.2v.9h-3.1v-.9h0ZM231.7,57.3h-1.6v-1.2h1.6v1.2Z"/>
    <path class="cls-11" d="M233,61.6c0-.9.2-1.6.7-2.1.5-.6,1.2-.8,2-.8s1.5.3,2,.8c.5.6.7,1.3.7,2.1h0c0,1-.2,1.7-.7,2.2s-1.2.8-2,.8-1.5-.3-2-.8c-.5-.5-.7-1.3-.7-2.1h0ZM234.5,61.7c0,.5.1,1,.3,1.3s.5.5.9.5.7-.2.9-.5.3-.7.3-1.3h0c0-.6-.1-1-.3-1.4-.2-.3-.5-.5-.9-.5s-.7.2-.9.5-.3.7-.3,1.3h0Z"/>
    <path class="cls-11" d="M239.1,63.6l.8-.2v-3.6l-.8-.2v-.9h2.3v.8c.3-.3.5-.5.8-.7s.6-.2,1-.2c.6,0,1,.2,1.4.6.3.4.5.9.5,1.7v2.5l.8.2v.9h-3v-.9l.7-.2v-2.5c0-.4-.1-.7-.2-.8-.2-.2-.4-.2-.7-.2s-.4,0-.6,0c-.2,0-.3.2-.4.4v3.1l.6.2v.9h-3v-1h-.2Z"/>
  </g>
  <g class="cls-25">
    <path class="cls-11" d="M172.6,75.6c0-.4.1-.8.3-1.1.2-.3.6-.6,1.1-1-.2-.3-.4-.6-.5-.9s-.2-.5-.2-.8c0-.6.2-1.1.6-1.5.4-.4.9-.6,1.6-.6s1,.2,1.4.5c.4.4.5.8.5,1.3s-.1.7-.3,1-.4.5-.7.8l-.5.4,1.5,1.7c.1-.2.2-.4.3-.7.1-.3.1-.5.1-.8h1.2c0,.5-.1.9-.2,1.4-.1.4-.3.8-.6,1.1l1.1,1.3h-1.7l-.4-.5c-.3.2-.6.3-.9.4s-.7,0-1,0c-.8,0-1.4-.2-1.9-.6s-.8-.8-.8-1.5ZM175.2,76.6c.2,0,.4,0,.6,0,.2,0,.4,0,.5-.2l-1.6-1.9h-.1c-.2.3-.3.4-.4.6-.1.2-.1.3-.1.5,0,.3.1.6.3.8s.5.3.8.3ZM174.7,71.8c0,.2,0,.3.1.5s.2.3.3.5l.5-.3c.2,0,.3-.3.4-.4.1,0,.1-.3.1-.4,0-.2-.1-.3-.2-.5-.1,0-.3-.2-.5-.2s-.4,0-.5.2c-.2.2-.2.4-.2.6Z"/>
  </g>
  <g class="cls-25">
    <path class="cls-11" d="M182.1,76.8h.6c0,0,2.4-6.9,2.4-6.9h1.6l2.4,6.8h.6v1h-2.7v-.9h.5c0,0-.3-1.2-.3-1.2h-2.5l-.3,1.1h.5v1h-2.7v-.9h-.1ZM185,74.5h1.8l-.9-2.8h0l-.9,2.8Z"/>
  </g>
  <g class="cls-25">
    <path class="cls-11" d="M191.8,70.5v1.4h1v1.1h-1v3c0,.2,0,.4.1.5s.2,0,.4,0h.6v1.1c0,0-.2,0-.4,0h-.6c-.5,0-1,0-1.2-.4-.3-.3-.4-.8-.4-1.4v-3h-.9v-1.1h.9v-1.4s1.5,0,1.5,0Z"/>
    <path class="cls-11" d="M195.9,70.5v1.4h1v1.1h-1v3c0,.2,0,.4.1.5s.2,0,.4,0h.6v1.1c0,0-.2,0-.4,0h-.6c-.5,0-1,0-1.2-.4-.3-.3-.4-.8-.4-1.4v-3h-.9v-1.1h.9v-1.4s1.5,0,1.5,0Z"/>
    <path class="cls-11" d="M200.5,77.8c-.8,0-1.5-.3-2-.8s-.8-1.2-.8-2v-.2c0-.9.2-1.6.7-2.1.5-.6,1.1-.8,1.9-.8s1.4.2,1.8.7.6,1.1.6,1.9v.9h-3.5c0,.4.2.7.4.9.2.2.5.4.9.4s.6,0,.9,0c.2,0,.5-.2.8-.3l.4,1c-.2.2-.6.3-.9.5h-1.2ZM200.4,73c-.3,0-.5,0-.7.3-.2.2-.3.5-.3.9h1.9c0-.4-.1-.7-.2-.9-.2-.2-.4-.3-.7-.3Z"/>
    <path class="cls-11" d="M208.3,73.9h-1.1l-.2-.7c-.1,0-.2-.2-.4-.2-.2,0-.3,0-.5,0-.3,0-.5,0-.7.2s-.2.3-.2.5.1.3.2.4.5.2.9.3c.7,0,1.3.4,1.6.6s.5.7.5,1.1-.2,1-.7,1.3c-.4.3-1,.5-1.8.5s-.9,0-1.2-.2c-.4,0-.7-.3-1-.6v-1.3h1.1l.2.8c.1,0,.2,0,.4.2.2,0,.3,0,.5,0,.3,0,.6,0,.7-.2.2,0,.2-.3.2-.5s-.1-.3-.3-.4-.5-.2-.9-.3c-.7,0-1.2-.3-1.5-.6-.3-.3-.5-.6-.5-1.1s.2-.9.6-1.3,1-.5,1.7-.5.9,0,1.3.2c.4,0,.7.3.9.5l.2,1.3Z"/>
    <path class="cls-11" d="M211.6,70.5v1.4h1v1.1h-1v3c0,.2,0,.4.1.5s.2,0,.4,0h.6v1.1c0,0-.2,0-.4,0h-.6c-.5,0-1,0-1.2-.4-.3-.3-.4-.8-.4-1.4v-3h-.9v-1.1h.9v-1.4s1.5,0,1.5,0Z"/>
    <path class="cls-11" d="M213.3,76.8l.8-.2v-3.6l-.8-.2v-.9h2.4v4.7l.8.2v.9h-3.1v-.9h0ZM215.6,70.5h-1.6v-1.2h1.6v1.2Z"/>
    <path class="cls-11" d="M219.7,77.8c-.8,0-1.5-.3-2-.8s-.8-1.2-.8-2v-.2c0-.9.2-1.6.7-2.1.5-.6,1.1-.8,1.9-.8s1.4.2,1.8.7.6,1.1.6,1.9v.9h-3.5c0,.4.2.7.4.9.2.2.5.4.9.4s.6,0,.9,0c.2,0,.5-.2.8-.3l.4,1c-.2.2-.6.3-.9.5h-1.2ZM219.5,73c-.3,0-.5,0-.7.3-.2.2-.3.5-.3.9h1.9c0-.4-.1-.7-.2-.9s-.4-.3-.7-.3Z"/>
    <path class="cls-11" d="M222.9,76.8l.8-.2v-3.6l-.8-.2v-.9h2.3v.8c.2-.3.4-.5.6-.7s.5-.3.7-.3h.5l-.2,1.4h-.6c-.2,0-.4,0-.6,0s-.3.2-.3.4v2.8l.8.2v.9h-3.1v-.7h0Z"/>
    <path class="cls-11" d="M231.4,77c-.2.3-.4.5-.7.6s-.6.2-.9.2c-.6,0-1.1-.2-1.4-.6-.3-.4-.5-1-.5-1.8v-2.4l-.6-.2v-.9h2.2v3.5c0,.4.1.7.2.9.1.2.4.3.6.3s.5,0,.6,0c.2,0,.3-.2.4-.3v-3.2l-.7-.2v-.9h2.3v4.7l.7.2v.9h-2.1v-.7Z"/>
  </g>
  <g class="cls-25">
    <path class="cls-11" d="M234.2,76.8l.8-.2v-3.6l-.8-.2v-.9h2.3v.8c.3-.3.5-.5.8-.7s.6-.2,1-.2c.6,0,1,.2,1.4.6.3.4.5.9.5,1.7v2.5l.8.2v.9h-3v-.9l.7-.2v-2.5c0-.4-.1-.7-.2-.8s-.4-.2-.7-.2-.4,0-.6,0-.3.2-.4.4v3.1l.6.2v.9h-3v-1h-.2Z"/>
  </g>
  <g class="cls-25">
    <path class="cls-11" d="M241.3,74.9c0-.9.2-1.7.6-2.2.4-.6,1-.8,1.7-.8s.6,0,.9.2c.2,0,.5.4.6.6v-.7h1.5v5.6c0,.8-.2,1.4-.7,1.8-.5.5-1.1.7-2,.7s-.6,0-.9,0c-.3,0-.6-.2-.9-.3l.3-1.1c.3,0,.5.2.8.3s.5,0,.8,0,.7,0,.9-.3.3-.6.3-1v-.4c-.2.2-.4.4-.6.5-.2,0-.5.2-.8.2-.7,0-1.3-.3-1.7-.8s-.6-1.2-.6-2.1v-.2h-.2ZM242.8,75c0,.5.1.9.3,1.2s.5.4.8.4.4,0,.6,0c.2,0,.3-.2.4-.4v-2.5c-.1-.2-.2-.3-.4-.4s-.4,0-.6,0c-.4,0-.7.2-.8.5-.2.3-.3.8-.3,1.3h0Z"/>
  </g>
  <g id="Scone_logo_white-3" data-name="Scone logo white-3">
    <g class="cls-21">
      <g class="cls-24">
        <g>
          <path class="cls-19" d="M196.3,102.3h-.8c-.2,0-.3,0-.3.3v.8c0,.2.1.3.3.3h.8c.2,0,.3,0,.3-.3v-.8c0-.1-.1-.3-.3-.3M193.6,103.7h.8c.2,0,.3,0,.3-.3v-.8c0-.2-.1-.3-.3-.3h-.8c-.2,0-.3,0-.3.3v.8c0,.2.2.3.3.3M192.8,103.4v-.8c0-.2-.1-.3-.3-.3h-.8c-.2,0-.3,0-.3.3v.8c0,.2.1.3.3.3h.8c.2,0,.3-.1.3-.3M196.3,104.2c-.1,0-.2,0-.2.2h0v.9c0,0,.1.2.2.2s.2,0,.2-.2h0v-.9c.1,0,0-.2-.2-.2q0,0,0,0M194.3,104.5v.8c0,.2.1.3.3.3h.8c.2,0,.3,0,.3-.3v-.8c0-.2-.1-.3-.3-.3h-.8c-.2,0-.3.2-.3.3M193.7,105.3v-.8c0-.2-.1-.3-.3-.3h-.8c-.2,0-.3,0-.3.3v.8c0,.2.1.3.3.3h.8c.2,0,.3-.1.3-.3M196.3,106.1h-.8c-.2,0-.3,0-.3.3v.8c0,.2.1.3.3.3h.8c.2,0,.3,0,.3-.3v-.8c0,0-.1-.3-.3-.3M194.3,106.1h-.8c-.2,0-.3,0-.3.3v.8c0,.2.1.3.3.3h.8c.2,0,.3,0,.3-.3v-.8c0,0-.1-.3-.3-.3"/>
          <path class="cls-19" d="M197.2,102c.3.3.8.4,1.2.4h0v2.2c0,.8-1,1.3-1.2,1.4h0v-4h0"/>
          <path class="cls-19" d="M194.9,101.9c1.6,0,1.9-.6,1.9-.6h.2s.2.6,1.9.6.1,0,.1,0v2.8c0,.9-1.7,1.9-1.7,1.9,0,0-.1,0-.1,0v.7h.1c.6-.3,2.3-1.3,2.3-2.4v-3.5c0,0-.1,0-.2,0-2,0-2.4-.8-2.4-.8h-.2s-.3.8-2.4.8-.1,0-.1,0v.4s0,0,.1,0l.5-.2"/>
          <path class="cls-16" d="M201.1,106.4l.8-.3c.2.4.6.6,1.1.6s.4,0,.6-.2c.2,0,.3-.3.3-.4,0-.4-.6-.7-1-.9h0c-.3,0-.7-.3-.9-.5-.3-.2-.5-.6-.5-1s.2-.8.5-1c.3-.3.8-.4,1.2-.4.7,0,1.3.3,1.6.9l-.9.3c-.1,0-.2-.2-.3-.3-.1,0-.3,0-.5,0-.5,0-.8.2-.8.6s.1.4.3.5.5.3.7.4h.1c.6.3,1.4.6,1.4,1.4s-.2.8-.6,1c-.4.3-.9.4-1.3.4-.6,0-1.4-.4-1.8-1"/>
          <path class="cls-16" d="M208.4,107.5c-.3,0-.7,0-1-.2s-.6-.3-.8-.6c-.2-.2-.4-.5-.6-.8-.1-.3-.2-.7-.2-1s.1-.7.2-1c.3-.6.8-1.1,1.4-1.4.3,0,.7-.2,1-.2s.8,0,1.2.3c.3.2.7.4.9.8l-.7.5c-.3-.4-.8-.7-1.4-.7-1,0-1.7.8-1.7,1.8s.8,1.7,1.7,1.7.6,0,.9-.2c.3-.2.5-.4.6-.7l.7.4c-.2.4-.5.8-.9,1-.4.3-.9.4-1.3.3"/>
          <path class="cls-16" d="M214,107.5c-.3,0-.7,0-1-.2-.6-.3-1.1-.8-1.4-1.4-.1-.3-.2-.7-.2-1s.1-.7.2-1c.1-.3.3-.6.6-.8.2-.2.5-.4.8-.6.6-.3,1.4-.3,2,0,.3,0,.6.3.8.6.2.2.4.5.6.8.3.6.3,1.4,0,2-.1.3-.3.6-.6.8-.2.2-.5.4-.8.6-.3.2-.7.2-1,.2M214,103.2c-.5,0-.9.2-1.2.5s-.5.8-.5,1.2.2.9.5,1.2c.7.7,1.8.7,2.5,0s.5-.8.5-1.2-.2-.9-.5-1.2c-.4-.3-.8-.5-1.3-.5"/>
          <polygon class="cls-16" points="222.5 102.4 222.5 107.6 218.9 104.3 218.9 107.4 217.9 107.4 217.9 102.2 221.6 105.5 221.6 102.4 222.5 102.4"/>
          <polygon class="cls-16" points="225 103.1 225 104.5 227.5 104.5 227.5 105.3 225 105.3 225 106.6 227.8 106.6 227.8 107.4 224.1 107.4 224.1 102.4 227.8 102.4 227.8 103.2 225 103.2 225 103.1"/>
        </g>
      </g>
    </g>
  </g>
  <path class="cls-1" d="M135.3,371.5h58.1c2.8,0,5,2.2,5,5v20.6c0,2.8-2.2,5-5,5H60.8c-2.8,0-5-2.2-5-5v-20.6c0-2.7,2.3-5,5-5h58.4"/>
  <path class="cls-8" d="M127.3,379.3c0,0,.8-.3.9-.4,1.9-1,7.1-3.9,7.1-7.5v-10.7c0-.1-.1-.2-.3-.2h0c-.1,0-.1-.1-.2-.1-1,0-1.9-.1-2.9-.2-3.4-.6-4.1-2.1-4.1-2.1,0,0,0-.1-.3-.1h-.5c0,0-.2-.1-.3.1s-.7,1.5-4.1,2.1c-.9.1-1.9.2-2.9.2s0,0-.2.1h0c-.2,0-.3.1-.3.2v10.7c0,3.6,5.2,6.4,7.1,7.5.4.2.7.3,1,.4"/>
  <path class="cls-18" d="M122.9,368.6l3.3,3.3c0,.1.2.1.3.1s.2,0,.3-.1l4.9-5c.1-.2.1-.4,0-.5l-1.1-1.1c-.1-.1-.2-.1-.3-.1s-.2,0-.3.1l-3.6,3.6-1.9-2c-.2-.1-.4-.1-.5,0l-1.1,1.1c-.2.1-.2.4,0,.6"/>
  <g class="cls-25">
    <path class="cls-18" d="M81.1,385.9h-.5c0,.1,1.2,4.2,1.2,4.2v.4h0v-.4c0,0,1.3-4.1,1.3-4.1h-.5v-.9h2.5v.8h-.6c0,.1-2,6.1-2,6.1h-1.4l-2-6h-.6v-.9h2.5s0,.8,0,.8Z"/>
  </g>
  <g class="cls-25">
    <path class="cls-18" d="M87.9,392.1c-.7,0-1.3-.2-1.8-.7-.4-.5-.7-1.1-.7-1.8v-.2c0-.8.2-1.4.6-1.9s1-.7,1.7-.7,1.2.2,1.6.6.6,1,.6,1.7v.8h-3.1c0,.3,0,.6.3.8.2.2.5.3.8.3s.6,0,.8-.1c.2-.1.4-.2.7-.3l.4.9c-.2.2-.5.3-.8.4-.3.1-.7.2-1.1.2ZM87.8,387.8c-.3,0-.5.1-.6.3,0,.2-.2.5-.3.8h1.7c0-.4,0-.6-.2-.8,0-.2-.3-.3-.6-.3Z"/>
    <path class="cls-18" d="M90.7,391.2h.7v-3.3h-.7v-.9h2v.7c.2-.3.4-.5.6-.6s.4-.2.7-.2h.4v1.3h-.7c-.2,0-.4,0-.5.1s-.2.2-.3.3v2.5h.7v.9h-2.7v-.8h-.2Z"/>
    <path class="cls-18" d="M98.9,388.6h-.9v-.6c-.2-.1-.3-.1-.5-.2,0,0-.3-.1-.5-.1s-.4.1-.6.2-.2.2-.2.4,0,.3.2.4.4.2.8.3c.6.1,1.1.3,1.4.6.3.2.5.6.5,1s-.2.8-.6,1.1c-.4.3-.9.4-1.6.4s-.8-.1-1.1-.2c-.3-.1-.6-.3-.9-.5v-1.2h1l.2.7c0,.1.2.1.3.2s.3,0,.4,0c.3,0,.5-.1.6-.2s.2-.2.2-.4,0-.3-.2-.4-.4-.2-.8-.3c-.6-.1-1.1-.3-1.4-.5s-.5-.6-.5-1,.2-.8.5-1.1.9-.5,1.5-.5.8.1,1.1.2c.4.1.6.2.8.4l.3,1.3Z"/>
    <path class="cls-18" d="M102.1,391c.2,0,.4-.1.6-.2,0-.1.2-.3.2-.6h1.3c0,.5-.2,1-.6,1.3s-.9.5-1.5.5-1.4-.2-1.8-.7-.6-1.1-.6-1.9h0c0-.9.2-1.5.6-2s1-.7,1.8-.7.8.1,1.1.2.6.3.8.5v1.4h-1l-.2-.8c0-.1-.2-.1-.3-.1s-.2-.1-.3-.1c-.4,0-.7.1-.8.4s-.2.7-.2,1.1h0c0,.6,0,.9.2,1.2.1.4.4.5.7.5Z"/>
    <path class="cls-18" d="M104.8,391.2h.7v-5.5h-.7v-.9h2.1v2.9c.2-.2.4-.4.6-.6.2-.1.5-.2.8-.2.5,0,1,.2,1.3.5s.5.9.5,1.6v2.1h.7v.9h-2.6v-.8h.6v-2.2c0-.4,0-.7-.2-.8,0-.2-.4-.2-.6-.2s-.4,0-.5.1-.3.2-.4.3v2.8h.6v.9h-2.6v-.9h-.3Z"/>
    <path class="cls-18" d="M110.9,385.4v-.8h2.1v6.4h.7v.9h-2.7v-.8h.7v-5.5l-.8-.2Z"/>
    <path class="cls-18" d="M117.7,391.3c-.2.2-.4.4-.6.6-.2.1-.5.2-.8.2-.5,0-1-.2-1.3-.5s-.5-.9-.5-1.6v-2.1h-.6v-.9h2v3.1c0,.4,0,.6.2.8,0,.2.3.2.6.2s.4,0,.6-.1.3-.2.4-.3v-2.8h-.6v-.9h2v4.2h.6v.9h-1.8l-.2-.8ZM116.1,385.9h-1.3v-1h1.3v1ZM118.4,385.9h-1.3v-1h1.3v1Z"/>
    <path class="cls-18" d="M124.4,388.6h-.9v-.6c-.2-.1-.3-.1-.5-.2,0,0-.3-.1-.5-.1s-.4.1-.6.2-.2.2-.2.4,0,.3.2.4.4.2.8.3c.6.1,1.1.3,1.4.6.3.2.5.6.5,1s-.2.8-.6,1.1c-.4.3-.9.4-1.6.4s-.8-.1-1.1-.2c-.3-.1-.6-.3-.9-.5v-1.2h1l.2.7c0,.1.2.1.3.2s.3,0,.4,0c.3,0,.5-.1.6-.2s.2-.2.2-.4,0-.3-.2-.4-.4-.2-.8-.3c-.6-.1-1.1-.3-1.4-.5s-.5-.6-.5-1,.2-.8.5-1.1.9-.5,1.5-.5.8.1,1.1.2c.4.1.6.2.8.4l.3,1.3Z"/>
    <path class="cls-18" d="M129.4,388.6h-.9v-.6c-.2-.1-.3-.1-.5-.2,0,0-.3-.1-.5-.1s-.4.1-.6.2-.2.2-.2.4,0,.3.2.4.4.2.8.3c.6.1,1.1.3,1.4.6.3.2.5.6.5,1s-.2.8-.6,1.1c-.4.3-.9.4-1.6.4s-.8-.1-1.1-.2c-.3-.1-.6-.3-.9-.5v-1.2h1l.2.7c0,.1.2.1.3.2s.3,0,.4,0c.3,0,.5-.1.6-.2s.2-.2.2-.4,0-.3-.2-.4-.4-.2-.8-.3c-.6-.1-1.1-.3-1.4-.5s-.5-.6-.5-1,.2-.8.5-1.1.9-.5,1.5-.5.8.1,1.1.2c.4.1.6.2.8.4l.3,1.3Z"/>
    <path class="cls-18" d="M132.6,392.1c-.7,0-1.3-.2-1.8-.7-.4-.5-.7-1.1-.7-1.8v-.2c0-.8.2-1.4.6-1.9s1-.7,1.7-.7,1.2.2,1.6.6c.4.4.6,1,.6,1.7v.8h-3.1c0,.3.1.6.3.8.2.2.5.3.8.3s.6,0,.8-.1.4-.2.7-.3l.4.9c-.2.2-.5.3-.8.4-.3.1-.7.2-1.1.2ZM132.5,387.8c-.3,0-.5.1-.6.3-.1.2-.2.5-.3.8h1.7c0-.4-.1-.6-.2-.8,0-.2-.3-.3-.6-.3Z"/>
    <path class="cls-18" d="M135.2,385.4v-.8h2.1v6.4h.7v.9h-2.7v-.8h.7v-5.5l-.8-.2Z"/>
    <path class="cls-18" d="M140.5,385.6v1.3h.9v1h-.9v2.6c0,.2,0,.3.1.4s.2.1.3.1h.4v1c0,0-.2.1-.4.1h-.5c-.5,0-.8-.1-1.1-.4s-.4-.7-.4-1.2v-2.6h-.8v-1h.8v-1.3h1.6Z"/>
    <path class="cls-18" d="M144.5,392.1c-.7,0-1.3-.2-1.8-.7-.4-.5-.7-1.1-.7-1.8v-.2c0-.8.2-1.4.6-1.9s1-.7,1.7-.7,1.2.2,1.6.6c.4.4.6,1,.6,1.7v.8h-3.1c0,.3.1.6.3.8.2.2.5.3.8.3s.6,0,.8-.1.4-.2.7-.3l.4.9c-.2.2-.5.3-.8.4-.3.1-.7.2-1.1.2ZM144.4,387.8c-.3,0-.5.1-.6.3-.1.2-.2.5-.3.8h1.7c0-.4-.1-.6-.2-.8,0-.2-.3-.3-.6-.3Z"/>
    <path class="cls-18" d="M152.7,385.1c.8,0,1.5.3,2.1.8s.8,1.2.8,2.1v1.1c0,.8-.3,1.5-.8,2.1s-1.2.8-2.1.8h-3.1v-.8h.7v-5.1h-.7v-.9h3.1ZM151.7,386.1v4.8h.9c.5,0,.9-.2,1.2-.5s.4-.8.4-1.3v-1.1c0-.5-.1-1-.4-1.3s-.7-.5-1.2-.5h-.9Z"/>
  </g>
  <g class="cls-25">
    <path class="cls-18" d="M159.6,392c0-.1-.1-.2-.1-.3s-.1-.2-.1-.3c-.2.2-.4.3-.6.5-.2.1-.5.2-.8.2-.5,0-.9-.1-1.2-.4s-.4-.6-.4-1.1.2-.9.6-1.1c.4-.3,1-.4,1.7-.4h.7v-.5c0-.2-.1-.4-.2-.6-.1-.1-.4-.2-.6-.2s-.3,0-.4.1-.2.1-.3.1v.5h-1.1v-1.1c.3-.2.5-.3.9-.4.3-.1.7-.2,1.1-.2.6,0,1.2.2,1.5.5.4.3.6.8.6,1.3v2.5h.4v.9h-1.7ZM158.4,391.1c.2,0,.4,0,.6-.1.2-.1.3-.2.4-.3v-.8h-.7c-.3,0-.5.1-.7.2s-.2.3-.2.5.1.3.2.4c0,0,.2,0,.4,0Z"/>
  </g>
  <g class="cls-25">
    <path class="cls-18" d="M163.3,385.6v1.3h.9v1h-.9v2.6c0,.2,0,.3.1.4s.2.1.3.1h.4v1c0,0-.2.1-.4.1h-.5c-.5,0-.8-.1-1.1-.4s-.4-.7-.4-1.2v-2.6h-.8v-1h.8v-1.3h1.6Z"/>
    <path class="cls-18" d="M167.3,392.1c-.7,0-1.3-.2-1.8-.7-.4-.5-.7-1.1-.7-1.8v-.2c0-.8.2-1.4.6-1.9s1-.7,1.7-.7,1.2.2,1.6.6c.4.4.6,1,.6,1.7v.8h-3.1c0,.3.1.6.3.8.2.2.5.3.8.3s.6,0,.8-.1.4-.2.7-.3l.4.9c-.2.2-.5.3-.8.4-.3.1-.6.2-1.1.2ZM167.2,387.8c-.3,0-.5.1-.6.3-.1.2-.2.5-.3.8h1.7c0-.4-.1-.6-.2-.8,0-.2-.3-.3-.6-.3Z"/>
    <path class="cls-18" d="M170,391.2h.7v-3.3h-.7v-.9h2v.7c.3-.3.5-.5.7-.6.2-.1.5-.2.8-.2.5,0,.9.2,1.2.5s.4.8.4,1.5v2.2h.7v.9h-2.6v-.8h.6v-2.3c0-.3-.1-.6-.2-.7s-.3-.2-.6-.2-.3,0-.5.1c-.1.1-.3.2-.4.3v2.8h.6v.9h-2.7v-.9Z"/>
  </g>
  <path class="cls-2" d="M490.2,210.1h-115.7c-2.8,0-5,2.2-5,5v25.9h-96.2v-25.9c0-2.8-2.2-5-5-5h-51.3v-95h51.3c2.8,0,5-2.2,5-5V31.4c0-2.8-2.2-5-5-5h-115.6c-2.8,0-5,2.2-5,5v78.7c0,2.8,2.2,5,5,5h50.6v95h-50.6c-2.8,0-5,2.2-5,5v112.1c0,2.8,2.2,5,5,5h115.7c2.8,0,5-2.2,5-5v-72.5h96.2v25.9c0,2.8,2.2,5,5,5h115.7c2.8,0,5-2.2,5-5v-65.5c0-2.8-2.4-5-5.1-5Z"/>
  <path class="cls-9" d="M423.6,198.3c4.6-4.5,12.1-4.5,16.6.1s4.5,12.1-.1,16.6-12.1,4.5-16.6-.1c-2.2-2.2-3.4-5.1-3.4-8.2s.8-5.1,2.4-7.1"/>
  <path class="cls-6" d="M431.9,212.3h-4.3c-.6,0-.8-.2-.8-.8v-6.5c0-.6.2-.8.8-.8h8.5c.5,0,.8.2.8.8v6.5c0,.5-.2.8-.8.8-1.4,0-2.8,0-4.2,0Z"/>
  <path class="cls-6" d="M427.5,203.7c0-1.8,1-3.4,2.6-4.1,2.1-.9,4.6,0,5.5,2.1.1.2.2.5.2.7.1.4.1.8.2,1.2"/>
  <path class="cls-11" d="M431.2,209.6h0v.9c0,.2.1.2.3.2h.8c.2,0,.3-.1.3-.3v-1.6c0-.2.1-.3.2-.4.5-.3.8-.9.6-1.4-.2-.6-.8-1-1.5-1-.7-.1-1.3.3-1.6.9-.2.6,0,1.2.5,1.5.2.1.3.3.3.5.1.2.1.4.1.7Z"/>
  <path class="cls-9" d="M201.8,198.3c4.6-4.5,12.1-4.5,16.6.1s4.5,12.1-.1,16.6-12.1,4.5-16.6-.1c-2.2-2.2-3.4-5.1-3.4-8.2s.8-5.1,2.4-7.1"/>
  <path class="cls-6" d="M210.1,212.3h-4.3c-.6,0-.8-.2-.8-.8v-6.5c0-.6.2-.8.8-.8h8.5c.6,0,.8.2.8.8v6.5c0,.5-.2.8-.8.8-1.4,0-2.8,0-4.2,0Z"/>
  <path class="cls-6" d="M205.7,203.7c0-1.8,1-3.4,2.6-4.1,2.1-.9,4.6,0,5.5,2.2.1.2.2.5.2.7.1.4.1.8.2,1.2"/>
  <path class="cls-11" d="M209.4,209.6h0v.9c0,.2.1.2.3.2h.8c.2,0,.3-.1.3-.3v-1.6c0-.2.1-.3.2-.4.5-.3.8-.9.6-1.4-.2-.6-.8-1-1.4-1-.7-.1-1.3.3-1.6.9-.2.6,0,1.2.5,1.5.2.1.3.3.3.5,0,.2,0,.4,0,.7Z"/>
  <path class="cls-9" d="M201.8,15.3c4.6-4.5,12.1-4.5,16.6.1,4.5,4.6,4.5,12.1-.1,16.6s-12.1,4.5-16.6-.1c-2.2-2.2-3.4-5.1-3.4-8.2s.8-5.1,2.4-7.1"/>
  <path class="cls-6" d="M210.1,29.4h-4.3c-.6,0-.8-.2-.8-.8v-6.5c0-.6.2-.8.8-.8h8.5c.6,0,.8.2.8.8v6.5c0,.5-.2.8-.8.8h-4.2Z"/>
  <path class="cls-6" d="M205.7,20.7c0-1.8,1-3.4,2.6-4.1,2.1-.9,4.6,0,5.5,2.2.1.2.2.5.2.7.1.4.1.8.2,1.2"/>
  <path class="cls-11" d="M209.4,26.6h0v.9c0,.2.1.2.3.2h.8c.2,0,.3-.1.3-.3v-1.6c0-.2.1-.3.2-.4.5-.3.8-.9.6-1.5s-.8-1-1.4-1c-.7-.1-1.3.3-1.6.9-.2.6,0,1.2.5,1.5.2.1.3.3.3.5,0,.3,0,.5,0,.8Z"/>
  <line class="cls-2" x1="268.2" y1="247.9" x2="269.2" y2="247.9"/>
  <line class="cls-7" x1="271.2" y1="247.9" x2="371.9" y2="247.9"/>
  <line class="cls-2" x1="373" y1="247.9" x2="374" y2="247.9"/>
  <polygon class="cls-11" points="270.8 251.2 271.4 250.6 268.5 248 271.4 245.3 270.8 244.7 267.3 248 270.8 251.2"/>
  <polygon class="cls-11" points="371.3 251.2 370.8 250.6 373.6 248 370.8 245.3 371.3 244.7 374.8 248 371.3 251.2"/>
  <line class="cls-2" x1="210.3" y1="114.4" x2="210.3" y2="115.4"/>
  <line class="cls-5" x1="210.3" y1="117.4" x2="210.3" y2="182.6"/>
  <line class="cls-2" x1="210.3" y1="183.6" x2="210.3" y2="184.6"/>
  <polygon class="cls-11" points="207 182 207.6 181.4 210.3 184.3 213 181.4 213.6 182 210.3 185.5 207 182"/>
  <g class="cls-25">
    <path class="cls-18" d="M104.3,210.8h4.3l-.2.9h-3.4l-.6,2.7h3.1l-.2.9h-3.1l-.6,3h3.4l-.2.9h-4.4l1.9-8.4Z"/>
    <path class="cls-18" d="M112.1,219.2l.8-3.8c0-.1,0-.3,0-.4v-.4c0-.2,0-.4-.2-.6,0-.1-.3-.2-.6-.2s-.4,0-.6.1-.4.2-.6.4c-.2.1-.3.3-.5.5s-.3.4-.4.5l-.8,3.8h-.9l1.3-6h.6v1h0c0-.1.2-.3.4-.4,0-.1.3-.3.5-.4.2-.1.4-.2.6-.3s.5-.1.7-.1c.4,0,.7.1.9.3.2.2.3.5.3,1s0,.5,0,.9l-.9,4h-.6Z"/>
    <path class="cls-18" d="M116.9,216.5h-.6l-.6,2.7h-.9l1.8-8.4h.9l-1.1,5.1h.5c0-.1,2.2-2.7,2.2-2.7h1.1l-2.1,2.4-.6.4.5.5,1.4,2.7h-1l-1.5-2.7Z"/>
    <path class="cls-18" d="M121.4,217.8v.3c0,.2,0,.3,0,.3q0,.1.2.1h.4c0,0,.2-.1.4-.1v.7c0,0-.2.1-.3.1s-.2,0-.3.1h-.6c-.3,0-.5-.1-.7-.2s-.3-.4-.3-.7,0-.4,0-.6l1.5-7h.9l-1.4,7Z"/>
    <path class="cls-18" d="M128,216.8c0,.3,0,.6,0,.9v1.5h-.7l-.2-1h0c0,.1-.2.3-.4.4,0,.1-.3.3-.5.4-.2.1-.3.2-.5.3s-.4.1-.6.1c-1,0-1.4-.6-1.4-1.9s0-1,.2-1.6c0-.5.3-1,.6-1.4s.6-.8,1.1-1c.4-.3,1-.4,1.6-.4s.5,0,.8.1c.3.1.6.1.9.2l-.8,3.4ZM125.2,218.6c.2,0,.4,0,.6-.1s.3-.2.5-.3.3-.3.4-.4.2-.3.3-.4l.7-3.2c-.2-.1-.5-.2-.9-.2s-.7.1-1,.3-.5.5-.7.8-.3.7-.4,1.2c0,.4,0,.9,0,1.3s0,.6.2.8c0,0,.2.2.4.2Z"/>
  </g>
  <g class="cls-25">
    <path class="cls-18" d="M131.2,216.7v1.1h.1l.5-1.2,2-3.5h1l-3.7,6.1h-.4l-1.2-6.1h1l.7,3.6Z"/>
  </g>
  <g class="cls-25">
    <path class="cls-18" d="M138.7,218.6c-.3.2-.6.4-1,.5s-.8.2-1.1.2c-.6,0-1.1-.2-1.4-.6-.3-.4-.5-.9-.5-1.5s.1-1.2.3-1.8c.2-.5.4-1,.7-1.3.3-.4.6-.6,1-.8s.8-.3,1.2-.3.5,0,.8.1c.2.1.4.2.5.3s.2.3.3.5.1.4.1.5c0,.6-.3,1-.8,1.3s-1.4.5-2.4.5h-.6c0,.2-.1.3-.1.4v.4c0,.4.1.8.3,1.1s.5.4.9.4.7-.1,1-.2c.3-.1.5-.2.7-.4v.7ZM137.6,213.8c-.4,0-.8.2-1.1.5s-.6.8-.7,1.3h.9c.3,0,.6-.1.9-.1.3-.1.5-.2.7-.3s.3-.4.3-.6v-.2c0-.1-.1-.2-.1-.2-.1-.1-.2-.1-.3-.2-.2-.2-.4-.2-.6-.2Z"/>
  </g>
  <line class="cls-6" x1="189.5" y1="285.8" x2="169.5" y2="349.8"/>
  <polygon class="cls-11" points="182.6 288.5 183.3 289.7 189.3 286.3 192.3 292.5 193.6 291.9 189.9 284.3 182.6 288.5"/>
  <polygon class="cls-11" points="165.4 343.7 166.7 343.1 169.6 349.3 175.6 345.9 176.3 347.1 169 351.3 165.4 343.7"/>
  <line class="cls-6" x1="235.1" y1="285.8" x2="255.1" y2="349.8"/>
  <polygon class="cls-11" points="231 291.9 232.3 292.5 235.3 286.3 241.2 289.7 241.9 288.5 234.6 284.3 231 291.9"/>
  <polygon class="cls-11" points="248.2 347.1 248.9 345.9 254.9 349.3 257.9 343.1 259.1 343.7 255.5 351.3 248.2 347.1"/>
  <path class="cls-9" d="M195.2,304.1c-3.4-7.8-12.5-11.5-20.3-8.1s-11.5,12.5-8.1,20.3,12.5,11.5,20.3,8.1c7.9-3.3,11.5-12.4,8.1-20.3q0,.1,0,0ZM185.9,321.6c-6.3,2.7-13.5-.2-16.2-6.4-2.7-6.3.2-13.5,6.4-16.2,6.3-2.7,13.5.2,16.2,6.4h0c2.7,6.2,0,13.5-6.4,16.2Z"/>
  <circle class="cls-9" cx="181" cy="310.3" r="12.3"/>
  <path class="cls-3" d="M190.5,318.1c-.1-.2-.3-.4-.5-.6-.8-.5-1.8-.4-2.3.4h0c-.5.8-.3,1.8.4,2.3"/>
  <path class="cls-3" d="M192.2,315.5c0-.1-.1-.2-.2-.3-.1,0-.1-.1-.2-.1q-.6-.4-1,.1c-.3.3-.5.4-.8.2h-.2c-.5,0-.7-.3-.8-.7,0-.2-.2-.4-.3-.4-.4,0-.7.1-1.1.1v.9c0,.2-.1.3-.3.5q-.1.1-.2.1c-.3.3-.8.4-1.2.1h-.1c-.1-.2-.4-.3-.5-.1h-.1c0,.2-.1.2-.1.3-.4.5-.4.6.1,1,.3.1.4.4.3.7h0c0,.2-.1.3-.1.3.1.5-.3.7-.7.8s-.5.4-.4.8,0,.8.7.7c.2,0,.5,0,.6.1.2.3.4.5.6.9"/>
  <path class="cls-3" d="M182.3,310.9c.9-1.3.6-3.1-.6-4s-3.1-.6-4,.6c-.9,1.3-.6,3.1.6,4,1.2.9,3,.7,4-.6h0Z"/>
  <path class="cls-3" d="M187.4,309.2c-.4.1-.7.2-1.1.3-.2,0-.3.1-.4.4-.1.5-.2,1-.3,1.5,0,.2,0,.3.1.5.3.3.6.6.9.8.2.2.3.4.1.7h0c0,.1-.7,1.1-.7,1.1-.2.3-.4.3-.7.1-.3-.2-.6-.4-1-.5-.2-.1-.3-.1-.5,0-.5.3-.9.5-1.4.8-.1.1-.2.2-.2.4,0,.4,0,.8.1,1.1s-.1.6-.5.6-.7.1-1.1.2c-.4.1-.6-.1-.7-.4,0-.1-.1-.3-.1-.4-.1-.7-.4-1-1.2-1.2-.8-.4-1.8,0-2.2.8-.2.3-.5.3-.8.1s-.6-.5-.9-.7c-.3-.1-.4-.4-.2-.7,0,0,0-.1.1-.1.2-.3.3-.6.6-.9.2-.2.2-.4,0-.6s-.4-.5-.6-.8c-.2-.6-.6-.8-1.3-.7-1.2.2-1.1,0-1.3-1s-.2-1.1.9-1.4c.6-.1.9-.3,1-1,0-.5.4-1,.3-1.3s-.7-.7-1-1c-.2-.1-.3-.4-.1-.6,0,0,0-.1.1-.1l.7-1c.1-.2.4-.4.6-.3,0,0,.1,0,.1.1.1.1.3.2.4.3.6.4,1.1.5,1.6-.1q.1-.1.2-.2c.9-.2.9-.8.9-1.5s-.1-.9.8-1c1.4-.2,1.3-.4,1.6,1,.1.5.3.8.8.8s.4,0,.6.1c.5.3,1.2.2,1.5-.3,0,0,0-.1.1-.1.8-1,.8-.7,1.5-.1,1,.7,1,.6.4,1.6s-.5.9,0,1.4c.3.3.4,1,.8,1.2s.9,0,1.4,0,.4.2.5.3c.1.5.2.9.3,1.4v.3c-.2,0-.4,0-.7.1Z"/>
  <path class="cls-9" d="M248.4,296.1c-7.8-3.4-16.9.2-20.3,8.1s.2,16.9,8.1,20.3c7.8,3.4,16.9-.2,20.3-8.1,3.3-7.8-.3-16.9-8.1-20.3h0ZM253.6,315.1c-2.7,6.3-9.9,9.1-16.2,6.4s-9.1-9.9-6.4-16.2c2.7-6.3,9.9-9.1,16.2-6.4h0c6.2,2.7,9.1,10,6.4,16.2Z"/>
  <circle class="cls-9" cx="242.3" cy="310.3" r="12.3"/>
  <path class="cls-3" d="M251.7,302.4c-.1.2-.3.4-.5.6-.8.5-1.8.3-2.4-.4-.5-.8-.3-1.8.4-2.3"/>
  <path class="cls-3" d="M253.5,305.1c0,.1-.1.2-.2.3-.1,0-.1.1-.2.1q-.6.4-1-.1c-.3-.3-.5-.4-.8-.2h-.2c-.5,0-.7.3-.8.7,0,.2-.2.4-.3.4-.4,0-.7-.1-1.1-.1v-.9c0-.2-.1-.3-.2-.5s-.1-.1-.2-.1c-.3-.3-.8-.4-1.2-.1h-.1c-.1.3-.4.3-.5.1h-.1c0-.2-.1-.2-.1-.3-.4-.5-.4-.6.1-1,.3-.1.4-.5.2-.7h0c0-.1-.1-.2-.1-.2.1-.5-.3-.7-.7-.8s-.5-.4-.4-.8,0-.8.7-.7c.2,0,.5,0,.6-.1.2-.3.4-.6.6-.9"/>
  <path class="cls-3" d="M243.5,309.7c.9,1.3.6,3.1-.6,4s-3.1.6-4-.6c-.9-1.3-.6-3.1.6-4,1.3-1,3-.7,4,.6q0-.1,0,0Z"/>
  <path class="cls-3" d="M248.7,311.4c-.4-.1-.7-.2-1.1-.3-.2,0-.3-.1-.4-.4-.1-.5-.2-1-.3-1.5,0-.2,0-.3.1-.5.3-.3.6-.6.9-.8.2-.1.3-.4.1-.7h0c0-.1-.7-1.1-.7-1.1-.1-.2-.4-.3-.6-.2,0,0-.1,0-.1.1-.3.2-.6.4-1,.5h-.5c-.5-.3-.9-.5-1.4-.8-.1-.1-.2-.2-.2-.4,0-.4,0-.8.1-1.1s-.1-.6-.5-.6-.7-.1-1.1-.2c-.4-.1-.6.1-.7.4,0,.1-.1.3-.1.4-.1.7-.4,1-1.1,1.2-.8.4-1.8,0-2.2-.8-.2-.3-.5-.3-.8-.1s-.6.5-.9.7c-.3.1-.4.5-.2.7,0,0,0,.1.1.1.2.3.4.6.6.9s.2.4,0,.6c-.2.3-.4.5-.6.8-.2.6-.6.8-1.3.7-1.2-.2-1.1,0-1.3,1s-.2,1.1.9,1.4c.6.1.9.3,1,1,0,.5.4,1,.3,1.3s-.7.7-1,1c-.2.1-.3.4-.1.6h0c0,.1.7,1.1.7,1.1.1.2.4.4.6.3,0,0,.1,0,.1-.1.1-.1.3-.2.4-.3.5-.4,1.1-.5,1.6.1,0,.1.1.1.2.2.9.2.9.8.9,1.5s0,.9.8,1c1.4.2,1.3.4,1.6-1,.1-.5.3-.8.8-.8s.4,0,.6-.1c.5-.3,1.2-.2,1.5.3,0,0,0,.1.1.1.8,1,.8.7,1.5.1,1-.7,1-.6.4-1.6s-.5-.9,0-1.4c.3-.3.4-1,.8-1.2s.9,0,1.4,0,.4-.2.5-.3c.1-.5.2-.9.3-1.4v-.3c-.3,0-.5-.1-.7-.1Z"/>
</svg>