<?xml version="1.0" encoding="UTF-8"?>
<svg id="Ebene_1" data-name="Ebene 1" xmlns="http://www.w3.org/2000/svg" xmlns:xlink="http://www.w3.org/1999/xlink" version="1.1" viewBox="0 0 476.9 417.4">
  <defs>
    <style>
      .cls-1, .cls-2, .cls-3, .cls-4, .cls-5, .cls-6, .cls-7, .cls-8 {
        fill: none;
      }

      .cls-1, .cls-2, .cls-5, .cls-6, .cls-7, .cls-8, .cls-9 {
        stroke-width: 2px;
      }

      .cls-1, .cls-2, .cls-5, .cls-7 {
        stroke-miterlimit: 10;
      }

      .cls-1, .cls-8 {
        stroke: #fff;
      }

      .cls-2, .cls-3, .cls-5, .cls-6, .cls-7, .cls-9 {
        stroke: #fc0;
      }

      .cls-3, .cls-6, .cls-8, .cls-9 {
        stroke-linecap: round;
        stroke-linejoin: round;
      }

      .cls-10 {
        clip-path: url(#clippath);
      }

      .cls-4, .cls-11, .cls-12, .cls-13, .cls-14, .cls-15, .cls-16, .cls-17, .cls-18, .cls-19 {
        stroke-width: 0px;
      }

      .cls-11 {
        fill: #fc0;
      }

      .cls-20 {
        clip-path: url(#clippath-1);
      }

      .cls-21 {
        clip-path: url(#clippath-4);
      }

      .cls-22 {
        clip-path: url(#clippath-3);
      }

      .cls-23 {
        clip-path: url(#clippath-2);
      }

      .cls-24 {
        clip-path: url(#clippath-5);
      }

      .cls-5 {
        stroke-dasharray: 0 0 2 2;
      }

      .cls-7 {
        stroke-dasharray: 0 0 2 2;
      }

      .cls-12 {
        fill: url(#Unbenannter_Verlauf);
      }

      .cls-12, .cls-17 {
        opacity: .7;
      }

      .cls-12, .cls-17, .cls-25 {
        isolation: isolate;
      }

      .cls-13 {
        fill: url(#Unbenannter_Verlauf_5);
      }

      .cls-14 {
        fill: url(#Unbenannter_Verlauf_4);
      }

      .cls-15 {
        fill: url(#Unbenannter_Verlauf_3);
      }

      .cls-16 {
        fill: #fdfeff;
      }

      .cls-17 {
        fill: url(#Unbenannter_Verlauf_2);
      }

      .cls-9, .cls-18 {
        fill: #fff;
      }

      .cls-19 {
        fill: #ffd138;
      }
    </style>
    <linearGradient id="Unbenannter_Verlauf" data-name="Unbenannter Verlauf" x1="168.9" y1="823.7" x2="182.1" y2="823.7" gradientTransform="translate(0 -662)" gradientUnits="userSpaceOnUse">
      <stop offset="0" stop-color="#906"/>
      <stop offset=".2" stop-color="#780066"/>
      <stop offset=".4" stop-color="#5a0066"/>
      <stop offset=".6" stop-color="#406"/>
      <stop offset=".8" stop-color="#370066"/>
      <stop offset="1" stop-color="#306"/>
    </linearGradient>
    <linearGradient id="Unbenannter_Verlauf_2" data-name="Unbenannter Verlauf 2" x1="280.1" y1="897.7" x2="385.3" y2="897.7" gradientTransform="translate(-46.5 -649.9)" gradientUnits="userSpaceOnUse">
      <stop offset="0" stop-color="#906"/>
      <stop offset=".2" stop-color="#780066"/>
      <stop offset=".4" stop-color="#5a0066"/>
      <stop offset=".6" stop-color="#406"/>
      <stop offset=".8" stop-color="#370066"/>
      <stop offset="1" stop-color="#306"/>
    </linearGradient>
    <linearGradient id="Unbenannter_Verlauf_3" data-name="Unbenannter Verlauf 3" x1="334.6" y1="909.9" x2="460.3" y2="909.9" gradientTransform="translate(0 -662)" gradientUnits="userSpaceOnUse">
      <stop offset="0" stop-color="#906"/>
      <stop offset=".2" stop-color="#780066"/>
      <stop offset=".4" stop-color="#5a0066"/>
      <stop offset=".6" stop-color="#406"/>
      <stop offset=".8" stop-color="#370066"/>
      <stop offset="1" stop-color="#306"/>
    </linearGradient>
    <clipPath id="clippath">
      <rect class="cls-4" x="378.3" y="270.3" width="36.3" height="7.1"/>
    </clipPath>
    <clipPath id="clippath-1">
      <rect class="cls-4" x="378.3" y="270.3" width="36.3" height="7.1"/>
    </clipPath>
    <linearGradient id="Unbenannter_Verlauf_4" data-name="Unbenannter Verlauf 4" x1="112.7" y1="933.2" x2="238.4" y2="933.2" gradientTransform="translate(0 -662)" gradientUnits="userSpaceOnUse">
      <stop offset="0" stop-color="#906"/>
      <stop offset=".2" stop-color="#780066"/>
      <stop offset=".4" stop-color="#5a0066"/>
      <stop offset=".6" stop-color="#406"/>
      <stop offset=".8" stop-color="#370066"/>
      <stop offset="1" stop-color="#306"/>
    </linearGradient>
    <clipPath id="clippath-2">
      <rect class="cls-4" x="156.5" y="270.3" width="36.3" height="7.1"/>
    </clipPath>
    <clipPath id="clippath-3">
      <rect class="cls-4" x="156.5" y="270.3" width="36.3" height="7.1"/>
    </clipPath>
    <linearGradient id="Unbenannter_Verlauf_5" data-name="Unbenannter Verlauf 5" x1="112.7" y1="732.7" x2="238.4" y2="732.7" gradientTransform="translate(0 -662)" gradientUnits="userSpaceOnUse">
      <stop offset="0" stop-color="#906"/>
      <stop offset=".2" stop-color="#780066"/>
      <stop offset=".4" stop-color="#5a0066"/>
      <stop offset=".6" stop-color="#406"/>
      <stop offset=".8" stop-color="#370066"/>
      <stop offset="1" stop-color="#306"/>
    </linearGradient>
    <clipPath id="clippath-4">
      <rect class="cls-4" x="156.5" y="100.5" width="36.3" height="7.1"/>
    </clipPath>
    <clipPath id="clippath-5">
      <rect class="cls-4" x="156.5" y="100.5" width="36.3" height="7.1"/>
    </clipPath>
  </defs>
  <rect class="cls-12" x="168.9" y="115.1" width="13.2" height="93.2"/>
  <rect class="cls-17" x="233.6" y="240.9" width="105.2" height="13.8"/>
  <path class="cls-1" d="M269.6,371.5h58.2c2.8,0,5,2.2,5,5v20.6c0,2.8-2.2,5-5,5h-132.6c-2.8,0-5-2.2-5-5v-20.6c0-2.7,2.2-5,5-5h58.3"/>
  <path class="cls-2" d="M168.3,167.3c.1-3.8,3.3-6.8,7.1-6.6,3.6.1,6.5,3,6.6,6.6"/>
  <g class="cls-25">
    <path class="cls-11" d="M140.2,161.7v2.3h-1.3v-1h-1.7v6l.9.2v1h-3.6v-1l.9-.2v-6h-1.6v1h-1.4v-2.3h7.8Z"/>
    <path class="cls-11" d="M140.8,170.2v-1l.9-.2v-6.1l-.9-.2v-1h3.5v1l-.9.2v6h2.4v-1.1h1.4v2.4h-6.4Z"/>
    <path class="cls-11" d="M154.4,164.4h-1.3l-.2-1.2c-.1-.1-.4-.2-.7-.2-.3-.1-.6-.1-.9-.1-.5,0-.8.1-1.1.3s-.4.5-.4.8.1.5.4.7c.3.2.7.4,1.4.6,1,.3,1.7.6,2.2,1s.7,1,.7,1.7-.3,1.3-.9,1.7-1.4.6-2.3.6-1.3-.1-1.8-.3-1-.5-1.4-.9v-1.8h1.3l.2,1.2c.2.1.4.3.7.3s.6.1,1,.1.8-.1,1.1-.3c.2-.2.4-.4.4-.8s-.1-.6-.4-.8c-.2-.2-.6-.4-1.2-.6-1-.3-1.8-.6-2.3-1s-.8-1-.8-1.7.3-1.3.9-1.7,1.3-.7,2.2-.7,1.3.1,1.8.3,1,.5,1.4.8v2h0Z"/>
  </g>
  <path class="cls-2" d="M285.1,240.9c3.8.1,6.8,3.3,6.6,7.1-.1,3.6-3,6.5-6.6,6.6"/>
  <g class="cls-25">
    <path class="cls-11" d="M283.6,219.4v2.3h-1.3v-1h-1.7v6l.9.2v1h-3.5v-1l.9-.2v-6h-1.6v1h-1.3v-2.3h7.6Z"/>
    <path class="cls-11" d="M284.2,227.9v-1l.9-.2v-6.1l-.9-.2v-1h3.5v1l-.9.2v6h2.4v-1.1h1.4v2.4h-6.4Z"/>
    <path class="cls-11" d="M297.8,222.1h-1.3l-.2-1.2c-.1-.1-.4-.2-.7-.2-.3-.1-.6-.1-.9-.1-.5,0-.8.1-1.1.3-.3.2-.4.5-.4.8s.1.5.4.7.7.4,1.4.6c1,.3,1.7.6,2.2,1s.7,1,.7,1.7-.3,1.3-.9,1.7-1.4.6-2.3.6-1.3-.1-1.8-.3-1-.5-1.4-.9v-1.8h1.3l.2,1.2c.2.1.4.3.7.3s.6.1,1,.1.8-.1,1.1-.3c.2-.2.4-.4.4-.8s-.1-.6-.4-.8c-.2-.2-.6-.4-1.2-.6-1-.3-1.8-.6-2.3-1s-.8-1-.8-1.7.3-1.3.9-1.7,1.3-.7,2.2-.7,1.3.1,1.8.3,1,.5,1.4.8v2h0Z"/>
  </g>
  <path class="cls-8" d="M261.6,379.3c.1,0,.8-.3.9-.4,1.9-1,7.1-3.9,7.1-7.5v-10.7c0-.1-.1-.2-.3-.2h0c-.1,0-.1-.1-.2-.1-1,0-1.9-.1-2.9-.2-3.4-.6-4.1-2.1-4.1-2.1,0,0-.1-.1-.3-.1h-.5c-.1,0-.2-.1-.3.1s-.7,1.5-4.1,2.1c-.9.1-1.9.2-2.9.2s-.1,0-.2.1h0c-.2,0-.3.1-.3.2v10.7c0,3.6,5.2,6.4,7.1,7.5.4.2.7.3,1,.4"/>
  <path class="cls-18" d="M257.2,368.6l3.3,3.3c.1.1.2.1.3.1s.2,0,.3-.1l4.9-5c.1-.2.1-.4,0-.5l-1.1-1.1c-.1-.1-.2-.1-.3-.1s-.2,0-.3.1l-3.6,3.6-1.9-2c-.2-.1-.4-.1-.5,0l-1.1,1.1c-.2.2-.2.4,0,.6"/>
  <g class="cls-25">
    <path class="cls-18" d="M226.4,387.3h-1l-.2-.9c-.1-.1-.3-.1-.5-.2s-.5-.1-.7-.1c-.4,0-.7.1-.9.2-.2.2-.3.4-.3.6s.1.4.3.6.6.3,1.1.5c.8.2,1.3.5,1.7.8s.6.8.6,1.4-.2,1.1-.7,1.4-1.1.5-1.8.5-1-.1-1.5-.3-.8-.4-1.1-.7v-1.4h1.1v1c.2.1.4.2.7.3s.5.1.8.1.7-.1.9-.2c.2-.2.3-.4.3-.6,0-.3-.1-.5-.3-.6s-.5-.3-1-.5c-.8-.2-1.4-.5-1.9-.8-.4-.3-.6-.8-.6-1.3s.2-1,.7-1.4,1.1-.5,1.8-.5,1,.1,1.5.2c.4.2.8.4,1.1.6v1.3h-.1Z"/>
    <path class="cls-18" d="M229.5,392.1c-.7,0-1.3-.2-1.8-.7-.4-.5-.7-1.1-.7-1.8v-.2c0-.8.2-1.4.6-1.9s1-.7,1.7-.7,1.2.2,1.6.6c.4.4.6,1,.6,1.7v.8h-3.1c0,.3.1.6.3.8.2.2.5.3.8.3s.6,0,.8-.1.4-.2.7-.3l.4.9c-.2.2-.5.3-.8.4-.3.1-.7.2-1.1.2ZM229.4,387.8c-.3,0-.5.1-.6.3-.1.2-.2.5-.3.8h1.7c0-.4-.1-.6-.2-.8,0-.2-.3-.3-.6-.3Z"/>
    <path class="cls-18" d="M234.6,391c.2,0,.4-.1.6-.2.1-.1.2-.3.2-.6h1.3c0,.5-.2,1-.6,1.3-.4.3-.9.5-1.5.5s-1.4-.2-1.8-.7c-.4-.5-.6-1.1-.6-1.9h0c0-.9.2-1.5.6-2,.4-.5,1-.7,1.8-.7s.8.1,1.1.2.6.3.8.5v1.4h-1.1l-.2-.8c-.1-.1-.2-.1-.3-.1s-.2-.1-.3-.1c-.4,0-.7.1-.8.4s-.2.7-.2,1.1h0c0,.6.1.9.2,1.2.2.4.5.5.8.5Z"/>
    <path class="cls-18" d="M240.9,391.3c-.2.2-.4.4-.6.6-.2.1-.5.2-.8.2-.5,0-1-.2-1.3-.5s-.5-.9-.5-1.6v-2.1h-.6v-.9h2v3.1c0,.4.1.6.2.8s.3.2.6.2.4,0,.6-.1c.2-.1.3-.2.4-.3v-2.8h-.6v-.9h2v4.2h.6v.9h-1.9v-.8Z"/>
  </g>
  <g class="cls-25">
    <path class="cls-18" d="M243.5,391.2h.7v-3.3h-.7v-.9h2v.7c.2-.3.4-.5.6-.6s.4-.2.7-.2h.4v1.3h-.7c-.2,0-.4,0-.5.1s-.2.2-.3.3v2.5h.7v.9h-2.7v-.8h-.2Z"/>
  </g>
  <g class="cls-25">
    <path class="cls-18" d="M249.9,392.1c-.7,0-1.3-.2-1.8-.7-.4-.5-.7-1.1-.7-1.8v-.2c0-.8.2-1.4.6-1.9s1-.7,1.7-.7,1.2.2,1.6.6c.4.4.6,1,.6,1.7v.8h-3.1c0,.3.1.6.3.8.2.2.5.3.8.3s.6,0,.8-.1.4-.2.7-.3l.4.9c-.2.2-.5.3-.8.4-.3.1-.7.2-1.1.2ZM249.7,387.8c-.3,0-.5.1-.6.3-.1.2-.2.5-.3.8h1.7c0-.4-.1-.6-.2-.8,0-.2-.3-.3-.6-.3Z"/>
    <path class="cls-18" d="M255.9,391.4c-.2.2-.4.4-.6.5-.2.1-.5.2-.8.2-.6,0-1.1-.2-1.5-.7-.3-.5-.5-1.1-.5-1.8h0c0-.9.2-1.6.5-2.1s.8-.7,1.5-.7.5.1.7.2.4.3.5.5v-1.8h-.7v-.9h2.1v6.4h.7v.9h-1.8v-.7ZM254,389.6c0,.4.1.8.2,1.1.2.3.4.4.7.4s.4,0,.5-.1.3-.2.4-.4v-2.2c-.1-.2-.2-.3-.4-.4-.1-.1-.3-.1-.5-.1-.3,0-.6.2-.7.5,0,.2-.2.6-.2,1.2h0Z"/>
    <path class="cls-18" d="M264.9,388.6h-.9v-.6c-.2-.1-.3-.1-.5-.2-.1,0-.3-.1-.5-.1s-.4.1-.6.2c-.1.1-.2.2-.2.4s.1.3.2.4.4.2.8.3c.6.1,1.1.3,1.4.6.3.2.5.6.5,1s-.2.8-.6,1.1c-.4.3-.9.4-1.6.4s-.8-.1-1.1-.2c-.3-.1-.6-.3-.9-.5v-1.2h1l.2.7c.1.1.2.1.3.2h.4c.3,0,.5-.1.6-.2s.2-.2.2-.4-.1-.3-.2-.4-.4-.2-.8-.3c-.6-.1-1.1-.3-1.4-.5s-.5-.6-.5-1,.2-.8.5-1.1c.4-.3.9-.5,1.5-.5s.8.1,1.1.2.6.2.8.4l.3,1.3Z"/>
    <path class="cls-18" d="M267.7,385.6v1.3h.9v1h-.9v2.6c0,.2,0,.3.1.4s.2.1.3.1h.4v1c-.1,0-.2.1-.4.1h-.5c-.5,0-.8-.1-1.1-.4-.3-.3-.4-.7-.4-1.2v-2.6h-.8v-1h.8v-1.3h1.6Z"/>
    <path class="cls-18" d="M272.7,391.4c-.2.2-.4.4-.6.5s-.5.2-.8.2c-.6,0-1.1-.2-1.5-.7-.3-.5-.5-1.1-.5-1.8h0c0-.9.2-1.6.5-2.1.4-.5.8-.7,1.5-.7s.5.1.7.2.4.3.5.5v-1.8h-.7v-.9h2.1v6.4h.7v.9h-1.9v-.7ZM270.7,389.6c0,.4.1.8.2,1.1.1.3.4.4.7.4s.4,0,.5-.1.3-.2.4-.4v-2.2c-.1-.2-.2-.3-.4-.4-.1-.1-.3-.1-.5-.1-.3,0-.6.2-.7.5-.1.2-.2.6-.2,1.2h0Z"/>
    <path class="cls-18" d="M275.1,389.4c0-.8.2-1.4.6-1.9s1-.7,1.8-.7,1.4.2,1.8.7.6,1.1.6,1.9h0c0,.9-.2,1.5-.6,2s-1,.7-1.8.7-1.4-.2-1.8-.7c-.4-.5-.6-1.2-.6-2h0ZM276.5,389.5c0,.5.1.8.2,1.1s.4.4.8.4.6-.1.8-.4c.2-.3.2-.7.2-1.1h0c0-.6-.1-.9-.3-1.2-.2-.3-.4-.4-.8-.4s-.6.1-.8.4-.1.6-.1,1.2h0Z"/>
    <path class="cls-18" d="M284.1,391.3l-.6.6c-.2.1-.5.2-.8.2-.5,0-1-.2-1.3-.5s-.5-.9-.5-1.6v-2.1h-.6v-.9h2v3.1c0,.4.1.6.2.8s.3.2.6.2.4,0,.6-.1.3-.2.4-.3v-2.8h-.6v-.9h2v4.2h.6v.9h-1.8l-.2-.8Z"/>
    <path class="cls-18" d="M288.6,385.6v1.3h.9v1h-.9v2.6c0,.2,0,.3.1.4s.2.1.3.1h.4v1c-.1,0-.2.1-.4.1h-.5c-.5,0-.8-.1-1.1-.4s-.4-.7-.4-1.2v-2.6h-.8v-1h.8v-1.3h1.6Z"/>
    <path class="cls-18" d="M291.8,391.8c0,.3-.1.7-.3,1s-.4.7-.7.9l-.7-.4c.1-.2.2-.5.3-.7s.1-.5.1-.8v-1h1.2v1Z"/>
    <path class="cls-18" d="M296.7,392h-1.4v-1.2h1.4v1.2Z"/>
    <path class="cls-18" d="M299.1,392h-1.4v-1.2h1.4v1.2Z"/>
    <path class="cls-18" d="M301.6,392h-1.4v-1.2h1.4v1.2Z"/>
  </g>
  <g class="cls-25">
    <path class="cls-18" d="M197.3,146.3h4.6v.9h-3.6v2.7h3.3v.9h-3.3v3h3.6v.9h-4.6v-8.4Z"/>
    <path class="cls-18" d="M207.5,154.7v-3.4c0-.6-.1-1.1-.3-1.4-.2-.3-.5-.5-1-.5s-.8.1-1.1.3-.5.5-.6.9v4.1h-1v-6h.7l.2.7h0c.2-.3.4-.5.8-.6.3-.2.7-.2,1.2-.2s.6,0,.9.1c.2.1.5.2.6.4s.3.5.4.8c.1.3.1.7.1,1.2v3.6h-.9Z"/>
    <path class="cls-18" d="M211.9,152.2l.3,1.1h0l.3-1.2,1.3-3.5h1l-2.6,6.1h-.2l-2.6-6.1h1.1l1.4,3.6Z"/>
    <path class="cls-18" d="M216,146.9c0-.2.1-.3.2-.5s.3-.2.5-.2.4.1.5.2c.1.1.2.3.2.5s-.1.3-.2.5c-.1.1-.3.2-.5.2s-.4-.1-.5-.2-.2-.3-.2-.5ZM216.2,148.7h1v6h-1v-6Z"/>
    <path class="cls-18" d="M222.1,149.6c-.2-.1-.5-.1-.7-.1-.3,0-.6.1-.8.3s-.3.4-.4.7v4.2h-1v-6h.7l.2.7h0c.2-.3.3-.5.5-.6s.5-.2.8-.2.5,0,.8.1v.9Z"/>
    <path class="cls-18" d="M223,151.7c0-1,.2-1.8.7-2.3s1.1-.8,2-.8.8.1,1.2.2.6.4.8.6c.2.3.4.6.5,1s.2.8.2,1.3c0,1-.2,1.8-.7,2.3s-1.1.8-2,.8-.8-.1-1.2-.2c-.3-.1-.6-.4-.8-.6-.2-.3-.4-.6-.5-1-.2-.4-.2-.8-.2-1.3ZM224,151.7c0,.3,0,.6.1.9.1.3.2.5.3.7s.3.4.5.5.5.2.8.2c1.1,0,1.6-.8,1.6-2.3s0-.6-.1-.9c-.1-.3-.2-.5-.3-.7s-.3-.4-.5-.5-.5-.2-.8-.2c-1.1,0-1.6.8-1.6,2.3Z"/>
    <path class="cls-18" d="M233.6,154.7v-3.4c0-.6-.1-1.1-.3-1.4-.2-.3-.5-.5-1-.5s-.8.1-1,.3c-.3.2-.5.5-.6.9v4.1h-1v-6h.7l.2.7h0c.2-.3.5-.5.8-.6.3-.2.7-.2,1.2-.2s.6,0,.9.1c.2.1.5.2.6.4s.3.5.4.8c.1.3.1.7.1,1.2v3.6h-1Z"/>
    <path class="cls-18" d="M239.8,154.7v-4.2c0-.2-.1-.4-.2-.6-.1-.2-.2-.3-.3-.4-.1-.1-.3-.1-.6-.1s-.7.1-.9.3-.4.5-.5.8v4.1h-1v-6h.7l.2.7h0c.2-.3.5-.5.8-.6.3-.2.7-.2,1.1-.2s.7.1.9.2.4.4.6.8c.2-.3.4-.6.8-.7s.7-.3,1.1-.3.6,0,.9.1c.2.1.4.2.6.4.2.2.3.5.3.8.1.3.1.7.1,1.2v3.6h-1v-4.4c0-.3-.1-.4-.2-.5l-.3-.3c-.1-.1-.3-.1-.6-.1s-.7.1-.9.3-.4.5-.5,1v4h-1.1Z"/>
    <path class="cls-18" d="M250.4,154.2c-.2.2-.5.3-.9.5-.4.1-.8.2-1.2.2s-.9-.1-1.2-.2c-.3-.1-.6-.4-.8-.6-.2-.3-.4-.6-.5-1s-.2-.8-.2-1.3c0-1,.2-1.8.7-2.3s1.1-.8,2-.8.5,0,.8.1.5.2.7.3c.2.2.4.4.5.7s.2.7.2,1.2,0,.6-.1.9h-3.9c0,.4,0,.7.1.9.1.3.2.5.3.7.2.2.3.3.6.4.2.1.5.1.9.1s.5,0,.8-.1.5-.2.6-.3l.6.6ZM248.4,149.4c-.5,0-.9.1-1.1.4-.3.2-.5.7-.5,1.3h3c0-.6-.1-1-.3-1.3-.4-.3-.7-.4-1.1-.4Z"/>
    <path class="cls-18" d="M256,154.7v-3.4c0-.6-.1-1.1-.3-1.4-.2-.3-.5-.5-1-.5s-.8.1-1,.3c-.3.2-.5.5-.6.9v4.1h-1v-6h.7l.2.7h0c.2-.3.5-.5.8-.6.3-.2.7-.2,1.2-.2s.6,0,.9.1c.2.1.5.2.6.4s.3.5.4.8.1.7.1,1.2v3.6h-1Z"/>
    <path class="cls-18" d="M257.9,148.7h.9v-1.2l1-.3v1.5h1.6v.8h-1.6v3.3c0,.4.1.7.2.9s.3.3.5.3.4,0,.5-.1c.1,0,.3-.1.5-.2l.2.7c-.2.1-.5.2-.7.3-.3.1-.5.1-.8.1-.5,0-.8-.1-1-.4-.2-.3-.3-.7-.3-1.4v-3.5h-.9v-.8h-.1Z"/>
  </g>
  <g class="cls-25">
    <path class="cls-18" d="M267.5,152.2l.3,1.1h0l.3-1.2,1.3-3.5h1l-2.6,6.1h-.4l-2.6-6.1h1.1l1.6,3.6Z"/>
    <path class="cls-18" d="M271.5,149.2c.3-.2.7-.3,1.1-.4.4-.1.8-.1,1.3-.1s.8.1,1,.2.4.3.6.4c.1.2.2.4.3.6,0,.2.1.4.1.6v3.5c0,.3.1.5.1.7h-.7l-.3-.8h-.1c-.1.1-.2.2-.3.3-.1.1-.2.2-.4.3-.2.1-.3.2-.5.2-.2.1-.4.1-.7.1s-.5,0-.7-.1l-.6-.3c-.2-.1-.3-.3-.4-.5s-.1-.4-.1-.7.1-.6.2-.9c.1-.2.3-.4.6-.6.3-.1.6-.2.9-.3.4-.1.8-.1,1.2-.1h.6v-.6c0-.4-.1-.7-.3-.9s-.5-.3-1-.3h-.4c-.2,0-.3,0-.5.1s-.3.1-.5.1c-.1.1-.3.1-.4.2v-.7ZM273.2,154c.2,0,.4,0,.6-.1s.3-.1.5-.2c.1-.1.2-.2.3-.3.1-.1.1-.2.2-.3v-1h-1.3c-.2,0-.4.1-.6.2-.2.1-.3.2-.4.3s-.2.3-.2.5c0,.3.1.5.3.7,0,.1.3.2.6.2Z"/>
    <path class="cls-18" d="M280.4,149.6c-.2-.1-.5-.1-.7-.1-.3,0-.6.1-.8.3-.2.2-.3.4-.4.7v4.2h-1v-6h.7l.2.7h0c.2-.3.3-.5.5-.6s.5-.2.8-.2.5,0,.8.1v.9Z"/>
    <path class="cls-18" d="M281.6,146.9c0-.2.1-.3.2-.5s.3-.2.5-.2.4.1.5.2c.1.1.2.3.2.5s-.1.3-.2.5c-.1.1-.3.2-.5.2s-.4-.1-.5-.2-.2-.3-.2-.5ZM281.8,148.7h1v6h-1v-6Z"/>
    <path class="cls-18" d="M284.7,149.2c.3-.2.7-.3,1.1-.4s.8-.1,1.3-.1.8.1,1,.2c.3.1.4.3.6.4.1.2.2.4.3.6,0,.2.1.4.1.6v3.5c0,.3.1.5.1.7h-.7l-.3-.8h-.1c-.1.1-.2.2-.3.3-.1.1-.2.2-.4.3-.2.1-.3.2-.5.2-.2.1-.4.1-.7.1s-.5,0-.7-.1l-.6-.3c-.2-.1-.3-.3-.4-.5s-.1-.4-.1-.7.1-.6.2-.9c.1-.2.3-.4.6-.6.3-.1.6-.2.9-.3.4-.1.8-.1,1.2-.1h.6v-.6c0-.4-.1-.7-.3-.9-.2-.2-.5-.3-1-.3h-.4c-.2,0-.3,0-.5.1s-.3.1-.5.1c-.1.1-.3.1-.4.2v-.7ZM286.4,154c.2,0,.4,0,.6-.1s.3-.1.5-.2c.1-.1.2-.2.3-.3.1-.1.1-.2.2-.3v-1h-1.3c-.2,0-.4.1-.6.2s-.3.2-.4.3-.2.3-.2.5c0,.3.1.5.3.7.1.1.3.2.6.2Z"/>
    <path class="cls-18" d="M290.8,146.3h1v3h0c.2-.2.4-.4.7-.5s.6-.2.9-.2c.8,0,1.4.2,1.7.7.4.5.6,1.3.6,2.3s-.3,1.8-.8,2.4-1.2.8-2.2.8-.9,0-1.2-.1-.6-.2-.8-.3v-8.1h0ZM293.3,149.4c-.4,0-.7.1-1,.3s-.4.5-.5.9v3c.2.1.3.2.6.2s.4.1.7.1c.5,0,1-.2,1.3-.6.3-.4.5-1,.5-1.8s0-.6-.1-.9c-.1-.3-.1-.5-.3-.7-.1-.2-.3-.3-.5-.5-.2.1-.5,0-.7,0Z"/>
    <path class="cls-18" d="M298.3,153.2c0,.3,0,.5.1.6s.2.2.4.2h.3c.1,0,.3-.1.4-.1v.8c0,.1-.2.1-.4.2-.2,0-.4.1-.6.1-.4,0-.7-.1-.9-.3s-.3-.5-.3-1v-7.2h1v6.7Z"/>
    <path class="cls-18" d="M305.2,154.2c-.2.2-.5.3-.9.5-.4.1-.8.2-1.2.2s-.9-.1-1.2-.2c-.3-.1-.6-.4-.8-.6-.2-.3-.4-.6-.5-1s-.2-.8-.2-1.3c0-1,.2-1.8.7-2.3s1.1-.8,2-.8.5,0,.8.1.5.2.7.3c.2.2.4.4.5.7s.2.7.2,1.2,0,.6-.1.9h-3.9c0,.4,0,.7.1.9.1.3.2.5.3.7.2.2.3.3.6.4.2.1.5.1.9.1s.5,0,.8-.1.5-.2.6-.3l.6.6ZM303.1,149.4c-.5,0-.9.1-1.1.4-.3.2-.5.7-.5,1.3h3c0-.6-.1-1-.3-1.3-.4-.3-.7-.4-1.1-.4Z"/>
    <path class="cls-18" d="M309.5,153.1c0-.2-.1-.4-.2-.6-.1-.1-.3-.3-.5-.3-.2-.1-.4-.2-.7-.3s-.5-.2-.7-.3-.4-.3-.5-.5-.2-.5-.2-.8c0-.6.2-1,.5-1.3s.8-.4,1.4-.4.8,0,1.1.1c.3.1.5.2.8.3l-.2.8c-.2-.1-.4-.2-.7-.2-.3-.1-.5-.1-.8-.1s-.6.1-.8.2-.2.3-.2.6.1.4.2.5.3.2.5.3.4.2.7.3.5.2.7.3.4.3.5.5.2.5.2.9,0,.5-.1.7-.2.4-.4.6-.4.3-.7.4c-.3.1-.6.1-.9.1-.5,0-.8,0-1.2-.1-.3-.1-.6-.2-.8-.3l.3-.8c.2.1.4.2.7.3s.6.1.9.1.6-.1.9-.2c.1-.2.2-.5.2-.8Z"/>
  </g>
  <g class="cls-25">
    <path class="cls-18" d="M201.3,166.8h-3.1l-.8,2.3h-1l3.2-8.5h.5l3.2,8.5h-1.1l-.9-2.3ZM198.5,165.9h2.5l-.9-2.6-.3-1.3h0l-.3,1.3-1,2.6Z"/>
    <path class="cls-18" d="M207.1,164c-.2-.1-.5-.1-.7-.1-.3,0-.6.1-.8.3s-.3.4-.4.7v4.2h-1v-6h.7l.2.7h0c.2-.3.3-.5.5-.6s.5-.2.8-.2.5,0,.8.1v.9Z"/>
    <path class="cls-18" d="M212.9,169.4c0,.8-.2,1.3-.6,1.7s-1,.6-1.8.6-.9,0-1.2-.1-.5-.1-.8-.2l.3-.8c.2.1.4.1.6.2.2.1.5.1.9.1s.6,0,.8-.1.4-.2.5-.3.2-.3.3-.5c0-.2.1-.5.1-.8v-.6h0c-.2.2-.4.4-.6.5-.2.1-.6.2-1,.2-.8,0-1.4-.3-1.8-.8-.4-.5-.6-1.3-.6-2.4s.2-1.8.7-2.3,1.2-.8,2.2-.8.8,0,1.2.1c.3.1.6.2.9.3v6h0ZM210.5,168.4c.4,0,.7-.1,1-.3s.4-.5.5-1v-3.1c-.3-.2-.7-.2-1.2-.2s-1,.2-1.3.6c-.3.4-.5.9-.5,1.7s0,.6.1.9c.1.3.1.5.3.7.1.2.3.4.5.5s.3.2.6.2Z"/>
    <path class="cls-18" d="M215.6,163.1v3.4c0,.3,0,.6.1.8,0,.2.1.4.2.6s.2.3.4.4c.2.1.3.1.6.1s.4,0,.6-.1.3-.2.5-.3c.1-.1.2-.3.3-.4s.2-.3.2-.5v-4h1v5.2c0,.3.1.6.1.8h-.7l-.2-.9h-.1c-.2.3-.4.6-.7.8s-.7.3-1.2.3-.6,0-.8-.1-.4-.2-.6-.4c-.2-.2-.3-.5-.4-.8-.1-.3-.1-.7-.1-1.2v-3.6h.8Z"/>
    <path class="cls-18" d="M224.8,169.1v-4.2c0-.2-.1-.4-.2-.6-.1-.2-.2-.3-.3-.4-.1-.1-.3-.1-.6-.1s-.7.1-.9.3-.4.5-.5.8v4.1h-1v-6h.7l.2.7h0c.2-.3.5-.5.8-.6.3-.2.7-.2,1.1-.2s.7.1.9.2.4.4.6.8c.2-.3.4-.6.8-.7s.7-.3,1.1-.3.6,0,.9.1c.2.1.4.2.6.4.2.2.3.5.3.8.1.3.1.7.1,1.2v3.6h-1v-4.4c0-.3-.1-.4-.2-.5l-.3-.3c-.1-.1-.3-.1-.6-.1s-.7.1-.9.3-.4.5-.5,1v4h-1.1Z"/>
    <path class="cls-18" d="M235.4,168.6c-.2.2-.5.3-.9.5-.4.1-.8.2-1.2.2s-.9-.1-1.2-.2c-.3-.1-.6-.4-.8-.6-.2-.3-.4-.6-.5-1s-.2-.8-.2-1.3c0-1,.2-1.8.7-2.3s1.1-.8,2-.8.5,0,.8.1.5.2.7.3c.2.2.4.4.5.7s.2.7.2,1.2,0,.6-.1.9h-3.9c0,.4,0,.7.1.9.1.3.2.5.3.7.2.2.3.3.6.4.2.1.5.1.9.1s.5,0,.8-.1.5-.2.6-.3l.6.6ZM233.3,163.8c-.5,0-.9.1-1.1.4-.3.2-.5.7-.5,1.3h3c0-.6-.1-1-.3-1.3-.4-.3-.7-.4-1.1-.4Z"/>
    <path class="cls-18" d="M240.9,169.1v-3.4c0-.6-.1-1.1-.3-1.4-.2-.3-.5-.5-1-.5s-.8.1-1,.3c-.3.2-.5.5-.6.9v4.1h-1v-6h.7l.2.7h0c.2-.3.5-.5.8-.6.3-.2.7-.2,1.2-.2s.6,0,.9.1c.2.1.5.2.6.4s.3.5.4.8c.1.3.1.7.1,1.2v3.6h-1Z"/>
    <path class="cls-18" d="M242.8,163.1h.9v-1.2l1-.3v1.5h1.6v.8h-1.6v3.3c0,.4.1.7.2.9.1.2.3.3.5.3s.4,0,.5-.1c.1,0,.3-.1.5-.2l.2.7c-.2.1-.5.2-.7.3-.3.1-.5.1-.8.1-.5,0-.8-.1-1-.4-.2-.3-.3-.7-.3-1.4v-3.5h-.9v-.8h0Z"/>
    <path class="cls-18" d="M250.3,167.5c0-.2-.1-.4-.2-.6-.1-.1-.3-.3-.5-.3-.2-.1-.4-.2-.7-.3s-.5-.2-.7-.3-.4-.3-.5-.5-.2-.5-.2-.8c0-.6.2-1,.5-1.3s.8-.4,1.4-.4.8,0,1.1.1.5.2.8.3l-.2.8c-.2-.1-.4-.2-.7-.2-.3-.1-.5-.1-.8-.1s-.6.1-.8.2-.2.3-.2.6.1.4.2.5c.1.1.3.2.5.3s.4.2.7.3.5.2.7.3.4.3.5.5.2.5.2.9,0,.5-.1.7-.2.4-.4.6-.4.3-.7.4c-.3.1-.6.1-.9.1-.5,0-.8,0-1.2-.1-.3-.1-.6-.2-.8-.3l.3-.8c.2.1.4.2.7.3s.6.1.9.1.6-.1.9-.2c0-.2.2-.5.2-.8Z"/>
  </g>
  <g class="cls-25">
    <path class="cls-18" d="M197.3,175.1h4.6v.9h-3.6v2.9h3.3v.9h-3.3v3.8h-1v-8.5Z"/>
    <path class="cls-18" d="M203.4,175.7c0-.2.1-.3.2-.5s.3-.2.5-.2.4.1.5.2c.1.1.2.3.2.5s-.1.3-.2.5c-.1.1-.3.2-.5.2s-.4-.1-.5-.2-.2-.3-.2-.5ZM203.6,177.5h1v6h-1v-6Z"/>
    <path class="cls-18" d="M207.7,182c0,.3,0,.5.1.6s.2.2.4.2h.3c.1,0,.3-.1.4-.1v.8c0,.1-.2.1-.4.2s-.4.1-.6.1c-.4,0-.7-.1-.9-.3s-.3-.5-.3-1v-7.2h1v6.7Z"/>
    <path class="cls-18" d="M214.5,183c-.2.2-.5.3-.9.5-.4.1-.8.2-1.2.2s-.9-.1-1.2-.2c-.3-.1-.6-.4-.8-.6-.2-.3-.4-.6-.5-1s-.2-.8-.2-1.3c0-1,.2-1.8.7-2.3s1.1-.8,2-.8.5,0,.8.1.5.2.7.3c.2.2.4.4.5.7s.2.7.2,1.2,0,.6-.1.9h-3.9c0,.4,0,.7.1.9.1.3.2.5.3.7.2.2.4.3.6.4.2.1.5.1.9.1s.5,0,.8-.1.5-.2.6-.3l.6.6ZM212.5,178.2c-.5,0-.9.1-1.1.4-.3.2-.5.7-.5,1.3h3c0-.6-.1-1-.3-1.3-.4-.3-.7-.4-1.1-.4Z"/>
  </g>
  <g class="cls-25">
    <path class="cls-18" d="M221,180.8h-.6v2.7h-1v-8.4h1v5.1l.5-.2,1.9-2.5h1.1l-1.8,2.4-.5.4.6.5,2,2.7h-1.2l-2-2.7Z"/>
  </g>
  <g class="cls-25">
    <path class="cls-18" d="M229.4,183c-.2.2-.5.3-.9.5-.4.1-.8.2-1.2.2s-.9-.1-1.2-.2c-.3-.1-.6-.4-.8-.6-.2-.3-.4-.6-.5-1s-.2-.8-.2-1.3c0-1,.2-1.8.7-2.3s1.1-.8,2-.8.5,0,.8.1.5.2.7.3c.2.2.4.4.5.7s.2.7.2,1.2,0,.6-.1.9h-3.9c0,.4,0,.7.1.9.1.3.2.5.3.7.2.2.4.3.6.4.2.1.5.1.9.1s.5,0,.8-.1.5-.2.6-.3l.6.6ZM227.4,178.2c-.5,0-.9.1-1.1.4-.3.2-.5.7-.5,1.3h3c0-.6-.1-1-.3-1.3-.4-.3-.7-.4-1.1-.4Z"/>
  </g>
  <g class="cls-25">
    <path class="cls-18" d="M232.7,181.4l.3,1.2h.1l.3-1.2,1.2-3.9h1l-1.8,5.4c-.1.4-.3.8-.4,1.1-.1.4-.3.7-.4,1-.2.3-.3.5-.5.7s-.4.3-.7.3-.5,0-.7-.1l.2-.8c.1,0,.2.1.3.1.2,0,.4-.1.6-.4.2-.2.4-.6.5-1.2l-2.4-6h1.1l1.3,3.8Z"/>
    <path class="cls-18" d="M239.1,181.9c0-.2-.1-.4-.2-.6-.1-.1-.3-.3-.5-.3s-.4-.2-.7-.3-.5-.2-.7-.3-.4-.3-.5-.5-.2-.5-.2-.8c0-.6.2-1,.5-1.3s.8-.4,1.4-.4.8,0,1.1.1.5.2.8.3l-.2.8c-.2-.1-.4-.2-.7-.2-.3-.1-.5-.1-.8-.1s-.6.1-.8.2-.2.3-.2.6.1.4.2.5.3.2.5.3.4.2.7.3.5.2.7.3.4.3.5.5.2.5.2.9,0,.5-.1.7-.2.4-.4.6c-.2.2-.4.3-.7.4-.3.1-.6.1-.9.1-.5,0-.8,0-1.2-.1s-.6-.2-.8-.3l.3-.8c.2.1.4.2.7.3s.6.1.9.1.6-.1.9-.2c0-.2.2-.5.2-.8Z"/>
  </g>
  <g class="cls-25">
    <path class="cls-18" d="M260.5,311.6h-2.6v7.5h-1v-7.5h-2.6v-.9h6.2v.9Z"/>
  </g>
  <g class="cls-25">
    <path class="cls-18" d="M263.2,314.1c-.2-.1-.5-.1-.7-.1-.3,0-.6.1-.8.3s-.3.4-.4.7v4.2h-1v-6h.7l.2.7h0c.2-.3.3-.5.5-.6s.5-.2.8-.2.5,0,.8.1v.9Z"/>
    <path class="cls-18" d="M264.3,313.6c.3-.2.7-.3,1.1-.4s.8-.1,1.3-.1.8.1,1,.2c.3.1.4.3.6.4.1.2.2.4.3.6,0,.2.1.4.1.6v3.5c0,.3.1.5.1.7h-.7l-.3-.8h-.1l-.3.3c-.1.1-.2.2-.4.3-.2.1-.3.2-.5.2-.2.1-.4.1-.7.1s-.5,0-.7-.1-.4-.2-.6-.3c-.2-.1-.3-.3-.4-.5s-.1-.4-.1-.7.1-.6.2-.9c.1-.2.3-.4.6-.6.3-.1.6-.2.9-.3.4-.1.8-.1,1.2-.1h.6v-.6c0-.4-.1-.7-.3-.9s-.5-.3-1-.3h-.4c-.2,0-.3,0-.5.1s-.3.1-.5.1c-.1.1-.3.1-.4.2v-.7ZM266,318.4c.2,0,.4,0,.6-.1s.3-.1.5-.2l.3-.3c.1-.1.1-.2.2-.3v-1h-1.3c-.2,0-.4.1-.6.2s-.3.2-.4.3c-.1.1-.2.3-.2.5,0,.3.1.5.3.7.1,0,.3.2.6.2Z"/>
    <path class="cls-18" d="M274.2,319.1v-3.4c0-.6-.1-1.1-.3-1.4-.2-.3-.5-.5-1-.5s-.8.1-1.1.3c-.3.2-.5.5-.6.9v4.1h-1v-6h.7l.2.7h0c.2-.3.5-.5.8-.6.3-.2.7-.2,1.2-.2s.6,0,.9.1c.2.1.5.2.6.4s.3.5.4.8.1.7.1,1.2v3.6h-.9Z"/>
    <path class="cls-18" d="M279.6,317.5c0-.2-.1-.4-.2-.6-.1-.1-.3-.3-.5-.3s-.4-.2-.7-.3-.5-.2-.7-.3-.4-.3-.5-.5-.2-.5-.2-.8c0-.6.2-1,.5-1.3s.8-.4,1.4-.4.8,0,1.1.1c.3.1.5.2.8.3l-.2.8c-.2-.1-.4-.2-.7-.2-.3-.1-.5-.1-.8-.1s-.6.1-.8.2-.2.3-.2.6.1.4.2.5.3.2.5.3.4.2.7.3.5.2.7.3.4.3.5.5.2.5.2.9,0,.5-.1.7-.2.4-.4.6-.4.3-.7.4-.6.1-.9.1c-.5,0-.8,0-1.2-.1-.3-.1-.6-.2-.8-.3l.3-.8c.2.1.4.2.7.3s.6.1.9.1.6-.1.9-.2c.1-.2.2-.5.2-.8Z"/>
    <path class="cls-18" d="M282,313.1h.7l.2.7h0c.2-.3.4-.5.7-.6s.6-.2,1-.2c.8,0,1.4.2,1.8.7s.6,1.2.6,2.3-.1,1-.2,1.4-.3.7-.6,1c-.2.3-.5.5-.9.6s-.7.2-1.1.2-.5,0-.7-.1-.4-.1-.6-.2v2.5h-1v-8.3h.1ZM284.4,313.8c-.4,0-.7.1-1,.3-.2.2-.4.5-.5,1v3c.1.1.3.2.5.3.2.1.4.1.7.1.6,0,1-.2,1.3-.6s.5-1,.5-1.8,0-.6-.1-.9-.1-.5-.3-.7c-.1-.2-.3-.3-.5-.4-.1-.2-.3-.3-.6-.3Z"/>
    <path class="cls-18" d="M288.4,313.6c.3-.2.7-.3,1.1-.4s.8-.1,1.3-.1.8.1,1,.2.4.3.6.4c.1.2.2.4.3.6,0,.2.1.4.1.6v3.5c0,.3.1.5.1.7h-.9l-.3-.8h-.1l-.3.3c-.1.1-.2.2-.4.3-.2.1-.3.2-.5.2-.2.1-.4.1-.7.1s-.5,0-.7-.1-.4-.2-.6-.3c-.2-.1-.3-.3-.4-.5s-.1-.4-.1-.7.1-.6.2-.9c.1-.2.3-.4.6-.6.3-.1.6-.2.9-.3.4-.1.8-.1,1.2-.1h.6v-.6c0-.4-.1-.7-.3-.9s-.5-.3-1-.3h-.4c-.2,0-.3,0-.5.1-.2,0-.3.1-.5.1-.1.1-.3.1-.4.2v-.7ZM290.1,318.4c.2,0,.4,0,.6-.1s.3-.1.5-.2l.3-.3c.1-.1.1-.2.2-.3v-1h-1.3c-.2,0-.4.1-.6.2s-.3.2-.4.3-.2.3-.2.5c0,.3.1.5.3.7,0,0,.3.2.6.2Z"/>
    <path class="cls-18" d="M297.3,314.1c-.2-.1-.5-.1-.7-.1-.3,0-.6.1-.8.3s-.3.4-.4.7v4.2h-1v-6h.7l.2.7h0c.2-.3.3-.5.5-.6s.5-.2.8-.2.5,0,.8.1v.9Z"/>
    <path class="cls-18" d="M302.9,318.6c-.2.2-.5.3-.9.5-.4.1-.8.2-1.2.2s-.9-.1-1.2-.2c-.3-.1-.6-.4-.8-.6-.2-.3-.4-.6-.5-1s-.2-.8-.2-1.3c0-1,.2-1.8.7-2.3s1.1-.8,2-.8.5,0,.8.1.5.2.7.3c.2.2.4.4.5.7.1.3.2.7.2,1.2s0,.6-.1.9h-3.9c0,.4,0,.7.1.9.1.3.2.5.3.7.2.2.3.3.6.4.2.1.5.1.9.1s.5,0,.8-.1.5-.2.6-.3l.6.6ZM300.8,313.8c-.5,0-.9.1-1.1.4-.3.2-.5.7-.5,1.3h3c0-.6-.1-1-.3-1.3-.3-.3-.7-.4-1.1-.4Z"/>
    <path class="cls-18" d="M308.5,319.1v-3.4c0-.6-.1-1.1-.3-1.4-.2-.3-.5-.5-1-.5s-.8.1-1,.3c-.3.2-.5.5-.6.9v4.1h-1v-6h.7l.2.7h0c.2-.3.5-.5.8-.6.3-.2.7-.2,1.2-.2s.6,0,.9.1c.2.1.5.2.6.4s.3.5.4.8.1.7.1,1.2v3.6h-1Z"/>
    <path class="cls-18" d="M310.4,313.1h.9v-1.2l1-.3v1.5h1.6v.8h-1.6v3.3c0,.4.1.7.2.9.1.2.3.3.5.3s.4,0,.5-.1c.1,0,.3-.1.5-.2l.2.7c-.2.1-.5.2-.7.3-.3.1-.5.1-.8.1-.5,0-.8-.1-1-.4s-.3-.7-.3-1.4v-3.4h-.9v-.9h-.1Z"/>
    <path class="cls-18" d="M322.8,318.6c-.2.2-.5.3-.9.5-.4.1-.8.2-1.2.2s-.9-.1-1.2-.2c-.3-.1-.6-.4-.8-.6-.2-.3-.4-.6-.5-1s-.2-.8-.2-1.3c0-1,.2-1.8.7-2.3s1.1-.8,2-.8.5,0,.8.1.5.2.7.3c.2.2.4.4.5.7.1.3.2.7.2,1.2s0,.6-.1.9h-3.9c0,.4,0,.7.1.9.1.3.2.5.3.7.2.2.3.3.6.4.2.1.5.1.9.1s.5,0,.8-.1.5-.2.6-.3l.6.6ZM320.8,313.8c-.5,0-.9.1-1.1.4-.3.2-.5.7-.5,1.3h3c0-.6-.1-1-.3-1.3-.4-.3-.7-.4-1.1-.4Z"/>
    <path class="cls-18" d="M328.4,319.1v-3.4c0-.6-.1-1.1-.3-1.4-.2-.3-.5-.5-1-.5s-.8.1-1,.3c-.3.2-.5.5-.6.9v4.1h-1v-6h.7l.2.7h0c.2-.3.5-.5.8-.6.3-.2.7-.2,1.2-.2s.6,0,.9.1c.2.1.5.2.6.4s.3.5.4.8.1.7.1,1.2v3.6h-1Z"/>
    <path class="cls-18" d="M335.2,318.7c-.2.2-.5.3-.9.4s-.7.1-1,.1c-.5,0-.9-.1-1.2-.2-.3-.1-.6-.4-.8-.6-.2-.3-.4-.6-.4-1-.1-.4-.1-.8-.1-1.3,0-1,.2-1.8.7-2.3s1.1-.8,1.9-.8.7,0,1,.1.5.1.7.3l-.3.8c-.2-.1-.4-.2-.6-.2-.2-.1-.5-.1-.7-.1-1.1,0-1.7.8-1.7,2.3s0,.6.1.9.2.5.3.7c.1.2.3.4.6.5.2.1.5.2.8.2s.5,0,.8-.1c.2-.1.4-.2.6-.3l.2.6Z"/>
    <path class="cls-18" d="M339.3,314.1c-.2-.1-.5-.1-.7-.1-.3,0-.6.1-.8.3s-.3.4-.4.7v4.2h-1v-6h.7l.2.7h0c.2-.3.3-.5.5-.6s.5-.2.8-.2.5,0,.8.1v.9Z"/>
    <path class="cls-18" d="M342.4,317l.3,1.2h.1l.3-1.2,1.2-3.9h1l-1.8,5.4c-.1.4-.3.8-.4,1.1-.1.4-.3.7-.4,1s-.3.5-.5.7-.4.3-.7.3-.5,0-.7-.1l.2-.8c.1,0,.2.1.3.1.2,0,.4-.1.6-.4.2-.2.4-.6.5-1.2l-2.4-6h1.1l1.3,3.8Z"/>
    <path class="cls-18" d="M346.2,313.1h.7l.2.7h0c.2-.3.4-.5.7-.6.3-.1.6-.2,1-.2.8,0,1.4.2,1.8.7s.6,1.2.6,2.3-.1,1-.2,1.4-.3.7-.6,1c-.2.3-.5.5-.9.6-.3.2-.7.2-1.1.2s-.5,0-.7-.1c-.2,0-.4-.1-.6-.2v2.5h-1v-8.3h.1ZM348.6,313.8c-.4,0-.7.1-1,.3s-.4.5-.5,1v3c.1.1.3.2.5.3.2.1.4.1.7.1.6,0,1-.2,1.3-.6s.5-1,.5-1.8,0-.6-.1-.9-.1-.5-.3-.7c-.1-.2-.3-.3-.5-.4-.1-.2-.3-.3-.6-.3Z"/>
    <path class="cls-18" d="M351.9,313.1h.9v-1.2l1-.3v1.5h1.6v.8h-1.6v3.3c0,.4.1.7.2.9.1.2.3.3.5.3s.4,0,.5-.1c.1,0,.3-.1.5-.2l.2.7c-.2.1-.5.2-.7.3-.3.1-.5.1-.8.1-.5,0-.8-.1-1-.4s-.3-.7-.3-1.4v-3.4h-.9v-.9h-.1Z"/>
    <path class="cls-18" d="M356.7,311.3c0-.2.1-.3.2-.5s.3-.2.5-.2.4.1.5.2.2.3.2.5-.1.3-.2.5c-.1.1-.3.2-.5.2s-.3-.1-.5-.2-.2-.3-.2-.5ZM356.9,313.1h1v6h-1v-6Z"/>
    <path class="cls-18" d="M359.6,316.1c0-1,.2-1.8.7-2.3s1.1-.8,2-.8.8.1,1.2.2.6.4.8.6c.2.3.4.6.5,1s.2.8.2,1.3c0,1-.2,1.8-.7,2.3s-1.1.8-2,.8-.8-.1-1.2-.2c-.3-.1-.6-.4-.8-.6-.2-.3-.4-.6-.5-1s-.2-.8-.2-1.3ZM360.6,316.1c0,.3,0,.6.1.9s.2.5.3.7.3.4.5.5.5.2.8.2c1.1,0,1.6-.8,1.6-2.3s0-.6-.1-.9-.2-.5-.3-.7-.3-.4-.5-.5-.5-.2-.8-.2c-1,0-1.6.8-1.6,2.3Z"/>
    <path class="cls-18" d="M370.2,319.1v-3.4c0-.6-.1-1.1-.3-1.4-.2-.3-.5-.5-1-.5s-.8.1-1,.3c-.3.2-.5.5-.6.9v4.1h-1v-6h.7l.2.7h0c.2-.3.5-.5.8-.6.3-.2.7-.2,1.2-.2s.6,0,.9.1c.2.1.5.2.6.4s.3.5.4.8.1.7.1,1.2v3.6h-1Z"/>
  </g>
  <g class="cls-25">
    <path class="cls-18" d="M254.6,330.5c0-1,.2-1.8.7-2.3s1.1-.8,1.9-.8.8.1,1.2.2c.3.1.6.4.8.6.2.3.4.6.5,1s.2.8.2,1.3c0,1-.2,1.8-.7,2.3s-1.1.8-2,.8-.8-.1-1.2-.2c-.3-.1-.6-.4-.8-.6-.2-.3-.4-.6-.5-1s0-.8,0-1.3ZM255.6,330.5c0,.3,0,.6.1.9s.2.5.3.7c0,.2.3.4.5.5s.5.2.8.2c1.1,0,1.6-.8,1.6-2.3s0-.6-.1-.9-.2-.5-.3-.7-.3-.4-.5-.5-.5-.2-.8-.2c-1.1,0-1.6.8-1.6,2.3Z"/>
  </g>
  <g class="cls-25">
    <path class="cls-18" d="M260.6,327.5h.9v-.3c0-.4,0-.7.1-1s.2-.5.3-.7.3-.3.5-.4.5-.1.8-.1h.7c.2,0,.4.1.6.2l-.2.8c-.2-.1-.4-.1-.5-.2h-.5c-.2,0-.4,0-.5.1l-.3.3c-.1.1-.1.3-.1.5v.8h1.6v.8h-1.6v5.2h-1v-5.2h-.9v-.8h.1Z"/>
    <path class="cls-18" d="M270.9,331.9c0-.2-.1-.4-.2-.6-.1-.1-.3-.3-.5-.3s-.4-.2-.7-.3-.5-.2-.7-.3-.4-.3-.5-.5-.2-.5-.2-.8c0-.6.2-1,.5-1.3s.8-.4,1.4-.4.8,0,1.1.1c.3.1.5.2.8.3l-.2.8c-.2-.1-.4-.2-.7-.2-.3-.1-.5-.1-.8-.1s-.6.1-.8.2-.2.3-.2.6.1.4.2.5.3.2.5.3.4.2.7.3.5.2.7.3.4.3.5.5.2.5.2.9,0,.5-.1.7-.2.4-.4.6-.4.3-.7.4-.6.1-.9.1c-.5,0-.8,0-1.2-.1-.3-.1-.6-.2-.8-.3l.3-.8c.2.1.4.2.7.3s.6.1.9.1.6-.1.9-.2c.1-.2.2-.4.2-.8Z"/>
    <path class="cls-18" d="M272.5,327.5h.9v-1.2l1-.3v1.5h1.6v.8h-1.6v3.3c0,.4.1.7.2.9.1.2.3.3.5.3s.4,0,.5-.1c.1,0,.3-.1.5-.2l.2.7c-.2.1-.5.2-.7.3-.3.1-.5.1-.8.1-.5,0-.8-.1-1-.4s-.3-.7-.3-1.4v-3.5h-.9v-.8h-.1Z"/>
    <path class="cls-18" d="M282,331.5v1.1c0,.3,0,.7.1,1h-.6l-.2-.9h0c-.2.3-.4.5-.7.7-.3.2-.7.3-1.1.3-.8,0-1.4-.3-1.8-.8s-.6-1.3-.6-2.4.2-1.8.7-2.3,1.1-.8,2-.8h.7c.2,0,.4.1.6.2v-2.5h1v6.4h-.1ZM279.6,332.8c.4,0,.7-.1,1-.3s.4-.5.5-1v-3c-.1-.1-.3-.2-.5-.2s-.4-.1-.7-.1c-.6,0-1,.2-1.3.5-.3.4-.5.9-.5,1.7s0,.6.1.9.1.5.3.7.3.4.5.5c0,.3.3.3.6.3Z"/>
    <path class="cls-18" d="M283.8,325.7c0-.2.1-.3.2-.5s.3-.2.5-.2.4.1.5.2.2.3.2.5-.1.3-.2.5-.3.2-.5.2-.3-.1-.5-.2-.2-.3-.2-.5ZM284,327.5h1v6h-1v-6Z"/>
    <path class="cls-18" d="M290.9,333.5v-3.4c0-.6-.1-1.1-.3-1.4-.2-.3-.5-.5-1-.5s-.8.1-1,.3c-.3.2-.5.5-.6.9v4.1h-1v-6h.7l.2.7h0c.2-.3.5-.5.8-.6.3-.2.7-.2,1.2-.2s.6,0,.9.1c.2.1.5.2.6.4s.3.5.4.8.1.7.1,1.2v3.6h-1Z"/>
  </g>
  <g class="cls-25">
    <path class="cls-18" d="M293.3,333c0-.2.1-.3.2-.5.1-.1.3-.2.5-.2s.5.1.6.3c.2.2.2.4.2.8s0,.5-.1.8c-.1.2-.2.4-.3.6-.1.2-.3.3-.4.4-.2.1-.3.2-.5.2l-.3-.5c.3-.1.5-.3.6-.5s.2-.5.2-.7h-.2c-.2,0-.3-.1-.4-.2-.1,0-.1-.3-.1-.5Z"/>
  </g>
  <g class="cls-25">
    <path class="cls-18" d="M301.2,331.9c0-.2-.1-.4-.2-.6-.1-.1-.3-.3-.5-.3s-.4-.2-.7-.3-.5-.2-.7-.3-.4-.3-.5-.5-.2-.5-.2-.8c0-.6.2-1,.5-1.3s.8-.4,1.4-.4.8,0,1.1.1c.3.1.5.2.8.3l-.2.8c-.2-.1-.4-.2-.7-.2-.3-.1-.5-.1-.8-.1s-.6.1-.8.2-.2.3-.2.6.1.4.2.5.3.2.5.3.4.2.7.3.5.2.7.3.4.3.5.5.2.5.2.9,0,.5-.1.7-.2.4-.4.6-.4.3-.7.4-.6.1-.9.1c-.5,0-.8,0-1.2-.1-.3-.1-.6-.2-.8-.3l.3-.8c.2.1.4.2.7.3s.6.1.9.1.6-.1.9-.2c.1-.2.2-.4.2-.8Z"/>
    <path class="cls-18" d="M302.8,327.5h.9v-1.2l1-.3v1.5h1.6v.8h-1.6v3.3c0,.4.1.7.2.9.1.2.3.3.5.3s.4,0,.5-.1c.1,0,.3-.1.5-.2l.2.7c-.2.1-.5.2-.7.3-.3.1-.5.1-.8.1-.5,0-.8-.1-1-.4s-.3-.7-.3-1.4v-3.5h-.9v-.8h-.1Z"/>
    <path class="cls-18" d="M312.3,331.5v1.1c0,.3,0,.7.1,1h-.6l-.2-.9h0c-.2.3-.4.5-.7.7-.3.2-.7.3-1.1.3-.8,0-1.4-.3-1.8-.8s-.6-1.3-.6-2.4.2-1.8.7-2.3,1.1-.8,2-.8h.7c.2,0,.4.1.6.2v-2.5h1v6.4h-.1ZM309.9,332.8c.4,0,.7-.1,1-.3s.4-.5.5-1v-3c-.1-.1-.3-.2-.5-.2s-.4-.1-.7-.1c-.6,0-1,.2-1.3.5-.3.4-.5.9-.5,1.7s0,.6.1.9.1.5.3.7.3.4.5.5c.1.3.3.3.6.3Z"/>
    <path class="cls-18" d="M313.8,330.5c0-1,.2-1.8.7-2.3s1.1-.8,1.9-.8.8.1,1.2.2c.3.1.6.4.8.6.2.3.4.6.5,1s.2.8.2,1.3c0,1-.2,1.8-.7,2.3s-1.1.8-2,.8-.8-.1-1.2-.2c-.3-.1-.6-.4-.8-.6-.2-.3-.4-.6-.5-1s-.1-.8-.1-1.3ZM314.8,330.5c0,.3,0,.6.1.9s.2.5.3.7.3.4.5.5.5.2.8.2c1.1,0,1.6-.8,1.6-2.3s0-.6-.1-.9-.2-.5-.3-.7-.3-.4-.5-.5-.5-.2-.8-.2c-1,0-1.6.8-1.6,2.3Z"/>
    <path class="cls-18" d="M321.5,327.5v3.4c0,.3,0,.6.1.8s.1.4.2.6.2.3.4.4c.2.1.3.1.6.1s.4,0,.6-.1.3-.2.5-.3.2-.3.3-.4.2-.3.2-.5v-4h1v5.2c0,.3.1.6.1.8h-.7l-.2-.9h-.1c-.2.3-.4.6-.7.8-.3.2-.7.3-1.2.3s-.6,0-.8-.1c-.2-.1-.4-.2-.6-.4s-.3-.5-.4-.8-.1-.7-.1-1.2v-3.6h.8Z"/>
  </g>
  <g class="cls-25">
    <path class="cls-18" d="M326.3,327.5h.9v-1.2l1-.3v1.5h1.6v.8h-1.6v3.3c0,.4.1.7.2.9.1.2.3.3.5.3s.4,0,.5-.1.3-.1.5-.2l.2.7c-.2.1-.5.2-.7.3-.3.1-.5.1-.8.1-.5,0-.8-.1-1-.4s-.3-.7-.3-1.4v-3.5h-.9v-.8h-.1Z"/>
  </g>
  <g class="cls-25">
    <path class="cls-18" d="M331,333c0-.2.1-.3.2-.5.1-.1.3-.2.5-.2s.5.1.6.3c.2.2.2.4.2.8s0,.5-.1.8-.2.4-.3.6c-.1.2-.3.3-.4.4-.2.1-.3.2-.5.2l-.3-.5c.3-.1.5-.3.6-.5s.2-.5.2-.7h-.2c-.2,0-.3-.1-.4-.2-.1,0-.1-.3-.1-.5Z"/>
  </g>
  <g class="cls-25">
    <path class="cls-18" d="M338.9,331.9c0-.2-.1-.4-.2-.6-.1-.1-.3-.3-.5-.3s-.4-.2-.7-.3-.5-.2-.7-.3-.4-.3-.5-.5-.2-.5-.2-.8c0-.6.2-1,.5-1.3s.8-.4,1.4-.4.8,0,1.1.1c.3.1.5.2.8.3l-.2.8c-.2-.1-.4-.2-.7-.2-.3-.1-.5-.1-.8-.1s-.6.1-.8.2-.2.3-.2.6.1.4.2.5.3.2.5.3.4.2.7.3.5.2.7.3.4.3.5.5.2.5.2.9,0,.5-.1.7-.2.4-.4.6-.4.3-.7.4-.6.1-.9.1c-.5,0-.8,0-1.2-.1-.3-.1-.6-.2-.8-.3l.3-.8c.2.1.4.2.7.3s.6.1.9.1.6-.1.9-.2c.1-.2.2-.4.2-.8Z"/>
    <path class="cls-18" d="M340.5,327.5h.9v-1.2l1-.3v1.5h1.6v.8h-1.6v3.3c0,.4.1.7.2.9.1.2.3.3.5.3s.4,0,.5-.1c.1,0,.3-.1.5-.2l.2.7c-.2.1-.5.2-.7.3-.3.1-.5.1-.8.1-.5,0-.8-.1-1-.4s-.3-.7-.3-1.4v-3.5h-.9v-.8h-.1Z"/>
    <path class="cls-18" d="M350,331.5v1.1c0,.3,0,.7.1,1h-.6l-.2-.9h0c-.2.3-.4.5-.7.7-.3.2-.7.3-1.1.3-.8,0-1.4-.3-1.8-.8s-.6-1.3-.6-2.4.2-1.8.7-2.3,1.1-.8,2-.8h.7c.2,0,.4.1.6.2v-2.5h1v6.4h-.1ZM347.6,332.8c.4,0,.7-.1,1-.3s.4-.5.5-1v-3c-.1-.1-.3-.2-.5-.2s-.4-.1-.7-.1c-.6,0-1,.2-1.3.5-.3.4-.5.9-.5,1.7s0,.6.1.9.1.5.3.7.3.4.5.5c.1.3.3.3.6.3Z"/>
    <path class="cls-18" d="M356.2,333c-.2.2-.5.3-.9.5-.4.1-.8.2-1.2.2s-.9-.1-1.2-.2c-.3-.1-.6-.4-.8-.6-.2-.3-.4-.6-.5-1s-.2-.8-.2-1.3c0-1,.2-1.8.7-2.3s1.1-.8,2-.8.5,0,.8.1.5.2.7.3.4.4.5.7c.1.3.2.7.2,1.2s0,.6-.1.9h-3.9c0,.4,0,.7.1.9.1.3.2.5.3.7.2.2.3.3.6.4.2.1.5.1.9.1s.5,0,.8-.1.5-.2.6-.3l.6.6ZM354.2,328.2c-.5,0-.9.1-1.1.4-.3.2-.5.7-.5,1.3h3c0-.6-.1-1-.3-1.3-.4-.3-.7-.4-1.1-.4Z"/>
    <path class="cls-18" d="M360.8,328.5c-.2-.1-.5-.1-.7-.1-.3,0-.6.1-.8.3s-.3.4-.4.7v4.2h-1v-6h.7l.2.7h0c.2-.3.3-.5.5-.6s.5-.2.8-.2.5,0,.8.1v.9Z"/>
    <path class="cls-18" d="M364.9,328.5c-.2-.1-.5-.1-.7-.1-.3,0-.6.1-.8.3s-.3.4-.4.7v4.2h-1v-6h.7l.2.7h0c.2-.3.3-.5.5-.6s.5-.2.8-.2.5,0,.8.1v.9Z"/>
  </g>
  <g class="cls-25">
    <path class="cls-18" d="M43,311.6h-2.6v7.5h-1v-7.5h-2.6v-.9h6.2v.9Z"/>
  </g>
  <g class="cls-25">
    <path class="cls-18" d="M45.8,314.1c-.2-.1-.5-.1-.7-.1-.3,0-.6.1-.8.3-.2.2-.3.4-.4.7v4.2h-1v-6h.7l.2.7h0c.2-.3.3-.5.5-.6s.5-.2.8-.2.5,0,.8.1v.9Z"/>
    <path class="cls-18" d="M46.9,313.6c.3-.2.7-.3,1.1-.4.4-.1.8-.1,1.3-.1s.8.1,1,.2c.3.1.4.3.6.4,0,.2.2.4.3.6,0,.2,0,.4,0,.6v3.5c0,.2,0,.5,0,.7h-.7l-.3-.8h0c0,.1-.2.2-.3.3,0,.1-.2.2-.4.3s-.3.2-.5.2c-.2.1-.4.1-.7.1s-.5,0-.7-.1-.4-.2-.6-.3c-.2-.1-.3-.3-.4-.5,0-.2,0-.4,0-.7s0-.6.2-.9c0-.2.3-.4.6-.6.3-.1.6-.2.9-.3.4-.1.8-.1,1.2-.1h.6v-.6c0-.4,0-.7-.3-.9-.2-.2-.5-.3-1-.3h-.4c-.2,0-.3,0-.5.1s-.3.1-.5.1-.3.1-.4.2v-.7ZM48.6,318.4c.2,0,.4,0,.6-.1.2-.1.3-.1.5-.2,0-.1.2-.2.3-.3,0-.1,0-.2.2-.3v-1h-1.3c-.2,0-.4.1-.6.2-.2.1-.3.2-.4.3s-.2.3-.2.5c0,.3,0,.5.3.7,0,0,.3.2.6.2Z"/>
    <path class="cls-18" d="M56.8,319.1v-3.4c0-.6,0-1.1-.3-1.4s-.5-.5-1-.5-.8.1-1.1.3c-.3.2-.5.5-.6.9v4.1h-1v-6h.7l.2.7h0c.2-.3.4-.5.8-.6.3-.2.7-.2,1.2-.2s.6,0,.9.1c.2.1.5.2.6.4s.3.5.4.8c0,.3,0,.7,0,1.2v3.6h-.9Z"/>
    <path class="cls-18" d="M62.2,317.5c0-.2,0-.4-.2-.6,0-.1-.3-.3-.5-.3s-.4-.2-.7-.3-.5-.2-.7-.3-.4-.3-.5-.5-.2-.5-.2-.8c0-.6.2-1,.5-1.3s.8-.4,1.4-.4.8,0,1.1.1.5.2.8.3l-.2.8c-.2-.1-.4-.2-.7-.2-.3-.1-.5-.1-.8-.1s-.6.1-.8.2-.2.3-.2.6,0,.4.2.5.3.2.5.3.4.2.7.3.5.2.7.3.4.3.5.5.2.5.2.9,0,.5,0,.7-.2.4-.4.6-.4.3-.7.4-.6.1-.9.1c-.5,0-.8,0-1.2-.1s-.6-.2-.8-.3l.3-.8c.2.1.4.2.7.3s.6.1.9.1.6-.1.9-.2c0-.2.2-.5.2-.8Z"/>
    <path class="cls-18" d="M64.6,313.1h.7l.2.7h0c.2-.3.4-.5.7-.6s.6-.2,1-.2c.8,0,1.4.2,1.8.7s.6,1.2.6,2.3,0,1-.2,1.4-.3.7-.6,1c-.2.3-.5.5-.9.6s-.7.2-1.1.2-.5,0-.7-.1-.4-.1-.6-.2v2.5h-1v-8.3h0ZM67,313.8c-.4,0-.7.1-1,.3s-.4.5-.5,1v3c0,.1.3.2.5.3.2.1.4.1.7.1.6,0,1-.2,1.3-.6s.5-1,.5-1.8,0-.6,0-.9,0-.5-.3-.7c0-.2-.3-.3-.5-.4,0-.2-.3-.3-.6-.3Z"/>
    <path class="cls-18" d="M71,313.6c.3-.2.7-.3,1.1-.4s.8-.1,1.3-.1.8.1,1,.2.4.3.6.4c0,.2.2.4.3.6,0,.2,0,.4,0,.6v3.5c0,.3,0,.5,0,.7h-.7l-.3-.8h0c0,.1-.2.2-.3.3,0,.1-.2.2-.4.3-.2.1-.3.2-.5.2-.2.1-.4.1-.7.1s-.5,0-.7-.1-.4-.2-.6-.3c-.2-.1-.3-.3-.4-.5s0-.4,0-.7,0-.6.2-.9c0-.2.3-.4.6-.6.3-.1.6-.2.9-.3.4-.1.8-.1,1.2-.1h.6v-.6c0-.4,0-.7-.3-.9-.2-.2-.5-.3-1-.3h-.4c-.2,0-.3,0-.5.1-.2,0-.3.1-.5.1,0,.1-.3.1-.4.2v-.7ZM72.7,318.4c.2,0,.4,0,.6-.1s.3-.1.5-.2c0-.1.2-.2.3-.3,0-.1,0-.2.2-.3v-1h-1.3c-.2,0-.4.1-.6.2s-.3.2-.4.3-.2.3-.2.5c0,.3,0,.5.3.7,0,0,.3.2.6.2Z"/>
    <path class="cls-18" d="M79.8,314.1c-.2-.1-.5-.1-.7-.1-.3,0-.6.1-.8.3-.2.2-.3.4-.4.7v4.2h-1v-6h.7l.2.7h0c.2-.3.3-.5.5-.6s.5-.2.8-.2.5,0,.8.1v.9Z"/>
    <path class="cls-18" d="M85.5,318.6c-.2.2-.5.3-.9.5-.4.1-.8.2-1.2.2s-.9-.1-1.2-.2c-.3-.1-.6-.4-.8-.6-.2-.3-.4-.6-.5-1s-.2-.8-.2-1.3c0-1,.2-1.8.7-2.3s1.1-.8,2-.8.5,0,.8.1.5.2.7.3c.2.2.4.4.5.7,0,.3.2.7.2,1.2s0,.6,0,.9h-3.9c0,.4,0,.7,0,.9,0,.3.2.5.3.7.2.2.3.3.6.4.2.1.5.1.9.1s.5,0,.8-.1.5-.2.6-.3l.6.6ZM83.4,313.8c-.5,0-.9.1-1.1.4-.3.2-.5.7-.5,1.3h3c0-.6,0-1-.3-1.3-.3-.3-.7-.4-1.1-.4Z"/>
    <path class="cls-18" d="M91,319.1v-3.4c0-.6,0-1.1-.3-1.4-.2-.3-.5-.5-1-.5s-.8.1-1,.3c-.3.2-.5.5-.6.9v4.1h-1v-6h.7l.2.7h0c.2-.3.5-.5.8-.6.3-.2.7-.2,1.2-.2s.6,0,.9.1c.2.1.5.2.6.4s.3.5.4.8,0,.7,0,1.2v3.6h-1Z"/>
    <path class="cls-18" d="M93,313.1h.9v-1.2l1-.3v1.5h1.6v.8h-1.6v3.3c0,.4,0,.7.2.9,0,.2.3.3.5.3s.4,0,.5-.1c0,0,.3-.1.5-.2l.2.7c-.2.1-.5.2-.7.3-.3.1-.5.1-.8.1-.5,0-.8-.1-1-.4s-.3-.7-.3-1.4v-3.4h-1v-.9Z"/>
  </g>
  <g class="cls-25">
    <path class="cls-18" d="M28.6,327.5v6h-1v-5.2h-2.4v5.2h-1v-5.2h-.9v-.8h.9v-.3c0-.8.2-1.3.6-1.6.4-.3.9-.5,1.6-.5s.9,0,1.3.1.7.2.9.3l-.3.8c-.2-.1-.5-.2-.8-.3-.3-.1-.6-.1-.9-.1s-.5,0-.7.1-.3.2-.4.3c-.1.1-.2.3-.2.5v.7h3.3Z"/>
    <path class="cls-18" d="M31.6,332.1c0,.3,0,.5.1.6s.2.2.4.2h.3c0,0,.3-.1.4-.1v.8c0,.1-.2.1-.4.2s-.4.1-.6.1c-.4,0-.7-.1-.9-.3s-.3-.5-.3-1v-7.2h1s0,6.7,0,6.7Z"/>
    <path class="cls-18" d="M38.4,333c-.2.2-.5.3-.9.5-.4.1-.8.2-1.2.2s-.9-.1-1.2-.2-.6-.4-.8-.6c-.2-.3-.4-.6-.5-1s-.2-.8-.2-1.3c0-1,.2-1.8.7-2.3s1.1-.8,2-.8.5,0,.8.1.5.2.7.3c.2.2.4.4.5.7,0,.3.2.7.2,1.2s0,.6,0,.9h-3.9c0,.4,0,.7,0,.9,0,.3.2.5.3.7.2.2.4.3.6.4.2.1.5.1.9.1s.5,0,.8-.1.5-.2.6-.3l.6.6ZM36.3,328.2c-.5,0-.9.1-1.1.4-.3.2-.5.7-.5,1.3h3c0-.6,0-1-.3-1.3-.3-.3-.7-.4-1.1-.4Z"/>
    <path class="cls-18" d="M47.7,333c-.2.2-.5.3-.9.5-.4.1-.8.2-1.2.2s-.9-.1-1.2-.2-.6-.4-.8-.6c-.2-.3-.4-.6-.5-1s-.2-.8-.2-1.3c0-1,.2-1.8.7-2.3s1.1-.8,2-.8.5,0,.8.1.5.2.7.3c.2.2.4.4.5.7,0,.3.2.7.2,1.2s0,.6,0,.9h-3.7c0,.4,0,.7,0,.9,0,.3.2.5.3.7.2.2.4.3.6.4.2.1.5.1.9.1s.5,0,.8-.1.5-.2.6-.3l.4.6ZM45.6,328.2c-.5,0-.9.1-1.1.4-.3.2-.5.7-.5,1.3h3c0-.6,0-1-.3-1.3-.3-.3-.7-.4-1.1-.4Z"/>
    <path class="cls-18" d="M53.3,333.5v-3.4c0-.6,0-1.1-.3-1.4s-.5-.5-1-.5-.8.1-1,.3c-.3.2-.5.5-.6.9v4.1h-1v-6h.7l.2.7h0c.2-.3.5-.5.8-.6.3-.2.7-.2,1.2-.2s.6,0,.9.1c.2.1.5.2.6.4s.3.5.4.8c0,.3,0,.7,0,1.2v3.6h-1Z"/>
    <path class="cls-18" d="M60.1,333.1c-.2.2-.5.3-.9.4s-.7.1-1,.1c-.5,0-.9-.1-1.2-.2s-.6-.4-.8-.6c-.2-.3-.4-.6-.4-1,0-.4,0-.8,0-1.3,0-1,.2-1.8.7-2.3s1.1-.8,1.9-.8.7,0,1,.1.5.1.7.3l-.3.8c-.2-.1-.4-.2-.6-.2-.2-.1-.5-.1-.7-.1-1.1,0-1.7.8-1.7,2.3s0,.6,0,.9.2.5.3.7.3.4.6.5c.2.1.5.2.8.2s.5,0,.8-.1c.2-.1.4-.2.6-.3l.2.6Z"/>
    <path class="cls-18" d="M64.2,328.5c-.2-.1-.5-.1-.7-.1-.3,0-.6.1-.8.3-.2.2-.3.4-.4.7v4.2h-1v-6h.7l.2.7h0c.2-.3.3-.5.5-.6s.5-.2.8-.2.5,0,.8.1v.9Z"/>
    <path class="cls-18" d="M67.2,331.4l.3,1.2h0l.3-1.2,1.2-3.9h1l-1.8,5.4c0,.4-.3.8-.4,1.1,0,.4-.3.7-.4,1s-.3.5-.5.7-.4.3-.7.3-.5,0-.7-.1l.2-.8c0,0,.2.1.3.1.2,0,.4-.1.6-.4.2-.2.4-.6.5-1.2l-2.4-6h1.1l1.3,3.8Z"/>
    <path class="cls-18" d="M71.1,327.5h.7l.2.7h0c.2-.3.4-.5.7-.6.3-.1.6-.2,1-.2.8,0,1.4.2,1.8.7s.6,1.2.6,2.3,0,1-.2,1.4-.3.7-.6,1c-.2.3-.5.5-.9.6-.3.2-.7.2-1.1.2s-.5,0-.7-.1c-.2,0-.4-.1-.6-.2v2.5h-1v-8.3h0ZM73.5,328.2c-.4,0-.7.1-1,.3s-.4.5-.5,1v3c0,.1.3.2.5.3.2.1.4.1.7.1.6,0,1-.2,1.3-.6s.5-1,.5-1.8,0-.6,0-.9,0-.5-.3-.7c0-.2-.3-.3-.5-.4,0-.2-.3-.3-.6-.3Z"/>
    <path class="cls-18" d="M76.8,327.5h.9v-1.2l1-.3v1.5h1.6v.8h-1.6v3.3c0,.4,0,.7.2.9,0,.2.3.3.5.3s.4,0,.5-.1c0,0,.3-.1.5-.2l.2.7c-.2.1-.5.2-.7.3-.3.1-.5.1-.8.1-.5,0-.8-.1-1-.4s-.3-.7-.3-1.4v-3.5h-.9v-.8h0Z"/>
    <path class="cls-18" d="M81.6,325.7c0-.2,0-.3.2-.5s.3-.2.5-.2.4.1.5.2.2.3.2.5,0,.3-.2.5c0,.1-.3.2-.5.2s-.3-.1-.5-.2-.2-.3-.2-.5ZM81.8,327.5h1v6h-1v-6Z"/>
    <path class="cls-18" d="M84.5,330.5c0-1,.2-1.8.7-2.3s1.1-.8,2-.8.8.1,1.2.2.6.4.8.6c.2.3.4.6.5,1s.2.8.2,1.3c0,1-.2,1.8-.7,2.3s-1.1.8-2,.8-.8-.1-1.2-.2c-.3-.1-.6-.4-.8-.6-.2-.3-.4-.6-.5-1-.2-.4-.2-.8-.2-1.3ZM85.5,330.5c0,.3,0,.6,0,.9s.2.5.3.7.3.4.5.5.5.2.8.2c1.1,0,1.6-.8,1.6-2.3s0-.6,0-.9-.2-.5-.3-.7-.3-.4-.5-.5-.5-.2-.8-.2c-1.1,0-1.6.8-1.6,2.3Z"/>
    <path class="cls-18" d="M95.1,333.5v-3.4c0-.6,0-1.1-.3-1.4-.2-.3-.5-.5-1-.5s-.8.1-1,.3c-.3.2-.5.5-.6.9v4.1h-1v-6h.7l.2.7h0c.2-.3.5-.5.8-.6.3-.2.7-.2,1.2-.2s.6,0,.9.1c.2.1.5.2.6.4s.3.5.4.8,0,.7,0,1.2v3.6h-1Z"/>
  </g>
  <path class="cls-15" d="M339.6,210.1h115.7c2.8,0,5,2.2,5,5v65.5c0,2.8-2.2,5-5,5h-115.7c-2.8,0-5-2.2-5-5v-65.5c0-2.8,2.2-5,5-5Z"/>
  <path class="cls-6" d="M352.3,234.4h89.3c2.8,0,5,2.2,5,5v17.2c0,2.8-2.2,5-5,5h-89.3c-2.8,0-5-2.2-5-5v-17.2c0-2.8,2.3-5,5-5Z"/>
  <g class="cls-25">
    <path class="cls-11" d="M370,245.7h0l-2.1,5.8h-1.1l-2.1-5.8h0l.2,3.4v1.2l.8.2v.9h-3.2v-.9l.8-.2v-5.6l-.8-.2v-.9h2.8l2,5.8h0l2-5.8h2.9v.9l-.8.2v5.6l.8.2v.9h-3.2v-.9l.8-.2v-1.2l.2-3.4Z"/>
    <path class="cls-11" d="M372.8,250.6l.8-.2v-3.6l-.8-.2v-.9h2.4v4.7l.8.2v.9h-3.1v-.9h0ZM375.1,244.3h-1.6v-1.2h1.6v1.2Z"/>
    <path class="cls-11" d="M379.1,250.4c.3,0,.5-.1.7-.2.2-.2.3-.4.3-.7h1.4c0,.6-.2,1.1-.7,1.5s-1,.6-1.7.6-1.5-.3-2-.8-.7-1.3-.7-2.1v-.2c0-.9.2-1.6.7-2.1.5-.6,1.2-.8,2.1-.8s.9.1,1.3.2c.4.1.7.3.9.6v1.6h-1.3l-.3-.9c-.1-.1-.2-.1-.3-.2-.1,0-.2-.1-.4-.1-.4,0-.8.2-.9.5s-.3.7-.3,1.2v.2c0,.5.1.9.3,1.3.2.3.5.4.9.4Z"/>
  </g>
  <g class="cls-25">
    <path class="cls-11" d="M382.3,250.6l.8-.2v-3.6l-.8-.2v-.9h2.3v.8c.2-.3.4-.5.6-.7s.5-.3.7-.3h.5l-.2,1.4h-.6c-.2,0-.4,0-.6.1s-.3.2-.3.4v2.8l.8.2v.9h-3.1v-.7h0Z"/>
  </g>
  <g class="cls-25">
    <path class="cls-11" d="M386.7,248.6c0-.9.2-1.6.7-2.1.5-.6,1.2-.8,2-.8s1.5.3,2,.8.7,1.3.7,2.1h0c0,1-.2,1.7-.7,2.2s-1.2.8-2,.8-1.5-.3-2-.8-.7-1.3-.7-2.1h0ZM388.3,248.7c0,.5.1,1,.3,1.3.2.3.5.5.9.5s.7-.2.9-.5c.2-.3.3-.7.3-1.3h0c0-.6-.1-1-.3-1.4-.2-.3-.5-.5-.9-.5s-.7.2-.9.5c-.2.3-.3.7-.3,1.3h0Z"/>
    <path class="cls-11" d="M397.6,247.7h-1.1l-.2-.7c-.1-.1-.2-.2-.4-.2-.2-.1-.3-.1-.5-.1-.3,0-.5.1-.7.2-.2.1-.2.3-.2.5s.1.3.2.4c.2.1.5.2.9.3.7.1,1.3.4,1.6.6.3.3.5.7.5,1.1s-.2,1-.7,1.3-1,.5-1.8.5-.9-.1-1.2-.2-.7-.3-1-.6v-1.3h1.1l.2.8c.1.1.2.1.4.2.2,0,.3.1.5.1.3,0,.6-.1.7-.2.2-.1.3-.3.3-.5s-.1-.3-.3-.4-.5-.2-.9-.3c-.7-.1-1.2-.3-1.5-.6s-.5-.6-.5-1.1.2-.9.6-1.3c.4-.4,1-.5,1.7-.5s.9.1,1.3.2c.4.1.7.3.9.5v1.3Z"/>
    <path class="cls-11" d="M401.3,251.6c-.8,0-1.5-.3-2-.8s-.8-1.2-.8-2v-.2c0-.9.2-1.6.7-2.1.5-.6,1.1-.8,1.9-.8s1.4.2,1.8.7.6,1.1.6,1.9v.9h-3.5c0,.4.2.7.4.9.2.2.5.4.9.4s.6,0,.9-.1c.2-.1.5-.2.8-.3l.4,1c-.2.2-.6.3-.9.5-.3,0-.7,0-1.2,0ZM401.2,246.8c-.3,0-.5.1-.7.3s-.3.5-.3.9h1.9c0-.4-.1-.7-.2-.9-.2-.2-.4-.3-.7-.3Z"/>
  </g>
  <g class="cls-25">
    <path class="cls-11" d="M404.5,250.6l.8-.2v-3.6l-.8-.2v-.9h2.3v.8c.2-.3.4-.5.6-.7s.5-.3.7-.3h.5l-.2,1.4h-.6c-.2,0-.4,0-.6.1s-.3.2-.3.4v2.8l.8.2v.9h-3.1v-.7h0Z"/>
  </g>
  <g class="cls-25">
    <path class="cls-11" d="M411.6,246.6h-.5c0,.1.8,2.7.8,2.7v.5h.1v-.5c.1,0,.9-2.6.9-2.6h-.6v-1h2.6v.9h-.5c0,.1-1.7,4.9-1.7,4.9h-1.5l-1.7-4.8h-.5v-1h2.6v.9h0Z"/>
    <path class="cls-11" d="M415.4,250.6l.8-.2v-3.6l-.8-.2v-.9h2.4v4.7l.8.2v.9h-3.1v-.9h0ZM417.7,244.3h-1.6v-1.2h1.6v1.2Z"/>
    <path class="cls-11" d="M421.7,250.4c.3,0,.5-.1.7-.2.2-.2.3-.4.3-.7h1.4c0,.6-.2,1.1-.7,1.5s-1,.6-1.7.6-1.5-.3-2-.8-.7-1.3-.7-2.1v-.2c0-.9.2-1.6.7-2.1s1.2-.8,2.1-.8.9.1,1.3.2c.4.1.7.3.9.6v1.6h-1.3l-.3-.9c-.1-.1-.2-.1-.3-.2-.1,0-.2-.1-.4-.1-.4,0-.8.2-.9.5s-.3.7-.3,1.2v.2c0,.5.1.9.3,1.3.2.3.5.4.9.4Z"/>
    <path class="cls-11" d="M427.5,251.6c-.8,0-1.5-.3-2-.8s-.8-1.2-.8-2v-.2c0-.9.2-1.6.7-2.1.5-.6,1.1-.8,1.9-.8s1.4.2,1.8.7.6,1.1.6,1.9v.9h-3.5c0,.4.2.7.4.9.2.2.5.4.9.4s.6,0,.9-.1c.2-.1.5-.2.8-.3l.4,1c-.2.2-.6.3-.9.5-.3,0-.7,0-1.2,0ZM427.4,246.8c-.3,0-.5.1-.7.3s-.3.5-.3.9h1.9c0-.4-.1-.7-.2-.9-.2-.2-.4-.3-.7-.3Z"/>
  </g>
  <g id="Scone_logo_white" data-name="Scone logo white">
    <g class="cls-10">
      <g class="cls-20">
        <g>
          <path class="cls-19" d="M383.1,272.1h-.8c-.2,0-.3.1-.3.3h0v.8c0,.2.1.3.3.3h.8c.2,0,.3-.1.3-.3v-.8c0-.1-.1-.3-.3-.3M380.5,273.5h.8c.2,0,.3-.1.3-.3h0v-.8c0-.2-.1-.3-.3-.3h-.8c-.2,0-.3.1-.3.3h0v.8c0,.2,0,.3.3.3h0M379.7,273.2v-.8c0-.2-.1-.3-.3-.3h-.8c-.2,0-.3.1-.3.3h0v.8c0,.2.1.3.3.3h.8c.2,0,.3-.1.3-.3h0M383.2,274c-.1,0-.2.1-.2.2h0v.9c0,.1.1.2.2.2s.2-.1.2-.2v-.9c0-.1,0-.2-.2-.2h0M381.1,274.3v.8c0,.2.1.3.3.3h.8c.2,0,.3-.1.3-.3h0v-.8c0-.2-.1-.3-.3-.3h-.8c-.2,0-.3.2-.3.3h0M380.6,275.1v-.8c0-.2-.1-.3-.3-.3h-.8c-.2,0-.3.1-.3.3h0v.8c0,.2.1.3.3.3h.8c0,0,.3-.1.3-.3h0M383.1,275.9h-.8c-.2,0-.3.1-.3.3h0v.8c0,.2.1.3.3.3h.8c.2,0,.3-.1.3-.3v-.8c0,0-.1-.3-.3-.3M381.1,275.9h-.8c-.2,0-.3.1-.3.3h0v.8c0,.2.1.3.3.3h.8c.2,0,.3-.1.3-.3h0v-.8c0,0-.1-.3-.3-.3h0"/>
          <path class="cls-19" d="M384.1,271.8c.3.3.8.4,1.2.4h0v2.1c0,.8-1,1.3-1.2,1.4h0v-3.9h0"/>
          <path class="cls-19" d="M381.8,271.7c1.6-.1,1.9-.6,1.9-.6h.2s.3.6,1.9.6h0v2.9c0,.9-1.7,1.9-1.7,1.9,0,0-.1,0-.1.1v.7h.1c.6-.3,2.4-1.3,2.4-2.5v-3.5s-.1-.1-.2-.1c-2,0-2.4-.7-2.4-.7h-.2s-.3.8-2.4.8-.1,0-.1.1v.4s0,.1.1.1.4-.1.5-.2"/>
          <path class="cls-16" d="M388,276.2l.8-.3c.2.4.6.6,1.1.6s.4,0,.6-.1.3-.3.3-.4c0-.4-.6-.7-1-.9h0c-.3-.1-.7-.3-1-.5s-.5-.6-.5-1,.2-.8.5-1c.3-.3.8-.4,1.2-.4.7,0,1.3.3,1.6.9l-.9.3-.3-.3c-.1-.1-.3-.1-.5-.1-.5,0-.8.3-.8.6s.1.4.3.5c.2.2.5.3.7.4h.1c.6.3,1.4.6,1.4,1.5s-.2.8-.6,1c-.4.3-.9.4-1.3.4-.6-.1-1.3-.6-1.7-1.2"/>
          <path class="cls-16" d="M395.2,277.3c-.3,0-.7-.1-1-.2s-.6-.3-.8-.5c-.2-.2-.4-.5-.6-.8-.3-.6-.3-1.4,0-2s.8-1.1,1.4-1.4c.3-.1.7-.2,1-.2s.8.1,1.2.3c.3.2.7.4.9.8l-.7.5c-.2-.2-.4-.4-.6-.5s-.5-.2-.8-.2c-.5,0-.9.2-1.2.5-.3.3-.5.8-.5,1.2s.2.9.5,1.3c.6.6,1.4.7,2.1.3.3-.2.5-.4.6-.6l.8.4c-.2.4-.5.7-.9,1-.4,0-.9.2-1.4.1"/>
          <path class="cls-16" d="M400.9,277.3c-.3,0-.7-.1-1-.2s-.6-.3-.8-.6c-.2-.2-.4-.5-.6-.8-.1-.3-.2-.7-.2-1s.1-.7.2-1,.3-.6.6-.8c.2-.2.5-.4.8-.5.6-.3,1.4-.3,2,0,.3.1.6.3.8.5.2.2.4.5.6.8.3.6.3,1.4,0,2-.1.3-.3.6-.6.8-.2.2-.5.4-.8.6s-.7.2-1,.2M400.9,273c-.5,0-.9.2-1.2.5-.3.3-.5.8-.5,1.2s.2.9.5,1.2c.7.7,1.8.7,2.5,0s.7-1.8,0-2.5c-.4-.2-.8-.4-1.3-.4"/>
          <polygon class="cls-16" points="409.4 272.2 409.4 277.4 405.7 274.1 405.7 277.2 404.8 277.2 404.8 272 408.4 275.3 408.4 272.2 409.4 272.2"/>
          <polygon class="cls-16" points="411.8 273 411.8 274.3 414.4 274.3 414.4 275.1 411.8 275.1 411.8 276.4 414.7 276.4 414.7 277.2 410.9 277.2 410.9 272.2 414.7 272.2 414.7 273 411.8 273"/>
        </g>
      </g>
    </g>
  </g>
  <path class="cls-14" d="M117.7,210.1h115.7c2.8,0,5,2.2,5,5v112.1c0,2.8-2.2,5-5,5h-115.7c-2.8,0-5-2.2-5-5v-112.1c0-2.8,2.3-5,5-5Z"/>
  <path class="cls-6" d="M130.5,234.4h89.3c2.8,0,5,2.2,5,5v17.2c0,2.8-2.2,5-5,5h-89.3c-2.8,0-5-2.2-5-5v-17.2c0-2.8,2.3-5,5-5Z"/>
  <g class="cls-25">
    <path class="cls-11" d="M148.2,245.7h0l-2.1,5.8h-1.1l-2.1-5.8h0l.2,3.4v1.2l.8.2v.9h-3.2v-.9l.8-.2v-5.6l-.8-.2v-.9h2.8l2,5.8h0l2-5.8h2.9v.9l-.8.2v5.6l.8.2v.9h-3.2v-.9l.8-.2v-1.2l.2-3.4Z"/>
    <path class="cls-11" d="M151,250.6l.8-.2v-3.6l-.8-.2v-.9h2.4v4.7l.8.2v.9h-3.2v-.9ZM153.3,244.3h-1.6v-1.2h1.6v1.2Z"/>
    <path class="cls-11" d="M157.3,250.4c.3,0,.5-.1.7-.2s.3-.4.3-.7h1.4c0,.6-.2,1.1-.7,1.5s-1,.6-1.7.6-1.5-.3-2-.8-.7-1.3-.7-2.1v-.2c0-.9.2-1.6.7-2.1.5-.6,1.2-.8,2.1-.8s.9.1,1.3.2c.4.1.7.3.9.6v1.6h-1.3l-.3-.9c-.1-.1-.2-.1-.3-.2s-.2-.1-.4-.1c-.4,0-.8.2-.9.5s-.3.7-.3,1.2v.2c0,.5.1.9.3,1.3.2.3.5.4.9.4Z"/>
  </g>
  <g class="cls-25">
    <path class="cls-11" d="M160.5,250.6l.8-.2v-3.6l-.8-.2v-.9h2.3v.8c.2-.3.4-.5.6-.7s.5-.3.7-.3h.5l-.2,1.4h-.6c-.2,0-.4,0-.6.1s-.3.2-.3.4v2.8l.8.2v.9h-3.1v-.7h0Z"/>
  </g>
  <g class="cls-25">
    <path class="cls-11" d="M164.9,248.6c0-.9.2-1.6.7-2.1.5-.6,1.2-.8,2-.8s1.5.3,2,.8c.5.6.7,1.3.7,2.1h0c0,1-.2,1.7-.7,2.2s-1.2.8-2,.8-1.5-.3-2-.8-.7-1.3-.7-2.1h0ZM166.5,248.7c0,.5.1,1,.3,1.3s.5.5.9.5.7-.2.9-.5.3-.7.3-1.3h0c0-.6-.1-1-.3-1.4s-.5-.5-.9-.5-.7.2-.9.5-.3.7-.3,1.3h0Z"/>
    <path class="cls-11" d="M175.8,247.7h-1.1l-.2-.7c-.1-.1-.2-.2-.4-.2-.2-.1-.3-.1-.5-.1-.3,0-.5.1-.7.2-.2.1-.2.3-.2.5s.1.3.2.4.5.2.9.3c.7.1,1.3.4,1.6.6s.5.7.5,1.1-.2,1-.7,1.3c-.4.3-1,.5-1.8.5s-.9-.1-1.2-.2c-.4-.1-.7-.3-1-.6v-1.3h1.1l.2.8c.1.1.2.1.4.2.2,0,.3.1.5.1.3,0,.6-.1.7-.2.2-.1.2-.3.2-.5s-.1-.3-.3-.4c-.2-.1-.5-.2-.9-.3-.7-.1-1.2-.3-1.5-.6s-.5-.6-.5-1.1.2-.9.6-1.3,1-.5,1.7-.5.9.1,1.3.2c.4.1.7.3.9.5l.2,1.3Z"/>
    <path class="cls-11" d="M179.5,251.6c-.8,0-1.5-.3-2-.8s-.8-1.2-.8-2v-.2c0-.9.2-1.6.7-2.1.5-.6,1.1-.8,1.9-.8s1.4.2,1.8.7.6,1.1.6,1.9v.9h-3.5c0,.4.2.7.4.9s.5.4.9.4.6,0,.9-.1c.2-.1.5-.2.8-.3l.4,1c-.2.2-.6.3-.9.5-.3,0-.7,0-1.2,0ZM179.4,246.8c-.3,0-.5.1-.7.3s-.3.5-.3.9h1.9c0-.4-.1-.7-.2-.9-.2-.2-.4-.3-.7-.3Z"/>
  </g>
  <g class="cls-25">
    <path class="cls-11" d="M182.7,250.6l.8-.2v-3.6l-.8-.2v-.9h2.3v.8c.2-.3.4-.5.6-.7s.5-.3.7-.3h.5l-.2,1.4h-.6c-.2,0-.4,0-.6.1s-.3.2-.3.4v2.8l.8.2v.9h-3.1v-.7h0Z"/>
  </g>
  <g class="cls-25">
    <path class="cls-11" d="M189.8,246.6h-.5c0,.1.8,2.7.8,2.7v.5h.1v-.5c.1,0,.9-2.6.9-2.6h-.6v-1h2.6v.9h-.5c0,.1-1.7,4.9-1.7,4.9h-1.5l-1.7-4.8h-.5v-1h2.6v.9h0Z"/>
    <path class="cls-11" d="M193.5,250.6l.8-.2v-3.6l-.8-.2v-.9h2.4v4.7l.8.2v.9h-3.1v-.9h0ZM195.9,244.3h-1.6v-1.2h1.6v1.2Z"/>
    <path class="cls-11" d="M199.9,250.4c.3,0,.5-.1.7-.2s.3-.4.3-.7h1.4c0,.6-.2,1.1-.7,1.5s-1,.6-1.7.6-1.5-.3-2-.8-.7-1.3-.7-2.1v-.2c0-.9.2-1.6.7-2.1.5-.6,1.2-.8,2.1-.8s.9.1,1.3.2c.4.1.7.3.9.6v1.6h-1.3l-.3-.9c-.1-.1-.2-.1-.3-.2s-.2-.1-.4-.1c-.4,0-.8.2-.9.5s-.3.7-.3,1.2v.2c0,.5.1.9.3,1.3.1.3.4.4.9.4Z"/>
    <path class="cls-11" d="M205.7,251.6c-.8,0-1.5-.3-2-.8s-.8-1.2-.8-2v-.2c0-.9.2-1.6.7-2.1.5-.6,1.1-.8,1.9-.8s1.4.2,1.8.7.6,1.1.6,1.9v.9h-3.5c0,.4.2.7.4.9s.5.4.9.4.6,0,.9-.1c.2-.1.5-.2.8-.3l.4,1c-.2.2-.6.3-.9.5-.3,0-.7,0-1.2,0ZM205.6,246.8c-.3,0-.5.1-.7.3s-.3.5-.3.9h1.9c0-.4-.1-.7-.2-.9-.2-.2-.4-.3-.7-.3Z"/>
  </g>
  <g id="Scone_logo_white-2" data-name="Scone logo white-2">
    <g class="cls-23">
      <g class="cls-22">
        <g>
          <path class="cls-19" d="M161.3,272.1h-.8c-.2,0-.3.1-.3.3h0v.8c0,.2.1.3.3.3h.8c.2,0,.3-.1.3-.3v-.8c0-.1-.1-.3-.3-.3M158.7,273.5h.8c.2,0,.3-.1.3-.3h0v-.8c0-.2-.1-.3-.3-.3h-.8c-.2,0-.3.1-.3.3h0v.8c0,.2.1.3.3.3h0M157.9,273.2v-.8c0-.2-.1-.3-.3-.3h-.8c-.2,0-.3.1-.3.3h0v.8c0,.2.1.3.3.3h.8c.1,0,.3-.1.3-.3M161.4,274c-.1,0-.2.1-.2.2v.9c0,.1.1.2.2.2s.2-.1.2-.2v-.9c0-.1,0-.2-.2-.2h0M159.3,274.3v.8c0,.2.1.3.3.3h.8c.2,0,.3-.1.3-.3v-.8c0-.2-.1-.3-.3-.3h-.8c-.2,0-.3.2-.3.3h0M158.8,275.1v-.8c0-.2-.1-.3-.3-.3h-.8c-.2,0-.3.1-.3.3h0v.8c0,.2.1.3.3.3h.8c.1,0,.3-.1.3-.3h0M161.3,275.9h-.8c-.2,0-.3.1-.3.3h0v.8c0,.2.1.3.3.3h.8c.2,0,.3-.1.3-.3v-.8c0,0-.1-.3-.3-.3M159.3,275.9h-.8c-.2,0-.3.1-.3.3v.8c0,.2.1.3.3.3h.8c.2,0,.3-.1.3-.3h0v-.8c0,0-.1-.3-.3-.3h0"/>
          <path class="cls-19" d="M162.3,271.8c.3.3.8.4,1.2.4h0v2.1c0,.8-1,1.3-1.2,1.4h0v-3.9h0"/>
          <path class="cls-19" d="M160,271.7c1.6-.1,1.9-.6,1.9-.6h.2s.3.6,1.9.6h0v2.9c0,.9-1.7,1.9-1.7,1.9,0,0-.1,0-.1.1v.7h.1c.6-.3,2.3-1.3,2.3-2.5v-3.5s-.1-.1-.2-.1c-2.1,0-2.4-.7-2.4-.7h-.2s-.3.8-2.4.8-.1,0-.1.1v.4s0,.1.1.1.5-.1.6-.2"/>
          <path class="cls-16" d="M166.1,276.2l.8-.3c.2.4.6.6,1.1.6s.4,0,.6-.1c.2-.1.3-.3.3-.4,0-.4-.6-.7-1-.9h0c-.4-.1-.7-.3-1-.5s-.5-.6-.5-1,.2-.8.5-1c.3-.3.8-.4,1.2-.4.7,0,1.3.3,1.6.9l-.9.3c-.1-.1-.2-.2-.3-.3-.1-.1-.3-.1-.5-.1-.5,0-.8.3-.8.6s.1.4.3.5.5.3.7.4h.1c.6.3,1.4.6,1.4,1.5s-.2.8-.6,1c-.4.3-.9.4-1.3.4-.6-.1-1.3-.6-1.7-1.2"/>
          <path class="cls-16" d="M173.4,277.3c-.3,0-.7-.1-1-.2s-.6-.3-.8-.5-.4-.5-.6-.8c-.3-.6-.3-1.4,0-2s.8-1.1,1.4-1.4c.3-.1.7-.2,1-.2s.8.1,1.2.3c.3.2.7.4.9.8l-.7.5c-.2-.2-.4-.4-.6-.5-.2-.1-.5-.2-.8-.2-.5,0-.9.2-1.2.5s-.5.8-.5,1.2c0,1,.8,1.7,1.7,1.7s.6-.1.9-.3c.3-.2.5-.4.6-.6l.8.4c-.2.4-.5.7-.9,1-.5.2-.9.3-1.4.3"/>
          <path class="cls-16" d="M179.1,277.3c-.3,0-.7-.1-1-.2s-.6-.3-.8-.6c-.2-.2-.4-.5-.6-.8-.1-.3-.2-.7-.2-1s.1-.7.2-1c.3-.6.8-1.1,1.4-1.4.6-.3,1.4-.3,2,0,.3.1.6.3.8.5s.4.5.6.8c.3.6.3,1.4,0,2-.1.3-.3.6-.6.8-.2.2-.5.4-.8.6-.3.3-.7.3-1,.3M179.1,273c-.5,0-.9.2-1.2.5s-.5.8-.5,1.2c0,1,.7,1.8,1.7,1.8s1-.2,1.3-.5c.7-.7.7-1.8,0-2.5-.4-.3-.8-.5-1.3-.5"/>
          <polygon class="cls-16" points="187.5 272.2 187.5 277.4 183.9 274.1 183.9 277.2 183 277.2 183 272 186.6 275.3 186.6 272.2 187.5 272.2"/>
          <polygon class="cls-16" points="190 273 190 274.3 192.6 274.3 192.6 275.1 190 275.1 190 276.4 192.9 276.4 192.9 277.2 189.1 277.2 189.1 272.2 192.9 272.2 192.9 273 190 273"/>
        </g>
      </g>
    </g>
  </g>
  <path class="cls-13" d="M117.7,26.4h115.7c2.8,0,5,2.2,5,5v78.7c0,2.8-2.2,5-5,5h-115.7c-2.8,0-5-2.2-5-5V31.4c0-2.8,2.3-5,5-5Z"/>
  <path class="cls-6" d="M130.5,46.4h89.3c2.8,0,5,2.2,5,5v32.3c0,2.8-2.2,5-5,5h-89.3c-2.8,0-5-2.2-5-5v-32.3c0-2.8,2.3-5,5-5Z"/>
  <g class="cls-25">
    <path class="cls-11" d="M145.7,59.3h-1.2l-.2-1c-.2-.2-.3-.3-.6-.4-.2,0-.5,0-.8,0-.7,0-1.2.2-1.6.7-.4.5-.6,1.1-.6,1.9v.3c0,.8.2,1.4.5,1.9s.9.7,1.5.7.6,0,.8,0c.3,0,.5-.2.6-.4l.2-1h1.2v1.5c-.3.4-.7.7-1.2.9-.5.2-1,.3-1.6.3-1,0-1.9-.4-2.6-1.1s-1-1.7-1-2.8v-.3c0-1.1.3-2.1,1-2.8s1.5-1.1,2.6-1.1,1.2,0,1.6.3c.5.2.9.5,1.2.9v1.7h.2Z"/>
    <path class="cls-11" d="M146.5,61.6c0-.9.2-1.6.7-2.1.5-.6,1.2-.8,2-.8s1.5.3,2,.8c.5.6.7,1.3.7,2.1h0c0,1-.2,1.7-.7,2.2s-1.2.8-2,.8-1.5-.3-2-.8c-.5-.5-.7-1.3-.7-2.1h0ZM148,61.7c0,.5.1,1,.3,1.3s.5.5.9.5.7-.2.9-.5.3-.7.3-1.3h0c0-.6-.1-1-.3-1.4s-.5-.5-.9-.5-.7.2-.9.5-.3.7-.3,1.3h0Z"/>
    <path class="cls-11" d="M152.5,63.6l.8-.2v-3.6l-.8-.2v-.9h2.3v.8c.3-.3.5-.5.8-.7s.6-.2,1-.2c.6,0,1,.2,1.4.6.3.4.5.9.5,1.7v2.5l.8.2v.9h-3v-.9l.7-.2v-2.5c0-.4-.1-.7-.2-.8s-.4-.2-.7-.2-.4,0-.6,0-.3.2-.4.4v3.1l.6.2v.9h-3v-1h-.2Z"/>
    <path class="cls-11" d="M159.5,59.8v-1.1h.9v-.4c0-.7.2-1.3.7-1.7.4-.4,1.1-.6,1.9-.6s.6,0,.8,0,.6,0,.9.2l-.2,1.2c-.3,0-.5,0-.7-.2-.2,0-.5,0-.7,0-.4,0-.6,0-.8.2-.2.2-.3.4-.3.7v.4h3.5v4.7l.8.2v.9h-3.2v-.9l.8-.2v-3.6h-2v3.6l.8.2v.9h-3.2v-.9l.8-.2v-3.6h-.8v.2Z"/>
    <path class="cls-11" d="M166.9,61.7c0-.9.2-1.7.6-2.2.4-.6,1-.8,1.7-.8s.6,0,.9.2c.2,0,.5.4.6.6v-.7h1.5v5.6c0,.8-.2,1.4-.7,1.8-.5.5-1.1.7-2,.7s-.6,0-.9,0c-.3,0-.6-.2-.9-.3l.3-1.1c.3,0,.5.2.8.3s.5,0,.8,0,.7,0,.9-.3.3-.6.3-1v-.5c-.2.2-.4.4-.6.5-.2,0-.5.2-.8.2-.7,0-1.3-.3-1.7-.8s-.6-1.2-.6-2.1h0c0,0-.2,0-.2,0ZM168.5,61.8c0,.5.1.9.3,1.2s.5.4.8.4.4,0,.6,0c.2,0,.3-.2.4-.4v-2.5c-.1-.2-.2-.3-.4-.4-.2,0-.4,0-.6,0-.4,0-.7.2-.8.5-.2.3-.3.8-.3,1.3h0Z"/>
    <path class="cls-11" d="M177.1,63.8c-.2.3-.4.5-.7.6s-.6.2-.9.2c-.6,0-1.1-.2-1.4-.6-.3-.4-.5-1-.5-1.8v-2.4l-.6-.2v-.9h2.2v3.5c0,.4.1.7.2.9s.4.3.6.3.5,0,.6,0c.2,0,.3-.2.4-.3v-3.1l-.7-.2v-.9h2.3v4.7l.7.2v.9h-2.1v-.8Z"/>
  </g>
  <g class="cls-25">
    <path class="cls-11" d="M180.1,63.6l.8-.2v-3.6l-.8-.2v-.9h2.3v.8c.2-.3.4-.5.6-.7s.5-.3.7-.3h.5l-.2,1.4h-.6c-.2,0-.4,0-.6,0s-.3.2-.3.4v2.8l.8.2v.9h-3.1v-.7h0Z"/>
  </g>
  <g class="cls-25">
    <path class="cls-11" d="M188.2,64.5c0,0-.1-.2-.1-.3s-.1-.2-.1-.3c-.2.2-.4.4-.7.5s-.6.2-.9.2c-.6,0-1-.2-1.4-.5-.3-.3-.5-.7-.5-1.3s.2-1,.7-1.3,1.1-.4,1.9-.4h.8v-.6c0-.3-.1-.5-.2-.6s-.4-.2-.7-.2-.3,0-.5,0-.3,0-.3,0v.6h-1.3v-1.3c.3-.2.6-.4,1-.5s.8-.2,1.2-.2c.7,0,1.3.2,1.8.5.4.4.7.9.7,1.5v3h.5v1h-1.9ZM186.8,63.5c.2,0,.5,0,.6-.2.2,0,.3-.2.5-.4v-.9h-.8c-.3,0-.6,0-.8.2-.2.2-.3.3-.3.6s.1.4.2.5c.2.1.4.2.6.2Z"/>
  </g>
  <g class="cls-25">
    <path class="cls-11" d="M192.4,57.3v1.4h1v1.1h-1v3c0,.2,0,.4.1.5s.2,0,.4,0h.6v1.1c0,0-.2,0-.4,0h-.6c-.5,0-1,0-1.2-.4-.3-.3-.4-.8-.4-1.4v-3h-.9v-1.1h.9v-1.4s1.5,0,1.5,0Z"/>
    <path class="cls-11" d="M194.1,63.6l.8-.2v-3.6l-.8-.2v-.9h2.4v4.7l.8.2v.9h-3.1v-.9h0ZM196.5,57.3h-1.6v-1.2h1.6v1.2Z"/>
    <path class="cls-11" d="M197.7,61.6c0-.9.2-1.6.7-2.1.5-.6,1.2-.8,2-.8s1.5.3,2,.8c.5.6.7,1.3.7,2.1h0c0,1-.2,1.7-.7,2.2s-1.2.8-2,.8-1.5-.3-2-.8c-.5-.5-.7-1.3-.7-2.1h0ZM199.3,61.7c0,.5.1,1,.3,1.3s.5.5.9.5.7-.2.9-.5.3-.7.3-1.3h0c0-.6-.1-1-.3-1.4s-.5-.5-.9-.5-.7.2-.9.5-.3.7-.3,1.3h0Z"/>
    <path class="cls-11" d="M203.8,63.6l.8-.2v-3.6l-.8-.2v-.9h2.3v.8c.3-.3.5-.5.8-.7s.6-.2,1-.2c.6,0,1,.2,1.4.6.3.4.5.9.5,1.7v2.5l.8.2v.9h-3v-.9l.7-.2v-2.5c0-.4-.1-.7-.2-.8s-.4-.2-.7-.2-.4,0-.6,0-.3.2-.4.4v3.1l.6.2v.9h-3v-1h-.2Z"/>
  </g>
  <g class="cls-25">
    <path class="cls-11" d="M142.3,75.6c0-.4.1-.8.3-1.1.2-.3.6-.6,1.1-1-.2-.3-.4-.6-.5-.9s-.2-.5-.2-.8c0-.6.2-1.1.6-1.5.4-.4.9-.6,1.6-.6s1,.2,1.4.5c.4.4.5.8.5,1.3s-.1.7-.3,1-.4.5-.7.8l-.5.4,1.5,1.7c.1-.2.2-.4.3-.7.1-.3.1-.5.1-.8h1.2c0,.5-.1.9-.2,1.4-.1.4-.3.8-.6,1.1l1.1,1.3h-1.7l-.4-.5c-.3.2-.6.3-.9.4s-.7,0-1,0c-.8,0-1.4-.2-1.9-.6s-.8-.8-.8-1.5ZM144.9,76.6c.2,0,.4,0,.6,0,.2,0,.4,0,.5-.2l-1.6-1.9h-.1c-.2.3-.3.4-.4.6-.1.2-.1.3-.1.5,0,.3.1.6.3.8s.5.3.8.3ZM144.4,71.8c0,.2,0,.3.1.5s.2.3.3.5l.5-.3c.2,0,.3-.3.4-.4.1,0,.1-.3.1-.4,0-.2-.1-.3-.2-.5-.1,0-.3-.2-.5-.2s-.4,0-.5.2c-.1.2-.2.4-.2.6Z"/>
  </g>
  <g class="cls-25">
    <path class="cls-11" d="M155.7,77.7c0,0-.1-.2-.1-.3s-.1-.2-.1-.3c-.2.2-.4.4-.7.5s-.6.2-.9.2c-.6,0-1-.2-1.4-.5-.3-.3-.5-.7-.5-1.3s.2-1,.7-1.3,1.1-.4,1.9-.4h.8v-.6c0-.3-.1-.5-.2-.6s-.4-.2-.7-.2-.3,0-.5,0-.3,0-.3,0v.6h-1.3v-1.3c.3-.2.6-.4,1-.5s.8-.2,1.2-.2c.7,0,1.3.2,1.8.5.4.4.7.9.7,1.5v2.9h.5v1h-1.9ZM154.3,76.7c.2,0,.5,0,.6-.2.2,0,.3-.2.5-.4v-.9h-.8c-.3,0-.6,0-.8.2-.2.2-.3.3-.3.6s.1.4.2.5c.2.1.4.2.6.2Z"/>
  </g>
  <g class="cls-25">
    <path class="cls-11" d="M159.9,70.5v1.4h1v1.1h-1v3c0,.2,0,.4.1.5s.2,0,.4,0h.6v1.1c0,0-.2,0-.4,0h-.6c-.5,0-1,0-1.2-.4-.3-.3-.4-.8-.4-1.4v-3h-.9v-1.1h.9v-1.4s1.5,0,1.5,0Z"/>
    <path class="cls-11" d="M164,70.5v1.4h1v1.1h-1v3c0,.2,0,.4.1.5s.2,0,.4,0h.6v1.1c0,0-.2,0-.4,0h-.6c-.5,0-1,0-1.2-.4-.3-.3-.4-.8-.4-1.4v-3h-.9v-1.1h.9v-1.4s1.5,0,1.5,0Z"/>
    <path class="cls-11" d="M168.6,77.8c-.8,0-1.5-.3-2-.8s-.8-1.2-.8-2v-.2c0-.9.2-1.6.7-2.1.5-.6,1.1-.8,1.9-.8s1.4.2,1.8.7.6,1.1.6,1.9v.9h-3.5c0,.4.2.7.4.9.2.2.5.4.9.4s.6,0,.9,0c.2,0,.5-.2.8-.3l.4,1c-.2.2-.6.3-.9.5h-1.2ZM168.4,73c-.3,0-.5,0-.7.3-.2.2-.3.5-.3.9h1.9c0-.4-.1-.7-.2-.9s-.4-.3-.7-.3Z"/>
    <path class="cls-11" d="M176.4,73.9h-1.1l-.2-.7c-.1,0-.2-.2-.4-.2-.2,0-.3,0-.5,0-.3,0-.5,0-.7.2s-.2.3-.2.5.1.3.2.4.5.2.9.3c.7,0,1.3.4,1.6.6s.5.7.5,1.1-.2,1-.7,1.3c-.4.3-1,.5-1.8.5s-.9,0-1.2-.2c-.4,0-.7-.3-1-.6v-1.3h1.1l.2.8c.1,0,.2,0,.4.2.2,0,.3,0,.5,0,.3,0,.6,0,.7-.2.2,0,.2-.3.2-.5s-.1-.3-.3-.4-.5-.2-.9-.3c-.7,0-1.2-.3-1.5-.6-.3-.3-.5-.6-.5-1.1s.2-.9.6-1.3,1-.5,1.7-.5.9,0,1.3.2c.4,0,.7.3.9.5l.2,1.3Z"/>
    <path class="cls-11" d="M179.6,70.5v1.4h1v1.1h-1v3c0,.2,0,.4.1.5s.2,0,.4,0h.6v1.1c0,0-.2,0-.4,0h-.6c-.5,0-1,0-1.2-.4-.3-.3-.4-.8-.4-1.4v-3h-.9v-1.1h.9v-1.4s1.5,0,1.5,0Z"/>
  </g>
  <g class="cls-25">
    <path class="cls-11" d="M185.1,77.7c0,0-.1-.2-.1-.3s-.1-.2-.1-.3c-.2.2-.4.4-.7.5s-.6.2-.9.2c-.6,0-1-.2-1.4-.5-.3-.3-.5-.7-.5-1.3s.2-1,.7-1.3,1.1-.4,1.9-.4h.8v-.6c0-.3-.1-.5-.2-.6s-.4-.2-.7-.2-.3,0-.5,0-.3,0-.3,0v.6h-1.3v-1.3c.3-.2.6-.4,1-.5s.8-.2,1.2-.2c.7,0,1.3.2,1.8.5.4.4.7.9.7,1.5v2.9h.5v1h-1.9ZM183.8,76.7c.2,0,.5,0,.6-.2.2,0,.3-.2.5-.4v-.9h-.9c-.3,0-.6,0-.8.2-.2.2-.3.3-.3.6s.1.4.2.5c.2.1.4.2.7.2Z"/>
  </g>
  <g class="cls-25">
    <path class="cls-11" d="M189.3,70.5v1.4h1v1.1h-1v3c0,.2,0,.4.1.5s.2,0,.4,0h.6v1.1c0,0-.2,0-.4,0h-.6c-.5,0-1,0-1.2-.4-.3-.3-.4-.8-.4-1.4v-3h-.9v-1.1h.9v-1.4s1.5,0,1.5,0Z"/>
    <path class="cls-11" d="M191.1,76.8l.8-.2v-3.6l-.8-.2v-.9h2.4v4.7l.8.2v.9h-3.1v-.9h0ZM193.4,70.5h-1.6v-1.2h1.6v1.2Z"/>
    <path class="cls-11" d="M194.7,74.8c0-.9.2-1.6.7-2.1.5-.6,1.2-.8,2-.8s1.5.3,2,.8c.5.6.7,1.3.7,2.1h0c0,1-.2,1.7-.7,2.2s-1.2.8-2,.8-1.5-.3-2-.8-.7-1.3-.7-2.1h0ZM196.2,74.9c0,.5.1,1,.3,1.3s.5.5.9.5.7-.2.9-.5.3-.7.3-1.3h0c0-.6-.1-1-.3-1.4s-.5-.5-.9-.5-.7.2-.9.5-.3.7-.3,1.3h0Z"/>
    <path class="cls-11" d="M200.7,76.8l.8-.2v-3.6l-.8-.2v-.9h2.3v.8c.3-.3.5-.5.8-.7s.6-.2,1-.2c.6,0,1,.2,1.4.6.3.4.5.9.5,1.7v2.5l.8.2v.9h-3v-.9l.7-.2v-2.5c0-.4-.1-.7-.2-.8s-.6-.3-1-.3-.4,0-.6,0-.3.2-.4.4v3.1l.6.2v.9h-3v-.9h0Z"/>
  </g>
  <g id="Scone_logo_white-3" data-name="Scone logo white-3">
    <g class="cls-21">
      <g class="cls-24">
        <g>
          <path class="cls-19" d="M161.3,102.3h-.8c-.2,0-.3,0-.3.3v.8c0,.2.1.3.3.3h.8c.2,0,.3,0,.3-.3v-.8c0-.1-.1-.3-.3-.3M158.7,103.7h.8c.2,0,.3,0,.3-.3v-.8c0-.2-.1-.3-.3-.3h-.8c-.2,0-.3,0-.3.3v.8c0,.2.1.3.3.3M157.9,103.4v-.8c0-.2-.1-.3-.3-.3h-.8c-.2,0-.3,0-.3.3v.8c0,.2.1.3.3.3h.8c.1,0,.3-.1.3-.3M161.4,104.2c-.1,0-.2,0-.2.2v.9c0,0,.1.2.2.2s.2,0,.2-.2h0v-.9c0,0,0-.2-.2-.2h0M159.3,104.5v.8c0,.2.1.3.3.3h.8c.2,0,.3,0,.3-.3v-.8c0-.2-.1-.3-.3-.3h-.8c-.2,0-.3.2-.3.3M158.8,105.3v-.8c0-.2-.1-.3-.3-.3h-.8c-.2,0-.3,0-.3.3v.8c0,.2.1.3.3.3h.8c.1,0,.3-.1.3-.3M161.3,106.1h-.8c-.2,0-.3,0-.3.3v.8c0,.2.1.3.3.3h.8c.2,0,.3,0,.3-.3v-.8c0,0-.1-.3-.3-.3M159.3,106.1h-.8c-.2,0-.3,0-.3.3v.8c0,.2.1.3.3.3h.8c.2,0,.3,0,.3-.3v-.8c0,0-.1-.3-.3-.3"/>
          <path class="cls-19" d="M162.3,102c.3.3.8.4,1.2.4h0v2.2c0,.8-1,1.3-1.2,1.4h0v-4h0"/>
          <path class="cls-19" d="M160,101.9c1.6,0,1.9-.6,1.9-.6h.2s.3.6,1.9.6h0v2.9c0,.9-1.7,1.9-1.7,1.9,0,0-.1,0-.1,0v.7h.1c.6-.3,2.3-1.3,2.3-2.4v-3.5c0,0-.1,0-.2,0-2.1,0-2.4-.8-2.4-.8h-.2s-.3.8-2.4.8-.1,0-.1,0v.4s0,0,.1,0l.6-.2"/>
          <path class="cls-16" d="M166.1,106.4l.8-.3c.2.4.6.6,1.1.6s.4,0,.6-.2c.2,0,.3-.3.3-.4,0-.4-.6-.7-1-.9h0c-.4,0-.7-.3-1-.5s-.5-.6-.5-1,.2-.8.5-1c.3-.3.8-.4,1.2-.4.7,0,1.3.3,1.6.9l-.9.3c-.1,0-.2-.2-.3-.3-.1,0-.3,0-.5,0-.5,0-.8.2-.8.6s.1.4.3.5.5.3.7.4h.1c.6.3,1.4.6,1.4,1.4s-.2.8-.6,1c-.4.3-.9.4-1.3.4-.6,0-1.3-.4-1.7-1"/>
          <path class="cls-16" d="M173.4,107.5c-.3,0-.7,0-1-.2s-.6-.3-.8-.6c-.2-.2-.4-.5-.6-.8-.1-.3-.2-.7-.2-1s.1-.7.2-1c.3-.6.8-1.1,1.4-1.4.3,0,.7-.2,1-.2s.8,0,1.2.3c.3.2.7.4.9.8l-.7.5c-.2-.2-.4-.4-.6-.5-.2,0-.5-.2-.8-.2-1,0-1.7.8-1.7,1.8s.2.9.5,1.2c.3.3.8.5,1.2.5s.6,0,.9-.3c.3-.2.5-.4.6-.7l.8.4c-.2.4-.5.8-.9,1-.5.4-.9.5-1.4.4"/>
          <path class="cls-16" d="M179.1,107.5c-.3,0-.7,0-1-.2-.6-.3-1.1-.8-1.4-1.4-.1-.3-.2-.7-.2-1s.1-.7.2-1c.1-.3.3-.6.6-.8.2-.2.5-.4.8-.6.6-.3,1.4-.3,2,0,.3,0,.6.3.8.6.2.2.4.5.6.8.3.6.3,1.4,0,2-.1.3-.3.6-.6.8-.2.2-.5.4-.8.6-.3.2-.7.2-1,.2M179.1,103.2c-.5,0-.9.2-1.2.5-.7.7-.7,1.8-.1,2.5.7.7,1.8.7,2.5,0h.1c.3-.4.5-.9.5-1.3s-.2-.9-.5-1.2c-.4-.4-.9-.6-1.3-.6"/>
          <polygon class="cls-16" points="187.5 102.4 187.5 107.6 183.9 104.3 183.9 107.4 183 107.4 183 102.2 186.6 105.5 186.6 102.4 187.5 102.4"/>
          <polygon class="cls-16" points="190 103.1 190 104.5 192.6 104.5 192.6 105.3 190 105.3 190 106.6 192.9 106.6 192.9 107.4 189.1 107.4 189.1 102.4 192.9 102.4 192.9 103.2 190 103.2 190 103.1"/>
        </g>
      </g>
    </g>
  </g>
  <path class="cls-1" d="M100.3,371.5h58.2c2.8,0,5,2.2,5,5v20.6c0,2.8-2.2,5-5,5H25.9c-2.8,0-5-2.2-5-5v-20.6c0-2.7,2.2-5,5-5h58.3"/>
  <path class="cls-8" d="M92.3,379.3c0,0,.8-.3.9-.4,1.9-1,7.1-3.9,7.1-7.5v-10.7c0-.1,0-.2-.3-.2h0c0,0,0-.1-.2-.1-1,0-1.9-.1-2.9-.2-3.4-.6-4.1-2.1-4.1-2.1,0,0,0-.1-.3-.1h-.5c0,0-.2-.1-.3.1s-.7,1.5-4.1,2.1c-.9.1-1.9.2-2.9.2s0,0-.2.1h0c-.2,0-.3.1-.3.2v10.7c0,3.6,5.2,6.4,7.1,7.5.5.2.8.3,1,.4"/>
  <path class="cls-18" d="M87.9,368.6l3.3,3.3c0,.1.2.1.3.1s.2,0,.3-.1l4.9-5c0-.2,0-.4,0-.5l-1.1-1.1c0-.1-.2-.1-.3-.1s-.2,0-.3.1l-3.6,3.6-1.9-2c-.2-.1-.4-.1-.5,0l-1.1,1.1c-.1.2-.1.4,0,.6"/>
  <g class="cls-25">
    <path class="cls-18" d="M62.1,388.9h-2.3v2h2.2v-.8h1.2v1.9h-5.5v-.8h.7v-5.1h-.7v-.9h5.3v1.9h-1v-.8h-2.3v1.7h2.3v.9h0Z"/>
  </g>
  <g class="cls-25">
    <path class="cls-18" d="M63.8,391.2h.7v-3.3h-.7v-.9h2v.7c.3-.3.5-.5.7-.6s.5-.2.8-.2c.5,0,.9.2,1.2.5.3.3.4.8.4,1.5v2.2h.7v.9h-2.6v-.8h.6v-2.3c0-.3,0-.6-.2-.7s-.3-.2-.6-.2-.3,0-.5.1c0,.1-.3.2-.4.3v2.8h.6v.9h-2.6v-.9h-.1Z"/>
  </g>
  <g class="cls-25">
    <path class="cls-18" d="M72.4,391c.2,0,.4-.1.6-.2,0-.1.2-.3.2-.6h1.3c0,.5-.2,1-.6,1.3s-.9.5-1.5.5-1.4-.2-1.8-.7-.6-1.1-.6-1.9h0c0-.9.2-1.5.6-2s1-.7,1.8-.7.8.1,1.1.2.6.3.8.5v1.4h-1.1l-.2-.8c0-.1-.2-.1-.3-.1s-.2-.1-.3-.1c-.4,0-.7.1-.8.4s-.2.7-.2,1.1h0c0,.6,0,.9.2,1.2.1.4.4.5.8.5Z"/>
  </g>
  <g class="cls-25">
    <path class="cls-18" d="M75.2,391.2h.7v-3.3h-.7v-.9h2v.7c.2-.3.4-.5.6-.6s.4-.2.7-.2h.4v1.3h-.7c-.2,0-.4,0-.5.1s-.2.2-.3.3v2.5h.7v.9h-2.7v-.8h-.2Z"/>
  </g>
  <g class="cls-25">
    <path class="cls-18" d="M84.5,387.7h-.5c0,.1-1.9,5.1-1.9,5.1,0,.4-.3.7-.6.9s-.6.4-1.1.4h-.3c0,0-.2,0-.4-.1l.2-1h.2c.2,0,.4-.1.5-.2s.2-.3.3-.4l.2-.4-1.6-4.2h-.5v-.9h2.5v.8h-.6c0,.1.7,2.1.7,2.1v.4h0l.8-2.4h-.6v-.9h2.5v.8h.1Z"/>
    <path class="cls-18" d="M84.9,387.7v-.8h2v.6c.3-.2.4-.4.6-.5s.5-.2.7-.2c.6,0,1.1.2,1.5.7s.5,1.1.5,2h0c0,.9-.2,1.5-.5,1.9-.4.5-.8.7-1.5.7s-.5,0-.7-.1-.4-.2-.5-.4v1.5h.7v.9h-2.7v-.8h.7v-5.2l-.8-.3ZM88.9,389.5c0-.5,0-.9-.2-1.2-.2-.3-.4-.5-.7-.5s-.4,0-.5.1-.3.2-.3.4v2.2c0,.1.2.3.3.3s.3.1.5.1c.3,0,.6-.1.7-.4,0-.1.2-.5.2-1h0Z"/>
    <path class="cls-18" d="M92.9,385.6v1.3h.9v1h-.9v2.6c0,.2,0,.3,0,.4s.2.1.3.1h.4v1c0,0-.2.1-.4.1h-.5c-.5,0-.8-.1-1.1-.4-.3-.3-.4-.7-.4-1.2v-2.6h-.8v-1h.8v-1.3h1.6Z"/>
    <path class="cls-18" d="M96.9,392.1c-.7,0-1.3-.2-1.8-.7-.4-.5-.7-1.1-.7-1.8v-.2c0-.8.2-1.4.6-1.9s1-.7,1.7-.7,1.2.2,1.6.6.6,1,.6,1.7v.8h-3.1c0,.3,0,.6.3.8.2.2.5.3.8.3s.6,0,.8-.1c.2-.1.4-.2.7-.3l.4.9c-.2.2-.5.3-.8.4-.3.1-.6.2-1.1.2ZM96.8,387.8c-.3,0-.5.1-.6.3,0,.2-.2.5-.3.8h1.7c0-.4,0-.6-.2-.8,0-.2-.3-.3-.6-.3Z"/>
    <path class="cls-18" d="M103,391.4c-.2.2-.4.4-.6.5s-.5.2-.8.2c-.6,0-1.1-.2-1.5-.7-.3-.5-.5-1.1-.5-1.8h0c0-.9.2-1.6.5-2.1.4-.5.8-.7,1.5-.7s.5.1.7.2.4.3.5.5v-1.8h-.7v-.9h2.1v6.4h.7v.9h-1.9v-.7ZM101.1,389.6c0,.4,0,.8.2,1.1s.4.4.7.4.4,0,.5-.1.3-.2.4-.4v-2.2c0-.2-.2-.3-.4-.4s-.3-.1-.5-.1c-.3,0-.6.2-.7.5-.2.2-.2.6-.2,1.2h0Z"/>
    <path class="cls-18" d="M107.6,387.8v-1h.8v-.4c0-.6.2-1.1.6-1.5.4-.3.9-.5,1.7-.5s.5,0,.7.1c.2,0,.5.1.8.2l-.2,1.1c-.2-.1-.4-.1-.6-.2-.2,0-.4-.1-.6-.1-.3,0-.6.1-.7.2-.2.1-.2.4-.2.6v.4h3.1v4.2h.7v.9h-2.8v-.8h.7v-3.3h-1.7v3.2h.7v.9h-2.8v-.8h.7v-3.3h-.9Z"/>
    <path class="cls-18" d="M114,385.4v-.8h2.1v6.4h.7v.9h-2.8v-.8h.7v-5.5l-.7-.2Z"/>
    <path class="cls-18" d="M119.7,392.1c-.7,0-1.3-.2-1.8-.7-.4-.5-.7-1.1-.7-1.8v-.2c0-.8.2-1.4.6-1.9s1-.7,1.7-.7,1.2.2,1.6.6.6,1,.6,1.7v.8h-3.1c0,.3,0,.6.3.8.2.2.5.3.8.3s.6,0,.8-.1.4-.2.7-.3l.4.9c-.2.2-.5.3-.8.4-.3.1-.7.2-1.1.2ZM119.6,387.8c-.3,0-.5.1-.6.3,0,.2-.2.5-.3.8h1.7c0-.4,0-.6-.2-.8-.2-.2-.4-.3-.6-.3Z"/>
    <path class="cls-18" d="M126.6,388.6h-.9v-.6c-.2-.1-.3-.1-.5-.2,0,0-.3-.1-.5-.1s-.4.1-.6.2-.2.2-.2.4,0,.3.2.4.4.2.8.3c.6.1,1.1.3,1.4.6.3.2.5.6.5,1s-.2.8-.6,1.1-.9.4-1.6.4-.8-.1-1.1-.2-.6-.3-.9-.5v-1.2h1l.2.7c0,.1.2.1.3.2s.3,0,.4,0c.3,0,.5-.1.6-.2s.2-.2.2-.4,0-.3-.2-.4-.4-.2-.8-.3c-.6-.1-1.1-.3-1.4-.5s-.5-.6-.5-1,.2-.8.5-1.1c.4-.3.9-.5,1.5-.5s.8.1,1.1.2.6.2.8.4l.3,1.3Z"/>
  </g>
  <path class="cls-2" d="M455.2,210.1h-115.6c-2.8,0-5,2.2-5,5v25.9h-96.1v-25.9c0-2.8-2.2-5-5-5h-51.3v-95h51.3c2.8,0,5-2.2,5-5V31.4c0-2.8-2.2-5-5-5h-115.8c-2.8,0-5,2.2-5,5v78.7c0,2.8,2.2,5,5,5h50.6v95h-50.6c-2.8,0-5,2.2-5,5v112.1c0,2.8,2.2,5,5,5h115.7c2.8,0,5-2.2,5-5v-72.5h96.1v25.9c0,2.8,2.2,5,5,5h115.7c2.8,0,5-2.2,5-5v-65.5c0-2.8-2.2-5-5-5Z"/>
  <path class="cls-9" d="M388.7,198.3c4.6-4.5,12.1-4.5,16.6.1s4.5,12.1-.1,16.6-12.1,4.5-16.6-.1c-2.2-2.2-3.4-5.1-3.4-8.2s.8-5.1,2.4-7.1"/>
  <path class="cls-6" d="M396.9,212.3h-4.3c-.6,0-.8-.2-.8-.8v-6.5c0-.6.2-.8.8-.8h8.5c.5,0,.8.2.8.8v6.5c0,.5-.2.8-.8.8-1.4,0-2.8,0-4.2,0Z"/>
  <path class="cls-6" d="M392.6,203.7c0-1.8,1-3.4,2.6-4.1,2.1-.9,4.6,0,5.5,2.2.1.2.2.5.2.7.1.4.1.8.2,1.2"/>
  <path class="cls-11" d="M396.2,209.6h0v.9c0,.2.1.2.3.2h.8c.2,0,.3-.1.3-.3v-1.6c0-.2.1-.3.2-.4.5-.3.8-.9.6-1.4-.2-.6-.8-1-1.4-1-.7-.1-1.3.3-1.6.9-.2.6,0,1.2.5,1.5.2.1.3.3.3.5,0,.2,0,.4,0,.7Z"/>
  <path class="cls-9" d="M166.9,198.3c4.6-4.5,12.1-4.5,16.6.1s4.5,12.1-.1,16.6-12.1,4.5-16.6-.1c-2.2-2.2-3.4-5.1-3.4-8.2s.8-5.1,2.4-7.1"/>
  <path class="cls-6" d="M175.1,212.3h-4.2c-.6,0-.8-.2-.8-.8v-6.5c0-.6.2-.8.8-.8h8.4c.6,0,.8.2.8.8v6.5c0,.5-.2.8-.8.8-1.4,0-2.8,0-4.2,0Z"/>
  <path class="cls-6" d="M170.8,203.7c0-1.8,1-3.4,2.6-4.1,2.1-.9,4.6,0,5.5,2.1.1.2.2.5.2.7.1.4.1.8.2,1.2"/>
  <path class="cls-11" d="M174.4,209.6h0v.9c0,.2.1.2.3.2h.8c.2,0,.3-.1.3-.3v-1.6c0-.2.1-.3.2-.4.5-.3.8-.9.6-1.4-.2-.6-.8-1-1.4-1-.7-.1-1.3.3-1.6.9-.2.6,0,1.2.6,1.5.2.1.3.3.3.5-.1.2-.1.4-.1.7Z"/>
  <path class="cls-9" d="M166.9,15.3c4.6-4.5,12.1-4.5,16.6.1,4.5,4.6,4.5,12.1-.1,16.6s-12.1,4.5-16.6-.1c-2.2-2.2-3.4-5.1-3.4-8.2s.8-5.1,2.4-7.1"/>
  <path class="cls-6" d="M175.1,29.4h-4.2c-.6,0-.8-.2-.8-.8v-6.5c0-.6.2-.8.8-.8h8.4c.6,0,.8.2.8.8v6.5c0,.5-.2.8-.8.8h-4.2Z"/>
  <path class="cls-6" d="M170.8,20.7c0-1.8,1-3.4,2.6-4.1,2.1-.9,4.6,0,5.5,2.1.1.2.2.5.2.7.1.4.1.8.2,1.2"/>
  <path class="cls-11" d="M174.4,26.6h0v.9c0,.2.1.2.3.2h.8c.2,0,.3-.1.3-.3v-1.6c0-.2.1-.3.2-.4.5-.3.8-.9.6-1.5s-.8-1-1.4-1c-.7-.1-1.3.3-1.6.9-.2.6,0,1.2.6,1.5.2.1.3.3.3.5-.1.3-.1.5-.1.8Z"/>
  <line class="cls-2" x1="233.2" y1="247.9" x2="234.2" y2="247.9"/>
  <line class="cls-7" x1="236.3" y1="247.9" x2="337" y2="247.9"/>
  <line class="cls-2" x1="338" y1="247.9" x2="339" y2="247.9"/>
  <polygon class="cls-11" points="235.9 251.2 236.4 250.6 233.5 248 236.4 245.3 235.9 244.7 232.4 248 235.9 251.2"/>
  <polygon class="cls-11" points="336.3 251.2 335.8 250.6 338.7 248 335.8 245.3 336.3 244.7 339.9 248 336.3 251.2"/>
  <line class="cls-2" x1="175.3" y1="114.4" x2="175.3" y2="115.4"/>
  <line class="cls-5" x1="175.3" y1="117.4" x2="175.3" y2="182.6"/>
  <line class="cls-2" x1="175.3" y1="183.6" x2="175.3" y2="184.6"/>
  <polygon class="cls-11" points="172.1 182 172.7 181.4 175.3 184.3 178 181.4 178.6 182 175.3 185.5 172.1 182"/>
  <g class="cls-25">
    <path class="cls-18" d="M72.1,218.6c-.3.2-.6.4-1,.5s-.8.2-1.1.2c-.6,0-1.1-.2-1.4-.6-.3-.4-.5-.9-.5-1.5s0-1.2.3-1.8c.2-.5.4-1,.7-1.3.3-.4.6-.6,1-.8s.8-.3,1.2-.3.5,0,.8.1c.2.1.4.2.5.3s.2.3.3.5,0,.4,0,.5c0,.6-.3,1-.8,1.3-.6.3-1.4.5-2.4.5h-.6c0,.2,0,.3,0,.4v.4c0,.4,0,.8.3,1.1.2.3.5.4.9.4s.7-.1,1-.2c.3-.1.5-.2.7-.4v.7ZM71.1,213.8c-.4,0-.8.2-1.1.5-.3.3-.6.8-.7,1.3h.9c.3,0,.6-.1.9-.1.3-.1.5-.2.7-.3s.3-.4.3-.6v-.2c0-.1,0-.2,0-.2,0-.1-.2-.1-.3-.2-.3-.2-.4-.2-.6-.2Z"/>
    <path class="cls-18" d="M77,219.2l.8-3.8c0-.1,0-.3,0-.4v-.4c0-.2,0-.4-.2-.6,0-.1-.3-.2-.6-.2s-.4,0-.6.1-.4.2-.6.4c-.2.1-.3.3-.5.5,0,.2-.3.4-.4.5l-.8,3.8h-.9l1.3-6h.6v1h0c0-.1.2-.3.4-.4,0-.1.3-.3.5-.4s.4-.2.6-.3.5-.1.7-.1c.4,0,.7.1.9.3.2.2.3.5.3,1s0,.5,0,.9l-.9,4h-.6Z"/>
    <path class="cls-18" d="M83.7,218.7c0,.1-.3.2-.4.3-.2.1-.3.1-.5.2s-.3.1-.5.1h-.5c-.4,0-.7-.1-1-.2s-.5-.3-.6-.5l-.3-.6c0-.2,0-.4,0-.6,0-.7,0-1.3.3-1.8s.4-1,.7-1.4c.3-.4.7-.7,1.1-.9s.8-.3,1.2-.3.6,0,.8.1c.2.1.4.1.5.2l-.3.7c0-.1-.3-.1-.5-.2-.2,0-.4-.1-.6-.1-.3,0-.5.1-.8.3s-.5.4-.7.7-.4.6-.5,1-.2.8-.2,1.2,0,.9.3,1.2c.2.2.5.4.9.4s.5-.1.8-.2c.3-.1.5-.2.6-.3l.3.7Z"/>
    <path class="cls-18" d="M85.9,217.8v.3c0,.2,0,.3,0,.3q0,.1.2.1h.4c0,0,.2-.1.4-.1v.7c0,0-.2.1-.3.1s-.2,0-.3.1h-.6c-.3,0-.5-.1-.7-.2s-.3-.4-.3-.7,0-.4,0-.6l1.5-7h.9l-1.4,7Z"/>
    <path class="cls-18" d="M92.5,216.8c0,.3,0,.6,0,.9v1.5h-.7l-.2-1h0c0,.1-.2.3-.4.4,0,.1-.3.3-.5.4-.2.1-.3.2-.5.3s-.4.1-.6.1c-1,0-1.4-.6-1.4-1.9s0-1,.2-1.6c0-.5.3-1,.6-1.4s.6-.8,1.1-1c.4-.3,1-.4,1.6-.4s.5,0,.8.1.6.1.9.2l-.8,3.4ZM89.8,218.6c.2,0,.4,0,.6-.1s.3-.2.5-.3.3-.3.4-.4.2-.3.3-.4l.7-3.2c-.2-.1-.5-.2-.9-.2s-.7.1-1,.3-.5.5-.7.8-.3.7-.4,1.2c0,.4,0,.9,0,1.3s0,.6.2.8c0,0,.2.2.4.2Z"/>
  </g>
  <g class="cls-25">
    <path class="cls-18" d="M95.7,216.7v1.1h0l.5-1.2,2-3.5h1l-3.7,6.1h-.4l-1.2-6.1h1l.7,3.6Z"/>
  </g>
  <g class="cls-25">
    <path class="cls-18" d="M103.2,218.6c-.3.2-.6.4-1,.5s-.8.2-1.1.2c-.6,0-1.1-.2-1.4-.6-.3-.4-.5-.9-.5-1.5s0-1.2.3-1.8c.2-.5.4-1,.7-1.3.3-.4.6-.6,1-.8s.8-.3,1.2-.3.5,0,.8.1c.2.1.4.2.5.3s.2.3.3.5,0,.4,0,.5c0,.6-.3,1-.8,1.3-.6.3-1.4.5-2.4.5h-.6c0,.2,0,.3,0,.4v.4c0,.4,0,.8.3,1.1.2.3.5.4.9.4s.7-.1,1-.2c.3-.1.5-.2.7-.4v.7ZM102.2,213.8c-.4,0-.8.2-1.1.5-.3.3-.6.8-.7,1.3h.9c.3,0,.6-.1.9-.1.3-.1.5-.2.7-.3s.3-.4.3-.6v-.2c0-.1,0-.2,0-.2,0-.1-.2-.1-.3-.2-.3-.2-.4-.2-.6-.2Z"/>
  </g>
  <line class="cls-6" x1="154.5" y1="285.8" x2="134.5" y2="349.8"/>
  <polygon class="cls-11" points="147.7 288.5 148.4 289.7 154.3 286.3 157.3 292.5 158.6 291.9 155 284.3 147.7 288.5"/>
  <polygon class="cls-11" points="130.4 343.7 131.7 343.1 134.7 349.3 140.7 345.9 141.4 347.1 134.1 351.3 130.4 343.7"/>
  <line class="cls-6" x1="200.1" y1="285.8" x2="220.1" y2="349.8"/>
  <polygon class="cls-11" points="196 291.9 197.3 292.5 200.3 286.3 206.3 289.7 207 288.5 199.7 284.3 196 291.9"/>
  <polygon class="cls-11" points="213.3 347.1 214 345.9 219.9 349.3 222.9 343.1 224.2 343.7 220.6 351.3 213.3 347.1"/>
  <path class="cls-9" d="M160.3,304.1c-3.4-7.8-12.5-11.5-20.3-8.1s-11.5,12.5-8.1,20.3,12.5,11.5,20.3,8.1c7.8-3.3,11.5-12.4,8.1-20.3q0,.1,0,0ZM151,321.6c-6.3,2.7-13.5-.2-16.2-6.4-2.7-6.3.2-13.5,6.4-16.2,6.3-2.7,13.5.2,16.2,6.4h0c2.7,6.2-.2,13.5-6.4,16.2Z"/>
  <circle class="cls-9" cx="146.1" cy="310.3" r="12.3"/>
  <path class="cls-3" d="M155.5,318.1c-.1-.2-.3-.4-.5-.6-.8-.5-1.8-.4-2.3.4h0c-.5.8-.3,1.8.4,2.3"/>
  <path class="cls-3" d="M157.3,315.5c0-.1-.1-.2-.2-.3-.1,0-.1-.1-.2-.1q-.6-.4-1,.1c-.2.3-.5.4-.8.2h-.2c-.5,0-.7-.3-.8-.7,0-.2-.1-.3-.3-.4-.4,0-.7.1-1.1.1v.9c0,.2-.1.3-.3.5q-.1.1-.2.1c-.3.3-.8.4-1.2.1h-.1c-.1-.3-.4-.3-.5-.1h-.1c0,.2-.1.2-.1.3-.4.5-.4.6.1,1,.3.1.4.4.3.7h0v.3c0,.5-.3.7-.7.8s-.5.4-.4.8,0,.8.7.7c.2,0,.5,0,.7.1.2.3.4.6.6.9"/>
  <path class="cls-3" d="M147.4,310.9c.9-1.3.6-3.1-.6-4s-3.1-.6-4,.6c-.9,1.3-.6,3.1.6,4s3,.7,4-.6q0,0,0,0Z"/>
  <path class="cls-3" d="M152.5,309.2c-.4.1-.7.2-1.1.3-.2,0-.3.1-.4.4-.1.5-.2,1-.3,1.5,0,.2,0,.3.1.5.3.3.6.6.9.8.2.1.3.4.1.7h-.1c0,.1-.7,1.1-.7,1.1-.1.2-.4.3-.6.2,0,0-.1,0-.1-.1-.3-.2-.6-.4-1-.5-.2-.1-.3-.1-.5,0-.5.3-.9.5-1.4.8-.1.1-.2.2-.2.4,0,.4,0,.8.1,1.1,0,.4-.1.6-.5.6s-.7.1-1.1.2c-.4.1-.6-.1-.7-.4,0-.1-.1-.3-.1-.4-.1-.7-.4-1-1.2-1.2-.8-.4-1.8,0-2.2.8-.2.3-.5.3-.8.1s-.6-.5-1-.7c-.3-.1-.4-.4-.2-.7,0,0,0-.1.1-.1.2-.3.4-.6.6-.9.2-.2.2-.4,0-.6h0c-.2-.3-.4-.5-.6-.8-.2-.6-.6-.8-1.3-.7-1.2.2-1.1,0-1.3-1s-.2-1.1.9-1.4c.6-.1.9-.3,1-1,0-.5.4-1,.3-1.3s-.7-.7-1-1c-.2-.1-.3-.4-.1-.6,0,0,0-.1.1-.1l.7-1c.1-.2.4-.4.6-.3,0,0,.1,0,.1.1.1.1.3.2.4.3.6.4,1.1.5,1.6-.1,0-.1.1-.2.2-.2.9-.2.9-.8.9-1.5s0-.9.8-1c1.4-.2,1.3-.4,1.6,1,.1.5.3.8.8.8s.4,0,.6.1c.5.3,1.2.2,1.5-.3,0,0,0-.1.1-.1.7-1,.8-.7,1.5-.1,1,.7,1,.6.4,1.6s-.5.9,0,1.4c.3.3.4,1,.8,1.2s.9,0,1.4,0,.4.2.5.3c.1.5.2.9.3,1.4v.3c-.1,0-.3,0-.5.1Z"/>
  <path class="cls-9" d="M213.4,296.1c-7.8-3.4-16.9.2-20.3,8.1-3.4,7.8.2,16.9,8.1,20.3,7.8,3.4,16.9-.2,20.3-8.1,3.4-7.8-.2-16.9-8.1-20.3ZM218.6,315.1c-2.7,6.3-9.9,9.1-16.2,6.4s-9.1-9.9-6.4-16.2c2.7-6.3,9.9-9.1,16.2-6.4h0c6.2,2.7,9.1,10,6.4,16.2h0Z"/>
  <circle class="cls-9" cx="207.3" cy="310.3" r="12.3"/>
  <path class="cls-3" d="M216.7,302.4c-.1.2-.3.4-.5.6-.8.5-1.8.3-2.4-.4-.5-.8-.3-1.8.4-2.3"/>
  <path class="cls-3" d="M218.5,305.1c0,.1-.1.2-.2.3-.1,0-.1.1-.2.1q-.6.4-1-.1c-.3-.3-.5-.4-.8-.2h-.2c-.5,0-.7.3-.8.7,0,.2-.2.4-.3.4-.4,0-.7-.1-1.1-.1v-.9c0-.2-.1-.3-.3-.5,0-.1-.1-.1-.2-.1-.3-.3-.8-.4-1.2-.1h-.1c-.1.2-.4.3-.5.1h-.1c0-.2-.1-.2-.1-.3-.4-.5-.4-.6.1-1,.3-.1.4-.4.3-.7h0c0-.2-.1-.3-.1-.3.1-.5-.3-.7-.7-.8s-.5-.4-.4-.8,0-.8.7-.7c.2,0,.5,0,.6-.1.2-.3.4-.5.6-.9"/>
  <path class="cls-3" d="M208.6,309.7c.9,1.3.6,3.1-.6,4s-3.1.6-4-.6c-.9-1.3-.6-3.1.6-4,1.2-1,3-.7,4,.6q-.1-.1,0,0Z"/>
  <path class="cls-3" d="M213.7,311.4c-.4-.1-.7-.2-1.1-.3-.2,0-.3-.1-.4-.4-.1-.5-.2-1-.3-1.5,0-.2,0-.3.1-.5.3-.3.6-.6.9-.8.2-.2.3-.4.1-.7h0c0-.1-.7-1.1-.7-1.1-.2-.3-.4-.3-.7-.1-.3.2-.6.4-1,.5h-.5c-.5-.3-.9-.5-1.4-.8-.1-.1-.2-.2-.2-.4,0-.4,0-.8.1-1.1s-.1-.6-.5-.6-.7-.1-1.1-.2c-.4-.1-.6.1-.7.4,0,.1-.1.3-.1.4-.1.7-.4,1-1.1,1.2-.8.4-1.8,0-2.2-.8-.2-.3-.5-.3-.8-.1s-.6.5-1,.7c-.3.1-.4.5-.2.7,0,0,0,.1.1.1.2.3.4.6.6.9.2.2.2.4,0,.6h0c-.2.2-.4.5-.6.8-.2.6-.6.8-1.3.7-1.2-.2-1.1,0-1.3,1s-.2,1.1.9,1.4c.6.1.9.3,1,1,0,.5.4,1,.3,1.3s-.7.7-1,1c-.2.1-.3.4-.2.6,0,0,0,.1.1.1l.7,1c.1.2.4.4.6.3,0,0,.1,0,.1-.1.1-.1.3-.2.4-.3.6-.4,1.1-.5,1.6.1q.1.1.2.2c.9.2.9.8.9,1.5s0,.9.8,1c1.4.2,1.3.4,1.6-1,.1-.5.3-.8.8-.8s.4,0,.6-.1c.5-.3,1.2-.2,1.5.3,0,0,0,.1.1.1.8,1,.8.7,1.5.1,1-.7,1-.6.4-1.6s-.5-.9,0-1.4c.3-.3.4-1,.8-1.2s.9,0,1.4,0,.4-.2.5-.3c.1-.5.2-.9.3-1.4,0-.1,0-.2-.1-.3-.2,0-.3-.1-.5-.1Z"/>
</svg>