<?xml version="1.0" encoding="UTF-8"?>
<svg id="Ebene_1" data-name="Ebene 1" xmlns="http://www.w3.org/2000/svg" xmlns:xlink="http://www.w3.org/1999/xlink" version="1.1" viewBox="0 0 504.5 417.4">
  <defs>
    <style>
      .cls-1, .cls-2, .cls-3, .cls-4, .cls-5, .cls-6, .cls-7, .cls-8 {
        fill: none;
      }

      .cls-1, .cls-2, .cls-5, .cls-6, .cls-7, .cls-8, .cls-9 {
        stroke-width: 2px;
      }

      .cls-1, .cls-2, .cls-5, .cls-7 {
        stroke-miterlimit: 10;
      }

      .cls-1, .cls-8 {
        stroke: #fff;
      }

      .cls-2, .cls-3, .cls-5, .cls-6, .cls-7, .cls-9 {
        stroke: #fc0;
      }

      .cls-3, .cls-6, .cls-8, .cls-9 {
        stroke-linecap: round;
        stroke-linejoin: round;
      }

      .cls-10 {
        clip-path: url(#clippath);
      }

      .cls-4, .cls-11, .cls-12, .cls-13, .cls-14, .cls-15, .cls-16, .cls-17, .cls-18, .cls-19 {
        stroke-width: 0px;
      }

      .cls-11 {
        fill: #fc0;
      }

      .cls-20 {
        clip-path: url(#clippath-1);
      }

      .cls-21 {
        clip-path: url(#clippath-4);
      }

      .cls-22 {
        clip-path: url(#clippath-3);
      }

      .cls-23 {
        clip-path: url(#clippath-2);
      }

      .cls-24 {
        clip-path: url(#clippath-5);
      }

      .cls-5 {
        stroke-dasharray: 0 0 2 2;
      }

      .cls-7 {
        stroke-dasharray: 0 0 2 2;
      }

      .cls-12 {
        fill: url(#Unbenannter_Verlauf);
      }

      .cls-12, .cls-17 {
        opacity: .7;
      }

      .cls-12, .cls-17, .cls-25 {
        isolation: isolate;
      }

      .cls-13 {
        fill: url(#Unbenannter_Verlauf_5);
      }

      .cls-14 {
        fill: url(#Unbenannter_Verlauf_4);
      }

      .cls-15 {
        fill: url(#Unbenannter_Verlauf_3);
      }

      .cls-16 {
        fill: #fdfeff;
      }

      .cls-17 {
        fill: url(#Unbenannter_Verlauf_2);
      }

      .cls-9, .cls-18 {
        fill: #fff;
      }

      .cls-19 {
        fill: #ffd138;
      }
    </style>
    <linearGradient id="Unbenannter_Verlauf" data-name="Unbenannter Verlauf" x1="204.6" y1="825" x2="217.8" y2="825" gradientTransform="translate(0 -662)" gradientUnits="userSpaceOnUse">
      <stop offset="0" stop-color="#906"/>
      <stop offset=".2" stop-color="#780066"/>
      <stop offset=".4" stop-color="#5a0066"/>
      <stop offset=".6" stop-color="#406"/>
      <stop offset=".8" stop-color="#370066"/>
      <stop offset="1" stop-color="#306"/>
    </linearGradient>
    <linearGradient id="Unbenannter_Verlauf_2" data-name="Unbenannter Verlauf 2" x1="315.8" y1="899.1" x2="421" y2="899.1" gradientTransform="translate(-46.5 -649.9)" gradientUnits="userSpaceOnUse">
      <stop offset="0" stop-color="#906"/>
      <stop offset=".2" stop-color="#780066"/>
      <stop offset=".4" stop-color="#5a0066"/>
      <stop offset=".6" stop-color="#406"/>
      <stop offset=".8" stop-color="#370066"/>
      <stop offset="1" stop-color="#306"/>
    </linearGradient>
    <linearGradient id="Unbenannter_Verlauf_3" data-name="Unbenannter Verlauf 3" x1="370.2" y1="911.1" x2="495.9" y2="911.1" gradientTransform="translate(0 -662)" gradientUnits="userSpaceOnUse">
      <stop offset="0" stop-color="#906"/>
      <stop offset=".2" stop-color="#780066"/>
      <stop offset=".4" stop-color="#5a0066"/>
      <stop offset=".6" stop-color="#406"/>
      <stop offset=".8" stop-color="#370066"/>
      <stop offset="1" stop-color="#306"/>
    </linearGradient>
    <clipPath id="clippath">
      <rect class="cls-4" x="414" y="271.6" width="36.3" height="7.1"/>
    </clipPath>
    <clipPath id="clippath-1">
      <rect class="cls-4" x="414" y="271.6" width="36.3" height="7.1"/>
    </clipPath>
    <linearGradient id="Unbenannter_Verlauf_4" data-name="Unbenannter Verlauf 4" x1="148.4" y1="934.5" x2="274.1" y2="934.5" gradientTransform="translate(0 -662)" gradientUnits="userSpaceOnUse">
      <stop offset="0" stop-color="#906"/>
      <stop offset=".2" stop-color="#780066"/>
      <stop offset=".4" stop-color="#5a0066"/>
      <stop offset=".6" stop-color="#406"/>
      <stop offset=".8" stop-color="#370066"/>
      <stop offset="1" stop-color="#306"/>
    </linearGradient>
    <clipPath id="clippath-2">
      <rect class="cls-4" x="192.2" y="271.6" width="36.3" height="7.1"/>
    </clipPath>
    <clipPath id="clippath-3">
      <rect class="cls-4" x="192.2" y="271.6" width="36.3" height="7.1"/>
    </clipPath>
    <linearGradient id="Unbenannter_Verlauf_5" data-name="Unbenannter Verlauf 5" x1="148.4" y1="734" x2="274.1" y2="734" gradientTransform="translate(0 -662)" gradientUnits="userSpaceOnUse">
      <stop offset="0" stop-color="#906"/>
      <stop offset=".2" stop-color="#780066"/>
      <stop offset=".4" stop-color="#5a0066"/>
      <stop offset=".6" stop-color="#406"/>
      <stop offset=".8" stop-color="#370066"/>
      <stop offset="1" stop-color="#306"/>
    </linearGradient>
    <clipPath id="clippath-4">
      <rect class="cls-4" x="192.2" y="101.8" width="36.3" height="7.1"/>
    </clipPath>
    <clipPath id="clippath-5">
      <rect class="cls-4" x="192.2" y="101.8" width="36.3" height="7.1"/>
    </clipPath>
  </defs>
  <rect class="cls-12" x="204.6" y="116.4" width="13.2" height="93.2"/>
  <rect class="cls-17" x="269.3" y="242.3" width="105.2" height="13.8"/>
  <path class="cls-2" d="M204,168.6c0-3.8,3.1-6.9,6.9-6.9s6.9,3.1,6.9,6.9"/>
  <path class="cls-2" d="M320.8,242.3c3.8,0,6.9,3.1,6.9,6.9s-3.1,6.9-6.9,6.9"/>
  <path class="cls-15" d="M375.2,211.4h115.7c2.8,0,5,2.2,5,5v65.5c0,2.8-2.2,5-5,5h-115.7c-2.8,0-5-2.2-5-5v-65.5c0-2.8,2.3-5,5-5Z"/>
  <path class="cls-6" d="M388,235.7h89.3c2.8,0,5,2.2,5,5v17.2c0,2.8-2.2,5-5,5h-89.3c-2.8,0-5-2.2-5-5v-17.2c0-2.8,2.3-5,5-5Z"/>
  <g id="Scone_logo_white" data-name="Scone logo white">
    <g class="cls-10">
      <g class="cls-20">
        <g>
          <path class="cls-19" d="M418.8,273.5h-.8c-.2,0-.3.1-.3.3h0v.8c0,.2.1.3.3.3h.8c.2,0,.3-.1.3-.3h0v-.8c0-.2,0-.4-.3-.3q0-.1,0,0M416.2,274.8h.8c.2,0,.3-.1.3-.3h0v-.8c0-.2-.1-.3-.3-.3h-.8c-.2,0-.3.1-.3.3h0v.8c0,.2.2.3.3.3h0M415.4,274.5v-.8c0-.2-.1-.3-.3-.3h-.8c-.2,0-.3.1-.3.3h0v.8c0,.2.1.3.3.3h.8c.2,0,.3,0,.3-.3M418.9,275.3c-.1,0-.2.1-.2.2v.9c0,.1.1.2.2.2s.2-.1.2-.2h0v-.9c.1,0,0-.1-.2-.2q.1,0,0,0M416.8,275.6v.8c0,.2.1.3.3.3h.8c.2,0,.3-.1.3-.3h0v-.8c0-.2-.1-.3-.3-.3h-.8c0,0-.3.2-.3.3h0M416.3,276.4v-.8c0-.2-.1-.3-.3-.3h-.8c-.2,0-.3.1-.3.3h0v.8c0,.2.1.3.3.3h.7c.3,0,.4,0,.4-.3h0M418.9,277.2h-.8c-.2,0-.3.1-.3.3v.8c0,.2.1.3.3.3h.8c.2,0,.3-.1.3-.3v-.8c0-.1-.2-.3-.3-.3M416.9,277.2h-.8c-.2,0-.3.1-.3.3v.8c0,.2.1.3.3.3h.8c.2,0,.3-.1.3-.3v-.8c0-.1-.2-.2-.3-.3"/>
          <path class="cls-19" d="M419.8,273.1c.3.3.8.4,1.2.4h0v2.2c0,.8-1,1.3-1.2,1.4h0v-4h0"/>
          <path class="cls-19" d="M417.5,273c1.6-.1,1.9-.6,1.9-.6h.2s.3.6,1.9.6c0,0,.1,0,.1.1v2.8c0,.9-1.7,1.9-1.7,1.9h-.1v.8h.1c.6-.3,2.3-1.3,2.3-2.5v-3.5c0-.1-.1-.1-.2-.1-2,0-2.4-.8-2.4-.8h-.2s-.3.8-2.4.8-.1,0-.1.1v.5s0,.1.1.1h.5"/>
          <path class="cls-16" d="M423.6,277.5l.8-.3c.4.6,1.1.8,1.7.5.2-.1.3-.3.3-.4,0-.4-.6-.7-1-.9h0c-.3-.1-.7-.3-1-.5s-.5-.6-.5-1,.2-.8.5-1c.3-.3.8-.4,1.2-.4.7,0,1.3.3,1.6.9l-.9.3-.3-.3c-.1-.1-.3-.1-.5-.1-.5,0-.8.3-.8.6s.1.4.3.5c.2.2.5.3.7.4h.1c.6.3,1.4.6,1.4,1.5s-.2.8-.6,1c-.4.3-.9.4-1.3.4-.5-.1-1.2-.5-1.7-1.2"/>
          <path class="cls-16" d="M430.9,278.6c-.3,0-.7-.1-1-.2s-.6-.3-.8-.6c-.2-.2-.4-.5-.6-.8-.3-.6-.3-1.4,0-2,.1-.3.3-.6.6-.8.2-.2.5-.4.8-.6.3-.1.7-.2,1-.2s.8.1,1.2.3c.3.2.7.4.9.7l-.7.5c-.2-.2-.4-.4-.6-.5s-.5-.2-.8-.2c-1,0-1.7.8-1.7,1.7s.2.9.5,1.2c.6.6,1.4.7,2.1.3.3-.2.5-.4.6-.6l.8.4c-.2.4-.5.7-.9,1-.5.3-.9.5-1.4.4"/>
          <path class="cls-16" d="M436.6,278.6c-.3,0-.7-.1-1-.2s-.6-.3-.8-.6c-.2-.2-.4-.5-.5-.8s-.2-.7-.2-1,.1-.7.2-1,.3-.6.5-.8c.2-.2.5-.4.8-.6.6-.3,1.4-.3,2,0,.3.1.6.3.8.6.2.2.4.5.6.8.1.3.2.7.2,1s-.1.7-.2,1-.3.6-.6.8c-.2.2-.5.4-.8.6-.3.2-.7.2-1,.2M436.6,274.3c-.5,0-.9.2-1.2.5-.3.3-.5.8-.5,1.2,0,1,.8,1.7,1.7,1.7s.9-.2,1.2-.5c.3-.3.5-.8.5-1.2s-.2-.9-.5-1.2c-.3-.3-.8-.5-1.2-.5"/>
          <polygon class="cls-16" points="445 273.5 445 278.8 441.4 275.4 441.4 278.6 440.5 278.6 440.5 273.3 444.1 276.6 444.1 273.5 445 273.5"/>
          <polygon class="cls-16" points="447.5 274.3 447.5 275.6 450 275.6 450 276.4 447.5 276.4 447.5 277.8 450.4 277.8 450.4 278.6 446.6 278.6 446.6 273.5 450.4 273.5 450.4 274.3 447.5 274.3"/>
        </g>
      </g>
    </g>
  </g>
  <path class="cls-14" d="M153.4,211.4h115.7c2.8,0,5,2.2,5,5v112.2c0,2.8-2.2,5-5,5h-115.7c-2.8,0-5-2.2-5-5v-112.2c0-2.8,2.3-5,5-5Z"/>
  <path class="cls-6" d="M166.2,235.7h89.3c2.8,0,5,2.2,5,5v17.2c0,2.8-2.2,5-5,5h-89.3c-2.8,0-5-2.2-5-5v-17.2c0-2.8,2.2-5,5-5Z"/>
  <g id="Scone_logo_white-2" data-name="Scone logo white-2">
    <g class="cls-23">
      <g class="cls-22">
        <g>
          <path class="cls-19" d="M197,273.5h-.8c-.2,0-.3.1-.3.3h0v.8c0,.2.1.3.3.3h.8c.2,0,.3-.1.3-.3h0v-.8c0-.2-.1-.3-.3-.3h0M194.4,274.8h.8c.2,0,.3-.1.3-.3h0v-.8c0-.2-.1-.3-.3-.3h-.8c-.2,0-.3.1-.3.3v.8c0,.2.1.3.3.3M193.5,274.5v-.8c0-.2-.1-.3-.3-.3h-.8c-.2,0-.3.1-.3.3h0v.8c0,.2.1.3.3.3h.8c.2,0,.3,0,.3-.3h0M197.1,275.3c-.1,0-.2.1-.2.2v.9c0,.1.1.2.2.2s.2-.1.2-.2h0v-.9s-.1-.1-.2-.2h0M195,275.6v.8c0,.2.1.3.3.3h.8c.2,0,.3-.1.3-.3h0v-.8c0-.2-.1-.3-.3-.3h-.8c-.2,0-.4.2-.3.3h0M194.4,276.4v-.8c0-.2-.1-.3-.3-.3h-.8c-.2,0-.3.1-.3.3v.8c0,.2.1.3.3.3h.8c.2,0,.3,0,.3-.3h0M197,277.2h-.8c-.2,0-.3.1-.3.3v.8c0,.2.1.3.3.3h.8c.2,0,.3-.1.3-.3v-.8c0-.1-.1-.2-.3-.3M195,277.2h-.8c-.2,0-.3.1-.3.3v.8c0,.2.1.3.3.3h.8c.2,0,.3-.1.3-.3v-.8c0-.1-.1-.2-.3-.3"/>
          <path class="cls-19" d="M197.9,273.1c.3.3.8.4,1.2.4h0v2.2c0,.8-1,1.3-1.2,1.4h0v-4h0"/>
          <path class="cls-19" d="M195.6,273c1.6-.1,1.9-.6,1.9-.6h.2s.3.6,1.9.6c0,0,.1,0,.1.1v2.8c0,.9-1.7,1.9-1.7,1.9h-.1v.8h.1c.6-.3,2.3-1.3,2.3-2.5v-3.5c0-.1-.1-.1-.2-.1-2.1,0-2.4-.8-2.4-.8h-.2s-.3.8-2.4.8-.1,0-.1.1v.5s0,.1.1.1h.5"/>
          <path class="cls-16" d="M201.8,277.5l.8-.3c.2.4.6.6,1.1.6s.4,0,.6-.1c.2-.1.3-.3.3-.4,0-.4-.6-.7-1-.9h0c-.3-.1-.7-.3-.9-.5-.3-.2-.5-.6-.5-1s.2-.8.5-1c.3-.3.8-.4,1.2-.4.7,0,1.3.3,1.6.9l-.9.3c-.1-.1-.2-.2-.3-.3-.1-.1-.3-.1-.5-.1-.5,0-.8.3-.8.6s.1.4.3.5c.2.2.5.3.7.4h.1c.6.3,1.4.6,1.4,1.5s-.2.8-.6,1c-.4.3-.9.4-1.3.4-.6-.1-1.4-.5-1.8-1.2"/>
          <path class="cls-16" d="M209.1,278.6c-.3,0-.7-.1-1-.2-.6-.3-1.1-.8-1.4-1.4-.3-.6-.3-1.4,0-2s.8-1.1,1.4-1.4c.3-.1.7-.2,1-.2s.8.1,1.2.3c.3.2.7.4.9.7l-.7.5c-.2-.2-.4-.4-.6-.5-.2-.1-.5-.2-.8-.2-1,0-1.7.8-1.7,1.7s.2.9.5,1.2c.3.3.8.5,1.2.5.6,0,1.2-.3,1.5-.9l.8.4c-.2.4-.5.7-.9,1-.5.4-.9.6-1.4.5"/>
          <path class="cls-16" d="M214.8,278.6c-.3,0-.7-.1-1-.2s-.6-.3-.8-.6c-.2-.2-.4-.5-.6-.8-.1-.3-.2-.7-.2-1s.1-.7.2-1c.1-.3.3-.6.6-.8.5-.5,1.1-.8,1.8-.8s.7.1,1,.2.6.3.8.6c.2.2.4.5.6.8.1.3.2.7.2,1s-.1.7-.2,1c-.1.3-.3.6-.6.8-.2.2-.5.4-.8.6-.4.2-.7.2-1,.2M214.8,274.3c-.5,0-.9.2-1.2.5s-.5.7-.5,1.2c0,1,.8,1.7,1.7,1.7s.9-.2,1.2-.5.5-.8.5-1.2-.2-.9-.5-1.2c-.4-.4-.8-.5-1.2-.5"/>
          <polygon class="cls-16" points="223.2 273.5 223.2 278.8 219.6 275.4 219.6 278.6 218.7 278.6 218.7 273.3 222.3 276.6 222.3 273.5 223.2 273.5"/>
          <polygon class="cls-16" points="225.7 274.3 225.7 275.6 228.2 275.6 228.2 276.4 225.7 276.4 225.7 277.8 228.5 277.8 228.5 278.6 224.8 278.6 224.8 273.5 228.5 273.5 228.5 274.3 225.7 274.3"/>
        </g>
      </g>
    </g>
  </g>
  <path class="cls-13" d="M153.4,27.7h115.7c2.8,0,5,2.2,5,5v78.7c0,2.8-2.2,5-5,5h-115.7c-2.8,0-5-2.2-5-5V32.7c0-2.7,2.3-5,5-5Z"/>
  <path class="cls-6" d="M166.2,47.7h89.3c2.8,0,5,2.2,5,5v32.4c0,2.8-2.2,5-5,5h-89.3c-2.8,0-5-2.2-5-5v-32.4c0-2.8,2.2-5,5-5Z"/>
  <g id="Scone_logo_white-3" data-name="Scone logo white-3">
    <g class="cls-21">
      <g class="cls-24">
        <g>
          <path class="cls-19" d="M197,103.7h-.8c-.2,0-.3,0-.3.3v.8c0,.2.1.3.3.3h.8c.2,0,.3,0,.3-.3v-.8c0-.2-.1-.3-.3-.3M194.4,105h.8c.2,0,.3,0,.3-.3v-.8c0-.2-.1-.3-.3-.3h-.8c-.2,0-.3,0-.3.3v.8c0,.2.1.3.3.3M193.5,104.7v-.8c0-.2-.1-.3-.3-.3h-.8c-.2,0-.3,0-.3.3v.8c0,.2.1.3.3.3h.8c.2,0,.3,0,.3-.3h0M197.1,105.5c-.1,0-.2,0-.2.2v.9c0,0,.1.2.2.2s.2,0,.2-.2v-.9s-.1,0-.2-.2h0M195,105.8v.8c0,.2.1.3.3.3h.7c.2,0,.3,0,.3-.3v-.8c0-.2-.1-.3-.3-.3h-.8c0,0-.3.2-.2.3M194.4,106.6v-.8c0-.2-.1-.3-.3-.3h-.8c-.2,0-.3,0-.3.3v.8c0,.2.1.3.3.3h.8c.2,0,.3,0,.3-.3M197,107.4h-.8c-.2,0-.3,0-.3.3h0v.8c0,.2.1.3.3.3h.8c.2,0,.3,0,.3-.3v-.8c0-.1-.1-.3-.3-.3h0M195,107.4h-.8c-.2,0-.3,0-.3.3h0v.8c0,.2.1.3.3.3h.8c.2,0,.3,0,.3-.3v-.8c0-.1-.1-.3-.3-.3h0"/>
          <path class="cls-19" d="M197.9,103.3c.3.3.8.4,1.2.4h0v2.2c0,.8-1,1.3-1.2,1.4h0v-4h0"/>
          <path class="cls-19" d="M195.6,103.2c1.6,0,1.9-.6,1.9-.6h.2s.3.6,1.9.6c0,0,.1,0,.1,0v2.7c0,.9-1.7,1.9-1.7,1.9,0,0-.1,0-.1,0v.7h.1c.6-.3,2.3-1.3,2.3-2.5v-3.5c0,0-.1,0-.2,0-2.1,0-2.4-.7-2.4-.7h-.2s-.3.8-2.4.8-.1,0-.1,0v.4s0,0,.1,0,.5,0,.5,0"/>
          <path class="cls-16" d="M201.8,107.7l.8-.3c.2.4.6.6,1.1.6s.4,0,.6-.2c.2,0,.3-.3.3-.4,0-.4-.6-.7-1-.9h0c-.3,0-.7-.3-.9-.5-.3-.2-.5-.6-.5-1s.2-.8.5-1c.3-.3.8-.4,1.2-.4.7,0,1.3.3,1.6.9l-.9.3c-.1,0-.2-.2-.3-.3-.1,0-.3,0-.5,0-.5,0-.8.3-.8.6s.1.4.3.5.5.3.7.4h.1c.6.3,1.4.6,1.4,1.4s-.2.8-.6,1c-.4.3-.9.4-1.3.4-.8,0-1.5-.4-1.9-1.1"/>
          <path class="cls-16" d="M209.1,108.8c-.3,0-.7,0-1-.2s-.6-.3-.8-.6c-.2-.2-.4-.5-.6-.8-.3-.6-.3-1.4,0-2,.1-.3.3-.6.6-.8.2-.2.5-.4.8-.6.3,0,.7-.2,1-.2s.8,0,1.2.3c.3.2.7.4.9.7l-.7.5c-.2-.2-.4-.4-.6-.5-.2,0-.5-.2-.8-.2-1,0-1.7.8-1.7,1.7s.8,1.7,1.7,1.7.6,0,.9-.2c.3-.2.5-.4.6-.6l.8.4c-.2.4-.5.7-.9.9-.5.4-.9.6-1.4.5"/>
          <path class="cls-16" d="M214.8,108.8c-.3,0-.7,0-1-.2s-.6-.3-.8-.6c-.2-.2-.4-.5-.6-.8-.1-.3-.2-.7-.2-1s.1-.7.2-1c.1-.3.3-.6.6-.8.2-.2.5-.4.8-.6.3,0,.7-.2,1-.2s.7,0,1,.2.6.3.8.6c.2.2.4.5.6.8.1.3.2.7.2,1s-.1.7-.2,1c-.1.3-.3.6-.6.8-.2.2-.5.4-.8.6-.4.2-.7.2-1,.2M214.8,104.5c-.5,0-.9.2-1.2.5s-.5.8-.5,1.2.2.9.5,1.2c.3.3.8.5,1.2.5s.9-.2,1.2-.5.5-.8.5-1.2-.2-.9-.5-1.2c-.3-.3-.8-.5-1.2-.5"/>
          <polygon class="cls-16" points="223.2 103.7 223.2 109 219.6 105.6 219.6 108.8 218.7 108.8 218.7 103.5 222.3 106.8 222.3 103.7 223.2 103.7"/>
          <polygon class="cls-16" points="225.7 104.5 225.7 105.8 228.2 105.8 228.2 106.6 225.7 106.6 225.7 108 228.5 108 228.5 108.8 224.8 108.8 224.8 103.7 228.5 103.7 228.5 104.5 225.7 104.5"/>
        </g>
      </g>
    </g>
  </g>
  <path class="cls-2" d="M490.9,211.4h-115.7c-2.8,0-5,2.2-5,5v25.9h-96.1v-25.9c0-2.8-2.2-5-5-5h-51.3v-94.9h51.3c2.8,0,5-2.2,5-5V32.7c0-2.8-2.2-5-5-5h-115.7c-2.8,0-5,2.2-5,5v78.7c0,2.8,2.2,5,5,5h50.6v94.9h-50.6c-2.8,0-5,2.2-5,5v112.2c0,2.8,2.2,5,5,5h115.7c2.8,0,5-2.2,5-5v-72.5h96.1v25.9c0,2.8,2.2,5,5,5h115.7c2.8,0,5-2.2,5-5v-65.5c0-2.8-2.2-5-5-5Z"/>
  <path class="cls-9" d="M424.4,199.6c4.6-4.5,12.1-4.5,16.6.2,4.5,4.6,4.5,12.1-.2,16.6-4.6,4.5-12.1,4.5-16.6-.2-2.1-2.2-3.3-5.1-3.4-8.2,0-2.6.8-5.1,2.4-7.1"/>
  <path class="cls-6" d="M432.6,213.6h-4.2c-.6,0-.8-.2-.8-.8v-6.5c0-.6.2-.8.8-.8h8.5c.5,0,.8.2.8.8v6.5c0,.6-.2.8-.8.8-1.5,0-2.9,0-4.3,0Z"/>
  <path class="cls-6" d="M428.3,205c0-1.8,1-3.4,2.6-4.1,2.1-.9,4.6,0,5.5,2.1.1.2.2.5.2.7.1.4.1.8.2,1.2"/>
  <path class="cls-11" d="M431.9,210.9h0v.9c0,.2.1.2.3.2h.8c.2,0,.3-.1.3-.3v-1.6c0-.2.1-.3.2-.4.5-.3.8-.9.6-1.4-.2-.6-.8-1-1.4-1-.7-.1-1.3.3-1.6.9-.2.6,0,1.2.5,1.5.2.1.3.3.3.5,0,.2,0,.4,0,.7Z"/>
  <path class="cls-9" d="M202.6,199.6c4.6-4.5,12.1-4.4,16.6.2,4.5,4.6,4.4,12.1-.2,16.6-4.6,4.5-12.1,4.4-16.6-.2-2.1-2.2-3.3-5.1-3.3-8.2s.8-5.1,2.4-7.1"/>
  <path class="cls-6" d="M210.8,213.6h-4.2c-.6,0-.8-.2-.8-.8v-6.5c0-.6.2-.8.8-.8h8.4c.6,0,.8.2.8.8v6.5c0,.6-.2.8-.8.8-1.4,0-2.8,0-4.2,0Z"/>
  <path class="cls-6" d="M206.4,205c0-1.8,1-3.4,2.6-4.1,2.1-.9,4.6,0,5.5,2.2.1.2.2.5.2.7.1.4.1.8.2,1.2"/>
  <path class="cls-11" d="M210.1,210.9h0v.9c0,.2.1.2.3.2h.8c.2,0,.3-.1.3-.3v-1.6c0-.2.1-.3.2-.4.5-.3.8-.9.6-1.4-.2-.6-.8-1-1.4-1-.7-.1-1.3.3-1.6.9-.2.6,0,1.2.6,1.5.2.1.3.3.3.5-.1.2-.1.4-.1.7Z"/>
  <path class="cls-9" d="M202.6,16.6c4.6-4.5,12.1-4.4,16.6.2s4.4,12.1-.2,16.6-12.1,4.4-16.6-.2c-2.1-2.2-3.3-5.2-3.3-8.2s.8-5.1,2.4-7.1"/>
  <path class="cls-6" d="M210.8,30.7h-4.2c-.6,0-.8-.2-.8-.8v-6.5c0-.6.2-.8.8-.8h8.4c.6,0,.8.2.8.8v6.5c0,.5-.2.8-.8.8h-4.2Z"/>
  <path class="cls-6" d="M206.4,22c0-1.8,1-3.4,2.6-4.1,2.1-.9,4.6,0,5.5,2.1.1.2.2.5.2.7.1.4.1.8.2,1.2"/>
  <path class="cls-11" d="M210.1,27.9h0v.9c0,.2.1.2.3.2h.8c.2,0,.3-.1.3-.3v-1.6c0-.2.1-.3.2-.4.5-.3.8-.9.6-1.4-.2-.6-.8-1-1.4-1-.7-.1-1.3.3-1.6.9-.2.6,0,1.2.6,1.5.2.1.3.3.3.5-.1.2-.1.5-.1.7Z"/>
  <line class="cls-2" x1="268.9" y1="249.3" x2="269.9" y2="249.3"/>
  <line class="cls-7" x1="271.9" y1="249.3" x2="372.6" y2="249.3"/>
  <line class="cls-2" x1="373.7" y1="249.3" x2="374.7" y2="249.3"/>
  <polygon class="cls-11" points="271.5 252.6 272.1 252 269.2 249.3 272.1 246.6 271.5 246 268 249.3 271.5 252.6"/>
  <polygon class="cls-11" points="372 252.6 371.5 252 374.4 249.3 371.5 246.6 372 246 375.5 249.3 372 252.6"/>
  <line class="cls-2" x1="211" y1="115.8" x2="211" y2="116.8"/>
  <line class="cls-5" x1="211" y1="118.7" x2="211" y2="184"/>
  <line class="cls-2" x1="211" y1="184.9" x2="211" y2="185.9"/>
  <polygon class="cls-11" points="207.8 183.3 208.3 182.7 211 185.6 213.7 182.7 214.3 183.3 211 186.8 207.8 183.3"/>
  <g class="cls-25">
    <path class="cls-18" d="M103.2,223.1c-.3.2-.6.4-1,.5s-.8.2-1.1.2c-.6,0-1.1-.2-1.4-.6-.3-.4-.5-.9-.5-1.5s0-1.2.3-1.8c.2-.5.4-1,.7-1.3.3-.4.6-.6,1-.8s.8-.3,1.2-.3.5,0,.8.1c.2.1.4.2.5.3s.2.3.3.5,0,.4,0,.5c0,.6-.3,1-.8,1.3-.6.3-1.4.5-2.4.5h-.6c0,.2,0,.3,0,.4v.4c0,.4,0,.8.3,1.1.2.3.5.4.9.4s.7-.1,1-.2c.3-.1.5-.2.7-.4v.7ZM102.2,218.3c-.4,0-.8.2-1.1.5-.3.3-.6.8-.7,1.3h.9c.3,0,.6-.1.9-.1.3-.1.5-.2.7-.3s.3-.4.3-.6v-.2c0-.1,0-.2,0-.2,0-.1-.2-.1-.3-.2-.3-.1-.4-.2-.6-.2Z"/>
    <path class="cls-18" d="M108.1,223.7l.8-3.8c0-.1,0-.3,0-.4v-.4c0-.2,0-.4-.2-.6,0-.1-.3-.2-.6-.2s-.4,0-.6.1-.4.2-.6.4c-.2.1-.3.3-.5.5,0,.2-.3.4-.4.5l-.8,3.8h-.9l1.3-6h.6v1h0c0-.1.2-.3.4-.4,0-.1.3-.3.5-.4s.4-.2.6-.3.5-.1.7-.1c.4,0,.7.1.9.3.2.2.3.5.3,1s0,.5,0,.9l-.9,4h-.6Z"/>
    <path class="cls-18" d="M114.8,223.2c0,.1-.3.2-.4.3-.2.1-.3.1-.5.2s-.3.1-.5.1h-.5c-.4,0-.7-.1-1-.2s-.5-.3-.6-.5l-.3-.6c0-.2,0-.4,0-.6,0-.7,0-1.3.3-1.8s.4-1,.7-1.4c.3-.4.7-.7,1.1-.9s.8-.3,1.2-.3.6,0,.8.1c.2.1.4.1.5.2l-.3.7c0-.1-.3-.1-.5-.2-.2,0-.4-.1-.6-.1-.3,0-.5.1-.8.3s-.5.4-.7.7-.4.6-.5,1-.2.8-.2,1.2,0,.9.3,1.2c.2.2.5.4.9.4s.5-.1.8-.2c.3-.1.5-.2.6-.3l.3.7Z"/>
    <path class="cls-18" d="M117,222.3v.3c0,.2,0,.3,0,.3q0,.1.2.1h.4c0,0,.2-.1.4-.1v.7c0,0-.2.1-.3.1s-.2,0-.3.1h-.6c-.3,0-.5-.1-.7-.2s-.3-.4-.3-.7,0-.4,0-.6l1.5-7h.9l-1.4,7Z"/>
    <path class="cls-18" d="M123.6,221.3c0,.3,0,.6,0,.9v1.5h-.7l-.2-1h0c0,.1-.2.3-.4.4,0,.1-.3.3-.5.4-.2.1-.3.2-.5.3s-.4.1-.6.1c-1,0-1.4-.6-1.4-1.9s0-1,.2-1.6c0-.5.3-1,.6-1.4s.6-.8,1.1-1c.4-.3,1-.4,1.6-.4s.5,0,.8.1.6.1.9.2l-.8,3.4ZM120.9,223.1c.2,0,.4,0,.6-.1s.3-.2.5-.3.3-.3.4-.4.2-.3.3-.4l.7-3.2c-.2-.1-.5-.2-.9-.2s-.7.1-1,.3-.5.5-.7.8-.3.7-.4,1.2c0,.4,0,.9,0,1.3s0,.6.2.8c0,0,.2.2.4.2Z"/>
  </g>
  <g class="cls-25">
    <path class="cls-18" d="M126.8,221.2v1.1h0l.5-1.2,2-3.5h1l-3.7,6.1h-.4l-1.2-6.1h1l.7,3.6Z"/>
  </g>
  <g class="cls-25">
    <path class="cls-18" d="M134.3,223.1c-.3.2-.6.4-1,.5s-.8.2-1.1.2c-.6,0-1.1-.2-1.4-.6-.3-.4-.5-.9-.5-1.5s.1-1.2.3-1.8c.2-.5.4-1,.7-1.3.3-.4.6-.6,1-.8s.8-.3,1.2-.3.5,0,.8.1c.2.1.4.2.5.3s.2.3.3.5.1.4.1.5c0,.6-.3,1-.8,1.3-.6.3-1.4.5-2.4.5h-.6c0,.2-.1.3-.1.4v.4c0,.4.1.8.3,1.1s.5.4.9.4.7-.1,1-.2c.3-.1.5-.2.7-.4v.7ZM133.3,218.3c-.4,0-.8.2-1.1.5s-.6.8-.7,1.3h.9c.3,0,.6-.1.9-.1.3-.1.5-.2.7-.3s.3-.4.3-.6v-.2c0-.1-.1-.2-.1-.2-.1-.1-.2-.1-.3-.2-.3-.1-.4-.2-.6-.2Z"/>
  </g>
  <line class="cls-6" x1="190.2" y1="287.1" x2="170.2" y2="351.1"/>
  <polygon class="cls-11" points="183.3 289.8 184 291 190 287.6 193 293.8 194.3 293.2 190.6 285.6 183.3 289.8"/>
  <polygon class="cls-11" points="166.1 345 167.4 344.4 170.4 350.6 176.4 347.2 177.1 348.4 169.8 352.6 166.1 345"/>
  <line class="cls-6" x1="235.8" y1="287.1" x2="255.8" y2="351.1"/>
  <polygon class="cls-11" points="231.7 293.2 233 293.8 236 287.6 242 291 242.7 289.8 235.4 285.6 231.7 293.2"/>
  <polygon class="cls-11" points="248.9 348.4 249.6 347.2 255.6 350.6 258.6 344.4 259.9 345 256.2 352.6 248.9 348.4"/>
  <path class="cls-9" d="M196,305.5c-3.4-7.8-12.5-11.5-20.3-8.1s-11.5,12.5-8.1,20.3,12.5,11.5,20.3,8.1c7.9-3.4,11.5-12.5,8.1-20.3h0ZM186.7,322.9c-6.3,2.7-13.5-.2-16.2-6.4s.2-13.5,6.4-16.2c6.3-2.7,13.5.2,16.2,6.4,2.7,6.3-.2,13.5-6.4,16.2h0Z"/>
  <circle class="cls-9" cx="181.8" cy="311.6" r="12.3"/>
  <path class="cls-3" d="M191.2,319.4c-.1-.2-.3-.4-.5-.6-.8-.5-1.8-.3-2.4.4-.5.8-.3,1.8.4,2.3"/>
  <path class="cls-3" d="M193,316.8c0-.1-.1-.2-.2-.3-.1,0-.1-.1-.2-.1q-.6-.4-1,.1c-.3.3-.5.4-.8.2h-.2c-.5,0-.7-.3-.8-.7,0-.2-.2-.4-.3-.4-.4,0-.7.1-1.1.1v.9c0,.2-.1.3-.3.5s-.1.1-.2.1c-.3.3-.8.4-1.2.1h-.1c-.1-.3-.4-.3-.5-.1h-.1c0,.2-.1.2-.1.3q-.4.6.1,1c.3.1.4.5.2.7h0c0,.1-.1.2-.1.2.1.5-.3.7-.7.8s-.5.3-.4.7,0,.8.7.7c.2,0,.5,0,.7.1.2.3.4.6.6.9"/>
  <path class="cls-3" d="M183,312.2c.9-1.3.6-3.1-.6-4s-3.1-.6-4,.6c-.9,1.3-.6,3.1.6,4,1.2,1,3,.7,4-.6h0Z"/>
  <path class="cls-3" d="M188.2,310.5c-.4.1-.7.2-1.1.3-.2,0-.3.1-.4.4-.1.5-.2,1-.3,1.5,0,.2,0,.3.1.5.3.3.6.6.9.8.2.2.3.5.1.7h0l-.7,1c-.1.2-.4.3-.6.2,0,0-.1,0-.1-.1-.3-.2-.6-.4-1-.6s-.3-.1-.5,0c-.5.3-.9.5-1.4.8-.1.1-.2.2-.2.4v1.1c0,.3-.1.6-.5.6s-.7.1-1.1.2c-.4.1-.6-.1-.7-.4,0-.1-.1-.3-.1-.4-.1-.7-.4-1-1.2-1.2-.8-.4-1.8,0-2.2.8-.2.3-.5.3-.8.1s-.6-.5-.9-.7c-.3-.1-.4-.5-.2-.7,0,0,0-.1.1-.1.2-.3.4-.6.6-.9.2-.2.2-.4,0-.6h0c-.2-.3-.4-.5-.6-.9-.2-.6-.6-.8-1.3-.7-1.2.2-1.1,0-1.3-1s-.2-1.1.9-1.4c.6-.1.9-.4,1-1,0-.5.4-1,.3-1.3s-.7-.7-1-1c-.2-.1-.3-.4-.1-.6h0c0-.1.7-1.1.7-1.1.1-.2.4-.4.6-.3,0,0,.1,0,.1.1.1.1.3.2.4.3.5.4,1.1.5,1.6-.1q.1-.1.2-.2c.9-.2.9-.8.9-1.5s-.1-.9.8-1c1.4-.2,1.3-.4,1.6,1,.1.5.3.8.8.8s.4,0,.6.1c.5.3,1.2.2,1.5-.3,0,0,0-.1.1-.1.7-1,.8-.7,1.5-.1,1,.7,1,.6.4,1.6s-.5.9,0,1.4c.3.3.4,1,.8,1.2s.9,0,1.4,0,.4.2.5.3c.1.5.2.9.3,1.4v.3c-.2.3-.3.3-.5.4Z"/>
  <path class="cls-9" d="M249.1,297.4c-7.8-3.4-16.9.2-20.3,8.1-3.4,7.8.2,16.9,8.1,20.3,7.8,3.4,16.9-.2,20.3-8.1,3.4-7.8-.2-16.9-8.1-20.3h0ZM254.3,316.5c-2.7,6.3-9.9,9.1-16.2,6.4s-9.1-9.9-6.4-16.2c2.7-6.3,9.9-9.1,16.2-6.4h0c6.2,2.7,9.1,9.9,6.4,16.2h0Z"/>
  <circle class="cls-9" cx="243" cy="311.6" r="12.3"/>
  <path class="cls-3" d="M252.4,303.8c-.1.2-.3.4-.5.6-.8.5-1.8.3-2.4-.4-.5-.8-.3-1.8.4-2.3"/>
  <path class="cls-3" d="M254.2,306.4c0,.1-.1.2-.2.3-.1,0-.1.1-.2.1q-.5.4-1-.1c-.3-.3-.5-.4-.8-.2h-.2c-.5,0-.7.3-.8.7,0,.2-.2.4-.3.4-.4,0-.7-.1-1.1-.1v-.9c0-.2-.1-.3-.3-.5q-.1-.1-.2-.1c-.3-.3-.8-.4-1.2-.1h-.1c-.1.2-.4.3-.5.1,0,0-.1-.1-.1-.2s-.1-.1-.1-.2c-.4-.5-.4-.6.1-1,.3-.1.4-.5.2-.7h0c0-.1-.1-.2-.1-.2.1-.5-.3-.7-.7-.8s-.5-.3-.4-.8,0-.8.7-.7c.2,0,.5.1.6,0,.2-.3.4-.6.6-.9"/>
  <path class="cls-3" d="M244.3,311c.9,1.3.6,3.1-.6,4s-3.1.6-4-.6c-.9-1.3-.6-3.1.6-4,1.2-1,3-.7,4,.6q-.1,0,0,0Z"/>
  <path class="cls-3" d="M249.4,312.7c-.4-.1-.7-.2-1.1-.3-.2,0-.3-.1-.4-.4-.1-.5-.2-1-.3-1.5,0-.2,0-.3.1-.5.3-.3.6-.6.9-.8.2-.2.3-.5.1-.7h0l-.7-1c-.2-.3-.4-.3-.7-.1-.3.2-.6.4-1,.5-.2.1-.3.1-.5,0-.5-.3-.9-.5-1.4-.8-.1-.1-.2-.2-.2-.4,0-.4,0-.8.1-1.1s-.1-.6-.5-.6-.7-.1-1.1-.2c-.4-.1-.6.1-.7.4,0,.1-.1.3-.1.4-.1.7-.4,1-1.2,1.2-.8.4-1.8,0-2.2-.8-.2-.3-.5-.3-.8-.1s-.6.5-.9.7c-.3.1-.4.4-.2.7,0,0,0,.1.1.1.2.3.4.6.6.9s.2.4,0,.6c-.2.3-.4.5-.6.8-.2.6-.6.8-1.3.7-1.2-.2-1.1,0-1.3,1s-.2,1.1.9,1.4c.6.1.9.3,1,1,0,.5.4,1,.3,1.3s-.7.7-1,1c-.2.1-.3.4-.1.6,0,0,0,.1.1.1l.7,1c.1.2.4.4.6.3,0,0,.1,0,.1-.1.1-.1.3-.2.4-.3.6-.4,1.1-.5,1.6.1q.1.1.2.2c.9.2.9.8.9,1.5s0,.9.8,1c1.4.2,1.3.4,1.6-1,.1-.5.3-.8.8-.8s.4,0,.6-.1c.5-.3,1.2-.2,1.5.3,0,0,0,.1.1.1.7,1,.8.7,1.5.1,1-.7,1-.6.4-1.6s-.5-.9,0-1.4c.3-.3.4-1,.8-1.2s.9,0,1.4,0,.4-.1.5-.3c.1-.5.2-.9.3-1.4v-.3c-.3-.1-.5-.2-.7-.2Z"/>
  <g class="cls-25">
    <path class="cls-18" d="M234.3,150.8l.3,1.3h0l.3-1.3,2-5.7h1l-3.2,8.5h-.4l-3.2-8.5h1.1l2.1,5.7Z"/>
  </g>
  <g class="cls-25">
    <path class="cls-18" d="M238.2,147.9c.3-.2.7-.3,1.1-.4.4-.1.8-.1,1.3-.1s.8.1,1,.2c.3.1.4.3.6.4.1.2.2.4.3.6,0,.2.1.4.1.6v3.5c0,.2.1.5.1.7h-.7l-.3-.8h-.1l-.3.3c-.1.1-.2.2-.4.3s-.3.2-.5.2c-.2.1-.4.1-.7.1s-.5,0-.7-.1-.4-.2-.6-.3c-.2-.1-.3-.3-.4-.5-.1-.2-.1-.4-.1-.7s.1-.6.2-.9c.1-.2.3-.4.6-.6.3-.1.6-.2.9-.3.4-.1.8-.1,1.2-.1h.6v-.6c0-.4-.1-.7-.3-.9s-.5-.3-1-.3h-.4c-.2,0-.3,0-.5.1s-.3.1-.5.1-.3.1-.4.2v-.7ZM239.9,152.7c.2,0,.4,0,.6-.1.2-.1.3-.1.5-.2l.3-.3c.1-.1.1-.2.2-.3v-1h-1.3c-.2,0-.4.1-.6.2-.2.1-.3.2-.4.3s-.2.3-.2.5c0,.3.1.5.3.7,0,.1.3.2.6.2Z"/>
    <path class="cls-18" d="M247,148.4c-.2-.1-.5-.1-.7-.1-.3,0-.6.1-.8.3s-.3.4-.4.7v4.2h-1v-6h.7l.2.7h0c.2-.3.3-.5.5-.6s.5-.2.8-.2.5,0,.8.1v.9Z"/>
    <path class="cls-18" d="M248.3,145.6c0-.2.1-.3.2-.5s.3-.2.5-.2.4.1.5.2c.1.1.2.3.2.5s-.1.3-.2.5c-.1.1-.3.2-.5.2s-.4-.1-.5-.2-.2-.3-.2-.5ZM248.5,147.5h1v6h-1v-6Z"/>
    <path class="cls-18" d="M251.4,147.9c.3-.2.7-.3,1.1-.4s.8-.1,1.3-.1.8.1,1,.2c.3.1.4.3.6.4.1.2.2.4.3.6,0,.2.1.4.1.6v3.5c0,.3.1.5.1.7h-.9l-.3-.8h-.1l-.3.3c-.1.1-.2.2-.4.3s-.3.2-.5.2c-.2.1-.4.1-.7.1s-.5,0-.7-.1-.4-.2-.6-.3c-.2-.1-.3-.3-.4-.5-.1-.2-.1-.4-.1-.7s.1-.6.2-.9c.1-.2.3-.4.6-.6.3-.1.6-.2.9-.3.4-.1.8-.1,1.2-.1h.6v-.6c0-.4-.1-.7-.3-.9s-.5-.3-1-.3h-.4c-.2,0-.3,0-.5.1s-.3.1-.5.1c-.1.1-.3.1-.4.2v-.7ZM253.1,152.7c.2,0,.4,0,.6-.1s.3-.1.5-.2l.3-.3c.1-.1.1-.2.2-.3v-1h-1.3c-.2,0-.4.1-.6.2s-.3.2-.4.3c-.1.1-.2.3-.2.5,0,.3.1.5.3.7,0,.1.3.2.6.2ZM253.4,144.8h1.1v.3l-1.2,1.5h-.6l.7-1.8Z"/>
  </g>
  <g class="cls-25">
    <path class="cls-18" d="M259.2,151l.3,1.1h0l.3-1.2,1.3-3.5h1l-2.6,6.1h-.4l-2.6-6.1h1.1l1.6,3.6Z"/>
  </g>
  <g class="cls-25">
    <path class="cls-18" d="M267.5,153c-.2.2-.5.3-.9.5-.4.1-.8.2-1.2.2s-.9-.1-1.2-.2c-.3-.1-.6-.4-.8-.6-.2-.3-.4-.6-.5-1s-.2-.8-.2-1.3c0-1,.2-1.8.7-2.3s1.1-.8,2-.8.5,0,.8.1.5.2.7.3c.2.2.4.4.5.7s.2.7.2,1.2,0,.6-.1.9h-3.9c0,.4,0,.7.1.9.1.3.2.5.3.7.2.2.4.3.6.4.2.1.5.1.9.1s.5,0,.8-.1.5-.2.6-.3l.6.6ZM265.4,148.2c-.5,0-.9.1-1.1.4s-.5.7-.5,1.3h3c0-.6-.1-1-.3-1.3-.3-.3-.6-.4-1.1-.4Z"/>
    <path class="cls-18" d="M269.2,145.6c0-.2.1-.3.2-.5s.3-.2.5-.2.4.1.5.2c.1.1.2.3.2.5s-.1.3-.2.5c-.1.1-.3.2-.5.2s-.4-.1-.5-.2-.2-.3-.2-.5ZM269.4,147.5h1v6h-1v-6Z"/>
    <path class="cls-18" d="M275.1,151.8c0-.2-.1-.4-.2-.6-.1-.1-.3-.3-.5-.3s-.4-.2-.7-.3-.5-.2-.7-.3-.4-.3-.5-.5-.2-.5-.2-.8c0-.6.2-1,.5-1.3s.8-.4,1.4-.4.8,0,1.1.1c.3.1.5.2.8.3l-.2.8c-.2-.1-.4-.2-.7-.2-.3-.1-.5-.1-.8-.1s-.6.1-.8.2-.2.3-.2.6.1.4.2.5.3.2.5.3.4.2.7.3.5.2.7.3.4.3.5.5.2.5.2.9,0,.5-.1.7-.2.4-.4.6c-.2.2-.4.3-.7.4-.3.1-.6.1-.9.1-.5,0-.8,0-1.2-.1-.3-.1-.6-.2-.8-.3l.3-.8c.2.1.4.2.7.3s.6.1.9.1.6-.1.9-.2c.1-.2.2-.4.2-.8Z"/>
    <path class="cls-18" d="M285.3,151.4v1.1c0,.3,0,.7.1,1h-.6l-.2-.9h0c-.2.3-.4.5-.7.7-.3.2-.7.3-1.1.3-.8,0-1.4-.3-1.8-.8s-.6-1.3-.6-2.4.2-1.8.7-2.3,1.1-.8,2-.8h.7c.2,0,.4.1.6.2v-2.5h1v6.4h-.1ZM282.9,152.8c.4,0,.7-.1,1-.3s.4-.5.5-1v-3c-.1-.1-.3-.2-.5-.2s-.4-.1-.7-.1c-.6,0-1,.2-1.3.5-.3.4-.5.9-.5,1.7s0,.6.1.9c.1.3.1.5.3.7s.3.4.5.5c0,.2.3.3.6.3Z"/>
    <path class="cls-18" d="M291.5,153c-.2.2-.5.3-.9.5-.4.1-.8.2-1.2.2s-.9-.1-1.2-.2c-.3-.1-.6-.4-.8-.6-.2-.3-.4-.6-.5-1s-.2-.8-.2-1.3c0-1,.2-1.8.7-2.3s1.1-.8,2-.8.5,0,.8.1.5.2.7.3c.2.2.4.4.5.7s.2.7.2,1.2,0,.6-.1.9h-3.9c0,.4,0,.7.1.9.1.3.2.5.3.7.2.2.3.3.6.4.2.1.5.1.9.1s.5,0,.8-.1.5-.2.6-.3l.6.6ZM289.5,148.2c-.5,0-.9.1-1.1.4-.3.2-.5.7-.5,1.3h3c0-.6-.1-1-.3-1.3-.4-.3-.7-.4-1.1-.4Z"/>
    <path class="cls-18" d="M296.3,147.9c.3-.2.7-.3,1.1-.4.4-.1.8-.1,1.3-.1s.8.1,1,.2.4.3.6.4c.1.2.2.4.3.6,0,.2.1.4.1.6v3.5c0,.3.1.5.1.7h-.8l-.3-.8h-.1c-.1.1-.2.2-.3.3-.1.1-.2.2-.4.3-.2.1-.3.2-.5.2-.2.1-.4.1-.7.1s-.5,0-.7-.1l-.6-.3c-.2-.1-.3-.3-.4-.5s-.1-.4-.1-.7.1-.6.2-.9c.1-.2.3-.4.6-.6.3-.1.6-.2.9-.3.4-.1.8-.1,1.2-.1h.6v-.6c0-.4-.1-.7-.3-.9-.2-.2-.5-.3-1-.3h-.4c-.2,0-.3,0-.5.1-.2,0-.3.1-.5.1-.1.1-.3.1-.4.2v-.7ZM298,152.7c.2,0,.4,0,.6-.1s.3-.1.5-.2c.1-.1.2-.2.3-.3.1-.1.1-.2.2-.3v-1h-1.3c-.2,0-.4.1-.6.2-.2.1-.3.2-.4.3s-.2.3-.2.5c0,.3.1.5.3.7.1.1.3.2.6.2Z"/>
    <path class="cls-18" d="M305.9,153.5v-4.2c0-.2-.1-.4-.2-.6-.1-.2-.2-.3-.3-.4-.1-.1-.3-.1-.6-.1s-.7.1-.9.3-.4.5-.5.8v4.1h-1v-6h.7l.2.7h0c.2-.3.5-.5.8-.6.3-.2.7-.2,1.1-.2s.7.1.9.2.4.4.6.8c.2-.3.4-.6.8-.7s.7-.3,1.1-.3.6,0,.9.1c.2.1.4.2.6.4s.3.5.3.8c.1.3.1.7.1,1.2v3.6h-1v-4.4c0-.3-.1-.4-.2-.5s-.2-.2-.3-.3c-.1-.1-.3-.1-.6-.1s-.7.1-.9.3-.4.5-.5,1v4h-1.1Z"/>
    <path class="cls-18" d="M312.1,145.1h1v3h0c.2-.2.4-.4.7-.5s.6-.2.9-.2c.8,0,1.4.2,1.7.7.4.5.6,1.3.6,2.3s-.3,1.8-.8,2.4-1.2.8-2.2.8-.9,0-1.2-.1-.6-.2-.8-.3v-8.1h0ZM314.6,148.2c-.4,0-.7.1-1,.3s-.4.5-.5.9v3c.2.1.3.2.6.2s.4.1.7.1c.5,0,1-.2,1.3-.6.3-.4.5-1,.5-1.8s0-.6-.1-.9c-.1-.3-.1-.5-.3-.7-.1-.2-.3-.3-.5-.5h-.7Z"/>
    <path class="cls-18" d="M318.6,145.6c0-.2.1-.3.2-.5s.3-.2.5-.2.4.1.5.2c.1.1.2.3.2.5s-.1.3-.2.5c-.1.1-.3.2-.5.2s-.3-.1-.5-.2-.2-.3-.2-.5ZM318.8,147.5h1v6h-1v-6Z"/>
    <path class="cls-18" d="M326.2,153c-.2.2-.5.3-.9.5-.4.1-.8.2-1.2.2s-.9-.1-1.2-.2c-.3-.1-.6-.4-.8-.6-.2-.3-.4-.6-.5-1s-.2-.8-.2-1.3c0-1,.2-1.8.7-2.3s1.1-.8,2-.8.5,0,.8.1.5.2.7.3c.2.2.4.4.5.7s.2.7.2,1.2,0,.6-.1.9h-3.9c0,.4,0,.7.1.9.1.3.2.5.3.7.2.2.3.3.6.4.2.1.5.1.9.1s.5,0,.8-.1.5-.2.6-.3l.6.6ZM324.1,148.2c-.5,0-.9.1-1.1.4-.3.2-.5.7-.5,1.3h3c0-.6-.1-1-.3-1.3-.3-.3-.6-.4-1.1-.4Z"/>
    <path class="cls-18" d="M331.8,153.5v-3.5c0-.6-.1-1.1-.3-1.4-.2-.3-.5-.5-1-.5s-.8.1-1,.3c-.3.2-.5.5-.6.9v4.1h-1v-6h.7l.2.7h0c.2-.3.5-.5.8-.6.3-.2.7-.2,1.2-.2s.6,0,.9.1c.2.1.5.2.6.4s.3.5.4.8.1.7.1,1.2v3.6h-1Z"/>
  </g>
  <g class="cls-25">
    <path class="cls-18" d="M333.7,147.5h.9v-1.2l1-.3v1.5h1.6v.8h-1.6v3.3c0,.4.1.7.2.9s.3.3.5.3.4,0,.5-.1.3-.1.5-.2l.2.7c-.2.1-.5.2-.7.3-.3.1-.5.1-.8.1-.5,0-.8-.1-1-.4-.2-.3-.3-.7-.3-1.4v-3.5h-.9v-.8h-.1Z"/>
  </g>
  <g class="cls-25">
    <path class="cls-18" d="M342.8,153c-.2.2-.5.3-.9.5-.4.1-.8.2-1.2.2s-.9-.1-1.2-.2c-.3-.1-.6-.4-.8-.6-.2-.3-.4-.6-.5-1s-.2-.8-.2-1.3c0-1,.2-1.8.7-2.3s1.1-.8,2-.8.5,0,.8.1.5.2.7.3c.2.2.4.4.5.7s.2.7.2,1.2,0,.6-.1.9h-3.9c0,.4,0,.7.1.9.1.3.2.5.3.7.2.2.4.3.6.4.2.1.5.1.9.1s.5,0,.8-.1.5-.2.6-.3l.6.6ZM340.7,148.2c-.5,0-.9.1-1.1.4-.3.2-.5.7-.5,1.3h3c0-.6-.1-1-.3-1.3-.3-.3-.6-.4-1.1-.4Z"/>
  </g>
  <g class="cls-25">
    <path class="cls-18" d="M236.1,165.5h-3.1l-.8,2.3h-1l3.2-8.5h.5l3.2,8.5h-1.1l-.9-2.3ZM233.4,164.7h2.5l-.9-2.6-.3-1.3h0l-.3,1.3-1,2.6Z"/>
    <path class="cls-18" d="M241.9,162.8c-.2-.1-.5-.1-.7-.1-.3,0-.6.1-.8.3s-.3.4-.4.7v4.2h-1v-6h.7l.2.7h0c.2-.3.3-.5.5-.6s.5-.2.8-.2.5,0,.8.1v.9Z"/>
    <path class="cls-18" d="M247.7,168.1c0,.8-.2,1.3-.6,1.7s-1,.6-1.8.6-.9,0-1.2-.1-.5-.1-.8-.2l.3-.8c.2.1.4.1.6.2.2.1.5.1.9.1s.6,0,.8-.1.4-.2.5-.3.2-.3.3-.5c0-.2.1-.5.1-.8v-.6h0c-.2.2-.4.4-.6.5-.2.1-.6.2-1,.2-.8,0-1.4-.3-1.8-.8-.4-.5-.6-1.3-.6-2.4s.2-1.8.7-2.3,1.2-.8,2.2-.8.8,0,1.2.1c.3.1.6.2.9.3v6h0ZM245.3,167.2c.4,0,.7-.1,1-.3s.4-.5.5-1v-3.1c-.3-.2-.7-.2-1.2-.2s-1,.2-1.3.6c-.3.4-.5.9-.5,1.7s0,.6.1.9c.1.3.1.5.3.7.1.2.3.4.5.5s.3.2.6.2Z"/>
    <path class="cls-18" d="M250.5,161.9v3.4c0,.3,0,.6.1.8,0,.2.1.4.2.6s.2.3.4.4c.2.1.3.1.6.1s.4,0,.6-.1.3-.2.5-.3c.1-.1.2-.3.3-.4.1-.2.2-.3.2-.5v-4h1v5.2c0,.3.1.6.1.8h-.7l-.2-.9h-.1c-.2.3-.4.6-.7.8s-.7.3-1.2.3-.6,0-.8-.1-.4-.2-.6-.4c-.2-.2-.3-.5-.4-.8-.1-.3-.1-.7-.1-1.2v-3.6h.8Z"/>
    <path class="cls-18" d="M259.6,167.9v-4.2c0-.2-.1-.4-.2-.6-.1-.2-.2-.3-.3-.4-.1-.1-.3-.1-.6-.1s-.7.1-.9.3-.4.5-.5.8v4.1h-1v-6h.7l.2.7h0c.2-.3.5-.5.8-.6.3-.2.7-.2,1.1-.2s.7.1.9.2.4.4.6.8c.2-.3.4-.6.8-.7s.7-.3,1.1-.3.6,0,.9.1c.2.1.4.2.6.4s.3.5.3.8c.1.3.1.7.1,1.2v3.6h-1v-4.4c0-.3-.1-.4-.2-.5s-.2-.2-.3-.3c-.1-.1-.3-.1-.6-.1s-.7.1-.9.3-.4.5-.5,1v4h-1.1Z"/>
    <path class="cls-18" d="M270.2,167.4c-.2.2-.5.3-.9.5-.4.1-.8.2-1.2.2s-.9-.1-1.2-.2c-.3-.1-.6-.4-.8-.6-.2-.3-.4-.6-.5-1s-.2-.8-.2-1.3c0-1,.2-1.8.7-2.3s1.1-.8,2-.8.5,0,.8.1.5.2.7.3c.2.2.4.4.5.7s.2.7.2,1.2,0,.6-.1.9h-3.9c0,.4,0,.7.1.9.1.3.2.5.3.7.2.2.3.3.6.4.2.1.5.1.9.1s.5,0,.8-.1.5-.2.6-.3l.6.6ZM268.1,162.6c-.5,0-.9.1-1.1.4-.3.2-.5.7-.5,1.3h3c0-.6-.1-1-.3-1.3-.3-.3-.7-.4-1.1-.4Z"/>
    <path class="cls-18" d="M275.7,167.9v-3.4c0-.6-.1-1.1-.3-1.4-.2-.3-.5-.5-1-.5s-.8.1-1,.3c-.3.2-.5.5-.6.9v4.1h-1v-6h.7l.2.7h0c.2-.3.5-.5.8-.6.3-.2.7-.2,1.2-.2s.6,0,.9.1c.2.1.5.2.6.4s.3.5.4.8.1.7.1,1.2v3.6h-1Z"/>
  </g>
  <g class="cls-25">
    <path class="cls-18" d="M277.7,161.9h.9v-1.2l1-.3v1.5h1.6v.8h-1.6v3.3c0,.4.1.7.2.9s.3.3.5.3.4,0,.5-.1c.1,0,.3-.1.5-.2l.2.7c-.2.1-.5.2-.7.3-.3.1-.5.1-.8.1-.5,0-.8-.1-1-.4-.2-.3-.3-.7-.3-1.4v-3.5h-.9v-.8h-.1Z"/>
  </g>
  <g class="cls-25">
    <path class="cls-18" d="M282.1,164.9c0-1,.2-1.8.7-2.3s1.1-.8,1.9-.8.8.1,1.2.2c.3.1.6.4.8.6.2.3.4.6.5,1s.2.8.2,1.3c0,1-.2,1.8-.7,2.3s-1.1.8-2,.8-.8-.1-1.2-.2c-.3-.1-.6-.4-.8-.6-.2-.3-.4-.6-.5-1s-.1-.9-.1-1.3ZM283.1,164.9c0,.3,0,.6.1.9.1.3.2.5.3.7s.3.4.5.5.5.2.8.2c1.1,0,1.6-.8,1.6-2.3s0-.6-.1-.9c-.1-.3-.2-.5-.3-.7s-.3-.4-.5-.5-.5-.2-.8-.2c-1.1,0-1.6.7-1.6,2.3Z"/>
    <path class="cls-18" d="M291.5,166.2c0-.2-.1-.4-.2-.6-.1-.1-.3-.3-.5-.3s-.4-.2-.7-.3-.5-.2-.7-.3-.4-.3-.5-.5-.2-.5-.2-.8c0-.6.2-1,.5-1.3s.8-.4,1.4-.4.8,0,1.1.1c.3.1.5.2.8.3l-.2.8c-.2-.1-.4-.2-.7-.2-.3-.1-.5-.1-.8-.1s-.6.1-.8.2-.2.3-.2.6.1.4.2.5.3.2.5.3.4.2.7.3.5.2.7.3.4.3.5.5.2.5.2.9,0,.5-.1.7-.2.4-.4.6-.4.3-.7.4-.6.1-.9.1c-.5,0-.8,0-1.2-.1-.3-.1-.6-.2-.8-.3l.3-.8c.2.1.4.2.7.3s.6.1.9.1.6-.1.9-.2c.1-.2.2-.4.2-.8Z"/>
  </g>
  <g class="cls-25">
    <path class="cls-18" d="M237.5,181.9c-.2.2-.5.3-.9.4s-.8.1-1.2.1-1-.1-1.4-.3-.8-.4-1.2-.8c-.3-.4-.6-.8-.8-1.3s-.3-1.2-.3-2,.1-1.5.3-2,.5-1,.8-1.3.7-.6,1.2-.8.9-.2,1.3-.2.9,0,1.2.1.6.1.8.2l-.2.9c-.4-.2-.9-.3-1.6-.3s-.7.1-1,.2c-.3.1-.6.3-.9.6-.3.3-.5.6-.6,1.1-.2.4-.2,1-.2,1.6s.1,1.1.2,1.5c.1.4.3.8.6,1.1s.5.5.9.6c.3.1.7.2,1.1.2s.7,0,.9-.1c.3-.1.5-.2.7-.3l.3.8Z"/>
    <path class="cls-18" d="M242.7,182.3v-3.4c0-.3,0-.6-.1-.8,0-.2-.1-.4-.2-.6-.1-.2-.2-.3-.4-.4s-.4-.1-.6-.1c-.4,0-.7.1-1,.4-.3.2-.5.6-.6.9v4h-1v-8.4h1v3.1h0c.2-.2.5-.4.8-.6.3-.1.7-.2,1.1-.2s.6,0,.9.1c.2.1.5.2.6.4.2.2.3.5.4.8.1.3.1.7.1,1.2v3.6h-1Z"/>
    <path class="cls-18" d="M245.4,176.7c.3-.2.7-.3,1.1-.4.4-.1.8-.1,1.3-.1s.8.1,1,.2c.3.1.4.3.6.4.1.2.2.4.3.6,0,.2.1.4.1.6v3.5c0,.2.1.5.1.7h-.9l-.3-.8h-.1l-.3.3c-.1.1-.2.2-.4.3s-.3.2-.5.2c-.2.1-.4.1-.7.1s-.5,0-.7-.1-.4-.2-.6-.3c-.2-.1-.3-.3-.4-.5-.1-.2-.1-.4-.1-.7s.1-.6.2-.9c.1-.2.3-.4.6-.6.3-.1.6-.2.9-.3.4-.1.8-.1,1.2-.1h.6v-.6c0-.4-.1-.7-.3-.9s-.5-.3-1-.3h-.4c-.2,0-.3,0-.5.1s-.3.1-.5.1-.3.1-.4.2v-.7ZM247.1,181.5c.2,0,.4,0,.6-.1.2-.1.3-.1.5-.2l.3-.3c.1-.1.1-.2.2-.3v-1h-1.3c-.2,0-.4.1-.6.2-.2.1-.3.2-.4.3s-.2.3-.2.5c0,.3.1.5.3.7,0,.1.3.2.6.2Z"/>
  </g>
  <g class="cls-25">
    <path class="cls-18" d="M253.1,179.8l.3,1.1h0l.3-1.2,1.3-3.5h1l-2.6,6.1h-.4l-2.6-6.1h1.1l1.6,3.6Z"/>
  </g>
  <g class="cls-25">
    <path class="cls-18" d="M261.4,181.8c-.2.2-.5.3-.9.5-.4.1-.8.2-1.2.2s-.9-.1-1.2-.2c-.3-.1-.6-.4-.8-.6-.2-.3-.4-.6-.5-1s-.2-.8-.2-1.3c0-1,.2-1.8.7-2.3s1.1-.8,2-.8.5,0,.8.1.5.2.7.3.4.4.5.7.2.7.2,1.2,0,.6-.1.9h-3.9c0,.4,0,.7.1.9.1.3.2.5.3.7.2.2.3.3.6.4.2.1.5.1.9.1s.5,0,.8-.1.5-.2.6-.3l.6.6ZM259.4,177c-.5,0-.9.1-1.1.4-.3.2-.5.7-.5,1.3h3c0-.6-.1-1-.3-1.3-.4-.3-.7-.4-1.1-.4Z"/>
    <path class="cls-18" d="M265.8,180.6c0-.2-.1-.4-.2-.6-.1-.1-.3-.3-.5-.3s-.4-.2-.7-.3-.5-.2-.7-.3-.4-.3-.5-.5-.2-.5-.2-.8c0-.6.2-1,.5-1.3s.8-.4,1.4-.4.8,0,1.1.1c.3.1.5.2.8.3l-.2.8c-.2-.1-.4-.2-.7-.2-.3-.1-.5-.1-.8-.1s-.6.1-.8.2-.2.3-.2.6.1.4.2.5.3.2.5.3.4.2.7.3.5.2.7.3.4.3.5.5.2.5.2.9,0,.5-.1.7-.2.4-.4.6c-.2.2-.4.3-.7.4-.3.1-.6.1-.9.1-.5,0-.8,0-1.2-.1-.3-.1-.6-.2-.8-.3l.3-.8c.2.1.4.2.7.3s.6.1.9.1.6-.1.9-.2c.1-.2.2-.4.2-.8Z"/>
    <path class="cls-18" d="M276,180.2v1.1c0,.3,0,.7.1,1h-.6l-.2-.9h0c-.2.3-.4.5-.7.7-.3.2-.7.3-1.1.3-.8,0-1.4-.3-1.8-.8s-.6-1.3-.6-2.4.2-1.8.7-2.3,1.1-.8,2-.8h.7c.2,0,.4.1.6.2v-2.5h1v6.4h-.1ZM273.6,181.6c.4,0,.7-.1,1-.3s.4-.5.5-1v-3c-.1-.1-.3-.2-.5-.2s-.4-.1-.7-.1c-.6,0-1,.2-1.3.5-.3.4-.5.9-.5,1.7s0,.6.1.9c.1.3.1.5.3.7s.3.4.5.5c.1.2.3.3.6.3Z"/>
    <path class="cls-18" d="M282.3,181.8c-.2.2-.5.3-.9.5-.4.1-.7.2-1.2.2s-.9-.1-1.2-.2c-.3-.1-.6-.4-.8-.6-.2-.3-.4-.6-.5-1s-.2-.8-.2-1.3c0-1,.2-1.8.7-2.3s1.1-.8,2-.8.5,0,.8.1.5.2.7.3c.2.2.4.4.5.7s.2.7.2,1.2,0,.6-.1.9h-3.9c0,.4,0,.7.1.9.1.3.2.5.3.7.2.2.3.3.6.4.2.1.5.1.9.1s.5,0,.8-.1.5-.2.6-.3l.6.6ZM280.2,177c-.5,0-.9.1-1.1.4-.3.2-.5.7-.5,1.3h3c0-.6-.1-1-.3-1.3-.4-.3-.7-.4-1.1-.4Z"/>
    <path class="cls-18" d="M287.1,176.7c.3-.2.7-.3,1.1-.4.4-.1.8-.1,1.3-.1s.8.1,1,.2.4.3.6.4c.1.2.2.4.3.6,0,.2.1.4.1.6v3.5c0,.3.1.5.1.7h-.7l-.3-.8h-.1c-.1.1-.2.2-.3.3-.1.1-.2.2-.4.3-.2.1-.3.2-.5.2-.2.1-.4.1-.7.1s-.5,0-.7-.1l-.6-.3c-.2-.1-.3-.3-.4-.5s-.1-.4-.1-.7.1-.6.2-.9c.1-.2.3-.4.6-.6.3-.1.6-.2.9-.3.4-.1.8-.1,1.2-.1h.6v-.6c0-.4-.1-.7-.3-.9-.2-.2-.5-.3-1-.3h-.4c-.2,0-.3,0-.5.1-.2,0-.3.1-.5.1-.1.1-.3.1-.4.2v-.7ZM288.8,181.5c.2,0,.4,0,.6-.1s.3-.1.5-.2c.1-.1.2-.2.3-.3.1-.1.1-.2.2-.3v-1h-1.3c-.2,0-.4.1-.6.2-.2.1-.3.2-.4.3s-.2.3-.2.5c0,.3.1.5.3.7,0,.1.3.2.6.2Z"/>
    <path class="cls-18" d="M296,177.2c-.2-.1-.5-.1-.7-.1-.3,0-.6.1-.8.3-.2.2-.3.4-.4.7v4.2h-1v-6h.7l.2.7h0c.2-.3.3-.5.5-.6s.5-.2.8-.2.5,0,.8.1v.9Z"/>
    <path class="cls-18" d="M301.8,184.7h-1v-3h0c-.2.2-.4.4-.6.6s-.6.2-1,.2c-.8,0-1.4-.3-1.8-.8s-.6-1.3-.6-2.4.2-1.8.7-2.3,1.2-.8,2.2-.8.8,0,1.2.1.6.2.8.3v8.1h0ZM299.4,181.6c.4,0,.7-.1,1-.3.2-.2.4-.5.5-1v-3.1c-.3-.2-.7-.2-1.2-.2s-1,.2-1.3.6-.5.9-.5,1.7,0,.6.1.9c.1.3.1.5.3.7s.3.4.5.5c.1.1.3.2.6.2Z"/>
    <path class="cls-18" d="M304.5,176.3v3.4c0,.3,0,.6.1.8s.1.4.2.6c.1.2.2.3.4.4s.3.1.6.1.4,0,.6-.1.3-.2.5-.3.2-.3.3-.4.2-.3.2-.5v-4h1v5.2c0,.3.1.6.1.8h-.7l-.2-.9h-.1c-.2.3-.4.6-.7.8-.3.2-.7.3-1.2.3s-.6,0-.8-.1c-.2-.1-.4-.2-.6-.4s-.3-.5-.4-.8-.1-.7-.1-1.2v-3.6h.8Z"/>
    <path class="cls-18" d="M310.1,174.4c0-.2.1-.3.2-.5s.3-.2.5-.2.4.1.5.2c.1.1.2.3.2.5s-.1.3-.2.5c-.1.1-.3.2-.5.2s-.3-.1-.5-.2-.2-.3-.2-.5ZM310.3,176.3h1v6h-1v-6Z"/>
  </g>
  <g class="cls-25">
    <path class="cls-18" d="M315.1,179.8l.3,1.1h0l.3-1.2,1.3-3.5h1l-2.6,6.1h-.4l-2.6-6.1h1.1l1.6,3.6Z"/>
  </g>
  <g class="cls-25">
    <path class="cls-18" d="M318.6,179.3c0-1,.2-1.8.7-2.3s1.1-.8,1.9-.8.8.1,1.2.2c.3.1.6.4.8.6.2.3.4.6.5,1s.2.8.2,1.3c0,1-.2,1.8-.7,2.3s-1.1.8-2,.8-.8-.1-1.2-.2c-.3-.1-.6-.4-.8-.6-.2-.3-.4-.6-.5-1s-.1-.9-.1-1.3ZM319.6,179.3c0,.3,0,.6.1.9.1.3.2.5.3.7s.3.4.5.5.5.2.8.2c1.1,0,1.6-.8,1.6-2.3s0-.6-.1-.9c-.1-.3-.2-.5-.3-.7s-.3-.4-.5-.5-.5-.2-.8-.2c-1-.1-1.6.7-1.6,2.3Z"/>
  </g>
  <g class="cls-25">
    <path class="cls-18" d="M8.9,318.3c-.2.2-.5.3-.9.4s-.8.1-1.2.1-1-.1-1.4-.3-.8-.4-1.2-.8c-.3-.4-.6-.8-.8-1.3s-.3-1.2-.3-2,0-1.5.3-2,.5-1,.8-1.3c.3-.3.7-.6,1.2-.8s.9-.2,1.3-.2.9,0,1.2.1c.3.1.6.1.8.2l-.2.9c-.4-.2-.9-.3-1.6-.3s-.7.1-1,.2-.6.3-.9.6c-.3.3-.5.6-.6,1.1-.2.4-.2,1-.2,1.6s0,1.1.2,1.5.3.8.6,1.1.5.5.9.6c.3.1.7.2,1.1.2s.7,0,.9-.1c.3-.1.5-.2.7-.3l.3.8Z"/>
  </g>
  <g class="cls-25">
    <path class="cls-18" d="M12.9,313.6c-.2-.1-.5-.1-.7-.1-.3,0-.6.1-.8.3-.2.2-.3.4-.4.7v4.2h-1v-6h.7l.2.7h0c.2-.3.3-.5.5-.6s.5-.2.8-.2.5,0,.8.1v.9Z"/>
    <path class="cls-18" d="M14.1,310.8c0-.2.1-.3.2-.5s.3-.2.5-.2.4.1.5.2.2.3.2.5-.1.3-.2.5c-.1.1-.3.2-.5.2s-.4-.1-.5-.2-.2-.3-.2-.5ZM14.3,312.7h1v6h-1v-6Z"/>
    <path class="cls-18" d="M17.4,312.7h.6l.2.7h0c.2-.3.4-.5.7-.6s.6-.2,1-.2c.8,0,1.4.2,1.8.7s.6,1.2.6,2.3-.1,1-.2,1.4-.3.7-.6,1c-.2.3-.5.5-.9.6-.3.2-.7.2-1.1.2s-.5,0-.7-.1-.4-.1-.6-.2v2.5h-1v-8.3h.2ZM19.8,313.3c-.4,0-.7.1-1,.3s-.4.5-.5,1v3c.1.1.3.2.5.3.2.1.4.1.7.1.6,0,1-.2,1.3-.6s.5-1,.5-1.8,0-.6-.1-.9-.1-.5-.3-.7c-.1-.2-.3-.3-.5-.4-.1-.2-.3-.3-.6-.3Z"/>
  </g>
  <g class="cls-25">
    <path class="cls-18" d="M23.1,312.7h.9v-1.2l1-.3v1.5h1.6v.8h-1.6v3.3c0,.4.1.7.2.9s.3.3.5.3.4,0,.5-.1c.1,0,.3-.1.5-.2l.2.7c-.2.1-.5.2-.7.3-.3.1-.5.1-.8.1-.5,0-.8-.1-1-.4s-.3-.7-.3-1.4v-3.5h-.9v-.8h-.1Z"/>
  </g>
  <g class="cls-25">
    <path class="cls-18" d="M27.4,315.7c0-1,.2-1.8.7-2.3s1.1-.8,1.9-.8.8.1,1.2.2c.3.1.6.4.8.6.2.3.4.6.5,1s.2.8.2,1.3c0,1-.2,1.8-.7,2.3s-1.1.8-2,.8-.8-.1-1.2-.2c-.3-.1-.6-.4-.8-.6-.2-.3-.4-.6-.5-1,0-.4-.1-.9-.1-1.3ZM28.4,315.7c0,.3,0,.6.1.9s.2.5.3.7.3.4.5.5.5.2.8.2c1.1,0,1.6-.8,1.6-2.3s0-.6-.1-.9-.2-.5-.3-.7-.3-.4-.5-.5-.5-.2-.8-.2c-1-.1-1.6.7-1.6,2.3Z"/>
    <path class="cls-18" d="M38.8,318.9c0,.8-.2,1.3-.6,1.7s-1,.6-1.8.6-.9,0-1.2-.1-.5-.1-.8-.2l.3-.8c.2.1.4.1.6.2.2.1.5.1.9.1s.6,0,.8-.1.4-.2.5-.3c0-.1.2-.3.3-.5,0-.2,0-.5,0-.8v-.6h0c-.2.2-.4.4-.6.5-.2.1-.6.2-1,.2-.8,0-1.4-.3-1.8-.8-.4-.5-.6-1.3-.6-2.4s.2-1.8.7-2.3,1.2-.8,2.2-.8.8,0,1.2.1c.3.1.6.2.9.3v6h-.1ZM36.4,317.9c.4,0,.7-.1,1-.3s.4-.5.5-1v-3.1c-.3-.2-.7-.2-1.2-.2s-1,.2-1.3.6-.5.9-.5,1.7,0,.6,0,.9,0,.5.3.7c0,.2.3.4.5.5s.3.2.6.2Z"/>
    <path class="cls-18" d="M43.5,313.6c-.2-.1-.5-.1-.7-.1-.3,0-.6.1-.8.3-.2.2-.3.4-.4.7v4.2h-1v-6h.7l.2.7h0c.2-.3.3-.5.5-.6s.5-.2.8-.2.5,0,.8.1v.9Z"/>
    <path class="cls-18" d="M44.6,313.1c.3-.2.7-.3,1.1-.4.4-.1.8-.1,1.3-.1s.8.1,1,.2c.3.1.4.3.6.4,0,.2.2.4.3.6,0,.2,0,.4,0,.6v3.5c0,.2,0,.5,0,.7h-.7l-.3-.8h0c0,.1-.2.2-.3.3,0,.1-.2.2-.4.3s-.3.2-.5.2c-.2.1-.4.1-.7.1s-.5,0-.7-.1-.4-.2-.6-.3c-.2-.1-.3-.3-.4-.5,0-.2,0-.4,0-.7s0-.6.2-.9c0-.2.3-.4.6-.6.3-.1.6-.2.9-.3.4-.1.8-.1,1.2-.1h.6v-.6c0-.4,0-.7-.3-.9-.2-.2-.5-.3-1-.3h-.4c-.2,0-.3,0-.5.1s-.3.1-.5.1-.3.1-.4.2v-.7ZM46.3,317.9c.2,0,.4,0,.6-.1.2-.1.3-.1.5-.2,0-.1.2-.2.3-.3,0-.1,0-.2.2-.3v-1h-1.3c-.2,0-.4.1-.6.2-.2.1-.3.2-.4.3s-.2.3-.2.5c0,.3,0,.5.3.7.1,0,.3.2.6.2Z"/>
    <path class="cls-18" d="M55.3,312.7v6h-1v-5.2h-2.4v5.2h-1v-5.2h-.9v-.8h1v-.3c0-.8.2-1.3.6-1.6s.9-.5,1.6-.5.9,0,1.3.1c.4.1.7.2.9.3l-.3.8c-.2-.1-.5-.2-.8-.3-.3-.1-.6-.1-.9-.1s-.5,0-.7.1-.3.2-.4.3c0,.1-.2.3-.2.5v.7h3.2Z"/>
    <path class="cls-18" d="M57.1,313.1c.3-.2.7-.3,1.1-.4.4-.1.8-.1,1.3-.1s.8.1,1,.2.4.3.6.4c0,.2.2.4.3.6,0,.2,0,.4,0,.6v3.5c0,.3,0,.5,0,.7h-.7l-.3-.8h0c0,.1-.2.2-.3.3,0,.1-.2.2-.4.3-.2.1-.3.2-.5.2-.2.1-.4.1-.7.1s-.5,0-.7-.1-.4-.2-.6-.3c-.2-.1-.3-.3-.4-.5,0-.2,0-.4,0-.7s0-.6.2-.9c0-.2.3-.4.6-.6.3-.1.6-.2.9-.3.4-.1.8-.1,1.2-.1h.6v-.6c0-.4,0-.7-.3-.9-.2-.2-.5-.3-1-.3h-.4c-.2,0-.3,0-.5.1-.2,0-.3.1-.5.1,0,.1-.3.1-.4.2v-.7ZM58.8,317.9c.2,0,.4,0,.6-.1s.3-.1.5-.2c0-.1.2-.2.3-.3,0-.1,0-.2.2-.3v-1h-1.3c-.2,0-.4.1-.6.2-.2.1-.3.2-.4.3s-.2.3-.2.5c0,.3,0,.5.3.7,0,0,.3.2.6.2Z"/>
    <path class="cls-18" d="M65.5,312.7h.9v-1.2l1-.3v1.5h1.6v.8h-1.6v3.3c0,.4,0,.7.2.9,0,.2.3.3.5.3s.4,0,.5-.1c0,0,.3-.1.5-.2l.2.7c-.2.1-.5.2-.7.3-.3.1-.5.1-.8.1-.5,0-.8-.1-1-.4s-.3-.7-.3-1.4v-3.5h-.9v-.8h0Z"/>
    <path class="cls-18" d="M73.2,313.6c-.2-.1-.5-.1-.7-.1-.3,0-.6.1-.8.3-.2.2-.3.4-.4.7v4.2h-1v-6h.7l.2.7h0c.2-.3.3-.5.5-.6s.5-.2.8-.2.5,0,.8.1v.9Z"/>
    <path class="cls-18" d="M74.4,313.1c.3-.2.7-.3,1.1-.4s.8-.1,1.3-.1.8.1,1,.2.4.3.6.4c0,.2.2.4.3.6,0,.2,0,.4,0,.6v3.5c0,.3,0,.5,0,.7h-.9l-.3-.8h0c0,.1-.2.2-.3.3,0,.1-.2.2-.4.3-.2.1-.3.2-.5.2-.2.1-.4.1-.7.1s-.5,0-.7-.1-.4-.2-.6-.3c-.2-.1-.3-.3-.4-.5s0-.4,0-.7,0-.6.2-.9c0-.2.3-.4.6-.6.3-.1.6-.2.9-.3.4-.1.8-.1,1.2-.1h.6v-.6c0-.4,0-.7-.3-.9-.2-.2-.5-.3-1-.3h-.4c-.2,0-.3,0-.5.1-.2,0-.3.1-.5.1,0,.1-.3.1-.4.2v-.7ZM76.1,317.9c.2,0,.4,0,.6-.1s.3-.1.5-.2c0-.1.2-.2.3-.3,0-.1,0-.2.2-.3v-1h-1.3c-.2,0-.4.1-.6.2s-.3.2-.4.3-.2.3-.2.5c0,.3,0,.5.3.7,0,0,.3.2.6.2Z"/>
    <path class="cls-18" d="M84.3,318.7v-3.4c0-.6,0-1.1-.3-1.4-.2-.3-.5-.5-1-.5s-.8.1-1,.3c-.3.2-.5.5-.6.9v4.1h-1v-6h.7l.2.7h0c.2-.3.5-.5.8-.6.3-.2.7-.2,1.2-.2s.6,0,.9.1c.2.1.5.2.6.4s.3.5.4.8,0,.7,0,1.2v3.6h-1Z"/>
    <path class="cls-18" d="M89.6,317c0-.2,0-.4-.2-.6,0-.1-.3-.3-.5-.3-.2-.1-.4-.2-.7-.3s-.5-.2-.7-.3-.4-.3-.5-.5-.2-.5-.2-.8c0-.6.2-1,.5-1.3s.8-.4,1.4-.4.8,0,1.1.1c.3.1.5.2.8.3l-.2.8c-.2-.1-.4-.2-.7-.2-.3-.1-.5-.1-.8-.1s-.6.1-.8.2-.2.3-.2.6,0,.4.2.5.3.2.5.3.4.2.7.3.5.2.7.3c.2.1.4.3.5.5s.2.5.2.9,0,.5,0,.7-.2.4-.4.6-.4.3-.7.4c-.3.1-.6.1-.9.1-.5,0-.8,0-1.2-.1-.3-.1-.6-.2-.8-.3l.3-.8c.2.1.4.2.7.3s.6.1.9.1.6-.1.9-.2c0-.2.2-.4.2-.8Z"/>
    <path class="cls-18" d="M92,312.7h.7l.2.7h0c.2-.3.4-.5.7-.6.3-.1.6-.2,1-.2.8,0,1.4.2,1.8.7s.6,1.2.6,2.3,0,1-.2,1.4-.3.7-.6,1c-.2.3-.5.5-.9.6-.3.2-.7.2-1.1.2s-.5,0-.7-.1c-.2,0-.4-.1-.6-.2v2.5h-1v-8.3h0ZM94.5,313.3c-.4,0-.7.1-1,.3s-.4.5-.5,1v3c0,.1.3.2.5.3.2.1.4.1.7.1.6,0,1-.2,1.3-.6s.5-1,.5-1.8,0-.6,0-.9,0-.5-.3-.7c0-.2-.3-.3-.5-.4,0-.2-.3-.3-.6-.3Z"/>
    <path class="cls-18" d="M98.4,313.1c.3-.2.7-.3,1.1-.4s.8-.1,1.3-.1.8.1,1,.2.4.3.6.4c0,.2.2.4.3.6,0,.2,0,.4,0,.6v3.5c0,.3,0,.5,0,.7h-.7l-.3-.8h0c0,.1-.2.2-.3.3,0,.1-.2.2-.4.3-.2.1-.3.2-.5.2-.2.1-.4.1-.7.1s-.5,0-.7-.1-.4-.2-.6-.3c-.2-.1-.3-.3-.4-.5s0-.4,0-.7,0-.6.2-.9c0-.2.3-.4.6-.6.3-.1.6-.2.9-.3.4-.1.8-.1,1.2-.1h.6v-.6c0-.4,0-.7-.3-.9-.2-.2-.5-.3-1-.3h-.4c-.2,0-.3,0-.5.1-.2,0-.3.1-.5.1,0,.1-.3.1-.4.2v-.7ZM100.1,317.9c.2,0,.4,0,.6-.1s.3-.1.5-.2c0-.1.2-.2.3-.3,0-.1,0-.2.2-.3v-1h-1.3c-.2,0-.4.1-.6.2s-.3.2-.4.3-.2.3-.2.5c0,.3,0,.5.3.7,0,0,.3.2.6.2Z"/>
    <path class="cls-18" d="M107.3,313.6c-.2-.1-.5-.1-.7-.1-.3,0-.6.1-.8.3-.2.2-.3.4-.4.7v4.2h-1v-6h.7l.2.7h0c.2-.3.3-.5.5-.6s.5-.2.8-.2.5,0,.8.1v.9Z"/>
    <path class="cls-18" d="M112.9,318.2c-.2.2-.5.3-.9.5-.4.1-.8.2-1.2.2s-.9-.1-1.2-.2c-.3-.1-.6-.4-.8-.6-.2-.3-.4-.6-.5-1s-.2-.8-.2-1.3c0-1,.2-1.8.7-2.3s1.1-.8,2-.8.5,0,.8.1.5.2.7.3c.2.2.4.4.5.7,0,.3.2.7.2,1.2s0,.6,0,.9h-3.9c0,.4,0,.7,0,.9,0,.3.2.5.3.7.2.2.3.3.6.4.2.1.5.1.9.1s.5,0,.8-.1.5-.2.6-.3l.6.6ZM110.9,313.3c-.5,0-.9.1-1.1.4-.3.2-.5.7-.5,1.3h3c0-.6,0-1-.3-1.3-.4-.2-.7-.4-1.1-.4Z"/>
    <path class="cls-18" d="M118.5,318.7v-3.4c0-.6,0-1.1-.3-1.4-.2-.3-.5-.5-1-.5s-.8.1-1,.3c-.3.2-.5.5-.6.9v4.1h-1v-6h.7l.2.7h0c.2-.3.5-.5.8-.6.3-.2.7-.2,1.2-.2s.6,0,.9.1c.2.1.5.2.6.4s.3.5.4.8,0,.7,0,1.2v3.6h-1Z"/>
  </g>
  <g class="cls-25">
    <path class="cls-18" d="M120.4,312.7h.9v-1.2l1-.3v1.5h1.6v.8h-1.6v3.3c0,.4,0,.7.2.9s.3.3.5.3.4,0,.5-.1c0,0,.3-.1.5-.2l.2.7c-.2.1-.5.2-.7.3-.3.1-.5.1-.8.1-.5,0-.8-.1-1-.4s-.3-.7-.3-1.4v-3.5h-.9v-.8h0Z"/>
  </g>
  <g class="cls-25">
    <path class="cls-18" d="M129.5,318.2c-.2.2-.5.3-.9.5-.4.1-.8.2-1.2.2s-.9-.1-1.2-.2c-.3-.1-.6-.4-.8-.6-.2-.3-.4-.6-.5-1s-.2-.8-.2-1.3c0-1,.2-1.8.7-2.3s1.1-.8,2-.8.5,0,.8.1.5.2.7.3c.2.2.4.4.5.7.1.3.2.7.2,1.2s0,.6-.1.9h-3.9c0,.4,0,.7,0,.9,0,.3.2.5.3.7.2.2.4.3.6.4s.5.1.9.1.5,0,.8-.1.5-.2.6-.3l.6.6ZM127.5,313.3c-.5,0-.9.1-1.1.4-.3.2-.5.7-.5,1.3h3c0-.6-.1-1-.3-1.3-.4-.2-.7-.4-1.1-.4Z"/>
  </g>
  <g class="cls-25">
    <path class="cls-18" d="M81.9,331v1.1c0,.3,0,.7,0,1h-.6l-.2-.9h0c-.2.3-.4.5-.7.7-.3.2-.7.3-1.1.3-.8,0-1.4-.3-1.8-.8s-.6-1.3-.6-2.4.2-1.8.7-2.3,1.1-.8,2-.8h.7c.2,0,.4.1.6.2v-2.5h1v6.4h0ZM79.4,332.4c.4,0,.7-.1,1-.3.2-.2.4-.5.5-1v-3c0-.1-.3-.2-.5-.2s-.4-.1-.7-.1c-.6,0-1,.2-1.3.5-.3.4-.5.9-.5,1.7s0,.6,0,.9,0,.5.3.7.3.4.5.5c0,.2.4.3.6.3Z"/>
    <path class="cls-18" d="M88.1,332.6c-.2.2-.5.3-.9.5-.4.1-.8.2-1.2.2s-.9-.1-1.2-.2c-.3-.1-.6-.4-.8-.6-.2-.3-.4-.6-.5-1s-.2-.8-.2-1.3c0-1,.2-1.8.7-2.3s1.1-.8,2-.8.5,0,.8.1.5.2.7.3c.2.2.4.4.5.7,0,.3.2.7.2,1.2s0,.6,0,.9h-3.9c0,.4,0,.7,0,.9,0,.3.2.5.3.7.2.2.4.3.6.4s.5.1.9.1.5,0,.8-.1.5-.2.6-.3l.6.6ZM86,327.7c-.5,0-.9.1-1.1.4-.3.2-.5.7-.5,1.3h3c0-.6,0-1-.3-1.3-.3-.2-.6-.4-1.1-.4Z"/>
    <path class="cls-18" d="M92.9,327.5c.3-.2.7-.3,1.1-.4s.8-.1,1.3-.1.8.1,1,.2c.3.1.4.3.6.4,0,.2.2.4.3.6,0,.2,0,.4,0,.6v3.5c0,.2,0,.5,0,.7h-.7l-.3-.8h0c0,.1-.2.2-.3.3,0,.1-.2.2-.4.3s-.3.2-.5.2c-.2.1-.4.1-.7.1s-.5,0-.7-.1-.4-.2-.6-.3c-.2-.1-.3-.3-.4-.5s0-.4,0-.7,0-.6.2-.9c0-.2.3-.4.6-.6.3-.1.6-.2.9-.3.4-.1.8-.1,1.2-.1h.6v-.6c0-.4,0-.7-.3-.9-.2-.2-.5-.3-1-.3h-.4c-.2,0-.3,0-.5.1s-.3.1-.5.1-.3.1-.4.2v-.7ZM94.6,332.3c.2,0,.4,0,.6-.1s.3-.1.5-.2c0-.1.2-.2.3-.3,0-.1,0-.2.2-.3v-1h-1.3c-.2,0-.4.1-.6.2s-.3.2-.4.3-.2.3-.2.5c0,.3,0,.5.3.7,0,.1.3.2.6.2Z"/>
    <path class="cls-18" d="M101.8,328c-.2-.1-.5-.1-.7-.1-.3,0-.6.1-.8.3-.2.2-.3.4-.4.7v4.2h-1v-6h.7l.2.7h0c.2-.3.3-.5.5-.6s.5-.2.8-.2.5,0,.8.1v.9Z"/>
    <path class="cls-18" d="M107.6,335.5h-1v-3h0c-.2.2-.4.4-.6.6s-.6.2-1,.2c-.8,0-1.4-.3-1.8-.8s-.6-1.3-.6-2.4.2-1.8.7-2.3,1.2-.8,2.2-.8.8,0,1.2.1.6.2.8.3v8.1h.1ZM105.2,332.4c.4,0,.7-.1,1-.3.2-.2.4-.5.5-1v-3.1c-.3-.2-.7-.2-1.2-.2s-1,.2-1.3.6-.5.9-.5,1.7,0,.6,0,.9,0,.5.3.7.3.4.5.5c0,0,.4.2.6.2Z"/>
    <path class="cls-18" d="M110.4,327v3.4c0,.3,0,.6,0,.8s0,.4.2.6.2.3.4.4c.2.1.3.1.6.1s.4,0,.6-.1.3-.2.5-.3.2-.3.3-.4.2-.3.2-.5v-4h1v5.2c0,.3,0,.6,0,.8h-.7l-.2-.9h0c-.2.3-.4.6-.7.8-.3.2-.7.3-1.2.3s-.6,0-.8-.1c-.2-.1-.4-.2-.6-.4s-.3-.5-.4-.8,0-.7,0-1.2v-3.7h.8Z"/>
    <path class="cls-18" d="M116,325.2c0-.2,0-.3.2-.5s.3-.2.5-.2.4.1.5.2.2.3.2.5,0,.3-.2.5c0,.1-.3.2-.5.2s-.3-.1-.5-.2-.2-.3-.2-.5ZM116.2,327h1v6h-1v-6Z"/>
  </g>
  <g class="cls-25">
    <path class="cls-18" d="M120.9,330.6l.3,1.1h0l.3-1.2,1.3-3.5h1l-2.6,6.1h-.2l-2.6-6.1h1.1l1.4,3.6Z"/>
  </g>
  <g class="cls-25">
    <path class="cls-18" d="M124.5,330c0-1,.2-1.8.7-2.3s1.1-.8,1.9-.8.8.1,1.2.2c.3.1.6.4.8.6.2.3.4.6.5,1s.2.8.2,1.3c0,1-.2,1.8-.7,2.3s-1.1.8-2,.8-.8-.1-1.2-.2c-.3-.1-.6-.4-.8-.6-.2-.3-.4-.6-.5-1-.1-.3-.1-.8-.1-1.3ZM125.5,330c0,.3,0,.6,0,.9s.2.5.3.7.3.4.5.5.5.2.8.2c1.1,0,1.6-.8,1.6-2.3s0-.6-.1-.9-.2-.5-.3-.7-.3-.4-.5-.5-.5-.2-.8-.2c-1.1,0-1.6.8-1.6,2.3Z"/>
  </g>
  <path class="cls-1" d="M306,373.6h58.2c2.8,0,5,2.2,5,5v20.6c0,2.8-2.2,5-5,5h-132.6c-2.8,0-5-2.2-5-5v-20.6c0-2.8,2.3-5,5-5h58.3"/>
  <path class="cls-11" d="M176.6,163.8v2.3h-1.3v-1h-1.7v6l.9.2v1h-3.6v-1l.9-.2v-6h-1.6v1h-1.4v-2.3h7.8Z"/>
  <path class="cls-11" d="M177.2,172.3v-1l.9-.2v-6.1l-.9-.2v-1h3.5v1l-.9.2v6h2.4v-1.1h1.4v2.4h-6.4Z"/>
  <path class="cls-11" d="M190.8,166.5h-1.3l-.2-1.2c-.2-.1-.5-.2-.7-.2-.3,0-.6-.1-.9-.1s-.8.1-1.1.3-.4.5-.4.8.1.6.4.7c.4.3.9.5,1.4.6.8.2,1.5.5,2.2,1,.5.4.7,1.1.7,1.7s-.3,1.3-.9,1.7c-.7.4-1.5.6-2.3.6s-1.2-.1-1.8-.3c-.5-.2-1-.5-1.4-.9v-1.8h1.3l.2,1.2c.2.2.4.3.7.3s.6.1,1,.1.8-.1,1.1-.3.4-.5.4-.8-.1-.6-.4-.8c-.4-.3-.8-.5-1.2-.6-.8-.2-1.6-.5-2.3-1-.5-.4-.8-1-.8-1.7s.3-1.3.9-1.7c.6-.5,1.4-.7,2.2-.7s1.2.1,1.8.3c.5.2,1,.5,1.4.8v2h0Z"/>
  <path class="cls-11" d="M320,221.5v2.3h-1.3v-1h-1.7v6l.9.2v1h-3.6v-1l.9-.2v-6h-1.6v1h-1.4v-2.3h7.8Z"/>
  <path class="cls-11" d="M320.6,230v-1l.9-.2v-6.1l-.9-.2v-1h3.5v1l-.9.2v6h2.4v-1.1h1.4v2.4h-6.4Z"/>
  <path class="cls-11" d="M334.2,224.2h-1.3l-.2-1.2c-.2-.1-.5-.2-.7-.2-.3-.1-.6-.1-.9-.1s-.8.1-1.1.3c-.3.2-.4.5-.4.8s.1.6.4.7c.4.3.9.5,1.4.6.8.2,1.5.5,2.2,1,.5.4.7,1.1.7,1.7s-.3,1.3-.9,1.7c-.7.4-1.5.6-2.3.6s-1.2-.1-1.8-.3c-.5-.2-1-.5-1.4-.9v-1.8h1.3l.2,1.2c.2.2.4.3.7.3s.6.1,1,.1.8-.1,1.1-.3c.3-.2.4-.5.4-.8s-.1-.6-.4-.8c-.4-.3-.8-.5-1.2-.6-.8-.2-1.6-.5-2.3-1-.5-.4-.8-1-.8-1.7s.3-1.3.9-1.7c.6-.5,1.4-.7,2.2-.7s1.2.1,1.8.3c.5.2,1,.5,1.4.8v2h0Z"/>
  <path class="cls-8" d="M298,381.4c.3-.1.6-.2.9-.4,1.9-1,7.1-3.9,7.1-7.5v-10.7c0-.1-.1-.2-.3-.2h0q-.1,0-.2-.1c-1,0-1.9-.1-2.9-.2-3.4-.6-4.1-2.1-4.1-2.1-.1-.1-.2-.1-.3-.1h-.5c-.1,0-.2-.1-.3.1s-.7,1.5-4.1,2.1c-1,.1-1.9.2-2.9.2s-.1,0-.2.1h0c-.2,0-.3.1-.3.2v10.7c0,3.6,5.2,6.4,7.1,7.5.3.2.7.3,1,.4"/>
  <path class="cls-18" d="M293.6,370.7l3.3,3.3c.2.1.4.1.6,0l4.9-5c.1-.2.1-.3,0-.5l-1.1-1.1c-.2-.1-.4-.1-.6,0l-3.6,3.6-1.9-2c-.2-.1-.3-.1-.5,0l-1.1,1.1c0,.2,0,.4,0,.6"/>
  <path class="cls-18" d="M258.9,389.4h-1l-.2-.9c-.1-.1-.3-.1-.5-.2s-.5-.1-.7-.1c-.3,0-.6.1-.9.2-.3.2-.4.7-.2,1,0,.1.1.1.2.2.3.2.7.4,1.1.5.6.1,1.2.4,1.7.8.4.3.6.9.6,1.4s-.2,1.1-.7,1.4-1.2.5-1.8.5-1-.1-1.5-.3c-.4-.1-.8-.4-1.1-.7v-1.4h1.1v1c.3.1.5.2.7.3.3.1.5.1.8.1s.6-.1.9-.2c.2-.2.3-.4.3-.6s-.1-.5-.3-.6c-.3-.2-.6-.4-1-.5-.7-.2-1.3-.4-1.9-.8-.7-.6-.8-1.7-.2-2.4.1-.1.2-.2.3-.3.5-.4,1.2-.6,1.8-.5.5,0,1,.1,1.5.2.4.2.7.4,1.1.6v1.3h-.1Z"/>
  <path class="cls-18" d="M261.6,387.7v1.3h.9v1h-.9v2.6c0,.2,0,.3.1.4s.2.1.3.1h.4v1c-.1,0-.2.1-.4.1h-.5c-.4,0-.8-.1-1.1-.4-.3-.3-.4-.8-.4-1.2v-2.6h-.8v-1h.8v-1.3h1.6Z"/>
  <path class="cls-18" d="M266.6,393.5c-.2.2-.4.4-.6.5s-.5.2-.8.2c-.6,0-1.1-.2-1.5-.7-.3-.5-.5-1.2-.5-1.8h0c0-.8.2-1.5.5-2.1.3-.5.9-.7,1.5-.7s.5.1.7.2.4.3.5.5v-1.8h-.7v-.9h2.1v6.4h.7v.9h-1.9v-.7ZM264.6,391.7c0,.4.1.7.2,1.1.1.3.4.4.7.4s.4,0,.5-.1.3-.2.4-.4v-2.2c-.1-.2-.2-.3-.4-.4-.4-.2-1-.1-1.2.4h0c-.1.4-.2.8-.2,1.2Z"/>
  <path class="cls-18" d="M269,391.5c0-.7.2-1.4.6-1.9,1-.9,2.6-.9,3.6,0,.4.5.6,1.2.6,1.9h0c0,.8-.2,1.5-.6,2-1,.9-2.6.9-3.6,0-.4-.6-.6-1.3-.6-2ZM270.4,391.6c0,.4.1.7.2,1.1.3.4,1,.5,1.4.2l.2-.2c.2-.3.2-.7.2-1.1h0c0-.5-.1-.9-.3-1.2-.3-.4-1-.5-1.4-.2l-.2.2c-.1.4-.1.8-.1,1.2h0Z"/>
  <path class="cls-18" d="M278,393.4l-.6.6c-.7.4-1.5.2-2.1-.3-.4-.5-.5-1-.5-1.6v-2.1h-.6v-.9h2v3.1c0,.3.1.6.2.8.1.2.3.2.6.2s.4,0,.6-.1.3-.2.4-.3v-2.8h-.6v-.9h2v4.2h.6v.9h-1.8l-.2-.8Z"/>
  <path class="cls-18" d="M282.5,387.7v1.3h.9v1h-.9v2.6c0,.2,0,.3.1.4s.2.1.3.1h.4v1c-.1,0-.2.1-.4.1h-.5c-.4,0-.8-.1-1.1-.4-.3-.3-.4-.8-.4-1.2v-2.6h-.8v-1h.8v-1.3h1.6Z"/>
  <path class="cls-18" d="M285.7,393.9c0,.4-.1.7-.3,1-.2.3-.4.6-.7.9l-.7-.4c.1-.2.2-.5.3-.7.1-.3.1-.5.1-.8v-1h1.2v1Z"/>
  <path class="cls-18" d="M290.5,394.1h-1.4v-1.2h1.4v1.2Z"/>
  <path class="cls-18" d="M293,394.1h-1.4v-1.2h1.4v1.2Z"/>
  <path class="cls-18" d="M295.5,394.1h-1.4v-1.2h1.4v1.2Z"/>
  <path class="cls-18" d="M298.6,389.8v-.8h2v.6c.3-.2.4-.4.6-.5s.5-.2.7-.2c.6,0,1.1.2,1.5.7.4.6.6,1.3.5,2h0c0,.7-.1,1.4-.5,1.9-.3.5-.9.7-1.5.7s-.5,0-.7-.1-.4-.2-.5-.4v1.5h.7v.9h-2.8v-.8h.7v-5.2l-.7-.3ZM302.5,391.6c0-.4-.1-.8-.2-1.2-.2-.3-.4-.5-.7-.5s-.4,0-.5.1-.3.2-.3.4v2.2c.1.1.2.3.3.3.1.1.3.1.5.1.3,0,.6-.1.7-.4.2-.1.2-.5.2-1Z"/>
  <path class="cls-18" d="M304.6,393.2h.7v-3.3h-.7v-.9h2v.7c.2-.3.4-.5.6-.6s.5-.2.7-.2h.4v1.3h-.7c-.2,0-.4,0-.5.1l-.3.3v2.5h.7v.9h-2.9v-.8Z"/>
  <path class="cls-18" d="M308.5,391.5c0-.7.2-1.4.6-1.9,1-.9,2.6-.9,3.6,0,.4.5.6,1.2.6,1.9h0c0,.8-.2,1.5-.6,2-1,.9-2.6.9-3.6,0-.4-.6-.6-1.3-.6-2ZM309.9,391.6c0,.4.1.7.2,1.1.1.3.4.4.8.4s.6-.1.8-.4c.2-.3.2-.7.2-1.1h0c0-.5-.1-.9-.3-1.2-.3-.4-1-.5-1.4-.2l-.2.2c-.2.3-.1.6-.1,1.2Z"/>
  <path class="cls-18" d="M316,387.7v1.3h.9v1h-.9v2.6c0,.2,0,.3.1.4s.2.1.3.1h.4v1c-.1,0-.2.1-.4.1h-.5c-.4,0-.8-.1-1.1-.4-.3-.3-.4-.8-.4-1.2v-2.6h-.8v-1h.8v-1.3h1.6Z"/>
  <path class="cls-18" d="M320.1,394.2c-.7,0-1.3-.2-1.8-.7-.4-.5-.7-1.1-.7-1.8v-.2c0-.7.2-1.4.6-1.9s1.1-.7,1.7-.7,1.2.2,1.6.6c.4.5.6,1.1.6,1.7v.8h-3.1c-.1.5.3,1,.9,1.1h.2c.3,0,.5,0,.8-.1.2-.1.5-.2.7-.3l.4.9c-.2.2-.5.3-.8.4-.3.1-.7.2-1.1.2ZM319.9,389.9c-.2,0-.5.1-.6.3-.1.3-.2.5-.3.8h1.7c0-.3-.1-.6-.2-.8-.1-.2-.3-.3-.6-.3h0Z"/>
  <path class="cls-18" d="M322.9,391.6c0-.7.2-1.4.5-2,.3-.5.9-.8,1.5-.7.3,0,.5.1.8.2.2.1.4.3.6.5v-.6h1.3v5c0,.6-.2,1.2-.6,1.6-.5.4-1.1.7-1.8.6-.3,0-.5,0-.8-.1s-.5-.2-.8-.3l.3-1c.2.1.5.2.7.2.2.1.5.1.7.1.3,0,.6-.1.8-.3s.3-.6.3-.9v-.3c-.1.2-.3.3-.5.4s-.5.2-.7.2c-.6,0-1.1-.2-1.5-.7-.5-.5-.7-1.2-.8-1.9h0ZM324.2,391.7c0,.4.1.7.2,1.1.3.4.8.5,1.2.3.1-.1.3-.2.4-.3v-2.2c-.1-.2-.2-.3-.4-.4-.4-.2-1-.1-1.2.4h0c-.1.3-.2.7-.2,1.1Z"/>
  <path class="cls-18" d="M328.3,393.2h.7v-3.3h-.7v-.9h2.1v4.2h.7v.9h-2.7v-.9h-.1ZM330.3,387.7h-1.4v-1h1.4v1Z"/>
  <path class="cls-18" d="M334.8,393.5c-.2.2-.4.4-.6.5s-.5.2-.8.2c-.6,0-1.1-.2-1.5-.7-.3-.5-.5-1.2-.5-1.8h0c0-.8.2-1.5.5-2.1.3-.5.9-.7,1.5-.7s.5.1.7.2.4.3.5.5v-1.8h-.7v-.9h2.1v6.4h.7v.9h-1.9v-.7ZM332.8,391.7c0,.4.1.7.2,1.1.1.3.4.4.7.4s.4,0,.5-.1.3-.2.4-.4v-2.2c-.1-.2-.2-.3-.4-.4-.4-.2-1-.1-1.2.4h0c-.1.4-.2.8-.2,1.2Z"/>
  <path class="cls-18" d="M337.2,391.5c0-.7.2-1.4.6-1.9,1-.9,2.6-.9,3.6,0,.4.5.6,1.2.6,1.9h0c0,.8-.2,1.5-.6,2-1,.9-2.6.9-3.6,0-.4-.6-.6-1.3-.6-2ZM338.6,391.6c0,.4.1.7.2,1.1.3.4,1,.5,1.4.2l.2-.2c.2-.3.2-.7.2-1.1h0c0-.5-.1-.9-.3-1.2-.3-.4-1-.5-1.4-.2l-.2.2c0,.2-.1.6-.1,1.2h0Z"/>
  <path class="cls-18" d="M294.7,320.9c-.3.2-.6.3-.9.4-.4.1-.8.1-1.2.1s-1-.1-1.4-.3c-.4-.2-.8-.5-1.2-.8-1.1-1.5-1.4-3.5-.8-5.3.2-.5.5-.9.8-1.3.3-.3.8-.6,1.2-.8.4-.2.9-.2,1.3-.2s.8,0,1.2.1c.3.1.6.1.8.2l-.2.9c-.5-.2-1.1-.3-1.6-.3s-.7.1-1,.2-.7.3-.9.6c-.3.3-.5.7-.6,1.1-.2.5-.2,1.1-.2,1.6s.1,1,.2,1.5c.1.4.3.8.6,1.1.2.3.5.5.9.6s.7.2,1.1.2.6,0,.9-.1c.2-.1.5-.2.7-.3l.3.8Z"/>
  <path class="cls-18" d="M298.8,316.2c-.2-.1-.5-.1-.7-.1-.3,0-.6.1-.8.3s-.3.4-.4.7v4.2h-1v-6h.7l.2.7h0c.2-.3.3-.5.5-.6s.5-.2.8-.2.5,0,.8.1v.9Z"/>
  <path class="cls-18" d="M300,313.4c0-.2.1-.3.2-.5s.3-.2.5-.2c.4,0,.7.3.7.7h0c0,.2-.1.3-.2.5-.3.3-.7.3-1,0s-.2-.3-.2-.5ZM300.2,315.2h1v6h-1v-6Z"/>
  <path class="cls-18" d="M303.2,315.2h.7l.2.7h0c.2-.3.4-.5.7-.6.3-.1.7-.2,1-.2.7-.1,1.3.2,1.8.7.5.7.7,1.5.6,2.3,0,.5-.1.9-.2,1.4-.1.4-.3.7-.6,1-.2.3-.5.5-.9.6-.3.2-.7.2-1.1.2s-.5,0-.7-.1-.4-.1-.6-.2v2.5h-1v-8.3h.1ZM305.6,315.9c-.4,0-.7.1-1,.3-.3.3-.4.6-.5,1v3c.2.1.3.2.5.3.7.2,1.5,0,2-.5.4-.5.5-1.2.5-1.8s0-.6-.1-.9-.1-.5-.3-.7c-.1-.2-.3-.3-.5-.4,0-.2-.3-.3-.6-.3h0Z"/>
  <path class="cls-18" d="M308.9,315.2h.9v-1.2l1-.3v1.5h1.6v.8h-1.6v3.3c0,.3.1.6.2.9.1.2.3.3.5.3s.4,0,.5-.1c.2,0,.3-.1.5-.2l.2.7c-.2.1-.5.2-.7.3-.3.1-.5.1-.8.1-.4.1-.8-.1-1-.4-.2-.4-.3-.9-.3-1.4v-3.4h-.9v-.9h-.1Z"/>
  <path class="cls-18" d="M313.3,318.2c-.1-.8.2-1.7.7-2.3.5-.5,1.2-.8,2-.8s.8.1,1.2.2c.3.1.6.3.8.6.2.3.4.6.5,1s.2.9.2,1.3c.1.8-.2,1.7-.7,2.3-.5.5-1.2.8-2,.8s-.8-.1-1.2-.2c-.3-.1-.6-.3-.8-.6-.2-.3-.4-.6-.5-1s-.2-.9-.2-1.3ZM314.3,318.2c0,.3,0,.6.1.9.1.2.2.5.3.7.1.2.3.4.5.5s.5.2.8.2c1.1,0,1.6-.8,1.6-2.3s0-.6-.1-.9c-.1-.2-.2-.5-.3-.7-.1-.2-.3-.4-.5-.5s-.5-.2-.8-.2c-1.1,0-1.6.8-1.6,2.3Z"/>
  <path class="cls-18" d="M324.7,321.5c.1.6-.2,1.2-.6,1.7-.5.4-1.1.7-1.8.6-.4,0-.8,0-1.2-.1-.3-.1-.5-.1-.8-.2l.3-.8c.2.1.4.1.6.2.3.1.6.1.9.1s.5,0,.8-.1c.4-.1.7-.4.8-.8,0-.2.1-.5.1-.8v-.6h0c-.2.2-.4.4-.6.5-.3.1-.7.2-1,.2-.7,0-1.4-.3-1.8-.8-.5-.7-.7-1.6-.6-2.4-.1-.8.2-1.7.7-2.3.6-.6,1.4-.8,2.2-.8s.8,0,1.2.1c.3.1.6.2.9.3v6h-.1ZM322.3,320.5c.4,0,.7-.1,1-.3.3-.3.4-.6.5-1v-3.1c-.4-.2-.8-.2-1.2-.2s-1,.2-1.3.6c-.4.5-.5,1.1-.5,1.7s0,.6.1.9.1.5.3.7c.1.2.3.4.5.5,0,.2.3.2.6.2h0Z"/>
  <path class="cls-18" d="M329.4,316.2c-.2-.1-.5-.1-.7-.1-.3,0-.6.1-.8.3s-.3.4-.4.7v4.2h-1v-6h.7l.2.7h0c.2-.3.3-.5.5-.6s.5-.2.8-.2.5,0,.8.1v.9Z"/>
  <path class="cls-18" d="M330.5,315.7c.3-.2.7-.3,1.1-.4s.9-.1,1.3-.1.7.1,1,.2c.2.1.4.3.6.4l.3.6c0,.2.1.4.1.6v3.5c0,.3.1.5.1.7h-.7l-.3-.8h-.1l-.3.3c-.1.1-.2.2-.4.3-.2.1-.3.2-.5.2-.5.1-.9.1-1.4,0l-.6-.3c-.2-.1-.3-.3-.4-.5s-.1-.5-.1-.7c0-.3.1-.6.2-.9.1-.2.4-.5.6-.6l.9-.3c.4-.1.8-.1,1.2-.1h.6v-.6c0-.3-.1-.7-.3-.9-.3-.2-.6-.3-1-.3h-.4c-.2,0-.3,0-.5.1s-.3.1-.5.1c-.1.1-.3.1-.4.2v-.7ZM332.2,320.5c.2,0,.4,0,.6-.1s.3-.1.5-.2l.3-.3c.1-.1.1-.2.2-.3v-1h-1.3c-.2,0-.4.1-.6.2s-.3.2-.4.3c-.1.1-.2.3-.2.5,0,.3.1.5.3.7,0,0,.3.2.6.2Z"/>
  <path class="cls-18" d="M341.2,315.2v6h-1v-5.1h-2.4v5.2h-1v-5.2h-.9v-.8h.9v-.3c-.1-.6.1-1.2.6-1.6.5-.3,1-.5,1.6-.5s.9,0,1.3.1c.3.1.6.2.9.3l-.3.8c-.3-.1-.5-.2-.8-.3-.3-.1-.6-.1-.9-.1s-.5,0-.7.1-.3.2-.4.3c-.1.1-.2.3-.2.5v.7h3.3Z"/>
  <path class="cls-18" d="M342.9,315.7c.3-.2.7-.3,1.1-.4s.9-.1,1.3-.1.7.1,1,.2.4.3.6.4l.3.6c0,.2.1.4.1.6v3.5c0,.3.1.5.1.7h-.8l-.3-.8h-.1l-.3.3c-.1.1-.2.2-.4.3-.2.1-.3.2-.5.2-.5.1-.9.1-1.4,0l-.6-.3c-.2-.1-.3-.3-.4-.5s-.1-.5-.1-.7c0-.3.1-.6.2-.9.1-.2.4-.5.6-.6l.9-.3c.4-.1.8-.1,1.2-.1h.6v-.6c0-.3-.1-.7-.3-.9-.3-.2-.6-.3-1-.3h-.4c-.2,0-.3,0-.5.1s-.3.1-.5.1c-.1.1-.3.1-.4.2v-.7ZM344.6,320.5c.2,0,.4,0,.6-.1s.3-.1.5-.2l.3-.3c.1-.1.1-.2.2-.3v-1h-1.3c-.2,0-.4.1-.6.2s-.3.2-.4.3c-.1.1-.2.3-.2.5,0,.3.1.5.3.7.2,0,.4.2.6.2Z"/>
  <path class="cls-18" d="M351.4,315.2h.9v-1.2l1-.3v1.5h1.6v.8h-1.6v3.3c0,.3.1.6.2.9.1.2.3.3.5.3s.4,0,.5-.1.3-.1.5-.2l.2.7c-.2.1-.5.2-.7.3-.3.1-.5.1-.8.1-.4.1-.8-.1-1-.4-.2-.4-.3-.9-.3-1.4v-3.4h-.9v-.9h-.1Z"/>
  <path class="cls-18" d="M359.1,316.2c-.2-.1-.5-.1-.7-.1-.3,0-.6.1-.8.3s-.3.4-.4.7v4.2h-1v-6h.7l.2.7h0c.2-.3.3-.5.5-.6s.5-.2.8-.2.5,0,.8.1v.9Z"/>
  <path class="cls-18" d="M360.2,315.7c.3-.2.7-.3,1.1-.4s.9-.1,1.3-.1.7.1,1,.2.4.3.6.4l.3.6c0,.2.1.4.1.6v3.5c0,.3.1.5.1.7h-.7l-.3-.8h-.1l-.3.3c-.1.1-.2.2-.4.3-.2.1-.3.2-.5.2-.5.1-.9.1-1.4,0l-.6-.3c-.2-.1-.3-.3-.4-.5s-.1-.5-.1-.7c0-.3.1-.6.2-.9.1-.2.4-.5.6-.6l.9-.3c.4-.1.8-.1,1.2-.1h.6v-.6c0-.3-.1-.7-.3-.9-.3-.2-.6-.3-1-.3h-.4c-.2,0-.3,0-.5.1s-.3.1-.5.1c-.1.1-.3.1-.4.2v-.7ZM361.9,320.5c.2,0,.4,0,.6-.1s.3-.1.5-.2l.3-.3c.1-.1.1-.2.2-.3v-1h-1.3c-.2,0-.4.1-.6.2s-.3.2-.4.3c-.1.1-.2.3-.2.5,0,.3.1.5.3.7.2,0,.4.2.6.2h0Z"/>
  <path class="cls-18" d="M370.1,321.2v-3.4c0-.5-.1-1-.3-1.4-.2-.3-.6-.5-1-.5s-.8.1-1.1.3c-.3.2-.5.5-.6.9v4.1h-1v-6h.7l.2.7h0c.2-.3.5-.5.8-.6.4-.2.8-.2,1.2-.2s.6,0,.9.1c.2.1.5.2.6.4.2.3.3.5.4.8.1.4.1.8.1,1.2v3.6h-.9Z"/>
  <path class="cls-18" d="M375.5,319.6c0-.2-.1-.4-.2-.6s-.3-.3-.5-.3-.4-.2-.7-.3c-.2-.1-.5-.2-.7-.3-.2-.1-.4-.3-.5-.5s-.2-.5-.2-.8c0-.5.2-1,.5-1.3.4-.3.9-.4,1.4-.4s.7,0,1.1.1c.3.1.5.2.8.3l-.2.8c-.2-.1-.5-.2-.7-.2-.3-.1-.5-.1-.8-.1s-.6.1-.8.2c-.2.1-.2.3-.2.6s.1.4.2.5c.2.1.3.2.5.3.2.1.5.2.7.3s.5.2.7.3c.2.1.4.3.5.5.1.3.2.6.2.9s0,.5-.1.7-.2.4-.4.6c-.2.2-.4.3-.7.4-.3.1-.6.1-.9.1s-.8,0-1.2-.1c-.3-.1-.5-.2-.8-.3l.3-.8c.2.1.5.2.7.3.3.1.6.1.9.1s.6-.1.9-.2c.2-.2.2-.5.2-.8Z"/>
  <path class="cls-18" d="M377.9,315.2h.7l.2.7h0c.2-.3.4-.5.7-.6.3-.1.7-.2,1-.2.7-.1,1.3.2,1.8.7.5.7.7,1.5.6,2.3,0,.5-.1.9-.2,1.4-.1.4-.3.7-.6,1-.2.3-.5.5-.9.6-.3.2-.7.2-1.1.2s-.5,0-.7-.1-.4-.1-.6-.2v2.5h-1v-8.3h.1ZM380.3,315.9c-.4,0-.7.1-1,.3-.3.3-.4.6-.5,1v3c.2.1.3.2.5.3.7.2,1.5,0,2-.5.4-.5.5-1.2.5-1.8s0-.6-.1-.9-.1-.5-.3-.7c-.1-.2-.3-.3-.5-.4,0-.2-.3-.3-.6-.3h0Z"/>
  <path class="cls-18" d="M384.3,315.7c.3-.2.7-.3,1.1-.4s.9-.1,1.3-.1.7.1,1,.2c.2.1.4.3.6.4l.3.6c0,.2.1.4.1.6v3.5c0,.3.1.5.1.7h-.7l-.3-.8h-.2l-.3.3c-.1.1-.2.2-.4.3-.2.1-.3.2-.5.2-.5.1-.9.1-1.4,0l-.6-.3c-.2-.1-.3-.3-.4-.5s-.1-.5-.1-.7c0-.3.1-.6.2-.9.1-.2.4-.5.6-.6l.9-.3c.4-.1.8-.1,1.2-.1h.6v-.6c0-.3-.1-.7-.3-.9-.3-.2-.6-.3-1-.3h-.4c-.2,0-.3,0-.5.1s-.3.1-.5.1c-.1.1-.3.1-.4.2v-.7ZM386,320.5c.2,0,.4,0,.6-.1s.3-.1.5-.2l.3-.3c.1-.1.1-.2.2-.3v-1h-1.3c-.2,0-.4.1-.6.2s-.3.2-.4.3c-.1.1-.2.3-.2.5,0,.3.1.5.3.7,0,0,.3.2.6.2h0Z"/>
  <path class="cls-18" d="M393.2,316.2c-.2-.1-.5-.1-.7-.1-.3,0-.6.1-.8.3s-.3.4-.4.7v4.2h-1v-6h.7l.2.7h0c.2-.3.3-.5.5-.6s.5-.2.8-.2.5,0,.8.1v.9Z"/>
  <path class="cls-18" d="M398.8,320.7c-.3.2-.6.4-.9.5-.4.1-.8.2-1.2.2s-.8-.1-1.2-.2c-.3-.1-.6-.3-.8-.6-.2-.3-.4-.6-.5-1s-.2-.9-.2-1.3c-.1-.8.2-1.7.7-2.3.5-.5,1.2-.8,2-.8s.5,0,.8.1c.2.1.5.2.7.3.2.2.4.4.5.7.1.4.2.8.2,1.2s0,.6-.1.9h-3.9c0,.3,0,.6.1.9.1.2.2.5.3.7.2.2.4.3.6.4.6.1,1.1.1,1.7,0,.2-.1.4-.2.6-.3l.6.6ZM396.7,315.9c-.4-.1-.8.1-1.1.4-.3.4-.5.8-.5,1.3h3c0-.5-.1-.9-.3-1.3-.3-.3-.7-.4-1.1-.4h0Z"/>
  <path class="cls-18" d="M404.4,321.2v-3.4c0-.5-.1-1-.3-1.4-.2-.3-.6-.5-1-.5s-.8.1-1.1.3c-.3.2-.5.5-.6.9v4.1h-1v-6h.7l.2.7h0c.2-.3.5-.5.8-.6.4-.2.8-.2,1.2-.2s.6,0,.9.1c.2.1.5.2.6.4.2.3.3.5.4.8.1.4.1.8.1,1.2v3.6h-.9Z"/>
  <path class="cls-18" d="M406.3,315.2h.9v-1.2l1-.3v1.5h1.6v.8h-1.6v3.3c0,.3.1.6.2.9.1.2.3.3.5.3s.4,0,.5-.1.3-.1.5-.2l.2.7c-.2.1-.5.2-.7.3-.3.1-.5.1-.8.1-.4.1-.8-.1-1-.4-.2-.4-.3-.9-.3-1.4v-3.4h-.9v-.9h-.1Z"/>
  <path class="cls-18" d="M415.4,320.7c-.3.2-.6.4-.9.5-.4.1-.8.2-1.2.2s-.8-.1-1.2-.2c-.3-.1-.6-.3-.8-.6-.2-.3-.4-.6-.5-1s-.2-.9-.2-1.3c-.1-.8.2-1.7.7-2.3.5-.5,1.2-.8,2-.8s.5,0,.8.1c.2.1.5.2.7.3.2.2.4.4.5.7.1.4.2.8.2,1.2s0,.6-.1.9h-3.9c0,.3,0,.6.1.9.1.2.2.5.3.7.2.2.4.3.6.4.6.1,1.1.1,1.7,0,.2-.1.4-.2.6-.3l.6.6ZM413.3,315.9c-.4-.1-.8.1-1.1.4-.4.3-.5.8-.5,1.3h3c0-.5-.1-.9-.3-1.3-.3-.3-.7-.4-1.1-.4h0Z"/>
  <path class="cls-18" d="M424.9,319.2v1.1c0,.3,0,.7.1,1h-.6l-.2-.9h0c-.2.3-.4.5-.7.7-.3.2-.7.3-1.1.3-.7,0-1.4-.3-1.8-.8-.5-.7-.7-1.6-.6-2.4-.1-.8.2-1.7.7-2.3.5-.5,1.3-.8,2-.8h.7c.2,0,.4.1.6.2v-2.5h1v6.4h-.1ZM422.5,320.5c.4,0,.7-.1,1-.3.3-.3.4-.6.5-1v-3c-.1-.1-.3-.2-.5-.2s-.4-.1-.7-.1c-.5,0-1,.2-1.3.5-.4.5-.5,1.1-.5,1.7s0,.6.1.9.1.5.3.7.3.4.5.5c.1.3.3.3.6.3Z"/>
  <path class="cls-18" d="M431.2,320.7c-.3.2-.6.4-.9.5-.4.1-.8.2-1.2.2s-.8-.1-1.2-.2c-.3-.1-.6-.3-.8-.6-.2-.3-.4-.6-.5-1s-.2-.9-.2-1.3c-.1-.8.2-1.7.7-2.3.5-.5,1.2-.8,2-.8s.5,0,.8.1c.2.1.5.2.7.3.2.2.4.4.5.7.1.4.2.8.2,1.2s0,.6-.1.9h-3.9c0,.3,0,.6.1.9.1.2.2.5.3.7.2.2.4.3.6.4.6.1,1.1.1,1.7,0,.2-.1.4-.2.6-.3l.6.6ZM429.1,315.9c-.4-.1-.8.1-1.1.4-.4.3-.5.8-.5,1.3h3c0-.5-.1-.9-.3-1.3-.3-.3-.7-.4-1.1-.4h0Z"/>
  <path class="cls-18" d="M291.9,334c0-.2-.1-.4-.2-.6s-.3-.3-.5-.3c-.2-.1-.5-.2-.7-.3s-.5-.2-.7-.3c-.2-.1-.4-.3-.5-.5s-.2-.5-.2-.8c0-.5.2-1,.5-1.3.4-.3.9-.4,1.4-.4s.7,0,1.1.1c.3.1.5.2.8.3l-.2.8c-.2-.1-.5-.2-.7-.2-.3-.1-.5-.1-.8-.1s-.6.1-.8.2c-.2.1-.2.3-.2.6s.1.4.2.5c.2.1.3.2.5.3.2.1.5.2.7.3s.5.2.7.3c.2.1.4.3.5.5.1.3.2.6.2.9s0,.5-.1.7-.2.4-.4.6c-.2.2-.4.3-.7.4-.3.1-.6.1-.9.1s-.8,0-1.2-.1c-.3-.1-.5-.2-.8-.3l.3-.8c.2.1.5.2.7.3.3.1.6.1.9.1s.6-.1.9-.2c.2-.2.2-.5.2-.8Z"/>
  <path class="cls-18" d="M293.5,329.6h.9v-1.2l1-.3v1.5h1.6v.8h-1.6v3.3c0,.3.1.6.2.9.1.2.3.3.5.3s.4,0,.5-.1.3-.1.5-.2l.2.7c-.2.1-.5.2-.7.3-.3.1-.5.1-.8.1-.4.1-.8-.1-1-.4-.2-.4-.3-.9-.3-1.4v-3.5h-.9v-.8h-.1Z"/>
  <path class="cls-18" d="M303,333.6v1.1c0,.3,0,.7.1,1h-.6l-.2-.9h0c-.2.3-.4.5-.7.7-.3.2-.7.3-1.1.3-.7,0-1.4-.3-1.8-.8-.5-.7-.7-1.6-.6-2.4-.1-.8.2-1.7.7-2.3.5-.5,1.3-.8,2-.8h.7c.2,0,.4.1.6.2v-2.5h1v6.4h-.1ZM300.6,334.9c.4,0,.7-.1,1-.3.3-.2.4-.5.5-1v-3c-.1-.1-.3-.2-.5-.2s-.4-.1-.7-.1c-.5,0-1,.2-1.3.5-.4.5-.5,1.1-.5,1.7s0,.6.1.9.1.5.3.7c.1.2.3.4.5.5.1.3.3.3.6.3h0Z"/>
  <path class="cls-18" d="M304.9,327.8c0-.2.1-.3.2-.5s.3-.2.5-.2c.4,0,.7.3.7.7h0c0,.2-.1.3-.2.5-.3.3-.7.3-1,0-.1,0-.2-.3-.2-.5ZM305.1,329.6h1v6h-1v-6Z"/>
  <path class="cls-18" d="M311.9,335.6v-3.4c0-.5-.1-1-.3-1.4-.2-.3-.6-.5-1-.5s-.7.1-1,.3c-.3.2-.5.5-.6.9v4.1h-1v-6h.7l.2.7h0c.2-.3.5-.5.8-.6.4-.2.8-.2,1.2-.2s.6,0,.9.1c.2.1.5.2.6.4.2.3.3.5.4.8.1.4.1.8.1,1.2v3.6h-1Z"/>
  <path class="cls-18" d="M314.3,335.1c0-.2.1-.3.2-.5.1-.1.3-.2.5-.2s.5.1.6.3c.2.2.2.4.2.8s0,.5-.1.8l-.3.6c-.1.2-.3.3-.4.4s-.3.2-.5.2l-.3-.5c.3-.1.5-.3.6-.5s.2-.5.2-.7h-.2c-.2,0-.3-.1-.4-.2,0-.2,0-.3-.1-.5Z"/>
  <path class="cls-18" d="M322.2,334c0-.2-.1-.4-.2-.6s-.3-.3-.5-.3-.4-.2-.7-.3c-.2-.1-.5-.2-.7-.3-.2-.1-.4-.3-.5-.5s-.2-.5-.2-.8c0-.5.2-1,.5-1.3.4-.3.9-.4,1.4-.4s.7,0,1.1.1c.3.1.5.2.8.3l-.2.8c-.2-.1-.5-.2-.7-.2-.3-.1-.5-.1-.8-.1s-.6.1-.8.2c-.2.1-.2.3-.2.6s.1.4.2.5c.2.1.3.2.5.3.2.1.5.2.7.3s.5.2.7.3c.2.1.4.3.5.5.1.3.2.6.2.9s0,.5-.1.7-.2.4-.4.6c-.2.2-.4.3-.7.4-.3.1-.6.1-.9.1s-.8,0-1.2-.1c-.3-.1-.5-.2-.8-.3l.3-.8c.2.1.5.2.7.3.3.1.6.1.9.1s.6-.1.9-.2c.2-.2.2-.5.2-.8Z"/>
  <path class="cls-18" d="M323.9,329.6h.9v-1.2l1-.3v1.5h1.6v.8h-1.6v3.3c0,.3.1.6.2.9.1.2.3.3.5.3s.4,0,.5-.1c.2,0,.3-.1.5-.2l.2.7c-.2.1-.5.2-.7.3-.3.1-.5.1-.8.1-.4.1-.8-.1-1-.4-.2-.4-.3-.9-.3-1.4v-3.5h-.9v-.8h-.1Z"/>
  <path class="cls-18" d="M333.3,333.6v1.1c0,.3,0,.7.1,1h-.6l-.2-.9h0c-.2.3-.4.5-.7.7-.3.2-.7.3-1.1.3-.7,0-1.4-.3-1.8-.8-.5-.7-.7-1.6-.6-2.4-.1-.8.2-1.7.7-2.3.5-.5,1.2-.8,2-.8h.7c.2,0,.4.1.6.2v-2.5h1v6.4h-.1ZM330.9,334.9c.4,0,.7-.1,1-.3.3-.2.4-.5.5-1v-3c-.1-.1-.3-.2-.5-.2s-.4-.1-.7-.1c-.5,0-1,.2-1.3.5-.4.5-.5,1.1-.5,1.7s0,.6.1.9.1.5.3.7.3.4.5.5c.1.3.3.3.6.3Z"/>
  <path class="cls-18" d="M334.8,332.6c-.1-.8.2-1.7.7-2.3.5-.5,1.2-.8,1.9-.8s.8.1,1.2.2c.3.1.6.3.8.6.2.3.4.6.5,1s.2.9.2,1.3c.1.8-.2,1.7-.7,2.3-.5.5-1.2.8-2,.8s-.8-.1-1.2-.2c-.3-.1-.6-.3-.8-.6-.2-.3-.4-.6-.5-1s-.1-.9-.1-1.3ZM335.8,332.6c0,.3,0,.6.1.9.1.2.2.5.3.7.1.2.3.4.5.5s.5.2.8.2c1.1,0,1.6-.8,1.6-2.3s0-.6-.1-.9c-.1-.2-.2-.5-.3-.7-.1-.2-.3-.4-.5-.5s-.5-.2-.8-.2c-1,0-1.6.8-1.6,2.3Z"/>
  <path class="cls-18" d="M342.5,329.6v3.4c0,.3,0,.5.1.8,0,.2.1.4.2.6s.2.3.4.4c.2.1.4.1.6.1s.4,0,.6-.1.3-.2.5-.3.2-.3.3-.4.2-.3.2-.5v-4h1v5.2c0,.3.1.6.1.8h-.7l-.2-.9h-.1c-.2.3-.4.6-.7.8-.4.2-.8.3-1.2.3s-.5,0-.8-.1c-.2-.1-.4-.2-.6-.4-.2-.2-.3-.5-.4-.8-.1-.4-.1-.8-.1-1.2v-3.6h.8Z"/>
  <path class="cls-18" d="M347.3,329.6h.9v-1.2l1-.3v1.5h1.6v.8h-1.6v3.3c0,.3.1.6.2.9.1.2.3.3.5.3s.4,0,.5-.1.3-.1.5-.2l.2.7c-.2.1-.5.2-.7.3-.3.1-.5.1-.8.1-.4.1-.8-.1-1-.4-.2-.4-.3-.9-.3-1.4v-3.5h-.9v-.8h-.1Z"/>
  <path class="cls-18" d="M352,335.1c0-.2.1-.3.2-.5.1-.1.3-.2.5-.2s.5.1.6.3c.2.2.2.4.2.8s0,.5-.1.8c-.1.2-.2.4-.3.6-.1.2-.3.3-.4.4s-.3.2-.5.2l-.3-.5c.3-.1.5-.3.6-.5s.2-.5.2-.7h-.2c-.2,0-.3-.1-.4-.2,0-.2-.1-.3-.1-.5Z"/>
  <path class="cls-18" d="M359.9,334c0-.2-.1-.4-.2-.6s-.3-.3-.5-.3-.4-.2-.7-.3c-.2-.1-.5-.2-.7-.3-.2-.1-.4-.3-.5-.5s-.2-.5-.2-.8c0-.5.2-1,.5-1.3.4-.3.9-.4,1.4-.4s.7,0,1.1.1c.3.1.5.2.8.3l-.2.8c-.2-.1-.5-.2-.7-.2-.3-.1-.5-.1-.8-.1s-.6.1-.8.2c-.2.1-.2.3-.2.6s.1.4.2.5c.2.1.3.2.5.3.2.1.5.2.7.3s.5.2.7.3c.2.1.4.3.5.5.1.3.2.6.2.9s0,.5-.1.7-.2.4-.4.6c-.2.2-.4.3-.7.4-.3.1-.6.1-.9.1s-.8,0-1.2-.1c-.3-.1-.5-.2-.8-.3l.3-.8c.2.1.5.2.7.3.3.1.6.1.9.1s.6-.1.9-.2c.2-.2.2-.5.2-.8Z"/>
  <path class="cls-18" d="M361.6,329.6h.9v-1.2l1-.3v1.5h1.6v.8h-1.6v3.3c0,.3.1.6.2.9.1.2.3.3.5.3s.4,0,.5-.1c.2,0,.3-.1.5-.2l.2.7c-.2.1-.5.2-.7.3-.3.1-.5.1-.8.1-.4.1-.8-.1-1-.4-.2-.4-.3-.9-.3-1.4v-3.5h-1v-.8Z"/>
  <path class="cls-18" d="M371,333.6v1.1c0,.3,0,.7.1,1h-.6l-.2-.9h0c-.2.3-.4.5-.7.7-.3.2-.7.3-1.1.3-.7,0-1.4-.3-1.8-.8-.5-.7-.7-1.6-.6-2.4-.1-.8.2-1.7.7-2.3.5-.5,1.2-.8,2-.8h.7c.2,0,.4.1.6.2v-2.5h1v6.4h-.1ZM368.6,334.9c.4,0,.7-.1,1-.3.3-.2.4-.5.5-1v-3c-.1-.1-.3-.2-.5-.2s-.4-.1-.7-.1c-.5,0-1,.2-1.3.5-.4.5-.5,1.1-.5,1.7s0,.6.1.9.1.5.3.7.3.4.5.5c.1.3.3.3.6.3h0Z"/>
  <path class="cls-18" d="M377.3,335.1c-.3.2-.6.4-.9.5-.4.1-.8.2-1.2.2s-.8-.1-1.2-.2c-.3-.1-.6-.3-.8-.6-.2-.3-.4-.6-.5-1s-.2-.9-.2-1.3c-.1-.8.2-1.7.7-2.3.5-.5,1.2-.8,2-.8s.5,0,.8.1c.2.1.5.2.7.3.2.2.4.4.5.7.1.4.2.8.2,1.2s0,.6-.1.9h-3.9c0,.3,0,.6.1.9.1.2.2.5.3.7.2.2.4.3.6.4.6.1,1.1.1,1.7,0,.2-.1.4-.2.6-.3l.6.6ZM375.2,330.3c-.4-.1-.8.1-1.1.4-.4.3-.5.8-.5,1.3h3c0-.5-.1-.9-.3-1.3-.3-.3-.7-.4-1.1-.4h0Z"/>
  <path class="cls-18" d="M381.8,330.6c-.2-.1-.5-.1-.7-.1-.3,0-.6.1-.8.3s-.3.4-.4.7v4.2h-1v-6h.7l.2.7h0c.2-.3.3-.5.5-.6s.5-.2.8-.2.5,0,.8.1v.9Z"/>
  <path class="cls-18" d="M385.9,330.6c-.2-.1-.5-.1-.7-.1-.3,0-.6.1-.8.3s-.3.4-.4.7v4.2h-1v-6h.7l.2.7h0c.2-.3.3-.5.5-.6s.5-.2.8-.2.5,0,.8.1v.9Z"/>
  <path class="cls-11" d="M403.4,247.8h0l-2.1,5.8h-1.1l-2.1-5.8h0l.2,3.4v1.2l.8.2v.9h-3.2v-.9l.8-.2v-5.6l-.8-.2v-.9h2.8l2,5.8h0l2-5.8h2.9v.9l-.8.2v5.6l.8.2v.9h-3.2v-.9l.8-.2v-1.2l.2-3.4Z"/>
  <path class="cls-11" d="M406.2,252.7l.8-.2v-3.6l-.8-.2v-.9h2.4v4.7l.8.2v.9h-3.1v-.9h0ZM408.5,246.4h-1.6v-1.2h1.6v1.2Z"/>
  <path class="cls-11" d="M412.5,252.5c.2,0,.5-.1.7-.2.2-.2.3-.4.3-.7h1.4c0,.6-.2,1.1-.7,1.5s-1.1.6-1.7.6-1.5-.3-2-.8c-.5-.6-.7-1.3-.7-2.1v-.2c-.1-.8.2-1.5.7-2.1.6-.5,1.3-.8,2.1-.8s.9.1,1.3.2c.4.1.7.3.9.6v1.6h-1.3l-.3-.9c-.1-.1-.2-.1-.3-.2s-.2-.1-.4-.1c-.4,0-.7.2-.9.5-.2.4-.3.8-.3,1.2v.2c0,.5.1.9.3,1.3.2.3.6.4.9.4Z"/>
  <path class="cls-11" d="M415.7,252.7l.8-.2v-3.6l-.8-.2v-.9h2.3v.8c.2-.3.4-.5.6-.7s.4-.3.7-.3h.5l-.2,1.4h-.6c-.2,0-.4,0-.6.1s-.3.2-.3.4v2.8l.8.2v.9h-3.1v-.7h0Z"/>
  <path class="cls-11" d="M420.1,250.7c-.1-.8.2-1.5.7-2.1s1.2-.9,2-.8c.8,0,1.5.3,2,.8.5.6.7,1.3.7,2.1h0c.2,1.5-.9,2.8-2.3,3h-.4c-.8,0-1.5-.3-2-.8-.5-.6-.7-1.3-.7-2.2h0ZM421.7,250.8c0,.5.1.9.3,1.3.3.5,1,.6,1.5.3.1-.1.3-.2.3-.3.2-.4.3-.8.3-1.3h0c0-.6-.1-1-.3-1.4-.3-.5-1-.6-1.5-.3-.1.1-.3.2-.3.3-.2.4-.3.8-.3,1.3h0Z"/>
  <path class="cls-11" d="M431,249.8h-1.1l-.2-.7c-.1-.1-.2-.2-.4-.2-.2-.1-.3-.1-.5-.1s-.5.1-.7.2c-.2.1-.2.3-.2.5s.1.3.2.4c.3.1.6.2.9.3.6.1,1.1.3,1.6.6.3.3.5.7.5,1.1s-.2,1-.7,1.3-1.2.5-1.8.5-.8-.1-1.2-.2c-.4-.1-.7-.3-1-.6v-1.3h1.1l.2.8c.1.1.2.1.4.2s.3.1.5.1.5-.1.7-.2c.2-.1.3-.3.3-.5s-.1-.3-.3-.4c-.3-.1-.6-.2-.9-.3-.6,0-1.1-.2-1.5-.6-.3-.3-.5-.7-.5-1.1s.2-1,.6-1.3c.5-.4,1.1-.6,1.7-.5.4,0,.9.1,1.3.2.3.1.7.3.9.5v1.3Z"/>
  <path class="cls-11" d="M436.7,249.8h-1.1l-.2-.7c-.1-.1-.2-.2-.4-.2-.2-.1-.3-.1-.5-.1s-.5.1-.7.2c-.2.1-.2.3-.2.5s.1.3.2.4c.3.1.6.2.9.3.6.1,1.1.3,1.6.6.3.3.5.7.5,1.1s-.2,1-.7,1.3-1.2.5-1.8.5-.8-.1-1.2-.2c-.4-.1-.7-.3-1-.6v-1.3h1.1l.2.8c.1.1.2.1.4.2s.3.1.5.1.5-.1.7-.2c.2-.1.3-.3.3-.5s-.1-.3-.3-.4c-.3-.1-.6-.2-.9-.3-.6,0-1.1-.2-1.5-.6-.3-.3-.5-.7-.5-1.1s.2-1,.6-1.3c.5-.4,1.1-.6,1.7-.5.4,0,.9.1,1.3.2.3.1.7.3.9.5v1.3Z"/>
  <path class="cls-11" d="M440.4,253.7c-1.5,0-2.8-1.2-2.8-2.7h0v-.3c-.1-.8.2-1.5.7-2.1s1.2-.9,1.9-.8c.7-.1,1.3.2,1.8.7.4.5.6,1.2.6,1.9v.9h-3.5c0,.7.6,1.3,1.3,1.3s.6,0,.9-.1.5-.2.8-.3l.4,1c-.3.2-.6.4-.9.5h-1.2ZM440.2,248.9c-.3,0-.5.1-.7.3s-.3.6-.3.9h1.9c0-.4-.1-.7-.2-.9s-.3-.3-.7-.3h0Z"/>
  <path class="cls-11" d="M443.6,252.7l.8-.2v-3.6l-.8-.2v-.9h2.3v.8c.2-.3.4-.5.6-.7s.4-.3.7-.3h.5l-.2,1.4h-.6c-.2,0-.4,0-.6.1s-.3.2-.3.4v2.8l.8.2v.9h-3.2v-.7Z"/>
  <path class="cls-11" d="M450.7,248.7h-.5c0,.1.8,2.7.8,2.7v.5h.1v-.5c.1,0,.9-2.6.9-2.6h-.6v-1h2.6v.9h-.5c0,.1-1.7,4.9-1.7,4.9h-1.5l-1.7-4.8h-.5v-1h2.6v.9h0Z"/>
  <path class="cls-11" d="M454.4,252.7l.8-.2v-3.6l-.8-.2v-.9h2.4v4.7l.8.2v.9h-3.1v-.9h0ZM456.7,246.4h-1.6v-1.2h1.6v1.2Z"/>
  <path class="cls-11" d="M460.7,252.5c.2,0,.5-.1.7-.2.2-.2.3-.4.3-.7h1.4c0,.6-.2,1.1-.7,1.5s-1.1.6-1.7.6-1.5-.3-2-.8c-.5-.6-.7-1.3-.7-2.1v-.2c-.1-.8.2-1.5.7-2.1.6-.5,1.3-.8,2.1-.8s.9.1,1.3.2c.4.1.7.3.9.6v1.6h-1.3l-.3-.9c-.1-.1-.2-.1-.3-.2s-.2-.1-.4-.1c-.4,0-.7.2-.9.5-.2.4-.3.8-.3,1.2v.2c0,.5.1.9.3,1.3.2.3.6.4.9.4ZM461.2,253.6v.3c.1,0,.3.1.5.3.2.1.2.4.2.6,0,.4-.2.7-.5.9-.4.2-.9.3-1.4.3v-.9c.2,0,.3,0,.4-.1s.2-.2.2-.3-.1-.3-.2-.3-.3-.1-.6-.1l.2-.8h1.2,0Z"/>
  <path class="cls-11" d="M463.8,250.7c-.1-.8.2-1.5.7-2.1s1.2-.9,2-.8c.8,0,1.5.3,2,.8.5.6.7,1.3.7,2.1h0c.2,1.5-.9,2.8-2.3,3h-.4c-.8,0-1.5-.3-2-.8-.5-.6-.7-1.3-.7-2.2h0ZM465.4,250.8c0,.5.1.9.3,1.3.3.5,1,.6,1.5.3.1-.1.3-.2.3-.3.2-.4.3-.8.3-1.3h0c0-.6-.1-1-.3-1.4-.3-.5-1-.6-1.5-.3-.1.1-.3.2-.3.3-.2.4-.3.8-.3,1.3h0Z"/>
  <path class="cls-11" d="M181.6,247.8h0l-2.1,5.8h-1.1l-2.1-5.8h0l.2,3.4v1.2l.8.2v.9h-3.2v-.9l.8-.2v-5.6l-.8-.2v-.9h2.8l2,5.8h0l2-5.8h2.9v.9l-.8.2v5.6l.8.2v.9h-3.2v-.9l.8-.2v-1.2l.2-3.4Z"/>
  <path class="cls-11" d="M184.4,252.7l.8-.2v-3.6l-.8-.2v-.9h2.4v4.7l.8.2v.9h-3.1v-.9h0ZM186.7,246.4h-1.6v-1.2h1.6v1.2Z"/>
  <path class="cls-11" d="M190.7,252.5c.2,0,.5-.1.7-.2.2-.2.3-.4.3-.7h1.4c0,.6-.2,1.1-.7,1.5s-1.1.6-1.7.6-1.5-.3-2-.8c-.5-.6-.7-1.3-.7-2.1v-.2c-.1-.8.2-1.5.7-2.1s1.3-.9,2.1-.8c.4,0,.9.1,1.3.2.4.1.7.3.9.6v1.6h-1.3l-.3-.9c-.1-.1-.2-.1-.3-.2s-.2-.1-.4-.1c-.4,0-.7.2-.9.5-.2.4-.3.8-.3,1.2v.2c0,.5.1.9.3,1.3.2.3.6.4.9.4Z"/>
  <path class="cls-11" d="M193.9,252.7l.8-.2v-3.6l-.8-.2v-.9h2.3v.8c.2-.3.4-.5.6-.7s.4-.3.7-.3h.5l-.2,1.4h-.6c-.2,0-.4,0-.6.1-.2.1-.3.2-.3.4v2.8l.8.2v.9h-3.1v-.7h-.1Z"/>
  <path class="cls-11" d="M198.3,250.7c-.1-.8.2-1.5.7-2.1s1.2-.9,2-.8c.8,0,1.5.3,2,.8.5.6.7,1.3.7,2.1h0c.2,1.5-.9,2.8-2.3,3h-.4c-.8,0-1.5-.3-2-.8-.5-.6-.7-1.3-.7-2.2h0ZM199.9,250.8c0,.5.1.9.3,1.3.3.5,1,.6,1.5.3.1-.1.3-.2.3-.3.2-.4.3-.8.3-1.3h0c0-.6-.1-1-.3-1.4-.2-.3-.5-.5-.9-.5s-.7.2-.9.5c-.2.4-.3.8-.3,1.3h0Z"/>
  <path class="cls-11" d="M209.2,249.8h-1.1l-.2-.7c-.1-.1-.2-.2-.4-.2-.2-.1-.3-.1-.5-.1s-.5.1-.7.2c-.2.1-.2.3-.2.5s.1.3.2.4c.3.1.6.2.9.3.6.1,1.1.3,1.6.6.3.3.5.7.5,1.1s-.2,1-.7,1.3c-.5.4-1.2.5-1.8.5s-.8-.1-1.2-.2c-.4-.1-.7-.3-1-.6v-1.3h1.1l.2.8c.1.1.2.1.4.2s.3.1.5.1.5-.1.7-.2c.2-.1.2-.3.2-.5s-.1-.3-.3-.4c-.3-.1-.6-.2-.9-.3-.6,0-1.1-.2-1.5-.6-.3-.3-.5-.7-.5-1.1s.2-1,.6-1.3c.5-.4,1.1-.6,1.7-.5.4,0,.9.1,1.3.2.3.1.7.3.9.5l.2,1.3Z"/>
  <path class="cls-11" d="M214.9,249.8h-1.1l-.2-.7c-.1-.1-.2-.2-.4-.2-.2-.1-.3-.1-.5-.1s-.5.1-.7.2c-.2.1-.2.3-.2.5s.1.3.2.4c.3.1.6.2.9.3.6.1,1.1.3,1.6.6.3.3.5.7.5,1.1s-.2,1-.7,1.3c-.5.4-1.2.5-1.8.5s-.8-.1-1.2-.2c-.4-.1-.7-.3-1-.6v-1.3h1.1l.2.8c.1.1.2.1.4.2s.3.1.5.1.5-.1.7-.2c.2-.1.2-.3.2-.5s-.1-.3-.3-.4c-.3-.1-.6-.2-.9-.3-.6,0-1.1-.2-1.5-.6-.3-.3-.5-.7-.5-1.1s.2-1,.6-1.3c.5-.4,1.1-.6,1.7-.5.4,0,.9.1,1.3.2.3.1.7.3.9.5l.2,1.3Z"/>
  <path class="cls-11" d="M218.6,253.7c-1.5,0-2.8-1.2-2.8-2.7h0v-.3c-.1-.8.2-1.5.7-2.1s1.2-.9,1.9-.8c.7-.1,1.3.2,1.8.7.4.5.6,1.2.6,1.9v.9h-3.5c0,.7.6,1.3,1.3,1.3s.6,0,.9-.1c.3-.1.5-.2.8-.3l.4,1c-.3.2-.6.4-.9.5h-1.2ZM218.4,248.9c-.3,0-.5.1-.7.3s-.3.6-.3.9h1.9c0-.4-.1-.7-.2-.9s-.4-.3-.7-.3h0Z"/>
  <path class="cls-11" d="M221.8,252.7l.8-.2v-3.6l-.8-.2v-.9h2.3v.8c.2-.3.4-.5.6-.7s.4-.3.7-.3h.5l-.2,1.4h-.6c-.2,0-.4,0-.6.1-.2.1-.3.2-.3.4v2.8l.8.2v.9h-3.1v-.7h0Z"/>
  <path class="cls-11" d="M228.8,248.7h-.5c0,.1.8,2.7.8,2.7v.5h.1v-.5c.1,0,.9-2.6.9-2.6h-.6v-1h2.6v.9h-.5c0,.1-1.7,4.9-1.7,4.9h-1.5l-1.7-4.8h-.5v-1h2.6v.9h0Z"/>
  <path class="cls-11" d="M232.6,252.7l.8-.2v-3.6l-.8-.2v-.9h2.4v4.7l.8.2v.9h-3.2v-.9ZM234.9,246.4h-1.6v-1.2h1.6v1.2Z"/>
  <path class="cls-11" d="M238.9,252.5c.2,0,.5-.1.7-.2.2-.2.3-.4.3-.7h1.4c0,.6-.2,1.1-.7,1.5s-1.1.6-1.7.6-1.5-.3-2-.8c-.5-.6-.7-1.3-.7-2.1v-.2c-.1-.8.2-1.5.7-2.1s1.3-.9,2.1-.8c.4,0,.9.1,1.3.2.4.1.7.3.9.6v1.6h-1.3l-.3-.9c-.1-.1-.2-.1-.3-.2s-.2-.1-.4-.1c-.4,0-.7.2-.9.5-.2.4-.3.8-.3,1.2v.2c0,.5.1.9.3,1.3.2.3.6.4.9.4ZM239.4,253.6v.3c0,0,.3.1.5.3.2.1.2.4.2.6,0,.4-.2.7-.5.9-.4.2-.9.3-1.4.3v-.9c.2,0,.3,0,.4-.1s.2-.2.2-.3-.1-.3-.2-.3-.3-.1-.6-.1l.2-.8h1.2Z"/>
  <path class="cls-11" d="M242,250.7c-.1-.8.2-1.5.7-2.1s1.2-.9,2-.8c.8,0,1.5.3,2,.8.5.6.7,1.3.7,2.1h0c.2,1.5-.9,2.8-2.3,3h-.4c-.8,0-1.5-.3-2-.8-.5-.6-.7-1.3-.7-2.2h0ZM243.6,250.8c0,.5.1.9.3,1.3.3.5,1,.6,1.5.3.1-.1.3-.2.3-.3.2-.4.3-.8.3-1.3h0c0-.6-.1-1-.3-1.4-.2-.3-.5-.5-.9-.5s-.7.2-.9.5c-.2.4-.3.8-.3,1.3h0Z"/>
  <path class="cls-11" d="M178.5,61.4h-1.2l-.2-1c-.2-.2-.4-.3-.6-.4-.3,0-.5,0-.8,0-.6,0-1.2.2-1.6.7-.4.5-.6,1.2-.6,1.9v.3c0,.7.2,1.3.5,1.9.3.5.9.7,1.5.7s.5,0,.8,0c.2,0,.5-.2.6-.4l.2-1h1.2v1.5c-.3.4-.7.7-1.2.9-.5.2-1.1.3-1.6.3-1,0-1.9-.4-2.6-1.1-.7-.8-1.1-1.8-1-2.8v-.3c-.1-1,.3-2,1-2.8.7-.7,1.6-1.1,2.6-1.1s1.1,0,1.6.3.9.5,1.2.9v1.7h.2Z"/>
  <path class="cls-11" d="M179.3,63.7c-.1-.8.2-1.5.7-2.1s1.2-.9,2-.8c.8,0,1.5.3,2,.8.5.6.7,1.3.7,2.1h0c.2,1.5-.9,2.8-2.3,3h-.4c-.8,0-1.5-.3-2-.8-.5-.6-.7-1.3-.7-2.2h0ZM180.8,63.8c0,.5.1.9.3,1.3.3.5,1,.6,1.5.3.1,0,.3-.2.3-.3.2-.4.3-.8.3-1.3h0c0-.6-.1-1-.3-1.4-.2-.3-.5-.5-.9-.5s-.7.2-.9.5c-.2.4-.3.8-.3,1.4h0Z"/>
  <path class="cls-11" d="M185.3,65.7l.8-.2v-3.6l-.8-.2v-.9h2.3v.8c.3-.3.5-.5.8-.7s.7-.2,1-.2c.5,0,1,.2,1.4.6.4.5.5,1.1.5,1.7v2.5l.8.2v.9h-3v-.9l.7-.2v-2.5c0-.3,0-.6-.2-.8-.2,0-.5-.2-.7-.2s-.4,0-.6,0c-.2,0-.3.2-.4.4v3.1l.6.2v.9h-3v-1h-.2Z"/>
  <path class="cls-11" d="M192.2,61.9v-1.1h.9v-.4c0-.6.2-1.3.7-1.7s1.2-.6,1.9-.6.5,0,.8,0c.2,0,.6,0,.9.2l-.2,1.2c-.2,0-.5,0-.7-.2-.2,0-.5,0-.7,0-.3,0-.6,0-.8.2-.2.2-.3.4-.3.7v.4h3.5v4.7l.8.2v.9h-3.2v-.9l.8-.2v-3.6h-2v3.6l.8.2v.9h-3.2v-.9l.8-.2v-3.6h-.8v.2Z"/>
  <path class="cls-11" d="M199.7,63.8c0-.8.2-1.6.6-2.2.4-.6,1-.9,1.7-.8.3,0,.6,0,.9.2.2,0,.5.4.6.6v-.7h1.5v5.6c.1.7-.2,1.3-.7,1.8s-1.3.8-2,.7c-.3,0-.6,0-.9,0l-.9-.3.3-1.1c.3,0,.5.2.8.3.3,0,.5,0,.8,0s.7,0,.9-.3c.2-.3.3-.6.3-1v-.5c-.2.2-.4.4-.6.5-.2,0-.5.2-.8.2-.7,0-1.3-.3-1.7-.8-.4-.6-.6-1.4-.6-2.1h0c0,0-.2,0-.2,0ZM201.3,63.9c0,.4.1.8.3,1.2.2.3.5.4.8.4s.4,0,.6,0c.2,0,.3-.2.4-.4v-2.5c-.1-.2-.2-.3-.4-.4-.2,0-.4,0-.6,0-.3,0-.7.2-.8.5-.2.4-.3.8-.3,1.4h0Z"/>
  <path class="cls-11" d="M209.9,65.9c-.2.3-.4.5-.7.6s-.6.2-.9.2c-.5,0-1.1-.2-1.4-.6-.4-.5-.5-1.2-.5-1.8v-2.4l-.6-.2v-.9h2.2v3.5c0,.3.1.6.2.9.1.2.4.3.6.3s.5,0,.6,0c.2,0,.3-.2.4-.3v-3.1l-.7-.2v-.9h2.3v4.7l.7.2v.9h-2.1v-.8Z"/>
  <path class="cls-11" d="M212.9,65.7l.8-.2v-3.6l-.8-.2v-.9h2.3v.8c.2-.3.4-.5.6-.7s.4-.3.7-.3h.5l-.2,1.4h-.6c-.2,0-.4,0-.6,0-.2,0-.3.2-.3.4v2.8l.8.2v.9h-3.1v-.7h-.1Z"/>
  <path class="cls-11" d="M221,66.6c0,0-.1-.2-.1-.3s-.1-.2-.1-.3c-.2.2-.4.4-.7.5s-.6.2-.9.2c-.5,0-1-.2-1.4-.5-.3-.3-.5-.8-.5-1.3s.2-1,.7-1.3c.6-.3,1.2-.4,1.9-.4h.8v-.6c0-.2-.1-.4-.2-.6-.2,0-.5-.2-.7-.2s-.3,0-.5,0c-.1,0-.2,0-.3,0v.6h-1.4v-1.3c.3-.2.6-.4,1-.5s.8-.2,1.2-.2c.6,0,1.3.2,1.8.5.4.4.7.9.7,1.5v3h.5v1h-1.8ZM219.6,65.6c.2,0,.4,0,.6-.2.2,0,.4-.2.5-.4v-.9h-.8c-.3,0-.6,0-.8.2s-.3.4-.3.6.1.4.2.5c.2.1.4.2.6.2h0Z"/>
  <path class="cls-11" d="M226,65.5c.2,0,.5,0,.7-.2.2-.2.3-.4.3-.7h1.4c0,.6-.2,1.1-.7,1.5s-1.1.6-1.7.6-1.5-.3-2-.8c-.5-.6-.7-1.3-.7-2.1v-.2c-.1-.8.2-1.5.7-2.1s1.3-.9,2.1-.8c.4,0,.9,0,1.3.2s.7.3.9.6v1.6h-1.3l-.3-.9c-.1,0-.2,0-.3-.2s-.2,0-.4,0c-.4,0-.7.2-.9.5-.2.4-.3.8-.3,1.2v.2c0,.5.1.9.3,1.3.2.3.6.4.9.4ZM226.5,66.6v.3c0,0,.3,0,.5.3.2,0,.2.4.2.6,0,.4-.2.7-.5.9-.4.2-.9.3-1.4.3v-.9c.2,0,.3,0,.4,0s.2-.2.2-.3-.1-.3-.2-.3-.3,0-.6,0l.2-.8h1.2Z"/>
  <path class="cls-11" d="M232.8,66.6c0,0-.1-.2-.1-.3s-.1-.2-.1-.3c-.2.2-.4.4-.7.5s-.6.2-.9.2c-.5,0-1-.2-1.4-.5-.3-.3-.5-.8-.5-1.3s.2-1,.7-1.3c.6-.3,1.2-.4,1.9-.4h.8v-.6c0-.2-.1-.4-.2-.6-.2,0-.5-.2-.7-.2s-.3,0-.5,0c-.1,0-.2,0-.3,0v.6h-1.3v-1.3c.3-.2.6-.4,1-.5s.8-.2,1.2-.2c.6,0,1.3.2,1.8.5.4.4.7.9.7,1.5v3h.5v1h-1.9ZM233.8,58.5c0,.3-.1.6-.3.9-.2.2-.5.4-.8.4s-.6,0-.9-.2c-.2,0-.5-.2-.8-.2s-.2,0-.3.2c-.1,0-.1.3-.1.4l-.8-.2c0-.3.1-.6.3-.9.2-.2.5-.4.8-.4s.5,0,.8.2c.2,0,.5.2.8.2s.2,0,.3-.2c.1,0,.1-.3.1-.4l.9.2ZM231.4,65.6c.2,0,.4,0,.6-.2.2,0,.4-.2.5-.4v-.9h-.8c-.3,0-.6,0-.8.2s-.3.4-.3.6.1.4.2.5c.2.1.4.2.6.2h0Z"/>
  <path class="cls-11" d="M235.1,63.7c-.1-.8.2-1.5.7-2.1s1.2-.9,2-.8c.8,0,1.5.3,2,.8.5.6.7,1.3.7,2.1h0c.2,1.5-.9,2.8-2.3,3h-.4c-.8,0-1.5-.3-2-.8-.5-.6-.7-1.3-.7-2.2h0ZM236.7,63.8c0,.5.1.9.3,1.3.3.5,1,.6,1.5.3.1,0,.3-.2.3-.3.2-.4.3-.8.3-1.3h0c0-.6-.1-1-.3-1.4-.2-.3-.5-.5-.9-.5s-.7.2-.9.5c-.2.4-.3.8-.3,1.4h0Z"/>
  <path class="cls-11" d="M243.9,64.5c0-.4.1-.8.3-1.1.3-.4.7-.7,1.1-1-.2-.3-.4-.6-.5-.9-.1-.3-.2-.5-.2-.8,0-.6.2-1.1.6-1.5.4-.4,1-.6,1.6-.6s1,.2,1.4.5c.3.3.5.8.5,1.3s-.1.7-.3,1-.4.6-.7.8l-.5.4,1.5,1.7c.1-.2.2-.5.3-.7.1-.3.1-.5.1-.8h1.2c0,.5-.1.9-.2,1.4-.1.4-.3.8-.6,1.1l1.1,1.3h-1.7l-.4-.5c-.3.2-.6.3-.9.4-.3,0-.7,0-1,0-.7,0-1.4-.2-1.9-.6-.5-.3-.8-.9-.8-1.5ZM246.5,65.5c.2,0,.4,0,.6,0,.2,0,.4,0,.5-.2l-1.6-1.9h-.1c-.2.2-.3.4-.4.6-.1.2-.1.3-.1.5-.1.5.3,1,.9,1.1h.2ZM246,60.7c0,.2,0,.3.1.5s.2.3.3.5l.5-.3c.2,0,.3-.3.4-.4.1,0,.1-.3.1-.4,0-.2-.1-.3-.2-.5-.3-.3-.7-.3-1,0-.1.2-.2.4-.2.6h0Z"/>
  <path class="cls-11" d="M188.5,78.9h.6c0,0,2.4-6.9,2.4-6.9h1.6l2.4,6.8h.6v1h-2.7v-.9h.5c0,0-.3-1.2-.3-1.2h-2.5l-.3,1.1h.5v1h-2.7v-.9h-.1ZM191.4,76.6h1.8l-.9-2.8h0l-.9,2.8Z"/>
  <path class="cls-11" d="M198.2,72.6v1.4h1v1.1h-1v3c0,.2,0,.4.1.5s.2,0,.4,0h.6v1.1c0,0-.2,0-.4,0h-.6c-.4,0-.9,0-1.2-.4-.3-.4-.4-.9-.4-1.4v-3h-.9v-1.1h.9v-1.4h1.5Z"/>
  <path class="cls-11" d="M202.8,79.9c-1.5,0-2.8-1.2-2.8-2.7h0v-.3c-.1-.8.2-1.5.7-2.1s1.2-.9,1.9-.8c.7,0,1.3.2,1.8.7.4.5.6,1.2.6,1.9v.9h-3.5c0,.7.6,1.3,1.3,1.3s.6,0,.9,0c.3,0,.5-.2.8-.3l.4,1c-.3.2-.6.4-.9.5,0,0-1.2,0-1.2,0ZM202.7,75.1c-.3,0-.5,0-.7.3-.2.2-.3.6-.3.9h1.9c0-.4-.1-.7-.2-.9s-.4-.3-.7-.3Z"/>
  <path class="cls-11" d="M210.6,76h-1l-.2-.7c-.1,0-.2-.2-.4-.2-.2,0-.3,0-.5,0s-.5,0-.7.2-.2.3-.2.5.1.3.2.4c.3,0,.6.2.9.3.6,0,1.1.3,1.6.6.3.3.5.7.5,1.1s-.2,1-.7,1.3c-.5.4-1.2.5-1.8.5s-.8,0-1.2-.2-.7-.3-1-.6v-1.3h1.1l.2.8c.1,0,.2,0,.4.2s.3,0,.5,0,.5,0,.7-.2.2-.3.2-.5-.1-.3-.3-.4c-.3,0-.6-.2-.9-.3-.6,0-1.1-.2-1.5-.6-.3-.3-.5-.7-.5-1.1s.2-1,.6-1.3c.5-.4,1.1-.6,1.7-.5.4,0,.9,0,1.3.2.3,0,.7.3.9.5v1.3Z"/>
  <path class="cls-11" d="M213.8,72.6v1.4h1v1.1h-1v3c0,.2,0,.4.1.5s.2,0,.4,0h.6v1.1c0,0-.2,0-.4,0h-.6c-.4,0-.9,0-1.2-.4-.3-.4-.4-.9-.4-1.4v-3h-.9v-1.1h.9v-1.4h1.5Z"/>
  <path class="cls-11" d="M219.3,79.8c0,0-.1-.2-.1-.3s-.1-.2-.1-.3c-.2.2-.4.4-.7.5s-.6.2-.9.2c-.5,0-1-.2-1.4-.5-.3-.3-.5-.8-.5-1.3s.2-1,.7-1.3c.6-.3,1.2-.4,1.9-.4h.8v-.6c0-.2-.1-.4-.2-.6-.2,0-.5-.2-.7-.2s-.3,0-.5,0c-.1,0-.2,0-.3,0v.6h-1.3v-1.3c.3-.2.6-.4,1-.5s.8-.2,1.2-.2c.6,0,1.3.2,1.8.5.4.4.7.9.7,1.5v2.9h.5v1h-1.9ZM218,78.8c.2,0,.4,0,.6-.2.2,0,.4-.2.5-.4v-.9h-.8c-.3,0-.6,0-.8.2s-.3.4-.3.6.1.4.2.5c.2,0,.4.2.6.2h0Z"/>
  <path class="cls-11" d="M225.5,79.1c-.1.2-.4.5-.6.6-.3,0-.6.2-.9.2-.7,0-1.3-.3-1.7-.8-.4-.6-.6-1.4-.6-2.1h0c0-.9.2-1.7.6-2.3.6-.8,1.6-1,2.5-.6.2,0,.4.3.6.5v-2.1l-.8-.2v-.9h2.4v7.3l.8.2v.9h-2.2v-.7ZM223.3,77.1c0,.4.1.8.3,1.2.2.3.5.4.8.4s.4,0,.6,0c.2,0,.3-.2.4-.4v-2.5c-.1-.2-.2-.3-.4-.4s-.4-.2-.6-.2c-.3,0-.7.2-.8.5-.2.4-.3.9-.3,1.3v.2Z"/>
  <path class="cls-11" d="M228.2,76.9c-.1-.8.2-1.5.7-2.1s1.2-.9,2-.8c.8,0,1.5.3,2,.8.5.6.7,1.3.7,2.1h0c.2,1.5-.9,2.8-2.3,3h-.4c-.8,0-1.5-.3-2-.8-.5-.6-.7-1.3-.7-2.2h0ZM229.8,77c0,.5.1.9.3,1.3.3.5,1,.6,1.5.3.1,0,.3-.2.3-.3.2-.4.3-.8.3-1.3h0c0-.6-.1-1-.3-1.4-.2-.3-.5-.5-.9-.5s-.7.2-.9.5c-.2.4-.3.8-.3,1.4h0Z"/>
  <path class="cls-1" d="M136.7,373.6h58.2c2.8,0,5,2.2,5,5v20.6c0,2.8-2.2,5-5,5H62.3c-2.8,0-5-2.2-5-5v-20.6c0-2.8,2.3-5,5-5h58.3"/>
  <path class="cls-8" d="M128.7,381.4c.3-.1.6-.2.9-.4,1.9-1,7.1-3.9,7.1-7.5v-10.7c0-.1-.1-.2-.3-.2h0c-.1,0-.1-.1-.2-.1-1,0-1.9-.1-2.9-.2-3.4-.6-4.1-2.1-4.1-2.1-.1-.1-.2-.1-.3-.1h-.5c-.1,0-.2-.1-.3.1s-.7,1.5-4.1,2.1c-1,.1-1.9.2-2.9.2s0,0-.2.1h0c-.2,0-.3.1-.3.2v10.7c0,3.6,5.2,6.4,7.1,7.5.4.2.7.3,1,.4"/>
  <path class="cls-18" d="M124.3,370.7l3.3,3.3c.2.1.4.1.6,0l4.9-5c.1-.2.1-.3,0-.5l-1.1-1.1c-.2-.1-.4-.1-.6,0l-3.6,3.6-1.9-2c-.2-.1-.3-.1-.5,0l-1.1,1.1c-.2.1-.2.4,0,.6"/>
  <path class="cls-18" d="M73.3,393.2h.5c0-.1,2.1-6.1,2.1-6.1h1.4l2.1,6h.5v.9h-2.4v-.8h.5c0-.1-.3-1-.3-1h-2.2l-.3.9h.5v.9h-2.4v-.8ZM75.8,391.2h1.6l-.8-2.4h0l-.8,2.4Z"/>
  <path class="cls-18" d="M80.4,393.2h.7v-3.3h-.7v-.9h2v.7c.2-.3.4-.5.6-.6s.5-.2.7-.2h.4v1.3h-.7c-.2,0-.4,0-.5.1l-.3.3v2.5h.7v.9h-2.7v-.8h-.2Z"/>
  <path class="cls-18" d="M84.4,391.6c0-.7.2-1.4.5-2,.3-.5.9-.7,1.5-.7s.5.1.7.2.4.3.6.5v-.6h1.3v6.1h.7v.9h-2.7v-.8h.6v-1.6c0,.2-.3.3-.5.4s-.5.1-.7.1c-.6,0-1.1-.2-1.5-.7s-.6-1.2-.5-1.8h0ZM85.7,391.7c0,.4,0,.7.2,1.1,0,.3.4.4.7.4s.4,0,.5-.1.3-.2.4-.3v-2.3c0-.2-.2-.3-.4-.4-.4-.2-1-.1-1.2.4h0c0,.4-.2.8-.2,1.2h0Z"/>
  <path class="cls-18" d="M93.4,393.4l-.6.6c-.7.4-1.5.2-2.1-.3-.4-.5-.5-1-.5-1.6v-2.1h-.6v-.9h2v3.1c0,.3,0,.6.2.8,0,.2.3.2.6.2s.4,0,.6-.1.3-.2.4-.3v-2.8h-.6v-.9h2v4.2h.6v.9h-1.8l-.2-.8Z"/>
  <path class="cls-18" d="M95.8,393.2h.7v-3.3h-.7v-.9h2.1v4.2h.7v.9h-2.7v-.9h0ZM97.9,387.7h-1.4v-1h1.4v1Z"/>
  <path class="cls-18" d="M101.2,389.8h-.5c0,.1.7,2.4.7,2.4v.5h0v-.5c0,0,.8-2.3.8-2.3h-.5v-.9h2.3v.8h-.4c0,.1-1.5,4.3-1.5,4.3h-1.3l-1.5-4.2h-.4v-.9h2.3v.8h0Z"/>
  <path class="cls-18" d="M104.5,391.5c0-.7.2-1.4.6-1.9,1-.9,2.6-.9,3.6,0,.4.5.6,1.2.6,1.9h0c0,.8-.2,1.5-.6,2-1,.9-2.6.9-3.6,0-.4-.6-.6-1.3-.6-2ZM105.8,391.6c0,.4,0,.7.2,1.1.3.4,1,.5,1.4.2l.2-.2c.2-.3.2-.7.2-1.1h0c0-.5,0-.9-.3-1.2-.3-.4-1-.5-1.4-.2l-.2.2c0,.2,0,.6,0,1.2Z"/>
  <path class="cls-18" d="M114.1,390.7h-.9v-.6c-.2-.1-.3-.1-.5-.2-.2,0-.3-.1-.5-.1s-.4.1-.6.2-.2.2-.2.4,0,.3.2.4c.2.2.5.3.8.3.5.1,1,.3,1.4.6.3.2.5.6.5,1s-.2.9-.6,1.1c-.5.3-1,.4-1.6.4s-.7-.1-1.1-.2c-.3-.1-.6-.3-.9-.5v-1.2h1l.2.7c0,.1.2.1.3.2s.3,0,.4,0c.2,0,.4-.1.6-.2.2-.2.3-.5,0-.7h0c-.2-.3-.5-.4-.8-.4-.5-.1-1-.2-1.4-.5-.3-.2-.5-.6-.5-1s.2-.8.5-1.1c.4-.3,1-.5,1.5-.5s.7.1,1.1.2c.3,0,.6.2.8.4l.3,1.3Z"/>
  <path class="cls-18" d="M119.7,393.1c.2,0,.4-.1.6-.2,0-.2.2-.4.2-.6h1.3c0,.5-.2,1-.6,1.3s-1,.5-1.5.5c-.7.1-1.3-.2-1.8-.7-.4-.5-.6-1.2-.6-1.9h0c0-.8.2-1.5.6-2,.5-.5,1.1-.8,1.8-.7.4,0,.7.1,1.1.2.3.1.6.3.8.5v1.4h-1l-.2-.8c0-.1-.2-.1-.3-.1s-.2-.1-.3-.1c-.4,0-.7.1-.8.4,0,.4-.2.7-.2,1.1h0c0,.5,0,.8.2,1.2s.3.5.7.5Z"/>
  <path class="cls-18" d="M122.5,393.2h.7v-3.3h-.7v-.9h2v.7c.2-.3.4-.5.6-.6s.5-.2.7-.2h.4v1.3h-.7c-.2,0-.4,0-.5.1l-.3.3v2.5h.7v.9h-2.7v-.8h-.2Z"/>
  <path class="cls-18" d="M126.4,393.2h.7v-3.3h-.7v-.9h2.1v4.2h.7v.9h-2.7v-.9h0ZM128.5,387.7h-1.4v-1h1.4v1Z"/>
  <path class="cls-18" d="M129.5,389.8v-.8h2v.6c.3-.2.4-.4.6-.5s.5-.2.7-.2c.6,0,1.1.2,1.5.7.4.6.6,1.3.5,2h0c0,.7-.1,1.4-.5,1.9-.3.5-.9.7-1.5.7s-.5,0-.7-.1-.4-.2-.5-.4v1.5h.7v.9h-2.7v-.8h.7v-5.2l-.8-.3ZM133.5,391.6c0-.4-.1-.8-.2-1.2-.2-.3-.4-.5-.7-.5s-.4,0-.5.1-.3.2-.3.4v2.2c.1.1.2.3.3.3.2,0,.3.1.5.1.3,0,.6-.1.7-.4.2-.3.3-.7.2-1Z"/>
  <path class="cls-18" d="M137.5,387.7v1.3h.9v1h-.9v2.6c0,.2,0,.3.1.4s.2.1.3.1h.4v1c0,0-.2.1-.4.1h-.5c-.4,0-.8-.1-1.1-.4s-.4-.8-.4-1.2v-2.6h-.8v-1h.8v-1.3h1.6Z"/>
  <path class="cls-18" d="M139,391.5c0-.7.2-1.4.6-1.9,1-.9,2.6-.9,3.6,0,.4.5.6,1.2.6,1.9h0c0,.8-.2,1.5-.6,2-1,.9-2.6.9-3.6,0-.4-.6-.6-1.3-.6-2ZM140.4,391.6c0,.4.1.7.2,1.1.3.4,1,.5,1.4.2q.1-.1.2-.2c.2-.3.2-.7.2-1.1h0c0-.5-.1-.9-.3-1.2-.3-.4-1-.5-1.4-.2q-.1.1-.2.2c0,.4,0,.8,0,1.2h0Z"/>
  <path class="cls-18" d="M144.5,391.6c0-.7.2-1.4.5-2,.3-.5.9-.8,1.5-.7.3,0,.5.1.8.2.2.1.4.3.6.5v-.6h1.3v5c0,.6-.2,1.2-.6,1.6-.5.4-1.1.7-1.8.6-.3,0-.5,0-.8-.1s-.5-.2-.8-.3l.3-1c.2.1.5.2.7.2.3,0,.5.1.7.1.3,0,.6-.1.8-.3.2-.2.3-.6.3-.9v-.3c-.1.2-.3.3-.5.4s-.5.2-.7.2c-.6,0-1.1-.2-1.5-.7-.5-.5-.7-1.2-.8-1.9h0ZM145.9,391.7c0,.4.1.7.2,1.1.1.3.4.4.7.4s.4,0,.5-.1.3-.2.4-.3v-2.2c-.1-.2-.2-.3-.4-.4s-.3-.1-.5-.1c-.3,0-.6.2-.7.5s-.2.7-.2,1.1Z"/>
  <path class="cls-18" d="M150.1,393.2h.7v-3.3h-.7v-.9h2v.7c.2-.3.4-.5.6-.6s.5-.2.7-.2h.4v1.3h-.7c-.2,0-.4,0-.5.1l-.3.3v2.5h.7v.9h-2.7v-.8h-.2Z"/>
  <path class="cls-18" d="M157.2,394.1c0-.1-.1-.2-.1-.3s-.1-.2-.1-.3c-.2.2-.4.3-.6.5-.2.1-.5.2-.8.2s-.9-.1-1.2-.4-.4-.7-.4-1.1.2-.9.6-1.1c.5-.3,1.1-.4,1.7-.4h.7v-.5c0-.2-.1-.4-.2-.6-.1-.2-.4-.2-.6-.2s-.3,0-.4.1-.2.1-.3.1v.5h-1.1v-1.1c.3-.2.6-.3.9-.4.4-.1.7-.2,1.1-.2s1.1.2,1.5.5.6.8.6,1.3v2.5h.4v.9h-1.7ZM156,393.2c.2,0,.4,0,.6-.1.2-.1.3-.2.4-.3v-.8h-.7c-.2,0-.5.1-.7.2s-.2.3-.2.5.1.3.2.4c0,0,.2.1.4.1h0Z"/>
  <path class="cls-18" d="M159.4,393.2h.7v-3.3h-.8v-1h.8v-.6c0-.5.2-1,.5-1.3.4-.3.9-.5,1.4-.5h.4c.2,0,.3,0,.4.1v1h-.5c-.4,0-.7.3-.7.7h0v.6h1v1h-1v3.2h.7v.9h-2.7v-.8h-.2Z"/>
  <path class="cls-18" d="M166.2,394.1c0-.1-.1-.2-.1-.3s-.1-.2-.1-.3c-.2.2-.4.3-.6.5-.2.1-.5.2-.8.2s-.9-.1-1.2-.4-.4-.7-.4-1.1.2-.9.6-1.1c.5-.3,1.1-.4,1.7-.4h.7v-.5c0-.2-.1-.4-.2-.6-.1-.2-.4-.2-.6-.2s-.3,0-.4.1-.2.1-.3.1v.5h-1.1v-1.1c.3-.2.6-.3.9-.4.4-.1.7-.2,1.1-.2s1.1.2,1.5.5.6.8.6,1.3v2.5h.4v.9h-1.7ZM165,393.2c.2,0,.4,0,.6-.1.2-.1.3-.2.4-.3v-.8h-.7c-.2,0-.5.1-.7.2s-.2.3-.2.5.1.3.2.4.3.1.4.1h0Z"/>
  <path class="cls-18" d="M171.6,393.5c-.2.2-.4.4-.6.5-.2.1-.5.2-.8.2-.6,0-1.1-.2-1.5-.7-.3-.5-.5-1.2-.5-1.8h0c0-.8.2-1.5.5-2.1.3-.5.9-.7,1.5-.7s.5.1.7.2.4.3.5.5v-1.8h-.7v-.9h2.1v6.4h.7v.9h-1.9v-.7ZM169.6,391.7c0,.4.1.7.2,1.1.1.3.4.4.7.4s.4,0,.5-.1.3-.2.4-.4v-2.2c-.1-.2-.2-.3-.4-.4s-.3-.1-.5-.1c-.3,0-.6.2-.7.5-.1.4-.2.8-.2,1.2Z"/>
  <path class="cls-18" d="M174,391.5c0-.7.2-1.4.6-1.9,1-.9,2.6-.9,3.6,0,.4.5.6,1.2.6,1.9h0c0,.8-.2,1.5-.6,2-1,.9-2.6.9-3.6,0-.4-.6-.6-1.3-.6-2ZM175.4,391.6c0,.4.1.7.2,1.1.3.4,1,.5,1.4.2q.1-.1.2-.2c.2-.3.2-.7.2-1.1h0c0-.5-.1-.9-.3-1.2-.3-.4-1-.5-1.4-.2q-.1.1-.2.2c0,.2,0,.6,0,1.2h0Z"/>
  <path class="cls-18" d="M183.6,390.7h-.9v-.6c-.2-.1-.3-.1-.5-.2-.2,0-.3-.1-.5-.1s-.4.1-.6.2c-.2.1-.2.2-.2.4s.1.3.2.4c.2.2.5.3.8.3.5.1,1,.3,1.4.6.3.2.5.6.5,1s-.2.9-.6,1.1c-.5.3-1,.4-1.6.4s-.7-.1-1.1-.2c-.3-.1-.6-.3-.9-.5v-1.2h1l.2.7c.1.1.2.1.3.2s.3,0,.4,0c.2,0,.4-.1.6-.2.2-.2.3-.5.1-.7h-.1c-.2-.3-.5-.4-.8-.4-.5-.1-1-.2-1.4-.5-.3-.2-.5-.6-.5-1s.2-.8.5-1.1c.4-.3,1-.5,1.5-.5s.7.1,1.1.2c.3,0,.6.2.8.4l.3,1.3Z"/>
</svg>