<?xml version="1.0" encoding="utf-8"?>
<!-- Generator: Adobe Illustrator 23.1.0, SVG Export Plug-In . SVG Version: 6.00 Build 0)  -->
<svg version="1.1" id="Слой_1" xmlns="http://www.w3.org/2000/svg" xmlns:xlink="http://www.w3.org/1999/xlink" x="0px" y="0px"
	 viewBox="0 0 300 300" style="enable-background:new 0 0 300 300;" xml:space="preserve">
<style type="text/css">
	.st0{display:none;fill:none;}
	.st1{clip-path:url(#SVGID_2_);fill:url(#SVGID_3_);}
	.st2{fill:#FED138;}
</style>
<rect x="-5.3" y="-5.5" class="st0" width="310.5" height="310.5"/>
<g>
	<g>
		<g>
			<g>
				<g>
					<g>
						<g>
							<g>
								<defs>
									<path id="SVGID_1_" d="M300,150C300,67.1,232.9,0,150,0S0,67.1,0,150s67.2,150,150,150S300,232.9,300,150"/>
								</defs>
								<clipPath id="SVGID_2_">
									<use xlink:href="#SVGID_1_"  style="overflow:visible;"/>
								</clipPath>
								
									<linearGradient id="SVGID_3_" gradientUnits="userSpaceOnUse" x1="-4847.3042" y1="-245.5527" x2="-4845.0547" y2="-245.5527" gradientTransform="matrix(-139.3333 0 0 -139.3333 -675084.1875 -34063.6133)">
									<stop  offset="0" style="stop-color:#330066"/>
									<stop  offset="1.813190e-03" style="stop-color:#330066"/>
									<stop  offset="0.1749" style="stop-color:#380066"/>
									<stop  offset="0.3857" style="stop-color:#470066"/>
									<stop  offset="0.616" style="stop-color:#600066"/>
									<stop  offset="0.8586" style="stop-color:#820066"/>
									<stop  offset="0.9982" style="stop-color:#990066"/>
									<stop  offset="1" style="stop-color:#990066"/>
								</linearGradient>
								<rect x="0.1" y="0.1" class="st1" width="299.9" height="299.9"/>
							</g>
						</g>
					</g>
				</g>
			</g>
		</g>
	</g>
</g>
<g>
	<g>
		<path class="st2" d="M235.7,156.6H64.6c-3.5,0-5.9,2.4-5.9,5.9v73.5c0,3.5,2.4,5.9,5.9,5.9h171.1c3.5,0,5.9-2.4,5.9-5.9v-73.1
			C242,159.1,239.5,156.6,235.7,156.6z M235.7,236.1H64.6v-73.1h171.1V236.1z M82.7,168.9H70.5v5.9h12.2V168.9L82.7,168.9z
			 M82.7,223.8H70.5v5.9h12.2V223.8L82.7,223.8z M89,230.1h12.2v-5.9H89V230.1z M193,223.8h-85.7v5.9H193V223.8z M100.9,168.9H88.7
			v5.9h12.2V168.9z M119.5,168.9h-12.2v5.9h12.2V168.9z M137.7,168.9h-12.2v5.9h12.2V168.9z M156.2,168.9H144v5.9h12.2V168.9z
			 M174.4,168.9h-12.2v5.9h12.2V168.9z M193,168.9h-12.2v5.9H193V168.9z M211.2,168.9h-12.2v5.9h12.2V168.9z M198.9,230.1h12.2v-5.9
			h-12.2V230.1z M217.5,230.1h12.2v-5.9h-12.2V230.1z M229.7,168.9h-12.2v5.9h12.2V168.9z M79.6,184.3h-5.9v5.9h5.9V184.3z
			 M91.8,184.3h-5.9v5.9h5.9V184.3z M98.1,190.2h5.9v-5.9h-5.9V190.2z M116.3,184.3h-5.9v5.9h5.9V184.3z M128.6,184.3h-5.9v5.9h5.9
			V184.3z M140.8,184.3h-5.9v5.9h5.9V184.3z M153.1,184.3h-5.9v5.9h5.9V184.3z M165.3,184.3h-5.9v5.9h5.9V184.3z M177.6,184.3h-5.9
			v5.9h5.9V184.3z M189.8,184.3h-5.9v5.9h5.9V184.3z M202.1,184.3h-5.9v5.9h5.9V184.3z M208,190.2h5.9v-5.9H208V190.2z M226.6,184.3
			h-5.9v5.9h5.9V184.3z M79.6,196.5h-5.9v5.9h5.9V196.5z M91.8,196.5h-5.9v5.9h5.9V196.5z M98.1,202.5h5.9v-5.9h-5.9V202.5z
			 M116.3,196.5h-5.9v5.9h5.9V196.5z M128.6,196.5h-5.9v5.9h5.9V196.5z M140.8,196.5h-5.9v5.9h5.9V196.5z M153.1,196.5h-5.9v5.9h5.9
			V196.5z M165.3,196.5h-5.9v5.9h5.9V196.5z M177.6,196.5h-5.9v5.9h5.9V196.5z M189.8,196.5h-5.9v5.9h5.9V196.5z M202.1,196.5h-5.9
			v5.9h5.9V196.5z M73.7,214.7h5.9v-5.9h-5.9V214.7z M91.8,208.8h-5.9v5.9h5.9V208.8z M98.1,214.7h5.9v-5.9h-5.9V214.7z
			 M110.4,214.7h5.9v-5.9h-5.9V214.7z M128.6,208.8h-5.9v5.9h5.9V208.8z M134.9,214.7h5.9v-5.9h-5.9V214.7z M147.1,214.7h5.9v-5.9
			h-5.9V214.7z M165.3,208.8h-5.9v5.9h5.9V208.8z M171.3,214.7h5.9v-5.9h-5.9V214.7z M183.5,214.7h5.9v-5.9h-5.9V214.7z
			 M202.1,208.8h-5.9v5.9h5.9V208.8z M208,214.7h15.4c1.7,0,3.1-1,3.1-3.1v-15.4h-5.9v12.2h-12.2v6.3H208z M208,196.5v5.9h5.9v-5.9
			H208z M238.8,59H61.4c-1.7,0-3.1,1-3.1,3.1v85.7h5.9V89.4h171.5v58.1h5.9V61.8C242,60,240.6,59,238.8,59z M235.7,83.1H64.6V64.9
			h171.1V83.1z M76.8,70.9h-6.3v5.9h5.9v-5.9H76.8z M89,70.9h-6.3v5.9h5.9v-5.9H89z M100.9,70.9H95v5.9h5.9V70.9z M95,95.4v52.1h5.9
			V95.4H95z M85.9,98.5H73.7v5.9h12.2V98.5z M73.7,123h12.2v-5.9H73.7V123z M73.7,141.2h12.2v-5.9H73.7V141.2z M110.4,98.5v5.9h12.2
			v-5.9H110.4z M128.6,104.8h49v-5.9h-49C128.6,98.9,128.6,104.8,128.6,104.8z M183.5,104.8h12.2v-5.9h-12.2V104.8z M226.6,98.5
			h-24.5v5.9h24.5V98.5z M110.4,123h42.7v-5.9h-42.7V123z M153.1,141.2v-5.9h-12.2v5.9H153.1z M110.4,141.2h24.5v-5.9h-24.5V141.2z
			 M175.5,117.8l-9.1,9.1c-1,1-1,3.1,0,4.2l9.1,9.1l4.2-4.2l-7-7l7-7L175.5,117.8z M210.1,140.5l9.1-9.1c1-1,1-3.1,0-4.2l-9.1-9.1
			l-4.2,4.2l7,7l-7,7L210.1,140.5z M189.5,142.6l12.2-24.5l-5.6-2.8l-12.2,24.5L189.5,142.6z"/>
	</g>
</g>
</svg>
