<?xml version="1.0" encoding="utf-8"?>
<!-- Generator: Adobe Illustrator 22.1.0, SVG Export Plug-In . SVG Version: 6.00 Build 0)  -->
<svg version="1.1" id="Слой_1" xmlns="http://www.w3.org/2000/svg" xmlns:xlink="http://www.w3.org/1999/xlink" x="0px" y="0px"
	 viewBox="0 0 300 300" style="enable-background:new 0 0 300 300;" xml:space="preserve">
<style type="text/css">
	.st0{display:none;fill:none;}
	.st1{clip-path:url(#SVGID_2_);fill:url(#SVGID_3_);}
	.st2{fill:none;stroke:#3398FF;stroke-width:4.5;stroke-linecap:round;stroke-linejoin:round;stroke-miterlimit:10;}
	.st3{fill:#3398FF;}
</style>
<rect x="-5.3" y="-5.5" class="st0" width="310.5" height="310.5"/>
<g>
	<g>
		<g>
			<g>
				<g>
					<defs>
						<path id="SVGID_1_" d="M300,150C300,67.1,232.9,0,150,0S0,67.1,0,150s67.2,150,150,150S300,232.9,300,150"/>
					</defs>
					<clipPath id="SVGID_2_">
						<use xlink:href="#SVGID_1_"  style="overflow:visible;"/>
					</clipPath>
					
						<linearGradient id="SVGID_3_" gradientUnits="userSpaceOnUse" x1="-2949.6294" y1="689.2996" x2="-2947.3801" y2="689.2996" gradientTransform="matrix(-139.3333 0 0 139.3333 -410674.9375 -95892.3281)">
						<stop  offset="0" style="stop-color:#330066"/>
						<stop  offset="1.813190e-03" style="stop-color:#330066"/>
						<stop  offset="0.1749" style="stop-color:#380066"/>
						<stop  offset="0.3857" style="stop-color:#470066"/>
						<stop  offset="0.616" style="stop-color:#600066"/>
						<stop  offset="0.8586" style="stop-color:#820066"/>
						<stop  offset="0.9982" style="stop-color:#990066"/>
						<stop  offset="1" style="stop-color:#990066"/>
					</linearGradient>
					<rect x="0.1" y="0.1" class="st1" width="299.9" height="299.9"/>
				</g>
			</g>
		</g>
	</g>
</g>
<g>
	<path class="st2" d="M156.5,63.8l8.6,8.7c0.2,0.2,0.4,0.3,0.8,0.3c0.3,0,0.5-0.1,0.8-0.3l12.9-13c0.3-0.3,0.3-1,0-1.4l-2.9-2.9
		c-0.2-0.2-0.4-0.3-0.8-0.3c-0.3,0-0.5,0.1-0.8,0.3l-9.4,9.4l-5-5.1c-0.3-0.3-1-0.3-1.4,0l-2.9,2.9
		C156.1,62.7,156.1,63.3,156.5,63.8"/>
	<path class="st2" d="M168.1,100.9c0.4,0,2.6-1.1,3-1.2c6.5-3.5,24.6-13.5,24.6-25.8V37v-0.1c0-0.5-0.2-0.8-0.9-0.8l0,0
		c-0.3-0.1-0.5-0.2-0.7-0.2c-3.8,0-7.1-0.3-9.9-0.7c-11.9-2-14.2-7.2-14.2-7.3c-0.2-0.3-0.5-0.2-0.9-0.2c-0.3,0-0.6,0-0.9,0
		c-0.3,0-0.7,0-0.9,0c-0.5,0-0.8-0.2-0.9,0.2c0,0.1-2.3,5.3-14.2,7.3c-2.8,0.4-6.1,0.7-9.9,0.7c-0.2,0-0.5,0.1-0.7,0.2l0,0
		c-0.7,0-0.9,0.3-0.9,0.8V37v36.9c0,12.3,18.1,22.3,24.6,25.8c0.4,0.1,2.6,1.3,3,1.2 M188,71.7c0,9.2-19.1,19.7-19.4,19.8h-1.2
		C167.1,91.4,148,81,148,71.7V42.8c0-0.2,0-0.4,0.1-0.5c1.2-0.1,2.4-0.2,3.5-0.3c12.3-0.6,15.7-4.8,16.4-6c0.7,1.1,4.1,5.4,16.4,6
		c1.1,0.1,2.2,0.2,3.5,0.3c0.1,0.1,0.1,0.3,0.1,0.5L188,71.7L188,71.7z"/>
</g>
<g>
	<path class="st2" d="M61.5,115.3c0-0.6-0.5-1.1-1.1-1.1H26.9c-0.6,0-1.1,0.5-1.1,1.1v42c0,0.6,0.5,1.1,1.1,1.1h26.4l8.2-8.2
		C61.5,150.3,61.5,115.3,61.5,115.3z"/>
	<polyline class="st2" points="59,147.8 50.8,147.8 50.8,155.9 	"/>
</g>
<g>
	<path class="st2" d="M258,138.9c0-0.6-0.5-1.1-1.1-1.1h-33.5c-0.6,0-1.1,0.5-1.1,1.1v42c0,0.6,0.5,1.1,1.1,1.1h26.4l8.2-8.2
		L258,138.9L258,138.9z"/>
	<polyline class="st2" points="255.5,171.4 247.3,171.4 247.3,179.5 	"/>
</g>
<g>
	<path class="st2" d="M283.3,220.7c0-0.6-0.5-1.1-1.1-1.1h-33.5c-0.6,0-1.1,0.5-1.1,1.1v42c0,0.6,0.5,1.1,1.1,1.1h26.4l8.2-8.2
		L283.3,220.7L283.3,220.7z"/>
	<polyline class="st2" points="280.8,253.2 272.7,253.2 272.7,261.4 	"/>
</g>
<g>
	<path class="st2" d="M92.8,240.7c-3.6,0.7-5.4,2.9-5.8,7.3c-1,10.4,7.2,17.6,18.7,16.7c15.9-1.5,28.3-12.4,31.4-28.2
		c0.9-4.9,0.6-10.1,2.3-14.8c3.8-11,11.1-13.2,20.3-8.8"/>
	<path class="st2" d="M33.8,224.8c-2.1,6.9,1.7,15.2,8.6,18.6c7.9,3.8,16,3.8,23.5-1c4-2.7,7.7-6,11.5-8.9
		c5.8-4.4,11.5-8.8,17.6-12.7c3.3-2.1,21.2-8.6,25.1-10.2c-0.9,5.2-2,9.4-2.4,13.8c-0.4,4.4,0,8.8-0.1,13.2
		c-0.3,8.7-4.9,13.9-13.4,15.6"/>
	<path class="st2" d="M70.8,164.9c-3.7-0.4-6.9,0.6-9,3.8c-3,4.6-3.2,9.4-0.9,14.3c4.5,9.4,11.8,15,22.1,16.8
		c2.6,0.4,5.3,0.6,8.7,0.9c-7.8,3.4-13.9,7.6-18.7,13.6c-2.7,3.5-5.2,7.2-8,10.5c-2,2.4-4.1,4.7-6.6,6.3c-4.5,3-10.5,2.5-14.7-0.8"
		/>
	<path class="st2" d="M197.5,173.3c1.7,2.7,0.2,6.9-3,9.9c-0.3,0.3-0.7,0.6-1.1,0.9c-7.6,5.6-27.5,4.9-34.4-1.5
		c-2.7-2.4-4.1-5.4-2.9-8.9c1.6-4.5,3-9,5.1-13.3c5-10.7,9.6-21.3,4.9-31.7c-5.5-12-14.8-19.1-28.1-20.2
		c-13.6-1.2-25.1,2.9-32.9,14.5c-8.8,13.3-4.1,27.1,3.4,41.3c1.7,3.2,2.6,6.8,3.5,10.4c0.7,3-0.4,5.6-2.8,7.6
		c-8.2,6.7-22.3,7.2-31.8,3.5c-2.1-0.8-4-2.5-5.6-4.3c-2.1-2.5-3.2-5.6-1.1-8.5c2-2.8,5-2.9,8.1-1.9"/>
	<path class="st2" d="M218.3,232.8c-4.9,1-9-0.6-12.2-4.1c-3.1-3.4-5.9-7.2-8.7-10.9c-5.2-7.1-11.4-12.8-19.5-16.2
		c-0.4-0.2-0.7-0.4-1.7-1c2-0.1,3.1-0.1,4.3-0.2c12-0.8,21-6.1,26.3-17.2c2.3-4.9,2.1-9.7-0.9-14.3c-2.2-3.3-5.5-4.5-9.3-3.8"/>
	<path class="st2" d="M168.4,218.7c6.7,4.3,13.5,8.4,19.9,13c4.9,3.4,9.1,7.7,14.1,11c7.2,4.7,14.9,4.5,22.5,1
		c7.3-3.3,11.2-11.9,9-19.1"/>
	<g>
		<circle class="st3" cx="127.4" cy="169.5" r="4.6"/>
		<circle class="st3" cx="140.3" cy="169.5" r="4.6"/>
	</g>
</g>
</svg>
