<?xml version="1.0" encoding="utf-8"?>
<!-- Generator: Adobe Illustrator 22.1.0, SVG Export Plug-In . SVG Version: 6.00 Build 0)  -->
<svg version="1.1" id="Слой_1" xmlns="http://www.w3.org/2000/svg" xmlns:xlink="http://www.w3.org/1999/xlink" x="0px" y="0px"
	 viewBox="0 0 300 300" style="enable-background:new 0 0 300 300;" xml:space="preserve">
<style type="text/css">
	.st0{display:none;fill:none;}
	.st1{clip-path:url(#SVGID_2_);fill:url(#SVGID_3_);}
	.st2{fill:none;stroke:#3398FF;stroke-width:4.5;stroke-linecap:round;stroke-linejoin:round;stroke-miterlimit:10;}
</style>
<rect x="-400" y="-5.5" class="st0" width="310.5" height="310.5"/>
<g>
	<g>
		<g>
			<g>
				<g>
					<defs>
						<path id="SVGID_1_" d="M300,150C300,67.1,232.9,0,150,0S0,67.1,0,150s67.2,150,150,150S300,232.9,300,150"/>
					</defs>
					<clipPath id="SVGID_2_">
						<use xlink:href="#SVGID_1_"  style="overflow:visible;"/>
					</clipPath>
					
						<linearGradient id="SVGID_3_" gradientUnits="userSpaceOnUse" x1="-3347.1287" y1="689.2996" x2="-3344.8794" y2="689.2996" gradientTransform="matrix(-139.3333 0 0 139.3333 -466059.8125 -95892.3281)">
						<stop  offset="0" style="stop-color:#330066"/>
						<stop  offset="1.813190e-03" style="stop-color:#330066"/>
						<stop  offset="0.1749" style="stop-color:#380066"/>
						<stop  offset="0.3857" style="stop-color:#470066"/>
						<stop  offset="0.616" style="stop-color:#600066"/>
						<stop  offset="0.8586" style="stop-color:#820066"/>
						<stop  offset="0.9982" style="stop-color:#990066"/>
						<stop  offset="1" style="stop-color:#990066"/>
					</linearGradient>
					<rect x="0.1" y="0.1" class="st1" width="299.9" height="299.9"/>
				</g>
			</g>
		</g>
	</g>
</g>
<g>
	<path class="st2" d="M98.5,168.5c-8.1-8.1-21.2-8.1-29.3-0.2c-8.1,8.1-8.1,21.2-0.2,29.3c8.1,8.1,21.5,8.1,29.5,0
		C106.6,189.9,106.6,176.8,98.5,168.5z"/>
	<path class="st2" d="M89.3,225.2c-0.7,0.1-1.2,0.5-1.7,0.5c-2.5,0-5.3,0.1-7.6-0.1c-0.8-0.1-2.1-1.5-2.2-2.4
		c-0.5-2.5,0.1-5.8-1.2-7.5c-1.4-1.7-4.7-1.7-6.8-3.1c-3.1-2.1-5-0.8-7.3,1.2c-5,4.3-4.3,4-8.9-0.5c-3.5-3.5-5.1-3.5-0.5-8.2
		c2.8-2.8,3.5-5.3,1-8.5c-0.7-0.8-1-1.8-1.2-3.1c-0.3-2.9-2.1-3.6-4.7-3.7c-7.6-0.7-6.8-0.1-6.8-7.6c0-4.7,0-5.1,4.7-5.3
		c4-0.1,7-1,7.3-5.8c0-0.5,0.3-1,0.7-1.4c2.8-3.2,1.5-6-1-8.5c-0.7-0.5-1.2-1.2-1.7-1.8c-1.2-1.5-1.2-2.8,0.3-4
		c1.5-1.5,3.1-3.1,4.6-4.6c1.2-1.2,2.4-1.4,3.7-0.1c2.1,1.5,3.9,4,6.1,4.6c2.1,0.3,4.4-2.1,6.8-2.5c3.6-0.7,4.4-2.5,4.6-6
		c0.3-6,0.5-6,6.5-6c5.8,0,6.3-0.8,6.5,5.8c0.1,3.6,1.2,5.4,4.7,6.1c1.7,0.3,3.5,1.4,5,2.2c1.2,0.8,2.1,0.5,3.1-0.3
		c1.4-1.4,2.9-2.4,4.4-3.7c1.5-1.4,2.9-1.4,4.4,0.1c1.4,1.5,2.9,2.9,4.4,4.4c1.4,1.4,1.5,2.9,0,4c-3.9,3.6-4.7,7-2.2,12.1
		c1.7,3.6,3.2,5.4,7.2,5.1c0.7,0,1.5,0.1,2.2,0.1c2.1,0.1,3.1,1,2.9,3.2c-0.1,2.1-0.1,4,0,6c0.1,2.2-1,3.1-2.9,3.2
		c-2.1,0.1-4,0.3-6.1,0.7c-0.7,0.1-1.5,0.8-1.8,1.5c-1.2,2.5-2.2,5.1-3.2,7.8c-0.3,0.8-0.1,2.1,0.1,2.8c1,1.7,2.4,3.2,3.7,4.6
		c1.2,1.4,1.4,2.5,0,3.9c-1.5,1.5-3.2,3.2-4.7,4.7c-1.4,1.4-2.5,1.2-3.9,0.1c-1.5-1.4-3.1-2.8-5-3.9c-0.7-0.3-1.8-0.5-2.5-0.1
		c-2.8,1-5.1,2.2-7.8,3.1c-1.4,0.5-1.7,1-1.7,2.2c-0.1,2.1-0.3,3.9-0.7,6C89.9,223.8,89.5,224.5,89.3,225.2z"/>
	<path class="st2" d="M153.1,221.1c0-5.1-4.2-9.1-9-9.2c-5.1,0-9.1,4.2-9.2,9c0,5.1,4.2,9.2,9.2,9.2
		C148.9,230.2,153,226.2,153.1,221.1z"/>
	<path class="st2" d="M128.6,241.2c-0.3-0.2-0.7-0.2-0.9-0.5c-1-1-2.3-2.2-3.1-3.3c-0.2-0.5-0.2-1.5,0.1-2c0.8-1.3,2.5-2.4,2.7-3.7
		c0.1-1.3-1.3-2.8-1.6-4.2c-0.5-2.2-1.7-2.4-3.6-2.5c-3.9-0.2-3.6-0.1-3.6-3.9c0-2.9-0.7-3.6,3.2-3.7c2.3,0,3.7-0.8,4-3.1
		c0.1-0.7,0.3-1.3,0.8-1.8c1-1.4,0.7-2.4-0.5-3.6c-3-3.6-2.8-3,0.3-6.1c2-2,2.2-2.2,4.3-0.2c1.8,1.6,3.3,2.5,5.5,0.7
		c0.2-0.2,0.6-0.2,0.8-0.2c2.5-0.2,3.1-1.8,3.1-4c-0.1-0.5,0-1,0.1-1.5c0.1-1.2,0.7-1.6,1.8-1.6c1.3,0,2.5,0,3.9,0
		c1,0,1.6,0.5,1.6,1.5c0.2,1.5-0.1,3.3,0.7,4.5c0.7,1,2.8,1,3.9,1.8c1.8,1.3,3,0.8,4.5-0.6c2.7-2.4,2.8-2.3,5.2,0.2
		c2.4,2.4,3,2.3,0.2,5.2c-1.4,1.6-1.8,2.8-0.6,4.6c0.6,0.8,0.8,2,1.2,3c0.1,0.8,0.7,1,1.4,1.2c1.2,0,2.2,0.2,3.5,0.2
		c1.3,0.1,1.8,0.7,1.8,2c-0.1,1.3,0,2.4,0,3.7c0,1.2-0.6,1.8-1.7,1.7c-3.1-0.1-5,0.9-6,4.2c-0.8,2.2-0.9,3.7,0.8,5.2
		c0.2,0.2,0.6,0.7,0.8,1c0.8,0.9,0.8,1.7-0.1,2.5c-0.9,0.8-1.8,1.6-2.5,2.5c-0.8,1-1.7,0.8-2.5,0.1c-0.9-0.8-1.8-1.6-2.9-2.3
		c-0.3-0.2-1-0.2-1.4-0.1c-1.6,0.6-3.1,1.3-4.6,2c-0.5,0.2-0.9,0.8-1,1.3c-0.2,1.2-0.3,2.4-0.3,3.6c-0.1,1-0.5,1.6-1.6,1.6
		c-1.3,0-2.8,0-4,0c-1.2,0-1.6-0.6-1.7-1.6c-0.1-1.3-0.1-2.4-0.5-3.7c-0.1-0.5-0.6-1-1-1.2c-1.6-0.7-3.1-1.3-4.6-2
		c-0.8-0.3-1.2-0.2-1.6,0.2c-0.9,0.8-1.8,1.5-2.8,2.2C129.3,240.7,129,241,128.6,241.2z"/>
</g>
<path class="st2" d="M153.1,74.5c9.9-9.7,23.4-15.7,38.3-15.7c30.2,0,54.8,24.6,54.8,54.8s-24.6,54.8-54.8,54.8
	s-54.8-24.6-54.8-54.8c0-12.5,4.2-24,11.2-33.2"/>
<path class="st2" d="M191.5,145c-6.9,0-13.8,0-20.8,0c-2.8,0-3.9-1.2-3.9-3.9c0-10.6,0-21.1,0-31.7c0-2.8,1.2-3.9,3.9-3.9
	c13.8,0,27.7,0,41.5,0c2.7,0,3.8,1.2,3.8,3.8c0,10.6,0,21.3,0,32c0,2.7-1.2,3.8-3.8,3.8C205.4,145.1,198.4,145,191.5,145z
	 M188.2,131.4L188.2,131.4c0,1.4,0,2.8,0,4.3c0,0.8,0.3,1.2,1.3,1.2c1.4,0,2.8,0,4,0c1,0,1.5-0.3,1.5-1.3c0-2.7,0-5.3,0-7.8
	c0-0.8,0.2-1.4,1.2-2c2.8-1.6,3.8-4.4,3-7c-0.9-2.7-3.7-4.6-7-4.7c-3.6-0.1-6.6,1.6-7.8,4.3c-1.2,2.7-0.1,5.7,2.7,7.4
	c1,0.6,1.4,1.3,1.3,2.3C188.1,129.1,188.2,130.2,188.2,131.4z"/>
<path class="st2" d="M209,97.8c-0.8,0-1.5,0-2.3,0c-0.9,0.1-1.3-0.3-1.4-1.3c-0.2-1.7-0.7-3.6-1.2-5.3c-2.7-8.7-12.6-11.1-19.4-7.5
	c-2.8,1.5-5,3.6-5.9,6.6c-0.7,2.1-1.2,4.3-1.6,6.5c-0.1,0.8-0.3,1.2-1.3,1c-1.6,0-3.3,0-5,0c-0.7,0-0.9-0.2-0.9-0.9
	c0.7-8.8,4.4-16.5,13-20.2c9.8-4.2,24.5-0.6,28.3,14.2c0.5,1.8,0.7,3.8,1,5.8c0.1,0.8-0.1,1.2-1,1.2C210.7,97.7,209.9,97.8,209,97.8
	z"/>
<path class="st2" d="M256,113.8c0-35.6-29-64.6-64.6-64.6s-64.6,29-64.6,64.6c0,1.6,0.1,3.1,0.2,4.7l-1.8-1.3H33.7
	c-6.7,0-12.2,5.5-12.2,12.2v122.9c0,6.7,5.5,12.2,12.2,12.2h162.7c6.7,0,12.2-5.5,12.2-12.2v-75.7l-0.5-0.3
	C235.7,169,256,143.8,256,113.8z"/>
</svg>
