<?xml version="1.0" encoding="utf-8"?>
<!-- Generator: Adobe Illustrator 23.1.0, SVG Export Plug-In . SVG Version: 6.00 Build 0)  -->
<svg version="1.1" id="Слой_1" xmlns="http://www.w3.org/2000/svg" xmlns:xlink="http://www.w3.org/1999/xlink" x="0px" y="0px"
	 viewBox="0 0 300 300" style="enable-background:new 0 0 300 300;" xml:space="preserve">
<style type="text/css">
	.st0{display:none;fill:none;}
	.st1{clip-path:url(#SVGID_2_);fill:url(#SVGID_3_);}
	.st2{fill:none;stroke:#FED138;stroke-width:4;stroke-miterlimit:10;}
	.st3{fill:#3399FF;}
</style>
<rect x="-5.3" y="-5.5" class="st0" width="310.5" height="310.5"/>
<g>
	<g>
		<g>
			<g>
				<g>
					<g>
						<g>
							<defs>
								<path id="SVGID_1_" d="M300,150C300,67.1,232.9,0,150,0S0,67.1,0,150s67.2,150,150,150S300,232.9,300,150"/>
							</defs>
							<clipPath id="SVGID_2_">
								<use xlink:href="#SVGID_1_"  style="overflow:visible;"/>
							</clipPath>
							
								<linearGradient id="SVGID_3_" gradientUnits="userSpaceOnUse" x1="-4032.4978" y1="933.7608" x2="-4030.2485" y2="933.7608" gradientTransform="matrix(-139.3333 0 0 139.3333 -561554.5625 -129953.9219)">
								<stop  offset="0" style="stop-color:#330066"/>
								<stop  offset="1.813190e-03" style="stop-color:#330066"/>
								<stop  offset="0.1749" style="stop-color:#380066"/>
								<stop  offset="0.3857" style="stop-color:#470066"/>
								<stop  offset="0.616" style="stop-color:#600066"/>
								<stop  offset="0.8586" style="stop-color:#820066"/>
								<stop  offset="0.9982" style="stop-color:#990066"/>
								<stop  offset="1" style="stop-color:#990066"/>
							</linearGradient>
							<rect x="0.1" y="0.1" class="st1" width="299.9" height="299.9"/>
						</g>
					</g>
				</g>
			</g>
		</g>
	</g>
</g>
<g>
	<g>
		<path class="st3" d="M208.7,112.6h-0.8v-7.4c0-1.7-1.3-3-3-3c-1.7,0-3,1.3-3,3v116.5h-14c-1.7,0-3,1.3-3,3c0,1.7,1.3,3,3,3h14v3.1
			c0,5.1-4.1,9.2-9.2,9.2h-89.5c-5.1,0-9.2-4.1-9.2-9.2v-3.1h81c1.7,0,3-1.3,3-3s-1.3-3-3-3h-81V84.3h107.8v8.9c0,1.7,1.3,3,3,3
			c1.7,0,3-1.3,3-3v-36c0-8.4-6.8-15.2-15.2-15.2h-89.5c-8.4,0-15.2,6.8-15.2,15.2v17h-0.8c-3.5,0-6.3,2.7-6.3,6v6.4
			c0,3.3,2.8,6,6.3,6h0.8v1.2h-0.8c-3.5,0-6.3,2.7-6.3,6v6.4c0,3.3,2.8,6,6.3,6h0.8v85.6h-0.8c-3.5,0-6.3,2.7-6.3,6v6.4
			c0,3.3,2.8,6,6.3,6h0.8v14.9c0,8.4,6.8,15.2,15.2,15.2h89.5c8.4,0,15.2-6.8,15.2-15.2v-55.5h0.8c3.5,0,6.3-2.7,6.3-6v-50.8
			C215,115.3,212.2,112.6,208.7,112.6z M94.1,57.2c0-5.1,4.1-9.2,9.2-9.2h89.5c5.1,0,9.2,4.1,9.2,9.2v6.5H94.1V57.2z M94.1,69.6
			h107.8v8.7H94.1V69.6z M88.1,210h-0.8c-0.2,0-0.3-0.1-0.3-0.1v-6.2c0,0,0.2-0.1,0.3-0.1h0.8L88.1,210L88.1,210z M88.1,106h-0.8v0
			c-0.2,0-0.3-0.1-0.3-0.1v-6.2c0,0,0.2-0.1,0.3-0.1h0.8L88.1,106L88.1,106z M88.1,86.5h-0.8c-0.2,0-0.3-0.1-0.3-0.1v-6.2
			c0,0,0.2-0.1,0.3-0.1h0.8L88.1,86.5L88.1,86.5z M209,169.3c0,0-0.2,0.1-0.3,0.1h-0.8v-50.8h0.8c0.2,0,0.3,0.1,0.3,0.1V169.3z
			 M153.2,53.2h-10c-1.7,0-3,1.3-3,3c0,1.7,1.3,3,3,3h10c1.7,0,3-1.3,3-3C156.2,54.5,154.9,53.2,153.2,53.2z M132.4,53.2H132
			c-1.7,0-3,1.3-3,3c0,1.7,1.3,3,3,3h0.4c1.7,0,3-1.3,3-3C135.4,54.5,134,53.2,132.4,53.2z M143.3,230.3c-1.7,0-3,1.3-3,3
			c0,1.6,1.3,3,3,3h10c1.7,0,3-1.3,3-3c0-1.7-1.3-3-3-3H143.3z M134.1,114.5c-1.2-1.2-3.1-1.2-4.2,0l-16.7,16.7
			c-1.2,1.2-1.2,3.1,0,4.2l17,17c0.6,0.6,1.3,0.9,2.1,0.9c0.8,0,1.5-0.3,2.1-0.9c1.2-1.2,1.2-3.1,0-4.2l-14.9-14.9l14.6-14.6
			C135.3,117.6,135.3,115.7,134.1,114.5z M161.7,152.5c0.6,0.6,1.3,0.9,2.1,0.9c0.8,0,1.5-0.3,2.1-0.9l17-17
			c0.6-0.6,0.9-1.3,0.9-2.1c0-0.8-0.3-1.6-0.9-2.1l-16.7-16.7c-1.2-1.2-3.1-1.2-4.2,0c-1.2,1.2-1.2,3.1,0,4.2l14.6,14.6l-14.9,14.9
			C160.5,149.4,160.5,151.3,161.7,152.5z M140.9,152c1.1,0,2.2-0.6,2.7-1.7l14.3-31c0.7-1.5,0-3.3-1.5-4c-1.5-0.7-3.3,0-4,1.5
			l-14.3,31c-0.7,1.5,0,3.3,1.5,4C140,151.9,140.5,152,140.9,152z M113,186.5h13c1.7,0,3-1.3,3-3s-1.3-3-3-3h-13c-1.7,0-3,1.3-3,3
			S111.4,186.5,113,186.5z M170.7,190H113c-1.7,0-3,1.3-3,3c0,1.7,1.3,3,3,3h57.7c1.7,0,3-1.3,3-3C173.7,191.4,172.4,190,170.7,190z
			 M170.7,200.2H113c-1.7,0-3,1.3-3,3c0,1.7,1.3,3,3,3h57.7c1.7,0,3-1.3,3-3C173.7,201.6,172.4,200.2,170.7,200.2z M195.6,166.3
			v-65.6c0-1.7-1.3-3-3-3h-89.2c-1.7,0-3,1.3-3,3v65.6c0,1.7,1.3,3,3,3h15c1.7,0,3-1.3,3-3c0-1.6-1.3-3-3-3h-12v-59.6h83.3v59.6
			h-59.2c-1.7,0-3,1.3-3,3c0,1.7,1.3,3,3,3h62.2C194.3,169.3,195.6,168,195.6,166.3z"/>
	</g>
</g>
</svg>
