<?xml version="1.0" encoding="utf-8"?>
<!-- Generator: Adobe Illustrator 22.1.0, SVG Export Plug-In . SVG Version: 6.00 Build 0)  -->
<svg version="1.1" id="Слой_1" xmlns="http://www.w3.org/2000/svg" xmlns:xlink="http://www.w3.org/1999/xlink" x="0px" y="0px"
	 viewBox="0 0 300 300" style="enable-background:new 0 0 300 300;" xml:space="preserve">
<style type="text/css">
	.st0{display:none;fill:none;}
	.st1{clip-path:url(#SVGID_2_);fill:url(#SVGID_3_);}
	.st2{fill:none;stroke:#FED138;stroke-width:5;stroke-linecap:round;stroke-miterlimit:10;}
	.st3{fill:none;stroke:#FED138;stroke-width:4;stroke-miterlimit:10;}
	.st4{fill:#FED138;}
</style>
<rect x="-5.3" y="-5.5" class="st0" width="310.5" height="310.5"/>
<g>
	<g>
		<g>
			<g>
				<g>
					<g>
						<defs>
							<path id="SVGID_1_" d="M300,150C300,67.1,232.9,0,150,0S0,67.1,0,150s67.2,150,150,150S300,232.9,300,150"/>
						</defs>
						<clipPath id="SVGID_2_">
							<use xlink:href="#SVGID_1_"  style="overflow:visible;"/>
						</clipPath>
						
							<linearGradient id="SVGID_3_" gradientUnits="userSpaceOnUse" x1="-3217.6917" y1="-239.9689" x2="-3215.4424" y2="-239.9689" gradientTransform="matrix(-139.3333 0 0 -139.3333 -448024.9375 -33285.6133)">
							<stop  offset="0" style="stop-color:#330066"/>
							<stop  offset="1.813190e-03" style="stop-color:#330066"/>
							<stop  offset="0.1749" style="stop-color:#380066"/>
							<stop  offset="0.3857" style="stop-color:#470066"/>
							<stop  offset="0.616" style="stop-color:#600066"/>
							<stop  offset="0.8586" style="stop-color:#820066"/>
							<stop  offset="0.9982" style="stop-color:#990066"/>
							<stop  offset="1" style="stop-color:#990066"/>
						</linearGradient>
						<rect x="0.1" y="0.1" class="st1" width="299.9" height="299.9"/>
					</g>
				</g>
			</g>
		</g>
	</g>
</g>
<path class="st2" d="M298,187.5h-19.9c0,0-5.4-0.3-10.6,1.1c-10,2.6-11.8,5.7-22.2,5.6c-0.6,0-1.2,0.2-1.8,0.3c-4.1,0-8.3,0-12.4,0
	c-1.3-0.3-2.5-0.6-3.8-0.8c-3.3-0.7-5.9-2.7-7.8-5.5c-0.9-1.3-1.5-3.3-1.5-4.9c0.1-2.2-0.5-4-1.7-5.5c-0.5-0.6-1-1.2-1.6-1.8
	c-2.2-2.1-2.8-4.5-1.3-7.4c1.4-2.8,1.3-5.2-1-7.6c-2.4-2.6-2.2-5.3,0-8c1.2-1.5,1.4-3,0.5-4.7c-0.8-1.6-1.6-3.1-2.5-4.7
	c0-0.5,0-0.9,0-1.4c0.1-0.2,0.3-0.5,0.4-0.7c2.3-6.7,5.3-9.1,11.7-9.2c5.4-0.1,10.9-0.1,16.3-0.1c4,0,4.6-0.6,3.5-4.8
	c-0.8-3-2.1-5.9-3.4-8.7c-1.8-3.9-3.2-7.8-3.4-12.1c-0.5-8.3,2.2-13.1,9.3-15.9c0.7,0,1.4,0,2.1,0c1.6,0.6,1.5,2,1.7,3.4
	c0.8,5.2,1.7,10.3,2.7,15.4c0.7,3.4,3,5.7,5.4,7.7c2.9,2.4,4.7,5.5,6.2,9.1c2.1,5.1,4.5,10.1,7.1,15c1.7,3.3,4.3,5.7,8.3,5.7H289"/>
<path class="st2" d="M172.8,231.2c3.9-2.6,8-4.5,11.4-7.8c3.1-3,7.3-8.9,11.7-9.9c2.5-0.5,5.7,0.9,5.7,3.8c0.1,2.6-3,4.6-4.3,6.5
	c-2,2.8-3.1,6-5.6,8.4c-3.3,3.3-7.5,6-11.2,8.8c-3.4,2.6-6.7,6.3-10.6,8.1c-3.5,1.6-7.4,1.4-11.1,2.1c-3.9,0.7-8,1.8-11.7,3.1
	c-3.8,1.3-7.2,4-11.1,5.1c-7.1,2-14.2-5.7-19.9-9c-8.2-4.7-17-9.5-25.9-13c-8.1-3.2-16.4-0.6-24.7,0.2c-3.7,0.4-38.9,11.8-50.5,13.7
	"/>
<path class="st2" d="M113.9,230c5.3,2.2,11.1,1.1,16.4,2.8c8.8,2.8,15.6,8.6,25.2,9.5c4.9,0.5,17.4-1.7,12.9-9.5
	c-2.3-3.9-8.6-5.5-12.8-6.3c-4.5,0.8-12.9-2.6-16.9-4.7c-5.3-2.8-8.5-8.1-13.2-11.6c-4.8-3.6-10.9-6.1-16.7-7.2
	c-5.9-1.2-10.9,1-16.7,1.4c-14.5,0.8-29.2,0.8-43.7,1c-0.7,0-24.3-1.2-38.3-1.5"/>
<path class="st3" d="M30.3,240.5"/>
<path class="st3" d="M10,203.9"/>
<g>
	<path class="st4" d="M78.8,199.6c1.4,0,2.5-1.1,2.5-2.5s-1.1-2.5-2.5-2.5h-2.5c-1.4,0-2.5,1.1-2.5,2.5s1.1,2.5,2.5,2.5H78.8z"/>
	<path class="st4" d="M91.2,194.7h-2.5c-1.4,0-2.5,1.1-2.5,2.5s1.1,2.5,2.5,2.5h2.5c1.4,0,2.5-1.1,2.5-2.5S92.6,194.7,91.2,194.7z"
		/>
	<path class="st4" d="M91.2,150h-2.5c-1.4,0-2.5,1.1-2.5,2.5s1.1,2.5,2.5,2.5h2.5c1.4,0,2.5-1.1,2.5-2.5S92.6,150,91.2,150z"/>
	<path class="st4" d="M78.8,150h-2.5c-1.4,0-2.5,1.1-2.5,2.5s1.1,2.5,2.5,2.5h2.5c1.4,0,2.5-1.1,2.5-2.5S80.2,150,78.8,150z"/>
	<path class="st4" d="M91.2,102.8h-2.5c-1.4,0-2.5,1.1-2.5,2.5s1.1,2.5,2.5,2.5h2.5c1.4,0,2.5-1.1,2.5-2.5S92.6,102.8,91.2,102.8z"
		/>
	<path class="st4" d="M183.1,112.8V92.9c0-0.1,0-0.1,0-0.2c0-0.2-0.1-0.4-0.1-0.6c0-0.1-0.1-0.2-0.1-0.3c-0.1-0.1-0.2-0.3-0.3-0.4
		s-0.2-0.2-0.3-0.3l-25.7-25.6c-1.5-1.5-3.6-2.3-5.7-2.3H96.2c-2.1,0-4.2,0.8-5.7,2.3L64.8,91.1c-0.1,0.1-0.2,0.2-0.3,0.3
		c-0.1,0.1-0.2,0.3-0.3,0.4c0,0.1-0.1,0.2-0.1,0.3C64,92.4,64,92.5,64,92.8c0,0.1,0,0.1,0,0.2v19.9c0,4.1,3.3,7.4,7.4,7.4h11.5
		l-18.1,18.1c-0.1,0.1-0.2,0.2-0.3,0.3c-0.1,0.1-0.2,0.3-0.3,0.4c0,0.1-0.1,0.2-0.1,0.3c-0.1,0.2-0.1,0.4-0.1,0.6c0,0.1,0,0.1,0,0.2
		v19.9c0,4.1,3.3,7.4,7.4,7.4h9l-15.6,15.6c-0.1,0.1-0.2,0.2-0.3,0.3c-0.1,0.1-0.2,0.3-0.3,0.4c0,0.1-0.1,0.2-0.1,0.3
		c-0.1,0.2-0.1,0.4-0.1,0.6c0,0.1,0,0.1,0,0.2v18.4c1.7,0,3.3,0,5-0.1v-15.8h89.4v7.4c0,1.4,1.1,2.5,2.5,2.5s2.5-1.1,2.5-2.5v-7.4h5
		v7.4c0,1.4,1.1,2.5,2.5,2.5s2.5-1.1,2.5-2.5v-7.4h5v17.3c0,1.4-1.1,2.5-2.5,2.5h-51.2c0.8,0.5,1.5,1,2.3,1.5c1.4,1,2.7,2.2,3.9,3.4
		H176c4.1,0,7.4-3.3,7.4-7.4v-19.9c0-0.1,0-0.2-0.1-0.3c0-0.1,0-0.3-0.1-0.4c0-0.2-0.1-0.3-0.2-0.4c-0.1-0.1-0.1-0.2-0.2-0.3
		c-0.1-0.2-0.2-0.3-0.3-0.4l-15.6-15.6h9c4.1,0,7.4-3.3,7.4-7.4v-19.9c0-0.1,0-0.2-0.1-0.3c0-0.1,0-0.3-0.1-0.4
		c0-0.2-0.1-0.3-0.2-0.4c-0.1-0.1-0.1-0.2-0.2-0.3c-0.1-0.2-0.2-0.3-0.3-0.4l-18.1-18.1h11.5C179.7,120.2,183.1,116.9,183.1,112.8z
		 M94,69c0.6-0.6,1.4-0.9,2.2-0.9h54.6c0.8,0,1.6,0.3,2.2,0.9l21.5,21.5h-102L94,69z M174.6,182.3H72.5l14.9-14.9h72.3L174.6,182.3z
		 M178.1,159.9c0,1.4-1.1,2.5-2.5,2.5H71.4c-1.4,0-2.5-1.1-2.5-2.5v-17.3h89.4v7.4c0,1.4,1.1,2.5,2.5,2.5s2.5-1.1,2.5-2.5v-7.4h5
		v7.4c0,1.4,1.1,2.5,2.5,2.5s2.5-1.1,2.5-2.5v-7.4h5v17.3H178.1z M174.6,137.6H72.5L90,120.2h67.2L174.6,137.6z M71.4,115.2
		L71.4,115.2c-1.4,0-2.5-1.1-2.5-2.5V95.4h54.6h34.7v7.4c0,1.4,1.1,2.5,2.5,2.5s2.5-1.1,2.5-2.5v-7.4h5v7.4c0,1.4,1.1,2.5,2.5,2.5
		s2.5-1.1,2.5-2.5v-7.4h5v17.3c0,1.4-1.1,2.5-2.5,2.5H71.4z"/>
	<path class="st4" d="M78.8,102.8h-2.5c-1.4,0-2.5,1.1-2.5,2.5s1.1,2.5,2.5,2.5h2.5c1.4,0,2.5-1.1,2.5-2.5S80.2,102.8,78.8,102.8z"
		/>
</g>
</svg>
