<?xml version="1.0" encoding="utf-8"?>
<!-- Generator: Adobe Illustrator 23.0.6, SVG Export Plug-In . SVG Version: 6.00 Build 0)  -->
<svg version="1.1" id="Layer_1" xmlns="http://www.w3.org/2000/svg" xmlns:xlink="http://www.w3.org/1999/xlink" x="0px" y="0px"
	 viewBox="0 0 283.5 323.5" style="enable-background:new 0 0 283.5 323.5;" xml:space="preserve">
<style type="text/css">
	.st0{fill:url(#SVGID_1_);}
	.st1{fill:none;stroke:#FED138;stroke-width:5;stroke-linecap:round;stroke-linejoin:round;stroke-miterlimit:10;}
	.st2{fill:none;}
	.st3{fill:#660066;stroke:#FED138;stroke-width:5;stroke-linecap:round;stroke-linejoin:round;stroke-miterlimit:10;}
	.st4{fill:url(#SVGID_2_);}
	.st5{fill:url(#SVGID_3_);}
	.st6{fill:url(#SVGID_4_);}
	.st7{fill:url(#SVGID_5_);stroke:#FED138;stroke-width:5;stroke-linecap:round;stroke-linejoin:round;stroke-miterlimit:10;}
	.st8{fill:#3399FF;}
	.st9{fill:#330066;}
	.st10{fill:#898B88;}
	.st11{fill:url(#SVGID_6_);stroke:#FED138;stroke-width:5;stroke-linecap:round;stroke-linejoin:round;stroke-miterlimit:10;}
</style>
<linearGradient id="SVGID_1_" gradientUnits="userSpaceOnUse" x1="3" y1="176.85" x2="282" y2="176.85">
	<stop  offset="0" style="stop-color:#330066"/>
	<stop  offset="1.813190e-03" style="stop-color:#3399FF"/>
	<stop  offset="1" style="stop-color:#330066"/>
</linearGradient>
<circle class="st0" cx="142.5" cy="176.9" r="139.5"/>
<polyline class="st1" points="207.7,164.5 140.3,204.4 73.4,164.5 "/>
<path id="SVGCleanerId_0" class="st2" d="M79.3,167l60.1,36.2c0.6,0.4,1.4,0.4,2,0l60.4-36.2c1.7-1,1-3.6-1-3.6h-47.3h-25.8h-2.5
	H80.3C78.4,163.5,77.7,166,79.3,167z"/>
<g>
	<path id="SVGCleanerId_0_1_" class="st2" d="M79.3,167l60.1,36.2c0.6,0.4,1.4,0.4,2,0l60.4-36.2c1.7-1,1-3.6-1-3.6h-47.3h-25.8
		h-2.5H80.3C78.4,163.5,77.7,166,79.3,167z"/>
</g>
<path class="st2" d="M73.4,163.5l66,39.8c0.6,0.4,1.3,0.4,1.9,0l66.4-39.8v-13.4H73.4V163.5z"/>
<path class="st2" d="M140.3,203.4l-12.6-39.3l7.6-95.4l4.8-57.7L154,163.8L140.3,203.4C140.5,203.6,140.3,203.6,140.3,203.4z"/>
<polyline class="st1" points="154.1,163.8 263,164.1 140.2,11 139.8,11 17,164.1 127.7,164.1 "/>
<polyline class="st1" points="139.8,11 154.1,163.8 140.3,203.4 127.7,164.1 139.8,11 "/>
<path class="st3" d="M17,164.1"/>
<path class="st3" d="M127.7,164.1"/>
<line class="st1" x1="140.3" y1="203.4" x2="139.8" y2="11"/>
<line class="st1" x1="177.7" y1="222.2" x2="177.7" y2="275.9"/>
<line class="st1" x1="104.3" y1="222.2" x2="104.3" y2="275.9"/>
<line class="st1" x1="153.2" y1="250.5" x2="153.2" y2="267.7"/>
<line class="st1" x1="128.8" y1="231.4" x2="128.8" y2="262.8"/>
<g>
	
		<linearGradient id="SVGID_2_" gradientUnits="userSpaceOnUse" x1="-224.6456" y1="74.9356" x2="-98.5" y2="74.9356" gradientTransform="matrix(1 0 0 -1 0 324)">
		<stop  offset="0" style="stop-color:#330066"/>
		<stop  offset="1.813190e-03" style="stop-color:#3399FF"/>
		<stop  offset="1" style="stop-color:#330066"/>
	</linearGradient>
	<path class="st4" d="M-155.2,287.3c28.6-20.3,49.3-50.9,56.7-86.4c-18.4,2.6-34.7,15.1-41.3,33.8c-1.2,3.3-2,6.7-2.5,10.1
		c-15.4-3.4-31.2,5.1-36.6,20.3c-0.4,1.1-0.7,2.3-1,3.5c-1.9-1.3-4-2.3-6.2-3.1c-15-5.3-31.5,2.5-36.9,17.5
		c-1.5,4.1-1.9,8.3-1.5,12.4C-199.2,297-174.5,301.1-155.2,287.3z"/>
	
		<linearGradient id="SVGID_3_" gradientUnits="userSpaceOnUse" x1="-368.8" y1="66.018" x2="-277.4399" y2="66.018" gradientTransform="matrix(1 0 0 -1 0 324)">
		<stop  offset="0" style="stop-color:#330066"/>
		<stop  offset="1.813190e-03" style="stop-color:#3399FF"/>
		<stop  offset="1" style="stop-color:#330066"/>
	</linearGradient>
	<path class="st5" d="M-282.8,251.4c-8.8-12-25.5-14.8-37.7-6.4c-1.1-3-2.7-5.8-4.7-8.5c-10.2-13.9-28.4-18.5-43.6-12.1
		c8.9,22.3,23.4,41.9,41.7,56.9c9.2,7.6,19,11.3,29.5,13.1c3.1-0.9,6.2-2.3,9-4.4C-276.4,281-273.8,263.7-282.8,251.4z"/>
	<g>
		
			<linearGradient id="SVGID_4_" gradientUnits="userSpaceOnUse" x1="-326.1" y1="46.2" x2="-154.6" y2="46.2" gradientTransform="matrix(1 0 0 -1 0 324)">
			<stop  offset="0" style="stop-color:#330066"/>
			<stop  offset="1.813190e-03" style="stop-color:#3399FF"/>
			<stop  offset="1" style="stop-color:#330066"/>
		</linearGradient>
		<path class="st6" d="M-176.8,276c-3.1-18.9-19.5-33.2-39.2-33.2c-11,0-21,4.5-28.2,11.7c-7.8-7.8-18.6-12.5-30.4-12.5
			c-18.1,0-33.6,11.2-40,27c-6,1.5-10.6,7.6-11.5,13.8c24.4,19.9,55.6,30.8,89.5,30.8c30.6,0,58.8-9.7,82-26.1
			C-160.1,281-167.9,276.7-176.8,276z"/>
	</g>
</g>
<polyline class="st1" points="-170.7,164.5 -238.1,204.4 -305,164.5 "/>
<path id="SVGCleanerId_0_5_" class="st2" d="M-299.1,167l60.1,36.2c0.6,0.4,1.4,0.4,2,0l60.4-36.2c1.7-1,1-3.6-1-3.6h-47.3h-25.8
	h-2.5h-44.9C-300,163.5-300.7,166-299.1,167z"/>
<g>
	<path id="SVGCleanerId_0_4_" class="st2" d="M-299.1,167l60.1,36.2c0.6,0.4,1.4,0.4,2,0l60.4-36.2c1.7-1,1-3.6-1-3.6h-47.3h-25.8
		h-2.5h-44.9C-300,163.5-300.7,166-299.1,167z"/>
</g>
<path class="st2" d="M-305,163.5l66,39.8c0.6,0.4,1.3,0.4,1.9,0l66.4-39.8v-13.4H-305V163.5z"/>
<path class="st2" d="M-238.1,203.4l-12.6-39.3l7.6-95.4l4.8-57.7l13.9,152.8L-238.1,203.4C-237.9,203.6-238.1,203.6-238.1,203.4z"/>
<polyline class="st1" points="-224.3,163.8 -115.4,164.1 -238.2,11 -238.6,11 -361.4,164.1 -250.7,164.1 "/>
<polyline class="st1" points="-238.6,11 -224.3,163.8 -238.1,203.4 -250.7,164.1 -238.6,11 "/>
<path class="st3" d="M-361.4,164.1"/>
<path class="st3" d="M-250.7,164.1"/>
<line class="st1" x1="-238.1" y1="203.4" x2="-238.6" y2="11"/>
<line class="st1" x1="-200.7" y1="222.2" x2="-200.7" y2="275.9"/>
<line class="st1" x1="-274.1" y1="222.2" x2="-274.1" y2="275.9"/>
<line class="st1" x1="-225.2" y1="250.5" x2="-225.2" y2="267.7"/>
<line class="st1" x1="-249.6" y1="231.4" x2="-249.6" y2="262.8"/>
<linearGradient id="SVGID_5_" gradientUnits="userSpaceOnUse" x1="569.3" y1="139.55" x2="435" y2="139.55" gradientTransform="matrix(1 0 0 -1 0 324)">
	<stop  offset="0" style="stop-color:#330066"/>
	<stop  offset="1.813190e-03" style="stop-color:#330066"/>
	<stop  offset="0.1749" style="stop-color:#380066"/>
	<stop  offset="0.3857" style="stop-color:#470066"/>
	<stop  offset="0.616" style="stop-color:#600066"/>
	<stop  offset="0.8586" style="stop-color:#820066"/>
	<stop  offset="0.9982" style="stop-color:#990066"/>
	<stop  offset="1" style="stop-color:#990066"/>
</linearGradient>
<polyline class="st7" points="569.3,164.5 501.8,204.4 435,164.5 "/>
<path class="st8" d="M585.3,287.3c28.6-20.3,49.3-50.9,56.7-86.4c-18.4,2.6-34.7,15.1-41.3,33.8c-1.2,3.3-2,6.7-2.5,10.1
	c-15.4-3.4-31.2,5.1-36.6,20.3c-0.4,1.1-0.7,2.3-1,3.5c-1.9-1.3-4-2.3-6.2-3.1c-15-5.3-31.5,2.5-36.9,17.5
	c-1.5,4.1-1.9,8.3-1.5,12.4C541.3,297,565.9,301.1,585.3,287.3z"/>
<path class="st8" d="M457.6,251.4c-8.8-12-25.5-14.8-37.7-6.4c-1.1-3-2.7-5.8-4.7-8.5c-10.2-13.9-28.4-18.5-43.6-12.1
	c8.9,22.3,23.4,41.9,41.7,56.9c9.2,7.6,19,11.3,29.5,13.1c3.1-0.9,6.2-2.3,9-4.4C464,281,466.7,263.7,457.6,251.4z"/>
<g>
	<path class="st9" d="M563.6,276c-3.1-18.9-19.5-33.2-39.2-33.2c-11,0-21,4.5-28.2,11.7c-7.8-7.8-18.6-12.5-30.4-12.5
		c-18.1,0-33.6,11.2-40,27c-6,1.5-10.6,7.6-11.5,13.8c24.4,19.9,55.6,30.8,89.5,30.8c30.6,0,58.8-9.7,82-26.1
		C580.4,281,572.5,276.7,563.6,276z"/>
</g>
<path id="SVGCleanerId_0_3_" class="st2" d="M440.9,167l60.1,36.2c0.6,0.4,1.4,0.4,2,0l60.4-36.2c1.7-1,1-3.6-1-3.6h-47.3h-25.8
	h-2.5H442C439.9,163.5,439.2,166,440.9,167z"/>
<g>
	<path id="SVGCleanerId_0_2_" class="st2" d="M440.9,167l60.1,36.2c0.6,0.4,1.4,0.4,2,0l60.4-36.2c1.7-1,1-3.6-1-3.6h-47.3h-25.8
		h-2.5H442C439.9,163.5,439.2,166,440.9,167z"/>
</g>
<path class="st2" d="M435,163.5l66,39.8c0.6,0.4,1.3,0.4,1.9,0l66.4-39.8v-13.4H435V163.5z"/>
<path class="st10" d="M501.8,203.4l-12.6-39.3l7.6-95.4l4.8-57.7l13.9,152.8l-13.6,39.6C502,203.6,501.8,203.6,501.8,203.4z"/>
<linearGradient id="SVGID_6_" gradientUnits="userSpaceOnUse" x1="624.5" y1="236.45" x2="378.5" y2="236.45" gradientTransform="matrix(1 0 0 -1 0 324)">
	<stop  offset="0" style="stop-color:#330066"/>
	<stop  offset="1.813190e-03" style="stop-color:#330066"/>
	<stop  offset="0.1749" style="stop-color:#380066"/>
	<stop  offset="0.3238" style="stop-color:#470066"/>
	<stop  offset="0.5129" style="stop-color:#600066"/>
	<stop  offset="0.74" style="stop-color:#820066"/>
	<stop  offset="0.9982" style="stop-color:#990066"/>
	<stop  offset="1" style="stop-color:#990066"/>
</linearGradient>
<polyline class="st11" points="515.6,163.8 624.5,164.1 501.7,11 501.4,11 378.5,164.1 489.2,164.1 "/>
<polyline class="st3" points="501.4,11 515.6,163.8 501.8,203.4 489.2,164.1 501.4,11 "/>
<path class="st3" d="M378.5,164.1"/>
<path class="st3" d="M489.2,164.1"/>
<line class="st1" x1="501.8" y1="203.4" x2="501.4" y2="11"/>
<line class="st1" x1="539.3" y1="222.2" x2="539.3" y2="275.9"/>
<line class="st1" x1="465.8" y1="222.2" x2="465.8" y2="275.9"/>
<line class="st1" x1="514.8" y1="250.5" x2="514.8" y2="267.7"/>
<line class="st1" x1="490.3" y1="231.4" x2="490.3" y2="262.8"/>
</svg>
