<?xml version="1.0" encoding="utf-8"?>
<!-- Generator: Adobe Illustrator 23.0.6, SVG Export Plug-In . SVG Version: 6.00 Build 0)  -->
<svg version="1.1" id="Layer_1" xmlns="http://www.w3.org/2000/svg" xmlns:xlink="http://www.w3.org/1999/xlink" x="0px" y="0px"
	 viewBox="0 0 283.5 323.5" style="enable-background:new 0 0 283.5 323.5;" xml:space="preserve">
<style type="text/css">
	.st0{fill:url(#SVGID_1_);}
	.st1{fill:none;stroke:#FED138;stroke-width:7;stroke-linecap:round;stroke-linejoin:round;stroke-miterlimit:10;}
	.st2{fill:none;}
	.st3{fill:#660066;stroke:#FED138;stroke-width:7;stroke-linecap:round;stroke-linejoin:round;stroke-miterlimit:10;}
	.st4{fill:url(#SVGID_2_);}
	.st5{fill:url(#SVGID_3_);}
	.st6{fill:url(#SVGID_4_);}
	.st7{fill:none;stroke:#FED138;stroke-width:5;stroke-linecap:round;stroke-linejoin:round;stroke-miterlimit:10;}
	.st8{fill:#660066;stroke:#FED138;stroke-width:5;stroke-linecap:round;stroke-linejoin:round;stroke-miterlimit:10;}
</style>
<linearGradient id="SVGID_1_" gradientUnits="userSpaceOnUse" x1="9.6" y1="-156.15" x2="270" y2="-156.15">
	<stop  offset="0" style="stop-color:#330066"/>
	<stop  offset="1.813190e-03" style="stop-color:#3399FF"/>
	<stop  offset="1" style="stop-color:#330066"/>
</linearGradient>
<circle class="st0" cx="139.8" cy="-156.1" r="130.2"/>
<polyline class="st1" points="198.9,201.1 140.3,235.8 82.1,201.1 "/>
<path id="SVGCleanerId_0" class="st2" d="M87.2,203.3l52.3,31.5c0.5,0.3,1.2,0.3,1.7,0l52.5-31.5c1.5-0.9,0.9-3.1,2.1-3.1h-41.1
	h-28.4h-2.2h-36C86.4,200.2,85.8,202.4,87.2,203.3z"/>
<g>
	<path id="SVGCleanerId_0_1_" class="st2" d="M87.2,203.3l52.3,31.5c0.5,0.3,1.2,0.3,1.7,0l52.5-31.5c1.5-0.9,0.9-3.1,2.1-3.1h-41.1
		h-28.4h-2.2h-36C86.4,200.2,85.8,202.4,87.2,203.3z"/>
</g>
<path class="st2" d="M82.1,200.2l57.4,34.6c0.5,0.3,1.1,0.3,1.7,0l57.8-34.6v-11.7H82.1V200.2z"/>
<path class="st2" d="M140.3,235l-14-34.2l9.6-83l4.2-50.2l15.1,132.9L140.3,235C140.4,235.1,140.3,235.1,140.3,235z"/>
<polyline class="st1" points="155.3,200.5 247,200.8 140.2,67.6 139.8,67.6 33,200.8 126.3,200.8 "/>
<polyline class="st1" points="139.8,67.6 155.3,200.5 140.3,235 126.3,200.8 139.8,67.6 "/>
<path class="st3" d="M17,164.1"/>
<path class="st3" d="M126.3,200.8"/>
<line class="st1" x1="140.3" y1="235" x2="139.8" y2="67.6"/>
<g>
	
		<linearGradient id="SVGID_2_" gradientUnits="userSpaceOnUse" x1="-224.6456" y1="98.9356" x2="-98.5" y2="98.9356" gradientTransform="matrix(1 0 0 -1 0 348)">
		<stop  offset="0" style="stop-color:#330066"/>
		<stop  offset="1.813190e-03" style="stop-color:#3399FF"/>
		<stop  offset="1" style="stop-color:#330066"/>
	</linearGradient>
	<path class="st4" d="M-155.2,287.3c28.6-20.3,49.3-50.9,56.7-86.4c-18.4,2.6-34.7,15.1-41.3,33.8c-1.2,3.3-2,6.7-2.5,10.1
		c-15.4-3.4-31.2,5.1-36.6,20.3c-0.4,1.1-0.7,2.3-1,3.5c-1.9-1.3-4-2.3-6.2-3.1c-15-5.3-31.5,2.5-36.9,17.5
		c-1.5,4.1-1.9,8.3-1.5,12.4C-199.2,297-174.5,301.1-155.2,287.3z"/>
	
		<linearGradient id="SVGID_3_" gradientUnits="userSpaceOnUse" x1="-368.8" y1="90.018" x2="-277.4399" y2="90.018" gradientTransform="matrix(1 0 0 -1 0 348)">
		<stop  offset="0" style="stop-color:#330066"/>
		<stop  offset="1.813190e-03" style="stop-color:#3399FF"/>
		<stop  offset="1" style="stop-color:#330066"/>
	</linearGradient>
	<path class="st5" d="M-282.8,251.4c-8.8-12-25.5-14.8-37.7-6.4c-1.1-3-2.7-5.8-4.7-8.5c-10.2-13.9-28.4-18.5-43.6-12.1
		c8.9,22.3,23.4,41.9,41.7,56.9c9.2,7.6,19,11.3,29.5,13.1c3.1-0.9,6.2-2.3,9-4.4C-276.4,281-273.8,263.7-282.8,251.4z"/>
	<g>
		
			<linearGradient id="SVGID_4_" gradientUnits="userSpaceOnUse" x1="-326.1" y1="70.2" x2="-154.6" y2="70.2" gradientTransform="matrix(1 0 0 -1 0 348)">
			<stop  offset="0" style="stop-color:#330066"/>
			<stop  offset="1.813190e-03" style="stop-color:#3399FF"/>
			<stop  offset="1" style="stop-color:#330066"/>
		</linearGradient>
		<path class="st6" d="M-176.8,276c-3.1-18.9-19.5-33.2-39.2-33.2c-11,0-21,4.5-28.2,11.7c-7.8-7.8-18.6-12.5-30.4-12.5
			c-18.1,0-33.6,11.2-40,27c-6,1.5-10.6,7.6-11.5,13.8c24.4,19.9,55.6,30.8,89.5,30.8c30.6,0,58.8-9.7,82-26.1
			C-160.1,281-167.9,276.7-176.8,276z"/>
	</g>
</g>
<polyline class="st7" points="-170.7,164.5 -238.1,204.4 -305,164.5 "/>
<path id="SVGCleanerId_0_5_" class="st2" d="M-299.1,167l60.1,36.2c0.6,0.4,1.4,0.4,2,0l60.4-36.2c1.7-1,1-3.6-1-3.6h-47.3h-25.8
	h-2.5h-44.9C-300,163.5-300.7,166-299.1,167z"/>
<g>
	<path id="SVGCleanerId_0_4_" class="st2" d="M-299.1,167l60.1,36.2c0.6,0.4,1.4,0.4,2,0l60.4-36.2c1.7-1,1-3.6-1-3.6h-47.3h-25.8
		h-2.5h-44.9C-300,163.5-300.7,166-299.1,167z"/>
</g>
<path class="st2" d="M-305,163.5l66,39.8c0.6,0.4,1.3,0.4,1.9,0l66.4-39.8v-13.4H-305V163.5z"/>
<path class="st2" d="M-238.1,203.4l-12.6-39.3l7.6-95.4l4.8-57.7l13.9,152.8L-238.1,203.4C-237.9,203.6-238.1,203.6-238.1,203.4z"/>
<polyline class="st7" points="-224.3,163.8 -115.4,164.1 -238.2,11 -238.6,11 -361.4,164.1 -250.7,164.1 "/>
<polyline class="st7" points="-238.6,11 -224.3,163.8 -238.1,203.4 -250.7,164.1 -238.6,11 "/>
<path class="st8" d="M-361.4,164.1"/>
<path class="st8" d="M-250.7,164.1"/>
<line class="st7" x1="-238.1" y1="203.4" x2="-238.6" y2="11"/>
<line class="st7" x1="-200.7" y1="222.2" x2="-200.7" y2="275.9"/>
<line class="st7" x1="-274.1" y1="222.2" x2="-274.1" y2="275.9"/>
<line class="st7" x1="-225.2" y1="250.5" x2="-225.2" y2="267.7"/>
<line class="st7" x1="-249.6" y1="231.4" x2="-249.6" y2="262.8"/>
<path class="st1" d="M139.9,255c0,0-1.1,33-25.9,35.5c-31.3,3.2-41.3-10.2-31.3-25.1s26.3-1.8,28.3,14.1c3,23.5-20.3,31-20.3,31"/>
</svg>
