<?xml version="1.0" encoding="utf-8"?>
<!-- Generator: Adobe Illustrator 23.0.6, SVG Export Plug-In . SVG Version: 6.00 Build 0)  -->
<svg version="1.1" id="Capa_1" xmlns="http://www.w3.org/2000/svg" xmlns:xlink="http://www.w3.org/1999/xlink" x="0px" y="0px"
	 viewBox="0 0 652 652" style="enable-background:new 0 0 652 652;" xml:space="preserve">
<style type="text/css">
	.st0{fill:url(#SVGID_2_);}
	.st1{clip-path:url(#SVGID_4_);fill:url(#SVGID_5_);}
	.st2{fill:none;stroke:#3398FF;stroke-width:4.5;stroke-linecap:round;stroke-linejoin:round;stroke-miterlimit:10;}
	.st3{fill:none;stroke:#3398FF;stroke-width:4;stroke-linecap:round;stroke-linejoin:round;stroke-miterlimit:10;}
	.st4{fill:none;stroke:#FFCC00;stroke-width:10;stroke-linecap:round;stroke-linejoin:round;stroke-miterlimit:10;}
</style>
<g>
	<g>
		<g>
			<g>
				
					<linearGradient id="SVGID_2_" gradientUnits="userSpaceOnUse" x1="-4090" y1="-25.25" x2="-3444.2" y2="-25.25" gradientTransform="matrix(-1 0 0 1 -3438 352)">
					<stop  offset="0" style="stop-color:#330066"/>
					<stop  offset="0.1703" style="stop-color:#380066"/>
					<stop  offset="0.386" style="stop-color:#480066"/>
					<stop  offset="0.626" style="stop-color:#620066"/>
					<stop  offset="0.882" style="stop-color:#860066"/>
					<stop  offset="1" style="stop-color:#990066"/>
				</linearGradient>
				<path id="SVGID_1_" class="st0" d="M652,326.8c0-178.5-144.5-323-322.9-323S6.2,148.3,6.2,326.8s144.7,322.9,322.9,322.9
					S652,505.2,652,326.8"/>
			</g>
			<g>
				<g>
					<g>
						<defs>
							<path id="SVGID_3_" d="M652,326.8c0-178.5-144.5-323-322.9-323S6.2,148.3,6.2,326.8s144.7,322.9,322.9,322.9
								S652,505.2,652,326.8"/>
						</defs>
						<clipPath id="SVGID_4_">
							<use xlink:href="#SVGID_3_"  style="overflow:visible;"/>
						</clipPath>
						
							<linearGradient id="SVGID_5_" gradientUnits="userSpaceOnUse" x1="-5097.8188" y1="468.9867" x2="-5092.9766" y2="468.9867" gradientTransform="matrix(-139.3333 0 0 139.3333 -709629.4375 -65018.668)">
							<stop  offset="0" style="stop-color:#330066"/>
							<stop  offset="0.1703" style="stop-color:#380066"/>
							<stop  offset="0.386" style="stop-color:#480066"/>
							<stop  offset="0.626" style="stop-color:#620066"/>
							<stop  offset="0.882" style="stop-color:#860066"/>
							<stop  offset="1" style="stop-color:#990066"/>
						</linearGradient>
						<rect x="6.4" y="4" class="st1" width="645.6" height="645.6"/>
					</g>
				</g>
			</g>
		</g>
	</g>
</g>
<g>
	<path class="st2" d="M1608.3,297.9c0-3.8-3.2-7.1-7.1-7.1h-214.9c-3.8,0-7.1,3.2-7.1,7.1v305.9c0,3.8,3.2,7.1,7.1,7.1h169.3
		l52.6-52.6L1608.3,297.9L1608.3,297.9z"/>
	<polyline class="st2" points="1597.3,551.9 1551.9,551.9 1551.9,597.9 	"/>
</g>
<path class="st3" d="M1712.2,403.2c0-4-1.9-5.9-5.7-6.1c-3.9-0.2-7.1-0.9-10.9-0.9c-1-0.1-1.9-0.3-2.6-0.7c-1.4-6.8-4-13.5-7.7-19.7
	c0.3-2.3,1.7-4.6,4-7c8.4-9,6.7-8.5-0.9-16.2c-7.9-7.9-8.1-8.1-16.5-0.6c-2.1,1.9-3.9,3.2-5.9,3.8c-6.6-4.4-13.8-7.3-21.3-8.9
	c-1.4-3.6-0.8-8.6-1.3-12.7c-0.2-3.6-2-4.8-5.1-4.8c-4,0-8.1,0-12.1,0c-3.9-0.2-5.4,1.4-5.9,5c-0.3,1.6-0.6,3.1-0.3,4.7
	c0.1,3-0.3,5.7-1.5,7.8c-3.5,0.7-6.9,1.8-10.3,3.1v116.9c3.9,1.6,8,2.7,12.1,3.4c0.1,0.1,0.1,0.3,0.2,0.4c0.9,4,1.2,7.8,1.4,11.7
	c0.3,3.1,1.6,5,5.3,5c4,0,8.4,0,12.4,0c3.6,0.2,4.8-1.7,5.1-5.1c0-3.7,0.3-7.5,1.1-11c0.3-0.5,0.7-1.2,1.2-1.8
	c6.6-1.7,12.9-4.4,18.7-8.2c0.9,0,1.9,0.3,2.5,0.7c3.1,2.2,6.2,4.7,9,7.1c2.6,2.3,5.3,2.8,8.1-0.3c2.3-2.6,5.1-5.4,7.9-7.9
	c3-2.6,2.8-5.3,0.3-8.1c-0.9-0.9-1.9-2.2-2.8-3.1c-4-3.4-5-6.6-4.4-10.5c2.3-4.2,4.2-8.6,5.5-13.1c3.4-4.2,8.2-5.7,14.9-5.4
	c3.6,0.5,5.4-1.7,5.4-5.4C1712.2,410.9,1712.1,407.1,1712.2,403.2z"/>
<path class="st3" d="M1631.7,361.6c-8.5,0-16.5,2.3-23.4,6.3v80.4c6.9,4,14.9,6.3,23.4,6.3c25.3,0.4,45.8-20,46-46
	C1677.7,382.8,1656.8,361.9,1631.7,361.6z"/>
<rect x="1410.7" y="384.3" class="st3" width="166.2" height="16.7"/>
<rect x="1411" y="336.9" class="st3" width="46.9" height="16.9"/>
<polyline class="st3" points="1470.4,353.8 1470.4,345.3 1517.3,345.3 1517.3,353.8 "/>
<polyline class="st3" points="1528.4,353.8 1528.4,345.3 1575.3,345.3 1575.3,353.8 "/>
<rect x="1410.7" y="431.5" class="st3" width="166.2" height="16.7"/>
<rect x="1410.7" y="478.8" class="st3" width="166.2" height="16.7"/>
<g>
	<path class="st4" d="M385.8,157.5c2.3-2.1,2.2-4.2,0.3-6.4c-0.7-0.7-1.5-1.7-2.2-2.5c-3.2-2.7-4-5.2-3.5-8.3
		c1.9-3.3,3.3-6.8,4.3-10.4c2.7-3.4,6.5-4.5,11.8-4.2c2.8,0.4,4.2-1.3,4.2-4.2c0-3.2-0.1-6.3,0-9.3c0-3.2-1.5-4.7-4.5-4.8
		c-3.1-0.1-5.7-0.7-8.6-0.7c-0.8-0.1-1.5-0.3-2-0.5c-1.1-5.4-3.1-10.6-6.1-15.5c0.3-1.9,1.3-3.6,3.2-5.6c6.6-7.1,5.3-6.7-0.7-12.7
		c-6.3-6.3-6.4-6.4-13-0.5c-1.6,1.5-3.1,2.6-4.6,3c-5.2-3.5-10.9-5.8-16.8-7.1c-1.1-2.8-0.6-6.8-1.1-10c-0.1-2.8-1.6-3.8-4.1-3.8
		c-3.2,0-6.4,0-9.6,0c-3.1-0.1-4.2,1.1-4.7,3.9c-0.3,1.2-0.5,2.5-0.3,3.7c0.1,2.3-0.3,4.4-1.1,6.1c-5.8,1.2-11.4,3.5-16.6,6.8
		c-1.9-0.6-3.8-2-5.8-3.9c-5.1-4.7-5.5-4.2-10.4,0.6c-7.9,7.9-8.1,6.4-0.9,15c0.9,1.1,1.7,2.1,2.1,3.1c-3.3,5.1-5.6,10.7-6.8,16.5
		c-1.6,1-3.7,1.3-6.2,1.3c-9.6,0.1-8,1.9-8,8.9c0,9.6-0.9,8.9,8.7,9.6c2.2,0.2,4.2,0.4,5.7,1.3c1.3,5.7,3.5,11.1,6.9,16.2
		c-1,2.8-4.4,5.3-6.4,8.2c-0.6,1.1-0.9,3.8-0.1,4.8c2.2,2.7,5.1,5.4,7.9,8.1c0.5,0.5,1.3,0.6,2.2,1.2c0.9-0.6,1.9-1,4.4-1.9
		c2.6-1.9,4.8-3.5,7-5.5l0.1-0.1c5.5,3.5,11.5,5.8,17.7,6.8c0.1,0.1,0.1,0.3,0.2,0.4c0.7,3.2,1,6.1,1.1,9.2c0.3,2.5,1.2,3.9,4.2,3.9
		c3.2,0,6.6,0,9.8,0c2.8,0.1,3.8-1.3,4.1-4.1c0-2.9,0.3-5.8,0.9-8.7c0.2-0.4,0.5-1,0.9-1.4c5.1-1.3,10.2-3.5,14.8-6.5
		c0.7,0,1.5,0.2,1.9,0.5c2.5,1.7,4.9,3.7,7.1,5.7c2.1,1.9,4.2,2.2,6.4-0.3C381.4,161.7,383.6,159.5,385.8,157.5z"/>
</g>
<path class="st4" d="M313.4,95c-5,5.6-8.2,12.9-8.3,20.9c0,17.6,14.5,32.1,32.1,32.1c17.3,0.3,31.3-13.7,31.5-31.5
	c0-17.6-14.3-31.8-31.5-32.1c-2.3,0-4.6,0.3-6.8,0.7"/>
<polyline class="st4" points="449.6,487.2 401.7,487.2 401.7,535.7 "/>
<line class="st4" x1="241.8" y1="344" x2="430.1" y2="344"/>
<line class="st4" x1="242" y1="265.2" x2="295.2" y2="265.2"/>
<line class="st4" x1="313.8" y1="304.6" x2="361" y2="304.6"/>
<line class="st4" x1="385.1" y1="303.4" x2="430.1" y2="303.4"/>
<line class="st4" x1="241.8" y1="383.3" x2="430.1" y2="383.3"/>
<line class="st4" x1="241.8" y1="422.7" x2="430.1" y2="422.7"/>
<path class="st4" d="M206.2,546c0,4.4,3.7,8,8,8h191.9l59.6-59.6v-270c-0.1-4.4-3.7-7.9-8.1-7.9H214.2c-4.4,0-8,3.7-8,8V546z"/>
</svg>
