<?xml version="1.0" encoding="utf-8"?>
<!-- Generator: Adobe Illustrator 21.0.2, SVG Export Plug-In . SVG Version: 6.00 Build 0)  -->
<svg version="1.1" id="Capa_1" xmlns="http://www.w3.org/2000/svg" xmlns:xlink="http://www.w3.org/1999/xlink" x="0px" y="0px"
	 viewBox="0 0 652 652" style="enable-background:new 0 0 652 652;" xml:space="preserve">
<style type="text/css">
	.st0{fill:url(#SVGID_2_);}
	.st1{clip-path:url(#SVGID_4_);fill:url(#SVGID_5_);}
	.st2{fill:none;stroke:#3398FF;stroke-width:10;stroke-linecap:round;stroke-linejoin:round;stroke-miterlimit:10;}
</style>
<g>
	<g>
		<g>
			
				<linearGradient id="SVGID_2_" gradientUnits="userSpaceOnUse" x1="-3638" y1="677.25" x2="-2992.2" y2="677.25" gradientTransform="matrix(-1 0 0 -1 -2986 1004)">
				<stop  offset="0" style="stop-color:#330066"/>
				<stop  offset="0.1703" style="stop-color:#380066"/>
				<stop  offset="0.386" style="stop-color:#480066"/>
				<stop  offset="0.626" style="stop-color:#620066"/>
				<stop  offset="0.882" style="stop-color:#860066"/>
				<stop  offset="1" style="stop-color:#990066"/>
			</linearGradient>
			<path id="SVGID_1_" class="st0" d="M652,326.8c0-178.5-144.5-323-322.9-323S6.2,148.3,6.2,326.8s144.7,322.9,322.9,322.9
				S652,505.2,652,326.8"/>
		</g>
		<g>
			<g>
				<g>
					<g>
						<defs>
							<path id="SVGID_3_" d="M652,326.8c0-178.5-144.5-323-322.9-323S6.2,148.3,6.2,326.8s144.7,322.9,322.9,322.9
								S652,505.2,652,326.8"/>
						</defs>
						<clipPath id="SVGID_4_">
							<use xlink:href="#SVGID_3_"  style="overflow:visible;"/>
						</clipPath>
						
							<linearGradient id="SVGID_5_" gradientUnits="userSpaceOnUse" x1="-4870.1968" y1="-41.3647" x2="-4865.3545" y2="-41.3647" gradientTransform="matrix(-139.3333 0 0 -139.3333 -677914.125 -5436.6831)">
							<stop  offset="0" style="stop-color:#330066"/>
							<stop  offset="0.1703" style="stop-color:#380066"/>
							<stop  offset="0.386" style="stop-color:#480066"/>
							<stop  offset="0.626" style="stop-color:#620066"/>
							<stop  offset="0.882" style="stop-color:#860066"/>
							<stop  offset="1" style="stop-color:#990066"/>
						</linearGradient>
						<rect x="6.4" y="4" class="st1" width="645.6" height="645.6"/>
					</g>
				</g>
			</g>
		</g>
	</g>
</g>
<polygon class="st2" points="413.2,98.6 330.9,134.3 248.5,98.6 330.9,67.7 "/>
<path class="st2" d="M281.6,115.2v26.9c0,13.5,22,24.3,49.2,24.3s49.2-10.9,49.2-24.3v-26.9"/>
<polyline class="st2" points="330.9,95.1 393,104.8 393,161 "/>
<polyline class="st2" points="449.6,487.2 401.7,487.2 401.7,535.7 "/>
<line class="st2" x1="345.6" y1="402.8" x2="428.7" y2="402.8"/>
<line class="st2" x1="345.6" y1="367.8" x2="428.7" y2="367.8"/>
<line class="st2" x1="345.6" y1="437.9" x2="428.7" y2="437.9"/>
<line class="st2" x1="345.6" y1="297.6" x2="428.7" y2="297.6"/>
<line class="st2" x1="345.6" y1="332.7" x2="428.7" y2="332.7"/>
<line class="st2" x1="240.2" y1="262.5" x2="323.3" y2="262.5"/>
<line class="st2" x1="239.8" y1="402.8" x2="322.9" y2="402.8"/>
<line class="st2" x1="239.8" y1="367.8" x2="322.9" y2="367.8"/>
<line class="st2" x1="239.8" y1="437.9" x2="322.9" y2="437.9"/>
<line class="st2" x1="239.8" y1="297.6" x2="322.9" y2="297.6"/>
<line class="st2" x1="239.8" y1="332.7" x2="322.9" y2="332.7"/>
<path class="st2" d="M206.2,546c0,4.4,3.7,8,8,8h191.9l59.6-59.6v-270c-0.1-4.4-3.7-7.9-8.1-7.9H214.2c-4.4,0-8,3.7-8,8V546z"/>
</svg>
