<?xml version="1.0" encoding="utf-8"?>
<!-- Generator: Adobe Illustrator 18.0.0, SVG Export Plug-In . SVG Version: 6.00 Build 0)  -->
<!DOCTYPE svg PUBLIC "-//W3C//DTD SVG 1.1//EN" "http://www.w3.org/Graphics/SVG/1.1/DTD/svg11.dtd">
<svg version="1.1" id="Layer_1" xmlns="http://www.w3.org/2000/svg" xmlns:xlink="http://www.w3.org/1999/xlink" x="0px" y="0px"
	 viewBox="0 -30.00001 283.45999 323.45999" enable-background="new 0 -0.00001 283.45999 283.45999" xml:space="preserve">
<metadata><?xpacket begin="﻿" id="W5M0MpCehiHzreSzNTczkc9d"?>
<x:xmpmeta xmlns:x="adobe:ns:meta/" x:xmptk="Adobe XMP Core 5.6-c011 79.156289, 2014/03/31-23:39:12        ">
   <rdf:RDF xmlns:rdf="http://www.w3.org/1999/02/22-rdf-syntax-ns#">
      <rdf:Description rdf:about=""
            xmlns:xmpMM="http://ns.adobe.com/xap/1.0/mm/"
            xmlns:stRef="http://ns.adobe.com/xap/1.0/sType/ResourceRef#"
            xmlns:stEvt="http://ns.adobe.com/xap/1.0/sType/ResourceEvent#"
            xmlns:xmp="http://ns.adobe.com/xap/1.0/"
            xmlns:xmpGImg="http://ns.adobe.com/xap/1.0/g/img/"
            xmlns:pdf="http://ns.adobe.com/pdf/1.3/"
            xmlns:dc="http://purl.org/dc/elements/1.1/"
            xmlns:xmpTPg="http://ns.adobe.com/xap/1.0/t/pg/"
            xmlns:stDim="http://ns.adobe.com/xap/1.0/sType/Dimensions#"
            xmlns:xmpG="http://ns.adobe.com/xap/1.0/g/">
         <xmpMM:RenditionClass>proof:pdf</xmpMM:RenditionClass>
         <xmpMM:DocumentID>xmp.did:95e3d1ca-33c9-463f-aa61-4453841f1e94</xmpMM:DocumentID>
         <xmpMM:InstanceID>xmp.iid:95e3d1ca-33c9-463f-aa61-4453841f1e94</xmpMM:InstanceID>
         <xmpMM:OriginalDocumentID>uuid:c080c731-dd84-d24f-a9ad-38749b9d43c1</xmpMM:OriginalDocumentID>
         <xmpMM:DerivedFrom rdf:parseType="Resource">
            <stRef:instanceID>uuid:639bd6f6-bcba-cc47-9424-77a5c96fe898</stRef:instanceID>
            <stRef:documentID>uuid:c080c731-dd84-d24f-a9ad-38749b9d43c1</stRef:documentID>
            <stRef:originalDocumentID>uuid:c080c731-dd84-d24f-a9ad-38749b9d43c1</stRef:originalDocumentID>
            <stRef:renditionClass>proof:pdf</stRef:renditionClass>
         </xmpMM:DerivedFrom>
         <xmpMM:History>
            <rdf:Seq>
               <rdf:li rdf:parseType="Resource">
                  <stEvt:action>saved</stEvt:action>
                  <stEvt:instanceID>xmp.iid:95e3d1ca-33c9-463f-aa61-4453841f1e94</stEvt:instanceID>
                  <stEvt:when>2018-01-10T12:42:51+02:00</stEvt:when>
                  <stEvt:softwareAgent>Adobe Illustrator CC 2014 (Macintosh)</stEvt:softwareAgent>
                  <stEvt:changed>/</stEvt:changed>
               </rdf:li>
            </rdf:Seq>
         </xmpMM:History>
         <xmp:CreateDate>2018-01-10T12:42:51+02:00</xmp:CreateDate>
         <xmp:CreatorTool>Adobe Illustrator CC 2014 (Macintosh)</xmp:CreatorTool>
         <xmp:ModifyDate>2018-01-10T12:42:51+02:00</xmp:ModifyDate>
         <xmp:MetadataDate>2018-01-10T12:42:51+02:00</xmp:MetadataDate>
         <xmp:Thumbnails>
            <rdf:Alt>
               <rdf:li rdf:parseType="Resource">
                  <xmpGImg:width>240</xmpGImg:width>
                  <xmpGImg:height>256</xmpGImg:height>
                  <xmpGImg:format>JPEG</xmpGImg:format>
                  <xmpGImg:image>/9j/4AAQSkZJRgABAgEASABIAAD/7QAsUGhvdG9zaG9wIDMuMAA4QklNA+0AAAAAABAASAAAAAEA&#xA;AQBIAAAAAQAB/+4ADkFkb2JlAGTAAAAAAf/bAIQABgQEBAUEBgUFBgkGBQYJCwgGBggLDAoKCwoK&#xA;DBAMDAwMDAwQDA4PEA8ODBMTFBQTExwbGxscHx8fHx8fHx8fHwEHBwcNDA0YEBAYGhURFRofHx8f&#xA;Hx8fHx8fHx8fHx8fHx8fHx8fHx8fHx8fHx8fHx8fHx8fHx8fHx8fHx8fHx8f/8AAEQgBAADwAwER&#xA;AAIRAQMRAf/EAaIAAAAHAQEBAQEAAAAAAAAAAAQFAwIGAQAHCAkKCwEAAgIDAQEBAQEAAAAAAAAA&#xA;AQACAwQFBgcICQoLEAACAQMDAgQCBgcDBAIGAnMBAgMRBAAFIRIxQVEGE2EicYEUMpGhBxWxQiPB&#xA;UtHhMxZi8CRygvElQzRTkqKyY3PCNUQnk6OzNhdUZHTD0uIIJoMJChgZhJRFRqS0VtNVKBry4/PE&#xA;1OT0ZXWFlaW1xdXl9WZ2hpamtsbW5vY3R1dnd4eXp7fH1+f3OEhYaHiImKi4yNjo+Ck5SVlpeYmZ&#xA;qbnJ2en5KjpKWmp6ipqqusra6voRAAICAQIDBQUEBQYECAMDbQEAAhEDBCESMUEFURNhIgZxgZEy&#xA;obHwFMHR4SNCFVJicvEzJDRDghaSUyWiY7LCB3PSNeJEgxdUkwgJChgZJjZFGidkdFU38qOzwygp&#xA;0+PzhJSktMTU5PRldYWVpbXF1eX1RlZmdoaWprbG1ub2R1dnd4eXp7fH1+f3OEhYaHiImKi4yNjo&#xA;+DlJWWl5iZmpucnZ6fkqOkpaanqKmqq6ytrq+v/aAAwDAQACEQMRAD8A9U4q7FXYq7FXYq7FXYq7&#xA;FXYq7FXYq7FXYqhL+8MICJ/eNuT4DAqVOS5Jc8ietd8VUre/nsrjjUtB3jJ7HwySGSI6uiupqrAF&#xA;T7HAlvFXYq7FXYq7FXYq7FXYq7FXYq7FXYq7FXYq7FXYq7FXYq7FXYq7FXYq7FXYq7FXEgCp6DFU&#xA;inlMsrOf2jt8u2BUkvvOHlLT5zb32tWNrcA0aGW5iRwfdWYEfTiqsbyyvYo7qyuI7mB6hZoXWRDT&#xA;wZSR3yUUFPtAuC9s0JO8R2/1W/txKhNMCXYq7FXYq7FXYq7FXYq7FXYq7FXYq7FXYq7FXYq7FXYq&#xA;7FXYq7FXYq7FXEgddsVWGVB3r8sVUbq4pbyUHUUr89sVeLfn7q3m6x0Czh0JZ0tLt5E1O5tlYuqg&#xA;L6aFl3VZOTVPtTvgCHk2gfkd5+1rTxfrBFYxOOUSXrtFJIPEIFdhX/KphtVLy9Y/mF5M86wafBaz&#xA;xXjzRpNbKC8E8bN1JFUZaV+L9n2phV9WaHN6d4R1DqRT5b/wxKhkAnXuCMCVwkQ9Diq7FXYq7FXY&#xA;q7FXYq7FXYq7FXYq7FXYq7FXYq7FXYq7FXYq7FVrSKvufDFVJpmPTbFVhJPXfFXYqoXf9w30frxK&#xA;pfkVdiqhef3Q/wBb+ByUUFbpf+90X+y/4ickVDIMil2Kth2HQ4qqLP8AzD6RiqoGDDY1xVvFXYq7&#xA;FXYq7FXYq7FXYq7FXYq7FXYq7FXYq0zqo3+7FVF5Wb2GKrMVdirsVdiqhd/3DfR+vEql+RV2KqF5&#xA;/dD/AFv4HJRQVul/73xf7L/iJyRUMgyKXYq7FXYq4Eg1GKqqTdm+/FVUEHpirsVdirsVdirsVdir&#xA;sVdirsVdirsVU5JQuw3OKqJJJqeuKuxV2KuxV2KuxVQvP7g/MfrwFUvwK7FVC8/uh/rfwOSigrdL&#xA;/wB74v8AZf8AETkioZBkUuxV2KuxV2KuxVcjlenTwxVXVgwqMVbxV2KuxV2KuxV2KuxV2KuxVSkl&#xA;/ZX6TiqlirsVdirsVdirsVWSypGvJj8h3OAmlS+WZ5Wq3TsvYZEDqVU8KuxVQvP7of638DkooKha&#xA;/wB+v0/qwyGyhO7a65USQ79m8fnlYNc2SKyaHYq7FXYq7FXYq2rFTUYqro4Ye/cYquxV2KuxV2Ku&#xA;xV2KuxVTlkp8I698VUcVdirsVWPNEhozUPhiqm97aoKtJQdOhxVUiljlTnGwZT3GKrZp0iG+7Hou&#xA;RMlS95HdizGpwAKtwq7FXYqoXn90P9b+ByUUFQtf79fp/VhKAjsgyRVvd8aJIfh7N4fPBde5KNya&#xA;FNriFSQWFR1xVTe+tEpykAr02P8ATFVdWVlDKaqdwRireKuxVtWKmoxVEKwYVGKt4q7FXYq7FXYq&#xA;tkfivuemKofFXYq7FXYql13/AL0N9H6hgVBXn90P9b+BwxQVfTLj0rZwBVi3wjt0wSPQJDbMzEsx&#xA;qT1OAClaxV2KuxV2KqF5/dD/AFv4HJRQVC1/v1+n9WEoCOyDJ2Koi3uTH8Lbp+IwckqLGrEjfc4Q&#xA;UIO96p9OTigpvpn+8MXyP6zgKQisVdirsVXI/E17d8VRANRXFXYq7FXYq4mgriqGduTV+7FWsVdi&#xA;rsVdiqXXf+9DfR+oYFQ0sYkAU9AanI33LS8AAUAoB0GECldirsVdirsVdiqhef3Q/wBb+ByUUFQt&#xA;f79fp/VhKAjsgydirsVd7jIkdQqFveqfTlkDaCm+mf7wxfI/rOJSEVirsVdirsVVYX/ZP0Yqq4q7&#xA;FXYqpzNQcfHriqjirsVdirsVdiqWXLB52Kmq7b/Rld37kqeSQ7FXYq7FXYq7FXYqoXn90P8AW/gc&#xA;lFBULX+/X6f1YSgI7IMnYq7FXYqpzQrIu+zDocFdQqY6cONoiH7S1BH0nJA2tIrCrsVdirsVcCQa&#xA;jFUSpDAHxxVvFXYqhnbkxOKtYq7FXYq0SAKnYDqcSVQVxdF6omydz3OQ5+5KGwodirsVdirsVdUV&#xA;AruemAyANd607CrsVULz+6H+t/A5KKCh7YgTKSaDf9WM5ACzsoFo/IpdirsVdirsVXJI6MGU0OAh&#xA;UwhnSUbbMOq4RJVXJK7FXYq7FVWBuq/SMVVcVWytRD77Yqh8VdirsVaZlVSzGgHU4CaVAXFy0poN&#xA;k8PH55HnzSoYUOxV2KuxVRmvbeLYtyb+Vdzmt1Xa+nw7GVy7hu349NOXRAzanM20YCDx6nOb1XtF&#xA;lntjHAPmXOx6KI57usBNJciQ8mAB5OakDbxyHYhyZNUJyuXOzz6d66oRjjobJpncuqdiqhef3Q/1&#xA;v4HJRQUC6O6FUUsx6ACp23zW9twlLSzERZ2/3Qb9KQMgtSiu7iHZW2H7LbjOI0vamfBtGW3cdx+P&#xA;c7XJp4T5hGw6pE20g4HxG4zpNL7R45bZBwnv5j9f3uDk0Uh9O6MR0cVRgw8Rm/xZoZBcCJDycOUS&#xA;DRbyxDsVdirasykMpoR0OJFqj4LlZBQ7P4ePyxEuhSr5JDsVdiraGjA4qicVUZzuBiqnirsVWSSJ&#xA;GvJjQfrwE0qAmneVt9lHRciB1KqWFXYq07ogq7BR4nK8uaGMXMiI80xiSaCDm1SJdowXPidhmg1X&#xA;tHjjtjHEe/kP1/c5mPQyP1bIKW7uJtmbY/srsM5vVdqZ8+0pbdw2H497nY9PCHIIi10a9noSvpof&#xA;2n2/Drl+l7E1GbeuGPfL9XNjk1UI+abW2g2cVDLWZ/fZfuzpNL7PYMe8/Wfs+X63ByayZ5bIu5VU&#xA;tiqgKopQAUHXN5GAiKAoOKSTzQGKHYqoXn90P9b+ByUUFbpf+98X+y/4ickVCb3On2lzX1YwW/nG&#xA;zfeM1+q7NwZ/rjv38i3Y80ocilN15dkWrWz8x/I2x+/pnN6r2amN8UuLyPP58vuc3HrgfqCWvFdW&#xA;r0dWib7q/T3zRShn009+KEvl/a5YMJjoVeHU5V2kHMeI2ObnS+0eWO2QcY7+R/U42TRRP07I2G8t&#xA;5dlajfynY50el7VwZ9oyqXcdj+Pc4OTTzhzCtmxaXYq2CQajY+OJFqjbe6D0R9n7HxwA1zSicmh2&#xA;KuxVERmqA4qoymrnFVuKrJZViTkfoHicEjSpdLK8jcmPyHYZEBVmFVGa8t4tmarfyjc5rtV2rgwb&#xA;Slcu4bn8e9ux6ec+QQU2pyttGOA8Tuc5zVe0eWW2McA7+Z/U52PRRH1bqEcV1dP8CtK3c9afT2zT&#xA;xhn1MtuKcvx8nJJhjHQJnbeXZGo1y/AfyJufv6ZvdL7NTO+WVeQ5/Pl97iZNcP4Qm1tYWlt/dRgN&#xA;/Od2+850ml7OwYPojv38z83CyZpT5lEZmtTsVULv+4b6P14lUvyKuxVQvP7of638DkooK3S/974v&#xA;9l/xE5IqGQZFLsVWuiOpV1DKeoIqMhPHGYqQBHmkEjklt1oFrJVoSYW8Buv3HNDqvZ3DPeB4D8w5&#xA;ePWyHPdKbnSL6CpKeog/aTf8Ouc3quxtRh3I4o943/a52PVQl1pRivbiLYNVf5W3GR0va+ow7CVj&#xA;uO65NNCXRGw6nE20g4Hx6jOk0vtFintkHAfmP1uFk0Uh9O6LV1cVUhh4jfN9jyxmLiQR5OHKJBot&#xA;5NCMtrokiOQ79Fb+BwXSUXk0OxVWgPwkeBxVSY1Yn3xVrFUp19pY44JUNArGp9yNs57t/LkxDHkg&#xA;a4ZH7v7XM0cYysFLRqzcd4xy8a7fdTNePaeXDvAcXv2+VfpbjoBfNDy3lxLsWoD+yu2anVdr6jNs&#xA;ZUO4bORj00I9Fa10i9uKEJ6afzPt+HXJ6TsbUZt64Y98tv2oyaqEetptbaBaR0MxMzeB2X7hnSaX&#xA;2dww3n6z8h8v2uFk1sjy2TJERFCooVR0UCgzewxxgKiKHk4hJO5XZNDsVdirsVULv+4b6P14lUvy&#xA;KuxVQvP7of638DkooK3S/wDe+L/Zf8ROSKhkGRS7FXYq7FXYqhbnTbO5qZIxyP7a7N94zA1XZmDP&#xA;9Ud+8bH8e9ux55w5FKbry9MtWt3Eg/kbZvv6Zzer9m8kd8R4h3HY/q+5zceuB+oUlrJc20lGDRP7&#xA;7V/rmj/f6af8UJfL+1yvRkHQhER6pKoo6h/foc3On9pMsRU4if2fr+5xp6GJ5Gm1vJ7m4ijQcQXW&#xA;gHWtfHIZe182qyQhEcMeIbD39SmOmjjiSd9mU53LqnYqqwHcjFVLFXYqsmhjmjaOReSNsQcqzYY5&#xA;YmExcSyjIxNhKj5ct+dRKwT+Wgr9/wDZnPH2YxcVicuH4ff+xzPz0q5I+206ztqGOMch+2d2+85t&#xA;9L2ZgwfRHfvO5/HucbJnnPmUTme1OxV2KuxV2KuxV2KqF3/cN9H68SqX5FXYqoXn90P9b+ByUUFb&#xA;pf8AvfF/sv8AiJyRUMgyKXYq7FXYq7FXYq7FVskccilZFDqeoYVGQyYozFSAI80iRG4S2fy/aSGs&#xA;TNEfAbj8c0Oo9nMEzcCYfaPx8XLhrZjnurWOk29o3MVeXpzbt8hmX2f2Pi0x4h6p95/Q15tTKe3R&#xA;HZtnHdiqpB9o/LFVPFXYq7FXYq7FXYq7FXYq7FXYq7FXYqoXf9w30frxKpfkVdiqhef3Q/1v4HJR&#xA;QVul/wC98X+y/wCInJFQyDIpdirsVdirsVdirsVdirsVdirsVdiqpB9s/LFVM9TirsVdirsVdirs&#xA;VdirsVdirsVdirsVUrkVgf5V+7FUtyKrJbi3hKiWVIy2yh2C1+VchPLGP1EC+9IiTyUr0/u1Hv8A&#xA;wy2LErtIQteA/wAqkn9X8ckVCe5FLsVdirsVdirsVdirsVdirsVdirsVVIPtH5YqscUc/PFWsVdi&#xA;rsVdirsVdirsVdirsVdirsVSPVtZ+IwWx2B/eSDv7DOT7W7cIl4eE8uZ/QP0uw0+ksXJURg6Kw6M&#xA;Kj6c6fFkGSAkOUhbgSjRpgnnhidYUE7CFaD6Wzj+3z+/H9Ufpdrovo+LKLZ2bSrAsasYI2YnuSgz&#xA;rNCbwwP9GP3OszfWfeW0vJbWZXiO/wC0p6EeGaTtztSeDLAQPLcjv8vvcrSYBOJJZHZ3cV1CJYz7&#xA;MvcHwObnRa2GoxicfiO5xsuIwNFXzLa3Yq7FXYq7FXYq7FXYq7FXYq7FVWAbE4qtmFHr44qsxV2K&#xA;uxV2KuxV2KuxV2KuxV2KpFq+r15W1s23SSQd/YZyHbXbV3ixHbqf0B2Ol0v8UklzlHYJnpk/KMxH&#xA;7Sbj5HO19ndZx4ziPOPL3fsLq9biqXF3sP8AO/8Ax2R/xhT9bZr+3/8AGP8ANH6XJ0X0fFklk1dN&#xA;svBbaL/iAOdVo5iGmhI7AQB+x1uUE5CB3qTtyYn7s871upOfLLIep+zp9jucWPgiAq2d5NaTCSM7&#xA;dGU9CMOi1s9PPij8R3rlxCYosptLuG6hEsR2/aXuD4HPQ9HrIaiHHD+x02TGYGir5ltbsVdirsVd&#xA;irsVdirsVWtIq9evhiglSM7dhTDTHiRltX0QT1O+BkG5hVQfDFKjirsVdirsVdirsVdirsVdiqR6&#xA;zqxBa1gNKbSv/wAaj+Ocl232wbOHH/nH9A/S7HS6b+KXwSTOSdg7FVS3keOZWQEkdh3GZei1E8OU&#xA;TjuR9rXlgJRILHfO++sqaEVhQ0Ox6nNx25LizAjrENOjFQrzT20LDSrMUNGhj39goy/tbWGOlx4o&#xA;/wAUIk+6uX4/S1afFeSUj0JbzlXPdiqvZ3k1pMJIzt0ZT0IzM0Wtnp58UfiO9ry4hMUWVWt1HcwL&#xA;NH0PUHqD3Gei6TVQz4xOPIulyYzA0VbMlg7FXYq7FXYq7FVGSXsv0nCAxJUsLBygswA6nYYpTRQF&#xA;UAdAKZFsbYVBHjiqAeahIpuNjXDTEyW+u3gMaRxNifxH3Y0niVFZW6HAkFdil2KuxV2KuxVKLrQF&#xA;muXlWbgrksyla7nc9xnNav2dGXKZifCJG+V/pc7HreGNEcl0fl2zXd3dz4bAZPF7NYB9RlL7Px80&#xA;S10zyARUelafH9mBT/rfF+uubDF2RpYcoD47/e0y1OQ9USkaIKIoUeAFMz4Y4xFRAHuaSSebzT8x&#xA;AP8AEA94Er97Zxvb/wDjH+aP0u10X0fFnugADQtOAFB9WhP3xg51eh/uIf1I/c63N9Z95RUlnaSf&#xA;bhRj4lRX78cuhwz+qET8FjlkORKEk0LT36K0f+qx/jXNdl9n9LLkDH3H9dt0dZkHmhpPLaf7rnI9&#xA;mWv4gjNfk9l4/wAM/mP7G6OvPUJlY2aWluIVPLerMe5Ob7QaIabEIA35+biZspnK0Rma1OxV2Kux&#xA;V2KqUz0HEdThDGRUcLB2Kq9nHyl5dl3+nAWUUdgZuxVBXkfF+Y6N1+eEMJBD4WLsVcCQajY4pREc&#xA;nIe4wFmCvwJdirsVdirsVdirsVdirzL8xf8Ajvr/AMYE/W2cV2//AIx/mj9LttF9HxZ9oP8Axw9O&#xA;/wCYWH/k2udXof7iH9SP3OtzfWfeUfmU1uxV2KuxV2KuxV2KuxVrFUMzcmJ8ck1lrFDsVTC2j9OI&#xA;V+0dzkS2AKuKXYqsljEkZU/QffFBCWkEEg7Edck1uxV2KtqxUgjFIVWnUdBXBTLiW+u/tjSOJsTn&#xA;uMaXiWtewL3JPgMaTxBTOor2Qn5nDwo43DUU/aQj5GuPCvGrx3MMmytv4HY4KZCQKrgSxPzX5Ou9&#xA;X1CO7tp40HARyLJyFOJJqvEGvXpmh7U7InqMgnEgbUbc3T6kQjRDIrVIbGyt7UyVEEaRAnqQiha0&#xA;HyzdYMXBCMf5oA+ThznZJ73HUIR0DH6Mt4WvjDhqEJ6hhjwrxhWjnik+wwJ8O+NMgQqYEuxV2KtY&#xA;qtMqDvjSLC15VKEA74aQSo4WDsVVrWLnJU/ZXc4CyAR+Bm7FXYq7FULeQ1/eL/sv64QxkEJhYOxV&#xA;2KuxVa7qgqcVQskrP7DwyTG1mKuxV2KuxVE2946Hi/xJ+IwEMhJfcXpPwxGg7t3+jAAmUu5Bkkmp&#xA;65Jg7FXYq7piqLt71gQspqvZu4yJDOMkcDXcdMi2LXcKPfsMUEqDMzHc5JgS1ih2KuxVtVLMFG5P&#xA;TFKYwxiNAo+k++RZgL8UuxV2KuxVxFRQ9MVQFxAY2qPsHp/TJBgQo4sXYq0SAKnpiqEkkLtXt2GS&#xA;YlZirsVdirsVdirsVdirsVdirsVdirsVRljcU/dMduqn+GRIZxKozFmJOKktYodirsVdiqOtYOA5&#xA;t9o9B4DAWYCvgZOxV2KuxV2KuxVplVlKsKg4ql88DRN4qehyTWQpEgCp6YoQ0s5YFV+z44aQSpYU&#xA;OxV2KuxV2KuxV2KuxV2KuxV2KuxV2KtqSCCOoxVGg1APjkWTeKuxV2Kou1tqUkcb/sj+OAlmAisD&#xA;J2KuxV2KuxV2KuxV2KtMqspVhUHFUq1CB4lFN0Y9f4HJBrkKQOSYOxV2KuxV2KuxV2KuxV2KuxV2&#xA;KuxV2KuxV2KrhI46McVVUuez/eMFJtEDelN69KYEoy3teNHk+12HhgJZgInAydirsVdirsVdirsV&#xA;dirsVdirTKrKVYVB6g4qlt3pZFXg3HdO/wBGSBazDuS8gg0IoR1ByTBrFXYq7FXYq7FXYq7FXYq7&#xA;FXYq7FXYq7FXYqqwW007UjWvi3YYkpAtN7S0W3TryfufD5ZAlsEaRGBk7FXYq7FXYq7FXYq7FXYq&#xA;7FXYq7FXYqo3FpBOPjX4uzDY4QUEWls+mTx7p+8X26/dkgWswKEIINCKEdQcLFrFXYq7FXYq7FXY&#xA;q7FXYq7FXYqqRW80ppGhb37ffjaQLTC30lRRpjyP8g6ffkTJmII9VVFCqAqjoBkWbeKuxV2KuxV2&#xA;KuxV2KuxV2KuxV2KuxV2KuxV2KuxVZLBDKKSIG9z1+/G0EIOTSITvG5T2O4yXExMEM+lXK/Z4v8A&#xA;I0/Xh4mPAVFrS6XrE30Cv6sbRwlTKOOqkfMYULcVdiq9YZW+yjH5AnFaVUsLtukZHzoP14LTwlER&#xA;6RKf7xwo8Bv/AEwcTIQRUWm2se5XmfFt/wAMFshEIoAAUAoB0AwMnYq7FXYq7FXYq7FXYq7FXYq/&#xA;/9k=</xmpGImg:image>
               </rdf:li>
            </rdf:Alt>
         </xmp:Thumbnails>
         <pdf:Producer>Adobe PDF library 11.00</pdf:Producer>
         <dc:format>image/svg+xml</dc:format>
         <xmpTPg:NPages>1</xmpTPg:NPages>
         <xmpTPg:HasVisibleTransparency>True</xmpTPg:HasVisibleTransparency>
         <xmpTPg:HasVisibleOverprint>False</xmpTPg:HasVisibleOverprint>
         <xmpTPg:MaxPageSize rdf:parseType="Resource">
            <stDim:w>9.999839</stDim:w>
            <stDim:h>9.999839</stDim:h>
            <stDim:unit>Centimeters</stDim:unit>
         </xmpTPg:MaxPageSize>
         <xmpTPg:PlateNames>
            <rdf:Seq>
               <rdf:li>Cyan</rdf:li>
               <rdf:li>Magenta</rdf:li>
               <rdf:li>Yellow</rdf:li>
               <rdf:li>Black</rdf:li>
            </rdf:Seq>
         </xmpTPg:PlateNames>
         <xmpTPg:SwatchGroups>
            <rdf:Seq>
               <rdf:li rdf:parseType="Resource">
                  <xmpG:groupName>Группа образцов по умолчанию</xmpG:groupName>
                  <xmpG:groupType>0</xmpG:groupType>
               </rdf:li>
            </rdf:Seq>
         </xmpTPg:SwatchGroups>
      </rdf:Description>
   </rdf:RDF>
</x:xmpmeta>
                                                                                                    
                                                                                                    
                                                                                                    
                                                                                                    
                                                                                                    
                                                                                                    
                                                                                                    
                                                                                                    
                                                                                                    
                                                                                                    
                                                                                                    
                                                                                                    
                                                                                                    
                                                                                                    
                                                                                                    
                                                                                                    
                                                                                                    
                                                                                                    
                                                                                                    
                                                                                                    
                           
<?xpacket end="w"?>
	</metadata>
<g>
	<path fill="#F7F7F7" d="M283.45999,141.73c0,47.72205-23.58585,89.93489-59.73642,115.61845
		c-23.14517,16.44345-53.93158,7.28802-84.48492,7.28802c-34.14973,0-62.98735,6.746-87.45682-13.37134
		C20.16497,225.27097,0,185.85507,0,141.73C0,63.45462,63.45462,0,141.73,0S283.45999,63.45462,283.45999,141.73z"/>
	<path opacity="0.5" fill="#D9EBED" enable-background="new    " d="M223.72357,257.34845
		c28.57631-20.30226,49.2977-50.93422,56.728-86.44975c-18.35681,2.62589-34.6768,15.08263-41.32648,33.76662
		c-1.18588,3.33064-2.00693,6.70227-2.48749,10.07169c-15.35999-3.41814-31.21437,5.06352-36.62558,20.26849
		c-0.40747,1.14603-0.73856,2.3009-1.00816,3.45856c-1.90395-1.25565-3.9845-2.30754-6.22949-3.10643
		c-15.02005-5.34589-31.52884,2.49742-36.87416,17.51749c-1.4566,4.09358-1.9294,8.29564-1.54851,12.35378
		C179.74629,266.96173,204.39847,271.078,223.72357,257.34845z"/>
	<path opacity="0.5" fill="#D9EBED" enable-background="new    " d="M96.11563,221.44481
		c-8.82491-11.99335-25.52303-14.76151-37.72454-6.43542c-1.14823-2.96416-2.69508-5.82809-4.66989-8.51155
		c-10.22117-13.8912-28.37091-18.47693-43.6163-12.14505c8.9384,22.33688,23.3849,41.87347,41.67637,56.91179
		c9.19861,7.56264,19.01452,11.32845,29.49756,13.084c3.14408-0.87143,6.18629-2.31473,8.96996-4.36319
		C102.51231,250.96286,105.13874,233.70778,96.11563,221.44481z"/>
	<g>
		<path fill="#DAE7EA" d="M202.10863,246.02556c-3.11861-18.85785-19.49231-33.24121-39.23373-33.24121
			c-11.00623,0-20.96719,4.47058-28.16884,11.69493c-7.80401-7.75085-18.55113-12.54256-30.41881-12.54256
			c-18.10877,0-33.60329,11.1546-40.01215,26.96468c-5.99086,1.50478-10.58324,7.60913-11.51833,13.80649
			c24.40747,19.91199,55.57035,30.75211,89.52686,30.75211c30.55334,0,58.84784-9.66864,81.99301-26.11154
			C218.82945,250.9756,210.97118,246.72757,202.10863,246.02556z"/>
	</g>
</g>
<g>
	<g>
		<path fill="#E6E7E4" d="M192.15839,62.57251v-7.0703c0-2.06707,1.67549-3.74257,3.74257-3.74257h12.96017
			c2.06708,0,3.74257,1.6755,3.74257,3.74257v25.10727"/>
		<path fill="#E6E7E4" d="M69.39302,80.60995V55.50269c0-2.06708,1.6755-3.74257,3.74258-3.74257h12.96017
			c2.06708,0,3.74258,1.67549,3.74258,3.74257v7.0703"/>
	</g>
	<g>
		<path fill="#D5D8DB" d="M205.54858,88.86782h7.05511v-33.3656c0-2.06707-1.67549-3.74257-3.74257-3.74257h-3.31255V88.86782z"/>
		<path fill="#D5D8DB" d="M82.78322,88.86782h7.05512v-33.3656c0-2.06707-1.6755-3.74257-3.74258-3.74257h-3.31255V88.86782z"/>
	</g>
	<path fill="#FDD136" d="M102.03338,192.6792l33.58584-6.14665h10.76019l5.76692,1.05371l27.81892,5.09294
		c4.10567,0.7357,6.71147-4.27655,3.77342-7.2146l-19.19463-19.19463l-6.2131-6.21309h-34.66328L98.25995,185.4646
		C95.3219,188.40265,97.92295,193.41492,102.03338,192.6792z"/>
	<g>
		<path fill="#FDD136" d="M27.62669,117.42717c-0.94454,0.85008-1.67597,1.77043-2.21943,2.73869
			c-4.13131,7.38974,3.30542,17.3288,12.34741,13.66975l84.0472-33.94942h38.38782l84.04671,33.94896
			c9.04198,3.6595,16.50246-6.30328,12.3474-13.6693c-0.496-0.9678-1.25116-1.86535-2.19569-2.71497l-94.22215-83.07892h-38.34035
			L27.62669,117.42717z"/>
		<path fill="#FDD136" d="M140.36566,160.05688v26.47566h6.01375l5.76692,1.05371
			c5.45366-5.05022,9.85837-14.73296,12.39771-21.31628l-6.21309-6.21309H140.36566z"/>
	</g>
	<path fill="#E6E7E4" d="M25.40677,120.16778c2.17387,4.0582,6.96304,6.72572,12.35024,4.55659l84.06903-33.97505l5.35873-0.00475
		l33.00678-0.01898l5.35399,2.16438l78.71504,31.81067c5.35873,2.19286,10.17638-0.49837,12.32178-4.53284
		c-0.49365-0.96828-1.24834-1.86535-2.19287-2.71497l-88.84395-78.34007l-5.37772-4.7417h-38.34179L27.62809,117.4291
		C26.68357,118.27869,25.95261,119.1995,25.40677,120.16778z"/>
	<polygon display="none" fill="#CEA111" points="127.18478,34.37104 127.18478,90.74457 160.19156,90.72557 165.54555,92.88996 
		165.54555,39.11274 160.16783,34.37104 	"/>
	<path fill="#E6E7E4" d="M137.69673,190.27419l-7.47897-13.38829c-5.50919-9.81613-8.41354-20.90097-8.41354-32.15242V12.08269
		c0-12.05122,3.26698-21.23939,7.10542-27.87539c5.39908-9.33388,18.77931-9.33008,24.16937,0.00902
		c3.82944,6.63553,7.08786,15.82038,7.08786,27.86637V144.733c0,11.25192-2.87111,22.33629-8.38033,32.1524l-7.47897,13.38831
		v0.03322"/>
	<g>
		<path fill="#D5D8DB" d="M145.92232,176.88541l-3.41743,13.38972v0.02373l1.80365,0.00949v-0.03323l7.47565-13.38972
			c5.51062-9.81564,8.38223-20.89859,8.38223-32.1524V12.08411c0-12.04648-3.25607-21.23085-7.08646-27.86637
			c-2.69597-4.6705-7.39496-7.0105-12.08919-7.0105c2.14539,0.00475,4.28604,2.34474,5.52011,7.0105
			c1.75145,6.63553,3.24182,15.8199,3.24182,27.86637V144.733C149.7527,155.98682,148.43794,167.06976,145.92232,176.88541z"/>
		<polygon fill="#D5D8DB" points="140.98602,190.28937 142.50488,190.30836 142.50488,190.29887 		"/>
	</g>
	<g>
		<path fill="#CEA111" d="M140.98508,212.79274c1.96645,0,3.55983-1.59386,3.55983-3.55983v-47.50288
			c0-1.96599-1.59338-3.55984-3.55983-3.55984c-1.96646,0-3.55983,1.59386-3.55983,3.55984v47.50288
			C137.42525,211.19888,139.0191,212.79274,140.98508,212.79274z"/>
		<path fill="#353738" d="M132.93463,5.58718c0.91084,0,1.82216-0.34744,2.5175-1.04279c3.05101-3.05102,8.01532-3.05102,11.06586,0
			c1.39072,1.39023,3.64432,1.39023,5.03456,0c1.39023-1.39023,1.39023-3.64432,0-5.03408
			c-5.82722-5.82674-15.30823-5.82674-21.13544,0c-1.39023,1.39023-1.39023,3.64432,0,5.03408
			C131.11246,5.23974,132.02379,5.58718,132.93463,5.58718z"/>
	</g>
</g>
</svg>
