<?xml version="1.0" encoding="utf-8"?>
<!-- Generator: Adobe Illustrator 23.0.6, SVG Export Plug-In . SVG Version: 6.00 Build 0)  -->
<svg version="1.1" id="Capa_1" xmlns="http://www.w3.org/2000/svg" xmlns:xlink="http://www.w3.org/1999/xlink" x="0px" y="0px"
	 viewBox="0 0 652 652" style="enable-background:new 0 0 652 652;" xml:space="preserve">
<style type="text/css">
	.st0{fill:url(#SVGID_2_);}
	.st1{clip-path:url(#SVGID_4_);fill:url(#SVGID_5_);}
	.st2{fill:#CCCCCC;}
	.st3{fill:#BFBEBE;}
	.st4{fill:#E6E6E6;}
	.st5{fill:#666666;}
	.st6{fill:#3E3A39;}
	.st7{fill:#F9F6ED;}
	.st8{fill:#E2D9C7;}
	.st9{fill:#FDD136;}
	.st10{fill:#EAE4D6;}
	.st11{fill:#EFECE4;}
	.st12{fill:none;stroke:#FFCC00;stroke-width:10;stroke-linecap:round;stroke-linejoin:round;stroke-miterlimit:10;}
</style>
<g>
	<g>
		<g>
			<g>
				
					<linearGradient id="SVGID_2_" gradientUnits="userSpaceOnUse" x1="-4090" y1="-25.25" x2="-3444.2" y2="-25.25" gradientTransform="matrix(-1 0 0 1 -3438 352)">
					<stop  offset="0" style="stop-color:#330066"/>
					<stop  offset="0.1703" style="stop-color:#380066"/>
					<stop  offset="0.386" style="stop-color:#480066"/>
					<stop  offset="0.626" style="stop-color:#620066"/>
					<stop  offset="0.882" style="stop-color:#860066"/>
					<stop  offset="1" style="stop-color:#990066"/>
				</linearGradient>
				<path id="SVGID_1_" class="st0" d="M652,326.8c0-178.5-144.5-323-322.9-323S6.2,148.3,6.2,326.8s144.7,322.9,322.9,322.9
					S652,505.2,652,326.8"/>
			</g>
			<g>
				<g>
					<g>
						<defs>
							<path id="SVGID_3_" d="M652,326.8c0-178.5-144.5-323-322.9-323S6.2,148.3,6.2,326.8s144.7,322.9,322.9,322.9
								S652,505.2,652,326.8"/>
						</defs>
						<clipPath id="SVGID_4_">
							<use xlink:href="#SVGID_3_"  style="overflow:visible;"/>
						</clipPath>
						
							<linearGradient id="SVGID_5_" gradientUnits="userSpaceOnUse" x1="-5097.8188" y1="468.9867" x2="-5092.9766" y2="468.9867" gradientTransform="matrix(-139.3333 0 0 139.3333 -709629.4375 -65018.668)">
							<stop  offset="0" style="stop-color:#330066"/>
							<stop  offset="0.1703" style="stop-color:#380066"/>
							<stop  offset="0.386" style="stop-color:#480066"/>
							<stop  offset="0.626" style="stop-color:#620066"/>
							<stop  offset="0.882" style="stop-color:#860066"/>
							<stop  offset="1" style="stop-color:#990066"/>
						</linearGradient>
						<rect x="6.4" y="4" class="st1" width="645.6" height="645.6"/>
					</g>
				</g>
			</g>
		</g>
	</g>
</g>
<path class="st2" d="M-184.9,224.8c-0.1,0-0.3,0-0.4,0v229.3c0,28.3,17.3,43,22.9,52.5c2.1,2.9,6.4,2.9,8.5,0
	c5.6-9.5,22.9-24.2,22.9-52.5V224.7C-132.2,224.8-163.6,224.7-184.9,224.8z"/>
<path class="st3" d="M-158.2,454.1V224.8c-8.9,0-18.6,0-26.7,0c-0.1,0-0.3,0-0.4,0v229.3c0,28.3,17.3,43,22.9,52.5
	c2.1,2.9,6.4,2.9,8.5,0c2-3.5,5.6-7.6,9.3-12.8C-151.1,484.6-158.2,472.1-158.2,454.1z"/>
<path class="st4" d="M-185.3,424.6V454c0,28.3,17.3,43,22.9,52.5c2.1,2.9,6.4,2.9,8.5,0c5.6-9.5,22.9-24.2,22.9-52.5v-29.4H-185.3z"
	/>
<path class="st2" d="M-153.9,506.6c0.2-0.4,0.5-0.8,0.7-1.2c0.1-0.1,0.1-0.2,0.2-0.3c0.2-0.3,0.5-0.7,0.7-1c0.1-0.1,0.1-0.1,0.2-0.2
	c0.3-0.4,0.6-0.8,0.9-1.2c0.1-0.2,0.3-0.4,0.4-0.6c0.2-0.2,0.3-0.4,0.5-0.7c1.7-2.2,3.6-4.7,5.6-7.5c-6.5-9.2-13.6-21.7-13.6-39.7
	v-29.4h-27.2v29.4c0,9.7,2,17.9,5,24.7c3.2,7.5,7.4,13.5,11.1,18.4c0.6,0.8,1.2,1.6,1.8,2.4s1.1,1.5,1.7,2.2c0.5,0.7,1,1.4,1.5,2.1
	c0.7,1,1.3,1.9,1.9,2.8c0.4,0.6,1,1.1,1.6,1.4C-158.6,509.4-155.5,508.9-153.9,506.6L-153.9,506.6z"/>
<path class="st5" d="M-178.4,483.1c3.6,7.1,6.6,10.2,16,23.5c2.1,2.9,6.4,2.9,8.5,0c9.3-13.2,12.4-16.4,16-23.5H-178.4L-178.4,483.1
	z"/>
<path class="st6" d="M-144.6,493.7c-2.2-3.1-4.5-6.7-6.6-10.7h-27.2c1.3,2.5,2.7,4.9,4.1,7c1.6,2.4,3.6,5,6.3,8.8
	c2.2,2.9,4.2,5.4,5.5,7.7c2.1,2.9,6.4,2.9,8.5,0c1.3-2.3,3.3-4.8,5.6-7.8C-146.9,496.8-145.7,495.2-144.6,493.7z"/>
<path class="st2" d="M-89.3,285.7c-4.4,0-8-3.6-8-8v-206L-129,45.9c-3.5-2.8-4-7.9-1.2-11.3s7.9-4,11.3-1.2l34.7,28.2
	c1.9,1.5,3,3.8,3,6.2v209.8C-81.2,282.1-84.8,285.7-89.3,285.7z"/>
<path class="st5" d="M-158.2,4.4c-22.3,0-40.3,18.1-40.3,40.3c0,18.3,0,155.5,0,173.1c0,7.5,6.1,13.6,13.6,13.6h53.5
	c7.5,0,13.6-6.1,13.6-13.6v-42.6V87.3V44.7C-117.8,22.4-135.9,4.4-158.2,4.4z"/>
<path class="st6" d="M-158.2,217.8c0-17.6,0-154.7,0-173.1c0-14.9,8.1-27.9,20.2-34.9c-5.9-3.4-12.8-5.4-20.2-5.4
	c-22.3,0-40.3,18.1-40.3,40.3c0,18.3,0,155.5,0,173.1c0,7.5,6.1,13.6,13.6,13.6h40.3C-152.1,231.3-158.2,225.3-158.2,217.8z"/>
<path class="st7" d="M-252,4.4c-11.6,0-313.4,0-325,0c-8.9,0-16.2,7.3-16.2,16.2c0,223.6,0,259.3,0,472c0,12.6,11.9,15.6,12,15.6
	c3.2,0.9-10.7,0.6,224.5,0.6c21.1,0,41.4-8.4,56.3-23.3l46-46c11.9-11.9,18.6-28,18.6-44.8c0-42.1,0-333.8,0-374.1
	C-235.8,11.6-243.1,4.4-252,4.4z"/>
<path class="st8" d="M-315,207.5h-171.4c-4.2,0-7.6-3.4-7.6-7.6c0-4.2,3.4-7.6,7.6-7.6H-315c4.2,0,7.6,3.4,7.6,7.6
	C-307.4,204-310.8,207.5-315,207.5z"/>
<path class="st9" d="M-452.7,135h-67.4c-4.2,0-7.6-3.4-7.6-7.6c0-4.2,3.4-7.6,7.6-7.6h67.4c4.2,0,7.6,3.4,7.6,7.6
	C-445.1,131.6-448.5,135-452.7,135z"/>
<g>
	<path class="st8" d="M-315,239h-171.4c-4.2,0-7.6-3.4-7.6-7.6c0-4.2,3.4-7.6,7.6-7.6H-315c4.2,0,7.6,3.4,7.6,7.6
		S-310.8,239-315,239z"/>
	<path class="st8" d="M-315,302h-171.4c-4.2,0-7.6-3.4-7.6-7.6s3.4-7.6,7.6-7.6H-315c4.2,0,7.6,3.4,7.6,7.6S-310.8,302-315,302z"/>
	<path class="st8" d="M-315,270.5h-171.4c-4.2,0-7.6-3.4-7.6-7.6s3.4-7.6,7.6-7.6H-315c4.2,0,7.6,3.4,7.6,7.6
		S-310.8,270.5-315,270.5z"/>
</g>
<g>
	<path class="st9" d="M-516.4,207.5c-2,0-4-0.8-5.4-2.2s-2.2-3.4-2.2-5.4c0-0.5,0.1-1,0.2-1.5c0.1-0.5,0.2-1,0.4-1.4
		c1.5-3.5,5.2-5.2,8.5-4.5c0.5,0.1,1,0.2,1.4,0.4c0.5,0.2,0.9,0.4,1.3,0.7c0.4,0.3,0.8,0.6,1.2,1c0.3,0.3,0.7,0.7,0.9,1.2
		c0.3,0.4,0.5,0.9,0.7,1.3c0.2,0.5,0.3,0.9,0.4,1.4s0.1,1,0.1,1.5c0,2-0.8,4-2.2,5.4C-512.4,206.6-514.3,207.5-516.4,207.5z"/>
	<path class="st9" d="M-516.4,270.5c-0.5,0-1-0.1-1.5-0.1c-0.5-0.1-1-0.2-1.4-0.4c-0.5-0.2-0.9-0.4-1.3-0.7
		c-0.4-0.3-0.8-0.6-1.2-0.9c-0.3-0.4-0.7-0.7-0.9-1.2c-0.3-0.4-0.5-0.9-0.7-1.3s-0.3-0.9-0.4-1.4c-0.1-0.5-0.2-1-0.2-1.5
		s0.1-1,0.2-1.5c0.1-0.5,0.2-1,0.4-1.4c0.2-0.5,0.4-0.9,0.7-1.3s0.6-0.8,0.9-1.2c0.4-0.4,0.7-0.7,1.2-0.9c0.4-0.3,0.9-0.5,1.3-0.7
		c0.5-0.2,0.9-0.3,1.4-0.4c1-0.2,2-0.2,3,0c0.5,0.1,1,0.2,1.4,0.4c0.5,0.2,0.9,0.4,1.3,0.7c0.4,0.3,0.8,0.6,1.2,0.9
		c0.3,0.3,0.7,0.7,0.9,1.2c0.3,0.4,0.5,0.9,0.7,1.3c0.2,0.5,0.3,0.9,0.4,1.4s0.1,1,0.1,1.5s0,1-0.1,1.5s-0.2,1-0.4,1.4
		c-0.2,0.5-0.4,0.9-0.7,1.3c-0.3,0.4-0.6,0.8-0.9,1.2c-0.4,0.3-0.7,0.7-1.2,0.9c-0.4,0.3-0.9,0.5-1.3,0.7c-0.5,0.2-0.9,0.3-1.4,0.4
		C-515.3,270.4-515.9,270.5-516.4,270.5z"/>
</g>
<g>
	<path class="st8" d="M-315,365h-171.4c-4.2,0-7.6-3.4-7.6-7.6s3.4-7.6,7.6-7.6H-315c4.2,0,7.6,3.4,7.6,7.6S-310.8,365-315,365z"/>
	<path class="st8" d="M-315,333.5h-171.4c-4.2,0-7.6-3.4-7.6-7.6s3.4-7.6,7.6-7.6H-315c4.2,0,7.6,3.4,7.6,7.6
		S-310.8,333.5-315,333.5z"/>
</g>
<path class="st9" d="M-516.3,333.5c-2,0-4-0.8-5.4-2.2c-0.3-0.4-0.7-0.7-0.9-1.2c-0.3-0.4-0.5-0.9-0.7-1.3c-0.2-0.5-0.3-0.9-0.4-1.4
	c-0.1-0.5-0.2-1-0.2-1.5s0.1-1,0.2-1.5c0.1-0.5,0.2-1,0.4-1.4c0.2-0.5,0.4-0.9,0.7-1.3s0.6-0.8,0.9-1.2c1.4-1.4,3.4-2.2,5.4-2.2
	s4,0.8,5.4,2.2c0.3,0.4,0.7,0.7,0.9,1.2c0.3,0.4,0.5,0.9,0.7,1.3c0.2,0.5,0.3,0.9,0.4,1.4s0.1,1,0.1,1.5s-0.1,1-0.1,1.5
	c-0.1,0.5-0.2,1-0.4,1.4c-0.2,0.5-0.4,0.9-0.7,1.3c-0.3,0.4-0.6,0.8-0.9,1.2C-512.4,332.7-514.3,333.5-516.3,333.5z"/>
<g>
	<path class="st10" d="M-261.3,420.9c-11.3,0-37.5,0-46.2,0c-0.5,0-0.9,0-1.4,0.1c-0.2,0-0.4,0-0.6,0.1c-0.2,0-0.4,0.1-0.6,0.1
		c-0.6,0.1-1.1,0.2-1.6,0.3l0,0l0,0c-6.9,1.8-12,8.1-12,15.6v38.4c0,2.1-0.8,33.3-38.3,33.3c2.9-0.3,22.4,2.1,44.3-10.2
		c15.8-8.8,23.1-20,33.9-29.6l0,0c29.3-29.6,34.8-33.1,41.2-45.6c4.1-8.1,6.5-17.1,6.8-26.4C-237,416.6-252.9,420.3-261.3,420.9z"/>
	<path class="st10" d="M-235.9,396.9c0-0.7,0.1-1.5,0.1-2.2C-235.8,395.4-235.9,396.1-235.9,396.9z"/>
</g>
<path class="st8" d="M-317.7,498.5c12-6.7,19-14.7,26.4-22.4c0-0.3,0-0.5,0-0.7V437c0-7.5,5.1-13.8,12-15.6l0,0l0,0
	c0.5-0.1,1.1-0.3,1.6-0.3c0.2,0,0.4-0.1,0.6-0.1s0.4,0,0.6-0.1c0.5,0,0.9-0.1,1.4-0.1c-12.1,0-26.4,0-32.5,0c-0.5,0-0.9,0-1.4,0.1
	c-0.2,0-0.4,0-0.6,0.1c-0.2,0-0.4,0.1-0.6,0.1c-0.6,0.1-1.1,0.2-1.6,0.3l0,0l0,0c-6.9,1.8-12,8.1-12,15.6v38.4
	c0,2.1-0.8,32.7-37.3,33.3C-356,508.8-337.9,509.9-317.7,498.5z"/>
<g>
	<path class="st11" d="M-527.2,508.8L-527.2,508.8c2.5,0,5.2,0,8,0C-522.2,508.8-524.8,508.8-527.2,508.8z"/>
	<path class="st11" d="M-550,508.8C-550.3,508.8-549.7,508.9-550,508.8c-0.1-0.1-12.8-3.6-12.8-16.2c0-212.8,0-248.4,0-472
		c0-8.9,7.3-16.2,16.2-16.2c-17.1,0-28.4,0-30.4,0c-8.9,0-16.2,7.3-16.2,16.2c0,223.6,0,259.3,0,472c0,12.6,11.9,15.6,12,15.6
		C-579.5,508.7-582.7,508.8-550,508.8L-550,508.8z"/>
</g>
<polygon class="st12" points="413.2,98.6 330.9,134.3 248.5,98.6 330.9,67.7 "/>
<path class="st12" d="M281.6,115.2v26.9c0,13.5,22,24.3,49.2,24.3s49.2-10.9,49.2-24.3v-26.9"/>
<polyline class="st12" points="330.9,95.1 393,104.8 393,161 "/>
<polyline class="st12" points="449.6,487.2 401.7,487.2 401.7,535.7 "/>
<line class="st12" x1="345.6" y1="402.8" x2="428.7" y2="402.8"/>
<line class="st12" x1="345.6" y1="367.8" x2="428.7" y2="367.8"/>
<line class="st12" x1="345.6" y1="437.9" x2="428.7" y2="437.9"/>
<line class="st12" x1="345.6" y1="297.6" x2="428.7" y2="297.6"/>
<line class="st12" x1="345.6" y1="332.7" x2="428.7" y2="332.7"/>
<line class="st12" x1="240.2" y1="262.5" x2="323.3" y2="262.5"/>
<line class="st12" x1="239.8" y1="402.8" x2="322.9" y2="402.8"/>
<line class="st12" x1="239.8" y1="367.8" x2="322.9" y2="367.8"/>
<line class="st12" x1="239.8" y1="437.9" x2="322.9" y2="437.9"/>
<line class="st12" x1="239.8" y1="297.6" x2="322.9" y2="297.6"/>
<line class="st12" x1="239.8" y1="332.7" x2="322.9" y2="332.7"/>
<path class="st12" d="M206.2,546c0,4.4,3.7,8,8,8h191.9l59.6-59.6v-270c-0.1-4.4-3.7-7.9-8.1-7.9H214.2c-4.4,0-8,3.7-8,8V546z"/>
</svg>
