<?xml version="1.0" encoding="utf-8"?>
<!-- Generator: Adobe Illustrator 18.0.0, SVG Export Plug-In . SVG Version: 6.00 Build 0)  -->
<!DOCTYPE svg PUBLIC "-//W3C//DTD SVG 1.1//EN" "http://www.w3.org/Graphics/SVG/1.1/DTD/svg11.dtd">
<svg version="1.1" id="Capa_1" xmlns="http://www.w3.org/2000/svg" xmlns:xlink="http://www.w3.org/1999/xlink" x="0px" y="0px"
	 viewBox="-140 61 682 682" enable-background="new -49 141 512 512" xml:space="preserve">
<metadata><?xpacket begin="﻿" id="W5M0MpCehiHzreSzNTczkc9d"?>
<x:xmpmeta xmlns:x="adobe:ns:meta/" x:xmptk="Adobe XMP Core 5.6-c011 79.156289, 2014/03/31-23:39:12        ">
   <rdf:RDF xmlns:rdf="http://www.w3.org/1999/02/22-rdf-syntax-ns#">
      <rdf:Description rdf:about=""
            xmlns:xmpMM="http://ns.adobe.com/xap/1.0/mm/"
            xmlns:stRef="http://ns.adobe.com/xap/1.0/sType/ResourceRef#"
            xmlns:stEvt="http://ns.adobe.com/xap/1.0/sType/ResourceEvent#"
            xmlns:xmp="http://ns.adobe.com/xap/1.0/"
            xmlns:xmpGImg="http://ns.adobe.com/xap/1.0/g/img/"
            xmlns:pdf="http://ns.adobe.com/pdf/1.3/"
            xmlns:dc="http://purl.org/dc/elements/1.1/"
            xmlns:xmpTPg="http://ns.adobe.com/xap/1.0/t/pg/"
            xmlns:stDim="http://ns.adobe.com/xap/1.0/sType/Dimensions#"
            xmlns:xmpG="http://ns.adobe.com/xap/1.0/g/">
         <xmpMM:RenditionClass>proof:pdf</xmpMM:RenditionClass>
         <xmpMM:DocumentID>xmp.did:73521740-92b7-4f54-bafd-a104ba2487d6</xmpMM:DocumentID>
         <xmpMM:InstanceID>xmp.iid:73521740-92b7-4f54-bafd-a104ba2487d6</xmpMM:InstanceID>
         <xmpMM:OriginalDocumentID>uuid:c0380566-3864-7f4d-b6b0-15fb14c49338</xmpMM:OriginalDocumentID>
         <xmpMM:DerivedFrom rdf:parseType="Resource">
            <stRef:instanceID>uuid:c4a6228e-0aca-6043-a1a4-fbf253fbeb16</stRef:instanceID>
            <stRef:documentID>uuid:c0380566-3864-7f4d-b6b0-15fb14c49338</stRef:documentID>
            <stRef:originalDocumentID>uuid:c0380566-3864-7f4d-b6b0-15fb14c49338</stRef:originalDocumentID>
            <stRef:renditionClass>proof:pdf</stRef:renditionClass>
         </xmpMM:DerivedFrom>
         <xmpMM:History>
            <rdf:Seq>
               <rdf:li rdf:parseType="Resource">
                  <stEvt:action>saved</stEvt:action>
                  <stEvt:instanceID>xmp.iid:73521740-92b7-4f54-bafd-a104ba2487d6</stEvt:instanceID>
                  <stEvt:when>2018-01-10T12:42:03+02:00</stEvt:when>
                  <stEvt:softwareAgent>Adobe Illustrator CC 2014 (Macintosh)</stEvt:softwareAgent>
                  <stEvt:changed>/</stEvt:changed>
               </rdf:li>
            </rdf:Seq>
         </xmpMM:History>
         <xmp:CreateDate>2018-01-10T12:42:03+02:00</xmp:CreateDate>
         <xmp:CreatorTool>Adobe Illustrator CC 2014 (Macintosh)</xmp:CreatorTool>
         <xmp:ModifyDate>2018-01-10T12:42:03+02:00</xmp:ModifyDate>
         <xmp:MetadataDate>2018-01-10T12:42:03+02:00</xmp:MetadataDate>
         <xmp:Thumbnails>
            <rdf:Alt>
               <rdf:li rdf:parseType="Resource">
                  <xmpGImg:width>256</xmpGImg:width>
                  <xmpGImg:height>252</xmpGImg:height>
                  <xmpGImg:format>JPEG</xmpGImg:format>
                  <xmpGImg:image>/9j/4AAQSkZJRgABAgEASABIAAD/7QAsUGhvdG9zaG9wIDMuMAA4QklNA+0AAAAAABAASAAAAAEA&#xA;AQBIAAAAAQAB/+4ADkFkb2JlAGTAAAAAAf/bAIQABgQEBAUEBgUFBgkGBQYJCwgGBggLDAoKCwoK&#xA;DBAMDAwMDAwQDA4PEA8ODBMTFBQTExwbGxscHx8fHx8fHx8fHwEHBwcNDA0YEBAYGhURFRofHx8f&#xA;Hx8fHx8fHx8fHx8fHx8fHx8fHx8fHx8fHx8fHx8fHx8fHx8fHx8fHx8fHx8f/8AAEQgA/AEAAwER&#xA;AAIRAQMRAf/EAaIAAAAHAQEBAQEAAAAAAAAAAAQFAwIGAQAHCAkKCwEAAgIDAQEBAQEAAAAAAAAA&#xA;AQACAwQFBgcICQoLEAACAQMDAgQCBgcDBAIGAnMBAgMRBAAFIRIxQVEGE2EicYEUMpGhBxWxQiPB&#xA;UtHhMxZi8CRygvElQzRTkqKyY3PCNUQnk6OzNhdUZHTD0uIIJoMJChgZhJRFRqS0VtNVKBry4/PE&#xA;1OT0ZXWFlaW1xdXl9WZ2hpamtsbW5vY3R1dnd4eXp7fH1+f3OEhYaHiImKi4yNjo+Ck5SVlpeYmZ&#xA;qbnJ2en5KjpKWmp6ipqqusra6voRAAICAQIDBQUEBQYECAMDbQEAAhEDBCESMUEFURNhIgZxgZEy&#xA;obHwFMHR4SNCFVJicvEzJDRDghaSUyWiY7LCB3PSNeJEgxdUkwgJChgZJjZFGidkdFU38qOzwygp&#xA;0+PzhJSktMTU5PRldYWVpbXF1eX1RlZmdoaWprbG1ub2R1dnd4eXp7fH1+f3OEhYaHiImKi4yNjo&#xA;+DlJWWl5iZmpucnZ6fkqOkpaanqKmqq6ytrq+v/aAAwDAQACEQMRAD8A9KTzvK5JPw/srlZLJTG5&#xA;pgVFJGqjpv3OKr8CuxV2KuxV2KuxV2KuxV2KuxV2KuxV2KuxV2KuxV2KuxVwJBqNjhVFRvyQE9e+&#xA;WAsV2FXYq8e/N/8APaHyxPLoPl5UudcQUurlxyhtiR9mn7co606DvU1GKQHzjr/mzzL5guDPrWpX&#xA;F85JIWVyUWpqQkYoiD2UAYEpfZvdpcxm0d47io9No2KsD7EUpir3P8ufzg8yaIY7PzJdS6xYOQGm&#xA;kPO4hr3WQ/FIPEOfkRhYvoayvbS+tIby0lWa2nQSQyruGVtwcVVsVdiqTZUybX7Q+eKozArsVdir&#xA;sVdirsVdirsVdirsVdirsVdirsVdirsVdirsVdirsVREH2PpyyPJBVMkhjX5keam8reSdV1qMj6z&#xA;BFwtA1P7+VhHGaH7XFm5EeAxV8RTzzTzSTzu0s0rF5ZHJLMzGpYk9STgZLMVT/y5aKI3umHxMeKe&#xA;wHU4hBTrCh7L+Qfmpw135cupf3YH1mwDHoa0lQV8SQwHzxV7PirsVSbKmTa/aHzxVGYFdirsVdir&#xA;sVdirsVdirsVdirsVdirsVdirsVdirsVdirsVdiqIg+x9OWR5IKpkkPIv+cnndfy7tgpoH1KBWHi&#xA;PRmP6xiUh8r4EuxVlmjADTIKeB/4kcKCjcUMn/LhmHmy2oaVSWv/AABOKvoLR/MRHGC9ao6JOf8A&#xA;jb+uKsjBBAINQdwRiqTZUybX7Q+eKozArsVdirsVdirsVdirsVdirsVdirsVdirsVdirsVdirsVd&#xA;irsVREH2PpyyPJBVMkh5D/zlB/5Ly0/7acP/ACYnxKQ+WMCXYqy3R/8AjmwfI/8AEjhQUZihmn5Q&#xA;2sV156s4Ja8Hin6bEERMQRir2LU9JuLCT4vjhP2JR0PsfA4qr6Rrktmwilq9sT07r7j+mKptlTJt&#xA;ftD54qjMCuxV2KuxV2KuxV2KuxV2KuxV2KuxV2KuxV2KuxV2KuxV2KuxVEQfY+nLI8kFUySHkP8A&#xA;zlB/5Ly0/wC2nD/yYnxKQ+WMCXYqy3R/+ObB8j/xI4UFGYoZ1+S3/kwrH/jHP/yZbFX0dcRpJBIj&#xA;qGQqag9MVef4qyvKmTa/aHzxVGYFdirsVdirsVdirsVdirsVdirsVdirsVdirsVdirsVdirsVdiq&#xA;Ig+x9OWR5IKpkkPIf+coP/JeWn/bTh/5MT4lIfLGBLsVZbo//HNg+R/4kcKCjMUM6/Jb/wAmFY/8&#xA;Y5/+TLYq+kJf7t/kf1Yq89xVleVMm1+0PniqMwK7FXYq7FXYq7FXYq7FXYq7FXYq7FXYq7FXYq7F&#xA;XYq7FXYq7FURB9j6csjyQVTJIeQ/85Qf+S8tP+2nD/yYnxKQ+WMCXYqy3R/+ObB8j/xI4UFGYoZ1&#xA;+S3/AJMKx/4xz/8AJlsVfSEv92/yP6sVee4qyvKmTa/aHzxVGYFdirGr3VL761IqyGNUYqFG2wNM&#xA;4bXdq6jxZASMQCRQdti08OEbWo/pPUP9/tmJ/Kmp/nls/Lw7nfpPUP8Af7Y/ypqf55X8vDud+k9Q&#xA;/wB/tj/Kmp/nlfy8O536U1D/AH+2P8q6n+eUfl4dzItOuJLizjlkHxtWvatDSudt2bqJZsEZy+ou&#xA;rzwEZkBE5nNTsVdirsVdirsVdirsVdirsVdirsVREH2PpyyPJBVMkh5D/wA5Qf8AkvLT/tpw/wDJ&#xA;ifEpD5YwJdirLdH/AOObB8j/AMSOFBRmKGdfkt/5MKx/4xz/APJlsVfSEv8Adv8AI/qxV57irK8q&#xA;ZNr9ofPFUZgV2KqEtjaSvzkiVmPVqb5iZtBgyHilEEtkcsoigVn6L0//AHwuVfyVpv5gZfmJ97v0&#xA;Xp/++Fx/krTfzAv5ife79F6f/vhcf5K038wL+Yn3u/Rmn/74XD/JWm/mBfzE+9EgBQABQDYAdMzo&#xA;xAFDk0kt4VdirsVdirsVdirsVdirsVdirsVdiqIg+x9OWR5IKpkkPIf+coP/ACXlp/204f8AkxPi&#xA;Uh8sYEuxVluj/wDHNg+R/wCJHCgozFDOvyW/8mFY/wDGOf8A5Mtir6Ql/u3+R/Virz3FWV5UybX7&#xA;Q+eKozArsVdirsVdirsVdirsVdirsVdirsVdirsVdirsVdirsVdirsVREH2PpyyPJBVMkh5D/wA5&#xA;Qf8AkvLT/tpw/wDJifEpD5YwJdirLdH/AOObB8j/AMSOFBRmKGdfkt/5MKx/4xz/APJlsVfSEv8A&#xA;dv8AI/qxV57irK8qZNr9ofPFUZgV2KuxV2KuxV2KuxV2KuxV2KuxV2KuxV2KuxV2KuxV2KuxV2Ko&#xA;iD7H05ZHkgqmSQ8h/wCcoP8AyXlp/wBtOH/kxPiUh8sYEuxVluj/APHNg+R/4kcKCjMUM6/Jb/yY&#xA;Vj/xjn/5Mtir6Ql/u3+R/Virz3FWV5UybX7Q+eKozArsVQ9zfWtsVEz8S3QUJNPHbMPVa/DgIE5U&#xA;S2Y8Mp8grRyJIgdGDI24IzJx5IziJRNgsJRINFSmvLeFuLtRvAAn9WSJWlP9J2f85+448QWnfpOz&#xA;/nP3HHiC079J2f8AOfuOPEFp36Ts/wCc/cceILTv0nZ/zn7jjxBad+k7P+c/cceILTv0nZ/zn7jj&#xA;xBad+k7P+c/cceILTv0nZ/zn7jjxBad+k7P+c/cceILS+K+tpX4I/wAR6AgiuIkFpEYUOxV2KuxV&#xA;EQfY+nLI8kFUySHkP/OUH/kvLT/tpw/8mJ8SkPljAl2Kst0f/jmwfI/8SOFBRmKGdfkt/wCTCsf+&#xA;Mc//ACZbFX0hL/dv8j+rFXnuKsrypk2v2h88VRmBXYqlOraVPczCaEgmgVlJp07jOc7Y7JyZ8gnj&#xA;rlRDm6bUCAoo6wtjbWiQsastSxHSpNc2/Z+lODDGB5hx82TjkSg7zTp3naSOjK2/WhGZJiwBUP0Z&#xA;efyD7xg4Sm3foy8/kH3jHhK279GXn8g+8Y8JW3foy8/kH3jHhK279GXn8g+8Y8JW3foy8/kH3jHh&#xA;K279GXn8g+8Y8JW3foy8/kH3jHhK279GXn8g+8Y8JW3foy8/kH3jHhK2rWum3Czo8lFVCG616fLC&#xA;IoJTXJsXYq7FXYqiIPsfTlkeSCqZJDyH/nKD/wAl5af9tOH/AJMT4lIfLGBLsVZbo/8AxzYPkf8A&#xA;iRwoKMxQzr8lv/JhWP8Axjn/AOTLYq+kJf7t/kf1Yq89xVleVMm1+0PniqMwK7FXYq7FUPPfW8L8&#xA;Hb4u4ArTAZJpT/Stp4t92PEFp36VtPFvux4gtO/Stp4t92PEFp36VtPFvux4gtO/Stp4t92PEFp3&#xA;6VtPFvux4gtO/Stp4t92PEFp36VtPFvux4gtO/Stp4t92PEFp36VtPFvux4gtL4b+2lcIrEMegIp&#xA;XESC0icKHYq7FXYqiIPsfTlkeSCqZJDzD/nIzRb/AFT8uJHs4zKdOuor2dFBLekivG7AD+X1eR9g&#xA;cUh8k4EuxVlOhTxyaeiKfjjqrr3G5IwoKYYoei/kZpd5cec1vo4z9VsYZDPLT4QZFKItfE1r8gcV&#xA;fQsv92/yP6sVee4qyvKmTa/aHzxVGYFdirsVdiqWXmmzPO0kZBDbkE0IOQMWQKh+i7vwH34OEpt3&#xA;6Lu/Affjwlbd+i7vwH348JW3fou78B9+PCVt36Lu/Affjwlbd+i7vwH348JW3fou78B9+PCVt36L&#xA;u/Affjwlbd+i7vwH348JW3fou78B9+PCVtWttMnWZHkICoQ2xqTTCIoJTTJsXYq7FXYqiIPsfTlk&#xA;eSCqZJDiAQQRUHqMVeU+ePyy8hC/inTRLeKScM0vpBo1LVG/BCqj6Biljf8AyrjyR/1aYv8AgpP+&#xA;asVR1n+XHkmNVkj0qNX/AJg8g/42xQmlp5K8qtdQo2mwlWdQQQdwSB44q9O0zStM0u1Frp1rFaW4&#xA;NfShUIK+Jp1PucVREv8Adv8AI/qxV57irK8qZNr9ofPFUZgV2KoW71G1tWCyseTCoUCppmDq+0sO&#xA;nIEzuW7HglPkrwzRzRrJGeSNuDmVhzRyRE4m4lrlExNFRnv7eF+DElu4ArTJmSKU/wBLWvg33D+u&#xA;DiC8Lv0ta+DfcP648QXhd+lrXwb7h/XHiC8Lv0ta+DfcP648QXhd+lrXwb7h/XHiC8Lv0ta+DfcP&#xA;648QXhd+lrXwb7h/XHiC8Lv0ta+DfcP648QXhd+lrXwb7h/XHiC8Lv0ta+DfcP648QXhVIdQtpXC&#xA;KSGPSopXCJBaROFDsVdirsVREH2PpyyPJBVMkh2KsQ88/wC9Fr/qN+sYqxjFKOt/7lf8++KEXZf7&#xA;2Qf8ZE/4kMVZ7iq2X+7f5H9WKvPcVZXlTJtftD54qjMCuxVKtU0iW6mE0TKDQBlao6dxSuc92r2P&#xA;PPkE4EcqNuZp9SICijbG1+rWqQ8uRWpJ9ya5tdBpfAxCF3Tj5snHK0Ld6bLJM0kbCjbkHahzKMWI&#xA;Kj+ibrxX7/7Mjwlbd+ibrxX7/wCzHhK279E3Xiv3/wBmPCVt36JuvFfv/sx4Stu/RN14r9/9mPCV&#xA;t36JuvFfv/sx4Stu/RN14r9/9mPCVt36JuvFfv8A7MeErbv0TdeK/f8A2Y8JW3fom68V+/8Asx4S&#xA;tqttpcyTK8jAKhBoNySMIipKZ5Ni7FXYq7FURB9j6csjyQVTJIdirEPPP+9Fr/qN+sYqxjFKOt/7&#xA;lf8APvihF2X+9kH/ABkT/iQxVnuKrZf7t/kf1Yq89xVleVMm1+0PniqMwK7FXYq7FULPqFvC/Bqs&#xA;w68QNvvIwGVJpT/S9t/K/wBw/rg4wvC79L238r/cP648YXhd+l7b+V/uH9ceMLwu/S9t/K/3D+uP&#xA;GF4Xfpe2/lf7h/XHjC8Lv0vbfyv9w/rjxheF36Xtv5X+4f1x4wvC79L238r/AHD+uPGF4Xfpe2/l&#xA;f7h/XHjC8Lv0vbfyv9w/rjxheFUh1K3lkCDkrHpyA3+4nCJLSKwodirsVdiqIg+x9OWR5IKpkkOx&#xA;ViHnn/ei1/1G/WMVYxilHW/9yv8An3xQi7L/AHsg/wCMif8AEhirPcVcQCKHocVY7/hNvrNfWH1e&#xA;taUPOnh4fTiqJypk2v2h88VRmBXYq7FXYql13pkkszSRsAG3IavX6K5ExZAqP6Iuf5k+8/0wcBXi&#xA;d+iLn+ZPvP8ATHgK8Tv0Rc/zJ95/pjwFeJ36Iuf5k+8/0x4CvE79EXP8yfef6Y8BXid+iLn+ZPvP&#xA;9MeArxO/RFz/ADJ95/pjwFeJ36Iuf5k+8/0x4CvE79EXP8yfef6Y8BXid+iLn+ZPvP8ATHgK8Srb&#xA;aXIkyvIy0U1AWvUfMDERUlMsmxdirsVdiqIg+x9OWR5IKpkkOxViHnn/AHotf9Rv1jFWMYpR1v8A&#xA;3K/598UIuy/3sg/4yJ/xIYqz3FXYq7FUmypk2v2h88VRmBXYqg7zVLa0dUk5M7b0UVoPetM1ut7V&#xA;xaeQjKyT3N+LTymLCIgnjniWWM1RuhzNwZ4ZYCcDcS1TgYmioXGowQyGMgsw607ZYZUgBT/TEH8j&#xA;fh/XBxrwu/TEH8jfh/XHjXhd+mIP5G/D+uPGvC79MQfyN+H9ceNeF36Yg/kb8P648a8Lv0xB/I34&#xA;f1x414XfpiD+Rvw/rjxrwu/TEH8jfh/XHjXhd+mIP5G/D+uPGvC79MQfyN+H9ceNeFUg1KCWQJQq&#xA;W6VpSuESWkXhQ7FXYq7FURB9j6csjyQVTJIdirEPPP8AvRa/6jfrGKsYxSjrf+5X/PvihF2X+9kH&#xA;/GRP+JDFWe4q7FXYqk2VMm1+0PniqMwK7FUs1LSDdzCVHCNQBgRXp3zRdp9jHUTE4yo8i5eDU8Ao&#xA;hGWdsttbrCp5Ba1Y9yTXNnotKMGIYwbpoy5OOVoa60xpZjJG4HLcg+OZBixBUf0RP/Ov4/0wcC8T&#xA;v0RP/Ov4/wBMeBeJ36In/nX8f6Y8C8Tv0RP/ADr+P9MeBeJ36In/AJ1/H+mPAvE79ET/AM6/j/TH&#xA;gXid+iJ/51/H+mPAvE79ET/zr+P9MeBeJ36In/nX8f6Y8C8Tv0RP/Ov4/wBMeBeJVt9LdJleRwQp&#xA;qAK9RhEVJTHJMXYq7FXYqiIPsfTlkeSCqZJDsVYh55/3otf9Rv1jFWMYpR1v/cr/AJ98UIuy/wB7&#xA;IP8AjIn/ABIYqz3FXYq7FUmypk2v2h88VRmBXYq7FXYqhLjUooZDHxLMOtOgwGSQFL9MR/77P3jB&#xA;xp4XfpiP/fZ+8Y8a8Lv0xH/vs/eMeNeF36Yj/wB9n7xjxrwu/TEf++z94x414XfpiP8A32fvGPGv&#xA;C79MR/77P3jHjXhd+mI/99n7xjxrwu/TEf8Avs/eMeNeF36Yj/32fvGPGvCqQanDLIEKlS2wJ6Vx&#xA;EkUjMkh2KuxV2KoiD7H05ZHkgqmSQ7FWIeef96LX/Ub9YxVjGKUdb/3K/wCffFCLsv8AeyD/AIyJ&#xA;/wASGKs9xV2KuxVJsqZNr9ofPFUZgV2KuxV2KoC60z1ZTIj8eXUHxyJiyBUf0PL/AL8X7jg4F4nf&#xA;oeX/AH4v3HHgXid+h5f9+L9xx4F4nfoeX/fi/cceBeJ36Hl/34v3HHgXid+h5f8Afi/cceBeJ36H&#xA;l/34v3HHgXid+h5f9+L9xx4F4nfoeX/fi/cceBeJ36Hl/wB+L9xx4F4lW30oxyq7uCFNQAO4wiKk&#xA;phkmLsVdirsVREH2PpyyPJBVMkh2KsQ88/70Wv8AqN+sYqxjFKOt/wC5X/PvihF2X+9kH/GRP+JD&#xA;FWe4q7FXYqk2VMm1+0PniqMwK7FXYq7FXYq7FXYq7FXYq7FXYq7FXYq7FXYq7FXYq7FXYq7FURB9&#xA;j6csjyQVTJIdirEPPP8AvRa/6jfrGKsYxSjrf+5X/PvihF2X+9kH/GRP+JDFWe4q7FXYqk2VMm1+&#xA;0PniqMwK7FXYq7FXYq7FXYq7FXYq7FXYq7FXYq7FXYq7FXYq7FXYq7FVe3NUPsf4DLI8kFVySHYq&#xA;xDzz/vRa/wCo36xirGMUo63/ALlf8++KEXZf72Qf8ZE/4kMVZ7irsVdiqTZUybX7Q+eKozArsVdi&#xA;rsVdirsVdirsVdirsVdirsVdirsVdirsVdirsVdiqlLcRRjrVuyjG1pGWistuvL7TfE3075ZHkgq&#xA;uSQ7FWIeef8Aei1/1G/WMVYxilHW/wDcr/n3xQi7L/eyD/jIn/EhirPcVdirsVSbKmTa/aHzxVGY&#xA;FdirsVdirsVdirsVdirsVdirsVdirsVdiqyWQRxs56KCafLEqkM1xLM5Z2PsOw+WVEs6WAsTSuKU&#xA;UiBR7+OSYr6nxxVEWNqZ5gSP3a7sf4ZKMbKCU7y9g7FXYqxbzfGj3VuGFaIafScVSD6tD/L+JxVO&#xA;LKwtGtYyUqSD3Pj88VRMNjapKjKlGVgQanqD88VZPirsVdiqTZUybX7Q+eKozArsVdirsVdirsVd&#xA;irsVdirsVdirsVdirsVUL3/eWX/VOA8khIcqZrk+2vzGFCLySFa2tZLh+K7KPtN2GSjG0Ep3FEkU&#xA;YRBQDLgKYL8KuxV2KsY82f71Qf8AGM/rxVIsVTuw/wB5I/kf1nFUUn21+YxVP8VdirsVSbKmTa/a&#xA;HzxVGYFdirsVdirsVdirsVdirsVdirsVdirsVdiqhe/7yy/6pwHkkJDlTNcn21+YwoTK1tXuHoNl&#xA;H2m8MsjG2JKdRRJEgRBRRlwFMF+FXYq7FXYqxzzbGA9tJ3IdT9FCP14qx7FU708g2kftUficVRcK&#xA;8pkXpVgK/M4qn2KuxV2KpNlTJtftD54qjMCuxV2KuxV2KuxV2KuxV2KuxV2KuxV2KuxVD3xpaSn2&#xA;p95pglySEiypmibCzluZwq7KpBd+wGSjGygmmSxRJEgRBRRmSBTUvwq7FXYq7FXYqlPmeBH0qSdi&#xA;EFrWZnYgAIo+MknoANz8sVeef4s8q/8AV5sf+kmH/mrFU00bzd5Yk5wLq9kzfaUC4iJp36NirJ9D&#xA;urG/nL2lxFcpDu5idZACfsg8SaeOKp9irsVdiqTZUycpowPviqNwK7FXYq7FXYq7FXYq7FXYq7FX&#xA;Yq7FXYq7FUr1W6VqQIa0NXPv4ZCRZAKdlpc9yQxHCHu57/LxxjAlTKmQW9vFbxCOIUUfeT4nMgCm&#xA;BKphQ7FXYq7FXYq7FWmVXUo4DKwoyncEHqCMVfHf5y/ltL5L8ysbZCdC1AtLp0m5Cb1eBie8ddvF&#xA;ad64GQYXo8F/cara2+nxNPezyrFbwr1d3PEL9NcVfa/kLylB5X8uwaeOLXb/AL2+lXflMwHKh/lX&#xA;7K+2FiyLFXYq7FUuvPR9U8PtfteFcrKQh8CUTDz4/F07eOKqmBXYq7FXYq7FXYq7FXYq7FXYq7FW&#xA;jWhp17Yqg7n6/Tf+6/a9L7VPp/hkTaRTdj+heW1fU7et/nxyUeFTacZcwdirsVdirsVdirsVdirs&#xA;VYN+dX+F/wDlXmpf4i/3noPqXGnq/W6H0fSr+1Wtf8nl2rioeNf84w/4a/xZe/Xf+O96H+4jnTjw&#xA;ofrHCu/qcadP2eXvgCS+nsKHYq7FXYq//9k=</xmpGImg:image>
               </rdf:li>
            </rdf:Alt>
         </xmp:Thumbnails>
         <pdf:Producer>Adobe PDF library 11.00</pdf:Producer>
         <dc:format>image/svg+xml</dc:format>
         <xmpTPg:MaxPageSize rdf:parseType="Resource">
            <stDim:w>18.062222</stDim:w>
            <stDim:h>18.062222</stDim:h>
            <stDim:unit>Centimeters</stDim:unit>
         </xmpTPg:MaxPageSize>
         <xmpTPg:NPages>1</xmpTPg:NPages>
         <xmpTPg:HasVisibleTransparency>False</xmpTPg:HasVisibleTransparency>
         <xmpTPg:HasVisibleOverprint>False</xmpTPg:HasVisibleOverprint>
         <xmpTPg:PlateNames>
            <rdf:Seq>
               <rdf:li>Cyan</rdf:li>
               <rdf:li>Magenta</rdf:li>
               <rdf:li>Yellow</rdf:li>
               <rdf:li>Black</rdf:li>
            </rdf:Seq>
         </xmpTPg:PlateNames>
         <xmpTPg:SwatchGroups>
            <rdf:Seq>
               <rdf:li rdf:parseType="Resource">
                  <xmpG:groupName>Группа образцов по умолчанию</xmpG:groupName>
                  <xmpG:groupType>0</xmpG:groupType>
               </rdf:li>
            </rdf:Seq>
         </xmpTPg:SwatchGroups>
      </rdf:Description>
   </rdf:RDF>
</x:xmpmeta>
                                                                                                    
                                                                                                    
                                                                                                    
                                                                                                    
                                                                                                    
                                                                                                    
                                                                                                    
                                                                                                    
                                                                                                    
                                                                                                    
                                                                                                    
                                                                                                    
                                                                                                    
                                                                                                    
                                                                                                    
                                                                                                    
                                                                                                    
                                                                                                    
                                                                                                    
                                                                                                    
                           
<?xpacket end="w"?>
	</metadata>
<path fill="#CCCCCC" d="M359.33899,365.13901c-0.14001,0-0.276-0.017-0.41501-0.021v229.32303
	c0,28.34198,17.311,43.01898,22.897,52.54297c2.09799,2.91101,6.43301,2.91101,8.53101,0
	c5.58701-9.52502,22.897-24.20001,22.897-52.54297V365.11902C412.01801,365.155,380.60999,365.133,359.33899,365.13901z"/>
<path fill="#BFBEBE" d="M386.08701,594.44202V365.13901c-8.88699-0.00101-18.565-0.00302-26.74701,0
	c-0.14001,0-0.276-0.017-0.41501-0.021v229.32303c0,28.34296,17.311,43.01898,22.897,52.54297
	c2.09799,2.91101,6.43201,2.91101,8.53,0c2.02499-3.453,5.59201-7.58899,9.31601-12.80103
	C393.121,625.01801,386.08701,612.50903,386.08701,594.44202z"/>
<path fill="#E6E6E6" d="M358.92499,565.00598v29.43604c0,28.34204,17.311,43.01904,22.897,52.54297
	c2.09799,2.91101,6.43301,2.91101,8.53101,0c5.58701-9.52496,22.897-24.19995,22.897-52.54297v-29.43604H358.92499z"/>
<path fill="#CCCCCC" d="M390.35599,646.979c0.22601-0.38403,0.47699-0.78101,0.73901-1.18298
	c0.07199-0.11102,0.146-0.22302,0.22101-0.33502c0.22699-0.34003,0.46399-0.68597,0.71301-1.039
	c0.05301-0.07501,0.10199-0.14697,0.155-0.22198c0.28699-0.40302,0.59-0.81696,0.901-1.23798
	c0.13901-0.18799,0.284-0.38202,0.42801-0.573c0.16599-0.22205,0.33499-0.44604,0.50699-0.67303
	c1.69699-2.24298,3.646-4.72699,5.64899-7.53101c-6.547-9.16602-13.58099-21.67401-13.58099-39.742v-29.435h-27.16199v29.435
	c0,9.74304,2.04501,17.87097,4.957,24.72998c3.17599,7.48206,7.383,13.45502,11.09,18.36499
	c0.61801,0.81799,1.22198,1.60803,1.80499,2.36902c0.58301,0.76196,1.14499,1.49597,1.67899,2.20496
	c0.534,0.70905,1.04001,1.39307,1.51001,2.05304c0.70599,0.99103,1.33301,1.92902,1.85599,2.82196
	c0.44101,0.61206,0.98499,1.08801,1.582,1.44202c2.24399,1.33203,5.29199,0.85699,6.94901-1.44202
	C390.353,646.98303,390.35501,646.98096,390.35599,646.979z"/>
<path fill="#666666" d="M365.84399,623.46997c3.59799,7.11804,6.57101,10.16803,15.978,23.51501
	c2.09799,2.91101,6.43201,2.91101,8.53,0c9.32199-13.22699,12.366-16.36804,15.978-23.51501H365.84399L365.84399,623.46997z"/>
<path fill="#3E3A39" d="M399.63101,634.13098c-2.23401-3.13098-4.517-6.66296-6.56299-10.66101h-27.16803
	c1.29401,2.53101,2.68301,4.87305,4.09702,7.04407c1.638,2.41895,3.59799,5.04993,6.31799,8.78699
	c2.23099,2.91797,4.19501,5.44598,5.508,7.68396c2.09799,2.91101,6.43201,2.91101,8.53,0
	c1.33301-2.27301,3.34-4.84998,5.61401-7.828C397.36801,637.23303,398.57101,635.59698,399.63101,634.13098z"/>
<path fill="#CCCCCC" d="M454.95001,426.10501c-4.44601,0-8.04999-3.603-8.04999-8.04999V212.10901l-31.73001-25.78702
	c-3.45001-2.80399-3.974-7.87399-1.17001-11.323c2.80399-3.44899,7.875-3.974,11.323-1.16998l34.70401,28.20299
	C461.90802,203.561,463,205.85501,463,208.27899V418.056C463,422.50201,459.396,426.10501,454.95001,426.10501z"/>
<path fill="#666666" d="M386.08701,144.759c-22.27499,0-40.332,18.05699-40.332,40.332c0,18.31799,0,155.461,0,173.05701
	c0,7.50201,6.082,13.58502,13.58398,13.58502h53.495c7.50201,0,13.58499-6.08203,13.58499-13.58502v-42.577v-87.90201v-42.578
	C426.41901,162.81599,408.362,144.759,386.08701,144.759z"/>
<path fill="#3E3A39" d="M386.08701,358.14899c0-17.59698,0-154.73898,0-173.05699c0-14.92599,8.11401-27.948,20.16599-34.923
	c-5.93399-3.43399-12.81699-5.409-20.16602-5.409c-22.27499,0-40.332,18.05699-40.332,40.332c0,18.31801,0,155.46098,0,173.05699
	c0,7.50201,6.082,13.58502,13.58401,13.58502h40.332C392.16901,371.733,386.08701,365.651,386.08701,358.14899z"/>
<path fill="#F9F6ED" d="M292.21701,144.759c-11.55499,0-313.38599,0-325.01901,0c-8.946,0-16.198,7.252-16.198,16.198
	c0,223.625,0,259.26001,0,472.01297c0,12.59106,11.912,15.56403,12.014,15.63306c3.192,0.85297-10.74,0.56598,224.50998,0.56598
	c21.12601,0,41.38599-8.39203,56.32501-23.33099l46.009-46.008c11.88199-11.88202,18.55701-27.99799,18.55701-44.802
	c0-42.12201,0-333.789,0-374.07001C308.41501,152.011,301.16299,144.759,292.21701,144.759z"/>
<path fill="#E2D9C7" d="M229.19601,347.83899H57.835c-4.204,0-7.612-3.40799-7.612-7.612c0-4.20499,3.408-7.612,7.612-7.612
	h171.36099c4.20401,0,7.612,3.40802,7.612,7.612C236.80801,344.431,233.39999,347.83899,229.19601,347.83899z"/>
<path fill="#FDD136" d="M91.541,275.362H24.129c-4.204,0-7.612-3.40802-7.612-7.612c0-4.20502,3.408-7.612,7.612-7.612h67.412
	c4.20399,0,7.612,3.40799,7.612,7.612C99.153,271.95398,95.745,275.362,91.541,275.362z"/>
<g>
	<path fill="#E2D9C7" d="M229.19601,379.34601H57.835c-4.204,0-7.612-3.40802-7.612-7.612c0-4.20401,3.408-7.612,7.612-7.612
		h171.36099c4.20401,0,7.612,3.40799,7.612,7.612C236.80798,375.93799,233.39999,379.34601,229.19601,379.34601z"/>
	<path fill="#E2D9C7" d="M229.19601,442.358H57.835c-4.204,0-7.612-3.40799-7.612-7.612s3.408-7.612,7.612-7.612h171.36099
		c4.20401,0,7.612,3.40799,7.612,7.612S233.39999,442.358,229.19601,442.358z"/>
	<path fill="#E2D9C7" d="M229.19601,410.85101H57.835c-4.204,0-7.612-3.40799-7.612-7.612s3.408-7.612,7.612-7.612h171.36099
		c4.20401,0,7.612,3.40799,7.612,7.612S233.39999,410.85101,229.19601,410.85101z"/>
</g>
<g>
	<path fill="#FDD136" d="M27.889,347.83899c-1.999,0-3.958-0.81198-5.379-2.23297c-1.421-1.41003-2.233-3.38-2.233-5.37903
		c0-0.49799,0.051-0.99399,0.152-1.492c0.102-0.47699,0.244-0.96399,0.437-1.42099c1.5-3.548,5.163-5.23801,8.516-4.547
		c0.487,0.091,0.964,0.24399,1.421,0.42599c0.467,0.19202,0.904,0.42599,1.319,0.70001c0.416,0.284,0.802,0.59998,1.157,0.95398
		c0.345,0.345,0.67,0.72998,0.944,1.15698c0.274,0.40601,0.507,0.85303,0.7,1.30902c0.193,0.457,0.335,0.94501,0.436,1.42102
		c0.102,0.49799,0.142,0.99399,0.142,1.492c0,1.99896-0.812,3.96899-2.223,5.37897
		C31.858,347.02698,29.898,347.83899,27.889,347.83899z"/>
	<path fill="#FDD136" d="M27.889,410.84799c-0.487,0-0.995-0.05099-1.482-0.142c-0.487-0.10199-0.964-0.24399-1.421-0.43701
		c-0.467-0.19199-0.904-0.42599-1.32-0.70001c-0.416-0.27499-0.801-0.599-1.157-0.944c-0.345-0.35599-0.67-0.741-0.944-1.15799
		c-0.274-0.41599-0.507-0.862-0.7-1.319c-0.193-0.457-0.335-0.93399-0.437-1.42099c-0.101-0.49701-0.152-0.99399-0.152-1.492
		s0.051-0.99399,0.152-1.48199c0.102-0.487,0.244-0.96399,0.437-1.431c0.193-0.457,0.426-0.90302,0.7-1.30899
		c0.274-0.41599,0.599-0.81201,0.944-1.15701c0.355-0.35501,0.741-0.67001,1.157-0.944c0.416-0.27499,0.853-0.51801,1.32-0.70099
		c0.456-0.19299,0.934-0.33502,1.421-0.43604c0.985-0.19299,1.989-0.19299,2.974,0c0.487,0.10101,0.964,0.24301,1.421,0.43604
		c0.456,0.18201,0.904,0.42596,1.319,0.70099c0.416,0.27399,0.802,0.58899,1.157,0.944c0.345,0.345,0.67,0.73999,0.944,1.15701
		c0.274,0.40601,0.507,0.85199,0.7,1.30899c0.193,0.46701,0.335,0.94501,0.436,1.431c0.102,0.48801,0.142,0.98401,0.142,1.48199
		s-0.041,0.995-0.142,1.492c-0.101,0.48801-0.243,0.96399-0.436,1.42099s-0.426,0.90302-0.7,1.319
		c-0.274,0.41599-0.599,0.802-0.944,1.15799c-0.355,0.345-0.741,0.66901-1.157,0.944c-0.416,0.27399-0.863,0.50699-1.319,0.70001
		c-0.457,0.19299-0.934,0.33499-1.421,0.43701C28.894,410.798,28.386,410.84799,27.889,410.84799z"/>
</g>
<g>
	<path fill="#E2D9C7" d="M229.19601,505.371H57.835c-4.204,0-7.612-3.40799-7.612-7.612s3.408-7.612,7.612-7.612h171.36099
		c4.20401,0,7.612,3.40799,7.612,7.612S233.39999,505.371,229.19601,505.371z"/>
	<path fill="#E2D9C7" d="M229.19601,473.86499H57.835c-4.204,0-7.612-3.40799-7.612-7.612s3.408-7.612,7.612-7.612h171.36099
		c4.20401,0,7.612,3.40799,7.612,7.612S233.39999,473.86499,229.19601,473.86499z"/>
</g>
<path fill="#FDD136" d="M27.899,473.86801c-2.01,0-3.969-0.81201-5.39-2.233c-0.345-0.35501-0.67-0.73999-0.944-1.15701
	c-0.274-0.41599-0.507-0.85199-0.7-1.319c-0.193-0.457-0.335-0.93399-0.437-1.42099c-0.101-0.487-0.152-0.99399-0.152-1.48199
	c0-0.49701,0.051-1.004,0.152-1.492c0.102-0.48801,0.244-0.96399,0.437-1.42099c0.193-0.46701,0.426-0.90302,0.7-1.319
	c0.274-0.41599,0.599-0.802,0.944-1.15701c1.41-1.41199,3.38-2.22299,5.39-2.22299c1.999,0,3.958,0.81201,5.379,2.22299
	c0.345,0.35501,0.67,0.73999,0.944,1.15701c0.274,0.41599,0.507,0.85199,0.7,1.319c0.193,0.457,0.335,0.93399,0.436,1.42099
	c0.092,0.48801,0.142,0.995,0.142,1.492c0,0.48801-0.051,0.995-0.142,1.48199c-0.101,0.48801-0.243,0.96399-0.436,1.42099
	c-0.193,0.46701-0.426,0.90302-0.7,1.319c-0.274,0.41599-0.599,0.802-0.944,1.15701
	C31.858,473.056,29.898,473.86801,27.899,473.86801z"/>
<g>
	<path fill="#EAE4D6" d="M282.94,561.27197c-11.34,0-37.508,0-46.22299,0c-0.465,0-0.923,0.02905-1.37701,0.07007
		c-0.20001,0.01697-0.39801,0.03796-0.59601,0.06201c-0.19299,0.02496-0.384,0.05597-0.57599,0.08801
		c-0.55499,0.08801-1.10001,0.203-1.63599,0.34595l-0.00299,0.00104h0.00101c-6.914,1.84796-12.01199,8.13702-12.01199,15.63202
		v38.41394c-0.01099,2.07703-0.793,33.28406-38.282,33.28406c2.912-0.29102,22.38,2.08997,44.30501-10.23706
		c15.797-8.84595,23.061-19.96899,33.86002-29.64496l0,0c29.31201-29.60199,34.827-33.07196,41.16299-45.64301
		c4.12299-8.14197,6.45901-17.13904,6.78601-26.39697C307.24301,556.98199,291.38901,560.70001,282.94,561.27197z"/>
	<path fill="#EAE4D6" d="M308.349,537.24597c0.04001-0.71997,0.06601-1.45593,0.06601-2.21899
		C308.41501,535.77002,308.375,536.50696,308.349,537.24597z"/>
</g>
<path fill="#E2D9C7" d="M226.54099,638.93201c11.957-6.69501,19.026-14.69501,26.439-22.38501
	c0.013-0.31,0.017-0.54102,0.01801-0.66296v-38.41406c0-7.49597,5.099-13.78394,12.01199-15.63196l0,0l0.00299-0.00098
	c0.535-0.14307,1.07999-0.25806,1.63501-0.34607c0.19101-0.03198,0.383-0.06299,0.57599-0.08801
	c0.198-0.02393,0.39499-0.04498,0.59601-0.06201c0.45401-0.04095,0.91101-0.06995,1.37601-0.06995c-12.052,0-26.44699,0-32.479,0
	c-0.465,0-0.923,0.02893-1.37601,0.06995c-0.20099,0.01703-0.39801,0.03802-0.59601,0.06201
	c-0.19299,0.02502-0.384,0.05603-0.57599,0.08801c-0.55499,0.08801-1.10001,0.203-1.63501,0.34607l-0.00299,0.00098l0,0
	c-6.914,1.84802-12.01199,8.13696-12.01199,15.63196v38.41406c-0.01001,2.05701-0.79999,32.68994-37.272,33.25793
	C188.26401,649.164,206.355,650.28003,226.54099,638.93201z"/>
<g>
	<path fill="#EFECE4" d="M16.992,649.203v0.01099c2.545-0.00098,5.206-0.00098,8.005-0.00201
		C22.045,649.20996,19.394,649.20703,16.992,649.203z"/>
	<path fill="#EFECE4" d="M-5.761,649.211C-6.044,649.14404-5.415,649.30396-5.761,649.211
		c-0.101-0.06903-12.79-3.64996-12.79-16.24103c0-212.75299,0-248.38797,0-472.01297c0-8.946,7.252-16.198,16.198-16.198
		c-17.141,0-28.382,0-30.449,0c-8.946,0-16.198,7.252-16.198,16.198c0,223.625,0,259.26001,0,472.01297
		c0,12.59106,11.912,15.56403,12.014,15.63306C-35.278,649.05896-38.461,649.18896-5.761,649.211L-5.761,649.211z"/>
</g>
</svg>
