<?xml version="1.0" encoding="utf-8"?>
<!-- Generator: Adobe Illustrator 18.0.0, SVG Export Plug-In . SVG Version: 6.00 Build 0)  -->
<!DOCTYPE svg PUBLIC "-//W3C//DTD SVG 1.1//EN" "http://www.w3.org/Graphics/SVG/1.1/DTD/svg11.dtd">
<svg version="1.1" id="Capa_1" xmlns="http://www.w3.org/2000/svg" xmlns:xlink="http://www.w3.org/1999/xlink" x="0px" y="0px"
	 viewBox="-120 81 652 652" enable-background="new -49 141 512 512" xml:space="preserve">
<metadata><?xpacket begin="﻿" id="W5M0MpCehiHzreSzNTczkc9d"?>
<x:xmpmeta xmlns:x="adobe:ns:meta/" x:xmptk="Adobe XMP Core 5.6-c011 79.156289, 2014/03/31-23:39:12        ">
   <rdf:RDF xmlns:rdf="http://www.w3.org/1999/02/22-rdf-syntax-ns#">
      <rdf:Description rdf:about=""
            xmlns:xmpMM="http://ns.adobe.com/xap/1.0/mm/"
            xmlns:stRef="http://ns.adobe.com/xap/1.0/sType/ResourceRef#"
            xmlns:stEvt="http://ns.adobe.com/xap/1.0/sType/ResourceEvent#"
            xmlns:xmp="http://ns.adobe.com/xap/1.0/"
            xmlns:xmpGImg="http://ns.adobe.com/xap/1.0/g/img/"
            xmlns:pdf="http://ns.adobe.com/pdf/1.3/"
            xmlns:dc="http://purl.org/dc/elements/1.1/"
            xmlns:xmpTPg="http://ns.adobe.com/xap/1.0/t/pg/"
            xmlns:stDim="http://ns.adobe.com/xap/1.0/sType/Dimensions#"
            xmlns:xmpG="http://ns.adobe.com/xap/1.0/g/">
         <xmpMM:RenditionClass>proof:pdf</xmpMM:RenditionClass>
         <xmpMM:DocumentID>xmp.did:28c1556b-2695-44ea-977c-055fc0913266</xmpMM:DocumentID>
         <xmpMM:InstanceID>xmp.iid:28c1556b-2695-44ea-977c-055fc0913266</xmpMM:InstanceID>
         <xmpMM:OriginalDocumentID>uuid:6e98ccb7-aaba-344d-8aca-b8cf217d7f50</xmpMM:OriginalDocumentID>
         <xmpMM:DerivedFrom rdf:parseType="Resource">
            <stRef:instanceID>uuid:c98e5b95-cfea-9e47-ba43-0548e687b933</stRef:instanceID>
            <stRef:documentID>uuid:6e98ccb7-aaba-344d-8aca-b8cf217d7f50</stRef:documentID>
            <stRef:originalDocumentID>uuid:6e98ccb7-aaba-344d-8aca-b8cf217d7f50</stRef:originalDocumentID>
            <stRef:renditionClass>proof:pdf</stRef:renditionClass>
         </xmpMM:DerivedFrom>
         <xmpMM:History>
            <rdf:Seq>
               <rdf:li rdf:parseType="Resource">
                  <stEvt:action>saved</stEvt:action>
                  <stEvt:instanceID>xmp.iid:28c1556b-2695-44ea-977c-055fc0913266</stEvt:instanceID>
                  <stEvt:when>2018-01-10T12:41:44+02:00</stEvt:when>
                  <stEvt:softwareAgent>Adobe Illustrator CC 2014 (Macintosh)</stEvt:softwareAgent>
                  <stEvt:changed>/</stEvt:changed>
               </rdf:li>
            </rdf:Seq>
         </xmpMM:History>
         <xmp:CreateDate>2018-01-10T12:41:44+02:00</xmp:CreateDate>
         <xmp:CreatorTool>Adobe Illustrator CC 2014 (Macintosh)</xmp:CreatorTool>
         <xmp:ModifyDate>2018-01-10T12:41:44+02:00</xmp:ModifyDate>
         <xmp:MetadataDate>2018-01-10T12:41:44+02:00</xmp:MetadataDate>
         <xmp:Thumbnails>
            <rdf:Alt>
               <rdf:li rdf:parseType="Resource">
                  <xmpGImg:width>256</xmpGImg:width>
                  <xmpGImg:height>200</xmpGImg:height>
                  <xmpGImg:format>JPEG</xmpGImg:format>
                  <xmpGImg:image>/9j/4AAQSkZJRgABAgEASABIAAD/7QAsUGhvdG9zaG9wIDMuMAA4QklNA+0AAAAAABAASAAAAAEA&#xA;AQBIAAAAAQAB/+4ADkFkb2JlAGTAAAAAAf/bAIQABgQEBAUEBgUFBgkGBQYJCwgGBggLDAoKCwoK&#xA;DBAMDAwMDAwQDA4PEA8ODBMTFBQTExwbGxscHx8fHx8fHx8fHwEHBwcNDA0YEBAYGhURFRofHx8f&#xA;Hx8fHx8fHx8fHx8fHx8fHx8fHx8fHx8fHx8fHx8fHx8fHx8fHx8fHx8fHx8f/8AAEQgAyAEAAwER&#xA;AAIRAQMRAf/EAaIAAAAHAQEBAQEAAAAAAAAAAAQFAwIGAQAHCAkKCwEAAgIDAQEBAQEAAAAAAAAA&#xA;AQACAwQFBgcICQoLEAACAQMDAgQCBgcDBAIGAnMBAgMRBAAFIRIxQVEGE2EicYEUMpGhBxWxQiPB&#xA;UtHhMxZi8CRygvElQzRTkqKyY3PCNUQnk6OzNhdUZHTD0uIIJoMJChgZhJRFRqS0VtNVKBry4/PE&#xA;1OT0ZXWFlaW1xdXl9WZ2hpamtsbW5vY3R1dnd4eXp7fH1+f3OEhYaHiImKi4yNjo+Ck5SVlpeYmZ&#xA;qbnJ2en5KjpKWmp6ipqqusra6voRAAICAQIDBQUEBQYECAMDbQEAAhEDBCESMUEFURNhIgZxgZEy&#xA;obHwFMHR4SNCFVJicvEzJDRDghaSUyWiY7LCB3PSNeJEgxdUkwgJChgZJjZFGidkdFU38qOzwygp&#xA;0+PzhJSktMTU5PRldYWVpbXF1eX1RlZmdoaWprbG1ub2R1dnd4eXp7fH1+f3OEhYaHiImKi4yNjo&#xA;+DlJWWl5iZmpucnZ6fkqOkpaanqKmqq6ytrq+v/aAAwDAQACEQMRAD8A9U4q7FXYq7FXYq7FXYqw&#xA;rzDPLLqkyuxKxkKi9gKDIFkEtxVHW6qIlIG53JwKqYq7FXYq7FXYq7FXYq7FXYq7FXYq7FXYq7FU&#xA;fossiX8aqaK9Qw7HYnCFLJsmxdirsVdirsVdirsVdirsVdirsVdirsVdirBtc/461z/rfwGQLIIH&#xA;FUfB/dL8sCr8VdirsVdirsVdirsVdirsVdirsVdirsVdiqM0j/jow/M/qOEKWU5Ni7FXYq7FXYq7&#xA;FXYq7FXYq7FXYq7FUPPqFnA/CWUK38u5P4VwWqn+mNN/39/wrf0xtNMV1SKS41CeaFecbtVW6V2H&#xA;jkSlC/Ubr/fZ+8YFRkUEqxqCtCBviq70ZP5cVd6Mn8uKu9GT+XFXejJ/LirvRk/lxV3oyfy4q70Z&#xA;P5cVd6Mn8uKu9GT+XFXejJ/LirvRk/lxV3oyfy4q70ZP5cVd6Mn8uKonTQYr2KST4UUmp+g4QrIf&#xA;0jZf79H3H+mSsIpfFd28rcY5AzeHQ/jjaFXCrsVdirsVdirsVdirsVdirsVYdO7PPI7GrMxJP05W&#xA;yU8VRqgBQBgV2KuxV2KuxV2KuxV2KuxV2KuxV2KuxV2KuxV2KuxV2KuxVUgYrPGw2IYfrwhWSZYx&#xA;dirsVdirsVdirsVdirsVdirDJP7xvmf15WyW4qjR0GBXYq7FXYq7FXYq7FXYq7FXYq7FXYq7FXYq&#xA;7FXYq7FXYq7FV8X96n+sP14VZLljF2KuxV2KuxV2KuxV2Kqc1xHEBy6noB1wE0qj+kY/5T+GDiTS&#xA;SDS5ZHYq4oTXf3yNpb/Qs/8Avxfx/pgtVcabLT7S/jirf6Ol/mX8cVd+jpf5l/HFXfo6X+ZfxxV3&#xA;6Ol/mX8cVd+jpf5l/HFXfo6X+ZfxxV36Ol/mX8cVd+jpf5l/HFXfo6X+ZfxxV36Ol/mX8cVd+jpf&#xA;5l/HFXfo6X+ZfxxV36Ol/mX8cVd+jpf5l/HFXfo6X+ZfxxV36Ol/mX8cVd+jpf5l/HFXfo6X+Zfx&#xA;xVtNPlV1YsuxB742qbfWF8Dk+JFL0kVxt92EG0LsKuxV2KuxV2KuxVLr41n+QGQlzSEPkUomD+7x&#xA;VUwK7FXYq7FXYq7FXYq7FXYq7FXYq7FXYq7FXYq7FXYq7FXYq7FXYq7FVSD+8+jJR5oKIyxDsVdi&#xA;rsVdirsVS6+H+kH3AyEuaQh8ilEwf3YxVUwK7FXYq7FXYq7FXYq7FXYq7FXYq7FXYq7FXYqteREF&#xA;XYKPEmmKrPrVt/v1P+CGNhad9atv9+p/wQxsLTvrVt/v1P8AghjYWnfWrb/fqf8ABDGwtL0kjf7D&#xA;BqdaEH9WKrsVVIP7z6MlHmgojLEOxV2KuxV2KuxVLr/+/wDoGQlzSEPkUomD+7+nFVTArsVdirsV&#xA;dirsVdirsVdirsVdirsVdirsVdiqXapbzyMjIpZQCCBvQ/LIyDIID6rc/wC+n/4E5Cim3fVbn/fT&#xA;/wDAnGitu+q3P++n/wCBONFbd9Vuf99P/wACcaK2jNMtrhJi7qUSlKHav0ZKIQSmmTYqkH2/oyUe&#xA;aCiMsQ7FXYq7FXYq7FUuv/7/AOgZCXNIQ+RSiYP7v6cVVMCuxV2KuxV2KuxV2KuxV2KuxV2KuxV2&#xA;KuxV2KuxV2KuxV2KuxV2KuxVUg+39GSjzQURliHYq7FXYq7FXYql1/8A3/0DIS5pCHyKUTB/d/Ti&#xA;qpgV2KuxV2KuxV2KuxV2KuxV2KuxV2KuxV2KuxV2KuxV2KuxV2KuxV2KqkH2/oyUeaCiMsQ7FXYq&#xA;7FXYql+v69pWgaRc6tqs4t7G1XlLIdzuaKqjuzE0A8cVYf8Al950uPOWiza5LCLdJbqWO2twa8IY&#xA;+IQM3du5PjlcmTJ8ComD+7+nFVTArsVdirsVdirsVdirsVdirsVdirsVdirsVdirsVdirsVdirsV&#xA;dirsVYh+Z3ne68l6JZ61DELiNb6KG6tzsXhkSTkFb9lhQEHxHhkoqyry/wCYNJ8waRb6tpU4uLK5&#xA;XlG46g9CrD9llOxGWMUxxV2KuxVD6hqFlp1jPf30y29nbI0s8zmiqiipJxV8hfm7+al7531f04C0&#xA;GgWbH6hanYuenrSiv2z2H7I28SQyAew/849/+S7j/wCYuf8AWMgVel4FRMH939OKqmBXYq7FXYq7&#xA;FXYq7FXYq7FXYq7FXYq7FXYq7FXYq7FXYq7FXYq7FXYq8p/5yT/8l5H/ANtCD/iEmSirxv8AKT81&#xA;L/yPrHCYtPoF4wF9aVrwJoPXiH86jqP2ht4ETUh9e6bqVhqdhBqFhOlzZ3KCSCeM1VlPfCxROKrZ&#xA;ZYoYnmmdY4o1LySOQqqqipZidgAMVfKP52/m9L5tvm0bSJCnly0f7Q2N1KhI9Rv+Kx+wv+yO9KBk&#xA;A8qxV9Q/849/+S7j/wCYuf8AWMgVel4FRMH939OKqmBXYq7FXYq7FXYq7FXYq7FXYq7FXYq7FXYq&#xA;7FXYq7FXYq7FXYq7FXYq8p/5yT/8l5H/ANtCD/iEmSir5cyavUvyV/N6fyhfjSdVkaTy3duORNWN&#xA;rIf92oBX4T+2o+Y36qkPrCCeG4gjngkWWGVQ8UqEMrKwqrKRsQRhYvlz84fzxvfMhuvL+if6NoKy&#xA;FJbkE+pdhD36cYyd+PU9/DAkB5Bil2KvRvIn5z6x5T0NdFtNOgu09V5FkkZwxMlNqL8sBCvSrb84&#xA;9eMSm50+1WQirIjSUB8Kk748Kq4/OfW12Swtgvv6hP8AxIY8KEu178/PMmnWQuItOs3YuEo3q0oQ&#xA;T2ceGDhSx7/oZ/zd/wBWrT/um/6qY8Ko3Sv+ckvNV5cNFJplioCFqr61aggd398eFSmv/K+/Mf8A&#xA;1b7P/kr/AM14eFFu/wCV9+Y/+rfZ/wDJX/mvHhW3f8r78x/9W+z/AOSv/NePCtu/5X35j/6t9n/y&#xA;V/5rx4Vt3/K+/Mf/AFb7P/kr/wA148K27/lffmP/AKt9n/yV/wCa8eFbd/yvvzH/ANW+z/5K/wDN&#xA;ePCtu/5X35j/AOrfZ/8AJX/mvHhW3f8AK+/Mf/Vvs/8Akr/zXjwrbv8AlffmP/q32f8AyV/5rx4V&#xA;t3/K+/Mf/Vvs/wDkr/zXjwrbv+V9+Y/+rfZ/8lf+a8eFbd/yvvzH/wBW+z/5K/8ANePCtu/5X35j&#xA;/wCrfZ/8lf8AmvHhW3f8r78x/wDVvs/+Sv8AzXjwrbv+V9+Y/wDq32f/ACV/5rx4VtF2v53+YJo+&#xA;bWFoDWm3qf8ANePCtqv/ACunXv8Alhtf+Sn/ADVjwq7/AJXTr3/LDa/8lP8AmrHhVj3nrzne+ctE&#xA;XSNQgjt4FmScPb8g/JAwA+MuKfF4YiKXn3+CtK/37P8A8En/ADRhW3f4K0r/AH7P/wAEn/NGK29W&#xA;/Kjzw/liKLQb6WW50d5AIJZWBa25ncLQD93XenbthQ+dMCXYq7FUVpQB1SzB3BnjqP8AZjFXpeFD&#xA;sVSbzZbSz6Q3pjkYnWRgOvEAg/rwKwPFKZaDPHFf/GaCRCgJ6VJB/hipZPhYuxV2KuxV2KuxV2Ku&#xA;xV2KuxV2KuxV2KuxV2KuxVNLFGW3Fdqmo+WKURirsVdirsVdirsVeVYEuxV2KovSf+OrZ/8AGeL/&#xA;AImMVelYUOxV2KoOTR9KkYu9pEWPU8AK/diq39B6R/yxxf8AAjAqvHZWsa8UiUL2FMKrvq0H++1+&#xA;7FXfVoP99r92Ku+rQf77X7sVd9Wg/wB9r92Ku+rQf77X7sVd9Wg/32v3Yq76tB/vtfuxV31aD/fa&#xA;/dirvq0H++1+7FXfVoP99r92Ku+rQf77X7sVd9Wg/wB9r92Ku+rQf77X7sVd9Wg/32v3Yq2IIQah&#xA;Fr8sVVMVdirsVdirsVdirsVeVYEuxV2KovSf+OrZ/wDGeL/iYxV6VhQ7FXYq7FXYq7FXYq7FXYq7&#xA;FXYq7FXYq7FXYq7FXYq7FXYq7FXYq7FXYq7FXYq7FXYq7FXlWBLsVdiqL0n/AI6tn/xni/4mMVel&#xA;YUOxV2KuxV2KuxV2KuxV2KuxV2KuxV2KuxV2KuxV2KuxV2KuxV2KuxV2KuxV2KuxV2KuxV5VgS7F&#xA;XYqi9J/46tn/AMZ4v+JjFXpWFDsVdirsVdirsVdirsVdirsVVLa3kuJ44IhV5CFXw37nKs2aOOBn&#xA;LkGUYmRoM30ry5pkLRxvEs7uQJJJAGrvvQGoGcLq+2c+U2JGEegH6+rt8elhEcrKa6t5L0a9hb0I&#xA;VtLih4SRDitf8pRtTI6PtzPil6jxx7j+tjk0sJDbYvNLq2mtbmW3mHGWJijj3Bpne4csckBOPIi3&#xA;VSiQaKlljF2KuxV2KuxV2KuxV2KuxV2KuxV2KuxV2KvKsCXYq7FUXpP/AB1bP/jPF/xMYq9Kwodi&#xA;rsVdirsVdirsVdirsVdiqY+XWVdZtixoKsKnxKMBmr7ZiTpZ15feHI0p/eBnSsVYMNiDUH3Gefu5&#xA;Ty2vIp1FCA/dD1r7ZWRSvMfOEkcnmS9aMgqGVTT+ZUVW/wCGBz0TsWJGlhfn95p0upN5Ck2bRodi&#xA;rsVdirsVdirsVdirsVdirsVdirsVdiryrAl2KuxVFaWwXU7Rj0E0ZP8AwYxV6XhQ7FXYq7FXYq7F&#xA;XYq7FXYq7FW0dkYOpKspBVhsQR0ORlEEUeRSDTJ7HzbCY1S8RhKNjIgBU+5G1PozlNX7Oy4icRHD&#xA;3F2OPWivU6+82wiNks0YynYSOAFHuBvX6cdJ7Oy4gcpHD3BcmtFeljDuzsXYlmYksx3JJ6nOrjEA&#xA;UOQdcTbWSQ7FXYq7FXYq7FXYq7FXYq7FXYq7FXYq7FWD+evLsvlzzfq2jSKVW0uHEBbq0LHnC3+y&#xA;jZTgSkWKuxVcjsjq67MpBHzG+KvTrS4S5toriP7Eqhh9Pb6MKFXFXYq7FXYq7FXYq7FXYq7FXYq7&#xA;FXYq7FXYq7FXYq7FXYq7FXYq7FXYq7FXYq7FXYqmnlbSX1bzDYaeq8hNMvqe0anlIfoQHFWd/n/+&#xA;Vdx5ksk8xaLCZdZsI+FzbIPjuLcEsOI7yR1NB1YbdQBioL5bIINDsR1GBLsVdirJPKuuJbn6jctx&#xA;hc1hc9FY9VPscVZjhQ7FXYq7FXYq7FXYq7FXYq7FXYq7FXYq7FXYq7FXYq7FXYq7FXYq7FXYq7FX&#xA;Yq7FXtn5UeRpdJt21jUo+GoXScYIWHxRRHepHZn/AAH04oeiYq8z/MT8h/K/m2eTUbVzpGsyktLc&#xA;woGilY9TLFVasf5lIPjXFNvGNW/5xv8AzMspeNpb22px9RJb3CJ94uPRNcCbS7/lQP5tf9WL/p7s&#xA;/wDqtitu/wCVA/m1/wBWL/p7s/8Aqtitp1pX5VfnTZKIpNB+sQLsFa7swyj2b1v14oT6H8svzEcf&#xA;vNBkiPcNc2R/4jOcKoj/AJVV59/6tf8AyXt/+qmKu/5VV59/6tf/ACXt/wDqpirv+VVeff8Aq1/8&#xA;l7f/AKqYq7/lVXn3/q1/8l7f/qpirv8AlVXn3/q1/wDJe3/6qYq7/lVXn3/q1/8AJe3/AOqmKu/5&#xA;VV59/wCrX/yXt/8Aqpirv+VVeff+rX/yXt/+qmKu/wCVVeff+rX/AMl7f/qpirv+VVeff+rX/wAl&#xA;7f8A6qYq7/lVXn3/AKtf/Je3/wCqmKu/5VV59/6tf/Je3/6qYq7/AJVV59/6tf8AyXt/+qmKu/5V&#xA;V59/6tf/ACXt/wDqpirv+VVeff8Aq1/8l7f/AKqYq7/lVXn3/q1/8l7f/qpirv8AlVXn3/q1/wDJ&#xA;e3/6qYq7/lVXn3/q1/8AJe3/AOqmKu/5VV59/wCrX/yXt/8Aqpirv+VVeff+rX/yXt/+qmKu/wCV&#xA;Veff+rX/AMl7f/qpirv+VVeff+rX/wAl7f8A6qYqjLD8nfOVw4FxHDZJ+00sqvQfKL1MVeh+Uvys&#xA;0TQpEu7lv0hqKUKSyKBHGfFI99/ck+1MUM1xV//Z</xmpGImg:image>
               </rdf:li>
            </rdf:Alt>
         </xmp:Thumbnails>
         <pdf:Producer>Adobe PDF library 11.00</pdf:Producer>
         <dc:format>image/svg+xml</dc:format>
         <xmpTPg:MaxPageSize rdf:parseType="Resource">
            <stDim:w>18.062222</stDim:w>
            <stDim:h>18.062222</stDim:h>
            <stDim:unit>Centimeters</stDim:unit>
         </xmpTPg:MaxPageSize>
         <xmpTPg:NPages>1</xmpTPg:NPages>
         <xmpTPg:HasVisibleTransparency>False</xmpTPg:HasVisibleTransparency>
         <xmpTPg:HasVisibleOverprint>False</xmpTPg:HasVisibleOverprint>
         <xmpTPg:PlateNames>
            <rdf:Seq>
               <rdf:li>Cyan</rdf:li>
               <rdf:li>Magenta</rdf:li>
               <rdf:li>Yellow</rdf:li>
               <rdf:li>Black</rdf:li>
            </rdf:Seq>
         </xmpTPg:PlateNames>
         <xmpTPg:SwatchGroups>
            <rdf:Seq>
               <rdf:li rdf:parseType="Resource">
                  <xmpG:groupName>Группа образцов по умолчанию</xmpG:groupName>
                  <xmpG:groupType>0</xmpG:groupType>
               </rdf:li>
            </rdf:Seq>
         </xmpTPg:SwatchGroups>
      </rdf:Description>
   </rdf:RDF>
</x:xmpmeta>
                                                                                                    
                                                                                                    
                                                                                                    
                                                                                                    
                                                                                                    
                                                                                                    
                                                                                                    
                                                                                                    
                                                                                                    
                                                                                                    
                                                                                                    
                                                                                                    
                                                                                                    
                                                                                                    
                                                                                                    
                                                                                                    
                                                                                                    
                                                                                                    
                                                                                                    
                                                                                                    
                           
<?xpacket end="w"?>
	</metadata>
<path fill="#DBD7D1" d="M339.83701,199.19c0.005-0.026,0.01199-0.05099,0.017-0.077c-4.32599,0-215.041,0-221.35001,0
	c-0.83299,0-47.39301,0-44.358,0c0.005,0.026,0.012,0.05099,0.017,0.077c-4.107,0.53099-7.311,4.058-7.311,8.30499
	c0,11.203,0,36.86301,0,46.64799c93.699,0,187.04602,0,280.297,0c0-10.282,0-35.28,0-46.64799
	C347.14801,203.24899,343.94501,199.72101,339.83701,199.19z"/>
<path fill="#CCC9C4" d="M105.07001,199.19c-0.004-0.026-0.01199-0.05099-0.017-0.077c-0.047,0-0.095,0-0.142,0
	c-12.412,0-29.073,0-30.765,0c0.005,0.026,0.012,0.05099,0.017,0.077c-4.107,0.53099-7.311,4.058-7.311,8.30499
	c0,11.203,0,36.864,0,46.64799c10.312,0,20.604,0,30.90701,0c0-9.784,0-35.44499,0-46.64799
	C97.759,203.24899,100.96201,199.72101,105.07001,199.19z"/>
<path fill="#E5E1DA" d="M371.10901,243.841c-28.88199,0-286.021,0-328.21701,0c-5.767,0-10.486,4.71899-10.486,10.48599
	c0,9.15402,0,35.37802,0,44.67203h10.302c14.752,0,322.08401,0,338.88699,0c0-9.15402,0-35.37802,0-44.67201
	C381.595,248.55899,376.87601,243.841,371.10901,243.841z"/>
<path fill="#DBD7D1" d="M73.799,243.841c-13.971,0-24.739,0-30.907,0c-5.767,0-10.486,4.71899-10.486,10.48599
	c0,9.15402,0,35.37802,0,44.67203h10.302c1.995,0,9.35,0,20.605,0c0-9.29401,0-35.51801,0-44.67201
	C63.313,248.55899,68.031,243.841,73.799,243.841z"/>
<g>
	<polygon fill="#3E3A39" points="-41.439,430.67801 5.597,378.319 5.597,430.67801 	"/>
	<polygon fill="#3E3A39" points="455.439,430.29199 408.40302,378.319 408.40302,430.29199 	"/>
</g>
<path fill="#7C7A7A" d="M450.63699,429.31601H-36.637c-6.8,0-12.363,5.564-12.363,12.36298v102.96603
	c0,27.63293,22.609,50.24097,50.241,50.24097h412.42401c27.134,0,49.33499-22.20099,49.33499-49.33496V441.67899
	C463,434.88,457.43701,429.31601,450.63699,429.31601z"/>
<path fill="#3E3A39" d="M12.986,544.64502V441.67899c0-6.79901,5.563-12.36301,12.363-12.36301h-61.986
	C-43.437,429.31601-49,434.88-49,441.67899v102.96603c0,27.63293,22.609,50.24097,50.241,50.24097h61.986
	C35.595,594.88696,12.986,572.27802,12.986,544.64502z"/>
<path fill="#666666" d="M57.7,429.31601v15.45401c0,6.79999,5.563,12.36301,12.363,12.36301c11.05599,0,259.77802,0,273.875,0
	c6.79999,0,12.36301-5.56299,12.36301-12.36301v-15.45401C343.16901,429.31601,70.777,429.31601,57.7,429.31601z"/>
<path fill="#3E3A39" d="M88.60699,444.76999v-15.45401c-17.054,0-28.474,0-30.907,0v15.45401
	c0,6.79999,5.563,12.36301,12.363,12.36301c2.191,0,13.723,0,30.90701,0C94.17,457.133,88.60699,451.57001,88.60699,444.76999z"/>
<circle fill="#FDD136" cx="207" cy="525.45001" r="19.90601"/>
<path fill="#E2B420" d="M207,525.448c-3.68201-6.37701-3.41701-13.93701,0.009-19.89099c-3.38699-0.005-6.81799,0.836-9.96201,2.651
	c-9.521,5.49701-12.783,17.672-7.286,27.19299c5.49699,9.521,17.67201,12.78296,27.19301,7.28601
	c3.14401-1.815,5.58801-4.367,7.27701-7.302C217.36099,535.37598,210.68201,531.82501,207,525.448z"/>
<path fill="#F9F6ED" d="M407.49899,294.46301L407.49899,294.46301c-2.19901-3.45502-6.05301-5.76602-10.42899-5.76602
	c-13.75101,0-366.85001,0-380.14001,0c-4.376,0-8.23,2.311-10.429,5.76602l0,0c-3.977,6.74399-0.811,2.20197-1.934,134.854h404.866
	C408.64499,294.32202,411.20599,300.729,407.49899,294.46301z"/>
<path fill="#EFECE4" d="M37.408,294.46301L37.408,294.46301c2.199-3.45502,6.053-5.76602,10.429-5.76602c-17.431,0-28.73,0-30.907,0
	c-4.376,0-8.23,2.311-10.429,5.76602l0,0c-3.977,6.74399-0.811,2.20197-1.934,134.85297h30.907
	C36.597,296.66498,33.431,301.207,37.408,294.46301z"/>
<path fill="#E2D9C7" d="M369.897,340.629h-68.42599c-4.267,0-7.72699-3.45901-7.72699-7.72702s3.45901-7.72699,7.72699-7.72699
	H369.897c4.267,0,7.72699,3.45898,7.72699,7.72699S374.164,340.629,369.897,340.629z"/>
</svg>
