<?xml version="1.0" encoding="utf-8"?>
<!-- Generator: Adobe Illustrator 18.0.0, SVG Export Plug-In . SVG Version: 6.00 Build 0)  -->
<!DOCTYPE svg PUBLIC "-//W3C//DTD SVG 1.1//EN" "http://www.w3.org/Graphics/SVG/1.1/DTD/svg11.dtd">
<svg version="1.1" id="Capa_1" xmlns="http://www.w3.org/2000/svg" xmlns:xlink="http://www.w3.org/1999/xlink" x="0px" y="0px"
	 viewBox="-110 81 652 652" enable-background="new -49 141 512 512" xml:space="preserve">
<metadata><?xpacket begin="﻿" id="W5M0MpCehiHzreSzNTczkc9d"?>
<x:xmpmeta xmlns:x="adobe:ns:meta/" x:xmptk="Adobe XMP Core 5.6-c011 79.156289, 2014/03/31-23:39:12        ">
   <rdf:RDF xmlns:rdf="http://www.w3.org/1999/02/22-rdf-syntax-ns#">
      <rdf:Description rdf:about=""
            xmlns:xmpMM="http://ns.adobe.com/xap/1.0/mm/"
            xmlns:stRef="http://ns.adobe.com/xap/1.0/sType/ResourceRef#"
            xmlns:stEvt="http://ns.adobe.com/xap/1.0/sType/ResourceEvent#"
            xmlns:xmp="http://ns.adobe.com/xap/1.0/"
            xmlns:xmpGImg="http://ns.adobe.com/xap/1.0/g/img/"
            xmlns:pdf="http://ns.adobe.com/pdf/1.3/"
            xmlns:dc="http://purl.org/dc/elements/1.1/"
            xmlns:xmpTPg="http://ns.adobe.com/xap/1.0/t/pg/"
            xmlns:stDim="http://ns.adobe.com/xap/1.0/sType/Dimensions#"
            xmlns:xmpG="http://ns.adobe.com/xap/1.0/g/">
         <xmpMM:RenditionClass>proof:pdf</xmpMM:RenditionClass>
         <xmpMM:DocumentID>xmp.did:ea6744e8-b9ca-4091-9787-ccb7b764eba4</xmpMM:DocumentID>
         <xmpMM:InstanceID>xmp.iid:ea6744e8-b9ca-4091-9787-ccb7b764eba4</xmpMM:InstanceID>
         <xmpMM:OriginalDocumentID>uuid:294a808e-be46-d548-8fa1-11d1f8db0074</xmpMM:OriginalDocumentID>
         <xmpMM:DerivedFrom rdf:parseType="Resource">
            <stRef:instanceID>uuid:78fb728d-8dcb-a047-8561-837626283844</stRef:instanceID>
            <stRef:documentID>uuid:294a808e-be46-d548-8fa1-11d1f8db0074</stRef:documentID>
            <stRef:originalDocumentID>uuid:294a808e-be46-d548-8fa1-11d1f8db0074</stRef:originalDocumentID>
            <stRef:renditionClass>proof:pdf</stRef:renditionClass>
         </xmpMM:DerivedFrom>
         <xmpMM:History>
            <rdf:Seq>
               <rdf:li rdf:parseType="Resource">
                  <stEvt:action>saved</stEvt:action>
                  <stEvt:instanceID>xmp.iid:ea6744e8-b9ca-4091-9787-ccb7b764eba4</stEvt:instanceID>
                  <stEvt:when>2018-01-10T12:41:13+02:00</stEvt:when>
                  <stEvt:softwareAgent>Adobe Illustrator CC 2014 (Macintosh)</stEvt:softwareAgent>
                  <stEvt:changed>/</stEvt:changed>
               </rdf:li>
            </rdf:Seq>
         </xmpMM:History>
         <xmp:CreateDate>2018-01-10T12:41:12+02:00</xmp:CreateDate>
         <xmp:CreatorTool>Adobe Illustrator CC 2014 (Macintosh)</xmp:CreatorTool>
         <xmp:ModifyDate>2018-01-10T12:41:13+02:00</xmp:ModifyDate>
         <xmp:MetadataDate>2018-01-10T12:41:13+02:00</xmp:MetadataDate>
         <xmp:Thumbnails>
            <rdf:Alt>
               <rdf:li rdf:parseType="Resource">
                  <xmpGImg:width>200</xmpGImg:width>
                  <xmpGImg:height>256</xmpGImg:height>
                  <xmpGImg:format>JPEG</xmpGImg:format>
                  <xmpGImg:image>/9j/4AAQSkZJRgABAgEASABIAAD/7QAsUGhvdG9zaG9wIDMuMAA4QklNA+0AAAAAABAASAAAAAEA&#xA;AQBIAAAAAQAB/+4ADkFkb2JlAGTAAAAAAf/bAIQABgQEBAUEBgUFBgkGBQYJCwgGBggLDAoKCwoK&#xA;DBAMDAwMDAwQDA4PEA8ODBMTFBQTExwbGxscHx8fHx8fHx8fHwEHBwcNDA0YEBAYGhURFRofHx8f&#xA;Hx8fHx8fHx8fHx8fHx8fHx8fHx8fHx8fHx8fHx8fHx8fHx8fHx8fHx8fHx8f/8AAEQgBAADIAwER&#xA;AAIRAQMRAf/EAaIAAAAHAQEBAQEAAAAAAAAAAAQFAwIGAQAHCAkKCwEAAgIDAQEBAQEAAAAAAAAA&#xA;AQACAwQFBgcICQoLEAACAQMDAgQCBgcDBAIGAnMBAgMRBAAFIRIxQVEGE2EicYEUMpGhBxWxQiPB&#xA;UtHhMxZi8CRygvElQzRTkqKyY3PCNUQnk6OzNhdUZHTD0uIIJoMJChgZhJRFRqS0VtNVKBry4/PE&#xA;1OT0ZXWFlaW1xdXl9WZ2hpamtsbW5vY3R1dnd4eXp7fH1+f3OEhYaHiImKi4yNjo+Ck5SVlpeYmZ&#xA;qbnJ2en5KjpKWmp6ipqqusra6voRAAICAQIDBQUEBQYECAMDbQEAAhEDBCESMUEFURNhIgZxgZEy&#xA;obHwFMHR4SNCFVJicvEzJDRDghaSUyWiY7LCB3PSNeJEgxdUkwgJChgZJjZFGidkdFU38qOzwygp&#xA;0+PzhJSktMTU5PRldYWVpbXF1eX1RlZmdoaWprbG1ub2R1dnd4eXp7fH1+f3OEhYaHiImKi4yNjo&#xA;+DlJWWl5iZmpucnZ6fkqOkpaanqKmqq6ytrq+v/aAAwDAQACEQMRAD8A9K3Fw8rneiDoMrJSpYEo&#xA;qOJVHSp7nFV+BXYq7FXYq7FXYq7FXYq7FXYq7FXYq7FVjQQt9pFPzAxpUNLazxjnaSshG/p1ND9+&#xA;CiOSbWW2uyqeNynMdCy7N93TEZe9TFN4LiGdOcTBl7+I+Yy4EFgQqYVdirsVdirsVSbKmTl+0Pni&#xA;qNwK7FXYq7FXYq7FXYq7FXYq7FXYq7FXYq7FXYq7FUn1WEJOHAoJBU/MdchIMgh7e5mt5BJE3Fu/&#xA;gR4HIg0khkdjfR3cXJfhddnTwOZMZW1kUickh2KuxV2KpNlTJy/aHzxVG4FdirsVdirsVdirsVdi&#xA;rsVdirsVdirsVdirsVdiqW6z0i/2X8MjNlFLMrZIqwmkikLoaEU+nJRNILIbW6juI+S7MPtL4ZkR&#xA;lbWQrZJDsVdiqTZUycv2h88VRuBXYq7FXYq7FXYq7FXYq7FXYq7FXYq7FXYq7FXYqlus9Iv9l/DI&#xA;zZRSzK2SvbftfRkggomGaSKQOhoR+OSBpCd2t1HcR8l2YfaXwy6MrYEK2SQ7FUmypk5ftD54qjcC&#xA;uxV2KuxV2KuxV2KuxV2KuxV2KuxV2KuxV2KuxVLdZ6Rf7L+GRmyilmVsle2/a+jJBBVsKF8M0kUg&#xA;dDQj8cINKndrdR3EfJdmH2l8MujK2BCtkkJNlTJy/aHzxVG4FdirsVdirsVdirsVdirsVdirsVdi&#xA;rsVdirsVdiqF1G2aaH4N3Q1A8fEYJC0gpKQQaEUI6jKma+Fwrb9DhCESCDuMkh2KqkE7wyiRe3Ue&#xA;I8MINKQn8brIiuu6sKjMgFrSfKmTl+0PniqNwK7FXYq7FXYq7FXYq7FXYq7FXYq7FXYq7FXYq7FX&#xA;YqtaONjVlBPiQDirXoQ/77X7hjSuEUQ6Io+QGNK3wT+UfdiqnJawuPs8T4jbGltX07kivC2/A1U+&#xA;zZOCCgcily/aHzxVG4FdirsVdirsVdirsVdirsVdirsVdirsVdirsVdirsVdirsVdirsVdiq+3H7&#xA;2v8Akn9YyUeaCl+BLl+0PniqNwK7FXYq7FXYq7FXYqlnmLzBp+gaTNql+W9CGg4IKu7MaKqg03Jw&#xA;gK8+/wCV+6R/1arj/g0yXCi3f8r90j/q1XH/AAaY8K27/lfukf8AVquP+DTHhW3f8r90j/q1XH/B&#xA;pjwraN0X87tB1HU7exms57QXLiNJ2KsodjReVNwCe+DhW3o+RS7FXYq7FXYq7FXYq7FXYqqW/wBs&#xA;/LJxQUuyKXL9ofPFUbgV2KuxV2KuxV2KuxVJfN/li28y6HNpc8hh5lXimUcikiGobjUV8CMINK8u&#xA;P5BatU01W3I7ExuP45PiRTX/ACoLV/8Aq62//APjxLTv+VBav/1dbf8A4B8eJad/yoLV/wDq62//&#xA;AAD48S0mPl/8jJLTVbe71LUkmgt5Fl9CFGBcoahSzH4RUb7fdgMlp63kEuxV2KuxV2KuxV2KuxV2&#xA;Kqlv9s/LJxQUuyKXL9ofPFUbgV2KuxV2KuxV2KuxV2KuxV2KuxV2KuxV2KuxV2KuxV2KuxV2KuxV&#xA;2Kqlv9s/LJxQUuyKXL9ofPFUbgV2KuxV2KuxV2KuxV2KuxV2KuxV2KuxV2KuxV2KuxV2KuxV2Kux&#xA;V2Kqlv8AbPyycUFLsily/aHzxVG4FdiqC1fVIdNs2uZQWNQscY25Megr26Zi6zVxwYzOTZixmcqD&#xA;FD551WppDAB2BVz/AMb5zZ9ocv8ANj9v63P/ACMe8rW896qq1MUH/Av/AM15dpu2dRmnwxjH7f1s&#xA;Z6SERZJU/wDlYGrf74t/uf8A5rzfDNKt6/HxcXwwm3+K7z/fMf8Aw39cj+ZPcnwQ7/Fd5/vmP/hv&#xA;64/mT3L4Id/iu8/3zH/w39cfzJ7l8EO/xXef75j/AOG/rj+ZPcvgh3+K7z/fMf8Aw39cfzJ7l8EO&#xA;/wAV3n++Y/8Ahv64/mT3L4Id/iu8/wB8x/8ADf1x/MnuXwQ7/Fd5/vmP/hv64/mT3L4Id/iu8/3z&#xA;H/w39cfzJ7l8EO/xXef75j/4b+uP5k9y+CHf4rvP98x/8N/XH8ye5fBCIsfNBkuFjuY1RXNA6k7E&#xA;+IOThqLNFjLFtsyDMlpdirsVdiqpb/bPyycUFLsily/aHzxVG4FdirHfPH/HJi/4zr/xB80XtD/c&#xA;D+uPuLmaL6z7mD5xztFKf7I+ebnsT+8l/V/S42p5BQzpnDZFlTN2KuxV2KuxV2KuxV2KuxV2KuxV&#xA;2KvRM2jguxV2KuxVUt/tn5ZOKCl2RS5ftD54qjcCuxVKPM0UcthGsihgJQaHx4tmh9ojWAf1x90n&#xA;M0X1n3Ma+o2n++hnGcZdmpXFlahRSJevhm57FkfEP9X9LRqOSjHaWpkUGJSKjsPHOmidw4Z5I7gn&#xA;8o+7Nr4Ue4OHxnvdwT+Ufdj4Ue4LxnvdwT+Ufdj4Ue4LxnvdwT+Ufdj4Ue4LxnvdwT+Ufdj4Ue4L&#xA;xnvROnQwvcgOisKHYgEY+FHuC8Z701+p2n++I/8AgF/pj4Ue4Lxnvd9TtP8AfEf/AAC/0x8KPcF4&#xA;z3u+p2n++I/+AX+mPhR7gvGe931O0/3xH/wC/wBMfCj3BeM97vqdp/viP/gF/pj4Ue4Lxnvd9TtP&#xA;98R/8Av9MfCj3BeM96d5BXYq7FXYqqW/2z8snFBS7Ipcv2h88VRuBXYqlfmH/eJP+Mg/4i2aD2j/&#xA;ALgf1x90nM0X1n3MezinZqN19gfPN12J/eS/q/paNRyUIv7xP9Yfrzp4cw4h5I70Jv8Afbfcc3Lg&#xA;O9Cb/fbfccVd6E3++2+44q70Jv8AfbfccVd6E3++2+44qitMgm+tD923Q9jiqcehN/vtvuOKu9Cb&#xA;/fbfccVd6E3++2+44q70Jv8AfbfccVd6E3++2+44q70Jv99t9xxVMspZOxV2KuxVUt/tn5ZOKCl2&#xA;RS5ftD54qjcCuxVK/MP+8Sf8ZB/xFs0HtH/cD+uPuk5mi+s+5j2cU7NRuvsD55uuxP7yX9X9LRqO&#xA;Sgn21+YzphzcQstzdOA7FXYq7FXYqitN/wB6h8jiqb4q7FXYq7FXYq7FUHlLJ2KuxV2Kqlv9s/LJ&#xA;xQUuyKXL9ofPFUbgV2KpX5h/3iT/AIyD/iLZoPaP+4H9cfdJzNF9Z9zHs4p2ajdfYHzzddif3kv6&#xA;v6WjUclBPtr8xnTDm4hZbm6cB2KuxV2KuxVFab/vUPkcVTfFXYq7FXYq7FXYqg8pZOxV2KuxVUt/&#xA;tn5ZOKCl2RS5ftD54qjcCuxVK/MP+8Sf8ZB/xFs0HtH/AHA/rj7pOZovrPuY9nFOzUbr7A+ebrsT&#xA;+8l/V/S0ajkoJ9tfmM6Yc3ELLc3TgOxV2KuxV2KorTf96h8jiqb4q7FXYq7FXYq7FUHlLJ2KuxV2&#xA;Kqlv9s/LJxQUuyKXL9ofPFUbgV2KpX5h/wB4k/4yD/iLZoPaP+4H9cfdJzNF9Z9zHs4p2ajdfYHz&#xA;zddif3kv6v6WjUclBPtr8xnTDm4hZbm6cB2KuxV2KuxVFab/AL1D5HFU3xV2KuxV2KuxV2KoPKWT&#xA;sVdirsVVLf7Z+WTigpdkUuX7Q+eKo3ArsVSvzD/vEn/GQf8AEWzQe0f9wP64+6TmaL6z7mPZxTs1&#xA;G6+wPnm67E/vJf1f0tGo5KCfbX5jOmHNxCy3N04DsVdirsVdiqK03/eofI4qm+KuxV2KuxV2KuxV&#xA;B5SydirsVdiqpb/bPyycUFLsily/aHzxVG4FdiqV+Yf94k/4yD/iLZoPaP8AuB/XH3SczRfWfcx7&#xA;OKdmo3X2B883XYn95L+r+lo1HJQT7a/MZ0w5uIWW5unAdirsVdirsVRWm/71D5HFU3xV2KuxV2Ku&#xA;xV2KoPKWTsVdirsVVLf7Z+WTigpdkUuX7Q+eKo3ArsVSvzD/ALxJ/wAZB/xFs0HtH/cD+uPuk5mi&#xA;+s+5j2cU7NRuvsD55uuxP7yX9X9LRqOSgn21+YzphzcQstzdOA7FXYq7FXYqitN/3qHyOKpvirsV&#xA;dirsVdirsVQeUsnYq7FXYqqW/wBs/LJxQUuyKXL9ofPFUbgV2KoDWreWezpGOTIwfiOpABG335qO&#xA;29NPNgqO5ib+/wDW5OlyCM92M5wZFc3bKc6Fk26jembHsvURxZfVyIpqzRJGyGQfGvzGdbCQO4cI&#xA;stzduA7FXYq7FXYqitN/3qHyOKpvirsVdirsVdirTsFFTgJVCZUydirsVdiqpb/bPyycUFLsily/&#xA;aHzxVG4FdirsVdirsVdirsVdirsVdirsVdirsVdirsVdirsVdirsVdirsVdiqpb/AGz8snFBS7Ip&#xA;cv2h88VRuBXYq7FXYq7FXYq7FXYq7FXYq7FXYq7FXYq7FXYq7FXYq7FXYq7FXYqqW/2z8snFBS7I&#xA;pcv2h88VRuBXYq7FXYq7FXYq7FXYq7FXYq7FWiaAnrTfFUoTVLkzAmhQn7FO3z65DiLKk4ybFLL6&#xA;/uI7gxxniFp2BrUV75CUmQCOtZjNbpIwoW6j5GmTBQVHUbqSCNfT2Zifi60pgkaUBbpt3LOHWTcr&#xA;QhunXBE2pCNySHYq7FXYqqW/2z8snFBS7Ipcv2h88VRuBXYq7FXYq7FXYq7FXYq7FXYq7FXYqoCz&#xA;thJ6gjHOta79fl0wUE2r4UKMtrbzMGkTkR33H6sSE2qqqqoVRQDYAYoWywxyrxkXkvhiQrUMEUK8&#xA;Y14g9f8AM4gKqYq7FXYq7FVS3+2flk4oKXZFLl+0PniqNwK7FXYq7FXYq7FXYq7FXYq7FXYq7FXY&#xA;q7FXYq7FXYq7FXYq7FXYq7FVS3+2flk4oKXZFLl+0PniqNwK7FXYq7FXYq7FXYq7FXYq7FXYq7FX&#xA;Yq7FXYq7FXYq7FXYq7FXYq7FVS3+2flk4oKXZFLl+0PniqNwK7FXYq7FXYq7FXYq7FXYq7FXYq7F&#xA;XYq7FXYq7FXYq7FXYq7FXYq7FVS3+2flk4oKDuLd4nO1UPQ4CEqWBUVHKrDrQ9xiq/ArsVdirsVd&#xA;irsVdirsVdirsVdirsVdirsVdirsVdirsVdirsVdhVXhjK/Eep7ZOIQX/9k=</xmpGImg:image>
               </rdf:li>
            </rdf:Alt>
         </xmp:Thumbnails>
         <pdf:Producer>Adobe PDF library 11.00</pdf:Producer>
         <dc:format>image/svg+xml</dc:format>
         <xmpTPg:MaxPageSize rdf:parseType="Resource">
            <stDim:w>18.062222</stDim:w>
            <stDim:h>18.062222</stDim:h>
            <stDim:unit>Centimeters</stDim:unit>
         </xmpTPg:MaxPageSize>
         <xmpTPg:NPages>1</xmpTPg:NPages>
         <xmpTPg:HasVisibleTransparency>False</xmpTPg:HasVisibleTransparency>
         <xmpTPg:HasVisibleOverprint>False</xmpTPg:HasVisibleOverprint>
         <xmpTPg:PlateNames>
            <rdf:Seq>
               <rdf:li>Cyan</rdf:li>
               <rdf:li>Magenta</rdf:li>
               <rdf:li>Yellow</rdf:li>
               <rdf:li>Black</rdf:li>
            </rdf:Seq>
         </xmpTPg:PlateNames>
         <xmpTPg:SwatchGroups>
            <rdf:Seq>
               <rdf:li rdf:parseType="Resource">
                  <xmpG:groupName>Группа образцов по умолчанию</xmpG:groupName>
                  <xmpG:groupType>0</xmpG:groupType>
               </rdf:li>
            </rdf:Seq>
         </xmpTPg:SwatchGroups>
      </rdf:Description>
   </rdf:RDF>
</x:xmpmeta>
                                                                                                    
                                                                                                    
                                                                                                    
                                                                                                    
                                                                                                    
                                                                                                    
                                                                                                    
                                                                                                    
                                                                                                    
                                                                                                    
                                                                                                    
                                                                                                    
                                                                                                    
                                                                                                    
                                                                                                    
                                                                                                    
                                                                                                    
                                                                                                    
                                                                                                    
                                                                                                    
                           
<?xpacket end="w"?>
	</metadata>
<path fill="#F9F6ED" d="M386.06299,653c-12.72,0-345.263,0-358.12701,0c-9.857,0-17.848-7.99097-17.848-17.84802
	c0-99.16699,0-377.12598,0-476.28198c0-10.033,8.225-17.84799,17.849-17.84799c9.287,0,235.578,0,242.76898,0
	c23.27798,0,45.60199,9.24699,62.06201,25.707l50.69501,50.69499c13.09299,13.093,20.448,30.84999,20.448,49.36598
	c0,39.99701,0,312.03503,0,368.362C403.91199,645.00903,395.92001,653,386.06299,653z"/>
<path fill="#EFECE4" d="M40.994,635.15198c0-99.16699,0-377.12598,0-476.28098c0-10.033,8.225-17.84799,17.849-17.84799
	c-17.261,0-28.941,0-30.906,0c-9.623,0-17.849,7.81499-17.849,17.84799c0,99.15601,0,377.11496,0,476.28098
	c0,9.85706,7.991,17.84802,17.848,17.84802c2.177,0,13.518,0,30.906,0C48.985,653,40.994,645.00903,40.994,635.15198z"/>
<g>
	<path fill="#EAE4D6" d="M375.841,237.87201h-30.79102c-19.56699-0.44202-19.44901,0.642-24.75299-0.62401h0.00101
		c-7.61801-2.036-13.23599-8.965-13.23599-17.22499v-42.32602C307.05002,175.409,306.18903,141.022,264.88,141.022
		c2.82001,0.377,29.33701-3.043,56.54498,16.16899c11.241,7.964,16.74799,15.65401,29.58099,27.77501l0,0l32.45801,32.45799
		c12.28,12.28,19.74301,29,20.37601,46.92101C402.62,242.59799,385.151,238.502,375.841,237.87201z"/>
	<path fill="#EAE4D6" d="M403.83899,264.345c0.04401,0.79401,0.073,1.604,0.073,2.44501
		C403.91199,265.97198,403.867,265.16,403.83899,264.345z"/>
</g>
<path fill="#E2D9C7" d="M351.202,237.248L351.202,237.248c-7.617-2.036-13.23499-8.965-13.23499-17.22499v-42.32602
	c-0.00299-0.56499-0.05899-3.08499-0.76001-6.558c-4.991-5.114-9.48801-9.48799-15.78299-13.94699
	c-24.298-17.159-48.03101-16.26601-54.84-16.14799c39.625,0.93399,40.466,34.396,40.47699,36.65298V220.024
	c0,8.259,5.61801,15.18901,13.23599,17.22499h-0.00101c5.30499,1.26601,5.18701,0.18201,24.75299,0.62401h10.53699
	C354.11499,237.827,352.953,237.666,351.202,237.248z"/>
<path fill="#666666" d="M241.21201,293.53699h-68.423c-4.267,0-7.72701-3.45898-7.72701-7.72699s3.459-7.72699,7.72701-7.72699
	h68.423c4.267,0,7.72699,3.45898,7.72699,7.72699C248.93799,290.078,245.479,293.53699,241.21201,293.53699z"/>
<path fill="#FFFFFF" d="M317.40201,524.94501h-220.804c-6.799,0-12.362-5.56299-12.362-12.362V351.88098
	c0-6.79898,5.563-12.362,12.362-12.362h220.804c6.79901,0,12.362,5.56302,12.362,12.362v160.70203
	C329.76401,519.38196,324.20099,524.94501,317.40201,524.94501z"/>
<path fill="#D9C098" d="M317.40201,339.51801h-220.804c-6.799,0-12.362,5.56299-12.362,12.362v15.453h245.52901V351.88
	C329.76401,345.08099,324.20099,339.51801,317.40201,339.51801z"/>
<path fill="#D9C098" d="M137.94701,339.51801h-41.349c-6.799,0-12.362,5.56299-12.362,12.362v160.70203
	c0,6.79895,5.563,12.36194,12.362,12.36194h41.349V339.51801z"/>
<path fill="#FDD136" d="M115.142,512.58301V351.88c0-6.79901,5.563-12.362,12.362-12.362H96.59799
	c-6.799,0-12.362,5.56299-12.362,12.362v160.70203c0,6.79895,5.563,12.36194,12.362,12.36194H127.504
	C120.705,524.94501,115.142,519.38196,115.142,512.58301z"/>
<path fill="#BCA788" d="M137.94701,339.51801c-41.867,0.58801-44.545-1.90302-50.08,3.63202
	c-2.37601,2.37598-3.631,5.53796-3.631,8.73099v15.453h53.711V339.51801z"/>
<path fill="#E2B420" d="M115.142,351.88c0-6.30499,4.786-11.53799,10.903-12.267c-6.56,0.01199-11.83701-0.04501-16.123-0.095
	H97.992c-2.29201,0.08899-3.97301,0.285-5.33701,0.66c-1.81799,0.617-3.45399,1.638-4.785,2.96799
	c-0.00101,0.00104-0.002,0.00201-0.00301,0.00302c-0.28999,0.29001-0.563,0.59299-0.819,0.905
	c-0.086,0.104-0.161,0.21802-0.243,0.32501c-0.16499,0.21497-0.332,0.42899-0.48199,0.65198
	c-0.07899,0.11798-0.147,0.24402-0.22301,0.36499c-0.13901,0.224-0.28,0.44702-0.40401,0.67801
	c-0.06,0.112-0.10899,0.229-0.166,0.34299c-0.12399,0.25-0.248,0.49902-0.354,0.755c-0.043,0.10202-0.075,0.20901-0.11501,0.31302
	c-0.104,0.27298-0.20799,0.54599-0.293,0.82401c-0.033,0.108-0.056,0.22101-0.08501,0.33002
	c-0.076,0.276-0.151,0.55298-0.207,0.83298c-0.032,0.15799-0.049,0.32101-0.07401,0.48099
	c-0.03799,0.23602-0.08099,0.47101-0.105,0.70801c-0.03999,0.401-0.062,0.80701-0.062,1.21698v15.453h30.90601V351.88H115.142z"/>
<path fill="#E2D9C7" d="M314.871,576.84302h-0.51501c-4.267,0-7.72699-3.45905-7.72699-7.72705
	c0-4.26794,3.45901-7.72693,7.72699-7.72693h0.51501c4.267,0,7.72699,3.45898,7.72699,7.72693
	C322.59799,573.38403,319.138,576.84302,314.871,576.84302z M278.29901,576.84302H277.784c-4.267,0-7.72699-3.45905-7.72699-7.72705
	c0-4.26794,3.45901-7.72693,7.72699-7.72693h0.51501c4.267,0,7.72699,3.45898,7.72699,7.72693
	C286.026,573.38403,282.56601,576.84302,278.29901,576.84302z M241.72699,576.84302h-0.51501
	c-4.267,0-7.72699-3.45905-7.72699-7.72705c0-4.26794,3.45901-7.72693,7.72699-7.72693h0.51501
	c4.267,0,7.72699,3.45898,7.72699,7.72693C249.453,573.38403,245.99399,576.84302,241.72699,576.84302z"/>
<g>
	<rect x="137.95001" y="367.32999" fill="#E6E6E6" width="191.82002" height="27.815"/>
	<rect x="137.95001" y="367.33002" fill="#E6E6E6" width="90.65999" height="157.61"/>
</g>
<rect x="137.95001" y="367.32999" fill="#CCCCCC" width="90.65999" height="27.815"/>
</svg>
