<?xml version="1.0" encoding="utf-8"?>
<!-- Generator: Adobe Illustrator 22.1.0, SVG Export Plug-In . SVG Version: 6.00 Build 0)  -->
<svg version="1.1" id="Слой_1" xmlns="http://www.w3.org/2000/svg" xmlns:xlink="http://www.w3.org/1999/xlink" x="0px" y="0px"
	 viewBox="0 0 56.7 56.7" style="enable-background:new 0 0 56.7 56.7;" xml:space="preserve">
<style type="text/css">
	.st0{fill:#FED138;}
</style>
<g>
	<g>
		<path class="st0" d="M53,30.2H4.1c-1,0-1.7,0.7-1.7,1.7v21c0,1,0.7,1.7,1.7,1.7H53c1,0,1.7-0.7,1.7-1.7V32
			C54.8,30.9,54.1,30.2,53,30.2z M53,52.9H4.1V32H53C53,32,53,52.9,53,52.9z M9.3,33.7H5.8v1.7h3.5L9.3,33.7L9.3,33.7z M9.3,49.4
			H5.8v1.7h3.5L9.3,49.4L9.3,49.4z M11.1,51.2h3.5v-1.7h-3.5V51.2z M40.8,49.4H16.3v1.7h24.5V49.4z M14.5,33.7h-3.5v1.7h3.5V33.7z
			 M19.8,33.7h-3.5v1.7h3.5V33.7z M25,33.7h-3.5v1.7H25V33.7z M30.3,33.7h-3.5v1.7h3.5V33.7z M35.5,33.7H32v1.7h3.5V33.7z
			 M40.8,33.7h-3.5v1.7h3.5V33.7z M46,33.7h-3.5v1.7H46V33.7z M42.5,51.2H46v-1.7h-3.5V51.2z M47.8,51.2h3.5v-1.7h-3.5V51.2z
			 M51.3,33.7h-3.5v1.7h3.5V33.7z M8.4,38.1H6.7v1.7h1.7V38.1z M11.9,38.1h-1.7v1.7h1.7V38.1z M13.7,39.8h1.7v-1.7h-1.7V39.8z
			 M18.9,38.1h-1.7v1.7h1.7V38.1z M22.4,38.1h-1.7v1.7h1.7V38.1z M25.9,38.1h-1.7v1.7h1.7V38.1z M29.4,38.1h-1.7v1.7h1.7V38.1z
			 M32.9,38.1h-1.7v1.7h1.7V38.1z M36.4,38.1h-1.7v1.7h1.7V38.1z M39.9,38.1h-1.7v1.7h1.7V38.1z M43.4,38.1h-1.7v1.7h1.7
			C43.4,39.8,43.4,38.1,43.4,38.1z M45.1,39.8h1.7v-1.7h-1.7V39.8z M50.4,38.1h-1.7v1.7h1.7V38.1z M8.4,41.6H6.7v1.7h1.7V41.6z
			 M11.9,41.6h-1.7v1.7h1.7V41.6z M13.7,43.3h1.7v-1.7h-1.7V43.3z M18.9,41.6h-1.7v1.7h1.7V41.6z M22.4,41.6h-1.7v1.7h1.7V41.6z
			 M25.9,41.6h-1.7v1.7h1.7V41.6z M29.4,41.6h-1.7v1.7h1.7V41.6z M32.9,41.6h-1.7v1.7h1.7V41.6z M36.4,41.6h-1.7v1.7h1.7V41.6z
			 M39.9,41.6h-1.7v1.7h1.7V41.6z M43.4,41.6h-1.7v1.7h1.7C43.4,43.3,43.4,41.6,43.4,41.6z M6.7,46.8h1.7v-1.7H6.7V46.8z M11.9,45.1
			h-1.7v1.7h1.7V45.1z M13.7,46.8h1.7v-1.7h-1.7V46.8z M17.2,46.8h1.7v-1.7h-1.7V46.8z M22.4,45.1h-1.7v1.7h1.7V45.1z M24.2,46.8
			h1.7v-1.7h-1.7V46.8z M27.7,46.8h1.7v-1.7h-1.7V46.8z M32.9,45.1h-1.7v1.7h1.7V45.1z M34.6,46.8h1.7v-1.7h-1.7V46.8z M38.1,46.8
			h1.7v-1.7h-1.7V46.8z M43.4,45.1h-1.7v1.7h1.7C43.4,46.8,43.4,45.1,43.4,45.1z M45.1,46.8h4.4c0.5,0,0.9-0.3,0.9-0.9v-4.4h-1.7
			v3.5h-3.5V46.8z M45.1,41.6v1.7h1.7v-1.7H45.1z M53.9,2.3H3.2c-0.5,0-0.9,0.3-0.9,0.9v24.5h1.7V11H53v16.6h1.7V3.1
			C54.8,2.6,54.4,2.3,53.9,2.3z M53,9.2H4.1V4H53C53,4,53,9.2,53,9.2z M7.6,5.7H5.8v1.7h1.7V5.7z M11.1,5.7H9.3v1.7h1.7V5.7z
			 M14.5,5.7h-1.7v1.7h1.7V5.7z M12.8,12.7v14.9h1.7V12.7H12.8z M10.2,13.6H6.7v1.7h3.5V13.6z M6.7,20.6h3.5v-1.7H6.7V20.6z
			 M6.7,25.8h3.5v-1.7H6.7V25.8z M17.2,13.6v1.7h3.5v-1.7H17.2z M22.4,15.4h14v-1.7h-14V15.4z M38.1,15.4h3.5v-1.7h-3.5V15.4z
			 M50.4,13.6h-7v1.7h7V13.6z M17.2,20.6h12.2v-1.7H17.2V20.6z M29.4,25.8v-1.7h-3.5v1.7H29.4z M17.2,25.8h7v-1.7h-7V25.8z
			 M35.8,19.1l-2.6,2.6c-0.3,0.3-0.3,0.9,0,1.2l2.6,2.6l1.2-1.2l-2-2l2-2L35.8,19.1z M45.7,25.6l2.6-2.6c0.3-0.3,0.3-0.9,0-1.2
			l-2.6-2.6l-1.2,1.2l2,2l-2,2L45.7,25.6z M39.8,26.2l3.5-7l-1.6-0.8l-3.5,7L39.8,26.2z"/>
	</g>
</g>
</svg>
