<?xml version="1.0" encoding="utf-8"?>
<!-- Generator: Adobe Illustrator 23.0.6, SVG Export Plug-In . SVG Version: 6.00 Build 0)  -->
<svg version="1.1" id="Capa_1" xmlns="http://www.w3.org/2000/svg" xmlns:xlink="http://www.w3.org/1999/xlink" x="0px" y="0px"
	 viewBox="0 0 652 652" style="enable-background:new 0 0 652 652;" xml:space="preserve">
<style type="text/css">
	.st0{fill:url(#SVGID_2_);}
	.st1{clip-path:url(#SVGID_4_);fill:url(#SVGID_5_);}
	.st2{fill:none;stroke:#FFCC00;stroke-width:10;stroke-linecap:round;stroke-linejoin:round;stroke-miterlimit:10;}
</style>
<g>
	<g>
		<g>
			<g>
				
					<linearGradient id="SVGID_2_" gradientUnits="userSpaceOnUse" x1="-2844" y1="325.25" x2="-2198.2" y2="325.25" gradientTransform="matrix(-1 0 0 -1 -2192 652)">
					<stop  offset="0" style="stop-color:#330066"/>
					<stop  offset="0.1703" style="stop-color:#380066"/>
					<stop  offset="0.386" style="stop-color:#480066"/>
					<stop  offset="0.626" style="stop-color:#620066"/>
					<stop  offset="0.882" style="stop-color:#860066"/>
					<stop  offset="1" style="stop-color:#990066"/>
				</linearGradient>
				<path id="SVGID_1_" class="st0" d="M652,326.8c0-178.5-144.5-323-322.9-323S6.2,148.3,6.2,326.8s144.7,322.9,322.9,322.9
					S652,505.2,652,326.8"/>
			</g>
			<g>
				<g>
					<defs>
						<path id="SVGID_3_" d="M652,326.8c0-178.5-144.5-323-322.9-323S6.2,148.3,6.2,326.8s144.7,322.9,322.9,322.9
							S652,505.2,652,326.8"/>
					</defs>
					<clipPath id="SVGID_4_">
						<use xlink:href="#SVGID_3_"  style="overflow:visible;"/>
					</clipPath>
					
						<linearGradient id="SVGID_5_" gradientUnits="userSpaceOnUse" x1="-4470.3477" y1="5.7501" x2="-4465.5054" y2="5.7501" gradientTransform="matrix(-139.3333 0 0 -139.3333 -622201.8125 1127.9817)">
						<stop  offset="0" style="stop-color:#330066"/>
						<stop  offset="0.1703" style="stop-color:#380066"/>
						<stop  offset="0.386" style="stop-color:#480066"/>
						<stop  offset="0.626" style="stop-color:#620066"/>
						<stop  offset="0.882" style="stop-color:#860066"/>
						<stop  offset="1" style="stop-color:#990066"/>
					</linearGradient>
					<rect x="6.4" y="4" class="st1" width="645.6" height="645.6"/>
				</g>
			</g>
		</g>
	</g>
</g>
<path class="st2" d="M330.4,486.8c0,0,49.4-37.2,159.9-28.9c1.8,0.2,3.5-1.4,3.5-3.4V216.2c0,0-110.9-29.1-167.7,39.6"/>
<path class="st2" d="M348.2,496.6c0,0,77.4-25.1,177.2-15.5c1.9,0.2,3.6-1.4,3.6-3.4V233.8c0,0-14.4-4.8-35.4-2.8"/>
<path class="st2" d="M320.7,486.8c0,0-48.5-37.2-159-28.9c-1.8,0.2-3.5-1.4-3.5-3.4V216.2c0,0,110.9-29.1,167.7,39.6"/>
<path class="st2" d="M303.3,496.6c0,0-77-25.1-176.8-15.5c-1.9,0.2-3.6-1.4-3.6-3.4V233.8c0,0,14.4-4.8,35.4-2.8"/>
<line class="st2" x1="326" y1="277" x2="326" y2="479.9"/>
<path class="st2" d="M190.1,296.5c0,0,65.3-13.6,115.2,32.4"/>
<path class="st2" d="M190.1,329c0,0,65.3-13.6,115.2,32.4"/>
<path class="st2" d="M190.1,361.6c0,0,65.3-13.6,115.2,32.4"/>
<path class="st2" d="M463.1,296.5c0,0-65.3-13.6-115.2,32.4"/>
<path class="st2" d="M463.1,261.7c0,0-65.3-13.6-115.2,32.4"/>
<path class="st2" d="M463.1,329c0,0-65.3-13.6-115.2,32.4"/>
<path class="st2" d="M463.1,361.6c0,0-65.3-13.6-115.2,32.4"/>
<g>
	<path class="st2" d="M199.6-238.2c2.6-2.4,2.5-4.7,0.3-7.2c-0.8-0.8-1.7-1.9-2.5-2.8c-3.6-3-4.5-5.9-3.9-9.4
		c2.1-3.7,3.7-7.7,4.9-11.7c3-3.8,7.3-5.1,13.3-4.8c3.2,0.4,4.8-1.5,4.8-4.8c0-3.6-0.1-7.1,0-10.5c0-3.6-1.7-5.3-5.1-5.4
		c-3.5-0.1-6.4-0.8-9.7-0.8c-0.9-0.1-1.7-0.3-2.3-0.6c-1.3-6.1-3.5-12-6.9-17.5c0.3-2.1,1.5-4.1,3.6-6.3c7.5-8,6-7.6-0.8-14.4
		c-7.1-7.1-7.2-7.2-14.7-0.6c-1.8,1.7-3.5,2.9-5.2,3.4c-5.9-3.9-12.3-6.5-19-8c-1.2-3.2-0.7-7.7-1.2-11.3c-0.1-3.2-1.8-4.3-4.6-4.3
		c-3.6,0-7.2,0-10.8,0c-3.5-0.1-4.8,1.2-5.3,4.4c-0.3,1.4-0.6,2.8-0.3,4.2c0.1,2.6-0.3,5-1.3,6.9c-6.6,1.4-12.9,3.9-18.8,7.7
		c-2.2-0.7-4.3-2.3-6.5-4.4c-5.8-5.3-6.2-4.8-11.8,0.7c-8.9,8.9-9.1,7.2-1,17c1,1.2,1.9,2.4,2.4,3.5c-3.7,5.8-6.3,12.1-7.7,18.6
		c-1.8,1.1-4.2,1.5-7,1.5c-10.9,0.1-9,2.1-9,10.1c0,10.8-1,10.1,9.8,10.9c2.5,0.2,4.7,0.5,6.4,1.5c1.5,6.4,4,12.6,7.8,18.3
		c-1.1,3.2-5,6-7.2,9.3c-0.7,1.2-1,4.3-0.1,5.4c2.5,3,5.8,6.1,8.9,9.1c0.6,0.6,1.5,0.7,2.5,1.4c1-0.7,2.2-1.1,5-2.2
		c2.9-2.1,5.4-4,7.9-6.2l0.1-0.1c6.2,3.9,13,6.5,20,7.7c0.1,0.1,0.1,0.3,0.2,0.4c0.8,3.6,1.1,6.9,1.2,10.4c0.3,2.8,1.4,4.4,4.7,4.4
		c3.6,0,7.5,0,11.1,0c3.2,0.1,4.3-1.5,4.6-4.6c0-3.3,0.3-6.6,1-9.8c0.2-0.5,0.6-1.1,1-1.6c5.8-1.5,11.5-3.9,16.7-7.3
		c0.8,0,1.7,0.2,2.2,0.6c2.8,1.9,5.5,4.2,8,6.4c2.4,2.1,4.7,2.5,7.2-0.3C194.6-233.4,197.1-235.9,199.6-238.2z"/>
</g>
<path class="st2" d="M117.8-308.9c-5.7,6.3-9.3,14.6-9.4,23.6c0,19.9,16.4,36.3,36.3,36.3c19.5,0.3,35.4-15.5,35.6-35.6
	c0-19.9-16.2-36-35.6-36.3c-2.6,0-5.2,0.3-7.7,0.8"/>
<path class="st2" d="M345.2-229.6c0,0,57.6-49.7,186.5-39.5c0-73.5,0-279.5,0-279.5s-126.6-16-191.4,58.1"/>
<path class="st2" d="M369.7-227.6c0,0,86.5-27.8,202.4-16.4c0-81.2,0-285.7,0-285.7s-16.4-5.2-40.4-3"/>
<path class="st2" d="M334.3-229.6c0,0-56.6-49.7-185.5-39.5c0-73.5,0-279.5,0-279.5s126.6-16,191.4,58.1"/>
<path class="st2" d="M310.4-227.6c0,0-86-27.8-201.9-16.4c0-81.2,0-285.7,0-285.7s16.4-5.2,40.4-3"/>
<line class="st2" x1="340.3" y1="-490.5" x2="340.3" y2="-237"/>
<path class="st2" d="M310.4-227.6c0,0,9.6,8.6,29.9,8.6s29.4-8.6,29.4-8.6"/>
<path class="st2" d="M185.2-497.2c0,0,74.6-10.3,131.5,39.3"/>
<path class="st2" d="M185.2-462.1c0,0,74.6-10.3,131.5,39.3"/>
<path class="st2" d="M185.2-426.9c0,0,74.6-10.3,131.5,39.3"/>
<path class="st2" d="M496.8-497.2c0,0-74.6-10.3-131.5,39.3"/>
<path class="st2" d="M496.8-462.1c0,0-74.6-10.3-131.5,39.3"/>
<path class="st2" d="M496.8-426.9c0,0-74.6-10.3-131.5,39.3"/>
<path class="st2" d="M121.9,502c92.3-9.6,163.4,10.9,175.5,14.6c1.1,0.4,2,1.3,2.3,2.5l0,0c0.2,0.8,0.6,1.6,1.3,2
	c2.7,2,10.9,7.1,25.1,7.1c14.5,0,22.4-5.3,25-7.2c0.5-0.5,1-1,1.1-1.8l0.1-0.4c0.4-1.1,1.1-1.9,2.2-2.3
	c11.7-3.7,82.9-24.3,175.5-14.7"/>
<g>
	<path class="st2" d="M385.8,157.5c2.3-2.1,2.2-4.2,0.3-6.4c-0.7-0.7-1.5-1.7-2.2-2.5c-3.2-2.7-4-5.2-3.5-8.3
		c1.9-3.3,3.3-6.8,4.3-10.4c2.7-3.4,6.5-4.5,11.8-4.2c2.8,0.4,4.2-1.3,4.2-4.2c0-3.2-0.1-6.3,0-9.3c0-3.2-1.5-4.7-4.5-4.8
		c-3.1-0.1-5.7-0.7-8.6-0.7c-0.8-0.1-1.5-0.3-2-0.5c-1.1-5.4-3.1-10.6-6.1-15.5c0.3-1.9,1.3-3.6,3.2-5.6c6.6-7.1,5.3-6.7-0.7-12.7
		c-6.3-6.3-6.4-6.4-13-0.5c-1.6,1.5-3.1,2.6-4.6,3c-5.2-3.5-10.9-5.8-16.8-7.1c-1.1-2.8-0.6-6.8-1.1-10c-0.1-2.8-1.6-3.8-4.1-3.8
		c-3.2,0-6.4,0-9.6,0c-3.1-0.1-4.2,1.1-4.7,3.9c-0.3,1.2-0.5,2.5-0.3,3.7c0.1,2.3-0.3,4.4-1.1,6.1c-5.8,1.2-11.4,3.5-16.6,6.8
		c-1.9-0.6-3.8-2-5.8-3.9c-5.1-4.7-5.5-4.2-10.4,0.6c-7.9,7.9-8.1,6.4-0.9,15c0.9,1.1,1.7,2.1,2.1,3.1c-3.3,5.1-5.6,10.7-6.8,16.5
		c-1.6,1-3.7,1.3-6.2,1.3c-9.6,0.1-8,1.9-8,8.9c0,9.6-0.9,8.9,8.7,9.6c2.2,0.2,4.2,0.4,5.7,1.3c1.3,5.7,3.5,11.1,6.9,16.2
		c-1,2.8-4.4,5.3-6.4,8.2c-0.6,1.1-0.9,3.8-0.1,4.8c2.2,2.7,5.1,5.4,7.9,8.1c0.5,0.5,1.3,0.6,2.2,1.2c0.9-0.6,1.9-1,4.4-1.9
		c2.6-1.9,4.8-3.5,7-5.5l0.1-0.1c5.5,3.5,11.5,5.8,17.7,6.8c0.1,0.1,0.1,0.3,0.2,0.4c0.7,3.2,1,6.1,1.1,9.2c0.3,2.5,1.2,3.9,4.2,3.9
		c3.2,0,6.6,0,9.8,0c2.8,0.1,3.8-1.3,4.1-4.1c0-2.9,0.3-5.8,0.9-8.7c0.2-0.4,0.5-1,0.9-1.4c5.1-1.3,10.2-3.5,14.8-6.5
		c0.7,0,1.5,0.2,1.9,0.5c2.5,1.7,4.9,3.7,7.1,5.7c2.1,1.9,4.2,2.2,6.4-0.3C381.4,161.7,383.6,159.5,385.8,157.5z"/>
</g>
<path class="st2" d="M313.4,95c-5,5.6-8.2,12.9-8.3,20.9c0,17.6,14.5,32.1,32.1,32.1c17.3,0.3,31.3-13.7,31.5-31.5
	c0-17.6-14.3-31.8-31.5-32.1c-2.3,0-4.6,0.3-6.8,0.7"/>
<path class="st2" d="M234.4,253.4c-25.3-3.6-44.2,0.4-44.2,0.4"/>
</svg>
