<?xml version="1.0" encoding="utf-8"?>
<!-- Generator: Adobe Illustrator 22.1.0, SVG Export Plug-In . SVG Version: 6.00 Build 0)  -->
<svg version="1.1" id="Слой_1" xmlns="http://www.w3.org/2000/svg" xmlns:xlink="http://www.w3.org/1999/xlink" x="0px" y="0px"
	 viewBox="0 0 100 100" style="enable-background:new 0 0 100 100;" xml:space="preserve">
<style type="text/css">
	.st0{fill:none;stroke:#FED138;stroke-width:4;stroke-linejoin:round;stroke-miterlimit:10;}
</style>
<path class="st0" d="M21.7,79.2c-2.7,0-5-2.2-5-4.9c0-2.7,2.2-4.9,5-4.9s5,2.2,5,4.9C26.9,77,24.4,79.2,21.7,79.2L21.7,79.2z"/>
<path class="st0" d="M84.7,52.9c-0.4-3.8-2.8-7-6.2-9.6l-1.3-1l-1,1.3c-1.9,2.2-2.7,6-2.4,9c0.3,2.2,1,4.5,2.2,6
	c-1,0.4-2.2,1-3.2,1.4c-2.2,0.9-4.5,1-6.6,1h-63l-0.3,1.4C2.6,66.9,3.3,71.9,5.2,76l1,1.8v0.3c5.9,9.7,16.5,14.1,27.8,14.1
	c22,0,40-9.6,48.5-29.7c5.5,0.3,11.2-1.3,13.9-6.5l0.9-1.3L96,54.1C92.8,52.2,88.5,51.9,84.7,52.9L84.7,52.9z"/>
<rect x="42" y="45.2" class="st0" width="8.7" height="8.5"/>
<rect x="42" y="29.9" class="st0" width="8.7" height="8.5"/>
<rect x="57.2" y="45.2" class="st0" width="8.7" height="8.5"/>
<polygon class="st0" points="20.2,45.2 11.5,45.2 11.5,53.8 20.2,53.8 "/>
<rect x="26.9" y="45.2" class="st0" width="8.7" height="8.5"/>
<rect x="26.9" y="29.9" class="st0" width="8.7" height="8.5"/>
<rect x="42" y="14.6" class="st0" width="8.7" height="8.5"/>
</svg>
