<?xml version="1.0" encoding="utf-8"?>
<!-- Generator: Adobe Illustrator 26.0.1, SVG Export Plug-In . SVG Version: 6.00 Build 0)  -->
<svg version="1.1" id="Ebene_1" xmlns="http://www.w3.org/2000/svg" xmlns:xlink="http://www.w3.org/1999/xlink" x="0px" y="0px"
	 viewBox="0 0 45.1 42" style="enable-background:new 0 0 45.1 42;" xml:space="preserve">
<style type="text/css">
	.st0{fill:url(#SVGID_1_);}
	.st1{fill:#0078D4;}
	.st2{fill:url(#SVGID_00000117647233525987680090000002912544603635922078_);}
	.st3{fill:url(#SVGID_00000176728463600685141420000003944793785290221756_);}
</style>
<linearGradient id="SVGID_1_" gradientUnits="userSpaceOnUse" x1="-1410.9913" y1="721.4556" x2="-1419.1869" y2="745.6674" gradientTransform="matrix(1.5625 0 0 1.5625 2224.2832 -1122.3218)">
	<stop  offset="0" style="stop-color:#114A8B"/>
	<stop  offset="1" style="stop-color:#0669BC"/>
</linearGradient>
<path class="st0" d="M15.1,2h12.3L14.6,40c-0.3,0.8-1,1.3-1.9,1.3H3.2c-1.1,0-2-0.9-2-2c0-0.2,0-0.4,0.1-0.6L13.3,3.4
	C13.5,2.6,14.3,2,15.1,2L15.1,2z"/>
<path class="st1" d="M33,27.5H13.5c-0.5,0-0.9,0.4-0.9,0.9c0,0.3,0.1,0.5,0.3,0.7l12.6,11.7c0.4,0.3,0.8,0.5,1.3,0.5h11.1L33,27.5z"
	/>
<linearGradient id="SVGID_00000057849383969676649340000015077418075891998368_" gradientUnits="userSpaceOnUse" x1="-1408.4313" y1="732.7386" x2="-1410.327" y2="733.3796" gradientTransform="matrix(1.5625 0 0 1.5625 2224.2832 -1122.3218)">
	<stop  offset="0" style="stop-color:#000000;stop-opacity:0.3"/>
	<stop  offset="7.100000e-02" style="stop-color:#000000;stop-opacity:0.2"/>
	<stop  offset="0.321" style="stop-color:#000000;stop-opacity:0.1"/>
	<stop  offset="0.623" style="stop-color:#000000;stop-opacity:5.000000e-02"/>
	<stop  offset="1" style="stop-color:#000000;stop-opacity:0"/>
</linearGradient>
<path style="fill:url(#SVGID_00000057849383969676649340000015077418075891998368_);" d="M15.1,2c-0.9,0-1.6,0.5-1.9,1.4L1.3,38.7
	c-0.4,1,0.2,2.1,1.2,2.5c0.2,0.1,0.4,0.1,0.7,0.1H13c0.7-0.1,1.4-0.7,1.6-1.4l2.4-7l8.5,7.9c0.4,0.3,0.8,0.5,1.3,0.5h11L33,27.5
	l-14.1,0L27.5,2H15.1z"/>
<linearGradient id="SVGID_00000114759344053126730910000011751772196497017782_" gradientUnits="userSpaceOnUse" x1="-1409.4148" y1="720.7274" x2="-1400.4185" y2="744.6951" gradientTransform="matrix(1.5625 0 0 1.5625 2224.2832 -1122.3218)">
	<stop  offset="0" style="stop-color:#3CCBF4"/>
	<stop  offset="1" style="stop-color:#2892DF"/>
</linearGradient>
<path style="fill:url(#SVGID_00000114759344053126730910000011751772196497017782_);" d="M30.9,3.4C30.6,2.6,29.8,2,29,2H15.3
	c0.8,0,1.6,0.5,1.9,1.3L29,38.7c0.3,1-0.2,2.1-1.2,2.5c-0.2,0.1-0.4,0.1-0.6,0.1h13.7c1.1,0,2-0.9,2-2c0-0.2,0-0.4-0.1-0.6L30.9,3.4
	z"/>
</svg>
