<?xml version="1.0" encoding="utf-8"?>
<!-- Generator: Adobe Illustrator 22.1.0, SVG Export Plug-In . SVG Version: 6.00 Build 0)  -->
<svg version="1.1" id="Ebene_1" xmlns="http://www.w3.org/2000/svg" xmlns:xlink="http://www.w3.org/1999/xlink" x="0px" y="0px"
	 viewBox="0 0 1920 1080" style="enable-background:new 0 0 1920 1080;" xml:space="preserve">
<style type="text/css">
	.st0{clip-path:url(#SVGID_2_);fill:none;stroke:#3399FF;stroke-miterlimit:10;}
	.st1{fill:none;}
	.st2{fill:#FFFFFF;}
	.st3{fill:none;stroke:#3399FF;stroke-width:0.7;stroke-miterlimit:10;}
	.st4{fill:#FFD138;}
	.st5{font-family:'RobotoSlab-Bold';}
	.st6{font-size:74.0165px;}
	.st7{font-family:'PTSans-Regular';}
	.st8{font-size:63.8073px;}
	.st9{letter-spacing:-1;}
	.st10{font-size:48.4935px;}
	.st11{fill:#3399FF;}
	.st12{font-size:35.7321px;}
	.st13{letter-spacing:-3;}
	.st14{clip-path:url(#SVGID_6_);fill:none;stroke:#3399FF;stroke-miterlimit:10;}
	.st15{clip-path:url(#SVGID_8_);fill:none;stroke:#3399FF;stroke-miterlimit:10;}
	.st16{clip-path:url(#SVGID_10_);fill:#8C8C8C;}
	.st17{font-family:'RobotoMono-Bold';}
	.st18{font-size:33.1798px;}
	.st19{clip-path:url(#SVGID_12_);fill:#FFD138;}
	.st20{clip-path:url(#SVGID_12_);fill:#1D1D1B;}
	.st21{fill:#1D1D1B;}
	.st22{fill:#330066;}
	.st23{font-size:28.0752px;}
	.st24{letter-spacing:-2;}
	.st25{fill:#FEC503;}
	.st26{fill:#FED136;}
	.st27{fill:#5CB5FF;}
</style>
<g>
	<defs>
		<rect id="SVGID_3_" x="2.6" y="108.7" width="1930.4" height="971.3"/>
	</defs>
	<clipPath id="SVGID_2_">
		<use xlink:href="#SVGID_3_"  style="overflow:visible;"/>
	</clipPath>
	<g style="clip-path:url(#SVGID_2_);">
		
			<image style="overflow:visible;" width="2258" height="1110" xlink:href="26CB202A.png"  transform="matrix(0.8549 0 0 0.8751 2.6077 108.6735)">
		</image>
	</g>
</g>
<rect x="2.6" y="111.4" class="st1" width="1930.4" height="965.9"/>
<polygon class="st2" points="1932.2,926.6 1932.2,1077.3 3.7,1077.3 0,1023 "/>
<line class="st3" x1="286.4" y1="784" x2="578.5" y2="784"/>
<text transform="matrix(1 0 0 1 286.3623 362.7178)" class="st4 st5 st6">GIVE HIM NO CHANCE -</text>
<text transform="matrix(1 0 0 1 286.3623 457.1523)"><tspan x="0" y="0" class="st2 st7 st8 st9">W</tspan><tspan x="51.6" y="0" class="st2 st7 st8">OR</tspan><tspan x="133.2" y="0" class="st2 st7 st8 st9">K</tspan><tspan x="170.3" y="0" class="st2 st7 st8 st9"> </tspan><tspan x="186.1" y="0" class="st2 st7 st8">WITH S</tspan><tspan x="386.7" y="0" class="st2 st7 st8 st9">C</tspan><tspan x="421.6" y="0" class="st2 st7 st8">ONE.</tspan></text>
<text transform="matrix(1 0 0 1 286.3623 563.8379)"><tspan x="0" y="0" class="st2 st7 st10 st9">W</tspan><tspan x="38.2" y="0" class="st2 st7 st10">e enable s</tspan><tspan x="249.3" y="0" class="st2 st7 st10">e</tspan><tspan x="273.4" y="0" class="st2 st7 st10">cure </tspan><tspan x="375.5" y="0" class="st2 st7 st10 st9">ex</tspan><tspan x="422.9" y="0" class="st2 st7 st10">e</tspan><tspan x="447" y="0" class="st2 st7 st10">cution </tspan></text>
<text transform="matrix(1 0 0 1 286.3623 622.0293)"><tspan x="0" y="0" class="st2 st7 st10">o</tspan><tspan x="25.5" y="0" class="st2 st7 st10">f </tspan><tspan x="53.9" y="0" class="st2 st7 st10 st9">c</tspan><tspan x="74.7" y="0" class="st2 st7 st10">ontainers and programs </tspan></text>
<text transform="matrix(1 0 0 1 286.3623 680.2246)"><tspan x="0" y="0" class="st2 st7 st10">using in</tspan><tspan x="164.6" y="0" class="st2 st7 st10">t</tspan><tspan x="180.5" y="0" class="st2 st7 st10">el SGX.</tspan></text>
<text transform="matrix(1 0 0 1 286.3623 781.2949)"><tspan x="0" y="0" class="st11 st7 st12 st13">T</tspan><tspan x="16.1" y="0" class="st11 st7 st12">r</tspan><tspan x="28.3" y="0" class="st11 st7 st12 st9">y</tspan><tspan x="43.7" y="0" class="st11 st7 st12"> our fr</tspan><tspan x="136.9" y="0" class="st11 st7 st12">e</tspan><tspan x="154.6" y="0" class="st11 st7 st12">e</tspan><tspan x="172.8" y="0" class="st11 st7 st12"> </tspan><tspan x="181.8" y="0" class="st11 st7 st12">v</tspan><tspan x="198.7" y="0" class="st11 st7 st12">ersion</tspan></text>
<g>
	<defs>
		<rect id="SVGID_5_" x="-446.4" y="146.9" width="1106.9" height="977.5"/>
	</defs>
	<clipPath id="SVGID_4_">
		<use xlink:href="#SVGID_5_"  style="overflow:visible;"/>
	</clipPath>
	<path style="clip-path:url(#SVGID_4_);fill:none;stroke:#3399FF;stroke-miterlimit:10;" d="M482.6,660.8l65.9-215.6l-73.3,68.4
		l50.4,82.6 M482.6,660.8L621.2,452l-146,61.5L482.6,660.8z M412.1,387L36.7,742.5l445.6-81.4l-137-320.3L191.1,383 M190.8,383.3
		l-43.5,94.5l335,183.3L190.8,383.3z M-161.8,940L17,855.9l-160.6,265.4 M82.4,590.9l-356.1,75.7l18.2,181.2 M145.8,232l-72.7-6.8
		 M180.9,263.4l-375.3,355.5l445.6-81.4l-137-320.3L-40,259.3 M-209.4,313.1l-43.5,94.5l335,183.3L-209.4,313.1z M181.4,1031.7
		l217.4-118.8L200.2,582.2L181.4,1031.7z M438.8,728.2l16.8,143.6l178.4-41.6L438.8,728.2z M-421.9,167.1l16.8,143.6l178.4-41.6
		L-421.9,167.1z"/>
</g>
<g>
	<defs>
		<rect id="SVGID_7_" x="1296.8" y="-580.4" width="1476.3" height="1460.4"/>
	</defs>
	<clipPath id="SVGID_6_">
		<use xlink:href="#SVGID_7_"  style="overflow:visible;"/>
	</clipPath>
	<path class="st14" d="M1731.1,372l88.1,207.5l12.2-99.5l-91.7-30.9 M1731.1,372l28.1,249l72.3-141L1731.1,372z M1961.1,536.3
		l59-513.6l-289,348.8L2042,528.9l90.9-131.4 M2133,397l-27.4-100.3l-374.4,74.9L2133,397z M2045.3-256.2l-82.9,179.4l-47.5-306.5
		 M2082.6,168.3l224.1-286.9l-130.4-127.1 M2264.8,484l60.1-41.5 M2217.7,482.5l59-513.6l-289,348.8L2298.6,475l90.9-131.4
		 M2484.7,193.5l-27.4-100.3l-374.4,74.9L2484.7,193.5z M1723.5-105.8L1633.3,125L1998,250.6L1723.5-105.8z M1721.3,292.2
		L1616.2,193l-109.9,146.5L1721.3,292.2z M2741.4,168.8l-105.1-99.2l-109.9,146.5L2741.4,168.8z"/>
</g>
<g>
	<defs>
		<rect id="SVGID_9_" x="896.2" y="495" width="192.7" height="141"/>
	</defs>
	<clipPath id="SVGID_8_">
		<use xlink:href="#SVGID_9_"  style="overflow:visible;"/>
	</clipPath>
	<path style="clip-path:url(#SVGID_8_);fill:#8C8C8C;" d="M992.9,552.1c-9.1,0-18.1,0-27.2,0c-1.6,0-1.6,0-1.6,1.6
		c0,18.1,0,36.3,0,54.4c0,1.6,0,1.6,1.6,1.6c18.1,0,36.3,0,54.4,0c1.6,0,1.6,0,1.6-1.6c0-18.1,0-36.3,0-54.4c0-1.6,0-1.6-1.6-1.6
		C1011,552.1,1002,552.1,992.9,552.1 M947.4,605.4c-2.1,0-4.2-0.1-6.3,0c-1.1,0-1.4-0.4-1.4-1.4c0.1-1.9,0.1-3.7,0-5.6
		c0-1,0.3-1.3,1.3-1.3c4.2,0,8.5,0,12.7,0c1.2,0,1.5-0.4,1.5-1.5c-0.1-3.1-0.1-6.1,0-9.2c0-1-0.3-1.4-1.4-1.4c-4.2,0-8.3,0-12.5,0
		c-1.6,0-1.6,0-1.6-1.6c0-1.9,0.1-3.7,0-5.6c0-1,0.3-1.3,1.3-1.3c4.3,0,8.5,0,12.8,0c1.1,0,1.4-0.3,1.3-1.4c-0.1-3.1,0-6.3,0-9.4
		c0-0.9-0.3-1.3-1.2-1.3c-4.2,0-8.4,0-12.6,0c-1.6,0-1.6-0.1-1.6-1.6c0-1.9,0-3.8,0-5.7c0-0.9,0.3-1.2,1.2-1.2c4.3,0,8.6,0,12.9,0
		c1,0,1.4-0.3,1.4-1.4c-0.1-3.4,0-6.8,0-10.2c0-1.1,0.4-1.4,1.4-1.4c3.6,0.1,7.1,0,10.7,0c1,0,1.3-0.3,1.3-1.3c0-4.2,0-8.4,0-12.6
		c0-1.1,0.3-1.4,1.4-1.3c1.9,0.1,3.9,0.1,5.8,0c1,0,1.3,0.3,1.3,1.2c0,3.4,0,6.8,0,10.2c0,0.8,0,1.7-0.1,2.5c0,0.7,0.2,1.1,1,1.1
		c3.4,0,6.7,0,10.1,0c1,0,1-0.6,1-1.3c0-4.1,0-8.2,0-12.4c0-1.1,0.3-1.5,1.4-1.4c1.9,0.1,3.8,0.1,5.7,0c0.9,0,1.2,0.3,1.2,1.3
		c0,4.2,0,8.3,0,12.5c0,1.1,0.3,1.5,1.5,1.5c3.1-0.1,6.1-0.1,9.2,0c1.1,0,1.5-0.3,1.5-1.5c-0.1-4.1,0-8.2,0-12.4
		c0-1.1,0.3-1.4,1.4-1.4c1.8,0.1,3.7,0.1,5.6,0c1.1,0,1.3,0.4,1.3,1.4c0,4.1,0,8.2,0,12.2c0,1,0.3,1.4,1.3,1.4c3.4-0.1,6.7,0,10.1,0
		c1,0,1.3,0.3,1.3,1.3c-0.1,3.5,0,7,0,10.4c0,1.1,0.3,1.5,1.4,1.5c4.2-0.1,8.4,0,12.6,0c1,0,1.4,0.3,1.4,1.3c-0.1,1.9-0.1,3.9,0,5.8
		c0,1-0.4,1.3-1.3,1.3c-4.2,0-8.3,0-12.5,0c-1.5,0-1.5,0-1.5,1.5c0,3,0,6,0,9.1c0,1.4,0.1,1.4,1.5,1.4c4.1,0,8.2,0,12.2,0
		c1.6,0,1.6,0,1.6,1.7c0,1.7,0,3.5,0,5.2c0,1.4-0.1,1.5-1.6,1.5c-4.1,0-8.2,0-12.4,0c-1.1,0-1.5,0.3-1.4,1.4c0.1,3,0,6,0,9
		c0,1.7,0,1.7,1.6,1.7c4.1,0,8.2,0,12.2,0c1.1,0,1.6,0.3,1.5,1.4c-0.1,1.8-0.1,3.7,0,5.6c0,1-0.3,1.3-1.3,1.3c-4.2,0-8.3,0-12.5,0
		c-1.6,0-1.6,0-1.6,1.5c0,3.3,0,6.6,0,9.9c0,1.6,0,1.7-1.7,1.7c-3.2,0-6.4,0-9.6,0c-1,0-1.4,0.3-1.4,1.4c0,4.1,0,8.2,0,12.2
		c0,1.2-0.4,1.5-1.5,1.5c-1.7-0.1-3.5,0-5.2,0c-1.6,0-1.6,0-1.6-1.5c0-3.9,0-7.8,0-11.7c0-1.7,0-1.7-1.7-1.7c-3.1,0-6.1,0-9.2,0
		c-1,0-1.2,0.3-1.2,1.2c0,4.1,0,8.2,0,12.4c0,1.1-0.4,1.4-1.4,1.4c-1.7-0.1-3.5,0-5.2,0c-1.6,0-1.6,0-1.6-1.7c0-3.9,0-7.9,0-11.8
		c0-1.1-0.3-1.5-1.4-1.5c-3.1,0.1-6.2,0.1-9.3,0c-1,0-1.3,0.3-1.3,1.3c0,4,0,8.1,0,12.1c0,1.5-0.1,1.5-1.5,1.5c-1.9,0-3.8,0-5.7,0
		c-1,0-1.2-0.3-1.2-1.3c0-4,0-8.1,0-12.1c0-1.6,0-1.6-1.7-1.7c-3.4,0-6.7,0-10.1,0c-1.5,0-1.5-0.1-1.6-1.5c0-3.4,0-6.9,0-10.3
		c0-1-0.3-1.2-1.2-1.2C951.7,605.4,949.5,605.4,947.4,605.4"/>
	<path style="clip-path:url(#SVGID_8_);fill:#8C8C8C;" d="M1004.6,575.3c0.3,2.3,0.4,2.4-1.5,3.3c-5.4,2.6-11.2,3.5-17.2,3
		c-2.5-0.2-5-0.7-7.3-1.9c-2.8-1.5-4.4-3.8-4.6-7c-0.1-3.3,1.3-5.8,3.7-8c0.1,0.1,0.2,0.1,0.4,0.2c-0.3,0.5-0.5,1-0.8,1.4
		c-1.4,2-2.1,4.2-1.7,6.6c0.5,2.6,2.2,4.2,4.6,5.1c3.6,1.4,7.3,1.4,11.1,1c4.4-0.4,8.7-1.6,12.7-3.6
		C1004.2,575.4,1004.4,575.4,1004.6,575.3"/>
	<path style="clip-path:url(#SVGID_8_);fill:#8C8C8C;" d="M997.2,591.2c-0.7,2.1-0.7,2.1-2.4,1.6c-1.9-0.6-4.1,0.1-5,1.5
		c-1,1.7-0.8,4.9,0.4,6.2c1.1,1.2,2.5,1.3,4,1c1-0.2,0.5-1.1,0.5-1.7c0.1-0.7-0.3-0.9-1-0.9c-1.4-0.1-1.7-0.3-1.5-1.4
		c0.1-0.3,0.5-0.8,0.8-0.8c1.2-0.1,2.3-0.1,3.5,0c0.3,0,0.8,0.5,0.8,0.8c0.1,1.6,0.1,3.2,0,4.9c0,0.3-0.2,0.7-0.5,0.8
		c-2.1,1.4-7,0.9-8.8-0.9c-2-1.9-2.5-5.7-1.1-8.5c1.2-2.4,4-3.8,7.2-3.4C995.2,590.6,996.2,590.9,997.2,591.2"/>
	<path style="clip-path:url(#SVGID_8_);fill:#8C8C8C;" d="M1003.4,599.2c-0.6,1-1.2,2-1.8,3c-1.1,1.7-1.6,1.9-3.9,1.4
		c0.8-1.2,1.5-2.3,2.3-3.5c0.7-1,1.8-2.1,1.8-3.2c0-1-1.1-2.1-1.8-3.1c-0.6-0.9-1.2-1.9-1.8-2.9c1.8-0.8,2.9-0.4,3.7,1
		c0.5,0.9,1.1,1.8,1.8,3c0.7-1.1,1.3-2,1.8-3c0.9-1.4,1.9-1.7,3.7-1c-1,1.5-1.9,3.1-3,4.5c-0.8,1-0.9,1.8,0,2.9
		c1.3,1.7,2.4,3.5,3.6,5.2c-2.2,0.6-3,0.4-4-1.3c-0.6-1-1.2-1.9-1.8-2.9C1003.7,599.3,1003.6,599.3,1003.4,599.2"/>
	<path style="clip-path:url(#SVGID_8_);fill:#8C8C8C;" d="M976.9,601c1.4,0.2,2.8,0.6,4.3,0.7c0.9,0.1,1.5-0.4,1.7-1.3
		c0.1-0.9-0.5-1.4-1.2-1.6c-0.9-0.3-1.8-0.5-2.7-0.8c-2-0.7-2.9-1.8-2.8-3.7c0.1-1.7,1.2-3,3-3.5c2-0.5,3.9-0.3,5.7,0.7
		c0.5,0.3,0.8,0.6,0.4,1.2c-0.3,0.5-0.4,1.1-1.3,0.8c-1-0.3-2.1-0.5-3.2-0.6c-0.8,0-1.6,0.4-1.7,1.3c-0.1,0.9,0.5,1.4,1.2,1.7
		c1,0.4,2.1,0.6,3.1,1c1.7,0.6,2.5,1.7,2.5,3.2c0,1.6-1,3-2.5,3.6c-2.2,0.8-4.3,0.6-6.4-0.3c-1.4-0.6-1.4-0.8-0.6-2.1
		c0.1-0.2,0.3-0.3,0.4-0.5C976.9,600.7,976.9,600.9,976.9,601"/>
	<path style="clip-path:url(#SVGID_8_);fill:#8C8C8C;" d="M981.8,561.8c0.3-0.1,0.6-0.2,0.8-0.3c7.2-3.8,14.6-5.3,22.6-2.9
		c2.8,0.9,4.9,2.7,5.6,5.7c0.8,3.7-1.6,8.1-5.2,9.2c-0.3-0.9-0.3-1.6,0.5-2.4c0.9-0.8,1.8-1.8,2.4-2.8c1.6-3.1-0.1-6.8-3.7-8.3
		c-2.8-1.2-5.7-1.4-8.7-1.3c-4.6,0.3-8.9,1.4-13.1,3.3c-0.3,0.1-0.6,0.2-0.8,0.3C982.1,562.1,981.9,562,981.8,561.8"/>
	<path style="clip-path:url(#SVGID_8_);fill:#8C8C8C;" d="M997.7,569.5c0.5-0.3,0.9-0.5,1.3-0.8c-0.4-0.3-0.8-1-1.2-1
		c-0.4,0-0.9,0.6-1.3,0.9C996.8,569,997.2,569.2,997.7,569.5 M1000.7,572.6c-1.4,1.8-4.6,1.7-5.8-0.2c-1.6-2.7,0-6.1,2.9-6.2
		c1.9-0.1,3.7,2,3.3,3.9c-0.1,0.3-0.6,0.6-0.9,0.6c-1,0.1-2,0-2.9,0.1c-0.3,0-0.5,0.3-0.8,0.4c0.2,0.3,0.3,0.8,0.5,0.8
		c0.6,0.1,1.4,0.3,1.9,0.1C999.8,571.6,1000.2,571.9,1000.7,572.6"/>
	<path style="clip-path:url(#SVGID_8_);fill:#8C8C8C;" d="M983,569.9c0-0.9,0-1.7,0-2.6c0-0.8,0.3-1.1,1-1.1c1,0,2,0,3.1,0.1
		c1.5,0.2,2.1,0.8,2.1,2.3c0,1.3,0,2.6,0,4c0,0.8-0.2,1.2-1.1,1.2c-0.9,0-0.8-0.6-0.8-1.2c0-1.2,0-2.4,0-3.6c0-0.9-0.4-1.2-1.3-1.2
		c-0.9,0-1,0.5-1,1.2c0,1.2,0,2.5,0,3.7c0,0.6-0.3,1-0.9,1c-0.7,0-1.1-0.2-1.1-1C983,571.8,983,570.8,983,569.9L983,569.9z"/>
	<path style="clip-path:url(#SVGID_8_);fill:#8C8C8C;" d="M993.2,573.6c-1.7,0-2.5-0.7-2.6-2.1c0-2.1,0-4.2,0-6.3
		c0-0.7,0.2-1.1,0.9-1.1c0.8,0,0.9,0.4,1,1c0,0.4,0.5,0.7,0.7,1c0.2,0.3,0.6,0.5,0.6,0.8c0,0.2-0.4,0.5-0.6,0.7
		c-0.3,0.3-0.7,0.6-0.7,0.9c-0.1,0.8-0.1,1.6,0,2.4c0.1,0.4,0.5,0.7,0.7,1.1c0.2,0.3,0.6,0.7,0.6,0.9
		C993.8,573.3,993.3,573.6,993.2,573.6"/>
	<path style="clip-path:url(#SVGID_8_);fill:#8C8C8C;" d="M1004.1,573.5c-1.3-0.2-1.8-0.7-1.8-1.7c0-2.6,0-5.2,0-7.8
		c0-0.6,0.2-1,0.9-0.9c0.4,0.1,1,0.4,1,0.6C1004.1,567,1004.1,570.2,1004.1,573.5"/>
	<path style="clip-path:url(#SVGID_8_);fill:#8C8C8C;" d="M981.3,573.7c-1.1,0-1.7-0.5-1.8-1.4c-0.1-1.8-0.1-3.6-0.1-5.4
		c0-0.2,0.6-0.6,0.9-0.7c0.3,0,0.9,0.3,0.9,0.5C981.4,569,981.3,571.3,981.3,573.7"/>
	<path style="clip-path:url(#SVGID_8_);fill:#8C8C8C;" d="M981.3,564.7c-0.1,0.1-0.4,0.4-0.8,0.5c-0.6,0.1-1.1-0.1-1.1-0.9
		c0-0.6,0.2-1,0.9-1C980.9,563.4,981.4,563.4,981.3,564.7"/>
</g>
<path class="st11" d="M1146.5,916.8H826.9c-1.6,0-2.9,1.2-2.9,2.7v71c0,1.5,1.3,2.7,2.9,2.7h319.6c1.6,0,2.9-1.2,2.9-2.7v-71
	C1149.4,918,1148.1,916.8,1146.5,916.8"/>
<rect x="-1608" y="-425.4" class="st1" width="4352" height="1736.6"/>
<text transform="matrix(1 0 0 1 865.7324 966.2998)" class="st2 st17 st18">Tell me more</text>
<polygon class="st11" points="980.9,1029.8 1004.8,1010.2 956.9,1010.2 "/>
<rect x="0.7" class="st2" width="1930.4" height="111.4"/>
<g>
	<defs>
		<rect id="SVGID_11_" x="-1608" y="-425.4" width="4352" height="1736.6"/>
	</defs>
	<clipPath id="SVGID_10_">
		<use xlink:href="#SVGID_11_"  style="overflow:visible;"/>
	</clipPath>
	<path style="clip-path:url(#SVGID_10_);fill:#FFD138;" d="M114.2,75.9h-5c-1,0-1.9,0.8-1.9,1.9v5.1c0,1,0.8,1.9,1.9,1.9h5
		c1,0,1.9-0.8,1.9-1.9v-5.1C116.1,76.8,115.3,75.9,114.2,75.9 M127.1,75.9h-5c-1,0-1.9,0.8-1.9,1.9v5.1c0,1,0.8,1.9,1.9,1.9h5
		c1,0,1.9-0.8,1.9-1.9v-5.1C129,76.8,128.1,75.9,127.1,75.9 M110.3,70.5v-5.1c0-1-0.8-1.9-1.9-1.9h-5c-1,0-1.9,0.8-1.9,1.9v5.1
		c0,1,0.8,1.9,1.9,1.9h5C109.4,72.4,110.3,71.5,110.3,70.5 M113.8,65.4v5.1c0,1,0.8,1.9,1.9,1.9h5c1,0,1.9-0.8,1.9-1.9v-5.1
		c0-1-0.8-1.9-1.9-1.9h-5C114.6,63.5,113.8,64.4,113.8,65.4 M127.5,63.5c-0.8,0-1.5,0.7-1.5,1.5v5.9c0,0.8,0.7,1.5,1.5,1.5
		c0.8,0,1.5-0.7,1.5-1.5V65C129,64.2,128.3,63.5,127.5,63.5 M104.5,58.1V53c0-1-0.8-1.9-1.9-1.9h-5c-1,0-1.9,0.8-1.9,1.9v5.1
		c0,1,0.8,1.9,1.9,1.9h5C103.6,59.9,104.5,59.1,104.5,58.1 M109.8,59.9h5c1,0,1.9-0.8,1.9-1.9V53c0-1-0.8-1.9-1.9-1.9h-5
		c-1,0-1.9,0.8-1.9,1.9v5.1C107.9,59.1,108.8,59.9,109.8,59.9 M127.1,51.1h-5c-1,0-1.9,0.8-1.9,1.9v5.1c0,1,0.8,1.9,1.9,1.9h5
		c1,0,1.9-0.8,1.9-1.9V53C129,51.9,128.1,51.1,127.1,51.1"/>
	<path style="clip-path:url(#SVGID_10_);fill:#FFD138;" d="M133.1,49.1c0.7,0.6,2.9,2.4,7.7,2.4c0.2,0,0.1,0.2,0.1,0.4v13.7
		c0,5.3-6.4,8.5-8,9.3c-0.2,0.1-0.2-0.1-0.2-0.1l0.1-25.6C132.9,49.2,133,48.9,133.1,49.1"/>
	<path style="clip-path:url(#SVGID_10_);fill:#FFD138;" d="M118.1,48.4c10.5-0.4,12.2-4,12.3-4c0.1-0.2,0.3-0.3,0.5-0.3h0
		c0.2,0,0.4,0,0.5,0.2c0,0,1.6,4,12.1,4c0.3,0,0.4,0.2,0.4,0.5v18c0,5.7-10.9,12.2-11.1,12.3c-0.2,0.1-0.4,0.3-0.4,0.4v4.5
		c0,0.2,0.7,0.3,0.9,0.1c4.1-2.2,15.3-8.4,15.3-16V45c0-0.4-0.7-0.7-1.1-0.7c-13.4,0-15.8-4.8-15.9-4.9c-0.1-0.3-0.5-0.2-0.8-0.2h0
		c-0.3,0-0.5-0.1-0.6,0.1c0,0.1-2.2,5-15.5,5c-0.4,0-0.5,0.2-0.5,0.5v2.9c0,0-0.1,0.7,0.3,0.6C115,48.5,118.1,48.4,118.1,48.4"/>
	<path style="clip-path:url(#SVGID_10_);fill:#1D1D1B;" d="M158.5,77.8l5.4-2c1.2,2.5,3.8,4,7,4c1.6,0,3-0.3,4.1-1
		c1.2-0.7,1.8-1.7,1.8-2.9c0-2.9-3.9-4.6-6.7-5.8l-0.2-0.1c-2-0.9-4.4-2-6.2-3.5c-2.1-1.8-3.1-3.9-3.1-6.3c0-2.6,1.1-4.9,3.2-6.6
		c2-1.7,4.9-2.7,8-2.7c4.7,0,8.6,2.1,10.5,5.7l-5.5,2.1c-0.4-0.9-1.1-1.5-2-2c-0.8-0.4-1.9-0.7-3.1-0.7c-3,0-5.2,1.6-5.2,3.8
		c0,1.3,0.7,2.4,2.1,3.4c1.3,1,3,1.8,4.7,2.5l0.7,0.3c4.1,1.8,9.2,4,9.2,9.5c0,2.7-1.3,5.1-3.7,6.8c-2.2,1.6-5.3,2.5-8.6,2.5
		C165.1,84.9,160.4,82.2,158.5,77.8"/>
	<path style="clip-path:url(#SVGID_10_);fill:#1D1D1B;" d="M206,84.9c-2.3,0-4.5-0.5-6.6-1.3c-2-0.8-3.9-2-5.4-3.6
		c-1.6-1.5-2.8-3.3-3.6-5.4c-0.9-2.1-1.3-4.3-1.3-6.6c0-2.3,0.5-4.5,1.3-6.6c0.8-2,2-3.9,3.6-5.4c1.5-1.6,3.3-2.8,5.4-3.6
		c2.1-0.9,4.3-1.3,6.6-1.3c2.7,0,5.3,0.6,7.6,1.8c2.3,1.2,4.3,2.8,5.9,4.9l-4.5,3.3c-1-1.3-2.4-2.5-3.9-3.3
		c-1.6-0.8-3.3-1.2-5.1-1.2c-3.1,0-5.9,1.2-8,3.3c-2.2,2.1-3.3,5-3.3,8c0,3,1.2,5.9,3.3,8c2.1,2.2,5,3.3,8,3.3c2,0,4-0.6,5.8-1.6
		c1.7-1,3.1-2.5,4.1-4.2l4.8,2.8c-1.4,2.6-3.5,4.7-6.1,6.2C212,84.1,209,84.9,206,84.9"/>
	<path style="clip-path:url(#SVGID_10_);fill:#1D1D1B;" d="M242.9,56.6c-3,0-5.9,1.2-8,3.3c-2.1,2.1-3.3,5-3.3,8
		c0,3.1,1.2,5.9,3.3,8c2.1,2.2,5,3.3,8,3.3c3,0,5.9-1.2,8-3.3c2.1-2.1,3.3-5,3.3-8c0-3-1.2-5.9-3.3-8
		C248.8,57.8,246,56.6,242.9,56.6 M242.9,85c-2.3,0-4.5-0.5-6.6-1.3c-2-0.8-3.8-2-5.4-3.6c-1.5-1.5-2.7-3.3-3.6-5.4
		c-0.9-2.1-1.3-4.3-1.3-6.6c0-2.3,0.4-4.5,1.3-6.6c0.9-2,2.1-3.9,3.6-5.4c1.6-1.6,3.4-2.8,5.4-3.6c2.1-0.9,4.3-1.4,6.6-1.4
		c2.3,0,4.5,0.5,6.6,1.4c2,0.8,3.8,2,5.4,3.6c1.5,1.5,2.8,3.3,3.6,5.4c0.9,2.1,1.3,4.3,1.3,6.6c0,2.3-0.5,4.5-1.3,6.6
		c-0.8,2-2.1,3.9-3.6,5.4c-1.6,1.6-3.4,2.8-5.4,3.6C247.4,84.5,245.2,85,242.9,85"/>
</g>
<polygon class="st21" points="298.3,51.3 298.3,85.8 274.6,63.9 274.6,84.4 268.5,84.4 268.5,50.1 292.3,72 292.3,51.3 "/>
<polygon class="st21" points="314.4,56.5 314.4,65.3 330.9,65.3 330.9,70.4 314.4,70.4 314.4,79.3 332.9,79.3 332.9,84.4 
	308.3,84.4 308.3,51.3 332.9,51.3 332.9,56.5 "/>
<text transform="matrix(1 0 0 1 939.6289 77.748)"><tspan x="0" y="0" class="st22 st5 st23">ABOUT       FE</tspan><tspan x="182.1" y="0" class="st22 st5 st23 st9">A</tspan><tspan x="200.3" y="0" class="st22 st5 st23">TURES       DOCUMEN</tspan><tspan x="487.4" y="0" class="st22 st5 st23 st24">T</tspan><tspan x="503.9" y="0" class="st22 st5 st23 st24">A</tspan><tspan x="522" y="0" class="st22 st5 st23">TION </tspan></text>
<text transform="matrix(1 0 0 1 1538.5664 77.748)" class="st22 st5 st23"> </text>
<text transform="matrix(1 0 0 1 1582.8037 77.748)"><tspan x="0" y="0" class="st22 st5 st23">PLANS      CON</tspan><tspan x="194.5" y="0" class="st22 st5 st23 st24">T</tspan><tspan x="211" y="0" class="st22 st5 st23">A</tspan><tspan x="230.4" y="0" class="st22 st5 st23">C</tspan><tspan x="248.2" y="0" class="st22 st5 st23">T</tspan></text>
<rect x="-1608" y="-425.4" class="st1" width="4352" height="1736.6"/>
</svg>
