<?xml version="1.0" encoding="utf-8"?>
<!-- Generator: Adobe Illustrator 21.0.2, SVG Export Plug-In . SVG Version: 6.00 Build 0)  -->
<svg version="1.1" id="Ebene_1" xmlns="http://www.w3.org/2000/svg" xmlns:xlink="http://www.w3.org/1999/xlink" x="0px" y="0px"
	 viewBox="0 0 1920 2067" style="enable-background:new 0 0 1920 2067;" xml:space="preserve">
<style type="text/css">
	.st0{opacity:0.4;fill:none;stroke:#3399FF;stroke-width:0.8504;stroke-miterlimit:10;enable-background:new    ;}
</style>
<polyline class="st0" points="554.5,999.1 978.4,642.1 735.8,685.2 729.3,923 "/>
<polygon class="st0" points="554.5,999.1 1119.3,753.4 735.8,685.2 "/>
<polyline class="st0" points="548.2,349.9 511.4,865.5 785,504.6 467.6,360.8 382.5,496.1 "/>
<polygon class="st0" points="382.5,496.5 414.2,595.5 785,504.6 "/>
<polyline class="st0" points="232.3,1145.4 242.3,963.5 431.9,908 232.3,1145.4 "/>
<polyline class="st0" points="537.4,656.3 173.9,676.1 164,858 537.6,655.9 "/>
<polygon class="st0" points="292,336.8 234.5,423.4 537.1,656.2 "/>
<polygon class="st0" points="347.2,1277 580.4,1193.2 435.1,835.9 "/>
<polygon class="st0" points="580.4,1192.9 574.8,1337.3 757.5,1323.7 "/>
<polygon class="st0" points="104.6,159.7 99,304.1 281.6,290.5 "/>
<polyline class="st0" points="557.4,1499.8 174.6,1627.9 208.9,1471.8 556.2,1499.7 420.9,1931.9 281,1434.3 524.7,1673.6 "/>
</svg>
