<?xml version="1.0" encoding="utf-8"?>
<!-- Generator: Adobe Illustrator 21.0.2, SVG Export Plug-In . SVG Version: 6.00 Build 0)  -->
<svg version="1.1" id="Ebene_1" xmlns="http://www.w3.org/2000/svg" xmlns:xlink="http://www.w3.org/1999/xlink" x="0px" y="0px"
	 viewBox="0 0 1920 2067" style="enable-background:new 0 0 1920 2067;" xml:space="preserve">
<style type="text/css">
	.st0{opacity:0.4;fill:none;stroke:#3399FF;stroke-width:0.8504;stroke-miterlimit:10;enable-background:new    ;}
</style>
<polyline class="st0" points="1329.9,1095.5 906,1452.5 1148.6,1409.4 1155.1,1171.6 "/>
<polygon class="st0" points="1329.9,1095.5 765.1,1341.2 1148.6,1409.4 "/>
<polyline class="st0" points="1600.2,781.6 1637,266 1363.4,626.9 1680.8,770.7 1765.9,635.4 "/>
<polygon class="st0" points="1765.9,635 1734.2,536 1363.4,626.9 "/>
<polyline class="st0" points="1670.1,979.2 1660.1,1161.1 1470.5,1216.6 1670.1,979.2 "/>
<polyline class="st0" points="1347,1438.3 1710.5,1418.5 1720.4,1236.6 1346.8,1438.7 "/>
<polygon class="st0" points="1592.4,1757.8 1649.9,1671.2 1347.3,1438.4 "/>
<polygon class="st0" points="1525.2,1558.7 1292,1642.5 1437.3,1999.8 "/>
<polygon class="st0" points="1304,901.7 1309.6,757.3 1126.9,770.9 "/>
<polygon class="st0" points="1779.8,1934.9 1785.4,1790.5 1602.8,1804.1 "/>
<polyline class="st0" points="1333,1365.9 1715.8,1237.8 1681.5,1393.9 1334.2,1366 1469.5,933.8 1609.4,1431.4 1365.7,1192.1 "/>
</svg>
