<?xml version="1.0" encoding="utf-8"?>
<!-- Generator: Adobe Illustrator 23.1.0, SVG Export Plug-In . SVG Version: 6.00 Build 0)  -->
<svg version="1.1" id="Ebene_1" xmlns="http://www.w3.org/2000/svg" xmlns:xlink="http://www.w3.org/1999/xlink" x="0px" y="0px"
	 viewBox="0 0 319 63" style="enable-background:new 0 0 319 63;" xml:space="preserve">
<style type="text/css">
	.st0{fill:#FFCC00;}
</style>
<g>
	<path d="M96.5,30.5h-5L90.6,26c-0.6-0.4-1.4-0.7-2.5-1c-1.1-0.3-2.3-0.4-3.5-0.4c-1.8,0-3.2,0.4-4.2,1.1c-1,0.8-1.5,1.8-1.5,3
		c0,1.1,0.5,2,1.6,2.8c1,0.7,2.8,1.5,5.4,2.3c3.7,1,6.4,2.4,8.3,4s2.8,3.9,2.8,6.6c0,2.8-1.1,5.1-3.4,6.7c-2.2,1.6-5.2,2.5-8.9,2.5
		c-2.6,0-5-0.4-7.1-1.3c-2.1-0.8-3.9-2-5.3-3.5v-6.9h5.1l0.7,4.7c0.7,0.5,1.6,1,2.7,1.4c1.1,0.4,2.4,0.5,3.8,0.5
		c1.8,0,3.2-0.4,4.2-1.1c0.9-0.7,1.4-1.7,1.4-3c0-1.3-0.5-2.3-1.4-3.1c-0.9-0.8-2.5-1.5-4.7-2.2c-3.9-1.1-6.9-2.5-8.9-4.1
		c-2-1.6-3-3.7-3-6.4c0-2.7,1.1-4.9,3.4-6.6c2.3-1.7,5.1-2.6,8.6-2.6c2.5,0,4.9,0.4,7,1.2c2.1,0.8,3.9,1.8,5.3,3.1V30.5z"/>
	<path d="M127.4,31.1h-4.9l-0.7-4.4c-0.7-0.7-1.5-1.2-2.5-1.5s-2.2-0.6-3.5-0.6c-2.9,0-5.1,1-6.7,3.1c-1.6,2.1-2.3,4.8-2.3,8.2v1.2
		c0,3.4,0.8,6.1,2.3,8.2c1.5,2.1,3.7,3.2,6.6,3.2c1.3,0,2.5-0.2,3.6-0.6c1.1-0.4,1.9-0.9,2.5-1.5l0.7-4.4h4.9v6.6
		c-1.3,1.5-3,2.8-5.1,3.7c-2.1,0.9-4.4,1.4-7,1.4c-4.4,0-8.1-1.5-10.9-4.6c-2.8-3.1-4.3-7-4.3-11.9V36c0-4.8,1.4-8.8,4.2-11.9
		c2.8-3.1,6.5-4.6,11-4.6c2.6,0,4.9,0.5,6.9,1.4c2.1,0.9,3.8,2.2,5.1,3.7V31.1z"/>
	<path d="M161.3,36.8c0,4.9-1.4,8.9-4.2,12c-2.8,3.2-6.4,4.8-10.9,4.8c-4.5,0-8.1-1.6-10.8-4.8s-4.1-7.2-4.1-12v-0.5
		c0-4.8,1.4-8.8,4.1-12c2.7-3.2,6.4-4.8,10.8-4.8c4.5,0,8.1,1.6,10.9,4.8c2.8,3.2,4.2,7.2,4.2,12V36.8z M154.7,36.2
		c0-3.4-0.7-6.2-2.1-8.4c-1.4-2.1-3.5-3.2-6.3-3.2s-4.9,1.1-6.3,3.2c-1.4,2.1-2.1,4.9-2.1,8.4v0.5c0,3.5,0.7,6.3,2.1,8.4
		c1.4,2.1,3.5,3.2,6.3,3.2c2.8,0,4.9-1.1,6.3-3.2c1.4-2.1,2.1-4.9,2.1-8.4V36.2z"/>
	<path d="M196.9,19.9v4l-3.6,0.7v28.5h-6.6l-13.4-22.3l-0.1,0v17.6l3.6,0.7v4H163v-4l3.5-0.7V24.6l-3.5-0.7v-4h3.5h6.6l13.4,22.3
		l0.1,0V24.6l-3.6-0.7v-4h10.2H196.9z"/>
	<path d="M228.9,19.9v8.8h-5.1l-0.3-3.7h-6.1v23.4l3.6,0.7v4h-13.8v-4l3.6-0.7V25.1h-6.1l-0.3,3.7h-5.1v-8.8H228.9z"/>
	<path d="M226.1,49.1l2.4-0.3l10.1-28.8h6.8l10,28.8l2.4,0.3v4h-11.3v-4l2.3-0.4l-1.5-4.6h-10.7l-1.5,4.6l2.3,0.4v4h-11.3V49.1z
		 M238.1,39.2h7.6L242,27.6h-0.1L238.1,39.2z"/>
	<path d="M260.5,23.9v-4h13.7v4l-3.6,0.7v23.8l3.6,0.7v4h-13.7v-4l3.6-0.7V24.6L260.5,23.9z"/>
	<path d="M311.3,19.9v4l-3.6,0.7v28.5h-6.6l-13.4-22.3l-0.1,0v17.6l3.6,0.7v4h-13.7v-4l3.5-0.7V24.6l-3.5-0.7v-4h3.5h6.6L301,42.3
		l0.1,0V24.6l-3.6-0.7v-4h10.2H311.3z"/>
</g>
<g>
	<g>
		<g>
			<path class="st0" d="M38.3,18.7h-5.2c-1.1,0-2,0.9-2,2V26c0,1.1,0.9,2,2,2h5.2c1.1,0,2-0.9,2-2v-5.3
				C40.3,19.6,39.4,18.7,38.3,18.7z M20.2,28h5.2c1.1,0,2-0.9,2-2v-5.3c0-1.1-0.9-2-2-2h-5.2c-1.1,0-2,0.9-2,2V26
				C18.2,27.1,19.1,28,20.2,28z M14.6,26v-5.3c0-1.1-0.9-2-2-2H7.4c-1.1,0-2,0.9-2,2V26c0,1.1,0.9,2,2,2h5.2
				C13.7,28,14.6,27.1,14.6,26z M38.7,31.7c-0.8,0-1.5,0.7-1.5,1.5v6.2c0,0.8,0.7,1.5,1.5,1.5s1.5-0.7,1.5-1.5v-6.2
				C40.3,32.4,39.6,31.7,38.7,31.7z M24.4,33.7V39c0,1.1,0.9,2,2,2h5.2c1.1,0,2-0.9,2-2v-5.3c0-1.1-0.9-2-2-2h-5.2
				C25.3,31.7,24.4,32.6,24.4,33.7z M20.7,39v-5.3c0-1.1-0.9-2-2-2h-5.2c-1.1,0-2,0.9-2,2V39c0,1.1,0.9,2,2,2h5.2
				C19.8,41,20.7,40.1,20.7,39z M38.3,44.7h-5.2c-1.1,0-2,0.9-2,2V52c0,1.1,0.9,2,2,2h5.2c1.1,0,2-0.9,2-2v-5.3
				C40.3,45.6,39.4,44.7,38.3,44.7z M24.8,44.7h-5.2c-1.1,0-2,0.9-2,2V52c0,1.1,0.9,2,2,2h5.2c1.1,0,2-0.9,2-2v-5.3
				C26.8,45.6,25.9,44.7,24.8,44.7z"/>
		</g>
	</g>
	<path class="st0" d="M44.6,16.6c0.7,0.6,2.9,2.5,7.9,2.5c0.2,0,0.3,0.2,0.3,0.4v14.3c0,5.5-6.7,8.9-8.3,9.8
		c-0.2,0.1-0.2-0.1-0.2-0.1l0.1-26.8C44.4,16.6,44.5,16.5,44.6,16.6z"/>
	<path class="st0" d="M28.9,15.9c11-0.4,12.8-4.2,12.8-4.2c0.1-0.2,0.3-0.3,0.5-0.3l0,0c0.2,0,0.4,0,0.5,0.2c0,0,1.7,4.1,12.7,4.1
		c0.3,0,0.4,0.2,0.4,0.5V35c0,6-11.4,12.8-11.6,12.9c-0.2,0.1-0.4,0.3-0.4,0.4c0,0.1,0,3.6,0,4.7c0,0.2,0.3,0.6,1,0.2
		c4.2-2.3,16-8.8,16-16.8v-24c0-0.4-0.7-0.7-1.1-0.7c-14,0-16.6-5.1-16.6-5.1c-0.1-0.3-0.5-0.3-0.8-0.3c0,0-0.6,0-0.7,0.2
		c0,0.1-2.3,5.3-16.2,5.3c-0.5,0-0.6,0.2-0.6,0.6v3c0,0-0.1,0.7,0.4,0.7C25.6,16,28.9,15.9,28.9,15.9z"/>
</g>
</svg>
