<?xml version="1.0" encoding="utf-8"?>
<!-- Generator: Adobe Illustrator 18.0.0, SVG Export Plug-In . SVG Version: 6.00 Build 0)  -->
<!DOCTYPE svg PUBLIC "-//W3C//DTD SVG 1.1//EN" "http://www.w3.org/Graphics/SVG/1.1/DTD/svg11.dtd">
<svg version="1.1" id="Слой_1" xmlns="http://www.w3.org/2000/svg" xmlns:xlink="http://www.w3.org/1999/xlink" x="0px" y="0px"
	 viewBox="0 0 56.69 9.94146" enable-background="new 0 0 56.69 9.94146" xml:space="preserve">
<metadata><?xpacket begin="﻿" id="W5M0MpCehiHzreSzNTczkc9d"?>
<x:xmpmeta xmlns:x="adobe:ns:meta/" x:xmptk="Adobe XMP Core 5.6-c011 79.156289, 2014/03/31-23:39:12        ">
   <rdf:RDF xmlns:rdf="http://www.w3.org/1999/02/22-rdf-syntax-ns#">
      <rdf:Description rdf:about=""
            xmlns:xmp="http://ns.adobe.com/xap/1.0/"
            xmlns:xmpGImg="http://ns.adobe.com/xap/1.0/g/img/"
            xmlns:dc="http://purl.org/dc/elements/1.1/"
            xmlns:xmpTPg="http://ns.adobe.com/xap/1.0/t/pg/"
            xmlns:stDim="http://ns.adobe.com/xap/1.0/sType/Dimensions#"
            xmlns:xmpG="http://ns.adobe.com/xap/1.0/g/"
            xmlns:xmpMM="http://ns.adobe.com/xap/1.0/mm/"
            xmlns:stEvt="http://ns.adobe.com/xap/1.0/sType/ResourceEvent#">
         <xmp:CreatorTool>Adobe Illustrator CC 2014 (Macintosh)</xmp:CreatorTool>
         <xmp:CreateDate>2018-01-16T13:55:46+02:00</xmp:CreateDate>
         <xmp:ModifyDate>2018-01-16T13:55:46+02:00</xmp:ModifyDate>
         <xmp:MetadataDate>2018-01-16T13:55:46+02:00</xmp:MetadataDate>
         <xmp:Thumbnails>
            <rdf:Alt>
               <rdf:li rdf:parseType="Resource">
                  <xmpGImg:width>256</xmpGImg:width>
                  <xmpGImg:height>48</xmpGImg:height>
                  <xmpGImg:format>JPEG</xmpGImg:format>
                  <xmpGImg:image>/9j/4AAQSkZJRgABAgEASABIAAD/7QAsUGhvdG9zaG9wIDMuMAA4QklNA+0AAAAAABAASAAAAAEA&#xA;AQBIAAAAAQAB/+4ADkFkb2JlAGTAAAAAAf/bAIQABgQEBAUEBgUFBgkGBQYJCwgGBggLDAoKCwoK&#xA;DBAMDAwMDAwQDA4PEA8ODBMTFBQTExwbGxscHx8fHx8fHx8fHwEHBwcNDA0YEBAYGhURFRofHx8f&#xA;Hx8fHx8fHx8fHx8fHx8fHx8fHx8fHx8fHx8fHx8fHx8fHx8fHx8fHx8fHx8f/8AAEQgAMAEAAwER&#xA;AAIRAQMRAf/EAaIAAAAHAQEBAQEAAAAAAAAAAAQFAwIGAQAHCAkKCwEAAgIDAQEBAQEAAAAAAAAA&#xA;AQACAwQFBgcICQoLEAACAQMDAgQCBgcDBAIGAnMBAgMRBAAFIRIxQVEGE2EicYEUMpGhBxWxQiPB&#xA;UtHhMxZi8CRygvElQzRTkqKyY3PCNUQnk6OzNhdUZHTD0uIIJoMJChgZhJRFRqS0VtNVKBry4/PE&#xA;1OT0ZXWFlaW1xdXl9WZ2hpamtsbW5vY3R1dnd4eXp7fH1+f3OEhYaHiImKi4yNjo+Ck5SVlpeYmZ&#xA;qbnJ2en5KjpKWmp6ipqqusra6voRAAICAQIDBQUEBQYECAMDbQEAAhEDBCESMUEFURNhIgZxgZEy&#xA;obHwFMHR4SNCFVJicvEzJDRDghaSUyWiY7LCB3PSNeJEgxdUkwgJChgZJjZFGidkdFU38qOzwygp&#xA;0+PzhJSktMTU5PRldYWVpbXF1eX1RlZmdoaWprbG1ub2R1dnd4eXp7fH1+f3OEhYaHiImKi4yNjo&#xA;+DlJWWl5iZmpucnZ6fkqOkpaanqKmqq6ytrq+v/aAAwDAQACEQMRAD8A61+bn5oXPl910XRmC6rI&#xA;ge4uSA3oI32Qqmo5t136D57YOr1Jh6Y83pewuxhn/eZPo6Dv/Y8ps/L/AOY/meI6jGl3eQsTS7uZ&#xA;xGjb0PB53QN/scwBjyT33L1GTVaPTHgPDE9wF/cGm/K7zsriNrKEO32VN7ZAn5D1sfys+77Qkds6&#xA;ar4j/pZ/8SzX8rfJXnTSvOVpeanDwso0mDn61BLu0bBfgjlduvtmTpcM4zBPL3um7Z7R02XTyjA+&#xA;rb+GQ6+YTX80fzQv7S/l0LQ5fQeD4b29WnPmR/dxn9nj3brXwpmzeLAYLbeR/PeuQrqZtZZop6EX&#xA;d1MiFg3RqzOrMPcYptEf8qp84/75t/8ApJg/5rxW2Uflr5B8yaP5utb++jhW3jSUMUnikarRlR8K&#xA;sT1OKkpZ+YH5ieYNV16fSdInlt7GGU20UdsSJJ3VuJJZfiPJuijFQEuT8ufzEkUSzQtCZByHr3US&#xA;Oa+IMnL78VtqXyB+Y9lE15DFLIsQqz2tykjrTfZY35n6Bitsq/Kj8yNWudVj0HWZ2uluAwtLmU1k&#xA;WRQW4Ox3YMAaE71xUhLfOv5c+adR81ale20UJt7iYvGWuIUNCB1VmBGKgpJ/yqnzj/vm3/6SYP8A&#xA;mvFbVF/LT8wYkrbQ+p6fxBILqIsAN6gBx+GK2jPJH5ieYtC1yLTdXmmnsGlEFzb3JZpICW48lL/E&#xA;vA9V6fTipDNPzQ8keaPMGr2lzpBUQRW/pycpfT+PmzdPkcUAsM/5VF+Yn80f/STim3f8qi/MT+aP&#xA;/pJxW3f8qi/MT+aP/pJxW3rX5faLqei+V7bT9TIN5G8pfi3MUZyy/F8jhQWRkgAkmgG5JxQ+efMX&#xA;mHzP5480SWWktLLbB3Wxs4n9NPTT/dj1KrVqVJY+2Bk7yj5q8w+T/M6WGqNNHaGVYr+ynYkKHp+8&#xA;WtQCK8qj7QxV9DYWKRefP+UM1r/mDm/4gcVDxTyf/wAoF51/4x2P/J2TAyLL/wAgP949a/4yQf8A&#xA;EXxCClPnP8r/ADlqfmjUr+ztEe1uZi8TmaNSVoOxauKQUm/5U759/wCWKP8A5Hxf81Y0ttn8q/zH&#xA;tY+cNoaKeXGG4iBFN6gcx+GK2jPIn5ieYdG12HStYnlmsJJRbzw3RYyQMTxqC/xLxbqvh74qQxoR&#xA;DzR+ajRXpJhvtTZZQTv6KyEcK/8AGNeIzSVx5d+pfSeL8tobjzjj+2ufzQXmHU9T80+aZIRKqRGV&#xA;oNOt5JFhghhQlY415lUQcR9JyOSRyT+5u0uGGmwXW9XI1ZJ6nvKbD8lPzCIBFjEQdwRcQ/8ANWT/&#xA;ACWTucX/AEQ6T+cf9KWV/lj+WPnDQfOFrqep2qRWcSSq7rLG5BeNlGysT1OZGm004TBI2dX2x2xp&#xA;8+nMIG5Guh72LeUbK38w+e4vr4MltPNNd3Q/nVA0xU1/mIoc2TxyjLceYfPPmZYBJ6l1dM5tbd34&#xA;xRIil+CDooCr9OKpz/ypbzx/vq3/AORw/pjS2yT8u/yz80aF5qttS1COFbWJJVcpIGarxlRt8zig&#xA;ljv5cGN/PWoX5QM9pBeXcAbcBxsPwc4pLGLDTfMXmrVpUtlfUNSkVppTJIisQCATykZR3G1cUorS&#xA;Ztb8peboEl5Wt5azxrdwq4YMjEFkYoWVgVbFCcXUSWn5yIluBGn6Yhoo6D1JlLAf8EcV6Jv56/Lr&#xA;zRq3m/Ub2xhhkguHUxVniVjSNVPwlg3UYqCkH/KpvOvPh9Xg51px+sw1r4U5Y0tpVrPl7zJ5SvrZ&#xA;rwGzu3Hq28kUilhxNKhkJpviqc/mqA2u6dqBAFxqWmWt3cFRSsrBkJ29kGKhnH5seRfMnmLWbO60&#xA;q3WaGG29J2aREo3NmpRiOxxQC8v8yeS/MHlxIH1aBYVuSyxFZEepShP2SafaxTbJfzF/5QzyN/zB&#xA;y/8AEIMVCU6X+V/nLU9Pg1CztEe1uV5xOZo1JX5Fq4rb3D8vdGv9G8oWGm6ggju4PW9VAwYDnO7r&#xA;utR9lhhQUP8Amdrv6H8m30qtxuLpfqlv48pqhiPdU5H6MVDxjQwNK8kaxq7bXGqMuk2R78D+8uT8&#xA;ioC4Eta6v6V8maNrKitxpxbSb49+KD1LZv8AkWStfbFXtn5b67+mvJ9hcu3K4hX6tc+PqQ/DU+7L&#xA;RvpwoKJ8+f8AKGa1/wAwc3/EDigPFPJ//KBedf8AjHY/8nZMDIsv/ID/AHj1r/jJB/xF8QgpN5z/&#xA;AC381an5s1K8s4YXhuZi0VZ4lYig/ZLVxSCkv/KpfOvP0/q8HOtOH1mGtfCnLGltJ9Z0HzD5T1G3&#xA;W8Bs70qJ4HikBYAMQCGQmm4xSnX5nVXzHYanxAn1HT7S+lA6GQqVOwp/vvFASXzhp+qeUPP080YK&#xA;SQ3X12wlIPF42f1EPvT7Le9c0eaJx5Pjb6XoMsNXpQD1jwy+VftReo+XtH80XMmq+Wr63t7q7YyX&#xA;OhXkqwSxzPu4gd+MciFtxuKDJSxxmbifg1YtVk00RDNGRjHlOIsEefUFArP+YXkW7Spu9LqfhRqt&#xA;byU67fFE/wCORvJiPUNxjpNbH+Gf3j9Ie5fl/wDmFH5s0C5ldVt9VslIu4Urx3UlJEr+y1Dt2ObX&#xA;TZ/EHm8R2v2WdJkobwlyP6HkH5a/8pMf+YO8/wCod8vdUVb8pP8AyYWlf9HH/UNLipfR2Fi7FXz7&#xA;+Wn/AClGsf8AbPvf1jAyKt+R/wDymb/8wcv/ABNMQpS78w15fmVfqKCtzCKk0H2I+5xUIvVf/Jzp&#xA;/wBti2/5OpivRF/+Vw/7eH/GmK9Euuv/ACcS/wDbcj/6iVxXonv5+f8AHX0r/mHf/ieJUJF+aX+9&#xA;nl7/ALYdn/xKTFQ+hLZ2e2idjVmRSx9yK4WLyr8//wDePRf+Mk//ABFMBSGOfmL/AMoZ5G/5g5f+&#xA;IQYpD1n8uf8AlB9G/wCYcfrOFBZHih4l+euuG41iz0WJqpZx+tMo/wB+zfZBHsgBH+tgLIJF5ytZ&#xA;kudC8nWi8p7CGNJUH7V7ekSSDbw5KBioa8l20stxrnk+7XhNqELxxIT9m9siXjFe26sDipZF+ROu&#xA;GDUr7Q5jRblfrECntJF8Lge5U1/2OIUvTPPn/KGa1/zBzf8AEDhYh4p5P/5QLzr/AMY7H/k7JgZF&#xA;l/5Af7x61/xkg/4i+IQUh/8AK4f9vD/jTFPRCf8AlZ/+3x/zNxXomP59f8pHp/8AzB/8zXxKhKPz&#xA;S/3s8vf9sOz/AOJSYqHrXmm3/LrzPZC11XULJ+FTDcJcwrLGT1KPyP3Go9soyjHMUSHaaKWs00uL&#xA;HGXmOE0Xjvmv8r9P0+CW80TzDY6jBGC5tZJ4Y5wo3PEhuDn/AIH2Ga7LpgN4yBet0XbM8hEcuKcD&#xA;30a+7b7UP+WupXWpamnlHUZWudE1ZJIjbyHmIZFjZ45oq/YZWUdMjppGR4D9JbO18MccPzEBWSFG&#xA;+8XuD3q/5MT3Fv53eyjPL63a3NvIAfhPFeYO/wDlR5LRGslNXtHAS0nF3EH9H6WvywjMvmtY1+09&#xA;rdqPmbdxm4fPy1+VlzbWvnzTJ7mVIIU9fnLIwRRW3kAqzUHU4qX0D/iXy5/1dbP/AKSIv+asLFVt&#xA;tb0a6mENrf208zVKxxTI7Gm5oqknFXhX5af8pRrH/bPvf1jAyKz8ndR0/T/Nrz391FaQG1kUSzyL&#xA;GnIslBycgV2xClAeeru1u/zBvbi0mS4t5J4jHNEwdGARBsykg74qEy1X/wAnOn/bYtv+TqYr0Rf/&#xA;AJXD/t4f8aYr0S66/wDJxL/23I/+olcV6J7+fn/HX0r/AJh3/wCJ4lQkX5pf72eXv+2HZ/8AEpMV&#xA;D6Cs/wDeOD/jGn/ERhYvLPz/AP8AePRf+Mk//EUwFIY5+Yv/AChnkb/mDl/4hBikPWfy5/5QfRv+&#xA;YcfrOFBZBNNFBDJNKwSKJS8jnoFUVJPyGKHzz5flXzL+Yc2sX1RZwSS6pd134QW3xop9hRFwMkx/&#xA;LG3n8x/mLNrV0KiAy3sg6gSSHjGv+xL1H+ripWfmbbT+XPzFj1e1FPWaK/iHQc0NHU/NkqfnioQm&#xA;uXEflv8AMS21uy/3guni1O2K/tW9yKyKPvdcVezed5I5fI+sSxsHjeylZGHQgpUEYWIeL+T/APlA&#xA;vOv/ABjsf+TsmBkWX/kB/vHrX/GSD/iL4hBSH/yuH/bw/wCNMU9EJ/5Wf/t8f8zcV6Jj+fX/ACke&#xA;n/8AMH/zNfEqEo/NL/ezy9/2w7P/AIlJioST/lXUv/UxaB/3EY/6Zo/y/wDSj830r+Vh/qWb/SF3&#xA;/Kupf+pi0D/uIx/0x/L/ANKPzX+Vh/qWb/SFG2g0TyQs99Dq1vrHmR4pILBbAmS3tjKpRp2mIUMw&#xA;UkKoHzyY4cW93LyaZ+LraiYSx4bBlxc5V/DX3p9+QHlu4n1q51+RKWtpG0EDEfamkpy4n/JStf8A&#xA;WGW6DHcuJwfajViOMYh9UjZ9w/b9yRJLd+RvPzOYy36OuGHpnb1LdwRt/rRNUZtHiUw1Tyb5c1Od&#xA;7/y75g0+G0uG5iw1CYW00RbcoAwPIDt/Hritob/lWmof9XjR/wDpNX+mK2yb8tPJtxpfnG2uZNU0&#xA;25MUcvK3tbpZZqNGVqEArTfFSWM6Fq1v5e8/Xh1FWSzaW6s75UG6xyMyEgD+U0OKty/l0sk7fo/z&#xA;Fo9zbn4ona7WOTj25xkEqfEYraI0vyVpumajDfa55g0xLO0kSaWC2uPrE8gQ8uCxoK/FSlcVtT8v&#xA;TyeZfzUtr6OMqs1/9cCd1jhb1F5EeCoB88VTL/yuH/bw/wCNMV6Jddf+TiX/ALbkf/USuK9E9/Pz&#xA;/jr6V/zDv/xPEqEi/NL/AHs8vf8AbDs/+JSYqH0FZ/7xwf8AGNP+IjCxeWfn/wD7x6L/AMZJ/wDi&#xA;KYCkMc/MX/lDPI3/ADBy/wDEIMUh6z+XP/KD6N/zDj9ZwoKWfm9rv6L8m3EKNSfUWFog78GBMh+X&#xA;AEfTiVDyjTgdH/Lq/vvs3WvzrY257i3g+OZh7M3wHAlW8tfl95/utNi1LSJDa294vJStwYWZVJAL&#xA;BafRito28/Kf8yb0qbyVbkpUIZroyca9acq0xW1bzp5R1qw8gaXLqqILzSJ3tuUbB+VrP8aFiP5H&#xA;+EDFQyTQdd/Sv5M6ijtyuNPtJrSXxpGlYz/yLKj6MUdWD+T/APlAvOv/ABjsf+TsmKSy/wDID/eP&#xA;Wv8AjJB/xF8QgpD/AOVw/wC3h/xpinohP/Kz/wDb4/5m4r0TH8+v+Uj0/wD5g/8Ama+JUJR+aX+9&#xA;nl7/ALYdn/xKTFQ2/wCQPndWoJrFx/MsslPxjBzUfkJ+T3o9p9N3T+Q/W0v5BeeCwBlsVB/aMr0H&#xA;3RnH8hk8kn2n03dP5D9afaD/AM48zCdJNe1JDCpBa3swxLe3qyBaf8DluPs/+cXB1PtUKrFHfvl+&#xA;ofrew6ZplhpdhDYWEC29pbrxiiQUAHU/Mk7knqc2MYiIocnks2aeSRnM3IpD5z/L7RfNMaPc8ra+&#xA;iHGK8iA5cf5XB+0v+dck1gvObv8AITW1J+qanbTDsZVki/4iJcFJtBSfkZ5yVqLNZOPFZZKf8NGM&#xA;aW2Sfl1+WXmTy75mj1G/a3a3EUkZ9KQs1WG2xVcUEp353/KfTPMd22o205sNRcATOF5xy0FAWWqk&#xA;NTaoP0YVBYPN+Q3mgNSG+sXXxdpUP3CN/wBeCk23b/kN5laQC4v7KOPu0ZlkP3FI/wBeNLb0jyR+&#xA;XekeVUeSF2utQmXhLeOAvw1rxRATxG2+5+eFBLH/APlWmu/8rG/xN69r9Q+tev6XOT1uPGlOPp8a&#xA;/wCywLaEn/KnzC/n0eYRcWn1Iail76ZeX1fTWYSEU9PjyoP5vpxW0y/M78vNa81X9lcafPbRJbRN&#xA;G4uGkUks1duCPioKX+dfyp13XJdJezuLVDY6fDZTmZ5Fq0RY1ULG+3xd8VBeoQR+nDHHWvBQtfGg&#xA;phQw38y/I2oea4LCOzuIYDaNIzmblvzCgU4hv5cUgpV5p/K/V9Y0Dy7psF3bxy6PA8M7vz4uXWMA&#xA;pRSf91nrgW2a+VdIn0fy9YaZO6yTWkQjd0rxJBJ2qAcKGJfmb5B8x+a76yawuLWKytImASd5Fb1X&#xA;b4zRI3FOKr3wJBSvzN+Uuv6lHo9jY3NpFpul2qwUkaQO0rNynlCrGw+M++K2r+dvyt13VdRtH0S7&#xA;gtrG1s4rVYppJUIMRYbCONxTiRioLHf+VKeev+rnZ/8AI+4/6pY0m2n/ACQ87uvF9RsmU9Q01wR+&#xA;MWNLaf8AlX8sfNWk6Zrum3N3Ztb6taGFPTeVuMw2RiGjX4eLNWntii12hflPrOn+W/MGlS3ls82r&#xA;rbLA68+K+g7M3Oq135bUxW08/LTyNqHlSC/jvLiGc3bRshh5bcAwNeQX+bCpKVf8q013/lY3+JvX&#xA;tfqH1r1/S5yetx40px9PjX/ZYFtQ/wCVW+YP+Vgf4i+sWn1L6/8AW/T5yer6fPlSnp8eVP8AKxW0&#xA;X+Zn5ca55p1a1vNPntoooIPRcXDyKxbmzbcI32+LFQUF51/KnXtbudLks7m1RLHT4LKX1mkUl4Sx&#xA;LKFjfY8sVBf/2Q==</xmpGImg:image>
               </rdf:li>
            </rdf:Alt>
         </xmp:Thumbnails>
         <dc:format>image/svg+xml</dc:format>
         <xmpTPg:MaxPageSize rdf:parseType="Resource">
            <stDim:w>1.999897</stDim:w>
            <stDim:h>0.350713</stDim:h>
            <stDim:unit>Centimeters</stDim:unit>
         </xmpTPg:MaxPageSize>
         <xmpTPg:NPages>1</xmpTPg:NPages>
         <xmpTPg:HasVisibleTransparency>False</xmpTPg:HasVisibleTransparency>
         <xmpTPg:HasVisibleOverprint>False</xmpTPg:HasVisibleOverprint>
         <xmpTPg:PlateNames>
            <rdf:Seq>
               <rdf:li>Cyan</rdf:li>
               <rdf:li>Magenta</rdf:li>
               <rdf:li>Yellow</rdf:li>
               <rdf:li>Black</rdf:li>
            </rdf:Seq>
         </xmpTPg:PlateNames>
         <xmpTPg:SwatchGroups>
            <rdf:Seq>
               <rdf:li rdf:parseType="Resource">
                  <xmpG:groupName>Группа образцов по умолчанию</xmpG:groupName>
                  <xmpG:groupType>0</xmpG:groupType>
               </rdf:li>
            </rdf:Seq>
         </xmpTPg:SwatchGroups>
         <xmpMM:DerivedFrom rdf:parseType="Resource"/>
         <xmpMM:DocumentID>xmp.did:5dbc943b-e33d-4b20-8637-64b4a89e1ca0</xmpMM:DocumentID>
         <xmpMM:InstanceID>xmp.iid:5dbc943b-e33d-4b20-8637-64b4a89e1ca0</xmpMM:InstanceID>
         <xmpMM:OriginalDocumentID>xmp.did:5dbc943b-e33d-4b20-8637-64b4a89e1ca0</xmpMM:OriginalDocumentID>
         <xmpMM:History>
            <rdf:Seq>
               <rdf:li rdf:parseType="Resource">
                  <stEvt:action>saved</stEvt:action>
                  <stEvt:instanceID>xmp.iid:5dbc943b-e33d-4b20-8637-64b4a89e1ca0</stEvt:instanceID>
                  <stEvt:when>2018-01-16T13:55:46+02:00</stEvt:when>
                  <stEvt:softwareAgent>Adobe Illustrator CC 2014 (Macintosh)</stEvt:softwareAgent>
                  <stEvt:changed>/</stEvt:changed>
               </rdf:li>
            </rdf:Seq>
         </xmpMM:History>
      </rdf:Description>
   </rdf:RDF>
</x:xmpmeta>
                                                                                                    
                                                                                                    
                                                                                                    
                                                                                                    
                                                                                                    
                                                                                                    
                                                                                                    
                                                                                                    
                                                                                                    
                                                                                                    
                                                                                                    
                                                                                                    
                                                                                                    
                                                                                                    
                                                                                                    
                                                                                                    
                                                                                                    
                                                                                                    
                                                                                                    
                                                                                                    
                           
<?xpacket end="w"?>
	</metadata>
<g>
	<path fill="#746F6E" d="M45.41405,9.94003c-1.93733,0-3.79319,0-5.72306,0c-0.01401-0.31979-0.02692-0.6143-0.04409-1.00616
		c1.41562,0,2.76837,0,4.23264,0c-0.07306-0.32005-0.09982-0.53391-0.17053-0.73209
		c-0.74948-2.10043-1.49286-4.2033-2.27741-6.29065c-0.09615-0.25582-0.39232-0.53892-0.65007-0.6086
		c-0.43497-0.11758-0.57489,0.29166-0.69382,0.62913c-0.87157,2.47301-1.74092,4.9468-2.61182,7.42004
		c-0.06769,0.19223-0.14191,0.38216-0.21889,0.5887c-0.37445,0-0.7188,0-1.12769,0c0.04343-0.1774,0.06755-0.33151,0.11857-0.47614
		c0.95473-2.70638,1.91042-5.41243,2.87121-8.11666c0.31367-0.88286,0.82314-1.28146,1.61692-1.29171
		c0.81984-0.01059,1.3493,0.39282,1.67162,1.29701c0.97077,2.72326,1.93668,5.44825,2.90243,8.17329
		C45.34993,9.63874,45.36912,9.75861,45.41405,9.94003z"/>
	<path fill="#746F6E" d="M13.65008,0.00425c0,0.44291,0,0.80541,0,1.26294c-1.18586,0-2.33745-0.02609-3.48663,0.01508
		C9.79402,1.29551,9.31936,1.38013,9.0911,1.62043C8.74797,1.98166,8.40344,2.49631,8.37015,2.96767
		C8.27561,4.30621,8.32578,5.65605,8.3436,7.00111c0.01318,0.99517,0.73722,1.68812,1.74614,1.69561
		c1.15692,0.00859,2.31396,0.00199,3.53413,0.00199c0,0.4194,0,0.79396,0,1.33556c-1.49892-0.07424-3.0237,0.00883-4.47987-0.26845
		C7.80476,9.51081,7.1699,8.3507,7.10951,7.03384C7.04244,5.57153,7.0431,4.0935,7.17989,2.63787
		C7.32728,1.0695,8.35777,0.1785,9.92354,0.01392c0.16397-0.01724,0.33082-0.00921,0.49633-0.00932
		C11.47282,0.00392,12.52578,0.00425,13.65008,0.00425z"/>
	<path fill="#E33920" d="M6.58843,1.28697c-1.11002,0-2.1628-0.00444-3.21553,0.00124
		C2.29508,1.29402,1.58023,1.88843,1.41875,2.89997c-0.15248,0.95515,0.39678,1.85517,1.34424,2.1783
		c0.40958,0.13969,0.83962,0.22392,1.24073,0.38289c0.69399,0.27504,0.93191,0.6956,0.88517,1.45458
		C4.84953,7.55491,4.47794,8.03019,3.79546,8.16061C3.31427,8.25257,2.81002,8.23626,2.31569,8.24405
		C1.5551,8.25603,0.79419,8.2472,0,8.2472c0-0.44333,0-0.82582,0-1.29452c1.14177,0,2.26786,0,3.39395,0
		c0.02919-0.0786,0.05837-0.15721,0.08756-0.23581C3.2968,6.61501,3.11754,6.50127,2.92635,6.41349
		c-0.62719-0.28795-1.36192-0.445-1.8669-0.87411C0.03579,4.66953-0.06076,3.44909,0.30949,2.23357
		C0.68239,1.00931,1.52834,0.18371,2.84162,0.0889c1.22789-0.08865,2.46721-0.01896,3.74681-0.01896
		C6.58843,0.44166,6.58843,0.82252,6.58843,1.28697z"/>
	<path fill="#E33920" d="M3.12994,3.33675C3.37121,3.42176,3.6064,3.53749,3.85476,3.58666
		c1.32651,0.2626,2.29568,0.9435,2.62219,2.31022c0.4891,2.0473-0.79491,3.87747-2.90129,4.05493
		C2.40774,10.0502,1.22472,9.96945,0.0071,9.96945c0-0.41166,0-0.79537,0-1.28524c0.74098,0,1.49731,0.00028,2.25364-0.00011
		C2.69536,8.68389,3.13103,8.70172,3.5644,8.67794C4.5781,8.62232,5.27306,7.933,5.38569,6.89805
		c0.09688-0.89024-0.40324-1.61366-1.33307-1.91177C3.71849,4.87916,3.37402,4.80416,3.04026,4.69603
		C2.1903,4.42067,1.77739,3.82075,1.87929,3.02947C1.98337,2.22128,2.4382,1.77911,3.35495,1.73976
		c1.05184-0.04515,2.1071-0.01047,3.21833-0.01047c0,0.42574,0,0.82211,0,1.29679c-0.57605,0-1.14917,0-1.72229,0
		c-0.55828,0-1.11656,0-1.67483,0C3.16075,3.12963,3.14535,3.23319,3.12994,3.33675z"/>
	<path fill="#746F6E" d="M56.6601,9.94084c-0.32689,0-0.61036,0-0.96703,0c-0.01496-0.25714-0.04049-0.49586-0.04091-0.73462
		c-0.0035-1.98687,0.00119-3.97376-0.00657-5.9606c-0.00112-0.28679-0.03225-0.57807-0.08941-0.85915
		c-0.15659-0.76994-0.55109-1.10575-1.32774-1.11408c-1.17957-0.01265-2.35938-0.00204-3.53907-0.00573
		c-0.22048-0.00069-0.44089-0.02213-0.69582-0.03585c0-0.41994,0-0.77765,0-1.2266c0.63284,0,1.2256-0.01097,1.81781,0.0025
		c0.95031,0.02163,1.90274,0.02664,2.84971,0.09866c1.19455,0.09085,1.97731,0.79134,2.01239,1.96349
		c0.07548,2.52254,0.05221,5.04805,0.06567,7.57236C56.73954,9.71916,56.69927,9.79732,56.6601,9.94084z"/>
	<path fill="#746F6E" d="M28.30313,9.94146c-0.31085,0-0.59456,0-0.95093,0c-0.01463-0.2587-0.0395-0.49776-0.03987-0.73685
		c-0.00309-1.98832,0.00043-3.97664-0.00427-5.96495c-0.00058-0.24649-0.01377-0.49765-0.06192-0.73849
		c-0.18538-0.92737-0.54731-1.22639-1.48425-1.23142c-1.15982-0.00623-2.3197-0.00013-3.47955-0.00324
		c-0.20148-0.00054-0.4029-0.0203-0.63079-0.03262c0-0.41039,0-0.76975,0-1.22968c0.44426,0,0.85073-0.00817,1.25676,0.00156
		c1.13709,0.02725,2.27585,0.03202,3.41049,0.10191c1.16555,0.07179,1.96074,0.73942,2.00195,1.89691
		c0.0913,2.56436,0.05709,5.13321,0.0706,7.70024C28.39166,9.76153,28.35045,9.81843,28.30313,9.94146z"/>
	<path fill="#746F6E" d="M13.64186,1.73706c0,0.43795,0,0.79917,0,1.24602c-1.13264,0-2.25922,0-3.47057,0
		c0,1.34204,0,2.60269,0,3.95908c1.13321,0,2.27785,0,3.46854,0c0,0.45222,0,0.81162,0,1.28644c-0.59451,0-1.18487,0-1.77523,0
		c-0.43462,0-0.86926,0.00138-1.30387-0.00028c-1.12491-0.0043-1.69596-0.5053-1.74105-1.63038
		C8.77661,5.52348,8.77784,4.44465,8.81975,3.37008c0.04304-1.10364,0.63429-1.62473,1.75458-1.6317
		C11.58227,1.73212,12.59028,1.73706,13.64186,1.73706z"/>
	<path fill="#746F6E" d="M53.94711,9.92313c0-2.31795,0-4.57733,0-6.9026c-1.37696,0-2.63075,0-3.93914,0
		c0-0.44418,0-0.8189,0-1.23211c1.41905,0,2.81768-0.0294,4.21397,0.01498c0.53263,0.01693,0.85904,0.39505,0.86053,0.95684
		c0.00608,2.29614,0.00237,4.59231-0.00074,6.88846c-0.0001,0.07813-0.0322,0.15621-0.05821,0.27444
		C54.71374,9.92313,54.41616,9.92313,53.94711,9.92313z"/>
	<path fill="#746F6E" d="M26.68748,9.94105c-0.33165,0-0.61458,0-1.04824,0c0-2.29631,0-4.56972,0-6.90977
		c-1.40101,0-2.65419,0-3.96685,0c0-0.44445,0-0.81857,0-1.29396c0.74262,0,1.47879-0.00023,2.21497,0.00007
		c0.55837,0.00023,1.11753-0.01753,1.67491,0.00627c0.77343,0.03303,1.17242,0.38058,1.17704,1.06845
		c0.01528,2.27471,0.0065,4.54959,0.00432,6.82441C26.74355,9.71561,26.71539,9.79467,26.68748,9.94105z"/>
	<path fill="#746F6E" d="M47.53577,0.04751c0.41822,0,0.76115,0,1.15157,0c0,3.30091,0,6.55898,0,9.86898
		c-0.36933,0-0.72853,0-1.15157,0C47.53577,6.6418,47.53577,3.36893,47.53577,0.04751z"/>
	<path fill="#746F6E" d="M31.08934,3.00401c-0.72233,0-1.33078,0-1.97748,0c0-0.44023,0-0.80052,0-1.21507
		c1.01478,0,2.01359,0,3.0806,0c0,2.696,0,5.3857,0,8.12768c-0.35216,0-0.69036,0-1.10312,0
		C31.08934,7.65242,31.08934,5.39028,31.08934,3.00401z"/>
	<path fill="#746F6E" d="M34.00943,2.99216c0,2.3413,0,4.60669,0,6.92339c-0.43246,0-0.77001,0-1.16286,0
		c0-2.69909,0-5.39371,0-8.13362c1.00761,0,1.99001,0,3.03527,0c0,0.3817,0,0.75632,0,1.21024
		C35.28325,2.99216,34.69379,2.99216,34.00943,2.99216z"/>
	<path fill="#746F6E" d="M46.96848,0.05439c0,3.31739,0,6.56271,0,9.861c-0.36599,0-0.7047,0-1.11791,0c0-3.26814,0-6.53924,0-9.861
		C46.22393,0.05439,46.56203,0.05439,46.96848,0.05439z"/>
	<path fill="#746F6E" d="M35.90981,0.06534c0,0.40004,0,0.74458,0,1.14674c-2.25424,0-4.49145,0-6.7849,0
		c0-0.368,0-0.72548,0-1.14674C31.35726,0.06534,33.59239,0.06534,35.90981,0.06534z"/>
	<path fill="#746F6E" d="M52.88277,9.93916c-0.41516,0-0.75951,0-1.16081,0c0-2.14022,0-4.25217,0-6.41777
		c0.37051,0,0.73021,0,1.16081,0C52.88277,5.62898,52.88277,7.75433,52.88277,9.93916z"/>
	<path fill="#746F6E" d="M23.36214,9.9298c0-2.16977,0-4.26678,0-6.41184c0.41191,0,0.78782,0,1.19943,0
		c0,2.15238,0,4.26315,0,6.41184C24.15021,9.9298,23.7904,9.9298,23.36214,9.9298z"/>
	<path fill="#746F6E" d="M22.71677,9.92734c-0.38099,0-0.70146,0-1.06366,0c0-2.1378,0-4.23514,0-6.39616
		c0.34186,0,0.6766,0,1.06366,0C22.71677,5.64368,22.71677,7.75753,22.71677,9.92734z"/>
	<path fill="#746F6E" d="M50.00637,3.50878c0.36951,0,0.68973,0,1.05508,0c0,2.15142,0,4.26413,0,6.41801
		c-0.35874,0-0.67911,0-1.05508,0C50.00637,7.80328,50.00637,5.69071,50.00637,3.50878z"/>
	<path fill="#746F6E" d="M40.92145,1.81056c-0.10123-0.00005-0.20245-0.00011-0.30368-0.00016
		C39.68668,4.50254,38.75558,7.19468,37.8061,9.94c0.40822,0,0.71048,0,1.05318,0c0.20719-0.56862,0.41021-1.1258,0.59673-1.63767
		c1.25857,0,2.47712,0,3.77,0C42.4442,6.10003,41.68282,3.9553,40.92145,1.81056z M40.66726,4.71175
		c0.06719,0.00274,0.13438,0.00549,0.20157,0.00823c0.26463,0.82715,0.52928,1.65431,0.81709,2.55391
		c-0.65117,0-1.17611,0-1.82354,0C40.14677,6.36859,40.40701,5.54017,40.66726,4.71175z"/>
	<path fill="#746F6E" d="M16.98085,1.74096c-0.02067,0.00031-0.04144,0.00209-0.06194,0.00479
		c-0.72367,0.09539-1.0229,0.40752-1.04048,1.13865c-0.01693,0.7039-0.00366,1.40853-0.00357,2.11283
		c0.0001,0.74574-0.01432,1.49183,0.00438,2.2371c0.01677,0.66836,0.27871,0.93996,0.94143,0.98362
		c0.43327,0.02855,0.86973,0.01482,1.30467,0.01054c0.95541-0.0094,1.26456-0.31004,1.27422-1.26418
		c0.01027-1.01497-0.02596-2.03112,0.00884-3.04501C19.48687,1.63281,18.9164,1.71183,16.98085,1.74096z M18.15536,6.91041
		c-0.35823,0-0.67516,0-1.07247,0c0-1.30194,0-2.55002,0-3.85013c0.35903,0,0.67542,0,1.07247,0
		C18.15536,4.33547,18.15536,5.5945,18.15536,6.91041z"/>
	<path fill="#746F6E" d="M21.02603,4.97797c-0.00176,0-0.00353,0-0.00529,0c0-0.8076,0.01724-1.61565-0.00367-2.42272
		c-0.04063-1.56813-0.73027-2.34043-2.27471-2.46071c-0.81893-0.06377-1.64997-0.03407-2.47173,0.01602
		c-1.04382,0.06362-1.88098,0.67217-1.93269,1.68058c-0.10768,2.09993-0.10479,4.21225-0.00693,6.31293
		c0.04341,0.93173,0.72332,1.58877,1.69712,1.72567c0.75394,0.10599,1.52909,0.16629,2.28691,0.11931
		c1.99438-0.12362,2.69408-0.90928,2.71013-2.92097C21.03062,6.34474,21.02603,5.66134,21.02603,4.97797z M19.86499,7.34143
		c-0.01766,0.85275-0.51435,1.34152-1.3554,1.35415c-0.59932,0.00899-1.19911,0.01223-1.79828-0.00072
		c-0.77434-0.01674-1.16854-0.34613-1.33225-1.11518C15.328,7.33983,15.31375,7.08846,15.3127,6.84223
		c-0.00564-1.32291-0.01831-2.64614,0.00373-3.96873c0.01928-1.15589,0.49344-1.59938,1.64694-1.60495
		c0.53742-0.00259,1.07542-0.01374,1.61219,0.00552c0.79235,0.02843,1.26387,0.49356,1.28651,1.29264
		c0.02283,0.8055,0.00502,1.61216,0.0057,2.41832C19.86845,5.77053,19.88126,6.55628,19.86499,7.34143z"/>
</g>
</svg>
