<?xml version="1.0" encoding="UTF-8"?>
<svg id="Ebene_1" data-name="Ebene 1" xmlns="http://www.w3.org/2000/svg" version="1.1" viewBox="0 0 319 63">
  <defs>
    <style>
      .cls-1 {
        fill: #fc0;
      }

      .cls-1, .cls-2 {
        stroke-width: 0px;
      }

      .cls-2 {
        fill: #fff;
      }
    </style>
  </defs>
  <g>
    <path class="cls-2" d="M96.5,30.5h-5l-.9-4.5c-.6-.4-1.4-.7-2.5-1s-2.3-.4-3.5-.4c-1.8,0-3.2.4-4.2,1.1-1,.8-1.5,1.8-1.5,3s.5,2,1.6,2.8c1,.7,2.8,1.5,5.4,2.3,3.7,1,6.4,2.4,8.3,4s2.8,3.9,2.8,6.6-1.1,5.1-3.4,6.7c-2.2,1.6-5.2,2.5-8.9,2.5s-5-.4-7.1-1.3c-2.1-.8-3.9-2-5.3-3.5v-6.9h5.1l.7,4.7c.7.5,1.6,1,2.7,1.4s2.4.5,3.8.5,3.2-.4,4.2-1.1c.9-.7,1.4-1.7,1.4-3s-.5-2.3-1.4-3.1-2.5-1.5-4.7-2.2c-3.9-1.1-6.9-2.5-8.9-4.1s-3-3.7-3-6.4,1.1-4.9,3.4-6.6,5.1-2.6,8.6-2.6,4.9.4,7,1.2c2.1.8,3.9,1.8,5.3,3.1v6.8Z"/>
    <path class="cls-2" d="M127.4,31.1h-4.9l-.7-4.4c-.7-.7-1.5-1.2-2.5-1.5s-2.2-.6-3.5-.6c-2.9,0-5.1,1-6.7,3.1s-2.3,4.8-2.3,8.2v1.2c0,3.4.8,6.1,2.3,8.2,1.5,2.1,3.7,3.2,6.6,3.2s2.5-.2,3.6-.6c1.1-.4,1.9-.9,2.5-1.5l.7-4.4h4.9v6.6c-1.3,1.5-3,2.8-5.1,3.7s-4.4,1.4-7,1.4c-4.4,0-8.1-1.5-10.9-4.6s-4.3-7-4.3-11.9v-1.2c0-4.8,1.4-8.8,4.2-11.9,2.8-3.1,6.5-4.6,11-4.6s4.9.5,6.9,1.4c2.1.9,3.8,2.2,5.1,3.7v6.5h.1Z"/>
    <path class="cls-2" d="M161.3,36.8c0,4.9-1.4,8.9-4.2,12-2.8,3.2-6.4,4.8-10.9,4.8s-8.1-1.6-10.8-4.8-4.1-7.2-4.1-12v-.5c0-4.8,1.4-8.8,4.1-12,2.7-3.2,6.4-4.8,10.8-4.8s8.1,1.6,10.9,4.8c2.8,3.2,4.2,7.2,4.2,12v.5ZM154.7,36.2c0-3.4-.7-6.2-2.1-8.4-1.4-2.1-3.5-3.2-6.3-3.2s-4.9,1.1-6.3,3.2c-1.4,2.1-2.1,4.9-2.1,8.4v.5c0,3.5.7,6.3,2.1,8.4,1.4,2.1,3.5,3.2,6.3,3.2s4.9-1.1,6.3-3.2c1.4-2.1,2.1-4.9,2.1-8.4v-.5Z"/>
    <path class="cls-2" d="M196.9,19.9v4l-3.6.7v28.5h-6.6l-13.4-22.3h-.1v17.6l3.6.7v4h-13.8v-4l3.5-.7v-23.8l-3.5-.7v-4h10.1l13.4,22.3h.1v-17.6l-3.6-.7v-4h13.9Z"/>
    <path class="cls-2" d="M228.9,19.9v8.8h-5.1l-.3-3.7h-6.1v23.4l3.6.7v4h-13.8v-4l3.6-.7v-23.3h-6.1l-.3,3.7h-5.1v-8.8h29.6Z"/>
    <path class="cls-2" d="M226.1,49.1l2.4-.3,10.1-28.8h6.8l10,28.8,2.4.3v4h-11.3v-4l2.3-.4-1.5-4.6h-10.7l-1.5,4.6,2.3.4v4h-11.3v-4h0ZM238.1,39.2h7.6l-3.7-11.6h-.1l-3.8,11.6Z"/>
    <path class="cls-2" d="M260.5,23.9v-4h13.7v4l-3.6.7v23.8l3.6.7v4h-13.7v-4l3.6-.7v-23.8l-3.6-.7Z"/>
    <path class="cls-2" d="M311.3,19.9v4l-3.6.7v28.5h-6.6l-13.4-22.3h-.1v17.6l3.6.7v4h-13.7v-4l3.5-.7v-23.8l-3.5-.7v-4h10.1l13.4,22.4h.1v-17.7l-3.6-.7v-4h13.8Z"/>
  </g>
  <g>
    <path class="cls-1" d="M38.3,18.7h-5.2c-1.1,0-2,.9-2,2v5.3c0,1.1.9,2,2,2h5.2c1.1,0,2-.9,2-2v-5.3c0-1.1-.9-2-2-2ZM20.2,28h5.2c1.1,0,2-.9,2-2v-5.3c0-1.1-.9-2-2-2h-5.2c-1.1,0-2,.9-2,2v5.3c0,1.1.9,2,2,2ZM14.6,26v-5.3c0-1.1-.9-2-2-2h-5.2c-1.1,0-2,.9-2,2v5.3c0,1.1.9,2,2,2h5.2c1.1,0,2-.9,2-2ZM38.7,31.7c-.8,0-1.5.7-1.5,1.5v6.2c0,.8.7,1.5,1.5,1.5s1.5-.7,1.5-1.5v-6.2c0-.8-.6-1.5-1.5-1.5ZM24.4,33.7v5.3c0,1.1.9,2,2,2h5.2c1.1,0,2-.9,2-2v-5.3c0-1.1-.9-2-2-2h-5.2c-1.1,0-2,.9-2,2ZM20.7,39v-5.3c0-1.1-.9-2-2-2h-5.2c-1.1,0-2,.9-2,2v5.3c0,1.1.9,2,2,2h5.2c1.1,0,2-.9,2-2ZM38.3,44.7h-5.2c-1.1,0-2,.9-2,2v5.3c0,1.1.9,2,2,2h5.2c1.1,0,2-.9,2-2v-5.3c0-1.1-.9-2-2-2ZM24.8,44.7h-5.2c-1.1,0-2,.9-2,2v5.3c0,1.1.9,2,2,2h5.2c1.1,0,2-.9,2-2v-5.3c0-1.1-.9-2-2-2Z"/>
    <path class="cls-1" d="M44.6,16.6c.7.6,2.9,2.5,7.9,2.5s.3.2.3.4v14.3c0,5.5-6.7,8.9-8.3,9.8-.2,0-.2,0-.2,0v-26.8c.1-.1.2-.2.3-.1Z"/>
    <path class="cls-1" d="M28.9,15.9c11-.4,12.8-4.2,12.8-4.2,0-.2.3-.3.5-.3h0c.2,0,.4,0,.5.2,0,0,1.7,4.1,12.7,4.1s.4.2.4.5v18.8c0,6-11.4,12.8-11.6,12.9-.2,0-.4.3-.4.4v4.7c0,.2.3.6,1,.2,4.2-2.3,16-8.8,16-16.8V12.4c0-.4-.7-.7-1.1-.7-14,0-16.6-5.1-16.6-5.1,0-.3-.5-.3-.8-.3,0,0-.6,0-.7.2,0,0-2.3,5.3-16.2,5.3s-.6.2-.6.6v3s-.1.7.4.7c.4-.1,3.7-.2,3.7-.2Z"/>
  </g>
</svg>