<?xml version="1.0" encoding="utf-8"?>
<!-- Generator: Adobe Illustrator 23.1.0, SVG Export Plug-In . SVG Version: 6.00 Build 0)  -->
<svg version="1.1" id="Слой_1" xmlns="http://www.w3.org/2000/svg" xmlns:xlink="http://www.w3.org/1999/xlink" x="0px" y="0px"
	 viewBox="0 0 300 300" style="enable-background:new 0 0 300 300;" xml:space="preserve">
<style type="text/css">
	.st0{display:none;fill:none;}
	.st1{clip-path:url(#SVGID_2_);fill:url(#SVGID_3_);}
	.st2{fill:none;stroke:#FFCC00;stroke-width:4;stroke-linecap:round;stroke-linejoin:round;stroke-miterlimit:10;}
	.st3{fill:none;stroke:#FFCC00;stroke-width:4.5;stroke-linecap:round;stroke-linejoin:round;stroke-miterlimit:10;}
</style>
<rect x="-5.3" y="-5.5" class="st0" width="310.5" height="310.5"/>
<g>
	<g>
		<g>
			<g>
				<g>
					<g>
						<g>
							<defs>
								<path id="SVGID_1_" d="M300,150C300,67.1,232.9,0,150,0S0,67.1,0,150s67.2,150,150,150S300,232.9,300,150"/>
							</defs>
							<clipPath id="SVGID_2_">
								<use xlink:href="#SVGID_1_"  style="overflow:visible;"/>
							</clipPath>
							
								<linearGradient id="SVGID_3_" gradientUnits="userSpaceOnUse" x1="-4579.2417" y1="694.8833" x2="-4576.9927" y2="694.8833" gradientTransform="matrix(-139.3333 0 0 139.3333 -637734.1875 -96670.3281)">
								<stop  offset="0" style="stop-color:#330066"/>
								<stop  offset="1.813190e-03" style="stop-color:#330066"/>
								<stop  offset="0.1749" style="stop-color:#380066"/>
								<stop  offset="0.3857" style="stop-color:#470066"/>
								<stop  offset="0.616" style="stop-color:#600066"/>
								<stop  offset="0.8586" style="stop-color:#820066"/>
								<stop  offset="0.9982" style="stop-color:#990066"/>
								<stop  offset="1" style="stop-color:#990066"/>
							</linearGradient>
							<rect x="0.1" y="0.1" class="st1" width="299.9" height="299.9"/>
						</g>
					</g>
				</g>
			</g>
		</g>
	</g>
</g>
<path class="st2" d="M226.6,28.9c6.3-6.1,14.8-9.9,24.3-9.9c19.1,0,34.7,15.6,34.7,34.7S270,88.4,250.9,88.4s-34.7-15.6-34.7-34.7
	c0-7.9,2.6-15.2,7.1-21"/>
<path class="st2" d="M251,71.8c-4.1,0-8.3,0-12.4,0c-1.7,0-2.4-0.7-2.4-2.5c0-6.6,0-13.2,0-19.8c0-1.8,0.7-2.5,2.4-2.5
	c8.3,0,16.5,0,24.8,0c1.6,0,2.3,0.7,2.3,2.4c0,6.6,0,13.3,0,19.9c0,1.7-0.7,2.4-2.3,2.4C259.2,71.9,255,71.8,251,71.8z M249.1,62.3
	L249.1,62.3c0,0.8,0,1.6,0,2.3c0,0.4,0.2,0.6,0.7,0.6c0.8,0,1.6,0,2.3,0c0.6,0,0.8-0.2,0.8-0.7c0-1.5,0-2.9,0-4.3
	c0-0.4,0.1-0.8,0.6-1c1.6-0.9,2.1-2.4,1.6-3.9c-0.5-1.5-2-2.5-3.9-2.6c-2-0.1-3.6,0.9-4.3,2.3c-0.6,1.5-0.1,3.1,1.5,4.1
	c0.6,0.3,0.8,0.7,0.7,1.3C249.1,61.1,249.1,61.7,249.1,62.3z"/>
<path class="st2" d="M237.5,46c0.4-5.6,2.8-10.4,8.3-12.8c6.2-2.6,15.5-0.4,17.9,9c0.3,1.2,0.4,2.4,0.7,3.7"/>
<path class="st2" d="M258.5,45.8c-0.1-1-0.3-2-0.6-2.9c-1.5-4.8-6.9-6.1-10.6-4.1c-1.6,0.8-2.7,2-3.2,3.6c-0.3,1.1-0.6,2.3-0.9,3.5"
	/>
<path class="st2" d="M291.8,53.8c0-22.6-18.3-40.9-40.9-40.9S210,31.2,210,53.8c0,1,0.1,2,0.1,3L209,56h-27.7
	c-4.2,0-7.7,3.5-7.7,7.7V157c0,4.2,3.5,7.7,7.7,7.7H254c4.2,0,7.7-3.5,7.7-7.7V93.6l-0.3-0.2C278.9,88.7,291.8,72.8,291.8,53.8z"/>
<path class="st3" d="M1.9,127.2h101.6c9.1,0,16.5,7.4,16.5,16.5v104.5c0,9.1-7.4,16.5-16.5,16.5h-88"/>
<path class="st2" d="M137.3,217.8"/>
<path class="st2" d="M80.7,161.1"/>
<g>
	<g>
		<path class="st3" d="M78,200.1c7.9-7.9,7.9-20.6,0.2-28.5c-7.9-7.9-20.6-7.9-28.5-0.2c-7.9,7.9-7.9,20.9,0,28.7
			C57.3,208,70,208,78,200.1z"/>
		<path class="st3" d="M22.9,191.1c-0.1-0.7-0.4-1.1-0.4-1.7c0-2.5-0.1-5.2,0.1-7.4c0.1-0.8,1.5-2,2.4-2.1c2.5-0.4,5.6,0.1,7.3-1.1
			c1.7-1.3,1.7-4.6,3-6.6c2-3,0.8-4.8-1.1-7.1c-4.2-4.8-3.9-4.2,0.4-8.6c3.4-3.4,3.4-4.9,8-0.4c2.7,2.7,5.2,3.4,8.3,1
			c0.8-0.7,1.8-1,3-1.1c2.8-0.3,3.5-2,3.6-4.6c0.7-7.4,0.1-6.6,7.4-6.6c4.6,0,4.9,0,5.2,4.6c0.1,3.9,1,6.8,5.6,7.1
			c0.4,0,1,0.3,1.3,0.7c3.1,2.7,5.8,1.5,8.3-1c0.4-0.7,1.1-1.1,1.8-1.7c1.5-1.1,2.7-1.1,3.9,0.3c1.5,1.5,3,3,4.5,4.5
			c1.1,1.1,1.3,2.4,0.1,3.6c-1.5,2-3.9,3.8-4.5,5.9c-0.3,2,2,4.3,2.5,6.6c0.7,3.5,2.5,4.3,5.8,4.5c5.8,0.3,5.8,0.4,5.8,6.3
			c0,5.6,0.8,6.2-5.6,6.3c-3.5,0.1-5.3,1.1-5.9,4.6c-0.3,1.7-1.3,3.4-2.1,4.8c-0.8,1.1-0.4,2,0.3,3c1.3,1.3,2.4,2.8,3.6,4.3
			c1.3,1.5,1.3,2.8-0.1,4.3c-1.5,1.3-2.8,2.8-4.3,4.3c-1.3,1.3-2.8,1.5-3.9,0c-3.5-3.8-6.8-4.6-11.8-2.1c-3.5,1.7-5.3,3.1-4.9,7
			c0,0.7-0.1,1.5-0.1,2.1c-0.1,2-1,3-3.1,2.8c-2-0.1-3.9-0.1-5.8,0c-2.1,0.1-3-1-3.1-2.8c-0.1-2-0.3-3.9-0.7-5.9
			c-0.1-0.7-0.8-1.5-1.5-1.8c-2.5-1.1-4.9-2.1-7.6-3.1c-0.8-0.3-2-0.1-2.7,0.1c-1.7,1-3.1,2.4-4.5,3.6c-1.3,1.1-2.5,1.3-3.8,0
			c-1.5-1.5-3.1-3.1-4.6-4.6c-1.3-1.3-1.1-2.5-0.1-3.8c1.3-1.5,2.7-3,3.8-4.8c0.3-0.7,0.4-1.8,0.1-2.5c-1-2.7-2.1-4.9-3-7.6
			c-0.4-1.3-1-1.7-2.1-1.7c-2-0.1-3.8-0.3-5.8-0.7C24.3,191.7,23.6,191.4,22.9,191.1z"/>
	</g>
	<path class="st2" d="M11,165.7c3.1-8.2,8.1-15.6,14.5-21.4"/>
</g>
<g>
	<g>
		<path class="st3" d="M228.5,134.2c4.6-4.6,4.6-11.9,0.1-16.5c-4.6-4.6-11.9-4.6-16.5-0.1c-4.6,4.6-4.6,12.1,0,16.6
			C216.5,138.7,223.9,138.7,228.5,134.2z"/>
		<path class="st3" d="M196.6,128.9c-0.1-0.4-0.3-0.7-0.3-1c0-1.5-0.1-3,0.1-4.3c0.1-0.5,0.9-1.2,1.4-1.3c1.5-0.3,3.2,0.1,4.2-0.7
			s1-2.6,1.8-3.8c1.2-1.8,0.5-2.8-0.7-4.1c-2.4-2.8-2.2-2.4,0.3-5c2-2,2-2.8,4.6-0.3c1.6,1.6,3,2,4.8,0.6c0.5-0.4,1.1-0.6,1.8-0.7
			c1.7-0.2,2.1-1.2,2.1-2.6c0.4-4.3,0.1-3.8,4.3-3.8c2.6,0,2.8,0,3,2.6c0.1,2.2,0.6,4,3.2,4.1c0.3,0,0.6,0.2,0.8,0.4
			c1.9,1.6,3.4,0.9,4.8-0.6c0.3-0.4,0.7-0.7,1.1-1c0.9-0.7,1.6-0.7,2.2,0.2c0.9,0.9,1.8,1.8,2.6,2.6c0.7,0.7,0.8,1.4,0.1,2.1
			c-0.9,1.2-2.2,2.2-2.6,3.4c-0.2,1.2,1.2,2.4,1.5,3.8c0.4,2.1,1.5,2.4,3.4,2.6c3.4,0.2,3.4,0.3,3.4,3.6c0,3.2,0.5,3.6-3.2,3.6
			c-2.1,0.1-3,0.7-3.4,2.6c-0.2,1-0.8,2-1.3,2.8c-0.5,0.7-0.3,1.2,0.2,1.8c0.8,0.8,1.4,1.7,2.1,2.4c0.8,0.9,0.8,1.7-0.1,2.4
			c-0.9,0.8-1.7,1.7-2.4,2.4s-1.7,0.9-2.2,0c-2.1-2.2-4-2.6-6.8-1.3c-2.1,1-3,1.9-2.8,4c0,0.4-0.1,0.9-0.1,1.3
			c-0.1,1.2-0.6,1.8-1.9,1.7c-1.2-0.1-2.2-0.1-3.4,0c-1.3,0.1-1.8-0.6-1.9-1.7c-0.1-1.2-0.2-2.2-0.4-3.4c-0.1-0.4-0.5-0.9-0.9-1.1
			c-1.5-0.7-2.8-1.3-4.4-1.9c-0.5-0.2-1.2-0.1-1.6,0.1c-1,0.6-1.9,1.4-2.6,2.1c-0.8,0.7-1.5,0.8-2.2,0c-0.9-0.9-1.9-1.9-2.6-2.6
			c-0.8-0.8-0.7-1.5-0.1-2.2c0.8-0.9,1.6-1.8,2.2-2.8c0.2-0.4,0.3-1.1,0.1-1.5c-0.6-1.6-1.3-2.8-1.8-4.4c-0.3-0.8-0.6-1-1.3-1
			c-1.2-0.1-2.2-0.2-3.4-0.4C197.4,129.3,197,129.1,196.6,128.9z"/>
	</g>
	<path class="st2" d="M185.9,110.8c1.9-4.9,4.8-9.2,8.6-12.7"/>
</g>
<path class="st2" d="M80.7,274.4"/>
<polyline class="st2" points="158.3,199.7 158.3,199.8 167.2,180.9 148.3,172.1 148.3,171.9 157.1,153.1 138.3,144.2 138.3,144.3 
	147.1,125.4 128.3,116.6 128.2,116.4 137.1,97.6 118.2,88.7 "/>
</svg>
