<?xml version="1.0" encoding="utf-8"?>
<!-- Generator: Adobe Illustrator 22.1.0, SVG Export Plug-In . SVG Version: 6.00 Build 0)  -->
<svg version="1.1" id="Слой_1" xmlns="http://www.w3.org/2000/svg" xmlns:xlink="http://www.w3.org/1999/xlink" x="0px" y="0px"
	 viewBox="0 0 300 300" style="enable-background:new 0 0 300 300;" xml:space="preserve">
<style type="text/css">
	.st0{fill:none;stroke:#FFCC00;stroke-width:4.5;stroke-linecap:round;stroke-linejoin:round;stroke-miterlimit:10;}
	.st1{fill:none;stroke:#FFCC00;stroke-width:4;stroke-linecap:round;stroke-linejoin:round;stroke-miterlimit:10;}
	.st2{display:none;fill:none;}
	.st3{clip-path:url(#SVGID_2_);fill:url(#SVGID_3_);}
	.st4{fill:none;}
	.st5{fill:none;stroke:#FFD138;stroke-width:4;stroke-miterlimit:10;}
	.st6{fill:none;stroke:#FFD138;stroke-width:4;stroke-linecap:round;stroke-linejoin:round;stroke-miterlimit:10;}
	.st7{fill:#FFD138;}
</style>
<path class="st0" d="M273.6-171.9c-0.6,0.1-1,0.4-1.5,0.4c-2.2,0-4.6,0.1-6.6-0.1c-0.7-0.1-1.8-1.3-1.9-2.1c-0.4-2.2,0.1-5-1-6.5
	c-1.2-1.5-4.1-1.5-5.9-2.7c-2.7-1.8-4.3-0.7-6.3,1c-4.3,3.7-3.7,3.5-7.7-0.4c-3-3-4.4-3-0.4-7.1c2.4-2.4,3-4.6,0.9-7.4
	c-0.6-0.7-0.9-1.6-1-2.7c-0.3-2.5-1.8-3.1-4.1-3.2c-6.6-0.6-5.9-0.1-5.9-6.6c0-4.1,0-4.4,4.1-4.6c3.5-0.1,6.1-0.9,6.3-5
	c0-0.4,0.3-0.9,0.6-1.2c2.4-2.8,1.3-5.2-0.9-7.4c-0.6-0.4-1-1-1.5-1.6c-1-1.3-1-2.4,0.3-3.5c1.3-1.3,2.7-2.7,4-4
	c1-1,2.1-1.2,3.2-0.1c1.8,1.3,3.4,3.5,5.3,4c1.8,0.3,3.8-1.8,5.9-2.2c3.1-0.6,3.8-2.2,4-5.2c0.3-5.2,0.4-5.2,5.6-5.2
	c5,0,5.5-0.7,5.6,5c0.1,3.1,1,4.7,4.1,5.3c1.5,0.3,3,1.2,4.3,1.9c1,0.7,1.8,0.4,2.7-0.3c1.2-1.2,2.5-2.1,3.8-3.2
	c1.3-1.2,2.5-1.2,3.8,0.1c1.2,1.3,2.5,2.5,3.8,3.8c1.2,1.2,1.3,2.5,0,3.5c-3.4,3.1-4.1,6.1-1.9,10.5c1.5,3.1,2.8,4.7,6.2,4.4
	c0.6,0,1.3,0.1,1.9,0.1c1.8,0.1,2.7,0.9,2.5,2.8c-0.1,1.8-0.1,3.5,0,5.2c0.1,1.9-0.9,2.7-2.5,2.8c-1.8,0.1-3.5,0.3-5.3,0.6
	c-0.6,0.1-1.3,0.7-1.6,1.3c-1,2.2-1.9,4.4-2.8,6.8c-0.3,0.7-0.1,1.8,0.1,2.4c0.9,1.5,2.1,2.8,3.2,4c1,1.2,1.2,2.2,0,3.4
	c-1.3,1.3-2.8,2.8-4.1,4.1c-1.2,1.2-2.2,1-3.4,0.1c-1.3-1.2-2.7-2.4-4.3-3.4c-0.6-0.3-1.6-0.4-2.2-0.1c-2.4,0.9-4.4,1.9-6.8,2.7
	c-1.2,0.4-1.5,0.9-1.5,1.9c-0.1,1.8-0.3,3.4-0.6,5.2C274.1-173.1,273.8-172.5,273.6-171.9z"/>
<circle class="st1" cx="449.9" cy="158.5" r="19.1"/>
<ellipse transform="matrix(0.2898 -0.9571 0.9571 0.2898 142.7754 673.8052)" class="st1" cx="525.4" cy="240.7" rx="19.1" ry="19.1"/>
<rect x="-5.3" y="-5.5" class="st2" width="310.5" height="310.5"/>
<g>
	<g>
		<g>
			<g>
				<g>
					<defs>
						<path id="SVGID_1_" d="M300,150C300,67.1,232.9,0,150,0S0,67.1,0,150s67.2,150,150,150S300,232.9,300,150"/>
					</defs>
					<clipPath id="SVGID_2_">
						<use xlink:href="#SVGID_1_"  style="overflow:visible;"/>
					</clipPath>
					
						<linearGradient id="SVGID_3_" gradientUnits="userSpaceOnUse" x1="-2949.6294" y1="689.2996" x2="-2947.3801" y2="689.2996" gradientTransform="matrix(-139.3333 0 0 139.3333 -410674.9375 -95892.3281)">
						<stop  offset="0" style="stop-color:#330066"/>
						<stop  offset="1.813190e-03" style="stop-color:#330066"/>
						<stop  offset="0.1749" style="stop-color:#380066"/>
						<stop  offset="0.3857" style="stop-color:#470066"/>
						<stop  offset="0.616" style="stop-color:#600066"/>
						<stop  offset="0.8586" style="stop-color:#820066"/>
						<stop  offset="0.9982" style="stop-color:#990066"/>
						<stop  offset="1" style="stop-color:#990066"/>
					</linearGradient>
					<rect x="0.1" y="0.1" class="st3" width="299.9" height="299.9"/>
				</g>
			</g>
		</g>
	</g>
</g>
<rect x="-336" y="-102.3" class="st4" width="310.5" height="310.5"/>
<g>
	<path class="st1" d="M-206.8-72.3c0-25.8-20.9-46.8-46.8-46.8s-46.8,20.9-46.8,46.8s20.9,46.8,46.8,46.8S-206.8-46.5-206.8-72.3z
		 M-253.6-33.6c-21.4,0-38.7-17.3-38.7-38.7S-275-111-253.6-111s38.7,17.4,38.7,38.7C-214.9-50.9-232.2-33.6-253.6-33.6z"/>
	<circle class="st1" cx="-253.6" cy="-72.3" r="38.7"/>
	
		<rect x="-202.9" y="-47.9" transform="matrix(0.7071 -0.7071 0.7071 0.7071 -46.4635 -145.5108)" class="st1" width="8.1" height="62.5"/>
</g>
<path class="st1" d="M-203.8-85.9h-5c1.3,4.3,2,8.9,2,13.6c0,9.1-2.6,17.6-7.1,24.8h10.2c2.7,0,4.9-2.2,4.9-4.9V-81
	C-198.9-83.7-201.1-85.9-203.8-85.9z"/>
<path class="st1" d="M-218.3-56.5c-2.1-1.9-5.3-1.9-7.4,0c-2.1,2-2.1,5.4-0.1,7.5c0.6,0.6,1.2,1,2,1.3"/>
<path class="st1" d="M-216.1-62.6c-1.1-0.3-2.1-0.7-3-1.3c-0.4-0.3-0.5-1.3-0.5-2c0-2-1.3-1.6-2.5-1.7c-1.3-0.1-2.1,0.2-2.1,1.7
	c0.1,1.4-0.3,2.5-2,2.6c-0.2,0-0.5,0.2-0.7,0.3c-0.9,0.7-1.7,0.5-2.5-0.3c-1.5-1.4-1.6-1.4-3.1,0.2c-0.2,0.2-0.3,0.4-0.5,0.5
	c-0.8,0.6-0.8,1.4-0.1,2c1.4,1.2,1.5,2.5,0.5,3.9c-0.1,0.2-0.1,0.5-0.3,0.7c-0.4,0.4-0.8,0.9-1.3,1c-0.8,0.2-1.6,0.3-2.7,0.4
	c0,1.2-0.1,2.4,0.1,3.5c0.1,0.3,1,0.7,1.5,0.7c1.5,0,2.5,0.5,2.7,2.1c0,0.2,0.1,0.4,0.2,0.5c0.8,0.9,0.5,1.7-0.2,2.6
	c-1.4,1.7-1.4,1.7,0.1,3.2c0.2,0.2,0.4,0.3,0.5,0.5c0.3,0.4,0.6,0.5,0.9,0.6"/>
<path class="st1" d="M-250.3-82c-3.5-3.5-9.2-3.5-12.7-0.1c-3.5,3.5-3.5,9.2-0.1,12.7c3.5,3.5,9.3,3.5,12.8,0
	C-246.8-72.8-246.8-78.4-250.3-82z"/>
<path class="st1" d="M-253.4-51c-0.4,0.1-0.7,0.3-1,0.3c-1.5,0-3.1,0.1-4.5-0.1c-0.5-0.1-1.2-0.9-1.3-1.4c-0.3-1.5,0.1-3.4-0.7-4.4
	c-0.8-1-2.8-1-4-1.8c-1.8-1.2-2.9-0.5-4.3,0.7c-2.9,2.5-2.5,2.4-5.2-0.3c-2-2-3-2-0.3-4.8c1.6-1.6,2-3.1,0.6-5
	c-0.4-0.5-0.6-1.1-0.7-1.8c-0.2-1.7-1.2-2.1-2.8-2.2c-4.5-0.4-4-0.1-4-4.5c0-2.8,0-3,2.8-3.1c2.4-0.1,4.1-0.6,4.3-3.4
	c0-0.3,0.2-0.6,0.4-0.8c1.6-1.9,0.9-3.5-0.6-5c-0.4-0.3-0.7-0.7-1-1.1c-0.7-0.9-0.7-1.6,0.2-2.4c0.9-0.9,1.8-1.8,2.7-2.7
	c0.7-0.7,1.4-0.8,2.2-0.1c1.2,0.9,2.3,2.4,3.6,2.7c1.2,0.2,2.6-1.2,4-1.5c2.1-0.4,2.6-1.5,2.7-3.5c0.2-3.5,0.3-3.5,3.8-3.5
	c3.4,0,3.7-0.5,3.8,3.4c0.1,2.1,0.7,3.2,2.8,3.6c1,0.2,2,0.8,2.9,1.3c0.7,0.5,1.2,0.3,1.8-0.2c0.8-0.8,1.7-1.4,2.6-2.2
	c0.9-0.8,1.7-0.8,2.6,0.1c0.8,0.9,1.7,1.7,2.6,2.6c0.8,0.8,0.9,1.7,0,2.4c-2.3,2.1-2.8,4.1-1.3,7.1c1,2.1,1.9,3.2,4.2,3
	c0.4,0,0.9,0.1,1.3,0.1c1.2,0.1,1.8,0.6,1.7,1.9c-0.1,1.2-0.1,2.4,0,3.5c0.1,1.3-0.6,1.8-1.7,1.9c-1.2,0.1-2.4,0.2-3.6,0.4
	c-0.4,0.1-0.9,0.5-1.1,0.9c-0.7,1.5-1.3,3-1.9,4.6c-0.2,0.5-0.1,1.2,0.1,1.6c0.6,1,1.4,1.9,2.2,2.7c0.7,0.8,0.8,1.5,0,2.3
	c-0.9,0.9-1.9,1.9-2.8,2.8c-0.8,0.8-1.5,0.7-2.3,0.1c-0.9-0.8-1.8-1.6-2.9-2.3c-0.4-0.2-1.1-0.3-1.5-0.1c-1.6,0.6-3,1.3-4.6,1.8
	c-0.8,0.3-1,0.6-1,1.3c-0.1,1.2-0.2,2.3-0.4,3.5C-253.1-51.8-253.3-51.4-253.4-51z"/>
<path class="st1" d="M-160.4-85.9h12.1c2.7,0,4.9,2.2,4.9,4.9v28.6c0,2.7-2.2,4.9-4.9,4.9h-12.1c-2.7,0-4.9-2.2-4.9-4.9V-81
	C-165.4-83.7-163.1-85.9-160.4-85.9z"/>
<path class="st1" d="M-188.2-85.9h12.1c2.7,0,4.9,2.2,4.9,4.9v28.6c0,2.7-2.2,4.9-4.9,4.9h-12.1c-2.7,0-4.9-2.2-4.9-4.9V-81
	C-193.1-83.7-190.9-85.9-188.2-85.9z"/>
<path class="st1" d="M-300.3-72.3c0-12.3,4.8-23.5,12.6-31.9c-0.5-0.2-1.1-0.3-1.7-0.3h-28.7c-2.7,0-4.9,2.2-4.9,4.9V-71
	c0,2.7,2.2,4.9,4.9,4.9h18.1C-300.2-68.1-300.3-70.2-300.3-72.3z"/>
<path class="st1" d="M-297.4-55.8c-0.6,0.8-1,1.9-1,3v28.6c0,2.7,2.2,4.9,4.9,4.9h28.6c2.7,0,4.9-2.2,4.9-4.9v-1.7
	C-277.2-28.3-291.4-40-297.4-55.8z"/>
<path class="st1" d="M-315.9-19.3h-28.6c-2.7,0-4.9-2.2-4.9-4.9v-28.6c0-2.7,2.2-4.9,4.9-4.9h28.6c2.7,0,4.9,2.2,4.9,4.9v28.6
	C-311-21.6-313.2-19.3-315.9-19.3z"/>
<path class="st1" d="M-340.5-66h-28.6c-2.7,0-4.9-2.2-4.9-4.9v-28.6c0-2.7,2.2-4.9,4.9-4.9h28.6c2.7,0,4.9,2.2,4.9,4.9v28.6
	C-335.6-68.3-337.8-66-340.5-66z"/>
<path class="st5" d="M-265.1-177.4l8.6,8.7c0.2,0.2,0.4,0.3,0.8,0.3c0.3,0,0.5-0.1,0.8-0.3l12.9-13c0.3-0.3,0.3-1,0-1.4l-2.9-2.9
	c-0.2-0.2-0.4-0.3-0.8-0.3c-0.3,0-0.5,0.1-0.8,0.3l-9.4,9.4l-5-5.1c-0.3-0.3-1-0.3-1.4,0l-2.9,2.9
	C-265.5-178.5-265.5-177.9-265.1-177.4"/>
<path class="st6" d="M-253.5-140.3c0.4,0,2.6-1.1,3-1.2c6.5-3.5,24.6-13.5,24.6-25.8v-36.9v-0.1c0-0.5-0.2-0.8-0.9-0.8l0,0
	c-0.3-0.1-0.5-0.2-0.7-0.2c-3.8,0-7.1-0.3-9.9-0.7c-11.9-2-14.2-7.2-14.2-7.3c-0.2-0.3-0.5-0.2-0.9-0.2c-0.3,0-0.6,0-0.9,0
	c-0.3,0-0.7,0-0.9,0c-0.5,0-0.8-0.2-0.9,0.2c0,0.1-2.3,5.3-14.2,7.3c-2.8,0.4-6.1,0.7-9.9,0.7c-0.2,0-0.5,0.1-0.7,0.2l0,0
	c-0.7,0-0.9,0.3-0.9,0.8v0.1v36.9c0,12.3,18.1,22.3,24.6,25.8c0.4,0.1,2.6,1.3,3,1.2 M-233.6-169.5c0,9.2-19.1,19.7-19.4,19.8h-1.2
	c-0.3-0.1-19.4-10.5-19.4-19.8v-28.9c0-0.2,0-0.4,0.1-0.5c1.2-0.1,2.4-0.2,3.5-0.3c12.3-0.6,15.7-4.8,16.4-6c0.7,1.1,4.1,5.4,16.4,6
	c1.1,0.1,2.2,0.2,3.5,0.3c0.1,0.1,0.1,0.3,0.1,0.5L-233.6-169.5L-233.6-169.5z"/>
<path class="st0" d="M642.3-58.1c-6,0-12,0-18,0c-2.4,0-3.4-1-3.4-3.4c0-9.2,0-18.3,0-27.5c0-2.4,1-3.4,3.4-3.4c12,0,24,0,36,0
	c2.3,0,3.3,1,3.3,3.3c0,9.2,0,18.5,0,27.7c0,2.3-1,3.3-3.3,3.3C654.3-58,648.3-58.1,642.3-58.1z M639.4-69.9L639.4-69.9
	c0,1.2,0,2.4,0,3.7c0,0.7,0.3,1,1.1,1c1.2,0,2.4,0,3.5,0c0.9,0,1.3-0.3,1.3-1.1c0-2.3,0-4.6,0-6.8c0-0.7,0.2-1.2,1-1.7
	c2.4-1.4,3.3-3.8,2.6-6.1c-0.8-2.3-3.2-4-6.1-4.1c-3.1-0.1-5.7,1.4-6.8,3.7c-1,2.3-0.1,4.9,2.3,6.4c0.9,0.5,1.2,1.1,1.1,2
	C639.3-71.9,639.4-70.9,639.4-69.9z"/>
<path class="st0" d="M653.1-117.2c-0.6,0.4-1.1,0.7-1.7,1.1c-0.6,0.5-1.1,0.3-1.6-0.3c-1-1.2-2.2-2.3-3.3-3.4
	c-5.9-5.1-14.3-2.4-17.7,3.4c-1.3,2.4-2,4.9-1.3,7.5c0.4,1.8,1.1,3.7,1.8,5.5c0.3,0.6,0.3,1-0.5,1.3c-1.2,0.7-2.5,1.5-3.6,2.3
	c-0.5,0.3-0.8,0.3-1.1-0.3c-3.5-6.8-4.4-14.1,0.3-20.8c5.3-7.6,17.7-11.7,27.3-2.6c1.2,1.1,2.3,2.5,3.4,3.8c0.5,0.5,0.4,0.9-0.2,1.3
	C654.2-118,653.7-117.5,653.1-117.2z"/>
<circle class="st1" cx="449.9" cy="158.5" r="26.9"/>
<polyline class="st1" points="477.8,162.3 550.4,162.3 550.4,153.5 477.8,153.5 "/>
<rect x="521" y="131.5" class="st1" width="7.7" height="21.9"/>
<rect x="537.3" y="139.4" class="st1" width="7.7" height="14.1"/>
<path class="st1" d="M423,245.7h5.4v14.1h7.7v-14.1h8.7v21.9h7.7v-21.9h46.6c2.3,12.5,13.3,21.9,26.5,21.9
	c14.9,0,26.9-12.1,26.9-26.9s-12.1-26.9-26.9-26.9c-13.6,0-24.8,10.1-26.7,23.1H423V245.7z"/>
<path class="st1" d="M226.6,28.9c6.3-6.1,14.8-9.9,24.3-9.9c19.1,0,34.7,15.6,34.7,34.7S270,88.4,250.9,88.4s-34.7-15.6-34.7-34.7
	c0-7.9,2.6-15.2,7.1-21"/>
<path class="st1" d="M251,73.5c-4.4,0-8.8,0-13.2,0c-1.8,0-2.5-0.7-2.5-2.5c0-6.7,0-13.4,0-20.1c0-1.8,0.7-2.5,2.5-2.5
	c8.8,0,17.5,0,26.3,0c1.7,0,2.4,0.7,2.4,2.4c0,6.7,0,13.5,0,20.2c0,1.7-0.7,2.4-2.4,2.4C259.7,73.6,255.3,73.5,251,73.5z
	 M248.8,64.9L248.8,64.9c0,0.9,0,1.8,0,2.7c0,0.5,0.2,0.7,0.8,0.7c0.9,0,1.8,0,2.6,0c0.7,0,0.9-0.2,0.9-0.8c0-1.7,0-3.4,0-5
	c0-0.5,0.1-0.9,0.7-1.2c1.8-1,2.4-2.8,1.9-4.5c-0.6-1.7-2.3-2.9-4.5-3c-2.3-0.1-4.2,1-5,2.7c-0.7,1.7-0.1,3.6,1.7,4.7
	c0.7,0.4,0.9,0.8,0.8,1.5C248.8,63.5,248.8,64.2,248.8,64.9z"/>
<path class="st1" d="M262.1,43.7c-0.5,0-0.9,0-1.5,0c-0.6,0.1-0.8-0.2-0.9-0.8c-0.1-1.1-0.4-2.3-0.7-3.4c-1.7-5.5-8-7-12.3-4.7
	c-1.8,0.9-3.1,2.3-3.7,4.2c-0.4,1.3-0.7,2.7-1,4.1c-0.1,0.5-0.2,0.7-0.8,0.7c-1,0-2.1,0-3.1,0c-0.4,0-0.6-0.1-0.6-0.6
	c0.4-5.6,2.8-10.4,8.3-12.8c6.2-2.6,15.5-0.4,17.9,9c0.3,1.2,0.4,2.4,0.7,3.7c0.1,0.5-0.1,0.7-0.7,0.7
	C263.1,43.6,262.6,43.7,262.1,43.7z"/>
<path class="st1" d="M291.8,53.8c0-22.6-18.3-40.9-40.9-40.9S210,31.2,210,53.8c0,1,0.1,2,0.1,3L209,56h-27.7
	c-4.2,0-7.7,3.5-7.7,7.7V157c0,4.2,3.5,7.7,7.7,7.7H254c4.2,0,7.7-3.5,7.7-7.7V93.6l-0.3-0.2C278.9,88.7,291.8,72.8,291.8,53.8z"/>
<path class="st0" d="M281.6-221c-7-7-18.4-7-25.4-0.2c-7,7-7,18.4-0.2,25.4c7,7,18.6,7,25.6,0C288.6-202.5,288.6-213.8,281.6-221z"
	/>
<path class="st1" d="M363-164.6H212.4c-6.6,0-12-5.4-12-12v-48c0-6.6,5.4-12,12-12H363c6.6,0,12,5.4,12,12v48
	C375-170,369.6-164.6,363-164.6z"/>
<path class="st1" d="M363-164.6H212.4c-6.6,0-12-5.4-12-12v-48c0-6.6,5.4-12,12-12H363c6.6,0,12,5.4,12,12v48
	C375-170,369.6-164.6,363-164.6z"/>
<g>
	<g>
		<g>
			<path class="st7" d="M65.8-124.8h-5.2c-1.1,0-2,0.9-2,2v5.3c0,1.1,0.9,2,2,2h5.2c1.1,0,2-0.9,2-2v-5.3
				C67.8-123.9,66.9-124.8,65.8-124.8z M47.7-115.5h5.2c1.1,0,2-0.9,2-2v-5.3c0-1.1-0.9-2-2-2h-5.2c-1.1,0-2,0.9-2,2v5.3
				C45.7-116.4,46.6-115.5,47.7-115.5z M42.1-117.5v-5.3c0-1.1-0.9-2-2-2h-5.2c-1.1,0-2,0.9-2,2v5.3c0,1.1,0.9,2,2,2h5.2
				C41.2-115.5,42.1-116.4,42.1-117.5z M66.2-111.8c-0.8,0-1.5,0.7-1.5,1.5v6.2c0,0.8,0.7,1.5,1.5,1.5s1.5-0.7,1.5-1.5v-6.2
				C67.8-111.1,67.1-111.8,66.2-111.8z M51.9-109.8v5.3c0,1.1,0.9,2,2,2h5.2c1.1,0,2-0.9,2-2v-5.3c0-1.1-0.9-2-2-2h-5.2
				C52.8-111.8,51.9-110.9,51.9-109.8z M48.2-104.5v-5.3c0-1.1-0.9-2-2-2H41c-1.1,0-2,0.9-2,2v5.3c0,1.1,0.9,2,2,2h5.2
				C47.3-102.5,48.2-103.4,48.2-104.5z M65.8-98.8h-5.2c-1.1,0-2,0.9-2,2v5.3c0,1.1,0.9,2,2,2h5.2c1.1,0,2-0.9,2-2v-5.3
				C67.8-97.9,66.9-98.8,65.8-98.8z M52.3-98.8h-5.2c-1.1,0-2,0.9-2,2v5.3c0,1.1,0.9,2,2,2h5.2c1.1,0,2-0.9,2-2v-5.3
				C54.3-97.9,53.4-98.8,52.3-98.8z"/>
		</g>
	</g>
	<path class="st7" d="M72.1-126.9c0.7,0.6,3.1,2.5,8.1,2.5c0.2,0,0.1,0.2,0.1,0.4v14.3c0,5.5-6.7,8.9-8.3,9.8
		c-0.2,0.1-0.2-0.1-0.2-0.1l0.1-26.8C71.8-126.8,72-127,72.1-126.9z"/>
	<path class="st7" d="M56.4-127.6c11-0.4,12.8-4.2,12.8-4.2c0.1-0.2,0.3-0.3,0.5-0.3l0,0c0.2,0,0.4,0,0.5,0.2c0,0,1.7,4.1,12.7,4.1
		c0.3,0,0.4,0.2,0.4,0.5v18.8c0,6-11.4,12.8-11.6,12.9s-0.4,0.3-0.4,0.4s0,3.6,0,4.7c0,0.2,0.7,0.3,1,0.2c4.2-2.3,16-8.8,16-16.8
		v-24c0-0.4-0.7-0.7-1.1-0.7c-14,0-16.6-5.1-16.6-5.1c-0.1-0.3-0.6-0.2-0.9-0.2l0,0c-0.3,0-0.5-0.1-0.6,0.1c0,0.1-2.3,5.3-16.2,5.3
		c-0.5,0-0.6,0.2-0.6,0.6v3c0,0-0.1,0.7,0.4,0.7C53.1-127.5,56.4-127.6,56.4-127.6z"/>
</g>
<path class="st0" d="M1.9,127.2h101.6c9.1,0,16.5,7.4,16.5,16.5v104.5c0,9.1-7.4,16.5-16.5,16.5h-88"/>
<path class="st1" d="M137.3,217.8"/>
<path class="st1" d="M80.7,161.1"/>
<g>
	<g>
		<path class="st0" d="M78,200.1c7.9-7.9,7.9-20.6,0.2-28.5c-7.9-7.9-20.6-7.9-28.5-0.2c-7.9,7.9-7.9,20.9,0,28.7
			C57.3,208,70,208,78,200.1z"/>
		<path class="st0" d="M22.9,191.1c-0.1-0.7-0.4-1.1-0.4-1.7c0-2.5-0.1-5.2,0.1-7.4c0.1-0.8,1.5-2,2.4-2.1c2.5-0.4,5.6,0.1,7.3-1.1
			c1.7-1.3,1.7-4.6,3-6.6c2-3,0.8-4.8-1.1-7.1c-4.2-4.8-3.9-4.2,0.4-8.6c3.4-3.4,3.4-4.9,8-0.4c2.7,2.7,5.2,3.4,8.3,1
			c0.8-0.7,1.8-1,3-1.1c2.8-0.3,3.5-2,3.6-4.6c0.7-7.4,0.1-6.6,7.4-6.6c4.6,0,4.9,0,5.2,4.6c0.1,3.9,1,6.8,5.6,7.1
			c0.4,0,1,0.3,1.3,0.7c3.1,2.7,5.8,1.5,8.3-1c0.4-0.7,1.1-1.1,1.8-1.7c1.5-1.1,2.7-1.1,3.9,0.3c1.5,1.5,3,3,4.5,4.5
			c1.1,1.1,1.3,2.4,0.1,3.6c-1.5,2-3.9,3.8-4.5,5.9c-0.3,2,2,4.3,2.5,6.6c0.7,3.5,2.5,4.3,5.8,4.5c5.8,0.3,5.8,0.4,5.8,6.3
			c0,5.6,0.8,6.2-5.6,6.3c-3.5,0.1-5.3,1.1-5.9,4.6c-0.3,1.7-1.3,3.4-2.1,4.8c-0.8,1.1-0.4,2,0.3,3c1.3,1.3,2.4,2.8,3.6,4.3
			c1.3,1.5,1.3,2.8-0.1,4.3c-1.5,1.3-2.8,2.8-4.3,4.3c-1.3,1.3-2.8,1.5-3.9,0c-3.5-3.8-6.8-4.6-11.8-2.1c-3.5,1.7-5.3,3.1-4.9,7
			c0,0.7-0.1,1.5-0.1,2.1c-0.1,2-1,3-3.1,2.8c-2-0.1-3.9-0.1-5.8,0c-2.1,0.1-3-1-3.1-2.8c-0.1-2-0.3-3.9-0.7-5.9
			c-0.1-0.7-0.8-1.5-1.5-1.8c-2.5-1.1-4.9-2.1-7.6-3.1c-0.8-0.3-2-0.1-2.7,0.1c-1.7,1-3.1,2.4-4.5,3.6c-1.3,1.1-2.5,1.3-3.8,0
			c-1.5-1.5-3.1-3.1-4.6-4.6c-1.3-1.3-1.1-2.5-0.1-3.8c1.3-1.5,2.7-3,3.8-4.8c0.3-0.7,0.4-1.8,0.1-2.5c-1-2.7-2.1-4.9-3-7.6
			c-0.4-1.3-1-1.7-2.1-1.7c-2-0.1-3.8-0.3-5.8-0.7C24.3,191.7,23.6,191.4,22.9,191.1z"/>
	</g>
	<path class="st1" d="M11,165.7c3.1-8.2,8.1-15.6,14.5-21.4"/>
</g>
<g>
	<g>
		<path class="st0" d="M228.5,134.2c4.6-4.6,4.6-11.9,0.1-16.5c-4.6-4.6-11.9-4.6-16.5-0.1c-4.6,4.6-4.6,12.1,0,16.6
			C216.5,138.7,223.9,138.7,228.5,134.2z"/>
		<path class="st0" d="M196.6,128.9c-0.1-0.4-0.3-0.7-0.3-1c0-1.5-0.1-3,0.1-4.3c0.1-0.5,0.9-1.2,1.4-1.3c1.5-0.3,3.2,0.1,4.2-0.7
			s1-2.6,1.8-3.8c1.2-1.8,0.5-2.8-0.7-4.1c-2.4-2.8-2.2-2.4,0.3-5c2-2,2-2.8,4.6-0.3c1.6,1.6,3,2,4.8,0.6c0.5-0.4,1.1-0.6,1.8-0.7
			c1.7-0.2,2.1-1.2,2.1-2.6c0.4-4.3,0.1-3.8,4.3-3.8c2.6,0,2.8,0,3,2.6c0.1,2.2,0.6,4,3.2,4.1c0.3,0,0.6,0.2,0.8,0.4
			c1.9,1.6,3.4,0.9,4.8-0.6c0.3-0.4,0.7-0.7,1.1-1c0.9-0.7,1.6-0.7,2.2,0.2c0.9,0.9,1.8,1.8,2.6,2.6c0.7,0.7,0.8,1.4,0.1,2.1
			c-0.9,1.2-2.2,2.2-2.6,3.4c-0.2,1.2,1.2,2.4,1.5,3.8c0.4,2.1,1.5,2.4,3.4,2.6c3.4,0.2,3.4,0.3,3.4,3.6c0,3.2,0.5,3.6-3.2,3.6
			c-2.1,0.1-3,0.7-3.4,2.6c-0.2,1-0.8,2-1.3,2.8c-0.5,0.7-0.3,1.2,0.2,1.8c0.8,0.8,1.4,1.7,2.1,2.4c0.8,0.9,0.8,1.7-0.1,2.4
			c-0.9,0.8-1.7,1.7-2.4,2.4s-1.7,0.9-2.2,0c-2.1-2.2-4-2.6-6.8-1.3c-2.1,1-3,1.9-2.8,4c0,0.4-0.1,0.9-0.1,1.3
			c-0.1,1.2-0.6,1.8-1.9,1.7c-1.2-0.1-2.2-0.1-3.4,0c-1.3,0.1-1.8-0.6-1.9-1.7c-0.1-1.2-0.2-2.2-0.4-3.4c-0.1-0.4-0.5-0.9-0.9-1.1
			c-1.5-0.7-2.8-1.3-4.4-1.9c-0.5-0.2-1.2-0.1-1.6,0.1c-1,0.6-1.9,1.4-2.6,2.1c-0.8,0.7-1.5,0.8-2.2,0c-0.9-0.9-1.9-1.9-2.6-2.6
			c-0.8-0.8-0.7-1.5-0.1-2.2c0.8-0.9,1.6-1.8,2.2-2.8c0.2-0.4,0.3-1.1,0.1-1.5c-0.6-1.6-1.3-2.8-1.8-4.4c-0.3-0.8-0.6-1-1.3-1
			c-1.2-0.1-2.2-0.2-3.4-0.4C197.4,129.3,197,129.1,196.6,128.9z"/>
	</g>
	<path class="st1" d="M185.9,110.8c1.9-4.9,4.8-9.2,8.6-12.7"/>
</g>
<path class="st1" d="M497.3-188.9c6.3-6.1,14.8-9.9,24.3-9.9c19.1,0,34.7,15.6,34.7,34.7s-15.6,34.7-34.7,34.7
	c-19.1,0-34.7-15.6-34.7-34.7c0-7.9,2.6-15.2,7.1-21"/>
<path class="st1" d="M521.6-144.3c-4.4,0-8.8,0-13.2,0c-1.8,0-2.5-0.7-2.5-2.5c0-6.7,0-13.4,0-20.1c0-1.8,0.7-2.5,2.5-2.5
	c8.8,0,17.5,0,26.3,0c1.7,0,2.4,0.7,2.4,2.4c0,6.7,0,13.5,0,20.2c0,1.7-0.7,2.4-2.4,2.4C530.4-144.2,526-144.3,521.6-144.3z
	 M519.5-152.9L519.5-152.9c0,0.9,0,1.8,0,2.7c0,0.5,0.2,0.7,0.8,0.7c0.9,0,1.8,0,2.6,0c0.7,0,0.9-0.2,0.9-0.8c0-1.7,0-3.4,0-5
	c0-0.5,0.1-0.9,0.7-1.2c1.8-1,2.4-2.8,1.9-4.5c-0.6-1.7-2.3-2.9-4.5-3c-2.3-0.1-4.2,1-5,2.7c-0.7,1.7-0.1,3.6,1.7,4.7
	c0.7,0.4,0.9,0.8,0.8,1.5C519.4-154.4,519.5-153.7,519.5-152.9z"/>
<path class="st1" d="M562.5-164c0-22.6-18.3-40.9-40.9-40.9c-22.6,0-40.9,18.3-40.9,40.9c0,1,0.1,2,0.1,3l-1.2-0.8h-27.7
	c-4.2,0-7.7,3.5-7.7,7.7v93.3c0,4.2,3.5,7.7,7.7,7.7h72.8c4.2,0,7.7-3.5,7.7-7.7v-63.4l-0.3-0.2C549.6-129.1,562.5-145,562.5-164z"
	/>
<path class="st0" d="M257.5-28.4v-37.9c0-9.1,7.4-16.5,16.5-16.5h163c9.1,0,16.5,7.4,16.5,16.5V38.3c0,9.1-7.4,16.5-16.5,16.5H325.2
	"/>
<g>
	<path class="st0" d="M496.3-86.6c4.7-4.7,4.7-12.2,0.1-16.9c-4.7-4.7-12.2-4.7-16.9-0.1c-4.7,4.7-4.7,12.4,0,17
		C484-81.9,491.5-81.9,496.3-86.6z"/>
	<path class="st0" d="M463.6-91.9c-0.1-0.4-0.3-0.7-0.3-1c0-1.5-0.1-3.1,0.1-4.4c0.1-0.5,0.9-1.2,1.4-1.3c1.5-0.3,3.3,0.1,4.3-0.7
		c1-0.8,1-2.7,1.8-3.9c1.2-1.8,0.5-2.9-0.7-4.2c-2.5-2.9-2.3-2.5,0.3-5.1c2-2,2-2.9,4.7-0.3c1.6,1.6,3.1,2,4.9,0.6
		c0.5-0.4,1.1-0.6,1.8-0.7c1.7-0.2,2.1-1.2,2.1-2.7c0.4-4.4,0.1-3.9,4.4-3.9c2.7,0,2.9,0,3.1,2.7c0.1,2.3,0.6,4.1,3.3,4.2
		c0.3,0,0.6,0.2,0.8,0.4c1.9,1.6,3.5,0.9,4.9-0.6c0.3-0.4,0.7-0.7,1.1-1c0.9-0.7,1.6-0.7,2.3,0.2c0.9,0.9,1.8,1.8,2.7,2.7
		c0.7,0.7,0.8,1.4,0.1,2.1c-0.9,1.2-2.3,2.3-2.7,3.5c-0.2,1.2,1.2,2.5,1.5,3.9c0.4,2.1,1.5,2.5,3.5,2.7c3.5,0.2,3.5,0.3,3.5,3.7
		c0,3.3,0.5,3.7-3.3,3.7c-2.1,0.1-3.1,0.7-3.5,2.7c-0.2,1-0.8,2-1.3,2.9c-0.5,0.7-0.3,1.2,0.2,1.8c0.8,0.8,1.4,1.7,2.1,2.5
		c0.8,0.9,0.8,1.7-0.1,2.5s-1.7,1.7-2.5,2.5s-1.7,0.9-2.3,0c-2.1-2.3-4.1-2.7-7-1.3c-2.1,1-3.1,1.9-2.9,4.1c0,0.4-0.1,0.9-0.1,1.3
		c-0.1,1.2-0.6,1.8-1.9,1.7c-1.2-0.1-2.3-0.1-3.5,0c-1.3,0.1-1.8-0.6-1.9-1.7c-0.1-1.2-0.2-2.3-0.4-3.5c-0.1-0.4-0.5-0.9-0.9-1.1
		c-1.5-0.7-2.9-1.3-4.5-1.9c-0.5-0.2-1.2-0.1-1.6,0.1c-1,0.6-1.9,1.4-2.7,2.1c-0.8,0.7-1.5,0.8-2.3,0c-0.9-0.9-1.9-1.9-2.7-2.7
		c-0.8-0.8-0.7-1.5-0.1-2.3c0.8-0.9,1.6-1.8,2.3-2.9c0.2-0.4,0.3-1.1,0.1-1.5c-0.6-1.6-1.3-2.9-1.8-4.5c-0.3-0.8-0.6-1-1.3-1
		c-1.2-0.1-2.3-0.2-3.5-0.4C464.4-91.6,464-91.8,463.6-91.9z"/>
</g>
<path class="st1" d="M456.5-107c1.9-4.9,4.8-9.2,8.6-12.7"/>
<path class="st1" d="M80.7,274.4"/>
<polyline class="st1" points="158.3,199.7 158.3,199.8 167.2,180.9 148.3,172.1 148.3,171.9 157.1,153.1 138.3,144.2 138.3,144.3 
	147.1,125.4 128.3,116.6 128.2,116.4 137.1,97.6 118.2,88.7 "/>
</svg>
