<?xml version="1.0" encoding="utf-8"?>
<!-- Generator: Adobe Illustrator 23.0.6, SVG Export Plug-In . SVG Version: 6.00 Build 0)  -->
<svg version="1.1" id="Layer_1" xmlns="http://www.w3.org/2000/svg" xmlns:xlink="http://www.w3.org/1999/xlink" x="0px" y="0px"
	 viewBox="0 0 283.5 323.5" style="enable-background:new 0 0 283.5 323.5;" xml:space="preserve">
<style type="text/css">
	.st0{fill:url(#SVGID_1_);}
	.st1{clip-path:url(#SVGID_3_);fill:url(#SVGID_4_);}
	.st2{fill:#3399FF;}
	.st3{fill:#330066;}
	.st4{fill:url(#SVGID_5_);stroke:#990066;stroke-width:5;stroke-linecap:round;stroke-linejoin:round;stroke-miterlimit:10;}
	.st5{fill:none;stroke:#FED138;stroke-width:5;stroke-linecap:round;stroke-linejoin:round;stroke-miterlimit:10;}
	.st6{fill:url(#SVGID_6_);stroke:#FED138;stroke-width:5;stroke-linecap:round;stroke-linejoin:round;stroke-miterlimit:10;}
	.st7{fill:url(#SVGID_7_);stroke:#FED138;stroke-width:5;stroke-linecap:round;stroke-linejoin:round;stroke-miterlimit:10;}
	.st8{fill:none;stroke:#990066;stroke-width:5;stroke-linecap:round;stroke-linejoin:round;stroke-miterlimit:10;}
	.st9{fill:url(#SVGID_8_);stroke:#990066;stroke-width:5;stroke-linecap:round;stroke-linejoin:round;stroke-miterlimit:10;}
	.st10{fill:url(#SVGID_9_);stroke:#990066;stroke-width:5;stroke-linecap:round;stroke-linejoin:round;stroke-miterlimit:10;}
	.st11{fill:url(#SVGID_10_);stroke:#FED138;stroke-width:5;stroke-linecap:round;stroke-linejoin:round;stroke-miterlimit:10;}
	.st12{fill:url(#SVGID_11_);stroke:#FED138;stroke-width:5;stroke-linecap:round;stroke-linejoin:round;stroke-miterlimit:10;}
	.st13{fill:url(#SVGID_12_);stroke:#FED138;stroke-width:5;stroke-linecap:round;stroke-linejoin:round;stroke-miterlimit:10;}
	.st14{fill:url(#SVGID_13_);stroke:#FED138;stroke-width:5;stroke-linecap:round;stroke-linejoin:round;stroke-miterlimit:10;}
	.st15{fill:url(#SVGID_14_);stroke:#FED138;stroke-width:5;stroke-linecap:round;stroke-linejoin:round;stroke-miterlimit:10;}
	.st16{fill:url(#SVGID_15_);stroke:#FED138;stroke-width:5;stroke-linecap:round;stroke-linejoin:round;stroke-miterlimit:10;}
	.st17{fill:url(#SVGID_16_);stroke:#FED138;stroke-width:5;stroke-linecap:round;stroke-linejoin:round;stroke-miterlimit:10;}
</style>
<linearGradient id="SVGID_1_" gradientUnits="userSpaceOnUse" x1="2.9" y1="167.8336" x2="281.9" y2="167.8336">
	<stop  offset="0" style="stop-color:#330066"/>
	<stop  offset="1.813190e-03" style="stop-color:#3399FF"/>
	<stop  offset="1" style="stop-color:#330066"/>
</linearGradient>
<circle class="st0" cx="142.4" cy="167.8" r="139.5"/>
<g>
	<g>
		<g>
			<g>
				<g>
					<g>
						<g>
							<g>
								<defs>
									<path id="SVGID_2_" d="M-460.3,171.7C-460.3,93.4-523.7,30-602,30s-141.7,63.4-141.7,141.7s63.5,141.7,141.7,141.7
										S-460.3,250.1-460.3,171.7"/>
								</defs>
								<clipPath id="SVGID_3_">
									<use xlink:href="#SVGID_2_"  style="overflow:visible;"/>
								</clipPath>
								
									<linearGradient id="SVGID_4_" gradientUnits="userSpaceOnUse" x1="-4968.7061" y1="-633.7446" x2="-4966.5811" y2="-633.7446" gradientTransform="matrix(-139.3333 0 0 -139.3333 -692760.1875 -88129.9297)">
									<stop  offset="0" style="stop-color:#330066"/>
									<stop  offset="1.813190e-03" style="stop-color:#330066"/>
									<stop  offset="0.1749" style="stop-color:#380066"/>
									<stop  offset="0.3857" style="stop-color:#470066"/>
									<stop  offset="0.616" style="stop-color:#600066"/>
									<stop  offset="0.8586" style="stop-color:#820066"/>
									<stop  offset="0.9982" style="stop-color:#990066"/>
									<stop  offset="1" style="stop-color:#990066"/>
								</linearGradient>
								<rect x="-743.7" y="30.1" class="st1" width="283.4" height="283.4"/>
							</g>
						</g>
					</g>
				</g>
			</g>
		</g>
	</g>
</g>
<path class="st2" d="M-520,287.3c28.6-20.3,49.3-50.9,56.7-86.4c-18.4,2.6-34.7,15.1-41.3,33.8c-1.2,3.3-2,6.7-2.5,10.1
	c-15.4-3.4-31.2,5.1-36.6,20.3c-0.4,1.1-0.7,2.3-1,3.5c-1.9-1.3-4-2.3-6.2-3.1c-15-5.3-31.5,2.5-36.9,17.5
	c-1.5,4.1-1.9,8.3-1.5,12.4C-564,297-539.3,301.1-520,287.3z"/>
<path class="st2" d="M-647.6,251.4c-8.8-12-25.5-14.8-37.7-6.4c-1.1-3-2.7-5.8-4.7-8.5c-10.2-13.9-28.4-18.5-43.6-12.1
	c8.9,22.3,23.4,41.9,41.7,56.9c9.2,7.6,19,11.3,29.5,13.1c3.1-0.9,6.2-2.3,9-4.4C-641.2,281-638.6,263.7-647.6,251.4z"/>
<g>
	<path class="st3" d="M-541.6,276c-3.1-18.9-19.5-33.2-39.2-33.2c-11,0-21,4.5-28.2,11.7c-7.8-7.8-18.6-12.5-30.4-12.5
		c-18.1,0-33.6,11.2-40,27c-6,1.5-10.6,7.6-11.5,13.8c24.4,19.9,55.6,30.8,89.5,30.8c30.6,0,58.8-9.7,82-26.1
		C-524.9,281-532.8,276.7-541.6,276z"/>
</g>
<linearGradient id="SVGID_5_" gradientUnits="userSpaceOnUse" x1="-1712.2455" y1="101.2" x2="-1712.2455" y2="101.2" gradientTransform="matrix(-1 0 0 -1 -1622.4456 324)">
	<stop  offset="0" style="stop-color:#330066"/>
	<stop  offset="1.813190e-03" style="stop-color:#330066"/>
	<stop  offset="0.1749" style="stop-color:#380066"/>
	<stop  offset="0.3238" style="stop-color:#470066"/>
	<stop  offset="0.5129" style="stop-color:#600066"/>
	<stop  offset="0.74" style="stop-color:#820066"/>
	<stop  offset="0.9982" style="stop-color:#990066"/>
	<stop  offset="1" style="stop-color:#990066"/>
</linearGradient>
<path class="st4" d="M89.8,222.8"/>
<g>
	<path class="st5" d="M-597,63.3c-1-3.5-3.2-5.9-5.8-5.9s-4.8,2.4-5.8,5.9"/>
	<g>
		<path class="st5" d="M-603.3,255.9c0,0-18.3-12.5-18.3-37.5S-622,77.7-622,77.7s0-34.9,19.2-34.9l0,0c19.2,0,19.2,34.9,19.2,34.9
			s-0.4,115.8-0.4,140.7s-18.3,37.5-18.3,37.5"/>
		<path class="st5" d="M-603.3,255.9c0,0-18.3-12.5-18.3-37.5S-622,77.7-622,77.7s0-34.9,19.2-34.9l0,0c19.2,0,19.2,34.9,19.2,34.9
			s-0.4,115.8-0.4,140.7s-18.3,37.5-18.3,37.5"/>
		<path class="st5" d="M-654,129.6v-7.2c0-2.8-2.3-5.1-5.1-5.1h-10c-2.8,0-5.1,2.3-5.1,5.1v25c0,0.3,0,0.5,0.1,0.8
			C-664.4,139.2-663.8,138.7-654,129.6z"/>
		<path class="st5" d="M-531.7,149.1c0.2-0.5,0.3-1.1,0.3-1.7v-25c0-2.8-2.3-5.1-5.1-5.1h-10c-2.8,0-5.1,2.3-5.1,5.1v8.3
			L-531.7,149.1z"/>
		
			<linearGradient id="SVGID_6_" gradientUnits="userSpaceOnUse" x1="-968.5455" y1="65.7" x2="-968.5455" y2="65.7" gradientTransform="matrix(-1 0 0 -1 -1622.4456 324)">
			<stop  offset="0" style="stop-color:#330066"/>
			<stop  offset="1.813190e-03" style="stop-color:#330066"/>
			<stop  offset="0.1749" style="stop-color:#380066"/>
			<stop  offset="0.3238" style="stop-color:#470066"/>
			<stop  offset="0.5129" style="stop-color:#600066"/>
			<stop  offset="0.74" style="stop-color:#820066"/>
			<stop  offset="0.9982" style="stop-color:#990066"/>
			<stop  offset="1" style="stop-color:#990066"/>
		</linearGradient>
		<path class="st6" d="M-653.9,258.3"/>
		
			<linearGradient id="SVGID_7_" gradientUnits="userSpaceOnUse" x1="-1002.3455" y1="98.4" x2="-1002.3455" y2="98.4" gradientTransform="matrix(-1 0 0 -1 -1622.4456 324)">
			<stop  offset="0" style="stop-color:#330066"/>
			<stop  offset="1.813190e-03" style="stop-color:#330066"/>
			<stop  offset="0.1749" style="stop-color:#380066"/>
			<stop  offset="0.3238" style="stop-color:#470066"/>
			<stop  offset="0.5129" style="stop-color:#600066"/>
			<stop  offset="0.74" style="stop-color:#820066"/>
			<stop  offset="0.9982" style="stop-color:#990066"/>
			<stop  offset="1" style="stop-color:#990066"/>
		</linearGradient>
		<path class="st7" d="M-620.1,225.6"/>
		<g>
			<path class="st5" d="M-621.9,99.9c-26.6,24.5-102.7,95-102.7,95c-4.5,4.2,0.1,11.6,5.8,9.3l97.1-38.3
				C-621.7,142.7-621.8,117.4-621.9,99.9z"/>
			<path class="st5" d="M-482.2,194.9L-583.7,101c-0.1,17.6-0.1,42.5-0.2,65.3l95.9,37.8C-482.2,206.4-477.6,199-482.2,194.9z"/>
		</g>
		<g>
			<path class="st5" d="M-621,225.6h-0.3l-21.3,20.6c-4,3.9-0.8,10.7,4.8,10l30.7-3.7C-611.7,248.1-619,239.1-621,225.6z"/>
			<path class="st5" d="M-564.1,246.2l-20.5-19.8c-2.2,13.2-9.4,22-13.9,26.3l29.6,3.6C-563.3,256.9-560.1,250.1-564.1,246.2z"/>
		</g>
	</g>
</g>
<g>
	<path class="st8" d="M147.8,26.6c-1-3.5-3.2-5.9-5.8-5.9s-4.8,2.4-5.8,5.9"/>
	<g>
		<path class="st8" d="M141.6,219.1c0,0-18.3-12.5-18.3-37.5s-0.4-140.7-0.4-140.7S122.9,6,142.1,6l0,0c19.2,0,19.2,34.9,19.2,34.9
			s-0.4,115.8-0.4,140.7s-18.3,37.5-18.3,37.5"/>
		<path class="st8" d="M141.6,219.1c0,0-18.3-12.5-18.3-37.5s-0.4-140.7-0.4-140.7S122.9,6,142.1,6l0,0c19.2,0,19.2,34.9,19.2,34.9
			s-0.4,115.8-0.4,140.7s-18.3,37.5-18.3,37.5"/>
		<path class="st8" d="M90.8,92.8v-7.2c0-2.8-2.3-5.1-5.1-5.1h-10c-2.8,0-5.1,2.3-5.1,5.1v25c0,0.3,0,0.5,0.1,0.8
			C80.5,102.4,81,101.9,90.8,92.8z"/>
		<path class="st8" d="M213.2,112.3c0.2-0.5,0.3-1.1,0.3-1.7v-25c0-2.8-2.3-5.1-5.1-5.1h-10c-2.8,0-5.1,2.3-5.1,5.1v8.3L213.2,112.3
			z"/>
		
			<linearGradient id="SVGID_8_" gradientUnits="userSpaceOnUse" x1="-1713.3455" y1="102.5" x2="-1713.3455" y2="102.5" gradientTransform="matrix(-1 0 0 -1 -1622.4456 324)">
			<stop  offset="0" style="stop-color:#330066"/>
			<stop  offset="1.813190e-03" style="stop-color:#330066"/>
			<stop  offset="0.1749" style="stop-color:#380066"/>
			<stop  offset="0.3238" style="stop-color:#470066"/>
			<stop  offset="0.5129" style="stop-color:#600066"/>
			<stop  offset="0.74" style="stop-color:#820066"/>
			<stop  offset="0.9982" style="stop-color:#990066"/>
			<stop  offset="1" style="stop-color:#990066"/>
		</linearGradient>
		<path class="st9" d="M90.9,221.5"/>
		
			<linearGradient id="SVGID_9_" gradientUnits="userSpaceOnUse" x1="-1747.2455" y1="135.2" x2="-1747.2455" y2="135.2" gradientTransform="matrix(-1 0 0 -1 -1622.4456 324)">
			<stop  offset="0" style="stop-color:#330066"/>
			<stop  offset="1.813190e-03" style="stop-color:#330066"/>
			<stop  offset="0.1749" style="stop-color:#380066"/>
			<stop  offset="0.3238" style="stop-color:#470066"/>
			<stop  offset="0.5129" style="stop-color:#600066"/>
			<stop  offset="0.74" style="stop-color:#820066"/>
			<stop  offset="0.9982" style="stop-color:#990066"/>
			<stop  offset="1" style="stop-color:#990066"/>
		</linearGradient>
		<path class="st10" d="M124.8,188.8"/>
		<g>
			<path class="st8" d="M123,63.1c-26.6,24.5-102.7,95-102.7,95c-4.5,4.2,0.1,11.6,5.8,9.3l97.1-38.3C123.1,105.9,123,80.7,123,63.1
				z"/>
			<path class="st8" d="M262.7,158.1L161.2,64.3c-0.1,17.6-0.1,42.5-0.2,65.3l95.9,37.8C262.6,169.6,267.2,162.3,262.7,158.1z"/>
		</g>
		<g>
			<path class="st8" d="M123.8,188.8h-0.3l-21.3,20.6c-4,3.9-0.8,10.7,4.8,10l30.7-3.7C133.1,211.3,125.8,202.3,123.8,188.8z"/>
			<path class="st8" d="M180.7,209.4l-20.5-19.8c-2.2,13.2-9.4,22-13.9,26.3l29.6,3.6C181.5,220.1,184.8,213.3,180.7,209.4z"/>
		</g>
	</g>
</g>
<line class="st5" x1="-601.5" y1="271.3" x2="-601.5" y2="301.3"/>
<line class="st5" x1="-579.5" y1="271.3" x2="-579.5" y2="286.3"/>
<line class="st5" x1="-625.8" y1="271.3" x2="-625.8" y2="286.3"/>
<line class="st8" x1="142.4" y1="232.6" x2="142.4" y2="286.3"/>
<line class="st8" x1="166.5" y1="232.6" x2="166.5" y2="259.5"/>
<line class="st8" x1="120.2" y1="232.6" x2="120.2" y2="259.5"/>
<linearGradient id="SVGID_10_" gradientUnits="userSpaceOnUse" x1="-157.6" y1="224.6" x2="-177.8" y2="224.6" gradientTransform="matrix(1 0 0 -1 0 324)">
	<stop  offset="0" style="stop-color:#330066"/>
	<stop  offset="1.813190e-03" style="stop-color:#330066"/>
	<stop  offset="0.1749" style="stop-color:#380066"/>
	<stop  offset="0.3238" style="stop-color:#470066"/>
	<stop  offset="0.5129" style="stop-color:#600066"/>
	<stop  offset="0.74" style="stop-color:#820066"/>
	<stop  offset="0.9982" style="stop-color:#990066"/>
	<stop  offset="1" style="stop-color:#990066"/>
</linearGradient>
<path class="st11" d="M-162.7,117h-10c-2.8,0-5.1-2.3-5.1-5.1v-25c0-2.8,2.3-5.1,5.1-5.1h10c2.8,0,5.1,2.3,5.1,5.1v25
	C-157.6,114.7-159.9,117-162.7,117z"/>
<linearGradient id="SVGID_11_" gradientUnits="userSpaceOnUse" x1="-280.2401" y1="224.6" x2="-300.4401" y2="224.6" gradientTransform="matrix(1 0 0 -1 0 324)">
	<stop  offset="0" style="stop-color:#330066"/>
	<stop  offset="1.813190e-03" style="stop-color:#330066"/>
	<stop  offset="0.1749" style="stop-color:#380066"/>
	<stop  offset="0.3238" style="stop-color:#470066"/>
	<stop  offset="0.5129" style="stop-color:#600066"/>
	<stop  offset="0.74" style="stop-color:#820066"/>
	<stop  offset="0.9982" style="stop-color:#990066"/>
	<stop  offset="1" style="stop-color:#990066"/>
</linearGradient>
<path class="st12" d="M-285.3,117h-10c-2.8,0-5.1-2.3-5.1-5.1v-25c0-2.8,2.3-5.1,5.1-5.1h10c2.8,0,5.1,2.3,5.1,5.1v25
	C-280.2,114.7-282.5,117-285.3,117z"/>
<linearGradient id="SVGID_12_" gradientUnits="userSpaceOnUse" x1="-114.7259" y1="118.5749" x2="-196.8004" y2="118.5749" gradientTransform="matrix(1 0 0 -1 -73.7906 324)">
	<stop  offset="0" style="stop-color:#330066"/>
	<stop  offset="1.813190e-03" style="stop-color:#330066"/>
	<stop  offset="0.1749" style="stop-color:#380066"/>
	<stop  offset="0.3238" style="stop-color:#470066"/>
	<stop  offset="0.5129" style="stop-color:#600066"/>
	<stop  offset="0.74" style="stop-color:#820066"/>
	<stop  offset="0.9982" style="stop-color:#990066"/>
	<stop  offset="1" style="stop-color:#990066"/>
</linearGradient>
<path class="st13" d="M-247.6,190.1l-21.3,20.6c-4,3.9-0.8,10.7,4.8,10l34.5-4.1h-1.3h2.5h-1.3l34.5,4.1c5.6,0.7,8.8-6.1,4.8-10
	l-21.3-20.6"/>
<linearGradient id="SVGID_13_" gradientUnits="userSpaceOnUse" x1="-1589.6515" y1="215.8332" x2="-1343.577" y2="215.8332" gradientTransform="matrix(-1 0 0 -1 -1696.2361 324)">
	<stop  offset="0" style="stop-color:#330066"/>
	<stop  offset="1.813190e-03" style="stop-color:#330066"/>
	<stop  offset="0.1749" style="stop-color:#380066"/>
	<stop  offset="0.3238" style="stop-color:#470066"/>
	<stop  offset="0.5129" style="stop-color:#600066"/>
	<stop  offset="0.74" style="stop-color:#820066"/>
	<stop  offset="0.9982" style="stop-color:#990066"/>
	<stop  offset="1" style="stop-color:#990066"/>
</linearGradient>
<path class="st14" d="M-231,123.6l-114,45c-5.7,2.3-10.4-5.1-5.8-9.3l121.2-112l121.2,112c4.5,4.2-0.1,11.6-5.8,9.3l-114-45"/>
<linearGradient id="SVGID_14_" gradientUnits="userSpaceOnUse" x1="-1342.3455" y1="101.2" x2="-1342.3455" y2="101.2" gradientTransform="matrix(-1 0 0 -1 -1622.4456 324)">
	<stop  offset="0" style="stop-color:#330066"/>
	<stop  offset="1.813190e-03" style="stop-color:#330066"/>
	<stop  offset="0.1749" style="stop-color:#380066"/>
	<stop  offset="0.3238" style="stop-color:#470066"/>
	<stop  offset="0.5129" style="stop-color:#600066"/>
	<stop  offset="0.74" style="stop-color:#820066"/>
	<stop  offset="0.9982" style="stop-color:#990066"/>
	<stop  offset="1" style="stop-color:#990066"/>
</linearGradient>
<path class="st15" d="M-280.1,222.8"/>
<linearGradient id="SVGID_15_" gradientUnits="userSpaceOnUse" x1="-1376.1455" y1="133.9" x2="-1376.1455" y2="133.9" gradientTransform="matrix(-1 0 0 -1 -1622.4456 324)">
	<stop  offset="0" style="stop-color:#330066"/>
	<stop  offset="1.813190e-03" style="stop-color:#330066"/>
	<stop  offset="0.1749" style="stop-color:#380066"/>
	<stop  offset="0.3238" style="stop-color:#470066"/>
	<stop  offset="0.5129" style="stop-color:#600066"/>
	<stop  offset="0.74" style="stop-color:#820066"/>
	<stop  offset="0.9982" style="stop-color:#990066"/>
	<stop  offset="1" style="stop-color:#990066"/>
</linearGradient>
<path class="st16" d="M-246.3,190.1"/>
<path class="st2" d="M-146.2,287.3c28.6-20.3,49.3-50.9,56.7-86.4c-18.4,2.6-34.7,15.1-41.3,33.8c-1.2,3.3-2,6.7-2.5,10.1
	c-15.4-3.4-31.2,5.1-36.6,20.3c-0.4,1.1-0.7,2.3-1,3.5c-1.9-1.3-4-2.3-6.2-3.1c-15-5.3-31.5,2.5-36.9,17.5
	c-1.5,4.1-1.9,8.3-1.5,12.4C-190.2,297-165.6,301.1-146.2,287.3z"/>
<path class="st2" d="M-273.8,251.4c-8.8-12-25.5-14.8-37.7-6.4c-1.1-3-2.7-5.8-4.7-8.5c-10.2-13.9-28.4-18.5-43.6-12.1
	c8.9,22.3,23.4,41.9,41.7,56.9c9.2,7.6,19,11.3,29.5,13.1c3.1-0.9,6.2-2.3,9-4.4C-267.4,281-264.8,263.7-273.8,251.4z"/>
<g>
	<path class="st3" d="M-167.8,276c-3.1-18.9-19.5-33.2-39.2-33.2c-11,0-21,4.5-28.2,11.7c-7.8-7.8-18.6-12.5-30.4-12.5
		c-18.1,0-33.6,11.2-40,27c-6,1.5-10.6,7.6-11.5,13.8c24.4,19.9,55.6,30.8,89.5,30.8c30.6,0,58.8-9.7,82-26.1
		C-151.1,281-159,276.7-167.8,276z"/>
</g>
<linearGradient id="SVGID_16_" gradientUnits="userSpaceOnUse" x1="-209.8" y1="210.25" x2="-248.2" y2="210.25" gradientTransform="matrix(1 0 0 -1 0 324)">
	<stop  offset="0" style="stop-color:#330066"/>
	<stop  offset="1.813190e-03" style="stop-color:#330066"/>
	<stop  offset="0.1749" style="stop-color:#380066"/>
	<stop  offset="0.3238" style="stop-color:#470066"/>
	<stop  offset="0.5129" style="stop-color:#600066"/>
	<stop  offset="0.74" style="stop-color:#820066"/>
	<stop  offset="0.9982" style="stop-color:#990066"/>
	<stop  offset="1" style="stop-color:#990066"/>
</linearGradient>
<path class="st17" d="M-229.5,220.3c0,0-18.3-12.5-18.3-37.5s-0.4-140.7-0.4-140.7s0-34.9,19.2-34.9l0,0c19.2,0,19.2,34.9,19.2,34.9
	s-0.4,115.8-0.4,140.7s-18.3,37.5-18.3,37.5"/>
<path class="st5" d="M-223.2,26.3c-1-3.5-3.2-5.9-5.8-5.9s-4.8,2.4-5.8,5.9"/>
<line class="st5" x1="-228.5" y1="232.6" x2="-228.5" y2="286.3"/>
<line class="st5" x1="-206.4" y1="232.6" x2="-206.4" y2="259.5"/>
<line class="st5" x1="-252.8" y1="232.6" x2="-252.8" y2="259.5"/>
</svg>
