<?xml version="1.0" encoding="utf-8"?>
<!-- Generator: Adobe Illustrator 22.1.0, SVG Export Plug-In . SVG Version: 6.00 Build 0)  -->
<svg version="1.1" id="Слой_1" xmlns="http://www.w3.org/2000/svg" xmlns:xlink="http://www.w3.org/1999/xlink" x="0px" y="0px"
	 viewBox="0 0 300 300" style="enable-background:new 0 0 300 300;" xml:space="preserve">
<style type="text/css">
	.st0{display:none;fill:none;}
	.st1{clip-path:url(#SVGID_3_);fill:url(#SVGID_4_);}
	.st2{fill:none;stroke:#3398FF;stroke-width:4;stroke-linecap:round;stroke-linejoin:round;stroke-miterlimit:10;}
	.st3{fill:none;stroke:#3398FF;stroke-width:4;stroke-miterlimit:10;}
</style>
<rect x="-5.3" y="-5.5" class="st0" width="310.5" height="310.5"/>
<g>
	<g>
		<g>
			<g>
				<defs>
					<path id="SVGID_1_" d="M300,150C300,67.1,232.9,0,150,0S0,67.1,0,150s67.2,150,150,150S300,232.9,300,150"/>
				</defs>
				
					<linearGradient id="SVGID_2_" gradientUnits="userSpaceOnUse" x1="0" y1="150" x2="300" y2="150" gradientTransform="matrix(-1 0 0 -1 300 300)">
					<stop  offset="0" style="stop-color:#330066"/>
					<stop  offset="0.1703" style="stop-color:#380066"/>
					<stop  offset="0.386" style="stop-color:#480066"/>
					<stop  offset="0.626" style="stop-color:#620066"/>
					<stop  offset="0.882" style="stop-color:#860066"/>
					<stop  offset="1" style="stop-color:#990066"/>
				</linearGradient>
				<use xlink:href="#SVGID_1_"  style="overflow:visible;fill:url(#SVGID_2_);"/>
				<clipPath id="SVGID_3_">
					<use xlink:href="#SVGID_1_"  style="overflow:visible;"/>
				</clipPath>
				
					<linearGradient id="SVGID_4_" gradientUnits="userSpaceOnUse" x1="-3212.8232" y1="4.4923" x2="-3210.574" y2="4.4923" gradientTransform="matrix(-139.3333 0 0 -139.3333 -447346.5625 775.9806)">
					<stop  offset="0" style="stop-color:#330066"/>
					<stop  offset="0.1703" style="stop-color:#380066"/>
					<stop  offset="0.386" style="stop-color:#480066"/>
					<stop  offset="0.626" style="stop-color:#620066"/>
					<stop  offset="0.882" style="stop-color:#860066"/>
					<stop  offset="1" style="stop-color:#990066"/>
				</linearGradient>
				<rect x="0.1" y="0.1" class="st1" width="299.9" height="299.9"/>
			</g>
		</g>
	</g>
</g>
<polyline class="st2" points="237.9,85.4 228.7,94.6 223,88.9 "/>
<path class="st2" d="M160.4,175.6c0,28.4-23,51.4-51.4,51.4s-51.4-23-51.4-51.4s23-51.4,51.4-51.4S160.4,147.3,160.4,175.6z
	 M160.4,175.6c0,28.4-23,51.4-51.4,51.4s-51.4-23-51.4-51.4s23-51.4,51.4-51.4S160.4,147.3,160.4,175.6z M171.1,175.6
	c0,34.3-27.8,62.1-62.1,62.1S46.8,210,46.8,175.6s27.8-62.1,62.1-62.1S171.1,141.3,171.1,175.6z M198.1,273.5l-49.6-49.6l7.6-7.6
	l49.6,49.6L198.1,273.5z M171.1,175.6c0,34.3-27.8,62.1-62.1,62.1S46.8,210,46.8,175.6s27.8-62.1,62.1-62.1S171.1,141.3,171.1,175.6
	z"/>
<g>
	<path class="st2" d="M124.2,159.9c-8.8-8.8-23.1-8.8-31.8-0.3c-8.8,8.8-8.8,23.1-0.3,31.8c8.8,8.8,23.3,8.8,32.1,0
		C133,182.9,133,168.9,124.2,159.9z"/>
	<path class="st2" d="M113,211.3c-0.6,0.1-1,0.4-1.4,0.4c-2.2,0-4.5,0.1-6.5-0.1c-0.7-0.1-1.7-1.3-1.9-2c-0.4-2.2,0.1-4.9-1-6.4
		s-4-1.4-5.8-2.6c-2.6-1.7-4.2-0.7-6.2,1c-4.2,3.6-3.6,3.5-7.5-0.4c-2.9-2.9-4.3-2.9-0.4-6.9c2.3-2.3,2.9-4.5,0.9-7.2
		c-0.6-0.7-0.9-1.6-1-2.6c-0.3-2.5-1.7-3-4-3.2c-6.5-0.6-5.8-0.1-5.8-6.5c0-4,0-4.3,4-4.5c3.5-0.1,5.9-0.9,6.2-4.9
		c0-0.4,0.3-0.9,0.6-1.2c2.3-2.7,1.3-5.1-0.9-7.2c-0.6-0.4-1-1-1.4-1.6c-1-1.3-1-2.3,0.3-3.5c1.3-1.3,2.6-2.6,3.9-3.9
		c1-1,2-1.2,3.2-0.1c1.7,1.3,3.3,3.5,5.2,3.9c1.7,0.3,3.8-1.7,5.8-2.2c3-0.6,3.8-2.2,3.9-5.1c0.3-5.1,0.4-5.1,5.5-5.1
		c4.9,0,5.3-0.7,5.5,4.9c0.1,3,1,4.6,4,5.2c1.4,0.3,2.9,1.2,4.2,1.9c1,0.7,1.7,0.4,2.6-0.3c1.2-1.2,2.5-2,3.8-3.2
		c1.3-1.2,2.5-1.2,3.8,0.1c1.2,1.3,2.5,2.5,3.8,3.8c1.2,1.2,1.3,2.5,0,3.5c-3.3,3-4,5.9-1.9,10.2c1.4,3,2.7,4.6,6.1,4.3
		c0.6,0,1.3,0.1,1.9,0.1c1.7,0.1,2.6,0.9,2.5,2.7c-0.1,1.7-0.1,3.5,0,5.1c0.1,1.9-0.9,2.6-2.5,2.7c-1.7,0.1-3.5,0.3-5.2,0.6
		c-0.6,0.1-1.3,0.7-1.6,1.3c-1,2.2-1.9,4.3-2.7,6.6c-0.3,0.7-0.1,1.7,0.1,2.3c0.9,1.4,2,2.7,3.2,3.9c1,1.2,1.2,2.2,0,3.3
		c-1.3,1.3-2.7,2.7-4,4c-1.2,1.2-2.2,1-3.3,0.1c-1.3-1.2-2.6-2.3-4.2-3.3c-0.6-0.3-1.6-0.4-2.2-0.1c-2.3,0.9-4.3,1.9-6.6,2.6
		c-1.2,0.4-1.4,0.9-1.4,1.9c-0.1,1.7-0.3,3.3-0.6,5.1C113.4,210.1,113.1,210.7,113,211.3z"/>
</g>
<g>
	<path class="st3" d="M98.8,66l8.4,8.4c0.2,0.2,0.4,0.3,0.7,0.3c0.3,0,0.5-0.1,0.7-0.3l12.6-12.6c0.3-0.3,0.3-1,0-1.4l-2.8-2.8
		c-0.2-0.2-0.4-0.3-0.7-0.3c-0.3,0-0.5,0.1-0.7,0.3l-9.1,9.2l-4.9-4.9c-0.3-0.3-1-0.3-1.4,0l-2.8,2.8C98.4,64.9,98.4,65.5,98.8,66"
		/>
	<path class="st2" d="M110,102.1c0.4,0,2.5-1,2.9-1.2c6.3-3.4,23.9-13.1,23.9-25.1V40c0,0,0-0.1,0-0.1c0-0.5-0.2-0.8-0.9-0.8
		c0,0,0,0,0,0c-0.2-0.1-0.5-0.1-0.7-0.1c-3.7,0-6.9-0.2-9.6-0.6c-11.6-2-13.8-7-13.8-7.1c-0.1-0.3-0.4-0.1-0.9-0.1
		c-0.3,0-0.6,0-0.9,0c-0.3,0-0.6,0-0.9,0c-0.4,0-0.7-0.1-0.9,0.1c0,0.1-2.2,5.1-13.8,7.1c-2.7,0.4-5.9,0.6-9.6,0.6
		c-0.2,0-0.5,0.1-0.7,0.1c0,0,0,0,0,0c-0.7,0-0.9,0.3-0.9,0.8c0,0,0,0.1,0,0.1v35.8c0,11.9,17.6,21.6,23.9,25.1
		c0.4,0.1,2.6,1.2,2.9,1.2 M129.4,73.7c0,9-18.5,19.1-18.8,19.3h-1.2c-0.3-0.1-18.8-10.3-18.8-19.3V45.7c0-0.2,0-0.4,0.1-0.5
		c1.2-0.1,2.3-0.2,3.4-0.3c12-0.6,15.3-4.7,15.9-5.8c0.7,1.1,3.9,5.2,15.9,5.8c1,0.1,2.2,0.2,3.4,0.3c0.1,0.1,0.1,0.3,0.1,0.5V73.7z
		"/>
</g>
<polygon class="st2" points="120.4,174.8 102.5,164.5 102.5,185.2 "/>
<polyline class="st2" points="248.9,156.2 227.3,156.2 227.3,177.8 "/>
<line class="st2" x1="170.3" y1="90" x2="210.5" y2="90"/>
<polyline class="st2" points="237.9,104 228.7,113.3 223,107.5 "/>
<line class="st2" x1="170.3" y1="108.7" x2="210.5" y2="108.7"/>
<polyline class="st2" points="237.9,122.7 228.7,131.9 223,126.2 "/>
<line class="st2" x1="170.3" y1="127.3" x2="210.5" y2="127.3"/>
<path class="st2" d="M247,72.8h-88.7c-1.6,0-2.9,1.3-2.9,2.9v58.6c9.8,11,15.8,25.5,15.8,41.4c0,1.1,0,2.1-0.1,3.1h57.2l21.6-21.6
	V75.7C249.9,74.1,248.6,72.8,247,72.8z"/>
</svg>
