<?xml version="1.0" encoding="utf-8"?>
<!-- Generator: Adobe Illustrator 22.1.0, SVG Export Plug-In . SVG Version: 6.00 Build 0)  -->
<svg version="1.1" id="Слой_1" xmlns="http://www.w3.org/2000/svg" xmlns:xlink="http://www.w3.org/1999/xlink" x="0px" y="0px"
	 viewBox="0 0 300 300" style="enable-background:new 0 0 300 300;" xml:space="preserve">
<style type="text/css">
	.st0{display:none;fill:none;}
	.st1{clip-path:url(#SVGID_2_);fill:url(#SVGID_3_);}
	.st2{fill:none;}
	.st3{fill:none;stroke:#FFCC00;stroke-width:4;stroke-linecap:round;stroke-linejoin:round;stroke-miterlimit:10;}
	.st4{fill:none;stroke:#FFD138;stroke-width:4;stroke-miterlimit:10;}
	.st5{fill:none;stroke:#FFD138;stroke-width:4;stroke-linecap:round;stroke-linejoin:round;stroke-miterlimit:10;}
</style>
<rect x="-5.3" y="-5.5" class="st0" width="310.5" height="310.5"/>
<g>
	<g>
		<g>
			<g>
				<g>
					<defs>
						<path id="SVGID_1_" d="M300,150C300,67.1,232.9,0,150,0S0,67.1,0,150s67.2,150,150,150S300,232.9,300,150"/>
					</defs>
					<clipPath id="SVGID_2_">
						<use xlink:href="#SVGID_1_"  style="overflow:visible;"/>
					</clipPath>
					
						<linearGradient id="SVGID_3_" gradientUnits="userSpaceOnUse" x1="-2949.6294" y1="689.2996" x2="-2947.3801" y2="689.2996" gradientTransform="matrix(-139.3333 0 0 139.3333 -410674.9375 -95892.3281)">
						<stop  offset="0" style="stop-color:#330066"/>
						<stop  offset="1.813190e-03" style="stop-color:#330066"/>
						<stop  offset="0.1749" style="stop-color:#380066"/>
						<stop  offset="0.3857" style="stop-color:#470066"/>
						<stop  offset="0.616" style="stop-color:#600066"/>
						<stop  offset="0.8586" style="stop-color:#820066"/>
						<stop  offset="0.9982" style="stop-color:#990066"/>
						<stop  offset="1" style="stop-color:#990066"/>
					</linearGradient>
					<rect x="0.1" y="0.1" class="st1" width="299.9" height="299.9"/>
				</g>
			</g>
		</g>
	</g>
</g>
<rect x="-1.3" y="-5.5" class="st2" width="310.5" height="310.5"/>
<g>
	<path class="st3" d="M204.8,174.9c0-25.8-20.9-46.8-46.8-46.8s-46.8,20.9-46.8,46.8s20.9,46.8,46.8,46.8S204.8,200.7,204.8,174.9z
		 M158,213.6c-21.4,0-38.7-17.3-38.7-38.7s17.3-38.7,38.7-38.7s38.7,17.4,38.7,38.7C196.7,196.3,179.4,213.6,158,213.6z"/>
	<circle class="st3" cx="158" cy="174.9" r="38.7"/>
	
		<rect x="208.7" y="199.3" transform="matrix(0.7071 -0.7071 0.7071 0.7071 -100.7098 217.9603)" class="st3" width="8.1" height="62.5"/>
</g>
<path class="st3" d="M207.8,161.3h-5c1.3,4.3,2,8.9,2,13.6c0,9.1-2.6,17.6-7.1,24.8h10.2c2.7,0,4.9-2.2,4.9-4.9v-28.6
	C212.7,163.5,210.5,161.3,207.8,161.3z"/>
<path class="st3" d="M193.3,190.7c-2.1-1.9-5.3-1.9-7.4,0c-2.1,2-2.1,5.4-0.1,7.5c0.6,0.6,1.2,1,2,1.3"/>
<path class="st3" d="M195.5,184.6c-1.1-0.3-2.1-0.7-3-1.3c-0.4-0.3-0.5-1.3-0.5-2c0-2-1.3-1.6-2.5-1.7c-1.3-0.1-2.1,0.2-2.1,1.7
	c0.1,1.4-0.3,2.5-2,2.6c-0.2,0-0.5,0.2-0.7,0.3c-0.9,0.7-1.7,0.5-2.5-0.3c-1.5-1.4-1.6-1.4-3.1,0.2c-0.2,0.2-0.3,0.4-0.5,0.5
	c-0.8,0.6-0.8,1.4-0.1,2c1.4,1.2,1.5,2.5,0.5,3.9c-0.1,0.2-0.1,0.5-0.3,0.7c-0.4,0.4-0.8,0.9-1.3,1c-0.8,0.2-1.6,0.3-2.7,0.4
	c0,1.2-0.1,2.4,0.1,3.5c0.1,0.3,1,0.7,1.5,0.7c1.5,0,2.5,0.5,2.7,2.1c0,0.2,0.1,0.4,0.2,0.5c0.8,0.9,0.5,1.7-0.2,2.6
	c-1.4,1.7-1.4,1.7,0.1,3.2c0.2,0.2,0.4,0.3,0.5,0.5c0.3,0.4,0.6,0.5,0.9,0.6"/>
<path class="st3" d="M161.3,165.2c-3.5-3.5-9.2-3.5-12.7-0.1c-3.5,3.5-3.5,9.2-0.1,12.7c3.5,3.5,9.3,3.5,12.8,0
	C164.8,174.4,164.8,168.8,161.3,165.2z"/>
<path class="st3" d="M158.2,196.2c-0.4,0.1-0.7,0.3-1,0.3c-1.5,0-3.1,0.1-4.5-0.1c-0.5-0.1-1.2-0.9-1.3-1.4
	c-0.3-1.5,0.1-3.4-0.7-4.4s-2.8-1-4-1.8c-1.8-1.2-2.9-0.5-4.3,0.7c-2.9,2.5-2.5,2.4-5.2-0.3c-2-2-3-2-0.3-4.8c1.6-1.6,2-3.1,0.6-5
	c-0.4-0.5-0.6-1.1-0.7-1.8c-0.2-1.7-1.2-2.1-2.8-2.2c-4.5-0.4-4-0.1-4-4.5c0-2.8,0-3,2.8-3.1c2.4-0.1,4.1-0.6,4.3-3.4
	c0-0.3,0.2-0.6,0.4-0.8c1.6-1.9,0.9-3.5-0.6-5c-0.4-0.3-0.7-0.7-1-1.1c-0.7-0.9-0.7-1.6,0.2-2.4c0.9-0.9,1.8-1.8,2.7-2.7
	c0.7-0.7,1.4-0.8,2.2-0.1c1.2,0.9,2.3,2.4,3.6,2.7c1.2,0.2,2.6-1.2,4-1.5c2.1-0.4,2.6-1.5,2.7-3.5c0.2-3.5,0.3-3.5,3.8-3.5
	c3.4,0,3.7-0.5,3.8,3.4c0.1,2.1,0.7,3.2,2.8,3.6c1,0.2,2,0.8,2.9,1.3c0.7,0.5,1.2,0.3,1.8-0.2c0.8-0.8,1.7-1.4,2.6-2.2
	c0.9-0.8,1.7-0.8,2.6,0.1c0.8,0.9,1.7,1.7,2.6,2.6c0.8,0.8,0.9,1.7,0,2.4c-2.3,2.1-2.8,4.1-1.3,7.1c1,2.1,1.9,3.2,4.2,3
	c0.4,0,0.9,0.1,1.3,0.1c1.2,0.1,1.8,0.6,1.7,1.9c-0.1,1.2-0.1,2.4,0,3.5c0.1,1.3-0.6,1.8-1.7,1.9c-1.2,0.1-2.4,0.2-3.6,0.4
	c-0.4,0.1-0.9,0.5-1.1,0.9c-0.7,1.5-1.3,3-1.9,4.6c-0.2,0.5-0.1,1.2,0.1,1.6c0.6,1,1.4,1.9,2.2,2.7c0.7,0.8,0.8,1.5,0,2.3
	c-0.9,0.9-1.9,1.9-2.8,2.8c-0.8,0.8-1.5,0.7-2.3,0.1c-0.9-0.8-1.8-1.6-2.9-2.3c-0.4-0.2-1.1-0.3-1.5-0.1c-1.6,0.6-3,1.3-4.6,1.8
	c-0.8,0.3-1,0.6-1,1.3c-0.1,1.2-0.2,2.3-0.4,3.5C158.5,195.4,158.3,195.8,158.2,196.2z"/>
<path class="st3" d="M256.2,161.3h12.1c2.7,0,4.9,2.2,4.9,4.9v28.6c0,2.7-2.2,4.9-4.9,4.9h-12.1c-2.7,0-4.9-2.2-4.9-4.9v-28.6
	C251.2,163.5,253.5,161.3,256.2,161.3z"/>
<path class="st3" d="M225.4,161.3h12.1c2.7,0,4.9,2.2,4.9,4.9v28.6c0,2.7-2.2,4.9-4.9,4.9h-12.1c-2.7,0-4.9-2.2-4.9-4.9v-28.6
	C220.5,163.5,222.7,161.3,225.4,161.3z"/>
<path class="st3" d="M111.3,174.9c0-12.3,4.8-23.5,12.6-31.9c-0.5-0.2-1.1-0.3-1.7-0.3H93.5c-2.7,0-4.9,2.2-4.9,4.9v28.6
	c0,2.7,2.2,4.9,4.9,4.9h18.1C111.4,179.1,111.3,177,111.3,174.9z"/>
<path class="st3" d="M114.2,192.4c-0.6,0.8-1,1.9-1,3V224c0,2.7,2.2,4.9,4.9,4.9h28.6c2.7,0,4.9-2.2,4.9-4.9v-1.7"/>
<path class="st3" d="M95.7,228.9H67.1c-2.7,0-4.9-2.2-4.9-4.9v-28.6c0-2.7,2.2-4.9,4.9-4.9h28.6c2.7,0,4.9,2.2,4.9,4.9V224
	C100.6,226.6,98.4,228.9,95.7,228.9z"/>
<path class="st3" d="M44,228.9H15.4c-2.7,0-4.9-2.2-4.9-4.9v-28.6c0-2.7,2.2-4.9,4.9-4.9H44c2.7,0,4.9,2.2,4.9,4.9V224
	C48.9,226.6,46.7,228.9,44,228.9z"/>
<path class="st3" d="M71.1,181.2H42.5c-2.7,0-4.9-2.2-4.9-4.9v-28.6c0-2.7,2.2-4.9,4.9-4.9h28.6c2.7,0,4.9,2.2,4.9,4.9v28.6
	C76,178.9,73.8,181.2,71.1,181.2z"/>
<path class="st4" d="M142.5,69.8l8.6,8.7c0.2,0.2,0.4,0.3,0.8,0.3c0.3,0,0.5-0.1,0.8-0.3l12.9-13c0.3-0.3,0.3-1,0-1.4l-2.9-2.9
	c-0.2-0.2-0.4-0.3-0.8-0.3c-0.3,0-0.5,0.1-0.8,0.3l-9.4,9.4l-5-5.1c-0.3-0.3-1-0.3-1.4,0l-2.9,2.9C142.1,68.7,142.1,69.3,142.5,69.8
	"/>
<path class="st5" d="M154.1,106.9c0.4,0,2.6-1.1,3-1.2c6.5-3.5,24.6-13.5,24.6-25.8V43v-0.1c0-0.5-0.2-0.8-0.9-0.8l0,0
	c-0.3-0.1-0.5-0.2-0.7-0.2c-3.8,0-7.1-0.3-9.9-0.7c-11.9-2-14.2-7.2-14.2-7.3c-0.2-0.3-0.5-0.2-0.9-0.2c-0.3,0-0.6,0-0.9,0
	c-0.3,0-0.7,0-0.9,0c-0.5,0-0.8-0.2-0.9,0.2c0,0.1-2.3,5.3-14.2,7.3c-2.8,0.4-6.1,0.7-9.9,0.7c-0.2,0-0.5,0.1-0.7,0.2l0,0
	c-0.7,0-0.9,0.3-0.9,0.8V43v36.9c0,12.3,18.1,22.3,24.6,25.8c0.4,0.1,2.6,1.3,3,1.2 M174,77.7c0,9.2-19.1,19.7-19.4,19.8h-1.2
	C153.1,97.4,134,87,134,77.7V48.8c0-0.2,0-0.4,0.1-0.5c1.2-0.1,2.4-0.2,3.5-0.3c12.3-0.6,15.7-4.8,16.4-6c0.7,1.1,4.1,5.4,16.4,6
	c1.1,0.1,2.2,0.2,3.5,0.3c0.1,0.1,0.1,0.3,0.1,0.5V77.7z"/>
</svg>
